<svg width="500" height="282" viewBox="0 0 500 282" fill="none" xmlns="http://www.w3.org/2000/svg">
<rect width="500" height="281.25" fill="black"/>
<path d="M341.388 161.247C340.378 170.336 338.156 170.134 335.329 170.942C332.703 171.548 333.713 173.163 335.329 172.961C335.935 172.961 340.58 172.356 343.61 172.356C348.053 172.356 351.89 172.76 354.112 172.76C354.92 172.76 356.132 171.548 354.112 170.942C351.688 170.336 345.427 170.942 344.821 160.035C344.417 151.957 345.023 124.691 345.023 124.691C345.023 122.873 345.225 122.469 345.629 122.469C346.235 122.469 346.841 123.479 347.447 124.287L385.417 172.692C389.457 177.338 389.659 175.924 389.659 171.278C389.457 156.131 389.861 114.188 389.861 114.188C390.063 105.908 397.334 109.341 397.334 106.715C397.334 106.11 396.93 105.908 396.526 105.908C394.304 105.908 388.245 106.513 385.215 106.513C382.388 106.513 380.772 106.11 377.944 106.11C377.339 106.11 376.935 106.311 376.935 107.119C376.935 109.745 386.629 105.302 386.225 119.036V158.622C386.225 159.43 386.225 160.843 384.811 158.622L345.427 108.197C344.821 107.591 344.013 105.975 343.206 105.975C341.792 105.975 337.55 106.379 336.137 106.379C334.723 106.379 333.309 105.975 331.895 105.975C331.491 105.975 330.482 106.379 330.482 106.985C330.885 110.418 341.388 106.379 341.59 121.93C341.59 121.863 341.792 157.208 341.388 161.247ZM403.325 98.0307C402.113 98.4347 400.296 100.05 399.488 100.454C398.68 101.06 398.68 102.07 399.084 103.08C401.306 107.321 403.527 114.39 398.074 123.075C397.266 124.489 395.852 124.893 396.458 125.499C397.266 126.105 399.69 124.489 400.902 123.277C406.961 117.42 408.98 107.321 405.547 100.05C404.739 98.6366 404.335 97.8287 403.325 98.0307ZM411 167.643C411.404 169.259 419.079 172.692 425.946 172.692C446.951 172.692 452 161.18 452 153.303C452 128.057 416.251 137.348 416.251 119.574C416.251 110.889 422.916 107.254 430.389 107.254C438.468 107.254 445.133 112.505 447.557 118.968C447.961 119.776 448.365 121.796 449.374 121.796C450.384 121.796 450.182 121.19 449.98 120.382L448.567 107.052C448.567 106.042 447.961 105.638 447.355 105.638C446.345 105.638 445.941 107.254 444.123 107.052C442.911 106.85 440.69 104.224 430.995 104.224C420.291 104.224 411.202 110.687 411.202 122.806C411.202 146.638 445.941 137.549 446.143 155.121C446.143 165.017 439.882 170.269 430.995 170.269C418.271 170.269 412.616 160.372 411.404 155.929C411 153.909 410.798 152.899 409.788 153.101C408.778 153.303 408.98 154.313 409.384 156.131C409.586 155.794 410.798 159.833 411 167.643ZM299.176 174.51C320.383 174.51 335.127 160.372 335.127 138.559C335.127 118.564 320.181 104.224 300.792 104.224C281.403 104.224 266.053 118.766 266.053 138.963C265.851 159.631 278.575 174.51 299.176 174.51ZM298.368 108.331C316.95 108.331 328.058 124.893 328.058 142.464C328.058 160.439 316.344 171.346 302.61 171.346C283.826 171.346 272.92 154.38 272.92 136.405C272.718 121.055 282.413 108.331 298.368 108.331Z" fill="white"/>
<path d="M242.894 138.223C248.953 135.597 254.608 129.538 254.608 122.065C254.608 103.686 234.815 104.696 233.401 104.696C228.958 104.696 223.101 105.504 218.254 105.504C213.81 105.504 211.992 105.1 210.377 105.1C209.367 105.1 208.559 105.706 208.559 106.311C208.559 109.543 218.455 104.696 218.254 114.996V163.402C218.254 170.672 213.204 170.067 212.194 170.874C211.79 171.278 211.185 172.49 211.79 172.49C215.022 172.49 218.657 172.086 221.889 172.086C228.958 172.086 233.401 172.49 234.209 172.692C235.421 173.096 236.027 171.48 234.613 170.874C232.795 170.269 225.12 171.278 225.12 163.402V143.474C225.12 142.464 224.515 140.848 227.342 140.848C236.027 140.646 235.825 140.04 237.239 142.262C237.239 142.262 253.8 162.459 262.687 170.942C270.564 178.415 280.258 183.464 286.519 183.868C295.002 184.272 299.445 182.858 299.445 181.646C299.445 179.425 292.174 185.686 271.977 169.73C259.859 160.035 244.914 141.858 242.692 138.829C242.692 138.627 242.894 138.425 242.894 138.223ZM224.919 111.361C224.919 107.725 226.938 108.129 229.968 108.129C238.45 108.129 246.933 112.371 246.933 123.883C246.933 135.597 238.047 137.415 234.209 137.415C230.17 137.415 224.919 137.819 224.919 136.001V111.361ZM187.352 138.223C193.411 135.597 199.874 129.336 199.874 121.863C199.874 103.484 178.667 104.898 177.254 104.898C172.608 104.898 167.559 105.706 162.51 105.706C158.067 105.706 156.653 105.302 155.037 105.302C154.027 105.302 153.219 105.908 153.219 106.513C153.219 109.139 162.712 104.898 162.712 114.996V163.402C162.712 170.874 157.461 170.672 155.643 170.672C153.421 170.672 156.653 172.692 157.057 172.692C160.49 172.692 162.914 171.884 166.347 171.884C173.618 171.884 178.465 172.692 179.273 172.692C181.293 173.096 181.697 171.48 179.677 171.076C176.446 170.269 169.579 170.471 169.377 162.594V143.474C169.377 142.464 168.771 140.848 171.598 140.848C181.495 140.848 180.687 140.444 183.919 145.696L194.825 162.459C198.259 167.912 201.49 172.76 207.953 172.76C208.761 172.76 214.82 172.961 214.618 171.75C214.618 170.538 215.83 169.932 213.204 170.336C211.185 170.74 207.145 169.124 202.904 162.257L187.15 138.829C186.948 138.627 187.352 138.223 187.352 138.223ZM169.646 111.563C169.646 107.927 171.464 108.129 174.695 108.129C183.784 107.725 192.065 112.169 192.065 123.681C192.065 135.395 183.784 137.617 179.947 137.617C175.907 137.617 169.646 138.223 169.646 136.405V111.563Z" fill="white"/>
<path d="M140.764 157.41C141.572 160.035 142.38 163.065 143.188 165.085C145.006 169.326 140.36 170.942 138.745 170.74C137.331 170.538 137.735 173.164 140.159 172.76C142.582 172.356 145.41 172.154 147.833 172.154C151.469 172.154 154.498 172.76 158.134 172.76C158.74 172.76 160.557 171.144 158.942 170.74C157.73 170.538 154.498 170.538 152.479 166.902C150.459 163.469 149.247 159.43 147.833 155.794L129.05 105.571C128.848 104.763 128.242 101.935 127.232 101.935C126.021 101.935 125.819 103.551 120.567 115.871L99.5626 165.691C97.3409 171.346 92.4937 169.528 92.4937 171.548C92.4937 172.154 93.3015 172.76 93.9074 172.76C96.1291 172.76 98.7547 172.154 101.178 172.154C103.602 172.154 106.026 172.154 109.257 172.76C111.479 173.164 111.883 171.346 110.065 170.74C107.641 170.134 103.804 169.124 104.41 164.681C105.218 158.824 110.267 148.725 110.267 148.725C111.075 146.705 113.297 145.898 114.912 145.898H134.301C136.725 145.898 137.331 146.907 138.139 149.129L140.764 157.41ZM124.203 115.804C124.809 114.592 125.213 114.592 125.617 115.804L134.705 140.646C135.109 141.858 135.311 142.666 133.292 142.666H114.912C113.7 142.666 113.095 142.262 113.7 140.848L124.203 115.804Z" fill="white"/>
<path d="M55.8023 161.651C55.8023 169.124 52.5708 169.932 51.561 170.336C49.9452 170.942 48.1275 170.336 48.3295 172.154C48.3295 172.962 50.5511 172.962 51.157 172.962C55.3984 172.962 58.024 172.76 62.4673 172.76C65.6989 172.76 73.3737 173.567 76.8072 173.567C94.9845 173.567 98.8219 159.833 98.8219 152.765C98.8219 139.233 84.2801 137.213 84.2801 135.799C84.2801 135.193 93.3687 131.558 93.3687 121.863C93.3687 114.794 88.9254 105.706 72.5658 105.706C64.891 105.302 63.2752 106.11 59.6398 106.11C56.0043 106.11 50.7531 105.1 48.9354 105.1C47.9255 105.1 47.3196 106.311 49.3393 107.119C50.9551 107.927 55.8023 107.725 55.8023 114.996C55.8023 114.996 55.8023 161.651 55.8023 161.651ZM62.4673 139.636C62.4673 138.829 62.0634 137.415 69.1323 137.415C90.5411 137.415 90.7431 149.937 90.7431 156.198C90.7431 161.853 88.9254 170.74 74.5855 170.942C61.4575 171.144 62.2654 168.316 62.2654 161.449V139.636H62.4673ZM62.4673 115.602C62.4673 110.149 62.0634 108.735 67.9205 108.533C79.0289 108.331 86.9057 114.592 86.7037 124.893C86.5017 130.548 82.8663 135.395 70.7481 135.193C62.4673 134.991 62.4673 134.587 62.4673 131.558V115.602Z" fill="white"/>
</svg>
