<?xml version="1.0" encoding="utf-8"?>
<!-- Generator: Adobe Illustrator 19.2.1, SVG Export Plug-In . SVG Version: 6.00 Build 0)  -->
<svg version="1.1" id="layer" xmlns="http://www.w3.org/2000/svg" xmlns:xlink="http://www.w3.org/1999/xlink" x="0px" y="0px"
	 viewBox="0 0 652 652" style="enable-background:new 0 0 652 652;" xml:space="preserve">
<style type="text/css">
	.st0{fill:#1A2737;}
</style>
<path class="st0" d="M456,350.4c-1.5,13.5-4.8,13.2-9,14.4c-3.9,0.9-2.4,3.3,0,3c0.9,0,7.8-0.9,12.3-0.9c6.6,0,12.3,0.6,15.6,0.6
	c1.2,0,3-1.8,0-2.7c-3.6-0.9-12.9,0-13.8-16.2c-0.6-12,0.3-52.5,0.3-52.5c0-2.7,0.3-3.3,0.9-3.3c0.9,0,1.8,1.5,2.7,2.7l56.4,71.9
	c6,6.9,6.3,4.8,6.3-2.1c-0.3-22.5,0.3-84.8,0.3-84.8c0.3-12.3,11.1-7.2,11.1-11.1c0-0.9-0.6-1.2-1.2-1.2c-3.3,0-12.3,0.9-16.8,0.9
	c-4.2,0-6.6-0.6-10.8-0.6c-0.9,0-1.5,0.3-1.5,1.5c0,3.9,14.4-2.7,13.8,17.7v58.8c0,1.2,0,3.3-2.1,0l-58.5-74.9
	c-0.9-0.9-2.1-3.3-3.3-3.3c-2.1,0-8.4,0.6-10.5,0.6c-2.1,0-4.2-0.6-6.3-0.6c-0.6,0-2.1,0.6-2.1,1.5c0.6,5.1,16.2-0.9,16.5,22.2
	C456.3,291.9,456.6,344.4,456,350.4 M548,256.5c-1.8,0.6-4.5,3-5.7,3.6c-1.2,0.9-1.2,2.4-0.6,3.9c3.3,6.3,6.6,16.8-1.5,29.7
	c-1.2,2.1-3.3,2.7-2.4,3.6c1.2,0.9,4.8-1.5,6.6-3.3c9-8.7,12-23.7,6.9-34.5C550.1,257.4,549.5,256.2,548,256.5 M559.4,359.9
	c0.6,2.4,12,7.5,22.2,7.5c31.2,0,38.7-17.1,38.7-28.8c0-37.5-53.1-23.7-53.1-50.1c0-12.9,9.9-18.3,21-18.3c12,0,21.9,7.8,25.5,17.4
	c0.6,1.2,1.2,4.2,2.7,4.2s1.2-0.9,0.9-2.1l-2.1-19.8c0-1.5-0.9-2.1-1.8-2.1c-1.5,0-2.1,2.4-4.8,2.1c-1.8-0.3-5.1-4.2-19.5-4.2
	c-15.9,0-29.4,9.6-29.4,27.6c0,35.4,51.6,21.9,51.9,48c0,14.7-9.3,22.5-22.5,22.5c-18.9,0-27.3-14.7-29.1-21.3
	c-0.6-3-0.9-4.5-2.4-4.2c-1.5,0.3-1.2,1.8-0.6,4.5C557.3,342.3,559.1,348.3,559.4,359.9 M393.3,370.1c31.5,0,53.4-21,53.4-53.4
	c0-29.7-22.2-51-51-51s-51.6,21.6-51.6,51.6C343.8,348,362.7,370.1,393.3,370.1 M392.1,271.8c27.6,0,44.1,24.6,44.1,50.7
	c0,26.7-17.4,42.9-37.8,42.9c-27.9,0-44.1-25.2-44.1-51.9C354,290.7,368.4,271.8,392.1,271.8"/>
<path class="st0" d="M309.7,316.2c9-3.9,17.4-12.9,17.4-24c0-27.3-29.4-25.8-31.5-25.8c-6.6,0-15.3,1.2-22.5,1.2
	c-6.6,0-9.3-0.6-11.7-0.6c-1.5,0-2.7,0.9-2.7,1.8c0,4.8,14.7-2.4,14.4,12.9v71.9c0,10.8-7.5,9.9-9,11.1c-0.6,0.6-1.5,2.4-0.6,2.4
	c4.8,0,10.2-0.6,15-0.6c10.5,0,17.1,0.6,18.3,0.9c1.8,0.6,2.7-1.8,0.6-2.7c-2.7-0.9-14.1,0.6-14.1-11.1V324c0-1.5-0.9-3.9,3.3-3.9
	c12.9-0.3,12.6-1.2,14.7,2.1c0,0,24.6,30,37.8,42.6c11.7,11.1,26.1,18.6,35.4,19.2c12.6,0.6,19.2-1.5,19.2-3.3
	c0-3.3-10.8,6-40.8-17.7c-18-14.4-40.2-41.4-43.5-45.9C309.4,316.8,309.7,316.5,309.7,316.2 M283,276.3c0-5.4,3-4.8,7.5-4.8
	c12.6,0,25.2,6.3,25.2,23.4c0,17.4-13.2,20.1-18.9,20.1c-6,0-13.8,0.6-13.8-2.1V276.3z M227.2,316.2c9-3.9,18.6-13.2,18.6-24.3
	c0-27.3-31.5-25.2-33.6-25.2c-6.9,0-14.4,1.2-21.9,1.2c-6.6,0-8.7-0.6-11.1-0.6c-1.5,0-2.7,0.9-2.7,1.8c0,3.9,14.1-2.4,14.1,12.6
	v71.9c0,11.1-7.8,10.8-10.5,10.8c-3.3,0,1.5,3,2.1,3c5.1,0,8.7-1.2,13.8-1.2c10.8,0,18,1.2,19.2,1.2c3,0.6,3.6-1.8,0.6-2.4
	c-4.8-1.2-15-0.9-15.3-12.6V324c0-1.5-0.9-3.9,3.3-3.9c14.7,0,13.5-0.6,18.3,7.2l16.2,24.9c5.1,8.1,9.9,15.3,19.5,15.3
	c1.2,0,10.2,0.3,9.9-1.5c0-1.8,1.8-2.7-2.1-2.1c-3,0.6-9-1.8-15.3-12l-23.4-34.8C226.6,316.8,227.2,316.2,227.2,316.2 M200.9,276.6
	c0-5.4,2.7-5.1,7.5-5.1c13.5-0.6,25.8,6,25.8,23.1c0,17.4-12.3,20.7-18,20.7c-6,0-15.3,0.9-15.3-1.8V276.6z"/>
<path class="st0" d="M158,344.7c1.2,3.9,2.4,8.4,3.6,11.4c2.7,6.3-4.2,8.7-6.6,8.4c-2.1-0.3-1.5,3.6,2.1,3c3.6-0.6,7.8-0.9,11.4-0.9
	c5.4,0,9.9,0.9,15.3,0.9c0.9,0,3.6-2.4,1.2-3c-1.8-0.3-6.6-0.3-9.6-5.7c-3-5.1-4.8-11.1-6.9-16.5l-27.9-74.6
	c-0.3-1.2-1.2-5.4-2.7-5.4c-1.8,0-2.1,2.4-9.9,20.7l-31.2,74c-3.3,8.4-10.5,5.7-10.5,8.7c0,0.9,1.2,1.8,2.1,1.8
	c3.3,0,7.2-0.9,10.8-0.9s7.2,0,12,0.9c3.3,0.6,3.9-2.1,1.2-3c-3.6-0.9-9.3-2.4-8.4-9c1.2-8.7,8.7-23.7,8.7-23.7
	c1.2-3,4.5-4.2,6.9-4.2h28.8c3.6,0,4.5,1.5,5.7,4.8C154.1,332.4,158,344.7,158,344.7z M133.4,282.9c0.9-1.8,1.5-1.8,2.1,0l13.5,36.9
	c0.6,1.8,0.9,3-2.1,3h-27.3c-1.8,0-2.7-0.6-1.8-2.7C117.8,320.1,133.4,282.9,133.4,282.9z"/>
<path class="st0" d="M31.8,351c0,11.1-4.8,12.3-6.3,12.9c-2.4,0.9-5.1,0-4.8,2.7c0,1.2,3.3,1.2,4.2,1.2c6.3,0,10.2-0.3,16.8-0.3
	c4.8,0,16.2,1.2,21.3,1.2c27,0,32.7-20.4,32.7-30.9c0-20.1-21.6-23.1-21.6-25.2c0-0.9,13.5-6.3,13.5-20.7c0-10.5-6.6-24-30.9-24
	c-11.4-0.6-13.8,0.6-19.2,0.6S24.3,267,21.6,267c-1.5,0-2.4,1.8,0.6,3c2.4,1.2,9.6,0.9,9.6,11.7C31.8,281.7,31.8,351,31.8,351z
	 M41.7,318.3c0-1.2-0.6-3.3,9.9-3.3c31.8,0,32.1,18.6,32.1,27.9c0,8.4-2.7,21.6-24,21.9c-19.5,0.3-18.3-3.9-18.3-14.1v-32.4H41.7z
	 M41.7,282.6c0-8.1-0.6-10.2,8.1-10.5c16.5-0.3,28.2,9,27.9,24.3C77.4,304.8,72,312,54,311.7c-12.3-0.3-12.3-0.9-12.3-5.4
	C41.7,306.3,41.7,282.6,41.7,282.6z"/>
</svg>
