<svg width="500" height="282" viewBox="0 0 500 282" fill="none" xmlns="http://www.w3.org/2000/svg">
<rect width="500" height="281.25" fill="black"/>
<g clip-path="url(#clip0_88_855)">
<path fill-rule="evenodd" clip-rule="evenodd" d="M68.3827 108.309C70.83 108.309 72.6052 106.944 72.6052 104.213C72.6052 101.544 70.7688 100.241 68.3215 100.241H60.5486V108.309H68.3827ZM69.5457 126.432C72.3003 126.432 74.318 124.756 74.318 121.654C74.318 118.426 72.1143 116.875 69.4845 116.875H60.5486V126.432H69.5457ZM48 90.0001H70.6476C74.9301 90.0001 78.2356 91.0553 80.5629 92.9795C83.1938 95.1508 84.6029 98.3797 84.6029 102.227C84.6029 106.696 82.8278 109.489 79.155 111.226V111.414C83.9296 113.026 86.6818 117.37 86.6818 122.646C86.6818 127.674 84.7854 131.583 81.6623 133.943C79.0325 135.867 75.6058 136.797 71.0761 136.797H48V90.0001ZM88.7685 136.798V90H100.643V136.798H88.7685ZM125.31 120.163C125.31 114.33 123.473 110.668 119.924 110.668C116.374 110.668 114.661 114.33 114.661 120.163C114.661 126.06 116.374 129.722 119.924 129.722C123.473 129.722 125.31 126.06 125.31 120.163ZM102.909 120.163C102.909 109.613 109.641 102.476 120.045 102.476C130.451 102.476 137.062 109.613 137.062 120.163C137.062 130.778 130.451 137.851 120.045 137.851C109.641 137.851 102.909 130.778 102.909 120.163ZM160.814 120.163C160.814 114.33 158.976 110.668 155.427 110.668C151.878 110.668 150.164 114.33 150.164 120.163C150.164 126.06 151.878 129.722 155.427 129.722C158.976 129.722 160.814 126.06 160.814 120.163ZM138.412 120.163C138.412 109.613 145.145 102.476 155.548 102.476C165.955 102.476 172.566 109.613 172.566 120.163C172.566 130.778 165.955 137.851 155.548 137.851C145.145 137.851 138.412 130.778 138.412 120.163ZM174.833 103.407H185.851V108.434H186.033C188.237 104.523 191.235 102.414 195.95 102.414C200.111 102.414 203.233 104.523 204.825 108.185H205.008C207.702 103.778 211.189 102.414 215.228 102.414C222.88 102.414 226.185 108.123 226.185 115.819V136.798H214.616V117.929C214.616 114.515 213.576 112.281 210.639 112.281C207.763 112.281 206.292 115.012 206.292 118.612V136.798H194.726V117.929C194.726 114.515 193.685 112.281 190.748 112.281C187.869 112.281 186.402 115.012 186.402 118.612V136.798H174.833V103.407ZM251.595 119.916C251.595 114.516 249.637 111.04 246.147 111.04C242.598 111.04 240.333 114.516 240.333 119.916C240.333 125.253 242.598 128.791 246.147 128.791C249.698 128.791 251.595 125.315 251.595 119.916ZM240.333 132.453H240.212V136.797H229.193V90.0002H240.763V106.882H240.945C243.149 103.966 246.086 102.413 250.311 102.413C258.573 102.413 263.347 109.985 263.347 120.04C263.347 131.398 258.145 137.914 249.576 137.914C246.025 137.914 242.354 136.176 240.333 132.453ZM276.327 116.564H286.855C286.669 112.531 284.466 110.419 281.711 110.419C278.53 110.419 276.755 112.716 276.327 116.564ZM264.819 120.039C264.819 109.612 271.612 102.351 281.467 102.351C286.364 102.351 290.16 103.903 293.037 106.696C296.832 110.419 298.546 116.253 298.421 123.143H276.327C276.816 127.302 278.774 129.412 282.262 129.412C284.283 129.412 286.057 128.481 286.794 126.246H297.931C295.974 133.88 290.16 137.728 281.897 137.728C271.676 137.728 264.819 130.715 264.819 120.039ZM311.218 109.117H311.401C313.788 104.462 316.91 102.724 320.889 102.724C321.805 102.724 322.419 102.849 322.785 103.034V113.275H322.542C315.747 112.034 311.769 115.324 311.769 122.834V136.797H300.2V103.408H311.218V109.117ZM345.433 118.861C345.433 114.702 343.475 111.351 340.109 111.351C336.864 111.351 334.783 114.33 334.783 118.861C334.783 123.33 336.864 126.556 340.109 126.556C343.475 126.556 345.433 123.268 345.433 118.861ZM324.133 136.859H335.272C335.702 138.287 337.171 139.716 339.926 139.716C343.659 139.716 344.945 137.356 344.945 133.88V131.398H344.699C342.863 133.571 340.413 135.184 336.804 135.184C329.703 135.184 323.521 129.845 323.521 119.419C323.521 109.861 328.601 102.413 336.253 102.413C340.659 102.413 343.354 104.213 345.128 107.069H345.31V103.408H356.329V132.328C356.329 137.666 354.493 141.825 351.739 144.309C348.862 146.913 344.76 147.97 340.109 147.97C331.356 147.97 325.235 144.309 324.133 136.859ZM68.3827 161.395C70.83 161.395 72.6052 160.028 72.6052 157.297C72.6052 154.629 70.7688 153.325 68.3215 153.325H60.5486V161.395H68.3827ZM69.5457 179.519C72.3003 179.519 74.318 177.843 74.318 174.738C74.318 171.51 72.1143 169.96 69.4845 169.96H60.5486V179.519H69.5457ZM48 143.084H70.6476C74.9301 143.084 78.2356 144.139 80.5629 146.065C83.1938 148.235 84.6029 151.464 84.6029 155.312C84.6029 159.781 82.8278 162.575 79.155 164.313V164.498C83.9296 166.111 86.6818 170.456 86.6818 175.731C86.6818 180.759 84.7854 184.67 81.6623 187.028C79.0325 188.951 75.6058 189.882 71.0761 189.882H48V143.084ZM109.578 189.883V185.538H109.396C107.006 189.012 103.948 190.938 99.6617 190.938C92.1961 190.938 88.5221 185.725 88.5221 178.028V156.491H100.091V175.42C100.091 179.208 101.5 180.697 104.254 180.697C107.253 180.697 109.027 178.649 109.027 174.799V156.491H120.596V189.883H109.578ZM122.434 179.331H133.147C133.33 182.062 134.921 183.676 137.86 183.676C140.123 183.676 141.837 182.994 141.837 180.697C141.837 177.966 138.227 177.781 134.186 177.096C128.923 176.29 122.862 174.552 122.862 166.174C122.862 159.346 129.412 155.498 137.064 155.498C146.552 155.498 151.508 159.284 151.936 165.8H141.043C140.735 163.319 139.021 162.636 137.125 162.636C135.412 162.636 133.82 163.319 133.82 165.242C133.82 167.105 136.697 167.602 140.246 168.097C145.937 168.966 153.16 170.33 153.16 179.58C153.16 187.586 146.366 191 137.798 191C128.555 191 122.498 186.965 122.434 179.331ZM155.061 153.822H166.63V144.451H155.061V153.822ZM155.061 189.883V156.491H166.63V189.883H155.061ZM180.895 161.084H181.077C183.588 157.423 186.771 155.497 191.116 155.497C198.338 155.497 202.072 160.649 202.072 168.284V189.882H190.504V171.015C190.504 167.291 189.159 165.241 186.158 165.241C183.22 165.241 181.446 167.725 181.446 171.574V189.882H169.876V156.492H180.895V161.084ZM215.601 169.649H226.129C225.946 165.615 223.743 163.504 220.988 163.504C217.805 163.504 216.03 165.8 215.601 169.649ZM204.096 173.123C204.096 162.698 210.889 155.435 220.744 155.435C225.639 155.435 229.434 156.988 232.311 159.782C236.106 163.504 237.82 169.339 237.698 176.228H215.601C216.091 180.386 218.051 182.497 221.539 182.497C223.56 182.497 225.334 181.565 226.069 179.33H237.208C235.248 186.966 229.434 190.815 221.172 190.815C210.95 190.815 204.096 183.8 204.096 173.123ZM238.856 179.331H249.567C249.752 182.062 251.344 183.676 254.282 183.676C256.546 183.676 258.26 182.994 258.26 180.697C258.26 177.966 254.647 177.781 250.608 177.096C245.345 176.29 239.285 174.552 239.285 166.174C239.285 159.346 245.835 155.498 253.485 155.498C262.972 155.498 267.93 159.284 268.358 165.8H257.463C257.158 163.319 255.444 162.636 253.545 162.636C251.831 162.636 250.242 163.319 250.242 165.242C250.242 167.105 253.119 167.602 256.668 168.097C262.36 168.966 269.583 170.33 269.583 179.58C269.583 187.586 262.788 191 254.221 191C244.978 191 238.917 186.965 238.856 179.331ZM270.813 179.331H281.524C281.709 182.062 283.3 183.676 286.239 183.676C288.502 183.676 290.216 182.994 290.216 180.697C290.216 177.966 286.604 177.781 282.565 177.096C277.302 176.29 271.241 174.552 271.241 166.174C271.241 159.346 277.791 155.498 285.442 155.498C294.928 155.498 299.887 159.284 300.315 165.8H289.419C289.114 163.319 287.4 162.636 285.502 162.636C283.788 162.636 282.199 163.319 282.199 165.242C282.199 167.105 285.076 167.602 288.625 168.097C294.316 168.966 301.539 170.33 301.539 179.58C301.539 187.586 294.745 191 286.177 191C276.934 191 270.874 186.965 270.813 179.331ZM338.939 156.491H350.508L340.592 189.883H329.451L324.984 170.395H324.862L320.394 189.883H309.436L299.46 156.491H311.272L315.741 174.738H315.865L320.086 156.491H330.125L334.349 174.862H334.471L338.939 156.491ZM360.061 169.649H370.587C370.403 165.615 368.2 163.504 365.445 163.504C362.264 163.504 360.487 165.8 360.061 169.649ZM348.553 173.123C348.553 162.698 355.346 155.435 365.201 155.435C370.096 155.435 373.891 156.988 376.768 159.782C380.563 163.504 382.277 169.339 382.155 176.228H360.061C360.548 180.386 362.508 182.497 365.996 182.497C368.017 182.497 369.791 181.565 370.526 179.33H381.665C379.708 186.966 373.891 190.815 365.631 190.815C355.407 190.815 348.553 183.8 348.553 173.123ZM395.011 169.649H405.538C405.356 165.615 403.152 163.504 400.398 163.504C397.215 163.504 395.44 165.8 395.011 169.649ZM383.505 173.123C383.505 162.698 390.299 155.435 400.152 155.435C405.049 155.435 408.844 156.988 411.721 159.782C415.516 163.504 417.23 169.339 417.108 176.228H395.011C395.501 180.386 397.461 182.497 400.949 182.497C402.967 182.497 404.744 181.565 405.478 179.33H416.618C414.658 186.966 408.844 190.815 400.581 190.815C390.36 190.815 383.505 183.8 383.505 173.123ZM418.885 143.085H430.271V166.671L438.043 156.491H450.773L440.37 168.842L452 189.883H438.899L432.657 177.716L430.271 180.509V189.883H418.885V143.085Z" fill="white"/>
</g>
<defs>
<clipPath id="clip0_88_855">
<rect width="404" height="101" fill="white" transform="translate(48 90)"/>
</clipPath>
</defs>
</svg>
