<svg width="1000" height="1000" viewBox="0 0 1000 1000" fill="none" xmlns="http://www.w3.org/2000/svg">
<rect width="1000" height="1000" rx="200" fill="#CC092F"/>
<path d="M338.33 615H283.643L225.195 523.569H197.681V615H151.025V366.514H239.551C268.604 366.514 291.333 372.723 307.739 385.142C324.146 397.56 332.349 416.53 332.349 442.051C332.349 462.217 327.222 478.965 316.968 492.295C306.714 505.511 292.358 514.569 273.901 519.468L338.33 615ZM232.886 405.649H197.681V489.731H232.886C248.836 489.731 260.97 486.2 269.287 479.136C277.718 471.958 281.934 461.248 281.934 447.007C281.934 419.435 265.584 405.649 232.886 405.649ZM545.459 551.938L605.957 615H546.484L515.039 582.871C503.304 594.606 490.828 603.835 477.612 610.557C464.396 617.279 449.072 620.64 431.641 620.64C408.74 620.64 391.081 614.886 378.662 603.379C366.357 591.872 360.205 576.605 360.205 557.578C360.205 549.375 361.401 541.855 363.794 535.02C366.187 528.07 369.263 522.202 373.022 517.417C376.782 512.632 381.453 508.245 387.036 504.258C392.733 500.27 398.258 497.08 403.613 494.688C409.082 492.181 415.177 489.845 421.899 487.681C413.81 478.566 407.316 469.167 402.417 459.482C397.632 449.798 395.239 438.975 395.239 427.012C395.239 407.415 402.018 391.522 415.576 379.331C429.248 367.026 446.851 360.874 468.384 360.874C488.322 360.874 504.557 366.286 517.09 377.109C529.622 387.933 535.889 402.231 535.889 420.005C535.889 436.411 531.217 450.368 521.875 461.875C512.533 473.268 500.171 482.44 484.79 489.39L522.046 527.842C539.022 507.904 550.757 491.896 557.251 479.819L585.62 499.473C570.809 520.892 557.422 538.381 545.459 551.938ZM469.409 392.832C460.636 392.832 453.288 395.623 447.363 401.206C441.553 406.675 438.647 414.251 438.647 423.936C438.647 430.088 440.072 436.126 442.92 442.051C445.768 447.975 448.73 452.703 451.807 456.235C454.883 459.653 459.269 464.154 464.966 469.736C474.992 464.382 482.967 457.66 488.892 449.57C494.816 441.481 497.778 432.367 497.778 422.227C497.778 413.454 495.158 406.39 489.917 401.035C484.79 395.566 477.954 392.832 469.409 392.832ZM443.945 583.213C460.693 583.213 476.929 575.352 492.651 559.629L442.92 508.872C420.703 518.67 409.595 533.026 409.595 551.938C409.595 561.167 412.671 568.687 418.823 574.497C424.976 580.308 433.35 583.213 443.945 583.213ZM864.355 490.757C864.355 509.67 861.108 527.101 854.614 543.052C848.12 559.002 839.006 572.845 827.271 584.58L856.323 621.665L819.922 646.787L790.527 609.702C774.121 616.994 757.088 620.64 739.429 620.64C722.795 620.64 706.901 617.507 691.748 611.24C676.595 604.974 663.322 596.315 651.929 585.264C640.535 574.098 631.421 560.312 624.585 543.906C617.863 527.5 614.502 509.784 614.502 490.757C614.502 471.73 617.863 454.014 624.585 437.607C631.421 421.201 640.535 407.472 651.929 396.421C663.322 385.256 676.595 376.54 691.748 370.273C706.901 364.007 722.795 360.874 739.429 360.874C756.063 360.874 771.956 364.007 787.109 370.273C802.262 376.54 815.535 385.256 826.929 396.421C838.322 407.472 847.38 421.201 854.102 437.607C860.938 454.014 864.355 471.73 864.355 490.757ZM670.215 452.817C665.999 464.097 663.892 476.743 663.892 490.757C663.892 504.771 665.999 517.417 670.215 528.696C674.544 539.976 680.298 549.09 687.476 556.04C694.653 562.99 702.686 568.345 711.572 572.104C720.459 575.75 729.744 577.573 739.429 577.573C749.113 577.573 758.398 575.75 767.285 572.104C776.172 568.345 784.261 562.99 791.553 556.04C798.844 549.09 804.655 539.976 808.984 528.696C813.314 517.417 815.479 504.771 815.479 490.757C815.479 476.743 813.314 464.097 808.984 452.817C804.655 441.538 798.844 432.424 791.553 425.474C784.261 418.524 776.172 413.226 767.285 409.58C758.398 405.82 749.113 403.94 739.429 403.94C729.744 403.94 720.459 405.82 711.572 409.58C702.686 413.226 694.653 418.524 687.476 425.474C680.298 432.424 674.544 441.538 670.215 452.817Z" fill="white"/>
</svg>
