<svg width="500" height="282" viewBox="0 0 500 282" fill="none" xmlns="http://www.w3.org/2000/svg">
<rect width="500" height="281.25" fill="black"/>
<path d="M118.32 241.257L117.249 240.683C116.828 240.465 48.159 204.677 48 121.251V119.06V63H192.69V119.063V121.254C192.53 204.674 123.912 240.465 123.4 240.744L120.352 242.334L118.32 241.257Z" fill="black"/>
<path d="M52.3853 67.3636V114.688L188.356 114.685V67.3636H52.3853ZM169.626 80.1221C170.124 80.1486 170.551 80.1486 170.901 80.1486C171.151 80.1575 171.358 80.3783 171.358 80.5344V101.635L169.582 100.145C169.656 100.018 169.709 99.8826 169.709 99.706V80.4048C169.688 80.2929 169.659 80.2075 169.626 80.1221ZM170.83 102.029H160.098C159.995 101.446 159.65 100.931 159.147 100.625H168.796C168.905 100.625 168.996 100.613 169.093 100.563L170.83 102.029ZM147.675 80.4372C147.763 80.3253 148.414 80.0662 148.555 80.1015C148.653 80.1015 148.767 80.0839 148.879 80.0839H148.973C150.926 80.0839 153.237 80.2252 155.03 80.8965C156.818 81.5914 158.037 82.6838 158.04 84.7538H158.687C158.699 82.6838 159.906 81.5914 161.711 80.8965C163.49 80.2223 165.819 80.0839 167.751 80.0839H167.971C168.066 80.0839 168.148 80.1015 168.228 80.1015C168.301 80.0839 168.581 80.1781 168.781 80.2546C168.899 80.3135 168.984 80.3724 169.031 80.4078C169.043 80.4343 169.049 80.4401 169.058 80.4519V99.7089C169.058 99.8679 168.934 99.9916 168.799 99.9916H147.937C147.796 99.9916 147.678 99.8679 147.678 99.7089L147.675 80.4372ZM147.934 100.628H157.036C156.544 100.934 156.185 101.449 156.081 102.032H145.805C145.761 102.032 145.735 102.023 145.693 102.023L147.487 100.504C147.625 100.583 147.775 100.628 147.934 100.628ZM145.39 80.5344C145.39 80.3754 145.576 80.1575 145.832 80.1486C146.173 80.1486 146.621 80.1486 147.118 80.1221C147.068 80.2105 147.039 80.2959 147.027 80.4078V99.7089C147.027 99.8149 147.045 99.915 147.077 100.003L145.393 101.446L145.39 80.5344ZM133.164 80.181C133.403 80.181 133.615 80.4284 133.615 80.5697V101.534L131.892 100.089C131.934 99.9886 131.969 99.8826 131.969 99.7531V80.4372C131.945 80.3253 131.916 80.2546 131.887 80.1781C132.384 80.181 132.823 80.181 133.164 80.181ZM133.232 102.073C133.232 102.073 133.197 102.073 133.176 102.073H122.352C122.267 101.481 121.946 100.972 121.457 100.651H131.059C131.195 100.651 131.324 100.616 131.445 100.566L133.232 102.073ZM120.939 84.1384C120.951 82.3276 121.902 81.3706 123.297 80.7905C124.687 80.2075 126.51 80.0809 128.026 80.0809C129.019 80.0809 129.887 80.1192 130.447 80.1192C130.514 80.1192 130.806 80.181 131.033 80.2929C131.139 80.34 131.239 80.4048 131.289 80.449L131.312 80.4666V99.7531C131.312 99.8944 131.198 100 131.062 100H120.936L120.939 84.1384ZM109.927 80.4666C109.98 80.4372 110.13 80.3253 110.306 80.2546C110.51 80.181 110.754 80.1457 110.831 80.1457C111.399 80.1457 112.273 80.0809 113.295 80.0809C114.794 80.0809 116.605 80.2164 117.989 80.7905C119.361 81.4 120.291 82.3305 120.297 84.1384V100H110.206C110.047 100 109.929 99.8944 109.929 99.7531L109.927 80.4666ZM110.203 100.651H119.246C118.748 100.975 118.433 101.481 118.342 102.073H108.063C108.021 102.073 107.977 102.073 107.924 102.05L109.741 100.527C109.874 100.616 110.027 100.651 110.203 100.651ZM107.639 80.5697C107.639 80.4313 107.839 80.181 108.092 80.181C108.437 80.181 108.864 80.181 109.37 80.1751C109.323 80.2517 109.296 80.3253 109.279 80.4343V99.7531C109.279 99.8502 109.311 99.9415 109.344 100.027L107.639 101.47V80.5697ZM94.1411 80.1751C94.6417 80.181 95.0745 80.181 95.4161 80.181C95.6546 80.181 95.8725 80.4284 95.8725 80.5697V101.579L94.1411 100.112C94.1882 100 94.2206 99.8797 94.2206 99.7501V80.4343C94.2147 80.3253 94.1853 80.2517 94.1411 80.1751ZM95.4661 102.073H84.6098C84.5244 101.481 84.1946 100.972 83.7206 100.651H93.3078C93.4403 100.651 93.5758 100.628 93.6877 100.583L95.4661 102.073ZM83.2023 84.1384C83.2141 82.3276 84.1593 81.3706 85.5491 80.7905C86.9477 80.2075 88.7704 80.0809 90.2956 80.0809C91.2761 80.0809 92.1389 80.1192 92.7013 80.1192C92.7631 80.1192 93.0605 80.181 93.2872 80.2929C93.3991 80.34 93.4963 80.4048 93.5522 80.449L93.5728 80.4666V99.7531C93.5728 99.8944 93.4551 100 93.3049 100H83.1964L83.2023 84.1384ZM72.1781 80.4666C72.2311 80.4372 72.3872 80.3253 72.5668 80.2546C72.767 80.181 73.0232 80.1457 73.088 80.1457C73.6681 80.1457 74.522 80.0809 75.5496 80.0809C77.0542 80.0809 78.8474 80.2164 80.2343 80.7905C81.6094 81.4 82.5428 82.3305 82.5604 84.1384H82.5545V100H72.4549C72.3018 100 72.1781 99.8944 72.1781 99.7531V80.4666ZM72.4549 100.651H81.5004C81.0087 100.975 80.6907 101.481 80.5994 102.073H70.329C70.2466 102.073 70.1877 102.073 70.1435 102.044L71.9485 100.501C72.0898 100.598 72.2783 100.651 72.4549 100.651ZM69.902 80.5697C69.902 80.4313 70.0993 80.181 70.3496 80.181C70.6882 80.181 71.1152 80.181 71.6157 80.1751C71.5775 80.2517 71.5539 80.3135 71.5362 80.4372V99.756C71.5362 99.8296 71.5539 99.9003 71.5804 99.9916L69.905 101.411L69.902 80.5697ZM67.6348 103.625C67.2991 103.625 67.04 103.342 67.04 103.021V99.862C66.1508 99.7501 65.4618 99.1966 65.4618 98.5429C65.4618 97.898 66.1508 97.3356 67.04 97.212V87.0123C66.1537 86.8827 65.4647 86.3468 65.4647 85.6931C65.4647 85.0277 66.1537 84.4977 67.0429 84.3681V80.3253C67.0429 79.9955 67.3021 79.7394 67.6377 79.7394L69.4044 80.0839C69.3161 80.2193 69.2631 80.3842 69.2572 80.5697V101.729C69.2631 102.312 69.7637 102.724 70.3319 102.724H80.6112C80.6612 103.06 80.8055 103.363 81.0087 103.625H67.6348ZM83.2023 103.625H82.0127C81.5446 103.39 81.2207 102.918 81.2148 102.353C81.2207 101.599 81.8361 100.975 82.6105 100.975C83.3731 100.975 83.9973 101.599 83.9973 102.353C83.9973 102.915 83.6705 103.39 83.2023 103.625ZM99.5973 98.5429C99.5973 99.1966 98.9141 99.7295 98.0279 99.862V103.021C98.0279 103.339 97.7687 103.625 97.436 103.625H84.1976C84.3919 103.363 84.5332 103.06 84.6039 102.721H95.4485C95.9991 102.721 96.5026 102.309 96.5026 101.729V80.5697C96.5026 80.3253 96.4113 80.1192 96.2818 79.9543L97.4331 79.7394C97.7658 79.7394 98.0249 79.9955 98.0249 80.3253V84.374C98.9112 84.4977 99.5943 85.0306 99.5943 85.6931C99.5943 86.3497 98.9112 86.8827 98.0249 87.0152V97.2149C98.9171 97.3386 99.5973 97.898 99.5973 98.5429ZM105.363 103.625C105.039 103.625 104.783 103.342 104.783 103.021V99.862C103.876 99.7501 103.198 99.1966 103.198 98.5429C103.198 97.898 103.876 97.3356 104.783 97.212V87.0123C103.876 86.8827 103.198 86.3468 103.198 85.6931C103.198 85.0277 103.876 84.4977 104.783 84.3681V80.3253C104.783 79.9955 105.036 79.7394 105.363 79.7394L107.138 80.0839C107.053 80.2223 107.006 80.3871 107.006 80.5697V101.729C107.006 102.312 107.497 102.724 108.066 102.724H118.351C118.407 103.06 118.557 103.363 118.751 103.625H105.363ZM120.939 103.625H119.738C119.287 103.39 118.948 102.918 118.948 102.353C118.948 101.599 119.576 100.975 120.35 100.975C121.116 100.975 121.74 101.599 121.74 102.353C121.743 102.915 121.407 103.39 120.939 103.625ZM137.334 98.5429C137.334 99.1966 136.665 99.7295 135.773 99.862V103.021C135.773 103.339 135.511 103.625 135.176 103.625H121.946C122.137 103.363 122.279 103.06 122.343 102.721H133.176C133.742 102.721 134.248 102.309 134.248 101.729V80.5697C134.248 80.3253 134.157 80.1192 134.024 79.9543L135.176 79.7394C135.511 79.7394 135.773 79.9955 135.773 80.3253V84.374C136.665 84.4977 137.334 85.0306 137.334 85.6931C137.334 86.3497 136.665 86.8827 135.773 87.0152V97.2149C136.665 97.3386 137.334 97.898 137.334 98.5429ZM143.105 103.625C142.796 103.625 142.519 103.342 142.519 103.021V99.862C141.615 99.7501 140.947 99.1966 140.947 98.5429C140.947 97.898 141.618 97.3356 142.519 97.212V87.0123C141.615 86.8827 140.947 86.3468 140.947 85.6931C140.947 85.0277 141.618 84.4977 142.519 84.3681V80.3253C142.519 79.9955 142.793 79.7394 143.105 79.7394L144.86 80.0839C144.789 80.2075 144.751 80.3695 144.739 80.5344V101.693C144.751 102.265 145.24 102.674 145.805 102.674H156.084C156.146 103.03 156.296 103.342 156.505 103.622L143.105 103.625ZM158.687 103.625H157.498C157.021 103.39 156.706 102.918 156.706 102.353C156.706 101.599 157.321 100.975 158.084 100.975C158.864 100.975 159.491 101.599 159.491 102.353C159.491 102.915 159.15 103.39 158.687 103.625ZM175.085 98.5429C175.085 99.1966 174.405 99.7531 173.498 99.862V103.021C173.498 103.339 173.248 103.625 172.924 103.625H159.686C159.901 103.342 160.042 103.03 160.101 102.674H170.919C171.49 102.674 171.996 102.268 171.996 101.682V80.5344C171.996 80.3106 171.92 80.1192 171.808 79.9543L172.924 79.7394C173.248 79.7394 173.498 79.9955 173.498 80.3253V84.3681C174.405 84.4947 175.085 85.0277 175.085 85.6931C175.085 86.3468 174.405 86.8827 173.498 87.0152V97.2149C174.405 97.3386 175.085 97.898 175.085 98.5429ZM88.4965 94.9035C87.8311 94.9035 87.6426 94.7386 87.6426 94.1203V90.7341C88.6467 90.7341 89.1649 91.1463 89.2974 92.9042H89.5477V88.1753H89.2974C89.1325 89.9126 88.6231 90.2806 87.6426 90.263V87.0123C87.6426 86.4116 87.8193 86.3615 88.3846 86.3615C89.7568 86.3615 90.4811 86.7119 90.7078 88.6965H90.9581V85.8727H85.0868V86.232C85.5638 86.2791 85.9908 86.2967 85.9908 87.2243V94.0084C85.9908 94.8476 85.6728 94.9035 85.0868 94.983V95.3393H91.0523L91.4616 92.4183H91.1672C90.5282 94.5443 89.5035 94.9035 88.4965 94.9035ZM163.36 94.6179C163.678 94.6179 164.129 95.0978 165.106 95.0978C166.973 95.0978 167.627 93.4018 167.627 92.1592C167.627 90.6458 166.858 89.8301 166.499 89.6005L165.018 88.5817C164.152 87.9987 163.964 87.6895 163.964 86.9328C163.964 86.0259 164.529 85.6048 165.042 85.6048C166.249 85.6048 166.864 87.2095 167.05 88.1812H167.327V85.1366H167.035C166.973 85.4163 166.926 85.6254 166.688 85.6254C166.402 85.6254 165.919 85.1572 165.106 85.1572C163.166 85.1572 162.854 87.0623 162.854 87.928C162.854 88.5728 162.854 89.7712 164.6 90.9167L165.283 91.3554C165.934 91.7794 166.411 92.1239 166.411 93.0485C166.411 93.2516 166.378 94.6385 165.153 94.6385C163.855 94.6385 163.263 93.0367 163.054 91.6351H162.76V95.0949H163.054C163.104 94.8652 163.145 94.6179 163.36 94.6179ZM74.363 87.0152L76.96 95.4011H77.2338L79.557 87.1889C79.7955 86.4057 79.9222 86.1289 80.4757 86.0435V85.6902H78.3056V86.0435C78.8886 86.0818 79.1831 86.126 79.1831 86.6766C79.1831 86.9622 79.0712 87.3273 78.9858 87.6512L77.6814 92.2417L76.3593 87.8249C76.2622 87.4834 76.0443 86.8827 76.0443 86.6177C76.0443 86.0936 76.2887 86.0936 76.9306 86.0435V85.6902H73.5091V86.0435C73.936 86.1289 74.1009 86.1731 74.363 87.0152ZM114.97 94.718C114.311 94.5914 114.081 94.5502 114.081 93.4342V90.6899H114.355L116.469 95.0802H118.554V94.718C118.43 94.718 118.274 94.715 118.133 94.4559L116.086 90.472C116.634 90.2188 117.679 89.7948 117.679 88.0664C117.679 85.7137 115.533 85.6077 114.82 85.6077H111.543V85.9817C112.123 86.0229 112.444 86.0494 112.444 87.2449V93.4342C112.444 94.559 112.226 94.609 111.543 94.718V95.0802H114.976V94.718H114.97ZM114.081 86.6825C114.125 86.2349 114.149 86.0877 114.72 86.0877C115.53 86.0877 115.945 86.7001 115.945 88.1047C115.945 89.9126 115.427 90.2218 114.081 90.2365V86.6825ZM150.617 86.0671V93.4342C150.617 94.609 150.381 94.6414 149.63 94.718V95.0802H153.278V94.718C152.513 94.6473 152.271 94.6179 152.271 93.4342V86.0671C152.972 86.0995 154.026 86.1907 154.226 88.4344H154.527L154.515 85.6107H148.396L148.373 88.4344H148.673C148.862 86.1878 149.901 86.0995 150.617 86.0671ZM156.806 94.7062C156.455 94.6738 155.967 94.6385 155.967 94.1085C155.967 93.87 156.137 93.2958 156.429 92.277H158.714C158.849 92.7275 159.161 93.7728 159.161 94.1527C159.161 94.6179 158.991 94.6385 158.363 94.7062V95.036H161.655V94.7062C161.17 94.7386 161.008 94.2469 160.548 92.757L158.287 85.3957H158.004L155.749 93.0544C155.431 94.1114 155.292 94.5914 154.745 94.7062V95.036H156.809L156.806 94.7062ZM157.53 88.3549L158.552 91.747H156.567L157.53 88.3549ZM124.19 85.9817C124.664 86.0141 125.135 86.0435 125.135 86.9504V93.7169C125.135 94.5884 124.734 94.6444 124.19 94.715V95.0772H127.758V94.715C127.193 94.6709 126.787 94.6149 126.787 93.7169V86.9534C126.787 86.017 127.273 86.0052 127.758 85.9846V85.6107H124.19V85.9817Z" fill="white"/>
<path d="M144.909 119.072C145.763 120.362 146.352 121.884 146.617 123.448C147.359 127.853 145.207 132.508 137.156 132.926C137.024 139.525 135.401 142.222 127.033 142.372C127.757 149.394 124.095 151.676 120.134 151.676C116.156 151.676 112.49 149.394 113.221 142.372C104.849 142.222 103.236 139.525 103.083 132.926C95.0265 132.505 92.8917 127.853 93.6367 123.448C93.8811 121.881 94.4847 120.362 95.3357 119.072H52.3726V121.254C52.4403 201.98 119.163 236.755 119.36 236.864L120.37 237.405L121.394 236.864C121.595 236.755 188.32 201.983 188.382 121.254V119.072H144.909ZM89.1758 193.138C90.7805 192.296 92.0025 189.834 92.294 188.159C92.6797 185.995 93.1361 185.085 94.2815 185.049C95.424 185.02 95.8833 185.995 96.272 188.159C96.5576 189.834 97.7796 192.293 99.3814 193.138C100.383 193.668 103.601 193.75 102.947 195.632C102.503 196.489 101.914 198.25 101.039 197.466C100.15 196.68 98.6482 194.651 98.0534 194.522C97.4734 194.422 97.5558 195.305 97.8032 195.605C98.1388 195.988 99.1606 197.463 99.7406 198.146C100.477 198.977 100.703 200.505 99.4138 201.109C98.1388 201.712 96.8109 200.944 96.8462 200.255C96.8904 199.218 96.2691 196.247 95.7067 196.247C95.2621 196.247 95.2444 197.025 95.2915 197.858C95.1148 199.607 96.2897 201.006 96.1572 201.907C95.9982 202.781 95.8156 203.715 94.2786 203.694C92.7357 203.65 92.5413 202.778 92.4 201.907C92.2557 201.003 93.4335 199.604 93.248 197.858C93.301 197.022 93.2834 196.247 92.8387 196.247C92.2911 196.247 91.6433 199.218 91.7139 200.255C91.7404 200.944 90.4125 201.712 89.1316 201.109C87.8478 200.502 88.0745 198.974 88.7989 198.146C89.3848 197.463 90.4125 195.991 90.7481 195.605C90.9866 195.302 91.0838 194.422 90.4979 194.522C89.9031 194.648 88.4014 196.68 87.518 197.466C86.6347 198.25 86.0546 196.489 85.613 195.632C84.9593 193.747 88.1747 193.668 89.1758 193.138ZM90.277 187.59C91.3017 187.476 90.7894 188.542 90.6804 189.49C90.5685 190.417 90.3153 190.526 89.326 189.195C88.3307 187.882 89.167 187.708 90.277 187.59ZM98.2478 187.688C99.352 187.835 100.194 187.994 99.2018 189.295C98.2065 190.629 97.9563 190.523 97.8414 189.602C97.7266 188.662 97.2143 187.59 98.2478 187.688ZM145.71 196.25C145.159 196.25 144.535 199.221 144.582 200.258C144.609 200.947 143.301 201.715 142.006 201.112C140.731 200.505 140.952 198.977 141.682 198.149C142.271 197.466 143.304 195.994 143.631 195.608C143.864 195.305 143.955 194.425 143.375 194.525C142.792 194.651 141.276 196.683 140.392 197.469C139.521 198.252 138.935 196.492 138.49 195.635C137.825 193.753 141.055 193.671 142.047 193.141C143.652 192.299 144.877 189.837 145.162 188.162C145.539 185.997 146.022 185.088 147.159 185.052C148.289 185.023 148.743 185.997 149.146 188.162C149.429 189.837 150.66 192.296 152.259 193.141C153.257 193.671 156.472 193.753 155.821 195.635C155.368 196.492 154.788 198.252 153.905 197.469C153.027 196.683 151.522 194.654 150.928 194.525C150.351 194.425 150.433 195.308 150.674 195.608C151.016 195.991 152.041 197.466 152.633 198.149C153.366 198.98 153.581 200.508 152.291 201.112C151.016 201.715 149.688 200.947 149.729 200.258C149.773 199.221 149.146 196.25 148.59 196.25C148.139 196.25 148.119 197.028 148.18 197.861C147.989 199.61 149.182 201.009 149.023 201.91C148.881 202.784 148.69 203.717 147.162 203.697C145.61 203.653 145.433 202.781 145.274 201.91C145.127 201.006 146.305 199.607 146.122 197.861C146.184 197.025 146.172 196.25 145.71 196.25ZM143.142 187.59C144.179 187.476 143.649 188.542 143.552 189.49C143.44 190.417 143.181 190.526 142.194 189.195C141.202 187.882 142.038 187.708 143.142 187.59ZM151.116 187.688C152.232 187.835 153.051 187.994 152.073 189.295C151.087 190.629 150.828 190.523 150.716 189.602C150.598 188.662 150.074 187.59 151.116 187.688ZM152.073 136.053C151.084 137.378 150.828 137.281 150.716 136.342C150.598 135.423 150.077 134.336 151.116 134.439C152.229 134.56 153.051 134.743 152.073 136.053ZM143.142 134.336C144.179 134.224 143.649 135.302 143.552 136.23C143.44 137.172 143.181 137.281 142.194 135.953C141.202 134.616 142.038 134.448 143.142 134.336ZM142.044 139.884C143.649 139.045 144.874 136.607 145.159 134.913C145.536 132.735 146.019 131.836 147.156 131.789C148.286 131.769 148.74 132.735 149.143 134.913C149.426 136.607 150.657 139.042 152.256 139.884C153.254 140.423 156.469 140.484 155.819 142.381C155.365 143.264 154.785 144.998 153.902 144.215C153.024 143.429 151.52 141.394 150.925 141.279C150.348 141.168 150.43 142.083 150.672 142.348C151.013 142.752 152.038 144.215 152.63 144.886C153.363 145.723 153.578 147.274 152.288 147.875C151.013 148.47 149.685 147.696 149.726 147.015C149.771 145.979 149.143 143.005 148.587 143.005C148.136 143.005 148.116 143.768 148.178 144.624C147.986 146.37 149.179 147.76 149.02 148.664C148.878 149.559 148.687 150.475 147.159 150.452C145.607 150.416 145.43 149.559 145.271 148.664C145.124 147.76 146.302 146.37 146.119 144.624C146.187 143.768 146.175 143.005 145.71 143.005C145.159 143.005 144.535 145.982 144.582 147.015C144.609 147.696 143.301 148.473 142.006 147.875C140.731 147.272 140.952 145.723 141.682 144.904C142.271 144.215 143.304 142.752 143.631 142.348C143.864 142.083 143.955 141.168 143.375 141.279C142.792 141.394 141.276 143.429 140.392 144.215C139.521 145.007 138.935 143.264 138.49 142.381C137.822 140.484 141.052 140.423 142.044 139.884ZM147.156 161.146C146.42 153.696 151.113 151.559 156.693 151.986C155.957 144.533 159.767 142.098 166.386 142.381C165.503 133.665 171.383 132.658 175.938 132.949C175.232 126.457 179.857 123.777 182.996 123.448H183.988C183.55 153.278 173.571 176.41 161.61 193.624C156.649 192.393 155.857 188.374 156.248 184.764C148.917 185.624 145.975 180.323 146.994 175.315C144.205 176.313 138.181 174.876 137.454 169.582C136.729 164.297 140.984 161.146 147.156 161.146ZM124.68 161.084C125.788 161.196 126.624 161.364 125.643 162.677C124.633 164.014 124.395 163.902 124.289 162.969C124.174 162.029 123.65 160.966 124.68 161.084ZM116.719 160.966C117.737 160.849 117.225 161.935 117.107 162.854C117.004 163.793 116.748 163.902 115.759 162.58C114.758 161.264 115.597 161.084 116.719 160.966ZM115.614 166.508C117.207 165.666 118.441 163.219 118.724 161.532C119.107 159.373 119.578 158.461 120.717 158.422C121.851 158.387 122.319 159.373 122.693 161.532C122.987 163.222 124.215 165.669 125.814 166.508C126.818 167.035 130.039 167.109 129.383 169.017C128.926 169.894 128.34 171.637 127.469 170.851C126.586 170.056 125.075 168.027 124.501 167.907C123.903 167.803 123.994 168.69 124.245 168.987C124.574 169.373 125.599 170.851 126.188 171.528C126.921 172.364 127.13 173.884 125.852 174.496C124.572 175.1 123.247 174.32 123.276 173.637C123.341 172.588 122.69 169.632 122.136 169.632C121.695 169.632 121.68 170.386 121.742 171.222C121.565 173 122.737 174.393 122.59 175.291C122.44 176.175 122.254 177.099 120.72 177.076C119.171 177.043 118.986 176.172 118.856 175.291C118.697 174.393 119.866 173 119.69 171.222C119.74 170.389 119.719 169.632 119.286 169.632C118.727 169.632 118.1 172.588 118.141 173.637C118.188 174.32 116.863 175.1 115.576 174.496C114.286 173.884 114.516 172.364 115.252 171.528C115.835 170.854 116.863 169.376 117.19 168.987C117.434 168.69 117.525 167.803 116.928 167.907C116.342 168.027 114.837 170.056 113.965 170.851C113.088 171.637 112.49 169.894 112.049 169.017C111.392 167.109 114.604 167.035 115.614 166.508ZM113.221 194.651C112.64 189.048 116.018 185.35 120.567 185.35C125.116 185.35 128.491 189.048 127.916 194.651C132.907 193.226 139.515 195.632 137.907 204.233C143.608 202.301 147.992 205.287 148.275 209.963C135.652 223.113 123.759 230.406 120.334 232.417C116.854 230.43 105.191 223.245 92.8063 210.396C92.8063 205.469 97.3468 202.233 103.236 204.233C101.619 195.629 108.238 193.223 113.221 194.651ZM103.822 169.585C103.083 174.876 97.07 176.316 94.2815 175.318C95.2944 180.326 92.3794 185.626 85.0211 184.767C85.4363 188.506 84.6324 192.74 79.1645 193.756C67.201 176.525 57.2104 153.337 56.7599 123.468C56.807 123.468 56.8511 123.451 56.8924 123.451H58.2763C61.4269 123.798 66.035 126.457 65.3519 132.952C69.8982 132.661 75.7754 133.668 74.8979 142.384C81.5054 142.101 85.3273 144.536 84.5794 151.989C90.171 151.559 94.8793 153.699 94.1402 161.149C100.3 161.146 104.555 164.297 103.822 169.585ZM89.5085 136.23C89.3848 137.172 89.1346 137.281 88.1393 135.953C87.15 134.616 88.0009 134.451 89.1051 134.336C90.1386 134.224 89.6175 135.299 89.5085 136.23ZM97.0729 134.436C98.1771 134.56 99.0133 134.743 98.024 136.05C97.0229 137.375 96.7814 137.278 96.6695 136.339C96.5576 135.42 96.0571 134.336 97.0729 134.436ZM95.0795 134.916C95.3798 136.609 96.6018 139.045 98.2066 139.887C99.2018 140.426 102.432 140.487 101.766 142.384C101.322 143.267 100.736 145.01 99.8525 144.218C98.981 143.432 97.4763 141.397 96.8845 141.282C96.2926 141.171 96.3898 142.086 96.6371 142.351C96.961 142.755 97.9828 144.218 98.5805 144.907C99.3078 145.726 99.5316 147.277 98.2507 147.878C96.961 148.473 95.6478 147.698 95.6743 147.018C95.7273 145.982 95.0854 143.008 94.5318 143.008C94.099 143.008 94.0754 143.771 94.1402 144.627C93.9488 146.373 95.1148 147.763 94.9735 148.667C94.8233 149.562 94.6408 150.478 93.1008 150.455C91.5638 150.419 91.3753 149.562 91.2281 148.667C91.0868 147.763 92.2587 146.373 92.0673 144.627C92.1379 143.771 92.1056 143.008 91.6727 143.008C91.1221 143.008 90.4831 145.985 90.5273 147.018C90.5715 147.698 89.2523 148.476 87.9685 147.878C86.6877 147.274 86.8997 145.726 87.6388 144.907C88.2188 144.218 89.2523 142.755 89.5792 142.351C89.8265 142.086 89.9119 141.171 89.3289 141.282C88.7341 141.397 87.2383 143.432 86.352 144.218C85.4716 145.01 84.8857 143.267 84.4499 142.384C83.7815 140.487 87.0086 140.426 88.0068 139.887C89.6057 139.048 90.8276 136.609 91.1309 134.916C91.5078 132.737 91.9789 131.839 93.1067 131.792C94.2521 131.772 94.7026 132.737 95.0795 134.916Z" fill="white"/>
<path d="M258.392 151.22C258.392 157.378 254.176 161.525 244.839 161.525H227.332V123.33H244.322C252.426 123.33 256.769 127.025 256.769 133.317C256.769 137.794 254.178 140.908 250.093 141.942C255.474 143.045 258.392 146.679 258.392 151.22ZM237.835 139.219H241.923C244.645 139.219 246.333 138.181 246.333 135.586C246.333 132.991 244.646 131.953 241.923 131.953H237.835V139.219ZM237.835 152.773H243.348C246.004 152.773 247.498 151.607 247.498 149.403C247.498 147.195 246.004 146.027 243.348 146.027H237.835V152.773Z" fill="white"/>
<path d="M279.077 155.953C278.231 159.909 275.184 162.303 270.064 162.303C264.617 162.303 260.791 158.934 260.791 151.867V131.566H271.293V149.66C271.293 152.645 272.135 154.459 274.537 154.459C277.262 154.459 278.95 151.996 278.95 147.134V131.566H289.452V161.525H280.049L279.077 155.953Z" fill="white"/>
<path d="M300.145 151.22C300.732 153.686 302.612 154.978 304.88 154.978C306.762 154.978 308.059 154.329 308.059 153.034C308.059 151.737 306.96 151.152 304.816 150.701L300.794 149.855C295.348 148.687 292.494 145.9 292.494 140.968C292.494 133.708 298.722 130.852 305.401 130.852C312.596 130.852 316.942 133.836 317.979 139.412L308.446 140.84C308.121 139.153 307.088 138.181 305.073 138.181C303.585 138.181 302.546 138.894 302.546 140.061C302.546 141.229 303.388 141.812 304.945 142.072L308.965 142.787C315.576 143.89 318.367 147.455 318.367 152.515C318.367 159.583 312.209 162.303 304.816 162.303C298.007 162.303 293.468 159.841 291.782 154.523L300.145 151.22Z" fill="white"/>
<path d="M326.599 118.595C329.714 118.595 332.372 120.735 332.372 124.107C332.372 127.48 329.714 129.62 326.599 129.62C323.49 129.62 320.831 127.48 320.831 124.107C320.831 120.735 323.491 118.595 326.599 118.595ZM331.853 131.566V161.525H321.415V131.566H331.853Z" fill="white"/>
<path d="M346.765 137.339C348.32 132.862 351.825 130.852 356.296 130.852C360.901 130.852 365.051 133.574 365.051 140.451V161.525H354.612V144.473C354.612 141.423 353.701 139.543 351.047 139.543C348.778 139.543 346.833 140.906 346.833 145.511V161.525H336.389V131.566H345.793L346.765 137.339Z" fill="white"/>
<path d="M387.544 150.701L396.236 153.422C394.546 159.841 389.229 162.303 383.263 162.303C374.383 162.303 367.9 156.665 367.9 146.87C367.9 136.752 373.604 130.852 383.008 130.852C391.89 130.852 396.429 136.56 396.429 144.862C396.429 145.962 396.429 147.262 396.299 148.623H378.011C378.209 152.322 380.021 154.327 383.137 154.327C385.344 154.329 386.834 153.357 387.544 150.701ZM386.511 143.306C386.511 140.71 385.603 138.439 382.684 138.439C380.155 138.439 378.537 140.515 378.276 143.306H386.511Z" fill="white"/>
<path d="M406.027 151.22C406.612 153.686 408.488 154.978 410.759 154.978C412.638 154.978 413.935 154.329 413.935 153.034C413.935 151.737 412.836 151.152 410.694 150.701L406.673 149.855C401.226 148.687 398.375 145.9 398.375 140.968C398.375 133.708 404.6 130.852 411.281 130.852C418.481 130.852 422.824 133.836 423.86 139.412L414.326 140.84C414.001 139.153 412.965 138.181 410.953 138.181C409.462 138.181 408.422 138.894 408.422 140.061C408.422 141.229 409.264 141.812 410.819 142.072L414.848 142.787C421.461 143.89 424.249 147.455 424.249 152.515C424.249 159.583 418.089 162.303 410.694 162.303C403.885 162.303 399.351 159.841 397.659 154.523L406.027 151.22Z" fill="white"/>
<path d="M433.778 151.22C434.362 153.686 436.245 154.978 438.512 154.978C440.392 154.978 441.693 154.329 441.693 153.034C441.693 151.737 440.589 151.152 438.446 150.701L434.429 149.855C428.982 148.687 426.124 145.9 426.124 140.968C426.124 133.708 432.352 130.852 439.032 130.852C446.229 130.852 450.574 133.836 451.612 139.412L442.074 140.84C441.754 139.153 440.716 138.181 438.705 138.181C437.214 138.181 436.177 138.894 436.177 140.061C436.177 141.229 437.019 141.812 438.574 142.072L442.595 142.787C449.213 143.89 451.999 147.455 451.999 152.515C451.999 159.583 445.837 162.303 438.444 162.303C431.637 162.303 427.101 159.841 425.409 154.523L433.778 151.22Z" fill="white"/>
<path d="M248.727 207.769C247.5 206.733 247.045 205.306 246.592 203.491L245.422 198.756C244.775 196.034 243.673 195.513 241.206 195.513H237.901V207.769H227.332V169.584H243.671C252.228 169.584 258.132 172.887 258.132 181.573C258.132 187.603 254.24 190.587 250.027 191.299C253.527 192.012 255.28 193.564 256.188 196.874L258.002 203.421C258.456 205.11 258.974 206.407 260.336 207.768L248.727 207.769ZM237.901 186.957H241.987C245.681 186.957 247.304 185.46 247.304 182.741C247.304 180.016 245.681 178.525 241.987 178.525H237.901V186.957Z" fill="white"/>
<path d="M279.334 196.941L288.021 199.663C286.337 206.084 281.016 208.547 275.053 208.547C266.168 208.547 259.683 202.906 259.683 193.117C259.683 183.001 265.39 177.1 274.793 177.1C283.675 177.1 288.214 182.805 288.214 191.104C288.214 192.205 288.214 193.501 288.084 194.867H269.804C269.999 198.558 271.814 200.566 274.926 200.566C277.128 200.566 278.62 199.601 279.334 196.941ZM278.296 189.547C278.296 186.959 277.388 184.687 274.472 184.687C271.944 184.687 270.321 186.759 270.063 189.547H278.296Z" fill="white"/>
<path d="M287.439 177.817H298.458L301.897 189.875C303.129 194.22 303.841 197.205 303.841 197.205H303.971C303.971 197.205 304.62 194.22 305.985 189.875L309.874 177.817H320.051L309.163 207.771H297.88L287.439 177.817Z" fill="white"/>
<path d="M327.508 164.852C330.62 164.852 333.282 166.992 333.282 170.363C333.282 173.734 330.62 175.871 327.508 175.871C324.397 175.871 321.738 173.734 321.738 170.363C321.738 166.992 324.397 164.852 327.508 164.852ZM332.76 177.817V207.769H322.319V177.817H332.76Z" fill="white"/>
<path d="M355.647 196.941L364.333 199.663C362.648 206.084 357.331 208.547 351.367 208.547C342.483 208.547 336.001 202.906 336.001 193.117C336.001 183.001 341.707 177.1 351.111 177.1C359.99 177.1 364.531 182.805 364.531 191.104C364.531 192.205 364.531 193.501 364.401 194.867H346.116C346.309 198.558 348.121 200.566 351.235 200.566C353.444 200.566 354.935 199.601 355.647 196.941ZM354.611 189.547C354.611 186.959 353.703 184.687 350.785 184.687C348.253 184.687 346.632 186.759 346.378 189.547H354.611Z" fill="white"/>
<path d="M392.543 177.817L394.682 188.251C395.784 193.635 396.367 197.655 396.367 197.655H396.494C396.494 197.655 397.143 193.697 398.374 188.381L400.774 177.817H410.951L402.849 207.771H391.116L389.299 199.016C388.393 194.605 387.674 189.42 387.674 189.42H387.549C387.549 189.42 386.833 194.605 385.928 199.016L384.111 207.771H372.441L364.335 177.817H374.907L377.305 188.381C378.537 193.697 379.185 197.655 379.185 197.655H379.315C379.315 197.655 379.898 193.635 380.998 188.251L383.144 177.817H392.543Z" fill="white"/>
<path d="M290.884 105.411C290.884 106.836 291.276 107.614 292.377 107.614C293.023 107.614 293.675 107.357 294.259 107.03V114.425C292.832 115.463 291.473 115.851 289.072 115.851C285.052 115.851 282.848 114.033 281.678 111.115C279.992 114.229 277.331 115.98 273.056 115.98C267.548 115.98 264.106 112.736 264.106 107.612C264.106 101.191 268.71 97.9507 277.722 97.9507H280.772V95.9406C280.772 93.9948 280.126 92.6323 278.244 92.6323C276.427 92.6323 275.588 93.7345 275.458 96.2009L265.469 94.644C266.056 88.4837 270.855 84.5922 278.569 84.5922C287.13 84.5922 290.888 88.3536 290.888 94.906L290.884 105.411ZM280.768 103.271H279.411C275.648 103.271 274.349 104.436 274.349 106.383C274.349 107.81 275.321 108.912 277.139 108.912C278.888 108.912 280.768 108.004 280.768 105.216V103.271Z" fill="white"/>
<path d="M316.37 97.1087C315.138 96.6523 314.421 96.3311 312.737 96.3311C310.274 96.3311 307.294 97.3031 307.294 102.621V115.27H296.847V85.3039H305.798L306.836 92.6982C307.678 87.7028 311.894 85.3039 317.016 85.3039L316.37 97.1087Z" fill="white"/>
<path d="M318.031 85.3039H329.06L332.494 97.3674C333.726 101.712 334.436 104.696 334.436 104.696H334.57C334.57 104.696 335.217 101.712 336.578 97.3674L340.468 85.3039H350.65L339.756 115.268H328.47L318.031 85.3039Z" fill="white"/>
<path d="M375.806 105.411C375.806 106.836 376.195 107.614 377.301 107.614C377.947 107.614 378.594 107.357 379.181 107.03V114.425C377.752 115.463 376.391 115.851 373.991 115.851C369.974 115.851 367.768 114.033 366.598 111.115C364.913 114.229 362.257 115.98 357.978 115.98C352.464 115.98 349.027 112.736 349.027 107.612C349.027 101.191 353.627 97.9506 362.642 97.9506H365.69V95.9406C365.69 93.9948 365.043 92.6323 363.163 92.6323C361.344 92.6323 360.502 93.7345 360.374 96.2009L350.388 94.644C350.969 88.4837 355.769 84.5922 363.486 84.5922C372.047 84.5922 375.806 88.3536 375.806 94.9059V105.411ZM365.689 103.271H364.325C360.566 103.271 359.27 104.435 359.27 106.383C359.27 107.81 360.242 108.912 362.057 108.912C363.81 108.912 365.689 108.004 365.689 105.216V103.271Z" fill="white"/>
<path d="M401.286 97.1087C400.054 96.6523 399.346 96.3311 397.654 96.3311C395.192 96.3311 392.21 97.3031 392.21 102.621V115.27H381.771V85.3039H390.721L391.754 92.6982C392.599 87.7028 396.815 85.3039 401.937 85.3039L401.286 97.1087Z" fill="white"/>
<path d="M424.042 75.1911H434.551V115.27H425.08L424.11 110.08C423.006 114.1 419.439 116.048 414.9 116.048C407.896 116.048 402.902 110.599 402.902 100.87C402.902 90.8183 407.703 84.5938 416.132 84.5938C419.963 84.5938 423.004 86.3435 424.041 89.1987L424.042 75.1911ZM424.111 98.145C424.111 94.3227 422.228 92.2451 419.182 92.2451C416.134 92.2451 413.541 94.5154 413.541 100.483C413.541 105.412 415.617 108.004 419.05 108.004C421.713 108.004 424.111 105.994 424.111 101.91V98.145Z" fill="white"/>
<path d="M227.332 115.27V77.0708H237.967V91.2696H251.067V77.0708H261.7V115.27H251.067V100.481H237.967V115.27H227.332Z" fill="white"/>
</svg>
