<svg width="1000" height="1000" viewBox="0 0 1000 1000" fill="none" xmlns="http://www.w3.org/2000/svg">
<path d="M91.2163 538H68.3062L50.9551 509.924H44.3853V538H24.6196V456.354H57.7495C67.7446 456.354 75.4937 458.544 80.9966 462.924C86.4995 467.304 89.251 473.743 89.251 482.241C89.251 488.68 87.66 494.126 84.478 498.581C81.2961 503.036 76.7852 506.218 70.9453 508.127L91.2163 538ZM53.8188 472.919H44.3853V496.503H53.8188C63.3273 496.503 68.0815 492.442 68.0815 484.318C68.0815 476.719 63.3273 472.919 53.8188 472.919ZM164.035 456.354V472.919H135.622V488.53H159.992V503.522H135.622V521.435H164.035V538H115.856V456.354H164.035ZM228.206 507.06V492.91H265.771V500.153C265.771 505.694 265.116 510.691 263.806 515.146C262.496 519.601 260.68 523.363 258.359 526.433C256.076 529.465 253.306 532.01 250.049 534.069C246.792 536.128 243.254 537.626 239.436 538.562C235.655 539.497 231.556 539.965 227.139 539.965C221.598 539.965 216.339 538.973 211.36 536.989C206.418 535.005 202.057 532.216 198.276 528.623C194.533 525.029 191.557 520.518 189.348 515.09C187.177 509.662 186.091 503.691 186.091 497.177C186.091 490.701 187.196 484.749 189.404 479.321C191.613 473.855 194.589 469.326 198.333 465.732C202.076 462.138 206.4 459.349 211.304 457.365C216.208 455.381 221.374 454.389 226.802 454.389C234.813 454.389 241.607 455.887 247.185 458.881C252.763 461.876 257.424 466.275 261.167 472.077L245.781 481.398C243.722 478.479 241.158 476.158 238.088 474.436C235.056 472.714 231.706 471.853 228.037 471.853C222.16 471.853 217.162 474.155 213.044 478.759C208.964 483.364 206.924 489.503 206.924 497.177C206.924 505.039 208.964 511.29 213.044 515.932C217.162 520.537 222.216 522.839 228.206 522.839C233.409 522.839 237.714 521.547 241.121 518.964C244.565 516.344 246.698 512.376 247.522 507.06H228.206ZM338.421 456.354V472.919H310.008V488.53H334.378V503.522H310.008V521.435H338.421V538H290.243V456.354H338.421ZM416.462 502.006V456.354H434.038V538H414.497L383.22 487.631V538H365.644V456.354H385.971L416.462 502.006ZM517.974 456.354V473.256H498.096V538H478.331V473.256H458.509V456.354H517.974ZM617.465 497.177C617.465 508.782 613.927 518.553 606.852 526.489L616.398 538.674L601.125 549.287L591.466 537.102C586.487 539.011 581.303 539.965 575.912 539.965C570.334 539.965 565.037 538.936 560.021 536.877C555.005 534.818 550.625 531.954 546.881 528.286C543.138 524.617 540.162 520.087 537.953 514.697C535.744 509.306 534.64 503.466 534.64 497.177C534.64 490.888 535.744 485.048 537.953 479.658C540.162 474.267 543.138 469.737 546.881 466.069C550.625 462.4 555.005 459.536 560.021 457.478C565.037 455.419 570.334 454.389 575.912 454.389C581.527 454.389 586.862 455.419 591.916 457.478C596.969 459.536 601.368 462.4 605.111 466.069C608.892 469.737 611.887 474.267 614.096 479.658C616.342 485.048 617.465 490.888 617.465 497.177ZM557.27 486.508C556.146 489.653 555.585 493.209 555.585 497.177C555.585 501.145 556.146 504.72 557.27 507.902C558.393 511.047 559.909 513.592 561.818 515.539C563.764 517.448 565.936 518.908 568.332 519.919C570.727 520.93 573.254 521.435 575.912 521.435C578.57 521.435 581.116 520.93 583.549 519.919C585.982 518.908 588.172 517.448 590.119 515.539C592.065 513.592 593.619 511.047 594.779 507.902C595.94 504.72 596.52 501.145 596.52 497.177C596.52 493.209 595.94 489.653 594.779 486.508C593.619 483.326 592.065 480.781 590.119 478.872C588.172 476.925 585.982 475.446 583.549 474.436C581.116 473.425 578.57 472.919 575.912 472.919C573.254 472.919 570.727 473.425 568.332 474.436C565.936 475.446 563.764 476.925 561.818 478.872C559.909 480.781 558.393 483.326 557.27 486.508ZM675.01 539.965C670.143 539.965 665.726 539.329 661.758 538.056C657.79 536.783 654.308 534.893 651.313 532.385C648.356 529.839 646.054 526.545 644.407 522.502C642.76 518.422 641.936 513.742 641.936 508.464V456.354H661.702V505.432C661.627 510.71 662.731 514.772 665.015 517.617C667.298 520.462 670.63 521.884 675.01 521.884C679.427 521.884 682.815 520.462 685.173 517.617C687.532 514.772 688.711 510.71 688.711 505.432V456.354H708.477V508.464C708.477 513.742 707.653 518.422 706.006 522.502C704.396 526.545 702.094 529.839 699.099 532.385C696.104 534.893 692.585 536.783 688.542 538.056C684.5 539.329 679.989 539.965 675.01 539.965ZM805.721 538H783.878L778.094 520.087H751.31L745.582 538H726.153L754.903 456.354H777.083L805.721 538ZM764.786 478.31L755.465 507.172H774.107L764.786 478.31ZM878.708 502.006V456.354H896.284V538H876.743L845.466 487.631V538H827.89V456.354H848.217L878.708 502.006ZM980.22 456.354V473.256H960.342V538H940.577V473.256H920.755V456.354H980.22Z" fill="#CC092F"/>
</svg>
