<svg width="914" height="83" viewBox="0 0 914 83" fill="none" xmlns="http://www.w3.org/2000/svg">
<path d="M53.5117 73H37.8867L21.1875 46.877H13.3262V73H-0.00390625V2.00391H25.2891C33.5898 2.00391 40.084 3.77799 44.7715 7.32617C49.459 10.8743 51.8027 16.2943 51.8027 23.5859C51.8027 29.3477 50.3379 34.1328 47.4082 37.9414C44.4785 41.7174 40.377 44.3053 35.1035 45.7051L53.5117 73ZM23.3848 13.1855H13.3262V37.209H23.3848C27.9421 37.209 31.4089 36.1999 33.7852 34.1816C36.194 32.1309 37.3984 29.071 37.3984 25.002C37.3984 17.1243 32.7272 13.1855 23.3848 13.1855ZM125.807 2.00391V13.1855H99.5371V31.1055H122.096V41.6035H99.5371V61.8184H125.807V73H86.207V2.00391H125.807ZM191.412 45.7051V35.4023H223.346V40.0898C223.346 44.9076 222.776 49.2533 221.637 53.127C220.53 57.0007 218.984 60.2559 216.998 62.8926C215.045 65.5293 212.685 67.7428 209.918 69.5332C207.151 71.291 204.14 72.5768 200.885 73.3906C197.662 74.2044 194.179 74.6113 190.436 74.6113C185.683 74.6113 181.158 73.7324 176.861 71.9746C172.597 70.2168 168.854 67.7591 165.631 64.6016C162.441 61.444 159.902 57.5215 158.014 52.834C156.158 48.1465 155.23 43.0358 155.23 37.502C155.23 31.9681 156.174 26.8574 158.062 22.1699C159.983 17.4499 162.555 13.5273 165.777 10.4023C169 7.24479 172.727 4.78711 176.959 3.0293C181.223 1.27148 185.683 0.392578 190.338 0.392578C196.946 0.392578 202.577 1.58073 207.232 3.95703C211.887 6.30078 215.859 9.71875 219.146 14.2109L209.234 21.584C207.086 18.7194 204.449 16.457 201.324 14.7969C198.199 13.1367 194.732 12.3066 190.924 12.3066C188.124 12.3066 185.439 12.86 182.867 13.9668C180.328 15.0736 178.033 16.6523 175.982 18.7031C173.932 20.7539 172.288 23.4069 171.051 26.6621C169.846 29.9173 169.244 33.5306 169.244 37.502C169.244 41.5059 169.846 45.1517 171.051 48.4395C172.288 51.6947 173.915 54.3639 175.934 56.4473C177.984 58.498 180.296 60.0931 182.867 61.2324C185.439 62.3392 188.124 62.8926 190.924 62.8926C194.374 62.8926 197.434 62.3555 200.104 61.2812C202.773 60.207 205.084 58.3678 207.037 55.7637C208.99 53.127 210.292 49.7741 210.943 45.7051H191.412ZM294.713 2.00391V13.1855H268.443V31.1055H291.002V41.6035H268.443V61.8184H294.713V73H255.113V2.00391H294.713ZM374.234 48.6836V2.00391H386.441V73H373.258L341.129 23.0977V73H328.824V2.00391H342.643L374.234 48.6836ZM467.916 2.00391V13.2832H449.85V73H436.617V13.2832H418.551V2.00391H467.916ZM563.746 37.502C563.746 42.9056 562.818 47.8861 560.963 52.4434C559.107 57.0007 556.503 60.9557 553.15 64.3086L561.451 74.9043L551.051 82.082L542.652 71.4863C537.965 73.5697 533.098 74.6113 528.053 74.6113C523.3 74.6113 518.759 73.7161 514.43 71.9258C510.1 70.1354 506.308 67.6615 503.053 64.5039C499.798 61.3138 497.193 57.375 495.24 52.6875C493.32 48 492.359 42.9382 492.359 37.502C492.359 32.0658 493.32 27.0039 495.24 22.3164C497.193 17.6289 499.798 13.7064 503.053 10.5488C506.308 7.35872 510.1 4.86849 514.43 3.07812C518.759 1.28776 523.3 0.392578 528.053 0.392578C532.805 0.392578 537.346 1.28776 541.676 3.07812C546.005 4.86849 549.798 7.35872 553.053 10.5488C556.308 13.7064 558.896 17.6289 560.816 22.3164C562.77 27.0039 563.746 32.0658 563.746 37.502ZM508.277 26.6621C507.073 29.8848 506.471 33.498 506.471 37.502C506.471 41.5059 507.073 45.1191 508.277 48.3418C509.514 51.5645 511.158 54.1686 513.209 56.1543C515.26 58.14 517.555 59.6699 520.094 60.7441C522.633 61.7858 525.286 62.3066 528.053 62.3066C530.82 62.3066 533.473 61.7858 536.012 60.7441C538.551 59.6699 540.862 58.14 542.945 56.1543C545.029 54.1686 546.689 51.5645 547.926 48.3418C549.163 45.1191 549.781 41.5059 549.781 37.502C549.781 33.498 549.163 29.8848 547.926 26.6621C546.689 23.4395 545.029 20.8353 542.945 18.8496C540.862 16.8639 538.551 15.3503 536.012 14.3086C533.473 13.2344 530.82 12.6973 528.053 12.6973C525.286 12.6973 522.633 13.2344 520.094 14.3086C517.555 15.3503 515.26 16.8639 513.209 18.8496C511.158 20.8353 509.514 23.4395 508.277 26.6621ZM623.443 74.6113C614.915 74.6113 608.176 72.235 603.229 67.4824C598.313 62.6973 595.855 55.7311 595.855 46.584V2.00391H609.137L609.039 45.1191C609.007 50.653 610.276 54.9173 612.848 57.9121C615.419 60.9069 618.951 62.4043 623.443 62.4043C628.001 62.4043 631.581 60.9232 634.186 57.9609C636.822 54.9661 638.141 50.6855 638.141 45.1191V2.00391H651.568V46.584C651.568 55.7311 649.062 62.6973 644.049 67.4824C639.068 72.235 632.2 74.6113 623.443 74.6113ZM743.59 73H728.99L722.984 54.8848H697.887L691.881 73H678.697L703.795 2.00391H718.492L743.59 73ZM710.582 16.9941L701.012 45.6074H720.006L710.582 16.9941ZM819.84 48.6836V2.00391H832.047V73H818.863L786.734 23.0977V73H774.43V2.00391H788.248L819.84 48.6836ZM913.521 2.00391V13.2832H895.455V73H882.223V13.2832H864.156V2.00391H913.521Z" fill="white"/>
</svg>
