<svg width="936" height="95" viewBox="0 0 936 95" fill="none" xmlns="http://www.w3.org/2000/svg">
<path d="M61.9385 84H43.9697L24.7656 53.9585H15.7251V84H0.395508V2.35449H29.4824C39.0283 2.35449 46.4966 4.39469 51.8872 8.4751C57.2778 12.5555 59.9731 18.7884 59.9731 27.1738C59.9731 33.7998 58.2886 39.3027 54.9194 43.6826C51.5503 48.0251 46.8335 51.0011 40.769 52.6108L61.9385 84ZM27.2925 15.2134H15.7251V42.8403H27.2925C32.5334 42.8403 36.5202 41.6799 39.2529 39.3589C42.0231 37.0005 43.4082 33.4816 43.4082 28.8022C43.4082 19.743 38.0363 15.2134 27.2925 15.2134ZM133.578 2.35449V15.2134H103.368V35.8213H129.31V47.894H103.368V71.1411H133.578V84H88.0381V2.35449H133.578ZM197.524 52.6108V40.7627H234.248V46.1533C234.248 51.6937 233.592 56.6912 232.282 61.146C231.009 65.6007 229.231 69.3442 226.948 72.3765C224.702 75.4087 221.988 77.9543 218.806 80.0132C215.624 82.0347 212.161 83.5133 208.417 84.4492C204.711 85.3851 200.706 85.853 196.401 85.853C190.935 85.853 185.732 84.8423 180.791 82.8208C175.887 80.7993 171.582 77.973 167.875 74.3418C164.207 70.7106 161.287 66.1997 159.116 60.8091C156.982 55.4185 155.915 49.5412 155.915 43.1772C155.915 36.8133 157.001 30.936 159.172 25.5454C161.381 20.1174 164.338 15.6064 168.044 12.0127C171.75 8.38151 176.036 5.55518 180.903 3.53369C185.807 1.51221 190.935 0.501465 196.289 0.501465C203.888 0.501465 210.364 1.86784 215.717 4.60059C221.07 7.2959 225.638 11.2266 229.418 16.3926L218.02 24.8716C215.549 21.5773 212.517 18.9756 208.923 17.0664C205.329 15.1572 201.342 14.2026 196.962 14.2026C193.743 14.2026 190.655 14.839 187.697 16.1118C184.777 17.3846 182.138 19.2002 179.78 21.5586C177.421 23.917 175.531 26.9679 174.108 30.7114C172.723 34.4549 172.031 38.6102 172.031 43.1772C172.031 47.7817 172.723 51.9744 174.108 55.7554C175.531 59.4989 177.403 62.5685 179.724 64.9644C182.082 67.3228 184.74 69.1571 187.697 70.4673C190.655 71.7401 193.743 72.3765 196.962 72.3765C200.931 72.3765 204.449 71.7588 207.519 70.5234C210.589 69.2881 213.247 67.173 215.493 64.1782C217.739 61.146 219.236 57.2902 219.985 52.6108H197.524ZM304.82 2.35449V15.2134H274.61V35.8213H300.552V47.894H274.61V71.1411H304.82V84H259.28V2.35449H304.82ZM384.77 56.0361V2.35449H398.808V84H383.646L346.698 26.6123V84H332.548V2.35449H348.439L384.77 56.0361ZM481.003 2.35449V15.3257H460.227V84H445.01V15.3257H424.233V2.35449H481.003ZM579.708 43.1772C579.708 49.3914 578.641 55.119 576.507 60.3599C574.374 65.6007 571.379 70.1491 567.523 74.0049L577.069 86.1899L565.108 94.4443L555.45 82.2593C550.06 84.6551 544.463 85.853 538.661 85.853C533.195 85.853 527.973 84.8236 522.994 82.7646C518.015 80.7057 513.654 77.8607 509.911 74.2295C506.167 70.5609 503.172 66.0312 500.926 60.6406C498.718 55.25 497.613 49.4289 497.613 43.1772C497.613 36.9256 498.718 31.1045 500.926 25.7139C503.172 20.3232 506.167 15.8123 509.911 12.1812C513.654 8.51253 518.015 5.64876 522.994 3.58984C527.973 1.53092 533.195 0.501465 538.661 0.501465C544.126 0.501465 549.348 1.53092 554.327 3.58984C559.306 5.64876 563.667 8.51253 567.411 12.1812C571.154 15.8123 574.13 20.3232 576.339 25.7139C578.585 31.1045 579.708 36.9256 579.708 43.1772ZM515.919 30.7114C514.534 34.4175 513.841 38.5728 513.841 43.1772C513.841 47.7817 514.534 51.937 515.919 55.6431C517.341 59.3491 519.232 62.3439 521.59 64.6274C523.949 66.911 526.588 68.6704 529.508 69.9058C532.428 71.1037 535.479 71.7026 538.661 71.7026C541.843 71.7026 544.894 71.1037 547.813 69.9058C550.733 68.6704 553.391 66.911 555.787 64.6274C558.183 62.3439 560.092 59.3491 561.515 55.6431C562.937 51.937 563.648 47.7817 563.648 43.1772C563.648 38.5728 562.937 34.4175 561.515 30.7114C560.092 27.0054 558.183 24.0106 555.787 21.7271C553.391 19.4435 550.733 17.7028 547.813 16.5049C544.894 15.2695 541.843 14.6519 538.661 14.6519C535.479 14.6519 532.428 15.2695 529.508 16.5049C526.588 17.7028 523.949 19.4435 521.59 21.7271C519.232 24.0106 517.341 27.0054 515.919 30.7114ZM636.86 85.853C627.052 85.853 619.303 83.1203 613.613 77.6548C607.96 72.1519 605.134 64.1408 605.134 53.6216V2.35449H620.407L620.295 51.937C620.257 58.3009 621.717 63.2049 624.675 66.6489C627.632 70.0929 631.694 71.8149 636.86 71.8149C642.101 71.8149 646.219 70.1117 649.213 66.7051C652.246 63.2611 653.762 58.3384 653.762 51.937V2.35449H669.204V53.6216C669.204 64.1408 666.321 72.1519 660.556 77.6548C654.829 83.1203 646.93 85.853 636.86 85.853ZM763.528 84H746.739L739.832 63.1675H710.97L704.063 84H688.902L717.764 2.35449H734.666L763.528 84ZM725.569 19.5933L714.563 52.4985H736.407L725.569 19.5933ZM839.716 56.0361V2.35449H853.754V84H838.593L801.645 26.6123V84H787.494V2.35449H803.385L839.716 56.0361ZM935.95 2.35449V15.3257H915.173V84H899.956V15.3257H879.18V2.35449H935.95Z" fill="#CC092F"/>
</svg>
