<svg width="2865" height="226" viewBox="0 0 2865 226" fill="none" xmlns="http://www.w3.org/2000/svg">
<path d="M0.200002 219V4.49999H74.9C96.8 4.49999 107.3 5.99999 116.6 9.6C140.9 18.9 156.2 40.8 156.2 72C156.2 94.8 145.4 119.7 124.1 130.5V131.1C124.1 131.1 127.1 135 132.2 144L173.9 219H115.4L77.3 146.7H52.7V219H0.200002ZM52.7 101.7H75.5C92.3 101.7 102.8 92.4 102.8 75.3C102.8 59.1 96.8 49.5 70.4 49.5H52.7V101.7ZM264.692 219V4.49999H399.092V49.5H317.192V88.5H382.592V133.5H317.192V174H403.292V219H264.692ZM486.659 111.3C486.659 48.9 533.759 0.899983 599.159 0.899983C654.059 0.899983 681.659 29.4 681.659 29.4L656.459 68.7C656.459 68.7 634.559 48.9 604.259 48.9C559.259 48.9 540.959 77.7 540.959 109.5C540.959 150.3 569.159 174.6 602.459 174.6C627.659 174.6 645.959 159 645.959 159V142.5H615.659V97.8H692.459V219H648.659V213C648.659 208.5 648.959 204 648.959 204H648.359C648.359 204 627.659 222.6 591.959 222.6C537.059 222.6 486.659 181.5 486.659 111.3ZM791.919 219V4.49999H926.319V49.5H844.419V88.5H909.819V133.5H844.419V174H930.519V219H791.919ZM1028.29 219V4.49999H1081.39L1140.79 104.7C1149.19 118.8 1158.79 141.3 1158.79 141.3H1159.39C1159.39 141.3 1156.99 118.2 1156.99 104.7V4.49999H1209.49V219H1156.69L1096.99 119.1C1088.59 105 1078.99 82.5 1078.99 82.5H1078.39C1078.39 82.5 1080.79 105.6 1080.79 119.1V219H1028.29ZM1361.12 219V49.5H1296.02V4.49999H1478.72V49.5H1413.62V219H1361.12ZM1550.48 110.4C1550.48 48.9 1597.88 0.899983 1662.68 0.899983C1727.48 0.899983 1774.88 48.9 1774.88 110.4C1774.88 135 1766.18 156 1753.58 174L1776.08 192.3L1746.38 225.6L1724.48 204.9C1707.08 216.3 1686.08 222.6 1662.68 222.6C1597.88 222.6 1550.48 173.4 1550.48 110.4ZM1604.78 110.4C1604.78 147 1630.58 174.6 1662.68 174.6C1670.48 174.6 1679.48 173.1 1686.08 169.8L1664.18 150.6L1693.58 117.3L1714.88 138C1718.48 129.6 1720.58 120.3 1720.58 110.4C1720.58 75.3 1694.78 48.9 1662.68 48.9C1630.58 48.9 1604.78 75.3 1604.78 110.4ZM1870.62 140.1V4.49999H1923.12V140.1C1923.12 162.6 1937.82 174.6 1960.32 174.6C1982.82 174.6 1997.52 162.6 1997.52 140.1V4.49999H2050.02V140.1C2050.02 188.4 2014.62 222.6 1960.62 222.6C1906.02 222.6 1870.62 188.4 1870.62 140.1ZM2275.7 219L2262.5 174H2195.6L2182.7 219H2128.7L2201.6 4.49999H2256.8L2329.7 219H2275.7ZM2229.5 53.4H2228.9C2228.9 53.4 2224.1 76.8 2220.2 90.3L2207.9 132H2250.2L2238.2 90.3C2234.3 76.8 2229.5 53.4 2229.5 53.4ZM2413.74 219V4.49999H2466.84L2526.24 104.7C2534.64 118.8 2544.24 141.3 2544.24 141.3H2544.84C2544.84 141.3 2542.44 118.2 2542.44 104.7V4.49999H2594.94V219H2542.14L2482.44 119.1C2474.04 105 2464.44 82.5 2464.44 82.5H2463.84C2463.84 82.5 2466.24 105.6 2466.24 119.1V219H2413.74ZM2746.57 219V49.5H2681.47V4.49999H2864.17V49.5H2799.07V219H2746.57Z" fill="white" fill-opacity="0.99"/>
</svg>
