<svg width="1000" height="1000" viewBox="0 0 1000 1000" fill="none" xmlns="http://www.w3.org/2000/svg">
<rect width="1000" height="1000" fill="#0100C8"/>
<path d="M138.328 476.543V492.715C140.008 487.559 142.723 483.398 146.473 480.234C150.223 477.031 154.578 475.43 159.539 475.43V502.793C157.039 502.715 154.793 502.793 152.801 503.027C150.848 503.262 148.934 503.77 147.059 504.551C145.184 505.293 143.621 506.328 142.371 507.656C141.16 508.984 140.184 510.762 139.441 512.988C138.699 515.176 138.328 517.773 138.328 520.781V540H112.898V476.543H138.328ZM233.543 504.258V512.754H193.699C194.207 514.121 194.91 515.312 195.809 516.328C196.707 517.305 197.645 518.066 198.621 518.613C199.598 519.16 200.77 519.59 202.137 519.902C203.504 520.176 204.715 520.352 205.77 520.43C206.863 520.508 208.133 520.547 209.578 520.547C215.086 520.547 220.203 519.746 224.93 518.145L230.555 537.363C223.641 540.566 215.164 542.168 205.125 542.168C192.664 542.168 183.055 539.258 176.297 533.438C169.578 527.617 166.219 519.453 166.219 508.945C166.219 498.32 169.48 489.902 176.004 483.691C182.566 477.48 191.062 474.375 201.492 474.375C211.219 474.375 218.992 477.012 224.812 482.285C230.633 487.52 233.543 494.844 233.543 504.258ZM200.906 492.832C198.953 492.832 197.273 493.594 195.867 495.117C194.5 496.641 193.582 498.809 193.113 501.621H208.23C207.879 498.691 207.059 496.504 205.77 495.059C204.52 493.574 202.898 492.832 200.906 492.832ZM268.523 524.531H290.613C294.402 524.531 297.664 525.039 300.398 526.055C303.172 527.07 305.301 528.438 306.785 530.156C308.27 531.875 309.344 533.711 310.008 535.664C310.672 537.578 311.004 539.629 311.004 541.816C311.004 544.004 310.691 546.055 310.066 547.969C309.441 549.922 308.191 551.914 306.316 553.945C304.441 556.016 302 557.773 298.992 559.219C296.023 560.703 291.98 561.914 286.863 562.852C281.746 563.789 275.828 564.258 269.109 564.258C262.547 564.258 256.863 563.848 252.059 563.027C247.293 562.207 243.445 560.84 240.516 558.926C237.586 557.051 236.121 554.668 236.121 551.777C236.121 550.215 236.512 548.848 237.293 547.676C238.113 546.543 239.246 545.625 240.691 544.922C242.137 544.258 243.582 543.75 245.027 543.398C246.473 543.047 248.133 542.754 250.008 542.52C242.352 540.449 238.523 536.484 238.523 530.625C238.523 527.188 239.656 524.316 241.922 522.012C244.188 519.707 247.527 517.422 251.941 515.156C243.934 511.25 239.93 505.059 239.93 496.582C239.93 489.629 242.84 484.141 248.66 480.117C254.52 476.055 262.332 474.023 272.098 474.023C279.754 474.023 286.395 475.215 292.02 477.598L302.566 467.168L315.809 480.234L303.914 487.91C305.281 490.566 305.965 493.457 305.965 496.582C305.965 503.809 302.898 509.395 296.766 513.34C290.672 517.285 282.527 519.258 272.332 519.258C268.66 519.258 265.262 518.965 262.137 518.379C261.199 519.043 260.73 519.961 260.73 521.133C260.73 522.344 261.316 523.223 262.488 523.77C263.66 524.277 265.672 524.531 268.523 524.531ZM277.957 490.898C276.746 489.492 275.105 488.789 273.035 488.789C270.965 488.789 269.266 489.492 267.938 490.898C266.648 492.305 266.004 494.199 266.004 496.582C266.004 499.082 266.648 501.074 267.938 502.559C269.266 504.004 270.965 504.727 273.035 504.727C275.105 504.727 276.746 504.004 277.957 502.559C279.168 501.074 279.773 499.082 279.773 496.582C279.773 494.199 279.168 492.305 277.957 490.898ZM272.566 552.363C276.746 552.363 279.93 551.953 282.117 551.133C284.305 550.312 285.398 549.16 285.398 547.676C285.398 545.02 283.172 543.691 278.719 543.691H260.73C259.988 544.746 259.617 545.723 259.617 546.621C259.617 548.301 260.613 549.668 262.605 550.723C264.637 551.816 267.957 552.363 272.566 552.363ZM381.082 504.258V512.754H341.238C341.746 514.121 342.449 515.312 343.348 516.328C344.246 517.305 345.184 518.066 346.16 518.613C347.137 519.16 348.309 519.59 349.676 519.902C351.043 520.176 352.254 520.352 353.309 520.43C354.402 520.508 355.672 520.547 357.117 520.547C362.625 520.547 367.742 519.746 372.469 518.145L378.094 537.363C371.18 540.566 362.703 542.168 352.664 542.168C340.203 542.168 330.594 539.258 323.836 533.438C317.117 527.617 313.758 519.453 313.758 508.945C313.758 498.32 317.02 489.902 323.543 483.691C330.105 477.48 338.602 474.375 349.031 474.375C358.758 474.375 366.531 477.012 372.352 482.285C378.172 487.52 381.082 494.844 381.082 504.258ZM348.445 492.832C346.492 492.832 344.812 493.594 343.406 495.117C342.039 496.641 341.121 498.809 340.652 501.621H355.77C355.418 498.691 354.598 496.504 353.309 495.059C352.059 493.574 350.438 492.832 348.445 492.832ZM438.387 474.375C451.473 474.375 458.016 482.012 458.016 497.285V540H432.586V506.133C432.586 502.695 432.078 500.176 431.062 498.574C430.047 496.973 428.25 496.172 425.672 496.172C423.992 496.172 422.352 496.738 420.75 497.871C419.188 498.965 417.82 500.449 416.648 502.324V540H391.219V476.543H416.648V486.738C421.102 478.496 428.348 474.375 438.387 474.375ZM518.133 519.727L518.484 540.352C517.117 540.703 514.5 541.094 510.633 541.523C506.766 541.953 503.27 542.168 500.145 542.168C496.941 542.168 494.09 541.953 491.59 541.523C489.129 541.094 487.039 540.547 485.32 539.883C483.602 539.18 482.117 538.242 480.867 537.07C479.656 535.859 478.699 534.629 477.996 533.379C477.293 532.129 476.746 530.586 476.355 528.75C475.965 526.914 475.711 525.176 475.594 523.535C475.477 521.895 475.418 519.902 475.418 517.559V496.055H466.57V476.543H475.418V463.301L500.848 459.023V476.543H516.258V496.055H500.848V513.105C500.848 515.879 501.355 517.793 502.371 518.848C503.426 519.902 505.32 520.43 508.055 520.43C512.039 520.43 515.398 520.195 518.133 519.727ZM574.148 486.211L574.617 477.715H597.996V559.805H572.449V532.324C567.918 538.652 561.531 541.816 553.289 541.816C549.227 541.816 545.477 541.094 542.039 539.648C538.641 538.203 535.652 536.094 533.074 533.32C530.535 530.547 528.543 526.992 527.098 522.656C525.652 518.32 524.93 513.418 524.93 507.949C524.93 502.52 525.652 497.637 527.098 493.301C528.582 488.926 530.613 485.352 533.191 482.578C535.77 479.805 538.758 477.695 542.156 476.25C545.594 474.766 549.305 474.023 553.289 474.023C562.859 474.023 569.812 478.086 574.148 486.211ZM554.812 517.031C556.531 519.219 558.973 520.312 562.137 520.312C565.301 520.312 567.82 519.18 569.695 516.914C571.609 514.648 572.566 511.66 572.566 507.949C572.566 504.473 571.609 501.523 569.695 499.102C567.781 496.68 565.262 495.469 562.137 495.469C559.012 495.469 556.59 496.602 554.871 498.867C553.152 501.094 552.293 504.121 552.293 507.949C552.293 511.816 553.133 514.844 554.812 517.031ZM655.887 540.762C652.098 541.699 647.664 542.168 642.586 542.168C637.508 542.168 633.074 541.699 629.285 540.762C625.535 539.863 622.215 538.379 619.324 536.309C616.434 534.199 614.246 531.328 612.762 527.695C611.277 524.062 610.535 519.688 610.535 514.57V476.543H635.965V514.805C635.965 516.875 636.473 518.555 637.488 519.844C638.543 521.133 640.242 521.777 642.586 521.777C644.93 521.777 646.648 521.133 647.742 519.844C648.875 518.516 649.441 516.836 649.441 514.805V476.543H674.871V514.57C674.871 519.688 674.109 524.062 672.586 527.695C671.102 531.328 668.895 534.199 665.965 536.309C663.035 538.379 659.676 539.863 655.887 540.762ZM748.523 540H723.562C722.664 537.773 722.117 535.449 721.922 533.027C719.812 535.801 717.039 538.027 713.602 539.707C710.203 541.348 706.648 542.168 702.938 542.168C696.883 542.168 692.02 540.508 688.348 537.188C684.715 533.828 682.898 529.16 682.898 523.184C682.898 515.723 685.926 510.273 691.98 506.836C698.035 503.398 707.977 501.621 721.805 501.504V500.508C721.805 498.203 720.965 496.582 719.285 495.645C717.645 494.668 715.203 494.18 711.961 494.18C705.672 494.18 699.988 495.566 694.91 498.34L686.766 482.52C693.719 477.09 703.914 474.375 717.352 474.375C720.633 474.375 723.602 474.59 726.258 475.02C728.953 475.41 731.648 476.191 734.344 477.363C737.039 478.496 739.285 480.02 741.082 481.934C742.918 483.848 744.402 486.406 745.535 489.609C746.668 492.812 747.234 496.562 747.234 500.859V531.504C747.234 535.293 747.664 538.125 748.523 540ZM715.184 524.18C717.449 524.18 719.656 523.223 721.805 521.309V511.934C717.43 512.168 714.363 512.891 712.605 514.102C710.887 515.312 710.027 517.031 710.027 519.258C710.027 520.742 710.496 521.934 711.434 522.832C712.371 523.73 713.621 524.18 715.184 524.18ZM808.23 474.375C821.316 474.375 827.859 482.012 827.859 497.285V540H802.43V506.133C802.43 502.695 801.922 500.176 800.906 498.574C799.891 496.973 798.094 496.172 795.516 496.172C793.836 496.172 792.195 496.738 790.594 497.871C789.031 498.965 787.664 500.449 786.492 502.324V540H761.062V476.543H786.492V486.738C790.945 478.496 798.191 474.375 808.23 474.375ZM887.977 519.727L888.328 540.352C886.961 540.703 884.344 541.094 880.477 541.523C876.609 541.953 873.113 542.168 869.988 542.168C866.785 542.168 863.934 541.953 861.434 541.523C858.973 541.094 856.883 540.547 855.164 539.883C853.445 539.18 851.961 538.242 850.711 537.07C849.5 535.859 848.543 534.629 847.84 533.379C847.137 532.129 846.59 530.586 846.199 528.75C845.809 526.914 845.555 525.176 845.438 523.535C845.32 521.895 845.262 519.902 845.262 517.559V496.055H836.414V476.543H845.262V463.301L870.691 459.023V476.543H886.102V496.055H870.691V513.105C870.691 515.879 871.199 517.793 872.215 518.848C873.27 519.902 875.164 520.43 877.898 520.43C881.883 520.43 885.242 520.195 887.977 519.727Z" fill="white"/>
</svg>
