<svg width="778" height="221" viewBox="0 0 778 221" fill="none" xmlns="http://www.w3.org/2000/svg">
<rect width="778" height="221" fill="white"/>
<path d="M335.093 81L336.863 59.55H342.563L345.683 68.61C346.163 69.99 346.763 72.15 346.763 72.15H346.823C346.823 72.15 347.423 69.99 347.903 68.61L351.023 59.55H356.723L358.463 81H353.213L352.553 71.34C352.433 69.72 352.553 67.74 352.553 67.74H352.493C352.493 67.74 351.773 69.99 351.293 71.34L349.043 77.55H344.543L342.293 71.34C341.813 69.99 341.093 67.74 341.093 67.74H341.033C341.033 67.74 341.153 69.72 341.033 71.34L340.373 81H335.093ZM362.313 63.6V59.55H367.383V63.6H362.313ZM362.253 81V65.55H367.443V81H362.253ZM370.076 79.08L372.296 75.6C372.296 75.6 374.006 77.16 376.226 77.16C377.006 77.16 377.756 76.95 377.756 76.44C377.756 75.09 370.526 74.94 370.526 69.9C370.526 66.99 373.316 65.19 376.886 65.19C380.486 65.19 382.316 66.96 382.316 66.96L380.546 70.65C380.546 70.65 379.046 69.39 376.886 69.39C376.106 69.39 375.356 69.6 375.356 70.14C375.356 71.31 382.586 71.49 382.586 76.47C382.586 79.11 380.246 81.36 376.256 81.36C372.386 81.36 370.076 79.08 370.076 79.08ZM384.198 79.08L386.418 75.6C386.418 75.6 388.128 77.16 390.348 77.16C391.128 77.16 391.878 76.95 391.878 76.44C391.878 75.09 384.648 74.94 384.648 69.9C384.648 66.99 387.438 65.19 391.008 65.19C394.608 65.19 396.438 66.96 396.438 66.96L394.668 70.65C394.668 70.65 393.168 69.39 391.008 69.39C390.228 69.39 389.478 69.6 389.478 70.14C389.478 71.31 396.708 71.49 396.708 76.47C396.708 79.11 394.368 81.36 390.378 81.36C386.508 81.36 384.198 79.08 384.198 79.08ZM399.579 63.6V59.55H404.649V63.6H399.579ZM399.519 81V65.55H404.709V81H399.519ZM407.402 73.32C407.402 68.46 411.302 65.19 416.132 65.19C421.022 65.19 424.922 68.46 424.922 73.32C424.922 78.15 421.022 81.36 416.162 81.36C411.302 81.36 407.402 78.15 407.402 73.32ZM412.652 73.32C412.652 75.63 414.272 77.04 416.162 77.04C418.052 77.04 419.672 75.63 419.672 73.32C419.672 70.98 418.052 69.51 416.162 69.51C414.272 69.51 412.652 70.98 412.652 73.32ZM427.614 81V65.55H432.594V66.9C432.594 67.41 432.534 67.86 432.534 67.86H432.594C433.314 66.66 434.784 65.19 437.514 65.19C440.634 65.19 443.064 66.63 443.064 70.98V81H437.874V71.94C437.874 70.5 437.304 69.9 436.164 69.9C434.544 69.9 433.554 70.8 433.104 72.12C432.894 72.72 432.804 73.41 432.804 74.16V81H427.614Z" fill="#2D5CF6"/>
<path d="M64.0177 138L62.5977 133.94H57.2777L55.8777 138H53.8377L58.9177 123.88H60.9977L66.0777 138H64.0177ZM59.9777 125.82H59.9377C59.9377 125.82 59.6177 127.1 59.3777 127.82L57.7977 132.3H62.0777L60.5177 127.82C60.2777 127.1 59.9777 125.82 59.9777 125.82ZM67.0363 132.94C67.0363 129.94 69.2763 127.64 72.4563 127.64C74.9963 127.64 76.2563 129.12 76.2563 129.12L75.3363 130.48C75.3363 130.48 74.2563 129.32 72.5363 129.32C70.4963 129.32 69.0163 130.84 69.0163 132.92C69.0163 134.98 70.4963 136.56 72.5963 136.56C74.4763 136.56 75.7163 135.2 75.7163 135.2L76.4963 136.62C76.4963 136.62 75.0963 138.24 72.4563 138.24C69.2763 138.24 67.0363 135.98 67.0363 132.94ZM77.9738 132.94C77.9738 129.94 80.2138 127.64 83.3938 127.64C85.9338 127.64 87.1938 129.12 87.1938 129.12L86.2738 130.48C86.2738 130.48 85.1938 129.32 83.4738 129.32C81.4338 129.32 79.9538 130.84 79.9538 132.92C79.9538 134.98 81.4338 136.56 83.5338 136.56C85.4138 136.56 86.6538 135.2 86.6538 135.2L87.4338 136.62C87.4338 136.62 86.0338 138.24 83.3938 138.24C80.2138 138.24 77.9738 135.98 77.9738 132.94ZM88.9313 132.94C88.9313 129.72 91.1113 127.64 93.9913 127.64C96.8513 127.64 98.3713 129.76 98.3713 132.38C98.3713 132.64 98.3113 133.22 98.3113 133.22H90.9313C91.0313 135.44 92.6113 136.56 94.4113 136.56C96.1513 136.56 97.4113 135.38 97.4113 135.38L98.2113 136.8C98.2113 136.8 96.7113 138.24 94.2913 138.24C91.1113 138.24 88.9313 135.94 88.9313 132.94ZM90.9913 131.76H96.3913C96.3313 130.02 95.2513 129.18 93.9513 129.18C92.4713 129.18 91.2713 130.1 90.9913 131.76ZM100.605 135.24V123.88H102.545V134.9C102.545 136.12 103.025 136.34 103.625 136.34C103.805 136.34 103.965 136.32 103.965 136.32V138.04C103.965 138.04 103.665 138.08 103.325 138.08C102.225 138.08 100.605 137.78 100.605 135.24ZM105.318 132.94C105.318 129.72 107.498 127.64 110.378 127.64C113.238 127.64 114.758 129.76 114.758 132.38C114.758 132.64 114.698 133.22 114.698 133.22H107.318C107.418 135.44 108.998 136.56 110.798 136.56C112.538 136.56 113.798 135.38 113.798 135.38L114.598 136.8C114.598 136.8 113.098 138.24 110.678 138.24C107.498 138.24 105.318 135.94 105.318 132.94ZM107.378 131.76H112.778C112.718 130.02 111.638 129.18 110.338 129.18C108.858 129.18 107.658 130.1 107.378 131.76ZM117.112 138V127.88H118.992V129.64C118.992 130.06 118.952 130.4 118.952 130.4H118.992C119.452 128.92 120.632 127.76 122.192 127.76C122.452 127.76 122.692 127.8 122.692 127.8V129.72C122.692 129.72 122.432 129.66 122.132 129.66C120.892 129.66 119.752 130.54 119.292 132.04C119.112 132.62 119.052 133.24 119.052 133.86V138H117.112ZM123.792 135.16C123.792 131.82 128.192 131.68 129.892 131.68H130.332V131.5C130.332 129.84 129.392 129.28 128.112 129.28C126.552 129.28 125.292 130.26 125.292 130.26L124.492 128.84C124.492 128.84 125.952 127.64 128.272 127.64C130.832 127.64 132.272 129.04 132.272 131.6V138H130.472V137.04C130.472 136.58 130.512 136.24 130.512 136.24H130.472C130.472 136.24 129.652 138.24 127.232 138.24C125.492 138.24 123.792 137.18 123.792 135.16ZM125.752 135.06C125.752 135.88 126.392 136.68 127.652 136.68C129.292 136.68 130.352 134.96 130.352 133.46V133.14H129.852C128.392 133.14 125.752 133.24 125.752 135.06ZM135.54 134.3V129.58H134.22V128.02H135.6V125.1H137.48V128.02H139.92V129.58H137.48V134.08C137.48 136.1 138.9 136.36 139.64 136.36C139.92 136.36 140.1 136.32 140.1 136.32V138.04C140.1 138.04 139.82 138.08 139.42 138.08C138.12 138.08 135.54 137.68 135.54 134.3ZM141.588 132.94C141.588 129.72 143.768 127.64 146.648 127.64C149.508 127.64 151.028 129.76 151.028 132.38C151.028 132.64 150.968 133.22 150.968 133.22H143.588C143.688 135.44 145.268 136.56 147.068 136.56C148.808 136.56 150.068 135.38 150.068 135.38L150.868 136.8C150.868 136.8 149.368 138.24 146.948 138.24C143.768 138.24 141.588 135.94 141.588 132.94ZM143.648 131.76H149.048C148.988 130.02 147.908 129.18 146.608 129.18C145.128 129.18 143.928 130.1 143.648 131.76ZM158.918 138V123.88H167.118V125.6H160.898V130.02H165.958V131.74H160.898V136.28H167.458V138H158.918ZM169.263 132.94C169.263 129.94 171.503 127.64 174.683 127.64C177.223 127.64 178.483 129.12 178.483 129.12L177.563 130.48C177.563 130.48 176.483 129.32 174.763 129.32C172.723 129.32 171.243 130.84 171.243 132.92C171.243 134.98 172.723 136.56 174.823 136.56C176.703 136.56 177.943 135.2 177.943 135.2L178.723 136.62C178.723 136.62 177.323 138.24 174.683 138.24C171.503 138.24 169.263 135.98 169.263 132.94ZM180.18 132.92C180.18 129.86 182.62 127.64 185.64 127.64C188.66 127.64 191.1 129.86 191.1 132.92C191.1 136 188.66 138.24 185.64 138.24C182.62 138.24 180.18 136 180.18 132.92ZM182.16 132.92C182.16 135.04 183.74 136.56 185.64 136.56C187.56 136.56 189.12 135.04 189.12 132.92C189.12 130.82 187.56 129.32 185.64 129.32C183.74 129.32 182.16 130.82 182.16 132.92ZM193.401 138V127.88H195.281V129.22C195.281 129.62 195.241 129.96 195.241 129.96H195.281C195.681 129.08 196.881 127.64 199.081 127.64C201.461 127.64 202.561 128.94 202.561 131.52V138H200.621V131.96C200.621 130.54 200.321 129.42 198.701 129.42C197.161 129.42 195.921 130.44 195.501 131.9C195.381 132.3 195.341 132.76 195.341 133.26V138H193.401ZM204.712 132.92C204.712 129.86 207.152 127.64 210.172 127.64C213.192 127.64 215.632 129.86 215.632 132.92C215.632 136 213.192 138.24 210.172 138.24C207.152 138.24 204.712 136 204.712 132.92ZM206.692 132.92C206.692 135.04 208.272 136.56 210.172 136.56C212.092 136.56 213.652 135.04 213.652 132.92C213.652 130.82 212.092 129.32 210.172 129.32C208.272 129.32 206.692 130.82 206.692 132.92ZM217.932 138V127.88H219.812V129.22C219.812 129.62 219.772 129.96 219.772 129.96H219.812C220.292 128.78 221.712 127.64 223.292 127.64C224.992 127.64 225.992 128.42 226.332 129.94H226.372C226.932 128.72 228.332 127.64 229.972 127.64C232.252 127.64 233.312 128.94 233.312 131.52V138H231.372V131.94C231.372 130.52 231.092 129.4 229.572 129.4C228.152 129.4 227.092 130.6 226.732 131.98C226.632 132.4 226.592 132.86 226.592 133.38V138H224.652V131.94C224.652 130.62 224.452 129.4 222.892 129.4C221.412 129.4 220.372 130.62 219.992 132.06C219.892 132.46 219.872 132.92 219.872 133.38V138H217.932ZM236.193 125.86V123.88H238.153V125.86H236.193ZM236.213 138V127.88H238.153V138H236.213ZM240.474 132.94C240.474 129.94 242.714 127.64 245.894 127.64C248.434 127.64 249.694 129.12 249.694 129.12L248.774 130.48C248.774 130.48 247.694 129.32 245.974 129.32C243.934 129.32 242.454 130.84 242.454 132.92C242.454 134.98 243.934 136.56 246.034 136.56C247.914 136.56 249.154 135.2 249.154 135.2L249.934 136.62C249.934 136.62 248.534 138.24 245.894 138.24C242.714 138.24 240.474 135.98 240.474 132.94ZM256.728 130.92C256.728 126.84 259.808 123.64 263.928 123.64C267.308 123.64 269.068 125.34 269.068 125.34L268.068 126.82C268.068 126.82 266.488 125.44 264.088 125.44C260.768 125.44 258.768 127.86 258.768 130.88C258.768 134.16 261.008 136.42 263.968 136.42C266.408 136.42 267.968 134.66 267.968 134.66V132.62H265.668V130.9H269.768V138H268.028V137.12C268.028 136.82 268.048 136.52 268.048 136.52H268.008C268.008 136.52 266.468 138.24 263.668 138.24C259.868 138.24 256.728 135.24 256.728 130.92ZM272.463 138V127.88H274.343V129.64C274.343 130.06 274.303 130.4 274.303 130.4H274.343C274.803 128.92 275.983 127.76 277.543 127.76C277.803 127.76 278.043 127.8 278.043 127.8V129.72C278.043 129.72 277.783 129.66 277.483 129.66C276.243 129.66 275.103 130.54 274.643 132.04C274.463 132.62 274.403 133.24 274.403 133.86V138H272.463ZM279.165 132.92C279.165 129.86 281.605 127.64 284.625 127.64C287.645 127.64 290.085 129.86 290.085 132.92C290.085 136 287.645 138.24 284.625 138.24C281.605 138.24 279.165 136 279.165 132.92ZM281.145 132.92C281.145 135.04 282.725 136.56 284.625 136.56C286.545 136.56 288.105 135.04 288.105 132.92C288.105 130.82 286.545 129.32 284.625 129.32C282.725 129.32 281.145 130.82 281.145 132.92ZM294.465 138L291.205 127.88H293.265L295.365 134.98C295.525 135.5 295.605 136.06 295.625 136.06H295.665C295.665 136.06 295.765 135.5 295.925 134.98L298.125 127.9H299.905L302.085 134.98C302.245 135.5 302.365 136.06 302.365 136.06H302.405C302.405 136.06 302.485 135.5 302.645 134.98L304.765 127.88H306.805L303.545 138H301.405L299.305 131.5C299.145 130.98 299.025 130.4 299.025 130.4H298.985C298.985 130.4 298.865 130.98 298.705 131.5L296.625 138H294.465ZM309.094 134.3V129.58H307.774V128.02H309.154V125.1H311.034V128.02H313.474V129.58H311.034V134.08C311.034 136.1 312.454 136.36 313.194 136.36C313.474 136.36 313.654 136.32 313.654 136.32V138.04C313.654 138.04 313.374 138.08 312.974 138.08C311.674 138.08 309.094 137.68 309.094 134.3ZM315.842 138V123.88H317.782V129.06C317.782 129.54 317.742 129.9 317.742 129.9H317.782C318.222 128.92 319.502 127.64 321.522 127.64C323.902 127.64 325.002 128.94 325.002 131.52V138H323.062V131.96C323.062 130.54 322.762 129.42 321.142 129.42C319.622 129.42 318.362 130.46 317.942 131.92C317.822 132.32 317.782 132.78 317.782 133.26V138H315.842ZM332.21 135.16C332.21 131.82 336.61 131.68 338.31 131.68H338.75V131.5C338.75 129.84 337.81 129.28 336.53 129.28C334.97 129.28 333.71 130.26 333.71 130.26L332.91 128.84C332.91 128.84 334.37 127.64 336.69 127.64C339.25 127.64 340.69 129.04 340.69 131.6V138H338.89V137.04C338.89 136.58 338.93 136.24 338.93 136.24H338.89C338.89 136.24 338.07 138.24 335.65 138.24C333.91 138.24 332.21 137.18 332.21 135.16ZM334.17 135.06C334.17 135.88 334.81 136.68 336.07 136.68C337.71 136.68 338.77 134.96 338.77 133.46V133.14H338.27C336.81 133.14 334.17 133.24 334.17 135.06ZM343.596 138V127.88H345.476V129.22C345.476 129.62 345.436 129.96 345.436 129.96H345.476C345.876 129.08 347.076 127.64 349.276 127.64C351.656 127.64 352.756 128.94 352.756 131.52V138H350.816V131.96C350.816 130.54 350.516 129.42 348.896 129.42C347.356 129.42 346.116 130.44 345.696 131.9C345.576 132.3 345.536 132.76 345.536 133.26V138H343.596ZM354.987 132.94C354.987 129.72 356.887 127.64 359.567 127.64C361.907 127.64 362.687 129.24 362.687 129.24H362.727C362.727 129.24 362.687 128.94 362.687 128.56V123.88H364.627V138H362.787V137.04C362.787 136.64 362.807 136.36 362.807 136.36H362.767C362.767 136.36 361.947 138.24 359.447 138.24C356.707 138.24 354.987 136.08 354.987 132.94ZM356.967 132.94C356.967 135.14 358.147 136.56 359.827 136.56C361.327 136.56 362.747 135.5 362.747 132.92C362.747 131.12 361.807 129.32 359.887 129.32C358.287 129.32 356.967 130.64 356.967 132.94ZM381.615 138L380.195 133.94H374.875L373.475 138H371.435L376.515 123.88H378.595L383.675 138H381.615ZM377.575 125.82H377.535C377.535 125.82 377.215 127.1 376.975 127.82L375.395 132.3H379.675L378.115 127.82C377.875 127.1 377.575 125.82 377.575 125.82ZM384.694 132.94C384.694 129.72 386.594 127.64 389.274 127.64C391.614 127.64 392.394 129.24 392.394 129.24H392.434C392.434 129.24 392.394 128.94 392.394 128.56V123.88H394.334V138H392.494V137.04C392.494 136.64 392.514 136.36 392.514 136.36H392.474C392.474 136.36 391.654 138.24 389.154 138.24C386.414 138.24 384.694 136.08 384.694 132.94ZM386.674 132.94C386.674 135.14 387.854 136.56 389.534 136.56C391.034 136.56 392.454 135.5 392.454 132.92C392.454 131.12 391.514 129.32 389.594 129.32C387.994 129.32 386.674 130.64 386.674 132.94ZM396.706 132.94C396.706 129.72 398.606 127.64 401.286 127.64C403.626 127.64 404.406 129.24 404.406 129.24H404.446C404.446 129.24 404.406 128.94 404.406 128.56V123.88H406.346V138H404.506V137.04C404.506 136.64 404.526 136.36 404.526 136.36H404.486C404.486 136.36 403.666 138.24 401.166 138.24C398.426 138.24 396.706 136.08 396.706 132.94ZM398.686 132.94C398.686 135.14 399.866 136.56 401.546 136.56C403.046 136.56 404.466 135.5 404.466 132.92C404.466 131.12 403.526 129.32 401.606 129.32C400.006 129.32 398.686 130.64 398.686 132.94ZM409.377 138V127.88H411.257V129.64C411.257 130.06 411.217 130.4 411.217 130.4H411.257C411.717 128.92 412.897 127.76 414.457 127.76C414.717 127.76 414.957 127.8 414.957 127.8V129.72C414.957 129.72 414.697 129.66 414.397 129.66C413.157 129.66 412.017 130.54 411.557 132.04C411.377 132.62 411.317 133.24 411.317 133.86V138H409.377ZM416.119 132.94C416.119 129.72 418.299 127.64 421.179 127.64C424.039 127.64 425.559 129.76 425.559 132.38C425.559 132.64 425.499 133.22 425.499 133.22H418.119C418.219 135.44 419.799 136.56 421.599 136.56C423.339 136.56 424.599 135.38 424.599 135.38L425.399 136.8C425.399 136.8 423.899 138.24 421.479 138.24C418.299 138.24 416.119 135.94 416.119 132.94ZM418.179 131.76H423.579C423.519 130.02 422.439 129.18 421.139 129.18C419.659 129.18 418.459 130.1 418.179 131.76ZM427.093 136.76L428.033 135.38C428.033 135.38 429.173 136.56 430.933 136.56C431.773 136.56 432.613 136.12 432.613 135.3C432.613 133.44 427.413 133.82 427.413 130.52C427.413 128.68 429.053 127.64 431.073 127.64C433.293 127.64 434.333 128.76 434.333 128.76L433.553 130.22C433.553 130.22 432.653 129.32 431.053 129.32C430.213 129.32 429.393 129.68 429.393 130.56C429.393 132.38 434.593 131.98 434.593 135.3C434.593 136.98 433.153 138.24 430.933 138.24C428.453 138.24 427.093 136.76 427.093 136.76ZM436.057 136.76L436.997 135.38C436.997 135.38 438.137 136.56 439.897 136.56C440.737 136.56 441.577 136.12 441.577 135.3C441.577 133.44 436.377 133.82 436.377 130.52C436.377 128.68 438.017 127.64 440.037 127.64C442.257 127.64 443.297 128.76 443.297 128.76L442.517 130.22C442.517 130.22 441.617 129.32 440.017 129.32C439.177 129.32 438.357 129.68 438.357 130.56C438.357 132.38 443.557 131.98 443.557 135.3C443.557 136.98 442.117 138.24 439.897 138.24C437.417 138.24 436.057 136.76 436.057 136.76ZM450.299 136.38L451.419 134.88C451.419 134.88 452.919 136.4 455.019 136.4C456.339 136.4 457.459 135.66 457.459 134.32C457.459 131.26 450.619 131.92 450.619 127.58C450.619 125.38 452.519 123.64 455.179 123.64C457.799 123.64 459.179 125.06 459.179 125.06L458.279 126.7C458.279 126.7 456.979 125.48 455.179 125.48C453.679 125.48 452.619 126.42 452.619 127.54C452.619 130.46 459.459 129.68 459.459 134.26C459.459 136.44 457.779 138.24 454.979 138.24C451.979 138.24 450.299 136.38 450.299 136.38ZM461.157 132.92C461.157 129.86 463.597 127.64 466.617 127.64C469.637 127.64 472.077 129.86 472.077 132.92C472.077 136 469.637 138.24 466.617 138.24C463.597 138.24 461.157 136 461.157 132.92ZM463.137 132.92C463.137 135.04 464.717 136.56 466.617 136.56C468.537 136.56 470.097 135.04 470.097 132.92C470.097 130.82 468.537 129.32 466.617 129.32C464.717 129.32 463.137 130.82 463.137 132.92ZM473.657 132.94C473.657 129.94 475.897 127.64 479.077 127.64C481.617 127.64 482.877 129.12 482.877 129.12L481.957 130.48C481.957 130.48 480.877 129.32 479.157 129.32C477.117 129.32 475.637 130.84 475.637 132.92C475.637 134.98 477.117 136.56 479.217 136.56C481.097 136.56 482.337 135.2 482.337 135.2L483.117 136.62C483.117 136.62 481.717 138.24 479.077 138.24C475.897 138.24 473.657 135.98 473.657 132.94ZM485.295 125.86V123.88H487.255V125.86H485.295ZM485.315 138V127.88H487.255V138H485.315ZM489.475 135.16C489.475 131.82 493.875 131.68 495.575 131.68H496.015V131.5C496.015 129.84 495.075 129.28 493.795 129.28C492.235 129.28 490.975 130.26 490.975 130.26L490.175 128.84C490.175 128.84 491.635 127.64 493.955 127.64C496.515 127.64 497.955 129.04 497.955 131.6V138H496.155V137.04C496.155 136.58 496.195 136.24 496.195 136.24H496.155C496.155 136.24 495.335 138.24 492.915 138.24C491.175 138.24 489.475 137.18 489.475 135.16ZM491.435 135.06C491.435 135.88 492.075 136.68 493.335 136.68C494.975 136.68 496.035 134.96 496.035 133.46V133.14H495.535C494.075 133.14 491.435 133.24 491.435 135.06ZM500.742 135.24V123.88H502.682V134.9C502.682 136.12 503.162 136.34 503.762 136.34C503.942 136.34 504.102 136.32 504.102 136.32V138.04C504.102 138.04 503.802 138.08 503.462 138.08C502.362 138.08 500.742 137.78 500.742 135.24ZM511.691 138V123.88H516.851C519.431 123.88 521.291 125.62 521.291 128.3C521.291 130.98 519.431 132.78 516.851 132.78H513.671V138H511.691ZM513.671 131.06H516.531C518.231 131.06 519.271 130 519.271 128.3C519.271 126.6 518.231 125.6 516.551 125.6H513.671V131.06ZM523.44 138V127.88H525.32V129.64C525.32 130.06 525.28 130.4 525.28 130.4H525.32C525.78 128.92 526.96 127.76 528.52 127.76C528.78 127.76 529.02 127.8 529.02 127.8V129.72C529.02 129.72 528.76 129.66 528.46 129.66C527.22 129.66 526.08 130.54 525.62 132.04C525.44 132.62 525.38 133.24 525.38 133.86V138H523.44ZM530.141 132.92C530.141 129.86 532.581 127.64 535.601 127.64C538.621 127.64 541.061 129.86 541.061 132.92C541.061 136 538.621 138.24 535.601 138.24C532.581 138.24 530.141 136 530.141 132.92ZM532.121 132.92C532.121 135.04 533.701 136.56 535.601 136.56C537.521 136.56 539.081 135.04 539.081 132.92C539.081 130.82 537.521 129.32 535.601 129.32C533.701 129.32 532.121 130.82 532.121 132.92ZM543.362 138V123.88H545.302V128.5C545.302 129 545.262 129.36 545.262 129.36H545.302C545.302 129.36 546.162 127.64 548.542 127.64C551.262 127.64 552.982 129.8 552.982 132.94C552.982 136.16 551.042 138.24 548.382 138.24C546.122 138.24 545.202 136.5 545.202 136.5H545.162C545.162 136.5 545.202 136.82 545.202 137.26V138H543.362ZM545.242 132.98C545.242 134.78 546.182 136.58 548.102 136.58C549.702 136.58 551.022 135.26 551.022 132.96C551.022 130.76 549.842 129.34 548.162 129.34C546.642 129.34 545.242 130.4 545.242 132.98ZM555.234 135.24V123.88H557.174V134.9C557.174 136.12 557.654 136.34 558.254 136.34C558.434 136.34 558.594 136.32 558.594 136.32V138.04C558.594 138.04 558.294 138.08 557.954 138.08C556.854 138.08 555.234 137.78 555.234 135.24ZM559.947 132.94C559.947 129.72 562.127 127.64 565.007 127.64C567.867 127.64 569.387 129.76 569.387 132.38C569.387 132.64 569.327 133.22 569.327 133.22H561.947C562.047 135.44 563.627 136.56 565.427 136.56C567.167 136.56 568.427 135.38 568.427 135.38L569.227 136.8C569.227 136.8 567.727 138.24 565.307 138.24C562.127 138.24 559.947 135.94 559.947 132.94ZM562.007 131.76H567.407C567.347 130.02 566.267 129.18 564.967 129.18C563.487 129.18 562.287 130.1 562.007 131.76ZM571.741 138V127.88H573.621V129.22C573.621 129.62 573.581 129.96 573.581 129.96H573.621C574.101 128.78 575.521 127.64 577.101 127.64C578.801 127.64 579.801 128.42 580.141 129.94H580.181C580.741 128.72 582.141 127.64 583.781 127.64C586.061 127.64 587.121 128.94 587.121 131.52V138H585.181V131.94C585.181 130.52 584.901 129.4 583.381 129.4C581.961 129.4 580.901 130.6 580.541 131.98C580.441 132.4 580.401 132.86 580.401 133.38V138H578.461V131.94C578.461 130.62 578.261 129.4 576.701 129.4C575.221 129.4 574.181 130.62 573.801 132.06C573.701 132.46 573.681 132.92 573.681 133.38V138H571.741ZM589.202 136.76L590.142 135.38C590.142 135.38 591.282 136.56 593.042 136.56C593.882 136.56 594.722 136.12 594.722 135.3C594.722 133.44 589.522 133.82 589.522 130.52C589.522 128.68 591.162 127.64 593.182 127.64C595.402 127.64 596.442 128.76 596.442 128.76L595.662 130.22C595.662 130.22 594.762 129.32 593.162 129.32C592.322 129.32 591.502 129.68 591.502 130.56C591.502 132.38 596.702 131.98 596.702 135.3C596.702 136.98 595.262 138.24 593.042 138.24C590.562 138.24 589.202 136.76 589.202 136.76ZM603.564 130.84C603.564 126.78 606.744 123.64 610.824 123.64C614.904 123.64 618.064 126.78 618.064 130.84C618.064 135 614.904 138.24 610.824 138.24C606.744 138.24 603.564 135 603.564 130.84ZM605.604 130.84C605.604 134.02 607.944 136.42 610.824 136.42C613.704 136.42 616.024 134.02 616.024 130.84C616.024 127.76 613.704 125.44 610.824 125.44C607.944 125.44 605.604 127.76 605.604 130.84ZM620.549 138V127.88H622.429V129.22C622.429 129.62 622.389 129.96 622.389 129.96H622.429C622.829 129.08 624.029 127.64 626.229 127.64C628.609 127.64 629.709 128.94 629.709 131.52V138H627.769V131.96C627.769 130.54 627.469 129.42 625.849 129.42C624.309 129.42 623.069 130.44 622.649 131.9C622.529 132.3 622.489 132.76 622.489 133.26V138H620.549ZM631.88 132.94C631.88 129.94 634.12 127.64 637.3 127.64C639.84 127.64 641.1 129.12 641.1 129.12L640.18 130.48C640.18 130.48 639.1 129.32 637.38 129.32C635.34 129.32 633.86 130.84 633.86 132.92C633.86 134.98 635.34 136.56 637.44 136.56C639.32 136.56 640.56 135.2 640.56 135.2L641.34 136.62C641.34 136.62 639.94 138.24 637.3 138.24C634.12 138.24 631.88 135.98 631.88 132.94ZM642.838 132.94C642.838 129.72 645.018 127.64 647.898 127.64C650.758 127.64 652.278 129.76 652.278 132.38C652.278 132.64 652.218 133.22 652.218 133.22H644.838C644.938 135.44 646.518 136.56 648.318 136.56C650.058 136.56 651.318 135.38 651.318 135.38L652.118 136.8C652.118 136.8 650.618 138.24 648.198 138.24C645.018 138.24 642.838 135.94 642.838 132.94ZM644.898 131.76H650.298C650.238 130.02 649.158 129.18 647.858 129.18C646.378 129.18 645.178 130.1 644.898 131.76ZM660.168 138V123.88H664.488C665.968 123.88 666.588 124 667.128 124.2C668.568 124.74 669.508 126.16 669.508 128.02C669.508 129.82 668.508 131.34 666.968 131.84V131.88C666.968 131.88 667.128 132.06 667.388 132.52L670.388 138H668.148L665.168 132.38H662.148V138H660.168ZM662.148 130.66H664.988C666.528 130.66 667.488 129.68 667.488 128.1C667.488 127.06 667.088 126.32 666.368 125.92C665.988 125.72 665.528 125.6 664.428 125.6H662.148V130.66ZM671.881 132.94C671.881 129.72 674.061 127.64 676.941 127.64C679.801 127.64 681.321 129.76 681.321 132.38C681.321 132.64 681.261 133.22 681.261 133.22H673.881C673.981 135.44 675.561 136.56 677.361 136.56C679.101 136.56 680.361 135.38 680.361 135.38L681.161 136.8C681.161 136.8 679.661 138.24 677.241 138.24C674.061 138.24 671.881 135.94 671.881 132.94ZM673.941 131.76H679.341C679.281 130.02 678.201 129.18 676.901 129.18C675.421 129.18 674.221 130.1 673.941 131.76ZM684.574 139.84C684.574 139.84 685.834 140.52 687.354 140.52C689.114 140.52 690.554 139.74 690.554 137.68V136.94C690.554 136.62 690.574 136.3 690.574 136.3H690.534C689.934 137.3 688.994 137.88 687.534 137.88C684.714 137.88 683.014 135.62 683.014 132.7C683.014 129.8 684.634 127.64 687.434 127.64C689.874 127.64 690.614 129.14 690.614 129.14H690.654C690.654 129.14 690.634 129 690.634 128.82V127.88H692.494V137.58C692.494 140.92 689.954 142.2 687.394 142.2C686.174 142.2 684.914 141.86 683.934 141.36L684.574 139.84ZM687.914 136.2C689.314 136.2 690.594 135.36 690.594 132.72C690.594 130.08 689.314 129.32 687.734 129.32C685.974 129.32 684.974 130.6 684.974 132.66C684.974 134.76 686.094 136.2 687.914 136.2ZM694.83 132.94C694.83 129.72 697.01 127.64 699.89 127.64C702.75 127.64 704.27 129.76 704.27 132.38C704.27 132.64 704.21 133.22 704.21 133.22H696.83C696.93 135.44 698.51 136.56 700.31 136.56C702.05 136.56 703.31 135.38 703.31 135.38L704.11 136.8C704.11 136.8 702.61 138.24 700.19 138.24C697.01 138.24 694.83 135.94 694.83 132.94ZM696.89 131.76H702.29C702.23 130.02 701.15 129.18 699.85 129.18C698.37 129.18 697.17 130.1 696.89 131.76ZM706.624 138V127.88H708.504V129.22C708.504 129.62 708.464 129.96 708.464 129.96H708.504C708.904 129.08 710.104 127.64 712.304 127.64C714.684 127.64 715.784 128.94 715.784 131.52V138H713.844V131.96C713.844 130.54 713.544 129.42 711.924 129.42C710.384 129.42 709.144 130.44 708.724 131.9C708.604 132.3 708.564 132.76 708.564 133.26V138H706.624ZM719.094 134.3V129.58H717.774V128.02H719.154V125.1H721.034V128.02H723.474V129.58H721.034V134.08C721.034 136.1 722.454 136.36 723.194 136.36C723.474 136.36 723.654 136.32 723.654 136.32V138.04C723.654 138.04 723.374 138.08 722.974 138.08C721.674 138.08 719.094 137.68 719.094 134.3ZM103.75 170.86C103.75 166.78 106.91 163.64 110.99 163.64C115.09 163.64 118.25 166.78 118.25 170.86C118.25 172.64 117.61 174.28 116.59 175.52L118.27 177.12L117.11 178.36L115.47 176.72C114.25 177.7 112.71 178.24 110.99 178.24C106.91 178.24 103.75 174.98 103.75 170.86ZM105.79 170.86C105.79 174.02 108.07 176.42 110.99 176.42C112.05 176.42 113.23 176.04 114.05 175.38L112.39 173.76L113.55 172.52L115.17 174.16C115.81 173.28 116.21 172.1 116.21 170.86C116.21 167.74 113.93 165.44 110.99 165.44C108.07 165.44 105.79 167.74 105.79 170.86ZM120.81 174.36V167.88H122.75V173.92C122.75 175.32 123.03 176.44 124.65 176.44C126.71 176.44 127.93 174.62 127.93 172.62V167.88H129.87V178H127.99V176.66C127.99 176.24 128.03 175.92 128.03 175.92H127.99C127.57 176.92 126.25 178.24 124.27 178.24C121.99 178.24 120.81 177.04 120.81 174.36ZM132.083 175.16C132.083 171.82 136.483 171.68 138.183 171.68H138.623V171.5C138.623 169.84 137.683 169.28 136.403 169.28C134.843 169.28 133.583 170.26 133.583 170.26L132.783 168.84C132.783 168.84 134.243 167.64 136.563 167.64C139.123 167.64 140.563 169.04 140.563 171.6V178H138.763V177.04C138.763 176.58 138.803 176.24 138.803 176.24H138.763C138.763 176.24 137.943 178.24 135.523 178.24C133.783 178.24 132.083 177.18 132.083 175.16ZM134.043 175.06C134.043 175.88 134.683 176.68 135.943 176.68C137.583 176.68 138.643 174.96 138.643 173.46V173.14H138.143C136.683 173.14 134.043 173.24 134.043 175.06ZM143.469 178V167.88H145.349V169.22C145.349 169.62 145.309 169.96 145.309 169.96H145.349C145.749 169.08 146.949 167.64 149.149 167.64C151.529 167.64 152.629 168.94 152.629 171.52V178H150.689V171.96C150.689 170.54 150.389 169.42 148.769 169.42C147.229 169.42 145.989 170.44 145.569 171.9C145.449 172.3 145.409 172.76 145.409 173.26V178H143.469ZM155.94 174.3V169.58H154.62V168.02H156V165.1H157.88V168.02H160.32V169.58H157.88V174.08C157.88 176.1 159.3 176.36 160.04 176.36C160.32 176.36 160.5 176.32 160.5 176.32V178.04C160.5 178.04 160.22 178.08 159.82 178.08C158.52 178.08 155.94 177.68 155.94 174.3ZM168.225 178V163.88H173.165C175.545 163.88 177.265 165.2 177.265 167.48C177.265 168.86 176.585 169.96 175.505 170.52V170.56C176.985 171 177.825 172.4 177.825 173.98C177.825 176.64 175.765 178 173.285 178H168.225ZM170.205 169.82H173.165C174.445 169.82 175.245 168.92 175.245 167.68C175.245 166.44 174.485 165.6 173.125 165.6H170.205V169.82ZM170.205 176.28H173.385C174.905 176.28 175.805 175.32 175.805 173.88C175.805 172.44 174.845 171.46 173.365 171.46H170.205V176.28ZM179.8 172.94C179.8 169.72 181.98 167.64 184.86 167.64C187.72 167.64 189.24 169.76 189.24 172.38C189.24 172.64 189.18 173.22 189.18 173.22H181.8C181.9 175.44 183.48 176.56 185.28 176.56C187.02 176.56 188.28 175.38 188.28 175.38L189.08 176.8C189.08 176.8 187.58 178.24 185.16 178.24C181.98 178.24 179.8 175.94 179.8 172.94ZM181.86 171.76H187.26C187.2 170.02 186.12 169.18 184.82 169.18C183.34 169.18 182.14 170.1 181.86 171.76ZM190.874 172.94C190.874 169.94 193.114 167.64 196.294 167.64C198.834 167.64 200.094 169.12 200.094 169.12L199.174 170.48C199.174 170.48 198.094 169.32 196.374 169.32C194.334 169.32 192.854 170.84 192.854 172.92C192.854 174.98 194.334 176.56 196.434 176.56C198.314 176.56 199.554 175.2 199.554 175.2L200.334 176.62C200.334 176.62 198.934 178.24 196.294 178.24C193.114 178.24 190.874 175.98 190.874 172.94ZM201.792 172.92C201.792 169.86 204.232 167.64 207.252 167.64C210.272 167.64 212.712 169.86 212.712 172.92C212.712 176 210.272 178.24 207.252 178.24C204.232 178.24 201.792 176 201.792 172.92ZM203.772 172.92C203.772 175.04 205.352 176.56 207.252 176.56C209.172 176.56 210.732 175.04 210.732 172.92C210.732 170.82 209.172 169.32 207.252 169.32C205.352 169.32 203.772 170.82 203.772 172.92ZM215.012 178V167.88H216.892V169.22C216.892 169.62 216.852 169.96 216.852 169.96H216.892C217.372 168.78 218.792 167.64 220.372 167.64C222.072 167.64 223.072 168.42 223.412 169.94H223.452C224.012 168.72 225.412 167.64 227.052 167.64C229.332 167.64 230.392 168.94 230.392 171.52V178H228.452V171.94C228.452 170.52 228.172 169.4 226.652 169.4C225.232 169.4 224.172 170.6 223.812 171.98C223.712 172.4 223.672 172.86 223.672 173.38V178H221.732V171.94C221.732 170.62 221.532 169.4 219.972 169.4C218.492 169.4 217.452 170.62 217.072 172.06C216.972 172.46 216.952 172.92 216.952 173.38V178H215.012ZM232.593 172.94C232.593 169.72 234.773 167.64 237.653 167.64C240.513 167.64 242.033 169.76 242.033 172.38C242.033 172.64 241.973 173.22 241.973 173.22H234.593C234.693 175.44 236.273 176.56 238.073 176.56C239.813 176.56 241.073 175.38 241.073 175.38L241.873 176.8C241.873 176.8 240.373 178.24 237.953 178.24C234.773 178.24 232.593 175.94 232.593 172.94ZM234.653 171.76H240.053C239.993 170.02 238.913 169.18 237.613 169.18C236.133 169.18 234.933 170.1 234.653 171.76ZM243.567 176.76L244.507 175.38C244.507 175.38 245.647 176.56 247.407 176.56C248.247 176.56 249.087 176.12 249.087 175.3C249.087 173.44 243.887 173.82 243.887 170.52C243.887 168.68 245.527 167.64 247.547 167.64C249.767 167.64 250.807 168.76 250.807 168.76L250.027 170.22C250.027 170.22 249.127 169.32 247.527 169.32C246.687 169.32 245.867 169.68 245.867 170.56C245.867 172.38 251.067 171.98 251.067 175.3C251.067 176.98 249.627 178.24 247.407 178.24C244.927 178.24 243.567 176.76 243.567 176.76ZM258.889 178V163.88H266.669V165.6H260.869V170.24H265.809V171.96H260.869V178H258.889ZM268.898 165.86V163.88H270.858V165.86H268.898ZM268.918 178V167.88H270.858V178H268.918ZM273.899 178V167.88H275.779V169.22C275.779 169.62 275.739 169.96 275.739 169.96H275.779C276.179 169.08 277.379 167.64 279.579 167.64C281.959 167.64 283.059 168.94 283.059 171.52V178H281.119V171.96C281.119 170.54 280.819 169.42 279.199 169.42C277.659 169.42 276.419 170.44 275.999 171.9C275.879 172.3 275.839 172.76 275.839 173.26V178H273.899ZM285.13 175.16C285.13 171.82 289.53 171.68 291.23 171.68H291.67V171.5C291.67 169.84 290.73 169.28 289.45 169.28C287.89 169.28 286.63 170.26 286.63 170.26L285.83 168.84C285.83 168.84 287.29 167.64 289.61 167.64C292.17 167.64 293.61 169.04 293.61 171.6V178H291.81V177.04C291.81 176.58 291.85 176.24 291.85 176.24H291.81C291.81 176.24 290.99 178.24 288.57 178.24C286.83 178.24 285.13 177.18 285.13 175.16ZM287.09 175.06C287.09 175.88 287.73 176.68 288.99 176.68C290.63 176.68 291.69 174.96 291.69 173.46V173.14H291.19C289.73 173.14 287.09 173.24 287.09 175.06ZM296.516 178V167.88H298.396V169.22C298.396 169.62 298.356 169.96 298.356 169.96H298.396C298.796 169.08 299.996 167.64 302.196 167.64C304.576 167.64 305.676 168.94 305.676 171.52V178H303.736V171.96C303.736 170.54 303.436 169.42 301.816 169.42C300.276 169.42 299.036 170.44 298.616 171.9C298.496 172.3 298.456 172.76 298.456 173.26V178H296.516ZM307.847 172.94C307.847 169.94 310.087 167.64 313.267 167.64C315.807 167.64 317.067 169.12 317.067 169.12L316.147 170.48C316.147 170.48 315.067 169.32 313.347 169.32C311.307 169.32 309.827 170.84 309.827 172.92C309.827 174.98 311.307 176.56 313.407 176.56C315.287 176.56 316.527 175.2 316.527 175.2L317.307 176.62C317.307 176.62 315.907 178.24 313.267 178.24C310.087 178.24 307.847 175.98 307.847 172.94ZM319.484 165.86V163.88H321.444V165.86H319.484ZM319.504 178V167.88H321.444V178H319.504ZM323.665 175.16C323.665 171.82 328.065 171.68 329.765 171.68H330.205V171.5C330.205 169.84 329.265 169.28 327.985 169.28C326.425 169.28 325.165 170.26 325.165 170.26L324.365 168.84C324.365 168.84 325.825 167.64 328.145 167.64C330.705 167.64 332.145 169.04 332.145 171.6V178H330.345V177.04C330.345 176.58 330.385 176.24 330.385 176.24H330.345C330.345 176.24 329.525 178.24 327.105 178.24C325.365 178.24 323.665 177.18 323.665 175.16ZM325.625 175.06C325.625 175.88 326.265 176.68 327.525 176.68C329.165 176.68 330.225 174.96 330.225 173.46V173.14H329.725C328.265 173.14 325.625 173.24 325.625 175.06ZM334.931 175.24V163.88H336.871V174.9C336.871 176.12 337.351 176.34 337.951 176.34C338.131 176.34 338.291 176.32 338.291 176.32V178.04C338.291 178.04 337.991 178.08 337.651 178.08C336.551 178.08 334.931 177.78 334.931 175.24ZM340.224 175.24V163.88H342.164V174.9C342.164 176.12 342.644 176.34 343.244 176.34C343.424 176.34 343.584 176.32 343.584 176.32V178.04C343.584 178.04 343.284 178.08 342.944 178.08C341.844 178.08 340.224 177.78 340.224 175.24ZM344.217 181.58L344.897 180.1C344.897 180.1 345.457 180.52 346.077 180.52C346.857 180.52 347.517 179.96 347.897 179.04L348.397 177.88L344.157 167.88H346.337L348.877 174.5C349.077 175.02 349.257 175.72 349.257 175.72H349.297C349.297 175.72 349.457 175.04 349.637 174.52L352.097 167.88H354.197L349.457 179.82C348.837 181.38 347.597 182.2 346.177 182.2C345.037 182.2 344.217 181.58 344.217 181.58ZM360.289 176.38L361.409 174.88C361.409 174.88 362.909 176.4 365.009 176.4C366.329 176.4 367.449 175.66 367.449 174.32C367.449 171.26 360.609 171.92 360.609 167.58C360.609 165.38 362.509 163.64 365.169 163.64C367.789 163.64 369.169 165.06 369.169 165.06L368.269 166.7C368.269 166.7 366.969 165.48 365.169 165.48C363.669 165.48 362.609 166.42 362.609 167.54C362.609 170.46 369.449 169.68 369.449 174.26C369.449 176.44 367.769 178.24 364.969 178.24C361.969 178.24 360.289 176.38 360.289 176.38ZM372.249 174.3V169.58H370.929V168.02H372.309V165.1H374.189V168.02H376.629V169.58H374.189V174.08C374.189 176.1 375.609 176.36 376.349 176.36C376.629 176.36 376.809 176.32 376.809 176.32V178.04C376.809 178.04 376.529 178.08 376.129 178.08C374.829 178.08 372.249 177.68 372.249 174.3ZM378.997 178V167.88H380.877V169.64C380.877 170.06 380.837 170.4 380.837 170.4H380.877C381.337 168.92 382.517 167.76 384.077 167.76C384.337 167.76 384.577 167.8 384.577 167.8V169.72C384.577 169.72 384.317 169.66 384.017 169.66C382.777 169.66 381.637 170.54 381.177 172.04C380.997 172.62 380.937 173.24 380.937 173.86V178H378.997ZM385.698 172.92C385.698 169.86 388.138 167.64 391.158 167.64C394.178 167.64 396.618 169.86 396.618 172.92C396.618 176 394.178 178.24 391.158 178.24C388.138 178.24 385.698 176 385.698 172.92ZM387.678 172.92C387.678 175.04 389.258 176.56 391.158 176.56C393.078 176.56 394.638 175.04 394.638 172.92C394.638 170.82 393.078 169.32 391.158 169.32C389.258 169.32 387.678 170.82 387.678 172.92ZM398.918 178V167.88H400.798V169.22C400.798 169.62 400.758 169.96 400.758 169.96H400.798C401.198 169.08 402.398 167.64 404.598 167.64C406.978 167.64 408.078 168.94 408.078 171.52V178H406.138V171.96C406.138 170.54 405.838 169.42 404.218 169.42C402.678 169.42 401.438 170.44 401.018 171.9C400.898 172.3 400.858 172.76 400.858 173.26V178H398.918ZM411.869 179.84C411.869 179.84 413.129 180.52 414.649 180.52C416.409 180.52 417.849 179.74 417.849 177.68V176.94C417.849 176.62 417.869 176.3 417.869 176.3H417.829C417.229 177.3 416.289 177.88 414.829 177.88C412.009 177.88 410.309 175.62 410.309 172.7C410.309 169.8 411.929 167.64 414.729 167.64C417.169 167.64 417.909 169.14 417.909 169.14H417.949C417.949 169.14 417.929 169 417.929 168.82V167.88H419.789V177.58C419.789 180.92 417.249 182.2 414.689 182.2C413.469 182.2 412.209 181.86 411.229 181.36L411.869 179.84ZM415.209 176.2C416.609 176.2 417.889 175.36 417.889 172.72C417.889 170.08 416.609 169.32 415.029 169.32C413.269 169.32 412.269 170.6 412.269 172.66C412.269 174.76 413.389 176.2 415.209 176.2ZM428.361 178V163.88H436.561V165.6H430.341V170.02H435.401V171.74H430.341V176.28H436.901V178H428.361ZM439.426 178V167.88H441.306V169.22C441.306 169.62 441.266 169.96 441.266 169.96H441.306C441.706 169.08 442.906 167.64 445.106 167.64C447.486 167.64 448.586 168.94 448.586 171.52V178H446.646V171.96C446.646 170.54 446.346 169.42 444.726 169.42C443.186 169.42 441.946 170.44 441.526 171.9C441.406 172.3 441.366 172.76 441.366 173.26V178H439.426ZM450.737 172.92C450.737 169.86 453.177 167.64 456.197 167.64C459.217 167.64 461.657 169.86 461.657 172.92C461.657 176 459.217 178.24 456.197 178.24C453.177 178.24 450.737 176 450.737 172.92ZM452.717 172.92C452.717 175.04 454.297 176.56 456.197 176.56C458.117 176.56 459.677 175.04 459.677 172.92C459.677 170.82 458.117 169.32 456.197 169.32C454.297 169.32 452.717 170.82 452.717 172.92ZM463.818 174.36V167.88H465.758V173.92C465.758 175.32 466.038 176.44 467.658 176.44C469.718 176.44 470.938 174.62 470.938 172.62V167.88H472.878V178H470.998V176.66C470.998 176.24 471.038 175.92 471.038 175.92H470.998C470.578 176.92 469.258 178.24 467.278 178.24C464.998 178.24 463.818 177.04 463.818 174.36ZM476.811 179.84C476.811 179.84 478.071 180.52 479.591 180.52C481.351 180.52 482.791 179.74 482.791 177.68V176.94C482.791 176.62 482.811 176.3 482.811 176.3H482.771C482.171 177.3 481.231 177.88 479.771 177.88C476.951 177.88 475.251 175.62 475.251 172.7C475.251 169.8 476.871 167.64 479.671 167.64C482.111 167.64 482.851 169.14 482.851 169.14H482.891C482.891 169.14 482.871 169 482.871 168.82V167.88H484.731V177.58C484.731 180.92 482.191 182.2 479.631 182.2C478.411 182.2 477.151 181.86 476.171 181.36L476.811 179.84ZM480.151 176.2C481.551 176.2 482.831 175.36 482.831 172.72C482.831 170.08 481.551 169.32 479.971 169.32C478.211 169.32 477.211 170.6 477.211 172.66C477.211 174.76 478.331 176.2 480.151 176.2ZM487.766 178V163.88H489.706V169.06C489.706 169.54 489.666 169.9 489.666 169.9H489.706C490.146 168.92 491.426 167.64 493.446 167.64C495.826 167.64 496.926 168.94 496.926 171.52V178H494.986V171.96C494.986 170.54 494.686 169.42 493.066 169.42C491.546 169.42 490.286 170.46 489.866 171.92C489.746 172.32 489.706 172.78 489.706 173.26V178H487.766ZM505.374 174.3V169.58H504.054V168.02H505.434V165.1H507.314V168.02H509.754V169.58H507.314V174.08C507.314 176.1 508.734 176.36 509.474 176.36C509.754 176.36 509.934 176.32 509.934 176.32V178.04C509.934 178.04 509.654 178.08 509.254 178.08C507.954 178.08 505.374 177.68 505.374 174.3ZM511.382 172.92C511.382 169.86 513.822 167.64 516.842 167.64C519.862 167.64 522.302 169.86 522.302 172.92C522.302 176 519.862 178.24 516.842 178.24C513.822 178.24 511.382 176 511.382 172.92ZM513.362 172.92C513.362 175.04 514.942 176.56 516.842 176.56C518.762 176.56 520.322 175.04 520.322 172.92C520.322 170.82 518.762 169.32 516.842 169.32C514.942 169.32 513.362 170.82 513.362 172.92ZM529.699 178L530.839 163.88H532.919L536.159 171.52C536.479 172.3 536.859 173.42 536.859 173.42H536.899C536.899 173.42 537.279 172.3 537.599 171.52L540.839 163.88H542.919L544.059 178H542.099L541.399 169.1C541.339 168.24 541.379 167.02 541.379 167.02H541.339C541.339 167.02 540.919 168.32 540.579 169.1L537.759 175.46H535.999L533.199 169.1C532.879 168.34 532.439 166.98 532.439 166.98H532.399C532.399 166.98 532.419 168.24 532.359 169.1L531.679 178H529.699ZM546.243 175.16C546.243 171.82 550.643 171.68 552.343 171.68H552.783V171.5C552.783 169.84 551.843 169.28 550.563 169.28C549.003 169.28 547.743 170.26 547.743 170.26L546.943 168.84C546.943 168.84 548.403 167.64 550.723 167.64C553.283 167.64 554.723 169.04 554.723 171.6V178H552.923V177.04C552.923 176.58 552.963 176.24 552.963 176.24H552.923C552.923 176.24 552.103 178.24 549.683 178.24C547.943 178.24 546.243 177.18 546.243 175.16ZM548.203 175.06C548.203 175.88 548.843 176.68 550.103 176.68C551.743 176.68 552.803 174.96 552.803 173.46V173.14H552.303C550.843 173.14 548.203 173.24 548.203 175.06ZM557.629 178V163.88H559.569V171.6H560.989L563.749 167.88H565.949L562.589 172.34V172.38L566.329 178H564.069L561.029 173.24H559.569V178H557.629ZM567.3 172.94C567.3 169.72 569.48 167.64 572.36 167.64C575.22 167.64 576.74 169.76 576.74 172.38C576.74 172.64 576.68 173.22 576.68 173.22H569.3C569.4 175.44 570.98 176.56 572.78 176.56C574.52 176.56 575.78 175.38 575.78 175.38L576.58 176.8C576.58 176.8 575.08 178.24 572.66 178.24C569.48 178.24 567.3 175.94 567.3 172.94ZM569.36 171.76H574.76C574.7 170.02 573.62 169.18 572.32 169.18C570.84 169.18 569.64 170.1 569.36 171.76ZM583.411 175.16C583.411 171.82 587.811 171.68 589.511 171.68H589.951V171.5C589.951 169.84 589.011 169.28 587.731 169.28C586.171 169.28 584.911 170.26 584.911 170.26L584.111 168.84C584.111 168.84 585.571 167.64 587.891 167.64C590.451 167.64 591.891 169.04 591.891 171.6V178H590.091V177.04C590.091 176.58 590.131 176.24 590.131 176.24H590.091C590.091 176.24 589.271 178.24 586.851 178.24C585.111 178.24 583.411 177.18 583.411 175.16ZM585.371 175.06C585.371 175.88 586.011 176.68 587.271 176.68C588.911 176.68 589.971 174.96 589.971 173.46V173.14H589.471C588.011 173.14 585.371 173.24 585.371 175.06ZM594.797 178V167.88H596.677V169.22C596.677 169.62 596.637 169.96 596.637 169.96H596.677C597.077 169.08 598.277 167.64 600.477 167.64C602.857 167.64 603.957 168.94 603.957 171.52V178H602.017V171.96C602.017 170.54 601.717 169.42 600.097 169.42C598.557 169.42 597.317 170.44 596.897 171.9C596.777 172.3 596.737 172.76 596.737 173.26V178H594.797ZM612.385 178V163.88H614.365V178H612.385ZM617.805 178V167.88H619.685V169.22C619.685 169.62 619.645 169.96 619.645 169.96H619.685C620.165 168.78 621.585 167.64 623.165 167.64C624.865 167.64 625.865 168.42 626.205 169.94H626.245C626.805 168.72 628.205 167.64 629.845 167.64C632.125 167.64 633.185 168.94 633.185 171.52V178H631.245V171.94C631.245 170.52 630.965 169.4 629.445 169.4C628.025 169.4 626.965 170.6 626.605 171.98C626.505 172.4 626.465 172.86 626.465 173.38V178H624.525V171.94C624.525 170.62 624.325 169.4 622.765 169.4C621.285 169.4 620.245 170.62 619.865 172.06C619.765 172.46 619.745 172.92 619.745 173.38V178H617.805ZM636.086 182V167.88H637.866V168.74C637.866 169.14 637.826 169.48 637.826 169.48H637.866C637.866 169.48 638.726 167.64 641.266 167.64C643.986 167.64 645.706 169.8 645.706 172.94C645.706 176.16 643.766 178.24 641.126 178.24C638.906 178.24 638.026 176.58 638.026 176.58H637.986C637.986 176.58 638.026 176.94 638.026 177.46V182H636.086ZM637.966 172.98C637.966 174.78 638.966 176.58 640.826 176.58C642.426 176.58 643.746 175.26 643.746 172.96C643.746 170.76 642.566 169.34 640.886 169.34C639.366 169.34 637.966 170.4 637.966 172.98ZM647.259 175.16C647.259 171.82 651.659 171.68 653.359 171.68H653.799V171.5C653.799 169.84 652.859 169.28 651.579 169.28C650.019 169.28 648.759 170.26 648.759 170.26L647.959 168.84C647.959 168.84 649.419 167.64 651.739 167.64C654.299 167.64 655.739 169.04 655.739 171.6V178H653.939V177.04C653.939 176.58 653.979 176.24 653.979 176.24H653.939C653.939 176.24 653.119 178.24 650.699 178.24C648.959 178.24 647.259 177.18 647.259 175.16ZM649.219 175.06C649.219 175.88 649.859 176.68 651.119 176.68C652.759 176.68 653.819 174.96 653.819 173.46V173.14H653.319C651.859 173.14 649.219 173.24 649.219 175.06ZM657.925 172.94C657.925 169.94 660.165 167.64 663.345 167.64C665.885 167.64 667.145 169.12 667.145 169.12L666.225 170.48C666.225 170.48 665.145 169.32 663.425 169.32C661.385 169.32 659.905 170.84 659.905 172.92C659.905 174.98 661.385 176.56 663.485 176.56C665.365 176.56 666.605 175.2 666.605 175.2L667.385 176.62C667.385 176.62 665.985 178.24 663.345 178.24C660.165 178.24 657.925 175.98 657.925 172.94ZM670.003 174.3V169.58H668.683V168.02H670.063V165.1H671.943V168.02H674.383V169.58H671.943V174.08C671.943 176.1 673.363 176.36 674.103 176.36C674.383 176.36 674.563 176.32 674.563 176.32V178.04C674.563 178.04 674.283 178.08 673.883 178.08C672.583 178.08 670.003 177.68 670.003 174.3Z" fill="#333333"/>
</svg>
