<svg width="768" height="110" viewBox="0 0 768 110" fill="none" xmlns="http://www.w3.org/2000/svg">
<path d="M0.0966797 86V15.9219H26.1221V28.4902H26.6299C27.5186 23.9199 29.2747 20.4287 31.8984 18.0166C34.5645 15.6045 37.9922 14.3984 42.1816 14.3984C43.2819 14.3984 44.361 14.4831 45.4189 14.6523C46.4769 14.8216 47.4925 15.0755 48.4658 15.4141V37.3135C47.3656 36.848 46.1595 36.4883 44.8477 36.2344C43.5781 35.9805 42.2663 35.8535 40.9121 35.8535C37.6536 35.8535 34.9242 36.4036 32.7236 37.5039C30.5231 38.6042 28.8727 40.2546 27.7725 42.4551C26.6722 44.6133 26.1221 47.3216 26.1221 50.5801V86H0.0966797ZM85.6021 87.5234C78.0273 87.5234 71.5104 86.0635 66.0514 83.1436C60.5924 80.2236 56.3818 76.0342 53.4195 70.5752C50.4996 65.0739 49.0396 58.5358 49.0396 50.9609V50.8975C49.0396 43.2803 50.4996 36.7633 53.4195 31.3467C56.3395 25.8877 60.4654 21.6982 65.7975 18.7783C71.1718 15.8584 77.4983 14.3984 84.777 14.3984C92.0556 14.3984 98.3609 15.8372 103.693 18.7148C109.067 21.5924 113.214 25.6549 116.134 30.9023C119.097 36.1497 120.578 42.3281 120.578 49.4375V56.8008H61.735V42.0742H108.517L96.5201 55.9121V45.8828C96.5201 43.0475 96.0546 40.6143 95.1236 38.583C94.235 36.5518 92.9654 35.0072 91.315 33.9492C89.6646 32.849 87.718 32.2988 85.4752 32.2988C83.2324 32.2988 81.2857 32.849 79.6354 33.9492C77.985 35.0072 76.6943 36.5518 75.7633 38.583C74.8746 40.6143 74.4303 43.0475 74.4303 45.8828V56.0391C74.4303 58.8743 74.8958 61.3076 75.8268 63.3389C76.7577 65.3701 78.0908 66.9359 79.8258 68.0361C81.5608 69.0941 83.6555 69.623 86.11 69.623C88.3951 69.623 90.2994 69.2633 91.8229 68.5439C93.3463 67.7822 94.5312 66.9147 95.3775 65.9414C96.2662 64.9681 96.8163 64.1429 97.0279 63.4658L97.0914 63.2754H120.26L120.07 64.1006C119.562 66.3857 118.61 68.8825 117.213 71.5908C115.817 74.2568 113.807 76.8171 111.183 79.2715C108.56 81.6836 105.153 83.6725 100.963 85.2383C96.8163 86.7617 91.6959 87.5234 85.6021 87.5234ZM161.523 109.74C154.498 109.74 148.383 108.809 143.178 106.947C137.973 105.085 133.868 102.546 130.863 99.3301C127.901 96.1139 126.187 92.4958 125.722 88.4756L125.658 87.9043H150.668L150.795 88.2217C151.218 89.195 152.319 90.2529 154.096 91.3955C155.916 92.5381 158.455 93.1094 161.713 93.1094C165.479 93.1094 168.272 92.3053 170.092 90.6973C171.912 89.1315 172.821 87.1214 172.821 84.667V72.2256H172.314C171.256 74.5531 169.711 76.5632 167.68 78.2559C165.691 79.9062 163.3 81.1969 160.507 82.1279C157.756 83.0166 154.688 83.4609 151.303 83.4609C145.505 83.4609 140.575 82.1702 136.513 79.5889C132.45 76.9652 129.361 73.1566 127.245 68.1631C125.172 63.1696 124.135 57.0758 124.135 49.8818V49.8184C124.135 42.1589 125.193 35.7054 127.309 30.458C129.467 25.2106 132.577 21.2327 136.64 18.5244C140.745 15.7738 145.738 14.3984 151.62 14.3984C154.921 14.3984 157.926 14.9486 160.634 16.0488C163.342 17.1068 165.67 18.6514 167.616 20.6826C169.605 22.7139 171.15 25.1683 172.25 28.0459H172.821V15.9219H198.847V84.0322C198.847 89.0257 197.323 93.4479 194.277 97.2988C191.272 101.192 186.977 104.239 181.391 106.439C175.805 108.64 169.182 109.74 161.523 109.74ZM161.713 66.0684C163.998 66.0684 165.987 65.4759 167.68 64.291C169.373 63.0638 170.663 61.3076 171.552 59.0225C172.483 56.7373 172.948 53.9867 172.948 50.7705V50.707C172.948 47.4486 172.483 44.6768 171.552 42.3916C170.621 40.1064 169.309 38.3714 167.616 37.1865C165.966 35.9593 163.998 35.3457 161.713 35.3457C159.47 35.3457 157.502 35.9593 155.81 37.1865C154.159 38.3714 152.869 40.1064 151.938 42.3916C151.007 44.6344 150.541 47.3851 150.541 50.6436V50.707C150.541 53.8809 150.986 56.6315 151.874 58.959C152.805 61.2441 154.117 63.0003 155.81 64.2275C157.502 65.4548 159.47 66.0684 161.713 66.0684ZM240.998 87.5234C233.423 87.5234 226.906 86.0635 221.447 83.1436C215.988 80.2236 211.777 76.0342 208.815 70.5752C205.895 65.0739 204.435 58.5358 204.435 50.9609V50.8975C204.435 43.2803 205.895 36.7633 208.815 31.3467C211.735 25.8877 215.861 21.6982 221.193 18.7783C226.568 15.8584 232.894 14.3984 240.173 14.3984C247.451 14.3984 253.757 15.8372 259.089 18.7148C264.463 21.5924 268.61 25.6549 271.53 30.9023C274.492 36.1497 275.973 42.3281 275.973 49.4375V56.8008H217.131V42.0742H263.913L251.916 55.9121V45.8828C251.916 43.0475 251.45 40.6143 250.519 38.583C249.631 36.5518 248.361 35.0072 246.711 33.9492C245.06 32.849 243.114 32.2988 240.871 32.2988C238.628 32.2988 236.681 32.849 235.031 33.9492C233.381 35.0072 232.09 36.5518 231.159 38.583C230.27 40.6143 229.826 43.0475 229.826 45.8828V56.0391C229.826 58.8743 230.291 61.3076 231.222 63.3389C232.153 65.3701 233.486 66.9359 235.221 68.0361C236.957 69.0941 239.051 69.623 241.506 69.623C243.791 69.623 245.695 69.2633 247.219 68.5439C248.742 67.7822 249.927 66.9147 250.773 65.9414C251.662 64.9681 252.212 64.1429 252.424 63.4658L252.487 63.2754H275.656L275.466 64.1006C274.958 66.3857 274.006 68.8825 272.609 71.5908C271.213 74.2568 269.203 76.8171 266.579 79.2715C263.955 81.6836 260.549 83.6725 256.359 85.2383C252.212 86.7617 247.092 87.5234 240.998 87.5234ZM281.308 86V15.9219H307.333V28.9346H307.841C309.576 24.195 312.221 20.598 315.776 18.1436C319.33 15.6468 323.753 14.3984 329.042 14.3984C336.744 14.3984 342.669 16.7259 346.816 21.3809C351.005 26.0358 353.1 32.5739 353.1 40.9951V86H327.075V46.708C327.075 43.1956 326.249 40.4238 324.599 38.3926C322.949 36.3613 320.494 35.3457 317.236 35.3457C315.204 35.3457 313.448 35.8324 311.967 36.8057C310.486 37.779 309.343 39.112 308.539 40.8047C307.735 42.4974 307.333 44.444 307.333 46.6445V86H281.308ZM392.585 87.5234C383.529 87.5234 376.864 85.8096 372.59 82.3818C368.358 78.9118 366.242 73.0508 366.242 64.7988V34.7109H356.975V15.9219H366.242V0.560547H392.268V15.9219H404.582V34.7109H392.268V60.7998C392.268 63.6351 392.902 65.6663 394.172 66.8936C395.484 68.1208 397.473 68.7344 400.139 68.7344C401.112 68.7344 401.916 68.7132 402.551 68.6709C403.228 68.5863 403.905 68.5016 404.582 68.417V86.5713C403.186 86.8252 401.514 87.0368 399.567 87.2061C397.663 87.4176 395.336 87.5234 392.585 87.5234Z" fill="white"/>
<path d="M457.461 108.217V73.876H456.953C455.895 76.7113 454.35 79.1445 452.319 81.1758C450.33 83.207 447.939 84.7728 445.146 85.873C442.395 86.9733 439.327 87.5234 435.942 87.5234C430.144 87.5234 425.214 86.1058 421.152 83.2705C417.089 80.3929 414 76.2458 411.884 70.8291C409.811 65.3701 408.774 58.7474 408.774 50.9609V50.8975C408.774 43.0687 409.832 36.446 411.948 31.0293C414.106 25.5703 417.216 21.4443 421.279 18.6514C425.384 15.8161 430.377 14.3984 436.259 14.3984C439.56 14.3984 442.565 14.9697 445.273 16.1123C447.981 17.2126 450.309 18.8206 452.255 20.9365C454.244 23.0524 455.789 25.5915 456.889 28.5537H457.461V15.9219H483.486V108.217H457.461ZM446.352 66.5762C448.637 66.5762 450.626 65.9626 452.319 64.7354C454.012 63.5081 455.302 61.7308 456.191 59.4033C457.122 57.0758 457.587 54.2829 457.587 51.0244V50.9609C457.587 47.6602 457.122 44.846 456.191 42.5186C455.26 40.1911 453.948 38.4137 452.255 37.1865C450.605 35.9593 448.637 35.3457 446.352 35.3457C444.109 35.3457 442.142 35.9593 440.449 37.1865C438.798 38.4137 437.508 40.1911 436.577 42.5186C435.646 44.846 435.18 47.639 435.18 50.8975V50.9609C435.18 54.1771 435.625 56.9489 436.513 59.2764C437.444 61.6038 438.756 63.4023 440.449 64.6719C442.142 65.9414 444.109 66.5762 446.352 66.5762ZM514.465 87.5234C509.345 87.5234 504.986 86.4867 501.389 84.4131C497.792 82.2972 495.062 79.2503 493.2 75.2725C491.338 71.2946 490.407 66.5127 490.407 60.9268V15.9219H516.433V55.2139C516.433 58.7262 517.258 61.498 518.908 63.5293C520.559 65.5605 523.013 66.5762 526.272 66.5762C528.345 66.5762 530.101 66.0895 531.54 65.1162C533.021 64.1429 534.164 62.8099 534.968 61.1172C535.772 59.3822 536.174 57.4355 536.174 55.2773V15.9219H562.199V86H536.174V72.9873H535.666C533.973 77.7269 531.329 81.3451 527.732 83.8418C524.177 86.2962 519.755 87.5234 514.465 87.5234ZM590.576 86.8887C585.879 86.8887 581.732 85.9577 578.135 84.0957C574.58 82.2337 571.787 79.7158 569.756 76.542C567.767 73.3258 566.772 69.7077 566.772 65.6875V65.624C566.772 58.8532 569.29 53.627 574.326 49.9453C579.362 46.2214 586.535 44.042 595.845 43.4072L624.472 41.5029V55.9756L600.161 57.6895C597.41 57.8587 595.379 58.4723 594.067 59.5303C592.798 60.5882 592.163 61.9847 592.163 63.7197V63.7832C592.163 65.6029 592.882 66.9993 594.321 67.9727C595.76 68.946 597.685 69.4326 600.097 69.4326C602.171 69.4326 603.991 69.0941 605.556 68.417C607.122 67.6976 608.349 66.7243 609.238 65.4971C610.127 64.2699 610.571 62.8945 610.571 61.3711V39.5986C610.571 37.5674 609.915 35.9593 608.603 34.7744C607.291 33.5895 605.303 32.9971 602.637 32.9971C599.971 32.9971 597.897 33.5049 596.416 34.5205C594.935 35.5361 594.046 36.7633 593.75 38.2021L593.623 38.8369H570.39L570.454 38.0117C570.835 33.2298 572.379 29.0827 575.088 25.5703C577.838 22.0156 581.647 19.265 586.513 17.3184C591.422 15.3717 597.283 14.3984 604.096 14.3984C610.613 14.3984 616.305 15.4141 621.172 17.4453C626.038 19.4342 629.826 22.2272 632.534 25.8242C635.242 29.4212 636.596 33.5895 636.596 38.3291V86H610.571V76.4785H610.063C608.751 78.679 607.143 80.5622 605.239 82.1279C603.377 83.6937 601.219 84.8786 598.764 85.6826C596.31 86.4867 593.581 86.8887 590.576 86.8887ZM643.835 86V15.9219H669.861V28.9346H670.369C672.104 24.195 674.748 20.598 678.303 18.1436C681.858 15.6468 686.28 14.3984 691.57 14.3984C699.272 14.3984 705.196 16.7259 709.343 21.3809C713.533 26.0358 715.627 32.5739 715.627 40.9951V86H689.602V46.708C689.602 43.1956 688.777 40.4238 687.126 38.3926C685.476 36.3613 683.022 35.3457 679.763 35.3457C677.732 35.3457 675.976 35.8324 674.495 36.8057C673.013 37.779 671.871 39.112 671.067 40.8047C670.263 42.4974 669.861 44.444 669.861 46.6445V86H643.835ZM755.112 87.5234C746.056 87.5234 739.391 85.8096 735.117 82.3818C730.885 78.9118 728.77 73.0508 728.77 64.7988V34.7109H719.502V15.9219H728.77V0.560547H754.795V15.9219H767.109V34.7109H754.795V60.7998C754.795 63.6351 755.43 65.6663 756.699 66.8936C758.011 68.1208 760 68.7344 762.666 68.7344C763.639 68.7344 764.443 68.7132 765.078 68.6709C765.755 68.5863 766.432 68.5016 767.109 68.417V86.5713C765.713 86.8252 764.041 87.0368 762.095 87.2061C760.19 87.4176 757.863 87.5234 755.112 87.5234Z" fill="#9AD0E6"/>
</svg>
