<svg width="616" height="82" viewBox="0 0 616 82" fill="none" xmlns="http://www.w3.org/2000/svg">
<path d="M28.1 70L21.4 46H14V70H0.2V1.2H23.4C28.3333 1.2 32.0333 2.03333 34.5 3.7C37.0333 5.36666 38.7333 7.76667 39.6 10.9C40.4667 14.0333 40.9 18.2333 40.9 23.5C40.9 28.5 40.4333 32.6333 39.5 35.9C38.6333 39.1667 36.8333 41.6333 34.1 43.3L42.4 70H28.1ZM20.1 34.1C22.3 34.1 23.8667 33.8667 24.8 33.4C25.7333 32.8667 26.3333 31.9333 26.6 30.6C26.9333 29.2 27.1 26.8667 27.1 23.6C27.1 20.4 26.9333 18.1333 26.6 16.8C26.3333 15.4667 25.7333 14.5667 24.8 14.1C23.8667 13.5667 22.3 13.3 20.1 13.3H14V34.1H20.1ZM59.6141 70V1.2H93.0141V13.3H73.4141V29.2H90.3141V41.3H73.4141V57.9H93.0141V70H59.6141ZM131.604 41.8V30H150.504V68.7C148.171 69.3 145.337 69.8 142.004 70.2C138.671 70.6 135.571 70.8 132.704 70.8C126.371 70.8 121.637 69.8667 118.504 68C115.437 66.0667 113.304 62.6667 112.104 57.8C110.971 52.8667 110.404 45.4667 110.404 35.6C110.404 25.8 111.004 18.4667 112.204 13.6C113.471 8.66667 115.737 5.23333 119.004 3.29999C122.271 1.36666 127.171 0.399996 133.704 0.399996C136.371 0.399996 139.271 0.599995 142.404 0.999994C145.537 1.4 148.204 1.86666 150.404 2.39999V13.7C144.671 12.9 140.504 12.5 137.904 12.5C133.371 12.5 130.237 12.8667 128.504 13.6C126.837 14.3333 125.671 16.2333 125.004 19.3C124.404 22.3 124.104 27.7333 124.104 35.6C124.104 42.9333 124.304 48.1667 124.704 51.3C125.104 54.3667 125.871 56.4333 127.004 57.5C128.204 58.5667 130.204 59.1 133.004 59.1C133.604 59.1 135.204 59 137.804 58.8V41.8H131.604ZM170.434 70V1.2H203.834V13.3H184.234V29.2H201.134V41.3H184.234V57.9H203.834V70H170.434ZM252.024 70L236.024 32.3H235.624V70H222.524V1.2H235.824L250.724 36H251.224V1.2H264.424V70H252.024ZM293.668 70V13.7H280.668V1.2H320.468V13.7H307.468V70H293.668ZM361.065 70.6C359.332 70.7333 357.898 70.8 356.765 70.8C349.832 70.8 344.898 69.8 341.965 67.8C339.032 65.7333 337.198 62.4667 336.465 58C335.732 53.5333 335.365 46.0667 335.365 35.6C335.365 25.1333 335.732 17.6667 336.465 13.2C337.198 8.73333 339.032 5.5 341.965 3.5C344.898 1.43333 349.832 0.399996 356.765 0.399996C363.632 0.399996 368.532 1.43333 371.465 3.5C374.465 5.5 376.332 8.76666 377.065 13.3C377.798 17.7667 378.165 25.2 378.165 35.6C378.165 45 377.832 51.9 377.165 56.3C376.565 60.7 375.098 64.0667 372.765 66.4L381.765 81V81.5H367.265L361.065 70.6ZM356.765 58.7C359.432 58.7 361.232 58.3333 362.165 57.6C363.098 56.8667 363.698 55.0667 363.965 52.2C364.232 49.2667 364.365 43.7333 364.365 35.6C364.365 27.4667 364.232 21.9667 363.965 19.1C363.698 16.1667 363.098 14.3333 362.165 13.6C361.232 12.8667 359.432 12.5 356.765 12.5C354.098 12.5 352.298 12.8667 351.365 13.6C350.432 14.3333 349.832 16.1333 349.565 19C349.298 21.8667 349.165 27.4 349.165 35.6C349.165 43.8 349.298 49.3333 349.565 52.2C349.832 55.0667 350.432 56.8667 351.365 57.6C352.298 58.3333 354.098 58.7 356.765 58.7ZM437.851 1.2V39.5C437.851 48.5667 437.451 55.1667 436.651 59.3C435.917 63.3667 434.117 66.3 431.251 68.1C428.451 69.9 423.817 70.8 417.351 70.8C410.884 70.8 406.217 69.9 403.351 68.1C400.551 66.3 398.751 63.3667 397.951 59.3C397.217 55.1667 396.851 48.5667 396.851 39.5V1.2H410.551V44.1C410.551 48.9667 410.651 52.3333 410.851 54.2C411.117 56 411.684 57.2 412.551 57.8C413.484 58.4 415.084 58.7 417.351 58.7C419.617 58.7 421.184 58.4 422.051 57.8C422.917 57.2 423.451 56 423.651 54.2C423.917 52.4 424.051 49.0333 424.051 44.1V1.2H437.851ZM487.937 70L485.237 55.9H469.837L467.137 70H453.437L467.637 1.2H487.737L501.937 70H487.937ZM477.837 14.2H477.237L471.837 44H483.137L477.837 14.2ZM547.434 70L531.434 32.3H531.034V70H517.934V1.2H531.234L546.134 36H546.634V1.2H559.834V70H547.434ZM589.078 70V13.7H576.078V1.2H615.878V13.7H602.878V70H589.078Z" fill="white"/>
</svg>
