<svg width="716" height="82" viewBox="0 0 716 82" fill="none" xmlns="http://www.w3.org/2000/svg">
<path d="M28.1625 70L21.4625 46H14.0625V70H0.2625V1.2H23.4625C28.3958 1.2 32.0958 2.03333 34.5625 3.7C37.0958 5.36666 38.7958 7.76667 39.6625 10.9C40.5292 14.0333 40.9625 18.2333 40.9625 23.5C40.9625 28.5 40.4958 32.6333 39.5625 35.9C38.6958 39.1667 36.8958 41.6333 34.1625 43.3L42.4625 70H28.1625ZM20.1625 34.1C22.3625 34.1 23.9292 33.8667 24.8625 33.4C25.7958 32.8667 26.3958 31.9333 26.6625 30.6C26.9958 29.2 27.1625 26.8667 27.1625 23.6C27.1625 20.4 26.9958 18.1333 26.6625 16.8C26.3958 15.4667 25.7958 14.5667 24.8625 14.1C23.9292 13.5667 22.3625 13.3 20.1625 13.3H14.0625V34.1H20.1625ZM69.6766 70V1.2H103.077V13.3H83.4766V29.2H100.377V41.3H83.4766V57.9H103.077V70H69.6766ZM151.666 41.8V30H170.566V68.7C168.233 69.3 165.4 69.8 162.066 70.2C158.733 70.6 155.633 70.8 152.766 70.8C146.433 70.8 141.7 69.8667 138.566 68C135.5 66.0667 133.366 62.6667 132.166 57.8C131.033 52.8667 130.466 45.4667 130.466 35.6C130.466 25.8 131.066 18.4667 132.266 13.6C133.533 8.66667 135.8 5.23333 139.066 3.29999C142.333 1.36666 147.233 0.399996 153.766 0.399996C156.433 0.399996 159.333 0.599995 162.466 0.999994C165.6 1.4 168.266 1.86666 170.466 2.39999V13.7C164.733 12.9 160.566 12.5 157.966 12.5C153.433 12.5 150.3 12.8667 148.566 13.6C146.9 14.3333 145.733 16.2333 145.066 19.3C144.466 22.3 144.166 27.7333 144.166 35.6C144.166 42.9333 144.366 48.1667 144.766 51.3C145.166 54.3667 145.933 56.4333 147.066 57.5C148.266 58.5667 150.266 59.1 153.066 59.1C153.666 59.1 155.266 59 157.866 58.8V41.8H151.666ZM200.497 70V1.2H233.897V13.3H214.297V29.2H231.197V41.3H214.297V57.9H233.897V70H200.497ZM292.087 70L276.087 32.3H275.687V70H262.587V1.2H275.887L290.787 36H291.287V1.2H304.487V70H292.087ZM343.73 70V13.7H330.73V1.2H370.53V13.7H357.53V70H343.73ZM421.127 70.6C419.394 70.7333 417.961 70.8 416.827 70.8C409.894 70.8 404.961 69.8 402.027 67.8C399.094 65.7333 397.261 62.4667 396.527 58C395.794 53.5333 395.427 46.0667 395.427 35.6C395.427 25.1333 395.794 17.6667 396.527 13.2C397.261 8.73333 399.094 5.5 402.027 3.5C404.961 1.43333 409.894 0.399996 416.827 0.399996C423.694 0.399996 428.594 1.43333 431.527 3.5C434.527 5.5 436.394 8.76666 437.127 13.3C437.861 17.7667 438.227 25.2 438.227 35.6C438.227 45 437.894 51.9 437.227 56.3C436.627 60.7 435.161 64.0667 432.827 66.4L441.827 81V81.5H427.327L421.127 70.6ZM416.827 58.7C419.494 58.7 421.294 58.3333 422.227 57.6C423.161 56.8667 423.761 55.0667 424.027 52.2C424.294 49.2667 424.427 43.7333 424.427 35.6C424.427 27.4667 424.294 21.9667 424.027 19.1C423.761 16.1667 423.161 14.3333 422.227 13.6C421.294 12.8667 419.494 12.5 416.827 12.5C414.161 12.5 412.361 12.8667 411.427 13.6C410.494 14.3333 409.894 16.1333 409.627 19C409.361 21.8667 409.227 27.4 409.227 35.6C409.227 43.8 409.361 49.3333 409.627 52.2C409.894 55.0667 410.494 56.8667 411.427 57.6C412.361 58.3333 414.161 58.7 416.827 58.7ZM507.913 1.2V39.5C507.913 48.5667 507.513 55.1667 506.713 59.3C505.98 63.3667 504.18 66.3 501.313 68.1C498.513 69.9 493.88 70.8 487.413 70.8C480.947 70.8 476.28 69.9 473.413 68.1C470.613 66.3 468.813 63.3667 468.013 59.3C467.28 55.1667 466.913 48.5667 466.913 39.5V1.2H480.613V44.1C480.613 48.9667 480.713 52.3333 480.913 54.2C481.18 56 481.747 57.2 482.613 57.8C483.547 58.4 485.147 58.7 487.413 58.7C489.68 58.7 491.247 58.4 492.113 57.8C492.98 57.2 493.513 56 493.713 54.2C493.98 52.4 494.113 49.0333 494.113 44.1V1.2H507.913ZM567.999 70L565.299 55.9H549.899L547.199 70H533.499L547.699 1.2H567.799L581.999 70H567.999ZM557.899 14.2H557.299L551.899 44H563.199L557.899 14.2ZM637.497 70L621.497 32.3H621.097V70H607.997V1.2H621.297L636.197 36H636.697V1.2H649.897V70H637.497ZM689.141 70V13.7H676.141V1.2H715.941V13.7H702.941V70H689.141Z" fill="#333333"/>
</svg>
