<svg width="500" height="282" viewBox="0 0 500 282" fill="none" xmlns="http://www.w3.org/2000/svg">
<path d="M500 0H0V281.25H500V0Z" fill="black"/>
<path d="M50 129.6H56.8667L85.6 165.8V129.467H89.8667V185.733L54.2667 140.467V185.2H50V129.6ZM97.5333 129.6H118.2L121.067 136C121.067 136 117.667 132.733 111.067 132.733H106.4V152.4H114.533C118.8 152.4 119.533 151.8 121.067 150.267V158.533C121.067 158.533 119.2 155.667 114.533 155.667H106.4V181.267H117.8C129.2 181.267 134.867 177 134.867 177L130.6 185.267H97.5333V129.733V129.6ZM383.067 129.6H405.867L408.733 136C408.733 136 405.6 132.733 398.733 132.733H391.067V152.4H399.867C403.267 152.4 404.133 152.133 405.533 151V157.267C405.533 157.267 404.533 155.267 399.867 155.267H391.2V181.467H396.6C406.6 181.467 410.267 178.6 410.267 178.6L405.267 185.133H382.933V129.6H383.067ZM123.467 129.6H132.267L151.067 170.067L154.933 161.8L140.667 129.6H148.933L159.067 151.267L169.067 129.6H173.333L161.933 157.2L168.067 170L186.133 129.733H191.133L165.933 185.667L157.4 167.133L148.867 185.667L123.467 129.6ZM269.133 127.6C288.667 127.6 300.467 141.133 300.467 156.067C300.467 175.4 289.8 187.667 269.733 187.667C249.533 187.667 237.533 172.733 237.533 157.733C237.533 140.933 250.333 127.533 269.267 127.533H269.133V127.6ZM245.933 156.533C245.933 169.667 253.333 183.867 270.133 183.867C285.8 183.867 291.933 171.067 291.933 156.8C291.933 145.4 284.133 130.867 268.733 130.867C258.133 130.933 245.933 139.133 245.933 156.533ZM307.133 129.467H319.933C327.067 129.467 332.733 133.467 332.733 140.867C332.733 149.4 326.467 151.8 322.067 153.267C330.067 154.667 333 158.4 333 168.933C333 179.6 335.867 183.467 338.133 183.467C340 183.467 341.533 182.333 342 181.467L343.133 182.2C342.733 182.8 340.6 186.2 335.467 186.2C330.333 186.2 326.2 181.533 326.2 170.533C326.2 154.467 321.933 154.133 318.4 154.133V153C318.4 153 325.8 151.267 325.8 142.333C325.8 133.8 320.667 132.667 318.667 132.667H314.8V185.333H306.533L306.8 129.8L307.133 129.467ZM413.933 129.467H427.067C434.2 129.467 439.867 133.467 439.867 140.867C439.867 149.4 433.467 151.8 429.067 153.267C437.067 154.667 440 158.4 440 168.933C440 179.6 442.867 183.467 445.133 183.467C446.867 183.467 448.4 182.333 448.867 181.467L450 182.2C449.6 182.8 447.467 186.2 442.333 186.2C437.2 186.2 433.2 181.533 433.2 170.533C433.2 154.467 428.933 154.133 425.4 154.133V153C425.667 153 432.933 151.267 432.933 142.333C432.933 133.8 427.8 132.667 425.8 132.667H421.933V185.333H413.667L413.933 129.8V129.467ZM369.8 168.8C369.8 179.6 372.333 183.467 374.933 183.467C376.8 183.467 378.2 182.067 378.8 181.467L379.933 182.067C379.667 182.467 377.533 185.933 372.267 185.933C367.133 185.933 363.267 181.667 363.267 170.267V168.133C363.267 161.6 362.867 156.467 361.867 153.2C360.867 150.333 357.6 148.533 356.2 148.533H354.733V185.267H346.467V129.733H354.6V146L369.267 129.467H374.533L358.867 146.867C367 148.267 369.8 154 369.8 166.8V168.8ZM242.333 95.1333H246.6V105.133H256.6V95.1333H260.867V118.333H256.6V106.933H246.6V118.333H242.333V95.1333ZM268.867 95.1333H279.667L281.067 98.5333C281.067 98.5333 278.8 97.1333 276.8 97.1333H272.933V105.133H276.667C278.667 105.133 279.2 104.267 279.2 104.267V108C279.2 108 278.6 106.867 276.667 106.867H272.933V116.867H278.067C281.933 116.867 283.467 114.867 283.467 114.867L281.6 118.733H268.8V95.0667H269.067L268.867 95.1333ZM228.8 96.8667H230.8C234.333 96.8667 237.2 99.2667 237.2 99.2667L235.8 95H216.6L215.2 99.2667C215.2 99.2667 218.067 96.8667 221.733 96.8667H224.133V118.2H228.4V96.8667H228.667H228.8ZM226 185.133V156.4L241.667 129.6H236.533L221.733 155.2L206.733 129.6H201.733L217.4 156.4V185.133H226Z" fill="white"/>
</svg>
