<svg width="500" height="282" viewBox="0 0 500 282" fill="none" xmlns="http://www.w3.org/2000/svg">
<rect width="500" height="281.25" fill="#E3120B"/>
<g clip-path="url(#clip0_88_854)">
<path fill-rule="evenodd" clip-rule="evenodd" d="M50.042 241.315H449.944V40.3803H50.042V241.315Z" fill="#E3120B"/>
<path fill-rule="evenodd" clip-rule="evenodd" d="M234.78 81.8544L235.019 91.5541L232.759 91.6721C232.581 85.7364 231.33 84.9259 222.307 84.9259H220.376V118.906C220.376 123.6 221.57 124.843 226.193 124.973L226.308 126.595C221.932 126.538 218.612 126.538 216.506 126.538C214.291 126.538 210.851 126.538 206.341 126.595L206.456 124.973C211.091 124.843 212.287 123.6 212.287 118.905V84.9246H210.03C200.762 84.9246 199.509 85.7364 199.39 91.6721L197.144 91.5541L197.366 81.8544C205.826 81.9108 212.156 81.9882 216.403 81.9882C220.376 81.9882 226.568 81.9108 234.78 81.8544ZM238.528 125.092C242.724 125.092 243.289 124.281 243.352 118.403V90.059C243.289 84.1692 242.723 83.3534 238.528 83.3534L238.403 81.8518C244.105 81.5449 245.411 81.3508 250.56 80.4223V99.6918C253.874 96.1207 256.572 94.682 260.27 94.682C266.397 94.682 269.785 98.438 269.785 105.574V118.403C269.848 124.281 270.412 125.092 274.598 125.092L274.705 126.595C271.103 126.477 268.347 126.346 266.531 126.346C264.766 126.346 262.199 126.477 258.758 126.595L258.889 125.092C262.199 124.598 262.517 123.982 262.578 118.403V109.01C262.578 101.125 261.208 98.5062 257.073 98.5062C254.872 98.5062 252.498 99.9331 251.498 102.13C251.121 102.883 250.869 103.687 250.618 104.501C250.56 104.826 250.56 105.065 250.56 105.192V118.403C250.56 123.982 250.936 124.598 254.24 125.092L254.375 126.595C250.869 126.477 248.29 126.346 246.546 126.346C244.729 126.346 241.97 126.477 238.403 126.595L238.528 125.092ZM284.787 106.706C290.54 106.577 292.291 106.439 298.001 105.822C297.248 99.7534 294.969 96.8708 291.103 96.8708C287.347 96.8708 285.405 99.8675 284.787 106.706ZM304.639 120.462C300.751 125.285 296.94 127.294 292.037 127.294C283.344 127.294 277.46 120.908 277.46 111.57C277.46 101.508 283.532 94.6794 292.292 94.6794C297.001 94.6794 300.388 96.4249 302.703 100.126C304.265 102.761 304.698 104.568 304.757 109.079H284.965C285.227 118.467 288.66 123.844 294.382 123.844C297.752 123.844 300.629 122.277 303.704 118.716L304.639 120.462ZM73.9147 184.439C78.9954 184.31 80.3121 182.925 80.3121 177.715V145.138C80.3121 139.936 78.9954 138.552 73.9147 138.408L73.7127 136.729L84.3619 136.863L101.201 136.65L105.634 136.729L105.909 146.801L103.132 147.011C102.653 140.706 101.474 140.012 91.5934 140.012H90.059L89.3665 140.072V158.826C90.6727 158.826 91.7324 158.9 92.3593 158.9C93.423 158.977 94.4889 159.02 95.5554 159.028C100.987 159.028 102.24 157.861 102.298 152.703H104.667C104.458 156.831 104.458 158.969 104.458 161.047C104.458 162.717 104.458 165.062 104.527 168.181H102.298C102.025 163.207 100.907 162.23 95.6957 162.168L91.9357 162.089L89.297 162.23V176.748C89.297 182.652 89.6419 182.925 95.4819 182.925C103.208 182.925 105.506 181.188 106.189 174.574L108.969 174.723L107.37 186.247L102.025 186.321L85.1344 186.185L73.7114 186.247L73.9147 184.439ZM144.045 181.326C140.088 185.42 136.94 187.018 132.365 187.018C123.207 187.018 117.338 179.871 117.338 169.103C117.338 157.864 123.536 150.825 133.542 150.825C136.178 150.825 138.843 151.31 142.955 152.425L143.073 160.627L139.949 160.837C138.788 154.713 137.568 153.256 133.542 153.256C128.341 153.256 125.634 157.782 125.634 166.729C125.634 177.169 128.884 183.064 134.793 183.064C137.848 183.064 140.298 181.74 143.011 178.83L144.045 181.326ZM159.963 169.508C160.653 179.313 163.92 184.649 169.264 184.649C174.261 184.649 177.255 179.456 177.255 170.833C177.255 160.572 173.144 153.461 167.46 153.461C162.396 153.461 159.818 157.722 159.818 166.395C159.818 167.437 159.818 168.473 159.963 169.508ZM151.462 170.279V169.226C151.462 157.512 157.773 150.826 168.504 150.826C178.458 150.826 185.536 158.21 185.536 168.951C185.536 179.73 178.66 187.019 168.295 187.019C158.404 187.019 151.812 180.357 151.462 170.279ZM193.738 184.586C198.266 184.586 198.955 183.681 198.955 177.167V161.18C198.955 154.854 198.266 153.95 193.738 153.879L193.599 152.289C199.654 151.94 201.053 151.73 206.317 150.616L206.673 156.763C210.629 152.424 213.683 150.825 217.801 150.825C224.546 150.825 228.355 155.203 228.355 162.926V177.169C228.292 177.714 228.292 178.274 228.292 178.83C228.292 183.27 229.469 184.586 233.709 184.586L233.845 186.247C229.819 186.114 226.763 185.971 224.747 185.971C222.806 185.971 219.89 186.114 216.189 186.247L216.311 184.586C219.89 184.026 220.3 183.34 220.3 177.167L220.376 172.913V166.731C220.376 158 218.776 155.203 214.382 155.203C211.667 155.203 209.377 156.593 207.989 159.108C207.435 160.15 206.953 161.803 206.953 162.506V177.169C207.022 183.342 207.37 184.028 211.046 184.586L211.26 186.247C207.37 186.114 204.455 185.971 202.511 185.971C200.489 185.971 197.524 186.114 193.599 186.247L193.738 184.586ZM248.305 169.508C249.006 179.313 252.258 184.649 257.495 184.649C262.494 184.649 265.482 179.456 265.482 170.833C265.482 160.572 261.387 153.461 255.734 153.461C250.742 153.461 248.173 157.722 248.173 166.395C248.173 167.437 248.173 168.475 248.304 169.51M239.696 170.279V169.226C239.696 157.512 246.022 150.826 256.741 150.826C266.808 150.826 273.879 158.21 273.879 168.951C273.879 179.73 267.008 187.019 256.532 187.019C246.709 187.019 240.047 180.357 239.696 170.279ZM281.647 184.586C286.309 184.586 287.005 183.681 287.005 177.167V161.18C287.005 154.854 286.309 153.95 281.647 153.879L281.507 152.289C287.688 151.94 289.091 151.73 294.326 150.616L294.637 156.763C298.544 152.496 301.605 150.825 305.7 150.825C310.421 150.825 313.191 152.771 315.161 157.304C319.403 152.556 322.521 150.825 326.762 150.825C333.314 150.825 336.982 155.268 336.982 162.926V177.169C336.982 177.714 336.913 178.274 336.913 178.83C336.913 183.27 338.17 184.586 342.329 184.586L342.48 186.247C338.447 186.114 335.394 185.971 333.439 185.971C331.557 185.971 328.699 186.114 324.886 186.247L325.024 184.586C328.699 184.026 329.049 183.34 329.117 177.167V166.731C329.117 158.135 327.606 155.203 323.288 155.203C320.721 155.203 318.079 156.763 316.968 159.108C316.619 159.934 316.278 160.774 316.069 161.746C315.999 162.089 315.925 162.367 315.925 162.506V177.169C315.925 183.342 316.342 184.028 320.018 184.586L320.169 186.247C316.488 186.114 313.782 185.971 311.945 185.971C310.146 185.971 307.431 186.114 303.819 186.247L303.965 184.586C307.643 184.026 307.991 183.34 308.05 177.167V166.731C308.05 158.135 306.531 155.203 302.218 155.203C299.593 155.203 297.226 156.654 295.906 159.108C295.347 160.214 294.9 161.803 294.9 162.506V177.169C294.969 183.342 295.28 184.028 298.963 184.586L299.102 186.247C295.28 186.114 292.476 185.971 290.54 185.971C288.517 185.971 285.538 186.114 281.507 186.247L281.647 184.586ZM352.952 139.043C352.95 138.438 353.067 137.84 353.297 137.281C353.527 136.722 353.865 136.214 354.292 135.787C354.719 135.359 355.226 135.02 355.784 134.789C356.342 134.557 356.941 134.439 357.545 134.439C360.122 134.439 362.197 136.576 362.197 139.043C362.197 141.668 360.189 143.757 357.545 143.757C354.909 143.757 352.952 141.742 352.952 139.043ZM361.848 150.616V172.913L361.913 177.167C361.913 183.68 362.549 184.584 367.262 184.584L367.407 186.247C363.095 186.114 359.972 185.972 357.824 185.972C355.745 185.972 352.699 186.114 348.497 186.247L348.628 184.584C353.213 184.584 353.867 183.68 353.867 177.167L353.932 172.913V165.626L353.867 161.183C353.867 154.854 353.212 153.95 348.628 153.881L348.497 152.287C354.771 151.874 356.22 151.66 361.848 150.616ZM375.768 185.005L375.495 177.917L379.029 177.788C380.628 183.131 381.675 184.167 385.357 184.167C388.544 184.167 390.635 182.506 390.635 180.012C390.635 177.642 389.179 175.921 384.795 172.982C382.578 171.456 381.054 170.405 380.223 169.789C378.41 168.403 377.092 166.73 376.396 164.866C375.971 163.822 375.768 162.578 375.768 161.119C375.768 154.93 380.085 150.825 386.602 150.825C389.029 150.825 390.421 151.032 395.929 152.351L396.08 159.245L392.551 159.389C391.764 154.854 390.354 153.256 387.095 153.256C383.97 153.256 381.743 155.064 381.743 157.51C381.743 159.934 382.862 161.391 386.469 163.681C389.727 165.839 392.223 167.773 393.919 169.301C395.866 171.171 396.982 173.529 396.982 176.153C396.982 182.287 391.828 187.018 385.218 187.018C382.654 187.018 380.223 186.447 375.768 185.005ZM404.334 152.843C409.811 152.424 411.883 150.072 413.454 142.847H416.576V152.218H425.331L424.353 156.033H416.576V172.982C416.576 181.402 417.692 183.405 422.412 183.405C423.519 183.405 424.556 183.268 426.231 182.788V184.795C423.874 186.115 420.611 186.875 417.283 186.875C414.21 186.875 411.364 185.146 410.17 182.573C409.126 180.422 408.785 178.274 408.785 173.672V156.033H404.334V152.843Z" fill="white"/>
</g>
<defs>
<clipPath id="clip0_88_854">
<rect width="400" height="201.967" fill="white" transform="translate(50 40)"/>
</clipPath>
</defs>
</svg>
