<svg width="407" height="74" viewBox="0 0 407 74" fill="none" xmlns="http://www.w3.org/2000/svg">
<path d="M21.1078 3.69999V40.3H24.8078C37.1078 40.3 43.1078 33.7 43.1078 22C43.1078 10.6 38.2078 3.69999 25.9078 3.69999H21.1078ZM29.4078 71.1V72H0.3078V71.1C4.3078 70.7 8.6078 69 8.6078 62.1V11.8C8.6078 4.89999 4.3078 3.29999 0.3078 2.89999V1.99999H29.1078C46.9078 1.99999 56.3078 10.7 56.3078 21C56.3078 29.7 50.7078 36.8 41.3078 40.1L53.8078 60.9C57.6078 67.3 62.4078 70.8 66.2078 71.1V72H46.1078L28.4078 42.1H21.1078V62.1C21.1078 69 25.2078 70.7 29.4078 71.1ZM125.867 51.3L122.867 72H68.6672V71.1C72.8672 70.7 76.9672 69 76.9672 62.1V11.9C76.9672 4.99999 72.8672 3.29999 68.6672 2.89999V1.99999H120.667L123.367 19H121.967C116.567 7.89999 107.067 3.69999 98.6672 3.69999H89.4672V34.8H95.6672C105.567 34.8 110.667 32.2 112.467 23.1H113.767V48.3H112.467C110.667 39.2 105.567 36.6 95.6672 36.6H89.4672V70.3H98.2672C109.167 70.3 121.167 63.8 124.367 51.3H125.867ZM196.846 49.6V66.8C191.146 70.2 181.346 73.7 171.546 73.7C149.946 73.7 133.246 57.7 133.246 37.1C133.246 14.9 150.646 0.299988 172.846 0.299988C182.346 0.299988 191.646 2.49998 196.346 4.99999L192.546 22.8L191.046 22.6C188.846 9.59999 181.046 2.09998 170.546 2.09998C156.346 2.09998 147.346 14.9 147.346 35.4C147.346 58.3 157.746 71.8 172.046 71.8C179.846 71.8 184.846 67.8 184.846 60.7V49.6C184.846 42.8 179.046 41 174.946 40.6V39.7H204.546V40.6C200.346 41 196.846 42.8 196.846 49.6ZM266.004 51.3L263.004 72H208.804V71.1C213.004 70.7 217.104 69 217.104 62.1V11.9C217.104 4.99999 213.004 3.29999 208.804 2.89999V1.99999H260.804L263.504 19H262.104C256.704 7.89999 247.204 3.69999 238.804 3.69999H229.604V34.8H235.804C245.704 34.8 250.804 32.2 252.604 23.1H253.904V48.3H252.604C250.804 39.2 245.704 36.6 235.804 36.6H229.604V70.3H238.404C249.304 70.3 261.304 63.8 264.504 51.3H266.004ZM330.883 73.3H329.083L284.383 14.3L284.483 55.5C284.483 66.6 290.383 70.7 297.383 71.1V72H271.183V71.1C277.183 70.8 281.883 67.8 281.983 55.4L282.283 20.6C282.383 10.1 278.083 3.79999 271.683 2.89999V1.99999H290.583L328.883 52.6L328.683 18.4C328.583 8.29999 323.983 3.29999 316.783 2.89999V1.99999H341.983V2.89999C334.883 3.19999 331.183 7.59998 331.183 18.4L330.883 73.3ZM347.62 1.99999H403.22L406.02 22.6H404.62L402.62 18.4C397.12 7.09999 392.42 3.69999 383.32 3.69999H381.52V61.6C381.52 68.9 385.62 70.7 389.82 71.1V72H360.72V71.1C364.92 70.7 369.02 68.9 369.02 61.6V3.69999H367.82C358.52 3.69999 352.42 7.99999 347.72 18.3L345.72 22.6H344.32L347.62 1.99999Z" fill="white"/>
</svg>
