<svg width="778" height="261" viewBox="0 0 778 261" fill="none" xmlns="http://www.w3.org/2000/svg">
<rect width="778" height="261" fill="white"/>
<path d="M358.632 81L351.042 59.55H356.742L360.522 71.76C360.942 73.11 361.332 75.21 361.332 75.21H361.392C361.392 75.21 361.782 73.11 362.202 71.76L366.042 59.55H371.652L364.092 81H358.632ZM373.446 63.6V59.55H378.516V63.6H373.446ZM373.386 81V65.55H378.576V81H373.386ZM381.209 79.08L383.429 75.6C383.429 75.6 385.139 77.16 387.359 77.16C388.139 77.16 388.889 76.95 388.889 76.44C388.889 75.09 381.659 74.94 381.659 69.9C381.659 66.99 384.449 65.19 388.019 65.19C391.619 65.19 393.449 66.96 393.449 66.96L391.679 70.65C391.679 70.65 390.179 69.39 388.019 69.39C387.239 69.39 386.489 69.6 386.489 70.14C386.489 71.31 393.719 71.49 393.719 76.47C393.719 79.11 391.379 81.36 387.389 81.36C383.519 81.36 381.209 79.08 381.209 79.08ZM396.59 63.6V59.55H401.66V63.6H396.59ZM396.53 81V65.55H401.72V81H396.53ZM404.414 73.32C404.414 68.46 408.314 65.19 413.144 65.19C418.034 65.19 421.934 68.46 421.934 73.32C421.934 78.15 418.034 81.36 413.174 81.36C408.314 81.36 404.414 78.15 404.414 73.32ZM409.664 73.32C409.664 75.63 411.284 77.04 413.174 77.04C415.064 77.04 416.684 75.63 416.684 73.32C416.684 70.98 415.064 69.51 413.174 69.51C411.284 69.51 409.664 70.98 409.664 73.32ZM424.626 81V65.55H429.606V66.9C429.606 67.41 429.546 67.86 429.546 67.86H429.606C430.326 66.66 431.796 65.19 434.526 65.19C437.646 65.19 440.076 66.63 440.076 70.98V81H434.886V71.94C434.886 70.5 434.316 69.9 433.176 69.9C431.556 69.9 430.566 70.8 430.116 72.12C429.906 72.72 429.816 73.41 429.816 74.16V81H424.626Z" fill="#2D5CF6"/>
<path d="M57.1309 138V123.88H65.3309V125.6H59.1109V130.02H64.1709V131.74H59.1109V136.28H65.6709V138H57.1309ZM67.3758 136.76L68.3158 135.38C68.3158 135.38 69.4558 136.56 71.2158 136.56C72.0558 136.56 72.8958 136.12 72.8958 135.3C72.8958 133.44 67.6958 133.82 67.6958 130.52C67.6958 128.68 69.3358 127.64 71.3558 127.64C73.5758 127.64 74.6158 128.76 74.6158 128.76L73.8358 130.22C73.8358 130.22 72.9358 129.32 71.3358 129.32C70.4958 129.32 69.6758 129.68 69.6758 130.56C69.6758 132.38 74.8758 131.98 74.8758 135.3C74.8758 136.98 73.4358 138.24 71.2158 138.24C68.7358 138.24 67.3758 136.76 67.3758 136.76ZM77.5806 134.3V129.58H76.2606V128.02H77.6406V125.1H79.5206V128.02H81.9606V129.58H79.5206V134.08C79.5206 136.1 80.9406 136.36 81.6806 136.36C81.9606 136.36 82.1406 136.32 82.1406 136.32V138.04C82.1406 138.04 81.8606 138.08 81.4606 138.08C80.1606 138.08 77.5806 137.68 77.5806 134.3ZM83.5086 135.16C83.5086 131.82 87.9086 131.68 89.6086 131.68H90.0486V131.5C90.0486 129.84 89.1086 129.28 87.8286 129.28C86.2686 129.28 85.0086 130.26 85.0086 130.26L84.2086 128.84C84.2086 128.84 85.6686 127.64 87.9886 127.64C90.5486 127.64 91.9886 129.04 91.9886 131.6V138H90.1886V137.04C90.1886 136.58 90.2286 136.24 90.2286 136.24H90.1886C90.1886 136.24 89.3686 138.24 86.9486 138.24C85.2086 138.24 83.5086 137.18 83.5086 135.16ZM85.4686 135.06C85.4686 135.88 86.1086 136.68 87.3686 136.68C89.0086 136.68 90.0686 134.96 90.0686 133.46V133.14H89.5686C88.1086 133.14 85.4686 133.24 85.4686 135.06ZM94.895 138V123.88H96.835V128.5C96.835 129 96.795 129.36 96.795 129.36H96.835C96.835 129.36 97.695 127.64 100.075 127.64C102.795 127.64 104.515 129.8 104.515 132.94C104.515 136.16 102.575 138.24 99.915 138.24C97.655 138.24 96.735 136.5 96.735 136.5H96.695C96.695 136.5 96.735 136.82 96.735 137.26V138H94.895ZM96.775 132.98C96.775 134.78 97.715 136.58 99.635 136.58C101.235 136.58 102.555 135.26 102.555 132.96C102.555 130.76 101.375 129.34 99.695 129.34C98.175 129.34 96.775 130.4 96.775 132.98ZM106.767 135.24V123.88H108.707V134.9C108.707 136.12 109.187 136.34 109.787 136.34C109.967 136.34 110.127 136.32 110.127 136.32V138.04C110.127 138.04 109.827 138.08 109.487 138.08C108.387 138.08 106.767 137.78 106.767 135.24ZM112.16 125.86V123.88H114.12V125.86H112.16ZM112.18 138V127.88H114.12V138H112.18ZM116.341 136.76L117.281 135.38C117.281 135.38 118.421 136.56 120.181 136.56C121.021 136.56 121.861 136.12 121.861 135.3C121.861 133.44 116.661 133.82 116.661 130.52C116.661 128.68 118.301 127.64 120.321 127.64C122.541 127.64 123.581 128.76 123.581 128.76L122.801 130.22C122.801 130.22 121.901 129.32 120.301 129.32C119.461 129.32 118.641 129.68 118.641 130.56C118.641 132.38 123.841 131.98 123.841 135.3C123.841 136.98 122.401 138.24 120.181 138.24C117.701 138.24 116.341 136.76 116.341 136.76ZM126.125 138V123.88H128.065V129.06C128.065 129.54 128.025 129.9 128.025 129.9H128.065C128.505 128.92 129.785 127.64 131.805 127.64C134.185 127.64 135.285 128.94 135.285 131.52V138H133.345V131.96C133.345 130.54 133.045 129.42 131.425 129.42C129.905 129.42 128.645 130.46 128.225 131.92C128.105 132.32 128.065 132.78 128.065 133.26V138H126.125ZM143.733 134.3V129.58H142.413V128.02H143.793V125.1H145.673V128.02H148.113V129.58H145.673V134.08C145.673 136.1 147.093 136.36 147.833 136.36C148.113 136.36 148.293 136.32 148.293 136.32V138.04C148.293 138.04 148.013 138.08 147.613 138.08C146.313 138.08 143.733 137.68 143.733 134.3ZM150.481 138V123.88H152.421V129.06C152.421 129.54 152.381 129.9 152.381 129.9H152.421C152.861 128.92 154.141 127.64 156.161 127.64C158.541 127.64 159.641 128.94 159.641 131.52V138H157.701V131.96C157.701 130.54 157.401 129.42 155.781 129.42C154.261 129.42 153.001 130.46 152.581 131.92C152.461 132.32 152.421 132.78 152.421 133.26V138H150.481ZM161.832 132.94C161.832 129.72 164.012 127.64 166.892 127.64C169.752 127.64 171.272 129.76 171.272 132.38C171.272 132.64 171.212 133.22 171.212 133.22H163.832C163.932 135.44 165.512 136.56 167.312 136.56C169.052 136.56 170.312 135.38 170.312 135.38L171.112 136.8C171.112 136.8 169.612 138.24 167.192 138.24C164.012 138.24 161.832 135.94 161.832 132.94ZM163.892 131.76H169.292C169.232 130.02 168.152 129.18 166.852 129.18C165.372 129.18 164.172 130.1 163.892 131.76ZM180.842 138L177.582 127.88H179.642L181.742 134.98C181.902 135.5 181.982 136.06 182.002 136.06H182.042C182.042 136.06 182.142 135.5 182.302 134.98L184.502 127.9H186.282L188.462 134.98C188.622 135.5 188.742 136.06 188.742 136.06H188.782C188.782 136.06 188.862 135.5 189.022 134.98L191.142 127.88H193.182L189.922 138H187.782L185.682 131.5C185.522 130.98 185.402 130.4 185.402 130.4H185.362C185.362 130.4 185.242 130.98 185.082 131.5L183.002 138H180.842ZM194.311 132.92C194.311 129.86 196.751 127.64 199.771 127.64C202.791 127.64 205.231 129.86 205.231 132.92C205.231 136 202.791 138.24 199.771 138.24C196.751 138.24 194.311 136 194.311 132.92ZM196.291 132.92C196.291 135.04 197.871 136.56 199.771 136.56C201.691 136.56 203.251 135.04 203.251 132.92C203.251 130.82 201.691 129.32 199.771 129.32C197.871 129.32 196.291 130.82 196.291 132.92ZM207.532 138V127.88H209.412V129.64C209.412 130.06 209.372 130.4 209.372 130.4H209.412C209.872 128.92 211.052 127.76 212.612 127.76C212.872 127.76 213.112 127.8 213.112 127.8V129.72C213.112 129.72 212.852 129.66 212.552 129.66C211.312 129.66 210.172 130.54 209.712 132.04C209.532 132.62 209.472 133.24 209.472 133.86V138H207.532ZM214.912 135.24V123.88H216.852V134.9C216.852 136.12 217.332 136.34 217.932 136.34C218.112 136.34 218.272 136.32 218.272 136.32V138.04C218.272 138.04 217.972 138.08 217.632 138.08C216.532 138.08 214.912 137.78 214.912 135.24ZM219.665 132.94C219.665 129.72 221.565 127.64 224.245 127.64C226.585 127.64 227.365 129.24 227.365 129.24H227.405C227.405 129.24 227.365 128.94 227.365 128.56V123.88H229.305V138H227.465V137.04C227.465 136.64 227.485 136.36 227.485 136.36H227.445C227.445 136.36 226.625 138.24 224.125 138.24C221.385 138.24 219.665 136.08 219.665 132.94ZM221.645 132.94C221.645 135.14 222.825 136.56 224.505 136.56C226.005 136.56 227.425 135.5 227.425 132.92C227.425 131.12 226.485 129.32 224.565 129.32C222.965 129.32 221.645 130.64 221.645 132.94ZM232.076 127.4V123.64H233.616V127.4H232.076ZM235.579 136.76L236.519 135.38C236.519 135.38 237.659 136.56 239.419 136.56C240.259 136.56 241.099 136.12 241.099 135.3C241.099 133.44 235.899 133.82 235.899 130.52C235.899 128.68 237.539 127.64 239.559 127.64C241.779 127.64 242.819 128.76 242.819 128.76L242.039 130.22C242.039 130.22 241.139 129.32 239.539 129.32C238.699 129.32 237.879 129.68 237.879 130.56C237.879 132.38 243.079 131.98 243.079 135.3C243.079 136.98 241.639 138.24 239.419 138.24C236.939 138.24 235.579 136.76 235.579 136.76ZM251.04 138V129.58H249.78V128.02H251.04V127.54C251.04 124.2 253.56 123.78 254.84 123.78C255.28 123.78 255.58 123.84 255.58 123.84V125.5C255.58 125.5 255.38 125.46 255.08 125.46C254.34 125.46 252.96 125.7 252.96 127.58V128.02H255.36V129.58H252.96V138H251.04ZM256.479 132.92C256.479 129.86 258.919 127.64 261.939 127.64C264.959 127.64 267.399 129.86 267.399 132.92C267.399 136 264.959 138.24 261.939 138.24C258.919 138.24 256.479 136 256.479 132.92ZM258.459 132.92C258.459 135.04 260.039 136.56 261.939 136.56C263.859 136.56 265.419 135.04 265.419 132.92C265.419 130.82 263.859 129.32 261.939 129.32C260.039 129.32 258.459 130.82 258.459 132.92ZM269.7 138V127.88H271.58V129.64C271.58 130.06 271.54 130.4 271.54 130.4H271.58C272.04 128.92 273.22 127.76 274.78 127.76C275.04 127.76 275.28 127.8 275.28 127.8V129.72C275.28 129.72 275.02 129.66 274.72 129.66C273.48 129.66 272.34 130.54 271.88 132.04C271.7 132.62 271.64 133.24 271.64 133.86V138H269.7ZM276.441 132.94C276.441 129.72 278.621 127.64 281.501 127.64C284.361 127.64 285.881 129.76 285.881 132.38C285.881 132.64 285.821 133.22 285.821 133.22H278.441C278.541 135.44 280.121 136.56 281.921 136.56C283.661 136.56 284.921 135.38 284.921 135.38L285.721 136.8C285.721 136.8 284.221 138.24 281.801 138.24C278.621 138.24 276.441 135.94 276.441 132.94ZM278.501 131.76H283.901C283.841 130.02 282.761 129.18 281.461 129.18C279.981 129.18 278.781 130.1 278.501 131.76ZM288.235 138V127.88H290.115V129.22C290.115 129.62 290.075 129.96 290.075 129.96H290.115C290.595 128.78 292.015 127.64 293.595 127.64C295.295 127.64 296.295 128.42 296.635 129.94H296.675C297.235 128.72 298.635 127.64 300.275 127.64C302.555 127.64 303.615 128.94 303.615 131.52V138H301.675V131.94C301.675 130.52 301.395 129.4 299.875 129.4C298.455 129.4 297.395 130.6 297.035 131.98C296.935 132.4 296.895 132.86 296.895 133.38V138H294.955V131.94C294.955 130.62 294.755 129.4 293.195 129.4C291.715 129.4 290.675 130.62 290.295 132.06C290.195 132.46 290.175 132.92 290.175 133.38V138H288.235ZM305.776 132.92C305.776 129.86 308.216 127.64 311.236 127.64C314.256 127.64 316.696 129.86 316.696 132.92C316.696 136 314.256 138.24 311.236 138.24C308.216 138.24 305.776 136 305.776 132.92ZM307.756 132.92C307.756 135.04 309.336 136.56 311.236 136.56C313.156 136.56 314.716 135.04 314.716 132.92C314.716 130.82 313.156 129.32 311.236 129.32C309.336 129.32 307.756 130.82 307.756 132.92ZM318.177 136.76L319.117 135.38C319.117 135.38 320.257 136.56 322.017 136.56C322.857 136.56 323.697 136.12 323.697 135.3C323.697 133.44 318.497 133.82 318.497 130.52C318.497 128.68 320.137 127.64 322.157 127.64C324.377 127.64 325.417 128.76 325.417 128.76L324.637 130.22C324.637 130.22 323.737 129.32 322.137 129.32C321.297 129.32 320.477 129.68 320.477 130.56C320.477 132.38 325.677 131.98 325.677 135.3C325.677 136.98 324.237 138.24 322.017 138.24C319.537 138.24 318.177 136.76 318.177 136.76ZM328.381 134.3V129.58H327.061V128.02H328.441V125.1H330.321V128.02H332.761V129.58H330.321V134.08C330.321 136.1 331.741 136.36 332.481 136.36C332.761 136.36 332.941 136.32 332.941 136.32V138.04C332.941 138.04 332.661 138.08 332.261 138.08C330.961 138.08 328.381 137.68 328.381 134.3ZM340.246 125.86V123.88H342.206V125.86H340.246ZM340.266 138V127.88H342.206V138H340.266ZM345.247 138V127.88H347.127V129.22C347.127 129.62 347.087 129.96 347.087 129.96H347.127C347.527 129.08 348.727 127.64 350.927 127.64C353.307 127.64 354.407 128.94 354.407 131.52V138H352.467V131.96C352.467 130.54 352.167 129.42 350.547 129.42C349.007 129.42 347.767 130.44 347.347 131.9C347.227 132.3 347.187 132.76 347.187 133.26V138H345.247ZM359.697 138L355.917 127.88H357.977L360.437 134.72C360.637 135.28 360.757 136.1 360.777 136.1H360.817C360.837 136.1 360.977 135.28 361.177 134.72L363.637 127.88H365.677L361.937 138H359.697ZM366.636 132.94C366.636 129.72 368.816 127.64 371.696 127.64C374.556 127.64 376.076 129.76 376.076 132.38C376.076 132.64 376.016 133.22 376.016 133.22H368.636C368.736 135.44 370.316 136.56 372.116 136.56C373.856 136.56 375.116 135.38 375.116 135.38L375.916 136.8C375.916 136.8 374.416 138.24 371.996 138.24C368.816 138.24 366.636 135.94 366.636 132.94ZM368.696 131.76H374.096C374.036 130.02 372.956 129.18 371.656 129.18C370.176 129.18 368.976 130.1 368.696 131.76ZM377.61 136.76L378.55 135.38C378.55 135.38 379.69 136.56 381.45 136.56C382.29 136.56 383.13 136.12 383.13 135.3C383.13 133.44 377.93 133.82 377.93 130.52C377.93 128.68 379.57 127.64 381.59 127.64C383.81 127.64 384.85 128.76 384.85 128.76L384.07 130.22C384.07 130.22 383.17 129.32 381.57 129.32C380.73 129.32 379.91 129.68 379.91 130.56C379.91 132.38 385.11 131.98 385.11 135.3C385.11 136.98 383.67 138.24 381.45 138.24C378.97 138.24 377.61 136.76 377.61 136.76ZM387.815 134.3V129.58H386.495V128.02H387.875V125.1H389.755V128.02H392.195V129.58H389.755V134.08C389.755 136.1 391.175 136.36 391.915 136.36C392.195 136.36 392.375 136.32 392.375 136.32V138.04C392.375 138.04 392.095 138.08 391.695 138.08C390.395 138.08 387.815 137.68 387.815 134.3ZM394.563 138V127.88H396.443V129.22C396.443 129.62 396.403 129.96 396.403 129.96H396.443C396.923 128.78 398.343 127.64 399.923 127.64C401.623 127.64 402.623 128.42 402.963 129.94H403.003C403.563 128.72 404.963 127.64 406.603 127.64C408.883 127.64 409.943 128.94 409.943 131.52V138H408.003V131.94C408.003 130.52 407.723 129.4 406.203 129.4C404.783 129.4 403.723 130.6 403.363 131.98C403.263 132.4 403.223 132.86 403.223 133.38V138H401.283V131.94C401.283 130.62 401.083 129.4 399.523 129.4C398.043 129.4 397.003 130.62 396.623 132.06C396.523 132.46 396.503 132.92 396.503 133.38V138H394.563ZM412.144 132.94C412.144 129.72 414.324 127.64 417.204 127.64C420.064 127.64 421.584 129.76 421.584 132.38C421.584 132.64 421.524 133.22 421.524 133.22H414.144C414.244 135.44 415.824 136.56 417.624 136.56C419.364 136.56 420.624 135.38 420.624 135.38L421.424 136.8C421.424 136.8 419.924 138.24 417.504 138.24C414.324 138.24 412.144 135.94 412.144 132.94ZM414.204 131.76H419.604C419.544 130.02 418.464 129.18 417.164 129.18C415.684 129.18 414.484 130.1 414.204 131.76ZM423.938 138V127.88H425.818V129.22C425.818 129.62 425.778 129.96 425.778 129.96H425.818C426.218 129.08 427.418 127.64 429.618 127.64C431.998 127.64 433.098 128.94 433.098 131.52V138H431.158V131.96C431.158 130.54 430.858 129.42 429.238 129.42C427.698 129.42 426.458 130.44 426.038 131.9C425.918 132.3 425.878 132.76 425.878 133.26V138H423.938ZM436.409 134.3V129.58H435.089V128.02H436.469V125.1H438.349V128.02H440.789V129.58H438.349V134.08C438.349 136.1 439.769 136.36 440.509 136.36C440.789 136.36 440.969 136.32 440.969 136.32V138.04C440.969 138.04 440.689 138.08 440.289 138.08C438.989 138.08 436.409 137.68 436.409 134.3ZM448.293 138V127.88H450.173V129.22C450.173 129.62 450.133 129.96 450.133 129.96H450.173C450.653 128.78 452.073 127.64 453.653 127.64C455.353 127.64 456.353 128.42 456.693 129.94H456.733C457.293 128.72 458.693 127.64 460.333 127.64C462.613 127.64 463.673 128.94 463.673 131.52V138H461.733V131.94C461.733 130.52 461.453 129.4 459.933 129.4C458.513 129.4 457.453 130.6 457.093 131.98C456.993 132.4 456.953 132.86 456.953 133.38V138H455.013V131.94C455.013 130.62 454.813 129.4 453.253 129.4C451.773 129.4 450.733 130.62 450.353 132.06C450.253 132.46 450.233 132.92 450.233 133.38V138H448.293ZM465.755 135.16C465.755 131.82 470.155 131.68 471.855 131.68H472.295V131.5C472.295 129.84 471.355 129.28 470.075 129.28C468.515 129.28 467.255 130.26 467.255 130.26L466.455 128.84C466.455 128.84 467.915 127.64 470.235 127.64C472.795 127.64 474.235 129.04 474.235 131.6V138H472.435V137.04C472.435 136.58 472.475 136.24 472.475 136.24H472.435C472.435 136.24 471.615 138.24 469.195 138.24C467.455 138.24 465.755 137.18 465.755 135.16ZM467.715 135.06C467.715 135.88 468.355 136.68 469.615 136.68C471.255 136.68 472.315 134.96 472.315 133.46V133.14H471.815C470.355 133.14 467.715 133.24 467.715 135.06ZM477.141 138V127.88H479.021V129.22C479.021 129.62 478.981 129.96 478.981 129.96H479.021C479.421 129.08 480.621 127.64 482.821 127.64C485.201 127.64 486.301 128.94 486.301 131.52V138H484.361V131.96C484.361 130.54 484.061 129.42 482.441 129.42C480.901 129.42 479.661 130.44 479.241 131.9C479.121 132.3 479.081 132.76 479.081 133.26V138H477.141ZM488.372 135.16C488.372 131.82 492.772 131.68 494.472 131.68H494.912V131.5C494.912 129.84 493.972 129.28 492.692 129.28C491.132 129.28 489.872 130.26 489.872 130.26L489.072 128.84C489.072 128.84 490.532 127.64 492.852 127.64C495.412 127.64 496.852 129.04 496.852 131.6V138H495.052V137.04C495.052 136.58 495.092 136.24 495.092 136.24H495.052C495.052 136.24 494.232 138.24 491.812 138.24C490.072 138.24 488.372 137.18 488.372 135.16ZM490.332 135.06C490.332 135.88 490.972 136.68 492.232 136.68C493.872 136.68 494.932 134.96 494.932 133.46V133.14H494.432C492.972 133.14 490.332 133.24 490.332 135.06ZM500.658 139.84C500.658 139.84 501.918 140.52 503.438 140.52C505.198 140.52 506.638 139.74 506.638 137.68V136.94C506.638 136.62 506.658 136.3 506.658 136.3H506.618C506.018 137.3 505.078 137.88 503.618 137.88C500.798 137.88 499.098 135.62 499.098 132.7C499.098 129.8 500.718 127.64 503.518 127.64C505.958 127.64 506.698 129.14 506.698 129.14H506.738C506.738 129.14 506.718 129 506.718 128.82V127.88H508.578V137.58C508.578 140.92 506.038 142.2 503.478 142.2C502.258 142.2 500.998 141.86 500.018 141.36L500.658 139.84ZM503.998 136.2C505.398 136.2 506.678 135.36 506.678 132.72C506.678 130.08 505.398 129.32 503.818 129.32C502.058 129.32 501.058 130.6 501.058 132.66C501.058 134.76 502.178 136.2 503.998 136.2ZM510.914 132.94C510.914 129.72 513.094 127.64 515.974 127.64C518.834 127.64 520.354 129.76 520.354 132.38C520.354 132.64 520.294 133.22 520.294 133.22H512.914C513.014 135.44 514.594 136.56 516.394 136.56C518.134 136.56 519.394 135.38 519.394 135.38L520.194 136.8C520.194 136.8 518.694 138.24 516.274 138.24C513.094 138.24 510.914 135.94 510.914 132.94ZM512.974 131.76H518.374C518.314 130.02 517.234 129.18 515.934 129.18C514.454 129.18 513.254 130.1 512.974 131.76ZM522.708 138V127.88H524.588V129.22C524.588 129.62 524.548 129.96 524.548 129.96H524.588C525.068 128.78 526.488 127.64 528.068 127.64C529.768 127.64 530.768 128.42 531.108 129.94H531.148C531.708 128.72 533.108 127.64 534.748 127.64C537.028 127.64 538.088 128.94 538.088 131.52V138H536.148V131.94C536.148 130.52 535.868 129.4 534.348 129.4C532.928 129.4 531.868 130.6 531.508 131.98C531.408 132.4 531.368 132.86 531.368 133.38V138H529.428V131.94C529.428 130.62 529.228 129.4 527.668 129.4C526.188 129.4 525.148 130.62 524.768 132.06C524.668 132.46 524.648 132.92 524.648 133.38V138H522.708ZM540.289 132.94C540.289 129.72 542.469 127.64 545.349 127.64C548.209 127.64 549.729 129.76 549.729 132.38C549.729 132.64 549.669 133.22 549.669 133.22H542.289C542.389 135.44 543.969 136.56 545.769 136.56C547.509 136.56 548.769 135.38 548.769 135.38L549.569 136.8C549.569 136.8 548.069 138.24 545.649 138.24C542.469 138.24 540.289 135.94 540.289 132.94ZM542.349 131.76H547.749C547.689 130.02 546.609 129.18 545.309 129.18C543.829 129.18 542.629 130.1 542.349 131.76ZM552.083 138V127.88H553.963V129.22C553.963 129.62 553.923 129.96 553.923 129.96H553.963C554.363 129.08 555.562 127.64 557.763 127.64C560.143 127.64 561.243 128.94 561.243 131.52V138H559.303V131.96C559.303 130.54 559.003 129.42 557.383 129.42C555.842 129.42 554.603 130.44 554.183 131.9C554.063 132.3 554.023 132.76 554.023 133.26V138H552.083ZM564.553 134.3V129.58H563.233V128.02H564.613V125.1H566.493V128.02H568.933V129.58H566.493V134.08C566.493 136.1 567.913 136.36 568.653 136.36C568.933 136.36 569.113 136.32 569.113 136.32V138.04C569.113 138.04 568.833 138.08 568.433 138.08C567.133 138.08 564.553 137.68 564.553 134.3ZM576.418 125.86V123.88H578.378V125.86H576.418ZM576.438 138V127.88H578.378V138H576.438ZM581.418 138V127.88H583.298V129.22C583.298 129.62 583.258 129.96 583.258 129.96H583.298C583.698 129.08 584.898 127.64 587.098 127.64C589.478 127.64 590.578 128.94 590.578 131.52V138H588.638V131.96C588.638 130.54 588.338 129.42 586.718 129.42C585.178 129.42 583.938 130.44 583.518 131.9C583.398 132.3 583.358 132.76 583.358 133.26V138H581.418ZM592.649 136.76L593.589 135.38C593.589 135.38 594.729 136.56 596.489 136.56C597.329 136.56 598.169 136.12 598.169 135.3C598.169 133.44 592.969 133.82 592.969 130.52C592.969 128.68 594.609 127.64 596.629 127.64C598.849 127.64 599.889 128.76 599.889 128.76L599.109 130.22C599.109 130.22 598.209 129.32 596.609 129.32C595.769 129.32 594.949 129.68 594.949 130.56C594.949 132.38 600.149 131.98 600.149 135.3C600.149 136.98 598.709 138.24 596.489 138.24C594.009 138.24 592.649 136.76 592.649 136.76ZM602.854 134.3V129.58H601.534V128.02H602.914V125.1H604.794V128.02H607.234V129.58H604.794V134.08C604.794 136.1 606.214 136.36 606.954 136.36C607.234 136.36 607.414 136.32 607.414 136.32V138.04C607.414 138.04 607.134 138.08 606.734 138.08C605.434 138.08 602.854 137.68 602.854 134.3ZM609.582 125.86V123.88H611.542V125.86H609.582ZM609.602 138V127.88H611.542V138H609.602ZM615.003 134.3V129.58H613.683V128.02H615.063V125.1H616.943V128.02H619.383V129.58H616.943V134.08C616.943 136.1 618.363 136.36 619.103 136.36C619.383 136.36 619.563 136.32 619.563 136.32V138.04C619.563 138.04 619.283 138.08 618.883 138.08C617.583 138.08 615.003 137.68 615.003 134.3ZM621.61 134.36V127.88H623.55V133.92C623.55 135.32 623.83 136.44 625.45 136.44C627.51 136.44 628.73 134.62 628.73 132.62V127.88H630.67V138H628.79V136.66C628.79 136.24 628.83 135.92 628.83 135.92H628.79C628.37 136.92 627.05 138.24 625.07 138.24C622.79 138.24 621.61 137.04 621.61 134.36ZM634.124 134.3V129.58H632.804V128.02H634.184V125.1H636.064V128.02H638.504V129.58H636.064V134.08C636.064 136.1 637.484 136.36 638.224 136.36C638.504 136.36 638.684 136.32 638.684 136.32V138.04C638.684 138.04 638.404 138.08 638.004 138.08C636.704 138.08 634.124 137.68 634.124 134.3ZM640.852 125.86V123.88H642.812V125.86H640.852ZM640.872 138V127.88H642.812V138H640.872ZM645.112 132.92C645.112 129.86 647.552 127.64 650.572 127.64C653.592 127.64 656.032 129.86 656.032 132.92C656.032 136 653.592 138.24 650.572 138.24C647.552 138.24 645.112 136 645.112 132.92ZM647.092 132.92C647.092 135.04 648.672 136.56 650.572 136.56C652.492 136.56 654.052 135.04 654.052 132.92C654.052 130.82 652.492 129.32 650.572 129.32C648.672 129.32 647.092 130.82 647.092 132.92ZM658.333 138V127.88H660.213V129.22C660.213 129.62 660.173 129.96 660.173 129.96H660.213C660.613 129.08 661.812 127.64 664.013 127.64C666.393 127.64 667.493 128.94 667.493 131.52V138H665.553V131.96C665.553 130.54 665.253 129.42 663.633 129.42C662.092 129.42 660.853 130.44 660.433 131.9C660.313 132.3 660.273 132.76 660.273 133.26V138H658.333ZM669.403 140.02L670.643 135.9H672.623L670.943 140.02H669.403ZM680.618 138V123.88H682.558V128.5C682.558 129 682.518 129.36 682.518 129.36H682.558C682.558 129.36 683.418 127.64 685.798 127.64C688.518 127.64 690.238 129.8 690.238 132.94C690.238 136.16 688.298 138.24 685.638 138.24C683.378 138.24 682.458 136.5 682.458 136.5H682.418C682.418 136.5 682.458 136.82 682.458 137.26V138H680.618ZM682.498 132.98C682.498 134.78 683.438 136.58 685.358 136.58C686.958 136.58 688.278 135.26 688.278 132.96C688.278 130.76 687.098 129.34 685.418 129.34C683.898 129.34 682.498 130.4 682.498 132.98ZM691.87 132.92C691.87 129.86 694.31 127.64 697.33 127.64C700.35 127.64 702.79 129.86 702.79 132.92C702.79 136 700.35 138.24 697.33 138.24C694.31 138.24 691.87 136 691.87 132.92ZM693.85 132.92C693.85 135.04 695.43 136.56 697.33 136.56C699.25 136.56 700.81 135.04 700.81 132.92C700.81 130.82 699.25 129.32 697.33 129.32C695.43 129.32 693.85 130.82 693.85 132.92ZM705.51 134.3V129.58H704.19V128.02H705.57V125.1H707.45V128.02H709.89V129.58H707.45V134.08C707.45 136.1 708.87 136.36 709.61 136.36C709.89 136.36 710.07 136.32 710.07 136.32V138.04C710.07 138.04 709.79 138.08 709.39 138.08C708.09 138.08 705.51 137.68 705.51 134.3ZM712.258 138V123.88H714.198V129.06C714.198 129.54 714.158 129.9 714.158 129.9H714.198C714.638 128.92 715.918 127.64 717.938 127.64C720.318 127.64 721.418 128.94 721.418 131.52V138H719.478V131.96C719.478 130.54 719.178 129.42 717.558 129.42C716.038 129.42 714.778 130.46 714.358 131.92C714.238 132.32 714.198 132.78 714.198 133.26V138H712.258ZM44.0873 178V169.58H42.8273V168.02H44.0873V167.54C44.0873 164.2 46.6073 163.78 47.8873 163.78C48.3273 163.78 48.6273 163.84 48.6273 163.84V165.5C48.6273 165.5 48.4273 165.46 48.1273 165.46C47.3873 165.46 46.0073 165.7 46.0073 167.58V168.02H48.4073V169.58H46.0073V178H44.0873ZM49.5261 172.92C49.5261 169.86 51.9661 167.64 54.9861 167.64C58.0061 167.64 60.4461 169.86 60.4461 172.92C60.4461 176 58.0061 178.24 54.9861 178.24C51.9661 178.24 49.5261 176 49.5261 172.92ZM51.5061 172.92C51.5061 175.04 53.0861 176.56 54.9861 176.56C56.9061 176.56 58.4661 175.04 58.4661 172.92C58.4661 170.82 56.9061 169.32 54.9861 169.32C53.0861 169.32 51.5061 170.82 51.5061 172.92ZM62.6066 174.36V167.88H64.5466V173.92C64.5466 175.32 64.8266 176.44 66.4466 176.44C68.5066 176.44 69.7266 174.62 69.7266 172.62V167.88H71.6666V178H69.7866V176.66C69.7866 176.24 69.8266 175.92 69.8266 175.92H69.7866C69.3666 176.92 68.0466 178.24 66.0666 178.24C63.7866 178.24 62.6066 177.04 62.6066 174.36ZM74.6997 178V167.88H76.5797V169.22C76.5797 169.62 76.5397 169.96 76.5397 169.96H76.5797C76.9797 169.08 78.1797 167.64 80.3797 167.64C82.7597 167.64 83.8597 168.94 83.8597 171.52V178H81.9197V171.96C81.9197 170.54 81.6197 169.42 79.9997 169.42C78.4597 169.42 77.2197 170.44 76.7997 171.9C76.6797 172.3 76.6397 172.76 76.6397 173.26V178H74.6997ZM86.0905 172.94C86.0905 169.72 87.9905 167.64 90.6705 167.64C93.0105 167.64 93.7905 169.24 93.7905 169.24H93.8305C93.8305 169.24 93.7905 168.94 93.7905 168.56V163.88H95.7305V178H93.8905V177.04C93.8905 176.64 93.9105 176.36 93.9105 176.36H93.8705C93.8705 176.36 93.0505 178.24 90.5505 178.24C87.8105 178.24 86.0905 176.08 86.0905 172.94ZM88.0705 172.94C88.0705 175.14 89.2505 176.56 90.9305 176.56C92.4305 176.56 93.8505 175.5 93.8505 172.92C93.8505 171.12 92.9105 169.32 90.9905 169.32C89.3905 169.32 88.0705 170.64 88.0705 172.94ZM98.0622 172.94C98.0622 169.72 100.242 167.64 103.122 167.64C105.982 167.64 107.502 169.76 107.502 172.38C107.502 172.64 107.442 173.22 107.442 173.22H100.062C100.162 175.44 101.742 176.56 103.542 176.56C105.282 176.56 106.542 175.38 106.542 175.38L107.342 176.8C107.342 176.8 105.842 178.24 103.422 178.24C100.242 178.24 98.0622 175.94 98.0622 172.94ZM100.122 171.76H105.522C105.462 170.02 104.382 169.18 103.082 169.18C101.602 169.18 100.402 170.1 100.122 171.76ZM109.196 172.94C109.196 169.72 111.096 167.64 113.776 167.64C116.116 167.64 116.896 169.24 116.896 169.24H116.936C116.936 169.24 116.896 168.94 116.896 168.56V163.88H118.836V178H116.996V177.04C116.996 176.64 117.016 176.36 117.016 176.36H116.976C116.976 176.36 116.156 178.24 113.656 178.24C110.916 178.24 109.196 176.08 109.196 172.94ZM111.176 172.94C111.176 175.14 112.356 176.56 114.036 176.56C115.536 176.56 116.956 175.5 116.956 172.92C116.956 171.12 116.016 169.32 114.096 169.32C112.496 169.32 111.176 170.64 111.176 172.94ZM126.184 175.16C126.184 171.82 130.584 171.68 132.284 171.68H132.724V171.5C132.724 169.84 131.784 169.28 130.504 169.28C128.944 169.28 127.684 170.26 127.684 170.26L126.884 168.84C126.884 168.84 128.344 167.64 130.664 167.64C133.224 167.64 134.664 169.04 134.664 171.6V178H132.864V177.04C132.864 176.58 132.904 176.24 132.904 176.24H132.864C132.864 176.24 132.044 178.24 129.624 178.24C127.884 178.24 126.184 177.18 126.184 175.16ZM128.144 175.06C128.144 175.88 128.784 176.68 130.044 176.68C131.684 176.68 132.744 174.96 132.744 173.46V173.14H132.244C130.784 173.14 128.144 173.24 128.144 175.06ZM137.571 178V167.88H139.451V169.22C139.451 169.62 139.411 169.96 139.411 169.96H139.451C139.851 169.08 141.051 167.64 143.251 167.64C145.631 167.64 146.731 168.94 146.731 171.52V178H144.791V171.96C144.791 170.54 144.491 169.42 142.871 169.42C141.331 169.42 140.091 170.44 139.671 171.9C139.551 172.3 139.511 172.76 139.511 173.26V178H137.571ZM148.962 172.94C148.962 169.72 150.862 167.64 153.542 167.64C155.882 167.64 156.662 169.24 156.662 169.24H156.702C156.702 169.24 156.662 168.94 156.662 168.56V163.88H158.602V178H156.762V177.04C156.762 176.64 156.782 176.36 156.782 176.36H156.742C156.742 176.36 155.922 178.24 153.422 178.24C150.682 178.24 148.962 176.08 148.962 172.94ZM150.942 172.94C150.942 175.14 152.122 176.56 153.802 176.56C155.302 176.56 156.722 175.5 156.722 172.92C156.722 171.12 155.782 169.32 153.862 169.32C152.262 169.32 150.942 170.64 150.942 172.94ZM166.03 172.92C166.03 169.86 168.47 167.64 171.49 167.64C174.51 167.64 176.95 169.86 176.95 172.92C176.95 176 174.51 178.24 171.49 178.24C168.47 178.24 166.03 176 166.03 172.92ZM168.01 172.92C168.01 175.04 169.59 176.56 171.49 176.56C173.41 176.56 174.97 175.04 174.97 172.92C174.97 170.82 173.41 169.32 171.49 169.32C169.59 169.32 168.01 170.82 168.01 172.92ZM179.25 182V167.88H181.03V168.74C181.03 169.14 180.99 169.48 180.99 169.48H181.03C181.03 169.48 181.89 167.64 184.43 167.64C187.15 167.64 188.87 169.8 188.87 172.94C188.87 176.16 186.93 178.24 184.29 178.24C182.07 178.24 181.19 176.58 181.19 176.58H181.15C181.15 176.58 181.19 176.94 181.19 177.46V182H179.25ZM181.13 172.98C181.13 174.78 182.13 176.58 183.99 176.58C185.59 176.58 186.91 175.26 186.91 172.96C186.91 170.76 185.73 169.34 184.05 169.34C182.53 169.34 181.13 170.4 181.13 172.98ZM190.543 172.94C190.543 169.72 192.723 167.64 195.603 167.64C198.463 167.64 199.983 169.76 199.983 172.38C199.983 172.64 199.923 173.22 199.923 173.22H192.543C192.643 175.44 194.223 176.56 196.023 176.56C197.763 176.56 199.023 175.38 199.023 175.38L199.823 176.8C199.823 176.8 198.323 178.24 195.903 178.24C192.723 178.24 190.543 175.94 190.543 172.94ZM192.603 171.76H198.003C197.943 170.02 196.863 169.18 195.563 169.18C194.083 169.18 192.883 170.1 192.603 171.76ZM202.336 178V167.88H204.216V169.64C204.216 170.06 204.176 170.4 204.176 170.4H204.216C204.676 168.92 205.856 167.76 207.416 167.76C207.676 167.76 207.916 167.8 207.916 167.8V169.72C207.916 169.72 207.656 169.66 207.356 169.66C206.116 169.66 204.976 170.54 204.516 172.04C204.336 172.62 204.276 173.24 204.276 173.86V178H202.336ZM209.016 175.16C209.016 171.82 213.416 171.68 215.116 171.68H215.556V171.5C215.556 169.84 214.616 169.28 213.336 169.28C211.776 169.28 210.516 170.26 210.516 170.26L209.716 168.84C209.716 168.84 211.176 167.64 213.496 167.64C216.056 167.64 217.496 169.04 217.496 171.6V178H215.696V177.04C215.696 176.58 215.736 176.24 215.736 176.24H215.696C215.696 176.24 214.876 178.24 212.456 178.24C210.716 178.24 209.016 177.18 209.016 175.16ZM210.976 175.06C210.976 175.88 211.616 176.68 212.876 176.68C214.516 176.68 215.576 174.96 215.576 173.46V173.14H215.076C213.616 173.14 210.976 173.24 210.976 175.06ZM220.764 174.3V169.58H219.444V168.02H220.824V165.1H222.704V168.02H225.144V169.58H222.704V174.08C222.704 176.1 224.124 176.36 224.864 176.36C225.144 176.36 225.324 176.32 225.324 176.32V178.04C225.324 178.04 225.044 178.08 224.644 178.08C223.344 178.08 220.764 177.68 220.764 174.3ZM226.812 172.94C226.812 169.72 228.992 167.64 231.872 167.64C234.732 167.64 236.252 169.76 236.252 172.38C236.252 172.64 236.192 173.22 236.192 173.22H228.812C228.912 175.44 230.492 176.56 232.292 176.56C234.032 176.56 235.292 175.38 235.292 175.38L236.092 176.8C236.092 176.8 234.592 178.24 232.172 178.24C228.992 178.24 226.812 175.94 226.812 172.94ZM228.872 171.76H234.272C234.212 170.02 233.132 169.18 231.832 169.18C230.352 169.18 229.152 170.1 228.872 171.76ZM237.946 172.94C237.946 169.72 239.846 167.64 242.526 167.64C244.866 167.64 245.646 169.24 245.646 169.24H245.686C245.686 169.24 245.646 168.94 245.646 168.56V163.88H247.586V178H245.746V177.04C245.746 176.64 245.766 176.36 245.766 176.36H245.726C245.726 176.36 244.906 178.24 242.406 178.24C239.666 178.24 237.946 176.08 237.946 172.94ZM239.926 172.94C239.926 175.14 241.106 176.56 242.786 176.56C244.286 176.56 245.706 175.5 245.706 172.92C245.706 171.12 244.766 169.32 242.846 169.32C241.246 169.32 239.926 170.64 239.926 172.94ZM255.754 178V163.88H257.694V168.5C257.694 169 257.654 169.36 257.654 169.36H257.694C257.694 169.36 258.554 167.64 260.934 167.64C263.654 167.64 265.374 169.8 265.374 172.94C265.374 176.16 263.434 178.24 260.774 178.24C258.514 178.24 257.594 176.5 257.594 176.5H257.554C257.554 176.5 257.594 176.82 257.594 177.26V178H255.754ZM257.634 172.98C257.634 174.78 258.574 176.58 260.494 176.58C262.094 176.58 263.414 175.26 263.414 172.96C263.414 170.76 262.234 169.34 260.554 169.34C259.034 169.34 257.634 170.4 257.634 172.98ZM266.327 181.58L267.007 180.1C267.007 180.1 267.567 180.52 268.187 180.52C268.967 180.52 269.627 179.96 270.007 179.04L270.507 177.88L266.267 167.88H268.447L270.987 174.5C271.187 175.02 271.367 175.72 271.367 175.72H271.407C271.407 175.72 271.567 175.04 271.747 174.52L274.207 167.88H276.307L271.567 179.82C270.947 181.38 269.707 182.2 268.287 182.2C267.147 182.2 266.327 181.58 266.327 181.58ZM282.539 170.92C282.539 166.84 285.619 163.64 289.739 163.64C293.119 163.64 294.879 165.34 294.879 165.34L293.879 166.82C293.879 166.82 292.299 165.44 289.899 165.44C286.579 165.44 284.579 167.86 284.579 170.88C284.579 174.16 286.819 176.42 289.779 176.42C292.219 176.42 293.779 174.66 293.779 174.66V172.62H291.479V170.9H295.579V178H293.839V177.12C293.839 176.82 293.859 176.52 293.859 176.52H293.819C293.819 176.52 292.279 178.24 289.479 178.24C285.679 178.24 282.539 175.24 282.539 170.92ZM297.574 172.94C297.574 169.72 299.754 167.64 302.634 167.64C305.494 167.64 307.014 169.76 307.014 172.38C307.014 172.64 306.954 173.22 306.954 173.22H299.574C299.674 175.44 301.254 176.56 303.054 176.56C304.794 176.56 306.054 175.38 306.054 175.38L306.854 176.8C306.854 176.8 305.354 178.24 302.934 178.24C299.754 178.24 297.574 175.94 297.574 172.94ZM299.634 171.76H305.034C304.974 170.02 303.894 169.18 302.594 169.18C301.114 169.18 299.914 170.1 299.634 171.76ZM309.368 178V167.88H311.248V169.22C311.248 169.62 311.208 169.96 311.208 169.96H311.248C311.648 169.08 312.848 167.64 315.048 167.64C317.428 167.64 318.528 168.94 318.528 171.52V178H316.588V171.96C316.588 170.54 316.288 169.42 314.668 169.42C313.128 169.42 311.888 170.44 311.468 171.9C311.348 172.3 311.308 172.76 311.308 173.26V178H309.368ZM321.698 173.16V171.44H327.538V173.16H321.698ZM329.351 178V176.68L336.151 166.88C336.691 166.08 337.171 165.58 337.171 165.58V165.54C337.171 165.54 336.791 165.6 336.111 165.6H329.711V163.88H339.631V165.18L332.831 175C332.291 175.78 331.811 176.28 331.811 176.28V176.32C331.811 176.32 332.191 176.28 332.871 176.28H339.711V178H329.351ZM341.22 180.02L342.46 175.9H344.44L342.76 180.02H341.22ZM351.614 176.76L352.554 175.38C352.554 175.38 353.694 176.56 355.454 176.56C356.294 176.56 357.134 176.12 357.134 175.3C357.134 173.44 351.934 173.82 351.934 170.52C351.934 168.68 353.574 167.64 355.594 167.64C357.814 167.64 358.854 168.76 358.854 168.76L358.074 170.22C358.074 170.22 357.174 169.32 355.574 169.32C354.734 169.32 353.914 169.68 353.914 170.56C353.914 172.38 359.114 171.98 359.114 175.3C359.114 176.98 357.674 178.24 355.454 178.24C352.974 178.24 351.614 176.76 351.614 176.76ZM360.699 172.94C360.699 169.72 362.879 167.64 365.759 167.64C368.619 167.64 370.139 169.76 370.139 172.38C370.139 172.64 370.079 173.22 370.079 173.22H362.699C362.799 175.44 364.379 176.56 366.179 176.56C367.919 176.56 369.179 175.38 369.179 175.38L369.979 176.8C369.979 176.8 368.479 178.24 366.059 178.24C362.879 178.24 360.699 175.94 360.699 172.94ZM362.759 171.76H368.159C368.099 170.02 367.019 169.18 365.719 169.18C364.239 169.18 363.039 170.1 362.759 171.76ZM372.913 174.3V169.58H371.593V168.02H372.973V165.1H374.853V168.02H377.293V169.58H374.853V174.08C374.853 176.1 376.273 176.36 377.013 176.36C377.293 176.36 377.473 176.32 377.473 176.32V178.04C377.473 178.04 377.193 178.08 376.793 178.08C375.493 178.08 372.913 177.68 372.913 174.3ZM380.081 174.3V169.58H378.761V168.02H380.141V165.1H382.021V168.02H384.461V169.58H382.021V174.08C382.021 176.1 383.441 176.36 384.181 176.36C384.461 176.36 384.641 176.32 384.641 176.32V178.04C384.641 178.04 384.361 178.08 383.961 178.08C382.661 178.08 380.081 177.68 380.081 174.3ZM386.809 165.86V163.88H388.769V165.86H386.809ZM386.829 178V167.88H388.769V178H386.829ZM391.809 178V167.88H393.689V169.22C393.689 169.62 393.649 169.96 393.649 169.96H393.689C394.089 169.08 395.289 167.64 397.489 167.64C399.869 167.64 400.969 168.94 400.969 171.52V178H399.029V171.96C399.029 170.54 398.729 169.42 397.109 169.42C395.569 169.42 394.329 170.44 393.909 171.9C393.789 172.3 393.749 172.76 393.749 173.26V178H391.809ZM404.76 179.84C404.76 179.84 406.02 180.52 407.54 180.52C409.3 180.52 410.74 179.74 410.74 177.68V176.94C410.74 176.62 410.76 176.3 410.76 176.3H410.72C410.12 177.3 409.18 177.88 407.72 177.88C404.9 177.88 403.2 175.62 403.2 172.7C403.2 169.8 404.82 167.64 407.62 167.64C410.06 167.64 410.8 169.14 410.8 169.14H410.84C410.84 169.14 410.82 169 410.82 168.82V167.88H412.68V177.58C412.68 180.92 410.14 182.2 407.58 182.2C406.36 182.2 405.1 181.86 404.12 181.36L404.76 179.84ZM408.1 176.2C409.5 176.2 410.78 175.36 410.78 172.72C410.78 170.08 409.5 169.32 407.92 169.32C406.16 169.32 405.16 170.6 405.16 172.66C405.16 174.76 406.28 176.2 408.1 176.2ZM420.032 175.16C420.032 171.82 424.432 171.68 426.132 171.68H426.572V171.5C426.572 169.84 425.632 169.28 424.352 169.28C422.792 169.28 421.532 170.26 421.532 170.26L420.732 168.84C420.732 168.84 422.192 167.64 424.512 167.64C427.072 167.64 428.512 169.04 428.512 171.6V178H426.712V177.04C426.712 176.58 426.752 176.24 426.752 176.24H426.712C426.712 176.24 425.892 178.24 423.472 178.24C421.732 178.24 420.032 177.18 420.032 175.16ZM421.992 175.06C421.992 175.88 422.632 176.68 423.892 176.68C425.532 176.68 426.592 174.96 426.592 173.46V173.14H426.092C424.632 173.14 421.992 173.24 421.992 175.06ZM436.555 178V167.88H438.435V169.22C438.435 169.62 438.395 169.96 438.395 169.96H438.435C438.835 169.08 440.035 167.64 442.235 167.64C444.615 167.64 445.715 168.94 445.715 171.52V178H443.775V171.96C443.775 170.54 443.475 169.42 441.855 169.42C440.315 169.42 439.075 170.44 438.655 171.9C438.535 172.3 438.495 172.76 438.495 173.26V178H436.555ZM447.906 172.94C447.906 169.72 450.086 167.64 452.966 167.64C455.826 167.64 457.346 169.76 457.346 172.38C457.346 172.64 457.286 173.22 457.286 173.22H449.906C450.006 175.44 451.586 176.56 453.386 176.56C455.126 176.56 456.386 175.38 456.386 175.38L457.186 176.8C457.186 176.8 455.686 178.24 453.266 178.24C450.086 178.24 447.906 175.94 447.906 172.94ZM449.966 171.76H455.366C455.306 170.02 454.226 169.18 452.926 169.18C451.446 169.18 450.246 170.1 449.966 171.76ZM461.78 178L458.52 167.88H460.58L462.68 174.98C462.84 175.5 462.92 176.06 462.94 176.06H462.98C462.98 176.06 463.08 175.5 463.24 174.98L465.44 167.9H467.22L469.4 174.98C469.56 175.5 469.68 176.06 469.68 176.06H469.72C469.72 176.06 469.8 175.5 469.96 174.98L472.08 167.88H474.12L470.86 178H468.72L466.62 171.5C466.46 170.98 466.34 170.4 466.34 170.4H466.3C466.3 170.4 466.18 170.98 466.02 171.5L463.94 178H461.78ZM480.305 176.76L481.245 175.38C481.245 175.38 482.385 176.56 484.145 176.56C484.985 176.56 485.825 176.12 485.825 175.3C485.825 173.44 480.625 173.82 480.625 170.52C480.625 168.68 482.265 167.64 484.285 167.64C486.505 167.64 487.545 168.76 487.545 168.76L486.765 170.22C486.765 170.22 485.865 169.32 484.265 169.32C483.425 169.32 482.605 169.68 482.605 170.56C482.605 172.38 487.805 171.98 487.805 175.3C487.805 176.98 486.365 178.24 484.145 178.24C481.665 178.24 480.305 176.76 480.305 176.76ZM490.51 174.3V169.58H489.19V168.02H490.57V165.1H492.45V168.02H494.89V169.58H492.45V174.08C492.45 176.1 493.87 176.36 494.61 176.36C494.89 176.36 495.07 176.32 495.07 176.32V178.04C495.07 178.04 494.79 178.08 494.39 178.08C493.09 178.08 490.51 177.68 490.51 174.3ZM496.438 175.16C496.438 171.82 500.838 171.68 502.538 171.68H502.978V171.5C502.978 169.84 502.038 169.28 500.758 169.28C499.198 169.28 497.938 170.26 497.938 170.26L497.138 168.84C497.138 168.84 498.598 167.64 500.918 167.64C503.478 167.64 504.918 169.04 504.918 171.6V178H503.118V177.04C503.118 176.58 503.158 176.24 503.158 176.24H503.118C503.118 176.24 502.298 178.24 499.878 178.24C498.138 178.24 496.438 177.18 496.438 175.16ZM498.398 175.06C498.398 175.88 499.038 176.68 500.298 176.68C501.938 176.68 502.998 174.96 502.998 173.46V173.14H502.498C501.038 173.14 498.398 173.24 498.398 175.06ZM507.825 178V167.88H509.705V169.22C509.705 169.62 509.665 169.96 509.665 169.96H509.705C510.105 169.08 511.305 167.64 513.505 167.64C515.885 167.64 516.985 168.94 516.985 171.52V178H515.045V171.96C515.045 170.54 514.745 169.42 513.125 169.42C511.585 169.42 510.345 170.44 509.925 171.9C509.805 172.3 509.765 172.76 509.765 173.26V178H507.825ZM519.215 172.94C519.215 169.72 521.115 167.64 523.795 167.64C526.135 167.64 526.915 169.24 526.915 169.24H526.955C526.955 169.24 526.915 168.94 526.915 168.56V163.88H528.855V178H527.015V177.04C527.015 176.64 527.035 176.36 527.035 176.36H526.995C526.995 176.36 526.175 178.24 523.675 178.24C520.935 178.24 519.215 176.08 519.215 172.94ZM521.195 172.94C521.195 175.14 522.375 176.56 524.055 176.56C525.555 176.56 526.975 175.5 526.975 172.92C526.975 171.12 526.035 169.32 524.115 169.32C522.515 169.32 521.195 170.64 521.195 172.94ZM531.067 175.16C531.067 171.82 535.467 171.68 537.167 171.68H537.607V171.5C537.607 169.84 536.667 169.28 535.387 169.28C533.827 169.28 532.567 170.26 532.567 170.26L531.767 168.84C531.767 168.84 533.227 167.64 535.547 167.64C538.107 167.64 539.547 169.04 539.547 171.6V178H537.747V177.04C537.747 176.58 537.787 176.24 537.787 176.24H537.747C537.747 176.24 536.927 178.24 534.507 178.24C532.767 178.24 531.067 177.18 531.067 175.16ZM533.027 175.06C533.027 175.88 533.667 176.68 534.927 176.68C536.567 176.68 537.627 174.96 537.627 173.46V173.14H537.127C535.667 173.14 533.027 173.24 533.027 175.06ZM542.454 178V167.88H544.334V169.64C544.334 170.06 544.294 170.4 544.294 170.4H544.334C544.794 168.92 545.974 167.76 547.534 167.76C547.794 167.76 548.034 167.8 548.034 167.8V169.72C548.034 169.72 547.774 169.66 547.474 169.66C546.234 169.66 545.094 170.54 544.634 172.04C544.454 172.62 544.394 173.24 544.394 173.86V178H542.454ZM549.294 172.94C549.294 169.72 551.194 167.64 553.874 167.64C556.214 167.64 556.994 169.24 556.994 169.24H557.034C557.034 169.24 556.994 168.94 556.994 168.56V163.88H558.934V178H557.094V177.04C557.094 176.64 557.114 176.36 557.114 176.36H557.074C557.074 176.36 556.254 178.24 553.754 178.24C551.014 178.24 549.294 176.08 549.294 172.94ZM551.274 172.94C551.274 175.14 552.454 176.56 554.134 176.56C555.634 176.56 557.054 175.5 557.054 172.92C557.054 171.12 556.114 169.32 554.194 169.32C552.594 169.32 551.274 170.64 551.274 172.94ZM567.642 178V169.58H566.382V168.02H567.642V167.54C567.642 164.2 570.162 163.78 571.442 163.78C571.882 163.78 572.182 163.84 572.182 163.84V165.5C572.182 165.5 571.982 165.46 571.682 165.46C570.942 165.46 569.562 165.7 569.562 167.58V168.02H571.962V169.58H569.562V178H567.642ZM573.081 172.92C573.081 169.86 575.521 167.64 578.541 167.64C581.561 167.64 584.001 169.86 584.001 172.92C584.001 176 581.561 178.24 578.541 178.24C575.521 178.24 573.081 176 573.081 172.92ZM575.061 172.92C575.061 175.04 576.641 176.56 578.541 176.56C580.461 176.56 582.021 175.04 582.021 172.92C582.021 170.82 580.461 169.32 578.541 169.32C576.641 169.32 575.061 170.82 575.061 172.92ZM586.301 178V167.88H588.181V169.64C588.181 170.06 588.141 170.4 588.141 170.4H588.181C588.641 168.92 589.821 167.76 591.381 167.76C591.641 167.76 591.881 167.8 591.881 167.8V169.72C591.881 169.72 591.621 169.66 591.321 169.66C590.081 169.66 588.941 170.54 588.481 172.04C588.301 172.62 588.241 173.24 588.241 173.86V178H586.301ZM598.918 165.86V163.88H600.878V165.86H598.918ZM598.938 178V167.88H600.878V178H598.938ZM603.918 178V167.88H605.798V169.22C605.798 169.62 605.758 169.96 605.758 169.96H605.798C606.198 169.08 607.398 167.64 609.598 167.64C611.978 167.64 613.078 168.94 613.078 171.52V178H611.138V171.96C611.138 170.54 610.838 169.42 609.218 169.42C607.678 169.42 606.438 170.44 606.018 171.9C605.898 172.3 605.858 172.76 605.858 173.26V178H603.918ZM615.969 178V167.88H617.849V169.22C617.849 169.62 617.809 169.96 617.809 169.96H617.849C618.249 169.08 619.449 167.64 621.649 167.64C624.029 167.64 625.129 168.94 625.129 171.52V178H623.189V171.96C623.189 170.54 622.889 169.42 621.269 169.42C619.729 169.42 618.489 170.44 618.069 171.9C617.949 172.3 617.909 172.76 617.909 173.26V178H615.969ZM627.28 172.92C627.28 169.86 629.72 167.64 632.74 167.64C635.76 167.64 638.2 169.86 638.2 172.92C638.2 176 635.76 178.24 632.74 178.24C629.72 178.24 627.28 176 627.28 172.92ZM629.26 172.92C629.26 175.04 630.84 176.56 632.74 176.56C634.66 176.56 636.22 175.04 636.22 172.92C636.22 170.82 634.66 169.32 632.74 169.32C630.84 169.32 629.26 170.82 629.26 172.92ZM642.9 178L639.12 167.88H641.18L643.64 174.72C643.84 175.28 643.96 176.1 643.98 176.1H644.02C644.04 176.1 644.18 175.28 644.38 174.72L646.84 167.88H648.88L645.14 178H642.9ZM649.72 175.16C649.72 171.82 654.12 171.68 655.82 171.68H656.26V171.5C656.26 169.84 655.32 169.28 654.04 169.28C652.48 169.28 651.22 170.26 651.22 170.26L650.42 168.84C650.42 168.84 651.88 167.64 654.2 167.64C656.76 167.64 658.2 169.04 658.2 171.6V178H656.4V177.04C656.4 176.58 656.44 176.24 656.44 176.24H656.4C656.4 176.24 655.58 178.24 653.16 178.24C651.42 178.24 649.72 177.18 649.72 175.16ZM651.68 175.06C651.68 175.88 652.32 176.68 653.58 176.68C655.22 176.68 656.28 174.96 656.28 173.46V173.14H655.78C654.32 173.14 651.68 173.24 651.68 175.06ZM661.467 174.3V169.58H660.147V168.02H661.527V165.1H663.407V168.02H665.847V169.58H663.407V174.08C663.407 176.1 664.827 176.36 665.567 176.36C665.847 176.36 666.027 176.32 666.027 176.32V178.04C666.027 178.04 665.747 178.08 665.347 178.08C664.047 178.08 661.467 177.68 661.467 174.3ZM668.195 165.86V163.88H670.155V165.86H668.195ZM668.215 178V167.88H670.155V178H668.215ZM672.456 172.92C672.456 169.86 674.896 167.64 677.916 167.64C680.936 167.64 683.376 169.86 683.376 172.92C683.376 176 680.936 178.24 677.916 178.24C674.896 178.24 672.456 176 672.456 172.92ZM674.436 172.92C674.436 175.04 676.016 176.56 677.916 176.56C679.836 176.56 681.396 175.04 681.396 172.92C681.396 170.82 679.836 169.32 677.916 169.32C676.016 169.32 674.436 170.82 674.436 172.92ZM685.676 178V167.88H687.556V169.22C687.556 169.62 687.516 169.96 687.516 169.96H687.556C687.956 169.08 689.156 167.64 691.356 167.64C693.736 167.64 694.836 168.94 694.836 171.52V178H692.896V171.96C692.896 170.54 692.596 169.42 690.976 169.42C689.436 169.42 688.196 170.44 687.776 171.9C687.656 172.3 687.616 172.76 687.616 173.26V178H685.676ZM702.044 175.16C702.044 171.82 706.444 171.68 708.144 171.68H708.584V171.5C708.584 169.84 707.644 169.28 706.364 169.28C704.804 169.28 703.544 170.26 703.544 170.26L702.744 168.84C702.744 168.84 704.204 167.64 706.524 167.64C709.084 167.64 710.524 169.04 710.524 171.6V178H708.724V177.04C708.724 176.58 708.764 176.24 708.764 176.24H708.724C708.724 176.24 707.904 178.24 705.484 178.24C703.744 178.24 702.044 177.18 702.044 175.16ZM704.004 175.06C704.004 175.88 704.644 176.68 705.904 176.68C707.544 176.68 708.604 174.96 708.604 173.46V173.14H708.104C706.644 173.14 704.004 173.24 704.004 175.06ZM713.43 178V167.88H715.31V169.22C715.31 169.62 715.27 169.96 715.27 169.96H715.31C715.71 169.08 716.91 167.64 719.11 167.64C721.49 167.64 722.59 168.94 722.59 171.52V178H720.65V171.96C720.65 170.54 720.35 169.42 718.73 169.42C717.19 169.42 715.95 170.44 715.53 171.9C715.41 172.3 715.37 172.76 715.37 173.26V178H713.43ZM724.821 172.94C724.821 169.72 726.721 167.64 729.401 167.64C731.741 167.64 732.521 169.24 732.521 169.24H732.561C732.561 169.24 732.521 168.94 732.521 168.56V163.88H734.461V178H732.621V177.04C732.621 176.64 732.641 176.36 732.641 176.36H732.601C732.601 176.36 731.781 178.24 729.281 178.24C726.541 178.24 724.821 176.08 724.821 172.94ZM726.801 172.94C726.801 175.14 727.981 176.56 729.661 176.56C731.161 176.56 732.581 175.5 732.581 172.92C732.581 171.12 731.641 169.32 729.721 169.32C728.121 169.32 726.801 170.64 726.801 172.94ZM296.907 216.76L297.847 215.38C297.847 215.38 298.987 216.56 300.747 216.56C301.587 216.56 302.427 216.12 302.427 215.3C302.427 213.44 297.227 213.82 297.227 210.52C297.227 208.68 298.867 207.64 300.887 207.64C303.107 207.64 304.147 208.76 304.147 208.76L303.367 210.22C303.367 210.22 302.467 209.32 300.867 209.32C300.027 209.32 299.207 209.68 299.207 210.56C299.207 212.38 304.407 211.98 304.407 215.3C304.407 216.98 302.967 218.24 300.747 218.24C298.267 218.24 296.907 216.76 296.907 216.76ZM305.952 212.92C305.952 209.86 308.392 207.64 311.412 207.64C314.432 207.64 316.872 209.86 316.872 212.92C316.872 216 314.432 218.24 311.412 218.24C308.392 218.24 305.952 216 305.952 212.92ZM307.932 212.92C307.932 215.04 309.512 216.56 311.412 216.56C313.332 216.56 314.892 215.04 314.892 212.92C314.892 210.82 313.332 209.32 311.412 209.32C309.512 209.32 307.932 210.82 307.932 212.92ZM318.452 212.94C318.452 209.94 320.692 207.64 323.872 207.64C326.412 207.64 327.672 209.12 327.672 209.12L326.752 210.48C326.752 210.48 325.672 209.32 323.952 209.32C321.912 209.32 320.432 210.84 320.432 212.92C320.432 214.98 321.912 216.56 324.012 216.56C325.892 216.56 327.132 215.2 327.132 215.2L327.912 216.62C327.912 216.62 326.512 218.24 323.872 218.24C320.692 218.24 318.452 215.98 318.452 212.94ZM330.09 205.86V203.88H332.05V205.86H330.09ZM330.11 218V207.88H332.05V218H330.11ZM334.27 215.16C334.27 211.82 338.67 211.68 340.37 211.68H340.81V211.5C340.81 209.84 339.87 209.28 338.59 209.28C337.03 209.28 335.77 210.26 335.77 210.26L334.97 208.84C334.97 208.84 336.43 207.64 338.75 207.64C341.31 207.64 342.75 209.04 342.75 211.6V218H340.95V217.04C340.95 216.58 340.99 216.24 340.99 216.24H340.95C340.95 216.24 340.13 218.24 337.71 218.24C335.97 218.24 334.27 217.18 334.27 215.16ZM336.23 215.06C336.23 215.88 336.87 216.68 338.13 216.68C339.77 216.68 340.83 214.96 340.83 213.46V213.14H340.33C338.87 213.14 336.23 213.24 336.23 215.06ZM345.537 215.24V203.88H347.477V214.9C347.477 216.12 347.957 216.34 348.557 216.34C348.737 216.34 348.897 216.32 348.897 216.32V218.04C348.897 218.04 348.597 218.08 348.257 218.08C347.157 218.08 345.537 217.78 345.537 215.24ZM356.086 218V207.88H357.966V209.64C357.966 210.06 357.926 210.4 357.926 210.4H357.966C358.426 208.92 359.606 207.76 361.166 207.76C361.426 207.76 361.666 207.8 361.666 207.8V209.72C361.666 209.72 361.406 209.66 361.106 209.66C359.866 209.66 358.726 210.54 358.266 212.04C358.086 212.62 358.026 213.24 358.026 213.86V218H356.086ZM362.828 212.94C362.828 209.72 365.008 207.64 367.888 207.64C370.748 207.64 372.268 209.76 372.268 212.38C372.268 212.64 372.208 213.22 372.208 213.22H364.828C364.928 215.44 366.508 216.56 368.308 216.56C370.048 216.56 371.308 215.38 371.308 215.38L372.108 216.8C372.108 216.8 370.608 218.24 368.188 218.24C365.008 218.24 362.828 215.94 362.828 212.94ZM364.888 211.76H370.288C370.228 210.02 369.148 209.18 367.848 209.18C366.368 209.18 365.168 210.1 364.888 211.76ZM373.802 216.76L374.742 215.38C374.742 215.38 375.882 216.56 377.642 216.56C378.482 216.56 379.322 216.12 379.322 215.3C379.322 213.44 374.122 213.82 374.122 210.52C374.122 208.68 375.762 207.64 377.782 207.64C380.002 207.64 381.042 208.76 381.042 208.76L380.262 210.22C380.262 210.22 379.362 209.32 377.762 209.32C376.922 209.32 376.102 209.68 376.102 210.56C376.102 212.38 381.302 211.98 381.302 215.3C381.302 216.98 379.862 218.24 377.642 218.24C375.162 218.24 373.802 216.76 373.802 216.76ZM383.586 222V207.88H385.366V208.74C385.366 209.14 385.326 209.48 385.326 209.48H385.366C385.366 209.48 386.226 207.64 388.766 207.64C391.486 207.64 393.206 209.8 393.206 212.94C393.206 216.16 391.266 218.24 388.626 218.24C386.406 218.24 385.526 216.58 385.526 216.58H385.486C385.486 216.58 385.526 216.94 385.526 217.46V222H383.586ZM385.466 212.98C385.466 214.78 386.466 216.58 388.326 216.58C389.926 216.58 391.246 215.26 391.246 212.96C391.246 210.76 390.066 209.34 388.386 209.34C386.866 209.34 385.466 210.4 385.466 212.98ZM394.839 212.92C394.839 209.86 397.279 207.64 400.299 207.64C403.319 207.64 405.759 209.86 405.759 212.92C405.759 216 403.319 218.24 400.299 218.24C397.279 218.24 394.839 216 394.839 212.92ZM396.819 212.92C396.819 215.04 398.399 216.56 400.299 216.56C402.219 216.56 403.779 215.04 403.779 212.92C403.779 210.82 402.219 209.32 400.299 209.32C398.399 209.32 396.819 210.82 396.819 212.92ZM408.059 218V207.88H409.939V209.22C409.939 209.62 409.899 209.96 409.899 209.96H409.939C410.339 209.08 411.539 207.64 413.739 207.64C416.119 207.64 417.219 208.94 417.219 211.52V218H415.279V211.96C415.279 210.54 414.979 209.42 413.359 209.42C411.819 209.42 410.579 210.44 410.159 211.9C410.039 212.3 409.999 212.76 409.999 213.26V218H408.059ZM419.29 216.76L420.23 215.38C420.23 215.38 421.37 216.56 423.13 216.56C423.97 216.56 424.81 216.12 424.81 215.3C424.81 213.44 419.61 213.82 419.61 210.52C419.61 208.68 421.25 207.64 423.27 207.64C425.49 207.64 426.53 208.76 426.53 208.76L425.75 210.22C425.75 210.22 424.85 209.32 423.25 209.32C422.41 209.32 421.59 209.68 421.59 210.56C421.59 212.38 426.79 211.98 426.79 215.3C426.79 216.98 425.35 218.24 423.13 218.24C420.65 218.24 419.29 216.76 419.29 216.76ZM429.055 205.86V203.88H431.015V205.86H429.055ZM429.075 218V207.88H431.015V218H429.075ZM434.055 218V203.88H435.995V208.5C435.995 209 435.955 209.36 435.955 209.36H435.995C435.995 209.36 436.855 207.64 439.235 207.64C441.955 207.64 443.675 209.8 443.675 212.94C443.675 216.16 441.735 218.24 439.075 218.24C436.815 218.24 435.895 216.5 435.895 216.5H435.855C435.855 216.5 435.895 216.82 435.895 217.26V218H434.055ZM435.935 212.98C435.935 214.78 436.875 216.58 438.795 216.58C440.395 216.58 441.715 215.26 441.715 212.96C441.715 210.76 440.535 209.34 438.855 209.34C437.335 209.34 435.935 210.4 435.935 212.98ZM446.027 205.86V203.88H447.987V205.86H446.027ZM446.047 218V207.88H447.987V218H446.047ZM450.908 215.24V203.88H452.848V214.9C452.848 216.12 453.328 216.34 453.928 216.34C454.108 216.34 454.268 216.32 454.268 216.32V218.04C454.268 218.04 453.968 218.08 453.628 218.08C452.528 218.08 450.908 217.78 450.908 215.24ZM456.301 205.86V203.88H458.261V205.86H456.301ZM456.321 218V207.88H458.261V218H456.321ZM461.721 214.3V209.58H460.401V208.02H461.781V205.1H463.661V208.02H466.101V209.58H463.661V214.08C463.661 216.1 465.081 216.36 465.821 216.36C466.101 216.36 466.281 216.32 466.281 216.32V218.04C466.281 218.04 466.001 218.08 465.601 218.08C464.301 218.08 461.721 217.68 461.721 214.3ZM467.049 221.58L467.729 220.1C467.729 220.1 468.289 220.52 468.909 220.52C469.689 220.52 470.349 219.96 470.729 219.04L471.229 217.88L466.989 207.88H469.169L471.709 214.5C471.909 215.02 472.089 215.72 472.089 215.72H472.129C472.129 215.72 472.289 215.04 472.469 214.52L474.929 207.88H477.029L472.289 219.82C471.669 221.38 470.429 222.2 469.009 222.2C467.869 222.2 467.049 221.58 467.049 221.58ZM478.235 218V215.94H480.275V218H478.235Z" fill="#333333"/>
</svg>
