<!-- by TradingView --><svg width="56" height="56" viewBox="0 0 56 56" xmlns="http://www.w3.org/2000/svg"><path fill="#F0F3FA" d="M0 0h56v56H0z"/><path fill-rule="evenodd" d="M28 43a15 15 0 1 0 0-30 15 15 0 0 0 0 30Zm.47-.68a13.6 13.6 0 1 0 0-27.19 13.6 13.6 0 0 0 0 27.19Z" fill="#012A40"/><path fill-rule="evenodd" d="M15.9 44.38c3.95 2.5 12.8-2.79 19.76-11.83 6.96-9.04 9.4-18.41 5.44-20.93-3.95-2.5-12.8 2.79-19.76 11.83-6.96 9.04-9.4 18.41-5.44 20.93Zm.84-1.46c3.58 2.32 11.59-2.57 17.89-10.92 6.3-8.35 8.5-17 4.92-19.32-3.58-2.32-11.59 2.57-17.89 10.92-6.3 8.35-8.5 17-4.92 19.32Z" fill="#012A40"/></svg>