<!-- by TradingView --><svg width="56" height="56" viewBox="0 0 56 56" xmlns="http://www.w3.org/2000/svg"><path fill="#F0F3FA" d="M0 0h56v56H0z"/><path d="M4 33h7.1l-.85-2H7.1l2.39-4.41L12.76 33H15L9.5 23 4 33Zm11-1.81V23h2v7.2c0 .42.27.8.63.8h10.9c.24 0 .47-.26.47-.55v-.94c0-.29-.23-.51-.47-.51h-6C21.7 29 21 27.96 21 26.95v-2.14c0-1 .69-1.81 1.54-1.81H52v2h-4v8h-2v-8H23.44c-.25 0-.44.31-.44.6v.9c0 .28.2.5.44.5h5.7c.84 0 1.86.82 1.86 1.82v2.37c0 1-1.02 1.81-1.87 1.81h-12.6c-.84 0-1.53-.81-1.53-1.81ZM42 27H32v2h10v-2Zm0 4H32v2h10v-2Z" fill="#40B6AC"/></svg>