<!-- by TradingView --><svg xmlns="http://www.w3.org/2000/svg" width="56" height="56" viewBox="0 0 56 56"><path fill="#FF2600" d="M0 0h56v56H0z"/><path d="M16.1 35H22l-3.14-18-4.7 7.05L16.1 35zM7 35h7.66l-1.7-9L7 35zm19.21-.28c3.66 1.16 7.65-1.36 8.91-5.62l.03-.1h-3.27c-1.14 2.25-3.4 2.67-4.97 2.65l1.96-9.06c1.5 0 3.49 1.06 3.66 3.41h2.97c-.17-3.12-1.95-5.84-4.7-6.72-3.66-1.16-7.65 1.36-8.91 5.62-1.27 4.26.67 8.66 4.32 9.82zm8.1.28h10.86l.6-3h-5.3l.75-3h5.14l.58-3h-4.98l.7-3h4.85c.33-1.8.54-3 .48-3H37.74l-3.43 15z" fill="#F0F3FA"/></svg>