<!-- by TradingView --><svg width="56" height="56" viewBox="0 0 56 56" xmlns="http://www.w3.org/2000/svg"><path fill="#F0F3FA" d="M0 0h56v56H0z"/><path d="m36.75 27.13-5.17-.8c.2 2.62.85 1.03-5.08 7.41a.67.67 0 0 1-.85.1l-1.08-.71-1.62 3.95a.65.65 0 0 1-.47.39.67.67 0 0 1-.6-.16l-1.35-1.25-5.4 5.73a.67.67 0 0 1-.92.04.61.61 0 0 1-.04-.88l5.84-6.21a.6.6 0 0 1 .46-.2.6.6 0 0 1 .47.17l1.15 1.04 1.56-3.82c.63-.94 1.6.16 2.27.56l4.45-4.7-.2-2.95 5.5.84 1.59-9.23-13.33 7.53 3.61.52 4.8-4.38a.67.67 0 0 1 .93.03c.25.25.23.65-.03.9l-5.26 4.78-7.92-1.12L39 14l-2.25 13.13Z" fill="url(#a2lsm4ckc)"/><path d="M42 42H14V14h1v27h27v1Z" fill="#2E414D"/><defs><linearGradient id="a2lsm4ckc" x1="51.63" y1="48.3" x2="58.54" y2="7.66" gradientUnits="userSpaceOnUse"><stop offset=".02" stop-color="#3560A5"/><stop offset=".11" stop-color="#1E70A9"/><stop offset=".22" stop-color="#0D7AAD"/><stop offset=".33" stop-color="#0381AE"/><stop offset=".48" stop-color="#0083AF"/><stop offset=".7" stop-color="#14A4C4"/><stop offset=".88" stop-color="#20B9D0"/></linearGradient></defs></svg>