<!-- by TradingView --><svg width="56" height="56" viewBox="0 0 56 56" xmlns="http://www.w3.org/2000/svg"><path fill="#004A9F" d="M0 0h56v56H0z"/><path fill="#AC0" d="M33 13h2v2h-2zM36 16h2v2h-2z"/><path fill="#fff" d="M37 13h1v1h-1zM39 17h1v1h-1zM41 30c-.28 7.2-6.44 13-13.18 13C20.9 43 14 37.46 14 30v-2.53c-1 .53-3 2.6-3 4.53-.14 1.85 1.99 3.49 3 4-1.43-.39-4-1.84-4-4 0-2.6 2.75-5.22 4.85-7 1.59-5.49 7.36-9 12.97-9 1.28 0 3.66.62 4.82 1H35v1.5c1.5 1.13 3.08 2.29 4 4a68.76 68.76 0 0 1-8.99 3.44l-1.2-4.65-5.12 1.53 1.2 4.65-4.28 1.28 1.43 5.57 4.28-1.28 1.2 4.65 5.12-1.53-1.2-4.65c4.72-1.18 11.35-2.28 12.13-8.18.28-2.16-3.28-2.46-5.07-2.33L37 19.5c3.5 0 8-.03 8 3.83 0 2.88-2.26 5.59-4 6.67Zm-4-8v-.99h-5V22h5Z"/><circle cx="26" cy="29" r="1" fill="#AC0"/><circle cx="24" cy="32" r="1" fill="#AC0"/><path d="M40.35 22.87c0 2.28-3.76 3.6-5.33 4.23a59.06 59.06 0 0 1-8.56 2.6l-.14-.74c2.25-.5 5.63-1.43 8.44-2.57 1.17-.47 4.87-1.7 4.87-3.52 0-.31-.42-.38-.63-.38v-.76c.67 0 1.35.38 1.35 1.14Z" fill="#AC0"/><path d="M42.14 23.65v.02c-.27 3.13-4.98 4.87-7.4 5.82a70.83 70.83 0 0 1-11.15 3.25l-.13-.75c2.8-.56 7.24-1.7 11.04-3.2 2.07-.83 6.66-2.44 6.92-5.17 0-.22-.12-.75-.42-.75v-.76c.78 0 1.14.9 1.14 1.54Z" fill="#AC0"/></svg>