<!-- by TradingView --><svg width="56" height="56" viewBox="0 0 56 56" xmlns="http://www.w3.org/2000/svg"><path fill="url(#axkxgu2bp)" d="M0 0h56v56H0z"/><path d="M28.05 12h.67a16.74 16.74 0 0 1 11.03 4.51c.18.16.39.34.4.6.02.26-.14.49-.34.64a.67.67 0 0 1-.92.01 15.12 15.12 0 0 0-13.63-3.96c-2.39.5-4.65 1.58-6.5 3.14a14.65 14.65 0 0 0-4.01 5.28 14.16 14.16 0 0 0-.35 10.73 14.3 14.3 0 0 0 3.93 5.75 15.15 15.15 0 0 0 14.17 3.26 14.86 14.86 0 0 0 5.18-2.64c.12-.1.23-.2.37-.26a.67.67 0 0 1 .7.14c.1.11.23.23.29.39.08.23.03.52-.17.68a16.43 16.43 0 0 1-13.84 3.38 16.8 16.8 0 0 1-6.46-2.9 16.22 16.22 0 0 1-4.95-5.85 15.58 15.58 0 0 1 1.23-15.92c1.48-2.12 3.5-3.9 5.82-5.1A16.83 16.83 0 0 1 28.05 12Zm-.53 2.72a13.78 13.78 0 0 1 11.34 4.78 13.14 13.14 0 0 1 2 13.83 13.36 13.36 0 0 1-8.04 7.26 14.26 14.26 0 0 1-7.88.35 13.4 13.4 0 0 1-9.86-10.03.62.62 0 0 1 .14-.67c.13-.15.33-.19.52-.24.24-.06.52.04.67.23a.9.9 0 0 1 .16.39 11.7 11.7 0 0 0 3.88 6.32 12.31 12.31 0 0 0 13.83 1.4c1.84-1 3.4-2.5 4.49-4.27a11.53 11.53 0 0 0 .65-10.93 11.95 11.95 0 0 0-5-5.4 12.31 12.31 0 0 0-7.97-1.42.68.68 0 0 1-.64-.25c-.11-.14-.13-.33-.17-.5a.64.64 0 0 1 .5-.7c.46-.07.92-.12 1.38-.15Zm.07 2.69c1.6-.12 3.2.12 4.7.68a10.8 10.8 0 0 1 5.68 4.92 10.4 10.4 0 0 1 1 7.32c-.04.18-.07.4-.2.54a.66.66 0 0 1-.67.2 1.12 1.12 0 0 1-.46-.2.63.63 0 0 1-.2-.64 8.85 8.85 0 0 0-1.77-7.96 9.4 9.4 0 0 0-6.7-3.4 9.34 9.34 0 0 0-9.59 6.71 8.8 8.8 0 0 0 .04 5.07 9.14 9.14 0 0 0 3.42 4.71c.3.2.34.64.12.91-.12.23-.35.42-.62.4-.21.02-.4-.1-.55-.22a10.67 10.67 0 0 1-4.08-6.43c-.36-1.77-.23-3.63.36-5.34a10.84 10.84 0 0 1 9.52-7.27Zm-.94 2.85c.19-.02.39 0 .54.13.19.14.25.38.3.6a.64.64 0 0 1-.58.73 6.65 6.65 0 0 0-4.42 3.26 6.45 6.45 0 0 0 3 8.82 6.69 6.69 0 0 0 5.85-.03 6.16 6.16 0 0 0 3.37-3.86c.32-1.04.36-2.16.13-3.23-.05-.2 0-.43.15-.59.14-.16.36-.2.56-.25.31-.06.64.13.74.42a8 8 0 0 1-.12 4.04 7.67 7.67 0 0 1-4.74 5.05 8.25 8.25 0 0 1-7.93-1.02 7.95 7.95 0 0 1-3.2-7.18 7.12 7.12 0 0 1 1.1-3.27 8.22 8.22 0 0 1 5.25-3.62Z" fill="#fff"/><defs><linearGradient id="axkxgu2bp" x1="10.42" y1="9.71" x2="68.15" y2="76.02" gradientUnits="userSpaceOnUse"><stop stop-color="#1A1E21"/><stop offset="1" stop-color="#06060A"/></linearGradient></defs></svg>