<!-- by TradingView --><svg width="56" height="56" viewBox="0 0 56 56" xmlns="http://www.w3.org/2000/svg"><path fill="#F0F3FA" d="M0 0h56v56H0z"/><path d="M51.68 26.07V22.6A5.86 5.86 0 0 0 49.2 22c-2.36-.06-3.8 1.6-3.96 3.6-.1 1.21.44 2.17 1.35 2.9.28.24.57.46.87.67l.6.45c.35.24.54.55.41.98-.12.44-.5.53-.87.59-.12 0-.24 0-.35-.03-.69-.1-1.2-.46-1.66-.93-.08-.1-.16-.19-.25-.27v3.57c.85.34 1.77.5 2.7.47.83 0 1.64-.25 2.32-.71 1.85-1.24 2.23-4.1.66-5.55-.3-.26-.62-.5-.94-.74l-.29-.22c-.3-.23-.6-.48-.88-.74-.34-.4-.22-.86.26-1.05.2-.09.43-.12.65-.09.57.06 1 .37 1.42.74.16.13.3.27.44.43ZM14 22l1.23.01c.81 0 1.63 0 2.44.09a5.1 5.1 0 0 1 4.18 2.52c.4.7.65 1.5.72 2.3a8.3 8.3 0 0 1-.5 4.2c-.72 1.7-2.07 2.53-3.83 2.78-.45.07-.9.1-1.35.1h-6.5l-.04-.2a21.1 21.1 0 0 1-.2-1.3H7.82l-.28 1.47H4C5.04 29.97 6.04 26 7.04 22h4.24l2.45 10.75H14L14.01 22ZM17 25v6c1.72.08 2.24-1.52 2.16-2.95 0-1.45-.41-3.05-2.16-3.05Zm-7.2 5-.3-2.36c-.1-.87-.2-1.73-.32-2.57h-.03l-.34 2.1L8.36 30h1.45Zm21.95 2.9.63-5.1.72-5.8h4.3l.45 2.9.52 3.39.2-1.04c.34-1.77.68-3.5 1-5.25h4.26l1.22 12h-3.6l-.16-3.66-.16-3.66h-.03L39.69 34h-2.86c-.2-1.33-.42-2.66-.63-3.98l-.53-3.3h-.03L35.26 34h-7a23.47 23.47 0 0 1-.25-1.48H25.7L25.4 34h-3.55c1.03-4.01 2.04-7.99 3.04-12h4.24l2.45 10.9c.1.04.12.04.16 0Zm-4.71-7.82H27l-.2 1.25c-.19 1.22-.38 2.48-.59 3.67h1.41l-.12-1.07c-.15-1.28-.3-2.6-.47-3.85Z" fill="#1E1A56"/></svg>