<!-- by TradingView --><svg xmlns="http://www.w3.org/2000/svg" width="56" height="56" viewBox="0 0 56 56"><path fill="#F0F3FA" d="M0 0h56v56H0z"/><path fill-rule="evenodd" d="M24.68 22.07c.1.1.1.25 0 .35-.22.24-.5.67-.58 1.18-.07.5.03 1.1.59 1.7a.25.25 0 0 1-.37.34 2.48 2.48 0 0 1-.71-2.12c.1-.63.43-1.15.71-1.44.1-.1.26-.1.36 0Zm3.64 0c-.1.1-.1.25 0 .35.22.24.5.67.57 1.18.08.5-.02 1.1-.58 1.7a.25.25 0 0 0 .37.34c.66-.72.8-1.47.7-2.12a2.76 2.76 0 0 0-.7-1.44.25.25 0 0 0-.36 0Zm-2.83.9a.25.25 0 0 0-.36-.35c-.2.2-.43.56-.5 1-.06.46.04.98.5 1.48a.25.25 0 1 0 .37-.34 1.24 1.24 0 0 1-.37-1.06c.05-.32.22-.6.36-.74Zm2.02-.36c-.1.1-.1.26 0 .35.13.15.3.42.36.74.04.3-.02.68-.37 1.06a.25.25 0 1 0 .37.34c.45-.5.56-1.02.49-1.48-.07-.44-.3-.8-.5-1a.25.25 0 0 0-.35 0Zm-.37 1.37c0 .29-.2.54-.46.62l1.94 5.05a.26.26 0 0 1-.48.19l-.56-1.46-2.47.78-.25.67a.26.26 0 1 1-.48-.18l1.87-5.08a.65.65 0 1 1 .9-.6Zm-.17 4.06-1.64.5.38-1 1.26.5Zm.32-.43-1-.4.75-.25.25.65Zm-.82-2.13.38 1-.86.3.48-1.3Zm21.27 4.01c-.4.32-.91.51-1.48.51-1.24 0-2.26-.93-2.26-2.08s1.02-2.08 2.26-2.08c.43 0 .83.1 1.17.3v.97a1.43 1.43 0 0 0-1.05-.44c-.76 0-1.38.58-1.38 1.28 0 .7.62 1.28 1.38 1.28.16 0 .3-.03.44-.07v-.74H46v-.76h1.74v1.83ZM4 30l1.56-4h1.08l1.59 4H7.16l-.3-.84H5.38l-.3.84H4Zm1.63-1.62.47-1.5.5 1.5h-.97ZM39.95 30H38.9l1.56-4h1.08l1.59 4h-1.08l-.29-.84h-1.49l-.3.84Zm.57-1.62.47-1.5.49 1.5h-.96ZM9 26h1.57a2 2 0 1 1 0 4H9v-4Zm1 .8h.37a1.2 1.2 0 1 1 0 2.4H10v-2.4Zm5.57-.8H14v4h1.57a2 2 0 1 0 0-4Zm-.2.8H15v2.4h.37a1.2 1.2 0 1 0 0-2.4ZM19 26l1.5 4h1l1.5-4h-1.1l-.9 2.91-.92-2.91H19Zm11 0v4h1v-2.41L32.69 30h1.01v-4h-1v2.5L31.04 26H30Zm8 0h-3v.72h1V30h1v-3.28h1V26Zm12.5 4h-1v-4H52v.72h-1.5v.95H52v.72h-1.5v.89H52V30h-1.5Z" fill="#233B7A"/></svg>