<!-- by TradingView --><svg xmlns="http://www.w3.org/2000/svg" width="56" height="56" viewBox="0 0 56 56"><path fill="#F0F3FA" d="M0 0h56v56H0z"/><path d="m6.29 31.37.01.27V33H6v-2h.36l.76 1.22.9-1.22h.28v2H8v-1.34c0-.1.06-.19.07-.28-.02.1-.06.2-.12.28l-.77 1.03H7.1l-.68-1.03a.95.95 0 0 1-.13-.3ZM13.3 33v-2H15v.3h-1.4v.52h.8v.3h-.8v.58H15v.3h-1.7ZM21.96 31c.23-.02.47.04.67.16a.9.9 0 0 1 .28.36c.07.15.1.31.09.47 0 .66-.35 1.01-1.04 1.01H21v-2h.96Zm-.03.3h-.63v1.4h.63c.2.02.4-.03.58-.15a.75.75 0 0 0 .19-.56.7.7 0 0 0-.19-.53.92.92 0 0 0-.58-.16ZM28.29 33H28v-2h.3v2h-.01ZM35.62 31.3h-1.3v1.38h1.3v-.46l.36.07v.24a.4.4 0 0 1-.1.36.38.38 0 0 1-.36.1h-1.08c-.18 0-.3-.03-.35-.1-.07-.07-.09-.2-.09-.38v-1.03a.52.52 0 0 1 .1-.37c.1-.08.23-.12.36-.1h1.08c.13-.02.25.02.35.1.09.1.12.24.1.37v.2l-.35.04v-.43h-.02ZM41 33l.86-2h.26l.88 2h-.31l-.2-.47h-1.03l-.19.47H41Zm.6-.75h.79l-.4-.95-.4.95ZM49.25 33v-2h.3v1.7H51v.3h-1.75Z" fill="#F18B21"/><path d="M18 25h-3v4h3v-1l.99.4v.2c0 .55-.08.92-.25 1.12-.18.19-.48.28-.94.28h-2.61c-.46 0-.77-.1-.94-.3-.17-.2-.25-.57-.25-1.12v-3.16c0-.55.08-.93.25-1.12.17-.2.48-.3.94-.3h2.62c.46 0 .77.09.94.28.17.2.25.57.25 1.13v.33L18 26v-1ZM23 24v5h3v-5h1v4.58c0 .55-.08.93-.24 1.12-.17.2-.46.3-.91.3h-2.7c-.45 0-.74-.1-.9-.3-.17-.2-.25-.57-.25-1.12V24h1ZM33 25v5h-1v-5h-2.5v-1l6 .03V25H33ZM50.04 25H47v1.48h2.84c.45 0 .75.1.91.3.17.2.25.57.25 1.13v.67c0 .85-.23 1.42-1.16 1.42h-2.68c-.61 0-1.16-.38-1.16-1.03v-.17l1-.3v.5h3v-1.63h-2.67c-.44 0-.93-.1-1.08-.3-.16-.2-.25-.57-.25-1.12v-.54c0-.98.32-1.41 1.33-1.41h2.42c.74 0 1.25.26 1.25 1.05v.3l-1 .25V25h.04Z" fill="#5A5A5A"/><path d="M7.5 28.01a.47.47 0 0 1 .13-.36.5.5 0 0 1 .36-.15c.13 0 .26.05.36.14.1.1.15.22.15.35a.47.47 0 0 1-.13.35.5.5 0 0 1-.36.16.5.5 0 0 1-.36-.13.47.47 0 0 1-.15-.36Z" fill="#F18B21"/><path d="M8.34 24 11 30H9.94L8 25.44 6.06 30H5l2.66-6h.68ZM39 24v5h3v-5h1v4.58c0 .55-.08.93-.24 1.12-.17.2-.46.3-.91.3h-2.7c-.45 0-.74-.1-.9-.3-.17-.2-.25-.57-.25-1.12V24h1Z" fill="#5A5A5A"/></svg>