<!-- by TradingView --><svg xmlns="http://www.w3.org/2000/svg" width="56" height="56"><path fill="#F0F3FA" d="M0 0h56v56H0z"/><path d="M28 21.47v-2.91c1.1-1.22 2.98-2.57 4.1-3.56 2.3-1.83 5.76-4.41 9.77-6-3.8 1.79-7 4.3-8.8 6h1.68a9.56 9.56 0 012.62-1.2c-.8.42-1.56.82-2.03 1.2-2.42 1.85-5.34 4.19-7.34 6.47zM14 28h5.55c1.92-3.3 4.8-6.51 7.45-9.29V15H14v13zm0 1v13c.86-4.1 2.5-8.78 4.8-13H14zm26.22-14c.48-.35 1.26-.72 2.06-1.12-1.05.4-2.04.65-2.74 1.12H38.3c.75-.61 2.22-1.46 3.43-2.06-1.3.43-3.14 1.22-4.22 2.06-2.39 1.89-6.86 5.33-9.5 8.7v2.93c3.37-4.32 8.85-9.16 12.22-11.63zM27 28v-2.43c-.52.72-1.54 1.6-2.06 2.43H27zm1 1v4.36c.93-1.34 2.7-3.1 3.8-4.36H28zm-7.63 0a47.19 47.19 0 00-4.5 13h1.08a52.02 52.02 0 015.2-13h-1.78zm2.6-1c1.05-1.7 2.77-3.4 4.03-4.97v-2.96c-1.95 2.36-4.32 5.08-5.91 7.93h1.87zM41 24.07c.85-.79 2.8-2.13 4-3.07-1.4.74-2.94 1.51-4 2.22A85.7 85.7 0 0035.02 28h3.62c.83-.82 1.69-1.66 2.56-2.4.6-.56 1.71-1.46 2.7-2.2-.99.46-2.13 1.12-2.9 1.6v-.93zM34.12 29A52.07 52.07 0 0028 36.41V42c1.52-3.94 5.47-8.9 9.33-13h-3.21zM27 42v-4.58A37.8 37.8 0 0024.36 42H27zm-4.17 0c.99-2.45 2.86-5.14 4.17-7.27v-4.5A53.98 53.98 0 0021.3 42h1.53zm1.26-13c-2.7 4.37-4.67 9.16-5.44 13h1.12a41.75 41.75 0 016.04-13h-1.72zm6 13H41V29h-1.66c-3.65 3.75-7.23 8.42-9.25 13zm2.78-28.2c-1.02.5-1.82.81-2.45 1.2H28v2.4c.79-.75 2.35-1.72 3.2-2.4.46-.38 1.44-1.02 1.67-1.2zM41 28c.42-.56 1.41-1.5 2.16-2.18A15.06 15.06 0 0040.37 28H41zm3.16-12.43A10 10 0 0041 17.03 57.52 57.52 0 0029.26 28h3.76A65.23 65.23 0 0141 20.71a22.3 22.3 0 012.53-1.55c-.8.25-1.85.66-2.53.96v-2.37c.74-.79 2.1-1.73 3.16-2.18z" fill="#1C1A1B"/></svg>