<!-- by TradingView --><svg width="56" height="56" viewBox="0 0 56 56" xmlns="http://www.w3.org/2000/svg"><path fill="#F0F3FA" d="M0 0h56v56H0z"/><path d="M19.82 19h13.72l5.74 7.45v.01l-13.52.3a92343.85 92343.85 0 0 0-5.96-7.74l.02-.02Z" fill="#232B6A"/><path d="M19.8 19.03a92345.37 92345.37 0 0 1 5.96 7.74l-12.13.28c-.02 0-.03 0-.01-.02l6.13-7.97.02-.01.03-.02Z" fill="#939499"/><path d="m46.23 31.58-.03.02a18.23 18.23 0 0 1-1.58.01l.76-2.69-.01-.02-.26.03-.04.02-1.34 1.67h-.03l-.33-.24-.01-.04.24-1.22s0-.02.02-.02l.23-.12.01-.01v-.01h-.01c-.14-.04-.36-.06-.45-.19-.08-.1-.05-.37-.06-.5v-.04l.03-.02.12-.08v-.03l-.13-.1a12.42 12.42 0 0 1-.02-.38c0-.29.31-.32.5-.35h.01a.01.01 0 0 0 0-.02l-.24-.13a.04.04 0 0 1-.02-.03l-.23-1.21v-.04l.33-.25h.03l1.34 1.67c.01.02.03.03.06.03l.25.03h.01v-.01l-.77-2.7a.01.01 0 0 1 0-.01.01.01 0 0 1 .01 0 15.01 15.01 0 0 1 1.67.04l-.7.05v.02l1.98 2.15c.06.06.12.11.2.15l1.2.61c.1.05.17.04.28.04.44 0 .88.02 1.32.05.48.03 1 .06 1.41.37l.02.02a.04.04 0 0 1-.02.05c-.38.28-.83.32-1.27.35l-1.44.06c-.12 0-.2-.01-.31.04l-1.2.61a.71.71 0 0 0-.18.15 249.73 249.73 0 0 0-1.98 2.17l.63.05Z" fill="#6D6E73"/><path d="m41.57 28.06 1.47.84c.03.02.03.02 0 .02L6.02 28.1 6 28.07h.34a761455.14 761455.14 0 0 0 36.7-.8l-1.47.76v.01Z" fill="#D01F2E"/><path d="M11.95 29.2c.03-.04.03-.06.09-.06l13.43.29c.03 0 .04.02.02.04L21.25 35l-.03.01H7.5v-.01l4.45-5.79Z" fill="#939499"/><path d="M41.8 29.79c.04 0 .06 0 .08.03A5587.23 5587.23 0 0 1 45.85 35H32.13s-.02 0-.03-.02l-4.2-5.46c-.02-.03-.02-.04.01-.04l13.89.3Z" fill="#232B6A"/></svg>