<!-- by TradingView --><svg xmlns="http://www.w3.org/2000/svg" width="56" height="56" viewBox="0 0 56 56"><path fill="#FF5A00" d="M0 0h56v56H0z"/><path d="M49.24 25.4a3.88 3.88 0 0 0-3.17-1.4c-2.27 0-4.1 1.61-4.07 3.9a4.11 4.11 0 0 0 4.07 4.1c1.22 0 2.42-.62 3.17-1.6.5-.73.77-1.6.76-2.5a4.3 4.3 0 0 0-.76-2.5zm-3.17 5.02c-.95.02-1.64-.7-1.92-1.58-.2-.61-.2-1.27 0-1.88.29-.88.97-1.56 1.92-1.58.94-.02 1.5.7 1.79 1.59.2.6.2 1.26 0 1.87 0 0-.57 1.55-1.8 1.58zM19 31.77c0 .13-.03.23-.2.23h-1.56a.23.23 0 0 1-.16-.06.25.25 0 0 1-.08-.17V21.23c0-.06.03-.12.08-.16.04-.04.1-.07.16-.07h1.52c.17 0 .24.1.24.23v10.54zm-3 0c0 .06-.01.12-.05.17a.23.23 0 0 1-.17.06h-1.55a.23.23 0 0 1-.16-.06.23.23 0 0 1-.07-.17V21.23c0-.06.03-.12.07-.16.04-.04.1-.07.16-.07h1.55c.06 0 .12.03.16.07.04.04.06.1.06.16v10.54zm26-7.32v.76c0 .04 0 .09-.02.12a.24.24 0 0 1-.17.16l-.12-.01c-1.5-.31-2.69.36-2.69 1.76v4.53c0 .13-.07.23-.2.23h-1.55c-.12 0-.25-.1-.25-.23v-4.62c0-2.18 2.28-3.16 3.9-3.15.3 0 .61.01.91.07.16.06.19.15.19.39v-.01zM36 28c.02-.9-.06-1.87-.57-2.6a3.88 3.88 0 0 0-3.17-1.4c-1.23 0-2.43.41-3.18 1.4a4.45 4.45 0 0 0 0 5 3.92 3.92 0 0 0 3.18 1.6s1.07.03 1.74-.43v1c.02.8-.63.88-1.37.92-.5.02-.75.03-1.25-.04-.2-.03-.38-.06-.38.16v1.6c0 .1.1.2.21.2 1.71.14 2.87.12 3.74-.38 1.14-.68 1.07-2 1.05-3.26V28zm-4.09 2.4c-2.2.03-2.25-5 .05-5 2.7 0 2.77 5-.05 5zM13 27.09c0-1.07-.25-1.88-.76-2.44-.5-.55-1.3-.65-2.24-.65-.94 0-2.1.26-2.91.74a.17.17 0 0 0-.06.06.18.18 0 0 0-.03.09v.97c0 .04.03.07.05.1a.2.2 0 0 0 .2.07.2.2 0 0 0 .1-.04c1.15-.73 2.6-.85 3.31-.5a1.24 1.24 0 0 1 .62 1.14v.17H9.36c-.83 0-3.36.3-3.36 2.67v.03a2.33 2.33 0 0 0 .82 1.9c.6.43 1.35.6 2.05.6h3.89c.06 0 .11-.03.16-.07.04-.05.08-.1.08-.17V27.1zm-1.72 3.46h-2.3c-.3 0-.57-.1-.81-.29a.91.91 0 0 1-.38-.77c0-.42.28-1.26 1.67-1.26h1.82v2.32zM23.92 24A3.87 3.87 0 0 0 20 27.9a4.13 4.13 0 0 0 4.01 4.1c1.32.03 2.12-.2 2.76-.57.07-.04.2-.1.23-.17V30c0-.21-.2-.32-.38-.2-.76.5-1.66.72-2.55.63-.51 0-1-.2-1.38-.55a2.14 2.14 0 0 1-.67-1.34h5.21c.06 0 .11-.03.16-.07.04-.04.06-.1.06-.15.1-1.45-.32-4.32-3.53-4.32zm-1.88 3c.02-.24.07-.37.17-.59a1.8 1.8 0 0 1 1.02-.93c.22-.08.46-.12.7-.1a1.55 1.55 0 0 1 1.21.47c.16.17.28.36.36.58.08.21.1.34.1.57h-3.56z" fill="#fff"/></svg>