<!-- by TradingView --><svg xmlns="http://www.w3.org/2000/svg" width="56" height="56" viewBox="0 0 56 56"><path fill="#F0F3FA" d="M0 0h56v56H0z"/><path d="M26 11.65c-3.18 2.2-4.39 5.31-4.54 7.13h1.99c1.38-4.48 3.5-5.58 4.61-5.58 1.8.02 4.09 3.3 4.5 5.58h2.03c-.19-2.98-3.25-6.21-4.59-7.13a3.4 3.4 0 0 0-4 0z" fill="url(#arghcaxbr)"/><path d="M11 25c0-2.17 5.87-6.1 11.48-5.88 4.82.2 4.8 3.98 4.18 5.88-.19-3.7-2.56-4.25-4.18-4.04-4.7.6-8.22 3.13-8.22 4.48 0 3.1 4.64 8.06 6.49 8.06 1.07 0 1.57-1.68 2.23-2.6a3.44 3.44 0 0 1 4.16-1.24c-1.8.1-3.1.98-3.74 3.67-.52 2.15-2.3 2.31-3.02 2.27C16.16 35.4 11 28.37 11 25z" fill="url(#brghcaxbr)"/><path d="M45 25c0-2.17-5.87-6.1-11.48-5.88-4.82.2-4.8 3.98-4.18 5.88.19-3.7 2.56-4.25 4.18-4.04 4.7.6 8.22 3.13 8.22 4.48 0 3.1-4.64 8.06-6.5 8.06-1.06 0-1.55-1.68-2.22-2.6a3.44 3.44 0 0 0-4.16-1.24c1.8.1 3.1.98 3.74 3.67.52 2.15 2.3 2.31 3.02 2.27C39.84 35.4 45 28.37 45 25z" fill="url(#crghcaxbr)"/><path d="M24.37 24.83a20 20 0 0 1-2.39-3.38h1.84c.22.39.55.91 2.25 3.38a7.84 7.84 0 0 1 1.49 4.7c-.08-.32-.96-1.02-3.83-1.18-2.87-.15-5.08 1.85-5.83 2.87l-1.51-1.84c3.25-3.4 7.59-2.66 9.35-1.86.12-.2 0-1.04-1.37-2.69z" fill="url(#drghcaxbr)"/><path d="M31.68 24.83a20 20 0 0 0 2.38-3.38h-1.84c-.21.39-.54.91-2.25 3.38a7.84 7.84 0 0 0-1.48 4.7c.08-.32.95-1.02 3.82-1.18 2.87-.15 5.09 1.85 5.84 2.87l1.5-1.84c-3.25-3.4-7.59-2.66-9.35-1.86-.12-.2 0-1.04 1.38-2.69z" fill="url(#erghcaxbr)"/><path d="M12.91 37.2a16.82 16.82 0 0 1 1.4-4.86l1.89 1.79-.53 1.55c.77.5 3.1 1.5 6.28 1.4 3.17-.1 4.88-1.69 5.34-2.47 0 .44-1.19 4.5-6.6 4.43-4.33-.06-6.99-1.25-7.78-1.84z" fill="#E3CAE0"/><path d="M43.1 37.2a16.82 16.82 0 0 0-1.4-4.86l-1.88 1.79.53 1.55c-.77.5-3.1 1.5-6.28 1.4-3.17-.1-4.88-1.69-5.34-2.47 0 .44 1.19 4.5 6.6 4.43 4.33-.06 6.99-1.25 7.78-1.84z" fill="url(#frghcaxbr)"/><path d="M28.87 32c0 1.34-.39 2.42-.87 2.42-.47 0-.86-1.08-.86-2.41 0-.98.21-1.83.51-2.2a2.37 2.37 0 0 0-1.9 2.38c0 .34.07.66.2.96-2.01.9-3.25 2.67-3.62 3.47l1.48-.15a7.07 7.07 0 0 1 2.66-2.53c.4.4.94.66 1.53.66.62 0 1.17-.27 1.57-.7.62.3 1.87 1.15 2.73 2.57l1.48.15a7.81 7.81 0 0 0-3.7-3.51c.1-.29.17-.6.17-.92 0-1.2-.82-2.2-1.9-2.38.3.37.52 1.22.52 2.2zm-4.93 6.83c.44.84 1.87 2.54 4.02 2.61 2.15.07 3.63-1.71 4.1-2.61.38.16 1.32.48 2.02.48 0 1.47-2.69 4.69-5.92 4.69-2.04 0-5.39-1.23-6.28-4.69a7.79 7.79 0 0 0 2.06-.48z" fill="url(#grghcaxbr)"/><defs><linearGradient id="arghcaxbr" x1="28.03" y1="11" x2="28.03" y2="18.78" gradientUnits="userSpaceOnUse"><stop stop-color="#E3CAE0"/><stop offset="1" stop-color="#E6CFE3"/></linearGradient><linearGradient id="brghcaxbr" x1="14.1" y1="21.25" x2="25.09" y2="31.94" gradientUnits="userSpaceOnUse"><stop stop-color="#8A3094"/><stop offset="1" stop-color="#B87CBC"/></linearGradient><linearGradient id="crghcaxbr" x1="39.35" y1="20.21" x2="31.1" y2="32.09" gradientUnits="userSpaceOnUse"><stop stop-color="#8A3094"/><stop offset="1" stop-color="#B87CBC"/></linearGradient><linearGradient id="drghcaxbr" x1="27.57" y1="27.56" x2="16.39" y2="27.82" gradientUnits="userSpaceOnUse"><stop stop-color="#EEDDED"/><stop offset="1" stop-color="#E3CAE0"/></linearGradient><linearGradient id="erghcaxbr" x1="39.2" y1="27.3" x2="28.47" y2="27.43" gradientUnits="userSpaceOnUse"><stop stop-color="#E3CAE0"/><stop offset="1" stop-color="#EEDDED"/></linearGradient><linearGradient id="frghcaxbr" x1="42.67" y1="34.86" x2="29.28" y2="36.43"><stop offset="1" stop-color="#E3CAE0"/></linearGradient><linearGradient id="grghcaxbr" x1="27.98" y1="29.81" x2="27.98" y2="44" gradientUnits="userSpaceOnUse"><stop stop-color="#BF8CC4"/><stop offset="1" stop-color="#98459F"/></linearGradient></defs></svg>