<!-- by TradingView --><svg width="56" height="56" viewBox="0 0 56 56" xmlns="http://www.w3.org/2000/svg"><path fill="#F0F3FA" d="M0 0h56v56H0z"/><path d="M15.87 34.24c-.72-.05-1.44-.12-2.18-.22-.87-.1-2.08-.52-2.5-1.33-1.03-2 2.43-4.24 3.8-4.95a20.74 20.74 0 0 1 5.94-2.06L28.33 13h.01a.03.03 0 0 1 .03 0h.01l9.3 15.91c0 .02.02.02.04.02A32.52 32.52 0 0 0 45 26.78a10.9 10.9 0 0 1-3.05 2.32 27.54 27.54 0 0 1-3.2 1.5c-.05.02-.06.05-.04.09l5.42 9.27a.02.02 0 0 1 0 .03l-.02.01h-7.8c-.01 0-.03 0-.04-.03l-4.23-7.24c-.02-.03-.05-.04-.08-.04a63.9 63.9 0 0 1-11.19 1.6l-.02.02-3.3 5.66a.06.06 0 0 1-.06.03h-4.81v-.02l3.31-5.69c.02-.03.01-.05-.02-.05ZM26.84 23.9l-3.85 6.57c-.02.04 0 .06.04.06a66.85 66.85 0 0 0 7.45-.47l-3.6-6.16c-.02-.02-.03-.02-.04 0Zm-9.43 5.44c.1.35.64.58.95.67.02 0 .04 0 .05-.02l2.09-3.57v-.01a.01.01 0 0 0-.02-.02 7.04 7.04 0 0 0-2.8 2.14c-.13.2-.34.57-.27.8Z" fill="#E60120"/></svg>