<!-- by TradingView --><svg width="56" height="56" xmlns="http://www.w3.org/2000/svg"><path fill="url(#paint0_linear)" d="M0 0h56v56H0z"/><path d="M40.864 33.075c-.276.74-1.248 2.296-2.876 3.37-1.63 1.074-3.444 2.794-5.206 3.541-2.224.945-4.14 1.108-5.145 1.403-1.006.297-2.662.95-3.702.95s-2.76-.043-3.973-.746c-1.213-.704-1.872-1.037-2.323-3.741-.451-2.704.59-5.15.728-6.334.14-1.184 2.07-5.817 2.556-7.038.485-1.225 1.6-4.652 2.675-6.393 1.073-1.74.928-3.284 2.217-3.816.965-.395 1.388-.023 2.189.282.859.328 2.184 1.11 2.981 1.816.797.704 5.165 5.74 5.165 5.74 1.006 1.446 2.357 2.965 3.12 4.409.762 1.444 1.318 2.184 1.456 3.667.138 1.48.416 2.148.138 2.89zm1.606-5.15c-.436-1.17-1.113-5.15-2.126-6.482-3.667-4.826-6.586-5.889-7.766-6.779-1.177-.888-3.496-1.87-4.921-2.32-.617-.196-1.907-.568-3.19-.161-1.703.54-2.149 1.334-3.224 2.852-1.074 1.519-2.183 5.63-2.737 7-.555 1.371-2.74 6.037-3.363 7.15-.435.775-3.432 5.296-3.12 7.48.164 1.152.104 3.743 2.566 5.002C18.128 43.477 21.07 44 23.462 44c2.392 0 3.947-.668 6.032-.668 1.975 0 4.437.076 6.448-.962 2.011-1.037 4.02-1.704 5.615-3.557 1.595-1.85 2.254-2.11 2.427-4.074.173-1.961-1.103-5.704-1.514-6.813z" fill="#0B69C8"/><path d="M33.55 34.176c-1.092.834-3.662 2.493-5.044 3.112-1.684.752-3.64 1.387-4.575 1.25-1.355-.202-1.639-2.529-1.378-3.584.259-1.056.39-3.418 1.066-5.25.676-1.835 2.158-5.196 2.47-6.084.311-.89 1.663-3.862 2.235-3.862.572 0 1.325.792 1.95 1.666.832 1.167 1.092 1.667 1.455 2.167.364.5 1.717 2.557 2.133 3.5.415.944 1.333 2.569 1.507 3.834.21 1.5-.727 2.417-1.82 3.25zm3.57-5.436c-.685-2.758-1.04-3.037-2.633-5.332-1.596-2.298-3.052-3.483-4.543-4.484-1.375-.922-3.238-2.226-3.64-2.037-.487.23-.901 1.334-1.317 2.37-.415 1.039-1.195 2.165-1.608 3.557-.437 1.481-1.144 4.28-1.303 4.89-.416 1.592-1.04 2.741-1.526 4.148-.485 1.408-.9 3.964-.45 5.815.297 1.22.728 1.74 2.323 2.11 1.595.371 3.396.076 4.783-.073 1.387-.148 3.79-.623 5.176-1.364 1.386-.741 1.48-1.118 2.381-1.822.912-.711 2.53-1.927 2.931-2.871.357-.84.017-2.527-.574-4.907z" fill="#0B69C8"/><path d="M30.82 31.064c-.13.472-.78.557-1.716 1.055-.936.501-2.112 1.342-2.418 1.057-.208-.195.364-1.472.416-2.084.053-.61.566-1.625.754-2.083.182-.445.49-1.239.65-1.278.16-.04 1.463 1.145 1.82 1.973.312.721.568 1.094.494 1.36zm2.054-1.36c-.26-.613-1.717-2.335-2.392-3.28-.676-.943-1.98-2.47-2.704-2.471-.506 0-1.04 2.584-1.508 3.695-.468 1.11-1.144 4.333-1.3 5-.155.666-.805 2.195-.208 2.556.396.24 1.976-.556 2.964-.778.988-.222 1.774-.753 2.548-1.166.832-.445 1.976-.778 2.6-1.445.624-.667.26-1.502 0-2.111z" fill="#D6371D"/><defs><linearGradient id="paint0_linear" x1="10.418" y1="9.712" x2="68.147" y2="76.017" gradientUnits="userSpaceOnUse"><stop stop-color="#1A1E21"/><stop offset="1" stop-color="#06060A"/></linearGradient></defs></svg>