<!-- by TradingView --><svg width="56" height="56" viewBox="0 0 56 56" xmlns="http://www.w3.org/2000/svg"><path fill="#F0F3FA" d="M0 0h56v56H0z"/><path d="M20.45 17H17v28h15v-3H20.45V17Z" fill="#E4883C"/><path d="M32 42h3v-3h-3v3ZM20 17h3.5v-3H20v3Z" fill="#7AB956"/><path d="M24 39V17h-4v25h12v-3h-8Z" fill="#C92028"/><path d="M24 10v4h11v25h4V10H24Z" fill="#879CCC"/><path d="M24 14v3h8v22h3V14H24Z" fill="#733B8F"/><path d="M24 39h8V17h-8v22Z" fill="#59142F"/><path d="M38 39.17h-2.45v3.2h-3.02v3.19H17V16.82h3v-3.2h3.5v9.6L19.94 33h1.9l.58-2h3.44l-.57-1.5H23l1.37-3.74L26.94 33H30v-8.5h2.13c1 0 1.89.94 1.87 1.92 0 1.16-.99 2.08-1.87 2.08H31V30h1.52c2.12 0 3.48-1.62 3.48-3.58 0-1.95-1.36-3.42-3.48-3.42H28v8l-2.7-8H24V10h14v29.17ZM23.5 10v3.2h-3.48v3.19H17V46h15.96v-3.2h3.02v-3.19H39V10H23.5Z" fill="#F0F3FA"/></svg>