<!-- by TradingView --><svg width="56" height="56" viewBox="0 0 56 56" xmlns="http://www.w3.org/2000/svg"><path fill="#F0F3FA" d="M0 0h56v56H0z"/><path d="M33 20.1c0 1.47-.96 1.9-2.24 1.9H30v2h-1v-6h1.76c1.28 0 2.24.67 2.24 2.1Zm-1 0c0-.8-.55-1.1-1.24-1.1H30v2h.64c.69 0 1.36-.08 1.36-.9ZM25.97 18h-.89L23 24h1.02l.32-1 .53-1.68.64-2.03.6 1.87.18.58.4 1.27.31.99h1.05l-2.08-6ZM9.35 29.08c0-1.97 1.1-3.08 2.74-3.08.46-.02.91.07 1.33.25v1.05a2.7 2.7 0 0 0-1.26-.3c-1.17 0-1.83.66-1.83 2.07 0 1.24.6 1.93 1.76 1.93.48.01.95-.09 1.37-.33v.99A3.1 3.1 0 0 1 12 32c-1.7 0-2.65-1.1-2.65-2.92ZM21 26v3.45c0 1 .54 1.55 1.5 1.55.97 0 1.5-.54 1.5-1.55V26h1v3.44C25 31 24.2 32 22.5 32c-1.75 0-2.5-.97-2.5-2.54V26h1ZM27 26v6h-1v-6h1ZM27.43 31.64v-1.01c.5.32 1.1.48 1.85.48.83 0 1.24-.26 1.24-.78 0-.48-.32-.7-1.37-.96-1.21-.32-1.7-.8-1.7-1.71 0-1.05.82-1.66 2.14-1.66.56-.02 1.11.08 1.63.29v.9c-.5-.2-1.05-.3-1.6-.3-.8 0-1.21.22-1.21.7 0 .4.23.6 1.19.85 1.36.36 1.9.84 1.9 1.8 0 1.14-.78 1.76-2.25 1.76a4 4 0 0 1-1.82-.36ZM33 26v6h-1v-6h1ZM39 27h-2v5h-1v-5h-2v-1h5v1ZM41 26v6h-1v-6h1ZM46.6 29c0 1.83-.96 3-2.57 3-1.61 0-2.59-1.16-2.59-3 0-1.83.98-3 2.6-3 1.6 0 2.57 1.16 2.57 3Zm-4.17 0c0 1.31.61 2.1 1.6 2.1.98 0 1.6-.79 1.6-2.1 0-1.3-.62-2.1-1.6-2.1-.99 0-1.6.8-1.6 2.1Z" fill="#0A509F"/><path d="M52 25h-1v4h1v-4Z" fill="#E30D3E"/><path d="M50.6 29.75 47.98 26H47v6h1v-4.25L51.03 32H52v-.25l-1.4-2ZM8 32h1.06l-2.09-6h-.89L4 32h1.03l.37-1.16.34-1.1.77-2.45.57 1.8.21.65.35 1.1L8 32ZM18.54 31c.4-.52.62-1.14.62-2 0-1.84-.96-3-2.57-3-1.62 0-2.59 1.17-2.59 3 0 1.75.88 2.88 2.35 3H19.59v-1h-1.05ZM15 29c0-1.3.6-2 1.59-2 .97 0 1.6.7 1.6 2 0 1.31-.63 2-1.6 2-.99 0-1.59-.69-1.59-2Z" fill="#0A509F"/><path d="M18.78 36.06c0-1.32.8-2.06 1.9-2.06.33 0 .66.05.96.18v.49c-.3-.14-.62-.21-.94-.2-.9 0-1.4.57-1.4 1.59 0 .85.46 1.48 1.33 1.48.36 0 .72-.08 1.03-.26v.48c-.32.16-.69.24-1.05.24-1.17 0-1.83-.75-1.83-1.94ZM27 36c0 1.21-.68 2-1.8 2-1.13 0-1.82-.79-1.82-2s.7-2 1.81-2c1.13 0 1.81.79 1.81 2Zm-3.09 0c0 .95.5 1.54 1.28 1.54s1.28-.59 1.28-1.54c0-.95-.5-1.54-1.28-1.54s-1.28.59-1.28 1.54ZM32.2 38h-.63l-.58-1.12a.65.65 0 0 0-.27-.31.69.69 0 0 0-.42-.09h-.73V38H29v-4h1.52c.9 0 1.5.37 1.5 1.18 0 .25-.07.5-.21.7-.15.21-.36.37-.6.46.15.08.26.2.32.36l.67 1.3Zm-1.7-2.02c.55 0 .93-.16.93-.71 0-.52-.38-.77-.92-.77h-.94v1.48h.94ZM37 35.34c0 .95-.55 1.37-1.43 1.37h-1.03V38H34v-4h1.57c.88 0 1.43.41 1.43 1.34Zm-.55 0c0-.6-.35-.84-.88-.84h-1.03v1.7h1.03c.53 0 .88-.24.88-.86Z" fill="#727171"/></svg>