<!-- by TradingView --><svg width="56" height="56" viewBox="0 0 56 56" xmlns="http://www.w3.org/2000/svg"><path fill="#F0F3FA" d="M0 0h56v56H0z"/><path d="M28 44a4 4 0 1 0 0-8 4 4 0 0 0 0 8ZM28 20a4 4 0 1 0 0-8 4 4 0 0 0 0 8Z" fill="#00A2C1"/><path d="M22.51 22.55a2.85 2.85 0 0 0 0-4.04l-1.83-1.82a2.9 2.9 0 0 0-4.08 0L11 22.25l5.9 5.85 5.61-5.55Z" fill="#0F484E"/><path d="M22.51 33.6 11 22.25v11.7l5.6 5.5a2.9 2.9 0 0 0 4.08 0l1.83-1.8a2.85 2.85 0 0 0 0-4.05Z" fill="#619A35"/><path d="M33.44 33.64a2.85 2.85 0 0 0 0 4.04l1.83 1.82a2.9 2.9 0 0 0 4.08 0L45 34l-5.65-6.5-5.91 6.14Z" fill="#0F484E"/><path d="M33.49 22.57 45 33.93V22.22l-5.6-5.5a2.9 2.9 0 0 0-4.08 0l-1.83 1.81a2.85 2.85 0 0 0 0 4.04Z" fill="#619A35"/></svg>