<!-- by TradingView --><svg xmlns="http://www.w3.org/2000/svg" width="56" height="56" viewBox="0 0 56 56"><path fill="#F0F3FA" d="M0 0h56v56H0z"/><path d="M42.45 35A7.16 7.16 0 0 0 49 30.7h-1.58a5.74 5.74 0 0 1-10.73-2.95c0-1.55.6-2.95 1.57-4h-1.78A7.28 7.28 0 0 0 42.45 35Zm-5.6-11.77a7.12 7.12 0 0 1 11.76.8h-1.72a5.72 5.72 0 0 0-8.12-.76c-.55-.03-1.24-.06-1.92-.04ZM30.15 20.5H26v4.33l1.4-.32v-2.67h2.78c1.2 0 2.23.64 2.79 1.6l1.38-.16a4.55 4.55 0 0 0-4.2-2.78Zm3.25 4.55c0-.35-.06-.7-.16-1l1.31-.19a4.56 4.56 0 0 1-3.5 5.66l3.8 5.48h-1.38l-4.7-6.73h1.41a3.22 3.22 0 0 0 3.22-3.22Zm-6 .05-1.4.48V35h1.4v-9.9ZM12.75 31.04 10.9 35h1.5l2.32-5.03c-.66.33-1.42.75-1.97 1.07Zm.52-1.1 1.87-.88 2.78-6 1.73 3.7c.41-.17.88-.35 1.2-.46L17.92 20l-4.65 9.93ZM23.51 35l-3.56-7.6 1.18-.5 3.76 8.1h-1.38Z" fill="#363434"/><path d="M22.6 25.4A47.8 47.8 0 0 0 5 35.27l.8.73c2.06-2.34 9.03-7.68 17.01-10.07 9.45-2.83 17.51-2.8 20.37-2.42l.38-.33A59.01 59.01 0 0 0 22.6 25.4Z" fill="#ED3437"/></svg>