<!-- by TradingView --><svg width="56" height="56" viewBox="0 0 56 56" xmlns="http://www.w3.org/2000/svg"><path fill="#F0F3FA" d="M0 0h56v56H0z"/><path d="M25.15 14.26c.07 0 .1-.07.1-.15 0-.07-.07-.11-.14-.11s-.11.08-.11.15c.04.08.07.11.15.11ZM27.12 17.39c.11.04.22 0 .26-.11.04-.12 0-.23-.11-.27-.11-.03-.22 0-.26.12-.03.07 0 .22.11.26ZM28.22 20.92a.5.5 0 0 0 .7-.14.5.5 0 0 0-.14-.7.5.5 0 0 0-.7.14.5.5 0 0 0 .14.7ZM24.59 26.91a1 1 0 0 0 .82-1.82 1 1 0 0 0-.82 1.82ZM22.3 19.34c.07-.07.1-.19.03-.26-.07-.08-.18-.11-.25-.04-.08.08-.11.19-.04.26.07.08.18.08.26.04ZM24.77 21.9c.25-.13.3-.43.12-.67-.12-.25-.42-.3-.66-.12-.25.12-.3.42-.12.66.18.25.42.3.66.12ZM29.29 12.4c.1-.03.18-.14.1-.26-.03-.11-.14-.18-.25-.11-.11.04-.18.15-.11.26.04.08.15.15.26.12ZM32.35 19.77c.42.34 1.03.3 1.42-.12.34-.42.3-1.03-.12-1.42a1.02 1.02 0 0 0-1.42.12c-.34.42-.3 1.07.12 1.42ZM30.83 14.88c.22-.19.22-.49.04-.7-.19-.23-.48-.23-.7-.04-.22.18-.22.48-.04.7.19.19.52.22.7.04ZM34.61 24.7c.68.51 1.59.34 2.1-.3.5-.68.33-1.6-.31-2.1a1.5 1.5 0 0 0-1.79 2.4ZM17.2 27.9c.22.17.54.11.7-.1a.51.51 0 0 0-.1-.7.51.51 0 0 0-.7.1c-.17.22-.11.54.1.7ZM28.04 10.2c.03.04.1 0 .14-.03.04-.04 0-.12-.03-.15-.04-.04-.11 0-.15.03 0 .08 0 .12.04.15ZM29.45 25.84a1 1 0 0 0 1.39-.3 1 1 0 0 0-.3-1.38 1 1 0 0 0-1.4.3c-.27.46-.15 1.08.31 1.38ZM26.83 31.19c.39-.73.08-1.64-.64-2.02a1.51 1.51 0 0 0-2.02.64c-.39.73-.08 1.64.64 2.02.73.39 1.64.08 2.02-.64ZM33.71 31.04a2 2 0 1 0-2.74.69c.92.53 2.13.27 2.74-.69ZM21.94 31.32a1 1 0 0 0-.63-1.26 1 1 0 0 0-.63 1.9c.52.15 1.12-.11 1.26-.64ZM22.1 35.12a1.5 1.5 0 1 0-1.2 2.76 1.5 1.5 0 0 0 1.2-2.76ZM28.66 34.29a2.5 2.5 0 1 0 1.05 3.37 2.47 2.47 0 0 0-1.05-3.37ZM41.79 33.01a3.5 3.5 0 1 0 3.2 3.78 3.55 3.55 0 0 0-3.2-3.78ZM40.58 30.88c.76-1.16.47-2.7-.7-3.46a2.47 2.47 0 0 0-3.46.7 2.47 2.47 0 0 0 .7 3.46c1.13.76 2.7.47 3.46-.7ZM17.6 32c.26-.04.45-.3.39-.6a.47.47 0 0 0-.59-.39.48.48 0 0 0-.39.6c.04.25.3.42.59.39ZM34.77 34.34a2.54 2.54 0 0 0-3.43.88 2.55 2.55 0 0 0 .88 3.44 2.5 2.5 0 1 0 2.55-4.32ZM14.21 31.91c.2.17.54.08.7-.12.17-.2.08-.54-.12-.7-.2-.17-.54-.08-.7.12-.17.25-.08.54.12.7ZM11.76 36.07a.5.5 0 1 0-.52.86c.24.14.52.07.69-.17a.5.5 0 0 0-.17-.69ZM20.66 26.97c.27-.09.4-.36.31-.63a.49.49 0 0 0-.63-.31.49.49 0 0 0-.31.63c.04.27.36.4.63.31ZM14.45 36a.5.5 0 0 0-.45.55.5.5 0 0 0 .55.45.5.5 0 0 0 .45-.55.5.5 0 0 0-.55-.45ZM17.87 35.06c-.79-.24-1.63.28-1.81 1.07-.24.79.28 1.63 1.07 1.81.79.24 1.63-.28 1.81-1.07.24-.79-.28-1.58-1.07-1.81ZM20.3 22.67c-.1-.1-.29-.1-.36 0-.11.12-.11.3 0 .38.1.11.3.11.36 0a.26.26 0 0 0 0-.38Z" fill="#D81919"/></svg>