<!-- by TradingView --><svg width="56" height="56" viewBox="0 0 56 56" xmlns="http://www.w3.org/2000/svg"><path fill="#F0F3FA" d="M0 0h56v56H0z"/><path d="M38.25 28.58c1.65-2.71 3.96-10.22 0-18.58 2.02 2.73 5.12 10.35 1.34 19.06l-1.34-.48ZM24.21 23.89l2.02-2.07c.72.33 2.3 1.2 2.9 2.07.3.45.92.73 1.63 1.05.97.43 2.11.95 2.86 2.09-.1-.13-6.3-2.15-9.4-3.14Z" fill="#212020"/><path fill-rule="evenodd" d="M15.57 45.89c4.68.64 15.76-1.2 22.63-13.72v-.86c.28-.02.86-.32 1.03-1.36l2.89.9-1.55.95H45l-2.88-2.85v1.35L24.6 24.59l-.7.35v-.95c-1.87-.27-5.82-1.2-6.67-2.81 1.32.64 4.5 2 6.67 2.36l1.66-1.9c-.54-.3-1.28-1.04 0-1.56v-2.26c.3-.18.88-.77.8-1.65.44.05 1.3.3 1.12.9-.17.6-.82.75-1.12.75.27.35.64 1.25 0 2 .28-.02.85-.46.88-2 .41-.4 1.11-1.41.62-2.25-.79-.35-2.6-.72-3.55.6-.03-.43.33-1.32 2.05-1.49 1.72-.16 2.34.52 2.44.89-.01-.8-.72-2.33-3.44-2.11-2.72.22-3.74 2.04-3.9 2.92-.02-.45-.27-1.3-1.17-1.09-.9.22-.85 2.16-.72 3.1l-.61.84 1.73 1.02 1.12-.42c0 .41-.33 1.16-1.52.83l-.98-.3c-1.21-.42-2.65-.9-5.17-.82-3.22.1.94 3.67 4.82 4.86-.44.96-1 3.1.21 4 .07 1.15 0 3.86-.87 5.54l1.27.61 3.22-8.46-2.71 8.67 9.88 4.58a58.3 58.3 0 0 0-6.06 4.34c-1.53 1.38-6.2 2.05-8.34 2.2Zm27.25-15.41.99.92-1.35-.1.36-.82Zm-14.64-4.02c-1.09-.59-1.77.12-1.97.54-.82 1.88-1.97 6.73 1.22 8.42 3.2 1.69 7.61-1.28 8.7-3.03.87-1.4.09-2.33-.41-2.61a159.2 159.2 0 0 1-7.54-3.32Z" fill="#212020"/></svg>