<!-- by TradingView --><svg width="56" height="56" viewBox="0 0 56 56" xmlns="http://www.w3.org/2000/svg"><path fill="#F0F3FA" d="M0 0h56v56H0z"/><path fill-rule="evenodd" d="M42 14H14v28h28V14Zm-29-1v30h30V13H13Z" fill="#647BAA"/><path d="M28.56 31h-1.51v-.16h.13a1.27 1.27 0 0 0 .14-.03l.06-.03a.18.18 0 0 0 .06-.06.15.15 0 0 0 .02-.08c0-.1-.03-.23-.11-.4l-.25-.56h-1.55l-.27.68-.04.12v.11c0 .08.02.14.09.18.06.05.16.07.3.07V31h-1.17v-.16c.07 0 .13-.02.19-.04a.4.4 0 0 0 .15-.13l.17-.29.23-.5L26.43 27h.12l1.47 3.32.13.26c.04.07.07.12.11.16.04.03.08.06.13.07l.17.03V31Zm-1.54-1.55-.68-1.62-.69 1.62h1.37Zm4.18 1.29a7.28 7.28 0 0 0-.82.25h-.02v-.5l-.26.26a.83.83 0 0 1-.6.25.7.7 0 0 1-.53-.2.78.78 0 0 1-.19-.56v-1.47c0-.13-.02-.23-.08-.28-.04-.05-.14-.08-.29-.09v-.1h.86v1.92c0 .12.05.23.13.32a.4.4 0 0 0 .3.13.75.75 0 0 0 .53-.22.23.23 0 0 0 .08-.1.57.57 0 0 0 .03-.2v-1.38a.6.6 0 0 0-.02-.18.19.19 0 0 0-.07-.1.27.27 0 0 0-.13-.06 1.22 1.22 0 0 0-.23-.03v-.1h.94v2.02c0 .13.02.23.07.27.04.04.13.06.27.06h.03v.09Z" fill="#647BAA"/><path d="M31.13 28.57a10.4 10.4 0 0 1 .44-.15 7.57 7.57 0 0 1 .43-.17l.03.01v.54a3.06 3.06 0 0 1 .37-.43.59.59 0 0 1 .16-.1.6.6 0 0 1 .18-.02c.1 0 .18.03.24.09.06.05.09.13.09.22a.3.3 0 0 1-.06.2.22.22 0 0 1-.17.07l-.12-.02a.52.52 0 0 1-.12-.1.41.41 0 0 0-.09-.06.16.16 0 0 0-.07-.02.24.24 0 0 0-.13.05.75.75 0 0 0-.23.27.34.34 0 0 0-.05.15v1.32c0 .08.01.15.03.2 0 .06.04.1.07.14.04.03.1.05.16.07.06.02.15.03.25.03V31H31.1v-.14l.22-.05c.06-.02.1-.04.13-.07a.17.17 0 0 0 .06-.1l.02-.19V29a.56.56 0 0 0-.05-.27c-.03-.06-.08-.08-.16-.08a.96.96 0 0 0-.2.02v-.09Zm3.17-.32c.2 0 .37.03.53.1.16.06.3.16.4.28.12.11.22.25.28.41a1.53 1.53 0 0 1-.28 1.55 1.27 1.27 0 0 1-.94.41 1.3 1.3 0 0 1-.52-.1 1.2 1.2 0 0 1-.4-.29 1.33 1.33 0 0 1-.28-.44 1.58 1.58 0 0 1 0-1.1c.06-.17.15-.31.27-.43.11-.13.25-.22.4-.29.17-.06.35-.1.54-.1Zm-.09.17a.6.6 0 0 0-.5.25 1.1 1.1 0 0 0-.18.66 2.43 2.43 0 0 0 .26 1.14.7.7 0 0 0 .25.27c.1.07.21.1.33.1.22 0 .4-.1.51-.28.13-.2.19-.45.19-.79 0-.25-.04-.48-.1-.7a1.1 1.1 0 0 0-.3-.48.63.63 0 0 0-.46-.17Z" fill="#647BAA"/><path d="M35.59 28.57a10.58 10.58 0 0 1 .45-.15 7.7 7.7 0 0 1 .42-.17l.04.01v.54a3.04 3.04 0 0 1 .37-.43.4.4 0 0 1 .16-.1.6.6 0 0 1 .17-.02c.1 0 .18.03.24.09.06.05.09.13.09.22a.3.3 0 0 1-.06.2.22.22 0 0 1-.17.07l-.11-.02a.52.52 0 0 1-.13-.1.41.41 0 0 0-.09-.06.16.16 0 0 0-.06-.02.24.24 0 0 0-.14.05.75.75 0 0 0-.23.27.34.34 0 0 0-.04.15v1.32c0 .08 0 .15.02.2.01.06.04.1.08.14.03.03.09.05.15.07a.9.9 0 0 0 .25.03V31h-1.43v-.14l.23-.05c.06-.02.1-.04.13-.07a.17.17 0 0 0 .05-.1l.02-.19V29a.56.56 0 0 0-.05-.27c-.03-.06-.08-.08-.15-.08a.96.96 0 0 0-.21.02v-.09Zm3.88 1.76c0 .13 0 .22.03.27.03.05.07.07.14.07.08 0 .17-.03.26-.1v.14c-.1.11-.19.19-.26.23a.55.55 0 0 1-.27.06c-.12 0-.2-.03-.27-.1a.63.63 0 0 1-.1-.34c-.18.16-.34.27-.47.34a.87.87 0 0 1-.4.1.62.62 0 0 1-.46-.17.62.62 0 0 1-.17-.46c0-.09.02-.18.06-.27.03-.1.09-.18.16-.23l.17-.14.21-.12a81.8 81.8 0 0 0 .89-.37v-.38c0-.16-.04-.28-.12-.36a.45.45 0 0 0-.33-.13.52.52 0 0 0-.31.1c-.08.05-.12.11-.12.2l.01.1.02.13c0 .07-.03.12-.09.17a.26.26 0 0 1-.18.07.26.26 0 0 1-.18-.07.25.25 0 0 1-.07-.18.5.5 0 0 1 .06-.23.5.5 0 0 1 .18-.2.83.83 0 0 1 .32-.17c.13-.04.28-.05.43-.05a1 1 0 0 1 .46.09c.12.06.22.14.28.24.04.07.07.15.09.25a2 2 0 0 1 .03.36v1.15Zm-.48-.95a4.99 4.99 0 0 0-.77.37.6.6 0 0 0-.17.2.54.54 0 0 0-.05.24v.03a.49.49 0 0 0 .11.32l.14.1c.04.02.1.03.15.03a.7.7 0 0 0 .2-.03l.23-.1c.07-.04.1-.08.13-.12.02-.04.03-.1.03-.2v-.84Zm-23.12 3.98c-.16 0-.3.01-.4.03a.56.56 0 0 0-.27.1.58.58 0 0 0-.16.23c-.03.1-.07.22-.1.38h-.15l.04-1.1h3.34l.03 1.1h-.14a2.06 2.06 0 0 0-.12-.38.54.54 0 0 0-.15-.22.53.53 0 0 0-.26-.11c-.1-.02-.25-.03-.42-.03h-.31v2.96c0 .1 0 .2.02.26a.3.3 0 0 0 .08.15c.04.04.1.06.17.08l.3.03V37h-1.73v-.16c.12 0 .22-.02.3-.03a.32.32 0 0 0 .16-.09.3.3 0 0 0 .07-.17c.02-.08.03-.18.03-.3v-2.89h-.33Zm4.71 2.68c-.12.32-.3.56-.5.72a1.2 1.2 0 0 1-.76.24 1 1 0 0 1-.81-.35.97.97 0 0 1-.22-.4 1.82 1.82 0 0 1 .01-1.12c.06-.18.15-.33.26-.45a1.17 1.17 0 0 1 1.32-.32 1 1 0 0 1 .33.24l.1.15.06.15.05.2.05.24h-1.83l.05.46c.03.12.07.23.13.34.17.31.42.47.75.47.19 0 .35-.05.5-.14.13-.09.27-.25.42-.46l.09.03Zm-.72-.9a1 1 0 0 0-.18-.51c-.09-.1-.22-.15-.4-.15a.58.58 0 0 0-.43.16.9.9 0 0 0-.2.5h1.21Zm3.04.96a4.4 4.4 0 0 1-.36.55 1.1 1.1 0 0 1-.81.35c-.17 0-.32-.03-.45-.09a1.07 1.07 0 0 1-.36-.27 1.3 1.3 0 0 1-.23-.4 1.7 1.7 0 0 1 .04-1.17 1.26 1.26 0 0 1 .75-.72 1.22 1.22 0 0 1 1.07.1c.08.06.15.12.2.2a.4.4 0 0 1 .07.22c0 .07-.03.13-.09.18a.26.26 0 0 1-.19.07.24.24 0 0 1-.18-.07.48.48 0 0 1-.1-.2l-.04-.13a.45.45 0 0 0-.12-.22.46.46 0 0 0-.23-.05.73.73 0 0 0-.58.28c-.07.1-.13.2-.17.32a1.45 1.45 0 0 0 .01.87c.04.14.1.26.19.35.08.1.17.18.28.24.12.05.24.08.38.08a.8.8 0 0 0 .44-.12c.12-.08.25-.22.4-.42l.08.05Zm.88.26c0 .1 0 .18.02.24 0 .06.03.11.05.15.03.03.07.06.12.07.06.02.13.04.22.05V37H22.9v-.13l.2-.05a.22.22 0 0 0 .12-.08.3.3 0 0 0 .05-.14l.01-.24v-2.87a.15.15 0 0 0-.05-.09.15.15 0 0 0-.1-.05.9.9 0 0 0-.22 0v-.1l.16-.04a4.7 4.7 0 0 1 .53-.16l.15-.05.03.02v1.76c.14-.18.27-.3.4-.38a.94.94 0 0 1 .47-.11c.25 0 .43.08.55.23.12.16.17.39.17.7v1.14l.01.24.05.14c.03.03.07.06.12.08l.19.05V37h-1.26v-.13a.64.64 0 0 0 .2-.05c.06-.01.1-.04.13-.07a.27.27 0 0 0 .06-.15l.01-.24v-1.14c0-.4-.14-.61-.43-.61a.69.69 0 0 0-.34.08c-.1.05-.2.14-.33.28v1.39Z" fill="#647BAA"/><path d="M25.67 34.55a10.54 10.54 0 0 0 .81-.26l.05.01v.46a5.56 5.56 0 0 1 .47-.37.75.75 0 0 1 .38-.1c.23 0 .4.08.52.23.13.15.19.36.19.64v1.32c0 .14.02.23.07.28.05.05.14.09.29.1V37h-1.23v-.13l.18-.04a.23.23 0 0 0 .11-.08.3.3 0 0 0 .06-.15l.02-.23v-1.2c0-.38-.14-.56-.43-.56a.64.64 0 0 0-.28.06 11.72 11.72 0 0 0-.34.26v1.63c0 .1.03.18.08.22.06.04.16.07.32.09V37h-1.26v-.13a.6.6 0 0 0 .18-.04.25.25 0 0 0 .12-.07.29.29 0 0 0 .05-.13l.02-.2v-1.44a.65.65 0 0 0-.05-.29c-.03-.05-.09-.08-.17-.08a.38.38 0 0 0-.16.03v-.1Zm4.11-.26c.19 0 .36.03.52.1.16.06.3.15.41.27.12.11.21.25.28.4a1.5 1.5 0 0 1-.28 1.53 1.27 1.27 0 0 1-.94.41c-.19 0-.36-.03-.52-.1a1.2 1.2 0 0 1-.41-.28 1.45 1.45 0 0 1-.37-.97c0-.2.03-.39.1-.55.06-.17.15-.31.27-.43.1-.12.25-.21.4-.28.17-.07.35-.1.54-.1Zm-.09.16a.6.6 0 0 0-.5.25 1.1 1.1 0 0 0-.18.66c0 .2.02.4.06.6a2 2 0 0 0 .2.52c.06.11.14.2.24.27.1.06.22.1.34.1.22 0 .39-.1.51-.28.13-.2.19-.45.19-.78 0-.24-.04-.47-.11-.69a1.08 1.08 0 0 0-.3-.48.63.63 0 0 0-.45-.17Z" fill="#647BAA"/><path d="M31.03 33.25a18.58 18.58 0 0 1 .5-.12 8.76 8.76 0 0 0 .44-.13l.03.02v3.44c0 .08 0 .15.02.2 0 .05.03.08.06.11a.3.3 0 0 0 .13.06l.23.04V37h-1.4v-.13l.23-.04.14-.07a.24.24 0 0 0 .07-.13.74.74 0 0 0 .02-.19v-2.75c0-.14-.02-.23-.06-.28-.03-.05-.1-.07-.19-.07h-.22v-.09Zm2.83 1.04a1.29 1.29 0 0 1 1.21.77 1.5 1.5 0 0 1-.28 1.53 1.27 1.27 0 0 1-.94.41c-.19 0-.36-.03-.52-.1a1.2 1.2 0 0 1-.4-.28 1.39 1.39 0 0 1-.28-.43 1.54 1.54 0 0 1 0-1.09 1.26 1.26 0 0 1 .67-.71c.17-.07.35-.1.54-.1Zm-.09.16a.6.6 0 0 0-.5.25 1.1 1.1 0 0 0-.18.66 2.46 2.46 0 0 0 .26 1.12c.06.11.14.2.25.27.1.06.21.1.33.1.22 0 .4-.1.51-.28.13-.2.19-.45.19-.78 0-.24-.04-.47-.11-.69a1.08 1.08 0 0 0-.3-.48.63.63 0 0 0-.45-.17Zm3.68.25a1.47 1.47 0 0 1 .1.5.8.8 0 0 1-.07.34c-.04.1-.1.2-.2.29-.08.08-.17.14-.28.2a.9.9 0 0 1-.45.06l-.13-.01-.12-.02a.61.61 0 0 0-.24.16.63.63 0 0 0-.09.1.21.21 0 0 0-.03.1c0 .05.04.08.11.11.08.02.2.04.36.05l.76.03c.22.01.4.07.52.18.13.11.2.26.2.43 0 .17-.06.32-.16.44s-.23.23-.4.3a2.2 2.2 0 0 1-1 .24 1.68 1.68 0 0 1-.7-.16.74.74 0 0 1-.23-.17.35.35 0 0 1-.08-.22c0-.1.04-.22.13-.32.09-.11.24-.24.46-.39a1.1 1.1 0 0 1-.26-.15.23.23 0 0 1-.06-.16.3.3 0 0 1 .06-.17l.22-.22.25-.23c-.2-.1-.34-.2-.43-.32a.79.79 0 0 1-.13-.46.96.96 0 0 1 .6-.88.99.99 0 0 1 .4-.08c.15 0 .3.03.47.1l.13.04.16.06.17.02h.46v.21h-.5Zm-1.42 2.26a6.17 6.17 0 0 0-.23.3.61.61 0 0 0-.05.1v.1c0 .13.07.23.22.3.16.08.36.12.63.12.17 0 .32-.02.46-.04.14-.03.26-.07.35-.12.1-.05.18-.1.23-.18a.35.35 0 0 0 .08-.22c0-.1-.05-.18-.16-.22-.11-.04-.3-.06-.57-.06a3.52 3.52 0 0 1-.52-.03 5.12 5.12 0 0 1-.44-.05Zm.03-1.95a1.34 1.34 0 0 0 .16.69c.06.08.12.14.2.19a.5.5 0 0 0 .25.06.4.4 0 0 0 .32-.14.6.6 0 0 0 .12-.39c0-.11-.02-.23-.05-.36a1.3 1.3 0 0 0-.13-.33.57.57 0 0 0-.18-.21.42.42 0 0 0-.25-.08.4.4 0 0 0-.33.15.66.66 0 0 0-.11.4v.02Zm4.64-.57a.3.3 0 0 0-.17.06.54.54 0 0 0-.12.2l-.91 2.35c-.09.21-.16.39-.24.53-.08.15-.15.27-.23.36a.72.72 0 0 1-.25.2.62.62 0 0 1-.28.07.5.5 0 0 1-.32-.1.29.29 0 0 1-.12-.24c0-.07.02-.13.07-.18a.29.29 0 0 1 .18-.07l.16.01.15.05a.3.3 0 0 0 .15.04c.05 0 .1-.03.15-.08.06-.04.1-.1.15-.17l.08-.16a4.06 4.06 0 0 0 .16-.47 3.45 3.45 0 0 0-.31-.67.51.51 0 0 1-.04-.09l-.02-.04-.67-1.43c-.04-.1-.14-.16-.3-.18v-.08h1.22v.09a.82.82 0 0 0-.27.04c-.05.02-.08.06-.08.1l.01.12.06.11.68 1.46.57-1.6a.18.18 0 0 0 .03-.09c0-.04-.03-.08-.08-.1a.47.47 0 0 0-.21-.04v-.1h.8v.1Z" fill="#647BAA"/></svg>