<!-- by TradingView --><svg xmlns="http://www.w3.org/2000/svg" width="56" height="56"><path fill="#0494FF" d="M0 0h56v56H0z"/><path d="M15.16 21H9v2h1.65L7.26 33H6v2h5v-2H9.82l.7-2h5l.74 2H15v2h5.5v-2h-1.17l-4.17-12zm-3.95 8l1.83-5.31L14.92 29h-3.7zm33.53-2.11c-2.27-.73-2.74-1.4-2.74-2.07 0-.94.96-1.82 2.6-1.82.62 0 1.08.05 1.4.12V25h2v-3.46a15.4 15.4 0 00-3.6-.54c-3 0-5.4 1.42-5.4 4 0 2.44 1.67 3.2 4.6 4.1 2.25.7 2.4 1.39 2.4 2.08 0 .8-.74 1.73-2.4 1.82-1.46 0-3.16-.55-4.15-.96a8.34 8.34 0 01-1.16 1.71c1.46.8 3.2 1.25 5.17 1.25 3 0 5.54-1.42 5.54-4.23 0-2.17-1.33-2.95-4.26-3.88zM32.7 23a5.93 5.93 0 016.03 5.95A6.07 6.07 0 0132.7 35a6 6 0 01-4.18-1.69 4.4 4.4 0 01-3.5 1.69c-1.96 0-4.02-.95-4.02-3.86V25h-2v-2h2v-1.99h3V23h3v2h-3v5.86c0 1.17.55 2.14 1.55 2.14.92 0 1.5-.57 1.85-1.14a5.96 5.96 0 013.43-8.58A7.4 7.4 0 0030 26.6a3.88 3.88 0 00-.78 2.35c0 2.05 1.56 3.72 3.49 3.72.7 0 1.35-.22 1.9-.6a6.06 6.06 0 01-3.7-5.58c0-1.33.44-2.45 1.17-3.45.2-.02.42-.04.63-.04zm.76 3.5A3.7 3.7 0 0036 30.09c.11-.36.17-.74.17-1.14a3.7 3.7 0 00-2.55-3.6 4 4 0 00-.17 1.15z" fill="#fff"/></svg>