<!-- by TradingView --><svg xmlns="http://www.w3.org/2000/svg" width="56" height="56" viewBox="0 0 56 56"><path fill="#21456B" d="M0 0h56v56H0z"/><path d="M45 28a17 17 0 1 1-34 0 17 17 0 0 1 34 0Z" fill="#0D1D41"/><path fill-rule="evenodd" d="M28 43a15 15 0 1 0 0-30 15 15 0 0 0 0 30Zm0 2a17 17 0 1 0 0-34 17 17 0 0 0 0 34Z" fill="#E4B752"/><path d="M28 16 18 27.85l2.2-.83c1.08-.37 3.59-.89 4.94 0a4.93 4.93 0 0 0 2.86.97V16Z" fill="#E0B859"/><path d="m28 16 10 11.85-2.2-.83c-1.08-.37-3.59-.89-4.94 0a4.93 4.93 0 0 1-2.86.97V16Z" fill="#C89B40"/><path d="M19.84 29.45c-.73.32-2.24.83-2.84 1.05v1.97c1.25.12 2.36-.3 2.7-.52 1.79-1.35 3.85-1.13 4.71-.55 2.48 1.66 5.54 1.07 7.25 0 1.7-1.07 3.51.07 4.7.55.94.38 2.15.5 2.64.52V30.5c-.6-.22-1.97-.73-2.65-1.05-.84-.4-3.49-1-5.51 0-2.02 1-3.68 1.05-5.58 0s-4.5-.4-5.42 0ZM19.84 33.94c-.73.33-2.24.84-2.84 1.05v1.98c1.25.11 2.36-.3 2.7-.53 1.79-1.35 3.85-1.12 4.71-.54 2.48 1.65 5.54 1.07 7.25 0 1.7-1.07 3.51.07 4.7.54.94.39 2.15.51 2.64.53v-1.98c-.6-.21-1.97-.72-2.65-1.05-.84-.4-3.49-1-5.51 0-2.02 1-3.68 1.05-5.58 0-1.9-1.04-4.5-.4-5.42 0Z" fill="#04A5E0"/></svg>