<!-- by TradingView --><svg width="56" height="56" viewBox="0 0 56 56" xmlns="http://www.w3.org/2000/svg"><path fill="#C04F20" d="M0 0h56v56H0z"/><path d="M15.14 27v-.5l.69-.06c.03 0 .06-.02.09-.05a.21.21 0 0 0 .04-.12v-.03L15.11 24h-2.78l-.8 2.21v.03c0 .05.01.1.05.14.05.04.09.06.12.06l.71.06v.5H10v-.5l.7-.14L13.5 19h.91l2.8 7.19c.02.08.05.13.07.16l.18.06.54.09v.5h-2.86Zm-1.42-6.5-1.17 3.05h2.36l-1.19-3.05ZM23 26.42c-.49.23-.98.43-1.52.53-.19.03-.39.05-.6.05-1.7 0-2.88-1.3-2.88-2.96A2.95 2.95 0 0 1 21.02 21c.62 0 1.43.12 1.8.68.1.14.16.31.16.5 0 .42-.35.7-.75.7a.94.94 0 0 1-.36-.06c-.1-.04-.2-.09-.27-.14v-1.03a1.35 1.35 0 0 0-.53-.15C19.8 21.5 19 22.74 19 24a2.28 2.28 0 0 0 2.36 2.25c.6 0 1.1-.18 1.64-.51v.68ZM27.5 27v-.42c.2-.01.5-.04.5-.27v-2.8c0-.78-.29-1.2-1-1.2-.48 0-.56.23-1 .43v3.57c0 .34 0 .24.5.27V27H24v-.42l.7-.04c.16-.01.3-.1.3-.23v-6.53h-1v-.36l1.67-.42H26v3.3s.57-.67 1.35-.67c1 0 1.65.62 1.65 1.65v3.03c0 .13.26.22.41.23l.59.04V27h-2.5ZM34 27v-.84c-.5.4-.91.84-1.58.84-.9 0-1.42-.77-1.42-1.6 0-1.12 1.08-1.53 2-1.83.35-.1.52-.22 1-.33v-.51c0-.8-.08-1.17-.78-1.17-.38 0-.87.1-.97.15V23h-.8c-.23 0-.45-.22-.45-.47 0-1.1 1.35-1.55 2.22-1.55 1.13 0 1.78.7 1.78 1.8V26c0 .15.25.36.47.36l.53.03V27h-2Zm0-3.31c-.49.14-.64.27-.93.4-.54.25-1 .58-1 1.23 0 .47.3.98.83.98.48 0 .72-.29 1.1-.56v-2.05ZM41.45 22.39a1 1 0 0 0-.75-.33 2.8 2.8 0 0 0-1.7.75v3.41c0 .15.12.26.3.27l.7.02V27h-3v-.46l.72-.05c.16-.02.29-.12.29-.27L38 22h-1v-.39l1.43-.61H39v1.23c.49-.47 1.41-1.23 2.15-1.23.28 0 .59.07.85.18v1.2h-.55ZM45.33 19.7c0 .1-.02.18-.07.27a.63.63 0 0 1-.16.22.81.81 0 0 1-.55.2.81.81 0 0 1-.56-.2.64.64 0 0 1-.17-.77.71.71 0 0 1 .42-.36.9.9 0 0 1 .61 0c.1.03.18.08.25.14.07.07.13.14.16.23a.6.6 0 0 1 .07.27ZM42.98 27v-.44l.8-.03c.11 0 .2-.14.2-.25v-4.27h-1v-.4l1.5-.6H45v5.27c0 .15.1.24.25.25l.73.03v.45h-3ZM40.45 31.39a1 1 0 0 0-.75-.33 2.8 2.8 0 0 0-1.7.75v3.41c0 .15.12.26.3.27l.7.02V36h-3v-.46l.72-.05c.16-.02.29-.12.29-.27L37 31h-1v-.39l1.43-.61H38v1.23c.49-.47 1.41-1.23 2.15-1.23.28 0 .59.07.85.18v1.2h-.55ZM11.29 28.63 8.5 36h-.94l-2.84-7.39L4 28.5V28h2.96v.5l-.73.06a.12.12 0 0 0-.08.07.2.2 0 0 0-.03.1.1.1 0 0 0 0 .04l2.18 5.75 2.1-5.73v-.04a.2.2 0 0 0-.06-.12.18.18 0 0 0-.12-.07l-.68-.06V28H12v.5l-.71.13ZM47 35.27c-.67.41-1.45.73-2.25.73-1.68 0-2.75-1.32-2.75-2.94 0-1.63 1.07-3.06 2.78-3.06C46.2 30 47 31.09 47 32.43v.16l-.01.17h-3.84c0 1.25.56 2.52 1.98 2.52.68 0 1.31-.37 1.87-.74v.73Zm-2.34-4.69c-.9 0-1.4.83-1.45 1.65h2.6c0-.76-.22-1.65-1.15-1.65ZM17 35.27c-.67.41-1.45.73-2.25.73-1.68 0-2.75-1.32-2.75-2.94 0-1.63 1.07-3.06 2.78-3.06C16.2 30 17 31.09 17 32.43v.16l-.01.17h-3.84c0 1.25.56 2.52 1.97 2.52.7 0 1.32-.37 1.88-.74v.73Zm-2.34-4.69c-.9 0-1.4.83-1.45 1.65h2.6c0-.76-.22-1.65-1.15-1.65ZM21.28 36v-.47l.48-.04a.26.26 0 0 0 .24-.27v-3.16c0-.77-.1-1.17-.9-1.17-.43 0-.71.14-1.1.35v3.98c0 .15.1.25.24.27l.33.04V36H18v-.47l.76-.04a.26.26 0 0 0 .24-.27v-4.21h-1v-.4l1.6-.61h.4v.75c.55-.33 1.07-.75 1.74-.75.99 0 1.26.69 1.26 1.87v3.35c0 .16.37.25.5.27l.5.04V36h-2.72ZM28 35.57c-.54.27-1.16.43-1.76.43-.99 0-1.24-.43-1.24-1.46v-3.9h-1v-.42l1-.22.48-2H26v2h2v.65h-2v3.2c0 .73 0 1.42 1.1 1.42.31 0 .62-.08.9-.22v.52ZM33 36v-.68c-.44.35-1.05.68-1.63.68-1.13 0-1.37-.9-1.37-1.92V31h-1v-.4l1.54-.6H31v3.85c0 .74.15 1.34.96 1.34.43 0 .66-.16 1.04-.35V31h-1v-.4l1.53-.6H34v5.24c0 .15.37.25.5.26l.5.04V36h-2ZM52 34.14c0 1.3-1.16 1.86-2.32 1.86-.56 0-1.15-.1-1.68-.3v-1.57h.62l.14 1a2 2 0 0 0 1.08.33c.53 0 1.16-.38 1.16-.96 0-.71-.85-.95-1.39-1.2-.68-.32-1.53-.7-1.53-1.58 0-1.22 1.12-1.72 2.19-1.72.5 0 1.09.06 1.55.27v1.4h-.63l-.1-.83c-.25-.19-.61-.27-.92-.27-.66 0-.98.33-.98.8 0 .7.81.97 1.35 1.2.67.3 1.46.74 1.46 1.57Z" fill="#F0F3FA"/></svg>