<!-- by TradingView --><svg xmlns="http://www.w3.org/2000/svg" width="56" height="56" viewBox="0 0 56 56"><path fill="#F0F3FA" d="M0 0h56v56H0z"/><path d="M34 30.7c0 .06 0 .3.3.3h5.49a.43.43 0 0 0 .39-.2c.12-.2.78-1.51.78-1.51s.04-.06.04-.13-.07-.16-.32-.16h-4.3s-.38 0-.38-.3v-.86s0-.34.43-.34h4.27c.07 0 .16-.03.21-.07.05-.04.09-.1.09-.17v-1.51c0-.06-.02-.25-.29-.25h-4.28c-.43 0-.43-.32-.43-.32v-.88c0-.3.37-.3.37-.3h4.3c.26 0 .33-.08.33-.14 0-.06-.04-.11-.04-.11s-.65-1.35-.79-1.55a.44.44 0 0 0-.39-.2h-5.47c-.31 0-.31.2-.31.28v8.42ZM49.82 31c.1 0 .18-.06.18-.12s-.04-.12-.09-.17l-3.84-4.09a.25.25 0 0 1-.02-.34l3.83-3.95c.1-.1.12-.18.12-.23 0-.1-.07-.1-.14-.1h-2.08a.7.7 0 0 0-.29.08c-.1.04-.17.1-.24.19-.06.08-2.86 2.77-3.07 2.98-.05.05-.06.05-.11.05s-.08-.04-.07-.09v-2.96c0-.25-.19-.25-.19-.25h-1.6c-.06 0-.11.04-.15.08a.29.29 0 0 0-.06.18v8.51c0 .23.17.23.17.23h1.65s.18 0 .18-.23v-3.14c0-.08.01-.13.07-.13.06 0 .16.11.22.18l2.91 3.11a.47.47 0 0 0 .4.21h2.22Z" fill="#A1A5A8"/><path d="M28 33.75V36h.34v-3h-.29l-1.38 2.52L25.29 33H25v3h.33v-2.25L26.56 36h.22L28 33.75ZM22.52 36a1.5 1.5 0 1 1 1.37-.93 1.48 1.48 0 0 1-1.37.93Zm0-2.7a1.17 1.17 0 0 0-1.18 1.2 1.18 1.18 0 1 0 1.18-1.2ZM18.55 36a1.6 1.6 0 0 1-1.1-.44 1.5 1.5 0 0 1-.34-1.64 1.47 1.47 0 0 1 .84-.81c.2-.08.4-.11.6-.1.3-.02.6.06.85.22s.45.39.55.66l.02.04-.29.1-.02-.06a1.1 1.1 0 0 0-.44-.51c-.2-.13-.43-.19-.67-.18-.33 0-.64.13-.87.35a1.18 1.18 0 0 0 0 1.7c.23.22.54.34.87.34.24.01.47-.05.67-.17.22-.14.35-.33.46-.56l.32.09c-.11.3-.31.56-.58.74-.26.16-.56.24-.87.23Zm11.12 0v-3h1.3c.62 0 1.04.38 1.04.92s-.42.91-1.04.91H30V36h-.33ZM31 34.52c.43 0 .73-.25.73-.6 0-.36-.3-.6-.73-.6H30v1.22l1-.02Zm3.91.69.36.79h.34l-1.37-3h-.27l-1.36 3h.36l.35-.8h1.6Zm-.77-1.75.65 1.44h-1.3l.65-1.44ZM39.05 36 37 33.58V36h-.32v-3h.28L39 35.44V33h.33v3h-.28Zm2.29-1.1V36h.32v-1.1L43 33h-.4l-1.09 1.58L40.4 33H40l1.34 1.9Z" fill="#1F567D"/><path d="M32.15 29.14c-.05-.05-.08-.09-.15-.1a.67.67 0 0 0-.23-.04h-3.3c-.14 0-.17-.06-.17-.11 0-.08.07-.15.07-.15l4.43-4.9s.2-.2.2-.36v-1.21a.24.24 0 0 0-.08-.2.33.33 0 0 0-.2-.07h-8.43c-.18 0-.3.1-.29.2 0 .05.01.1.04.15l1.1 1.5s.07.15.3.15h4.05c.08 0 .11.03.11.07 0 .08-.1.19-.1.19L25 29.1s-3.56-6.32-3.7-6.53c-.2-.28-.35-.58-.86-.58-.52 0-.77.18-1.11.79-.67 1.16-2.12 3.84-2.68 4.79-.1.16-.24.42-.43.42h-1.14c-.13 0-.21.18-.21.18s-.86 1.6-.87 1.68c0 .08.07.14.15.14h1.05c.1 0 .04.08.04.08l-3.17 5.65a.47.47 0 0 0-.07.17c0 .08.11.1.11.1h2c.17 0 .3-.12.36-.25l3.12-5.55a.43.43 0 0 1 .2-.16.65.65 0 0 1 .27-.04h1.83a.2.2 0 0 0 .1-.02.19.19 0 0 0 .07-.06l.92-1.78.02-.09c0-.05-.04-.05-.07-.05h-1.84c-.11 0-.19 0-.19-.09 0-.08.13-.28.13-.28l1.2-2.15c.06-.12.12-.18.16-.18.08 0 .14.1.29.38l1.5 2.66c.65 1.15 1.26 2.25 1.32 2.33.07.1.16.18.27.23.1.06.23.1.36.1h8.56c.23 0 .31-.01.31-.1 0-.08-.06-.2-.06-.2s-.67-1.39-.8-1.56Z" fill="#A1A5A8"/><path d="M6 27v-2.69H5V24h2.4v.31H6.33V27H6Zm4.5 0v-1.35H8.7V27h-.3v-3h.3v1.33h1.8V24h.3v3h-.3Zm1.5-3v3h2v-.31h-1.7v-1.04H14v-.3h-1.7v-1.04H14V24h-2Z" fill="#1F567D"/></svg>