<!-- by TradingView --><svg width="56" height="56" xmlns="http://www.w3.org/2000/svg"><path fill="#003E7E" d="M0 0h56v56H0z"/><path d="M17.033 35.486c-.457 2.746-.179 5.966-.179 5.966-2.222-.356-3.988-1.995-3.988-1.995-3.035-3.023-1.19-5.275-1.19-5.275 1.706-2.35 6.349-3.535 6.349-3.535-.14.434-.992 4.84-.992 4.84zM42.09 23.121s-3.234-2.252-14.543-.652l-.317 1.078s13.925-2.169 13.31 3.48c0 0 .42 6.089-11.247 12.035 0 0-2.063 1.185-6.15 2.192 0 0-2.6.692-5.258.356 0 0 .258-2.805.794-4.86 0 0 1.349-4.602 2.261-6.874l6.111-1.383.456-.138-.06-.079s-2.975.356-6.249.968c0 0 2.525-5.895 2.823-6.586l3.447-8.15s4.305-.355 5.575-.197c0 0 5.853.138 5.297 3.417 0 0-.159 1.442-2.341 3.555 0 0 4.186-.967 5-3.753 0 0 .912-3.555-5.377-4.306 0 0-3.492-.316-6.11-.197 0 0-4.604.276-5.179.335 0 0-2.877 6.638-3.69 8.89 0 0-1.707 4.82-2.44 7.585 0 0-2.263.494-3.135.73 0 0-10.436 2.332-3.929 8.337 0 0 2.004 2.113 5.734 2.963 0 0 .278 1.5.456 1.857l.675.276s-.238-1.837-.179-2.015c0 0 3.572.929 11.29-1.738 0 0 8.293-2.667 12.24-7.743.06-.02 5.398-6.5.735-9.383z" fill="#fff"/><path d="M20.941 29.857c-.893 2.271-2.262 6.874-2.262 6.874-.555 2.054-.79 4.932-.79 4.932 2.64.336 5.272-.363 5.272-.363 4.087-.988 6.175-2.14 6.175-2.14C41.002 33.216 40.92 26.914 40.92 26.914c.615-5.63-13.69-3.378-13.69-3.378l-.138.633s6.547-1.107 10.138.04c0 0 3.81 1.086 1.944 5.115 0 0-1.785 3.497-5.912 6.519 0 0-3.135 2.43-8.293 4.168 0 0-1.39.454-3.234.671-1.905.238-3.115-.059-3.115-.059l-.377-.079s.278-2.113.595-3.694c.337-1.54 2.103-6.992 2.103-6.992z" fill="#fff"/><path d="M21.22 29.244s2.44-5.926 2.737-6.617l3.362-8.202s4.482-.361 5.752-.203c0 0 5.966.249 5.41 3.528 0 0-.279 1.42-2.46 3.534 0 0 1.09-.257 2.28-.87-1.428.83-2.5 1.166-2.5 1.166l-.555.178c1.627-1.837 1.746-2.667 1.746-2.667.496-2.33-3.194-3.062-3.194-3.062-2.361-.592-6.479-.149-6.479-.149l-.802 1.63-2.758 5.966-2.54 5.768zM13.502 33.037c-1.985 1.955.138 4.602.138 4.602 1.31 1.758 3.136 2.45 3.136 2.45.08.809.136 1.447.136 1.447-2.222-.355-4.065-2.08-4.065-2.08-3.036-3.022-1.19-5.274-1.19-5.274 1.706-2.35 6.349-3.535 6.349-3.535-3.334 1.066-4.505 2.39-4.505 2.39z" fill="#fff"/></svg>