<!-- by TradingView --><svg width="56" height="56" viewBox="0 0 56 56" xmlns="http://www.w3.org/2000/svg"><path fill="#F0F3FA" d="M0 0h56v56H0z"/><path d="M4 32v-8h2.95c.56 0 1.02.09 1.4.27a1.87 1.87 0 0 1 1.1 1.77c0 .33-.06.6-.18.83-.12.22-.28.4-.48.55-.2.14-.43.24-.69.3v.08c.28.02.54.1.8.26.5.3.85.88.85 1.68 0 1.39-1.31 2.26-2.63 2.26H4Zm1.4-1.3h1.5c.5 0 .87-.1 1.1-.3.22-.2.33-.46.33-.78a1.2 1.2 0 0 0-.65-1.07c-.2-.11-.45-.17-.74-.17H5.4v2.31Zm0-3.35h1.38c.24 0 .46-.04.65-.13a1.06 1.06 0 0 0 .63-.99c0-.3-.11-.56-.32-.76-.2-.2-.52-.3-.93-.3H5.4v2.18ZM13.58 32c-1.78 0-2.81-1.37-2.81-3.04 0-1.65.99-2.96 2.73-2.96 1.73 0 2.65 1.28 2.65 2.88v.43H11.4v-.94h3.43c0-.75-.53-1.37-1.32-1.37-.81 0-1.4.67-1.4 1.45v.82c0 1.03.58 1.73 1.47 1.73.6 0 1.05-.35 1.23-.85l1.27.15c-.24 1.02-1.16 1.7-2.51 1.7ZM17 32v-6h1.34v.96h.06c.18-.59.84-.96 1.43-.96.15 0 .36.01.49.04v1.28c-.12-.04-.4-.08-.64-.08-.67 0-1.3.46-1.3 1.17V32H17ZM29.36 28.42V32H28v-6h1.3v.98h.07c.28-.68.87-.98 1.6-.98 1.16 0 2.04.98 2.03 2.12V32h-1.42v-3.56c0-.79-.42-1.26-1.12-1.26-.67 0-1.1.61-1.1 1.24ZM39.01 27.64l-1.24.14c-.04-.13-.1-.25-.19-.36a.92.92 0 0 0-.34-.28c-.15-.07-.33-.1-.54-.1-.28 0-.52.06-.71.19-.2.12-.29.29-.28.49 0 .17.05.3.18.42.13.1.34.2.63.26l.99.22c.55.12.95.2 1.22.47.27.26.4.6.4 1.02 0 .38-.1.7-.31.99-.21.28-.5.5-.87.66-.38.16-.8.24-1.28.24-.71 0-1.28-.15-1.71-.45-.44-.31-.7-.73-.78-1.28l1.33-.13c.06.27.2.47.39.6.2.14.45.2.76.2.33 0 .59-.06.78-.2.2-.13.3-.3.3-.5 0-.17-.07-.3-.2-.42-.12-.1-.31-.2-.58-.25l-.99-.21a2.33 2.33 0 0 1-1.23-.6c-.27-.28-.4-.53-.4-.97 0-.36.1-.68.3-.94.2-.27.47-.48.82-.63.35-.15.76-.22 1.22-.22.68 0 1.22.15 1.6.44.4.3.64.7.73 1.2ZM42.89 32c-1.75 0-2.77-1.42-2.77-3.05 0-1.6 1.08-2.95 2.77-2.95s2.77 1.34 2.77 2.95c0 1.66-1.06 3.05-2.77 3.05Zm0-1c.93 0 1.39-.98 1.39-2.05 0-.84-.4-1.95-1.38-1.95-.99 0-1.4 1.08-1.4 1.95 0 1.08.46 2.05 1.4 2.05ZM48.36 28.42V32H47v-6h1.3v.98h.07c.28-.68.87-.98 1.6-.98 1.16 0 2.04.98 2.03 2.12V32h-1.42v-3.56c0-.79-.42-1.26-1.12-1.26-.67 0-1.1.61-1.1 1.24ZM23.8 32c-1.76 0-2.8-1.37-2.8-3.04 0-1.65 1-2.96 2.74-2.96 1.72 0 2.64 1.28 2.64 2.88v.43h-4.74v-.94h3.43c0-.75-.53-1.37-1.31-1.37-.82 0-1.4.67-1.4 1.45v.82c0 1.03.57 1.73 1.47 1.73.6 0 1.04-.35 1.22-.85l1.27.15c-.23 1.02-1.16 1.7-2.51 1.7Z" fill="#1D5E7E"/></svg>