<!-- by TradingView --><svg width="56" height="56" viewBox="0 0 56 56" xmlns="http://www.w3.org/2000/svg"><path fill="#F0F3FA" d="M0 0h56v56H0z"/><path d="M34.38 33.68a1.3 1.3 0 1 1-2.4-.99 1.3 1.3 0 0 1 2.4 1ZM22.85 24.14a1.29 1.29 0 1 1 0-2.58 1.29 1.29 0 0 1 0 2.58ZM34.38 23.32a1.3 1.3 0 1 1-2.4-1 1.3 1.3 0 0 1 2.4 1ZM22.85 34.44a1.29 1.29 0 1 1 0-2.57 1.29 1.29 0 0 1 0 2.57Z" fill="#73E5AE"/><path d="M32.93 19.51a1.3 1.3 0 1 1-2.4-.99 1.3 1.3 0 0 1 2.4.99ZM25.47 37.48a1.3 1.3 0 1 1-2.4-1 1.3 1.3 0 0 1 2.4 1ZM24.77 20.21a1.3 1.3 0 1 1-1-2.4 1.3 1.3 0 0 1 1 2.4ZM32.23 38.19a1.3 1.3 0 1 1-1-2.4 1.3 1.3 0 0 1 1 2.4ZM38.19 32.23a1.3 1.3 0 1 1-2.4-1 1.3 1.3 0 0 1 2.4 1ZM20.21 24.77a1.3 1.3 0 1 1-2.4-1 1.3 1.3 0 0 1 2.4 1ZM37.48 25.47a1.3 1.3 0 0 1-1.69-.7 1.3 1.3 0 1 1 2.4-1 1.3 1.3 0 0 1-.7 1.7ZM19.5 32.93a1.3 1.3 0 0 1-1.69-.7 1.3 1.3 0 1 1 1.7.7Z" fill="#52A8BC"/><path d="M20.27 37.02a1.29 1.29 0 1 1 0-2.58 1.29 1.29 0 0 1 0 2.58ZM35.73 21.56a1.29 1.29 0 1 1 0-2.57 1.29 1.29 0 0 1 0 2.57ZM20.27 21.56a1.29 1.29 0 1 1 0-2.57 1.29 1.29 0 0 1 0 2.57ZM35.73 37.02a1.29 1.29 0 1 1 0-2.58 1.29 1.29 0 0 1 0 2.58ZM28 18.58A1.29 1.29 0 1 1 28 16a1.29 1.29 0 0 1 0 2.58ZM28 40.1a1.29 1.29 0 1 1 0-2.56 1.29 1.29 0 0 1 0 2.57ZM17.18 29.29a1.29 1.29 0 1 1 0-2.57 1.29 1.29 0 0 1 0 2.57ZM38.82 29.29a1.29 1.29 0 1 1 0-2.57 1.29 1.29 0 0 1 0 2.57Z" fill="#247CDF"/><path d="M21.3 12.71a.85.85 0 1 1 .01-1.7.85.85 0 0 1 0 1.7ZM34.69 45a.85.85 0 0 1-.86-.85.85.85 0 1 1 1.71 0c0 .47-.38.85-.85.85ZM34.69 12.71a.85.85 0 1 1 0-1.7.85.85 0 0 1 0 1.7ZM21.3 45a.85.85 0 0 1-.84-.85.85.85 0 1 1 1.7 0c0 .47-.38.85-.85.85ZM44.14 22.17a.85.85 0 1 1 0-1.71.85.85 0 0 1 0 1.7ZM11.85 35.54a.85.85 0 1 1 0-1.7.85.85 0 1 1 0 1.7ZM44.14 35.55a.85.85 0 0 1-.85-.86.85.85 0 1 1 .85.85ZM11.86 22.17a.85.85 0 1 1 0-1.71.85.85 0 0 1 0 1.7ZM38.3 18.54a.85.85 0 1 1 0-1.7.85.85 0 0 1 0 1.7ZM17.7 39.15a.85.85 0 1 1 0-1.69.85.85 0 0 1 0 1.7ZM38.3 39.15a.85.85 0 1 1 0-1.7.85.85 0 0 1 0 1.7ZM17.7 18.54a.85.85 0 1 1 0-1.69.85.85 0 0 1 0 1.7ZM40.37 24.14a1.29 1.29 0 1 1 0-2.58 1.29 1.29 0 0 1 0 2.58ZM15.63 34.44a1.29 1.29 0 1 1 0-2.57 1.29 1.29 0 0 1 0 2.57ZM40.37 34.44a1.29 1.29 0 1 1 0-2.57 1.29 1.29 0 0 1 0 2.57ZM15.63 24.14a1.29 1.29 0 1 1 0-2.58 1.29 1.29 0 0 1 0 2.58ZM27.48 14.42a.84.84 0 1 1 0-1.7.84.84 0 1 1 0 1.7ZM27.48 43.27a.85.85 0 1 1 0-1.69.85.85 0 0 1 0 1.7ZM22.85 16.92a1.29 1.29 0 1 1 0-2.57 1.29 1.29 0 0 1 0 2.57ZM33.15 16.92a1.29 1.29 0 1 1 0-2.57 1.29 1.29 0 0 1 0 2.57ZM22.85 41.65a1.29 1.29 0 1 1 0-2.57 1.29 1.29 0 0 1 0 2.57ZM33.15 41.65a1.29 1.29 0 1 1 0-2.57 1.29 1.29 0 0 1 0 2.57ZM42.43 29.36a.84.84 0 0 1-.85-.84.84.84 0 1 1 1.7 0c0 .46-.39.84-.85.84ZM13.57 29.36a.85.85 0 1 1 0-1.7.85.85 0 0 1 0 1.7Z" fill="#2C3E92"/></svg>