<!-- by TradingView --><svg width="56" height="56" viewBox="0 0 56 56" xmlns="http://www.w3.org/2000/svg"><path fill="#F0F3FA" d="M0 0h56v56H0z"/><path d="M4 21v12h11V21H4Zm10 8c-1.32 0-3 1.65-3 3h-1c0-2 2.01-4 4-4v1Zm0-2c-2.66 0-5 2.31-5 5H8c0-3.35 2.67-6 6-6v1Zm0-2c-4.02 0-7 2.93-7 7H6c0-4.76 3.31-8 8-8v1Z" fill="#318BB3"/><path d="M16 27v6h1.5v-6H16ZM39 27v6h1.5v-6H39ZM23.5 32.98v-3.1c0-.9-.5-1.58-1.45-1.58-.93 0-1.55.76-1.55 1.66V33H19v-6h1.35l.1.88c.6-.58 1.23-.88 1.98-.88 1.43 0 2.57 1.04 2.57 2.9V33h-1.5v-.02ZM29.96 28.65a1.9 1.9 0 0 0-1.38-.5c-.67 0-1.03.2-1.03.55 0 .37.33.58 1.04.63 1.06.06 2.41.3 2.41 1.82 0 .99-.8 1.85-2.4 1.85-.9 0-1.78-.15-2.6-1.01l.68-1c.4.46 1.32.78 1.93.8.53.01 1-.27 1-.68 0-.39-.32-.55-1.1-.59-1.06-.08-2.32-.47-2.32-1.75 0-1.31 1.35-1.77 2.37-1.77a3 3 0 0 1 2.18.74l-.78.91ZM32 35v-8h1.4l.08 1c.42-.61 1.04-1 1.68-1 1.7 0 2.84 1.27 2.84 2.9S36.97 33 35.21 33c-.59 0-1.32-.36-1.71-.98V35H32Zm4.5-5c0-.86-.53-1.5-1.5-1.5-1 0-1.5.64-1.5 1.5s.58 1.5 1.5 1.5c.92.02 1.5-.62 1.5-1.5ZM43.4 27l.1.84c.39-.74.66-.84 1.19-.84.52 0 1.03.24 1.31.56l-.57 1.25a1.2 1.2 0 0 0-.91-.38c-.67 0-1.02.4-1.02 1.48V33H42v-6h1.4ZM47.47 30.5c.09.7.72 1.22 1.72 1.22.52 0 1.2-.2 1.54-.53l.91.88c-.61.63-1.6.93-2.47.93-1.98 0-3.17-1.22-3.17-3.03 0-1.72 1.13-2.97 3-2.97 1.93 0 3.2 1.17 2.97 3.52l-4.5-.02Zm3.12-1c-.09-.74-.78-1.17-1.59-1.17-.77 0-1.3.44-1.51 1.17h3.1Z" fill="#DB7722"/><circle cx="16.75" cy="25.25" r=".75" fill="#DB7722"/><circle cx="39.75" cy="25.25" r=".75" fill="#DB7722"/></svg>