<!-- by TradingView --><svg width="56" height="56" viewBox="0 0 56 56" xmlns="http://www.w3.org/2000/svg"><path fill="url(#ah5znro3a)" d="M0 0h56v56H0z"/><path d="M6 32v-.14c.41-.15 1-.3 1-.8v-7.12c0-.51-.58-.65-1-.8V23h4.14c1.38 0 3.36.26 3.36 2 0 1.34-1.4 2-2.5 2.19 1.31.13 3 .7 3 2.3C14 31.63 11.27 32 9.67 32H6Zm3-4.81h.52c1.25 0 1.98-.97 1.98-2.19 0-1.14-.56-1.73-1.82-1.73H9v3.92Zm0 4.54h.62c1.46 0 2.38-.7 2.38-2.24 0-1.4-1.05-2.03-2.4-2.03H9v4.27ZM20.87 32c-1.13 0-1.87-.98-1.87-2v-4.74h-.5V25c1.18-.24 1.7-1.08 2.37-2h.25v2h1.14v.26h-1.14v5.1c0 .9.54 1.44 1.26.45l.12.14A1.73 1.73 0 0 1 20.87 32ZM25.83 32l-2.03-5.24a.92.92 0 0 0-.58-.56l-.22-.08V26h3.23v.12l-.2.05c-.34.1-.46.3-.34.6l1.22 3.5 1.1-2.72-.25-.7a1.43 1.43 0 0 0-.2-.42.5.5 0 0 0-.25-.2l-.23-.1V26h2.73v.12l-.18.08c-.13.05-.21.11-.24.2-.03.08 0 .2.05.37l1.21 3.44 1.26-3.42c.12-.31.05-.5-.2-.6l-.3-.07V26H33v.12l-.32.1a.6.6 0 0 0-.33.19c-.06.08-.11.2-.17.35L30.28 32h-.67l-1.46-4.05L26.6 32h-.77ZM40.14 32c-.72 0-1.48-.16-2.14-.47V30h.2l.44.84c.35.58.82.93 1.51.93.77 0 2.03-.75 1.13-1.57a2.6 2.6 0 0 0-1.02-.44l-.55-.16a2.77 2.77 0 0 1-1.25-.65c-.3-.3-.46-.66-.46-1.1 0-.51.23-.95.68-1.31.45-.36 1.1-.54 1.94-.54a4.1 4.1 0 0 1 1.83.4l-.08 1.27h-.13l-.45-.73a1.69 1.69 0 0 0-.5-.54c-.16-.11-.4-.17-.72-.17-.3 0-.57.08-.83.23-.26.15-.4.36-.4.63s.11.48.33.64c.23.15.56.3 1 .43l.58.15c.63.18 1.08.41 1.35.72.27.3.4.66.4 1.08 0 1.47-1.67 1.89-2.86 1.89ZM47.27 26C48.7 26 50 27 50 29h-4c.01 1.29.6 2.26 1.97 2.26.73 0 1.34-.22 1.84-.74l.14.1c-.55.86-1.45 1.38-2.73 1.38-1.77 0-3.22-1.14-3.22-2.98 0-1.8 1.55-3.02 3.27-3.02Zm-.04.23c-1.2 0-1.22 1.55-1.23 2.41h2.5c0-.64-.03-2.4-1.27-2.4ZM14.5 32v-.13c.38-.1.5-.26.5-.7V27.5c0-.43-.12-.42-.5-.5v-.26l2-.74h.5v5c0 .4.14.76.5.87V32h-3ZM17 24a1 1 0 1 1-2 0 1 1 0 0 1 2 0ZM33.5 32v-.13c.38-.1.5-.26.5-.7V27.5c0-.43-.12-.42-.5-.5v-.26l2-.74h.5v5c0 .4.14.76.5.87V32h-3ZM36 24a1 1 0 1 1-2 0 1 1 0 0 1 2 0Z" fill="#F0F3FA"/><defs><linearGradient id="ah5znro3a" x1="10.42" y1="9.71" x2="68.15" y2="76.02" gradientUnits="userSpaceOnUse"><stop stop-color="#1A1E21"/><stop offset="1" stop-color="#06060A"/></linearGradient></defs></svg>