<!-- by TradingView --><svg xmlns="http://www.w3.org/2000/svg" width="56" height="56" viewBox="0 0 56 56"><path fill="#F0F3FA" d="M0 0h56v56H0z"/><path d="M22 12.15v4.1l3 1.59v-3.47a.5.5 0 0 1 .76-.43l12.6 7.66c.44.41.6.94.64 1.16v1.1c.02.55-.33 1.02-.52 1.2l-2.25 1.6-1.89 1.6-18.09 10.37a.5.5 0 0 0-.25.44v3.45c0 .4.44.63.77.41L36.83 29.9l3.4-2.58c1.47-.97 1.8-2.34 1.77-2.9v-1.58a4.11 4.11 0 0 0-1.94-3.48l-14.17-8.8c-2.73-1.5-3.93.44-3.89 1.6Z" fill="#700B35"/><path d="M23.03 44.2v-2.84L26 39.42v2c0 .4.44.63.77.42l11.46-7.43c.6-.43.75-1.12.77-1.41v-1.03a2 2 0 0 0-.99-1.44L16.28 19.8a.5.5 0 0 1-.28-.45v-3.5a.5.5 0 0 1 .74-.44c7.7 4.32 22.1 12.4 23.49 13.2A3.41 3.41 0 0 1 42 31.43v2.2a3.47 3.47 0 0 1-1.6 2.7l-14.04 9.08c-2.76 1.49-3.37-.18-3.33-1.2Z" fill="#028FC6"/></svg>