<!-- by TradingView --><svg width="56" height="56" viewBox="0 0 56 56" xmlns="http://www.w3.org/2000/svg"><path fill="#F0F3FA" d="M0 0h56v56H0z"/><path d="M39.02 26.02c-.1-.21-.32-.53-.58-.95l-4-5.92A85.33 85.33 0 0 1 28 7c-.9 2.17-3.35 7.4-6.5 12.15-1.6 2.43-2.98 4.5-3.99 5.92-.21.42-.43.74-.53.95-1.33 2.22-5.7 8.61-.48 16.27 3.09 4.55 7.72 5.76 11.5 5.7 3.78.06 8.36-1.2 11.5-5.7 5.22-7.66.85-14.05-.48-16.27Z"/><path d="M36.3 32.89a.87.87 0 0 0-.31-.16c-.16-.1-.06-.32-.16-.37-.06-.05-.22 0-.32.05-.1.06-1.01-.63-1.44-.95-.43-.26-1.28-.8-1.5-.9-.26-.1-.26.06-.52.37-.27.32-1.07 1.22-1.33 1.22-.27.05-.38-.16-.54-.1-.16.05-1.38 1.53-1.54 1.58-.16.05-.16-.1-.27 0-.05.05-.9 1.27-1.06 1.32-.16.05-.32-.1-.43-.05-.1.05-.42.68-.48.9-.05.2-.37.79-.53.79-.16 0-.43-.37-.59-.48l-.74-.47a1.8 1.8 0 0 1-.64-.64 3.63 3.63 0 0 0-.75-.8c-.16-.1-.26-.1-.32-.3-.05-.22-.26-.38-.31-.54-.06-.1-.16 0-.38 0-.16 0-.26.1-.37.27-.1.16-.27.31-.48.53-.21.2-.27.2-.48.31-1.03.52-2.03.88-2.77 1.85-.16.21-.42.27-.69.37-.27.1-.7.21-.9.32-.59.29-.93 1.42-1.23 2 .05.17.16.38.21.54.11-.11.32-.27.43-.32.33-.33.53-1.38.64-1.8.1-.29.75-.43 1.01-.47.37-.06.7.1.75.1.05 0 .05-.1.05-.16-.05-.05-.27-.1-.32-.16-.05-.05.1-.15.21-.2.06-.11.48.05.59 0 .16-.06.1-.11 0-.16-.1-.11-.16-.11-.22-.16-.05-.06.06-.16.16-.21a11.7 11.7 0 0 0 2.3-1.48c.15-.11.37-.16.58-.27.27-.1.53-.53.64-.53.1 0 .21.58.21.58s.27.06.37.11c.11.05-.05.1-.1.16-.05.05.16.16.26.16.11.05.38.16.48.26.11.16-.1.16-.26.1-.16-.05-.16 0-.38-.1-.15-.1-.2-.26-.26-.42-.05-.16-.1 0-.1.1-.06.11.05.48.1.74.29 1.45-1.7 2.57-1.7 4.13 0 .26.15.26.42.36.27.11.27 0 .48.06.21.05.1.26 0 .37-.1.1-.37 0-.64 0s-.16.16-.16.31c0 .16.32-.05.37-.05.06-.05.32-.05.48-.05.16 0 .16.05.32.16.16.1.1 0 .27-.16.16-.16.1 0 .27.05.15.05.58 0 1.22 0 .59 0 .96-.1 1.06-.16.11-.05.06-.1-.1-.1s-.37-.06-.64-.06c-.32 0-.16-.05-.43-.05-.26 0-.69.05-.96-.05-.26-.1-.26-.16-.37-.27-.1-.1.1 0 .27-.05.16-.05.05-.1.05-.26 0-.46 1.46.26 2.24.26.32 0 .1-.05.16-.16.05-.1-.06-.05-.27-.05-.5 0-.87-.37-1.38-.37-.16.05-.48 0-.8 0-.32 0-.21-.05-.27-.21-.2-.62 1.42-.16 1.65-.1.22.05.85 0 .9-.06 0-.05-.15-.1-.26-.16-.1-.1-.21-.1-.42-.1-.22 0-.54.05-.59-.06-.05-.1.21-.05.32-.05.1-.05.1-.05.1-.16 0-.1.17-.05.33 0 .16.06.74-.05.8-.1.1-.06-.11-.21-.27-.27-.16-.05-.85-.16-1.01-.2-.16-.06-.06-.22-.11-.33-.05-.1-.32-.05-.37-.15-.06-.1.26-.1.37-.06.1.06.05-.16.16-.31.1-.16.16.1.32.26s.21.16.42.21c.22.05.11-.1.06-.26-.1-.16-.1-.06-.27-.1-.16-.06-.16-.17-.21-.33-.05-.15.16 0 .32.11.16.1.53.21.58.16.11-.05-.2-.21-.37-.32-.16-.05-.1-.37 0-.47.1-.16.1 0 .16.05.05.05.16.1.32.1s.37.43.43.64c.1.21-.06.16-.16.37-.11.21-.06.58 0 .8.05.15.16-.06.16-.17 0-.1.1-.58.21-1 .1-.37.32-.74.37-1.06.06-.31.48-.84.64-.84.16-.06.16.1.37.16.22.05.22-.16.32-.37.11-.16.38-.7.54-.9.16-.21.1-.16.32 0 .16.16.16-.06.2-.1.06-.06.22-.38.27-.48.06-.1.11-.21.27-.32.16-.1.85-.8 1.01-.8.16 0 .22.06.27.27 0 .21.1.1.27.1.15 0 .1-.05.15-.2.06-.16.6-.85.8-1.17.22-.31.38-.31.59-.31.21 0 .05.31.05.47 0 .16.16.37.27.48.02.02-.28 1.76-.48 1.95-.1.16.05.16.05.21 0 .06-.1 0-.16 0-.05 0-.1.06-.21 0-.16-.05-.05-.16-.16-.16-.1 0-.27.16-.27.43 0 .26.48.16.8.1.32 0 .22-.1.38-.2.16-.11 0-.17 0-.38 0-.2.16-.53.26-.63.1-.1.06.1.27.05.21 0 .1-.1.26.05.11.1.11.58.11.69 0 .33.5 1.26.7 1.59.1.26.05.84-.17.84-.21.05-.21-.26-.42-.37-.22-.1-.06.27-.1.58-.06.32.2.21.2.32 0 .1 0 .47.16.53.16.05.06.16.06.31-.06.16.16.22.21.32.05.1-.1.1-.37.27-.27.15-.06.26-.16.63s-.27.21-.43.42c-.16.21-.1 1.16-.26 1.27-.51.5-1.26 1.08-1.87 1.48-.16.1-.1.26-.1.37 0 .31-1.9 3.2-2.24 3.54-.16.16-.27.1-.48.26-.21.16-.1.37-.21.69-.11.32-.27.37-.32.48-.06.1-.32.05-.32.05l-.1.05h.79c.23-.34.3-.77.53-1.1.1-.11.21-.06.32-.11.16-.06.1-.16.1-.16s1.18.05 1.23 0c.06-.06.22-.06.27-.16.05-.05-.16-.05-.32-.05-.1 0-.32-.06-.32-.16-.05-.1.37 0 .48 0 .1 0 .1-.1.1-.21 0-.1-.1-.06-.37-.1-.26-.06-.37 0-.42-.06-.06-.05.32-.1.48-.1a1 1 0 0 1 .37-.11c.1 0 .1-.1 0-.16-.1-.05-.59-.1-.64-.1-.1-.06.05-.17.1-.32.06-.16.22-.16.38-.27.16-.1 1.54.1 1.65.05.1 0 .21-.1.21-.2-.05-.11-.53-.11-.85-.17a2.82 2.82 0 0 1-.8-.26c-.21-.1.06-.32.1-.42.12-.1.33 0 .6.05.26.05 1.06 0 1.06 0s.21-.05.32-.05c.1 0 .42.2.64.26.21.05 0-.26 0-.26s-.1-.06-.22-.06c-.1 0-.15-.05-.31-.1l-.38-.1c-.21-.06-.05-.32-.05-.32h-.1l-.11.37c-1.86 0-.32-1.16 0-.85.1.05.48.05.58.05.1 0 .1-.15.1-.2 0-.06-.2 0-.36 0-.16 0-.16-.06-.27-.11-.1-.06-.05-.1.05-.16.58-.29.1-.64.85-.64.06 0 .27.43.27.43s.05.53.05.74c0 .2.64.52.64.52s-.1.74-.1.85c0 .1-.06.32 0 .48.05.1.16 0 .26 0s.06.37.06.52c0 .16.16.06.37.22.21.15.37.37.42.47.06.1-.63.8-.63.8l.58-.27c.48-.27 1.01-.58 1.5-.95l-.11-.53.58.16c.43-.32.8-.69 1.17-1.11l.64-.74-.1-.21s-.06.05-.16.05c-.15.07-.82-.37-1.07-.37-.32.32-.72.07-.9-.21 0 0-.11 0-.32-.05-.22-.06-.11-.1-.16-.1-.11 0-.11.04-.32 0-.22-.06-.38-.22-.64-.33-.27-.1-.05-.42.1-.52.16-.11.59 0 .86.05.26.05.32.37.32.37s.16-.05.26 0c.2 0 1.85.35 2.03.47.16.06.37.37.42.43.1-.1.21-.27.27-.37.16-.27.37-.53.53-.8 0-.15-.05-.37-.1-.42l-.33-.53s-.53.06-.8 0c-.26-.05-.2-.2-.37-.31-.16-.1-.21-.06-.42-.06-.22 0-.1-.16-.22-.26-.1-.1-.16 0-.37 0s0 .26 0 .37c0 .31-1.38-.34-1.49-.42-.21-.16-.16-.16-.37-.32-.22-.16-.16-.21-.1-.32.04-.1.58-.05.79.06.21.05.48.15.7.31.2.1.42.1.68.1.27 0 .06-.1.16-.1.11.06.27.16.59.21.32.06.32 0 .48.16.16.16.21.16.48.32.26.16.53 0 .64.05.05 0 .21.48.26.74.27-.53.54-1 .7-1.53 0 0-.27-.05-.43-.05-.16-.06-.05-.1-.16-.21-.1-.11-.75 0-1.01 0-.32 0-.16-.06-.27-.22-.1-.15-.48-.95-.53-.95-.33 0-.4-.3-.64-.42-.1-.05-.16 0-.27.05-.5.25-1.18-.22-1.54-.58-.1-.1-.16-.05-.32-.1l-.27-.1c-.16-.27.06-.27.22-.33.16-.05.26.1.37.16.1.05.43.27.48.27.05.05.27-.1.43-.1.16 0 .26.1.42.15.16.05.37-.05.43-.21.05-.16-.06-.48-.43-.69-.37-.21-.58-.16-.74-.26-.16-.1-.54-.48-.54-.48s.11-.1.32-.05c.22.05.27.26.43.26.16 0 .21-.1.27-.26.05-.16-.06-.27-.32-.42a2.12 2.12 0 0 0-.64-.37c-.22-.06-.43-.16-.48-.27-.06-.1-.22-.37-.32-.37-.1-.05-.1.1-.27.16-.16.05-.21 0-.42-.05-.22-.06-.16-.32-.22-.42-.05-.11-.26-.11-.37-.16-.1-.06-.1-.21-.05-.32.05-.1.16.05.21.05.05 0 .16.06.37.1.22.06.32 0 .48.06.16.05.1.1.21.32.16.16.11 0 .22-.1.1-.11.1 0 .26.15.16.1.22 0 .38-.05s0-.1-.11-.21c-.1-.16-.27-.27-.43-.37-.52-.35-1.12-.38-1.6-.69-.2-.1-.53-.48-.8-.69-.26-.26-.31-.47-.2-.47.1 0 2.5 1.48 2.5 1.48s.16 0 .21.05c.05.05.21.21.27.21.05 0 .16.05.26.16.6 1.17 4.46 3.93 5.22 4.38.05-.1.05-.26.1-.37-1.12-.32-4.3-3.26-5.26-4.22Z" fill="#F0F3FA"/><path d="M20.33 35.32c.06-.05.22 0 .27.16.1.16.1.05.21.05.1 0 .1-.1.21 0 .11.05.32 0 .43 0 .1 0 .1-.05.1-.16 0-.1-.26-.05-.37-.1-.16-.06-.1 0-.16-.11-.05-.05-.1 0-.26.05-.16.06-.1-.05-.27-.1-.16-.06-.26 0-.26 0l.05.26c-.05 0-.05 0 .05-.05ZM20.44 36c.1.06.37 0 .53 0 .16 0 .05-.1.05-.15 0-.06-.26-.06-.37-.1-.1-.06-.16 0-.32 0s-.21-.06-.26-.17c-.06-.1-.27-.05-.43 0 0 0-.05.16 0 .21h.16c.05 0 .27.1.32.16 0-.05.16 0 .32.05ZM19.59 36c-.11 0-.38.06-.38.06.06.1.06.1.11.1.1 0 .05.06.16.06.1 0 .21 0 .21-.1-.05 0 0-.11-.1-.11ZM17.24 37.48c.06-.05.11-.05.38 0 .26.06.16 0 .16-.1 0-.05-.16-.1-.27-.1h-.69l-.06.15s.22.05.27.1c.1.06.16-.05.21-.05ZM18.47 38.22c-.06-.1-.21 0-.32 0-.1 0-.37.06-.48 0-.1-.05-.1-.2-.16-.15-.05 0-.21 0-.32-.06-.1-.05-.1-.05-.16-.1-.05-.06-.1 0-.27 0v.1h.11c.05 0 .21.06.27.16.05.1.16.05.26.05.16 0 .06.06.16.22.1.15.16.05.43.05s.32-.05.37 0c.05.05.1.1.27.1.16 0 .05-.05 0-.1-.06-.05-.1-.16-.16-.27ZM16.5 38.44c.05.05.16.15.21.15.05 0 .1-.05.1-.1s-.05-.21-.1-.16a.54.54 0 0 0-.16.05c-.05-.05-.1-.05-.05.06Z" fill="#F0F3FA"/><path d="M16.4 38.86c.1 0 .31.05.36.05.06 0 .22.1.32.1.11 0 .22 0 .32.06.16.05.27 0 .38.05.1.05 0 .16.1.1.1-.05.27-.15.16-.2-.1-.06-.16-.1-.26-.1a.57.57 0 0 1-.32-.11c-.06-.06-.06-.16-.16-.16-.16 0-.22.05-.27.05-.1-.05-.32-.05-.37-.1-.06-.06-.16-.06-.22-.06-.05 0-.1.16-.1.16 0 .1-.06.16.05.16ZM18.26 40.28h-.64c-.16 0-.16.06-.32-.05-.16-.1-.54-.26-.59-.26-.05 0-.27-.1-.32-.1l-.21.04c-.05.11-.05.16 0 .22.05.05.21-.06.21.1.05.16-.05.21.1.21h.33c.1 0-.06.1.16.16.21.05.21 0 .32 0 .1 0 .1.05.21.05.1 0 .1-.05.27-.05.16 0 .26.05.42.05.1 0 .27.11.27-.05.05-.21-.1-.32-.21-.32ZM16.44 41.02c.11 0 .16-.05.27 0 .1.06.05.16.16.11.1 0 .21.05.16-.05.05-.06 0-.27-.16-.27s-.37 0-.48-.05l-.21-.1c-.1-.06-.21 0-.21 0 0 .05 0 .05-.06.1 0 .05.06.05.06.1.05 0 .16 0 .2.06.17.05.17.1.27.1ZM16.76 41.5c.11.05.22.05.16 0 0-.05 0-.21-.1-.26-.1-.06-.16.05-.32 0-.1-.06-.32-.06-.32-.11 0 .05.05.1.05.1.06 0 .06.06.1.06.22.16.27.16.43.21ZM24.6 41.4c-.11 0-.54.05-.6 0-.05-.06.06-.16-.1-.27-.16-.1-.27.05-.37-.05-.1-.1.05-.16-.27-.16s-.42.05-.58.05c-.16 0-.38.05-.43-.05-.1-.1-.16-.21-.21-.21-.11 0-.11.05-.11.05-.05.1 0 .16-.27.16-.26 0-.42-.1-.48.05-.05.16-.26.53-.1.53s.21-.05.26-.1c.11-.06.22 0 .32 0 .11-.06.16-.11.27-.06.1.05-.05.05.05.1.11.06.27 0 .38.06.05.05.1.21.2.21.12.05.06.16.22 0s.16-.37.32-.37.21.05.21.16c0 .1-.05.16.16.21.22.05.75.16.86.16.1 0 .1-.05.2-.21.06-.1.12-.27.06-.27ZM24.27 43.08h-.58c-.16 0-.06.06-.22.06s-.16 0-.2-.06c-.06-.05 0-.15-.17-.05-.1.05-.1.16-.27.1-.1-.05-.31-.1-.26-.26.05-.16-.1-.42.05-.37.16.06.05.1.21.16.16 0 .11-.05.32 0 .22.05.32.1.48.1.16 0 .38-.05.38-.1.05-.05-.11-.2-.22-.2-.1 0-.48 0-.64-.06-.16-.05-.2-.21-.42-.21-.21 0-.37.05-.48-.1-.1-.17-.16-.22-.27-.22-.21 0-.32.26-.42.26-.11 0-.7-.1-.8 0-.1.1-.21.37-.1.37.1 0 .2-.15.31-.15.1 0 .1.15.16.26.05.16.05.21.16.16.16-.06.16-.16.27-.16.1 0 .26-.1.26.05.06.16.22.16 0 .21a1.9 1.9 0 0 0-.58.32c-.06.1 0 .16.1.16.16 0 .22.05.32 0 .06-.05.06-.16.22-.21.16 0 .2-.06.26 0 .06.05.38.31.59.31l.21.06h.43c.1 0 .05.05.16.05.1 0 .05-.16.21-.16.16 0 .53.05.53-.05s.22-.27 0-.27ZM23.85 44.09c-.06-.1 0-.21-.16-.16-.16.05-.43.1-.48.05-.06-.05-.22-.2-.32-.16-.1.06-.22.11-.27.06-.05-.06-.05-.16-.21-.1-.1.04-.21 0-.27-.11-.1-.06-.32-.11-.42-.06-.16.06-.27.16-.43.1-.16-.04-.16-.1-.32-.15-.21-.1-.43.05-.43.05-.1.06-.15.21-.05.21.1 0 .43-.05.53 0 .11.06.11.22.27.22.1 0 .16-.16.27-.16.16-.06.26-.1.37 0 .1.1 0 .26.21.26.22-.05.48-.05.59 0 .1.05.21.21.37.27.16.05.21.15.37.1.16-.05.16-.1.22-.05.1.05.16.26.26.2.1-.04.43-.41.27-.41-.16-.16-.32-.06-.37-.16ZM23.26 45.3c-.21-.05-1.12-.31-1.28-.37-.16 0-.21.06-.21-.05 0-.1.05-.21-.1-.26-.17-.06-.22-.06-.27-.16-.06-.1-.06.05-.11 0a.78.78 0 0 1-.21-.1c-.06.05.05.05-.06.1-.1.05-.1.16-.26.1-.16-.05-.16-.1-.27 0-.05.11-.05.22-.16.22-.1 0-.21-.06-.21.05 0 .1-.05.16.1.2.17.06.48.11.64.11.11.06.16.11.38.11.21 0 .64.05.8.05.16 0 .42 0 .63.06.16.05.38.05.54.15.16.11.16.16.26.06.11-.1-.05-.21-.2-.27ZM21.56 45.67c-.22-.05-.16 0-.32 0s-.22 0-.32-.05-.27-.16-.37-.16c-.11 0-.22 0-.27-.05 0 0-.05 0-.05.05 0 .06.05.06.1.1.1.06.22.11.37.22.11.1.38.21.54.26.16.06.26 0 .42.06.16.05.27.1.43.1.16 0 0-.16-.05-.26-.06-.1-.27-.21-.48-.27ZM26.03 44.99c.1.05.58 0 .64 0 .05 0 .05-.1-.1-.16-.17-.05-.11-.1-.27-.16-.16-.05-.22.05-.22.05-.1.16-.16.21-.05.27ZM27.36 46.57c-.16-.1-.74-.31-.8-.53-.05-.2-.16-.26.1-.26.27 0 .7.1.65-.05-.06-.16 0-.27-.22-.27-.2 0-.63-.05-.8-.05-.1 0-.58.05-.58-.1 0-.16-.16-.16-.16-.16-.1.05-.1.1-.16.1-.1 0-.05-.1-.21-.1-.16.05-.38.1-.16.2.21.11.42.17.58.17.22.05.32.1.43.1.16.05.1.05.05.16-.1.05.06.16-.16.16-.21 0-.8-.1-.96 0-.16.1-.63.2-.47.26.16.1.58 0 .85.05.26.06.42-.05.53.16.1.21 0 .32.1.32.11 0 .06-.16.17-.16.1 0 .16 0 .32.05.16.06.31.11.47 0 .16-.05.22-.05.32-.05.11.16.27.1.11 0ZM27.95 42.34c.05-.05.16-.05.1-.15-.05-.1-.1-.21 0-.21.06 0 .27.15.32 0 .06-.16 0-.22-.1-.22-.11 0-.22.06-.27 0-.05-.05-.05-.15-.21-.15-.16 0-.22.05-.22.05-.05.05-.16.05 0 .16.16.1.22.1.27.2.05.11.05.17-.05.17-.11 0-.48-.1-.43 0 0 .1.05.26.16.26.1 0 .05 0 .16-.05.05-.06.16 0 .27-.06ZM28.16 41.02c-.05-.05 0-.15-.1-.05-.11.1-.06.21-.17.16-.1-.05 0-.16-.16-.1-.16.05-.32 0-.21.1.1.1.16.1.27.21.1.1.05.16.16.21.1.05.16 0 .16-.16 0-.1.05-.15.1-.2.06 0 .1-.06.1-.17 0-.1-.04-.15-.04-.15-.06.15-.06.2-.11.15ZM30.08 41.02c-.16.06-.22.06-.32.11-.11.05-.16.1-.16.1-.06.06-.11.16-.16.11-.06-.05-.1-.1-.16 0-.1.1-.22.16-.1.16.1.05.1-.05.2 0 .11.05 0 .1.16.05s0-.16.22-.16c.16 0 0-.05.16 0 .16.06.16 0 .26 0 .1.06-.05.06.1.06.17-.06.12-.16.17-.1.05.04.05.15.21.2.16 0 .1-.16.06-.26-.11-.1-.16-.21-.27-.21-.16-.06-.21-.1-.37-.06ZM27.15 40.4c.1 0 .37-.06.42 0 .06.04-.05.04.11.1.1 0 .27-.06.27.05 0 .05-.06.1.1.1h.38c.1.06.26.11.37.11.1-.05.32-.16.21-.21-.1-.1-.21-.05-.37-.1-.1-.06-.05-.06-.21-.06-.16 0-.22-.1-.32-.1-.11 0-.06.1-.22.1-.1 0-.21-.1-.37-.16-.16 0-.53.05-.53.05 0 .06.05.11.16.11ZM27.3 39.86c.11 0 .17.05.27.05.11.06.16-.05.27-.05.1 0 .16.1.27.16.1.05.16.1.16-.05 0-.16 0-.27.1-.16.1.05.22.16.32.16s.27.05.27-.06c0-.1-.05-.26-.16-.26-.16 0-.21 0-.32-.1-.16-.06-.32-.11-.37-.06-.11.06-.11.1-.11.16 0 .05-.05 0-.21 0-.16-.05-.16.1-.27 0-.1-.1-.1-.16-.21-.16-.1 0-.16.1-.16.1.05.22 0 .27.16.27ZM28.27 39.07c.16.1.2.05.26.1.06.06.1.11.22.06.1-.06.2 0 .05-.16-.1-.16-.1-.21-.27-.26-.16 0-.26.05-.26.05-.06.1-.22.1 0 .2ZM30.13 38.38c-.1.06-.21.1-.16.27.05.16-.05.26.05.26.06 0 .27 0 .27-.1 0-.11.05-.16 0-.27 0-.1-.16-.16-.16-.16ZM31.09 39.12c.1.05.16.16.26.05.11-.05.11-.15.22-.2.1 0 .32-.11.42-.06.11.05.16.21.27.21.1 0 .16-.1.21-.05.06.05-.05.1.16.16.22.05.22.05.27-.06.05-.1.1 0 .1-.15.06-.16 0-.21-.05-.16-.05.05-.16.2-.21.16-.05-.06-.05-.06-.1-.21-.06-.16-.11-.22-.33-.16-.21.05-.37.05-.48.05-.1-.05-.16-.1-.26-.05s-.1.16-.22.05a.65.65 0 0 0-.1-.16c-.1.05-.1 0-.1.1 0 .11.04.17 0 .22-.11.1-.17.2-.06.26ZM32 36.38c-.17 0-.54-.06-.54-.06-.05 0-.05.06-.05.06-.1.1-.16.26-.1.36.1.11.15.11.2.06.06-.06.16-.1.27-.06.1 0 0 .11.16.11h.27c.05 0 .1 0 .2.05.12 0 .22-.05.12-.2-.11-.17-.32-.32-.54-.32ZM31.14 35.42c.05.11 0 .11.21.16.22.06.22.06.27.16.05.1.1.05.21.05.11 0 .38 0 .48.06.16 0 .22-.06.16-.1-.05-.06-.32-.06-.42-.11-.11-.06-.11-.11-.27-.11-.16 0-.27 0-.32-.05-.05-.06-.32-.1-.32-.06ZM28.53 35.74c.1.05.22-.05.27-.1.05-.06.1.05.26.05.11 0 .22-.05.22.05 0 .16.05.21-.06.21-.16 0-.42-.05-.47 0-.06.05-.16.1-.06.16.1.05.32.1.48.05.16-.05.27-.05.43.06.16.05.21.1.32.1.1 0 .26 0 .16-.1-.16-.1-.32-.06-.38-.16-.05-.1-.1-.27 0-.21.11 0 .16.1.27.05.1-.05.27.05.21-.1-.05-.11-.26-.22-.42-.22-.22 0-.27.06-.48-.05-.22-.1-.32-.16-.37-.1a.9.9 0 0 1-.27.1c-.1.1-.21.21-.1.21ZM29.5 36.8c-.06-.1-.12-.16-.28-.27-.1-.1-.2-.15-.31-.15-.06 0-.16.1-.16.1.05.16-.06.26.16.26.2.06.63.16.58.06ZM28.9 34.58c.11.05.17 0 .32.05.16.05.11.05.22.1.1.06.21.06.21-.05 0-.1-.05-.2-.16-.26-.1-.05-.27-.05-.27-.05-.1 0-.26-.06-.31 0 0 .1-.11.16 0 .2ZM29.06 33.9c.16.04.11.1.27.04.16 0 .1-.05.37 0 .22.06.16.11.32.11.11.05.27-.05.32-.1.06-.06 0-.16-.1-.16-.11 0-.11 0-.11-.1 0-.12-.1-.22-.27-.27-.16-.06-.37 0-.42.05-.06.05-.1.16-.1.16-.17 0-.17 0-.17.1s-.27.1-.1.16ZM33.11 44.78c.16 0 .7.1.7 0 0-.11.15-.27 0-.32-.17-.05-.27-.1-.33 0-.05.1-.2.05-.37.05-.1 0-.21.05-.21.05.05.16.05.22.21.22ZM34.34 45.62c-.22-.1-.59-.16-.64-.16-.06 0-.06.21-.1.21-.06 0-.06-.1-.17-.15-.1 0-.32.05-.37.05-.1 0-.16-.1-.27-.16-.1-.05-.64-.05-.64-.05-.05 0-.05.05-.05.05 0 .1.1.16.37.16s.22.05.32.1c.1.06.16.1.27.06.1-.06.1-.1.26-.1.11 0 .11.1.22.15.1.05.16.1.26.05.06-.05.11-.1.22-.1.1 0 .42.05.42.05s.11-.05-.1-.16ZM33.6 46.15c-.12.05-.12.05-.17.16a.36.36 0 0 1-.32.2c-.16 0-.37-.04-.42 0-.06.06-.11.11-.22.06h-.58c-.16.05-.11.21.05.27.16.05.21.05.43.1a2 2 0 0 0 .64-.1c.1-.06 1.33-.53 1.33-.53 0-.06-.43 0-.54-.06-.1-.05-.16-.1-.2-.1ZM39.18 36.43c-.21-.05-.32 0-.42 0-.11 0-.27-.21-.38-.27-.1-.05-.16 0-.16 0-.16.22-.26.37-.1.48.16.1.37.05.48.1.1.06 0 .53.26.53.27 0 .32.06.38-.26 0-.27.16-.48-.06-.58ZM39.93 36.85c-.22-.1-.48-.1-.48-.1 0 .26-.22.15-.1.47.1.26.15.37.26.32.1-.06.16-.16.32-.1.16.04.32.3.37.1.1-.21.1-.16-.1-.37-.17-.27-.06-.21-.27-.32Z" fill="#F0F3FA"/><path d="M22.52 17.56a220.03 220.03 0 0 1-5 7.5 10.54 10.54 0 0 1-.54.96l-.2.33a19.32 19.32 0 0 0-2.3 4.97 8.42 8.42 0 0 0 6.24 2.74 8.38 8.38 0 0 0 8.4-8.34c0-4-2.82-7.34-6.6-8.16Z" fill="#333"/><path d="m21.67 18.9-.17.25a219.7 219.7 0 0 1-3.99 5.92c-.12.25-.25.46-.35.63l-.18.32-.2.33c-.5.8-1.23 2.01-1.82 3.52a6.97 6.97 0 0 0 12.53-4.15 6.93 6.93 0 0 0-5.82-6.82Z" fill="#545454"/><path d="M20.67 20.41a187.77 187.77 0 0 1-3.16 4.66c-.12.25-.25.46-.35.63l-.18.32-.2.33c-.29.46-.65 1.07-1.02 1.78a5.36 5.36 0 0 0 10.12-2.41 5.33 5.33 0 0 0-5.2-5.3Z" fill="gray"/><path d="M19.48 22.2c-.75 1.12-1.42 2.09-1.97 2.87a10.5 10.5 0 0 1-.53.95l-.12.2a3.69 3.69 0 0 0 3.66 3.17c2.05 0 3.7-1.64 3.7-3.67a3.68 3.68 0 0 0-4.74-3.52Z" fill="#ABABAB"/><path d="M20.52 27.9a2.2 2.2 0 0 0 2.21-2.18 2.2 2.2 0 0 0-2.2-2.19 2.2 2.2 0 0 0-2.21 2.19c0 1.2.98 2.19 2.2 2.19Z" fill="#D1D1D1"/><path d="M20.5 26.77c.58 0 1.06-.47 1.06-1.05 0-.58-.48-1.06-1.07-1.06a1.06 1.06 0 1 0 0 2.11Z" fill="#F0F0F0"/></svg>