<!-- by TradingView --><svg width="56" height="56" viewBox="0 0 56 56" fill="none" xmlns="http://www.w3.org/2000/svg">
<rect width="56" height="56" fill="#F0F3FA"/>
<path d="M25.5011 24.6548L25.5267 28.896C25.5267 28.9225 25.5163 28.9478 25.4978 28.9665C25.4793 28.9852 25.4541 28.9958 25.428 28.9958H24.1187C24.0872 28.9958 24.057 28.9831 24.0348 28.9606C24.0125 28.9382 24 28.9077 24 28.8759V22.0785C24 22.0641 24.004 22.05 24.0114 22.0377C24.0188 22.0255 24.0293 22.0155 24.042 22.0089C24.0546 22.0022 24.0688 21.9992 24.083 22.0002C24.0972 22.0011 24.1108 22.006 24.1225 22.0142L30.4695 26.4859C30.5024 26.5089 30.5189 26.5003 30.5189 26.46L30.5094 22.117C30.5094 22.1017 30.5124 22.0864 30.5182 22.0722C30.524 22.058 30.5325 22.0451 30.5433 22.0343C30.5541 22.0234 30.5668 22.0148 30.5809 22.0089C30.5949 22.003 30.61 22 30.6252 22H31.9155C31.9263 22 31.9371 22.0022 31.9471 22.0064C31.9571 22.0105 31.9662 22.0167 31.9739 22.0244C31.9816 22.0322 31.9877 22.0414 31.9918 22.0515C31.996 22.0616 31.9981 22.0725 31.9981 22.0834L32 28.9212C32 28.9355 31.9962 28.9496 31.9889 28.9618C31.9816 28.9741 31.9712 28.9841 31.9587 28.9908C31.9462 28.9975 31.9321 29.0007 31.918 28.9999C31.9038 28.9991 31.8902 28.9945 31.8785 28.9865L25.5561 24.6251C25.5508 24.6214 25.5446 24.6192 25.5382 24.6189C25.5317 24.6185 25.5253 24.6199 25.5196 24.623C25.5139 24.6261 25.5092 24.6307 25.5059 24.6363C25.5027 24.6419 25.501 24.6483 25.5011 24.6548Z" fill="#18355E"/>
<path d="M14.4275 22H13.1085C13.0486 22 13 22.0502 13 22.1122V28.8878C13 28.9498 13.0486 29 13.1085 29H14.4275C14.4874 29 14.536 28.9498 14.536 28.8878V22.1122C14.536 22.0502 14.4874 22 14.4275 22Z" fill="#18355E"/>
<path d="M18.4435 23.3404H15.6452C15.6248 23.3404 15.6053 23.3321 15.5909 23.3172C15.5765 23.3023 15.5684 23.2821 15.5684 23.261V22.0794C15.5684 22.0584 15.5765 22.0382 15.5909 22.0233C15.6053 22.0084 15.6248 22 15.6452 22H22.9075C22.9279 22 22.9474 22.0084 22.9618 22.0233C22.9762 22.0382 23.0002 22.0584 23.0002 22.0794V23.261C23.0002 23.2821 22.9762 23.3023 22.9618 23.3172C22.9474 23.3321 22.9279 23.3404 22.9075 23.3404H20.0851C20.0647 23.3404 20.0452 23.3488 20.0308 23.3637C20.0164 23.3786 20.0002 23.3988 20.0002 23.4199V28.9206C20.0002 28.9416 20.0002 28.9618 19.9858 28.9767C19.9714 28.9916 19.9519 29 19.9315 29H18.5971C18.5768 29 18.5572 28.9916 18.5428 28.9767C18.5284 28.9618 18.5203 28.9416 18.5203 28.9206V23.4199C18.5203 23.3988 18.5122 23.3786 18.4978 23.3637C18.4834 23.3488 18.4639 23.3404 18.4435 23.3404Z" fill="#18355E"/>
<path d="M35.4054 22H34.1056C34.0473 22 34 22.0489 34 22.1093V28.8907C34 28.9511 34.0473 29 34.1056 29H35.4054C35.4637 29 35.511 28.9511 35.511 28.8907V22.1093C35.511 22.0489 35.4637 22 35.4054 22Z" fill="#18355E"/>
<path d="M39.0401 27.6357L43.8843 27.6338C43.917 27.6338 43.9484 27.6468 43.9715 27.6701C43.9946 27.6934 43.9996 27.725 43.9996 27.7579V28.8719C43.9996 28.9553 43.9672 28.9974 43.8843 28.998H37.8191L37.5167 29C37.4737 28.9914 37.4521 28.9318 37.4521 28.8868V22.0745C37.4521 22.0547 37.4599 22.0358 37.4736 22.0218C37.4874 22.0078 37.5061 22 37.5255 22H38.8953C38.9213 22 38.9462 22.0105 38.9645 22.0291C38.9829 22.0477 38.9996 22.073 38.9996 22.0993V27.5891C38.9996 27.6202 39.0088 27.6357 39.0401 27.6357Z" fill="#18355E"/>
<path d="M52 27.6479V28.998L45.1459 29C45.0486 29 45 28.9513 45 28.854V22.0864C45 22.0751 45.0022 22.0638 45.0066 22.0534C45.011 22.0429 45.0174 22.0333 45.0254 22.0253C45.0335 22.0173 45.043 22.0109 45.0536 22.0066C45.0641 22.0022 45.0754 22 45.0868 22H50.9093C50.9323 22 50.9544 22.0092 50.9707 22.0256C50.987 22.042 50.9961 22.0642 50.9961 22.0874V23.2548C50.9961 23.2662 50.9938 23.2776 50.9895 23.2882C50.9851 23.2988 50.9787 23.3085 50.9707 23.3166C50.9626 23.3247 50.9531 23.3311 50.9425 23.3355C50.932 23.3399 50.9207 23.3422 50.9093 23.3422L46.5932 23.3402C46.5825 23.3402 46.5722 23.3445 46.5647 23.3521C46.5571 23.3598 46.5528 23.3701 46.5528 23.3809V24.613C46.5528 24.6462 46.5692 24.6627 46.6021 24.6627H49.34C49.353 24.6627 49.3659 24.6653 49.378 24.6704C49.39 24.6756 49.4009 24.683 49.4101 24.6925C49.4192 24.7019 49.4265 24.7131 49.4314 24.7253C49.4363 24.7376 49.4387 24.7508 49.4386 24.7641L49.4268 25.9105C49.4265 25.9354 49.4164 25.9591 49.3987 25.9766C49.381 25.9941 49.357 26.0039 49.3321 26.0039H46.6139C46.5732 26.0039 46.5528 26.0248 46.5528 26.0665V27.5853C46.5528 27.6244 46.5722 27.6439 46.611 27.6439L52 27.6479Z" fill="#18355E"/>
<path d="M10.4079 25.1972C11.1126 25.4605 11.4809 25.9958 11.5129 26.8031C11.5801 28.4631 10.4905 28.974 9.07931 29L4.384 28.9981H4V22.1052C4 22.0782 4.01042 22.0522 4.02896 22.0331C4.0475 22.014 4.07265 22.0032 4.09888 22.0032L8.53596 22C9.92314 22.005 11.1394 22.5292 10.9062 24.2602C10.8569 24.6275 10.6876 24.9139 10.3983 25.1192C10.3918 25.1237 10.3867 25.1301 10.3835 25.1375C10.3802 25.145 10.379 25.1532 10.38 25.1613C10.381 25.1694 10.3842 25.177 10.3891 25.1833C10.394 25.1897 10.4005 25.1945 10.4079 25.1972ZM6.99507 25.9398L7 24.7499C7 24.6732 7.02899 24.6359 7.10259 24.6379C7.68626 24.6559 9.27035 24.9542 9.35771 24.1242C9.40859 23.6422 9.06299 23.3552 8.62427 23.3532C7.5926 23.3472 6.56509 23.3486 5.54174 23.3572C5.53376 23.3575 5.5262 23.361 5.52064 23.3669C5.51509 23.3729 5.51198 23.3809 5.51198 23.3892V27.5791C5.51198 27.6198 5.5315 27.6408 5.57054 27.6421H8.97099C9.51147 27.6221 10.0047 27.4121 9.93754 26.7732C9.88474 26.2732 9.4927 26.017 9.06167 26L7.04595 26C7.03245 26 7.01951 25.9872 7.00997 25.9773C7.00043 25.9674 6.99507 25.9539 6.99507 25.9398Z" fill="#18355E"/>
<path d="M4.00194 34L5.12471 31.0176C5.12647 31.013 5.12943 31.0089 5.13327 31.0058C5.1371 31.0028 5.14168 31.0008 5.14651 31.0002C5.15134 30.9996 5.15624 31.0003 5.16068 31.0024C5.16513 31.0044 5.16895 31.0076 5.17175 31.0117L6.59254 33.041C6.59567 33.0455 6.59981 33.0492 6.6046 33.0518C6.60939 33.0544 6.61472 33.0559 6.62014 33.0559C6.62556 33.056 6.63092 33.0548 6.6358 33.0524C6.64068 33.05 6.64493 33.0464 6.64822 33.042L8.06612 31.0315C8.06948 31.0266 8.07406 31.0228 8.07938 31.0204C8.0847 31.018 8.09055 31.0172 8.09629 31.018C8.10204 31.0189 8.10745 31.0213 8.11195 31.025C8.11645 31.0288 8.11986 31.0337 8.1218 31.0394L9.22099 33.8997C9.23763 33.9424 9.22387 34 9.17971 34H8.66708C8.6306 34 8.60596 33.946 8.59316 33.9105L7.97781 32.1853C7.97574 32.1794 7.97217 32.1742 7.96747 32.1702C7.96277 32.1663 7.95712 32.1637 7.95111 32.1628C7.9451 32.1619 7.93897 32.1627 7.93336 32.1651C7.92775 32.1675 7.92287 32.1714 7.91925 32.1764L6.65302 33.9835C6.64936 33.9886 6.64459 33.9928 6.63909 33.9957C6.63358 33.9985 6.6275 34 6.62134 34C6.61517 34 6.6091 33.9985 6.60359 33.9957C6.59809 33.9928 6.59332 33.9886 6.58966 33.9835L5.32535 32.1744C5.32255 32.1703 5.31873 32.1671 5.31428 32.165C5.30983 32.163 5.30494 32.1623 5.30011 32.1629C5.29528 32.1635 5.2907 32.1654 5.28687 32.1685C5.28303 32.1716 5.28007 32.1757 5.27831 32.1803L4.66008 33.8868C4.64664 33.9243 4.61288 33.9934 4.57384 34H4.00194Z" fill="#18355E"/>
<path d="M44.9124 34H44.3623L43.2142 33.8649C43.2037 33.8639 43.1939 33.8589 43.1868 33.851C43.1797 33.843 43.1757 33.8326 43.1758 33.8218L43.1796 33.4116C43.1797 33.4035 43.1816 33.3954 43.1851 33.3881C43.1886 33.3808 43.1937 33.3744 43.1999 33.3693C43.2062 33.3643 43.2135 33.3607 43.2212 33.3589C43.229 33.357 43.2371 33.357 43.2449 33.3587C43.7815 33.4801 45.4174 33.7415 45.7466 33.1854C45.7547 33.1724 45.7597 33.1576 45.7612 33.1421C45.7627 33.1267 45.7606 33.111 45.7553 33.0963C45.5921 32.6548 44.4564 32.6881 44.0561 32.6528C43.3294 32.5892 42.9329 31.8432 43.5214 31.2743C43.962 30.8494 45.4673 31.0159 46.0222 31.1304C46.0554 31.1376 46.0721 31.1585 46.0721 31.1931V31.569C46.0721 31.6043 46.0551 31.6183 46.0212 31.6111C45.4375 31.4897 44.9009 31.4936 44.3095 31.5122C43.5291 31.5367 43.722 32.1467 44.3911 32.1692C44.843 32.1849 45.2586 32.2332 45.6382 32.3141C46.459 32.4893 46.5271 33.5575 45.7582 33.8522C45.5335 33.9383 45.2516 33.9876 44.9124 34Z" fill="#18355E"/>
<path d="M12.2017 31.6141L12.1978 32.1476C12.1977 32.1557 12.1991 32.1638 12.202 32.1714C12.2049 32.179 12.2092 32.1859 12.2146 32.1917C12.2201 32.1975 12.2266 32.2022 12.2338 32.2053C12.2409 32.2085 12.2486 32.2101 12.2564 32.2101H13.3978C13.4134 32.2101 13.4282 32.2166 13.4392 32.2281C13.4502 32.2396 13.4564 32.2553 13.4564 32.2716V32.6528C13.4564 32.6691 13.4502 32.6847 13.4392 32.6963C13.4282 32.7078 13.4134 32.7143 13.3978 32.7143H12.2583C12.2428 32.7143 12.2279 32.7208 12.2169 32.7323C12.2059 32.7438 12.1998 32.7595 12.1998 32.7758L12.2046 33.4091C12.2046 33.4254 12.2107 33.441 12.2217 33.4526C12.2327 33.4641 12.2476 33.4706 12.2631 33.4706H14.4365C14.4517 33.4706 14.4663 33.4768 14.4773 33.4879C14.4882 33.499 14.4946 33.5141 14.4951 33.5301L14.5047 33.9365C14.5049 33.9447 14.5036 33.9529 14.5008 33.9606C14.498 33.9683 14.4937 33.9753 14.4882 33.9813C14.4828 33.9872 14.4762 33.9919 14.469 33.9951C14.4618 33.9983 14.454 34 14.4461 34H11.667C11.6514 34 11.6365 33.9935 11.6256 33.982C11.6146 33.9704 11.6084 33.9548 11.6084 33.9385V31.0615C11.6084 31.0452 11.6146 31.0296 11.6256 31.018C11.6365 31.0065 11.6514 31 11.667 31H14.114C14.1293 31 14.1441 31.0063 14.155 31.0177C14.166 31.029 14.1723 31.0444 14.1725 31.0605L14.1793 31.4931C14.1794 31.5013 14.178 31.5094 14.1751 31.517C14.1722 31.5245 14.1679 31.5314 14.1624 31.5373C14.157 31.5431 14.1505 31.5477 14.1433 31.5509C14.1362 31.554 14.1285 31.5556 14.1207 31.5556L12.2612 31.5526C12.2534 31.5525 12.2457 31.554 12.2385 31.557C12.2313 31.56 12.2247 31.5645 12.2192 31.5703C12.2136 31.576 12.2092 31.5828 12.2062 31.5903C12.2032 31.5979 12.2017 31.606 12.2017 31.6141Z" fill="#18355E"/>
<path d="M18.5678 31.6151L18.5726 33.9395C18.5726 33.9474 18.5711 33.9553 18.5682 33.9626C18.5653 33.97 18.561 33.9767 18.5557 33.9823C18.5503 33.9879 18.544 33.9924 18.537 33.9954C18.53 33.9984 18.5225 34 18.515 34H18.0513C18.036 34 18.0214 33.9936 18.0106 33.9823C17.9998 33.9709 17.9996 33.9555 17.9996 33.9395L17.9966 31.6151C17.9966 31.6072 17.9951 31.5993 17.9922 31.592C17.9893 31.5846 17.985 31.578 17.9797 31.5723C17.9743 31.5667 17.968 31.5623 17.961 31.5592C17.954 31.5562 17.9465 31.5546 17.939 31.5546H16.7803C16.765 31.5546 16.7503 31.5482 16.7395 31.5369C16.7287 31.5256 16.7227 31.5102 16.7227 31.4941V31.0605C16.7227 31.0445 16.7287 31.0291 16.7395 31.0177C16.7503 31.0064 16.765 31 16.7803 31H19.7946C19.8097 31 19.8242 31.0062 19.835 31.0174C19.8458 31.0285 19.852 31.0436 19.8522 31.0595L19.857 31.4931C19.8572 31.5011 19.8558 31.5091 19.8529 31.5166C19.8501 31.524 19.8459 31.5308 19.8405 31.5365C19.8351 31.5423 19.8287 31.5468 19.8217 31.5499C19.8146 31.553 19.8071 31.5546 19.7994 31.5546H18.6254C18.6101 31.5546 18.5954 31.561 18.5846 31.5723C18.5738 31.5837 18.5678 31.5991 18.5678 31.6151Z" fill="#18355E"/>
<path d="M24.0281 33.3978H22.304C22.299 33.3979 22.294 33.3993 22.2897 33.402C22.2853 33.4046 22.2816 33.4084 22.279 33.4129L21.943 33.9849C21.9404 33.9895 21.9368 33.9932 21.9324 33.9958C21.9281 33.9985 21.9231 33.9999 21.9181 34H21.3277C21.3223 34 21.317 33.9985 21.3124 33.9956C21.3078 33.9928 21.304 33.9886 21.3014 33.9837C21.2989 33.9788 21.2977 33.9732 21.2979 33.9676C21.2981 33.962 21.2998 33.9565 21.3027 33.9518L23.144 31.0142C23.1467 31.0098 23.1504 31.0062 23.1547 31.0038C23.1591 31.0013 23.164 31 23.1689 31C23.1739 31 23.1788 31.0013 23.1831 31.0038C23.1875 31.0062 23.1912 31.0098 23.1939 31.0142L25.0352 33.9518C25.0381 33.9565 25.0398 33.962 25.04 33.9676C25.0402 33.9732 25.039 33.9788 25.0364 33.9837C25.0339 33.9886 25.0301 33.9928 25.0255 33.9956C25.0209 33.9985 25.0156 34 25.0102 34H24.4294C24.4245 34 24.4196 33.9987 24.4152 33.9963C24.4109 33.9938 24.4072 33.9903 24.4045 33.9859L24.0531 33.4119C24.0504 33.4075 24.0467 33.404 24.0423 33.4015C24.038 33.3991 24.0331 33.3978 24.0281 33.3978ZM22.6208 32.8418C22.6177 32.8468 22.6159 32.8525 22.6157 32.8584C22.6154 32.8643 22.6167 32.8701 22.6193 32.8754C22.622 32.8806 22.6259 32.885 22.6307 32.8881C22.6355 32.8912 22.6411 32.8929 22.6467 32.893L23.6835 32.899C23.6892 32.8991 23.6949 32.8975 23.6998 32.8945C23.7048 32.8915 23.7088 32.8871 23.7116 32.8818C23.7144 32.8766 23.7157 32.8706 23.7155 32.8646C23.7153 32.8587 23.7135 32.8528 23.7104 32.8478L23.1968 32.0028C23.1939 31.998 23.19 31.9941 23.1853 31.9913C23.1806 31.9886 23.1753 31.9872 23.1699 31.9872C23.1645 31.9872 23.1592 31.9886 23.1545 31.9913C23.1498 31.9941 23.1459 31.998 23.143 32.0028L22.6208 32.8418Z" fill="#18355E"/>
<path d="M28.2851 33.0393L29.4313 31.0401C29.4339 31.0356 29.4375 31.0318 29.4419 31.0292C29.4463 31.0266 29.4724 31.0002 29.4775 31.0001H30.0774C30.0829 30.9997 30.0884 31.0009 30.0933 31.0036C30.0982 31.0063 30.1023 31.0104 30.1051 31.0154C30.1079 31.0204 30.1093 31.0261 30.1091 31.0318C30.109 31.0376 30.1073 31.0432 30.1042 31.0481L28.286 33.9859C28.2833 33.9902 28.2796 33.9938 28.2753 33.9962C28.2709 33.9987 28.266 34 28.2611 34C28.2561 34 28.2512 33.9987 28.2469 33.9962C28.2425 33.9938 28.2388 33.9902 28.2361 33.9859L26.4121 31.0481C26.4091 31.0433 26.4074 31.0378 26.4072 31.0321C26.4071 31.0264 26.4084 31.0208 26.411 31.0158C26.4137 31.0109 26.4177 31.0068 26.4224 31.004C26.4272 31.0012 26.4326 30.9999 26.438 31.0001L27.0524 31C27.0575 31.0001 27.0624 31.0176 27.0668 31.0202C27.0711 31.0228 27.0748 31.0266 27.0774 31.0311L28.2332 33.0393C28.2358 33.044 28.2396 33.048 28.2441 33.0508C28.2487 33.0536 28.2539 33.055 28.2591 33.055C28.2644 33.055 28.2696 33.0536 28.2741 33.0508C28.2787 33.048 28.2825 33.044 28.2851 33.0393Z" fill="#18355E"/>
<path d="M33.0469 33.4939L35.2568 33.4878C35.2692 33.4878 35.2812 33.4931 35.29 33.5024C35.2988 33.5117 35.3038 33.5244 35.3038 33.5376V33.9502C35.3038 33.9634 35.2988 33.9761 35.29 33.9854C35.2812 33.9948 35.2692 34 35.2568 34H32.4709C32.4584 34 32.4464 33.9948 32.4376 33.9854C32.4288 33.9761 32.4238 33.9634 32.4238 33.9502V31.0528C32.4238 31.0396 32.4288 31.027 32.4376 31.0176C32.4464 31.0083 32.4584 31.003 32.4709 31.003L34.9438 31C34.9563 31 34.9682 31.0052 34.9771 31.0146C34.9859 31.0239 34.9908 31.0366 34.9908 31.0498L34.9928 31.4604C34.9928 31.4736 34.9878 31.4862 34.979 31.4956C34.9702 31.5049 34.9582 31.5102 34.9457 31.5102H33.0469C33.0344 31.5102 33.0224 31.5154 33.0136 31.5247C33.0048 31.5341 32.9998 31.5468 32.9998 31.56V32.1463C32.9998 32.1595 33.0048 32.1722 33.0136 32.1816C33.0224 32.1909 33.0344 32.1961 33.0469 32.1961H34.2248C34.2372 32.1961 34.2492 32.2014 34.258 32.2107C34.2669 32.2201 34.2718 32.2327 34.2718 32.2459V32.6545C34.2718 32.6677 34.2669 32.6803 34.258 32.6897C34.2492 32.699 34.2372 32.7043 34.2248 32.7043H33.0469C33.0344 32.7043 33.0224 32.7095 33.0136 32.7189C33.0048 32.7282 32.9998 32.7409 32.9998 32.7541V33.4441C32.9998 33.4573 33.0048 33.47 33.0136 33.4793C33.0224 33.4887 33.0344 33.4939 33.0469 33.4939Z" fill="#18355E"/>
<path d="M49.4264 33.4941L51.6296 33.488C51.6352 33.488 51.6408 33.4892 51.646 33.4915C51.6512 33.4938 51.6559 33.4972 51.6598 33.5014C51.6637 33.5057 51.6668 33.5107 51.6689 33.5163C51.671 33.5218 51.672 33.5277 51.6718 33.5337V33.9266C51.6716 33.9383 51.6565 33.9791 51.6486 33.9873C51.6407 33.9954 51.6301 34 51.619 34H48.8264C48.8152 34 48.8045 33.9953 48.7966 33.9869C48.7886 33.9785 48.7842 33.9672 48.7842 33.9553V31.0488C48.7842 31.0369 48.7886 31.0255 48.7966 31.0172C48.8045 31.0088 48.8152 31.0041 48.8264 31.0041L51.3099 31C51.3211 31 51.3319 31.0047 51.3398 31.0131C51.3477 31.0215 51.3522 31.0328 51.3522 31.0447V31.4663C51.3522 31.4782 51.3477 31.4895 51.3398 31.4979C51.3319 31.5063 51.3211 31.511 51.3099 31.511H49.4187C49.4131 31.511 49.4075 31.5122 49.4023 31.5145C49.3972 31.5168 49.3925 31.5202 49.3885 31.5245C49.3846 31.5287 49.3815 31.5338 49.3794 31.5393C49.3774 31.5448 49.3764 31.5508 49.3765 31.5567L49.3871 32.1531C49.3873 32.1647 49.3919 32.1759 49.3998 32.184C49.4077 32.1922 49.4183 32.1968 49.4293 32.1967H50.5899C50.6011 32.1967 50.6119 32.2015 50.6198 32.2098C50.6277 32.2182 50.6322 32.2296 50.6322 32.2414V32.66C50.6322 32.6719 50.6277 32.6832 50.6198 32.6916C50.6119 32.7 50.6011 32.7047 50.5899 32.7047H49.4264C49.4152 32.7047 49.4045 32.7094 49.3965 32.7178C49.3886 32.7262 49.3842 32.7376 49.3842 32.7494V33.4494C49.3842 33.4612 49.3886 33.4726 49.3965 33.481C49.4045 33.4894 49.4152 33.4941 49.4264 33.4941Z" fill="#18355E"/>
<path d="M39.4551 32.9634L38.4634 32.9603C38.4135 32.9603 38.3889 32.9863 38.3895 33.0383L38.3982 33.9422C38.3988 33.9807 38.3809 34 38.3444 34H37.8759C37.8362 34 37.8164 33.9791 37.8164 33.9372V31.0674C37.8164 31.039 37.8298 31.0242 37.8567 31.0228C38.9402 30.9931 39.641 30.9924 39.9591 31.0208C40.9325 31.1059 41.1687 32.478 40.1924 32.8509C40.1822 32.8549 40.173 32.8613 40.1655 32.8696C40.158 32.8779 40.1524 32.888 40.1493 32.8989C40.1461 32.9098 40.1454 32.9213 40.1472 32.9325C40.149 32.9437 40.1533 32.9543 40.1597 32.9634L40.8269 33.9321C40.8583 33.9774 40.8477 34 40.7953 34H40.2481C40.2058 34 40.1729 33.9814 40.1492 33.9443C39.9399 33.6207 39.7242 33.3021 39.5021 32.9887C39.4964 32.9808 39.4892 32.9744 39.4811 32.97C39.4729 32.9656 39.464 32.9634 39.4551 32.9634ZM38.3943 31.5579L38.3914 32.4293C38.3914 32.4348 38.3934 32.4401 38.397 32.444C38.4006 32.448 38.4055 32.4503 38.4106 32.4506L39.721 32.4557C39.7857 32.456 39.8498 32.4446 39.9096 32.4223C39.9694 32.4 40.0238 32.3671 40.0696 32.3256C40.1154 32.2841 40.1518 32.2348 40.1767 32.1804C40.2015 32.126 40.2144 32.0677 40.2145 32.0088V31.9905C40.2146 31.872 40.1632 31.7581 40.0714 31.674C39.9796 31.5898 39.855 31.5422 39.7249 31.5416L38.4145 31.5366C38.4118 31.5366 38.4092 31.5371 38.4068 31.5382C38.4043 31.5393 38.4021 31.5408 38.4002 31.5428C38.3984 31.5448 38.3969 31.5471 38.3959 31.5497C38.3948 31.5523 38.3943 31.5551 38.3943 31.5579Z" fill="#18355E"/>
</svg>
