<!-- by TradingView --><svg width="56" height="56" viewBox="0 0 56 56" xmlns="http://www.w3.org/2000/svg"><path fill="#F0F3FA" d="M0 0h56v56H0z"/><path d="M36.14 17.27a14.72 14.72 0 0 1 4.4 9.73H44c-.2-4.05-1.95-7.7-4.67-10.38A16.23 16.23 0 0 0 21 13.58a15.26 15.26 0 0 1 15.14 3.69ZM35.47 27c-.2-2.98-1.59-5.66-3.73-7.64a13.6 13.6 0 0 0-12.74-3 14.68 14.68 0 0 1 15.98 2.37A12.3 12.3 0 0 1 39 27h-3.53Zm-4.92 0a9.79 9.79 0 0 0-2.9-6.2h.01A10.08 10.08 0 0 0 18 18.25a11.04 11.04 0 0 1 12.83 1.9A10.69 10.69 0 0 1 34 27h-3.45ZM29 27H12c.63-6.35 9.38-9.41 14.54-4.74A7.45 7.45 0 0 1 29 27Z" fill="url(#afjp1rbeh)"/><path d="M29 29H12c.63 6.35 9.38 9.41 14.54 4.74A7.45 7.45 0 0 0 29 29Zm1.55 0a9.79 9.79 0 0 1-2.9 6.2h.01A10.08 10.08 0 0 1 18 37.75a11.04 11.04 0 0 0 12.83-1.9A10.69 10.69 0 0 0 34 29h-3.45Zm4.92 0c-.2 2.98-1.59 5.66-3.73 7.64a13.6 13.6 0 0 1-12.74 3 14.68 14.68 0 0 0 15.98-2.37A12.3 12.3 0 0 0 39 29h-3.53Zm.67 9.73a14.72 14.72 0 0 0 4.4-9.73H44c-.2 4.05-1.95 7.7-4.67 10.38A16.23 16.23 0 0 1 21 42.42a15.26 15.26 0 0 0 15.14-3.7Z" fill="url(#bfjp1rbeh)"/><defs><linearGradient id="afjp1rbeh" x1="12" y1="13.16" x2="44.32" y2="13.16" gradientUnits="userSpaceOnUse"><stop stop-color="#FFD400"/><stop offset=".56" stop-color="#F99D1C"/><stop offset="1" stop-color="#EF3B45"/></linearGradient><linearGradient id="bfjp1rbeh" x1="12" y1="28.29" x2="44.32" y2="28.29" gradientUnits="userSpaceOnUse"><stop offset=".02" stop-color="#FFD400" stop-opacity="0"/><stop offset=".32" stop-color="#FBB311" stop-opacity=".3"/><stop offset=".51" stop-color="#F99D1C" stop-opacity=".5"/><stop offset="1" stop-color="#EF3A44"/></linearGradient></defs></svg>