<!-- by TradingView --><svg xmlns="http://www.w3.org/2000/svg" width="56" height="56" viewBox="0 0 56 56"><path fill="#F0F3FA" d="M0 0h56v56H0z"/><path d="M31.71 16.12c-4.64-3.46-7.29-6.19-8.03-7.12-.42 4.19 0 10.33 6.98 13.67 5.59 2.68 8.2 5.3 8.8 6.28 0-6.62-1.95-8.5-7.75-12.83Z" fill="#E30011"/><path d="M26.7 24.3a41.13 41.13 0 0 1-11.21-5.87c1.28 5.24 2.75 12.28 12.8 14.22 6.88 1.32 10.71 4.3 11.74 5.28-1.89-8.16-4.26-10.4-13.33-13.63Z" fill="#00A0A9"/><path d="M25.5 34.4c-6.94-1.2-12.15-4.8-13.5-5.5 1.2 5.5 4.03 11.76 14.68 12.26 10.34.5 13.08 3 14.32 3.84-3.57-8.36-5.59-8.9-15.5-10.6Z" fill="#08563C"/></svg>