<!-- by TradingView --><svg width="56" height="56" xmlns="http://www.w3.org/2000/svg"><path fill="#005381" d="M0 0h56v56H0z"/><path d="M20.743 42.944c-1.229-.21-2.106-1.244-2.231-2.629-.066-.724.04-.993 2.426-6.168 1.199-2.598 1.997-4.448 2.063-4.777.134-.67-.005-1.478-.386-2.231-.145-.287-1.575-2.294-3.176-4.46-3.229-4.364-3.346-4.566-3.273-5.633.026-.366.127-.798.243-1.04.261-.541.882-1.164 1.468-1.474.4-.211.588-.248 1.267-.25.703 0 .854.031 1.28.268.646.36.94.681 2.3 2.521l2.974 4.027c1.941 2.627 2.279 2.972 3.243 3.312.782.276 1.614.235 6.14-.307 2.598-.312 4.482-.492 5.167-.495.997-.004 1.12.016 1.614.26 1.01.497 1.67 1.519 1.67 2.58-.001.995-.63 2.076-1.431 2.464-.881.425-1.514.526-7.2 1.14-3.721.402-4.155.48-4.963.892-1.027.524-1.616 1.308-2.382 3.17-.34.825-2.57 5.591-3.307 7.064-.269.539-.538.926-.799 1.15-.64.55-1.696.79-2.707.616zm13.174-1.405a3.605 3.605 0 01-.833-.482c-.483-.4-2.61-3.265-2.985-4.02-.546-1.1-.336-2.25.597-3.27.586-.642.97-.79 2.049-.79 1.416 0 1.819.259 3.12 2.001 1.236 1.659 1.817 2.532 1.944 2.927.072.225.101.666.076 1.148-.035.661-.084.852-.32 1.234-.325.53-1.038 1.1-1.624 1.301-.566.194-1.452.173-2.024-.049zm-21.52-9.525c-.333-.129-.695-.38-1.047-.725-.653-.641-.896-1.302-.799-2.169.078-.69.532-1.613.95-1.933.824-.631 1.468-.787 4.273-1.035 2.014-.178 2.758-.008 3.583.82 1.125 1.13 1.131 3.033.014 4.017-.766.676-1.4.863-3.687 1.088-1.95.193-2.659.179-3.287-.063zM30.4 22.017c-.693-.16-1.016-.344-1.475-.844-.5-.544-.658-.862-.763-1.538-.072-.456-.054-.657.1-1.163.228-.743 1.54-3.596 1.945-4.23.52-.813 1.39-1.241 2.526-1.242.555 0 .79.048 1.188.243 1.273.625 1.925 1.911 1.6 3.157-.14.53-1.09 2.747-1.68 3.914-.18.359-.491.81-.69 1.001-.684.663-1.746.934-2.751.702z" fill="#fff"/></svg>