<!-- by TradingView --><svg width="56" height="56" viewBox="0 0 56 56" xmlns="http://www.w3.org/2000/svg"><path fill="#F0F3FA" d="M0 0h56v56H0z"/><path fill-rule="evenodd" d="M23 16.5c0-2 .5-3 2-4 .56.22 1.86 1.27 2.38 3.26v-1.44c.6-.35 2.2-.97 3.75-.65 1.56.31 3.07 1.09 3.63 1.44.48-.7 1.81-2.1 3.37-2.1l-2.07 2.49L38 17.72c-.56.44-1.71 1.52-1.81 2.36-.13 1.05-.13 1.57.51 2.49.52.73 1.86 2.22 2.47 2.88l-.13.26c.25.7.27 2.33-1.08 2.75-1.8.56-2.8-.1-3.47-.54l-.41-.25c-.52.61-2.2 2.1-5.31 1.57l.51.66c-.6.7-2.56 1.94-5.57 1.83A17.17 17.17 0 0 1 23.5 21c-1.51 1.3-4.41 4.87-3.9 9.16.65 5.37 1.43 7.99 7.26 14.66-3.15-1.61-9.5-6.15-9.71-11.39-.26-6.54.67-11.17 5.85-16.93Zm2.56 3.84c1.08-.4 3.66-.94 5.32 0 1.65.94 2.33 3.89 2.46 5.24-1.04.13-3.55.1-5.31-1.05a6.04 6.04 0 0 1-2.47-4.19Z" fill="#ED5B36"/><path d="M30 27c.49.3 1.97.81 4 .55-.93.44-3.04.94-4-.55ZM31.87 29.24a3.1 3.1 0 0 0 2.6-.26c-.35.48-1.35 1.2-2.6.26ZM27.5 39 23 37l4 3.5s4.14-2.17 5-3L27.5 39Z"/><path d="M18.92 38.8c-3.62-5.24-2.07-11.56-.78-14-1.8 5.88.52 9.81 2.34 12.95 1.45 2.52 4.75 4.72 6.21 5.5.94-.1 5.14-3.36 7.13-4.97-2.28 3.56-5.9 6.63-7.32 7.72-1.08-.22-3.95-1.96-7.58-7.2Z"/><path d="M16.93 22.7c-1.97 2.72-2.8 6.73-2.93 8.3 0-3.5-.1-5.9 1.25-8.83 1.34-2.93 4.62-6.02 6.08-7.2.83-3.14 2.72-4.62 3.67-4.97.73.21 1.73 1.48 2.03 2.1a9.1 9.1 0 0 1 6.35.78A9.46 9.46 0 0 1 39 11c.26 2.88-.83 4.63-.7 4.37.1-.21-.04-1.66-.13-2.36-1.34 0-2.75 1.53-3.32 2.23a9.47 9.47 0 0 0-4.32-1.57c-1.23-.2-2.59.39-3.1.65V16A8.23 8.23 0 0 0 25 12.5c-1.55.84-1.96 3.04-2 4-2.2.92-3.6 2.8-6.07 6.2Z"/><path d="M32.52 15.63c-.93.52-3.06 1.18-4.01 1.44.83-1.15 2.67-2.49 3.5-3.01 1.34.42 3.23 1.92 4.01 2.62-.62-.32-2.6-.83-3.5-1.05Z"/><path d="M33.04 16.68c1.14.52 2.72 1.7 3.37 2.22-.62-.2-2.07-.52-2.72-.65-.52.31-2.12.74-2.85.91.41-.62 1.64-1.92 2.2-2.48ZM27.21 21.52l-1.03-.92c1.3 0 4.04.13 4.66.66.62.52 1.12 2.31 1.3 3.14l-1.3-.92c-.39.18-1.4.45-2.33.13-.94-.31-1.26-1.52-1.3-2.09ZM37.83 22.83V24c-.51-.61-1.55-1.89-1.55-2.1 0-.26-.13-.13 0-.65.2-.84 1.55-1.22 2.2-1.31l-.26.65c.13.22.39.76.39 1.18 0 .42-.52.87-.78 1.05ZM26.63 31.34c-1.86-2.1-2.16-6.55-2.07-8.51a14.4 14.4 0 0 0-.9 8.9 7.8 7.8 0 0 0 2.97-.4Z"/><path fill-rule="evenodd" d="M23.5 21c-1.47 2.1-4.24 7.38-2.17 12.3 1.69.61 5.78 1.26 8.68-1.05a4.87 4.87 0 0 1-1.3-3.14c.53.79 2 2.58 3.76 2.49 2.03-.1 2.68-1.08 3.03-1.6l-1.34-2.33c.65.44 2.3 1.18 3.75.66 1.45-.53 1.3-2.05 1.04-2.75.73-1.1 1.71-4-.26-6.94.95.7 2.64 3.06 1.81 6.94.26.91.7 3.14.4 4.71a5.52 5.52 0 0 1-2.08 3.14c.22.3.39 1.68.18 3.57H29l.97-2H20c-1.08-2.8-1.5-11 3.5-14Zm14.23 9.05 1.94-1.46c.4.7.7 2.28-1.16 3.01l-.78-1.55ZM32 35h6c0-.87-.26-2.69-1.5-3-1.55-.4-4.11 1.17-4.5 3Z"/></svg>