<!-- by TradingView --><svg xmlns="http://www.w3.org/2000/svg" width="56" height="56" viewBox="0 0 56 56"><path fill="#F0F3FA" d="M0 0h56v56H0z"/><path d="M52 23.51c0 .09-.07.16-.15.16h-1.19v1.18c0 .08-.07.15-.15.15h-1.03a.15.15 0 0 1-.15-.15v-1.18h-1.2a.12.12 0 0 1-.13-.13v-1.09c0-.06.05-.12.12-.12h1.2v-1.2c0-.08.06-.13.13-.13h1.09c.07 0 .12.05.12.12v1.21h1.22c.07 0 .12.06.12.12v1.06z" fill="#00D4F4"/><path d="M13.77 30.16a2.5 2.5 0 0 0-1.8-2.46 2.2 2.2 0 0 0 1.25-2.07c0-1.54-1.3-2.63-3.13-2.63H5.81c-.55 0-.81.24-.81.79v8.42c0 .53.26.79.8.79h4.79c1.88 0 3.18-1.14 3.18-2.84zm-3.91-5.79c1.13 0 1.83.44 1.83 1.37 0 .93-.72 1.4-1.83 1.4H6.5v-2.77h3.36zm2.4 5.76c0 1.05-.75 1.53-2.03 1.53H6.5v-3.08h3.73c1.26 0 2.03.5 2.03 1.55zm11.74.89c0 1.19.79 1.98 2.12 1.98.8 0 1.45-.25 1.92-.72.18-.18.32-.34.32-.54 0-.31-.3-.69-.65-.69-.2 0-.5.1-.67.3-.27.28-.5.42-.86.42-.43 0-.68-.27-.68-.87V27h1.7c.39 0 .64-.25.64-.6 0-.34-.25-.61-.65-.61H25.5v-2.04c0-.43-.38-.75-.8-.75-.43 0-.7.31-.7.75v2.04h-.7c-.4 0-.65.27-.65.61 0 .35.25.6.64.6H24v4.02zm24.5-5.08c0-.22-.1-.46-.3-.6-.29-.2-.8-.34-1.46-.34-.7 0-1.3.2-1.74.65a.76.76 0 0 0-.75-.65c-.42 0-.75.34-.75.82v6.37c0 .48.35.81.78.81.4 0 .72-.33.72-.8v-3.94c0-1.09.53-1.91 1.58-1.91.35 0 .56.06.78.16.15.08.3.12.43.12.36 0 .7-.3.7-.69zM32.13 33c-1.34 0-2.13-.79-2.13-1.98V27h-.7c-.4 0-.65-.25-.65-.6 0-.34.25-.6.65-.6h.7v-2.04c0-.45.28-.76.7-.76.43 0 .8.33.8.76v2.03h1.7c.4 0 .64.27.64.61 0 .35-.25.6-.64.6h-1.7v3.9c0 .6.26.88.69.88.35 0 .59-.14.85-.43.18-.2.47-.3.68-.3.35 0 .64.38.64.7 0 .2-.14.36-.31.54-.47.47-1.13.71-1.92.71zm-10.5-3.59c.48 0 .7-.22.7-.75 0-2.12-1.65-3.66-3.86-3.66a3.88 3.88 0 0 0-4.03 4c0 2.34 1.7 4 4.1 4 1.39 0 2.58-.49 3.3-1.46.14-.21.2-.46.2-.67 0-.34-.28-.6-.66-.6-.22 0-.5.1-.7.35-.57.8-1.16 1.1-2.2 1.1-1.53 0-2.46-.84-2.54-2.3h5.7zm-.7-1.21h-5c.15-1.3 1.14-1.92 2.56-1.92 1.37 0 2.36.62 2.43 1.92zm21.78.46c0 .53-.21.75-.69.75h-5.7c.08 1.47 1.02 2.3 2.54 2.3 1.04 0 1.63-.29 2.22-1.09a.88.88 0 0 1 .69-.35c.38 0 .66.26.66.6 0 .21-.07.46-.2.67-.72.97-1.91 1.46-3.3 1.46-2.4 0-4.1-1.66-4.1-4 0-2.33 1.68-4 4.03-4 2.2 0 3.85 1.54 3.85 3.66zm-6.38-.46h4.98c-.07-1.3-1.06-1.92-2.43-1.92-1.42 0-2.41.62-2.55 1.92z"/></svg>