<!-- by TradingView --><svg xmlns="http://www.w3.org/2000/svg" width="56" height="56" viewBox="0 0 56 56"><path fill="#F0F3FA" d="M0 0h56v56H0z"/><path d="M8.78 23.2h1.31c.27 0 .48.04.65.13.17.08.29.2.37.37.08.16.12.35.12.58 0 .22-.05.4-.14.57a.93.93 0 0 1-.4.37c-.17.09-.38.13-.63.13H8.78V23.2zm0-.65v-1.9h1.15c.25 0 .47.03.63.1.17.06.3.16.38.3.08.14.12.32.12.54 0 .2-.04.37-.14.52a.9.9 0 0 1-.39.33c-.16.08-.36.11-.58.11H8.78zm2.2.29l.16-.08c.22-.13.4-.3.52-.49.12-.2.18-.42.18-.67 0-.28-.04-.52-.13-.72-.08-.2-.2-.37-.38-.5a1.56 1.56 0 0 0-.6-.29c-.23-.06-.5-.09-.8-.09H8v6h2.06c.4 0 .73-.07 1.02-.2.3-.13.52-.33.68-.58.16-.26.24-.58.24-.95 0-.26-.05-.5-.16-.71a1.34 1.34 0 0 0-.86-.72zm8.84 3.04c.2-.09.36-.2.5-.37l.03.49H21v-6h-.71v2.46c-.27-.3-.65-.46-1.15-.46-.73 0-1.29.43-1.53 1.17-.07.24-.11.5-.11.8v.07c0 .28.04.54.11.78.08.24.2.45.34.62a1.51 1.51 0 0 0 1.18.56c.26 0 .5-.04.7-.12zm.3-3c.06.06.12.14.17.23v1.76l-.04.06c-.09.16-.21.28-.36.37-.16.1-.35.14-.58.14-.2 0-.36-.04-.5-.1a.96.96 0 0 1-.34-.31 1.37 1.37 0 0 1-.2-.45 2.3 2.3 0 0 1-.06-.54v-.07c0-.2.02-.37.06-.54.05-.17.11-.32.2-.45a.95.95 0 0 1 .85-.42c.17 0 .33.03.46.08.13.06.24.14.33.23zM33 22v-.59h-1V20h-.7v1.41h-.8V22h.8v2.73c0 .32.04.57.13.76.09.18.2.31.36.4.15.07.32.11.5.11a1.6 1.6 0 0 0 .57-.09v-.66a4.24 4.24 0 0 1-.35.05.66.66 0 0 1-.23-.04.33.33 0 0 1-.18-.16.74.74 0 0 1-.1-.37V22h1zm.3 2.04v-.08c0-.28.04-.54.13-.77.08-.24.2-.45.37-.63.16-.17.35-.31.58-.41.23-.1.48-.15.76-.15.29 0 .55.05.77.15.23.1.43.24.6.41.15.18.28.39.36.63.09.23.13.5.13.77v.08c0 .28-.04.54-.13.78a1.7 1.7 0 0 1-.95 1.04c-.23.1-.48.14-.77.14-.28 0-.54-.05-.77-.15a1.74 1.74 0 0 1-.95-1.03c-.09-.24-.13-.5-.13-.78zm.7-.08v.08c0 .2.02.38.07.55.04.17.12.32.21.45.1.13.22.23.36.3.15.08.32.12.51.12.2 0 .36-.04.5-.11.15-.08.27-.18.36-.31.1-.13.17-.28.22-.45.05-.17.07-.35.07-.55v-.08c0-.19-.02-.37-.07-.54a1.35 1.35 0 0 0-.22-.45 1.02 1.02 0 0 0-.87-.43 1.06 1.06 0 0 0-.86.43c-.1.13-.17.28-.21.45-.05.17-.08.35-.08.54zM38.93 26h-.13l-1.3-4h.76l.88 2.99L40.2 22h.61l1.07 3.05.86-3.05h.77l-1.3 4h-.62l-1.1-3.03L39.44 26h-.49zm5.83-2.82V26H44v-4h.77v.53c.16-.17.35-.3.57-.39.22-.1.46-.14.73-.14.22 0 .42.03.6.08a1.08 1.08 0 0 1 .74.69c.06.18.09.4.09.66V26h-.77v-2.58c0-.2-.03-.37-.1-.5a.6.6 0 0 0-.3-.27 1.2 1.2 0 0 0-.48-.08c-.2 0-.37.03-.52.1a1.22 1.22 0 0 0-.56.5zM28.4 26c-.28 0-.54-.05-.78-.14-.23-.09-.43-.22-.6-.38-.16-.17-.29-.37-.38-.6a2.04 2.04 0 0 1-.13-.74v-.15c0-.32.05-.6.15-.84A1.73 1.73 0 0 1 28.3 22c.3 0 .55.05.77.14.21.1.39.23.53.4.13.17.23.37.3.6.07.23.1.48.1.75v.3h-2.79c0 .16.03.32.08.46a1.14 1.14 0 0 0 1.14.8 1.3 1.3 0 0 0 1.09-.51l.43.31a1.65 1.65 0 0 1-.85.64c-.2.07-.43.11-.7.11zm-1.16-2.35h2.06v-.05a1.56 1.56 0 0 0-.11-.5.9.9 0 0 0-.3-.4.93.93 0 0 0-.58-.16c-.16 0-.3.03-.44.1a.93.93 0 0 0-.35.28c-.1.12-.17.27-.22.45-.03.09-.05.18-.06.28zM25.5 22h-.64l-.04.5a1.3 1.3 0 0 0-.5-.37c-.2-.09-.42-.13-.68-.13-.26 0-.48.05-.69.14-.2.1-.37.23-.51.4a1.9 1.9 0 0 0-.33.64c-.07.24-.11.5-.11.8v.08c0 .28.04.55.11.79.08.24.19.45.33.62.14.18.32.32.51.42a1.75 1.75 0 0 0 1.36.02c.2-.08.35-.2.48-.34v.34c0 .23-.05.42-.14.57a.86.86 0 0 1-.38.35c-.16.08-.35.12-.58.12-.19 0-.38-.04-.57-.11a1.49 1.49 0 0 1-.54-.41l-.37.4c.12.16.28.3.46.4.19.1.38.16.57.2a2.07 2.07 0 0 0 1.42-.13c.26-.12.47-.3.62-.54.15-.24.22-.54.22-.88V22zm-.7 1.13v1.76l-.05.07c-.1.15-.21.28-.37.37-.15.1-.34.14-.58.14-.19 0-.35-.03-.5-.1a.97.97 0 0 1-.33-.31 1.44 1.44 0 0 1-.2-.45 2.34 2.34 0 0 1-.06-.55V24c0-.2.02-.38.06-.55.04-.17.1-.32.2-.45a.95.95 0 0 1 .84-.43c.18 0 .33.03.47.09.13.05.24.13.33.23.07.07.13.16.18.25zM16.73 26v-4H16v4h.74zm-.7-5.87a.46.46 0 0 0-.1.3c0 .12.03.22.1.3.08.09.19.13.33.13s.25-.04.32-.12a.43.43 0 0 0 .12-.3.44.44 0 0 0-.12-.31c-.07-.09-.18-.13-.32-.13s-.25.04-.33.13zM13.74 26v-2.8a.94.94 0 0 1 .53-.49 2.02 2.02 0 0 1 .8-.04l.01-.62a1.07 1.07 0 0 0-.33-.05c-.23 0-.43.05-.6.14-.17.09-.3.21-.41.38l-.02-.52H13v4h.74zM39 33h.71v3.88c0 .34-.07.64-.22.88s-.36.42-.62.55a2.07 2.07 0 0 1-1.42.13c-.2-.05-.38-.12-.57-.22-.18-.1-.34-.23-.46-.4l.37-.4c.17.2.36.34.54.42a1.52 1.52 0 0 0 1.15 0c.17-.08.3-.2.38-.36A.8.8 0 0 0 39 37v-.43c-.13.15-.29.26-.47.34a1.75 1.75 0 0 1-1.36-.02c-.2-.1-.37-.24-.52-.42a1.91 1.91 0 0 1-.33-.62c-.07-.24-.1-.5-.1-.79V35c0-.3.03-.57.1-.81.08-.25.19-.46.33-.63.14-.18.31-.31.52-.4.2-.1.43-.15.68-.15.26 0 .49.04.68.13.18.08.34.19.47.34V33zm0 2.89v-1.76a1.16 1.16 0 0 0-.18-.25.96.96 0 0 0-.33-.23 1.17 1.17 0 0 0-.47-.09c-.2 0-.36.04-.5.12a.95.95 0 0 0-.34.3c-.09.14-.15.29-.2.46-.04.17-.06.35-.06.55v.07c0 .2.02.38.06.55.05.17.11.32.2.45.09.13.2.23.34.3.14.08.3.11.5.11.23 0 .42-.05.58-.14a1.04 1.04 0 0 0 .4-.44zm4.17-.25a.5.5 0 0 1 .08.27c0 .1-.04.2-.11.28a.73.73 0 0 1-.32.2 1.77 1.77 0 0 1-.98 0 .93.93 0 0 1-.4-.22.63.63 0 0 1-.18-.43h-.76c0 .21.07.42.2.6.15.2.35.36.62.48s.6.18.98.18c.26 0 .49-.03.7-.08.2-.06.38-.14.53-.24.15-.1.27-.22.35-.36a.9.9 0 0 0 .12-.46c0-.21-.06-.39-.17-.53a1.3 1.3 0 0 0-.52-.37c-.23-.1-.53-.18-.9-.26a5.3 5.3 0 0 1-.5-.12 1.35 1.35 0 0 1-.3-.13.45.45 0 0 1-.16-.15.48.48 0 0 1 .04-.46.63.63 0 0 1 .28-.21c.13-.06.3-.09.51-.09.2 0 .37.04.5.1.14.07.24.15.31.25.08.1.11.2.11.31h.76a1 1 0 0 0-.2-.6 1.36 1.36 0 0 0-.58-.44c-.25-.1-.55-.16-.9-.16-.25 0-.47.03-.67.09-.2.06-.37.14-.52.25-.14.1-.25.22-.33.36a.87.87 0 0 0 0 .84 1 1 0 0 0 .31.31c.14.1.3.17.5.23s.42.11.67.16c.29.05.5.1.65.18.14.06.24.14.28.22zM30.76 33v4H30v-4h.76zm-.79-1.57c0-.12.04-.22.1-.3.08-.09.19-.13.33-.13s.25.04.32.13c.08.08.12.18.12.3s-.04.22-.12.3c-.07.09-.18.13-.32.13s-.25-.04-.32-.12a.45.45 0 0 1-.1-.3zM24 37v-6h-.7v6h.7zm3.45-.13c.2-.08.38-.2.52-.35L28 37h.75v-6H28l-.03 2.48a1.37 1.37 0 0 0-.52-.36c-.2-.09-.33-.12-.6-.12-.27 0-.62.04-.83.13-.21.1-.4.23-.55.4-.15.18-.27.39-.35.63-.08.24-.12.5-.12.8v.08c0 .28.04.54.12.78.08.24.2.45.35.62a1.63 1.63 0 0 0 1.25.56c.28 0 .52-.04.73-.13zm.3-3c.1.08.16.17.22.27l-.02 1.73a1.1 1.1 0 0 1-.43.43c-.16.1-.36.14-.61.14-.2 0-.38-.04-.52-.1a1 1 0 0 1-.36-.31c-.1-.13-.17-.28-.21-.45a2.19 2.19 0 0 1-.07-.54v-.08c0-.19.02-.37.07-.54.04-.17.11-.32.2-.45.1-.13.22-.23.37-.3.15-.08.32-.12.53-.12.19 0 .35.03.49.08.14.06.25.14.35.24zM19 34.97v.07c0 .28.04.54.12.78.08.23.2.44.35.62a1.65 1.65 0 0 0 1.28.56 1.61 1.61 0 0 0 1.28-.56c.15-.18.27-.39.35-.62.08-.24.12-.5.12-.78v-.08c0-.28-.04-.54-.12-.77a1.8 1.8 0 0 0-.35-.63 1.55 1.55 0 0 0-.56-.41c-.21-.1-.46-.15-.73-.15-.26 0-.5.05-.72.15-.22.1-.4.23-.55.41-.15.18-.27.39-.35.63-.08.23-.12.5-.12.77zm.66.07v-.08c0-.19.02-.37.06-.54.05-.17.12-.32.2-.45.1-.13.21-.24.35-.31.14-.08.3-.12.47-.12a.95.95 0 0 1 .82.43c.1.13.16.28.2.45.06.17.08.35.08.54v.08c0 .2-.02.38-.07.55-.05.17-.11.32-.2.45a1 1 0 0 1-.35.3.97.97 0 0 1-.47.12 1 1 0 0 1-.48-.11 1.03 1.03 0 0 1-.34-.31 1.44 1.44 0 0 1-.2-.45 2.14 2.14 0 0 1-.07-.55zM17 31v2.35h-3.16V31H13v6h.84v-3H17v3h.85v-6H17zm15.77 2.53c.16-.17.35-.3.57-.39.22-.1.46-.14.73-.14.22 0 .42.03.6.08a1.08 1.08 0 0 1 .74.69c.06.18.09.4.09.66V37h-.77v-2.58c0-.2-.03-.37-.1-.5a.6.6 0 0 0-.3-.27 1.2 1.2 0 0 0-.48-.08c-.2 0-.37.03-.52.1a1.22 1.22 0 0 0-.56.5V37H32v-4h.77v.53z"/></svg>