<!-- by TradingView --><svg width="56" height="56" viewBox="0 0 56 56" fill="none" xmlns="http://www.w3.org/2000/svg">
<rect width="56" height="56" fill="#F0F3FA"/>
<path fill-rule="evenodd" clip-rule="evenodd" d="M37.3572 24.118L46.0001 15.2653C45.0288 14.7847 43.827 14.9571 43.0212 15.7825L29.2558 29.8821C28.2373 30.9254 28.2373 32.6169 29.2558 33.6601L34.6815 39.2175C35.7 40.2608 37.3514 40.2608 38.3699 39.2175L43.3901 34.0754L37.3572 27.896C36.3387 26.8528 36.3387 25.1613 37.3572 24.118ZM31.6434 25.1179C32.6619 24.0746 32.6619 22.3832 31.6434 21.3399L26.2177 15.7825C25.1992 14.7392 23.5478 14.7392 22.5293 15.7825L8.7639 29.8821C7.74536 30.9254 7.74537 32.6169 8.7639 33.6601L14.1896 39.2176C15.2081 40.2608 16.8595 40.2608 17.878 39.2176L19.0718 37.9948L12.9152 31.6887C11.8967 30.6454 11.8967 28.9539 12.9152 27.9107L16.7127 24.021C17.7312 22.9778 19.3826 22.9777 20.4011 24.021L26.5577 30.3271L31.6434 25.1179Z" fill="#429DD6"/>
</svg>
