<!-- by TradingView --><svg width="56" height="56" viewBox="0 0 56 56" fill="none" xmlns="http://www.w3.org/2000/svg">
<rect width="56" height="56" fill="#F0F3FA"/>
<path d="M39.6259 24.608L37.0374 22.048L38.1699 20.896L39.6259 19.456L42.2467 22.048L39.6259 24.608ZM39.6259 17.152L37.0374 14.592L38.5258 13.12L39.6259 12L42.2467 14.592L39.6259 17.152ZM43.4115 20.896L40.7907 18.304L42.2467 16.896L43.4115 15.744L46 18.304L43.4115 20.896Z" fill="#00A82D"/>
<path d="M28.432 40C22.4874 40 18.0444 36.4612 18 28.435C17.9556 20.4088 22.6856 17 28.5641 17C32.8904 17 34.8058 18.979 36.2919 20.5388L38.9339 17.9067C37.5469 16.4769 34.7398 13 28.432 13C20.6711 13 14 18.7516 14 28.4675C14 38.2159 19.9775 44 28.2338 44C34.3765 44 37.712 40.8155 39 39.1583L36.2589 36.4612C35.07 37.826 32.4941 40 28.432 40Z" fill="#002051"/>
</svg>
