<!-- by TradingView --><svg width="56" height="56" viewBox="0 0 56 56" xmlns="http://www.w3.org/2000/svg"><path fill="#F0F3FA" d="M0 0h56v56H0z"/><path d="M42.86 30.74a.2.2 0 0 0-.1-.13.21.21 0 0 0-.17-.02 9.13 9.13 0 0 0-5.06 3.92.2.2 0 0 0 .02.22.2.2 0 0 0 .21.07l1.43-.34a.21.21 0 0 1 .23.1.2.2 0 0 1-.04.24l-.49.45c-3 2.6-3.63 3.07-6.42 3.07-.55 0-1.1-.15-1.56-.43a2.8 2.8 0 0 1-1.06-1.19c-.92-1.99-.88-5.14-.88-7.27L29 21.5h4.4c.2.3.48.6.83.73a1.74 1.74 0 0 0 1.95-.54 1.6 1.6 0 0 0 0-1.97 1.74 1.74 0 0 0-1.96-.54c-.34.13-.63.52-.82.82H29l-.03-2.77c1.72-.55 3.12-2.3 2.82-4.11a3.84 3.84 0 0 0-3.8-3.12 3.84 3.84 0 0 0-3.78 3.12c-.3 1.81 1.06 3.56 2.79 4.11L26.97 20h-4.39c-.19-.3-.48-.69-.82-.82a1.74 1.74 0 0 0-1.96.54 1.6 1.6 0 0 0 0 1.97 1.74 1.74 0 0 0 1.96.54c.34-.13.63-.43.82-.73H27v7.93s.07 5.28-.85 7.27c-.23.49-.6.9-1.07 1.18-.46.3-1 .44-1.55.44-2.8 0-3.43-.47-6.42-3.07l-.5-.46a.2.2 0 0 1-.03-.24.21.21 0 0 1 .23-.1l1.43.35a.21.21 0 0 0 .21-.08.2.2 0 0 0 .02-.21 9.13 9.13 0 0 0-5.15-3.94.21.21 0 0 0-.15.1.2.2 0 0 0-.03.07c-.12.9-.47 4.26.77 6.14a.2.2 0 0 0 .09.07.21.21 0 0 0 .2-.01.2.2 0 0 0 .08-.09l.44-1.06a.2.2 0 0 1 .07-.1.2.2 0 0 1 .24 0 .2.2 0 0 1 .07.1c.45 1.26 2.08 4.4 7.59 6.74h.01c.2.06 4.13 1.39 5.1 3.35l.08.09a.24.24 0 0 0 .33-.1c.96-1.93 4.9-3.26 5.08-3.32h.02c5.51-2.34 7.14-5.48 7.59-6.74a.2.2 0 0 1 .19-.13c.04 0 .08 0 .12.03a.2.2 0 0 1 .07.09l.44 1.06a.2.2 0 0 0 .17.12l.11-.01a.2.2 0 0 0 .09-.08c1.24-1.88.9-5.24.77-6.15ZM28 15.28c-.97 0-1.78-.9-1.58-1.87.15-.72.84-1.25 1.58-1.25.84 0 1.6.67 1.6 1.56a1.6 1.6 0 0 1-1.6 1.56Z" fill="#00263A"/></svg>