<!-- by TradingView --><svg width="56" height="56" viewBox="0 0 56 56" xmlns="http://www.w3.org/2000/svg"><path fill="#F0F3FA" d="M0 0h56v56H0z"/><path d="m42.67 18.95-5.61-5.6a1.18 1.18 0 0 0-1.67 0l-5.6 5.6c-.46.46-.46 1.2 0 1.66l5.6 5.6c.46.46 1.2.46 1.67 0l5.6-5.6c.45-.46.45-1.2 0-1.66" fill="#03DAFF"/><path d="M13.34 35.4c-.16.16-.28.37-.32.6a1.14 1.14 0 0 0 .32 1.05l5.61 5.6a1.16 1.16 0 0 0 1.06.32c.22-.04.43-.15.6-.31l3.05-3.05a6.08 6.08 0 0 1 8.62 0l3.05 3.04c.46.46 1.2.46 1.66 0l5.6-5.6c.46-.46.46-1.2 0-1.67l-5.6-5.6a1.18 1.18 0 0 0-1.66 0l-3.05 3.05a6.08 6.08 0 0 1-8.62 0l-.48-.5a6.08 6.08 0 0 1 0-8.61l3.07-3.04c.45-.46.45-1.2 0-1.66l-5.62-5.6a1.18 1.18 0 0 0-1.65 0l-5.6 5.6c-.47.46-.47 1.2 0 1.66l3.04 3.05a6.08 6.08 0 0 1 0 8.62l-3.08 3.04Z" fill="#067EF6"/></svg>