<!-- by TradingView --><svg xmlns="http://www.w3.org/2000/svg" width="56" height="56" viewBox="0 0 56 56"><path fill="#F0F3FA" d="M0 0h56v56H0z"/><path fill-rule="evenodd" d="M6 32v-8c.93.4 2.05.16 2.5 0v8H6zm22-8h2.5v.76c.25-.25.8-.76 1.92-.76.14 0 .45.03.58.16v1.97c-1.42-.26-2.5.74-2.5 1.62V32H28v-8zm-13.32 2.54H17c-.12-.84-1-2.54-3.58-2.54-3.23 0-3.27 2.28-3.27 2.54v.02c0 .3 0 1.62 3.12 2.18.57.04 1.73.27 1.73.81 0 .16-.28.47-1.32.47-1.05 0-1.5-.58-1.6-.87H10c.05.95.82 2.85 3.42 2.85 3.25 0 3.58-2.2 3.58-2.62v-.06c0-.47.02-1.7-2.97-2.3-.55-.1-1.64-.38-1.64-.66 0-.36.85-.4 1.15-.4.3 0 1.14.21 1.14.58zM26 28a4 4 0 1 1-8 0 4 4 0 0 1 8 0zm-2.5 0c0 1.1-.67 2-1.5 2s-1.5-.9-1.5-2 .67-2 1.5-2 1.5.9 1.5 2zm10.76-1.44C34.43 25.7 35.5 24 38.4 24c2.9 0 3.6 1.62 3.6 2.43V32h-2.5v-.7l-.27.14c-.44.24-1.02.56-1.88.56-1.3 0-3.35-.57-3.35-2.52 0-1.94 2.88-2.48 3.82-2.48s1.68-.1 1.68-.57c0-.44-.6-.43-1.1-.43h-.13c-.52 0-1.68.05-1.68.63l-2.33-.07zm5.24 1.84v.85c-.22.28-.9.85-1.83.85s-1.17-.41-1.17-.62c0-.18.25-.6 1.17-.73.93-.14 1.6-.29 1.83-.35zM42 24h2.55l1.94 5.49L48.47 24H51l-3.9 10.04A3.14 3.14 0 0 1 44.15 36h-1.01v-1.95h.4c.68 0 1.29-.42 1.5-1.04l.27-.79L42 24z" fill="#13242E"/><circle cx="7.25" cy="22.25" r="1.25" fill="#2EC1D5"/></svg>