<!-- by TradingView --><svg xmlns="http://www.w3.org/2000/svg" width="56" height="56" viewBox="0 0 56 56"><path fill="#F0F3FA" d="M0 0h56v56H0z"/><path d="M25.19 24.72c-.37-.34-.92-.28-1.16-.2.9-.85 2.9-2.52 3.84-2.52.93 0 1.98 1.4 2.4 2.09L41.07 43h-3.06C33.9 37.05 25.55 25.05 25.2 24.72z" fill="#F38A21"/><path d="M11.13 30c.45-.16 1.56-.64 2.4-1.26l8.49-6.4c.14-.1.5-.34.74-.34h5.57-.2c-.26.02-.66.08-1 .26-.45.24-6.57 4.86-9.57 7.14-.32.2-1.12.6-1.79.6h-4.64z" fill="#A9A8AD"/><path d="M30.91 12.84c-.3-.72-1.11-.86-1.49-.84-.87 0-2.13.9-2.65 1.34l-.83 2.4c.55-.2.79-.02.83.08l3.94 9.02L40.95 43H45c-.77 0-1.7-1.4-2.06-2.09L30.91 12.84z" fill="#EE6723"/><path d="M9 30c.55-.37 1.9-1.45 2.9-2.83 1-1.4 7.28-10.18 10.28-14.4.18-.25.61-.76.9-.76h6.74-.24c-.31.02-.8.16-1.21.58-.54.54-7.95 10.93-11.58 16.05-.39.45-1.36 1.36-2.17 1.36H9z" fill="#FAC275"/></svg>