<!-- by TradingView --><svg width="56" height="56" viewBox="0 0 56 56" xmlns="http://www.w3.org/2000/svg"><path fill="#F0F3FA" d="M0 0h56v56H0z"/><path d="M12.61 30c-.75 1.78-2.29 3-4.06 3C6.04 33 4 30.54 4 27.5S6.04 22 8.55 22c1.77 0 3.3 1.22 4.06 3h-.96a3.6 3.6 0 0 0-3.1-2c-2.05 0-3.72 2.02-3.72 4.5S6.5 32 8.55 32c1.3 0 2.43-.8 3.1-2h.96ZM40.61 30c-.75 1.78-2.29 3-4.06 3-2.51 0-4.55-2.46-4.55-5.5s2.04-5.5 4.55-5.5c1.77 0 3.3 1.22 4.06 3h-.96a3.6 3.6 0 0 0-3.1-2c-2.05 0-3.72 2.02-3.72 4.5S34.5 32 36.55 32c1.3 0 2.43-.8 3.1-2h.96ZM15 25h-1v8h1v-4.56c.42-2.07 2.06-2.44 3-2.44v-1a3.23 3.23 0 0 0-3 1.92V25ZM49 22h1v11h-1zM51 22h1v11h-1zM18 25h1.02l2.51 6.58L24 25h1l-3.28 8.78c-.28.74-.87 2.22-1.66 2.22H19v-1h.77c.23.05.74-.14 1.23-2l-3-8Z" fill="#6F9AC5"/><path fill-rule="evenodd" d="M28.5 33c1.93 0 3.5-1.8 3.5-4s-1.57-4-3.5-4-3.5 1.8-3.5 4 1.57 4 3.5 4Zm0-1c1.38 0 2.5-1.34 2.5-3s-1.12-3-2.5-3-2.5 1.34-2.5 3 1.12 3 2.5 3Z" fill="#6F9AC5"/><path d="M48 29c0-2.2-1.57-4-3.5-4S41 26.8 41 29s1.57 4 3.5 4c1.63 0 3-1.27 3.39-3h-1.03c-.35 1.17-1.27 2-2.36 2-1.38 0-2.5-1.34-2.5-3h6Zm-3.5-3c1.09 0 2.01.83 2.36 2h-4.72c.35-1.17 1.27-2 2.36-2Z" fill="#6F9AC5"/><circle cx="31.5" cy="28.5" r="1.5" fill="#FFD86D"/><circle cx="31.5" cy="28.5" r=".5" fill="#FFFDF3"/></svg>