<!-- by TradingView --><svg width="56" height="56" viewBox="0 0 56 56" xmlns="http://www.w3.org/2000/svg"><path fill="#032D55" d="M0 0h56v56H0z"/><path fill-rule="evenodd" d="M17.69 23.26h-.2c0-.98-1.11-1.92-2.64-1.92-1.52 0-2.81 1.67-2.81 3.54s1.06 3.83 3.09 3.83a2.8 2.8 0 0 0 2.65-1.82H18a11.8 11.8 0 0 1-.64 1.82c-.5 0-.74.06-1.01.13-.3.08-.62.16-1.3.16-1.3 0-4.05-.58-4.05-3.82 0-3.23 2.6-4.18 3.85-4.18 1.01 0 2 .35 2.38.52l.46-.06v1.8ZM20.83 29c1.23 0 2.24-1.12 2.24-2.5s-1-2.5-2.24-2.5c-1.24 0-2.25 1.12-2.25 2.5s1 2.5 2.25 2.5Zm.22-.3c.79-.06 1.32-1.1 1.2-2.33-.13-1.22-.87-2.15-1.65-2.08-.79.07-1.32 1.12-1.2 2.34.13 1.22.87 2.15 1.65 2.08Zm2.35-4.16v.2c.5-.16.55.05.6.2v3.32c0 .27-.06.5-.35.5h-.18V29h2.27v-.24h-.19c-.29 0-.55-.23-.55-.5v-2.77c.26-.4.54-.67.67-.77.11.12.4.35.65.35.32 0 .49-.15.49-.46v-.02c0-.3 0-.56-.65-.56-.5 0-.96.65-1.16 1.03V24h-.24l-1.36.54ZM28.2 26h3.08c-.1-.62-.6-2-1.79-2-1.49 0-2 1.53-2 2.81S28.45 29 29.37 29c.75 0 1.52-.75 1.82-1.12v-.35c-.2.28-.79.86-1.52.86-.92 0-1.72-.83-1.45-2.39Zm.06-.47h2.13c-.03-.39-.27-1.17-.94-1.17-.66 0-1.07.78-1.19 1.17Zm7.79 2.15h.22A1.92 1.92 0 0 1 34.44 29c-1.44 0-2.11-1.39-2.11-2.51 0-1.12.73-2.49 2.23-2.49.58 0 .95.25 1.07.38l.26-.32H36l.14 1.6H36c-.09-.46-.5-1.4-1.38-1.4-1.1 0-1.6 1.16-1.6 2.35 0 1.18.88 2.05 1.67 2.05.79 0 1.29-.77 1.37-.98Zm.43 1.32v-.17l.36-.08L38.79 24l1.7 4.52c.08.08.3.23.56.23V29H39.4v-.17c.16-.03.5-.15.46-.31a24 24 0 0 0-.5-1.32h-1.49l-.57 1.55.5.08V29h-1.3Zm1.44-2h1.35l-.7-1.75-.65 1.75Zm3.52-3v.27h.35c.14 0 .2.12.2.26v4c0 .14-.06.25-.2.25h-.35V29h1.82v-.22h-.35a.26.26 0 0 1-.27-.25v-1.87h.44L44.54 29h1.25v-.22h-.5l-1.54-2.12c.35-.12 1.06-.54 1.06-1.26 0-1.06-.82-1.37-1.23-1.4h-2.13Zm1.18.55v1.88h.42c.07 0 1.03-.1 1.03-1.03s-.8-1.07-1.1-1.07c-.24 0-.33.15-.35.22ZM46 29v-.24h.2c.14 0 .25-.12.25-.26v-4a.25.25 0 0 0-.25-.25H46V24h1.94c.68 0 2.06.5 2.06 2.51 0 2.03-1.28 2.5-1.93 2.49H46Zm1-.36V24.5c.04-.06.2-.18.59-.18.47 0 1.8.26 1.8 2.2 0 1.93-1.33 2.22-1.8 2.22-.38 0-.55-.07-.59-.1Zm-34.31 1.65c0 .25-.02.49-.05.71H8v-1h4.69v.3Zm0-.29c-.08-1.15-.83-3-3.49-3A5.1 5.1 0 0 0 4 32c0 2 2.03 3 3.4 3 1.65-.05 4.82-.94 5.24-4H50v-1H12.69Z" fill="#fff"/></svg>