<!-- by TradingView --><svg width="56" height="56" viewBox="0 0 56 56" fill="none" xmlns="http://www.w3.org/2000/svg"><path fill="#F0F3FA" d="M0 0h56v56H0z"/><path d="M28.04 11.52c0 .28-.24.52-.52.52a.52.52 0 0 1-.53-.52c0-.29.24-.52.53-.52.28 0 .52.23.52.52ZM29.21 11.52a.52.52 0 0 1-1.04 0c0-.29.23-.52.52-.52.29 0 .52.23.52.52ZM29.87 12.04a.52.52 0 1 0 0-1.04.52.52 0 0 0-.52.52c0 .28.23.52.52.52ZM31.56 11.74c0 .28-.23.51-.52.51a.52.52 0 1 1 0-1.04c.3 0 .52.24.52.53ZM33.24 12.77a.52.52 0 1 0 0-1.04.52.52 0 0 0-.52.52c0 .29.24.52.52.52ZM30.39 12.97c0 .29-.23.52-.52.52a.52.52 0 1 1 0-1.04c.29 0 .52.24.52.52ZM29.87 14.64c.29 0 .52-.23.52-.51a.52.52 0 0 0-.52-.52.52.52 0 0 0-.52.52c0 .28.23.51.52.51ZM31.56 14.13c0 .28-.23.51-.52.51a.52.52 0 0 1-.52-.51c0-.3.24-.52.52-.52.3 0 .52.23.52.52ZM33.4 14.64c.28 0 .52-.23.52-.51a.52.52 0 0 0-.52-.52.52.52 0 0 0-.52.52c0 .28.23.51.52.51ZM35.8 13.09c0 .29-.23.52-.52.52a.52.52 0 1 1 0-1.04c.28 0 .52.23.52.52ZM34.6 15.8a.52.52 0 1 0 0-1.04.52.52 0 0 0-.52.52c0 .28.24.52.53.52ZM32.72 15.28a.52.52 0 0 1-1.04 0 .52.52 0 0 1 1.04 0ZM32.2 16.97a.52.52 0 1 0 0-1.04.52.52 0 0 0-.52.52c0 .28.24.52.52.52ZM34.29 16.43a.52.52 0 0 1-1.04 0 .52.52 0 0 1 1.04 0ZM25.16 12.25c.3 0 .52-.23.52-.51a.52.52 0 0 0-.52-.52.52.52 0 0 0-.52.52c0 .28.24.51.52.51ZM24.5 11.94c0 .28-.23.51-.51.51a.52.52 0 0 1-.52-.51.52.52 0 0 1 1.04 0ZM22.5 12.97a.52.52 0 0 0 0-1.04.52.52 0 0 0-.53.52c0 .29.23.52.52.52ZM21.55 13.09c0 .29-.23.52-.52.52a.52.52 0 0 1-.52-.52c0-.29.23-.52.52-.52.29 0 .52.23.52.52ZM20.63 14.64c.28 0 .52-.23.52-.51a.52.52 0 0 0-.52-.52.52.52 0 0 0-.52.52c0 .28.23.51.52.51ZM23.47 14.13c0 .28-.24.51-.52.51a.52.52 0 0 1-.53-.51c0-.3.24-.52.53-.52.28 0 .52.23.52.52ZM20.63 15.81c.28 0 .52-.23.52-.51a.52.52 0 0 0-.52-.52.52.52 0 0 0-.52.52c0 .28.23.51.52.51ZM23.47 15.3c0 .28-.24.51-.52.51a.52.52 0 1 1 0-1.04c.28 0 .52.24.52.53ZM20.63 16.98a.52.52 0 1 0 0-1.04.52.52 0 0 0-.52.52c0 .3.23.52.52.52ZM23.47 16.46c0 .3-.24.52-.52.52a.52.52 0 0 1-.53-.52c0-.28.24-.51.53-.51.28 0 .52.23.52.52ZM20.63 18.15a.52.52 0 1 0 0-1.03.52.52 0 0 0-.52.52c0 .28.23.51.52.51ZM23.47 17.64c0 .28-.24.51-.52.51a.52.52 0 1 1 0-1.03c.28 0 .52.23.52.52ZM21.79 18.15c.28 0 .52-.23.52-.51a.52.52 0 0 0-.52-.52.52.52 0 0 0-.52.52c0 .28.23.51.52.51ZM24.64 18.74a.52.52 0 0 1-1.04 0 .52.52 0 0 1 1.04 0ZM20.63 19.32a.52.52 0 1 0 0-1.04.52.52 0 0 0-.52.52c0 .3.23.52.52.52ZM23.47 18.8c0 .3-.24.52-.52.52a.52.52 0 0 1-.53-.52c0-.28.24-.51.53-.51.28 0 .52.23.52.51ZM21.79 19.32a.52.52 0 1 0 0-1.04.52.52 0 0 0-.52.52c0 .3.23.52.52.52ZM25.82 17.64c0 .28-.23.51-.52.51a.52.52 0 0 1-.52-.51c0-.3.23-.52.52-.52.29 0 .52.23.52.52ZM25.26 16.95a.52.52 0 1 0 0-1.04.52.52 0 0 0-.52.52c0 .29.23.52.52.52ZM24.6 15.28c0 .28-.23.52-.51.52a.52.52 0 0 1-.52-.52c0-.29.23-.52.52-.52.28 0 .52.23.52.52ZM27.58 15.8c.28 0 .52-.24.52-.52a.52.52 0 0 0-.52-.52.52.52 0 1 0 0 1.04ZM29.28 16.45c0 .28-.24.52-.52.52a.52.52 0 1 1 0-1.04c.28 0 .52.23.52.52ZM27.65 19.27a.52.52 0 1 0 0-1.04.52.52 0 0 0-.52.52c0 .3.23.52.52.52ZM27.03 17.64c0 .28-.23.51-.52.51a.52.52 0 1 1 0-1.03c.29 0 .52.23.52.52ZM26.47 16.95a.52.52 0 1 0 0-1.04.52.52 0 0 0-.52.52c0 .29.23.52.52.52ZM25.82 15.28a.52.52 0 0 1-1.04 0c0-.29.23-.52.52-.52.29 0 .52.23.52.52ZM28.79 15.8a.52.52 0 1 0 0-1.04.52.52 0 0 0-.52.52c0 .28.23.52.52.52ZM30.49 16.45c0 .28-.24.52-.52.52a.52.52 0 0 1-.52-.52c0-.29.23-.52.52-.52.28 0 .52.23.52.52ZM28.86 19.27a.52.52 0 1 0 0-1.04.52.52 0 0 0-.52.52c0 .3.23.52.52.52ZM32.75 18.75c0 .3-.23.52-.52.52a.52.52 0 0 1-.52-.52c0-.28.23-.51.52-.51.29 0 .52.23.52.51ZM34.46 18.12a.52.52 0 1 0 0-1.04.52.52 0 0 0-.52.52c0 .29.23.52.52.52ZM35.8 19.26c0 .28-.23.51-.52.51a.52.52 0 0 1-.52-.51.52.52 0 0 1 1.04 0ZM30.05 19.26a.52.52 0 1 0 0-1.04.52.52 0 0 0-.52.52c0 .28.23.52.52.52ZM33.94 18.74a.52.52 0 0 1-1.04 0 .52.52 0 0 1 1.04 0ZM31.1 18.12a.52.52 0 0 0 0-1.04.52.52 0 1 0 0 1.04ZM25.82 14.14c0 .29-.23.52-.52.52a.52.52 0 0 1-.52-.52.52.52 0 0 1 1.04 0ZM24.12 13.6c.29 0 .52-.22.52-.51a.52.52 0 0 0-.52-.52.52.52 0 0 0-.52.52c0 .29.23.52.52.52ZM25.82 12.97c0 .29-.23.52-.52.52a.52.52 0 0 1-.52-.52.52.52 0 0 1 1.04 0ZM26.47 13.49a.52.52 0 1 0 0-1.04.52.52 0 0 0-.52.52c0 .29.24.52.52.52ZM28.17 12.97c0 .29-.23.52-.52.52a.52.52 0 0 1-.52-.52.52.52 0 0 1 1.04 0ZM37.14 14.66c.3 0 .52-.23.52-.52a.52.52 0 0 0-.52-.52.52.52 0 0 0-.52.52c0 .29.24.52.52.52ZM36.8 16.95a.52.52 0 1 0 0-1.04.52.52 0 0 0-.51.52c0 .29.23.52.52.52ZM38.54 15.18a.52.52 0 0 1-1.04 0 .52.52 0 0 1 1.04 0ZM40.26 18.02a.52.52 0 1 0 0-1.04.52.52 0 0 0-.52.52c0 .29.23.52.52.52ZM42 19.77a.52.52 0 0 1-1.04 0c0-.28.23-.51.52-.51.29 0 .52.23.52.51ZM39.22 19.16c.28 0 .52-.24.52-.52a.52.52 0 0 0-.52-.52.52.52 0 0 0-.52.52c0 .28.23.52.52.52ZM38.54 20.94c0 .29-.23.52-.52.52a.52.52 0 0 1-.52-.52c0-.28.23-.51.52-.51.29 0 .52.23.52.51ZM36.8 22.63a.52.52 0 1 0 0-1.04.52.52 0 0 0-.51.52c0 .29.23.52.52.52ZM40.96 22.11c0 .29-.23.52-.52.52a.52.52 0 0 1-.52-.52c0-.28.23-.51.52-.51.29 0 .52.23.52.51ZM41.16 26.66a.52.52 0 1 0 0-1.04.52.52 0 0 0-.52.52c0 .29.23.52.52.52ZM38.54 24.39a.52.52 0 1 1-.52-.52c.29 0 .52.23.52.52ZM38.86 26.66a.52.52 0 1 0 0-1.04.52.52 0 1 0 0 1.04ZM39.38 29.66c0 .28-.23.51-.52.51a.52.52 0 1 1 0-1.04c.29 0 .52.24.52.53ZM41.16 30.17c.28 0 .52-.23.52-.51a.52.52 0 0 0-.52-.52.52.52 0 0 0-.52.52c0 .28.23.51.52.51ZM38.54 31.6c0 .29-.23.52-.52.52a.52.52 0 1 1 0-1.04c.29 0 .52.23.52.52ZM40.4 34.36a.52.52 0 0 0 0-1.04.52.52 0 0 0-.53.52c0 .29.23.52.52.52ZM37.33 33.84c0 .29-.23.52-.52.52a.52.52 0 0 1-.52-.52c0-.29.23-.52.52-.52.29 0 .52.23.52.52ZM38.02 35.63a.52.52 0 1 0 0-1.04.52.52 0 0 0-.52.52c0 .29.23.52.52.52ZM41.95 36.15a.52.52 0 0 1-1.04 0 .52.52 0 0 1 1.04 0ZM39.2 37.7c.3 0 .53-.23.53-.51a.52.52 0 0 0-.52-.52.52.52 0 0 0-.52.52c0 .28.23.51.52.51ZM40.91 38.52c0 .29-.23.52-.52.52a.52.52 0 0 1-.52-.52.52.52 0 0 1 1.04 0ZM36.98 40.07c.29 0 .52-.23.52-.51a.52.52 0 0 0-.52-.52.52.52 0 0 0-.52.52c0 .28.23.51.52.51ZM38.69 40.75c0 .28-.24.52-.53.52a.52.52 0 0 1-.52-.52.52.52 0 0 1 1.04 0ZM37.12 42.3c.3 0 .52-.23.52-.52a.52.52 0 0 0-.52-.51.52.52 0 0 0-.52.51c0 .29.24.52.52.52ZM24.64 19.9a.52.52 0 1 1-1.04 0c0-.28.23-.51.52-.51.29 0 .52.23.52.52ZM25.87 19.97c0 .3-.23.52-.52.52a.52.52 0 0 1-.52-.52c0-.28.24-.51.52-.51.3 0 .52.23.52.51ZM20.63 20.5a.52.52 0 1 0 0-1.04.52.52 0 0 0-.52.51c0 .3.23.52.52.52ZM23.47 19.97c0 .3-.24.52-.52.52a.52.52 0 1 1 0-1.03c.28 0 .52.23.52.51ZM21.79 21.6c.28 0 .52-.24.52-.52a.52.52 0 0 0-.52-.52.52.52 0 0 0-.52.52c0 .28.23.52.52.52ZM21.15 21.14c0 .3-.24.52-.52.52a.52.52 0 0 1-.52-.52c0-.28.23-.51.52-.51.28 0 .52.23.52.51ZM22.95 21.66a.52.52 0 1 0 0-1.04.52.52 0 1 0 0 1.04ZM22.3 22.25c0 .28-.23.52-.51.52a.52.52 0 0 1-.52-.52.52.52 0 0 1 1.04 0ZM20.63 22.77c.28 0 .52-.24.52-.52a.52.52 0 0 0-.52-.52.52.52 0 0 0-.52.52c0 .28.23.52.52.52ZM21.2 23.35c0 .29-.23.52-.51.52a.52.52 0 0 1-.52-.52c0-.29.23-.52.52-.52.28 0 .52.23.52.52ZM21.84 26.14a.52.52 0 1 0 0-1.04.52.52 0 0 0-.52.52c0 .29.23.52.52.52ZM22.34 23.35a.52.52 0 0 1-1.04 0c0-.29.23-.52.52-.52.28 0 .52.23.52.52ZM22.97 26.14a.52.52 0 1 0 0-1.04.52.52 0 0 0-.52.52c0 .29.23.52.52.52ZM32.66 22.19c0 .28-.24.51-.53.51a.52.52 0 0 1-.52-.51c0-.3.24-.52.52-.52.3 0 .53.23.53.52ZM33.35 22.7c.28 0 .52-.23.52-.51a.52.52 0 0 0-.52-.52.52.52 0 0 0-.52.52c0 .28.23.51.52.51ZM32.75 19.92c0 .3-.23.52-.52.52a.52.52 0 0 1-.52-.52c0-.28.23-.51.52-.51.29 0 .52.23.52.51ZM34.46 21.53a.52.52 0 1 0 0-1.04.52.52 0 0 0-.52.52c0 .29.23.52.52.52ZM35.13 23.35a.52.52 0 0 1-1.04 0c0-.29.23-.52.52-.52.28 0 .52.23.52.52ZM36.29 30.17c.29 0 .52-.23.52-.51a.52.52 0 0 0-.52-.52.52.52 0 1 0 0 1.03ZM36.8 26.33c0 .29-.22.52-.51.52a.52.52 0 0 1-.52-.52.52.52 0 0 1 1.04 0ZM34.6 33.15c.3 0 .53-.23.53-.51a.52.52 0 0 0-.52-.52.52.52 0 0 0-.53.52c0 .28.24.51.53.51ZM35.26 43.34a.52.52 0 1 0 0-1.04.52.52 0 0 0-.53.52c0 .29.24.52.53.52ZM33.79 43.73c0 .28-.23.51-.52.51a.52.52 0 0 1-.52-.51c0-.3.23-.52.52-.52.29 0 .52.23.52.52ZM32.24 26.16c.28 0 .52-.24.52-.52a.52.52 0 0 0-.52-.52.52.52 0 0 0-.52.52c0 .28.23.52.52.52ZM32.76 24.49c0 .28-.24.52-.52.52a.52.52 0 1 1 0-1.04c.28 0 .52.23.52.52ZM32.52 28.52c.3 0 .52-.23.52-.51a.52.52 0 0 0-.52-.52.52.52 0 0 0-.52.52c0 .28.24.51.52.51ZM32.76 30.28a.52.52 0 0 1-1.04 0 .52.52 0 0 1 1.04 0ZM33.42 26.14a.52.52 0 1 0 0-1.04.52.52 0 0 0-.53.52c0 .29.24.52.53.52ZM34.22 28c0 .28-.23.51-.52.51a.52.52 0 0 1-.52-.52c0-.28.24-.52.52-.52.29 0 .52.24.52.52ZM35.13 27.79a.52.52 0 1 0 0-1.04.52.52 0 0 0-.52.52c0 .29.23.52.52.52ZM35.65 28.7a.52.52 0 0 1-1.04 0 .52.52 0 0 1 1.04 0ZM32.25 32.03a.52.52 0 1 0 0-1.04.52.52 0 0 0-.52.52c0 .29.23.52.52.52ZM33.94 30.27c0 .28-.24.52-.52.52a.52.52 0 0 1-.53-.52c0-.29.24-.52.53-.52.28 0 .52.23.52.52ZM32.3 37.72a.52.52 0 1 0 0-1.04.52.52 0 0 0-.52.52c0 .28.24.52.52.52ZM32.83 39.5c0 .28-.24.51-.53.51a.52.52 0 0 1-.52-.52c0-.28.24-.51.52-.51.3 0 .53.23.53.51ZM32.25 34.3a.52.52 0 1 0 0-1.04.52.52 0 0 0-.52.52c0 .29.23.52.52.52ZM32.74 35.9c0 .3-.23.52-.52.52a.52.52 0 1 1 0-1.04c.3 0 .52.24.52.53ZM34.6 35.36c.3 0 .53-.24.53-.52a.52.52 0 0 0-.52-.52.52.52 0 0 0-.53.52c0 .28.24.52.53.52ZM35.91 36.71a.52.52 0 0 1-1.04 0 .52.52 0 0 1 1.04 0ZM34.73 38.88a.52.52 0 1 0 0-1.04.52.52 0 0 0-.52.52c0 .29.24.52.52.52ZM35.13 40.68c0 .28-.24.51-.52.51a.52.52 0 0 1-.53-.51c0-.3.24-.52.53-.52.28 0 .52.23.52.52ZM33.39 42.41a.52.52 0 1 0 0-1.04.52.52 0 0 0-.52.52c0 .29.23.52.52.52ZM32.83 40.75c0 .28-.24.52-.53.52a.52.52 0 0 1-.52-.52.52.52 0 0 1 1.04 0ZM33.54 37.72c.28 0 .52-.24.52-.52a.52.52 0 0 0-.52-.52.52.52 0 0 0-.53.52c0 .28.24.52.53.52ZM34.06 39.5c0 .28-.24.51-.52.51a.52.52 0 0 1-.53-.52c0-.28.24-.51.53-.51.28 0 .52.23.52.51ZM31.18 35.45a.52.52 0 1 0 0-1.04.52.52 0 1 0 0 1.04ZM34 33.78c0 .29-.23.52-.52.52a.52.52 0 1 1 0-1.04c.29 0 .52.23.52.52ZM20.69 25.1c.28 0 .52-.23.52-.51a.52.52 0 0 0-.52-.52.52.52 0 0 0-.52.52c0 .28.23.52.52.52ZM23.51 23.35c0 .29-.23.52-.52.52a.52.52 0 0 1-.52-.52c0-.29.23-.52.52-.52.29 0 .52.23.52.52ZM23 25c.28 0 .51-.23.51-.51a.52.52 0 0 0-.52-.52.52.52 0 0 0-.52.52c0 .28.23.52.52.52ZM30.4 21.08a.52.52 0 0 1-1.04 0c0-.29.23-.52.52-.52.29 0 .52.23.52.52ZM25.35 21.66c.3 0 .52-.23.52-.52a.52.52 0 0 0-.52-.51.52.52 0 0 0-.52.51c0 .3.24.52.52.52ZM25.35 22.83c.3 0 .52-.23.52-.52a.52.52 0 0 0-.52-.51.52.52 0 0 0-.52.51c0 .3.24.52.52.52ZM25.85 26.76c0 .29-.23.52-.52.52a.52.52 0 0 1-.52-.52c0-.29.23-.52.52-.52.29 0 .52.23.52.52ZM24.14 28.52c.3 0 .52-.23.52-.51a.52.52 0 0 0-.52-.52.52.52 0 0 0-.52.52c0 .28.24.51.52.51ZM25.85 29.12c0 .29-.23.52-.52.52a.52.52 0 0 1-.52-.52c0-.28.23-.51.52-.51.29 0 .52.23.52.51ZM26.5 27.28a.52.52 0 1 0 0-1.04.52.52 0 0 0-.53.52c0 .29.24.52.53.52ZM29.23 25.62c0 .29-.23.52-.52.52a.52.52 0 1 1 0-1.03c.29 0 .52.23.52.51ZM25.32 34.23a.52.52 0 1 0 0-1.04.52.52 0 1 0 0 1.04ZM24.68 36a.52.52 0 0 1-1.04 0 .52.52 0 0 1 1.04 0ZM25.3 38.88a.52.52 0 1 0 0-1.04.52.52 0 0 0-.51.53c0 .28.23.51.52.51ZM25.84 40.68c0 .28-.24.51-.52.51a.52.52 0 0 1-.52-.51c0-.3.23-.52.52-.52.28 0 .52.23.52.52ZM26.5 37.62a.52.52 0 1 0 0-1.04.52.52 0 0 0-.53.52c0 .3.24.52.53.52ZM26.97 23.35c0 .29-.23.52-.52.52a.52.52 0 0 1-.52-.52c0-.29.23-.52.52-.52.29 0 .52.23.52.52ZM26.53 21.66c.3 0 .52-.23.52-.52a.52.52 0 0 0-.52-.51.52.52 0 1 0 0 1.04ZM28.76 22.7c.29 0 .52-.23.52-.51a.52.52 0 0 0-.52-.52.52.52 0 0 0-.52.52c0 .28.23.51.52.51ZM28.18 23.35c0 .29-.23.52-.52.52a.52.52 0 0 1-.52-.52c0-.29.23-.52.52-.52.29 0 .52.23.52.52ZM27.75 21.66a.52.52 0 1 0 0-1.03.52.52 0 0 0-.53.51c0 .3.24.52.53.52ZM31.61 21.08a.52.52 0 0 1-1.04 0 .52.52 0 0 1 1.04 0ZM29.97 22.7c.29 0 .52-.23.52-.51a.52.52 0 0 0-.52-.52.52.52 0 0 0-.52.52c0 .28.23.51.52.51ZM31.56 23.35c0 .29-.23.52-.52.52a.52.52 0 1 1 0-1.04c.3 0 .52.23.52.52ZM31.04 27.37a.52.52 0 1 0 0-1.04.52.52 0 1 0 0 1.04ZM30.4 24.49a.52.52 0 0 1-1.04 0c0-.29.23-.52.52-.52.29 0 .52.23.52.52ZM31.04 29.66a.52.52 0 1 0 0-1.04.52.52 0 0 0-.52.52c0 .28.24.52.52.52ZM29.36 29.14a.52.52 0 0 1-1.04 0 .52.52 0 0 1 1.04 0ZM29.97 31.97a.52.52 0 1 0 0-1.04.52.52 0 0 0-.52.52c0 .29.23.52.52.52ZM31.61 32.64c0 .28-.23.51-.52.51a.52.52 0 0 1-.52-.51.52.52 0 0 1 1.04 0ZM31.1 44.76a.52.52 0 0 0 0-1.04.52.52 0 1 0 0 1.04ZM30.32 44.48c0 .29-.23.52-.52.52a.52.52 0 0 1-.52-.52.52.52 0 0 1 1.04 0ZM28.63 45a.52.52 0 1 0 0-1.04.52.52 0 0 0-.52.52c0 .29.23.52.52.52ZM27.97 44.48c0 .29-.23.52-.52.52a.52.52 0 0 1-.52-.52c0-.28.24-.52.52-.52.3 0 .52.24.52.52ZM25.1 44.76a.52.52 0 1 0 0-1.04.52.52 0 1 0 0 1.04ZM24.45 43.96c0 .29-.23.52-.52.52a.52.52 0 1 1 0-1.04c.29 0 .52.24.52.52ZM25.32 31.93c.3 0 .52-.23.52-.51a.52.52 0 0 0-.52-.52.52.52 0 0 0-.52.52c0 .28.24.51.52.51ZM27 29.05c0 .29-.22.52-.51.52a.52.52 0 0 1-.52-.52.52.52 0 0 1 1.04 0ZM25.32 36.52a.52.52 0 1 0 0-1.04.52.52 0 0 0-.52.52c0 .29.23.52.52.52ZM25.83 42.97a.52.52 0 0 1-1.04 0c0-.29.23-.52.52-.52.29 0 .52.23.52.52ZM26.49 39.92a.52.52 0 1 0 0-1.04.52.52 0 0 0-.52.52c0 .28.23.52.52.52ZM24.66 32.65c0 .28-.23.51-.52.51a.52.52 0 1 1 0-1.03c.29 0 .52.23.52.52ZM24.11 30.79a.52.52 0 1 0 0-1.04.52.52 0 0 0-.52.52c0 .28.24.52.52.52ZM25.84 30.25c0 .29-.23.52-.52.52a.52.52 0 1 1 0-1.03c.3 0 .52.23.52.51ZM26.49 28.4c.29 0 .52-.22.52-.51a.52.52 0 0 0-.52-.52.52.52 0 1 0 0 1.04ZM29.22 26.75c0 .29-.23.52-.52.52a.52.52 0 0 1-.52-.52c0-.28.23-.51.52-.51.29 0 .52.23.52.51ZM27.67 28.4c.29 0 .52-.22.52-.51a.52.52 0 0 0-.52-.52.52.52 0 1 0 0 1.04Z" fill="#F9732A"/><path d="M28.1 25.62a.52.52 0 0 1-1.04 0c0-.28.23-.51.52-.51.28 0 .52.23.52.51ZM27.66 30.79a.52.52 0 1 0 0-1.04.52.52 0 0 0-.52.52c0 .28.23.52.52.52ZM29.36 30.25c0 .29-.23.52-.52.52a.52.52 0 0 1-.52-.52c0-.28.23-.51.52-.51.29 0 .52.23.52.51ZM25.32 35.36c.28 0 .52-.24.52-.52a.52.52 0 0 0-.52-.52.52.52 0 0 0-.52.52c0 .28.23.52.52.52ZM24.67 37.13a.52.52 0 0 1-1.04 0c0-.29.23-.52.52-.52.29 0 .52.23.52.52ZM25.3 40.01a.52.52 0 1 0 0-1.04.52.52 0 0 0-.52.52c0 .3.23.52.52.52ZM24.67 40.63c0 .29-.23.52-.52.52a.52.52 0 0 1-.52-.52.52.52 0 0 1 1.04 0ZM24.15 43.45a.52.52 0 1 0 0-1.04.52.52 0 0 0-.52.52c0 .28.23.52.52.52ZM27.02 42.93c0 .28-.24.52-.52.52a.52.52 0 0 1-.53-.52c0-.29.24-.52.53-.52.28 0 .52.23.52.52ZM27.77 43.45a.52.52 0 1 0 0-1.04.52.52 0 0 0-.52.52c0 .28.24.52.52.52ZM28.1 40.68c0 .28-.23.51-.52.51a.52.52 0 0 1-.52-.51c0-.3.24-.52.52-.52.3 0 .53.23.53.52ZM28.82 40.01a.52.52 0 1 0 0-1.04.52.52 0 0 0-.53.52c0 .3.24.52.53.52ZM30.38 41.8c0 .3-.23.52-.52.52a.52.52 0 0 1-.52-.51c0-.3.24-.52.52-.52.29 0 .52.23.52.52ZM27.61 37.65a.52.52 0 1 0 0-1.04.52.52 0 0 0-.52.52c0 .29.23.52.52.52ZM26.97 32.64c0 .28-.23.51-.52.51a.52.52 0 0 1-.52-.51c0-.29.23-.52.52-.52.29 0 .52.23.52.52ZM26.57 35.39a.52.52 0 1 0 0-1.04.52.52 0 0 0-.52.52c0 .29.23.52.52.52ZM29.27 33.69a.52.52 0 0 1-1.04 0c0-.29.23-.52.52-.52.28 0 .52.23.52.52ZM29.95 35.45a.52.52 0 1 0 0-1.04.52.52 0 0 0-.52.52c0 .28.23.52.52.52ZM29.34 40.68c0 .28-.24.51-.52.51a.52.52 0 0 1-.53-.51c0-.3.24-.52.53-.52.28 0 .52.23.52.52ZM30.05 40.01a.52.52 0 1 0 0-1.04.52.52 0 1 0 0 1.04ZM31.61 41.8c0 .3-.23.52-.52.52a.52.52 0 0 1-.52-.51c0-.3.24-.52.52-.52.3 0 .52.23.52.52ZM28.84 37.65a.52.52 0 1 0 0-1.04.52.52 0 0 0-.52.52c0 .29.23.52.52.52ZM30.57 37.13a.52.52 0 0 1-1.04 0 .52.52 0 0 1 1.04 0ZM31.1 38.9a.52.52 0 0 0 0-1.04.52.52 0 0 0-.53.52c0 .29.24.52.52.52ZM30.38 43.05a.52.52 0 0 1-1.04 0 .52.52 0 0 1 1.04 0ZM27.68 33.15c.29 0 .52-.23.52-.51a.52.52 0 0 0-.52-.52.52.52 0 0 0-.52.52c0 .28.23.51.52.51ZM28.32 34.87c0 .29-.23.52-.52.52a.52.52 0 0 1-.52-.52.52.52 0 0 1 1.04 0ZM29.98 34.2c.29 0 .52-.22.52-.51a.52.52 0 0 0-.52-.52.52.52 0 0 0-.52.52c0 .29.23.52.52.52ZM25.83 41.8c0 .3-.23.52-.52.52a.52.52 0 0 1-.52-.51c0-.3.23-.52.52-.52.29 0 .52.23.52.52ZM26.49 38.75a.52.52 0 1 0 0-1.04.52.52 0 0 0-.52.52c0 .3.23.52.52.52ZM25.87 24.49a.52.52 0 0 1-1.04 0 .52.52 0 0 1 1.04 0ZM25.35 26.14c.3 0 .52-.23.52-.52a.52.52 0 0 0-.52-.51.52.52 0 0 0-.52.51c0 .29.24.52.52.52ZM24.66 23.35c0 .29-.23.52-.52.52a.52.52 0 1 1 0-1.04c.3 0 .52.23.52.52ZM24.14 26.14c.3 0 .52-.23.52-.52a.52.52 0 0 0-.52-.51.52.52 0 1 0 0 1.04ZM14.22 26.8c0 .28-.24.51-.52.51a.52.52 0 0 1-.52-.52c0-.28.23-.51.52-.51.28 0 .52.23.52.51ZM18.85 28c0 .3-.23.52-.52.52a.52.52 0 0 1-.52-.51c0-.29.23-.52.52-.52.29 0 .52.23.52.52ZM13.7 28.5c.28 0 .52-.24.52-.52a.52.52 0 0 0-.52-.52.52.52 0 0 0-.52.52c0 .28.23.51.52.51ZM14.22 29.14c0 .28-.24.52-.52.52a.52.52 0 0 1-.52-.52c0-.29.23-.52.52-.52.28 0 .52.23.52.52ZM13.7 30.84a.52.52 0 1 0 0-1.04.52.52 0 0 0-.52.52c0 .29.23.52.52.52ZM14.22 31.48a.52.52 0 0 1-1.04 0c0-.28.23-.51.52-.51.28 0 .52.23.52.51ZM17.18 29.66c.28 0 .52-.24.52-.52a.52.52 0 0 0-.52-.52.52.52 0 0 0-.52.52c0 .28.23.52.52.52ZM17.7 30.32a.52.52 0 0 1-1.04 0 .52.52 0 0 1 1.04 0ZM12.52 27.31a.52.52 0 1 0 0-1.04.52.52 0 0 0-.52.52c0 .29.23.52.52.52ZM13.04 27.98c0 .28-.23.51-.52.51a.52.52 0 0 1-.52-.51.52.52 0 0 1 1.04 0ZM12.52 29.66a.52.52 0 1 0 0-1.04.52.52 0 0 0-.52.52c0 .28.23.52.52.52ZM13.04 30.32a.52.52 0 0 1-1.04 0 .52.52 0 0 1 1.04 0ZM12.52 32a.52.52 0 1 0 0-1.04.52.52 0 0 0-.52.52c0 .29.23.52.52.52ZM16.52 29.14a.52.52 0 0 1-1.04 0 .52.52 0 0 1 1.04 0ZM16 30.84a.52.52 0 1 0 0-1.04.52.52 0 0 0-.52.52c0 .29.23.52.52.52ZM23.51 26.85a.52.52 0 0 1-1.04 0c0-.29.23-.52.52-.52.29 0 .52.23.52.52ZM23 29.66a.52.52 0 0 0 0-1.04.52.52 0 0 0-.53.52c0 .28.23.52.52.52ZM23.5 37.24c0 .28-.22.51-.51.51a.52.52 0 0 1-.52-.51c0-.3.23-.52.52-.52.29 0 .52.23.52.52ZM21.86 37.75a.52.52 0 1 0 0-1.04.52.52 0 0 0-.52.52c0 .29.23.52.52.52ZM23.52 40.66c0 .28-.24.51-.52.51a.52.52 0 1 1 0-1.03c.28 0 .52.23.52.52ZM22.49 44.08c.29 0 .52-.23.52-.51a.52.52 0 0 0-.52-.52.52.52 0 0 0-.52.52c0 .28.23.51.52.51ZM21.58 42.93a.52.52 0 0 1-1.04 0c0-.29.23-.52.52-.52.29 0 .52.23.52.52ZM19.06 42.12a.52.52 0 1 0 0-1.04.52.52 0 0 0-.52.52c0 .29.23.52.52.52ZM18.32 40.56c0 .29-.23.52-.52.52a.52.52 0 0 1-.52-.52c0-.28.23-.51.52-.51.29 0 .52.23.52.51ZM18.32 40.05a.52.52 0 1 0 0-1.04.52.52 0 0 0-.52.52c0 .28.23.52.52.52ZM18.84 37.2c0 .29-.23.52-.52.52a.52.52 0 0 1-.52-.52.52.52 0 0 1 1.04 0ZM18.32 35.4a.52.52 0 1 0 0-1.04.52.52 0 0 0-.52.52c0 .28.23.52.52.52ZM18.83 32.58a.52.52 0 0 1-1.04 0 .52.52 0 0 1 1.04 0ZM19.57 36.59a.52.52 0 1 0 0-1.04.52.52 0 0 0-.52.52c0 .28.24.52.52.52ZM21.23 32.65c0 .28-.23.51-.52.51a.52.52 0 1 1 0-1.03c.29 0 .52.23.52.52ZM21.84 31.93c.29 0 .52-.23.52-.51a.52.52 0 0 0-.52-.52.52.52 0 0 0-.52.52c0 .28.23.51.52.51ZM23.5 31.43c0 .29-.23.52-.52.52a.52.52 0 0 1-.52-.52.52.52 0 0 1 1.04 0ZM22.98 40.05a.52.52 0 1 0 0-1.04.52.52 0 0 0-.52.52c0 .28.23.52.52.52ZM23.52 33.8c0 .28-.23.51-.52.51a.52.52 0 0 1-.52-.52c0-.28.23-.51.52-.51.29 0 .52.23.52.51ZM20.73 36.59c.28 0 .52-.24.52-.52a.52.52 0 0 0-.52-.52.52.52 0 0 0-.52.52c0 .28.23.52.52.52ZM21.25 39.54a.52.52 0 0 1-1.04 0 .52.52 0 0 1 1.04 0ZM18.32 38.88a.52.52 0 1 0 0-1.04.52.52 0 0 0-.52.53c0 .28.23.51.52.51ZM18.84 36.04a.52.52 0 0 1-1.04 0 .52.52 0 0 1 1.04 0ZM18.32 34.23c.29 0 .52-.23.52-.51a.52.52 0 0 0-.52-.52.52.52 0 0 0-.52.52c0 .28.23.51.52.51ZM20.1 37.2c0 .29-.22.52-.51.52a.52.52 0 1 1 0-1.04c.29 0 .52.24.52.52ZM20.73 34.3a.52.52 0 1 0 0-1.04.52.52 0 0 0-.52.52c0 .29.23.52.52.52ZM22.38 32.55a.52.52 0 0 1-1.04 0 .52.52 0 0 1 1.04 0ZM23 33.08a.52.52 0 1 0 0-1.03.52.52 0 0 0-.52.51c0 .3.23.52.52.52ZM23.53 34.93a.52.52 0 0 1-1.04 0 .52.52 0 0 1 1.04 0ZM21.84 35.45a.52.52 0 1 0 0-1.04.52.52 0 0 0-.52.52c0 .28.23.52.52.52ZM21.26 37.2c0 .29-.23.52-.52.52a.52.52 0 0 1-.52-.52.52.52 0 0 1 1.04 0ZM20.74 41.2a.52.52 0 1 0 0-1.04.52.52 0 0 0-.52.52c0 .28.23.51.52.51ZM21.14 41.8c0 .29-.24.52-.53.52a.52.52 0 0 1-.52-.52c0-.28.24-.52.52-.52.3 0 .53.24.53.52ZM19.52 40.05a.52.52 0 1 0 0-1.04.52.52 0 0 0-.52.52c0 .28.24.52.52.52Z" fill="#F9732A"/><path d="M20.04 40.63c0 .29-.23.52-.52.52a.52.52 0 0 1-.52-.52.52.52 0 0 1 1.04 0ZM18.3 31.94a.52.52 0 1 0 0-1.04.52.52 0 1 0 0 1.04ZM20.03 31.42c0 .29-.23.52-.52.52a.52.52 0 0 1-.52-.52c0-.29.23-.52.52-.52.29 0 .52.23.52.52ZM19.57 35.42c.3 0 .52-.23.52-.51a.52.52 0 0 0-.52-.52.52.52 0 0 0-.52.52c0 .28.24.51.52.51ZM21.23 31.48c0 .29-.23.52-.52.52a.52.52 0 1 1 0-1.04c.29 0 .52.24.52.52ZM21.84 30.77a.52.52 0 1 0 0-1.04.52.52 0 0 0-.52.52c0 .29.23.52.52.52ZM23.5 30.27a.52.52 0 0 1-1.04 0 .52.52 0 0 1 1.04 0ZM22.98 38.88a.52.52 0 1 0 0-1.04.52.52 0 0 0-.52.53c0 .28.23.51.52.51ZM22.37 38.36c0 .29-.23.52-.52.52a.52.52 0 1 1 0-1.04c.29 0 .52.23.52.52ZM22.99 42.3c.29 0 .52-.23.52-.51a.52.52 0 0 0-.52-.52.52.52 0 0 0-.52.52c0 .28.23.51.52.51ZM21.25 34.9c0 .3-.24.52-.52.52a.52.52 0 0 1-.52-.51.52.52 0 0 1 1.04 0ZM20.73 38.9a.52.52 0 1 0 0-1.04.52.52 0 0 0-.52.52c0 .29.23.52.52.52ZM19.98 28c0 .3-.23.52-.52.52a.52.52 0 0 1-.52-.51.52.52 0 0 1 1.04 0ZM14.83 27.31a.52.52 0 1 0 0-1.04.52.52 0 0 0-.52.52c0 .29.23.52.52.52ZM17.68 26.85a.52.52 0 0 1-1.04 0c0-.29.23-.52.52-.52.29 0 .52.23.52.52ZM14.83 28.5c.28 0 .52-.24.52-.52a.52.52 0 0 0-.52-.52.52.52 0 0 0-.52.52c0 .28.23.51.52.51ZM15.35 29.14c0 .28-.24.52-.52.52a.52.52 0 0 1-.52-.52.52.52 0 0 1 1.04 0ZM13.7 33.2c.28 0 .52-.23.52-.51a.52.52 0 0 0-.52-.52.52.52 0 0 0-.52.52c0 .28.23.52.52.52ZM15.35 32.7c0 .28-.24.52-.52.52a.52.52 0 0 1-.52-.52.52.52 0 0 1 1.04 0ZM16 32.02a.52.52 0 1 0 0-1.04.52.52 0 0 0-.52.52c0 .28.23.52.52.52ZM16.53 34.92c0 .28-.23.51-.52.51a.52.52 0 1 1 0-1.03c.29 0 .52.23.52.52ZM17.16 33.09a.52.52 0 1 0 0-1.04.52.52 0 1 0 0 1.04ZM15.35 30.32a.52.52 0 0 1-1.04 0 .52.52 0 0 1 1.04 0ZM13.7 34.39a.52.52 0 1 0 0-1.04.52.52 0 0 0-.52.52c0 .29.23.52.52.52ZM15.35 33.88a.52.52 0 0 1-1.04 0 .52.52 0 0 1 1.04 0ZM14.83 36.72c.28 0 .52-.23.52-.51a.52.52 0 0 0-.52-.52.52.52 0 1 0 0 1.04ZM13.09 33.09a.52.52 0 0 1-1.04 0c0-.29.23-.52.52-.52.28 0 .52.23.52.52ZM16 38.9a.52.52 0 1 0 0-1.04.52.52 0 0 0-.52.52c0 .29.23.52.52.52ZM17.7 37.24a.52.52 0 1 1-.52-.52c.28 0 .52.24.52.52ZM17.18 38.92a.52.52 0 1 0 0-1.04.52.52 0 1 0 0 1.04ZM17.16 39.53c0 .28-.24.52-.52.52a.52.52 0 0 1-.52-.52c0-.29.23-.52.52-.52.28 0 .52.23.52.52ZM16 33.2a.52.52 0 1 0 0-1.04.52.52 0 0 0-.52.52c0 .29.23.52.52.52ZM16.53 36.1c0 .29-.23.52-.52.52a.52.52 0 1 1 0-1.04c.29 0 .52.23.52.52ZM17.16 34.27a.52.52 0 1 0 0-1.04.52.52 0 1 0 0 1.04ZM15.35 31.48a.52.52 0 0 1-1.04 0c0-.28.23-.51.52-.51.28 0 .52.23.52.51ZM13.7 35.55a.52.52 0 1 0 0-1.04.52.52 0 0 0-.52.52c0 .29.23.52.52.52Z" fill="#F9732A"/><path d="M15.35 35.04a.52.52 0 1 1-.52-.52c.28 0 .52.24.52.52ZM14.83 37.89c.28 0 .52-.24.52-.52a.52.52 0 0 0-.52-.52.52.52 0 0 0-.52.52c0 .28.23.52.52.52ZM16.52 33.84a.52.52 0 0 1-1.04 0 .52.52 0 0 1 1.04 0ZM16 37.78a.52.52 0 1 0 0-1.04.52.52 0 0 0-.51.52c0 .29.23.52.52.52ZM17.68 34.92c0 .28-.23.51-.52.51a.52.52 0 1 1 0-1.03c.29 0 .52.23.52.52ZM18.3 29.66c.3 0 .53-.24.53-.52a.52.52 0 0 0-.52-.52.52.52 0 0 0-.52.52c0 .28.23.52.52.52ZM18.83 30.32a.52.52 0 0 1-1.04 0 .52.52 0 0 1 1.04 0ZM19.5 30.84a.52.52 0 1 0 0-1.04.52.52 0 0 0-.51.52c0 .29.23.52.52.52ZM21.16 28c0 .3-.24.52-.53.52a.52.52 0 0 1-.52-.51.52.52 0 0 1 1.04 0ZM20.63 27.31a.52.52 0 1 0 0-1.04.52.52 0 0 0-.52.52c0 .29.24.52.52.52ZM21.16 29.22c0 .28-.24.52-.53.52a.52.52 0 0 1-.52-.52.52.52 0 0 1 1.04 0ZM16 27.31a.52.52 0 1 0 0-1.04.52.52 0 0 0-.52.52c0 .29.23.52.52.52ZM18.85 26.85a.52.52 0 0 1-1.04 0 .52.52 0 0 1 1.04 0ZM19.03 14.78a.52.52 0 1 0 0-1.04.52.52 0 0 0-.52.52c0 .29.23.52.52.52ZM19.5 15.81c.28 0 .52-.23.52-.51a.52.52 0 0 0-.52-.52.52.52 0 0 0-.52.52c0 .28.23.51.52.51ZM20.02 16.46c0 .3-.24.52-.52.52a.52.52 0 0 1-.52-.52c0-.28.23-.51.52-.51.28 0 .52.23.52.52ZM17.8 15.95a.52.52 0 0 0 0-1.04.52.52 0 1 0 0 1.04ZM18.84 16.46c0 .3-.24.52-.53.52a.52.52 0 0 1-.52-.52c0-.28.24-.51.52-.51.3 0 .53.23.53.52ZM18.31 18.15a.52.52 0 1 0 0-1.03.52.52 0 0 0-.52.52c0 .28.24.51.52.51ZM17.13 16.46c0 .3-.23.52-.52.52a.52.52 0 0 1-.52-.52c0-.28.23-.51.52-.51.29 0 .52.23.52.52ZM16 18.15c.29 0 .52-.23.52-.51a.52.52 0 0 0-.52-.52.52.52 0 0 0-.52.52c0 .28.23.51.52.51ZM17.65 17.64c0 .28-.23.51-.52.51a.52.52 0 0 1-.52-.51c0-.3.23-.52.52-.52.29 0 .52.23.52.52ZM14.83 19.32a.52.52 0 1 0 0-1.04.52.52 0 0 0-.52.52c0 .3.23.52.52.52ZM15.35 19.97c0 .3-.24.52-.52.52a.52.52 0 1 1 0-1.03c.28 0 .52.23.52.51ZM14.83 21.66a.52.52 0 1 0 0-1.04.52.52 0 1 0 0 1.04ZM14.22 21.14c0 .3-.24.52-.52.52a.52.52 0 0 1-.52-.52c0-.28.23-.51.52-.51.28 0 .52.23.52.51ZM13.7 22.83a.52.52 0 1 0 0-1.04.52.52 0 0 0-.52.52c0 .3.23.52.52.52ZM13.18 23.06c0 .29-.24.52-.53.52a.52.52 0 0 1-.52-.52c0-.28.24-.52.52-.52.3 0 .53.24.53.52ZM13.7 24a.52.52 0 1 0 0-1.04.52.52 0 0 0-.52.52c0 .3.23.52.52.52ZM14.22 24.59c0 .28-.24.52-.52.52a.52.52 0 0 1-.52-.52c0-.29.23-.52.52-.52.28 0 .52.23.52.52ZM13.7 26.2c.28 0 .52-.22.52-.5a.52.52 0 0 0-.52-.53.52.52 0 0 0-.52.52c0 .29.23.52.52.52ZM17.7 25.7c0 .28-.24.5-.52.5a.52.52 0 1 1 0-1.04c.28.01.52.24.52.53ZM18.38 25.1c.29 0 .52-.23.52-.51a.52.52 0 0 0-.52-.52.52.52 0 0 0-.52.52c0 .28.23.52.52.52ZM13.04 24.59a.52.52 0 0 1-1.04 0 .52.52 0 0 1 1.04 0ZM12.52 26.2c.29 0 .52-.22.52-.5a.52.52 0 0 0-.52-.53.52.52 0 0 0-.52.52c0 .29.23.52.52.52ZM15.35 22.31c0 .3-.24.52-.52.52a.52.52 0 0 1-.52-.52c0-.28.23-.51.52-.51.28 0 .52.23.52.51ZM17.2 22.83a.52.52 0 1 0 0-1.04.52.52 0 0 0-.51.52c0 .3.23.52.52.52ZM15.35 23.48c0 .3-.24.52-.52.52a.52.52 0 1 1 0-1.04c.28 0 .52.24.52.52ZM14.83 25.1c.28 0 .52-.23.52-.51a.52.52 0 0 0-.52-.52.52.52 0 0 0-.52.52c0 .28.23.52.52.52ZM15.35 25.7c0 .28-.24.5-.52.5a.52.52 0 1 1 0-1.04c.28.01.52.24.52.53ZM18.3 26.2c.3 0 .53-.22.53-.5a.52.52 0 0 0-.52-.53.52.52 0 1 0 0 1.04ZM20.03 24.59a.52.52 0 0 1-1.04 0 .52.52 0 0 1 1.04 0ZM16 19.32a.52.52 0 1 0 0-1.04.52.52 0 0 0-.52.52c0 .3.23.52.52.52ZM16.52 19.97c0 .3-.23.52-.52.52a.52.52 0 0 1-.52-.52c0-.28.23-.51.52-.51.29 0 .52.23.52.51ZM16 21.66a.52.52 0 1 0 0-1.04.52.52 0 0 0-.52.52c0 .3.23.52.52.52Z" fill="#F9732A"/><path d="M17.68 21.14c0 .3-.23.52-.52.52a.52.52 0 1 1 0-1.03c.29 0 .52.23.52.51ZM17.2 24a.52.52 0 1 0 0-1.04.52.52 0 0 0-.51.52c0 .3.23.52.52.52ZM18.87 23.48c0 .3-.23.52-.52.52a.52.52 0 0 1-.52-.52c0-.28.23-.51.52-.51.29 0 .52.23.52.51ZM16 22.83a.52.52 0 1 0 0-1.04.52.52 0 0 0-.52.52c0 .3.23.52.52.52ZM18.9 22.31c0 .3-.23.52-.52.52a.52.52 0 0 1-.52-.52c0-.28.23-.51.52-.51.29 0 .52.23.52.51ZM16 24a.52.52 0 1 0 0-1.04.52.52 0 0 0-.52.52c0 .3.23.52.52.52ZM16.52 24.59a.52.52 0 0 1-1.04 0 .52.52 0 0 1 1.04 0ZM16 26.2c.29 0 .52-.22.52-.5a.52.52 0 0 0-.52-.53.52.52 0 0 0-.52.52c0 .29.23.52.52.52ZM20 25.7c0 .28-.23.5-.52.5a.52.52 0 0 1-.52-.5.52.52 0 1 1 1.04 0ZM17.18 19.32a.52.52 0 1 0 0-1.04.52.52 0 0 0-.52.52c0 .3.23.52.52.52ZM18.87 18.8c0 .3-.23.52-.52.52a.52.52 0 0 1-.52-.52c0-.28.23-.51.52-.51.29 0 .52.23.52.51ZM19.5 19.32a.52.52 0 1 0 0-1.04.52.52 0 0 0-.52.52c0 .3.23.52.52.52ZM20.02 19.97c0 .3-.24.52-.52.52a.52.52 0 0 1-.52-.52c0-.28.23-.51.52-.51.28 0 .52.23.52.51ZM18.31 20.5a.52.52 0 1 0 0-1.04.52.52 0 0 0-.52.51c0 .3.24.52.52.52ZM18.84 21.14c0 .3-.24.52-.53.52a.52.52 0 0 1-.52-.52c0-.28.24-.51.52-.51.3 0 .53.23.53.51ZM19.5 21.66a.52.52 0 1 0 0-1.03.52.52 0 0 0-.52.51c0 .3.23.52.52.52Z" fill="#F9732A"/></svg>