<!-- by TradingView --><svg width="56" height="56" viewBox="0 0 56 56" xmlns="http://www.w3.org/2000/svg"><path fill="#F0F3FA" d="M0 0h56v56H0z"/><path d="M11.96 28c1.26 0 2.39-.6 3.11-1.52l-.67-.68a3 3 0 1 1 .07-3.5l.72-.62A3.95 3.95 0 0 0 8 24c0 2.2 1.77 4 3.96 4Zm18.91 0c1.26 0 2.39-.6 3.11-1.52l-.62-.63a3 3 0 1 1 .08-3.6l.66-.57A3.95 3.95 0 0 0 26.9 24c0 2.2 1.78 4 3.97 4ZM18.5 20h1.1l2.73 8h-1.02l-.67-2h-3.2l-.69 2h-1.07l2.82-8Zm-.72 5h2.53l-1.26-3.75L17.78 25Zm27.4-5h-1.35L41 28h1.2l.7-2h3.17l.7 2H48l-2.81-8Zm.54 5h-2.48l1.22-3.57L45.72 25ZM22 21v-1h5v1h-2v7h-1v-7h-2Zm14 7h-1v-8h1v3h3v-3h1v8h-1v-4h-3v4Z" fill="#262223"/><path fill-rule="evenodd" d="m12.83 31.98 1.12-1.09A3.95 3.95 0 0 0 11.3 30C9.47 30 8 31.57 8 33.5S9.47 37 11.29 37a4 4 0 0 0 2.71-.85l-.01-.02.01.01V33h-2.5v1.3h1.12v.9c-.33.27-.75.43-1.2.43-1.1 0-2-.95-2-2.13s.9-2.13 2-2.13c.55 0 1.04.24 1.4.61ZM28.26 37C30.9 37 32 35.43 32 33.5S30.68 30 28.26 30c-1.8 0-3.26 1.57-3.26 3.5s1.46 3.5 3.26 3.5Zm.24-1.5a2 2 0 1 0 0-4 2 2 0 0 0 0 4ZM17 37v-7h2.75a2.25 2.25 0 0 1 1.15 4.18L22.22 37h-1.74l-1-2.5h-.98V37H17Zm2.76-5.5H18.5V33h1.26c.4 0 .74-.34.74-.75a.74.74 0 0 0-.74-.75ZM43 30h2.75a2.25 2.25 0 0 1 0 4.5H44.5V37H43v-7Zm2.76 1.5H44.5V33h1.26c.4 0 .74-.34.74-.75a.74.74 0 0 0-.74-.75ZM34 30v4.4c0 1.44 1.22 2.6 2.73 2.6h.54c1.5 0 2.73-1.16 2.73-2.6V30h-1.5v4.2c0 .79-.68 1.3-1.5 1.3s-1.5-.51-1.5-1.3V30H34Z" fill="#CE223A"/></svg>