<!-- by TradingView --><svg width="56" height="56" viewBox="0 0 56 56" xmlns="http://www.w3.org/2000/svg"><path fill="#F0F3FA" d="M0 0h56v56H0z"/><path d="M39.51 13H16.5a3.5 3.5 0 0 0-3.5 3.49V39.5a3.5 3.5 0 0 0 3.49 3.5H39.5a3.5 3.5 0 0 0 3.5-3.49V16.5a3.5 3.5 0 0 0-3.49-3.5Z" fill="#023985"/><path d="M21.62 21.53H19.4v-1l1.54-.08c-.25-.38.3-1.46.3-1.46.83-.09 1.12 1.37 1.12 1.37h1.38a1.61 1.61 0 0 1 .67-1.17c.67-.08.83 1.34.83 1.34h.84c.83.12.5 1 .5 1h-3.93l.78 1.63 1.48-1.09c.58-.33.7.63.7.63l-1.45 1.46c.25 1.96 3.59 2.74 3.59 2.74-.59.83-2.17 1.1-2.17 1.1-1.88.04-2.56-2.92-2.56-2.92l-1.87 2.34c-1.04.37-.5-.52-.5-.52l2-3.34-.5-.28-2.33 3.17c-1.05.67-.62-.54-.62-.54l1.54-2.35c-1.42.03-1.34-.74-1.34-.74-.3-.62 2.09-.58 2.09-.58l.13-.7Zm-2.46 2.24c-.37 3.54-2.2 3.12-2.2 3.12-1.42-.58.24-2.18.24-2.18 2-1.51.7-4.06.7-4.06-.18-.65.63-.37.63-.37.9 1 .63 3.49.63 3.49Zm1.06 12.1c-.08.07-.15.08-.22 0a.67.67 0 0 1-.04-.06l-.05-.05a4.33 4.33 0 0 0-.17-.19l-.17.11c-.64.4-1.3.41-1.96.09a2.4 2.4 0 0 1-1.28-1.6c-.28-1.05 0-1.95.8-2.7.41-.38.92-.5 1.49-.46.32.03.63.12.91.28l.13.06.08.04.28-.35.05.03.07.03v.3l-.01.4-.01.62v.23h-.19v-.03a.05.05 0 0 1-.03-.05l-.07-.18-.16-.41a1.18 1.18 0 0 0-.93-.73 1.19 1.19 0 0 0-1 .21c-.23.19-.4.45-.46.75-.09.3-.13.6-.15.92v.92c0 .32.1.64.25.91.2.36.52.64.91.76a1.11 1.11 0 0 0 1.27-.49l.2-.38.06-.13.1-.21.07-.13c.04-.1.1-.1.2-.04l-.01.4c-.02.37-.03.75.04 1.12Zm3.84-.06-.01.19H22.5a.22.22 0 0 1 0-.2l.19-.01c.1 0 .19 0 .28-.03v-.04l.02-.07v-1.86c0-.2-.11-.47-.36-.46-.36-.04-.71.05-.95.32a.42.42 0 0 0-.13.33v1.52l.01.16v.08c.08.04.16.04.25.04.07 0 .14 0 .2.04V36H20.5l.01-.13.01-.1.22-.02.25-.02.01-.05v-.48a335.82 335.82 0 0 1-.01-3.75v-.07a5.14 5.14 0 0 0-.31-.02h-.12c-.17.01-.2-.05-.13-.22.37.01.71-.03 1.08-.14l.02.13a600.94 600.94 0 0 1 .01 2.25v.16l.07-.07c.26-.28.76-.47 1.13-.47a.9.9 0 0 1 .37.08c.15.05.27.15.35.29a.8.8 0 0 1 .13.44 26.21 26.21 0 0 1 .02 1.8c0 .15.01.17.15.18h.2l.1.02Zm9.24-2.8a.5.5 0 0 0-.45.1l-.2.18-.1.1-.02-.02a1.18 1.18 0 0 0-.78-.36 1.23 1.23 0 0 0-1.18.74.9.9 0 0 0 .3 1.13l.08.06.03.02.02.02-.15.07a.98.98 0 0 0-.37.27.62.62 0 0 0-.15.49.5.5 0 0 0-.1 0c-.07 0-.15 0-.22-.03v-.07l-.01-.28v-1.47c0-.57-.24-.97-.88-.96-.2 0-.5.06-.67.16a3.65 3.65 0 0 0-.43.33l-.03.03c0-.17-.01-.34-.04-.51l-.17.04-.37.08a4.38 4.38 0 0 1-.56.05v.16c.1.03.2.03.3.02l.23.01v.04l.01.08a229.2 229.2 0 0 1-.01 2.28l-.23.01-.23.01-.01.1V36h1.52c.03-.15 0-.19-.12-.2h-.11l-.06-.01h-.07l-.03-.01a.27.27 0 0 0-.02-.07.2.2 0 0 1-.02-.07V34c0-.27 0-.28.21-.46h.02l.03-.03c.16-.14.49-.22.7-.22a.4.4 0 0 1 .24.07c.07.05.11.12.12.2.03.12.05.23.05.35l.02 1.57v.22c0 .03 0 .07-.02.1a.73.73 0 0 1-.24.02l-.22.01a.16.16 0 0 0 .01.18h1.47c.02.05.05.1.1.14a.65.65 0 0 0 .3.19h.03l.06.02-.05.03h-.01a1.4 1.4 0 0 0-.45.27.6.6 0 0 0-.17.57.78.78 0 0 0 .4.54c.28.17.6.25.93.24.46.02.91-.12 1.27-.41a1.23 1.23 0 0 0 .49-1.07.74.74 0 0 0-.23-.53.71.71 0 0 0-.53-.2l-.43.03-.22.01-.22.02-.52.03c-.27 0-.37-.12-.35-.4a.3.3 0 0 1 .1-.23.29.29 0 0 1 .23-.08l.33.03c.36.04.72-.05 1.02-.27a.89.89 0 0 0 .39-.72c0-.2-.03-.39-.1-.57a.22.22 0 0 1 .1-.3.12.12 0 0 1 .14-.02c.04.03.04.07.03.11v.05c-.01.05 0 .1.02.14.03.04.06.07.1.08a.3.3 0 0 0 .35-.09.38.38 0 0 0-.06-.53.36.36 0 0 0-.14-.06Zm-1.67 3.38a413.95 413.95 0 0 1 1.02 0 .3.3 0 0 1 .22.09.3.3 0 0 1 .08.23.85.85 0 0 1-.58.9 1.6 1.6 0 0 1-1.24-.04.63.63 0 0 1-.37-.47.66.66 0 0 1 .18-.58l.08-.08.03-.04.57-.01h.01Zm.52-1.69a.91.91 0 0 1-.06.12.47.47 0 0 1-.4.23.46.46 0 0 1-.4-.22 1.03 1.03 0 0 1-.13-.41 2.1 2.1 0 0 1 .01-.76.6.6 0 0 1 .12-.27.5.5 0 0 1 .43-.2.49.49 0 0 1 .4.25c.07.14.11.3.12.45v.21c.02.2-.02.41-.09.6Zm4.82 1.3v-.19a.77.77 0 0 0-.1-.02h-.2c-.13-.01-.15-.03-.15-.17a638.17 638.17 0 0 0-.01-1.57v-.23a.81.81 0 0 0-.18-.52.75.75 0 0 0-.45-.27 1.23 1.23 0 0 0-.57.02c-.25.08-.47.22-.64.42h-.02l-.02.03-.03.03a1317.71 1317.71 0 0 1-.01-.67v-1.23l-.01-.42v-.08l-.03-.13-.17.04-.4.07-.39.03h-.17c-.07.17-.03.23.13.22h.12a5.2 5.2 0 0 1 .31.02l.01.08.01.1v1.86a384.75 384.75 0 0 0 0 2.31l-.25.02-.23.02-.01.15V36h1.57v-.18a.6.6 0 0 0-.22-.04c-.08 0-.16 0-.24-.04v-.24l-.01-.55-.01-.77v-.2a.42.42 0 0 1 .13-.33.96.96 0 0 1 .82-.32.3.3 0 0 1 .2.07c.05.05.09.12.1.2.02.06.03.12.03.19v.72c.02.36.02.7.03 1.13a.8.8 0 0 1-.02.12c-.1.03-.19.03-.28.03h-.2a.22.22 0 0 0 .01.21h1.55Zm-12.08-1.74h.95c.36 0 .71 0 1.06-.04.01-.18-.03-.36-.1-.53a1.36 1.36 0 0 0-1.44-.67c-.2.04-.37.1-.53.21a1.53 1.53 0 0 0-.62 1.58 1.62 1.62 0 0 0 1.2 1.14 1.2 1.2 0 0 0 .9-.1 1.38 1.38 0 0 0 .57-.63v-.02l-.04-.03-.1-.07-.08.1-.08.1-.17.22a.83.83 0 0 1-.81.22.9.9 0 0 1-.4-.2.84.84 0 0 1-.24-.36 1.78 1.78 0 0 1-.07-.92Zm.18-.83a.54.54 0 0 1 .23-.2c.1-.05.2-.06.31-.05.4 0 .59.29.64.58l.02.17v.1c-.28.03-.57.03-.86.02h-.5c0-.21.06-.43.16-.62Zm14.36 1.77.08-.1.14.1v.04c-.12.26-.32.48-.58.63-.27.14-.58.17-.88.09a1.62 1.62 0 0 1-.71-.36c-.2-.17-.35-.39-.44-.63-.1-.31-.1-.65 0-.95.1-.31.3-.59.57-.79a1.37 1.37 0 0 1 1.09-.2 1.36 1.36 0 0 1 .86.66c.09.17.13.35.12.54h-.15c-.1.02-.2.02-.3.02h-1.2a5.82 5.82 0 0 0-.38.02c-.03.4-.04.8.22 1.16.08.1.17.18.29.23a.89.89 0 0 0 1.04-.17l.16-.2.07-.1Zm-1.68-1.57v.03a1.6 1.6 0 0 0-.06.4h.48c.29 0 .58 0 .88-.04a2.84 2.84 0 0 0-.05-.34.58.58 0 0 0-.13-.28.63.63 0 0 0-.26-.18c-.32-.1-.72-.06-.86.4ZM32.13 21.4a5.4 5.4 0 0 1 1.7.23s2.26-.8 0-1.64h-3.29s-2.04.63-1.46 1.34c0 0 .13.46 1.46.25.3-.07.6-.12.9-.14v.83c-.37.04-2.62.27-2.7.62 0 0-.28 1.22.68 1.07.7-.13 1.38-.34 2.03-.63v.24h-.04s-1.62 1.87-2.91 1.2c0 0-.67 1.17 1 1.3 0 0 1.3-.48 1.95-1.4V28H32v-3.48l.13.05c.56.18 1.43.42 1.7.26 0 0 .55-.67-.62-.96 0 0-.53-.14-1.08-.23l-.13-.02v-.5l.13-.03c.45-.12 1.06-.2 1.54.04 0 0 1-.65 0-.86a11.59 11.59 0 0 0-1.67-.04v-.82h.13Zm6.93.12h-4.47c-.88.42.25.84.25.84v1.82c0 .27-.87 1.1-.87 1.1-.76.37 0 .79 0 .79.58 0 .87-.54.87-.54l4.13.16c.8-.46-.25-.87-.25-.87l.04-2.14h.55c.91-.58-.25-1.16-.25-1.16ZM37.8 24.2l-1.8.2v-1.7h1.97l-.17 1.5Z" fill="#F0F3FA"/></svg>