<!-- by TradingView --><svg width="56" height="56" viewBox="0 0 56 56" xmlns="http://www.w3.org/2000/svg"><path fill="#F0F3FA" d="M0 0h56v56H0z"/><path d="M8.36 31c2.73 0 3.2-1.36 3.32-2h-1.16c-.12.44-.71 1-2.07 1C7.17 30 6 29.35 6 28.04c0-1.2.87-2.04 2.52-2.04 1.39 0 1.84.8 1.91 1h1.16c-.1-.37-.56-2-3.14-2C6.09 25 5 26.24 5 27.91 5 29.99 6.48 31 8.36 31ZM15 25h-1v6h1v-6Zm4 0h3.26c1.4 0 2.42.45 2.42 1.85 0 1.05-.79 1.63-1.66 1.68L24.84 31h-1.3l-1.72-2.39H20V31h-1v-6Zm3.09 2.68c.95 0 1.6-.16 1.6-.83 0-.67-.65-.85-1.6-.85H20v1.68h2.09ZM39.5 25c2.62 0 3.5 1.48 3.5 3.04 0 1.2-.69 2.96-3.5 2.96S36 29.23 36 28.04c0-1.56.88-3.04 3.5-3.04Zm2.5 2.98C42 26.6 40.86 26 39.5 26s-2.5.6-2.5 1.98C37 29.6 38.39 30 39.5 30s2.5-.4 2.5-2.02ZM49.42 25H46v6h1v-2.39h1.95L50.67 31H52l-1.82-2.47c.87-.05 1.66-.63 1.66-1.68 0-1.4-1.02-1.85-2.42-1.85Zm1.38 1.85c0 .67-.6.83-1.56.83H47V26h2.24c.95 0 1.56.18 1.56.85ZM30.36 31c2.73 0 3.2-1.36 3.32-2h-1.16c-.12.44-.71 1-2.07 1-1.28 0-2.45-.65-2.45-1.96 0-1.2.87-2.04 2.52-2.04 1.39 0 1.84.8 1.91 1h1.16c-.1-.37-.56-2-3.14-2-2.36 0-3.45 1.24-3.45 2.9 0 2.1 1.48 3.1 3.36 3.1Z" fill="#A92A31"/><path d="M8.2 37.23c-1.19-.67-1.8-2.25-1.85-4.23h-.78c-.27 2.71.3 4.82 1.78 5.64 2.37 1.33 6.32-1.13 9.52-5.64h-.34c-2.7 3.43-6.18 5.42-8.32 4.23Z" fill="url(#allnd4u0k)"/><path d="M18.76 18.73c1.29.66 1.87 2.27 1.83 4.27h.71c.4-2.72-.15-4.87-1.71-5.67-2.47-1.26-6.64 1.22-9.9 5.67h.34c2.76-3.4 6.5-5.4 8.73-4.27Z" fill="url(#bllnd4u0k)"/><defs><linearGradient id="allnd4u0k" x1="6.3" y1="31.8" x2="14.55" y2="36.81" gradientUnits="userSpaceOnUse"><stop offset=".25" stop-color="#888C96"/><stop offset=".47" stop-color="#fff"/><stop offset=".77" stop-color="#888C96"/></linearGradient><linearGradient id="bllnd4u0k" x1="12.48" y1="18.79" x2="20.54" y2="24.14" gradientUnits="userSpaceOnUse"><stop offset=".3" stop-color="#888C96"/><stop offset=".57" stop-color="#fff"/><stop offset=".88" stop-color="#888C96"/></linearGradient></defs></svg>