<!-- by TradingView --><svg xmlns="http://www.w3.org/2000/svg" width="56" height="56" viewBox="0 0 56 56"><path fill="#18243C" d="M0 0h56v56H0z"/><path d="M42.99 15.65C33.47 15.98 28 11 28 11s-5.46 4.98-14.99 4.65c0 0-1.03 20.43 14.98 31.35 16.03-10.92 15-31.35 15-31.35Z" fill="#C05902"/><path d="m35.8 20.34-.2-.24-.1-.13a.4.4 0 0 0-.34-.17 5.77 5.77 0 0 1-1.12-.14 1.18 1.18 0 0 1-.73-.82.77.77 0 0 0-.1.58c.04.13.14.23.26.3-.45-.16-.71-.74-.76-.85l-.01-.02a1.56 1.56 0 0 0 .22 1.77.83.83 0 0 1-.45-.47c-.41.18-.81.4-1.19.64-.27.28-.51.57-.72.9l.41-1.6.9-.35-.13-.87-.37.5-.64.06a.75.75 0 0 1 .23-.71.89.89 0 0 1 .74 0l-.25-1.31-1.35.47-.49-.05a.41.41 0 0 0-.36.12 5.9 5.9 0 0 1-.9.65 1.22 1.22 0 0 1-1.11-.07h-.03v.03c.05.2.17.37.35.49a.7.7 0 0 0 .41.03c-.4.1-.82.07-1.19-.1h-.03v.03a1.66 1.66 0 0 0 1.44 1.1.86.86 0 0 1-.65-.04l-.49 1.15 1.4.3h-1.97a.8.8 0 0 1-.16.62 1.56 1.56 0 0 0-.67-1.65l-.04-.03v.03c.06.4-.02.8-.24 1.14.07-.12.1-.26.08-.4a.79.79 0 0 0-.38-.46h-.03v.03a1.12 1.12 0 0 1-.24 1.06c-.28.24-.58.46-.9.64a.4.4 0 0 0-.22.3l-.09.47-.85 1.11 1.22.6a.85.85 0 0 1 .23-.69.8.8 0 0 1 .76 0l-.24.54-.6.2.82.39.6-.74 1.43-.26.96 1.13c-.17.89-.21 1.8-.13 2.7l-.08.05c-.36.21-1.7 1.02-2.48 1.57a3.32 3.32 0 0 0-.94 1.75c-.1.41-.19.84-.24 1.26l-1.92 1.49-.75 1.54c-.76.78-.72 1.1-.72 1.13h2.25c.09-.36-.33-1-.41-1.12v-.01l.35-.83 3.04-1.23c1.22-.51 1.28-1.22 1.3-1.45v-.06a8.19 8.19 0 0 1 .27-1.6c.21-.23.47-.41.75-.54-.17.15-.33.32-.48.5-.22.4-.28.9-.15 1.35a7.3 7.3 0 0 0 2.97-1.31c.48-.32.93-.66 1.36-1.04l-1.46-1.44 3.38 2.62c.25.58.45.74.53.77a.09.09 0 0 0 .08 0l1.3-.35.57.36a4.58 4.58 0 0 0-.08-.64.56.56 0 0 0-.31-.39 7.93 7.93 0 0 0-1.45-.4l-1.45-1.96c.26-.52.44-1.08.54-1.65a3.3 3.3 0 0 0-.18-1.91 2.1 2.1 0 0 1-.16-1.36c.04-.17.11-.33.22-.47l1.35-.44.9.37.53-.7-.62.09-.5-.4c.24-.26.45-.38.68-.34.3.05.49.41.52.49l.01.01.78-1.09-1.29-.53Zm-11.73 3.12-.09-.38.56-.28-.47.66Zm5.3-4.8.45-.44.35.18-.8.25Zm5.37 1.74h.64l.11.37-.75-.37Zm1.51 3.42c.23-.17.5-.25.8-.22l.02-.01-.4.43v1.35l-3.07 2.1v-.04c.23-.58.32-1.2.25-1.83l1.95-.58v-.06l.06-.44c.03-.27.17-.52.4-.7Zm-4.94 11.75c.13.06.25.14.35.23.15.14.24.32.26.52h-1.95L28.5 35l.73-1.43-1.43-1.31a6.5 6.5 0 0 0 2.64-1.12l.04.06.5.93a1.01 1.01 0 0 1-.16 1.06l-1.15 1.46.53.82c.24 0 .47 0 .7.03.15 0 .29.02.42.07Zm-8.05-4.72c.39.05.77-.02 1.11-.18-.13.3-.23.63-.3.96h-.31c-.42.01-.83-.06-1.21-.2a2.2 2.2 0 0 1-.98-.76 1.55 1.55 0 0 1 .26-2.13c.18-.15.38-.27.59-.38l.22-.13c.31-.17.3-.28.27-.36a.85.85 0 0 0-.27-.26 7.2 7.2 0 0 0-.65-.4 1.44 1.44 0 0 1-.77-.87c-.05-.24 0-.5.14-.7l.13-.17.05.2a.7.7 0 0 0 .25.37.83.83 0 0 1 .03-.44l.08-.2.11.19a.72.72 0 0 0 .66.32c.31-.03.63.03.9.18a1.9 1.9 0 0 0-.13-.25l-.21-.31.34.17c.28.12.51.31.68.56a1.45 1.45 0 0 1-.24 1.71c-.32.4-.73.72-1.19.96l-.22.13a1.02 1.02 0 0 0-.6.93c.01.22.1.43.24.6.29.25.64.4 1.02.46Z" fill="#fff"/></svg>