<!-- by TradingView --><svg width="56" height="56" viewBox="0 0 56 56" xmlns="http://www.w3.org/2000/svg"><path fill="#F0F3FA" d="M0 0h56v56H0z"/><path d="m16 21.69-.52.85A9.91 9.91 0 0 0 12.2 22C8.56 22 5 24.43 5 27.69 5 30.94 8.01 32 10 32c1.59 0 2.7-.51 3.14-.71h.68l.18.6c-.86.37-2.9 1.11-4 1.11-3.63 0-6-2.14-6-5.31C4 22.89 9.35 21 12.2 21c2.28 0 3.48.46 3.8.69Z" fill="#F5192F"/><path fill-rule="evenodd" d="M13.83 32.6c1.86 1.02 4.33 0 5.53-2.26 1.2-2.27.67-4.93-1.19-5.94-1.86-1.02-4.33 0-5.53 2.26-1.2 2.27-.67 4.93 1.19 5.94Zm.54-.9c1.4.78 3.25 0 4.15-1.77.9-1.76.5-3.83-.9-4.62-1.38-.8-3.24 0-4.14 1.76-.9 1.76-.5 3.83.9 4.62ZM39.42 30.34c-1.09 2.27-3.33 3.28-5.01 2.26a2.55 2.55 0 0 1-.98-1.08L32.5 36h-1l2.22-10.51c.1-.64-.33-1.12-.72-1.49h2l-.25 1.21c1.03-1.2 2.33-1.58 3.6-.81 1.67 1.01 2.16 3.67 1.07 5.94Zm-.8-.4c-.75 1.76-2.28 2.54-3.43 1.75-1.15-.79-1.47-2.86-.73-4.62.74-1.77 2.27-2.55 3.42-1.76 1.15.79 1.48 2.86.73 4.62Z" fill="#F5192F"/><path d="M52 21h-5.73L43 24.73 39.73 21H34l2.27 2.6c.3-.08.6-.1.93-.1 2.27.06 3.38 2.27 3.3 4.26-.1 2.42-1.8 5.68-4.5 5.74-.22 0-.43-.02-.63-.06L34 35h5.73L43 31.27 46.27 35H52l-6.14-7L52 21Z" fill="#201D1D"/><path d="M21.7 25.55 20 33h1l1.64-7.4c.48-.39 1.03-.6 1.6-.6 1.57 0 1.6 1.65 1.42 2.44L24.41 33h1.25s.83-3.77 1.25-6.19c.61-1.1 1.28-1.81 2.27-1.81 1.58 0 1.67 1.65 1.5 2.44L29.41 33h1.25s.93-3.82 1.31-6.18c.12-.7-.35-2.82-2.47-2.82-1.26 0-2.21 1.06-2.66 1.71A2.5 2.5 0 0 0 24.5 24a2.7 2.7 0 0 0-1.64.62L23 24h-2c.47.39.82.88.7 1.55Z" fill="#F5192F"/></svg>