<!-- by TradingView --><svg width="56" height="56" viewBox="0 0 56 56" xmlns="http://www.w3.org/2000/svg"><path fill="#F0F3FA" d="M0 0h56v56H0z"/><path fill-rule="evenodd" d="M27.41 44c9.1 0 16.48-7.16 16.48-16S36.5 12 27.4 12C18.31 12 11 19.16 11 28s7.31 16 16.41 16Zm.09-2c8 0 14.5-6.27 14.5-14s-6.5-14-14.5-14S13 20.27 13 28s6.5 14 14.5 14Z" fill="#8CBF4D"/><path d="M47 20.52c0-5.6-6.45-9.34-9.68-10.52C42.63 14.49 44 18.75 44 21.76c0 9.51-7.33 13.1-9 14.24 7.81-2.6 12-8.5 12-15.48ZM39.9 39c4.5 0 5.33-5.18 5.05-6-1.28 3.84-3.8 5-6.13 5a8.57 8.57 0 0 1-3.82-.98c0 .28 2.72 1.98 4.9 1.98Z" fill="#0457B6"/><path d="M25.98 19H28l-3.98 16H22l3.98-16Z" fill="#8CBF4D"/><path d="M30.98 19H33l-3.98 16H27l3.98-16ZM27 26h1.5l-.5 2h-1.5l.5-2ZM32.5 26H34l-.5 2H32l.5-2ZM36.04 19H38l-3.86 16h-1.96l3.86-16Z" fill="#0457B6"/><path d="M36.55 25H34.6l1.45-6H38l-1.45 6ZM21.57 19h2.14l-.8 3h-2.13l.79-3Zm-1.32 5h2.14l-1.05 4H19.2l1.05-4Zm-1.58 6-1.32 5h2.14l1.32-5h-2.14Z" fill="#8CBF4D"/></svg>