<!-- by TradingView --><svg xmlns="http://www.w3.org/2000/svg" width="56" height="56" viewBox="0 0 56 56"><path fill="#F0F3FA" d="M0 0h56v56H0z"/><path d="M47.99 23.03H7.86v-.3h40.13v.3Zm.05 9.85H7.91v-.3h40.13v.3ZM6.11 27.95h43.73v-.3H6.11v.3Z" fill="#C4141B"/><path fill-rule="evenodd" d="M43.3 36.76c3.9-2.3 6.2-5.42 6.2-8.76s-2.3-6.46-6.2-8.76C39.41 16.94 34 15.5 28 15.5s-11.41 1.44-15.3 3.74c-3.9 2.3-6.2 5.42-6.2 8.76s2.3 6.46 6.2 8.76c3.89 2.3 9.3 3.74 15.3 3.74s11.41-1.44 15.3-3.74ZM28 41c12.15 0 22-5.82 22-13s-9.85-13-22-13S6 20.82 6 28s9.85 13 22 13Z" fill="#C4141B"/><path fill-rule="evenodd" d="M33.41 36.92A16.89 16.89 0 0 0 35.75 28c0-3.51-.9-6.66-2.34-8.92-1.44-2.27-3.36-3.58-5.41-3.58-2.05 0-3.97 1.3-5.41 3.58A16.89 16.89 0 0 0 20.25 28c0 3.51.9 6.66 2.34 8.92 1.44 2.27 3.36 3.58 5.41 3.58 2.05 0 3.97-1.3 5.41-3.58ZM28 41c4.56 0 8.25-5.82 8.25-13S32.55 15 28 15c-4.56 0-8.25 5.82-8.25 13s3.7 13 8.25 13Z" fill="#C4141B"/><path fill-rule="evenodd" d="M28.01 40.5c8.46 0 15.15-5.68 15.15-12.5s-6.7-12.5-15.15-12.5c-8.46 0-15.15 5.68-15.15 12.5s6.7 12.5 15.15 12.5Zm0 .5c8.64 0 15.65-5.82 15.65-13s-7-13-15.65-13c-8.64 0-15.65 5.82-15.65 13s7 13 15.65 13Z" fill="#C4141B"/><rect x="17" y="18" width="22" height="20" rx="2" fill="#C4141B"/><path fill-rule="evenodd" d="M19 34.85c0 .88.5 1.16.74 1.2.73 0 .77-.72.7-1.07v-11c0-.7-.01-2.47 1.97-2.36 1.66.1 1.16.86.7 1.23-1 .03-1.34.97-1.4 1.43v5.25c.03 1 .73 1.27 1.08 1.27h2.82c1.07.24 1.5.96 1.6 2.04.1 1.08-1.13 2-2.68 2-1.54 0-1.74-1.8-.5-1.8 1.25 0 1.58-.2 1.58-.51s-1.08-.91-2.5-.93a1.46 1.46 0 0 0-1.57 1.24v1.85A1.4 1.4 0 0 0 22.8 36h4.19c.54 0 1.02-.19 1.02-.88V30.3c.02-.77-.86-1-1.25-1.03h-2.59c-.68-.06-.89-.77-.91-1.13v-2.56c0-.55.21-1.1.56-1.1.28 0 .35.44.35.67-.3.42-.13 1 0 1.24v.82c-.5.29-.52 1.56.37 1.48.9-.07 1.55-.76 1.55-1.48 0-.58-.43-1.17-.65-1.4v-.85a.59.59 0 0 1 .65-.48c.44.03.63.46.67.67v1.96c-.02.62.4.85.6.89h1.05l.82.7v4.33c0 .71.37 1.01.55 1.07v.3c-.5.24-.57.8-.55 1.05.12.98 1.15.65 1.65.36h4.37c.35.3.93.28 1.17.24 1.02-.16.85-1.88.65-2.71h-.5v.76l-.66.75h-5.22l-.6-.45v-.3c.43-.12.58-.56.6-.76V22.33l.75-.83h.34c0 .29.56.5.83.5h3.26c.37.04 1.13-.17 1.06-.73-.07-.56-.56-.78-.8-.81H33.1c-.72-.02-1.18.34-1.32.54h-.47s-.36-1.12-1-1.26a1.08 1.08 0 0 0-.57 0c-.55.14-.82 1.26-.82 1.26h-2.48s-.39-1.24-1.03-1.48a1.48 1.48 0 0 0-1.13 0c-.6.22-1.02 1.48-1.02 1.48h-2.01c-.16-.74-.68-1.5-1.5-1.48-.83.03-1.44 1.24-1.42 1.51.02.27.46.88.68 1.15v12.67Zm10.31-9.17v-2.64c0-.9-.46-1.16-.69-1.18h-1.4c-.7.07-.87.94 0 .92.69-.01.77.54.78.81v2.1c-.01.21.2.66.72.67.5.02.6-.44.6-.68Zm3.1 8.66c-.33 0-.7-.24-.7-.76v-1.76c-.02 0-.03-.02-.05-.03-.16-.11-.44-.3-.47-.91-.04-.67.33-1.13.51-1.17v-1.66c-.19-.08-.58-.26-.62-.9-.04-.64.4-.91.62-.9v-1.92c-.2-.12-.62-.48-.62-.9 0-.51.48-1.11.9-1.16.43-.04.79-.07 1.48.48h3.29c.22.02.65.31.72.83v.75c-.03.23-.17.7-.56.73-.4.02-.47-.47-.46-.73 0-.12-.22-.37-.96-.33h-1.7c-.3-.02-.89.2-.87 1.22.01 1.25.62 1.36.86 1.38h2.2c.22-.06.66-.26.64-.58-.04-.41.55-.79.85-.18v1.31c-.07.26-.4.85-1.1.85h-2.69c-.29 0-.86.13-.76.94.11 1.03.62 1.31 1.03 1.31h1.95c.48-.25 1.46-.47 1.57.63.1 1.1-.46 1.67-.76 1.82a11.1 11.1 0 0 1-1.06-1.29h-1.87c-.24.01-.8.16-.78.66v1.52c.02.22.06.75-.6.75Z" fill="#F0F3FA"/></svg>