<!-- by TradingView --><svg width="56" height="56" viewBox="0 0 56 56" xmlns="http://www.w3.org/2000/svg"><path fill="#F0F3FA" d="M0 0h56v56H0z"/><path d="M6.58 26A2.51 2.51 0 0 0 4 28.5 2.5 2.5 0 0 0 6.58 31C7.6 31 8.6 30.52 9 29.53h-.62c-.3.65-.92 1.04-1.8 1.04-1.2 0-2.08-.9-2.08-2.07s.89-2.07 2.08-2.07c.8 0 1.4.34 1.73.91L8 27.5l1 .5v-1l-.2.1c-.44-.7-1.22-1.1-2.22-1.1ZM13.5 26.5v1.78H16c0 .23-.19.41-.41.41H13.5v1.81H16v.5h-3v-5h3v.5h-2.5ZM30.5 26.5v1.78H33c0 .23-.19.41-.41.41H30.5v1.81H33v.5h-3v-5h3v.5h-2.5ZM27 31a.97.97 0 0 1-.79-.4l-2.71-3.8V31H23v-5c.31 0 .6.15.8.4l2.7 3.8V26h.5v5ZM46.5 26c.28 0 .5.22.5.5h-1.25V31h-.5v-4.5h-.75a.5.5 0 0 1-.5-.5h2.5ZM41.3 29l1.15 2H43l-1.18-2.04c.7-.14 1.13-.8 1.13-1.5 0-.93-.69-1.46-1.57-1.46H40v5h.46v-4.58h.92c.75 0 1.1.37 1.1 1.03 0 .64-.37 1.14-1.1 1.14a.08.08 0 0 0-.07.08V29ZM52 26v4.46c0 .3-.24.54-.54.54v-2.34h-2.92V31H48v-5c.3 0 .54.24.54.54v1.7h2.92V26H52ZM10.5 30.5h2v.5H10v-5c.28 0 .5.22.5.5v4ZM21.37 31H22l-2.16-5h-.67L17 31h.63l1.87-4.36L21.37 31ZM38.37 31H39l-2.16-5h-.67L34 31h.63l1.87-4.36L38.37 31Z" fill="#087861"/><path d="M19.5 29c-.6 0-1.25.67-1.5 1 .6-.8 1.5-.78 1.88-.67-.6 0-.75.23-.75.34.37.33.75 0 1.12 0 .3 0 .63.22.75.33-.25-.33-.9-1-1.5-1ZM36.5 29c-.6 0-1.25.67-1.5 1 .6-.8 1.5-.78 1.88-.67-.6 0-.76.23-.76.34.38.33.76 0 1.13 0 .3 0 .63.22.75.33-.25-.33-.9-1-1.5-1Z" fill="#7EDAED"/></svg>