<!-- by TradingView --><svg width="56" height="56" viewBox="0 0 56 56" xmlns="http://www.w3.org/2000/svg"><path fill="#F0F3FA" d="M0 0h56v56H0z"/><path d="M45 28a17 17 0 1 1-34 0 17 17 0 0 1 34 0Zm-1.92.02a15.04 15.04 0 1 0-30.08 0 15.04 15.04 0 0 0 30.08 0Z" fill="#17ABA4"/><path d="M28 21a1.67 1.67 0 1 0 0-3.33 1.67 1.67 0 0 0 0 3.34ZM34.26 21.8c.77-.37 1.63.3 1.4 1.1-.2.73-1.91 1.45-2.58 1.7A13.58 13.58 0 0 1 21 23.68c-1.4-.8-.49-2.61 1-1.75A11.6 11.6 0 0 0 31.66 23c.87-.27 1.75-.78 2.61-1.2ZM25.57 28.77c1.47-2 4.78-1.32 5.42 1.27l1.99 8.08c.22.9-1.27 1.44-1.88.6-.08-.1-.16-.36-.26-.77-.6-2.44-1.2-4.89-1.83-7.33-.32-1.26-1.72-1.44-2.07-.09-.63 2.47-1.26 4.93-1.87 7.4-.13.5-.28.83-.45 1-.76.74-1.85-.13-1.58-1.22.56-2.13 1.1-4.27 1.62-6.4.31-1.3.62-2.14.9-2.54Z" fill="#17ABA4"/></svg>