<!-- by TradingView --><svg width="56" height="56" viewBox="0 0 56 56" xmlns="http://www.w3.org/2000/svg"><path fill="#F0F3FA" d="M0 0h56v56H0z"/><path d="M28 38c-6.2 0-12.03-.92-16.45-2.59a16.41 16.41 0 0 1-5.47-3.16C4.7 30.95 4 29.52 4 28s.7-2.95 2.08-4.25a16.41 16.41 0 0 1 5.47-3.16C15.97 18.92 21.81 18 28 18c6.2 0 12.03.92 16.45 2.59 2.35.89 4.2 1.95 5.47 3.16C51.3 25.05 52 26.48 52 28s-.7 2.95-2.08 4.25a16.38 16.38 0 0 1-5.47 3.16C40.03 37.08 34.19 38 28 38Z" fill="#231F20"/><path d="M28 37.15c-6.1 0-11.83-.9-16.16-2.54-4.51-1.7-7-4.05-7-6.61 0-2.56 2.49-4.9 7-6.61 4.33-1.64 10.07-2.54 16.16-2.54 6.1 0 11.83.9 16.16 2.54 4.51 1.7 7 4.05 7 6.61 0 2.56-2.49 4.91-7 6.61-4.33 1.64-10.07 2.54-16.16 2.54Z" fill="#fff"/><path d="M50.55 28c0-4.71-10.1-8.53-22.55-8.53-12.46 0-22.55 3.82-22.55 8.53 0 4.71 10.1 8.53 22.55 8.53 12.45 0 22.55-3.82 22.55-8.53Z" fill="#D00"/><path d="M28 36.66c-6.04 0-11.72-.9-16-2.5-4.3-1.64-6.68-3.82-6.68-6.16 0-2.34 2.38-4.52 6.69-6.15 4.27-1.62 9.95-2.5 15.99-2.5 6.04 0 11.72.88 15.99 2.5 4.31 1.63 6.69 3.81 6.69 6.15 0 2.34-2.38 4.52-6.69 6.15-4.27 1.62-9.95 2.5-16 2.5Zm0-17.06c-6 0-11.65.88-15.9 2.49a15.55 15.55 0 0 0-4.8 2.69c-1.12 1-1.73 2.1-1.73 3.22 0 1.11.59 2.2 1.73 3.22a15.22 15.22 0 0 0 4.8 2.69C16.35 35.52 22 36.4 28 36.4s11.65-.88 15.9-2.49a15.39 15.39 0 0 0 4.8-2.69c1.12-1 1.72-2.1 1.72-3.22 0-1.11-.58-2.2-1.72-3.22a15.2 15.2 0 0 0-4.8-2.69C39.65 20.48 34 19.6 28 19.6Z" fill="#231F20"/><path d="m19.4 28.52-.74 1.17c-.46.1-.9.17-1.3.22a9.66 9.66 0 0 1-2.76-.06c-.5-.1-.99-.23-1.46-.42a4.07 4.07 0 0 1-1.72-1.18 2.56 2.56 0 0 1-.61-1.67c0-.47.16-.93.44-1.32.34-.46.77-.85 1.27-1.14.53-.31 1.1-.54 1.7-.68a8.57 8.57 0 0 1 3.14-.17c.37.04.78.1 1.3.19v1.04a14.8 14.8 0 0 0-1.34-.35c-.38-.07-.77-.1-1.16-.1-1.1 0-1.98.21-2.64.66-.66.45-.99 1.04-.99 1.78a2.32 2.32 0 0 0 1.03 1.96c.68.5 1.58.74 2.7.74.49 0 .98-.05 1.46-.16.57-.13 1.13-.3 1.67-.5M24.36 29.95c-1.48 0-2.71-.31-3.68-.94-.97-.63-1.46-1.43-1.46-2.42 0-.97.5-1.77 1.48-2.4a6.9 6.9 0 0 1 3.75-.92c1.49 0 2.72.31 3.69.94.97.63 1.46 1.44 1.46 2.43 0 .97-.5 1.76-1.49 2.38-1 .62-2.24.94-3.76.93m.24-.8c1.06 0 1.9-.22 2.5-.64a2.01 2.01 0 0 0 .93-1.75 2.34 2.34 0 0 0-1.03-1.99 4.46 4.46 0 0 0-2.69-.74c-1.06 0-1.9.21-2.52.63a2 2 0 0 0-.93 1.75 2.34 2.34 0 0 0 1.03 1.99c.69.5 1.6.75 2.71.75M37.49 29.9l-.74.05h-.29c-.3.02-.62-.02-.92-.13-.32-.12-.54-.36-.76-.58l-2.49-2.71c.84-.13 1.46-.3 1.85-.54.4-.22.59-.51.59-.87 0-.33-.17-.6-.5-.81-.4-.23-.86-.34-1.32-.32a5.66 5.66 0 0 0-1.04.09v4.7c-.01.25.03.5.13.73.1.18.25.33.43.43h-2.6c.18-.1.32-.25.43-.43.1-.23.14-.48.13-.73v-4.26a1.6 1.6 0 0 0-.13-.74c-.1-.18-.25-.32-.43-.42h3.3c.93 0 1.7.15 2.27.47.58.31.86.71.87 1.2 0 .37-.18.69-.52.96-.35.28-1.02.56-1.75.77l1.95 2.07c.43.44 1.3 1.02 1.55 1.08M38.07 29.95c.18-.1.33-.25.45-.43.1-.23.15-.48.13-.73v-4.27c.02-.26-.03-.5-.13-.74a1.2 1.2 0 0 0-.45-.42h5.41v1.03a2.94 2.94 0 0 0-.8-.27 5.3 5.3 0 0 0-1.65-.06c-.24.02-.52.05-.82.1v1.86h2.42v.96c-.14-.1-.3-.16-.46-.19a6.9 6.9 0 0 0-1.07-.05h-.9v2.36a27.08 27.08 0 0 0 1.82.11 7.1 7.1 0 0 0 2.73-.55l-.68 1.3h-6Z" fill="#231F20"/><path d="m19.4 28.33-.74 1.16c-.46.1-.9.17-1.3.22a9.63 9.63 0 0 1-2.76-.06c-.5-.1-.99-.23-1.46-.42a4.07 4.07 0 0 1-1.72-1.18 2.56 2.56 0 0 1-.61-1.66c0-.48.16-.94.44-1.33.34-.46.77-.85 1.27-1.14a6.1 6.1 0 0 1 1.7-.69 8.57 8.57 0 0 1 3.13-.17c.38.04.79.1 1.3.2v1.03a14.8 14.8 0 0 0-1.33-.34 6.3 6.3 0 0 0-1.16-.11c-1.1 0-1.98.22-2.64.67-.66.44-.99 1.04-1 1.77a2.32 2.32 0 0 0 1.04 1.97c.68.5 1.58.74 2.7.74.49 0 .98-.06 1.45-.16.57-.13 1.14-.3 1.68-.5M24.36 29.69c-1.48 0-2.71-.32-3.68-.94-.97-.63-1.46-1.44-1.46-2.42s.5-1.78 1.48-2.4a6.9 6.9 0 0 1 3.75-.93c1.49 0 2.72.32 3.69.95.97.63 1.46 1.44 1.46 2.42 0 .97-.5 1.76-1.49 2.39-1 .62-2.24.93-3.76.93m.24-.81c1.06 0 1.9-.21 2.5-.64a2.01 2.01 0 0 0 .93-1.74 2.34 2.34 0 0 0-1.03-2 4.47 4.47 0 0 0-2.69-.74c-1.06 0-1.9.21-2.52.64a2 2 0 0 0-.93 1.74 2.34 2.34 0 0 0 1.03 2c.69.49 1.6.74 2.71.74M37.49 29.42l-.74.04h-.29a2.3 2.3 0 0 1-.92-.12c-.32-.12-.54-.36-.76-.58l-2.49-2.65a5.6 5.6 0 0 0 1.85-.53c.4-.22.59-.5.59-.85 0-.33-.17-.6-.5-.8-.4-.22-.86-.33-1.32-.3l-.45.01-.46.07v4.6c-.03.47.01.91.43 1.15h-2.6c.18-.1.32-.25.43-.42.1-.23.14-.48.13-.73v-4.17c.02-.25-.03-.5-.13-.73-.1-.17-.25-.31-.43-.41h3.3c.93 0 1.7.15 2.27.46.58.3.86.7.87 1.19 0 .35-.18.66-.52.93-.35.27-1.02.55-1.75.75l1.95 2.03c.43.43 1.3 1 1.55 1.06M37.84 29.48c.18-.1.33-.25.45-.43.1-.22.15-.47.13-.72v-4.18c.02-.25-.03-.5-.13-.72a1.2 1.2 0 0 0-.45-.42h5.41v1.02a2.93 2.93 0 0 0-.8-.27 5.4 5.4 0 0 0-1.65-.06l-.8.1v1.82h2.4v.94a1.1 1.1 0 0 0-.46-.19 7.09 7.09 0 0 0-1.07-.05H40v2.32a26.77 26.77 0 0 0 1.79.1 7.24 7.24 0 0 0 2.73-.53l-.68 1.27h-6ZM13.44 33l.17-2h-.47l-.65 1-.5-1h-.47l-.17 2h.5l.08-1.1.32.64h.37l.45-.65-.08 1.11h.45ZM14.02 31.2c.2-.13.42-.2.64-.2.24-.02.48.07.66.26.06.05.1.13.1.2v.17l-.03.36-.03.37-.03.15a.6.6 0 0 1-.22.3c-.2.13-.42.2-.64.19a.86.86 0 0 1-.6-.2.44.44 0 0 1-.1-.13.52.52 0 0 1-.05-.17v-.16l.06-.69.03-.16a.59.59 0 0 1 .21-.29Zm.24 1.36c.07.06.16.1.25.08.1 0 .2-.02.27-.1a.5.5 0 0 0 .12-.27l.03-.26.03-.23.01-.16a.26.26 0 0 0-.06-.16.33.33 0 0 0-.26-.1c-.1 0-.2.03-.27.1a.36.36 0 0 0-.1.2l-.04.34-.04.27a.44.44 0 0 0 .06.29ZM33.53 31.2c.2-.13.41-.2.64-.2.23-.02.47.07.66.26.05.05.09.13.1.2v.17l-.03.36-.04.37-.03.15a.61.61 0 0 1-.21.3c-.2.13-.42.2-.65.19a.86.86 0 0 1-.6-.2.44.44 0 0 1-.1-.13.52.52 0 0 1-.05-.17v-.16l.06-.69c0-.05.02-.1.04-.16a.58.58 0 0 1 .2-.29Zm.24 1.36c.07.06.16.1.25.08.1 0 .2-.02.27-.1a.5.5 0 0 0 .12-.27l.03-.26.03-.23.01-.16a.26.26 0 0 0-.06-.16.33.33 0 0 0-.26-.1c-.1 0-.2.03-.27.1a.35.35 0 0 0-.1.2 7.47 7.47 0 0 0-.07.76c0 .05.03.1.05.14ZM36.88 31.2a1 1 0 0 1 .64-.2c.24-.02.47.07.66.26.06.05.1.13.1.2v.17l-.03.36-.03.37-.03.15a.6.6 0 0 1-.22.3c-.2.13-.42.2-.64.19a.86.86 0 0 1-.6-.2.44.44 0 0 1-.1-.13.52.52 0 0 1-.05-.17v-.16l.06-.69a1 1 0 0 1 .03-.16.58.58 0 0 1 .21-.29Zm.25 1.36c.07.06.16.1.24.08.1 0 .2-.02.28-.1a.49.49 0 0 0 .12-.28l.03-.25.03-.23v-.16a.27.27 0 0 0-.05-.16.33.33 0 0 0-.27-.1c-.1 0-.19.03-.27.1a.37.37 0 0 0-.1.2 10.79 10.79 0 0 0-.07.76c.01.05.03.1.06.14ZM15.53 33h1.5l.04-.37h-1L16.2 31h-.5l-.17 2ZM35.04 33h1.5l.04-.37h-1l.14-1.63h-.52l-.16 2ZM17.97 33h-.8l.18-2h.8c.21-.01.41.03.6.15.05.04.09.1.12.17a.6.6 0 0 1 .05.23 3.81 3.81 0 0 1-.08.9.69.69 0 0 1-.25.4c-.2.11-.4.16-.62.15Zm-.32-.37h.32c.1 0 .2-.03.29-.1.05-.03.08-.09.1-.15a3.39 3.39 0 0 0 .1-.76.27.27 0 0 0-.07-.16.36.36 0 0 0-.28-.09h-.3l-.16 1.26ZM19.02 33h.47l.16-2h-.46l-.17 2ZM40.23 33h.46l.16-2h-.46l-.16 2ZM21.1 33h.41l.18-2h-.47l-.1 1.13-.79-1.13h-.39l-.18 2h.47l.09-1.16.79 1.16ZM32.5 33h.4l.18-2h-.47l-.1 1.13-.79-1.13h-.39l-.18 2h.47l.1-1.16.78 1.16ZM22.79 31a1.1 1.1 0 0 0-.68.19c-.1.07-.19.18-.23.32a1.3 1.3 0 0 0-.04.2l-.06.62v.18c0 .06.03.12.06.17.02.05.06.09.1.12.2.15.42.21.65.2.21 0 .43-.05.62-.16a.5.5 0 0 0 .18-.18.63.63 0 0 0 .08-.26l.05-.55h-.82l-.03.3h.36l-.02.28c0 .04-.02.08-.04.11a.19.19 0 0 1-.1.07.87.87 0 0 1-.24.04.46.46 0 0 1-.3-.08.52.52 0 0 1-.06-.29l.03-.28c.03-.4.08-.5.11-.54.1-.07.21-.11.32-.1.08-.02.15 0 .2.06.04.03.06.07.07.22h.5c.01-.1 0-.18-.04-.27a.46.46 0 0 0-.15-.22.81.81 0 0 0-.53-.15M39.38 31a1.1 1.1 0 0 0-.68.19c-.1.07-.19.18-.23.32a1.3 1.3 0 0 0-.04.2l-.06.62v.18c.01.06.03.12.06.17.02.05.06.09.1.12.2.15.42.21.65.2.22 0 .43-.05.62-.16a.5.5 0 0 0 .18-.18.63.63 0 0 0 .08-.26l.05-.54h-.83l-.02.3h.36l-.02.28c0 .05-.06.11-.13.14a.73.73 0 0 1-.25.07.46.46 0 0 1-.3-.08.52.52 0 0 1-.06-.29l.02-.28c.04-.4.1-.5.12-.54.1-.07.21-.11.32-.1.08-.01.15 0 .2.06.04.03.06.07.07.22h.52c0-.09 0-.18-.04-.27a.46.46 0 0 0-.16-.22.8.8 0 0 0-.52-.15M24.6 33h.48l.13-1.63h.57l.02-.37h-1.6l-.04.37h.56L24.6 33ZM25.79 33h1.5l.03-.37H26.3l.04-.52h.88l.03-.34h-.89l.04-.4h1.02l.03-.37h-1.49l-.16 2ZM40.98 33h1.5l.03-.37h-1.04l.05-.52h.88l.03-.34h-.88l.03-.4h1.02l.03-.37h-1.5l-.15 2ZM28.01 32.54c-.06-.07-.07-.19-.03-.54.03-.36.08-.47.12-.5a.37.37 0 0 1 .26-.14c.1 0 .2.03.27.1a.2.2 0 0 1 .03.06l.02.1h.51c0-.1-.01-.22-.04-.32a.4.4 0 0 0-.15-.17.92.92 0 0 0-.51-.13c-.24 0-.48.07-.68.21a.62.62 0 0 0-.23.33l-.04.18-.05.6a.9.9 0 0 0 0 .17c0 .07.02.13.05.19l.11.14c.07.05.14.1.21.12.14.05.28.07.42.06.2 0 .4-.05.59-.15a.43.43 0 0 0 .16-.14c.06-.11.1-.24.12-.37h-.5a.41.41 0 0 1-.13.2c-.15.1-.37.16-.5 0M30.9 33l.18-2h-.46l-.06.78h-.74l.06-.78h-.45l-.18 2h.45l.08-.85h.74l-.08.85h.46ZM43.12 32.09c.14.06.77.04.77.32 0 .18-.29.23-.44.23a1.07 1.07 0 0 1-.53-.18l-.3.27c.26.15.53.25.82.27.3 0 .9-.14.9-.65 0-.7-1.1-.38-1.1-.73 0-.16.15-.28.4-.28.15 0 .3.05.42.15l.28-.27c-.14-.18-.61-.22-.74-.22-.19 0-.37.06-.54.16a.42.42 0 0 0-.18.15.53.53 0 0 0-.08.25c0 .11.02.23.08.33s.14.17.24.2" fill="#fff"/></svg>