<!-- by TradingView --><svg width="56" height="56" viewBox="0 0 56 56" xmlns="http://www.w3.org/2000/svg"><path fill="#F0F3FA" d="M0 0h56v56H0z"/><path d="M31.45 40.33c-2.95-.65-9.72-3.16-13.18-8-3.94-5.51-4.65-8.51-3.44-13.41a16 16 0 0 0 18.3 24.24l-1.68-2.83Z" fill="url(#ax2wxo0qm)"/><path d="M40.33 24.54c-.65 2.95-3.16 9.72-8 13.18-5.51 3.94-8.51 4.65-13.41 3.44a16 16 0 0 0 24.24-18.3l-2.83 1.68Z" fill="url(#bx2wxo0qm)"/><path d="M24.54 15.67c2.95.65 9.72 3.16 13.18 8 3.94 5.51 4.65 8.51 3.44 13.41a16 16 0 0 0-18.3-24.24l1.68 2.83Z" fill="url(#cx2wxo0qm)"/><path d="M16.29 29.3c1.12-3.36 3.5-8.26 7.38-11.03 5.51-3.94 8.51-4.65 13.41-3.44A16 16 0 0 0 12 28V28c0-3.37 1.05-6.5 2.83-9.08-.97 3.92-.7 6.62 1.46 10.37Z" fill="url(#dx2wxo0qm)"/><defs><linearGradient id="ax2wxo0qm" x1="13.08" y1="21.74" x2="31.02" y2="42.05" gradientUnits="userSpaceOnUse"><stop stop-color="#37719E"/><stop offset="1" stop-color="#171C24"/></linearGradient><linearGradient id="bx2wxo0qm" x1="21.74" y1="42.85" x2="42.06" y2="24.91" gradientUnits="userSpaceOnUse"><stop stop-color="#37719E"/><stop offset="1" stop-color="#171C24"/></linearGradient><linearGradient id="cx2wxo0qm" x1="42.85" y1="34.26" x2="24.91" y2="13.95" gradientUnits="userSpaceOnUse"><stop stop-color="#37719E"/><stop offset="1" stop-color="#171C24"/></linearGradient><linearGradient id="dx2wxo0qm" x1="34.26" y1="13.08" x2="13.94" y2="31.06" gradientUnits="userSpaceOnUse"><stop stop-color="#37719E"/><stop offset="1" stop-color="#171C24"/></linearGradient></defs></svg>