<!-- by TradingView --><svg width="56" height="56" viewBox="0 0 56 56" xmlns="http://www.w3.org/2000/svg"><path fill="#F0F3FA" d="M0 0h56v56H0z"/><path d="m33.42 20 9.16-4.63c.32-.44.76-1.71 0-3.37l-8.2 3.74c-.75.47-2.06 1.79-.96 4.26Zm0 8 9.16-4.63c.32-.44.76-1.71 0-3.37l-8.2 3.74c-.75.47-2.06 1.79-.96 4.26ZM21 37.71a8.5 8.5 0 0 0 13-7.5l3.8-1.93a12.5 12.5 0 1 1-7.86-9.47l-7.17 3.64A8.5 8.5 0 0 0 21 37.7V28c.02-.57.33-1.85 1.36-2.42 1.04-.57 6.19-3 8.64-4.14v2.33a3.16 3.16 0 0 1-2.03 2.48c-1.57.65-3.97 1.63-3.97 4.4v1.97l6-3.2v2.17c.04.5-.21 1.68-1.57 2.45-1.35.78-6.18 2.78-8.43 3.68Z" fill="#B72B38"/></svg>