<!-- by TradingView --><svg width="56" height="56" viewBox="0 0 56 56" xmlns="http://www.w3.org/2000/svg"><path fill="#FDE700" d="M0 0h56v56H0z"/><path d="M15 25h-1c0-1 .9-2 2-2 .88 0 1 .81 1 1.22v8.56c0 .4-.12 1.22-1 1.22s-1-.81-1-1.22V25ZM31 28.17c0-.65.45-1.17 1-1.17s1 .52 1 1.17v4.66c0 .65-.45 1.17-1 1.17s-1-.52-1-1.17v-4.66Z" fill="#00B4EE"/><path d="M33 30.5a3.5 3.5 0 1 1-7 0 3.5 3.5 0 0 1 7 0ZM29.5 32a1.5 1.5 0 1 0 0-3 1.5 1.5 0 0 0 0 3ZM19 24a1 1 0 0 1 1-1h5a1 1 0 1 1 0 2h-1.5v8a1 1 0 1 1-2 0v-8H20a1 1 0 0 1-1-1ZM36 23a1 1 0 0 1 1 1v6.5c0 .3.08.74.27 1.06.16.28.36.44.73.44a1 1 0 1 1 0 2 2.76 2.76 0 0 1-2.47-1.44A4.3 4.3 0 0 1 35 30.5V24a1 1 0 0 1 1-1ZM7.93 23.6c.16-.36.53-.6.94-.6h3.1c.57 0 1.03.45 1.03 1s-.46 1-1.03 1H9.55l-.53 1.21C11.35 26.18 13 27.71 13 30c0 2.03-1.36 4-3.6 4-2.63 0-4.1-1.77-4.37-2.79A1 1 0 0 1 5.78 30c.55-.13 1.11.2 1.25.73.08.3.86 1.27 2.36 1.27 1.09 0 1.61-1.08 1.61-2 0-1.85-1.78-2.06-3.35-1.55-.38.12-.8.02-1.08-.27a.98.98 0 0 1-.19-1.07l1.55-3.5ZM48 29.5c0-.28.22-.5.5-.5h2a.5.5 0 1 1 0 1h-2a.5.5 0 0 1-.5-.5ZM50.45 26.78a.5.5 0 0 1-.23.67l-2 1a.5.5 0 0 1-.44-.9l2-1a.5.5 0 0 1 .67.23Zm-2.9 4a.5.5 0 0 1 .67-.23l2 1a.5.5 0 1 1-.44.9l-2-1a.5.5 0 0 1-.23-.67ZM41 23a1 1 0 0 1 1 1v4h.98c.01 0 .09-.02.19-.14.12-.15.33-.52.33-1.36a1 1 0 1 1 2 0 4.02 4.02 0 0 1-.93 2.8c.51.83.93 2.07.93 3.7a1 1 0 1 1-2 0c0-1.71-.57-2.64-.88-3H42v3a1 1 0 1 1-2 0v-9a1 1 0 0 1 1-1Z" fill="#00B4EE"/></svg>