<!-- by TradingView --><svg xmlns="http://www.w3.org/2000/svg" width="56" height="56" viewBox="0 0 56 56"><path fill="#F0F3FA" d="M0 0h56v56H0z"/><path d="M16 14a3 3 0 0 0-3 3v22a3 3 0 0 0 3 3h24a3 3 0 0 0 3-3V17a3 3 0 0 0-3-3H16Zm22 6H21.94c-.46 0-.94.54-.94 1.01v9.8c0 .48.25 1.19.94 1.19H30c.64 0 1-.52 1-1v-1c0-.58-.42-1-1-1h-4.4a2.6 2.6 0 0 1-2.6-2.53v-1.94A2.6 2.6 0 0 1 25.6 22h11.13C38.1 22 39 23.05 39 24.46V36.3c0 1.4-.89 2.69-2.26 2.69H20.62C19.27 39 18 37.98 18 36.58V36h16.19c.45 0 .81-.4.81-.88V24.84a.82.82 0 0 0-.81-.84H26c-.46 0-1 .4-1 1v1c0 .6.54 1 1 1h4.45C32 27 33 28.1 33 29.5v1.94c0 1.4-1.18 2.56-2.55 2.56H19.5C18.12 34 17 32.72 17 31.31V19.65c0-1.41 1.12-2.65 2.5-2.65H35.8c1.14 0 2.19.81 2.19 1.98V20Z" fill="url(#ajypu2xxd)"/><defs><linearGradient id="ajypu2xxd" x1="28.08" y1="14.92" x2="28.08" y2="45.66" gradientUnits="userSpaceOnUse"><stop stop-color="#4EC1E0"/><stop offset=".78" stop-color="#124DA9"/></linearGradient></defs></svg>