<!-- by TradingView --><svg width="56" height="56" viewBox="0 0 56 56" fill="none" xmlns="http://www.w3.org/2000/svg">
<rect width="56" height="56" fill="#F0F3FA"/>
<path fill-rule="evenodd" clip-rule="evenodd" d="M14.1707 15.3494L23.6098 10C23.8781 10.7952 25.0878 12.3855 27.7805 12.3855C30.4732 12.3855 31.8293 10.7952 32.1707 10L41.4634 15.3494C40.5366 16.3133 39.122 18.7904 40.878 20.9879C42.6341 23.1855 45.0244 23.3976 46 23.2289V33.7108C44.6341 33.5904 41.6976 33.8699 40.878 35.9518C40.0585 38.0337 40.9268 40 41.4634 40.7229L32.1707 46C32.0976 44.9879 31.1171 42.9639 27.7805 42.9639C24.4439 42.9639 23.6098 44.9879 23.6098 46L14.1707 40.7229C15 39.8795 16.4537 37.7446 15.6341 35.9518C14.6098 33.7108 12.4146 33.7108 10 33.7108V23.2289C10.9024 23.0843 13 22.4337 14.1707 20.9879C15.6341 19.1807 14.6829 15.7831 14.1707 15.3494ZM17.2218 18.134C16.7653 17.3494 17.0362 16.3463 17.8269 15.8933L22.4934 13.2201C23.2841 12.7671 24.2952 13.0359 24.7517 13.8204L24.7782 13.8661C25.2347 14.6506 24.9638 15.6538 24.1731 16.1067L19.5066 18.78C18.7159 19.2329 17.7048 18.9641 17.2483 18.1796L17.2218 18.134ZM38.7782 18.134C39.2347 17.3494 38.9638 16.3463 38.1731 15.8933L33.5066 13.2201C32.7159 12.7671 31.7048 13.0359 31.2483 13.8204L31.2218 13.8661C30.7653 14.6506 31.0362 15.6538 31.8269 16.1067L36.4934 18.78C37.2841 19.2329 38.2952 18.9641 38.7517 18.1796L38.7782 18.134ZM17.8269 40.1067C17.0362 39.6538 16.7653 38.6506 17.2218 37.8661L17.2483 37.8204C17.7048 37.0359 18.7159 36.7671 19.5066 37.2201L24.1731 39.8933C24.9638 40.3463 25.2347 41.3494 24.7782 42.134L24.7517 42.1796C24.2952 42.9641 23.2841 43.2329 22.4934 42.78L17.8269 40.1067ZM38.7782 37.8661C39.2347 38.6506 38.9638 39.6538 38.1731 40.1067L33.5066 42.78C32.7159 43.2329 31.7048 42.9641 31.2483 42.1796L31.2218 42.134C30.7653 41.3494 31.0362 40.3463 31.8269 39.8933L36.4934 37.2201C37.2841 36.7671 38.2952 37.0359 38.7517 37.8204L38.7782 37.8661Z" fill="#273857"/>
<circle cx="28" cy="28" r="8" fill="#BACC59"/>
</svg>
