<!-- by TradingView --><svg xmlns="http://www.w3.org/2000/svg" width="56" height="56" viewBox="0 0 56 56"><path fill="#F0F3FA" d="M0 0h56v56H0z"/><path d="M28 8c-.16 2.4-.67 5.57-1.2 7 1.07 3.73 7.02 10.22 10.04 12.86a29.78 29.78 0 0 0-6.2 6.1l-1.97-2.71a16.15 16.15 0 0 1 5.68-4.12l-2.37-1.99-6.9 6.88c2.1 1.78 4.33 5.67 5.19 7.39C32.82 32.63 39.32 29.02 42 28c-1.05-.38-4.6-2.45-8.38-7.21-3.8-4.76-5.4-10.5-5.62-12.79zm0 40c.16-2.4.67-5.57 1.2-7-1.07-3.73-7.02-10.22-10.04-12.86a29.78 29.78 0 0 0 6.2-6.1l1.97 2.71a16.15 16.15 0 0 1-5.68 4.12l2.37 1.99 6.9-6.88c-2.1-1.78-4.33-5.67-5.19-7.39C23.18 23.37 16.68 26.98 14 28c1.05.38 4.6 2.45 8.38 7.21 3.8 4.76 5.4 10.5 5.62 12.79zm-9-33h6.07l1.05-2H17v12.33c.64-.44 1.35-.94 2-1.44V15zm18 0h-5.85c-.28-.57-.6-1.36-.83-2H39v12.05a31.42 31.42 0 0 1-2-1.76V15zM19 41h5.8l.95 2H17V31.34l2 1.54V41zm12 0c-.34.66-.69 1.4-.96 2H39V30.5c-.6.39-1.29.87-2 1.45V41h-6z" fill="#5C6564"/></svg>