<!-- by TradingView --><svg width="56" height="56" viewBox="0 0 56 56" xmlns="http://www.w3.org/2000/svg"><path fill="#F0F3FA" d="M0 0h56v56H0z"/><path d="M43 15H13v7.75c5.53-4.85 22.19-5.97 29.95-5.84v.69c-13.96-.42-22.6 3.32-25.3 5.24L17 25.96c5.13-4.88 18.04-5.68 25.99-5.6V15Zm0 6.05c-13.46-.28-18.7 3.36-21.36 5.25L21 29.5V26h-4v.02V26h-.03l.03-.03V23h-4v18h30v-8.56c-7.52.34-10.67 3.61-12.33 5.35l-.03.03L30 41v-3h-2.54c3.07-4.35 9.9-6.15 15.54-6.3v-3.26c-8.98.03-12.78 3.66-14.77 5.57l-.24.22-.45 3.18V34H24.5c3.6-4.65 12.5-6.12 18.51-6.22v-3.26c-10.84-.33-15.29 3.55-17.57 5.54l-.26.23-.49 3.18V30h-3.34c4.24-5 15.15-6.26 21.66-6.17v-2.78Z" fill="#002D62"/></svg>