<!-- by TradingView --><svg width="56" height="56" viewBox="0 0 56 56" xmlns="http://www.w3.org/2000/svg"><path fill="#F0F3FA" d="M0 0h56v56H0z"/><path d="M5 32v-8h2v8H5ZM8 32v-8h2l4.52 5.7H14V24h2v8h-2l-4.4-5.7.4-.3v6H8ZM17 32v-8h2l4.3 5.7-.3.09V24h2v8h-2l-4.6-5.7.6-.09V32h-2ZM30 32c-.6 0-.98-.1-1.5-.3A3.95 3.95 0 0 1 26 28a3.87 3.87 0 0 1 2.51-3.7c.51-.2.9-.3 1.49-.3.6 0 .99.1 1.49.3A3.9 3.9 0 0 1 34 28a3.86 3.86 0 0 1-2.51 3.7c-.5.2-.9.3-1.49.3Zm0-2c1.13 0 2-.64 2-2 0-1.22-.69-2-2-2-1.32 0-2 .78-2 2 0 1.1.76 2 2 2Z" fill="#231D1B"/><path d="M46 29.5V25l-2 1v1.79c0 1.02 1.33 1.57 2 1.71Z" fill="url(#ax3n1sk4f)"/><path d="M42 32v-2h6c.55-.13 1-.4 1-2s-.34-2-1-2h-3c-.5 0-1 1-1 1v-1.4c0-1.28.73-1.6 1.27-1.6h2.46c1.81 0 3.27 1.2 3.27 2.4v2.8c0 2.26-2.32 2.8-3.27 2.8H42Z" fill="url(#bx3n1sk4f)"/><path d="M42 32v-2h6c.55-.13 1-.4 1-2s-.34-2-1-2h-3c-.5 0-1 1-1 1v-1.4c0-1.28.73-1.6 1.27-1.6h2.46c1.81 0 3.27 1.2 3.27 2.4v2.8c0 2.26-2.32 2.8-3.27 2.8H42Z" fill="url(#cx3n1sk4f)" fill-opacity=".2"/><path d="M43 24.48c0-.83-2-.42-2 0v6.27c0 1 .67 1.25 1 1.25h2c-.8 0-1-1.11-1-1.67v-5.85Z" fill="url(#dx3n1sk4f)"/><path d="M40 31c-.37.72-1.22 1-1.5 1l-.5-1.6 2.5-5.6c.14-.27.83-.8 1.5-.8s1 .1 1 .5c-.42 0-.83 1.1-.83 1.1-.84 1.73-1.84 4.76-2.17 5.4Z" fill="url(#ex3n1sk4f)"/><path d="M37.43 31.23 34 24.25c1.03-.62 2.26 0 2.57.78.86 1.37 2.09 4.35 2.43 4.97.34.62.71.87 1 1-.14.26-.6 1-1.29 1-.71 0-1.14-.52-1.28-.77Z" fill="url(#fx3n1sk4f)"/><defs><linearGradient id="ax3n1sk4f" x1="45" y1="23.5" x2="45" y2="29.5" gradientUnits="userSpaceOnUse"><stop offset=".4" stop-color="#0068A7"/><stop offset=".67" stop-color="#69B6DA"/><stop offset="1" stop-color="#149ED9"/></linearGradient><linearGradient id="bx3n1sk4f" x1="43.64" y1="25.2" x2="51.41" y2="25.62" gradientUnits="userSpaceOnUse"><stop stop-color="#2BA9E1"/><stop offset="1" stop-color="#1669B3"/></linearGradient><linearGradient id="cx3n1sk4f" x1="42.41" y1="32" x2="49.77" y2="32" gradientUnits="userSpaceOnUse"><stop stop-color="#056DB6"/><stop offset=".44" stop-color="#0B8ACB"/><stop offset="1" stop-color="#056DB6"/></linearGradient><linearGradient id="dx3n1sk4f" x1="42.5" y1="23.65" x2="42.5" y2="32" gradientUnits="userSpaceOnUse"><stop stop-color="#76AD43"/><stop offset="1" stop-color="#688B3B"/></linearGradient><linearGradient id="ex3n1sk4f" x1="42.17" y1="24.4" x2="39.05" y2="30.9" gradientUnits="userSpaceOnUse"><stop stop-color="#FED900"/><stop offset="1" stop-color="#B95027"/></linearGradient><linearGradient id="fx3n1sk4f" x1="34.43" y1="24" x2="38.66" y2="32.25" gradientUnits="userSpaceOnUse"><stop stop-color="#E58A24"/><stop offset="1" stop-color="#D44229"/></linearGradient></defs></svg>