<!-- by TradingView --><svg xmlns="http://www.w3.org/2000/svg" width="56" height="56" viewBox="0 0 56 56"><path fill="#FFB701" d="M0 0h56v56H0z"/><path d="M28 45c4.52 0 8.62-1.76 11.67-4.63l-2.96-2.71a13 13 0 1 1-.12-19.42l2.7-2.95A17 17 0 1 0 28 45zM18 23.8c.18-.17 1.46-.55 5.16-.64a3.72 3.72 0 0 1 3.11-1.6c1.85.07 2.76 1.46 3.1 2l.1.12-.27.2.71.77c.07.07.3.19.7 0a7.43 7.43 0 0 1 3.28-1.07c.32-.01 1.12.08 1.85.55 1.87-.7 6.14-1.69 8.26-.12-.36.28-1.34 1.02-2.4 1.64-.26.09-.92.34-1.48.7-.56.35-3.96 2.03-5.59 2.82-.12.06-.28.3.06.74l.21.28c.63.87 2.15 2.96 3.49 3.83l2.7 2.24c-.13.06-.66-.02-1.72-.71-.04.06-.03.24.32.51-.04.03-.32-.02-1.07-.51-.92-.6-1.35-.71-2.98-.94-1.3-.18-2.49-.6-2.92-.78-.73.03-2.44-.06-3.44-.65-1.25-.73-2.68-2.64-3.6-5.19l-1.83-3.45c-.3-.48-.66-.69-1.48-.73a39.8 39.8 0 0 0-4.27 0z" fill="#fff"/></svg>