<!-- by TradingView --><svg width="56" height="56" viewBox="0 0 56 56" xmlns="http://www.w3.org/2000/svg"><path fill="#F0F3FA" d="M0 0h56v56H0z"/><path d="M11.55 18H43l-3.4 4H12.52c-.41 0-.53.33-.53.76v10.59c0 .42.12.65.53.65h15.6l-3.45 4H11.55C9.48 38 8 36.26 8 34.12V21.88C8 19.74 9.48 18 11.55 18Z" fill="#969699"/><path d="M44.5 38H28.03l3.4-4h11.8c.4 0 .77-.34.77-.77v-4.54c0-.43-.36-.69-.78-.69H27v-4.13l4-1.44V24h13.5c1.93 0 3.5 1.91 3.5 3.91v6.47c0 2-1.57 3.62-3.5 3.62Z" fill="#969699"/><path d="M31 22.78V22h-4v1.95l4-1.17Z" fill="#5C5F5F"/></svg>