<!-- by TradingView --><svg width="56" height="56" viewBox="0 0 56 56" xmlns="http://www.w3.org/2000/svg"><path fill="#F0F3FA" d="M0 0h56v56H0z"/><path d="M27.74 13.05a.84.84 0 0 0-.56.8c0 .28.1.48.34.71a.9.9 0 0 1 .3.47c.08.26.09.35.09 1.02 0 .59-.02.8-.08 1-.07.27-.2.52-.34.64a.83.83 0 0 0-.25.6c0 .45.33.8.82.84.17.02.24 0 .42-.09.3-.15.44-.37.46-.67.03-.3-.04-.47-.29-.75-.34-.38-.47-.93-.43-1.76.03-.68.18-1.15.44-1.38a.85.85 0 0 0 .25-.6.9.9 0 0 0-1.17-.83Zm-5.4.67c-.2.08-.28.16-.38.39a.66.66 0 0 0 0 .66c.3.6 1.17.6 1.44 0 .19-.4-.02-.92-.4-1.07-.16-.06-.5-.05-.66.02Zm10.65 0c-.49.26-.6.87-.25 1.25.26.27.73.32 1.05.12a.84.84 0 0 0 .35-.71.87.87 0 0 0-.42-.63.92.92 0 0 0-.73-.03ZM14.82 16.3a.77.77 0 0 0-.23 1.2c.26.3.61.37.96.2a.72.72 0 0 0 .44-.66c0-.2 0-.27-.08-.41a.8.8 0 0 0-1.09-.33Zm25.64 0c-.3.13-.42.33-.42.7 0 .23.01.3.1.43.21.31.7.45 1.01.29.53-.27.64-.91.22-1.3a.78.78 0 0 0-.9-.13Zm-20.75.96c-.39.13-.64.34-.84.73-.08.15-.1.23-.1.54 0 .45.09.66.38.94.38.37.77.46 1.36.3.44-.1.8-.05 1.5.23.78.32 1.54.79 2.04 1.28.37.35.47.52.55.92a1.3 1.3 0 0 0 1.84 1c.3-.14.52-.35.65-.61.1-.2.1-.27.1-.6 0-.3 0-.4-.09-.56a1.34 1.34 0 0 0-1.53-.7c-.59.15-1.23.02-2.1-.4-.77-.39-1.55-1-1.85-1.46a2.26 2.26 0 0 1-.23-.5c-.12-.43-.2-.57-.38-.75a1.37 1.37 0 0 0-1.3-.36Zm15.9 0c-.24.07-.39.15-.59.32-.2.17-.3.36-.4.74-.1.35-.23.56-.53.87-.49.5-1.13.95-1.87 1.27-.73.32-1.3.4-1.81.27-.31-.08-.6-.06-.85.06-.27.13-.55.4-.68.65-.09.2-.1.27-.1.56 0 .28.01.36.1.54.14.28.38.52.66.65.31.15.76.15 1.07 0 .45-.2.7-.53.78-1.02.03-.14.07-.3.1-.37.4-.75 2.13-1.83 3.3-2.04.34-.07.36-.06.7.02.25.06.42.08.56.06a1.36 1.36 0 0 0 1.2-1.2 1.33 1.33 0 0 0-1.64-1.38Zm-23.65 3.33c-.3.14-.5.43-.5.78 0 .35.18.62.5.77.3.13.51.12.84-.05.24-.12.3-.14.55-.14.62 0 1.52.29 2.04.65.27.19.34.28.45.57.11.3.28.48.58.62.23.11.3.13.54.13.63 0 1.11-.46 1.15-1.08.03-.4-.08-.66-.36-.92a1.08 1.08 0 0 0-.9-.3 1.2 1.2 0 0 0-.73.28c-.4.28-1.36.18-2.25-.25a2.1 2.1 0 0 1-.83-.75c-.2-.33-.7-.48-1.08-.3Zm31.35 0c-.21.11-.32.22-.46.46-.07.12-.2.26-.32.36a3.6 3.6 0 0 1-2.32.63 1.5 1.5 0 0 1-.42-.18c-.57-.37-1.1-.34-1.54.1-.35.33-.45.74-.3 1.19.1.27.44.6.72.7.4.13.87.03 1.2-.25.13-.12.16-.17.36-.6a.86.86 0 0 1 .3-.36 4.8 4.8 0 0 1 1.81-.68c.38-.04.63 0 .83.13.3.21.76.18 1.05-.07a.84.84 0 0 0 .1-1.2.86.86 0 0 0-1.01-.22Zm-8.43 2.46a.85.85 0 0 0-.47.42c-.12.24-.27.36-.66.55-.65.32-1.38.42-1.8.24-.23-.1-.43-.1-.6-.02-.3.14-.44.35-.44.64 0 .25.1.45.32.59.16.1.21.11.4.1a.7.7 0 0 0 .64-.43c.06-.12.16-.26.23-.32a3.2 3.2 0 0 1 1.61-.56c.34-.01.4 0 .63.09.28.12.5.12.7 0a1 1 0 0 0 .35-.5c.06-.32-.2-.7-.53-.8-.18-.05-.22-.05-.38 0Zm-14.26.05a.94.94 0 0 0-.41.47c-.1.3.1.7.42.83.2.07.38.06.65-.05.23-.1.28-.1.6-.08a3.5 3.5 0 0 1 1.45.47c.18.12.27.2.34.36.13.25.18.31.36.4.2.1.44.1.65 0 .53-.23.54-.99 0-1.24-.22-.11-.39-.1-.7.02-.22.09-.28.1-.58.08a3.1 3.1 0 0 1-1.16-.32c-.36-.17-.55-.34-.67-.56-.18-.35-.63-.53-.95-.38Zm-1.72 2.98c-.3.05-.66.24-.88.46a1.7 1.7 0 0 0 .53 2.8c.68.3 1.32.15 1.92-.43.4-.4.7-.53 1.47-.69a8.22 8.22 0 0 1 1.74-.15 6.1 6.1 0 0 1 2.42.38c.2.1.27.15.39.33a1.82 1.82 0 0 0 2.34.61c.22-.1.51-.38.66-.62.12-.18.18-.22.42-.33a5.82 5.82 0 0 1 2.43-.38c.91 0 1.6.09 2.2.28.46.15.66.27.97.57.5.48 1 .66 1.56.54a1.7 1.7 0 0 0 1.24-.94c.14-.27.15-.34.16-.66.02-.3 0-.41-.07-.61a1.74 1.74 0 0 0-1.4-1.17c-.55-.09-.99.08-1.52.58-.5.47-.86.64-1.68.8-.88.17-2.12.16-2.97 0-.82-.18-1.16-.33-1.52-.71-.19-.2-.33-.3-.55-.42-.3-.14-.3-.14-.77-.14-.47 0-.48 0-.78.14-.22.11-.36.22-.56.43-.2.21-.32.3-.54.4-.32.14-.94.3-1.45.37-.48.07-1.63.06-2.14-.02-1.02-.15-1.5-.35-2.03-.85-.37-.35-.55-.46-.9-.55-.24-.06-.4-.07-.7-.02Zm-5.56.53c-.45.16-.73.54-.76 1.01-.04.53.22.95.7 1.17.21.09.28.1.5.09.34-.03.6-.14.81-.36.45-.46.45-1.17 0-1.62a1.25 1.25 0 0 0-1.25-.29Zm28.6-.03a1.2 1.2 0 0 0-.78.72c-.16.44-.06.9.27 1.24a1.2 1.2 0 0 0 1.9-.3 1.4 1.4 0 0 0 0-1.03c-.2-.4-.57-.62-1.03-.65-.14 0-.3 0-.35.02Zm-33.29.36c-.51.12-.78.62-.59 1.08a.82.82 0 0 0 1.42.13c.1-.15.12-.2.12-.43 0-.23-.02-.29-.12-.44-.18-.25-.56-.41-.83-.34Zm38.4 0a.88.88 0 0 0-.61.48c-.1.25-.02.64.16.84.26.26.73.31 1.05.1a.82.82 0 0 0 .35-.7.9.9 0 0 0-.36-.6.97.97 0 0 0-.6-.12Zm-22.92 3.13c-.2.07-.32.2-.44.41-.16.32-.44.5-1.02.7-.64.2-1.16.24-1.4.09a.7.7 0 0 0-.86.1c-.4.39-.22 1.02.3 1.18.3.08.6-.04.79-.32.23-.35.37-.47.73-.64.67-.32 1.38-.42 1.76-.25a.8.8 0 0 0 .75-.02.7.7 0 0 0-.19-1.27c-.19-.05-.23-.05-.42.02Zm7.22 0a.69.69 0 0 0-.33 1.01c.2.33.56.43.96.26.4-.17 1.05-.1 1.69.2.42.18.62.34.73.57.19.36.5.53.84.44.26-.07.37-.16.47-.38.1-.23.12-.35.03-.55-.17-.41-.62-.57-1.03-.36-.33.16-1 .09-1.66-.19-.4-.17-.62-.33-.73-.54-.23-.44-.6-.61-.97-.45Zm7.25 1.47c-.25.1-.5.33-.63.6-.13.27-.13.7 0 .96.13.27.4.51.65.6.4.15.78.1 1.16-.16.27-.19.46-.23.87-.2.46.02.93.15 1.4.37.45.21.69.42.9.76.3.48.97.54 1.35.11.28-.3.31-.69.1-1.03-.22-.33-.74-.5-1.06-.34l-.27.15c-.14.07-.2.08-.57.07-.94-.04-2.14-.6-2.29-1.07a1.4 1.4 0 0 0-.43-.66 1.25 1.25 0 0 0-1.18-.16Zm-22.2.07c-.29.14-.49.37-.6.68-.08.26-.31.48-.74.7a3.8 3.8 0 0 1-1.77.44c-.27-.01-.33-.03-.52-.15-.18-.11-.24-.13-.43-.13-.5 0-.88.38-.88.86a.85.85 0 0 0 1.26.75c.17-.08.27-.19.41-.43.15-.25.33-.4.8-.62a3.8 3.8 0 0 1 1.4-.38c.4-.02.59.02.85.2a1.21 1.21 0 0 0 1.81-.42c.1-.22.13-.59.05-.84s-.3-.51-.58-.65a.9.9 0 0 0-.54-.13.94.94 0 0 0-.52.12Zm9.2.97c-.2.06-.47.24-.62.42-.16.18-.26.4-.3.71-.05.3-.2.54-.54.87-.45.42-1.13.86-1.8 1.16-.84.36-1.33.45-1.76.32a2.06 2.06 0 0 0-.47-.07c-.45 0-.92.3-1.14.74-.1.2-.12.27-.12.58 0 .3.02.38.11.57.14.29.47.59.75.68.33.11.67.1.98-.05.14-.07.32-.19.4-.27.17-.16.33-.48.37-.7.04-.29.24-.6.64-.99a5.65 5.65 0 0 1 2.77-1.47c.33-.05.36-.05.72.03a1.33 1.33 0 0 0 1.7-.98.79.79 0 0 0 0-.48c-.1-.5-.4-.87-.85-1.04a1.93 1.93 0 0 0-.84-.03Zm3.96.03c-.41.18-.6.35-.76.7-.3.64-.02 1.4.62 1.72.33.16.56.18 1 .08.36-.08.38-.08.73-.02a5.5 5.5 0 0 1 3.22 2.02c.05.09.12.28.17.44.1.37.2.56.4.73.44.38.96.46 1.46.22.4-.19.65-.5.74-.94.12-.56-.2-1.16-.75-1.44a1.47 1.47 0 0 0-.94-.06c-.41.12-.86.06-1.59-.23-1.07-.41-2.26-1.3-2.47-1.84a2.22 2.22 0 0 1-.08-.33 1.27 1.27 0 0 0-.73-.99 1.48 1.48 0 0 0-1.02-.06Zm-1.76 4.3a.8.8 0 0 0-.3.18c-.43.35-.43.92 0 1.31.08.09.2.22.23.3.12.23.2.7.2 1.23 0 .8-.12 1.27-.38 1.56-.29.31-.37.57-.3.86.08.26.23.45.45.56.6.3 1.25-.1 1.25-.73 0-.28-.04-.38-.25-.6-.36-.39-.47-.76-.47-1.62 0-.85.09-1.22.4-1.55.35-.4.38-.91.05-1.25a.95.95 0 0 0-.88-.25ZM15 38.35a.79.79 0 0 0-.6.7c-.04.24.12.56.34.7.22.15.58.18.8.07a.8.8 0 0 0-.1-1.47c-.2-.07-.2-.07-.44 0Zm25.53.02a.79.79 0 0 0-.22 1.35c.3.24.63.25.96.04a.76.76 0 0 0-.07-1.34.93.93 0 0 0-.67-.05ZM22.3 41.41c-.2.1-.34.27-.4.5-.06.23-.03.4.12.64.3.45.95.46 1.31.02a.8.8 0 0 0-.02-.95.84.84 0 0 0-1-.2ZM33 41.4c-.4.2-.56.63-.4 1.02a.82.82 0 0 0 1.42.13c.1-.15.12-.2.12-.43 0-.24-.02-.29-.12-.44a.81.81 0 0 0-.68-.34.91.91 0 0 0-.34.06Z" fill="#4BB9C3"/></svg>