<!-- by TradingView --><svg xmlns="http://www.w3.org/2000/svg" width="56" height="56" viewBox="0 0 56 56"><path fill="#F0F3FA" d="M0 0h56v56H0z"/><path d="M28.33 12H14a17.17 17.17 0 0 0 3.6 3.34c3.92 2.84 8.04 4.38 13.13 7.16 3.45 1.91 6.3 3.46 8.39 5.8A7.37 7.37 0 0 1 41 32.83v-7.15C41 23.7 41 17.9 28.33 12z" fill="url(#a4ojtbmwh)"/><path d="M39.15 30.4l-.57.62s-2.86 3.04-8.46 6A98.88 98.88 0 0 1 26 38.95V48c5.14-2.54 9.22-4.64 11.74-8.58 1.3-1.88 2.02-4.09 2.07-6.36v-.37a6.02 6.02 0 0 0-.66-2.3z" fill="#123C8A"/><path d="M30.19 23.99a131.8 131.8 0 0 0-5.02-2.84l-.01-.01-.26-.14h-4.52c-.37 0-.72.16-.98.44-.25.28-.4.66-.4 1.06s.15.78.4 1.06c.26.28.61.44.98.44h9.82l-.01-.01zm8.08 5.03c-.44-.55-.92-1.05-1.43-1.52H20.38c-.37 0-.72.16-.98.44-.25.28-.4.66-.4 1.06s.15.78.4 1.06c.26.28.61.44.98.44h18.8a7.08 7.08 0 0 0-.9-1.48zM20.41 34h15.18a1.33 1.33 0 0 1 1 .44A1.51 1.51 0 0 1 37 35.5a1.58 1.58 0 0 1-.41 1.06 1.4 1.4 0 0 1-1 .44H20.41c-.38 0-.73-.16-1-.44A1.55 1.55 0 0 1 19 35.5c0-.4.15-.78.41-1.06.27-.28.63-.44 1-.44z" fill="#F69E01"/><defs><linearGradient id="a4ojtbmwh" x1="41.83" y1="22.42" x2="14.84" y2="22.42" gradientUnits="userSpaceOnUse"><stop stop-color="#468DCC"/><stop offset=".5" stop-color="#123C8A"/></linearGradient></defs></svg>