<!-- by TradingView --><svg width="56" height="56" fill="none" xmlns="http://www.w3.org/2000/svg"><path fill="#BFD3C5" d="M0 0h56v56H0z"/><path fill-rule="evenodd" clip-rule="evenodd" d="M15.905 24.025c-.426.088-.797.366-1.058.72-.096.131-.236.382-.292.522-.014.035-.144.308-.288.606-.145.297-.322.667-.394.822-.072.153-.157.33-.189.392l-.06.11-.014-.082c-.029-.174-.11-.267-.253-.299-.105-.022-.954.097-1.02.146-.037.026-.074.1-.146.293-.08.219-.091.269-.078.325.033.12.07.13.61.194l.488.056-.037.04a.762.762 0 00-.08.12c-.095.182-.097.217-.097 1.946v.212c0 1.325 0 1.487.078 1.59.01.015.023.029.037.044l.016.017a.891.891 0 00.268.201h.58l.12.003c.331.008.719.019.904-.295V30h5v1.083c-.003.34-.007.742.25.856.084.038.126.055.67.061.677.008.728-.018.885-.152l.002-.002c.172-.148.18-.154.193-.978v-1.7c-.02-1.066-.031-1.082-.15-1.25l-.002-.002c-.031-.045-.05-.084-.043-.086.008-.002.226-.03.483-.06.259-.03.489-.065.51-.078a.193.193 0 00.082-.157c0-.024-.04-.16-.09-.299-.064-.177-.103-.263-.132-.282-.049-.03-.804-.14-.96-.142a.305.305 0 00-.17.042.355.355 0 00-.147.244.15.15 0 01-.016.067c-.017.028-.052-.037-.202-.367-.055-.118-.216-.46-.362-.756a62.607 62.607 0 01-.376-.79c-.303-.67-.737-1.226-1.372-1.252H17.483c-1.135-.004-1.434-.005-1.578.025zM18.56 26l.942 2h-4.015c.286-.559 1.147-1.998 1.147-1.998l.962-.002h.964zm5.495-1.67a.574.574 0 01.293-.294c.087-.039.246-.039 3.275-.033L30.408 24c.172 0 .358.031.46.17.137.184.135.423.132.675V25c.007.507-.004.524-.075.625l-.015.02c-.029.043-.884 1.069-1.959 2.248l-1.953 2.105 1.827.002h1.826c.156-.002.353.204.353.41V31l.001.112c.006.31.015.754-.294.888l-3.195-.004-3.194.004a.481.481 0 01-.203-.196.86.86 0 01-.117-.46V31c0-.594.004-.605.092-.733.027-.038.92-1.03 1.99-2.204L28 26h-3.604l-.08-.051c-.115-.058-.235-.277-.27-.39-.024-.074-.046-.207-.046-.612 0-.472.02-.528.055-.618zm12.585-.319a4.12 4.12 0 00-1.825.63 4.013 4.013 0 00-1.779 2.746 5 5 0 00.011 1.286c.104.587.295 1.066.62 1.554a3.987 3.987 0 002.662 1.726c.32.058.974.063 1.286.01.432-.07.828-.2 1.204-.392 1.159-.587 1.946-1.684 2.149-2.99.043-.282.043-.88 0-1.162a3.945 3.945 0 00-1.137-2.248 3.93 3.93 0 00-2.238-1.132 5.061 5.061 0 00-.953-.028zm.827 2.04a2.03 2.03 0 011.482 1.484c.062.229.07.6.017.847-.081.39-.24.702-.511.987a1.982 1.982 0 01-2.476.353 1.992 1.992 0 01-.789-2.572c.11-.233.21-.372.421-.578.29-.285.592-.449.99-.535.233-.049.646-.043.866.015zm9.27-2.047a4.007 4.007 0 00-3.719 3.533c-.028.233-.022.735.01.986a4.01 4.01 0 001.981 2.952 4.03 4.03 0 003.747.122 3.997 3.997 0 002.216-3.057 5.82 5.82 0 00.01-1.022 3.999 3.999 0 00-3.398-3.477 5.922 5.922 0 00-.847-.037zm.603 2.023c.99.173 1.715 1.071 1.662 2.063a2.015 2.015 0 01-1.125 1.707 1.996 1.996 0 01-2.68-.936 1.956 1.956 0 01-.2-.985 2.029 2.029 0 011.378-1.776 2.03 2.03 0 01.965-.073zm-42.125.686c.506-1.468 1.875-2.5 3.578-2.7.08-.01.349-.016.594-.012.35.004.499.013.681.045.326.056.641.139.906.24.444.168.613.271.673.412a.5.5 0 01.008.297 23.99 23.99 0 01-.786 1.11.324.324 0 01-.25.1c-.208 0-.406-.053-.61-.107-.212-.057-.43-.115-.67-.116-1.39 0-2.322 1.006-2.339 2.006-.018 1.02.908 2.034 2.387 2.006.208-.004.414-.048.616-.092.236-.05.467-.1.688-.083a.379.379 0 01.154.045c.057.04.738.987.793 1.103a.44.44 0 01.011.315c-.05.112-.124.174-.332.271-1.51.718-3.357.56-4.685-.395a3.895 3.895 0 01-1.417-4.445z" fill="#DF4E3C"/></svg>