<!-- by TradingView --><svg width="56" height="56" viewBox="0 0 56 56" xmlns="http://www.w3.org/2000/svg"><path fill="#F0F3FA" d="M0 0h56v56H0z"/><path d="M42.06 13.94v28.12H13.94V13.94h28.12ZM43 13H13v30h30V13Z" fill="#013B49"/><path d="m16 22 .91-.39H17V25h-1v-3ZM18 20h1.25l1.28 3.34L21.92 20H23v5h-1v-3.82L20.4 25h-.47l-1.4-3.82V25H18v-5ZM21 27.47l.9-.47h.1v5h-1v-4.53ZM24.54 32c-.21 0-.42-.05-.62-.15-.19-.09-.35-.23-.49-.4-.14-.19-.25-.4-.32-.63a2.68 2.68 0 0 1 0-1.6c.08-.23.19-.44.33-.63.13-.18.3-.33.47-.43a1.18 1.18 0 0 1 1.18 0c.2.1.35.25.48.43.14.19.25.4.32.64a2.76 2.76 0 0 1 0 1.6c-.07.22-.17.43-.3.62-.13.17-.29.3-.47.4-.18.1-.38.15-.58.15M24 30.01c0 .43 0 .89.11 1.3.03.1.08.2.15.27.07.05.15.08.24.07a.3.3 0 0 0 .2-.09.68.68 0 0 0 .16-.3c.11-.4.14-.84.14-1.26a4 4 0 0 0-.15-1.29.7.7 0 0 0-.15-.26.25.25 0 0 0-.18-.08.3.3 0 0 0-.17.05.35.35 0 0 0-.12.14c-.07.14-.12.29-.15.45a5.7 5.7 0 0 0-.08 1M27.9 27h.1v1.38c0 .02 0 .04.02.04s.04-.02.06-.04c.17-.26.3-.4.67-.38.88 0 1.26 1.25 1.25 2 .01.8-.48 2-1.37 2-.38 0-.54-.2-.83-.43-.13.1-.57.44-.75.43-.04 0-.05-.06-.05-.12v-4.46l.9-.42Zm.56 4.61c.32 0 .54-.68.54-1.61 0-.33-.01-1.57-.55-1.57-.35.01-.47 1.2-.45 1.57 0 .42-.08 1.66.46 1.61ZM31.38 28.27c.36-.17.69-.27 1.1-.27.91 0 1.54.45 1.52 1.33v1.71c0 .3.04.68.14.96h-.97l-.1-.4a1.5 1.5 0 0 1-1.03.4c-.67.01-1.05-.7-1.04-1.3-.01-.7.5-1.28 1.21-1.27.25-.01.6.12.79.3V29c0-.36-.27-.68-.68-.64-.41 0-.68.34-.92.63l-.09.01.07-.73ZM33 30.08c-.13-.14-.4-.22-.57-.22-.38 0-.48.53-.47.82-.01.32.11.83.5.81.19 0 .44-.15.54-.31v-1.1ZM20.38 35.27c.36-.17.69-.27 1.1-.27.91 0 1.54.45 1.52 1.33v1.71c0 .3.04.68.14.96h-.97l-.1-.4a1.5 1.5 0 0 1-1.03.4c-.67.01-1.05-.7-1.04-1.3-.01-.7.5-1.28 1.21-1.27.25-.01.6.12.79.3V36c0-.36-.27-.68-.68-.64-.41 0-.68.34-.92.63l-.09.01.07-.73ZM22 37.08c-.13-.14-.4-.22-.57-.22-.38 0-.48.53-.47.82-.01.32.11.83.5.81.19 0 .44-.15.54-.31v-1.1ZM16 34h1.55c.76 0 1.45.62 1.45 1.4.02 1.01-.89 1.61-1.77 1.6-.15 0-.24.04-.23.2V39h-1v-5Zm1 2.62c.14.03.24.03.31.03.55.03.72-.73.69-1.21 0-.5-.1-1.14-.69-1.1h-.13c-.1 0-.2.06-.18.17v2.11ZM35 27.47l.9-.47h.1v5h-1v-4.53ZM24 35.49l.93-.49H25v.82c.18-.24.3-.53.54-.72.12-.08.25-.1.4-.1l.06.01v1.22c-.17-.24-.35-.35-.54-.35-.18 0-.4.2-.46.38V39h-1v-3.51ZM38 35.49l.93-.49H39v.82c.18-.24.3-.53.54-.72.12-.08.25-.1.4-.1l.06.01v1.22c-.17-.24-.35-.35-.54-.35-.18 0-.4.2-.46.38V39h-1v-3.51ZM28 34v1h1v.43h-1v3.13c.05.03.12.04.18.04.17.01.66-.2.68-.37H29v.69c-.27 0-.77.08-1.05.08-.54 0-.95-.42-.95-1.02v-3.5l1-.48ZM20 29.42h-1.42c-.03 0-.05.02-.05.04l-.04.28c0 .02.02.03.06.03H19v1.85l-.4.03c-1.12 0-1.6-1.06-1.6-1.99 0-1.53.66-2.3 1.57-2.3.49 0 .89.2 1.17.6l.08-.01-.06-.73c-.36-.1-.73-.21-1.12-.22-1.42-.02-2.66 1.04-2.64 2.5-.02 1.47 1.21 2.5 2.64 2.5a2.55 2.55 0 0 0 1.36-.48v-2.1ZM30 35.48l.95-.48H31v.66c.29-.35.6-.66 1.07-.66.55 0 .94.46.93 1v3h-1v-2.78c0-.23-.07-.63-.38-.61-.3 0-.47.28-.62.52V39h-1v-3.52ZM35.04 37.6c0 .46.34 1.06.88 1.04.49.01.83-.38 1-.8H37v.83c-.36.28-.85.34-1.29.33C34.58 39 34 37.88 34 36.86c0-.9.63-1.87 1.6-1.86.82 0 1.24.43 1.38 1.4l-1.94 1.2ZM36 36.5c0-.29.1-1.17-.4-1.14-.5 0-.63.77-.61 1.1L35 37l1-.51Z" fill="#013B49"/><circle cx="16.5" cy="20.5" r=".5" fill="#013B49"/></svg>