<!-- by TradingView --><svg width="56" height="56" viewBox="0 0 56 56" xmlns="http://www.w3.org/2000/svg"><path fill="#F0F3FA" d="M0 0h56v56H0z"/><path d="m8 23.1 9 4.38V38.1l-9-4.49v-10.5Z" fill="#0070B2"/><path d="m18 28 9.5 4.38V43L18 38.5V28Z" fill="#009CA8"/><path d="m48 23.1-9 4.38V38.1l9-4.49v-10.5Z" fill="#FFD952"/><path d="m38 28-9.5 4.38V43l9.5-4.5V28Z" fill="#01A863"/><path d="m17 17.9-8.5 4.24 8.5 4.24V17.9Z" fill="#19588D"/><path d="M27.5 23.62V13L18 17.5v9.28l1.31.62 8.19-3.78Z" fill="#057279"/><path d="M39 17.9v8.48l8.53-4.23L39 17.9Z" fill="#FEB34D"/><path d="M38 17.5 28.5 13v10.62l8.19 3.78 1.3-.62.01-9.29Z" fill="#337665"/></svg>