<!-- by TradingView --><svg xmlns="http://www.w3.org/2000/svg" width="56" height="56" viewBox="0 0 56 56"><path fill="#0065A4" d="M0 0h56v56H0z"/><path d="M10 27.85c0 .7.27.84 1 .96V29H7.76C5.64 29 5 27.87 5 26.83c0-1.3.93-2.33 2.3-2.33.6 0 1.25.25 1.7.54v-1.93c0-.55-.4-.77-1.22-.8v-.19L9.86 22H10v5.85zM9 25.6a1.8 1.8 0 0 0-1.37-.68c-.74 0-1.2.7-1.2 1.83 0 1.56.99 2 1.63 2 .58 0 .94-.25.94-.97V25.6zM12.35 26.38c-.07 1.37.7 2.08 1.47 2.08.61 0 1.1-.3 1.5-.9h.18A2.36 2.36 0 0 1 13.27 29 2.2 2.2 0 0 1 11 26.78c0-1.3 1-2.28 2.32-2.28 1.18 0 2.03.73 2.18 1.88h-3.15zm1.8-.38c-.04-.77-.41-1.2-.92-1.2-.5 0-.85.4-.88 1.2h1.8zM20.38 26.02h-.18c-.4-.87-.87-1.27-1.5-1.27-.84 0-1.35.71-1.35 1.85 0 1.17.56 1.88 1.5 1.88.61 0 .96-.19 1.43-.78h.22c-.41.88-1.13 1.3-2.2 1.3-1.37 0-2.3-.87-2.3-2.17 0-1.32 1.05-2.33 2.44-2.33.3 0 .56.03.77.07.23.03.42.06.58.06.15 0 .2-.02.32-.13h.17l.1 1.52zM24 28.07c0 .43.07.68.5.73v.2h-2.45v-.2c.53-.11.65-.27.65-.82v-2.32c0-.53-.13-.68-.7-.8v-.2l1.7-.16h.3v3.57zM25.72 25.74c0-.56-.08-.75-.76-.89v-.19l1.83-.16H27v.8c.47-.53 1.02-.8 1.67-.8 1.13 0 1.98.93 1.98 2.18 0 1.32-.92 2.27-2.2 2.27-.54 0-.83-.12-1.45-.6v2.6c0 .58.12.74.75.88V32h-2.8v-.19c.64-.07.77-.3.77-1.03v-5.04zM27 28.05c.35.34.63.48 1.01.48.75 0 1.25-.68 1.25-1.72 0-1.09-.47-1.76-1.22-1.76-.4 0-.7.15-1.04.54v2.46zM33 25.63h.03c.22-.36.45-.61.7-.78.25-.17.54-.23.87-.23.9 0 1.48.61 1.48 1.6v1.83c0 .4.1.64.65.76V29h-2.57v-.19c.5-.13.66-.31.66-.8v-1.7c0-.65-.27-1.01-.76-1.01-.44 0-.73.29-1.06.7v2c0 .41.15.69.67.81V29h-2.56v-.19c.48-.12.63-.32.63-.8v-5c0-.4-.15-.57-.63-.7v-.19l1.7-.12h.2v3.63zM38 26.38c-.07 1.37.7 2.08 1.47 2.08.6 0 1.1-.3 1.49-.9h.19A2.36 2.36 0 0 1 38.92 29a2.2 2.2 0 0 1-2.27-2.22c0-1.3 1-2.28 2.31-2.28 1.18 0 2.03.73 2.19 1.88h-3.16zm1.8-.38c-.04-.77-.42-1.2-.92-1.2-.51 0-.85.4-.89 1.2h1.81zM45.73 26.07c-.35-.37-.62-.56-.9-.56-.36 0-.52.16-.83.62v1.76c0 .52.03.68.62.8v.2h-2.56v-.2c.54-.13.67-.3.67-.8v-2.28c0-.55-.22-.8-.73-.85v-.2l1.76-.06H44v1.27h-.04c.4-.94.83-1.38 1.33-1.38a.9.9 0 0 1 .71.37l-.27 1.3zM50.26 28.02c0 .39.07.55.26.55.18 0 .29-.13.33-.38h.18c-.04.52-.41.8-1.02.8-.52 0-.8-.16-1.02-.58l-.1.09c-.42.37-.81.5-1.32.5-.7 0-1.26-.5-1.26-1.1 0-1.13 1.67-1.22 2.7-1.6 0-.74-.3-1.09-1.05-1.09-.57 0-1 .23-1.26.7h-.17c.22-.9.9-1.42 1.88-1.42.9 0 1.85.41 1.85 1.56v1.97zM49 26.52c-1.05.45-1.38.7-1.38 1.27 0 .45.24.75.58.75.26 0 .51-.14.8-.43v-1.58zM24.5 23H21v1h3.5v-1z" fill="#fff"/><path d="M25.56 36.91A37.77 37.77 0 0 0 5 30.5L5 30h.01c3.7 0 12.37.6 20.68 6.22C34.27 30.6 42.64 30 51 30v.5c-8.38 0-16.66.8-25.18 6.41l-.13.09-.13-.09z" fill="#FEC057"/></svg>