<!-- by TradingView --><svg xmlns="http://www.w3.org/2000/svg" width="56" height="56" viewBox="0 0 56 56"><path fill="#F0F3FA" d="M0 0h56v56H0z"/><path fill-rule="evenodd" d="M52 23H4v10h48V23zm-1 1H14v8h37v-8zM8.8 25c1.1-.06 3.34.44 3.36 2.9.03 2.88-2.33 3.03-3.2 3.08l-.17.01v-.1c.64.02 1.91-.51 1.87-2.81-.06-2.87-1.44-2.97-1.87-2.97V25zm-2.5 0h2v6h-2c.22-.09.67-.46.7-1.23v-3.65c-.01-.25-.16-.85-.7-1.12zm10.54 1.67c.38-.02 1.14.15 1.15.98 0 .98-.8 1.03-1.09 1.05h-.06v-.04c.22.01.65-.17.64-.95-.02-.97-.5-.98-.64-.98v-.06zm-.84 0h.63v2.03H16c.07-.03.22-.15.24-.41v-1.24c0-.09-.06-.29-.24-.38zm2.7.07a.22.22 0 0 0-.16-.07.21.21 0 0 0-.16.07.22.22 0 0 0-.06.15c0 .07.02.12.06.16.05.05.1.07.16.07s.12-.02.16-.07c.05-.04.07-.1.07-.16a.22.22 0 0 0-.07-.15zm.05 1.67v-1.08h-.57v.05c.06 0 .1.02.12.05.03.02.04.09.04.18v.8c0 .1-.01.15-.03.17-.03.04-.07.05-.13.06v.05h.73v-.05c-.07 0-.1-.02-.13-.05-.02-.03-.03-.09-.03-.18zm1.62-1.07h-.45a.76.76 0 0 0-.28-.05.6.6 0 0 0-.42.14.45.45 0 0 0-.08.62.6.6 0 0 0 .28.19c-.1.04-.19.1-.24.16a.3.3 0 0 0-.08.2c0 .1.07.2.2.25a.42.42 0 0 0-.2.1.17.17 0 0 0-.04.11c0 .05.02.1.06.14.04.04.12.07.22.1a1.43 1.43 0 0 0 .76-.04.44.44 0 0 0 .2-.15.36.36 0 0 0 .08-.22.3.3 0 0 0-.17-.29.92.92 0 0 0-.42-.07h-.25c-.06 0-.1 0-.13-.03a.1.1 0 0 1-.04-.08c0-.04.02-.08.05-.1a.15.15 0 0 1 .1-.05h.18c.07 0 .15-.01.25-.05.09-.04.16-.1.22-.17a.4.4 0 0 0 .08-.25.4.4 0 0 0-.04-.17.5.5 0 0 0-.1-.13h.26v-.16zm-.85.12c.04-.05.09-.08.14-.08.06 0 .1.02.14.07.04.06.06.18.06.35 0 .16-.02.26-.06.31a.17.17 0 0 1-.14.08c-.05 0-.1-.02-.14-.08-.04-.05-.06-.15-.06-.3 0-.17.02-.29.06-.35zm-.14 1.45a3.09 3.09 0 0 1 .62 0c.05 0 .1.03.12.06l.02.06c0 .06-.04.11-.11.15a.76.76 0 0 1-.32.05c-.16 0-.27-.02-.32-.06-.06-.04-.09-.08-.09-.13s.03-.1.08-.13zm1.48-2.24c.06 0 .12.02.16.07.04.04.07.1.07.15 0 .07-.03.12-.07.16a.22.22 0 0 1-.16.07.22.22 0 0 1-.16-.07.22.22 0 0 1-.06-.16c0-.06.02-.11.06-.15.05-.05.1-.07.16-.07zm.2.66v1.08c0 .1.02.15.04.18s.06.04.13.05v.05h-.74v-.05c.06 0 .1-.02.14-.06.02-.02.03-.08.03-.17v-.8c0-.1-.01-.16-.04-.18-.02-.03-.06-.04-.13-.05v-.05h.57zm.84 0v-.4h-.4v.4h-.18v.14h.17v.74c0 .14.01.23.02.26.02.06.05.12.11.17.06.04.14.07.22.07.18 0 .3-.1.38-.28l-.04-.03c-.05.1-.11.14-.18.14-.01 0-.03 0-.05-.02a.12.12 0 0 1-.04-.06.7.7 0 0 1 0-.15v-.84h.31v-.14h-.32zm1.2 1.16c-.16.14-.31.22-.44.22a.26.26 0 0 1-.27-.27c0-.1.04-.2.13-.28.1-.08.29-.2.59-.33v-.14l-.02-.2a.15.15 0 0 0-.07-.06.19.19 0 0 0-.1-.03.27.27 0 0 0-.16.04l-.03.06c0 .02.01.05.04.08.03.04.05.08.05.12 0 .05-.02.09-.05.12a.2.2 0 0 1-.14.05.22.22 0 0 1-.15-.06.17.17 0 0 1-.06-.13.3.3 0 0 1 .08-.2.52.52 0 0 1 .23-.14c.1-.04.2-.05.3-.05a.5.5 0 0 1 .31.08c.08.05.13.11.15.18.01.04.02.13.02.28v.64l.03.04.03.01c.03 0 .05-.02.08-.05l.04.03a.54.54 0 0 1-.15.16.33.33 0 0 1-.17.05.28.28 0 0 1-.19-.06.25.25 0 0 1-.07-.16zm0-.1v-.46a.85.85 0 0 0-.26.22.27.27 0 0 0-.05.16c0 .04.01.08.04.11s.06.04.1.04c.05 0 .11-.02.18-.08zm1.28.02v-1.7h-.57v.06c.06 0 .1.02.13.05.02.02.03.08.03.18v1.4c0 .1-.01.16-.03.18-.03.04-.07.05-.13.06v.05h.73v-.05c-.06 0-.1-.02-.13-.05-.02-.03-.03-.09-.03-.18zm1.75-.67v.61c0 .1 0 .17.02.19.01.03.03.05.06.07.04.02.08.03.14.03h.06v.05h-1.03v-.05h.07c.05 0 .1-.02.13-.04a.13.13 0 0 0 .06-.07.6.6 0 0 0 .02-.18v-1.3c0-.1 0-.16-.02-.19a.14.14 0 0 0-.06-.06.25.25 0 0 0-.13-.03h-.07v-.05h1.03v.05h-.06c-.06 0-.1.01-.14.03a.14.14 0 0 0-.06.07.6.6 0 0 0-.02.18v.56h.7v-.56c0-.1 0-.16-.02-.19a.14.14 0 0 0-.06-.06.26.26 0 0 0-.13-.03h-.07v-.05h1.03v.05h-.06c-.06 0-.1.01-.14.03a.14.14 0 0 0-.06.07.6.6 0 0 0-.02.18v1.3c0 .1 0 .17.02.19.01.03.03.05.06.07.04.02.08.03.14.03h.06v.05h-1.03v-.05h.07c.05 0 .1-.02.13-.04a.14.14 0 0 0 .06-.07.6.6 0 0 0 .02-.18v-.61h-.7zm2.01.22h.75c0-.22-.06-.39-.17-.5a.46.46 0 0 0-.35-.17c-.17 0-.31.07-.44.2a.77.77 0 0 0-.18.54c0 .19.04.34.13.47.1.15.25.23.45.23.12 0 .23-.03.31-.1a.83.83 0 0 0 .25-.31l-.05-.04a.63.63 0 0 1-.15.18.28.28 0 0 1-.16.05.3.3 0 0 1-.24-.12.7.7 0 0 1-.15-.43zm.36-.42c.02.06.03.17.03.32h-.4v-.05c0-.15.03-.27.1-.35.02-.05.06-.08.11-.08.04 0 .07.01.09.03.03.03.06.07.07.13zm1.31.95c-.16.14-.31.22-.45.22a.26.26 0 0 1-.27-.27c0-.1.05-.2.14-.28.09-.08.28-.2.58-.33v-.14c0-.1 0-.17-.02-.2a.15.15 0 0 0-.06-.06.19.19 0 0 0-.1-.03.27.27 0 0 0-.16.04c-.02.02-.04.04-.04.06l.04.08c.04.04.06.08.06.12 0 .05-.02.09-.06.12a.2.2 0 0 1-.13.05.22.22 0 0 1-.16-.06.17.17 0 0 1-.06-.13.3.3 0 0 1 .08-.2.52.52 0 0 1 .24-.14c.1-.04.2-.05.3-.05a.5.5 0 0 1 .3.08c.09.05.13.11.16.18.01.04.02.13.02.28v.64c0 .02.02.03.03.04l.03.01c.02 0 .05-.02.08-.05l.04.03a.54.54 0 0 1-.15.16.33.33 0 0 1-.18.05.28.28 0 0 1-.18-.06.25.25 0 0 1-.08-.16zm0-.1v-.46a.85.85 0 0 0-.26.22.27.27 0 0 0-.06.16c0 .04.02.08.05.11.02.03.06.04.1.04.05 0 .1-.02.17-.08zm1.27.02v-1.7h-.57v.06c.07 0 .1.02.13.05.02.02.04.08.04.18v1.4c0 .1-.01.16-.03.18-.03.04-.08.05-.14.06v.05h.74v-.05c-.07 0-.11-.02-.13-.05-.03-.03-.04-.09-.04-.18zm1.85-1.7v.8a.82.82 0 0 1 .2-.17.4.4 0 0 1 .2-.05c.08 0 .15.02.21.07s.1.1.12.17c.02.07.03.18.03.33v.53c0 .1.01.17.03.2.02.02.06.04.12.05v.05h-.69v-.05c.05-.01.09-.03.11-.06.02-.03.03-.09.03-.19v-.6c0-.12 0-.19-.02-.21a.12.12 0 0 0-.04-.07.1.1 0 0 0-.07-.03.19.19 0 0 0-.11.04.5.5 0 0 0-.12.14v.73c0 .1 0 .16.02.19s.05.05.11.06v.05h-.69v-.05c.06 0 .1-.03.12-.06.02-.02.03-.08.03-.19v-1.38c0-.1-.01-.17-.03-.2-.02-.02-.06-.03-.12-.04v-.05h.56zm2.12 1.42h.7l.1.24.05.11v.06c0 .03 0 .05-.03.06-.03.02-.08.04-.16.04h-.04v.05h.96v-.05a.23.23 0 0 1-.14-.06.99.99 0 0 1-.17-.29l-.71-1.61h-.03l-.7 1.57c-.07.15-.13.25-.17.3a.3.3 0 0 1-.18.09v.05h.66v-.05a.56.56 0 0 1-.2-.04.13.13 0 0 1-.06-.12c0-.04.01-.1.04-.16l.08-.2zm.35-.79l.3.68h-.6l.3-.68zm2.47 1l.05.03a.68.68 0 0 1-.24.27c-.1.06-.2.09-.3.09a.53.53 0 0 1-.44-.2.77.77 0 0 1-.17-.5c0-.18.05-.35.15-.49a.57.57 0 0 1 .5-.25.5.5 0 0 1 .33.1c.08.07.13.15.13.24 0 .06-.02.1-.06.13a.18.18 0 0 1-.13.05.2.2 0 0 1-.14-.05c-.04-.04-.06-.1-.07-.2 0-.07-.02-.11-.04-.13a.1.1 0 0 0-.08-.04c-.04 0-.08.02-.12.07a.62.62 0 0 0-.07.35c0 .13.02.25.06.37.04.11.1.2.17.26a.3.3 0 0 0 .18.06c.05 0 .1-.01.14-.04.04-.02.1-.06.15-.12zm.96.34l.17-.13v.51c0 .07 0 .12-.02.14a.11.11 0 0 1-.05.05.31.31 0 0 1-.13.02v.06h.78v-.06c-.07 0-.13-.02-.15-.05-.02-.03-.02-.08-.02-.17v-1.76h-.05l-.23.16a.4.4 0 0 0-.16-.12.51.51 0 0 0-.2-.04.61.61 0 0 0-.34.1.67.67 0 0 0-.24.28.9.9 0 0 0 .03.83c.1.15.23.23.4.23.07 0 .14-.02.21-.05zm.17-.83v.56a.42.42 0 0 1-.13.12.25.25 0 0 1-.12.04c-.06 0-.1-.03-.14-.1-.06-.08-.09-.22-.09-.43 0-.27.03-.46.1-.56a.2.2 0 0 1 .17-.1c.04 0 .07.01.09.03.04.04.08.08.1.13l.02.31zm2.06-.52v1.06c0 .1 0 .17.03.2.02.02.05.04.11.05v.05h-.55v-.18a.7.7 0 0 1-.2.17.45.45 0 0 1-.21.05.33.33 0 0 1-.2-.07.35.35 0 0 1-.13-.17 1.22 1.22 0 0 1-.03-.33v-.54c0-.1 0-.16-.03-.19-.02-.02-.06-.04-.12-.05v-.05h.56v.93l.01.19.05.06.07.02c.03 0 .06 0 .09-.03a.6.6 0 0 0 .14-.15v-.73c0-.1-.01-.16-.03-.19-.02-.02-.06-.04-.12-.05v-.05h.56zm.83-.6a.22.22 0 0 0-.16-.06.21.21 0 0 0-.16.07.22.22 0 0 0-.07.15c0 .07.03.12.07.16.04.05.1.07.16.07s.11-.02.16-.07c.04-.04.06-.1.06-.16a.22.22 0 0 0-.06-.15zm.04 1.68v-1.08h-.57v.05c.07 0 .1.02.13.05.02.02.04.09.04.18v.8c0 .1-.01.15-.03.17-.03.04-.08.05-.14.06v.05h.74v-.05c-.07 0-.11-.02-.13-.05-.03-.03-.04-.09-.04-.18zm1.16-1.12l.02.46h-.05a.72.72 0 0 0-.18-.28.3.3 0 0 0-.2-.07.14.14 0 0 0-.1.04.12.12 0 0 0-.04.09c0 .03.01.05.03.07.03.04.12.11.26.21.15.1.24.18.29.25a.4.4 0 0 1 .06.22c0 .08-.02.15-.05.22a.4.4 0 0 1-.16.17.46.46 0 0 1-.23.06.79.79 0 0 1-.26-.06.22.22 0 0 0-.06-.02c-.03 0-.06.03-.08.08h-.05l-.02-.5h.05c.04.13.1.23.18.3.07.06.14.09.21.09.05 0 .09-.01.12-.04a.14.14 0 0 0 .04-.1.18.18 0 0 0-.04-.13l-.2-.15c-.15-.1-.24-.18-.29-.24a.41.41 0 0 1-.1-.26c0-.1.04-.2.12-.28.07-.09.17-.13.31-.13.07 0 .14.02.21.05.03.02.05.02.07.02h.04a.3.3 0 0 0 .05-.07h.05zm.79-.55a.22.22 0 0 0-.16-.07.21.21 0 0 0-.16.07.22.22 0 0 0-.07.15c0 .07.03.12.07.16.04.05.1.07.16.07s.11-.02.16-.07c.04-.04.06-.1.06-.16a.22.22 0 0 0-.06-.15zm.04 1.67v-1.08h-.57v.05c.07 0 .1.02.13.05.02.02.04.09.04.18v.8c0 .1-.01.15-.03.17-.03.04-.08.05-.14.06v.05h.74v-.05c-.07 0-.11-.02-.13-.05-.03-.03-.04-.09-.04-.18zm1.62-1.74c.06 0 .12.02.16.07.04.04.07.1.07.15 0 .07-.03.12-.07.16a.22.22 0 0 1-.16.07.22.22 0 0 1-.16-.07.22.22 0 0 1-.06-.16c0-.06.02-.11.06-.15.04-.05.1-.07.16-.07zm.2.66v1.08c0 .1.01.15.04.18.02.03.06.04.13.05v.05h-.74v-.05c.06 0 .1-.02.14-.06.02-.02.03-.08.03-.17v-.8c0-.1-.01-.16-.04-.18-.02-.03-.06-.04-.13-.05v-.05h.57zm1.27.05a.63.63 0 0 0-.33-.1c-.2 0-.35.08-.46.23a.8.8 0 0 0-.17.5c0 .2.05.36.16.5.12.15.27.22.48.22.2 0 .37-.08.49-.24.1-.13.14-.29.14-.48a.85.85 0 0 0-.08-.37.58.58 0 0 0-.23-.26zm-.45.07a.17.17 0 0 1 .13-.06c.04 0 .07.01.1.03.03.03.06.07.08.14a3.36 3.36 0 0 1 0 .9.24.24 0 0 1-.08.13.16.16 0 0 1-.1.04.16.16 0 0 1-.13-.05.28.28 0 0 1-.06-.16 5.02 5.02 0 0 1 0-.75c0-.11.03-.19.06-.22zm1.53-.12v.17a.78.78 0 0 1 .2-.16.42.42 0 0 1 .2-.05c.1 0 .17.02.22.07.06.05.1.11.12.18.02.06.02.17.02.32v.53c0 .1.01.17.03.2.02.02.06.04.12.05v.05h-.69v-.05c.05-.01.1-.03.11-.07.02-.02.03-.08.03-.18v-.6a1 1 0 0 0-.02-.21.12.12 0 0 0-.04-.07.1.1 0 0 0-.07-.03c-.08 0-.16.06-.23.18v.73c0 .1 0 .17.02.2.02.02.06.04.11.05v.05h-.69v-.05c.06 0 .1-.03.13-.06.01-.02.02-.08.02-.19v-.77c0-.1-.01-.16-.03-.19-.02-.02-.06-.04-.12-.05v-.05h.56zm-16.17.02v-.4h-.4v.4h-.18v.14h.17v.74c0 .14 0 .23.02.26.01.06.05.12.11.16.06.05.14.08.22.08.18 0 .3-.1.38-.28l-.04-.04c-.06.1-.12.15-.18.15-.01 0-.03 0-.05-.02a.12.12 0 0 1-.04-.06.7.7 0 0 1 0-.15v-.84h.31v-.14h-.32zm12.81-.42v.4h.32v.15h-.32v.84l.01.15.04.05.05.03c.07 0 .13-.05.18-.15l.04.03c-.07.19-.2.28-.38.28a.34.34 0 0 1-.22-.07.32.32 0 0 1-.11-.16 1.37 1.37 0 0 1-.02-.27v-.73h-.17v-.15h.19v-.4h.4z"/></svg>