<!-- by TradingView --><svg xmlns="http://www.w3.org/2000/svg" width="56" height="56" viewBox="0 0 56 56"><path fill="#F0F3FA" d="M0 0h56v56H0z"/><path d="M12 19h9.4l6.71-1.65 7 1.65H44v-1.95L29.59 11H26.5L12 17.05V19zm32 17H12v6h32v-6z" fill="#C62B16"/><path d="M12 20h7.33c2.03 0 3.67 1.91 3.67 4.27v6.46C23 33.1 21.36 35 19.33 35H12v-3.35h.47v-7.83c0-.3-.21-.54-.47-.54V20zm5.66 3.8v7.78l.92-.61v-6.81l-.92-.35zM31.5 20h-7v3.14h.1c.28 0 .4.22.4.5v7.9c0 .32-.16.58-.5.58V35h7v-2.88c-.3 0-.5-.24-.5-.54v-7.94c0-.28.17-.5.46-.5h.04V20zM33 30.72v-6.44c0-2.36 1.72-4.28 3.83-4.28h4.69c1.37 0 2.48 1.24 2.48 2.77V26h-5v-2.5h-1V32h1v-2.71c0-.23 0-.29.25-.29H44v3.48c0 1.4-1 2.52-2.25 2.52h-4.92C34.72 35 33 33.08 33 30.72z" fill="#004A7A"/></svg>