<!-- by TradingView --><svg width="56" height="56" viewBox="0 0 56 56" xmlns="http://www.w3.org/2000/svg"><path fill="url(#ahgmykjwu)" d="M0 0h56v56H0z"/><path d="M6.5 25c1.72 0 3 1.22 3 3s-1.28 3-3 3H4v-6h2.5Zm-.36 5C7.24 30 8 29.08 8 28c0-1.25-.83-2-1.86-2H5.5v4h.64ZM11.5 25v6H10v-6h1.5ZM14.8 31a3.1 3.1 0 0 1-1.16-.2 1.93 1.93 0 0 1-.83-.63c-.2-.27-.31-.6-.32-.98h1.54c.02.22.1.38.23.5.13.11.3.17.5.17.22 0 .39-.05.51-.15a.5.5 0 0 0 .2-.4.47.47 0 0 0-.16-.36c-.1-.1-.22-.18-.37-.24a5.58 5.58 0 0 0-.6-.2c-.39-.12-.7-.24-.95-.36a1.73 1.73 0 0 1-.62-.51 1.43 1.43 0 0 1-.27-.9c0-.54.2-.97.6-1.27.4-.31.93-.47 1.57-.47.66 0 1.19.16 1.59.47.4.3.61.73.64 1.28h-1.57a.59.59 0 0 0-.2-.44.74.74 0 0 0-.5-.17.62.62 0 0 0-.43.15c-.1.08-.16.21-.16.39 0 .19.09.33.27.44.18.1.46.22.85.34.38.13.7.25.93.37.24.12.45.29.63.5.17.23.26.52.26.87 0 .33-.09.63-.26.9-.17.28-.42.5-.75.66a2.6 2.6 0 0 1-1.16.24ZM21.03 31l-1.23-2h-.3v2H18v-6h2.43c1.1 0 2.07.82 2.07 1.99 0 .82-.43 1.62-1.2 1.85L22.67 31h-1.64Zm-1.53-3h.85c.53 0 .68-.55.68-1.01 0-.44-.15-.99-.68-.99h-.85v2ZM25 25v3.59c0 .7.28 1.41.96 1.41.68 0 1.04-.71 1.04-1.41V25h1.5v3.58c0 1.46-1.12 2.42-2.54 2.42-1.44 0-2.46-.97-2.46-2.42V25H25ZM34 27c0 1.23-1.02 2-2.15 2H31v2h-1.5v-6h2.35C33 25 34 25.75 34 27Zm-2.26 1c.55 0 .76-.53.76-1s-.2-1-.76-1H31v2h.74ZM39 25v1h-1.5v5H36v-5h-1.66v-1H39ZM41 25v6h-1.5v-6H41ZM47.75 25l-2.1 6h-1.82l-2.11-6h1.54l1.47 4.5 1.49-4.5h1.53ZM50 26.23v1.18h2v1.1h-2v1.29h2v1.14h-3.5V25H52v1.23h-2Z" fill="#fff"/><defs><linearGradient id="ahgmykjwu" x1="10.42" y1="9.71" x2="68.15" y2="76.02" gradientUnits="userSpaceOnUse"><stop stop-color="#1A1E21"/><stop offset="1" stop-color="#06060A"/></linearGradient></defs></svg>