<!-- by TradingView --><svg width="56" height="56" viewBox="0 0 56 56" xmlns="http://www.w3.org/2000/svg"><path fill="#F0F3FA" d="M0 0h56v56H0z"/><path d="M45.6 30h-2.42v-.28c.52-.14.77-1 .82-1.41v-4.07c0-.59-.4-.92-.6-1.01V23h2.36l3.8 4c.02-.4.02-1.43-.1-2.42-.14-1-.72-1.28-1-1.3V23H51v.28c-.7.18-1.02 1.43-1 2.03V30h-.33l-5.23-5.76c-.02.28-.04 2.63 0 3.76 0 1 .79 1.72 1.15 1.72V30ZM34.73 23.85l-.55 1.86c-.11-.73-.66-2.26-2.02-2.26-1.92 0-2.16 2.26-2.16 3.1 0 .85.4 3.11 2.16 3.11 1.4 0 2-1.58 2.13-2.37l.71 1.8c-.47.3-1.7.91-2.84.91-2.63 0-4.16-1.35-4.16-3.56 0-2.2 2.13-3.44 3.94-3.44 1.44 0 2.46.56 2.79.85Z" fill="#CF000B"/><path fill-rule="evenodd" d="M38.5 30a3.5 3.5 0 1 0 0-7 3.5 3.5 0 0 0 0 7Zm0-.34c.98 0 1.5-1.41 1.5-3.16 0-1.75-.52-3.16-1.5-3.16S37 24.75 37 26.5c0 1.75.52 3.16 1.5 3.16ZM11 34H4v-.33c3.4-.32 9.82-8.28 10.78-9.47l.11-.13c-.04-.27-.55-.52-.89-.62V23c1.83 0 5.4-1.3 7-2v2h-1.25v.23c.22.04.68.23.68.7v3.7c0 .5-.2 1.72-1.02 2.14V30H21v1.43c0 1.57.9 2.22 1.36 2.35V34h-9.92v-.33c1.87-.14 2.49-1.4 2.56-2.01V30h-4.35a3.98 3.98 0 0 0-.65 2c0 1.06.6 1.55 1 1.67V34Zm4-9.37V29h-3.7a47.68 47.68 0 0 1 3.7-4.37Z" fill="#CF000B"/><path d="M21 30v-7h1.35l2.02 4.05L26 23h1.31v.23c-.25 0-.31.23-.31.35v4.74c0 1.07.35 1.41.52 1.45V30h-2.09v-.23c.17-.05.45-.6.57-.87v-4.63L23.64 30l-2.38-5.5v3.7c0 .89.62 1.45.93 1.57V30H21Z" fill="#CF000B"/><path d="M23 30h27v4H23z"/><path fill="#fff" fill-opacity=".5" d="M24 31h25v2H24z"/></svg>