<!-- by TradingView --><svg width="56" height="56" viewBox="0 0 56 56" xmlns="http://www.w3.org/2000/svg"><path fill="#F0F3FA" d="M0 0h56v56H0z"/><path d="M26.71 11.05a16.8 16.8 0 0 0-11.22 5.62 17.59 17.59 0 0 0-4.21 8.56 16.56 16.56 0 0 0 1.44 10.4 16.9 16.9 0 0 0 7.7 7.61 17.3 17.3 0 0 0 11.04 1.41A16.9 16.9 0 0 0 44.53 32.2 17 17 0 0 0 40.74 17a17.53 17.53 0 0 0-5.43-4.23 16.4 16.4 0 0 0-8.6-1.72Zm2.3 2.8a14.4 14.4 0 0 1 11.28 6.86 14.35 14.35 0 0 1 2.02 8.72 14.33 14.33 0 0 1-13.43 12.94 14.48 14.48 0 0 1-11.69-4.86 14.26 14.26 0 0 1-3.49-10.87A14.3 14.3 0 0 1 29 13.85Z" fill="#A41F4C"/><path d="M27.02 15.05c-.14.13-.08.3.13.4a.3.3 0 0 1 .16.12c.05.12.05 3.7 0 3.8-.03.05-.1.1-.16.14-.16.07-.23.18-.2.29.06.16.06.2 1.88.2 1.87 0 1.8-.03 1.95-.23a1 1 0 0 0 .2-.6c.02-.22.01-.27-.03-.32-.1-.1-.2-.06-.41.17-.24.24-.42.33-.8.4-.32.05-.84.06-1.1.02-.29-.06-.27.36-.27-1.89v-1.97l.08-.07c.05-.04.1-.08.13-.08.02 0 .07-.02.1-.05.1-.08.1-.25 0-.32-.06-.05-.13-.06-.84-.06-.66 0-.78 0-.82.05Zm-3.01.63-.69.3-1.12.5c-1.36.62-1.37.63-1.37.77 0 .15.08.22.25.22.11 0 .17.01.23.07.04.04.2.36.4.82l.77 1.77c.25.56.45 1.06.44 1.1 0 .06-.04.14-.1.2-.1.11-.11.22-.06.32.07.13.23.08 1.07-.3l1.63-.73c.88-.4.96-.46 1-.65.03-.19-.15-.72-.28-.8-.13-.08-.3.08-.36.38-.05.18-.2.34-.51.53-.29.19-1.03.54-1.17.57-.14.03-.24-.04-.35-.27a19.6 19.6 0 0 1-.65-1.49c0-.02.01-.04.04-.05l.58-.27c.3-.13.59-.26.64-.27.06 0 .17 0 .25.02.3.09.38-.03.25-.38-.22-.56-.38-.65-.57-.32a.77.77 0 0 1-.18.22c-.1.07-1.16.54-1.21.54-.05 0-.58-1.22-.58-1.33 0-.14.12-.24.5-.42.79-.37 1.07-.44 1.44-.33.36.1.44.05.33-.22-.14-.36-.3-.57-.43-.56a.88.88 0 0 0-.2.06Zm8.86.03a2 2 0 0 0-.31.3c-.3.3-.35.44-.23.54.06.05.1.05.22.04l.44-.04c.28-.02.3-.01.51.08.28.12.42.23.42.33 0 .09-.07.2-1.11 1.9-.9 1.48-.93 1.52-1.01 1.56a.3.3 0 0 1-.21 0c-.28-.06-.43.17-.23.35a17 17 0 0 0 1.27.82c.13.06.24.03.29-.07.04-.1.02-.18-.08-.3a.32.32 0 0 1-.07-.18c0-.1 0-.12.85-1.5l.81-1.33c.45-.74.44-.73.76-.53.3.2.45.42.55.84.08.32.26.43.4.27.07-.06.3-.7.3-.8a.23.23 0 0 0-.06-.12 482.53 482.53 0 0 1-3.4-2.17.2.2 0 0 0-.1.01Zm-13.72 3.62c-.55.12-1.09.45-1.64.99A18.9 18.9 0 0 0 16 22.2c0 .1.02.15.12.2.05.03.1.02.2-.03a.7.7 0 0 1 .2-.06c.07 0 .4.26 2.1 1.73l.98.85v.13c0 .08-.01.17-.03.22-.03.1.08.24.2.24.1 0 .17-.06 1-1.08.88-1.08 1.08-1.4 1.23-2.02.07-.3.07-.83 0-1.1a2.91 2.91 0 0 0-.4-.84c-.32-.44-.93-.9-1.4-1.06a2.49 2.49 0 0 0-1.05-.05Zm19.18.74a22.72 22.72 0 0 0-3.92 1.33c-.28.13-.54.23-.56.23a.62.62 0 0 1-.16-.05c-.17-.07-.28-.06-.36.04-.11.14-.1.15.46.81.23.27.3.31.42.24.1-.07.13-.18.09-.34-.03-.1-.03-.14.01-.2s.94-.53 1.02-.53c.02 0 .2.2 1.01 1.16l.35.4-.27.46c-.14.25-.3.5-.33.53-.08.08-.08.08-.2.03-.18-.07-.2-.07-.32.03-.08.07-.1.1-.08.16 0 .05.2.29.41.54.65.76.67.78.84.6.08-.08.08-.1.06-.27-.02-.21-.03-.2.5-1.15a40.6 40.6 0 0 0 1.23-2.38c.2-.44.47-1.14.47-1.2 0-.07-.22-.35-.32-.4a.6.6 0 0 0-.35-.04Zm-18.8.23a2.7 2.7 0 0 1 1.6 1.55c.15.48.1.96-.14 1.44-.14.25-.42.6-.54.67-.18.1-.23.07-1.06-.64-2.22-1.9-2.15-1.82-2.02-2.07.13-.27.58-.7.88-.86a1.87 1.87 0 0 1 1.27-.1Zm18.41.35a47.03 47.03 0 0 1-1 2c-.02 0-.57-.64-.95-1.1-.12-.14-.13-.16-.08-.18a253.44 253.44 0 0 1 2.03-.72ZM21.53 36.7c-.01.03 0 .08.01.13.02.04.03.1.02.11l-.52.74c-.48.67-.5.7-.6.7-.05-.01-.1 0-.12.04-.05.07-.01.1.7.63.67.5.7.5.87.33.1-.11.12-.23.05-.23l-.21-.01c-.16 0-.2-.02-.44-.18-.34-.23-.36-.25-.3-.36.04-.1.37-.58.42-.62.06-.05.48.28.55.43.03.07.07.12.09.12.04 0 .15-.12.2-.22.07-.12.04-.18-.09-.18-.08 0-.16-.04-.34-.17l-.24-.2c0-.02.08-.14.17-.28.12-.17.2-.24.24-.24.07 0 .4.22.52.35.04.04.1.14.13.22.03.09.07.16.1.16.05.01.18-.2.18-.3 0-.06-.13-.17-.64-.55a6.22 6.22 0 0 0-.68-.47.08.08 0 0 0-.07.05Zm12.73.27c-.17.05-.43.23-.53.39-.25.36-.07.8.23.55.1-.07.1-.13.02-.24-.09-.11-.08-.23.03-.34.17-.17.41-.1.55.16.11.2.05.41-.19.58-.14.1-.18.2-.1.23.03 0 .13-.03.23-.08.24-.11.43-.12.55 0 .28.25.28.68-.02.82-.17.08-.26.06-.4-.07-.13-.14-.2-.16-.32-.06-.11.09-.1.2.03.32.1.11.11.11.34.1.27-.02.5-.12.71-.32.2-.19.28-.34.28-.57 0-.4-.29-.66-.68-.6h-.14l.07-.1a.5.5 0 0 0 .08-.28c.01-.15 0-.2-.06-.28-.11-.16-.22-.23-.4-.24-.1 0-.22 0-.28.02Zm-11.07.9a.66.66 0 0 0-.41.41c-.07.2-.06.25.03.44.06.12.16.22.36.4.15.12.3.27.34.32.13.21.04.45-.2.51-.23.07-.6-.1-.72-.33a.98.98 0 0 1-.06-.26c-.04-.28-.18-.35-.29-.15-.13.24.18.7.61.9.18.09.24.1.46.1.2 0 .27-.01.37-.06a.68.68 0 0 0 .4-.62c0-.21-.12-.38-.45-.64s-.43-.42-.37-.57c.1-.23.35-.29.6-.13.18.12.27.26.27.42 0 .13.05.2.12.2.06 0 .2-.3.17-.37-.03-.12-.34-.39-.55-.5-.23-.1-.5-.14-.68-.07Zm9.16.12a.8.8 0 0 0-.42.35c-.07.12-.08.19-.1.43-.01.45.13.83.45 1.18.28.29.58.4.88.3.34-.12.52-.37.54-.76.02-.48-.14-.9-.49-1.23-.29-.29-.56-.37-.86-.27Zm.42.39c.27.29.56.98.56 1.32 0 .24-.08.34-.26.34-.12 0-.15-.01-.29-.16a2.9 2.9 0 0 1-.51-.96c-.08-.27-.1-.5-.02-.62.12-.18.3-.15.52.08Zm-7.79.04c-.11.14-.17.37-.1.4.02.02.12-.01.23-.06.16-.07.2-.08.33-.05.12.02.14.04.15.1.01.06-.3 1.42-.38 1.64-.03.08-.06.1-.13.12-.09.01-.14.1-.08.15.03.04.61.19.7.19.12 0 .13-.09.03-.18-.09-.1-.1.02.17-1.1l.17-.73h.1c.13 0 .3.1.39.25.16.23.26.17.25-.14l-.01-.18-.19-.05c-.31-.1-1.53-.4-1.56-.4l-.07.04Zm5.4.14c-.34.11-.54.35-.57.68-.02.22.05.44.18.58.1.12.18.16.37.2a.8.8 0 0 0 .6-.16l.16-.13-.01.2a.95.95 0 0 1-.6.84c-.15.06-.2.1-.2.14 0 .09.08.1.24.06.35-.09.61-.28.82-.6a1.5 1.5 0 0 0 0-1.5c-.2-.33-.59-.45-1-.31Zm-1.66.16a1.5 1.5 0 0 1-.32.14c-.2.07-.25.1-.25.17 0 .05.03.06.2.06.1 0 .21.01.24.03.02.01.04.08.05.16.04.37.1 1.36.08 1.42 0 .07-.04.1-.19.14-.13.04-.17.07-.17.11 0 .06.01.07.43.06.24 0 .52-.02.61-.03.16-.02.17-.03.17-.1s-.02-.08-.14-.11a.52.52 0 0 1-.19-.07 6.5 6.5 0 0 1-.1-1.02c-.04-.54-.08-1-.1-1.02-.03-.06-.18-.03-.32.06Zm2.12.12c.17.2.23.55.13.76-.04.1-.2.2-.31.2-.12 0-.26-.13-.33-.3-.1-.26-.07-.56.05-.69.07-.07.12-.1.22-.1.12 0 .15.02.24.13Zm-4.4 1.74a.32.32 0 0 0-.12.12c-.04.08-.04.1.02.17.08.11.2.15.31.1.19-.07.18-.33-.01-.4-.1-.04-.1-.04-.2 0ZM18 35.98c.02.04 20 0 20 0L28.4 22 18 35.98Z" fill="#004579"/></svg>