<!-- by TradingView --><svg xmlns="http://www.w3.org/2000/svg" width="56" height="56" viewBox="0 0 56 56"><path fill="#F0F3FA" d="M0 0h56v56H0z"/><path fill-rule="evenodd" d="M45 28c0 2.64-.6 4.77-1.67 7h-3.3c.43-.41.86-.75.86-1.8 0-1.47-1.15-2.48-2.01-2.9a.27.27 0 0 0-.35.13c-.08.16 0 .35.15.43.63.31 1.58 1.05 1.58 2.26 0 1.05-.54 1.52-.88 1.88h-1.33a6.74 6.74 0 0 0-2.86-4.58c-.84.24-1.47.04-1.69-.08-.38.93-.74 3.25-.9 4.66h-5.96c-.33-2.14-1.77-4.85-2.48-6.16l-.93-.5c-.36.16-.76.07-.92 0-.24.29-.78.62-1.02.75-1.65 1.31-3.31 4.22-4.04 5.91h-4.58A15.39 15.39 0 0 1 11 28a17 17 0 0 1 34 0zM28 45c-4.51 0-8.61-2.13-11.66-5h23.32C36.6 42.87 32.5 45 28 45zm-6.4-28.5c.15.86.45 2.85.37 3.94l-.03.72c-.04 1.55-.1 3.98-1.71 4.72-1.5.7-2.6-.28-2.95-.85-.23-.33-.58-1.48-.18-3.5l1.99-.52.33-3.25c-.2.92-.68 2.8-.94 2.96-.2.12-.5.18-.84.24-.24.04-.5.09-.74.16a7.36 7.36 0 0 1-1.05-2.5c.15-.4.81-1.46 2.25-2.4.3.21.99.65 1.32.73l.3-.08c.44-.13 1.22-.37 1.88-.37zm-1 5.08v.38a2.66 2.66 0 0 0-1.3.1c-.51.18-.91.8-1.05 1.09l-.37-.17c.16-.35.62-1.1 1.15-1.3.53-.2 1.27-.15 1.58-.1zm-.95 3.37a1 1 0 1 0 0-2 1 1 0 0 0 0 2zm-.2-1.55a1.9 1.9 0 0 0-.16.79c-.08-.03-.22-.12-.24-.27-.02-.15.25-.41.4-.52zm-.3 3.15c.4.22 1.32.64 1.99.63.82-.02 1.32-1 1.32-1.45l-.03-.36c-.06-.6-.16-1.55.5-1.54.67.01.51.86.42 1.34l-.04.27c0 .29.03 1.74.75 1.74.57 0 1.8-.56 2.35-.84a3 3 0 0 1-2.69-3.09c-.04-2.27-.2-5.39-.27-6.66h-1.37c.12 1.33.32 4.25.18 5.32-.03.2-.04.42-.05.65-.09 1.4-.2 3.34-3.05 4zm3.17 1.1c-.01.2-.2.67-.82.84l-.23.06c-.7.2-1.3.36-1.28-.06.04-.48.27-1 .6-1l.55.07c.39.05.86.11 1.18.08zm1.08.42c.03-.12.01-.35 0-.44.6 0 1.45-.2 1.8-.31.02-.02.12.08.36.57.3.62-.12.88-.43.84-.24-.04-1.26-.45-1.73-.66zm-.56 0a.3.3 0 1 0 0-.58.3.3 0 0 0 0 .59zm.25-1.44c0 .16-.11.3-.25.3s-.25-.14-.25-.3c0-.16.1-.3.25-.3.14 0 .25.14.25.3zm.8-6.36c-.08-1.12-.21-2.98-.08-3.74a11.81 11.81 0 0 1 2.02.21l.17-.04c.31-.06.7-.15.95-.32 1.76 0 2.44 1.02 2.58 1.41-.07.4-.13.99-.18 1.57-.09.9-.18 1.81-.33 2.04l-.27-.08c-.58-.18-1.41-.44-1.68-.6-.25-.16-.74-1.47-.94-2.36L26.7 21l1.83.6c.38 1.96.05 3.08-.17 3.39a2.15 2.15 0 0 1-2.8.82c-1.53-.72-1.59-3.07-1.63-4.57 0-.26-.01-.5-.03-.7 0-.08 0-.18-.02-.28zm1.3 1.65v-.36c.3-.05 1-.1 1.5.1.5.18.94.9 1.1 1.23l-.36.15c-.13-.27-.5-.85-1-1.03a2.52 2.52 0 0 0-1.23-.1zm-.03 1.89a.95.95 0 1 0 1.9 0 .95.95 0 0 0-1.9 0zm.46.23c0-.35.1-.65.15-.75-.13.1-.4.34-.38.5.02.14.16.22.23.25zm8.22 4.57l-.08.43c.52.32 1.1.2 1.33.1l.02-.34c5.26.16 5.87-3.45 5.52-5.27.62-.78 1.7-2.47 1.15-2.98-.55-.5-2.04-.05-2.71.24-1.6-2.04-4.35-1.8-5.53-1.44-.46-.7-1.56-1.97-2.24-1.45-.68.52-.56 2.28-.4 3.1-1.17.83-1.44 2.49-1.43 3.22.09 2.93 2.95 4.15 4.37 4.4zm-.68-3.6l-.73.83a.17.17 0 1 1-.25-.23l.33-.34-.42-.1-.69.4a.17.17 0 1 1-.15-.3l.5-.23-.1-.17h-.73a.12.12 0 1 1 0-.24h.5l-.05-.32a.16.16 0 0 1 .13-.17c.09-.02.17.04.19.13.06.23.2.54.47.63.28.1.62-.02.8-.12.06-.03.11-.03.16 0 .1.04.11.16.04.23zm2.33-.09h-.94c-.12.51.13.84.27.95-.01.08-.04.28-.04.46 0 .23-.36.42-.52.42a.38.38 0 0 1-.36-.37c0-.13.11-.27.22-.38.08-.08.09-.2.02-.28-.05-.05-.13-.07-.2-.03a.81.81 0 0 0-.37.69c0 .55.6.63.7.63.07 0 .4-.1.55-.15.06.1.28.32.67.32.48 0 .62-.47.62-.68 0-.2-.08-.37-.2-.5-.1-.14-.42 0-.27.13a.5.5 0 0 1 .16.33c0 .32-.17.44-.36.44-.16 0-.29-.2-.33-.3V26c.5-.55.46-.95.38-1.08zm3.83.98c0 .33-.46.6-1.03.6-.57 0-1.03-.27-1.03-.6 0-.33.46-.6 1.03-.6.57 0 1.03.27 1.03.6zm-6.1 3.86c.12 0 .22-.16.22-.36 0-.2-.1-.36-.23-.36s-.23.16-.23.36c0 .2.1.36.23.36zm2.4.06c-.03.17-.15.3-.28.28-.12-.02-.2-.17-.18-.34.02-.17.14-.3.27-.28.12.02.2.17.19.34zm-1.39.4c.21 0 .38-.15.38-.35 0-.2-.17-.36-.38-.36-.2 0-.38.16-.38.36 0 .2.17.36.38.36zM33.62 39.5h-2.38c-.13 0-.24-.1-.24-.22v-3.06c0-.12.1-.22.24-.22H34l-.38.8h-1.84v.5h2.1l-.26.7h-1.84v.76H34l-.38.74zm3.29-2.72l.3-.78h-2.1c-.61 0-1.11.48-1.11 1.06 0 .6.5.94 1.11.94h1.33c.18 0 .32.26.32.43 0 .17-.14.3-.32.3h-1.92l-.36.77h2.2a1.1 1.1 0 0 0 1.14-1.08c0-.6-.5-1.08-1.13-1.08H35.1a.29.29 0 0 1-.3-.28c0-.16.14-.28.3-.28h1.8zm3.5 0l.3-.78h-2.1c-.61 0-1.11.48-1.11 1.06 0 .6.5.94 1.11.94h1.33c.18 0 .32.26.32.43 0 .17-.14.3-.32.3h-1.92l-.36.77h2.2A1.1 1.1 0 0 0 41 38.42c0-.6-.5-1.08-1.13-1.08H38.6a.29.29 0 0 1-.3-.28c0-.16.14-.28.3-.28h1.8zM15.44 39.5l-.44-.37V36h1.81c.93 0 1.69.78 1.69 1.75s-.76 1.75-1.69 1.75h-1.37zm.29-.5v-2.5h1.06c.57 0 1.04.56 1.04 1.25S17.36 39 16.79 39h-1.06zm9.8-.61v-.26h-.7l.31-.73h1.13c.1 0 .24.13.24.24v.58h-.01c-.21.74-.9 1.28-1.72 1.28-.98 0-1.78-.78-1.78-1.75S23.8 36 24.78 36c.59 0 1.11.28 1.44.71l-.68.41a1 1 0 0 0-1.77.63 1 1 0 1 0 1.76.64zM27 39.5V36h.72c.17 0 .32.08.4.21l1.6 2.45V36h.78v3.5h-.86a.48.48 0 0 1-.4-.2l-1.45-2.18v2.38H27z" fill="#0055A0"/><path fill-rule="evenodd" d="M22.5 37.75a1.75 1.75 0 1 1-3.5 0 1.75 1.75 0 0 1 3.5 0zm-.4 0a1.36 1.36 0 1 1-2.7 0 1.36 1.36 0 0 1 2.7 0zm-1.35 1.01a1.01 1.01 0 1 0 0-2.02 1.01 1.01 0 0 0 0 2.02z" fill="#E70"/></svg>