<!-- by TradingView --><svg width="56" height="56" viewBox="0 0 56 56" xmlns="http://www.w3.org/2000/svg"><path fill="#11284B" d="M0 0h56v56H0z"/><path d="M30.84 42h-.53a24.36 24.36 0 0 0-1.91-1.38c-3.03-1.87-9.16-5.6-18.4-11.2v-.73l1.68-1.56c.08-.08.08-.15 0-.23l-.57-.56a.74.74 0 0 1-.22-.56.73.73 0 0 1 .28-.54L25.05 14.2c.34-.28.7-.28 1.05-.01l19.57 14.76a.84.84 0 0 1 .33.65.82.82 0 0 1-.32.66L30.84 42ZM43.8 29.75a.15.15 0 0 0 .05-.11.14.14 0 0 0-.06-.11l-18.1-13.66a.15.15 0 0 0-.18 0l-12.43 9.88a.14.14 0 0 0-.06.12.14.14 0 0 0 .06.1l17.45 14.14a.15.15 0 0 0 .18 0L43.8 29.75Zm-31-1.48c-.19.13-.36.28-.52.47-.08.09-.07.16.03.22l7.54 4.6h.02l.02-.02a.03.03 0 0 0 0-.03l-6.73-5.42c-.1-.08-.2-.08-.3.02a.25.25 0 0 0-.07.16Zm15.24-7.92-5.47 4.6a.76.76 0 0 0-.08 1.08l.02.03a.8.8 0 0 0 1.1.08l5.48-4.6a.76.76 0 0 0 .08-1.09l-.02-.02a.8.8 0 0 0-1.11-.08ZM25.9 28.2l5.95-5.02a.78.78 0 0 1 1.08.08l.05.05c.28.31.24.79-.08 1.06l-5.95 5.02a.78.78 0 0 1-1.08-.08l-.05-.05a.74.74 0 0 1 .08-1.06Zm-3.41-.44-1.82-1.7a.18.18 0 0 0-.25.01l-1.32 1.35a.17.17 0 0 0 0 .25l1.82 1.69c.07.06.19.06.25 0L22.5 28a.17.17 0 0 0 0-.24Zm7.06 4.41 6.34-5.24a.8.8 0 0 1 1.11.09l.02.02c.28.33.24.82-.1 1.1l-6.33 5.23a.8.8 0 0 1-1.12-.09l-.02-.02a.76.76 0 0 1 .1-1.09Zm-3.7-1.37-1.81-1.65a.2.2 0 0 0-.28 0l-1.27 1.33a.19.19 0 0 0 .01.27l1.81 1.66c.08.07.2.07.28 0l1.27-1.33a.19.19 0 0 0-.01-.28Zm1.57 1.61 1.9 1.74c.05.05.06.13 0 .19l-1.36 1.42a.14.14 0 0 1-.19 0l-1.9-1.74a.13.13 0 0 1 0-.18l1.37-1.42a.14.14 0 0 1 .18 0Z" fill="#fff"/></svg>