<!-- by TradingView --><svg width="56" height="56" viewBox="0 0 56 56" xmlns="http://www.w3.org/2000/svg"><path fill="#F0F3FA" d="M0 0h56v56H0z"/><path fill-rule="evenodd" d="M28 39c6.02 0 11-4.98 11-11s-4.98-11-11-11-11 4.98-11 11 4.98 11 11 11Zm0 1a12 12 0 1 0 0-24 12 12 0 0 0 0 24Z" fill="#006097"/><path d="M22.05 22.86c-.36.08-.7.14-1.04.14-.4 0-.81-.08-1.22-.16a.64.64 0 0 0-.41.05.63.63 0 0 0-.3.27.5.5 0 0 0-.06.39c.14.65.54 1.07.56 1.86v5.16c-.02.79-.44 1.22-.56 1.86a.48.48 0 0 0 .05.38c.07.11.18.2.31.27.13.05.27.06.4.04.28-.05.56-.1.82-.12.49-.04.98 0 1.45.12 1.08.23 2.1.88 3.38.88.66 0 1.18-.08 1.84-.24 0 0-1.13-.87-1.26-.95h-.64c-1.32 0-2.35-.7-2.37-2.09v-5.47c0-1.35 1.07-2.1 2.4-2.05 1.11 0 2.01.76 2.56 1.6.6.9 1.04 1.63 1.04 2.7v.7c0 .98-.4 1.93-.91 2.78 0 .02-.05.04-.06.04-.02 0-.06-.02-.07-.04-.5-.85-.45-1.8-.46-2.78v-.65c0-.9.31-1.44.31-2.35 0-.34-1.46-1.88-1.78-1.58l-.13.09a5.74 5.74 0 0 0-1.9 4.07v.51a5.5 5.5 0 0 0 1.87 3.95c.15.15.32.3.5.44a7.65 7.65 0 0 0 4.14 1.3c1.97 0 3.68-1.17 5.68-.82.13.03.27.01.4-.04a.7.7 0 0 0 .28-.27.63.63 0 0 0 .07-.37c-.2-.71-.9-1.08-.9-1.96v-1c0-.32-.32-.63-.67-.6-.93 0-2.29.82-2.29 1.77v.2c-.07.8-.54 1.53-1.39 1.74-.37.1-.8.18-1.18.18-.1-.01-.82-.1-.72-.29A5.63 5.63 0 0 0 32 28.24v-.5a5.65 5.65 0 0 0-1.86-4l-.34-.3c0-.04-.02-.1.04-.1.23-.08.47-.13.72-.15 1.63 0 2.41.76 2.6 2.17.47 1.04.86 1.56 2.22 1.66h.02c.35.05.68-.28.67-.6v-.92c0-.9.7-1.25.92-1.96a.64.64 0 0 0-.06-.38.65.65 0 0 0-.7-.32 5.5 5.5 0 0 1-2.27.01c-1.1-.31-2.23-.92-3.41-.84-.88 0-1.67.1-2.5.4h-.06a8.3 8.3 0 0 0-2.62-.4c-1.32 0-2.16.51-3.32.85Zm-.33 1.38c-.1.33-.2.67-.2 1.01v6.35L21 32v-6.68c-.03-.35.07-.72-.06-1.05 0-.04 0-.09.06-.09.2 0 .42 0 .63-.04.06 0 .08.06.08.1Zm13.35.03c-.14.38-.22.78-.22 1.18 0 .07.02.21-.1.18a.75.75 0 0 1-.27-.35c-.1-.32-.03-.7-.13-1.04-.08-.14.72-.22.72.03Zm-.08 7.52c-.23 0-.5.08-.69 0-.07-.1.12-.62.12-.76 0-.22.04-.7.41-.6 0-.03 0 .01 0 0 0 .12.18 1.17.16 1.36Zm-5.43-6.7c.02-.04.03-.05.08-.05a7.2 7.2 0 0 1 1.03 2.77v.42a4.3 4.3 0 0 1-.97 2.69c-.02 0-.14.08-.14-.01.14-.2.43-2.25.44-2.66v-.44c0-.6-.36-2.2-.44-2.73Zm-3.1.02c-.37.85-.42 1.7-.42 2.62v.45c.01.9.43 1.88.43 2.7 0 .03-.01.05-.03.07-.48-.22-.92-2.38-.94-2.95v-.45c.03-.98.19-1.73.84-2.5.05-.07.12-.02.12.06Z" fill="#006097"/><path fill-rule="evenodd" d="M27.5 46h1A18 18 0 0 0 46 28.5v-1a17.94 17.94 0 0 0-5.17-12.12l.02-.03-.7-.7-.04.03a18 18 0 0 0-5.65-3.49l.01-.03-.94-.32-.01.02c-1.59-.5-3.27-.8-5.02-.85V10h-1A18 18 0 0 0 10 27.5v1A18 18 0 0 0 27.5 46Zm1-1c2.21-.07 4.32-.56 6.25-1.4l-.45-.89A15.93 15.93 0 0 1 28.5 44v1Zm-1-1.5V43c-1.5-.06-2.94-.33-4.3-.78l-.22.45c1.42.49 2.94.77 4.52.82Zm-5.46-1.19.22-.45c-1.94-.8-3.68-2-5.1-3.5l-.4.32a15.53 15.53 0 0 0 5.28 3.63ZM16.38 39c1.52 1.6 3.36 2.9 5.43 3.76l-.45.9a17.04 17.04 0 0 1-5.75-4.02l.77-.64Zm-.28-1.07.38-.32c-.83-1-1.54-2.11-2.1-3.31l-.5.12a15.5 15.5 0 0 0 2.22 3.51Zm-2.7-3.39a16 16 0 0 0 2.32 3.71l-.77.64a17 17 0 0 1-2.54-4.1l.98-.25Zm.1-1.05.49-.13A14.94 14.94 0 0 1 13 28.5h-.5c.05 1.75.4 3.43.99 4.98ZM12 28.5c.06 1.8.41 3.51 1.01 5.1l-.98.25a16.94 16.94 0 0 1-1.02-5.35h1Zm.5-1h.5c.06-1.6.36-3.14.88-4.57l-.47-.18a15.45 15.45 0 0 0-.9 4.75Zm.44-4.92c-.55 1.54-.88 3.2-.93 4.92h-1c.05-1.85.4-3.62 1-5.28l.93.36Zm.84-.76.47.18a15 15 0 0 1 2.32-3.72l-.35-.35a15.5 15.5 0 0 0-2.44 3.9Zm2.08-4.25a16 16 0 0 0-2.55 4.08l-.94-.36a17 17 0 0 1 2.79-4.43l.7.71Zm1.03-.38.36.35a15.04 15.04 0 0 1 4.26-3.07l-.2-.46c-1.65.8-3.15 1.87-4.42 3.18Zm4.23-3.64a16.04 16.04 0 0 0-4.58 3.28l-.7-.7a17.05 17.05 0 0 1 4.89-3.5l.39.92Zm1.11.06.2.46c1.58-.63 3.28-1 5.07-1.06v-.5c-1.86.06-3.63.44-5.27 1.1ZM27.5 12c-1.93.06-3.77.46-5.46 1.14l-.4-.92c1.82-.73 3.8-1.16 5.86-1.22v1Zm1 1.5v.5c1.3.04 2.56.27 3.75.65l.16-.48c-1.24-.4-2.55-.63-3.91-.67Zm4.85 1.01-.15.48a14 14 0 0 1 4.08 2.52l.35-.36a14.5 14.5 0 0 0-4.28-2.64ZM38 16.81a15 15 0 0 0-4.48-2.76l.16-.48a15.5 15.5 0 0 1 4.67 2.88l-.35.36Zm.37 1.04-.36.35a14.03 14.03 0 0 1 2.76 4.02l.47-.16c-.7-1.57-1.68-3-2.87-4.2Zm3.35 4.05a15.03 15.03 0 0 0-3-4.4l.35-.36a15.53 15.53 0 0 1 3.13 4.6l-.48.16ZM41.6 23l-.47.16c.5 1.36.8 2.82.85 4.35h.5c-.05-1.58-.36-3.1-.88-4.51ZM43 27.5c-.05-1.64-.37-3.2-.9-4.67l.47-.16c.55 1.52.88 3.14.93 4.83H43Zm-.5 1H42c-.05 1.5-.34 2.93-.82 4.27l.45.23c.51-1.41.82-2.92.87-4.5Zm-.42 4.72c.54-1.47.87-3.06.92-4.72h.5c-.05 1.74-.4 3.4-.97 4.95l-.45-.23Zm-.83.7-.45-.22a14 14 0 0 1-2.07 3.3l.35.36a14.5 14.5 0 0 0 2.17-3.43Zm-1.81 3.8a15 15 0 0 0 2.25-3.57l.45.23c-.6 1.34-1.4 2.59-2.35 3.7l-.35-.36Zm-1.03.39-.36-.36a14.04 14.04 0 0 1-3.73 2.75l.22.45c1.45-.73 2.75-1.7 3.87-2.84Zm-3.64 3.29c1.49-.76 2.84-1.75 4-2.94l.35.35a15.54 15.54 0 0 1-4.13 3.03l-.22-.44Zm-1.13-.03-.23-.45a13.94 13.94 0 0 1-4.9 1.07v.5c1.81-.06 3.54-.45 5.13-1.12Zm-5.13 1.62c1.9-.06 3.7-.47 5.35-1.17l.22.44c-1.72.74-3.6 1.17-5.57 1.23V43Zm6.7-.7.45.9c1.69-.86 3.21-1.98 4.52-3.32l-.71-.7a16.05 16.05 0 0 1-4.26 3.12Zm4.94-3.86.7.7a17.01 17.01 0 0 0 2.64-4.08l-.9-.45a16.01 16.01 0 0 1-2.44 3.83Zm2.83-4.76.9.45a16.94 16.94 0 0 0 1.12-5.62h-1a15.94 15.94 0 0 1-1.02 5.17Zm1.02-6.17h1c-.05-1.86-.4-3.64-1-5.3l-.95.32c.57 1.56.9 3.23.95 4.98Zm-1.33-5.91.96-.32a17.03 17.03 0 0 0-3.5-5.19l-.7.71c1.35 1.38 2.46 3 3.24 4.8Zm-3.97-5.5.71-.7a17 17 0 0 0-5.25-3.25l-.32.95a16 16 0 0 1 4.86 3Zm-5.8-3.33.31-.95a16.97 16.97 0 0 0-4.7-.8v1c1.53.04 3 .3 4.39.75Zm-4.39-.25v.5c1.41.04 2.78.29 4.07.7l.16-.48a15.46 15.46 0 0 0-4.23-.72ZM41 28a13 13 0 1 1-1.01-5.04l.17.51h.03c.52 1.4.81 2.93.81 4.53ZM27.5 14v-.5c-1.72.07-3.36.42-4.87 1.03l.2.46c1.45-.58 3.02-.92 4.67-.98Zm-5.6 1.4-.19-.47a14.54 14.54 0 0 0-4.1 2.96l.35.36a14.04 14.04 0 0 1 3.95-2.86ZM17.29 19l-.35-.36a14.5 14.5 0 0 0-2.21 3.53l.47.18a14 14 0 0 1 2.1-3.36Zm-2.46 4.28-.47-.18c-.5 1.38-.79 2.86-.84 4.4h.5c.05-1.48.33-2.9.8-4.22ZM14 28.5h-.5c.05 1.67.4 3.26.97 4.74l.49-.12c-.57-1.44-.9-3-.96-4.62Zm1.36 5.55-.5.12a14.5 14.5 0 0 0 2 3.12l.38-.32a14.02 14.02 0 0 1-1.88-2.92Zm2.55 3.67-.38.32a14.53 14.53 0 0 0 4.94 3.37l.23-.44a14.02 14.02 0 0 1-4.79-3.25Zm5.73 3.6-.22.44c1.28.43 2.65.68 4.07.73V42a13.96 13.96 0 0 1-3.85-.68Zm-1.35 2.7.45-.9c1.5.52 3.1.82 4.75.87v1c-1.82-.05-3.57-.39-5.2-.97Z" fill="#006097"/></svg>