<!-- by TradingView --><svg width="56" height="56" viewBox="0 0 56 56" xmlns="http://www.w3.org/2000/svg"><path fill="#F0F3FA" d="M0 0h56v56H0z"/><path d="M7.99 22H4l1.99 2h2c2.23 0 4.01 1.78 4.01 4 0 2.22-1.78 4-4 4H5.98L4 34h3.99a6 6 0 1 0 0-12ZM17 28.96V22h2v7.01a3.01 3.01 0 0 0 3 3.05c1.68 0 3-1.36 3-3.05V29h2c0 2.77-2.2 5-4.97 5A5.04 5.04 0 0 1 17 28.96ZM31 34v-5h2v5h-2Zm0-9.02V22l8 7.17V22h2v12l-10-9.02ZM44 22l2 2h6v-2h-8Zm2 7v-2h6v2h-6Zm-2 5 2-2h6v2h-8Z" fill="#20334C"/><circle cx="6" cy="28" fill="#EBBE56" r="1"/></svg>