<!-- by TradingView --><svg width="56" height="56" viewBox="0 0 56 56" fill="none" xmlns="http://www.w3.org/2000/svg">
<rect width="56" height="56" fill="#F0F3FA"/>
<path d="M32.9964 17.011C29.7255 15.7843 26.5391 15.6793 23.3008 17.0454C23.2228 17.0782 23.1535 17.0654 23.0928 17.0068C21.4466 15.4183 19.5072 14.3468 17.2746 13.792C17.2553 13.7874 17.2377 13.7775 17.2237 13.7635C17.2098 13.7494 17.2001 13.7318 17.1959 13.7126C17.1916 13.6933 17.1928 13.6733 17.1995 13.6547C17.2061 13.6362 17.2179 13.6199 17.2335 13.6076C23.604 8.64722 32.7364 8.94317 39.1373 13.6291C39.1517 13.6395 39.1626 13.6538 39.1688 13.6703C39.175 13.6867 39.1762 13.7047 39.1723 13.722C39.1685 13.7394 39.1597 13.7554 39.1469 13.7682C39.1342 13.7809 39.1181 13.79 39.1005 13.7942C36.829 14.3003 34.8643 15.3583 33.2065 16.9682C33.1458 17.0268 33.0758 17.0411 32.9964 17.011Z" fill="#806434"/>
<path d="M19.499 31.2467C20.972 26.8825 20.5691 22.5912 15.13 21.8921C15.0433 21.8806 15 21.832 15 21.7462L15 15.1967C15 15.1252 15.0527 15.0909 15.1235 15.0938C19.9041 15.2782 23.5302 18.4436 25.0205 22.8035C25.0898 23.0051 25.1245 23.6013 25.0703 23.8136C24.2602 27.0462 22.4313 29.546 19.5835 31.3132C19.494 31.3689 19.4658 31.3468 19.499 31.2467Z" fill="url(#paint0_linear_229_4379)"/>
<path d="M36.501 24.7C35.028 29.0642 35.4309 33.3554 40.87 34.0546C40.9567 34.066 41 34.1146 41 34.2004L41 40.7499C41 40.8214 40.9473 40.8557 40.8765 40.8529C36.0959 40.6684 32.4698 37.503 30.9795 33.1431C30.9102 32.9415 30.8755 32.3454 30.9297 32.133C31.7398 28.9005 33.5687 26.4006 36.4165 24.6335C36.506 24.5777 36.5342 24.5999 36.501 24.7Z" fill="url(#paint1_linear_229_4379)"/>
<path d="M22.1134 31.3904C23.9655 29.7498 24.7778 28.1542 25.6875 26.1469C25.741 26.0283 25.7749 26.0333 25.7893 26.1619C26.4327 31.6649 24.4355 37.1357 19.2368 39.6727C17.9761 40.2882 16.5097 40.6699 15.0973 40.9252C15.0862 40.927 15.0749 40.9265 15.064 40.9236C15.0532 40.9207 15.0431 40.9155 15.0344 40.9083C15.0258 40.9012 15.0188 40.8923 15.0139 40.8823C15.0091 40.8722 15.0002 40.8612 15 40.8501V34.3735C15 34.2763 15.0547 34.2241 15.1515 34.2169C17.914 33.9982 20.2347 33.056 22.1134 31.3904Z" fill="url(#paint2_linear_229_4379)"/>
<path d="M33.892 24.6232C32.0399 26.2638 31.2276 27.8593 30.3179 29.8666C30.2644 29.9853 30.2305 29.9803 30.216 29.8516C29.5727 24.3487 31.5699 18.8779 36.7686 16.3408C38.0293 15.7253 39.4957 15.3436 40.908 15.0884C40.9191 15.0865 40.9305 15.0871 40.9414 15.09C40.9522 15.0929 40.9623 15.0981 40.971 15.1052C40.9796 15.1123 40.9866 15.1212 40.9914 15.1313C40.9963 15.1413 40.9989 15.1523 40.999 15.1635V21.6401C40.999 21.7373 40.9506 21.7895 40.8539 21.7966C38.0914 22.0154 35.7707 22.9575 33.892 24.6232Z" fill="url(#paint3_linear_229_4379)"/>
<path d="M23.4133 39.0336C26.4567 40.2474 29.721 40.2667 32.9139 38.9842C32.9832 38.9571 33.0482 38.9656 33.1089 39.01C35.08 40.4726 36.527 41.6113 39.0007 42.1796C39.025 42.1856 39.0471 42.1982 39.0644 42.2161C39.0817 42.2339 39.0935 42.2563 39.0985 42.2805C39.1035 42.3048 39.1014 42.3299 39.0926 42.3531C39.0837 42.3762 39.0684 42.3964 39.0484 42.4113C32.6691 47.0542 23.5866 47.333 17.2377 42.4198C17.2188 42.4057 17.2044 42.3866 17.1962 42.3646C17.188 42.3427 17.1863 42.3188 17.1913 42.2958C17.1962 42.2727 17.2077 42.2514 17.2243 42.2343C17.241 42.2171 17.2621 42.2049 17.2853 42.1989C19.424 41.6499 21.2948 40.627 22.8977 39.1301C23.0494 38.9885 23.2212 38.9564 23.4133 39.0336Z" fill="#806434"/>
<defs>
<linearGradient id="paint0_linear_229_4379" x1="20.0484" y1="15.0936" x2="24.2377" y2="26.6834" gradientUnits="userSpaceOnUse">
<stop stop-color="#D1BC85"/>
<stop offset="1" stop-color="#876F33"/>
</linearGradient>
<linearGradient id="paint1_linear_229_4379" x1="35.9516" y1="40.853" x2="31.7623" y2="29.2633" gradientUnits="userSpaceOnUse">
<stop stop-color="#D1BC85"/>
<stop offset="1" stop-color="#876F33"/>
</linearGradient>
<linearGradient id="paint2_linear_229_4379" x1="15.5026" y1="37.3203" x2="24.8989" y2="30.8366" gradientUnits="userSpaceOnUse">
<stop offset="0.391726" stop-color="#9F8759"/>
<stop offset="1" stop-color="#B3A066"/>
</linearGradient>
<linearGradient id="paint3_linear_229_4379" x1="40.5027" y1="18.6932" x2="31.1065" y2="25.1769" gradientUnits="userSpaceOnUse">
<stop offset="0.391726" stop-color="#9F8759"/>
<stop offset="1" stop-color="#B3A066"/>
</linearGradient>
</defs>
</svg>
