<!-- by TradingView --><svg xmlns="http://www.w3.org/2000/svg" width="56" height="56" viewBox="0 0 56 56"><path fill="#FF5E28" d="M0 0h56v56H0z"/><path fill-rule="evenodd" d="M13 30.5v1.24L16.21 23h3.24L23 32.47V23h5.04c1.47 0 2.76.8 3.25 2.14a4.7 4.7 0 0 1 4-2.14c2.13 0 3.7.98 4.37 2.72l-2.47.84a1.87 1.87 0 0 0-1.76-1.06c-1.4 0-1.93 1.22-1.93 2.49 0 1.37.68 2.51 1.93 2.51.87 0 1.48-.34 1.76-1H35V27h5v.06c.14-.77.48-1.52.98-2.13A4.9 4.9 0 0 1 45 23c2.26 0 3.57 1.38 5 2.87l.63.67c.41.42 1.37 1.48 1.37 1.48a83.15 83.15 0 0 1-1.82 1.95C48.74 31.46 47.24 33 45 33a4.97 4.97 0 0 1-4.79-3.26l-.07-.26c-.06-.2-.13-.45-.14-.39v-.08A4.6 4.6 0 0 1 35.28 33a4.76 4.76 0 0 1-4.75-4.37c-.4.4-.92.7-1.53.87l3 3.5h-3.5L26 29.5V33H20.06l-.45-1.5h-3.56l-.48 1.5H5V23h8v2.5H8V27h5v2H8v1.5h5zm34.18-1.51c.22-.22.82-.97.82-.97s-.6-.69-.82-.9C46.56 26.48 45.9 26 45 26c-1.1 0-2 .76-2 2.02 0 1.16.83 1.98 2 1.98.9 0 1.54-.38 2.18-1.01zM26 27.5h1.5c.67 0 1-.6 1-1s-.33-1-1-1H26v2zM16.87 29l.96-3 .93 3h-1.9z" fill="#fff"/></svg>