<!-- by TradingView --><svg width="56" height="56" viewBox="0 0 56 56" xmlns="http://www.w3.org/2000/svg"><path fill="#21265D" d="M0 0h56v56H0z"/><path d="M10.4 25.45v.53H6.5V27h3.9v.5H6v-2.04h4.4ZM11 24v8h2.56v-3H17v-.54h-4v2.92h-1.42v-6.8H17V24h-6Zm20.5 4v-1.5h.5V25h2v1.5h2V25h2v1.5h1.42V28H38v1.83c0 .3 0 .45.07.53.08.07.22.07.52.07h.83V32h-1.2c-1.94 0-2.22-.28-2.22-1.68V28h-1.42c-.55 0-.58.05-.58.5v1.31c0 .41.12.62.6.62h.95L35.53 32h-1.26C32.3 32 32 31.7 32 29.76V28h-.5Zm11.22-1c-2.65 0-2.72.4-2.72 2.94 0 1.82.2 2.06 3.11 2.06 2.57 0 2.89-.19 2.89-2.34 0-2.52-.11-2.66-3.28-2.66Zm.3 3.62c-1.02 0-1.02-.15-1.02-.9 0-1.27 0-1.4.89-1.4 1.11 0 1.11.07 1.11 1.03V29.8c.01.74.02.82-.98.82ZM46 27l.02 5H48v-2.18c.04-1.4.04-1.5 1.27-1.5.65 0 .73.14.73.65V32h2v-3.74c0-.86-.54-1.26-2.22-1.26-.81 0-1.03.07-1.78.3V27h-2Zm-29 .5h-4v-2.05h4v.53h-3.44V27H17v.5ZM10.4 29v-.55H6v2.04h4.4V30H6.5V29h3.9Z" fill="#fff"/><path d="M10.5 24.56V24H4v8h6.5v-.57H4.6v-6.87h5.9ZM25.5 30.26c0 1.19.5 1.74 2.26 1.74.76 0 1.1-.07 1.57-.28l.17.28H31v-5h-1.78v2.63c0 .78.02.97-1 .97-.85 0-.94-.27-.94-1.1V27H25.5v3.26ZM18 24v8h2v-3h3v3h2v-8h-2v3.02h-3V24h-2Z" fill="#fff"/></svg>