<!-- by TradingView --><svg xmlns="http://www.w3.org/2000/svg" width="56" height="56" viewBox="0 0 56 56"><path fill="#F0F3FA" d="M0 0h56v56H0z"/><path d="m13 17.57 1.18.01c1.2.02 1.57.03 1.8.07.78.15 1.4.48 1.97 1.05.5.5.6.64 2.9 4.15 3.76 5.71 3.65 5.57 4.17 6C26.32 29.95 27.5 30 29 30h11.8v-.4c0-1.53-.46-2.92-1.25-3.76-.8-.84-2-1.26-3.76-1.33l-.54-.02-.26-.34a4.55 4.55 0 0 0-3.25-1.79c-.64-.1-1.16-.12-2.6-.14l-1.43-.02.9-1.33a13.1 13.1 0 0 1 1.64-2.17c.6-.59 1.15-.88 1.98-1.05.26-.05.8-.06 6.74-.07h6.46L46 16h-6.5c-3.6 0-5.77-.02-6.7 0a5.43 5.43 0 0 0-4.38 2.43c-.15.2-1.03 1.48-1.95 2.84l-1.69 2.5h2.96c2.4.02 3.02.03 3.38.08 1.16.13 1.77.37 2.3.87.28.26.45.5.7.99l.18.31h.41c.63 0 1.61.06 1.98.12 1.15.18 1.79.6 2.16 1.42.11.24.26.74.26.85h-5.05c-5.03 0-5.96-.02-6.54-.11a2.65 2.65 0 0 1-1.68-.88c-.21-.23-1.89-2.72-4.2-6.24-.84-1.27-1.64-2.46-1.78-2.64-1.06-1.42-2.11-2.14-3.54-2.41-.5-.1-1.2-.13-2.51-.13H13v1.56Zm0 3.02h4.68c0-.02-.17-.21-.3-.38-.43-.57-.88-1.2-1.55-1.2L13 18.99v1.6Zm19.54-1.54c-.43.11-.83.37-1.16.75-.2.23-.57.8-.57.8l6.76-.01h6.76l.61-1.58-6.1-.01c-5.27 0-6.14 0-6.3.05ZM13 23.57l6.67-.02L18.66 22H13v1.57ZM39.5 22l-.62 1.51h4.3l.6-1.5H39.5ZM13 26.6l8.73-.03L20.7 25 13 25v1.6ZM13 30h10.84l-.65-.97-.43-.64H13V30Z" fill="#2B415F"/><path d="M13.2 32H13v5h4.58v-1H14v-1h3.44v-1H14v-1h3.58v-1H13.2ZM37 32h-1v5h5v-1h-4v-1h4v-1h-4v-1h4v-1h-4Z" fill="#8B8B8E"/><path fill-rule="evenodd" d="M20.47 32 18 37h1.2l.52-1h3.25l.56 1h1.2l-2.47-5h-1.79Zm2.02 3-1.03-2h-.18l-1.03 2h2.24Z" fill="#8B8B8E"/><path d="M26.5 32c-.83 0-1.5.66-1.5 1.47v2.06c0 .81.67 1.47 1.5 1.47h2.6c.82 0 1.5-.66 1.5-1.47V34H28v1h1.52v.3c0 .4-.34.7-.76.7h-2a.74.74 0 0 1-.76-.74v-1.52c0-.41.34-.74.75-.74h2.01c.33 0 .6.16.71.44h1.13A1.5 1.5 0 0 0 29.1 32h-2.6ZM32.23 32H31.2v5H35.5v-1h-3.27v-4Z" fill="#8B8B8E"/><path fill-rule="evenodd" d="M12.67 39h1.93c.23 0 .42.18.42.4v.22a.4.4 0 0 1-.17.32c.18.08.3.25.3.44v.19c0 .24-.2.43-.45.43h-2.03v-2Zm.49.37h1.14c.13 0 .23.1.23.21 0 .12-.1.22-.23.22h-1.14v-.43Zm0 .77h1.23c.15 0 .27.12.27.26s-.12.26-.27.26h-1.23v-.52Z" fill="#8B8B8E"/><path d="M21.73 39h-.49v1.36c0 .35.3.64.69.64h1.24c.38 0 .69-.29.69-.64V39h-.5v1.24c0 .22-.18.4-.42.4h-.78c-.24 0-.43-.18-.43-.4V39ZM30.6 39h-.5v2H32v-.4h-1.4V39ZM38.78 39h-.53v2h.53v-.9h.29l1.03.9h.64l-1.27-1.12 1.31-.88h-.65l-1.09.73h-.26V39Z" fill="#8B8B8E"/></svg>