<!-- by TradingView --><svg width="56" height="56" viewBox="0 0 56 56" xmlns="http://www.w3.org/2000/svg"><path fill="#F0F3FA" d="M0 0h56v56H0z"/><path d="M14 13v13.58l2.34.97 8.23-9.53 7.54 9.88 5.2-2.74L44 36V13H14Z" fill="url(#agymrrfor)"/><path d="M24.38 17 14 25.78V43h3.5l.76-2.97-1.4-5.96L19.14 39l2.46-4.52V23.92l1.33 9.17 1.91-14.27 6.94 9.33-1.83 10.57-3.5 4.28h5.33l1.6-2.66 1.56.4-1.2-1.73.85-1.9 4.3 3.23-3.95-4.8 2.35-8.78L44 38.03v-3.12l-6.71-10.69-5 3.35L24.4 17Z" fill="#949CA1"/><defs><linearGradient id="agymrrfor" x1="15.2" y1="17.45" x2="38.8" y2="17.45" gradientUnits="userSpaceOnUse"><stop stop-color="#045883"/><stop offset="1" stop-color="#045883" stop-opacity="0"/></linearGradient></defs></svg>