<!-- by TradingView --><svg width="56" height="56" viewBox="0 0 56 56" xmlns="http://www.w3.org/2000/svg"><path fill="#F0F3FA" d="M0 0h56v56H0z"/><path fill-rule="evenodd" d="M11.3 20.29v.3h.74c.44 0 .57.23.59.34v9.2c0 .25-.21.45-.46.45h-.67V31h3.58v-.42h-.65a.43.43 0 0 1-.43-.45V20l-2.7.29Zm-4.95 7.2h4.69c-.01-.83-.6-2.49-2.85-2.49C5.37 25 5 27.28 5 28.22 5 29.16 6.03 31 8.4 31c1.63 0 2.5-.8 2.72-1.21v-.47A3.05 3.05 0 0 1 8.8 30.5c-1.46 0-2.45-1.07-2.45-3Zm-.01-.4h3.39c.01-.57-.3-1.71-1.68-1.71-1.37 0-1.71 1.14-1.71 1.7Zm9.34-6.5v-.3l2.68-.29v10.13c0 .25.2.45.46.45h.65V31H15.9v-.42h.66c.26 0 .45-.2.45-.45v-9.2c-.01-.11-.13-.35-.57-.35h-.75ZM23 31a3 3 0 1 0 0-6 3 3 0 0 0 0 6Zm0-.48c1.04 0 1.88-1.13 1.88-2.52 0-1.4-.84-2.52-1.88-2.52s-1.88 1.13-1.88 2.52c0 1.4.84 2.52 1.88 2.52Zm2.75-4.97v-.28l2.58-.27v5.19c0 .23.2.41.44.41h.63v.4h-3.45v-.4h.64a.4.4 0 0 0 .41-.41v-4.32c-.01-.1-.1-.32-.53-.32h-.72Zm2.58.86c.26-.47 1.1-1.41 2.32-1.41 1.17 0 1.74.7 1.95 1.4.27-.48 1.1-1.4 2.31-1.4 1.54 0 2.09 1.2 2.09 2.03v3.14c0 .28.2.5.5.5h.5V31h-3.25v-.32h.44c.3 0 .54-.23.54-.51v-3.38a1.19 1.19 0 0 0-1.27-1.13c-.87 0-1.5.69-1.78 1.15l.01.22v3.14c0 .28.24.5.54.5h.51V31H30.5v-.32h.44c.3 0 .54-.23.54-.51v-3.38a1.19 1.19 0 0 0-1.27-1.13c-.98 0-1.66.88-1.87 1.32v-.57Zm10.8.4h.4a1.6 1.6 0 0 1 1.63-1.18c1.35 0 1.48 1.13 1.48 1.39v.36c-.54.17-1.26.39-1.51.45h-.02c-.43.1-2.11.5-2.11 1.61 0 1.02 1.03 1.56 1.9 1.56.63 0 1.4-.45 1.8-.73a1 1 0 0 0 .98.7c.95 0 1.32-.7 1.32-1.08h-.42v.23c0 .08-.08.24-.33.24-.26 0-.26-.17-.25-.43v-3.08c-.07-.62-.72-1.85-2.44-1.85-1.73 0-2.35 1.2-2.44 1.8Zm3.5 2.87V27.7l-1.46.53c-.29.1-.87.48-.87 1.2 0 .89 1 .89 1.13.89.1 0 .61-.1 1.2-.65Zm1.29-4.36V25h3.04v.32c-.23.05-.63.33-.31 1.04l1.4 3.2 1.24-3.43c.05-.27 0-.8-.55-.8V25H51v.32c-.3.01-.96.19-1.21.8-.25.63-1.59 4.44-2.23 6.27A2.83 2.83 0 0 1 45.1 34H45v-1h.59c.37 0 1.23-.05 1.5-.6.19-.39.28-.7.35-.9l.07-.2-2.44-5.31c-.06-.22-.37-.67-1.15-.67Z" fill="#00703C"/><path d="M26.29 32c-5.28 0-15.06.35-19.29.52 4.44.16 14.52.48 19.29.48s13.8-.32 17.71-.48c-3.7-.17-12.43-.52-17.71-.52Z" fill="#838385"/></svg>