<!-- by TradingView --><svg width="56" height="56" viewBox="0 0 56 56" xmlns="http://www.w3.org/2000/svg"><path fill="#F0F3FA" d="M0 0h56v56H0z"/><path d="M6.1 26H9v1H5.89c-.2 0-.7.07-.72.47-.01.41.47.65.72.71.5.15 1.54.47 1.74.56.26.1 1.37.33 1.37 1.77 0 1.16-1.14 1.47-1.72 1.49H4v-1h2.98c.3-.02.85-.05.87-.58 0-.42-.49-.64-.73-.7l-1.37-.4c-.6-.1-1.8-.63-1.75-1.85C4.05 26.26 5.42 26 6.1 26Z" fill="#9F998B"/><path d="M45.48 26h2.9v1h-3.11c-.19 0-.7.07-.71.47-.02.41.47.65.71.71.5.15 1.54.47 1.75.56.26.1 1.36.33 1.36 1.77 0 1.16-1.14 1.47-1.71 1.49h-3.28v-1h2.97c.3-.02.85-.05.87-.58.01-.42-.48-.64-.73-.7l-1.37-.4c-.6-.1-1.8-.63-1.74-1.85.04-1.21 1.41-1.48 2.1-1.47Z" fill="#D31145"/><path d="M10 28a2 2 0 0 1 3.5-1.32A2 2 0 0 1 17 28v4h-1v-4a1 1 0 1 0-2 0v4h-1v-4a1 1 0 0 0-2 0v4h-1v-4ZM24 28.58V32h-1v-3.42c0-.43-.51-1.58-1.9-1.58a1.98 1.98 0 0 0-2.1 2.02c0 .83.7 1.93 1.84 1.98a1.9 1.9 0 0 0 1.65-.8v1.24c-.41.4-1.1.56-1.65.56A3.01 3.01 0 0 1 18 29c-.02-.97.6-3 3.1-3a2.8 2.8 0 0 1 2.9 2.58ZM25 26v6h1v-2.84c0-1.98 1.36-2.24 2-2.13v-1.02c-1.23-.1-1.87.5-2 .8V26h-1ZM29 30.46V25h1v1.44h1.37l.4 1H30v2.96c0 .34.3.6.63.6H32v1h-1.49c-.83 0-1.51-.69-1.51-1.54Z" fill="#9F998B"/><path d="M49 30.46V25h1v1.44h1.37l.4 1H50v2.96c0 .34.3.6.63.6H52v1h-1.49c-.83 0-1.51-.69-1.51-1.54ZM33.88 31.45 31.86 26H33l1.67 4.51L36.32 26h1.15l-2.03 5.45a.8.8 0 0 1-.77.55.87.87 0 0 1-.8-.55ZM40.21 32a3 3 0 0 0 2.98-2.68l-1.02-.16a1.97 1.97 0 1 1-.61-1.6l-2.89 1.6.45.78 2.52-1.35.42-.25.9-.51A3 3 0 1 0 40.21 32Z" fill="#D31145"/></svg>