<!-- by TradingView --><svg width="56" height="56" viewBox="0 0 56 56" xmlns="http://www.w3.org/2000/svg"><path fill="#F0F3FA" d="M0 0h56v56H0z"/><path d="M50 34.01H5V36h47V22h-2v12.01ZM28.95 22.07c-.39.14-.7.52-.86 1.06-.08.28-.09.34-.09.89 0 .54.01.6.09.84.16.52.52.92.93 1.06.22.08.76.1 1 .05.42-.1.8-.41.92-.77.08-.23.08-.57.01-.74-.13-.3-.52-.38-.72-.14-.06.07-.07.13-.08.34 0 .15-.03.28-.06.33-.16.28-.74.26-.94-.03-.11-.15-.17-.42-.2-.8-.03-.58.1-1.07.31-1.24.23-.18.6-.16.77.05.1.12.1.14.1.36 0 .2.02.24.08.32.15.16.44.16.61 0l.1-.08v-.69c.01-.66 0-.68-.06-.77-.07-.08-.1-.1-.24-.1-.15 0-.18.02-.25.1a.37.37 0 0 0-.08.17c0 .06-.01.05-.14-.05a1.21 1.21 0 0 0-.31-.18 1.67 1.67 0 0 0-.89.02ZM12.7 22.02c-.13.04-.2.18-.2.38 0 .22.07.3.29.3l.2.02v3.14c.15.13.14.14.37.14.19-.02.2-.17.23-.32.27.18.44.32.8.32.34 0 .54-.1.74-.34.27-.32.37-.67.37-1.25 0-.41-.03-.6-.14-.86-.3-.68-1-.85-1.49-.37l-.1.1v-.59c0-.32-.01-.6-.03-.63a3.47 3.47 0 0 0-1.04-.04Zm1.75 1.7c.27.15.31 1.16.06 1.43a.35.35 0 0 1-.23.1c-.3.03-.47-.23-.48-.74 0-.33.04-.5.16-.67.14-.19.3-.23.5-.12Z"/><path d="M31.24 22c-.24 0-.24.19-.24.4 0 .24.07.3.35.32l.2.01.03.15c.04.18.04 2.04 0 2.26l-.02.16h-.2c-.27-.03-.36.06-.36.31 0 .17.08.27.18.39h.8c.9 0 .9 0 .93-.3.03-.23-.05-.36-.21-.39l-.12-.02v-.58c0-.48 0-.6.07-.7.09-.18.23-.28.43-.28.13 0 .17.01.27.11l.11.12v1.33l-.11.02a.36.36 0 0 0-.2.12c-.1.13-.08.39.05.5.08.07.14.07.84.07.4 0 .77-.02.8-.03.17-.07.22-.48.08-.61-.07-.07-.12-.08-.23-.06-.25.03-.24.04-.27-.9-.02-.78-.02-.88-.1-1.03-.15-.3-.34-.37-.82-.37-.32 0-.59 0-.8.17l-.12.1-.01-.6c0-.35.08-.67-.06-.67h-1.27ZM4.11 22.1c-.09.08-.1.12-.1.28-.01.14.01.22.07.3.07.09.1.1.32.1.2 0 .26.02.3.07.06.09.07 2.1 0 2.26-.02.08-.04.09-.26.08-.27-.01-.35.04-.42.25-.05.15 0 .38.1.47.1.1.86.09.86.09h1.9c.37 0 .94 0 1.01-.04.1-.07.13-.2.1-.48a3.1 3.1 0 0 1 0-.58c.05-.62-.05-.81-.42-.81-.17 0-.22.02-.32.1l-.12.11v.38c0 .42-.02.46-.26.52-.2.05-.83.04-.94 0a.22.22 0 0 1-.1-.13c-.04-.12-.03-.7 0-.76.04-.05.26-.07.33-.02.02.01.04.12.04.23 0 .15.02.22.07.27.08.08.29.1.4.04.1-.06.16-.28.14-.5a7.9 7.9 0 0 1-.03-.72c0-.63-.01-.67-.29-.67-.22 0-.29.08-.29.3 0 .21-.06.3-.24.3-.14 0-.16-.04-.16-.39 0-.4.01-.4.53-.42.24 0 .5 0 .58.02l.15.03v.37c0 .44.04.54.27.61.18.06.4 0 .5-.13.07-.08.07-.16.07-.8 0-.5-.01-.72-.05-.77C7.81 22 7.67 22 6.01 22h-1.8l-.1.1ZM44.04 23.03c-.18.06-.34.25-.34.4 0 .07 0 .07-.3.08-.36.02-.55.08-.77.26a.91.91 0 0 0-.2.23.65.65 0 0 0 .01.6l.08.12-.14.09c-.18.1-.26.22-.26.41 0 .19.1.32.26.4l.12.06-.12.05c-.16.07-.34.24-.37.36-.06.26.1.54.39.7.47.27 1.53.28 2.07.03.24-.11.43-.3.5-.5.09-.3 0-.63-.22-.76-.23-.15-.33-.17-1.02-.19-.6-.01-.66-.02-.75-.08-.1-.07-.14-.16-.07-.21.04-.03.08-.03.2 0 .2.08.7.08.93.01.43-.12.67-.4.67-.77 0-.3-.16-.55-.43-.64-.05-.02-.07-.05-.07-.1 0-.12.09-.13.21 0 .17.16.41.14.51-.06.08-.14.02-.31-.14-.43-.11-.07-.16-.08-.4-.09-.15 0-.3 0-.35.03Zm-.24 1.1c.18.2.02.5-.26.5-.12 0-.16-.01-.24-.1-.14-.13-.14-.3 0-.43.1-.08.12-.09.26-.07.12 0 .18.03.24.1Zm.19 1.86c.06.02.12.07.13.1.04.1-.07.22-.23.27-.17.04-.6.04-.76 0-.26-.06-.34-.24-.18-.35.09-.06.14-.07.51-.07.28 0 .45.02.53.05Z"/><path d="M9.64 23.1c-.09.04-.23.14-.32.22l-.18.04v-.16c0-.09-.01-.18-.03-.2-.22 0-1.11-.02-1.02 0-.08.07-.13.3-.1.45.02.16.14.24.3.21.11-.02.14 0 .17.05.04.09.07 1.46.02 1.55-.02.05-.06.06-.18.05-.13-.02-.17 0-.22.05-.13.16-.08.53.09.6.03.03.36.04.72.04.63 0 .65 0 .7-.09.07-.08.09-.33.05-.45-.02-.03-.09-.1-.17-.13l-.15-.07.02-.55c0-.5.02-.56.09-.7.09-.17.2-.23.4-.21.1 0 .15.03.2.11.06.1.07.16.08.73v.62l-.1.08a.26.26 0 0 0-.14.2c-.03.15 0 .35.07.4.06.06 1 .08 1.1.03.1-.05.16-.26.14-.43-.02-.1-.05-.16-.14-.21l-.1-.07v-.5c0-.6 0-.7.14-.85.09-.1.12-.12.26-.12.2 0 .26.05.3.19.05.17.09.77.06 1.05-.02.22-.03.24-.13.29-.15.06-.19.13-.2.3 0 .17.07.31.16.34.04.02.34.04.67.04h.6l.1-.1c.08-.08.1-.12.1-.28 0-.16-.01-.2-.08-.26-.06-.05-.1-.07-.22-.05-.17.03-.16.07-.18-.82-.02-.78-.05-.96-.21-1.17a.81.81 0 0 0-.7-.32c-.3 0-.48.07-.7.26l-.2.14-.1-.12a.77.77 0 0 0-.97-.19ZM17 23.09a.8.8 0 0 0-.37.45l-.04.12v-.25c-.01-.16 0-.4-.09-.41h-.85c-.15 0-.15.3-.15.47 0 .25.07.33.29.31h.15l.03.13c.03.2.03 1.07 0 1.26l-.03.14h-.15c-.22-.02-.29.06-.29.31 0 .17.07.26.17.38h1.51c.11-.17.28-.4.11-.6-.07-.08-.08-.08-.32-.08h-.19v-.53c0-.46.01-.54.08-.73.08-.23.22-.38.35-.38.07 0 .07.02.06.16-.02.2.03.3.16.37.13.06.21.06.34-.01.16-.09.23-.25.23-.5a.7.7 0 0 0-.27-.6c-.17-.13-.52-.14-.74-.01ZM18.74 23.05c-.38.1-.55.27-.57.55-.02.32.17.52.5.52.26 0 .44-.16.44-.4 0-.15.08-.21.24-.18.3.06.39.42.13.56-.06.03-.3.1-.55.16-.3.07-.5.13-.6.2-.37.24-.44.86-.15 1.22.31.38 1 .42 1.48.1l.17-.12.08.1c.16.23.55.3.82.18.2-.1.26-.19.27-.36 0-.19-.1-.28-.3-.31l-.17-.02-.01-.82-.02-.82c0-.11-.28-.47-.6-.56-.26-.07-.91-.07-1.16 0Zm.86 1.98c-.07.17-.19.25-.4.27-.13.01-.17 0-.24-.08-.18-.18-.08-.3.35-.44l.32-.1v.12a.6.6 0 0 1-.03.23ZM22.14 23.02c-.86.2-1.31 1-1.08 1.94.15.6.68 1 1.42 1.04.71.04 1.35-.3 1.5-.77.1-.34-.1-.6-.45-.6-.2 0-.31.08-.42.28-.14.25-.23.3-.47.3-.24 0-.4-.1-.53-.3a1.12 1.12 0 0 1 0-.9c.14-.23.42-.35.66-.28.12.03.12.05.1.15-.03.16.03.29.18.37.16.09.4.1.57 0 .5-.23.36-.87-.26-1.14-.2-.09-.28-.1-.64-.1-.24-.01-.5 0-.58.01Z"/><path d="M25.01 23.06c-.42.13-.74.41-.92.81-.08.17-.09.26-.09.64 0 .37 0 .46.09.63.15.36.45.64.84.77.32.12 1.01.12 1.32 0 .46-.16.69-.39.69-.67 0-.14-.02-.18-.12-.26-.2-.14-.53-.1-.7.07-.03.04-.13.1-.22.16-.3.18-.63.11-.8-.15-.1-.14-.11-.36-.02-.4l.91-.01c.72 0 .87-.01.92-.06.14-.12.11-.64-.05-.95a1.35 1.35 0 0 0-.62-.53c-.28-.12-.9-.15-1.23-.05Zm.81.63c.12.08.2.24.18.31-.02.04-.12.05-.49.05-.46 0-.46 0-.46-.08 0-.11.14-.27.29-.33a.56.56 0 0 1 .48.05ZM35.75 23.04c-.41.12-.58.3-.58.6s.18.47.49.47c.27 0 .41-.12.45-.4.03-.19.14-.23.33-.14.17.1.24.22.18.36-.06.15-.16.2-.67.32-.24.05-.5.13-.57.17-.26.14-.38.37-.38.74 0 .53.43.88 1.03.83.26-.02.57-.14.71-.28l.08-.07.11.14c.32.38 1.07.24 1.07-.2 0-.2-.11-.31-.3-.31-.12 0-.14-.02-.17-.1-.02-.04-.04-.4-.04-.79 0-.4-.01-.77-.03-.84a.77.77 0 0 0-.43-.46 3.5 3.5 0 0 0-1.28-.04ZM36.6 25c-.06.18-.18.27-.4.3-.14 0-.17 0-.25-.08-.18-.19-.06-.33.39-.45l.28-.09.01.1c.01.04 0 .15-.03.22Z"/><path d="M39.97 23.06c-.18.07-.34.16-.5.31l-.12.11v-.17c0-.1-.02-.26-.05-.28a3.65 3.65 0 0 0-.55-.03c-.58 0-.65.01-.72.3-.1.3.06.52.34.47.12-.01.15 0 .19.05a6.8 6.8 0 0 1 0 1.44c-.03.05-.07.06-.22.05-.14-.02-.19 0-.25.05-.15.16-.09.58.1.64h.84c.73 0 .75 0 .81-.09.05-.05.08-.14.08-.27 0-.2-.05-.27-.23-.32a.26.26 0 0 1-.12-.07 2.79 2.79 0 0 1-.03-.53c0-.4.01-.5.07-.63.1-.2.27-.3.5-.3.32 0 .38.11.4.8.02.65.01.7-.16.73a.33.33 0 0 0-.19.1c-.08.1-.07.4.02.5.06.07.08.08.81.08.42 0 .8 0 .84-.02.11-.04.17-.16.17-.37 0-.23-.1-.33-.32-.3-.23.03-.23 0-.26-.89-.02-.72-.03-.8-.1-.94a.96.96 0 0 0-.5-.43 1.67 1.67 0 0 0-.85 0ZM46.09 23.04c-.78.24-1.2.92-1.07 1.74.06.37.2.62.48.86.28.23.55.33.99.36.51.02.94-.09 1.23-.34.26-.21.31-.53.12-.69-.18-.16-.53-.1-.74.1-.31.32-.78.3-.98-.03-.1-.16-.12-.35-.03-.38.03-.01.44-.02.91-.02.67 0 .87-.01.93-.05.06-.05.07-.1.07-.38 0-.3-.01-.35-.13-.56a1.13 1.13 0 0 0-.62-.55c-.17-.07-.27-.1-.6-.1-.27 0-.46 0-.56.04Zm.74.65c.13.08.21.22.18.3-.02.05-.08.05-.47.05-.42-.01-.45-.02-.47-.09-.01-.09.13-.25.28-.31a.56.56 0 0 1 .48.05ZM17.64 27.57a.5.5 0 0 0-.15.84c.16.14.32.16.51.09.4-.15.43-.68.06-.89a.47.47 0 0 0-.42-.04ZM22.28 27.56A.48.48 0 0 0 22 28c0 .2.1.36.28.44A.5.5 0 0 0 23 28c0-.27-.23-.5-.5-.5a.6.6 0 0 0-.22.06ZM26.29 27.5c-.19.08-.27.2-.29.42 0 .16 0 .21.07.3.21.31.64.32.85.01.27-.4-.18-.93-.63-.73ZM37 28.02c-1 0-1.32.62-1.46 1.31-.05.3-.05 1.01 0 1.3.15.66.6 1.2 1.17 1.33.09.02.28.04.41.04.82 0 1.38-.54 1.38-1.26 0-.37-.17-.58-.46-.58-.3 0-.4.15-.4.54 0 .17-.02.21-.09.29-.11.12-.23.17-.42.17a.6.6 0 0 1-.48-.24c-.15-.23-.17-.38-.17-.94 0-.46 0-.55.07-.72.15-.43.51-.59.88-.4.15.08.2.21.2.47 0 .25.07.34.25.39.2.05.43-.03.5-.15.02-.05.04-.3.04-.72l.01-.65-.09-.1c-.17-.18-.49-.1-.53.13l-.02.12c-.26-.23-.43-.33-.79-.33ZM5.6 28.07c-.15.08-.2.23-.63 1.68-.2.67-.37 1.26-.4 1.32-.05.12-.08.13-.25.11-.25-.04-.32.19-.32.39 0 .32 0 .43.45.43h.97c.42 0 .5-.22.42-.59-.04-.15-.07-.17-.25-.18-.1 0-.13-.02-.14-.07a.43.43 0 0 1 .09-.32c.05-.06.1-.07.48-.07.46 0 .47 0 .52.22.05.19 0 .25-.18.25s-.22.05-.22.31c0 .39.14.45.56.45h.65C8 32 8 32 8 31.58c0-.3-.13-.44-.35-.4-.08.02-.12 0-.15-.05-.03-.04-.2-.69-.4-1.44-.19-.76-.37-1.43-.4-1.5-.07-.16-.17-.19-.61-.19-.3 0-.4.01-.5.07Zm.68 1.88c0 .04-.07.05-.26.05-.23 0-.24 0-.24-.07 0-.05.06-.33.14-.64l.14-.59a12.22 12.22 0 0 1 .22 1.25ZM24.11 28.66l-.12.02c-.12.03-.18.18-.18.46 0 .24-.03.28-.23.28-.14 0-.22.1-.21.28 0 .16.07.25.2.25.05 0 .12.02.15.04.06.03.07.05.06.72-.01.77 0 .88.18 1.08.15.17.34.21.67.21.2 0 .3 0 .4-.04.36-.16.53-.53.46-.97-.04-.29-.32-.43-.5-.24-.07.06-.08.1-.08.28 0 .25-.05.36-.17.36-.15 0-.17-.09-.17-.74 0-.5 0-.6.05-.65.04-.04.12-.05.35-.05.37 0 .43-.04.43-.27 0-.2-.05-.24-.44-.26-.25-.01-.34-.03-.36-.06a1.09 1.09 0 0 1-.03-.31c0-.15-.02-.28-.03-.3-.04-.08-.3-.13-.43-.1ZM9.32 29.02c-.3.04-.66.2-.87.38a1.57 1.57 0 0 0-.06 2.14c.34.35.92.52 1.49.44.33-.04.58-.15.8-.34.22-.17.32-.36.32-.59 0-.14-.02-.18-.13-.28-.11-.1-.16-.12-.31-.12-.24 0-.31.04-.41.22-.18.3-.4.42-.67.34-.3-.09-.46-.37-.46-.76 0-.5.35-.83.76-.7.12.03.13.04.1.2 0 .15 0 .18.11.26.23.17.58.15.8-.05.15-.14.18-.41.06-.64-.2-.38-.85-.59-1.53-.5Z"/><path d="M11.85 29.02c-.48.1-.79.57-.84 1.31-.06.74.19 1.37.62 1.62.31.17.69.15.94-.08l.16-.12c.03 0 .02.42-.01.52-.03.08-.05.1-.26.1-.2 0-.22 0-.28.09-.13.19-.06.5.13.54h1.09s.6 0 .6-.38c0-.25-.07-.34-.26-.32-.1.01-.14 0-.17-.04a9.6 9.6 0 0 1-.05-1.57l-.01-1.52A.7.7 0 0 0 13 29c-.26.01-.22.09-.22.28v.1l-.14-.14a.87.87 0 0 0-.79-.22Zm.68.85c.24.26.25 1.03 0 1.3-.2.25-.46.17-.6-.17a.95.95 0 0 1-.08-.5c0-.24.01-.32.07-.46.14-.3.41-.38.61-.17ZM19.83 29.02c-.5.09-.83.4-.88.83-.04.37.13.67.43.8.1.04.4.12.69.17.53.11.67.17.67.31 0 .14-.18.22-.45.22-.31 0-.47-.06-.67-.3-.17-.2-.35-.27-.57-.24-.24.04-.26.1-.27.56 0 .23 0 .45.02.48.08.16.5.17.59 0l.06-.1s.45.25 1 .25c.48 0 .99-.14 1.23-.6.18-.32.1-.77-.15-.98-.15-.12-.42-.2-.95-.3-.54-.1-.68-.16-.68-.26s.14-.21.27-.22c.3 0 .43.04.62.24.22.23.52.29.69.13.08-.07.1-.12.1-.3 0-.12 0-.3.02-.4.03-.23-.03-.3-.33-.3-.2 0-.22.02-.28.1l-.06.1c-.35-.15-.71-.26-1.1-.2ZM28.73 29.03c-.32.04-.6.18-.82.4-.25.26-.34.5-.36.96-.03.59.1.95.4 1.24.53.5 1.7.49 2.2-.02.26-.28.4-.64.4-1.1 0-.85-.44-1.37-1.23-1.48-.29-.04-.28-.04-.6 0Zm.57.74c.06.03.14.12.19.22.07.14.09.22.09.51 0 .55-.16.78-.5.79-.38 0-.58-.27-.58-.75 0-.37.05-.53.22-.69.12-.11.16-.13.3-.13.1 0 .22.03.28.05ZM32.7 29.03c-.22.04-.43.15-.64.33l-.14.12v-.15l-.03-.33H30.7c-.1.08-.15.46-.1.6.05.15.17.2.36.18.1-.02.14-.01.16.02.05.07.05 1.4 0 1.46-.02.04-.09.05-.2.04-.3-.01-.41.16-.33.46.06.22.68.24.68.24h.6s.6-.04.6-.36c0-.22-.02-.25-.2-.32-.1-.04-.13-.08-.15-.17-.04-.18-.03-.82.02-.98.09-.3.42-.48.7-.35.18.09.22.25.23.9 0 .53 0 .55-.2.6-.13.03-.21.14-.21.3 0 .47.5.38.83.38.83 0 1 0 1-.61-.07-.09-.1-.1-.24-.08-.1 0-.18 0-.2-.03a5.15 5.15 0 0 1-.05-.77c-.02-.79-.06-.98-.23-1.2-.2-.24-.67-.37-1.07-.28ZM39.93 29.01c-.64.08-1.06.52-1.17 1.21-.1.74.2 1.38.75 1.63.43.19 1.05.2 1.46 0 .48-.2.77-.74.77-1.4 0-.54-.22-1-.62-1.24-.3-.18-.72-.26-1.19-.2Zm.66.83c.16.17.2.33.19.75-.02.47-.2.7-.55.69a.5.5 0 0 1-.43-.25c-.14-.27-.13-.82.03-1.08.1-.18.21-.24.44-.24.16 0 .2.01.32.13ZM43.88 29.02a.81.81 0 0 0-.54.44l-.1.19v-.33c0-.34.02-.32-.54-.32-.54 0-.6 0-.67.21-.1.3.05.63.33.58.14-.02.15-.01.17.06.04.14.03 1.36-.01 1.44-.03.05-.06.06-.15.04-.18-.03-.29.01-.33.12-.06.12-.05.24 0 .39.07.15.46.16.65.16h.74c.57 0 .56 0 .64-.2.07-.18.06-.26-.06-.38-.1-.1-.11-.1-.32-.08-.16.02-.22.01-.24-.03a3.1 3.1 0 0 1 .13-1.34c.07-.14.23-.27.35-.27.08 0 .08.01.06.16-.02.15-.01.17.08.27.23.24.55.16.7-.16l.09-.18h.2c.17 0 .2 0 .22.07.03.14.02 2.32-.02 2.4-.03.05-.06.06-.19.05-.13-.02-.16-.01-.24.07-.39.4.17.62.53.62h.75s.61 0 .68-.15c.05-.13.05-.31-.02-.4-.05-.07-.08-.09-.3-.09-.3 0-.3 0-.3-.34v-.24l.1.08c.23.16.36.2.61.2.64 0 1.03-.5 1.11-1.37.06-.72-.22-1.39-.69-1.6-.37-.17-.82-.1-1.13.2l-.14.13v-.1c0-.2.03-.31-.53-.32-.48 0-.57.1-.64.17-.05.04-.08.1-.08.13 0 .04-.04.02-.12-.05a.83.83 0 0 0-.78-.23Zm2.96.8c.14.1.2.3.22.66.01.3 0 .36-.07.53-.14.3-.37.4-.58.22-.15-.14-.23-.38-.22-.74 0-.38.11-.64.32-.73.08-.02.25 0 .33.07ZM13.66 29.09c-.06.07-.08.12-.08.28 0 .17.01.2.1.27.04.04.12.07.15.07.2-.01.18-.06.2.84.01.6-.05 1.45.88 1.45.33 0 .56-.01.78-.22l.12-.12.03.15c.03.2.31.19.31.19h.42s.4 0 .46-.17c.06-.15.07-.29.02-.4-.06-.1-.1-.13-.28-.13-.1 0-.16-.01-.18-.05l-.01-1.13c0-.57-.02-1.02-.04-1.05-.03-.06-.08-.07-.57-.07h-.6c-.12.04-.2.4-.12.58.05.1.13.14.29.1.1 0 .12 0 .15.1.03.06.04.27.03.56-.01.42-.02.5-.1.63-.16.3-.53.35-.66.08a3.7 3.7 0 0 1-.08-1.02c0-.5-.03-1-.04-1.03h-.56c-.52 0-.54 0-.62.09Z"/><path d="M17.06 29.07c-.07.06-.09.1-.09.25s.02.18.08.24c.06.05.1.05.23.04.13-.02.14-.02.16.05.03.12.02 1.65-.01 1.71-.02.05-.06.05-.18.04-.12 0-.17 0-.2.04-.13.12-.11.36.02.49.06.06.11.07.23.07h1.1c.21 0 .3-.07.31-.3.01-.15 0-.18-.06-.24-.05-.06-.09-.07-.2-.06-.12.02-.15 0-.17-.04-.02-.03-.03-.9-.03-1.4 0-.49-.02-.88-.04-.9-.02-.04-.12-.05-.55-.06-.5 0-.52 0-.6.07ZM21.8 29.07c-.09.1-.11.24-.07.38.04.12.15.18.31.15.07-.01.12 0 .13.02.05.07.04 1.74 0 1.77a.43.43 0 0 1-.18.01c-.23-.01-.34.15-.26.39.07.21.08.21.87.21h.71l.08-.08c.08-.1.1-.34.02-.45-.04-.06-.08-.07-.2-.07l-.18-.01c-.02-.02-.03-.48-.04-.98 0-.55-.02-1.35-.04-1.37a1.91 1.91 0 0 0-.55-.04c-.41 0-.52 0-.6.07ZM25.95 29.04c-.16.12-.17.46 0 .53.05.02.13.02.2.01s.1 0 .13.02c.03.06.05 1.7.01 1.76-.02.05-.06.06-.17.04-.11 0-.16 0-.2.05-.14.11-.12.37.03.5.05.04.14.05.77.05h.71l.08-.08c.08-.1.1-.34.02-.45-.04-.06-.08-.07-.2-.07l-.18-.01c-.02-.02-.03-.48-.04-.98 0-.55-.02-1.35-.04-1.37a2.5 2.5 0 0 0-.54-.04c-.4 0-.53 0-.58.04ZM48.24 31.07c-.15.1-.24.25-.24.4 0 .26.13.44.37.5.17.06.32.02.46-.11a.5.5 0 0 0 .06-.68c-.14-.18-.46-.24-.65-.11Z"/></svg>