<!-- by TradingView --><svg width="56" height="56" viewBox="0 0 56 56" xmlns="http://www.w3.org/2000/svg"><path fill="url(#ahamp5zql)" d="M0 0h56v56H0z"/><path d="M10.5 24H4v.5c.8 0 1 .33 1 .5v6.5c0 .8-.83 1-1 1v.5h7v-2h-.5c0 1.2-.67 1.5-1 1.5H8c-.8 0-1-1-1-1.5v-2.5h1c.8 0 1 1 1 1.5h.5v-3H9c0 .8-.67 1-1 1H7v-2.5c0-.8.67-1 1-1h1c.8 0 1 1 1 1.5h.5v-2ZM51.5 24H45v.5c.8 0 1 .33 1 .5v6.5c0 .8-.83 1-1 1v.5h7v-2h-.5c0 1.2-.67 1.5-1 1.5H49c-.8 0-1-1-1-1.5v-2.5h1c.8 0 1 1 1 1.5h.5v-3H50c0 .8-.67 1-1 1h-1v-2.5c0-.8.67-1 1-1h1c.8 0 1 1 1 1.5h.5v-2Z" fill="#fff"/><path fill-rule="evenodd" d="M24 24h4c1 0 3 .5 3 2.5S28.67 29 27.5 29H27v2.5c0 .33.2 1 1 1v.5h-4v-.5c.33 0 1-.2 1-1V25c0-.17-.2-.5-1-.5V24Zm3 1.5c0-.33.1-1 .5-1 .5 0 1.5.5 1.5 2s-1 2-1.5 2H27v-3ZM40 24h-4v.5c.8 0 1 .33 1 .5v6.5c0 .8-.67 1-1 1v.5h4v-.5c-.8 0-1-.67-1-1V29h.5c.11 0 .24 0 .37-.02A18.43 18.43 0 0 1 41.5 33H44v-.5c-.4 0-1.17-1-1.5-1.5l-1.36-2.27c.96-.32 1.86-.99 1.86-2.23 0-2-2-2.5-3-2.5Zm-.5 4.5c.5 0 1.5-.5 1.5-2s-1-2-1.5-2c-.4 0-.5.67-.5 1v3h.5ZM32.95 22h1.1L35 33.98l-.19.02-.07-.9H32.7l-.03.9-.2-.01.32-7.86-.6 6.88-.18-.02.95-10.99Zm.07 2.81-.04.99.45-.53-.41-.46Zm.54.6-.47.55h.97l-.5-.54Zm.5.75h-.97l.5.55.48-.55Zm-.6.7-.5-.56-.05 1.2.56-.64Zm-.57 1.13-.05 1.3.65-.7-.6-.6Zm.74.74-.66.7h1.35l-.7-.7Zm.7.9h-1.36l.7.7.66-.7Zm-.8.83-.7-.7-.07 1.5.77-.8Zm-.78 1.23-.05 1.12.84-.6-.8-.52Zm.97.64-.8.57h1.66l-.86-.57Zm1 .43-.83-.55.74-.52.09 1.07Zm-.12-1.5-.8-.8.68-.7.12 1.5Zm-.12.15-.81-.8-.78.8h1.59Zm-.08.2-.68.49-.73-.49h1.41Zm.04-2.33-.68-.69.58-.6.1 1.29Zm-.14-1.78-.58-.64.49-.56.09 1.2Zm-.1.17-.6-.67-.58.67h1.18Zm-.01.2-.56.59-.59-.6h1.15Zm-.02-2.08-.48-.52.4-.46.08.98Zm-.14-1.74-.12-1.56-.29.68.4.88Zm-.51-1.12.3-.73h-.64l.34.73Zm-.41-.43.3.67-.36.89.06-1.56Zm.04 2.18.41.45.4-.45h-.8Zm-.07-.2.44-1.07.5 1.07h-.94Z" fill="#fff"/><path d="M33.32 19.18V22h.5v-2.5h1c.49 0 0-.8.49-.8.5 0 .5.48.99.95.4.37.5-.16.5-.47.5 0 0-.47-.5-.47-1 0-.5-.47-1-.95-.49-.47-.49.95-.98.95-.5 0 0-1.42 0-1.89s-.5 1.42-.5.47c0-.75.33-.94.5-.94v-1.4c0-.39.33.15.5.46.16-.47.19-1.41-1-1.41-1.49 0-.5 4.24-.5 5.18ZM15.5 24H12v.5c.8 0 1 .67 1 1v6c0 .8-.67 1-1 1v.5h3v-.5c-.8 0-1-.67-1-1V25l2.5 8h1l2.5-8v6.5c0 .4-.33.83-.5 1v.5H23v-.5c-.8 0-1-.67-1-1v-6c0-.4.67-.83 1-1V24h-3.5l-2 6-2-6Z" fill="#fff"/><defs><linearGradient id="ahamp5zql" x1="10.42" y1="9.71" x2="68.15" y2="76.02" gradientUnits="userSpaceOnUse"><stop stop-color="#1A1E21"/><stop offset="1" stop-color="#06060A"/></linearGradient></defs></svg>