<!-- by TradingView --><svg width="56" height="56" viewBox="0 0 56 56" xmlns="http://www.w3.org/2000/svg"><path fill="#F0F3FA" d="M0 0h56v56H0z"/><path d="M16 14h9c-1.53 1.67-5.48 5-9 5v-5Zm0 8.57v4.09c1.76.33 3.4.79 4.92 1.34-1.52.55-3.16 1-4.92 1.34v4.09c2.07.02 7.5 1.76 12.62 8.57H33a26.4 26.4 0 0 0-10.38-10.37c1-.37 2.03-.82 3.1-1.38C32 33.92 35.46 39.11 36.58 42H41c-3.3-6.62-7.5-11.08-11.6-14 4.1-2.92 8.3-7.38 11.6-14h-4.43c-1.12 2.89-4.57 8.08-10.84 11.75a27.95 27.95 0 0 0-3.11-1.38A26.4 26.4 0 0 0 33 14h-4.38c-5.13 6.81-10.55 8.55-12.62 8.57ZM16 42h9c-1.53-1.67-5.48-5-9-5v5Z" fill="#303958"/></svg>