<!-- by TradingView --><svg width="56" height="56" viewBox="0 0 56 56" xmlns="http://www.w3.org/2000/svg"><path fill="#1C2546" d="M0 0h56v56H0z"/><path d="M14 19H9v8h5v-1h-4v-2.5h3v-1h-3V20h4v-1ZM16 21h-1v6h1v-3.57c.27-.66.8-1.43 1.73-1.43.93 0 1.27.71 1.27 1.4V27h1v-3.73c0-.82-.6-2.27-2.08-2.27-.88 0-1.57.57-1.92 1.08V21Z" fill="#4977BD"/><path d="M21 33h-1v6h1v-3.88c.31-.57.84-1.12 1.65-1.12.96 0 1.35.71 1.35 1.4V39h1v-3.87c.3-.57.83-1.13 1.65-1.13.96 0 1.35.71 1.35 1.4V39h1v-3.73c0-.82-.61-2.27-2.16-2.27-1 0-1.77.7-2.1 1.24a2.06 2.06 0 0 0-1.9-1.24c-.8 0-1.45.44-1.84.9V33Z" fill="#fff"/><path fill-rule="evenodd" d="M26 26.24a3 3 0 1 1 0-4.47V21h1v7.01c0 1.1-.8 1.99-1.79 1.99H22v-1h2.93c.59 0 1.07-.53 1.07-1.2v-1.56ZM26 24a2 2 0 1 1-4 0 2 2 0 0 1 4 0ZM39 26.24a3 3 0 1 1 0-4.47V21h1v7.01c0 1.1-.8 1.99-1.79 1.99H35v-1h2.93c.59 0 1.07-.53 1.07-1.2v-1.56ZM39 24a2 2 0 1 1-4 0 2 2 0 0 1 4 0ZM33 27v-4.2c-.06-.6-.65-1.8-2.56-1.8-1.9 0-2.42 1.36-2.44 2h1.01c.14-.36.62-1 1.43-1 1.01 0 1.56.68 1.56 1.04s-.37.42-.96.42h-1.25c-.6.06-1.79.5-1.79 1.74 0 1.08 1.01 1.8 1.96 1.8a2.4 2.4 0 0 0 2.04-.96V27h1Zm-1-2.69h-1.91c-.37.07-1.09.34-1.09.87 0 .67.83.82 1.21.82.39 0 1.79-.36 1.79-1.18v-.5Z" fill="#4977BD"/><path fill-rule="evenodd" d="M35 39v-4.2c-.06-.6-.65-1.8-2.56-1.8-1.9 0-2.42 1.36-2.44 2h1.01c.14-.36.62-1 1.43-1 1.01 0 1.56.68 1.56 1.04s-.37.42-.96.42h-1.25c-.6.06-1.79.5-1.79 1.74 0 1.08 1.01 1.8 1.96 1.8a2.4 2.4 0 0 0 2.04-.96V39h1Zm-1-2.69h-1.91c-.37.07-1.09.34-1.09.87 0 .67.83.82 1.21.82.39 0 1.79-.36 1.79-1.18v-.5Z" fill="#fff"/><path fill-rule="evenodd" d="M44 27a3 3 0 0 0 2.83-2h-1.1A2 2 0 0 1 42 24h5a3 3 0 1 0-3 3Zm-1.73-4h3.46a2 2 0 0 0-3.46 0Z" fill="#4977BD"/><path d="M18.88 33.38h-1.13c-.06-.7-.83-1.38-1.78-1.38-.95 0-1.54.45-1.54 1.14 0 .7.77.99 1.9 1.28 1.72.46 2.67 1.04 2.67 2.32C19 38 17.75 39 16.15 39c-2.33 0-3.07-1.74-3.15-2.6h1c0 .74.96 1.6 2.03 1.6 1.07 0 1.97-.45 1.97-1.14 0-.7-.66-1.05-1.85-1.4-2.38-.63-2.91-1.27-2.91-2.32 0-1.04 1-2.14 2.73-2.14 2.14 0 2.83 1.58 2.91 2.38ZM43 39v-1h-.92c-.6 0-1.08-.47-1.08-1.06V34h2v-1h-2v-2h-1v6.24c0 .97.8 1.76 1.8 1.76H43ZM37 34.16c.21-.55.59-1.16 1.11-1.16H39v1h-.78c-.36.05-1.02.46-1.22 1.65V39h-1v-6h1v1.16Z" fill="#fff"/></svg>