<!-- by TradingView --><svg width="56" height="56" viewBox="0 0 56 56" xmlns="http://www.w3.org/2000/svg"><path fill="#F0F3FA" d="M0 0h56v56H0z"/><path d="M9.2 22.23a7 7 0 0 0-3.27 1.94c.42.23.9.45 1.44.63a8.35 8.35 0 0 1 1.83-2.57Zm-3.52 2.23a6.97 6.97 0 0 0-1.66 4.04c.32.28.85.6 1.62.9.24.1.52.19.82.28l-.01-.41c0-1.64.3-3 .77-4.13-.58-.2-1.1-.43-1.54-.68ZM4 28.96V29c0 1.6.54 3.07 1.44 4.25l.21.1c.54.27 1.2.5 2 .69a8.4 8.4 0 0 1-1.18-3.97c-.35-.1-.68-.2-.97-.32a6.4 6.4 0 0 1-1.5-.79Zm2.03 4.97a7 7 0 0 0 3.28 1.86 5.9 5.9 0 0 1-1.35-1.3c-.74-.15-1.38-.34-1.93-.56ZM11 36c-.2 0-.4 0-.6-.02a5.15 5.15 0 0 1-1.88-1.4c.74.12 1.56.19 2.48.2V36Zm.73-.04-.36.03v-1.22c.81 0 1.55-.07 2.22-.17a5.57 5.57 0 0 1-1.86 1.36Zm1.12-.2a7 7 0 0 0 3-1.7c-.51.17-1.07.32-1.69.44-.41.53-.86.94-1.31 1.25Zm3.58-2.33A6.97 6.97 0 0 0 18 29.16a11.06 11.06 0 0 1-2.25.9c-.12 1.7-.62 3.01-1.27 4 .75-.17 1.4-.4 1.95-.63Zm1.57-4.7a6.97 6.97 0 0 0-1.6-4.2 9.2 9.2 0 0 1-1.4.6 10.71 10.71 0 0 1 .77 4.54c.36-.1.68-.21.98-.33.5-.2.92-.4 1.25-.62Zm-1.86-4.48a7 7 0 0 0-3.02-1.93c.63.61 1.25 1.43 1.73 2.47.48-.16.9-.34 1.3-.54ZM11.37 22a7 7 0 0 1 .95.11c.75.6 1.57 1.5 2.17 2.78-.89.26-1.92.42-3.12.44v-3.33Zm-1.42.07c.34-.05.7-.08 1.05-.08v3.34a12.27 12.27 0 0 1-3.27-.43 7.78 7.78 0 0 1 2.22-2.83ZM8.18 34.15c.81.15 1.75.24 2.82.25V30.6c-1.69 0-3.05-.18-4.14-.44a7.73 7.73 0 0 0 1.32 3.98Zm3.2.25c.95-.02 1.81-.1 2.57-.24a7.55 7.55 0 0 0 1.41-4c-1.08.26-2.4.44-3.99.45v3.79Zm-3.8-9.15c.96.28 2.09.46 3.42.47v4.52c-1.72-.01-3.1-.2-4.17-.46v-.51c0-1.6.3-2.93.75-4.02Zm3.8.47c1.25-.02 2.33-.2 3.26-.47a10.32 10.32 0 0 1 .75 4.52c-1.07.27-2.4.45-4.02.47v-4.52Z" fill="#759ED4"/><path d="m21.3 32.14.8-1.55c.29.27 1.03.82 1.78.82.93 0 1.24-.51 1.24-.82 0-.3-.07-.67-1.43-.97-1.36-.31-2-.85-2-2.31S22.92 25 24.4 25c1.2 0 2.07.41 2.37.62l-.83 1.5c-.16-.18-.64-.57-1.27-.57-.78 0-.97.37-.97.76 0 .38.75.7 1.21.8.47.08 2.28.48 2.28 2.4 0 1.93-1.62 2.49-3.3 2.49-1.34 0-2.24-.6-2.59-.86ZM16 33v-8h4.5v2H18v1h2.5v2H18v1h2.5v2H16Zm18.5 0v-8H39v2h-2.5v1H39v2h-2.5v1H39v2h-4.5ZM28 33v-8h3.52a2.62 2.62 0 0 1 2.62 2.62c0 1.44-1.17 2.38-2.62 2.38H30v3h-2Zm3.05-6.5H30v2h1.05c.53 0 .95-.45.95-1s-.42-1-.95-1ZM39 25l3 4.02V33h2v-3.98L47 25h-2.45l-1.57 2.25L41.31 25H39Z"/><path d="M44.31 20c-6.68 0-14.36 3.22-17.37 4.82 7.98-2.93 12.77-3.57 15.86-3.57 3.1 0 7.05.64 7.05 2.93 0 1.83-2.4 3.4-3.6 3.97 3.98-1 5.47-3.33 5.72-4.36C52.2 22.52 51 20 44.31 20Z" fill="#003EA0"/></svg>