<!-- by TradingView --><svg xmlns="http://www.w3.org/2000/svg" width="56" height="56" viewBox="0 0 56 56"><path fill="#F0F3FA" d="M0 0h56v56H0z"/><path d="M20.02 16.25l-1.4 7.63c1.02.31 3.34 1.03 4.34 1.4 1 .38 3.11.73 4.04.86V12.7c-2.1.68-5.53 2.64-6.98 3.54z" fill="#7C581C"/><path d="M34.03 11L28 12.47V26.4c1.68-.5 7.11-.46 9.42-.4a514.45 514.45 0 0 1-3.4-15z" fill="#7E5720"/><path d="M16.9 34.15l.69-5.77c2.03 1.68 7.23 1.88 9.41 1.77 0 4.82 2.72 5.96 4.25 5.92h7.83l.57 3.65c-.26.04-1.46.1-4.18 0-3.4-.12-6.45-1.81-8.64-3.19-2.18-1.38-5.33-2.9-6.53-2.98a12.1 12.1 0 0 0-3.4.6z" fill="#7B6A58"/><path d="M16.62 35.52L16 42.7c6.99.77 18.91-.14 24-.7v-1.62c-.3-.03-1.7-.07-4.8 0-3.9.1-5.66-1-8.21-2.5-2.56-1.48-5.43-3.19-6.4-3.19-.78 0-2.97.56-3.97.83z" fill="#82531D"/><path d="M31.27 34.8c-2.64-.5-3.28-3.37-3.27-4.75 4.33-.46 8.86 1.22 10.59 2.12l.41 2.62h-7.73z" fill="#766656"/><path d="M17.8 27.73l.5-3c1.54.86 6.6 1.97 8.7 2.42v2c-.9.08-3.36.19-4.65 0-1.3-.2-3.58-1.03-4.56-1.42z" fill="#CEAC7C"/><path d="M28 29.08v-1.81c3.77-.58 8.07-.39 9.77-.22l.53 3.78c-2.78-1.47-8.12-1.85-10.3-1.75z" fill="#CDAB7B"/></svg>