<!-- by TradingView --><svg width="56" height="56" viewBox="0 0 56 56" xmlns="http://www.w3.org/2000/svg"><path fill="#588AA1" d="M0 0h56v56H0z"/><path d="M17.27 15c-.03.34.06 1.07.65 1.48-.33.3-.68.65-1.05 1.08a3.2 3.2 0 0 0-1.3-2.01c-.39.7-.82 2.25.41 3.15l-.6.92a3.13 3.13 0 0 0-1.56-1.87c-.3.75-.53 2.41.9 3.1-.15.31-.28.63-.41.96a3.17 3.17 0 0 0-1.9-1.36c-.11.77.02 2.35 1.42 2.78-.1.35-.18.72-.25 1.1a3.14 3.14 0 0 0-2.05-1.11c-.02.8.33 2.4 1.85 2.58-.03.36-.04.72-.04 1.1v.04c-.35-.36-1.11-.8-2.34-.74.15.8.83 2.3 2.39 2.12.02.37.06.73.11 1.08a3.04 3.04 0 0 0-2.37-.23c.28.73 1.2 2.03 2.62 1.64l.26 1.02a3.11 3.11 0 0 0-2.29.08c.37.7 1.4 1.89 2.79 1.35.16.4.33.78.51 1.15a3.2 3.2 0 0 0-2.17.64c.5.58 1.74 1.44 2.93.7.14.23.3.45.45.67-.46.13-1.04.44-1.6 1.07.55.4 1.72.87 2.66.25.17.2.34.37.51.54-.47.14-1.05.47-1.6 1.14.6.4 1.92.87 2.86 0 .26.2.5.39.74.55-.4.24-.85.66-1.23 1.33.64.27 1.96.5 2.75-.43a6.75 6.75 0 0 0 3.23.62c.33 0 .67-.03 1.03-.05-.96.38-1.73.88-2.13 1.2l.28.36A8.14 8.14 0 0 1 28 41.36c1.9.1 3.62 1.12 4.27 1.64l.28-.36a8.56 8.56 0 0 0-2.13-1.2l1.02.06a6.75 6.75 0 0 0 3.24-.63c.79.93 2.1.7 2.75.43a3.56 3.56 0 0 0-1.23-1.32l.74-.56c.94.87 2.26.4 2.86 0-.55-.67-1.13-1-1.6-1.14.17-.17.34-.35.5-.54.95.62 2.12.14 2.68-.25a3.43 3.43 0 0 0-1.61-1.07l.45-.68c1.19.75 2.43-.11 2.93-.69a3.15 3.15 0 0 0-2.17-.64c.18-.37.35-.75.51-1.15 1.38.54 2.42-.65 2.79-1.35a3.11 3.11 0 0 0-2.3-.08c.1-.33.19-.67.27-1.01 1.42.38 2.34-.92 2.62-1.65a3.04 3.04 0 0 0-2.37.23c.05-.35.09-.71.11-1.08 1.56.18 2.24-1.32 2.39-2.12-1.23-.07-1.99.38-2.34.74v-.05c0-.37-.01-.73-.04-1.09 1.52-.18 1.87-1.78 1.85-2.58-1.1.18-1.74.7-2.05 1.1-.07-.37-.16-.74-.25-1.1 1.4-.42 1.53-2 1.41-2.77a3.17 3.17 0 0 0-1.89 1.36c-.13-.33-.26-.65-.4-.95 1.42-.7 1.2-2.36.9-3.11a3.13 3.13 0 0 0-1.57 1.87c-.2-.33-.4-.63-.6-.92 1.23-.9.8-2.46.41-3.15a3.2 3.2 0 0 0-1.3 2c-.37-.42-.72-.78-1.05-1.07.59-.41.68-1.14.65-1.48H37.6l-.32.9-.23-.9h-1.51c.18.7 1.23.97 1.74 1.03-1.31.08-1.67.65-1.69.92 1.12.73 1.85.32 2.2-.13.31.3.66.65 1.02 1.07-1.21-.09-1.85.48-2.03.8 1.13 1.22 2.3.78 2.88.3.19.26.38.55.56.85-1.16-.22-1.85.24-2.06.53.92 1.3 2.07 1.1 2.73.73.15.31.3.64.42.98-1.13-.55-1.95-.25-2.23 0 .66 1.59 1.95 1.55 2.65 1.28.1.38.2.77.27 1.17-1.05-.68-1.9-.49-2.2-.29.43 1.6 1.63 1.78 2.37 1.65.03.31.04.63.04.96-.85-.8-1.66-.79-1.98-.66.08 1.62 1.17 2.08 1.93 2.12l-.1 1c-.7-1-1.52-1.15-1.87-1.1-.23 1.7.88 2.35 1.62 2.5-.1.39-.19.76-.3 1.13-.58-1.15-1.42-1.4-1.79-1.39-.4 1.67.63 2.43 1.35 2.65-.18.44-.37.86-.58 1.26-.28-1.3-1.05-1.77-1.42-1.84-.83 1.59.13 2.6.78 2.96-.19.3-.39.59-.59.86-.13 0-.24 0-.32.03.09-1.46-.6-2.15-.95-2.31a2.08 2.08 0 0 0 .15 3.13c.07.1.14.18.22.26-.24.26-.48.51-.72.74-.09 0-.17 0-.23.02.14-1.45-.52-2.17-.87-2.34a2.08 2.08 0 0 0 .04 3.13l.06.08c-.33.25-.64.48-.93.67a1.37 1.37 0 0 0-.42-.07c.38-1.4-.15-2.23-.46-2.46-1.49 1.11-.95 2.52-.5 3.09l.09.18-.36.15a6.4 6.4 0 0 1-2.6.4l-1.05-.06-.37-.03a26.44 26.44 0 0 0-2.33-.06 26.44 26.44 0 0 0-2.12.09l-1.05.06a6.31 6.31 0 0 1-2.96-.55l.09-.18c.45-.57.99-1.98-.5-3.1-.3.24-.84 1.06-.46 2.47-.1 0-.25.02-.42.07a19 19 0 0 1-.93-.67l.06-.08a2.08 2.08 0 0 0 .04-3.13c-.35.17-1 .89-.87 2.34a1.12 1.12 0 0 0-.23-.02c-.24-.23-.48-.48-.72-.74l.22-.26a2.08 2.08 0 0 0 .15-3.13c-.35.16-1.04.85-.95 2.3a1.24 1.24 0 0 0-.32-.02c-.2-.27-.4-.56-.59-.86.65-.35 1.6-1.37.78-2.96-.37.07-1.14.54-1.42 1.84-.2-.4-.4-.82-.58-1.26.72-.22 1.76-.98 1.35-2.65-.37-.02-1.2.24-1.79 1.39-.11-.37-.2-.74-.3-1.13.74-.15 1.85-.8 1.62-2.5-.35-.05-1.18.1-1.86 1.1-.05-.33-.08-.66-.1-1 .75-.04 1.84-.5 1.92-2.12-.32-.13-1.13-.14-1.98.66 0-.33.01-.65.04-.96.74.13 1.94-.05 2.37-1.65-.3-.2-1.15-.4-2.2.3.07-.41.16-.8.27-1.18.7.27 2 .3 2.65-1.29-.28-.24-1.1-.54-2.23 0 .13-.33.27-.66.42-.97.66.37 1.8.58 2.73-.73-.21-.29-.9-.75-2.06-.53.18-.3.37-.59.56-.86.59.49 1.75.93 2.88-.3-.18-.3-.82-.88-2.03-.8.36-.41.7-.77 1.03-1.06.34.45 1.07.86 2.19.13-.02-.27-.38-.84-1.69-.92.5-.06 1.56-.34 1.74-1.03h-1.51l-.23.9-.32-.9h-1.13Zm10.51 23A11.1 11.1 0 0 0 39 27c0-6.08-5.02-11-11.22-11-5.13 0-9.46 3.38-10.79 8h11.34A7.9 7.9 0 0 1 30 20.5V20h-9.44c1.85-1.85 4.42-3 7.27-3C33.45 17 38 21.48 38 27s-4.55 10-10.17 10c-2.85 0-5.42-1.15-7.27-3H30v-.5a7.82 7.82 0 0 1-1.67-3.5H17c1.33 4.62 5.66 8 10.8 8Zm2.72-16c.25 0 .5.21.5.47v3.38c0 .36-.34.66-.69.66h-12.8a.52.52 0 0 1-.51-.54c0-.3.23-.53.51-.53H30v-2.97c0-.26.25-.47.5-.47Zm2 0c-.25 0-.5.21-.5.47v3.38c0 .36.26.66.61.66l2.88-.01c.28 0 .51-.23.51-.53 0-.3-.23-.47-.51-.47H33v-3.03c0-.26-.25-.47-.5-.47Zm-.5 9.53c0 .26.26.47.5.47s.5-.21.5-.47v-2.96h2.51c.27 0 .49-.24.49-.54 0-.3-.22-.53-.49-.53h-2.9c-.34 0-.61.3-.61.66v3.37Zm-1 0c0 .26-.25.47-.5.47s-.5-.21-.5-.47v-2.96H17.51a.52.52 0 0 1-.51-.54c0-.3.23-.53.51-.53h12.82c.35 0 .67.3.67.66v3.37Z" fill="#fff"/></svg>