<!-- by TradingView --><svg xmlns="http://www.w3.org/2000/svg" width="56" height="56" viewBox="0 0 56 56"><path fill="#FF5000" d="M0 0h56v56H0z"/><path d="M27.59 26.13A.7.7 0 0 1 28 26c.15 0 .3.05.43.13L31.3 28l-2.87 1.88A.74.74 0 0 1 28 30a.7.7 0 0 1-.41-.12L24.7 28l2.89-1.87Zm20.39-.16-2.85-1.95a.08.08 0 0 0-.06-.02c-.04 0-.07.04-.07.08 0 .02.01.05.03.06.34.47.67.97.67 1.56 0 .77-.4 1.54-1.03 1.98l-14.14 9.66c-.76.5-1.63.66-2.53.66-.9 0-1.8-.15-2.55-.66l-6.06-4.32c-.21-.14-.39-.39-.39-.65 0-.25.18-.5.39-.64l2.23-1.57 5.12 3.48c.37.26.81.36 1.26.36.45 0 .89-.1 1.26-.36l11.76-8c.65-.45.98-1.15.98-1.93s-.33-1.49-.98-1.93l-9.22-6.62a6.8 6.8 0 0 0-7.6 0l-16.19 11a2.4 2.4 0 0 0-.74 3.05c.18.34.43.63.74.84l2.83 1.9c.01.01.06.05.08.05.05 0 .08-.02.08-.08a4.04 4.04 0 0 1-.63-1.13 2.36 2.36 0 0 1-.07-.51 2.46 2.46 0 0 1 1.02-1.97l14.14-9.61c.76-.5 1.64-.7 2.54-.7.9 0 1.78.2 2.54.7l6.12 4.36c.2.15.34.4.34.65a.8.8 0 0 1-.34.64l-2.25 1.37-5.15-3.3A2.29 2.29 0 0 0 28 22c-.45 0-.89.17-1.26.42l-11.66 7.91c-.59.4-1.08 1.2-1.08 1.93s.5 1.52 1.08 1.93l9.13 6.65a6.77 6.77 0 0 0 7.6 0l16.18-11.06a2.32 2.32 0 0 0 1.01-1.9c0-.76-.4-1.5-1.01-1.91" fill="#fff"/></svg>