<!-- by TradingView --><svg xmlns="http://www.w3.org/2000/svg" width="56" height="56" viewBox="0 0 56 56"><path fill="#F0F3FA" d="M0 0h56v56H0z"/><path d="M19.47 34.7a9.29 9.29 0 0 1-4.31-1.56 28.99 28.99 0 0 1-3.6-2.65c-.8-.69-1.8-1.86-2.56-3.24.24.8 2.62 8.6 6.33 10.27 1.94.96 3.85.4 5.9-.91.61-.56 2.17-2.14 3.24-3.38a9.17 9.17 0 0 1-5 1.47z" fill="url(#a5isua25h)"/><path d="M33.64 37.85c-.26 0-.57-.04-.88-.1a114.7 114.7 0 0 1-9.23-3.48c.34-.35.65-.7.94-1.04l-.36.22a8.68 8.68 0 0 0 1.49-1.24 13.96 13.96 0 0 1 5.33-3.52 59.4 59.4 0 0 0 5.05 2.96c.86.33 1.55.58 2.42.58h.31a10.02 10.02 0 0 1-1.4 3.8c-.49.62-1.07 1-1.73 1.33-.7.3-1.27.5-1.94.5z" fill="url(#b5isua25h)"/><path d="M9.27 22.96a9 9 0 0 0 .5 2.73 12.1 12.1 0 0 0 2.6 3.87l.03.02.02.02c.22.23.7.6 1.27 1 .69-.02 1.51.23 2.55.54a71.5 71.5 0 0 1 5.05 2.16 6.82 6.82 0 0 0 3.38-1.96 15.52 15.52 0 0 1 4.93-3.47l-2.29-1.33c-1.22-.71-10.44-5.83-13.93-6.16-2.91-.27-4.11.87-4.11 2.58z" fill="url(#c5isua25h)"/><path d="M39.16 35.14c.2-.47.37-.98.53-1.49.2-.73.31-1.4.31-2 0-1.33-.49-2.36-1.49-3.25a6.28 6.28 0 0 0-4.31-1.6c-.91 0-1.87.16-2.91.47a14.82 14.82 0 0 0-4.71 2.42c1.04-1.37 3.82-5.24 6.86-7.69 3.23-2.6 6.25-3 7.94-3 .58 0 1 .04 1.22.07.82.09 4.4.93 4.4 5.02 0 .27-.02.56-.04.87-.63 4.24-4.76 7.65-4.76 7.65l-3.04 2.53z" fill="url(#d5isua25h)"/><defs><linearGradient id="a5isua25h" x1="7.75" y1="30.33" x2="22.86" y2="36.6" gradientUnits="userSpaceOnUse"><stop stop-color="#87878B"/><stop offset=".09" stop-color="#919195"/><stop offset=".34" stop-color="#A5A7A9"/><stop offset=".5" stop-color="#ADAFB1"/><stop offset=".76" stop-color="#A1A3A5"/><stop offset="1" stop-color="#939496"/></linearGradient><radialGradient id="b5isua25h" cx="0" cy="0" r="1" gradientUnits="userSpaceOnUse" gradientTransform="matrix(14.8628 0 0 14.8693 23.63 28.3)"><stop offset=".33" stop-color="#95C73E"/><stop offset=".56" stop-color="#8DBE3E"/><stop offset=".75" stop-color="#81AF3E"/><stop offset=".92" stop-color="#6F9A3D"/><stop offset="1" stop-color="#648D3D"/></radialGradient><radialGradient id="c5isua25h" cx="0" cy="0" r="1" gradientUnits="userSpaceOnUse" gradientTransform="matrix(14.7582 0 0 14.7647 22.96 28.53)"><stop stop-color="#97CA3E"/><stop offset=".33" stop-color="#95C73E"/><stop offset=".56" stop-color="#8DBE3E"/><stop offset=".75" stop-color="#81AF3E"/><stop offset=".92" stop-color="#6F9A3D"/><stop offset="1" stop-color="#648D3D"/></radialGradient><linearGradient id="d5isua25h" x1="33.68" y1="23.71" x2="45.24" y2="29.71" gradientUnits="userSpaceOnUse"><stop stop-color="#C8CACC"/><stop offset="1" stop-color="#7A797D"/></linearGradient></defs></svg>