<!-- by TradingView --><svg width="56" height="56" viewBox="0 0 56 56" xmlns="http://www.w3.org/2000/svg"><path fill="url(#abyevuq0j)" d="M0 0h56v56H0z"/><path d="M4 32v-8h5v1H5v2.5h3.64v1H5V31h4v1H4Zm7.13-8 2.44 6.86L16.05 24h1.12l-2.94 8h-1.3L10 24h1.13Zm9.46 1.18L21.97 29H19.3l1.3-3.82ZM18.84 30h3.51l.67 2h1.11l-2.94-8h-1.17l-2.96 8h1.1l.68-2Zm11.2 2-2.02-3.17L26.2 32H25l2.45-4.07L24.96 24h1.24l1.96 3.1L30 24h1.19l-2.45 4 2.52 4h-1.23ZM33 24h1v8h-1v-8Zm4 4c0 1.7 1.26 3 3.01 3A2.92 2.92 0 0 0 43 28c0-1.7-1.24-3-2.99-3A2.92 2.92 0 0 0 37 28Zm7 0c0 2.25-1.73 4-3.99 4A3.94 3.94 0 0 1 36 28c0-2.27 1.75-4 4.01-4A3.93 3.93 0 0 1 44 28Zm7-4v6.33L47 24h-1v8h1v-6.32L51 32h1v-8h-1Z" fill="#fff"/><defs><linearGradient id="abyevuq0j" x1="47.47" y1="3.49" x2="0" y2="50.96" gradientUnits="userSpaceOnUse"><stop stop-color="#9AC1DE"/><stop offset=".37" stop-color="#95BCD9"/><stop offset=".58" stop-color="#648397"/><stop offset=".62" stop-color="#43595D"/><stop offset=".7" stop-color="#648397"/><stop offset=".82" stop-color="#7699AF"/><stop offset=".91" stop-color="#9BC4E0"/></linearGradient></defs></svg>