<!-- by TradingView --><svg width="56" height="56" viewBox="0 0 56 56" xmlns="http://www.w3.org/2000/svg"><path fill="#F0F3FA" d="M0 0h56v56H0z"/><path fill-rule="evenodd" d="M25 36H10.29c-1.45-.06-4.34-.91-4.29-3.85v-8.02c-.01-1 .91-3.04 4.7-3.13h7.12c1.49-.03 4.07.62 4.18 3.53v2.19L9.03 30.78c-.11.95.24 3.05 2.58 3.22H25v2ZM9 28.8v-3.63c0-.68.65-2.17 2.96-2.17h4.88c.87.01 2.24.77 2.19 2.7L9 28.8Z" fill="url(#akshfflpz)"/><path d="M11.62 30H6v2.15C5.95 35.1 8.84 35.94 10.3 36H25v-2H11.61c-2.34-.17-2.7-2.27-2.58-3.22l2.59-.78Z" fill="#5AB241"/><path d="M31.08 34.66 23.5 21h3l6.72 12.12L39.95 21H43l-7.38 13.39c-.25.5-.99 1.61-2.28 1.61a2.48 2.48 0 0 1-2.27-1.34Z" fill="url(#bkshfflpz)"/><path d="m28.5 30 2.58 4.66c.22.4.82 1.34 2.27 1.34 1.3 0 2.04-1.1 2.28-1.61L38.05 30h-3.1l-1.73 3.12L31.49 30h-3Z" fill="#5AB241"/><path fill="url(#ckshfflpz)" d="M45 21h3v15h-3z"/><path d="M48 36v-6h-3v6h3Z" fill="#5AB241"/><path fill="#8BC43F" d="M45 18h3v2h-3z"/><defs><linearGradient id="akshfflpz" x1="15.5" y1="21" x2="15.5" y2="36" gradientUnits="userSpaceOnUse"><stop stop-color="#8BC43F"/><stop offset=".58" stop-color="#92CA6E"/></linearGradient><linearGradient id="bkshfflpz" x1="33.25" y1="21" x2="33.25" y2="36" gradientUnits="userSpaceOnUse"><stop stop-color="#84C033"/><stop offset=".59" stop-color="#96D177"/></linearGradient><linearGradient id="ckshfflpz" x1="46.5" y1="21" x2="46.5" y2="36" gradientUnits="userSpaceOnUse"><stop stop-color="#8CC341"/><stop offset=".59" stop-color="#8FCB70"/></linearGradient></defs></svg>