<!-- by TradingView --><svg width="56" height="56" viewBox="0 0 56 56" xmlns="http://www.w3.org/2000/svg"><path fill="#F0F3FA" d="M0 0h56v56H0z"/><path d="M11 28.88a6.54 6.54 0 0 1-4 1.2 7.38 7.38 0 0 1-3-.6V31h7v-2.12Zm0-4.87V24h-.11l.11.01ZM7 24H4v.68A6.99 6.99 0 0 1 7 24Z" fill="#4A63AE"/><path d="M4 27.82c.92 1.12 2.88 1.68 4 1.68 1.2 0 2.5-.33 3-.5v-.5c-.83.5-2.83.87-5 0-1.14-.46-1.79-1.04-2-1.65v.97Zm0-1.9c.26-.76 1.14-1.47 2.5-1.92-.83.67-2.1 2.3-.5 3.5 1.6 1.2 4 .83 5 .5v-4H5.5c-.4.1-1.05.41-1.5 1v.92Z" fill="#1AB7EA"/><path d="M12 28c0 1.5.8 2.97 2.53 3 .97 0 1.47-.5 1.47-.5v-1c-.5.5-1 .5-1.47.5-1.03 0-1.53-.95-1.53-2 0-1.13.5-2 1.5-2 .5 0 1.33.23 1.5.5v-1s-.5-.5-1.5-.5c-1.54 0-2.5 1.64-2.5 3ZM24.85 27.77c-.5 2.53-.59 2.96-.76 3.03-.06.02-.09.15-.09.2h1.5c0-.06-.09-.23-.15-.23-.16 0-.13-.49.15-2.02l.24-1.35.84 1.8c.46.99.93 1.8.93 1.8s.39-.75.76-1.65l.76-1.82s.14.11.36 1.21c.31 1.51.34 2.03.17 2.03-.06 0-.06.17-.06.23H31c0-.23-.08-.23-.18-.34-.14-.14-.28-.81-.79-3-.47-2.04-.72-2.64-.72-2.64s-.48.91-.96 2.06a75.6 75.6 0 0 1-.89 2.05s-.45-.93-.95-2.07c-.51-1.13-1-2.06-1-2.06s-.55 2.18-.66 2.77ZM49 25l-1.36 2.72c-1.37 3.05-1.36 3.04-1.52 3.04-.06 0-.12.18-.12.24h1.64c0-.1.03-.17-.11-.27-.1-.07-.08-.18.11-.65l.24-.58h2.2l.24.55c.22.53.23.57.1.67-.15.1-.12.28-.12.28H52s-.04-.24-.19-.37c-.1-.1-.75-1.4-1.44-2.9L49 25Zm.68 3.5H48.25l.37-.8.37-.88.37.86c.2.46.32.82.32.82ZM20 25l-1.36 2.72c-1.37 3.05-1.36 3.04-1.52 3.04-.06 0-.12.18-.12.24h1.64c0-.1.03-.17-.11-.27-.1-.07-.08-.18.11-.65l.24-.58h2.2l.24.55c.22.53.23.57.1.67-.15.1-.12.28-.12.28H23s-.04-.24-.19-.37c-.1-.1-.75-1.4-1.44-2.9L20 25Zm.68 3.5H19.25l.37-.8.37-.88.37.86c.2.46.32.82.32.82ZM32 25c0 .06.5.5.5.5v5s-.5.42-.5.5h2.5c1.63.01 2.5-.25 2.5-1.75 0-1.26-1.25-1.25-1.25-1.25s.75-.36.75-1.25c0-1.07-.63-1.73-2-1.75H32Zm3.5 1.75c0 .5-.5.75-1 .75h-1V26h1c.5 0 1 .25 1 .75Zm.5 2.5c0 .5-.33.75-1.19.75H33.5v-1.5H35c.75 0 1 .25 1 .75ZM37.5 25c0 .5.5 0 .5.56v4.9c0 .23-.5.36-.5.54h2c0-.23-.5-.2-.5-.53V26h1c1 0 .98.64 1 1 0 1-1 1-1.5 1 0 0 1.44 2.65 1.61 2.8.22.19.39.2.89.2h.5c.09-.07 0-.27-.15-.31-.1-.03-1.11-1.83-1.35-2.19.89-.27.98-.68 1-1.5 0-1.5-1-2-2-2h-2.5ZM43 25c0 .07.06.25.13.25.28 0 .36.04.37.75v4c0 .5-.09.68-.26.72-.08.03-.24.22-.24.28h2c0-.07-.14-.28-.2-.28-.29 0-.3-.12-.3-.72-.02-1.22 0-4 0-4 0-.75.24-.7.34-.75.1-.04.16-.2.16-.25h-2Z" fill="#4A63AE"/></svg>