<!-- by TradingView --><svg width="56" height="56" viewBox="0 0 56 56" xmlns="http://www.w3.org/2000/svg"><path fill="#F0F3FA" d="M0 0h56v56H0z"/><path d="m45 21.52-2.31-2.5-7.64 8.24-6.36-6.86a4.2 4.2 0 0 0-6.25 0L14 29.5l2.31 2.5 9.26-9.98 6.36 6.86a4.2 4.2 0 0 0 6.25 0L45 21.52Z" fill="url(#azpgkagln)"/><path d="m15.1 19 2.38 2.34-6.54 6.45a1.47 1.47 0 0 0 0 2.1l4.28 4.22c.6.58 1.55.58 2.14 0l8.26-8.14L28 28.31l-8.5 8.38a4.59 4.59 0 0 1-6.42 0L8.33 32a4.43 4.43 0 0 1 0-6.32L15.1 19Z" fill="url(#bzpgkagln)"/><path d="M49 25.38 46.66 23 35.78 34.06c-.59.59-1.53.59-2.11 0l-4.33-4.4L27 32.03l4.56 4.64a4.42 4.42 0 0 0 6.32 0L49 25.37Z" fill="url(#czpgkagln)"/><defs><linearGradient id="azpgkagln" x1="45.42" y1="20.52" x2="6.01" y2="27.95" gradientUnits="userSpaceOnUse"><stop stop-color="#45D4FF"/><stop offset="1" stop-color="#A606FE"/></linearGradient><linearGradient id="bzpgkagln" x1="45.42" y1="20.52" x2="6.01" y2="27.95" gradientUnits="userSpaceOnUse"><stop stop-color="#45D4FF"/><stop offset="1" stop-color="#A606FE"/></linearGradient><linearGradient id="czpgkagln" x1="49" y1="25.38" x2="26.54" y2="31.44" gradientUnits="userSpaceOnUse"><stop stop-color="#8EB0FE"/><stop offset="1" stop-color="#5FE5FF"/></linearGradient></defs></svg>