<!-- by TradingView --><svg width="56" height="56" viewBox="0 0 56 56" fill="none" xmlns="http://www.w3.org/2000/svg">
<rect width="56" height="56" fill="url(#paint0_linear_228_5396)"/>
<path d="M19 25V18H23V19.3553H21V20.7866H23V22.1419H21V25H19Z" fill="white"/>
<path d="M24 25L26.4112 18H28.5888L31 25H29.1321L28.8448 23.9847H26.1418L25.8589 25H24ZM26.5459 22.6652H28.4407L27.4933 19.4224L26.5459 22.6652Z" fill="white"/>
<path d="M34 25V19.4224H32V18H38V19.4224H36V25H34Z" fill="white"/>
<path d="M4 34V27H6.70772C8.17754 27 9 27.9733 9 29.3393C9 30.8872 8.30689 31.7188 6.625 31.7188H6V34H4ZM6 30.301H6.27574C6.97721 30.301 7.36489 29.9464 7.36489 29.3169C7.36489 28.67 7.0016 28.3642 6.23897 28.3642H6V30.301Z" fill="white"/>
<path d="M12.4834 28.3642H12V30.301H12.5331C13.2851 30.301 13.7053 29.9461 13.7053 29.3169C13.7053 28.6738 13.3125 28.3642 12.4834 28.3642ZM10 34V27H12.851C14.2322 27 15.6871 27.6847 15.6871 29.2454C15.6871 30.2766 15.0325 30.9128 14 31L16 34H13.6507L12 31.0211V34H10Z" fill="white"/>
<path fill-rule="evenodd" clip-rule="evenodd" d="M23 30.5C23 28.5268 21.4749 27 19.5021 27C17.5219 27 16 28.5191 16 30.5C16 32.4698 17.5335 34 19.5021 34C21.4681 34 23 32.4651 23 30.5ZM19.5018 29C18.5744 29 18 29.7093 18 30.5C18 31.2878 18.5781 32 19.5018 32C20.427 32 21 31.2884 21 30.5C21 29.7137 20.4249 29 19.5018 29Z" fill="white"/>
<path d="M24 32H24.4779C25.3867 32 26 31.6381 26 30.6798V29L24 29V27L28 27V31.3026C28 33.0829 26.9873 34 25.0026 34H24L24 32Z" fill="white"/>
<path d="M29 34V27H34V28.5H31V29.5H34V31.5H31V32.5H34V34H29Z" fill="white"/>
<path d="M43 34V28.5H41V27H47V28.5H45V34H43Z" fill="white"/>
<path d="M48.6162 31.906C48.6341 32.35 48.8923 32.5 49.4176 32.5C49.9424 32.5 50.0012 32.2096 50.0012 31.8329C50.0012 30.7759 47.0579 31.0473 47.0579 29.0424C47.0579 27.7309 48.2026 27 49.4176 27C50.9822 27 51.8353 27.7366 51.8531 29.0639L50.268 29.0682C50.2561 28.5669 50.0021 28.5 49.5 28.5C49.1636 28.5 49 28.6816 49 29.0682C49 30.0504 52 29.8163 52 31.8329C52 33.2649 50.7343 34 49.4265 34C48.138 34 47.0436 33.2659 47 31.9017L48.6162 31.906Z" fill="white"/>
<path fill-rule="evenodd" clip-rule="evenodd" d="M40.0699 29.718C39.7788 29.2874 39.2546 29 38.6562 29C37.7415 29 37 29.6716 37 30.5C37 31.3284 37.7415 32 38.6562 32C39.2507 32 39.7721 31.7163 40.0642 31.2903L41 32.9582C40.3489 33.645 39.4955 34 38.4705 34C36.5419 34 35 32.4571 35 30.5C35 28.5326 36.4959 27 38.4705 27C39.4687 27 40.3264 27.3451 40.9745 28.0117L40.0699 29.718Z" fill="white"/>
<defs>
<linearGradient id="paint0_linear_228_5396" x1="28" y1="0" x2="28" y2="56" gradientUnits="userSpaceOnUse">
<stop stop-color="#181B1E"/>
<stop offset="1" stop-color="#181B1E"/>
</linearGradient>
</defs>
</svg>
