<!-- by TradingView --><svg xmlns="http://www.w3.org/2000/svg" width="56" height="56" viewBox="0 0 56 56"><path fill="#F0F3FA" d="M0 0h56v56H0z"/><path d="M12 28c0 10.48 7.18 19 16 19s16-8.52 16-19S36.82 9 28 9s-16 8.52-16 19Zm16 17c-7.72 0-14-7.63-14-17 0-9.37 6.28-17 14-17s14 7.63 14 17c0 9.37-6.28 17-14 17Zm0-33c-7.06 0-13 7.3-13 16s5.94 16 13 16 13-7.3 13-16-5.94-16-13-16Zm1.59 3c.22 0 .41.17.41.77v19.79c0 1.46.45 2.34 1.88 2.44h.07c1.3 0 1.57 0 1.57.51.01.23-.19.5-.4.49H22.88c-.22.01-.42-.2-.4-.42 0-.52.4-.58 1.63-.58 1.44-.1 1.88-.91 1.88-2.37V19.38c0-.8-.2-.97-.65-.97h-3.17a.32.32 0 0 1-.26-.1.34.34 0 0 1-.09-.28c0-.34.2-.36.93-.43.4-.04.96-.1 1.74-.23 2.24-.39 3.57-1.37 4.35-1.94.35-.26.58-.43.74-.43ZM19.13 34c-.09 0-.13-.08-.13-.34v-4.3c0-.3.06-.39.14-.39.11 0 .15.28.22.7.09.54.21 1.34.56 2.14.53 1.17 1.17 1.79 1.9 1.79.72 0 1.35-.67 1.35-2.06 0-1.52-.9-1.92-1.87-2.35-1.1-.48-2.29-1-2.29-3.3 0-2.38 1.3-3.79 2.84-3.79.57 0 1.06.25 1.41.43.2.1.35.18.45.18.22 0 .25-.2.27-.36.02-.13.04-.25.15-.25.1 0 .12.12.13.37l.1 3.49c0 .17-.03.27-.14.27-.07 0-.1-.13-.15-.35l-.1-.42c-.37-1.28-1.06-2.95-2.2-2.95-.81 0-1.28.66-1.28 1.75 0 1.17.85 1.53 1.81 1.93 1.26.53 2.7 1.13 2.7 3.72 0 2.48-1.44 4.09-3.25 4.09-.64 0-1.16-.23-1.56-.4-.25-.11-.46-.2-.62-.2-.2 0-.26.2-.3.38-.04.12-.07.22-.14.22Zm13.72-.46c.3-.04.67-.1.67-.8v-9.97c-.95.22-1.84 1.2-2.29 2.78l-.09.34c-.07.28-.1.43-.19.43-.08 0-.1-.06-.1-.18l.04-.49.02-.16.43-3.22v-.04c.03-.13.04-.23.11-.23.03 0 .05.04.09.08.07.11.2.29.5.29h5.13c.3 0 .43-.18.5-.29.04-.04.06-.08.1-.08.06 0 .08.1.1.23v.04l.43 3.22.02.16c.03.19.05.4.05.49 0 .12-.03.18-.1.18-.09 0-.13-.15-.2-.43l-.1-.34c-.44-1.59-1.33-2.56-2.28-2.78v9.97c0 .7.38.76.68.8.2.03.37.06.37.27 0 .15-.04.19-.16.19h-3.94c-.12 0-.17-.04-.17-.19 0-.21.17-.24.38-.27Z" fill="#006F53"/></svg>