<!-- by TradingView --><svg width="56" height="56" viewBox="0 0 56 56" xmlns="http://www.w3.org/2000/svg"><path fill="#F0F3FA" d="M0 0h56v56H0z"/><path d="M27.25 10.22c1.8 10.52 14.3 14.45 9.76 30.58 1.08-14.56-10.97-18.69-9.76-30.58ZM25.57 6c-4.41 18.76 9.42 27.5 4.5 41.41 14.36-17.75-5.72-19.8-4.5-41.41Z" fill="url(#agdvymxd1)"/><path d="M29.1 46.15c-.34-7.34-11.07-15.54-4.3-23.21-.53 11.7 6.14 15.53 4.3 23.2ZM27.05 50c.46-5.75-7.47-7.9-8.57-12.05-2.84 6.46 7.75 7.17 8.57 12.05Zm.74-3.53c-.1-6.68-6.75-10.37-6.85-18.13-7.07 7.9 4.9 12.95 6.85 18.13Z" fill="url(#bgdvymxd1)"/><defs><linearGradient id="agdvymxd1" x1="30.96" y1="21.96" x2="37.06" y2="38.19" gradientUnits="userSpaceOnUse"><stop stop-color="#21409A"/><stop offset=".16" stop-color="#233C91"/><stop offset=".39" stop-color="#263481"/><stop offset=".66" stop-color="#272769"/><stop offset=".74" stop-color="#262262"/></linearGradient><linearGradient id="bgdvymxd1" x1="23.21" y1="30.69" x2="28.73" y2="45.45" gradientUnits="userSpaceOnUse"><stop offset=".21" stop-color="#21409A"/><stop offset=".23" stop-color="#223E95"/><stop offset=".59" stop-color="#272A6F"/><stop offset=".77" stop-color="#262262"/></linearGradient></defs></svg>