<!-- by TradingView --><svg width="56" height="56" fill="none" xmlns="http://www.w3.org/2000/svg"><path fill="#4A317A" d="M0 0h56v56H0z"/><path fill-rule="evenodd" clip-rule="evenodd" d="M26.238 15.505c-.567.315-.462.845-.338 1.071.217.45.753.428.994.361.52-.184 1.737-.627 2.438-.924.702-.297 1.348-.369 1.583-.368.65-.023 1.961.27 2.011 1.633.039 1.033-1.51 1.569-2.75 1.998-.396.136-.76.262-1.031.39-2.252 1.06-3.211 2.4-3.557 3.533C24.266 22.313 22.697 22 21.689 22H18.54c-5.362.151-6.54 3.311-6.54 4.782v14.265c.056.318.433.953 1.497.953 1.063 0 1.46-.635 1.503-.953V26.901c.06-2.053 2.035-2.883 3.039-2.901h3.23c1.152-.074 3.731.832 3.731 3.647 0 3.055-2.37 3.407-3.73 3.353h-3.878c-.523-.006-1.363.114-1.392 1-.03.886.69.983 1.162 1h4.62c2.136-.045 6.368-.922 6.217-5.353-.037-1.056-.3-1.93-.71-2.647h8.075a4.39 4.39 0 0 0 1.89 2.032C35.338 27.846 34 29.67 34 31.79c0 2.877 2.462 5.21 5.5 5.21s5.5-2.333 5.5-5.21c0-2.12-1.337-3.944-3.255-4.758C43.093 26.29 44 24.897 44 23.302 44 20.927 41.985 19 39.5 19S35 20.926 35 23.303c0 .066.002.132.005.197h-7.109c.439-1.745 2.201-2.682 3.243-2.854.661-.109 2.123-.581 3.041-1.354.948-.797 1.487-2.927-.535-4.397-1.619-1.176-3.55-.945-4.313-.683-.795.3-2.527.979-3.094 1.293ZM39.503 26.16c1.598 0 2.894-1.28 2.894-2.856 0-1.578-1.296-2.856-2.894-2.856-1.599 0-2.894 1.278-2.894 2.856 0 1.577 1.295 2.856 2.894 2.856Zm-.003 9.09c1.933 0 3.5-1.55 3.5-3.46 0-1.909-1.567-3.457-3.5-3.457S36 29.88 36 31.79c0 1.91 1.567 3.458 3.5 3.458Z" fill="#fff"/></svg>