<!-- by TradingView --><svg xmlns="http://www.w3.org/2000/svg" width="56" height="56"><path fill="#F0F3FA" d="M0 0h56v56H0z"/><path d="M16.26 24.52c-.21.03-.43.09-.64.15v-1.68H7.2L17.29 21l-1.03 3.52zM5.7 29.32v3.72h8.43L4 35l1.7-5.69zM16 36v-3h.6v3H16zm1.63 0v-3l1.8 1.7V33H20v3l-1.8-1.7V36h-.57zM21 36v-3h.98c.9 0 1.38.64 1.38 1.5 0 .88-.47 1.5-1.38 1.5H21zm.55-.56h.4c.63 0 .84-.35.84-.94 0-.6-.23-.94-.85-.94h-.39v1.88zm2.7-2.44h.6v1.78c0 .44.17.66.52.66.36 0 .53-.22.53-.66V33h.6v1.85c0 .37-.1.67-.31.85-.21.23-.5.3-.82.3-.31 0-.6-.11-.8-.3a1.18 1.18 0 01-.33-.89V33zm3.1 2.04c.25.22.54.33.89.33.28 0 .46-.11.46-.26 0-.07-.04-.15-.1-.22l-.47-.22c-.46-.19-.7-.45-.7-.9 0-.25.1-.44.28-.55a.99.99 0 01.67-.22c.28 0 .5.07.7.19v.62a1.06 1.06 0 00-.66-.22c-.25 0-.4.08-.4.22 0 .08.04.15.15.23l.14.07.18.08.17.07c.25.11.43.22.53.33.11.11.18.34.18.56 0 .48-.35.85-1.02.85-.36 0-.64-.07-.92-.26v-.7h-.07zm3.22.96v-2.43h-.7V33h2.01v.57h-.7V36h-.6zm2.1 0v-3h1.09c.25 0 .46.07.63.26.18.18.29.4.29.67 0 .37-.18.66-.46.77l.63 1.3h-.67l-.56-1.15h-.4V36h-.56zm.6-1.7h.45c.21 0 .4-.15.4-.41 0-.22-.15-.37-.33-.37h-.5v.78h-.03zm2.4 1.7v-3h.6v3h-.6zm1.63 0v-3h1.8v.56h-1.24v.63H39v.55h-1.13v.7h1.24V36h-1.8zm2.68-.96c.25.22.53.33.89.33.28 0 .46-.11.46-.26 0-.07-.04-.15-.1-.22l-.47-.26c-.46-.19-.7-.4-.7-.85 0-.26.1-.45.28-.56A.99.99 0 0141 33c.28 0 .5.07.7.19v.62a1.06 1.06 0 00-.67-.22c-.24 0-.38.08-.38.22 0 .08.03.15.14.23l.14.07.18.08.17.07c.25.11.43.22.53.33.1.11.18.34.18.56 0 .48-.35.85-1.03.85-.35 0-.63-.07-.92-.26v-.7h-.07z" fill="#9DAAB7"/><path fill-rule="evenodd" d="M9 31v-6h4v1h-3v1.5h3v1h-3V31H9zm13 0h-1v-6h2.5a2 2 0 012 2 1.9 1.9 0 01-1.03 1.73L26 31h-1.22l-1.38-2H22v2zm0-3h1.4c.62 0 1.1-.42 1.1-1a1 1 0 00-1-1H22v2zm5.5-3h-1l2 6 1.77-3.84L32 31l2-6h-1l-1.17 3.5-1.6-3.5-1.59 3.5L27.5 25zM39 31h1l-3-6-3 6h1l2-4 2 4zm8 0v-6h2.01c.95 0 1.65.29 2.2.83.52.55.79 1.29.79 2.19 0 .9-.27 1.63-.8 2.18-.51.54-1.24.8-2.19.8H47zm1-1h.95c1.4 0 2.05-.75 2.05-2s-.65-2-2.05-2H48v4zm-7-5v6h1v-2h1.4l1.38 2H46l-1.53-2.27A1.9 1.9 0 0045.5 27a2 2 0 00-2-2H41zm2.4 3H42v-2h1.5a1 1 0 011 1c0 .58-.48 1-1.1 1zM19 28a2 2 0 11-4 0 2 2 0 014 0zm1 0a3 3 0 11-6 0 3 3 0 016 0z" fill="#2C3A47"/></svg>