<!-- by TradingView --><svg width="56" height="56" viewBox="0 0 56 56" xmlns="http://www.w3.org/2000/svg"><path fill="#F0F3FA" d="M0 0h56v56H0z"/><path fill-rule="evenodd" d="M5 33v-7.93C5 23.93 5.93 23 7.07 23H12v2H7.6c-.38 0-.6.35-.6.73V27h3.5v2H7v4H5Zm9.5 0c2.64 0 3.5-1.8 3.5-4s-.83-4-3.5-4-3.5 1.8-3.5 4 .86 4 3.5 4Zm0-1.5c1.13 0 1.5-1.12 1.5-2.5s-.36-2.5-1.5-2.5c-1.14 0-1.5 1.12-1.5 2.5s.37 2.5 1.5 2.5ZM42 29c0 2.2-.86 4-3.5 4S35 31.2 35 29s.83-4 3.5-4 3.5 1.8 3.5 4Zm-2 0c0 1.38-.37 2.5-1.5 2.5S37 30.38 37 29s.36-2.5 1.5-2.5c1.14 0 1.5 1.12 1.5 2.5Zm-21-.46V33h2v-4.5c0-.79.42-1.5 1.15-1.5H23v-2h-.71C20.47 25 19 26.58 19 28.54Zm5 .92v-5.44c0-.56.47-1.02 1.05-1.02H26v2.61a3.36 3.36 0 0 1 1.94-.61c2.67 0 3.06 1.8 3.06 4 0 2.47-.86 4-3.5 4-2.46 0-3.37-1.55-3.49-3.55l-.01.01Zm3.5 2.04c1.13 0 1.5-1.12 1.5-2.5s-.36-2.5-1.5-2.5c-1.14 0-1.5 1.12-1.5 2.5s.37 2.5 1.5 2.5Zm4.5-5.8c0-.39.3-.7.67-.7H34v8h-2v-7.3ZM43 33v-5.25c0-1.52 1.11-2.75 2.48-2.75h1.04c1.37 0 2.48 1.23 2.48 2.75V33h-2v-4.96c0-.73-.36-1.33-1.02-1.33-.67 0-.98.6-.98 1.33V33h-2Z" fill="#4499D5"/><circle cx="50.75" cy="31.75" r="1.25" fill="#E47E3A"/></svg>