<!-- by TradingView --><svg width="56" height="56" viewBox="0 0 56 56" xmlns="http://www.w3.org/2000/svg"><path fill="#F0F3FA" d="M0 0h56v56H0z"/><path d="M8.5 22C7.3 22 7 23 7 23.5V35h2v-4h2c1.2 0 1.83-1.33 2-2H9v-4c0-.8.67-1 1-1h24c1.2 0 1.83-1.33 2-2H8.5Z" fill="#EC872B"/><path d="M14 35v-9c1.6 0 1.83 1 2 1.5.15-1.1 1.56-1.46 2-1.5h2.5l-1 2H18c-1.6 0-2 1.33-2 2v5h-2ZM40 24c0-1.6-1.33-2-2-2v13h2v-5c0-1.5 1-2 2-2 .8 0 1 1.33 1 2v3c0 1.6 1.33 2 2 2v-6c0-2-1-3-2.5-3-1.2 0-2.17.67-2.5 1v-3ZM29 30.31c0 .32-.02.44-.07.69H22c.1 1.17 1.3 2.17 2.5 2.17.84 0 1.45-.47 1.8-1.17h2.47a4.37 4.37 0 0 1-4.23 3A4.39 4.39 0 0 1 20 30.5c0-2.63 1.92-4.5 4.54-4.5 2.5 0 4.46 1.77 4.46 4.31Zm-2.37-.81c-.13-1-1.04-1.5-2.14-1.5-1.13 0-1.99.5-2.15 1.5h4.3ZM33.68 35c-1.71 0-3.57-1.12-3.68-3h1.11c.5 0 .93.42 1.3.76.34.32.83.5 1.26.5.55 0 1.33-.22 1.33-.89 0-.75-1.25-.95-1.79-1.1-1.45-.36-3.01-.9-3.01-2.66 0-1.78 1.77-2.61 3.33-2.61 1.76 0 3.34 1.16 3.47 3h-1.08c-.52 0-.95-.44-1.33-.8-.3-.28-.72-.45-1.12-.45-.76 0-1.2.3-1.2.83 0 .8 1.17.98 1.75 1.13 1.42.37 2.95.94 2.98 2.66 0 1.8-1.74 2.63-3.32 2.63Z" fill="#EC872B"/><path d="M45.6 24.81c.53-.45.94-.82 1.24-1.1.3-.3.56-.6.76-.92.2-.32.3-.63.3-.95 0-.33-.07-.58-.23-.77-.15-.18-.4-.28-.73-.28-.32 0-.58.1-.76.31-.17.2-.27.48-.28.82H45c.02-.62.2-1.1.56-1.42.36-.33.82-.5 1.37-.5.6 0 1.06.16 1.4.5.34.32.5.75.5 1.3 0 .4-.1.77-.3 1.13-.2.36-.43.69-.71.98-.28.28-.63.61-1.05.99l-.37.32H49V26h-4v-.68l.6-.5Z" fill="#57A352"/></svg>