<!-- by TradingView --><svg width="56" height="56" viewBox="0 0 56 56" xmlns="http://www.w3.org/2000/svg"><path fill="#F0F3FA" d="M0 0h56v56H0z"/><path d="M27.96 43.99c-3.22.13-6.22-.73-8.96-2.36a16.31 16.31 0 0 1-6.55-7.19 14.81 14.81 0 0 1-1.34-8.23c.52-4.2 2.52-7.65 5.77-10.3a16.9 16.9 0 0 1 7.28-3.52c2.3-.48 4.67-.52 6.99-.11 2.55.44 4.98 1.45 7.1 2.96 2.03 1.4 3.7 3.28 4.88 5.47a14.91 14.91 0 0 1 1.86 7.63A15.14 15.14 0 0 1 42.08 37a16.64 16.64 0 0 1-7.9 5.93 16.1 16.1 0 0 1-6.22 1.06Zm15.79-17.61c-.05-.9-.3-1.77-.56-2.62a14.4 14.4 0 0 0-3.6-5.94 15.9 15.9 0 0 0-9.4-4.65 16.08 16.08 0 0 0-8.09.95 15.62 15.62 0 0 0-6.14 4.19 14.37 14.37 0 0 0-3.78 8.94 14 14 0 0 0 1.62 7.4 15.13 15.13 0 0 0 5 5.55 15.05 15.05 0 0 0 6.12 2.51c2.31.36 4.65.38 6.98-.2a16.5 16.5 0 0 0 6.5-3.2 17.58 17.58 0 0 0 3.32-3.72l.35-.7c0-.07-.04-.17-.01-.2.9-1.06 1.15-2.42 1.5-3.7.39-1.38.34-2.82.31-4.25.05-.15-.04-.26-.12-.36Z" fill="#0B0B0B"/><path d="M41.72 35.59c-.02-.02-.04-.05-.05-.04-1.14.55-2.62.54-3.17 2.07-.15.41-.47.76-.7 1.14-.4.67-1.14.8-1.93.44l-.13.01c-.94.91-2.32 1.06-3.25 2a1.29 1.29 0 0 1-1.15.37c-.62-.07-1.11.35-1.57.75-.34 0-.78-.2-.83.42-.47-.06-1.07.26-1.2-.63 1.56-.19 2.53-1.37 3.22-2.47.62-.98 1.3-2.22 1.15-3.57-.42-.18-.71-.37-1.07-.44a.83.83 0 0 1-.44-.22.86.86 0 0 1-.24-.44c-.13-.57-.51-.87-.93-1.18-1.02-.76-1.12-1.33-.43-2.4.27-.41.47-.86.61-1.33-.25-.55-.6-.48-.95-.16a1.74 1.74 0 0 1-1.57.42l-.2-1.4a1 1 0 0 0-.77-.13c-.54.1-1.07.2-1.55-.28-.35-.35-.69.18-1.15.18-.52-.37-1-1.06-1.84-.8-.24-.59-.24-1.21-.76-1.55-.66-.43-.64-1.4-1.31-1.86-.47.78.27 1.23.34 1.84-1.41-.47-2.24-3.94-1.39-5.78l.93-.05c-.35-.93-.87-1.74-.82-2.83-1 .52-1.78 1.13-2.78 1.46.3-.59.63-1.07 1.17-1.28.96-.38 1.61-1.22 2.5-1.7.28-.14.51-.23.81-.08.3.13.62.14.92.03.46-.16.9-.16 1.3.2.26.23.57.21.82-.1.11-.1.23-.21.36-.3.32-.06.56.24.86.03.1-.29.11-.56-.27-.68a.7.7 0 0 1 .45-.37 9.79 9.79 0 0 1 4.25-.68c.82.05 1.08.55 1.19 1.52.05.5.12.97.45 1.47-1.11-.07-1.68-1.22-2.72-1.16-.25.13 0 .54-.52.64-.32-.1-.72-.58-1.26-.36-.28-.13-.34-.58-.75-.38-.43.33.3.6.01 1-.23.3-.69-.14-1.01.21-.16.32-.03.58.3.62.7.09 1.23.34 1.5 1.15.21-.32.23-.63.42-.77.02-.46-.5-.66-.37-1.12.6-.16 1.12.08 1.66.36l.39-.42c.25-.05.43-.01.57.17a.83.83 0 0 0 1 .32.74.74 0 0 1 .49.03c.16.06.29.18.37.32.27.38.65.64 1.09.75-.1.84-.58.35-.94.33-.21-.05-.27.26-.53.25-.26-.21 0-.6-.24-.87a1.64 1.64 0 0 0-1.22.65c.21.2.4-.07.6.05l.31.55c.27.17.64-.18.9.24-.38.28-.53.78-1.02.92-.26-.2-.03-.5-.2-.7-1.02.87-1.24 1.36-1.44 3.28l-.46.45c-.23.27-.3.52-.05.85.2.27.4.6.1.99a1.34 1.34 0 0 1-.69-1.22 1.04 1.04 0 0 0-1.3.02c-.3.22-.68.31-1.06.26a1.31 1.31 0 0 0-1.18.49c-.18 1.31.02 1.75 1.08 2.26.48-.3.86-.84 1.48-.95.13 0 .25 0 .38.02.33.48.03 1 .15 1.52l1.02.25c.41.36.2.85.32 1.24a.32.32 0 0 0 .43-.02c.5-.36.98-.51 1.6-.2.39.2.84.09 1.17-.23.26-.26.49-.56.75-.85l-.95-.35c.58-.25.7-.66.87-1.1l1.55.16c-.05.7-.65.58-1.05.77.44.1.85.3 1.21.55.36-.04.6-.25.82-.46.49-.46 1.1-.54 1.62-.13a3.03 3.03 0 0 0 2.42.6c.73-.1 1.22.3 1.57.89.4.66.9 1.1 1.73.91.34-.08.54.26.84.37.26 0 .53-.3.92.13l-1.21 4.42a918 918 0 0 1-.35.7ZM26.66 15.73a.5.5 0 0 0-.33-.37c-.04-.02-.1.04-.16.08a.5.5 0 0 0 .5.29Z" fill="#369807"/><path d="M36.95 16.28c.1 1.4-.97 1.91-2.01 2.53 1.32.24 2.16-.62 3.2-1.06.03.87-.52 1.41-.97 1.96-.47.55-1.24.58-1.87.86 1.78.29 3.04-.85 4.42-1.69-.28 2-1.22 3.32-4.18 3.88 1.28.25 1.85.04 5.06-1.85.2 1.04-.75 2.35-2.14 2.98.95.04 1.35-.17 2.84-1.47.23.87-.06 1.44-1.5 2.94.9.13 1.29-.06 2.54-1.32.14.73 0 1.07-1.12 2.59.87-.03 1.3-.67 1.84-1.27.25.94-.33 1.52-.69 2.17-.07.04-.16.05-.14.17.1.03.17.03.2-.08.7-.14.9-.8 1.32-1.24.08.1.17.2.12.36-.3.15-.2.47-.26.72-.14.57-.35 1.07-.92 1.32-.96-.11-1.4-.99-2.07-1.49a5.97 5.97 0 0 0-3.72-1.35c-.83.02-1.46-.19-1.85-1.08a1.62 1.62 0 0 0-1.55-.95c-.71 0-1.41.15-2.13.05a1.4 1.4 0 0 1-.8-.36c-.22-.21-.37-.5-.41-.8-.12-.54.16-.92.63-1.21a10 10 0 0 1 1.23-.72 2.13 2.13 0 0 0 1.2-2.43c-.1-.36-.38-.53-.62-.76-.28-.27-.56-.55-.53-.98.04-.47.28-.93.77-.8.87.24 1.56.07 2.2-.53.1-.06.2-.1.3-.14.05.96-.34 1.52-1.36 1.99.54.3 1.26.19 2.1-.36l.88-.57-.01-.01Zm-23.33 6.81c.4 0 .66.48 1.15.34-.17-.51-.93-.67-.77-1.4l.76.35c0-.46-.58-.72-.32-1.21.22.02.21.3.5.43l.6.09c-.14 4.46 2.6 7.6 6.76 8.53 1.71.38 3.18 1.2 4.04 2.84.4.77.5 1.68.96 2.44a4.7 4.7 0 0 0 1.45 1.62c.88.57.8 1.86-.12 2.74a5.74 5.74 0 0 1-4.69 1.8 6.72 6.72 0 0 1-3.35-1.4c1.92.32 3.85.99 5.65-.42a8.96 8.96 0 0 1-7.62-1.68c2.01.3 4.02.6 6.06.33.26-.03.5-.23.75-.42a12.9 12.9 0 0 1-8.18-1.86c2.38.18 4.75.87 7.12-.02-2.7.34-5.23-.23-7.62-1.55 1.98.14 3.95.52 5.9-.17-2.43.07-4.82-.05-7.03-1.5 1.82.05 3.55.4 5.23-.36-2.15-.02-4.32.09-6.19-1.55 1.27.3 2.6.33 3.87.06-1.72-.08-3.31-.42-4.45-1.94.54-.08.9.36 1.4.35.47-.02.95.29 1.49-.14a5.53 5.53 0 0 1-3.38-1.85c.73-.18 1.39.5 2.1-.03-.9-.45-1.88-.75-2.42-1.77.72.06 1.32.58 2.1.38-.77-.6-1.75-.82-2.11-1.96.57.35 1.04.64 1.63.43-.4-.56-1.22-.65-1.34-1.43l.07-.07Z" fill="#046496"/><path d="M30.92 26.46c0 .77-.33.9-.67 1-.28.08-2.31-.4-2.75-.68 1.2-.36 2.32.44 3.42-.32Zm-.42-10.94c.62-.66 1.15-.16 1.6-.32.18.29.05.46-.1.63-.53.21-.87-.26-1.5-.31Zm.18 12.23c-.25.63-.37.66-.99.35.28-.22.6-.2 1-.35Z" fill="#369807"/></svg>