<!-- by TradingView --><svg xmlns="http://www.w3.org/2000/svg" width="56" height="56" viewBox="0 0 56 56"><path fill="#F0F3FA" d="M0 0h56v56H0z"/><path fill-rule="evenodd" d="M19 24h2.71v.3h-2.4v1.55h2.22v.3h-2.22V28H19v-4zm3.62 0h-.31v.57h.31V24zm0 1h-.31v3h.31v-3zm1.07 3v-1.72c.15-.39.5-.93 1.12-.93V25c-.26-.02-.82.09-1.12.69V25h-.3v3h.3zm2.52-3c.84-.02 1.08.54 1.1.83h-.33c-.02-.18-.2-.54-.77-.56-.73-.02-.78.42-.78.5 0 .07 0 .42.96.52.75.08 1 .54 1 .76.02.31-.17.95-1.12.95-.93 0-1.25-.62-1.28-.95h.3c.02.1.17.6.98.64.64.03.8-.31.81-.49.03-.17-.1-.52-.87-.62-.96-.13-1.08-.59-1.08-.75 0-.16.02-.8 1.08-.83zm1.98-.81v.93h-.54v.3h.54v2c0 .18.1.55.53.58h.45v-.3h-.39c-.1 0-.3-.1-.28-.45v-1.83h.67v-.3h-.67v-.93h-.3zM31.97 28l-1.23-4h.38l1.02 3.45 1.1-3.45h.38l1.06 3.45L35.8 24h.36l-1.31 4h-.36l-1.08-3.53L32.3 28h-.32zm5.4-3c-.91 0-1.14.6-1.14.9h.3c.03-.19.17-.65.84-.61.54.03.72.38.74.55v.33h-.9c-.87.03-1.14.48-1.14.91 0 .44.44.96 1.09.92.51-.03.84-.34.95-.49v.44h.31v-2.11c0-.27-.13-.83-1.05-.84zm.72 1.9v-.46h-.84c-.67 0-.86.36-.85.53-.02.26.1.76.77.72.67-.04.9-.54.92-.78zm1.89 1.1l-1.23-3h.37l1.02 2.52 1-2.52h.34l-1.2 3h-.3zm4.2-.86c-.23.5-.7.86-1.24.86-.76 0-1.37-.67-1.37-1.5s.61-1.5 1.37-1.5c.75 0 1.36.67 1.36 1.5v.06H41.87c.02.64.5 1.16 1.07 1.16.39 0 .72-.23.91-.58h.32zm-2.28-.9h2.08c-.11-.53-.54-.93-1.04-.93s-.93.4-1.04.92z" fill="#0162A7"/><path d="M10.97 26.92c0-2.83 5.15-3.87 7.5-3.9-3.52 1.64-3.75 2.88-3.76 3.65-.28 3.49 8 4.1 12.18 3.98-1.7.5-4.22.64-5.27.66-8.63-.4-10.65-3.04-10.65-4.4z" fill="#1A8F3E"/><path d="M16 21c2.89-.06 5.1.33 5.84.57-2.67-.41-12.08 1.53-11.76 5.45.35 4.27 10.59 6.58 22.05 3.27 8.18-2.37 17.32-.1 19.87 1.25-5.5-1.66-13.72-1.95-19.11.13C29 33.17 23 33.9 20.4 34 10.2 34.15 5 30.58 5 27.5c0-4.2 6.3-6.4 11-6.5z" fill="#0162A7"/><path d="M32.54 32.64c2.24-1.35 8.6-3.45 16.15-1.05-2.95-.28-10.32-.45-16.15 1.05z" fill="#FDCD08"/></svg>