<!-- by TradingView --><svg width="56" height="56" viewBox="0 0 56 56" xmlns="http://www.w3.org/2000/svg"><path fill="#F0F3FA" d="M0 0h56v56H0z"/><path d="M50.84 24.1c.19.16.21.44.06.62l-1.8 2.26 1.8 2.3c.15.19.13.47-.06.62a.42.42 0 0 1-.6-.06L48 26.98l2.24-2.82a.42.42 0 0 1 .6-.06ZM47.5 23c.28 0 .5.19.5.41v6.18c0 .22-.22.41-.5.41s-.5-.19-.5-.41V23.4c0-.22.22-.41.5-.41Z" fill="#0087FA"/><path d="M11.5 23c.28 0 .5.19.5.42v4.78c0 .49.22.8.87.8.28 0 .5.27.5.5 0 .23-.22.5-.5.5-1.22 0-1.87-.85-1.87-1.8v-4.78c0-.23.22-.42.5-.42Z" fill="#00275E"/><path d="M30.5 23c.28 0 .5.19.5.42v4.78c0 .49.22.8.87.8.28 0 .5.27.5.5 0 .23-.22.5-.5.5-1.22 0-1.87-.85-1.87-1.8v-4.78c0-.23.22-.42.5-.42Z" fill="#0087FA"/><path d="M30 25.5c0-.28.18-.5.4-.5h1.2c.22 0 .4.22.4.5s-.18.5-.4.5h-1.2c-.22 0-.4-.22-.4-.5ZM34.95 26c-.68 0-.95.35-.95 1.06v2.56c0 .2-.3.38-.5.38s-.5-.17-.5-.38v-2.56c0-1.14.87-2.06 1.95-2.06h.69c.2 0 .36.29.36.5 0 .21-.16.5-.36.5h-.7Z" fill="#0087FA"/><path d="M13.5 25c.23 0 .5.17.5.38v2.2c0 .88.57 1.42 1.4 1.42.72 0 1.47-.32 1.6-1.14v-2.48c0-.2.27-.38.5-.38.23 0 .5.17.5.38v4.17c0 .21-.27.45-.5.45-.23 0-.5-.24-.5-.45v-.06c-.41.3-.83.51-1.6.51-1.25 0-2.4-.86-2.4-2.19v-2.43c0-.2.27-.38.5-.38ZM19 27.52c0-1.56.87-2.52 2.18-2.52.66 0 1.32.39 1.73.89.13.16.12.52-.03.66s-.38.24-.5.08c-.29-.34-.66-.63-1.11-.63-.65 0-1.27.39-1.27 1.52 0 .77.4 1.48 1.27 1.48.41 0 .78-.15 1.12-.4 0 0 0-.01 0 0 .14-.15.37 0 .5.14.14.15.14.48 0 .63-.4.43-1.15.63-1.71.63-1.4 0-2.18-1.31-2.18-2.48Z" fill="#00275E"/><path d="M42 27.52c0-1.56.87-2.52 2.18-2.52.66 0 1.32.39 1.73.89.13.16.12.52-.03.66s-.38.24-.5.08c-.29-.34-.66-.63-1.11-.63-.65 0-1.27.39-1.27 1.52 0 .77.4 1.48 1.27 1.48.41 0 .78-.15 1.12-.4 0 0 0-.01 0 0 .14-.15.37 0 .5.14.14.15.14.48 0 .63-.4.43-1.15.63-1.71.63-1.4 0-2.18-1.31-2.18-2.48Z" fill="#0087FA"/><path fill-rule="evenodd" d="M29 27.5a2.5 2.5 0 1 1-5 0 2.5 2.5 0 0 1 5 0Zm-1 0a1.5 1.5 0 1 1-3 0 1.5 1.5 0 0 1 3 0ZM10 27.5a2.5 2.5 0 1 1-5 0 2.5 2.5 0 0 1 5 0Zm-1 0a1.5 1.5 0 1 1-3 0 1.5 1.5 0 0 1 3 0Z" fill="#00275E"/><path fill-rule="evenodd" d="M41 27.5a2.5 2.5 0 1 1-5 0 2.5 2.5 0 0 1 5 0Zm-1 0a1.5 1.5 0 1 1-3 0 1.5 1.5 0 0 1 3 0Z" fill="#0087FA"/><path d="M10 30.18v-2.93l-1 1.23V30c0 .85-.4 1.6-.74 1.93-.04.04-.05.07-.1.04-.19-.1.06-.37.17-.56A2.8 2.8 0 0 0 8.76 30c-.29.23-.24.1-.97.98-.35.42-1.21.61-1.48.68 0 .94.91 1.34 1.6 1.34 1.73 0 2.11-1.88 2.09-2.82Z" fill="#00275E"/><path d="M6.04 32.1c.28 1.26 1.42 1.46 1.96 1.4a2 2 0 0 1-1.04.34c-1.32 0-1.79-1.05-1.87-1.68-.02-.08-.04-.14-.11-.14s-.16.07-.15.15c.08 1.1 1.08 1.6 1.38 1.83C4.75 33.92 4 32.31 4 31.4c0-.9.57-1.4.75-1.4.18 0 .4-.04.79.41.39.46.35 1.08.5 1.7ZM40.5 27c.28 0 .5.2.5.46v2.08c0 .25-.22.46-.5.46s-.5-.2-.5-.46v-2.08c0-.25.22-.46.5-.46Z" fill="#0087FA"/></svg>