<!-- by TradingView --><svg width="56" height="56" viewBox="0 0 56 56" xmlns="http://www.w3.org/2000/svg"><path fill="#09285C" d="M0 0h56v56H0z"/><path d="M40.33 41h-.66v.67H39v.66h.67V43h.66v-.67H41v-.66h-.67V41ZM37.33 41h-.66v.67H36v.66h.67V43h.66v-.67H38v-.66h-.67V41ZM34.33 41h-.66v.67H33v.66h.67V43h.66v-.67H35v-.66h-.67V41ZM30.33 41h-.66v.67H29v.66h.67V43h.66v-.67H31v-.66h-.67V41ZM30.33 37.5h-.66v.67H29v.66h.67v.67h.66v-.67H31v-.66h-.67v-.67ZM26.33 37.5h-.66v.67H25v.66h.67v.67h.66v-.67H27v-.66h-.67v-.67ZM26.33 34h-.66v.67H25v.66h.67V36h.66v-.67H27v-.66h-.67V34ZM30.33 34h-.66v.67H29v.66h.67V36h.66v-.67H31v-.66h-.67V34ZM26.33 41h-.66v.67H25v.66h.67V43h.66v-.67H27v-.66h-.67V41ZM23.33 41h-.66v.67H22v.66h.67V43h.66v-.67H24v-.66h-.67V41ZM23.33 37.5h-.66v.67H22v.66h.67v.67h.66v-.67H24v-.66h-.67v-.67ZM23.33 34h-.66v.67H22v.66h.67V36h.66v-.67H24v-.66h-.67V34ZM20.33 40h-.66v.67H19v.66h.67V42h.66v-.67H21v-.66h-.67V40ZM20.33 36h-.66v.67H19v.66h.67V38h.66v-.67H21v-.66h-.67V36ZM20.33 33h-.66v.67H19v.66h.67V35h.66v-.67H21v-.66h-.67V33ZM18.33 38h-.66v.67H17v.66h.67V40h.66v-.67H19v-.66h-.67V38ZM18.33 35h-.66v.67H17v.66h.67V37h.66v-.67H19v-.66h-.67V35ZM18.33 30h-.66v.67H17v.66h.67V32h.66v-.67H19v-.66h-.67V30ZM15.33 36h-.66v.67H14v.66h.67V38h.66v-.67H16v-.66h-.67V36ZM16.33 33h-.66v.67H15v.66h.67V35h.66v-.67H17v-.66h-.67V33ZM15.33 30h-.66v.67H14v.66h.67V32h.66v-.67H16v-.66h-.67V30ZM15.33 27h-.66v.67H14v.66h.67V29h.66v-.67H16v-.66h-.67V27ZM15.33 23h-.66v.67H14v.66h.67V25h.66v-.67H16v-.66h-.67V23ZM23.33 16.5h-.66v.67H22v.66h.67v.67h.66v-.67H24v-.66h-.67v-.67ZM20.33 18h-.66v.67H19v.66h.67V20h.66v-.67H21v-.66h-.67V18ZM20.33 22h-.66v.67H19v.66h.67V24h.66v-.67H21v-.66h-.67V22ZM18.33 24h-.66v.67H17v.66h.67V26h.66v-.67H19v-.66h-.67V24ZM18.33 20h-.66v.67H17v.66h.67V22h.66v-.67H19v-.66h-.67V20ZM18.33 27h-.66v.67H17v.66h.67V29h.66v-.67H19v-.66h-.67V27ZM22.67 20H22v.67h-.67v.66H22V22h.67v-.67h.66v-.66h-.66V20ZM13.33 34h-.66v.67H12v.66h.67V36h.66v-.67H14v-.66h-.67V34ZM12.33 24h-.66v.67H11v.66h.67V26h.66v-.67H13v-.66h-.67V24ZM12.33 30h-.66v.67H11v.66h.67V32h.66v-.67H13v-.66h-.67V30ZM12.33 27h-.66v.67H11v.66h.67V29h.66v-.67H13v-.66h-.67V27ZM13.33 21h-.66v.67H12v.66h.67V23h.66v-.67H14v-.66h-.67V21ZM15.33 18h-.66v.67H14v.66h.67V20h.66v-.67H16v-.66h-.67V18ZM18.33 16h-.66v.67H17v.66h.67V18h.66v-.67H19v-.66h-.67V16ZM21.33 14h-.66v.67H20v.66h.67V16h.66v-.67H22v-.66h-.67V14ZM26.33 13h-.66v.67H25v.66h.67V15h.66v-.67H27v-.66h-.67V13ZM30.33 13h-.66v.67H29v.66h.67V15h.66v-.67H31v-.66h-.67V13ZM33.33 13h-.66v.67H32v.66h.67V15h.66v-.67H34v-.66h-.67V13ZM36.83 13h-.66v.67h-.67v.66h.67V15h.66v-.67h.67v-.66h-.67V13ZM40.33 13h-.66v.67H39v.66h.67V15h.66v-.67H41v-.66h-.67V13ZM40.04 17.2h-.39v.4h-.38v.4h.38v.4h.39V18h.38v-.4h-.38v-.4ZM36.77 17h-.39v.4H36v.4h.38v.4h.39v-.4h.38v-.4h-.38V17ZM33.33 16.5h-.66v.67H32v.66h.67v.67h.66v-.67H34v-.66h-.67v-.67ZM30.33 16.5h-.66v.67H29v.66h.67v.67h.66v-.67H31v-.66h-.67v-.67ZM30.33 20h-.66v.67H29v.66h.67V22h.66v-.67H31v-.66h-.67V20ZM26.33 20h-.66v.67H25v.66h.67V22h.66v-.67H27v-.66h-.67V20ZM26.33 16.5h-.66v.67H25v.66h.67v.67h.66v-.67H27v-.66h-.67v-.67ZM33.33 20h-.66v.67H32v.66h.67V22h.66v-.67H34v-.66h-.67V20ZM40.04 20.8h-.39v.4h-.38v.4h.38v.4h.39v-.4h.38v-.4h-.38v-.4ZM40.67 29h-.34v.33H40v.34h.33V30h.34v-.33H41v-.34h-.33V29ZM37 29h-.33v.33h-.34v.34h.34V30H37v-.33h.33v-.34H37V29ZM33.67 29h-.34v.33H33v.34h.33V30h.34v-.33H34v-.34h-.33V29ZM40.67 32h-.34v.33H40v.34h.33V33h.34v-.33H41v-.34h-.33V32ZM37 32h-.33v.33h-.34v.34h.34V33H37v-.33h.33v-.34H37V32ZM33.67 32h-.34v.33H33v.34h.33V33h.34v-.33H34v-.34h-.33V32ZM40.67 35h-.34v.33H40v.34h.33V36h.34v-.33H41v-.34h-.33V35ZM37 35h-.33v.33h-.34v.34h.34V36H37v-.33h.33v-.34H37V35ZM33.67 35h-.34v.33H33v.34h.33V36h.34v-.33H34v-.34h-.33V35ZM40.67 38h-.34v.33H40v.34h.33V39h.34v-.33H41v-.34h-.33V38ZM37 38h-.33v.33h-.34v.34h.34V39H37v-.33h.33v-.34H37V38ZM33.67 38h-.34v.33H33v.34h.33V39h.34v-.33H34v-.34h-.33V38ZM36.58 20.8h-.39v.4h-.38v.4h.38v.4h.39v-.4h.38v-.4h-.38v-.4Z" fill="#F6F8FF"/></svg>