<!-- by TradingView --><svg width="56" height="56" viewBox="0 0 56 56" xmlns="http://www.w3.org/2000/svg"><path fill="#F0F3FA" d="M0 0h56v56H0z"/><path d="M43.5 21.3c.5-1.13.92-1.5 1.9-2.02-1.45-1.47-4.12-2.36-6.38-2.27-2.06.08-3.77.99-3.86 3.05a5.4 5.4 0 0 0 .29 1.84c.6 1.9.84 3.44.87 4.7.07 3.44-1.4 4.92-1.32 6.55.04.82.47 1.68 1.7 2.85 1.98-.54 3.82-.96 5.13-1.91 3.15-2.27 4.2-4.28 4.17-6.29-.04-2.06-1.23-4.13-2.5-6.5Z" fill="#27A4F6"/><path d="M25.15 26.17c1.45 1 1.92 2.17 4.41 5.24.61.75 2.01.15 2.47.59l1.69-.7c.23-.8.3-1.83.27-2.93-.1-3.18-1.19-7.03-2.57-8.22-.92-.78-3.1-2.09-4.74-2.45-2.46-.55-4.11-.75-5.15-.69-1.08.06-1.51.4-1.53.93-.05 1.74 4.36 5.53 5.15 8.23Z" fill="#F8CF18"/><path d="M31.04 30.4c-2.5-3-4.06-2.95-5.52-3.93-3.7-1.87-10.4-4.82-14.81-4.44-.06.01-4.36.88-4.68 1.64-.39.93 2.97 3.37 3.58 3.76 2.63 1.69 6.57 3.85 8.95 5.95 1.4 1.23 5.37 6.41 7.12 7.99 1 .9 1.66 1.56 2.67 1.63.64.03 1.4-.17 2.48-.71 2.48-1.27 3.22-3.08 3.17-4.93-.07-2.63-1.32-5-2.96-6.96Z" fill="#CE000C"/></svg>