<!-- by TradingView --><svg width="56" height="56" viewBox="0 0 56 56" xmlns="http://www.w3.org/2000/svg"><path fill="#F0F3FA" d="M0 0h56v56H0z"/><path d="M7.73 36h40.54A1.7 1.7 0 0 0 50 34.32v-7.54l-7.78-.68L37 27.17v2.78L40.52 31H47v1.14c0 .38-.43.86-.82.86H9.88c-.4 0-.88-.48-.88-.86v-8.72c0-.38.48-.42.87-.42H45.3c.39 0 .7.04.7.42V24h4v-2.32A1.7 1.7 0 0 0 48.27 20H7.73A1.7 1.7 0 0 0 6 21.68v12.64c0 .93.77 1.68 1.73 1.68Z" fill="#0B017E"/><path d="M28.78 26c6.21 0 7.39 1.48 7.2 2.22-1.25-.3-3.38-.63-4.29-.76v.48l-2.35-.48v.48l-2.27-.3v.58l-3.47.38 2.46.32-.22.59 3.28-.42v.42l3.06-.42.22.42c1.1-.2 3.34-.6 3.58-.6-.78 2.09-5.37 1.92-8.02 1.92-2.12 0-4.41.11-5.3.17a7.77 7.77 0 0 1 1.35-.49h-4.48l.45-.59H17l1.27-.41a15.9 15.9 0 0 1-2.84-.42A22.58 22.58 0 0 0 12 28.6l4.36-.38-.48-.76h1.94l-.56-.24h2.27l-.6-.39h2.2l-.55-.24c.15-.2 2-.59 8.2-.59Z" fill="#E00024"/></svg>