<!-- by TradingView --><svg width="56" height="56" viewBox="0 0 56 56" xmlns="http://www.w3.org/2000/svg"><path fill="#F0F3FA" d="M0 0h56v56H0z"/><path fill-rule="evenodd" d="M12.86 26H11.7c-.01-.61-.65-2-2.69-2-3 0-3 3.2-3 3.64 0 .44.18 3.36 3.11 3.36 2.35 0 2.87-2.09 2.84-3H9v-1h4v5h-.77l-.28-1.3A3.96 3.96 0 0 1 9.1 32C6.04 32 5 29.16 5 27.74S5.55 23 9.11 23c2.86 0 3.7 2.05 3.75 3ZM15 32v-7h1v1.57a3.4 3.4 0 0 1 3-1.55v1.03c-.8-.13-2.4.27-3 2.1V32h-1Zm10-3h-4.86c0 .82.45 2 1.93 2 1.2 0 1.61-.59 1.67-1h1.13c-.1.75-.8 2-2.8 2-2.92 0-3.07-3.03-3.07-3.46 0-.43.11-3.54 3.07-3.54 2.37 0 2.94 2.71 2.93 4Zm-1.1-1h-3.75c.05-.67.49-2 1.86-2s1.84 1.33 1.9 2Zm3.24 1H32c.01-1.29-.56-4-2.93-4-2.96 0-3.07 3.1-3.07 3.54 0 .43.15 3.46 3.07 3.46 2 0 2.7-1.25 2.8-2h-1.13c-.06.41-.48 1-1.67 1-1.48 0-1.93-1.18-1.93-2Zm0-1h3.77c-.06-.67-.53-2-1.9-2-1.37 0-1.81 1.33-1.86 2ZM33 25v7h1v-4.4c.24-.92.67-1.6 1.74-1.6 1.06 0 1.3.88 1.26 1.33V32h1v-4.67c0-1.46-.5-2.33-2.12-2.33-.89 0-1.51.55-1.88 1.08V25h-1Zm6 7v-9h1v3.08A2.3 2.3 0 0 1 41.88 25c1.63 0 2.12.87 2.12 2.33V32h-1v-4.67c.03-.45-.2-1.33-1.26-1.33-1.07 0-1.5.68-1.74 1.6V32h-1Zm6-9v1h1v-1h-1Zm0 9v-7h1v7h-1Zm4-9v9h1v-9h-1Zm-2 9v-9h1v9h-1Z" fill="#306050"/></svg>