<!-- by TradingView --><svg width="56" height="56" viewBox="0 0 56 56" xmlns="http://www.w3.org/2000/svg"><path fill="#F0F3FA" d="M0 0h56v56H0z"/><path d="M16 21.9V25c-1.45-.67-2.3-1-3.92-1S8 24.93 8 28.14c0 3.2 3.03 3.86 3.72 3.86.55 0 1.92-.25 2.28-.37V30h-3v-3h6v6.65c-.91.45-3.3 1.35-5.54 1.35C8.66 35 4 33.09 4 28.14 4 23.18 8.15 21 11.12 21c2.38 0 4.16.6 4.88.9ZM18 25h4v5.5c0 .74.64 1.48 1.5 1.48.58 0 1.12-.4 1.5-.8V25h4v10h-4v-1.4a5.91 5.91 0 0 1-3.46 1.4C19.82 35 18 33.87 18 31.55V25ZM30 25h4v10h-4zM35 21l4 3.11V35h-4V21Z" fill="#2F2F7F"/><path fill-rule="evenodd" d="M51 21h-4v4.75a5.1 5.1 0 0 0-2.68-.75C42.06 25 40 26.56 40 30.07c0 3.5 2.3 4.93 4.56 4.93 1.01 0 1.84-.44 2.44-.95V35h4V21Zm-4 10.31v-2.6c-.17-.24-.79-.71-1.48-.71-.86 0-1.52 1-1.52 2s.7 2 1.52 2c.67 0 1.27-.46 1.48-.69Z" fill="#2F2F7F"/><path d="M30 21h4l-4 3v-3Z" fill="#F9C612"/></svg>