<!-- by TradingView --><svg xmlns="http://www.w3.org/2000/svg" width="56" height="56" viewBox="0 0 56 56"><path fill="#F0F3FA" d="M0 0h56v56H0z"/><path d="M20.55 20.68c-.35-.32-1.55-.4-1.55-.4V20h3.7l5.99 12.19L35.24 20H39v.28l-2.08.31 1.08 14 12 .22V35H34v-.47l1.55.03-1.08-11.28L28.21 35 21.7 23.08 21 34.56l2-.03V35H6v-.19l14-.23.96-13.02-.4-.88ZM18 31.71v1.32c-1.75.7-2.93.97-4.94.97C8.97 34 6 31.3 6 27.85 6 23.03 9.6 21 14.25 21H18v4h-.26c0-1.97-1.74-3-4.2-3A5.46 5.46 0 0 0 8 27.5c0 2.82 2.31 5.5 5.53 5.5 1.6 0 2.47-.15 2.47-.15V29.41l-2-.1V29h5v.31l-1 .1v2.3ZM43.37 34A7.7 7.7 0 0 1 40 32.9V30h.3c.13 1.93 1.51 2.98 3.29 3 1.78.02 2.91-.54 2.91-2.02 0-.96-.9-1.51-2.37-2.42l-.26-.16c-1.45-.9-3.37-2.26-3.37-4.47 0-2.2 2.44-2.93 3.94-2.93.68 0 1.18.05 1.6.1.29.02.53.05.76.05.33 0 .7-.15.7-.15v4h-.48s.05-1.4-.56-2.2c-.42-.56-.87-.8-2.02-.8-1.16 0-2.44.4-2.44 1.73 0 1.01.27 1.34 2.88 2.93 1.67 1.01 3.08 2.04 3.12 3.98 0 2.22-1.77 3.36-4.63 3.36Z" fill="#21368B"/></svg>