<!-- by TradingView --><svg width="56" height="56" viewBox="0 0 56 56" xmlns="http://www.w3.org/2000/svg"><path fill="#F0F3FA" d="M0 0h56v56H0z"/><path d="M30.16 15.86c.88.6.8 1.36.25 1.84h.01c-.34.3-.56.71-.62 1.18a1.8 1.8 0 0 0 1.41 2c.44.07.88-.03 1.25-.3 1.41-1 3.01-1.23 4.54 1.15a2.7 2.7 0 0 0 2.9 1.2 2.86 2.86 0 0 0 2.08-2.44c.22-1.84-1.32-3.44-3.04-3.23a2.7 2.7 0 0 0-1.49.71c-2.04 1.91-3.53 1.28-4.67-.08l-.19-.19c-.55-.48-.63-1.23.23-1.82.8-.5 1.37-.15 1.53.54.17.8.81 1.4 1.58 1.5.77.09 1.53-.36 1.87-1.1.52-1.14-.17-2.53-1.36-2.74a1.69 1.69 0 0 0-1.1.17v-.01c-.62.3-1.24.04-1.36-.94a2.56 2.56 0 0 0-2.64-2.3A2.6 2.6 0 0 0 29 13.64c0 .89.45 1.75 1.16 2.22v.01ZM41 28a2 2 0 1 0 0-4 2 2 0 0 0 0 4Z" fill="#DB5213"/><path d="M20.03 17.98c.16 0 .32-.02.47-.05 1.68-.37 2.48.16 2.84 1.66.22.9 1.14 1.5 2.1 1.4.95-.11 1.7-.92 1.68-1.83 0-.6-.34-1.17-.86-1.5-.59-.37-.68-1.18.24-1.64a2.64 2.64 0 0 0 1.42-3A2.8 2.8 0 0 0 25.21 11a2.8 2.8 0 0 0-2.72 2.03c-.3 1.18.3 2.43 1.42 3 .77.38.83 1.02.47 1.43-1.3.14-2.02-.37-2.34-1.82a2.07 2.07 0 0 0-2.65-1.45 1.95 1.95 0 0 0-1.2 2.68 2.1 2.1 0 0 0 1.85 1.11Z" fill="#90BC22"/><path d="M16.8 35.46a2.5 2.5 0 1 0-4.6-1.92 2.5 2.5 0 0 0 4.6 1.92Z" fill="#AAA8A6"/><path d="M21.66 36.72c-1-1.2-1.29-2.42.89-3.93a3.33 3.33 0 0 0 1.4-2.13c.32-1.74-.94-3.46-2.83-3.84a3.96 3.96 0 0 0-2.68.4v-.01c-.91.5-1.52.04-1.54-.47a1.83 1.83 0 0 0-1.4-1.67c-1.26-.34-2.55.58-2.5 1.78.03.77.62 1.45 1.43 1.65.4.1.82.09 1.2-.05.53-.17 1.22.18 1.06 1.14-.2 1.1.24 2.23 1.13 2.98 1.99 1.7 1.57 2.89.44 4-.29.28-.49.63-.56 1.01-.25 1.2.75 2.36 2.07 2.42 1.33.06 2.45-1 2.34-2.21-.04-.39-.2-.76-.45-1.07Z" fill="#AAA8A6"/><path d="M26.3 21.8a2.64 2.64 0 0 0-1.87-.12h-.01c-2.46.74-3.9.1-4.71-2.6a2.95 2.95 0 0 0-2.52-2.07 2.95 2.95 0 0 0-3.17 3.25 2.95 2.95 0 0 0 3.82 2.44c2.67-.89 4.02-.08 4.83 2.38A2.86 2.86 0 0 0 25.42 27a2.68 2.68 0 0 0 2.54-2.24 2.72 2.72 0 0 0-1.65-2.96Z" fill="#90BC22"/><path d="M27 35.9c0-1.05-.79-1.9-2-1.9-1.22 0-2 .85-2 1.9 0 1.4 1.06 2.22 1 3.2-.06 1.08-1.62 1.64-1.92 2.7-.45 1.6 1 3.2 2.92 3.2s3.37-1.6 2.92-3.2c-.3-1.06-1.83-1.63-1.9-2.7-.06-.98.98-1.78.98-3.2Zm.89-4.83a1.5 1.5 0 1 0-2.78-1.14 1.5 1.5 0 0 0 2.78 1.14Z" fill="#AAA8A6"/><path d="M33.8 25.46a2.5 2.5 0 1 0-4.6-1.92 2.5 2.5 0 0 0 4.6 1.92Z" fill="#DB5213"/><path d="M40.81 31.3a1.24 1.24 0 0 1-1.18-1.27c.05-.47 0-.96-.13-1.42a3.76 3.76 0 0 0-3.23-2.6c-2.05-.19-4.06 1.31-4.24 3.3a3.36 3.36 0 0 0 .04 1.14c.45 2.28-.37 2.9-1.65 3.15-.88.16-1.57.88-1.66 1.75-.12 1.2.94 2.23 2.13 2.17.6-.03.97-.41 1.55-.46.8-.06 1.53.53 1.6 1.3-.1 1.12-.94 1.79-2.34 1.33a2.89 2.89 0 0 0-1.74-.01A2.76 2.76 0 0 0 28 42.26a2.8 2.8 0 0 0 3.67 2.6 2.76 2.76 0 0 0 1.94-2.73c-.08-1.5.9-2.1 2.11-1.8a2.22 2.22 0 0 0 2.83-2.38A2.28 2.28 0 0 0 36.28 36c-1.3.01-2.75 1.38-3.28-.62.09-1.16.5-2.05 2.76-2 0 0 1.53.44 1.7 1.18a2.8 2.8 0 0 0 1.95 2.02c1.5.42 3.12-.47 3.5-1.94.4-1.47-.58-3-2.1-3.33Z" fill="#F1C200"/></svg>