<!-- by TradingView --><svg xmlns="http://www.w3.org/2000/svg" width="56" height="56" viewBox="0 0 56 56"><path fill="#F0F3FA" d="M0 0h56v56H0z"/><path d="m27.5 16.39-9.22 5.44 2 1.17 7.22-4.25v-2.36ZM18 26.29v-3.45l2 1.18v1.14l-2 1.13ZM35.67 22.97l-7.17-4.22v-2.36l9.17 5.4-2 1.18ZM36 25v-1.04l2-1.18v3.35L36 25ZM27.5 12l-12.95 7.63 2 1.17 10.95-6.44V12ZM14 28.53v-8.05l2 1.18v5.75l-2 1.12ZM39.4 20.77l-10.9-6.41V12l12.9 7.6-2 1.17ZM40 27.25V21.6l2-1.18v7.95l-2-1.12Z" fill="#DFC439"/><path d="m32.92 27.34 12.5 7.14L48 33.02l-15.21-8.68-2.66 1.85 2.29 1.5.5-.35ZM32.37 32.5l-8.94-5.28-12.89 7.53L8 33.29l15.43-9L34.83 31l-2.46 1.5Z" fill="#18478D"/><path d="m29.76 33.86-2.43 1.49-4.32-2.62-3.52 2.1 8.77 5.21 11.16-6.67 3.63 2.13-2.44 1.5-1.18-.68L28.25 43l-11.23-6.69-1.5.9-2.51-1.45 10.08-6.03 6.67 4.13Z" fill="#18478D"/></svg>