<!-- by TradingView --><svg width="56" height="56" viewBox="0 0 56 56" xmlns="http://www.w3.org/2000/svg"><path fill="#F0F3FA" d="M0 0h56v56H0z"/><path d="M29.23 22.01a2 2 0 1 1-.47 3.97 2 2 0 0 1 .47-3.97ZM16.2 27h25.34l-6.68 2.23s-2.96.81-3.87 3.08c-.68 2.83-2.21 8.96-2.21 8.96l-2.21-9.02s-.54-1.93-3.23-2.86c-2.69-.93-7.13-2.39-7.13-2.39Z" fill="#EF4123"/><path d="M41.96 27a14 14 0 1 1-.49-2.8l2.78-.81a16.9 16.9 0 0 0-29.98-5.43 17.04 17.04 0 0 0 2.6 22.9 16.91 16.91 0 0 0 22.96-.75c3.04-3 4.84-7.03 5.04-11.3l.05-.63L45 27h-3.04Z" fill="#737475"/></svg>