<!-- by TradingView --><svg width="56" height="56" viewBox="0 0 56 56" xmlns="http://www.w3.org/2000/svg"><path fill="#F0F3FA" d="M0 0h56v56H0z"/><path d="M43 18h3v2h-3v-2Zm3 3h-3v8.98a4.44 4.44 0 0 1 3 .02v-9Zm-25 9h-9.97A3.91 3.91 0 0 1 7 25.93v-.66C7 22.91 8.69 21 11.03 21H24v9.82A3.17 3.17 0 0 1 20.84 34H8v-2h12c.54 0 1-.68 1-1.23V30Zm-9.21-7C10.63 23 10 24.03 10 25.3v.4c0 1.27.63 2.3 1.79 2.3H21v-5h-9.21ZM27 21v9h3v-7h7.1c.57 0 .9.68.9 1.21V25h3v-1.08c0-2.17-1.91-2.85-2.87-2.92H27Z" fill="#10069A"/><path d="M32 27h-1v7.5a3.5 3.5 0 1 0 3.5-3.5v1a2.5 2.5 0 1 1-2.5 2.66V27Zm12.5 11a3.5 3.5 0 1 0-3.5-3.27h1.01L42 34.5a2.5 2.5 0 1 1 2.5 2.5v1ZM39 29h1v1h-1v-1Zm0 2h1v7h-1v-7Z" fill="#EF0193"/><path d="M41.19 35.2a.1.1 0 1 0 0-.2.1.1 0 0 0-.11.1c0 .06.05.1.1.1Zm.74-.02a.18.18 0 1 1-.37 0 .18.18 0 0 1 .37 0Zm-.46.43a.23.23 0 1 1-.47 0 .23.23 0 0 1 .47 0Zm.18.73a.23.23 0 1 1-.46 0 .23.23 0 0 1 .46 0Zm1.31 1.55a.29.29 0 1 0 0-.58.29.29 0 0 0 0 .58Zm1.04-.62a.25.25 0 1 1-.5 0 .25.25 0 0 1 .5 0Zm-1.24-.06a.25.25 0 1 0 0-.5.25.25 0 0 0 0 .5Zm-.5-.82a.2.2 0 1 1-.4 0 .2.2 0 0 1 .4 0Zm-.5-.38a.2.2 0 1 0 0-.4.2.2 0 0 0 0 .4Zm.44-.6a.1.1 0 0 1-.21 0 .1.1 0 0 1 .2 0Zm.1.66a.15.15 0 1 0 0-.3.15.15 0 0 0 0 .3Zm.54.32a.15.15 0 1 1-.3 0 .15.15 0 0 1 .3 0Zm.87 1.61a.15.15 0 1 0 0-.3.15.15 0 0 0 0 .3Zm-.3-1a.15.15 0 1 1-.31 0 .15.15 0 0 1 .3 0Zm-1.45.43a.34.34 0 1 0 0-.7.34.34 0 0 0 0 .7Z" fill="#0F0094"/></svg>