<!-- by TradingView --><svg xmlns="http://www.w3.org/2000/svg" width="56" height="56" viewBox="0 0 56 56"><path fill="#152F5B" d="M0 0h56v56H0z"/><path d="M49.96 30h-1.65l2.04-5H52l-2.04 5Zm-.33-4.44L47.78 30h-1.67l1.84-4.44h1.68Zm-2.3.44-1.67 4H44l1.72-4h1.61Z" fill="#F9AC1A"/><path d="M15 30h-1v-5h1v5Zm4.42 0h-1.04v-.5c-.27.39-.8.5-1.18.5-.97 0-1.68-.8-1.68-2.04 0-1.25.76-1.96 1.74-1.96.37 0 .9.1 1.12.43V25h1.04v5Zm-1.04-2.08c0-.65-.33-1.04-.82-1.04-.5 0-.82.44-.82 1.04 0 .6.32 1.12.82 1.12.44 0 .82-.4.82-1.12Zm3.92.08H21v2h-1v-5h1.9c1.13 0 2 .22 2.25 1 .27.8-.13 1.48-.9 1.78L24.52 30H23.3l-1-2ZM21 26v1h.92c.54 0 1.03 0 1.03-.51 0-.48-.44-.49-1.03-.49H21Zm7.73 5v-.92H29c.4 0 .6-.03.71-.3l.05-.1L28.34 26h1.26l.71 2.27.76-2.27h1.26l-1.53 3.73c-.38.97-.65 1.27-1.64 1.27h-.43Zm3.62-3.73c.11-.99 1.04-1.26 1.87-1.26 1.15 0 1.78.44 1.78 1.53v.82c0 .49 0 1.1.05 1.64H35v-.5c-.27.33-.73.5-1.28.5-.93 0-1.48-.6-1.48-1.26 0-.38.11-.6.39-.77a3.4 3.4 0 0 1 1.59-.43l.76-.11v-.11c0-.38-.38-.5-.82-.5-.38 0-.66.17-.66.5l-1.15-.05Zm2.65.9-.77.06c-.66.06-.77.23-.77.45s.16.45.55.45.99-.23.99-.73v-.22ZM37.7 30h-1.12v-5h1.12v5Zm1.3-5h1v1h1.08v1H40v1.56c0 .39.1.44.48.44h.33v1h-.7c-.92 0-1.11-.17-1.11-1.1V27h-1v-1h1v-1Zm2 6v-1h.27c.5 0 .55-.05.66-.32l.05-.11L40.56 26h1.26l.7 2.45.77-2.45h1.26l-1.53 3.7c-.38.98-.6 1.3-1.58 1.3H41ZM8.97 26.48l-1.2.16c-.11-.36-.5-.67-1.15-.67-.76 0-1.3.54-1.3 1.57 0 1.02.54 1.53 1.36 1.53.54 0 1.14-.35 1.14-.97V28H6.57v-1H9v3H8v-.63c-.27.4-.83.63-1.54.63C4.93 30 4 29.07 4 27.54 4 26 5.1 25 6.62 25c1.15 0 2.08.56 2.35 1.48Z" fill="#fff"/><path d="M26.53 26c1.03 0 2 .61 2 2 0 1.39-.92 2-2 2s-2-.61-2-2c0-1.33.92-2 2-2Zm-.04 3.11c.44 0 .83-.4.83-1.07s-.34-1.06-.83-1.06c-.5 0-.83.4-.83 1.06 0 .68.33 1.07.83 1.07ZM11.46 26c1.02 0 2 .61 2 2 0 1.39-.92 2-2 2-1.03 0-2-.61-2-2 0-1.33.97-2 2-2Zm-.05 3.11c.5 0 .83-.4.83-1.07s-.33-1.06-.83-1.06c-.5 0-.82.4-.82 1.06 0 .68.33 1.07.82 1.07Z" fill="#fff"/></svg>