<!-- by TradingView --><svg xmlns="http://www.w3.org/2000/svg" width="56" height="56" viewBox="0 0 56 56"><path fill="#F0F3FA" d="M0 0h56v56H0z"/><path d="M15.3 24.42a3.1 3.1 0 0 1 1.16-.74 4.27 4.27 0 0 1 2.35-.13 3.9 3.9 0 0 1 1.4.68c.18.15.34.3.46.45h.15a2.93 2.93 0 0 1 .3-.97 5.79 5.79 0 0 0-2.07-.66 8.26 8.26 0 0 0-1.14-.08c-.74 0-1.4.1-2.02.3-.6.21-1.12.5-1.55.9-.42.38-.75.86-.99 1.42-.23.56-.35 1.2-.35 1.92 0 .74.11 1.4.34 1.96a3.76 3.76 0 0 0 2.5 2.26 6.93 6.93 0 0 0 2.82.21c.3-.03.6-.08.89-.12.3-.05.58-.1.84-.18.26-.07.43-.14.61-.21V28h-1.05l-.94-.01.05.28.01.28c0 .2-.02.29-.06.5l.84-.05H20V30.34l-.02.76c-.1.07-.24.13-.4.18a3.96 3.96 0 0 1-1.05.2l-.56.03c-.58 0-1.1-.1-1.57-.28a3.26 3.26 0 0 1-1.92-2.05 5.23 5.23 0 0 1-.25-1.67c0-.7.1-1.31.28-1.82.2-.51.45-.93.78-1.27ZM27.49 31.65c-.13 0-.22-.03-.28-.08a.55.55 0 0 1-.15-.22.88.88 0 0 1-.05-.29l-.01-.3v-2.97c0-.76-.42-1.41-1.17-1.66A2.6 2.6 0 0 0 25 26c-.33 0-.66.05-.98.14-.31.1-.64.29-1.02.56v.63h.12c.14-.26.36-.46.65-.6.29-.15.6-.22.93-.22.62 0 1.06.33 1.22.94.06.18.08.38.08.58 0 .16 0 .44-.17.52-.12.06-.31.11-.57.16-.25.05-.6.12-1.05.19a2.6 2.6 0 0 0-1.3.53c-.31.27-.47.64-.47 1.12 0 .24.05.44.15.62a1.42 1.42 0 0 0 .9.74c.2.06.4.09.62.09.67 0 1.47-.24 1.96-.71.03.2.11.38.26.51.14.13.35.2.62.2.17 0 .32-.01.46-.04.14-.02.25-.05.34-.1v-.26a.31.31 0 0 1-.13.04l-.13.01ZM26 30.82c-.43.68-1.56.96-2.2.42-.22-.2-.33-.48-.33-.86 0-.22.05-.4.13-.55.09-.15.2-.27.35-.36.15-.1.32-.18.5-.23.19-.06.38-.1.57-.14l.57-.1.41-.1v1.92ZM30 25.34l.03-.98c0-.45.03-.91.07-1.36a3.1 3.1 0 0 1-1.2 0l.04.76c.02.3.03.27.03.6a84.16 84.16 0 0 1 .03 1.9v2.27a77.46 77.46 0 0 1-.1 3.47 5.88 5.88 0 0 1 1.2 0 14.7 14.7 0 0 1-.07-1.62 60.27 60.27 0 0 1-.03-1.85v-3.19ZM36.86 26.73a2.4 2.4 0 0 0-.81-.53 3 3 0 0 0-1.15-.2c-.9 0-1.65.28-2.14.85a3.46 3.46 0 0 0-.73 2.34 2.6 2.6 0 0 0 1.81 2.61 3.65 3.65 0 0 0 3.33-.5l.08-.6-.06-.03a2.79 2.79 0 0 1-1.88.86 2.3 2.3 0 0 1-.94-.18 2 2 0 0 1-1.1-1.18c-.1-.28-.14-.57-.14-.89v-.1l.01-.18.83-.02a28.3 28.3 0 0 1 2.16 0l1.34.02a4.8 4.8 0 0 0 .03-.47c0-.34-.05-.72-.16-1.02a2.1 2.1 0 0 0-.48-.78Zm-1.22 1.83a30.33 30.33 0 0 1-1.66 0l-.81-.02c.02-.22.06-.5.13-.75s.18-.47.31-.68c.14-.2.32-.38.53-.52.21-.13.48-.2.79-.2.32 0 .59.07.79.2.2.14.36.32.47.53.11.2.19.43.22.67.04.25.06.53.06.75l-.83.02ZM41.65 26c-.6.01-1.16.45-1.66 1.35v-.02a21.83 21.83 0 0 1 .07-1.33l-.3.04a1.6 1.6 0 0 1-.5 0c-.08 0-.22-.02-.31-.04a49.02 49.02 0 0 1 .05 2.74v2.1c-.01.5-.03.88-.05 1.16a6.44 6.44 0 0 1 1.1 0 6.1 6.1 0 0 1-.04-.72l-.01-1.2v-1.37a2.54 2.54 0 0 1 .32-1.26c.1-.15.24-.27.4-.37.16-.09.34-.13.54-.13.13 0 .25.02.37.06.12.04.2.09.25.14l.08-.07c0-.16 0-.35.02-.55 0-.2.03-.36.07-.46a1.04 1.04 0 0 0-.2-.06 1.5 1.5 0 0 0-.2-.01ZM47.62 31.64h-.13c-.13 0-.22-.02-.28-.08a.55.55 0 0 1-.15-.2.87.87 0 0 1-.05-.3l-.01-.3v-2.92c0-.53-.17-1.03-.52-1.35-.18-.16-.4-.28-.65-.36A2.58 2.58 0 0 0 45 26c-.33 0-.66.05-.98.14-.31.1-.64.29-1.02.56v.63h.12c.14-.26.36-.46.65-.6.29-.15.6-.22.93-.22.88 0 1.3.69 1.3 1.53 0 .15 0 .42-.17.5-.12.05-.31.1-.57.16l-1.05.18a2.6 2.6 0 0 0-1.3.54 1.4 1.4 0 0 0-.47 1.12c0 .24.05.45.15.63a1.42 1.42 0 0 0 .9.75 2.96 2.96 0 0 0 2.58-.63c.03.2.11.38.26.51.14.13.35.2.62.2.17 0 .32-.01.46-.04.14-.02.25-.05.34-.1v-.26a.32.32 0 0 1-.13.04ZM46 30.81c-.27.43-.95.72-1.44.72-.28 0-.53-.1-.75-.3-.23-.19-.34-.47-.34-.85 0-.23.05-.42.13-.56.09-.15.2-.27.35-.37.15-.1.31-.17.5-.23.19-.05.38-.1.57-.13.2-.04.38-.08.57-.1l.41-.1v1.92Z" fill="#2A6BA8"/><path d="M14.77 42C11.46 40.6 8 37.83 8 31.34V21s.29-.9.46-1.02c.16-.12.97.4 2.77.14A13.16 13.16 0 0 0 16.16 18c.27.17 2.97 2.15 6.26.2l2.17 1.15c-.57.26-2.87 1.96-6.21-.15-.6.41-3.43 2.92-8.38 1.89V31.5s-.14 7.71 4.77 10.5Z" fill="#488B3C"/></svg>