<!-- by TradingView --><svg width="56" height="56" viewBox="0 0 56 56" xmlns="http://www.w3.org/2000/svg"><path fill="#F0F3FA" d="M0 0h56v56H0z"/><path d="M25.1 11.43A20.84 20.84 0 0 0 31.7 15l.57.16c2.07.6 3.46 1.01 5.3 1.22.46.6.9 1.3 1.26 2.05a113.9 113.9 0 0 1-8.34-2.38c-3.73-1.2-6.2-2.52-7.76-3.67l-.2-.15c.83-.34 1.69-.61 2.57-.81Zm-3.6 1.28c-.67.33-1.32.7-1.94 1.13 2.29 1.6 6.3 3.84 12.07 5.61.27.08.42.36.34.63l-.28.97a.5.5 0 0 1-.62.33l-.23-.07a.5.5 0 0 0-.6.29l-.36.83a.5.5 0 0 0 .31.67c2.73.87 6.38 1.96 9.78 2.82.02-.53.02-1.19-.02-1.97-2.06-.64-4.21-1.34-5.48-1.77a.5.5 0 0 1-.32-.64l.32-.95a.5.5 0 0 1 .62-.32c1.11.37 2.9.96 4.7 1.52l-.03-.22a9.02 9.02 0 0 0-.45-1.99l-.61-.14c-1.95-.45-4.73-1.21-8.5-2.42-3.81-1.22-6.38-2.59-8.05-3.81l-.65-.5Zm20.26 15.71c-1.27-.29-2.61-.63-3.96-.99a.5.5 0 0 0-.6.31l-.44 1.22a.5.5 0 0 0 .34.66c1.39.36 2.81.72 4.13 1.04L42 29.1a.5.5 0 0 0-.24-.68Zm-.64 4.44a.5.5 0 0 0-.2.25l-.56 1.54a.5.5 0 0 0 .34.66c.79.21 1.52.4 2.16.54l.22-.11a.5.5 0 0 0 .23-.23l.64-1.3a.5.5 0 0 0-.32-.71l-2.5-.64Zm-.92 4.4c-3.4-.89-7.91-2.2-11.76-3.4a.5.5 0 0 0-.6.3l-.38 1c-.1.29.06.6.35.66.58.13 1.13.23 1.63.3.27.03.47.28.45.55l-.08 1a.48.48 0 0 1-.54.46c-3.14-.4-7.71-2-11.82-3.74a108 108 0 0 1-4.98-2.24c.1.42.22.84.35 1.25a41.3 41.3 0 0 0 9.83 4.19c.26.06.43.33.37.6l-.22.98a.49.49 0 0 1-.6.38 40.25 40.25 0 0 1-8.1-3.17c.27.5.57 1 .9 1.48 3.29 1.41 10.2 4.12 15.72 5.48.38-.21.73-.43 1.06-.66-2.73-.76-4.98-1.47-6.24-1.88a.5.5 0 0 1-.31-.63l.31-.96a.5.5 0 0 1 .63-.32c1.43.47 4.2 1.33 7.48 2.22a8.7 8.7 0 0 0 1.15-1.42l-2.5-.85a.5.5 0 0 1-.32-.63l.2-.6a.5.5 0 0 1 .59-.34l6.5 1.41.93-1.42Zm-10.85 6.77a120.07 120.07 0 0 1-13.1-4.56c.42.48.87.94 1.34 1.38l.05-.12a97 97 0 0 0 10.8 3.66l.9-.36Zm-2.8.88a98.12 98.12 0 0 1-6.37-2.12 16.59 16.59 0 0 0 5.9 2.2l.46-.08Zm-14.48-15.2c1.73.88 3.87 1.87 6.13 2.82 2.62 1.1 5.32 2.11 7.67 2.8.24.06.5-.07.59-.32l.4-1.1a.5.5 0 0 0-.31-.65c-1.85-.59-3.43-1.12-4.52-1.51a.5.5 0 0 1-.29-.65l.35-.94a.5.5 0 0 1 .64-.3 268.3 268.3 0 0 0 16.04 4.94.5.5 0 0 0 .59-.31l.55-1.5a.5.5 0 0 0-.35-.66c-2.86-.71-5.97-1.55-8.01-2.1a.5.5 0 0 1-.35-.62l.27-.98a.5.5 0 0 1 .6-.35l3.1.84a.5.5 0 0 0 .59-.31l.45-1.24a.5.5 0 0 0-.33-.67c-3.53-.99-6.88-2.05-8.85-2.7a.5.5 0 0 1-.31-.64l.3-.96a.5.5 0 0 1 .63-.32l.64.21a.5.5 0 0 0 .6-.28l.36-.84a.51.51 0 0 0-.3-.68A42.44 42.44 0 0 1 17.9 15.1c-.6.52-1.17 1.1-1.7 1.7a43.22 43.22 0 0 0 8.1 4.64c.26.1.38.4.28.66l-.37.93a.49.49 0 0 1-.64.28 45.18 45.18 0 0 1-8.59-4.93c-.53.78-1 1.6-1.4 2.47a90.42 90.42 0 0 0 15.08 6.65.5.5 0 0 1 .34.62l-.28.97a.49.49 0 0 1-.62.34 91.99 91.99 0 0 1-15.25-6.7c-.24.74-.43 1.5-.57 2.27a72.11 72.11 0 0 0 7.04 3.49c.26.1.39.4.3.65l-.36.95c-.1.26-.38.39-.63.29a69.34 69.34 0 0 1-6.6-3.23 17.66 17.66 0 0 0 .04 2.56Zm24.54-14.47c-.49-.53-.95-.95-1.31-1.22 0 0-1.7-.28-2.48-.5A9.45 9.45 0 0 1 28.66 11c-.76 0-1.51.07-2.25.18l.34.24a18.12 18.12 0 0 0 5.8 2.79c1.6.47 2.78.8 4.06 1.03Z" fill="url(#aqpthz1cd)"/><defs><linearGradient id="aqpthz1cd" x1="12.99" y1="23.58" x2="42.86" y2="35.35" gradientUnits="userSpaceOnUse"><stop offset=".14" stop-color="#FFD873"/><stop offset="1" stop-color="#E2271E"/></linearGradient></defs></svg>