<!-- by TradingView --><svg width="56" height="56" viewBox="0 0 56 56" xmlns="http://www.w3.org/2000/svg"><path fill="#F0F3FA" d="M0 0h56v56H0z"/><path fill-rule="evenodd" d="M28 45a17 17 0 1 0 0-34 17 17 0 0 0 0 34Zm0-.52a16.48 16.48 0 1 0 0-32.96 16.48 16.48 0 0 0 0 32.96Z" fill="#80302F"/><path fill-rule="evenodd" d="M28 41a13 13 0 1 0 0-26 13 13 0 0 0 0 26Zm0-.4a12.6 12.6 0 1 0 0-25.2 12.6 12.6 0 0 0 0 25.2Z" fill="#80302F"/><path d="M18.28 19.14a13.12 13.12 0 0 1 19.1-.36l1.96-1.67A15.67 15.67 0 0 0 28 12.28c-4.43 0-8.43 1.83-11.28 4.78l1.56 2.08ZM41.92 33.49a14.96 14.96 0 0 1-27.82.06l1.41-.72a13.39 13.39 0 0 0 24.94.08l1.47.58Z" fill="#80302F" fill-opacity=".4"/><path d="m14.45 22.23.38.27a14.23 14.23 0 0 0-1.1 5.64h-.45V28c0-2.05.41-4 1.17-5.77Zm28.27 5.91V28c0-2.01-.4-3.93-1.13-5.68l-.42.17a14.23 14.23 0 0 1 1.1 5.65h.45ZM19.34 19.7A11.97 11.97 0 0 1 28 16v9.97c.03.83-.07 1.89-.32 3.03h-2.44c0-5.7-3.7-8.48-5.9-9.3Zm-.31.33A11.96 11.96 0 0 0 16.04 29h8.77c0-5.63-3.75-8.27-5.78-8.97Zm1.46 9.46h7.08c-.24.97-.6 1.99-1.07 2.97-.2.4-.42.81-.67 1.2a3 3 0 0 0-1.73-.46H20.5v-3.71Zm-.49 3.7v-3.7h-3.9c.15 1.31.53 2.56 1.08 3.7H20Zm-2.6.43H20v3.33a12.05 12.05 0 0 1-2.6-3.33Zm3.09 0h3.63c.36-.03.9.06 1.47.4a8.66 8.66 0 0 1-4.93 3.48l-.17-.14v-3.74Zm5.46.64a9.12 9.12 0 0 1-4.01 3.25h5.78c-.36-1.7-1.06-2.7-1.77-3.25Zm2.12 3.25h6.48c-2.05-.98-5.01-3.42-6.07-8.02h-.47a16.03 16.03 0 0 1-1.12 3.15c-.2.43-.44.85-.7 1.26.8.63 1.58 1.74 1.96 3.6l-.08.01Zm10.55-3.91a12.06 12.06 0 0 1-3.18 3.82 9.15 9.15 0 0 1-2.95-1.8V29.5h.02V29h-.02V16.87c.9.36 1.74.83 2.51 1.38v13.82l-1.68-.6v.48l2.18.79V18.63c.54.43 1.04.91 1.5 1.43V33.01l1.62.59ZM32 29.49v5.67a11.75 11.75 0 0 1-3.08-5.67H32ZM40 28c0 1.86-.42 3.62-1.17 5.19l-1.34-.49V26.5h2.42c.06.5.1 1 .1 1.51Zm-11.57-2.04c.02.83-.07 1.9-.31 3.04H32V16.68c-1.12-.4-2.32-.63-3.57-.67v9.95ZM28 40c2.45 0 4.74-.74 6.64-2H21.36c1.9 1.26 4.19 2 6.64 2Zm9.49-14h2.35c-.34-2-1.17-3.82-2.35-5.35V26Z" fill="#80302F"/></svg>