<!-- by TradingView --><svg width="56" height="56" viewBox="0 0 56 56" xmlns="http://www.w3.org/2000/svg"><path fill="#F0F3FA" d="M0 0h56v56H0z"/><path d="M13.68 35.42a9.32 9.32 0 0 1-4.4-7.94c0-3.42 1.82-6.4 4.5-8.02l-.59-1.16A10.63 10.63 0 0 0 8 27.48c0 3.84 2 7.2 5 9.06l.68-1.12ZM11.86 24.7l-1.26-.52a8.66 8.66 0 0 0-.54 3c0 4.6 3.58 8.36 8.04 8.52v-1.4a7.06 7.06 0 0 1-6.67-7.11c0-.88.15-1.71.43-2.49ZM17.92 40c-4.05 0-7.63-2.03-9.83-5.14l.92-.82a10.82 10.82 0 0 0 13.27 3.79l.47 1.15A11.86 11.86 0 0 1 17.92 40Z" fill="#FDA315"/><path d="M22 26h3v3.7c-3.58 1.08-7-.31-7-4.7 0-4.39 3.66-5 5.42-5 1.4 0 3.03.64 3.58.98V18.7c-.71-.24-2.56-.7-3.58-.7-1.28 0-7.42.3-7.42 6.83S21.54 32 23.42 32c1.5 0 3.01-.46 3.58-.7V24h-5v2Zm7.15 5.38.23-2.15c.86.44 1.96.77 2.62.77.66 0 3-.04 3-1.84 0-1.43-1.5-2.19-2.2-2.4-1.27-.44-3.8-1.9-3.8-4.13 0-2.79 2.45-3.63 4.52-3.63 1.66 0 2.51.4 2.74.6l-.3 1.9c-.4-.19-1.44-.5-2.44-.5-1.25 0-2.52.19-2.52 1.3 0 1.1.76 1.55 1.8 2.15.2.12.47.23.79.36 1.34.54 3.41 1.38 3.41 4.1 0 3.34-3.36 4.09-4.87 4.09a8.8 8.8 0 0 1-2.98-.62ZM47 18h-8v14h8v-2h-6v-4h5v-2h-5v-4h6v-2ZM25.77 35.66a1.35 1.35 0 0 0-.65-.13c-.41 0-.62.17-.62.5 0 .16.13.32.39.5a57.46 57.46 0 0 1 .72.52c.26.25.39.53.39.85 0 .36-.13.64-.38.84-.22.17-.48.26-.78.26-.3 0-.58-.06-.84-.18l.07-.57c.24.14.5.21.79.21.42 0 .63-.2.63-.6 0-.16-.13-.33-.38-.52a75.04 75.04 0 0 1-.73-.53c-.25-.24-.38-.5-.38-.78 0-.32.11-.58.34-.77.21-.17.47-.26.79-.26.26 0 .5.04.72.13l-.08.53Zm2.04-.14c-.32 0-.57.16-.75.46a1.9 1.9 0 0 0-.26 1.01c0 .41.09.75.26 1.02.18.3.43.46.75.46.31 0 .56-.15.75-.46.16-.27.25-.6.25-1.02 0-.4-.09-.73-.25-1.01-.19-.3-.44-.46-.75-.46Zm0-.52c.49 0 .87.2 1.14.62.24.36.36.82.35 1.37 0 .6-.13 1.09-.37 1.43-.27.38-.64.57-1.12.57a1.3 1.3 0 0 1-1.13-.57A2.44 2.44 0 0 1 26.3 37c0-.56.12-1.02.36-1.38.27-.4.65-.61 1.15-.61ZM30 39h1.78v-.56H30.5V35H30v4Zm4.54-4v2.55c0 .53-.15.92-.45 1.17-.22.19-.5.28-.82.28-.33 0-.6-.1-.83-.28-.3-.25-.44-.64-.44-1.17V35h.51v2.52c0 .29.07.51.2.68.13.17.31.26.56.26.24 0 .43-.09.57-.26.13-.16.19-.39.19-.68V35h.51Zm1.98.54h.96V35H35v.54h1V39h.52v-3.46ZM38.5 39H38v-4h.5v4Zm6.5 0h-.55L43 36v3h-.5v-4h.52l1.49 3.05V35H45v4Zm-5.25-3.02c.18-.3.43-.46.75-.46s.57.16.75.46c.17.28.25.61.25 1.01 0 .41-.08.75-.25 1.02-.18.3-.43.46-.75.46s-.57-.15-.75-.46A1.91 1.91 0 0 1 39.5 37c0-.4.08-.74.25-1.01Zm1.9-.36A1.3 1.3 0 0 0 40.5 35c-.5 0-.87.2-1.14.61-.24.36-.36.82-.36 1.38 0 .6.13 1.08.38 1.43.27.38.64.57 1.12.57.48 0 .86-.19 1.12-.57.25-.34.37-.82.38-1.43 0-.55-.12-1-.36-1.37Zm5.47-.09c.27 0 .49.05.65.13l.08-.53a1.9 1.9 0 0 0-.72-.13c-.32 0-.58.09-.79.26a.95.95 0 0 0-.34.77c0 .28.13.54.38.78a32.93 32.93 0 0 1 .73.53c.25.19.38.36.38.52 0 .4-.2.6-.63.6a1.5 1.5 0 0 1-.8-.21l-.06.57c.26.12.53.18.84.18.3 0 .56-.09.78-.26.25-.2.38-.48.38-.84 0-.32-.13-.6-.39-.85a57.46 57.46 0 0 0-.72-.52c-.26-.18-.39-.34-.39-.5 0-.33.21-.5.62-.5Z" fill="#085E96"/></svg>