<!-- by TradingView --><svg width="56" height="56" viewBox="0 0 56 56" xmlns="http://www.w3.org/2000/svg"><path fill="#F0F3FA" d="M0 0h56v56H0z"/><path d="M27.98 28.8c.86 2.66 1.18 5.4.95 8.2-.46-.14-.92-.3-1.37-.45-1.67-.58-3.35-.61-4.7.7a.18.18 0 0 0-.07.08c0 .05 0 .06.05.03 2.06-1.56 4.01-.45 6.1.15-.06.16-.09.32-.08.49-1.82-.62-3.95-1.44-5.58.28l-.01.02v.02l.03.01h.02c1.87-1.35 3.62-.48 5.49.13a.85.85 0 0 0-.05.44c-1.63-.6-3.28-1.08-4.73.23v.03a.04.04 0 0 0 .02.03h.02c1.58-.95 3.05-.5 4.61.14-.03.06-.06.07-.08.15-.16.77-.35 1.55-.57 2.32a10.2 10.2 0 0 1-1.86-.87 10.01 10.01 0 0 1-2.65-2.16c-2.45-2.88-1.01-6.2.99-8.7a.04.04 0 0 0-.03-.08l-.03.01c-2.32 1.61-3.12 4.34-3.22 7.1 0 .05-.02.05-.05.02-3.23-3.3-4.77-8.08-1.4-11.96v-.02a.03.03 0 0 0-.03-.03h-.02a7.96 7.96 0 0 0-2.58 4.21h-.02l-.02-.01a23.12 23.12 0 0 1-2.92-8.8c0-.01-.01-.02-.03-.01l-.02.04c-.04 1.87.26 3.68.91 5.43.03.08.02.09-.04.03a3.95 3.95 0 0 0-2.27-1.2c-.08-.02-.08 0-.01.04 1.6.98 2.76 2.01 3.55 3.8.14.3.32.89.56 1.75a28.95 28.95 0 0 0 1.08 3.24h-.02c-.85-.14-1.7-.2-2.57-.18a5.2 5.2 0 0 0-1.96.4c-.12.05-.11.07.02.06 1.54-.2 3.27-.17 4.65.48.03.01.05.03.07.07 1.76 3.76 4.77 6.53 8.3 8.48.07.04.06.06-.02.06-.52-.02-1.18-.12-1.55-.16a18.56 18.56 0 0 1-9.3-3.57c-7.79-5.72-6.3-16.97-2.05-24.24l.03-.03h.04c6.27 2.57 12.06 7.02 14.42 13.8Z" fill="#43914D"/><path d="M28.76 38.9c-.02-.16 0-.3.05-.44 1.53.4 3.1.32 4.28-.75a.05.05 0 0 0 0-.06.04.04 0 0 0-.06-.01c-1.26.87-2.78.74-4.17.36-.01-.17.02-.33.08-.5 1.55.42 3.38.32 4.56-.93l.02-.06c-.02-.04-.04-.04-.06-.02-1.26 1-3.03.96-4.53.51.23-2.8-.09-5.54-.95-8.2.22-.56.45-1.1.7-1.64C31.3 21.27 36.71 17.34 42.4 15c.03-.01.05 0 .07.03a25.24 25.24 0 0 1 3.34 9.72c.75 5.4-.8 11.05-5.2 14.39-3.3 2.5-7 3.6-11.04 3.85-.06 0-.06-.01-.01-.04l1.28-.8c2.9-1.8 5.58-4.45 6.96-7.61.04-.1.14-.2.3-.25a9.51 9.51 0 0 1 4.53-.38l.01-.02v-.03l-.02-.02c-1.34-.62-3.13-.45-4.54-.22-.04 0-.06-.01-.04-.06.24-.58.49-1.17.67-1.77.33-1.14.64-2.46 1.11-3.42a7.68 7.68 0 0 1 3.46-3.56l-.01-.02h-.02c-.91.13-1.68.54-2.3 1.21-.05.05-.06.04-.04-.02a14.65 14.65 0 0 0 .9-5.5 23.7 23.7 0 0 1-2.96 8.8c-.01.04-.03.04-.04 0-.57-1.67-1.17-3-2.52-4.16a.04.04 0 0 0-.05 0 .04.04 0 0 0 0 .05l.49.68c2.7 3.78 1 8.28-1.94 11.26-.02.02-.03.02-.04-.01-.09-2.74-.95-5.5-3.26-7.15a.05.05 0 0 0-.07 0 .05.05 0 0 0 0 .07c2.05 2.5 3.49 5.84 1.06 8.73-.7.81-2.85.43-3.73.14Z" fill="#98C455"/><path d="M28.68 39.33a5.09 5.09 0 0 0 3.23.03v.04a12.5 12.5 0 0 1-3.88 2.4c.22-.77.4-1.55.57-2.32.02-.08.05-.1.08-.15Z" fill="#98C455"/></svg>