<!-- by TradingView --><svg width="56" height="56" viewBox="0 0 56 56" xmlns="http://www.w3.org/2000/svg"><path fill="#F0F3FA" d="M0 0h56v56H0z"/><path d="M18.02 26.78c0-5.6 11.11-10.17 24.96-10.28V16c-.09 0 .08 0 0 0C24.33 16 9 21.37 9 28s15.33 12 33.98 12c-.09 0 .08 0 0 0v-3.06c-13.85-.1-24.96-4.54-24.96-10.16Z" fill="#62A24C"/><path d="M23.03 26.78s-1.15-2.32 1.53-4.36c0 0-3.43 1.99-2.83 4.45 0 0 .58 6.85 21.24 7.73v-2.14c-1.45-.03-16.46-.44-19.94-5.68Z" fill="#2360A5"/><path d="M37.1 29.52s.3.59 5.88.43v-.48c-1.23.07-3.85.2-5.89.05Z" fill="#62A24C"/><path d="M37.62 18.6c1.71-.18 3.93-.18 5.36-.15v-.4c-4.92.02-5.36.54-5.36.54Zm-4.09 6.85c-.07-2.18 7.06-2.42 9.44-2.43v-.3c-8.06-.04-12.94 1.28-12.94 3.02 0 1.76 5.15 2.97 12.94 2.84v-.9c-9.7.17-9.44-2.23-9.44-2.23Z" fill="#2360A5"/><path d="M25.42 24.95s-.07 1.55 2.08 2.15c0 0-2.54-1.31-.46-3.16 0 0 3-3.27 15.94-2.88v-1.39c-2.93.03-17.38.44-17.56 5.28Z" fill="#62A24C"/></svg>