<!-- by TradingView --><svg width="56" height="56" viewBox="0 0 56 56" xmlns="http://www.w3.org/2000/svg"><path fill="#F0F3FA" d="M0 0h56v56H0z"/><path d="M9.68 37H8.2v-.2c.14 0 .24-.03.33-.05.09-.03.13-.06.13-.1a.45.45 0 0 0-.02-.13l-.3-.88H7.08a8.25 8.25 0 0 0-.24.8l-.01.12c0 .07.05.13.16.17.1.04.22.07.36.07v.2H6v-.2l.16-.03a.53.53 0 0 0 .17-.07c.06-.05.11-.1.15-.16.04-.05.07-.13.11-.22A167 167 0 0 0 7.76 33h.2l1.2 3.4a.7.7 0 0 0 .08.18.56.56 0 0 0 .28.2l.16.02v.2Zm-1.44-1.61-.54-1.53-.53 1.53h1.07ZM11.39 37c-.22 0-.42-.05-.62-.13-.2-.1-.37-.22-.52-.4a1.92 1.92 0 0 1-.35-.61 2.4 2.4 0 0 1-.14-.83c0-.3.05-.58.13-.83.09-.25.21-.46.37-.64a1.6 1.6 0 0 1 2.1-.3l.1-.18h.2l.02 1.37h-.2a3.35 3.35 0 0 0-.13-.43 1.72 1.72 0 0 0-.19-.4.93.93 0 0 0-.28-.29.7.7 0 0 0-.38-.1.93.93 0 0 0-.46.12c-.14.07-.26.19-.36.34-.1.14-.18.33-.23.55a3.15 3.15 0 0 0 0 1.43c.06.2.14.38.25.54.1.15.23.27.38.36.15.08.31.13.5.13a1.02 1.02 0 0 0 .67-.26 1.4 1.4 0 0 0 .37-.6l.2.1c-.15.38-.34.65-.58.82-.24.16-.52.24-.85.24ZM16.02 33.55c.15.18.28.4.37.65.09.25.13.53.13.83 0 .24-.03.47-.09.67a2 2 0 0 1-.61.97c-.14.11-.3.2-.48.27 0 .2.07.38.2.54.13.16.27.24.42.24a2.28 2.28 0 0 0 .5-.05v.22l-.29.07c-.11.03-.27.04-.47.04-.11 0-.22-.01-.33-.05a.8.8 0 0 1-.3-.17.96.96 0 0 1-.21-.3c-.06-.12-.1-.26-.11-.44a1.63 1.63 0 0 1-1.2-.58 2 2 0 0 1-.34-.64c-.09-.24-.13-.5-.13-.79 0-.31.05-.6.14-.84.09-.24.21-.46.37-.64A1.63 1.63 0 0 1 14.8 33a1.59 1.59 0 0 1 1.22.55Zm-.38 2.74c.1-.17.16-.35.2-.56a3.43 3.43 0 0 0-.21-2c-.1-.15-.21-.27-.35-.35a.89.89 0 0 0-.48-.13c-.2 0-.37.05-.51.15-.14.1-.26.23-.35.4-.08.15-.14.34-.19.56a3.64 3.64 0 0 0 0 1.38c.05.2.12.4.21.56.1.16.21.28.35.37.14.1.3.14.5.14a.9.9 0 0 0 .48-.14c.14-.09.26-.22.35-.38ZM20.58 33.2c-.04 0-.11 0-.2.03a.61.61 0 0 0-.22.09c-.06.04-.1.13-.12.26-.02.13-.04.3-.04.49v1.7a1.15 1.15 0 0 1-.45.96 1.46 1.46 0 0 1-.84.28c-.21-.01-.4-.04-.57-.1-.17-.06-.3-.15-.42-.25a1.05 1.05 0 0 1-.34-.78v-2.31a.37.37 0 0 0-.03-.16.28.28 0 0 0-.12-.12 1.08 1.08 0 0 0-.32-.1V33h1.49v.2a1.17 1.17 0 0 0-.34.06.2.2 0 0 0-.11.11.5.5 0 0 0-.03.17v2.16c0 .1 0 .21.03.33a.76.76 0 0 0 .4.57c.1.06.26.1.46.1a1 1 0 0 0 .46-.1.79.79 0 0 0 .3-.26c.07-.1.11-.2.14-.3.03-.12.05-.23.05-.34v-1.6c0-.2-.02-.37-.05-.5-.02-.13-.06-.21-.11-.25a.65.65 0 0 0-.25-.11c-.1-.03-.17-.04-.23-.04V33h1.46v.2ZM22.44 37h-1.61v-.2a38.04 38.04 0 0 0 .37-.05c.06-.03.1-.06.13-.1.02-.04.03-.1.03-.18v-2.9c0-.06 0-.12-.02-.16-.02-.04-.07-.08-.14-.11a1.13 1.13 0 0 0-.19-.06 1.05 1.05 0 0 0-.18-.04V33h1.6v.2a1.33 1.33 0 0 0-.37.07.2.2 0 0 0-.13.1.42.42 0 0 0-.03.18v2.9l.03.16c.03.05.07.08.13.11a1.17 1.17 0 0 0 .38.08v.2ZM25.11 35.16c.08.1.13.2.17.3.03.1.05.23.05.37 0 .34-.12.62-.35.84-.23.22-.52.33-.87.33a1.82 1.82 0 0 1-.9-.27l-.1.2h-.2l-.04-1.32h.2c.05.16.1.31.16.44.05.13.13.25.22.37.09.1.19.19.3.25.12.06.26.1.41.1.12 0 .22-.02.3-.05a.53.53 0 0 0 .33-.35.89.89 0 0 0-.08-.7.75.75 0 0 0-.36-.3 14.48 14.48 0 0 0-.74-.32c-.2-.1-.36-.23-.47-.39a1.06 1.06 0 0 1-.16-.61 1 1 0 0 1 .32-.75 1.1 1.1 0 0 1 .76-.3c.16 0 .3.03.44.08.13.06.25.12.36.19l.1-.18h.2l.02 1.27h-.2a4.8 4.8 0 0 0-.13-.42c-.05-.13-.1-.25-.18-.36a.83.83 0 0 0-.26-.25.73.73 0 0 0-.39-.1c-.16 0-.3.06-.4.17a.54.54 0 0 0-.17.4c0 .17.03.3.1.42.08.1.18.2.32.26.12.07.24.12.36.17a4.67 4.67 0 0 1 .64.3c.09.06.17.13.24.21ZM27.34 37h-1.6v-.2a39.04 39.04 0 0 0 .37-.05c.06-.03.1-.06.12-.1.03-.04.04-.1.04-.18v-2.9c0-.06 0-.12-.03-.16-.01-.04-.06-.08-.13-.11a1.13 1.13 0 0 0-.19-.06 1.05 1.05 0 0 0-.19-.04V33h1.61v.2a1.33 1.33 0 0 0-.37.07.2.2 0 0 0-.13.1.42.42 0 0 0-.03.18v2.9l.03.16c.03.05.07.08.13.11a1.17 1.17 0 0 0 .37.08v.2ZM30.7 34.09h-.18a2.06 2.06 0 0 0-.38-.73c-.05-.07-.11-.1-.17-.12a2.11 2.11 0 0 0-.41-.02h-.15v3.2c0 .06.01.12.04.17.02.05.06.1.12.12l.19.05c.1.03.17.04.23.04v.2h-1.7v-.2a6.07 6.07 0 0 0 .42-.06c.06-.03.1-.06.12-.1.03-.06.04-.12.04-.2v-3.22h-.14a4.2 4.2 0 0 0-.42.02c-.05.01-.11.05-.17.12-.06.06-.11.14-.17.22a1.95 1.95 0 0 0-.2.5h-.19V33h3.12v1.09ZM32.55 37h-1.6v-.2a39.04 39.04 0 0 0 .37-.05c.05-.03.1-.06.12-.1.02-.04.04-.1.04-.18v-2.9c0-.06-.01-.12-.03-.16-.02-.04-.06-.08-.13-.11a1.13 1.13 0 0 0-.2-.06 1.04 1.04 0 0 0-.18-.04V33h1.61v.2a1.33 1.33 0 0 0-.37.07.2.2 0 0 0-.13.1c-.03.06-.05.11-.05.18v2.9c0 .05.03.1.05.16.02.05.07.08.13.11a1.17 1.17 0 0 0 .37.08v.2ZM35.89 33.55c.15.17.28.39.37.63.09.25.13.53.13.83 0 .3-.04.58-.14.82-.09.25-.21.46-.37.64a1.64 1.64 0 0 1-1.9.39c-.2-.1-.39-.24-.54-.42a1.93 1.93 0 0 1-.36-.63 2.44 2.44 0 0 1-.13-.8c0-.31.05-.59.14-.83.1-.24.22-.46.38-.63a1.63 1.63 0 0 1 2.42 0Zm-.38 2.7c.1-.16.16-.34.2-.55a3.35 3.35 0 0 0-.21-1.97c-.1-.16-.2-.27-.35-.36a.9.9 0 0 0-.48-.13c-.2 0-.37.05-.51.15-.14.1-.26.23-.35.4-.08.15-.14.34-.19.55a3.56 3.56 0 0 0 0 1.37c.05.2.12.39.22.55a.9.9 0 0 0 .84.5.9.9 0 0 0 .48-.13c.14-.09.26-.22.35-.38ZM40.5 33.2c-.04 0-.11.01-.2.04a.73.73 0 0 0-.22.09c-.06.05-.1.14-.12.27-.02.13-.03.3-.03.5V37h-.22l-2.17-3.24v2.04c0 .23.01.4.04.53.03.12.07.21.12.26.04.04.12.08.24.12l.24.05V37h-1.47v-.24a1.33 1.33 0 0 0 .43-.14c.06-.05.1-.13.13-.24.02-.1.03-.29.03-.55v-1.95a.85.85 0 0 0-.04-.25.5.5 0 0 0-.11-.2.73.73 0 0 0-.25-.16.78.78 0 0 0-.25-.07V33h1.02l2.01 3.02v-1.88c0-.23 0-.41-.04-.53-.02-.13-.06-.21-.11-.25a.8.8 0 0 0-.23-.1c-.11-.04-.19-.06-.25-.06V33h1.46v.2ZM43.62 37c-.21 0-.42-.05-.61-.13-.2-.1-.37-.22-.52-.4a1.92 1.92 0 0 1-.36-.61 2.4 2.4 0 0 1-.14-.83c0-.3.05-.58.14-.83.08-.25.2-.46.36-.64a1.6 1.6 0 0 1 2.1-.3l.1-.18h.2l.02 1.37h-.2a3.33 3.33 0 0 0-.13-.43 1.71 1.71 0 0 0-.18-.4.93.93 0 0 0-.3-.29.7.7 0 0 0-.37-.1.93.93 0 0 0-.46.12c-.14.07-.26.19-.36.34-.1.14-.17.33-.23.55a3.15 3.15 0 0 0 0 1.43c.06.2.14.38.25.54.11.15.24.27.38.36.15.08.31.13.5.13a1.02 1.02 0 0 0 .67-.26 1.4 1.4 0 0 0 .38-.6l.19.1c-.15.38-.34.65-.58.82-.24.16-.52.24-.85.24ZM48.25 33.55c.16.17.28.39.37.63.09.25.13.53.13.83 0 .3-.04.58-.13.82-.1.25-.22.46-.38.64a1.64 1.64 0 0 1-1.9.39c-.2-.1-.39-.24-.54-.42a1.94 1.94 0 0 1-.36-.63 2.44 2.44 0 0 1-.12-.8c0-.31.04-.59.13-.83.1-.24.22-.46.38-.63a1.62 1.62 0 0 1 2.42 0Zm-.38 2.7c.1-.16.17-.34.2-.55a3.34 3.34 0 0 0-.2-1.97c-.1-.16-.22-.27-.36-.36a.9.9 0 0 0-.48-.13c-.2 0-.37.05-.51.15-.14.1-.26.23-.35.4a2 2 0 0 0-.18.55 3.56 3.56 0 0 0 0 1.37c.04.2.11.39.2.55.1.16.21.28.35.37.14.09.3.13.5.13a.9.9 0 0 0 .48-.13c.14-.09.26-.22.35-.38ZM50 36.5c0 .14-.05.26-.15.36-.1.1-.21.14-.35.14a.5.5 0 0 1-.35-.85c.1-.1.21-.15.35-.15.14 0 .25.05.35.15.1.1.15.22.15.35ZM17.35 28h-4.71v-.5c.52-.04 1.36-.05 1.36-.76v-3.1h-4v3.03c0 .66.8.8 1.33.84V28H6.7v-.5c.55-.02 1.29-.06 1.29-.77v-6.37c0-.63-.78-.81-1.3-.87V19h4.63v.5c-.53.03-1.33.14-1.33.8V23h4v-2.64c0-.66-.82-.8-1.36-.87V19h4.7v.5c-.52.03-1.34.12-1.34.8v6.37c0 .68.81.8 1.35.84V28ZM29.34 28h-4.7v-.5c.52-.04 1.36-.05 1.36-.76v-3.1h-4v3.03c0 .66.8.8 1.32.84V28H18.7v-.5c.56-.02 1.3-.06 1.3-.77v-6.37c0-.63-.78-.81-1.3-.87V19h4.62v.5c-.52.03-1.32.14-1.32.8V23h4v-2.64c0-.66-.82-.8-1.37-.87V19h4.71v.5c-.53.03-1.34.12-1.34.8v6.37c0 .68.81.8 1.34.84V28ZM40.56 28h-3.57c-.28-.32-.5-.76-.77-1.1a3.64 3.64 0 0 1-2.64 1.1 2.8 2.8 0 0 1-1.86-.6c-.48-.42-.72-.94-.72-1.6 0-.32.04-.6.13-.83.09-.24.23-.47.42-.7.19-.23.42-.43.7-.6.27-.19.58-.36.92-.51a5.96 5.96 0 0 1-.76-1.17 2.44 2.44 0 0 1-.22-1c0-.57.25-1.05.73-1.42a2.75 2.75 0 0 1 1.74-.57c.63 0 1.14.15 1.53.45.4.3.6.69.6 1.18 0 .43-.12.8-.36 1.14a3.7 3.7 0 0 1-1.17.99 55.49 55.49 0 0 0 1.98 2.39c.26-.38.45-.72.57-1.03.13-.32.2-.58.2-.8 0-.12-.1-.21-.28-.28a3.92 3.92 0 0 0-.75-.22v-.45h3.38v.45c-.36.04-.64.08-.81.14a1.3 1.3 0 0 0-.52.34c-.07.07-.16.2-.27.39a139.36 139.36 0 0 0-.68 1.17c-.13.22-.3.46-.49.7.38.44.68.76.92.98.6.52 1.28.72 2.05.77V28Zm-4.7-7.28c0-.35-.09-.63-.26-.83a.82.82 0 0 0-.67-.31.84.84 0 0 0-.63.25.9.9 0 0 0-.25.65c0 .24.08.5.23.8.15.3.38.65.69 1.07a1.94 1.94 0 0 0 .9-1.63Zm.04 5.78-1.18-1.41-1.26-1.54c-.21.2-.37.45-.47.73-.09.28-.14.56-.14.84 0 .54.18.97.52 1.31.34.34.78.5 1.3.5.26 0 .47-.02.65-.08.18-.07.38-.18.58-.35ZM49.92 25l-.18 3h-8.12v-.5c.57-.04 1.38-.06 1.38-.79v-6.35c0-.7-.81-.78-1.38-.87V19h4.84v.5c-.54.05-1.46.08-1.46.8v5.92c0 .58.2 1.09.84 1.17.2.02.46.03.8.03 1.16 0 1.72-.22 2.3-1.23.21-.4.4-.86.53-1.19h.45ZM50 30.5H6v.5h44v-.5Z"/></svg>