<!-- by TradingView --><svg xmlns="http://www.w3.org/2000/svg" width="56" height="56" viewBox="0 0 56 56"><path fill="#F0F3FA" d="M0 0h56v56H0z"/><path d="M32 15.42c.14-.44.65-.62 1.05-.47.43.18.65.65.47 1.05-.18.43-.65.65-1.05.47a.78.78 0 0 1-.47-1.05ZM35.52 17.16c.29-.37.8-.4 1.16-.15.36.29.44.8.15 1.16-.3.36-.8.43-1.17.14a.85.85 0 0 1-.14-1.15ZM38.39 19.87c.36-.25.87-.14 1.16.22.3.36.18.87-.22 1.12a.83.83 0 0 1-1.16-.22c-.25-.36-.15-.83.22-1.12ZM40.31 23.31a.8.8 0 0 1 1.02.54c.15.44-.1.9-.54 1.02a.8.8 0 0 1-1.02-.55c-.11-.4.1-.86.54-1ZM41.15 27.19c.47 0 .83.36.83.83s-.36.83-.8.83a.82.82 0 0 1-.83-.83c0-.47.36-.83.8-.83ZM40.82 31.1c.44.14.7.58.55 1.01-.15.43-.58.69-1.02.54-.44-.14-.7-.58-.55-1.01a.8.8 0 0 1 1.02-.54ZM39.33 34.75c.4.26.47.76.22 1.16a.82.82 0 0 1-1.13.22c-.4-.25-.47-.76-.21-1.16.21-.36.72-.47 1.12-.22ZM36.83 37.8c.29.36.21.86-.15 1.15a.85.85 0 0 1-1.16-.1.81.81 0 0 1 .14-1.16.82.82 0 0 1 1.17.1ZM33.52 39.97c.18.43-.04.9-.47 1.05a.78.78 0 0 1-1.05-.47.78.78 0 0 1 .47-1.05c.4-.15.87.03 1.05.47ZM29.7 41.09a.8.8 0 0 1-.76.87.8.8 0 0 1-.87-.76.8.8 0 0 1 .77-.87c.43-.04.83.29.87.76ZM25.75 41.02a.82.82 0 0 1-.98.61.82.82 0 0 1-.62-.97c.1-.44.54-.73.98-.62.47.1.73.54.62.98ZM22 39.82a.8.8 0 0 1-1.12.3c-.4-.26-.54-.73-.29-1.13a.8.8 0 0 1 1.13-.29c.36.22.5.72.29 1.12ZM18.77 37.54a.81.81 0 0 1-1.16-.03.84.84 0 0 1 .04-1.16c.33-.33.83-.3 1.16.03.33.33.3.84-.04 1.16ZM16.34 34.43c-.4.21-.9.03-1.09-.4-.18-.4-.04-.9.36-1.09.4-.21.91-.03 1.1.4.21.4.07.87-.37 1.09ZM14.96 30.73a.83.83 0 0 1-.94-.68.84.84 0 0 1 .69-.95c.47-.07.87.26.94.7a.8.8 0 0 1-.69.93ZM14.74 26.79a.83.83 0 1 1 .25-1.63.8.8 0 0 1 .7.94.82.82 0 0 1-.95.69ZM15.69 22.95c-.44-.18-.58-.69-.4-1.09.18-.4.69-.58 1.09-.4.4.22.58.7.4 1.09-.22.43-.7.62-1.1.4ZM17.72 19.58c-.33-.32-.36-.83-.04-1.16.33-.32.84-.36 1.17-.03.32.32.36.83.03 1.15-.32.33-.83.37-1.16.04ZM20.66 16.94c-.25-.4-.07-.9.3-1.12.4-.22.9-.11 1.12.28.22.4.1.91-.3 1.13-.39.25-.9.14-1.12-.3ZM24.26 15.3a.82.82 0 0 1 .62-.97c.43-.1.87.18.98.62.1.43-.18.87-.62.97-.47.11-.9-.18-.98-.61ZM28.15 14.77c.03-.48.43-.8.87-.77.43.04.8.44.76.87a.81.81 0 0 1-.87.76c-.44 0-.8-.4-.76-.86Z" fill="#FF6B00"/><path d="M27.27 10.94c0-.54.44-.94.98-.94.55 0 .95.43.95.98 0 .54-.44.94-.98.94a.95.95 0 0 1-.95-.98ZM34.86 12.01a.94.94 0 0 1 1.31-.43c.47.25.7.8.44 1.3a.97.97 0 0 1-1.31.44 1 1 0 0 1-.44-1.3ZM41.15 16.58a.94.94 0 0 1 1.34.18.96.96 0 0 1-.14 1.34.94.94 0 0 1-1.35-.18c-.32-.44-.29-1.02.15-1.34ZM44.78 24.02a1 1 0 0 1 1.2.75c.11.53-.23 1.1-.75 1.2a1 1 0 0 1-1.2-.74c-.12-.57.18-1.1.75-1.2ZM45.23 31.72c.56.11.86.67.75 1.2-.12.52-.68.86-1.2.74a.99.99 0 0 1-.76-1.2.95.95 0 0 1 1.2-.74ZM42.58 38.05c.44.32.48.94.15 1.34a.97.97 0 0 1-1.35.14.93.93 0 0 1-.14-1.34c.33-.4.9-.47 1.34-.14ZM36.32 43.3c.25.47.03 1.05-.47 1.3-.48.22-1.06.04-1.28-.43-.21-.5-.03-1.05.48-1.27.47-.29 1.01-.1 1.27.4ZM29 45a1 1 0 0 1-1 1 1 1 0 0 1-1-1 1 1 0 0 1 1-1c.6.04 1.03.44 1 1ZM21.2 44.02c-.21.51-.8.7-1.3.44a.92.92 0 0 1-.44-1.27.97.97 0 0 1 1.31-.43c.47.21.7.8.44 1.26ZM14.92 39.53a.94.94 0 0 1-1.34-.14.96.96 0 0 1 .15-1.34.97.97 0 0 1 1.34.14c.33.4.29 1.02-.15 1.34ZM11.22 31.97a.97.97 0 0 1-1.2-.75c-.11-.53.23-1.09.75-1.2a1 1 0 0 1 1.2.75c.14.52-.2 1.05-.75 1.2ZM10.78 25.74a.96.96 0 0 1-.72-1.16c.1-.5.61-.83 1.16-.73.54.11.84.62.73 1.16-.11.51-.62.84-1.17.73ZM13.76 17.92c-.4-.37-.47-.95-.14-1.38.32-.4.94-.5 1.34-.15.44.33.5.95.15 1.34-.33.44-.91.51-1.35.19ZM19.54 12.77c-.26-.47-.04-1.05.43-1.3.48-.22 1.06-.04 1.27.43.26.48.04 1.05-.43 1.3a.98.98 0 0 1-1.27-.43Z" fill="#FF9E18"/><path d="M28 39a11 11 0 1 0 0-22 11 11 0 0 0 0 22Z" fill="#285C8E"/><path d="M28 33a5 5 0 1 0 0-10 5 5 0 0 0 0 10Z" fill="url(#acbbzztru)"/><defs><linearGradient id="acbbzztru" x1="28" y1="32.98" x2="28" y2="23" gradientUnits="userSpaceOnUse"><stop offset="0" stop-color="#FCF17E"/><stop offset="1" stop-color="#FAAE1B"/></linearGradient></defs></svg>