<!-- by TradingView --><svg width="56" height="56" viewBox="0 0 56 56" xmlns="http://www.w3.org/2000/svg"><path fill="#F0F3FA" d="M0 0h56v56H0z"/><path fill-rule="evenodd" d="M28.29 12.98c-1.1 2.14-3.64 7-5.02 9.25-1.72 2.83-2.56 5.13-2.56 8.19 0 3.06 3.06 7.3 7.58 7.3s8.84-2.94 8.84-7.3c0-3.49-1.94-6.91-2.9-8.19-1.74-2.47-5.36-7.78-5.94-9.25Zm2.84 7.17c.84 1.83 2.58 5.94 2.84 7.7a6.32 6.32 0 0 1-1.23 4.83c-.33.42-.35 1.02 0 1.4.33.35.87.41 1.2.08a6.32 6.32 0 0 0 1.87-4.44c0-3.28-3.64-8.4-4.68-9.57Z" fill="#6BA1D6"/><path d="M36.1 33.89c-1.56 2.38-4.64 3.83-7.81 3.83-4.52 0-7.58-4.24-7.58-7.3 0-2.03.37-3.73 1.12-5.47-.39 1.65-.77 4.13-.36 5.89a7.64 7.64 0 0 0 7.77 5.97c2.77 0 5.26-1.53 6.85-2.92Z" fill="#37659E"/><path d="M20.4 21.78c.46-1.06 5.44-8.32 7.57-11.78-1.33 2.56-8.52 13.81-8.52 19.47 0 3 2.12 9.28 9.05 9.28 5.54 0 8.27-4.6 8.94-6.89-1.17 5.96-4.95 8.56-9.79 8.56-4.84 0-10-3.31-10-8.56s2.2-8.76 2.76-10.08Z"/><path d="M34.6 40.35c0 .69-2.95 1.25-6.6 1.25-3.65 0-6.6-.56-6.6-1.25 0-.12.09-.24.26-.35-1.28.23-2.06.53-2.06.86 0 .72 3.76 1.3 8.4 1.3 4.64 0 8.4-.58 8.4-1.3 0-.33-.78-.63-2.06-.86.17.11.26.23.26.35Zm5.97.56c0 1.18-5.63 2.14-12.57 2.14s-12.57-.96-12.57-2.14c0-.2.17-.4.49-.59-2.44.4-3.92.9-3.92 1.46C12 43 19.16 44 28 44s16-1 16-2.22c0-.56-1.48-1.07-3.92-1.46.32.19.5.39.5.6Z" fill="#D3E5F6"/></svg>