<!-- by TradingView --><svg width="56" height="56" viewBox="0 0 56 56" xmlns="http://www.w3.org/2000/svg"><path fill="#F0F3FA" d="M0 0h56v56H0z"/><path d="M13 32h2v4.52c0 .2.12.38.3.45.2.07.4.02.54-.12l.74-.79.54.68a.49.49 0 0 0 .76 0l.54-.68.74.79c.14.14.35.19.53.12.19-.07.31-.25.31-.45V32h7v4.52c0 .2.12.38.3.45.2.07.4.02.54-.12l.74-.79.54.68a.49.49 0 0 0 .76 0l.54-.68.74.79c.14.14.35.19.53.12.19-.07.31-.25.31-.45V32h2.06c.52 0 .94.42.94.94V43H13V32Zm18.03 0h-3.06v3.32l.29-.31a.49.49 0 0 1 .73.03l.51.63.5-.63a.49.49 0 0 1 .74-.03l.3.3V32Zm-15.06 3.32V32h3.06v3.32l-.29-.31a.49.49 0 0 0-.73.03l-.51.63-.5-.63a.49.49 0 0 0-.74-.03l-.3.3ZM21 21v3.52c0 .2.12.38.3.45.2.07.4.02.54-.12l.74-.79.54.68a.49.49 0 0 0 .76 0l.54-.68.74.79c.14.14.35.19.53.12.19-.07.31-.25.31-.45V21h2.4c.33 0 .6.27.6.6V31H18v-9.4c0-.33.27-.6.6-.6H21Zm.97 0v2.32l.29-.31a.49.49 0 0 1 .73.03l.51.63.5-.63a.49.49 0 0 1 .74-.03l.3.3V21h-3.07ZM40.43 23.4l3.08.66c.29.06.49.32.49.6v4.51c0 .3-.2.54-.49.6l-3.08.68v-7.06ZM25.25 15.56l.66-3.07a.62.62 0 0 1 .61-.49h4.5c.3 0 .55.2.6.49l.68 3.07h-7.05ZM34.7 16.11l2.62-1.74a.62.62 0 0 1 .78.07l3.23 3.13c.2.2.25.53.1.77l-1.67 2.68-5.06-4.91ZM20.3 14.27l2.62 1.75L18.8 20h-1.53l-1.09-1.75a.62.62 0 0 1 .1-.77l3.23-3.14c.21-.2.53-.23.78-.07ZM36 38.71v-2.38l3.6-3.5 1.67 2.68c.15.25.11.57-.1.77l-3.23 3.14c-.2.2-.53.23-.77.07L36 38.7Z" fill="#A28D3C"/><path d="M36 37.44a12.85 12.85 0 0 0-7.34-23.43c-4.58 0-8.6 2.4-10.88 5.99h5.55l.05-.04A.47.47 0 0 1 24 20h4.5c.82 0 1.5.66 1.5 1.49V31h3.97c1.12 0 2.03.9 2.03 2.02v4.42ZM30.31 18.1a9.11 9.11 0 0 1 1.08.23.47.47 0 0 1-.25.9 8.22 8.22 0 0 0-.96-.2.47.47 0 0 1 .13-.93Zm2.07 1.05c.11-.23.4-.33.62-.21.33.16.65.35.96.55a.47.47 0 0 1-.52.77 8 8 0 0 0-.85-.49.47.47 0 0 1-.21-.62Zm-3.3-.7a.47.47 0 0 1-.45.5 8 8 0 0 0-.98.1.47.47 0 1 1-.16-.92c.36-.06.73-.1 1.1-.12.26-.01.47.19.48.44Zm-2.65.4c.09.24-.03.51-.27.6-.31.12-.61.25-.9.4a.47.47 0 0 1-.44-.82c.33-.17.66-.32 1-.45.25-.1.52.03.6.27Zm8.21 1.73a.47.47 0 0 1 .66 0c.26.25.5.52.74.8a.47.47 0 1 1-.73.59c-.2-.26-.43-.5-.66-.73a.47.47 0 0 1 0-.66Zm1.71 2.06a.47.47 0 0 1 .63.2c.17.32.32.65.45 1a.47.47 0 0 1-.87.33 8.1 8.1 0 0 0-.4-.9.47.47 0 0 1 .2-.63Zm1 2.48c.25-.04.49.13.53.38.06.36.1.73.12 1.1a.47.47 0 0 1-.93.04 8 8 0 0 0-.1-.98.47.47 0 0 1 .38-.54Zm.17 2.67c.25.04.43.28.4.53a9.11 9.11 0 0 1-.24 1.08.47.47 0 1 1-.9-.25 8.2 8.2 0 0 0 .2-.96.47.47 0 0 1 .54-.4Zm-.66 2.6c.23.11.33.4.21.62-.16.33-.35.65-.55.96a.47.47 0 0 1-.77-.52c.17-.27.34-.55.49-.85.11-.23.39-.33.62-.21ZM32.99 27A3.04 3.04 0 0 1 30 30v-1a2 2 0 0 0 0-4v-1c1.66.04 3 1.37 3 3Z" fill="#A28D3C"/></svg>