<!-- by TradingView --><svg width="56" height="56" viewBox="0 0 56 56" xmlns="http://www.w3.org/2000/svg"><path fill="#F0F3FA" d="M0 0h56v56H0z"/><path d="M16 23h1.19l1.75 4.35H19L20.78 23H22v6h-1v-4.12L19.32 29h-.7L17 24.87V29h-1v-6ZM23 29v-6h4v1h-3v1.54h2.54v.91H24V28h3v1h-4ZM29 29v-6h2.07c1.23 0 1.93.84 1.93 1.99S32.3 27 31.05 27h-1.33v-1h1.2c.73 0 1.08-.38 1.08-1.01 0-.64-.35-.99-1.08-.99H30v5h-1ZM34 29v-6h1v5h2.46v1H34ZM39.38 29h-1.15l1.88-6h1.2l1.9 6h-1.12l-1.38-4.54L39.38 29Zm-.12-2h2.83v1h-2.83v-1ZM43.33 24v-1h4.28v1H46v5h-1v-5h-1.67ZM48 29v-6h4v1h-3v1.54h2.58v.91H49V28h3v1h-4ZM13.1 35h-.7l1.28-3.95h.8L15.76 35h-.7l-.97-3.15h-.02L13.1 35Zm.02-1.58h1.91V34h-1.9v-.58ZM19.02 32.37h-.66a.93.93 0 0 0-.1-.31.77.77 0 0 0-.45-.37.94.94 0 0 0-.31-.06c-.2 0-.38.06-.53.16-.15.1-.27.26-.35.47-.1.2-.13.45-.13.74 0 .3.04.55.13.75.08.2.2.36.35.46.15.1.33.16.52.16.11 0 .21-.02.3-.05a.81.81 0 0 0 .46-.36.88.88 0 0 0 .1-.3h.67a1.61 1.61 0 0 1-.48.95 1.45 1.45 0 0 1-1.05.39 1.56 1.56 0 0 1-1.45-.93c-.14-.3-.21-.65-.21-1.07 0-.42.07-.78.21-1.08.15-.3.35-.52.6-.68a1.69 1.69 0 0 1 1.41-.15 1.41 1.41 0 0 1 .8.7c.08.17.14.36.17.58ZM20.82 33.64h.6l.34.49.26.32.6.85h-.64l-.4-.58-.18-.27-.58-.81ZM22.7 33c0 .42-.07.78-.21 1.08a1.55 1.55 0 0 1-1.44.92 1.56 1.56 0 0 1-1.46-.93c-.14-.3-.21-.65-.21-1.07 0-.42.07-.78.21-1.08a1.56 1.56 0 0 1 1.45-.92 1.55 1.55 0 0 1 1.45.92c.14.3.21.66.21 1.08Zm-.65 0c0-.3-.05-.54-.13-.75-.09-.2-.2-.36-.36-.46a.89.89 0 0 0-.52-.16c-.2 0-.37.06-.52.16-.15.1-.27.26-.36.46-.08.2-.12.45-.12.75s.04.54.12.75c.09.2.2.35.36.46.15.1.32.16.52.16a.9.9 0 0 0 .52-.16c.15-.1.27-.26.36-.46.08-.2.13-.46.13-.75ZM25.34 31H26v2.6c0 .27-.06.52-.19.73-.12.21-.29.38-.5.5-.23.12-.49.17-.78.17-.3 0-.61-.05-.83-.17-.22-.12-.4-.29-.52-.5a1.45 1.45 0 0 1-.18-.73V31h.66v2.54c0 .16.03.3.1.43.06.13.16.23.28.3a1.07 1.07 0 0 0 .92 0 .73.73 0 0 0 .28-.3c.07-.13.1-.27.1-.43V31ZM27.34 31v4h-.66v-4h.66ZM29.87 32.12a.53.53 0 0 0-.21-.38.76.76 0 0 0-.48-.14.85.85 0 0 0-.35.06c-.1.05-.17.1-.22.18a.46.46 0 0 0-.03.48l.14.15.2.1.22.07.34.1c.14.03.27.07.4.13s.24.13.34.22a.97.97 0 0 1 .33.76c0 .23-.06.43-.16.6-.11.18-.27.31-.48.41-.2.1-.45.14-.74.14-.28 0-.52-.04-.73-.14a1.1 1.1 0 0 1-.48-.4c-.12-.19-.18-.4-.2-.66h.65c.01.13.05.24.12.33.07.1.16.16.27.2.1.05.23.07.37.07.14 0 .27-.02.37-.07.11-.04.2-.1.26-.2a.5.5 0 0 0 .1-.28c0-.1-.04-.19-.1-.25a.6.6 0 0 0-.22-.17 2.1 2.1 0 0 0-.34-.12l-.41-.12c-.3-.08-.53-.2-.7-.37a.9.9 0 0 1-.27-.67c0-.23.06-.43.18-.6.11-.18.27-.31.47-.4.2-.1.43-.15.68-.15.26 0 .49.05.68.14.2.1.35.23.46.4.1.17.16.36.17.58h-.63ZM31.64 31v4H31v-4h.64ZM32 31.64V31h3v.64h-1.19V35h-.65v-3.36H32ZM36 31v4h-.66v-4h.65ZM39.79 33c0 .42-.07.78-.22 1.08a1.55 1.55 0 0 1-1.44.92 1.56 1.56 0 0 1-1.45-.93c-.15-.3-.22-.65-.22-1.07 0-.42.07-.78.22-1.08a1.56 1.56 0 0 1 1.45-.92 1.55 1.55 0 0 1 1.44.92c.15.3.22.66.22 1.08Zm-.66 0c0-.3-.04-.54-.13-.75-.08-.2-.2-.36-.35-.46a.89.89 0 0 0-.52-.16c-.2 0-.37.06-.53.16-.15.1-.26.26-.35.46-.09.2-.13.45-.13.75s.04.54.13.75c.09.2.2.35.35.46.16.1.33.16.53.16a.9.9 0 0 0 .52-.16c.15-.1.27-.26.35-.46.09-.2.13-.46.13-.75ZM43.31 31v4h-.58L41 32.3V35h-.66v-4h.58l1.7 2.7h.04V31h.65ZM4 29v-6h1v2.54h3V23h1v6H8v-2.55H5V29H4ZM4 29.5h48v.5H4zM15.4 23H9.45v3.74l2.96 2.66 2.99-2.66V23Zm-5.55 3.56V23.4H15v3.16l-2.59 2.3-2.56-2.3Zm4.7-2.55H10.3v2.46l2.13 1.72 2.13-1.72V24Zm-3.86 2.27V24.4h3.46v1.87l-1.73 1.4-1.73-1.4Z" fill="#02497C"/></svg>