<!-- by TradingView --><svg width="56" height="56" viewBox="0 0 56 56" xmlns="http://www.w3.org/2000/svg"><path fill="#F0F3FA" d="M0 0h56v56H0z"/><path d="M28 8s13 17.98 13 25.16c0 16.66-26 16.65-26 0C15 25.98 28 8 28 8Z" fill="#01259D"/><path d="M41 33.47C41 40.76 35.18 46 28 46s-13-5.21-13-12.5c0-.56 0-.9.1-1.5h25.8c.03.14.1.44.1 1.47Z" fill="#181B1E"/><path d="m26.84 20.32.16-2.07-1-1s-2.1.94-2.93 2.61c-.83 1.67-1.14 2.41-1.06 3.3.06.54.5.84.99.84v-2.1l3.38-3.65v.69l-2.88 3.3v1.7l1.82-1.87 1.86 1.3-1.68 8.13h6L30 25.46l2.66 2.06 2.84.03-8.66-7.23Z" fill="#FEFEFE"/><path d="M23 27.57V24c.29-.03.24-.12.5-.1v3.7c0-.03-.5-.03-.5-.03Z" fill="#FEFEFE"/><path d="M18 28h2.67v3.99h.66V28H24v9h-2.67v-3.78h-.66V37H18v-9Z" fill="#6A6A6A"/><path d="M18.12 28h2.68v3.75h.4V28H24v9h-2.8v-3.75h-.4V37H18v-9h.12Zm2.44.25h-2.32v8.5h2.32V33h.88v3.75h2.32v-8.5h-2.32V32h-.88v-3.75Z" fill="#FEFEFE"/><path d="M33 37v-9h5v2h-3v2h1.73v1.24H35V35h3v1.97h-5V37Z" fill="#6A6A6A"/><path d="M33 28h5v2h-2.77v1.75h1.56v1.5h-1.56V35H38v2h-5v-9Zm.23.25v8.52h4.54v-1.49H35V33h1.56v-1H35v-2.25h2.77v-1.5h-4.54Z" fill="#FEFEFE"/><path d="M27.2 28h2.52l2.1 8.86h-2.7l-.65-3.93-.57 3.88h-2.73L27.2 28Z" fill="#6A6A6A"/><path d="M29.86 28 32 37h-3.02l-.54-3.16L28 37H25c.68-3.13 1.37-5.87 2.08-9h2.78Zm-.25.3h-2.3l-1.94 8.45h2.42l.65-4.75.8 4.73h2.42L29.6 28.3Z" fill="#FEFEFE"/><path fill="#6A6A6A" d="M20 39h16v1H20zM23 41h10v1H23z"/></svg>