<!-- by TradingView --><svg width="56" height="56" fill="none" xmlns="http://www.w3.org/2000/svg"><path fill="#F0F3FA" d="M0 0h56v56H0z"/><path d="M32 43.85L31 45V27h1v16.85zM36 39.867L35 41V27h1v12.867z" fill="#223369"/><path d="M40 36.786L39 38V27h1v9.786zM44 32.787L43 34v-7h1v5.787zM48 28.824L47 30v-3h1v1.824z" fill="#818282"/><path d="M10.575 24v-1.826H8.433V24H8v-4h.433v1.792h2.142V20H11v4h-.425zM12.567 24v-4H15v.382h-2v1.41h1.755v.382H13v1.444h2V24h-2.433zM18.903 24l-.326-.904h-1.774l-.326.904h-.461l1.495-4h.365l1.49 4h-.463zm-1.204-3.388l-.764 2.113h1.517l-.753-2.113zM20.566 24v-4H21v3.618h2V24h-2.434zM45.566 24v-4H46v3.618h2V24h-2.434zM25.167 20.382V24h-.433v-3.618h-1.176V20h2.784v.382h-1.175zM30 24v-1.826h-1.995V24h-.434v-4h.433v1.792H30V20h.434v4H30zM35.368 24h-.405l-.902-3.202-.9 3.202h-.406l-1.038-4h.462l.793 3.225.896-3.225h.388l.896 3.225.793-3.225h.462l-1.04 4zM37.534 24v-4H40v.382h-2.032v1.41h1.78v.382h-1.78v1.444H40V24h-2.466zM41.576 24v-4H42v3.618h2V24h-2.424z" fill="#102F3F"/></svg>