<!-- by TradingView --><svg xmlns="http://www.w3.org/2000/svg" width="56" height="56" viewBox="0 0 56 56"><path d="M56 0H0v56h56V0Z" fill="#F0F3FA"/><path d="M28 12c3.42 0 6.6 1.17 9.2 3H32.1v2h7.39c.68.75 1.71 2.14 2.24 3H30.5l.04 2.02h12.32c.3.77.62 2.15.8 2.98H30.55v2h13.42a11.65 11.65 0 0 1 0 2H30.54l-.04 2h13.12c-.19.82-.53 2.24-.84 3H30.54l.05 2h11.13c-.51.85-1.56 2.27-2.22 3h-9.37l.41 2h6.74a15.92 15.92 0 0 1-9.8 2.9V12H28Z" fill="#D21146"/><path d="M27.52 12v31.9A15.97 15.97 0 0 1 12 27.94c0-8.65 6.9-15.69 15.52-15.94Z" fill="#005895"/><path d="M26 37h-3v5h11v-6.2h-3.55V19.74H34V14H23v5h3v18Zm-6.04-11-.99-2.71L18 26l-3.2-.01 2.6 2.26-1 3.08 2.58-1.91 2.6 1.9-1-3.07 2.6-2.26h-3.21Z" fill="#F0F3FA"/><path d="M31 20v16h3v6.07l-1.92.75-4.1-.01v-.7l5.02.01V37h-3V19h3v-5.2h-5.15v-.71h4.76l1.39.66V20h-3Z" fill="#D21146"/></svg>