<!-- by TradingView --><svg width="56" height="56" viewBox="0 0 56 56" xmlns="http://www.w3.org/2000/svg"><path fill="#F0F3FA" d="M0 0h56v56H0z"/><path d="M31.19 13.12c0 1.25-1.18 2.23-1.4 2.4-.3.27-.35.67-.4 1.08-.04.22-.04.49-.12.7-.18.5 0 .68.13.86l.13.17c.13.18.17.72.09 1.07h-.35c.08-.44 0-.75-.13-.93-.05-.1-.1-.14-.14-.18-.21-.31-.3-.4-.26-.85 0-.09 0-.13.05-.22.04-.62.13-1.43.52-1.78.48-.4 1-1.16 1-2.1 0-.8-.3-1.25-.7-1.82-.04-.1-.13-.18-.17-.27-.04-.1-.09-.14-.13-.22-.35-.54-.4-.58-.87-.58h-.79c-.48 0-.52.04-.83.53-.04.09-.13.18-.17.27-.05.09-.1.18-.18.22-.4.62-.7 1.07-.7 1.87-.04.94.53 1.7 1 2.1.4.3.49 1.11.53 1.74 0 .08 0 .17.04.26.05.45-.04.54-.26.85-.04.04-.08.13-.17.22-.18.23-.18.63-.13.94h-.4c-.04-.31-.04-.85.1-1.07l.12-.13c.18-.18.35-.36.13-.85-.08-.22-.08-.45-.13-.67-.04-.45-.08-.85-.43-1.07-.22-.18-1.4-1.16-1.4-2.4 0-1.12.17-1.39.52-1.88.22-.27.35-.58.44-.93.04-.27.3-.45.61-.45h3.19c.26 0 .52.18.61.45.09.35.22.66.44.93.43.36.6.63.6 1.74Z" fill="#192940"/><path d="M27.3 19.36c-.04-.22 0-.4.04-.45a.61.61 0 0 1 .14-.17c.26-.36.43-.58.34-1.2 0-.1 0-.19-.04-.28-.09-.66-.17-1.6-.7-2.05-.39-.3-.83-.93-.83-1.69 0-.67.22-.98.61-1.6.05-.1.1-.18.18-.23.09-.09.13-.22.17-.26l.22-.32h1.22c.05.05.14.18.22.36.05.05.09.13.13.22.05.1.14.18.18.27.4.58.61.94.61 1.6 0 .76-.4 1.39-.83 1.7-.57.44-.65 1.42-.74 2.14v.22c-.09.62.09.85.35 1.2.04.05.08.14.13.18.04.05.09.14.04.45H27.3v-.1Z" fill="#925990"/><path d="M20.97 14.59c.79.98.52 2.45.44 2.76-.1.4.13.72.35 1.07.13.23.26.4.34.63.18.49.4.53.66.53.04 0 .13 0 .22.05.22.04.57.44.74.71l-.26.22c-.22-.4-.48-.58-.66-.62-.08 0-.17-.05-.26-.05-.35-.09-.48-.09-.74-.49l-.13-.17c-.35-.5-.83-1.2-.7-1.7.13-.62.04-1.56-.57-2.27-.52-.58-1-.76-1.7-.94-.09-.04-.18-.04-.3-.09-.1-.04-.18-.04-.23-.09-.6-.17-.65-.22-1.04.14l-.61.53c-.35.32-.35.4-.31.94 0 .09.04.22.04.31s.05.18.05.31c.08.76.13 1.25.6 1.87.58.76 1.5.99 2.1.99.48 0 1.1.57 1.49.98.09.04.13.13.17.17.3.32.3.45.35.8v.27c0 .32.26.58.48.8l-.3.27c-.26-.22-.57-.62-.57-.89v-.22c0-.27.04-.5-.44-.76a4.65 4.65 0 0 1-.52-.44c-.3-.32-.61-.58-1-.58-.31 0-1.8 0-2.58-.94-.7-.85-.74-1.2-.79-1.78 0-.36-.08-.67-.26-1.03-.13-.22-.04-.53.18-.75l2.44-2.1a.65.65 0 0 1 .74-.04c.26.22.57.35.92.44.65.22.96.31 1.66 1.16Z" fill="#192940"/><path d="M21.93 21.94c-.18-.17-.26-.3-.26-.35v-.27c0-.45-.05-.71-.48-1.16l-.18-.18c-.48-.49-1.13-1.11-1.83-1.11a2.2 2.2 0 0 1-1.7-.76c-.4-.53-.44-.93-.53-1.65 0-.09 0-.18-.04-.31 0-.13-.05-.22-.05-.36 0-.13-.04-.3-.04-.35 0-.05.13-.1.13-.14l.61-.53.18-.14c.04 0 .22.05.39.14l.26.09c.09.04.22.04.3.09.66.22 1.06.3 1.5.8.47.58.56 1.34.43 1.83-.13.7.4 1.51.79 2.1l.13.17c.35.53.6.62 1.04.71.1 0 .14.05.22.05.05 0 .13.04.3.3l-1.17 1.03Z" fill="#925990"/><path d="M14.07 22.39c1.22.22 1.92 1.56 2.1 1.83.17.35.56.49.96.58.21.09.48.13.65.26.44.27.66.14.83 0a.33.33 0 0 1 .18-.09c.21-.08.74-.04 1.04.1l-.04.35c-.4-.18-.74-.13-.92-.04l-.22.13c-.34.18-.43.22-.87.09-.09 0-.13-.05-.22-.05-.56-.17-1.35-.4-1.61-.84a2.55 2.55 0 0 0-1.88-1.38c-.79-.14-1.27.04-1.92.35l-.26.14c-.1.04-.18.08-.22.08-.57.23-.66.27-.74.8l-.14.76c-.08.45-.04.54.35.9.1.04.13.13.22.22l.22.22c.52.54.92.9 1.66 1.03.92.18 1.75-.23 2.23-.67.39-.36 1.18-.27 1.74-.22h.27c.43.04.52.13.78.4.05.04.09.13.18.17.17.23.56.27.87.27l-.09.4c-.3 0-.83-.13-1-.26a.62.62 0 0 1-.13-.18c-.13-.23-.26-.4-.79-.31-.22.04-.48.04-.7 0-.43 0-.83-.05-1.13.22-.22.18-1.36 1.2-2.58.98-1.1-.18-1.31-.45-1.7-.85a1.88 1.88 0 0 0-.83-.58c-.26-.09-.4-.4-.35-.67l.65-3.12a.66.66 0 0 1 .53-.53c.35 0 .65-.09 1-.27.53-.27.79-.4 1.88-.22Z" fill="#192940"/><path d="M19.4 27.43a.71.71 0 0 1-.44-.14c-.04-.09-.13-.13-.17-.18-.31-.35-.48-.53-1.1-.58h-.26c-.65-.04-1.57-.13-2.14.36-.4.36-1.05.67-1.79.54-.65-.14-.92-.4-1.44-.9-.09-.04-.13-.13-.22-.17a1.16 1.16 0 0 0-.26-.23c-.13-.09-.22-.22-.26-.26 0-.05 0-.18.04-.23l.18-.84c0-.1.04-.23.04-.23.04-.04.22-.09.4-.18l.21-.08.3-.14c.66-.27 1.01-.44 1.62-.35.75.13 1.27.66 1.53 1.11.35.67 1.27.9 1.92 1.11.09 0 .13.05.22.05.61.18.83.09 1.22-.14l.22-.13c.05 0 .13-.04.44.05l-.26 1.56Z" fill="#925990"/><path d="M13.68 32.9c1.04-.62 2.44-.08 2.75.05.35.14.74 0 1.09-.18.22-.09.44-.17.65-.22.53-.09.57-.31.66-.53 0-.05.04-.14.09-.18.08-.22.52-.5.83-.63l.17.32c-.4.13-.65.35-.74.58-.04.08-.09.17-.09.22-.13.35-.17.44-.61.67-.04.04-.13.04-.22.09-.57.26-1.3.62-1.79.4a2.7 2.7 0 0 0-2.31.18c-.66.4-.92.89-1.23 1.51l-.13.27a.98.98 0 0 1-.13.22c-.3.58-.3.62-.04 1.07l.4.71c.21.4.3.45.87.45h.65c.74.04 1.22.09 1.92-.31a2.63 2.63 0 0 0 1.31-1.96c.09-.5.74-.98 1.18-1.34.09-.05.13-.09.22-.18.35-.27.48-.27.83-.18.09 0 .17 0 .26.05.3.04.61-.18.83-.36l.18.36c-.27.22-.7.44-.97.44-.08 0-.13-.04-.21-.04-.22-.05-.48-.14-.79.27-.13.17-.35.3-.52.44-.35.27-.66.5-.7.9-.05.3-.3 1.82-1.36 2.44-.96.58-1.26.54-1.87.45-.35-.04-.66 0-1 .09-.14.18-.4.04-.58-.18l-1.61-2.85c-.13-.27-.09-.58.09-.76.26-.22.43-.53.56-.85.3-.53.44-.84 1.36-1.42Z" fill="#192940"/><path d="M20.93 33.26a.85.85 0 0 1-.4.18c-.08 0-.17-.04-.26-.04-.44-.1-.7-.1-1.22.27a.95.95 0 0 1-.22.13c-.52.4-1.31.93-1.4 1.65-.09.53-.4 1.2-1.05 1.6-.56.31-.96.27-1.66.23H14.07c-.13 0-.3 0-.35-.05l-.13-.18-.3-.62a.48.48 0 0 1-.1-.22c0-.05.1-.23.18-.4.04-.1.09-.14.13-.23l.13-.27c.3-.62.48-.98 1.05-1.33.66-.4 1.4-.31 1.88-.14.7.27 1.53-.13 2.18-.4.09-.04.13-.04.18-.09.56-.26.7-.49.87-.93.04-.1.04-.14.09-.23 0-.04.09-.13.35-.26l.7 1.33Z" fill="#925990"/><path d="M20.05 41.24c.44-1.2 1.84-1.7 2.1-1.78.4-.13.57-.5.74-.85.09-.22.22-.44.4-.62.34-.4.21-.63.12-.85-.04-.04-.04-.13-.08-.18-.09-.22.08-.75.26-1.02l.35.13c-.22.36-.26.71-.18.9.05.08.05.17.1.22.12.35.17.49-.05.89-.05.04-.05.13-.09.18-.26.53-.61 1.29-1.1 1.47-.6.17-1.35.7-1.65 1.65-.26.75-.13 1.24.04 1.96.05.09.05.17.09.3 0 .1.04.19.04.28.13.62.18.7.62.84l.7.31c.43.18.52.14.95-.22.1-.04.18-.13.27-.18a.96.96 0 0 0 .22-.18c.6-.44 1-.75 1.3-1.51.35-.9.1-1.78-.21-2.36-.27-.45-.05-1.25.08-1.83.05-.09.05-.18.05-.27.13-.44.22-.49.52-.71.05-.04.13-.09.22-.13.26-.14.35-.54.44-.8l.35.13c-.05.3-.27.8-.44.93a.33.33 0 0 1-.18.1c-.21.13-.43.22-.43.75 0 .22-.05.45-.09.71-.09.4-.17.8.04 1.16.18.27.92 1.56.48 2.77-.39 1.06-.65 1.24-1.13 1.55-.3.18-.52.4-.74.76-.13.23-.44.31-.7.23l-3.01-1.12a.58.58 0 0 1-.4-.62c.05-.36 0-.67-.09-1.03-.21-.58-.3-.93.1-1.96Z" fill="#192940"/><path d="M25.82 36.74a.84.84 0 0 1-.18.4c-.09.05-.13.09-.22.13-.39.23-.6.4-.74 1.03 0 .09-.04.18-.04.27-.18.67-.4 1.56 0 2.18.26.45.48 1.2.22 1.92-.27.62-.57.84-1.14 1.29-.09.04-.13.13-.22.18-.09.09-.17.13-.26.22l-.3.22c-.05 0-.14-.04-.22-.04l-.83-.36c-.1-.04-.18-.09-.22-.09-.05-.04-.05-.22-.09-.4 0-.09-.04-.18-.04-.26-.05-.1-.05-.23-.09-.32-.18-.71-.26-1.07-.04-1.69.26-.71.83-1.16 1.35-1.34.7-.22 1.1-1.11 1.4-1.74.04-.08.04-.13.08-.17.27-.58.22-.85.1-1.25-.05-.1-.05-.14-.1-.22 0-.05-.04-.18.1-.45l1.48.49Z" fill="#925990"/><path d="M30.14 43.43c-.44-1.2.35-2.5.48-2.77.22-.35.13-.71.04-1.16a3.98 3.98 0 0 1-.08-.71c0-.53-.22-.62-.44-.76-.04-.04-.13-.04-.18-.09-.21-.13-.39-.62-.43-.93l.35-.14c.04.45.26.72.43.85l.22.13c.3.23.44.27.53.72 0 .09.04.13.04.22.13.58.35 1.43.09 1.87a2.6 2.6 0 0 0-.22 2.32c.3.76.7 1.07 1.27 1.47.08.05.17.13.26.18.09.04.13.09.22.18.48.4.56.4 1.04.26l.75-.26c.43-.18.48-.23.6-.76 0-.09.05-.18.1-.31.04-.1.04-.18.08-.27.18-.76.3-1.25.05-2a2.76 2.76 0 0 0-1.66-1.65c-.48-.18-.83-.9-1.1-1.43a.98.98 0 0 0-.13-.22c-.17-.4-.17-.54-.04-.9.04-.08.04-.13.09-.26.09-.27-.05-.63-.22-.9l.35-.13c.17.31.3.8.26 1.03 0 .09-.04.13-.09.18-.08.22-.17.44.13.84.14.18.27.4.35.58.18.4.4.76.75.9.26.08 1.7.62 2.1 1.78.39 1.07.3 1.38.12 1.96-.08.3-.13.67-.08 1.02a.58.58 0 0 1-.4.63l-3.1 1.07c-.26.08-.57 0-.7-.23a2.43 2.43 0 0 0-.74-.75c-.48-.32-.74-.5-1.09-1.56Z" fill="#192940"/><path d="M31.71 36.2c.09.23.13.36.09.45-.04.09-.04.18-.09.22-.13.45-.22.72.05 1.25.04.1.08.14.13.22.3.63.7 1.48 1.35 1.7.48.18 1.1.58 1.35 1.34.22.62.13 1.02-.04 1.73 0 .1-.04.18-.09.27-.04.13-.04.22-.08.31-.05.14-.1.31-.1.36a.33.33 0 0 0-.17.09l-.74.27a.73.73 0 0 1-.22.08c-.04 0-.17-.13-.35-.26-.04-.05-.13-.1-.21-.18-.1-.09-.18-.13-.27-.18-.56-.44-.87-.67-1.09-1.3a2.24 2.24 0 0 1 .18-1.86c.39-.63.13-1.56-.05-2.23 0-.1-.04-.14-.04-.22-.13-.63-.35-.76-.74-1.03-.05-.04-.13-.09-.22-.13-.05 0-.13-.1-.22-.4l1.57-.5Z" fill="#925990"/><path d="M39.22 38.52c-1.04-.62-1.3-2.14-1.35-2.4-.04-.4-.35-.63-.7-.9-.17-.13-.4-.3-.52-.49-.35-.4-.57-.35-.79-.26-.04 0-.13.04-.22.04-.22.05-.7-.22-.96-.44l.18-.32c.3.32.65.4.83.36.08 0 .17-.04.26-.04.4-.05.48-.1.83.22l.17.13c.48.36 1.18.85 1.23 1.38.08.63.48 1.48 1.3 1.97.7.4 1.18.35 1.93.3h.56c.62-.04.7-.04.97-.48l.39-.72c.22-.4.22-.49-.05-.98l-.13-.3-.13-.28c-.35-.66-.57-1.11-1.22-1.56a2.7 2.7 0 0 0-2.31-.17c-.49.17-1.18-.14-1.75-.4-.09-.05-.18-.1-.22-.1-.4-.17-.44-.3-.61-.66-.04-.1-.04-.14-.09-.23-.09-.26-.44-.44-.74-.57l.17-.36c.3.13.75.4.83.62.05.05.05.14.1.18.08.22.12.45.65.54.21.04.43.13.65.22.4.18.74.31 1.14.18.26-.14 1.7-.67 2.75-.05.96.58 1.09.85 1.3 1.43.14.31.31.58.58.85.17.17.21.49.08.75l-1.61 2.86c-.13.26-.44.35-.7.3a2.57 2.57 0 0 0-1-.08c-.49 0-.84 0-1.8-.54Z" fill="#192940"/><path d="M35.9 31.93c.22.09.35.18.35.26.05.1.1.18.1.23.17.44.25.67.82.93l.22.1c.61.26 1.44.66 2.1.4a2.04 2.04 0 0 1 1.87.13c.57.35.75.71 1.05 1.33l.13.27.13.31c.1.14.13.27.13.32 0 .04-.08.13-.08.17l-.4.72c-.04.04-.08.18-.13.18-.04 0-.22.04-.43.04H41.19c-.7.04-1.1.04-1.66-.27a2.25 2.25 0 0 1-1.05-1.56c-.09-.76-.87-1.29-1.44-1.7l-.17-.12c-.49-.4-.75-.36-1.23-.32.09.14 0 .14-.08.14-.05 0-.18 0-.4-.18l.74-1.38Z" fill="#925990"/><path d="M43.11 28.76c-1.22.23-2.36-.75-2.58-.98-.3-.27-.7-.27-1.09-.22-.22 0-.48.04-.7 0-.52-.09-.65.09-.78.31-.05.05-.1.09-.13.18-.18.18-.66.27-1 .31l-.05-.35c.43 0 .74-.14.87-.27l.18-.18c.26-.27.3-.36.78-.4h.22c.61-.05 1.4-.14 1.8.22.47.45 1.3.85 2.22.63.78-.18 1.13-.54 1.66-1.03l.22-.22c.08-.05.13-.14.17-.18.48-.45.52-.5.44-.98l-.18-.9c-.09-.44-.13-.48-.65-.7a2.1 2.1 0 0 0-.3-.14l-.27-.13c-.7-.32-1.14-.5-1.92-.4-.92.13-1.57.8-1.88 1.38-.22.44-1 .67-1.57.84-.09.05-.18.05-.26.1-.44.13-.53.08-.88-.14-.08-.05-.13-.09-.22-.13-.26-.14-.6-.05-.91.04l-.09-.4c.3-.09.83-.18 1.05-.09.04.04.13.09.17.09.22.13.4.27.83 0 .18-.13.44-.18.66-.27.39-.13.78-.27.96-.62.13-.27.87-1.6 2.1-1.83 1.09-.18 1.35-.04 1.92.22.3.18.6.27 1 .27.26 0 .48.22.52.54l.57 3.2c.05.27-.09.58-.35.67-.3.14-.6.36-.83.58-.39.54-.6.76-1.7.98Z" fill="#192940"/><path d="M36.43 25.91c.22-.04.4-.09.43-.04.1.04.18.09.22.13.4.22.61.31 1.23.13.08-.04.17-.04.26-.09.65-.17 1.53-.44 1.88-1.07.26-.49.78-1.02 1.52-1.11.66-.09 1 .05 1.66.36l.27.13.3.13c.13.05.26.14.3.14 0 .04.05.13.05.22l.13.8c0 .1.04.23.04.23 0 .04-.17.17-.3.3-.04.05-.13.1-.18.19-.08.09-.17.13-.21.22-.53.49-.79.76-1.44.89-.75.13-1.4-.18-1.8-.53-.52-.5-1.48-.4-2.18-.36h-.22c-.6.04-.83.22-1.09.58-.04.04-.09.13-.17.18-.05.04-.13.09-.44.13l-.26-1.56Z" fill="#925990"/><path d="M39.96 18.74c-.78.98-2.27.93-2.57.93-.4 0-.7.27-1 .54-.18.17-.36.3-.57.44-.44.27-.44.5-.4.76v.22c0 .22-.35.67-.56.9l-.27-.23c.35-.27.48-.58.48-.8v-.27c0-.4 0-.49.35-.8.05-.05.1-.09.18-.13.43-.45 1-1.03 1.53-1.03.6.04 1.52-.22 2.1-.98a3 3 0 0 0 .6-1.87c0-.1.05-.23.05-.31 0-.1.04-.18.04-.27.09-.63.09-.71-.3-1.03l-.62-.53c-.35-.31-.43-.31-.96-.14-.08.05-.17.05-.3.1-.09.04-.18.04-.26.08-.7.23-1.18.36-1.7.98-.62.72-.7 1.65-.58 2.28.1.49-.34 1.16-.7 1.69l-.12.22c-.27.36-.35.4-.75.5-.08 0-.17.04-.26.04-.26.04-.52.35-.65.62l-.31-.27c.17-.26.52-.66.74-.75.09 0 .13-.05.22-.05.26-.04.48-.04.66-.53.08-.23.21-.4.35-.63.21-.35.43-.71.34-1.11-.04-.31-.34-1.78.44-2.76.7-.85 1-.94 1.57-1.07.35-.1.61-.23.92-.45.22-.18.52-.13.74.04l2.45 2.1c.22.18.3.49.17.76-.17.3-.26.62-.26 1.02-.09.58-.09.94-.79 1.79Z" fill="#192940"/><path d="M33.02 20.92c.13-.18.26-.31.3-.31.1 0 .18-.05.23-.05.43-.09.7-.18 1.04-.67.05-.09.1-.13.14-.22.39-.58.87-1.34.74-2.05a2.2 2.2 0 0 1 .43-1.87c.44-.5.83-.62 1.49-.8.09-.05.17-.05.26-.1.13-.04.22-.08.3-.08.14-.05.31-.09.36-.09.04 0 .13.09.17.13l.61.54c.05.04.18.13.18.18 0 .04 0 .22-.05.44 0 .1 0 .18-.04.27 0 .09-.04.22-.04.31-.1.71-.14 1.12-.53 1.6-.48.63-1.18.8-1.7.76-.74 0-1.4.67-1.88 1.16l-.13.14c-.44.44-.48.7-.48 1.15v.23c0 .04-.04.18-.26.35l-1.14-1.02Z" fill="#925990"/><path d="m28.83 26.36.92 2.14L28 30.06l-1.97-1.2.53-2.28 2.27-.22Z" fill="#192940"/><path d="m27.82 30.68.22 2.45-1.79.62-2.22-1.38-.35-2.18 1.92-.85 2.22 1.34ZM25.9 26.09l-.56 2.63-1.88.84-1.18-1.51.65-2.8 1.58-.94 1.4 1.78ZM32.59 29.56l.17 2.05-1.97 1.83-2.1-.35-.21-2.46 1.97-1.73 2.14.66ZM30.14 23.68l-1.1 1.74-2.61.22-1.44-1.78 1.09-1.47 2.75-.27 1.31 1.56ZM32.67 24.57l1.05 2.63-.96 1.7-2.14-.67-1-2.45 1.09-1.74 1.96.53Z" fill="#F1816B"/></svg>