<!-- by TradingView --><svg width="56" height="56" viewBox="0 0 56 56" xmlns="http://www.w3.org/2000/svg"><path fill="#F0F3FA" d="M0 0h56v56H0z"/><path d="m40.82 16.6-9.64-5.73a6.25 6.25 0 0 0-5.26-.5c3.14-.95 4.64 2.37 3.86 5.4-.56 2.15-2.74 8.76-2.74 8.76-.17.36.25 1.55.72 1.47h7.15c1.59 0 2.43 1.81 1.51 3.13l.82-.22c1.15-1.49 3.6-4.66 3.76-4.91 1.25-1.9 2.3-5.34-.18-7.4Z" fill="url(#a4jbe45gu)"/><path d="M28.83 14.57c.33-.4.7-.76 1.12-1.07-.25-2.15-1.67-3.83-4.03-3.14-.38.13-.75.3-1.1.51l-9.64 5.73a6.47 6.47 0 0 0-2.33 2.4 6.7 6.7 0 0 0-.85 3.27v11.46a6.7 6.7 0 0 0 2.71 5.36c-2.71-2.18-1.18-4.96.92-7.61 1.14-1.44 10.94-14.17 13.2-16.9Z" fill="url(#b4jbe45gu)"/><path d="M41 16.77a3.63 3.63 0 0 0-.26-.16l.25.22c2.14 2.04.99 4.81-.22 6.66-.56.86-12.3 15.89-12.57 16.27-1.05 1.44-1.96 2.07-2.69 2.2-.4 1.98.07 3.45 1.73 4a6.23 6.23 0 0 0 3.94-.83l9.64-5.73a6.48 6.48 0 0 0 2.33-2.4c.55-1 .85-2.12.85-3.27V22.27c0-1.1-.27-2.2-.8-3.16a6.3 6.3 0 0 0-2.2-2.34Z" fill="url(#c4jbe45gu)"/><path d="M28.72 31c.21-1.05-.34-1.02-.94-1.02h-6.72c-1.73-.07-2.37-2.07-1.56-3.48l-2.11 2.57a367.5 367.5 0 0 0-1.9 2.43c-2.1 2.62-3.5 5.4-.78 7.59l7.41 4.43 2.7 1.6c.78.47 1.64.75 2.53.85a2.45 2.45 0 0 1-1.39-.87c-.35-.44-.55-1-.56-1.57-.03-.9.09-1.8.36-2.66.47-1.67 2.42-7.21 2.96-9.87Z" fill="url(#d4jbe45gu)"/><defs><linearGradient id="a4jbe45gu" x1="23.06" y1="19.58" x2="39.38" y2="19.58" gradientUnits="userSpaceOnUse"><stop offset=".35" stop-color="#EE2E24"/><stop offset=".48" stop-color="#E72C24"/><stop offset=".67" stop-color="#D52823"/><stop offset=".89" stop-color="#B62122"/><stop offset="1" stop-color="#A41D21"/></linearGradient><linearGradient id="b4jbe45gu" x1="29.79" y1="10.64" x2="17.44" y2="23.97" gradientUnits="userSpaceOnUse"><stop stop-color="#A41D21"/><stop offset=".6" stop-color="#D42823"/><stop offset=".99" stop-color="#EE2E24"/></linearGradient><linearGradient id="c4jbe45gu" x1="25.38" y1="31.3" x2="44" y2="31.3" gradientUnits="userSpaceOnUse"><stop stop-color="#A41D21"/><stop offset=".45" stop-color="#CC2623"/><stop offset=".84" stop-color="#EB2D24"/><stop offset=".99" stop-color="#EE2E24"/></linearGradient><linearGradient id="d4jbe45gu" x1="13.26" y1="36.38" x2="28.77" y2="36.38" gradientUnits="userSpaceOnUse"><stop stop-color="#A41D21"/><stop offset=".43" stop-color="#D42823"/><stop offset=".71" stop-color="#EE2E24"/></linearGradient></defs></svg>