<!-- by TradingView --><svg width="56" height="56" viewBox="0 0 56 56" xmlns="http://www.w3.org/2000/svg"><path fill="#F0F3FA" d="M0 0h56v56H0z"/><path d="M35.5 25a1.5 1.5 0 1 0 0-3 1.5 1.5 0 0 0 0 3Z" fill="#FF7D32"/><path d="M16 27.68v6.26c0 .04-.04.06-.08.06h-1.37c-.04 0-.05-.02-.05-.06v-6.2c0-.04-.02-.06-.06-.06h-1.13c-.04 0-.06-.02-.06-.06V26.5c0-.04.02-.06.06-.06h1.13c.05 0 .08-.03.07-.09-.06-.82-.07-2.01.42-2.64.65-.8 1.95-.82 2.79-.6.03.01.05.03.05.07l.02 1.13v.05c0 .02-.02.03-.03.04a.1.1 0 0 1-.03.03.1.1 0 0 1-.05 0c-1.64-.16-1.73.1-1.68 1.9 0 .03 0 .05.03.05h1.55c.04 0 .06.02.06.07v1.08c0 .05-.02.08-.07.08h-1.54c-.04 0-.03.02-.03.06ZM27.52 33.12v.82c0 .04-.02.06-.05.06h-2.42c-.02 0-.03 0-.04-.02a.06.06 0 0 1-.01-.03v-10.9c0-.04.01-.05.04-.05h2.93c.04 0 .03.02.03.06v3.34c0 .03.07.06.1.04a4.06 4.06 0 0 1 3.6-.15c1.78.76 2.12 3.3 1.7 5.03-.41 1.73-1.4 2.49-3.06 2.66a3.5 3.5 0 0 1-2.8-.88h-.01v.02Zm1.85-5.2c-1.54-.36-1.4 2.07-1.27 2.94.11.76.38 1.25 1.17 1.22 1.3-.05 1.2-3.16.64-3.84a.95.95 0 0 0-.54-.32ZM52 24v10h-2.93c-.05 0-.07-.02-.07-.07v-.7c0-.04-.04-.06-.07-.04a4.1 4.1 0 0 1-3.93.55c-1.97-.67-2.27-3.12-1.82-4.78.63-2.29 3.78-2.78 5.79-1.85a.02.02 0 0 0 .02 0v-.02l.01-3.04c0-.03.03-.05.07-.05H52Zm-3.57 5.21a1.04 1.04 0 0 0-2.02.03c-.16.71-.17 1.42-.01 2.13a1.04 1.04 0 0 0 2.04.06c.2-.74.2-1.48 0-2.22ZM4 24.56v-.08c.13-.58.46-.85.98-.81.87.06 1.1 1.22.4 1.62-.63.34-1.26-.03-1.38-.73Z" fill="#2F6EDB"/><path d="M19.04 26.3c2.12-.83 4.49.1 5.03 2.45.48 2.12-.24 4.6-2.58 5.13-3.7.84-5.55-2.84-4.21-5.88a3.1 3.1 0 0 1 1.76-1.7Zm3.45 2.3c-.52-1.36-2.1-1.84-3.19-.98-1.63 1.27-1.2 5.41 1.41 5.18 2-.18 2.36-2.7 1.78-4.2ZM40.72 27.08c.91-1.19 2-1.4 3.27-.62.02.02.03.04 0 .06a4.57 4.57 0 0 0-.97 1.82c0 .04-.03.06-.07.06-.38-.02-.88-.09-1.2.16-.73.55-.73 1.56-.75 2.49v2.9c0 .03-.05.05-.08.05h-2.87c-.03 0-.05-.03-.05-.07v-7.87c0-.04.02-.06.05-.06h2.57c.04 0 .05.02.05.06v1.02l.01.01h.04ZM10.52 27.37c-1.42-.53-2.5.76-2.52 2.14v4.43c0 .04-.02.06-.06.06H6.55c-.03 0-.05-.02-.05-.06v-7.89c0-.03.02-.05.05-.05h1.39c.05 0 .06.02.06.07v1.11l.02.01a.04.04 0 0 0 .04-.01c.5-.64.99-1.02 1.72-1.14 1.3-.2 2.67.35 3.08 1.73a7 7 0 0 1 .14 1.7 1598.23 1598.23 0 0 1-.02 4.52l-.03.01H11.6c-.04 0-.06-.03-.06-.06v-4.9c0-.77-.26-1.4-1-1.67ZM5.4 26H4.03c-.02 0-.03.01-.03.03v7.94c0 .02.01.03.03.03H5.4c.01 0 .03-.01.03-.03v-7.94c0-.02-.02-.03-.03-.03ZM36.97 26h-2.94a.03.03 0 0 0-.03.03v7.94c0 .02.01.03.03.03h2.94c.02 0 .03-.01.03-.03v-7.94a.03.03 0 0 0-.03-.03Z" fill="#2F6EDB"/></svg>