<!-- by TradingView --><svg width="56" height="56" viewBox="0 0 56 56" xmlns="http://www.w3.org/2000/svg"><path fill="#F0F3FA" d="M0 0h56v56H0z"/><path fill-rule="evenodd" d="M21.5 22.5a1.5 1.5 0 1 1-3 0 1.5 1.5 0 0 1 3 0ZM19 25v9h2v-9h-2Zm13 10V23h2v12h-2ZM6 25v-2h8v2h-3v9H9v-9H6Zm7 4.48V34h2v-4.02C15 28.6 16.55 27 18 27v-2h-.7c-2.37 0-4.3 2.2-4.3 4.48ZM45 34v-9h1.5v9H45Zm2.5 0v-9h.5v9h-.5ZM31 29.5a4.5 4.5 0 0 1-7 3.74V36h-2v-6.57a4.5 4.5 0 0 1 9 .07Zm-2 0a2.5 2.5 0 1 1-5 0 2.5 2.5 0 0 1 5 0Zm15 0c0 .17 0 .34-.03.5h-6.92a2.5 2.5 0 0 0 4.74.5h2.1a4.5 4.5 0 1 1 .11-1ZM37.5 28a2.5 2.5 0 0 1 4 0h-4Z" fill="#00405A"/><circle cx="46.5" cy="21.5" r="2.5" fill="#FC4513"/></svg>