<!-- by TradingView --><svg width="56" height="56" viewBox="0 0 56 56" xmlns="http://www.w3.org/2000/svg"><path fill="#F0F3FA" d="M0 0h56v56H0z"/><circle cx="33" cy="43" r="2" fill="#223555"/><circle cx="33" cy="38" r="2" fill="#223555"/><circle cx="28" cy="43" r="2" fill="#517A9A"/><circle cx="28" cy="38" r="2" fill="#517A9A"/><circle cx="23" cy="38" r="2" fill="#B1D9DB"/><circle cx="23" cy="28" r="2" fill="#517A9A"/><circle cx="18" cy="38" r="2" fill="#B1D9DB"/><circle cx="33" cy="33" r="2" fill="#223555"/><circle cx="18" cy="33" r="2" fill="#517A9A"/><circle cx="33" cy="28" r="2" fill="#223555"/><circle cx="33" cy="23" r="2" fill="#223555"/><circle cx="38" cy="38" r="2" fill="#A61E22"/><circle cx="28" cy="33" r="2" fill="#517A9A"/><circle cx="38" cy="33" r="2" fill="#A61E22"/><circle cx="28" cy="28" r="2" fill="#517A9A"/><circle cx="28" cy="23" r="2" fill="#517A9A"/><circle cx="18" cy="23" r="2" fill="#517A9A"/><circle cx="38" cy="23" r="2" fill="#A61E22"/><circle cx="38" cy="18" r="2" fill="#A61E22"/><circle cx="33" cy="18" r="2" fill="#223555"/><circle cx="23" cy="18" r="1" fill="#223555"/><circle cx="23" cy="33" r="1" fill="#517A9A"/><circle cx="18" cy="43" r="1" fill="#B1D9DB"/><circle cx="23" cy="43" r="1" fill="#B1D9DB"/><circle cx="38" cy="28" r="1" fill="#A61E22"/><circle cx="18" cy="18" r="1" fill="#223555"/><circle cx="28" cy="18" r="1" fill="#223555"/><circle cx="18" cy="13" r="1" fill="#A61E22"/><circle cx="23" cy="23" r="1" fill="#517A9A"/><circle cx="18" cy="28" r="1" fill="#517A9A"/><circle cx="38" cy="43" r="1" fill="#A61E22"/><circle cx="38" cy="13" r="2" fill="#A61E22"/><circle cx="33" cy="13" r="2" fill="#A61E22"/><circle cx="28" cy="13" r="2" fill="#A61E22"/><circle cx="23" cy="13" r="2" fill="#A61E22"/></svg>