<!-- by TradingView --><svg width="56" height="56" viewBox="0 0 56 56" xmlns="http://www.w3.org/2000/svg"><path fill="#F0F3FA" d="M0 0h56v56H0z"/><path d="M27 43c6.08 0 11-4.25 11-9.5 0-4.8-4.04-9.26-11-9.5-6.07-.21-11 4.25-11 9.5S20.92 43 27 43Z" fill="url(#avrzkl4vd)"/><path d="M27 10s3.94 2.01 4 6c0 3.58-6.95 9.12-8.44 13.34A14.9 14.9 0 0 0 22.5 39c-.54-9.03 2.44-9.83 10.07-19.5C36.85 14.03 34 7 34 7s5.12 4.8 5 10.85c-.06 3.58-1.79 6.8-4 9.5C32.44 30.52 27 33.49 27 38c0 3.54 2.89 3.55 4.02 3.55 1.74 0 5.98-3.27 5.98-7.55 0-4.28-1-6.1-1-6.1 1.8 1.8 3 4.94 3 7.1 0 8.14-6.59 12-12 12-6.57 0-12-5-12-12 0-4.87 3.51-10.23 7.26-13.34C26.14 18.26 30.28 14.4 27 10Z" fill="url(#bvrzkl4vd)"/><defs><linearGradient id="avrzkl4vd" x1="20.16" y1="24.36" x2="38.61" y2="39.24" gradientUnits="userSpaceOnUse"><stop offset=".47" stop-color="#45381A"/><stop offset=".75" stop-color="#EAC60A"/><stop offset=".94" stop-color="#B9962D"/></linearGradient><linearGradient id="bvrzkl4vd" x1="27" y1="19" x2="20" y2="47" gradientUnits="userSpaceOnUse"><stop stop-color="#BE1522"/><stop offset=".65" stop-color="#E78B0C"/><stop offset="1" stop-color="#FECC00"/></linearGradient></defs></svg>