<!-- by TradingView --><svg width="56" height="56" viewBox="0 0 56 56" xmlns="http://www.w3.org/2000/svg"><path fill="#F0F3FA" d="M0 0h56v56H0z"/><path d="M26.78 30c-2.23 1.02-6.7 3.07-6.78 3.15L24.52 36 31 33.36 26.78 30ZM21 37.84 16.26 35c-1.5.9-2.26 1.82-2.26 2.5 0 .55 2.15 1.9 3.23 2.5L21 37.84ZM21 25.1 16.8 22c-4.4 1.6-4.8 3.1-4.8 3.4 0 .24.27.7.4.9l1.44 1.7L21 25.1Z" fill="#5D9335"/><path d="M14.87 17.15c-1.95 1.03-3.4 5-3.87 6.85 2.45-2.48 3.36-2.38 10.6-5.16 9.57-3.67 10.4-5.66 10.4-6.35 0-.7-1.43-1.49-1.94-1.49-.81 1.89-12.74 4.86-15.19 6.15Z" fill="url(#aitzeyuas)"/><path d="M43 20.52c0-2.41-2.25-4.68-3.2-5.52 1.77 1.2 5.2 5.52 5.2 10.03C45 35.67 23.15 41.5 21.1 43.1c-.57.44-.2.6 0 .9-1.18.1-5.1-1.3-5.1-3.3 0-2.01 7.54-5.02 10.88-6.53C39.22 28.64 43 23.53 43 20.52Z" fill="url(#bitzeyuas)"/><path d="m27.12 42-2.12.9c1.41 1 1.24 1.55 1.15 2.1.8-.55 1.85-1.36 1.85-1.9 0-.45-.59-.92-.88-1.1ZM35.55 39 30 40.98c1.41 1.64.1 2.76 0 3.02 4.88-.61 6.07-2.32 6-3.7-.03-.5-.22-.95-.45-1.3Z" fill="#5D9335"/><path d="M34.51 14.25c0-1.73-2.92-2.89-4.39-3.25 5.76.5 8.88 3.94 8.88 6.2 0 5.41-10.54 10.53-18.34 13.58-6.25 2.44-7.68 4.5-7.61 5.22-.68-1.5-2.05-4.84-2.05-6.1 0-1.58 2.54-3.15 6.05-4.53 14.24-5.31 17.46-8.96 17.46-11.12Z" fill="url(#citzeyuas)"/><defs><linearGradient id="aitzeyuas" x1="32" y1="12.69" x2="11.71" y2="12.69" gradientUnits="userSpaceOnUse"><stop offset=".77" stop-color="#85BE56"/><stop offset="1" stop-color="#33581A"/></linearGradient><linearGradient id="bitzeyuas" x1="45" y1="18.76" x2="16.99" y2="18.76" gradientUnits="userSpaceOnUse"><stop offset=".77" stop-color="#85BE56"/><stop offset="1" stop-color="#33581A"/></linearGradient><linearGradient id="citzeyuas" x1="39" y1="14.24" x2="11.95" y2="14.24" gradientUnits="userSpaceOnUse"><stop offset=".77" stop-color="#85BE56"/><stop offset="1" stop-color="#33581A"/></linearGradient></defs></svg>