<!-- by TradingView --><svg width="56" height="56" viewBox="0 0 56 56" xmlns="http://www.w3.org/2000/svg"><path fill="#F0F3FA" d="M0 0h56v56H0z"/><path d="m22.5 26.5-2.5 3c-2.8 0-3.5 2.33-3.5 3.5-.5-.83-1.6-2.9-2-4.5-.4-1.6.5-3.67 1-4.5 0 1.5 1 2.5 2 2.5.8 0 1.67-.67 2-1l3 1Z" fill="#9BCF25"/><path d="M24.5 20 20 24l3 .5c.4-.4.83-.5 1-.5.5 0 1.5.3 1.5 1.5s-1 1.83-1.5 2l-2 3 3-.5c0-1.2 1-2.17 1.5-2.5l-1-7-1-.5Z" fill="#9BCF25"/><path d="M18.5 22.5a2.4 2.4 0 0 0-2 0c.4-.8 1.83-1.33 2.5-1.5v-.5c.11-1.66 1.5-8 7.5-8 4.8 0 7 4.33 7.5 6.5l2 .5c-.8.4-1 1.17-1 1.5l-2 1.5-1.5-.5-2.5-3c.17-.33.5-1.2.5-2 0-1-.5-3.5-3-3.5S23 16 23 17v1.5l-4.5 4Z" fill="#9BCF25"/><path d="m28.5 27-1-6.5 2.5 3c0 1.5.5 2.5 2 2.5 1.2 0 1.83-1.33 2-2l1.5-1 .5 4.5c-.8.4-1 1.17-1 1.5h-4c-.4-1.2-1.83-1.83-2.5-2ZM26 32.5l-.5-.5-3.5 1c-.4 1.6-1.83 2-2.5 2 .5.17 1.9.5 3.5.5s2.67-.67 3-1v-2Z" fill="#9BCF25"/><path d="M31 31c0 .8-.67 1.33-1 1.5.67.5 2.4 1.5 4 1.5s3.33-.67 4-1c3-2 3.5-3.5 3.5-7 0-2.8-2.33-4.83-3.5-5.5.4 1.2-.17 2.17-.5 2.5l.5 4.5c1.5 0 1.5 1 2 2.5.4 1.2-.83 2.17-1.5 2.5-2 .8-3.5-.67-4-1.5H31Z" fill="#9BCF25"/><path fill-rule="evenodd" d="M28 16.5a1.5 1.5 0 1 1-3 0 1.5 1.5 0 0 1 3 0Zm1 0c0 .9-.48 1.7-1.2 2.14l3.63 4.54a1 1 0 0 1 .33-.15l.24-.24.24.24a1 1 0 0 1 .41.21l2.94-1.68a1 1 0 0 1 .91-1.43 1 1 0 0 1 .17 1.99l.91 5.94a2 2 0 1 1-2.08 2.09H30a2 2 0 0 1-.93 1.54c.07.46.2 1.55.43 3.81.5 5 2.5 6 5 6.5 2 .4 4.5 1.5 5.5 2-2-.33-7.3-1-12.5-1s-9.83.67-11.5 1c.67-.5 2.4-1.6 4-2 1-.25 1.63-.25 2.13-.25s.87 0 1.37-.25c1-.5 2.5-4 3-6 .36-1.44.48-2.99.5-3.77a2 2 0 0 1-.85-.98l-4.7 1.28a2 2 0 1 1-.97-1.27l2.86-4.3a1 1 0 0 1-.4-.8v-.02l-3.96-.88a1.5 1.5 0 1 1-.28-1.15l5.92-5.46A2.5 2.5 0 1 1 29 16.5Zm-2.95 13.97-4.7 1.28a2 2 0 0 0-.62-.83l2.88-4.31a1 1 0 1 0-.62-1.26l-4-.9c0-.2-.05-.4-.13-.58l5.97-5.5c.43.37.98.61 1.6.63L27.76 28a2 2 0 0 0-1.72 2.46Zm5.16-7.09a1 1 0 1 0 1.64.09l2.91-1.66a1 1 0 0 0 .6.32l.92 5.94a2 2 0 0 0-1.77 1.78H30A2 2 0 0 0 28.08 28L26.72 19c.29-.03.56-.1.81-.21l3.68 4.6Zm4.83-2.05.27.27a.5.5 0 0 0 .69-.47.5.5 0 1 0-.96.2Zm.58 8.27a1 1 0 1 0 .42-.42l-.42.42ZM29 30a1 1 0 1 1-2 0 1 1 0 0 1 2 0Zm3.5-6a.5.5 0 1 1-1 0 .5.5 0 0 1 1 0Zm-8.56 2.16a.5.5 0 1 0 0-1 .5.5 0 0 0 0 1ZM18 24.5a.5.5 0 1 1-1 0 .5.5 0 0 1 1 0Zm1.5 9a1 1 0 1 0 0-2 1 1 0 0 0 0 2Z" fill="#373D4B"/><path d="m18 20.09-.06.28-.26.1C16.56 20.89 14 22.98 14 28c0 4.31 3.63 8 8 8 .75 0 1.98.1 2.66-.37l-.01.02.7.7c-.74.75-2.45.65-3.35.65-4.91 0-9-4.14-9-9 0-5.09 2.48-7.6 4.06-8.35C17.96 15.28 21.2 11 26 11c4.35 0 7.71 2.6 9.35 6.54A8.83 8.83 0 0 1 43 26.5c0 5.05-3.86 9.5-9 9.5-2.12 0-3.4-.72-4.19-1.04l.38-.92c.87.35 1.93.96 3.81.96 4.6 0 8-4 8-8.5a7.85 7.85 0 0 0-7.06-8l-.27-.04-.12-.24C32.75 14.62 30.35 12 26 12c-4.39 0-7.3 4.1-8 8.09Z" fill="#373D4B"/></svg>