<!-- by TradingView --><svg width="56" height="56" viewBox="0 0 56 56" xmlns="http://www.w3.org/2000/svg"><path fill="#F0F3FA" d="M0 0h56v56H0z"/><path d="M7.58 19h1.8v.82h-1.8V19Zm-.65.82h-.6v.2h.6v1.8h-.6v.2h.6v1.79h-.6v.2h.6v1.84h-.6v.2h.6v1.8h-.6v.2h.6v1.81h-.6v.2h.6v1.82h-.6v.2h.6v1.81h-.6v.2h.6v1.8h-.6v.2h.6V37H6V19h.93v.82Zm.65 16.27V37h1.8v-.91h-1.8Zm2.44 0h.61v-.2h-.61v-1.8h.61v-.2h-.61v-1.81h.61v-.2h-.61v-1.82h.61v-.2h-.61v-1.8h.61v-.2h-.61v-1.81h.61v-.2h-.61V24h.61v-.2h-.61V22h.61v-.2h-.61v-1.8h.61v-.2h-.61V19H11v18h-.98v-.91Zm-.65-.2h-1.8v-1.8h1.8v1.8Zm-1.8-2h1.8v-1.81h-1.8v1.81Zm1.8-2.01h-1.8v-1.82h1.8v1.82Zm-1.8-2.02h1.8v-1.8h-1.8v1.8Zm1.8-2h-1.8v-1.81h1.8v1.8Zm-1.8-2.01h1.8V24h-1.8v1.84Zm1.8-2.04h-1.8V22h1.8v1.8Zm-1.8-2h1.8v-1.8h-1.8v1.8Z" fill="#094F69"/><path d="M13 37V19h7.5c1.56-.06 4.65.79 4.59 4.71-.06 3.92-2.56 4.55-3.31 4.55.97.06 2.93.85 2.96 3.48.04 3.28.12 4.31.58 5.26H20.5c-.13-.08-.4-.6-.43-2.02l-.14-3.24c.02-.56-.28-1.67-1.94-1.67V37h-5Zm5.73-16.35a8.37 8.37 0 0 1-1.3 2.62 4.32 4.32 0 0 0-.91 2.05c-.1 1.03 1.05 2.17 2.21 2.1 1.16-.07 2.08-1.07 2.05-2.1-.01-.76-.56-1.7-.97-2.4-.14-.24-.27-.46-.35-.63-.24-.5-.58-1.3-.73-1.64Z" fill="#FAAB42"/><path d="M44.02 32.23 48.75 37 51 34.76l-4.73-4.74 4.7-4.64-2.25-2.17-4.66 4.6L39.25 23 37 25.16l4.82 4.86-3.62 3.56 1 3.41 4.82-4.76Z" fill="#9F9E9A"/><path fill-rule="evenodd" d="M27 19v18h1.78a.71.71 0 0 1-.27-.16c-.3-.3-.49-.98-.54-1.28.3-.02 1 .02 1.34.32.06.05.11.1.15.17v-1.03l-.01.02c-.1.1-.55.35-.94-.02-.3-.3-.49-.98-.54-1.28.3-.02 1 .02 1.34.32l.15.17v-1.05l-.01.01c-.1.11-.55.35-.94-.02-.3-.29-.49-.97-.54-1.28.3-.01 1 .03 1.34.33.06.05.11.1.15.17v-1.03l-.01.02c-.1.1-.55.35-.94-.02-.3-.3-.49-.98-.54-1.28.3-.02 1 .02 1.34.32.06.05.11.11.15.17v-1.05.01c-.11.11-.56.35-.94-.02-.31-.29-.5-.97-.54-1.28.3-.01 1 .03 1.34.33.06.05.1.1.14.16v-1.03l-.01.02c-.1.1-.55.35-.94-.02-.3-.3-.49-.98-.54-1.28.3-.02 1 .02 1.34.32.06.05.11.11.15.17v-.8a.71.71 0 0 1-.5-.73c.02-.43.41-1.01.6-1.25.21.23.64.8.64 1.25 0 .44-.3.65-.5.72v.79l.14-.15c.34-.3 1.03-.34 1.34-.32-.05.3-.23.99-.54 1.28a.68.68 0 0 1-.93.02v1c.03-.05.08-.1.14-.15.33-.3 1.03-.34 1.34-.33-.05.3-.23 1-.54 1.28a.68.68 0 0 1-.94.02v1.02c.03-.05.08-.1.13-.15.34-.3 1.03-.34 1.34-.32-.05.3-.23.99-.54 1.28a.68.68 0 0 1-.93.02v.98c.03-.05.08-.1.13-.14.34-.3 1.03-.34 1.34-.33-.05.3-.23 1-.54 1.28a.68.68 0 0 1-.93.03v1l.13-.14c.34-.3 1.03-.34 1.34-.32-.05.3-.23.99-.54 1.28a.68.68 0 0 1-.93.02v.98c.03-.05.08-.1.13-.14.34-.3 1.03-.34 1.34-.32-.05.3-.23.98-.54 1.28a.71.71 0 0 1-.26.16H32v-6.93c1.66 0 1.97 1.11 1.94 1.67l.14 3.24c.03 1.43.3 1.94.43 2.02h4.8c-.45-.95-.53-1.98-.57-5.26-.03-2.63-1.99-3.42-2.96-3.48.75 0 3.25-.63 3.3-4.55.07-3.92-3.02-4.77-4.57-4.7H27Zm2.97 18a.66.66 0 0 1-.26-.14V37h.26Zm-.5 0v-.16l-.02.01a.65.65 0 0 1-.26.15h.27Zm3.7-15H32v5h1.17c.6-.09 1.27-.45 1.3-2.7.03-1.81-.85-2.29-1.3-2.3Z" fill="#203E22"/></svg>