<!-- by TradingView --><svg width="56" height="56" viewBox="0 0 56 56" xmlns="http://www.w3.org/2000/svg"><path fill="#F0F3FA" d="M0 0h56v56H0z"/><path d="M8.8 24.92c.44.31 1.06.91.4 1.1-.08.16-.24.53-.18.67.05.14.32-.1.45-.24 0 .23-.1.67-.45.53-.45-.17-.24.2-.12.36.1.13-.13.2-.26.23.05.13.16.38.26.38.04 0 .07-.06.12-.13.1-.15.23-.37.57-.48.41-.12.6-.37.65-.48.1.19.28.58.16.7-.13.13-.74.18-1.04.18-.27.2-.83.6-.86.7-.03.1-.05.77.52.77.2 0 .36-.03.48-.05.21-.04.3-.05.3.15 0 .22-.11.72-.19 1.02a2.9 2.9 0 0 0-.8-5.41Zm-2.08.37c.15.24.6.31.83.31l-1.03.5c-.05.12-.12.37 0 .45.12.08.49-.42.65-.69.4-.1 1.17-.23 1.16.16-.01.38-.65.6-.97.67.1-.23.24-.67 0-.67-.23 0-.31.28-.32.43v.64l-1.06.48-.6-.34a2.9 2.9 0 0 1 1.34-1.94Zm-.98 3.97c.28.47.7.85 1.18 1.1.26-.15.64-.41.74-.64a6.08 6.08 0 0 1-1.68-1.29c-.08.15-.25.51-.24.83ZM8.9 30.6Z" fill="#393939"/><path fill-rule="evenodd" d="m11.34 30.65.01-.01-.82-.6-.02.02-.97.66a3.22 3.22 0 1 1 1.23-.96l.79.63a4.26 4.26 0 0 0-3.33-6.89A4.26 4.26 0 0 0 4 27.77a4.23 4.23 0 0 0 6.31 3.69l.56.54h2.31l-1.84-1.35ZM15.15 25H12.7v.26h.63c.1 0 .17.08.17.18v3.44a2.12 2.12 0 0 0 4.24 0v-3.44c0-.1.07-.18.17-.18h.44V25h-2v.26h.5c.08 0 .15.07.15.16v3.76a1.25 1.25 0 1 1-2.5 0v-3.76c0-.09.07-.16.16-.16h.5V25Zm2.24 5.7v.3h1.96v-.3h-.27c-.22 0-.21-.22-.18-.34l.5-1.36h1.54l.5 1.44c.06.19-.09.25-.16.26v.3h1.85v-.3h-.17c-.21 0-.4-.22-.47-.34L20.43 25h-.23l-1.99 5.36a.5.5 0 0 1-.45.34h-.37Zm3.38-2.18h-1.19l.62-1.66.57 1.66Zm13.76 2.13a.5.5 0 0 0 .25-.29L36.76 25H37l2.06 5.36c.07.12.26.34.47.34h.32v.3h-2v-.3c.07 0 .21-.07.16-.26L37.5 29h-1.54l-.5 1.36c-.04.12-.05.34.17.34h.28v.3h-2.35a39.3 39.3 0 0 1-1.85-2.4H31v1.6c0 .27.22.5.5.5h.22v.3H29.3v-.3h.21a.5.5 0 0 0 .5-.5v-4.3a.5.5 0 0 0-.5-.5h-.21V25h3.05c.37.03 1.13.46 1.14 1.57 0 1.1-.66 1.56-.99 1.7l2.04 2.38Zm1.62-2.12h1.2l-.59-1.67-.61 1.67ZM26.75 25h-3.44v.38h.19c.28 0 .5.23.5.5v4.24a.5.5 0 0 1-.5.5h-.19V31h2.97c.15 0 2.8-.2 2.72-3.04-.06-2.27-1.52-2.92-2.25-2.96ZM28 28.01c-.05-2.4-2.02-2.7-3-2.54v4.68c.22.55 3.06.86 3-2.14Zm3-2.58c.52-.05 1.55.14 1.56 1.32.02 1.47-1.23 1.27-1.56 1.2v-2.52Zm8.24-.43h4.63v1.2h-.3v-.6H42v4.53c0 .27.22.5.5.5h.2V31h-2.32v-.37h.12a.5.5 0 0 0 .5-.5V25.6h-1.42l-.4.59h-.28l.34-1.2Zm7.38 0h-2.25v.36h.13c.27 0 .5.22.5.5v4.24a.5.5 0 0 1-.5.5h-.13v.4h2.25v-.4h-.12a.5.5 0 0 1-.5-.5v-4.24c0-.28.22-.5.5-.5h.12V25ZM52 26.85V25.4c-.54-.3-1.26-.4-1.97-.4A3.02 3.02 0 0 0 47 28c0 1.66 1.36 3 3.03 3 .71 0 1.44-.06 1.96-.46l.01-.01v-1.09h-.2c-.15.75-1 .97-1.4.98-1.53-.01-2.39-1.4-2.4-2.5-.01-1.12.63-2.4 2.19-2.39 1.24.02 1.6.88 1.62 1.32H52Z" fill="url(#af4zvaxco)"/><defs><linearGradient id="af4zvaxco" x1="28" y1="25.17" x2="28" y2="31.41" gradientUnits="userSpaceOnUse"><stop stop-color="#0A1B3F"/><stop offset=".46" stop-color="#0E64AA"/><stop offset="1" stop-color="#0A1B3F"/></linearGradient></defs></svg>