<!-- by TradingView --><svg width="56" height="56" viewBox="0 0 56 56" xmlns="http://www.w3.org/2000/svg"><path fill="#F0F3FA" d="M0 0h56v56H0z"/><path d="M50 30.6c.91-.51 1.5-1.49 1.5-2.6 0-1.66-1.36-3-3.03-3H45v9h2v-3h1.14L50 34h2l-2-3.4ZM48.48 29h-1.47v-2h1.47c.57 0 1.02.34 1.02 1 0 .66-.46 1-1.02 1ZM22.74 25H19v9h2v-3h1.74c1.8 0 2.76-1.35 2.76-3 0-1.67-.96-3-2.76-3Zm-.36 4H21v-2h1.38c.62 0 1.12.45 1.12 1 0 .56-.5 1-1.12 1ZM43 34h-6v-9h6v2h-4v1.6h3v1.8h-3V32h4v2ZM32 27h-2v-2h6v2h-2v7h-2v-7ZM29 34h-2v-9h2v9ZM13.5 32c.93 0 1.5-.76 1.5-1.78V25h2v5.3a3.6 3.6 0 0 1-3.5 3.7 3.6 3.6 0 0 1-3.5-3.7V25h2v5.22c0 1.03.57 1.78 1.5 1.78ZM5 32c.56.32 1 .04 1-.76V25h2v6.2C8 33.1 6.66 34 5.31 34c-.45 0-.9-.1-1.31-.28L5 32Z" fill="#10283F"/><path d="M24.15 19.62c-.12-.06-.3-.2-.53-.25-.17-.04-2.15-.58-1.86-.45.26.12 1.06.4 1.49.53 2.06.57 1.08.25.9.17Zm-3.4 1.07c-.27-.16-.36-.1-.55-.13l-.23-.03c-.07.03.22.13.27.14.56.14.17.14.96.27.11.02.72.24.84.24.13 0-.46-.19-.54-.25-.15-.12-.54-.14-.75-.24Zm.84.74.11.08c.09.05.36.1.53.14.75.2.63.25 1.35.33.1.02.18.04.2.03.13-.04-2.84-.92-2.84-.91-.05.02.44.2.65.33ZM26.86 23l-.34-.16c-.2-.1-.42-.02-.85-.14 0 0-1.66-.53-1.38-.37.09.06-.08-.04 1.12.4.17.05-.07.05.1.1.5.16.71.06.88.15.36.2.66.1.47.02Zm-8.5 0h.47c-.12-.07-.35-.26-.57-.28.03.1.06.2.1.28Zm1.13-.77c.08-.12 1.88.67 2.1.57.08-.03-.46-.14-.87-.28-1.43-.49-2.2-.57-2.7-.75.03.26.07.31.13.56.14.02.7.1 1.24.36.2.1.28.05.76.22.33.12.21.1 1.65.1.54 0-.26.03-1.1-.3-.5-.23-1.24-.42-1.21-.48Zm3.76-6.21c.17.03.53.18.6.2.26.08.34 0 .7.17.36.16.77.24 1.14.4.41.18.88.54.8.57 0 0-.73-.15-1.12-.27-1.33-.38-1.28-.48-2.12-.72-.46-.14-.69-.17-.68-.13-.02.12.94.3 1.62.71.14.14 1.5.53 1.93.6.7.1.72.2.49.2-.76.04-1.43-.3-2.14-.42-.23-.03-.49-.09-.51-.03 0 .04.3.1.36.13 1.85.67 1.64.8 2.5 1.17.6.27.73.5.62.46-1.24-.57-1.53-.36-2.38-.92-1.09-.71-.92-.5-1.8-.71-.59-.14-1.14-.42-1.73-.48-.57-.06.13-.21 1.27-.02.47.07.46.05.58.08.06.02.19.05.24.05.1 0-.04-.08-.06-.1l-.22-.08c-1.27-.51-1.5-.3-1.45-.43.03-.07.5-.03.6-.06.06-.03-.14-.1-.18-.12-.06-.02-.06-.07-.12-.1-.6.14-1.16.37-1.66.68.95.31 4 1.02 4.05 1.25.01.03-3.29-.8-4.2-1.15l-.34.25c.88.4 8 2.25 7.62 2.27-.94.06-2.9-.76-4.7-1.07-.95-.17-1.08-.25 2.55.83 1.1.34 2.54.9 2.46 1-.03.05-2.46-.82-5.82-1.66-.45-.11-.89-.3-1.34-.43-.42-.12-.9-.27-1.19-.58-.15.14-.3.3-.43.46.17.05.42 0 .5.02.24.04.11.15.68.15.57-.01 6.95 2.08 7.33 2.34.1.07.38.29.44.38.1.15-.15-.04-3.33-.92-.45-.13-.92-.2-1.37-.33-.45-.12-.88-.28-1.32-.4-.24-.06-.49-.08-.72-.15-.18-.05-.34-.15-.53-.2-1.84-.48-1.77-.48-1.77-.45 0 .19 1.78.57 5.2 1.6.34.1.69.26 1.03.36 1.17.37-1.06 0-1.86-.21 0 0-.77-.23-1.61-.41-.73-.16-.65.07-1.9-.38a1.83 1.83 0 0 0-1.16-.09c-.04 0-.09.02-.02.05.06.03.13.02.34.01.33-.01.42.04.7.21.45.27.7.22 1.3.36.96.2 1.29.57 3.4 1.24.71.23 1.72.32 2.65.76-.7.1-1.45-.22-2.55-.41-.1-.02-.15-.07-.24-.13-.13-.1-.37-.12-.37-.13-.8-.17-.7-.08-.67-.08 1 .2.84.24 1.06.37.2.12.33.04 1.07.37.08.03.07.09-.03.09l-.48-.06c-.17-.02-.56-.03-.98-.25a8.64 8.64 0 0 0-1.4-.53c-.04.05.2.08.48.23.16.07.3.16.46.24l.4.2c1.24.76 1.02 0 1.77.5.25.17.62.18 1.1.41.58.29-.04.23 1.85.23 1.4-3.58-1.46-7.17-5.4-7Zm1.96 6.8c-.4-.12-.52-.19-1.04-.34 0 0-5.48-1.26-6.15-1.61l-.02.45c0 .19 7.13 2.16 6.95 2.2-.2.03-.45-.09-.68.01.4.37.68.1 1.2.45.1.06.45.02.27-.05-.92-.4.13-.29-2.09-1.05-.61-.2-.76-.26-.54-.22 2.57.52 2.17.73 2.94.7.17-.01.49-.1.36-.15-.12-.06-.84-.27-1.2-.38Z" fill="#E97414"/></svg>