<!-- by TradingView --><svg width="56" height="56" viewBox="0 0 56 56" xmlns="http://www.w3.org/2000/svg"><path fill="#F0F3FA" d="M0 0h56v56H0z"/><path d="M39.54 33.95c-2.35-1.96-9.2-8.3-16.98-7.82-7.78.48-8.75 5.49-9.19 12.28h-.55v-.47C12.8 28.14 21.17 14 28.02 14 34.89 14 44 28.13 44 37.96c0 .75-.8-.42-2.13-1.8-.72-.72-1.47-1.54-2.33-2.21Z" fill="url(#a20y23sqo)"/><path d="M12 37.84C12 27.95 21.1 14 28.03 14c1.22.04 2.42.39 3.47 1.01 1.2.72 2.3 1.59 3.28 2.58-4.03-2.99-7.48-2.6-9-.8-2.9 3.46-2.1 13.68 3.24 17.21 1.47.94-6.34 3.31-10.57 4.2-4.22.9-6.45 1.34-6.45-.36Z" fill="url(#b20y23sqo)"/><defs><linearGradient id="a20y23sqo" x1="22.66" y1="17.74" x2="38.37" y2="40.61" gradientUnits="userSpaceOnUse"><stop offset=".1" stop-color="#3D6CF2"/><stop offset="1" stop-color="#10D8AA"/></linearGradient><linearGradient id="b20y23sqo" x1="23.39" y1="14" x2="23.39" y2="39" gradientUnits="userSpaceOnUse"><stop stop-color="#27ACDE"/><stop offset="1" stop-color="#19E2A3"/></linearGradient></defs></svg>