<!-- by TradingView --><svg width="56" height="56" viewBox="0 0 56 56" xmlns="http://www.w3.org/2000/svg"><path fill="#F0F3FA" d="M0 0h56v56H0z"/><path d="M31.54 21.06c-1.27 1.1-1.81 2.05-2.72 3.67.28.51.52 1.05.55 1.7l.48-.77c.9-1.4 2.3-2.84 4.12-3.66l.03.03v.06c-1.78 1.25-4.03 5.28-4.48 5.98 1-.39 1.87-1.08 2.52-1.07.22 0 .4.06.56.28l.15-.28h.64l-1 2.33c-.06.24-.04.44.41-.1.53-.6.83-1.55 1.46-2.01.1-.1.36-.22.59-.22.17 0 .33.06.38.24l.1.22c.31-.16.63-.47.96-.46.54.02.6.57.42.98-.48.75-1.02 2.54.33 1.04.54-.73 1.05-2.02 2.07-2.02.13 0 .27.02.41.06.21.13.27.22.21.4-.06.12-.24.18-.36.12-.18-.09-.09-.49-.57-.18-.37.4-.73 1.35-.88 1.69-.09.24-.06.48.21.57.33.04.52-.25.76-.5.72-.75 1.44-2.16 2.56-2.16.1 0 .2 0 .3.03.64.21.25 1 1.04.55.53-.29.8-.6 1.33-.58.13 0 .28.02.45.07.15.09.3.24.3.42-.03.12-.09.15-.18.22-.36.12-.12-.55-.63-.3-.34.2-.55.63-.79 1.09-.4.57-.22 1.74.61.89.48-.5.81-.92 1.02-1.17 1.85-1.98 1.97-2.8 3.96-4.6.37-.4.84-.62 1.14-.62.3 0 .44.24.1.75-.1.12-.12.15-.4.42-.57.58-.93.77-1.63 1.22-.48.69-1.07 1.28-1.45 2.04.4-.23.85-.45 1.34-.43.62.03.58.66.45.87-.49.7-1.33 1-2.06 1.15.88.58 1.3 1.25 2.03 2.38 1.08.17 3.62.5 3.62 1.93 0 .42-.38.67-.93.67-1.52-.01-2.48-1.11-3.24-2.23-2.96-.4-6.38-.07-8.77.23l-.06-.06a25.82 25.82 0 0 1 8.44-.7c-.33-.57-1.06-2.03-1.51-2.15-.21.3-.48.91-.48.91h-.91c.27-.52.66-1.51.88-2-.49.55-.91 1.2-1.4 1.57-.41.27-.72.44-.95.43-1.03-.03-.63-1.55-.44-2.14-.27.06-.23.23-.56.14-.37.79-.61 2.04-1.73 2-.82-.03-.74-1.04-.6-1.63-.51.49-1.1 1.54-1.88 1.52a.9.9 0 0 1-.33-.07c-.24-.12-.3-.37-.33-.58l.06-.18c-.5.57-1 .96-1.4.94a.65.65 0 0 1-.45-.2c-.3-.36.33-1.6.49-1.91l.06-.13c.27-.42-.28-.3-.37-.24-.33.12-.6.93-.87 1.41L34.2 30h-.84c.36-.67.72-1.69 1.05-2.36.03-.09.03-.36-.27-.12l-.6.82c-.23.33-.89 1.69-1.5 1.66-.23-.01-.36-.1-.44-.3-.03-.07.03-.16 0-.13-.3.28-.63.46-1.08.43-.25 0-.52-.24-.52-.46 0-.54.07-1.17.34-1.54l-.91.28c-.27.43-.49 1.26-.76 1.72h-.96l.6-1.6c-.4 0-.97-.15-1.2-.27-.5.88-1.19 1.65-2.1 1.84a3.52 3.52 0 0 1-2.12-.45c-.37.3-.91.48-1.31.48-.53 0-.61-.3-.25-1.1.17-.4.24-.68.4-.98.32-.46-.31-.83-1 .36-.3.49-.43 1.02-.85 1.72h-.76c.37-.67.76-1.63 1.12-2.27.12-.2.03-.54-.4-.06l-.05.1c-.24.3-.76 1.38-1.12 1.8-.27.32-.54.44-.77.43-.35-.01-.58-.32-.38-.85.22-.58.3-.81.48-1.2.46-.73-.5-.27-1.23 1.17l-.52.88h-.78s.96-2 1.42-2.81l-.15.12c-.28.27-.6.45-.97.45-.2.9-.67 2.26-1.8 2.27-.46 0-.77-.3-.77-.76.03-.58.36-1.32.7-1.78-.25.1-.58.1-.88.18-1.51 2.93-2.54 8.45-6.8 8.33-.69-.02-1.2-.35-1.22-1.07 0-3.93 4.02-6.02 7.02-7.17A20.82 20.82 0 0 1 16 22.8c-.29.15-.67.21-1.07.21-.73 0-1.53-.21-1.94-.57.18 1.22-.9 2.17-1.99 2.57 1-.82 1.99-1.56 1.75-2.78-.16-.21-.25-.18-.34-.46-.03-.33.28-.3.43.12.3.46.96.88 1.72.91.97-.03 1.54-.3 2.18-.79l.03.1a19.93 19.93 0 0 0-3.6 5.27 6.48 6.48 0 0 1 1.8-.37c.45 0 .5.3.83.46.36.12 1.18-.67 1.66-1.31.88-1.13 1.19-2.06 3-3.1a.48.48 0 0 1 .21-.05c.17 0 .33.1.33.29 0 .09-.03.2-.12.34-.3.52-1.24 1.4-1.82 1.77-.45.3-.93.93-1.5 1.85.23-.11.67-.25.99-.25.32 0 .53.14.3.7-.06.19-.33 1.02-.54 1.36-.25.27-.1.67.36.09.12-.13.48-1.02.63-1.2.44-.54.72-.96 1.2-.95.38 0 .47.23.47.58.34-.26.74-.6 1.2-.58.53.02.46.55.28.92l-.64 1.38c-.12.27-.03.52.37.4.3-.13.39-.19.6-.3-.15-.2-.33-.34-.18-.4l.36.27c.7-.52 1.54-1.48 2.39-2.51a3.02 3.02 0 0 1-.16-1.1c.05-.93.62-1.66 1.85-1.66l.27-1.2c.06-.37.15-.64.03-1.2-.03-.14-.03-.3.1-.36.33.03.2.43.3.64.09.22.15.4.36.46 1.42.61 2.66-1.13 3.47-1.34l-.03.06Zm-11.44 2.6c-.6.7-.68.98-.92 1.46a6.7 6.7 0 0 0 1.5-1.43c.3-.33-.15-.53-.58-.03Zm29.4-.19c-.55.49-.8.92-1.15 1.5l.54-.4c.36-.27.54-.43.76-.67.75-.8.15-.8-.15-.43Zm-24.03 3.04a7.5 7.5 0 0 0 1.42-2.27c-.94 0-1.48.65-1.54 1.41a2 2 0 0 0 .12.86Zm1.66-2.24a8.6 8.6 0 0 1-1.48 2.43l-.06.09c.18.3.42.49.73.67.57-.94 1.08-1.6 1.8-2.72-.17-.27-.78-.47-.99-.47Zm1.57.73-1.48 2.95c.36.15.9.27 1.18.27.7-1.1.76-2.24.3-3.22Zm-3.3 2c-.54.6-1.14 1.54-2.23 2.36.4.21.9.18 1.36.12.76-.15 1.27-1.17 1.66-1.78l-.78-.7Zm6.17.49c-.45.55-.53.91-.72 1.5-.14.43-.15.64 0 .74.15.06.3 0 .6-.3.37-.5.4-1 .76-1.6.23-.44.14-.6-.06-.6a.72.72 0 0 0-.58.26Zm10.1.18c.09-.6-.46-.48-1.15.55-.48.7-.3 2.2.85.87.12-.22.2-.66.3-.87.27-.52-.03-.36-.03-.49l.03-.06Zm5.4-.27c-.36.18-.6.33-1.05 1.1.6-.1 1.12-.15 1.42-.54.4-.52-.03-.74-.36-.56Zm-35.23.6c-2.64 1.15-6.56 3.5-6.56 6.93.02.52.38.77.87.78 3.07.08 4.5-5.35 5.69-7.7Zm36.84 3.98c.55.79 1.56 1.78 2.58 1.78.31 0 .48-.18.47-.43-.04-1.18-2.23-1.24-3.05-1.35Zm-21.1-9.73a15.1 15.1 0 0 1-.33 1.78c.27 0 .76.25 1.03.47.51-.7 1-1.7 1.36-2.1-.3.28-1.54.58-2.06-.15Zm-12.27 5.38c.03-.2-.04-.3-.18-.3-.2 0-.51.22-.87.8-.56.8-.5 1.37-.22 1.37.32 0 .94-.67 1.3-1.4.22-.49-.06-.31-.03-.44v-.03Z" fill="#324297"/></svg>