<!-- by TradingView --><svg xmlns="http://www.w3.org/2000/svg" width="56" height="56" viewBox="0 0 56 56"><path fill="#F0F3FA" d="M0 0h56v56H0z"/><path d="M23 32.35v-7.7l4-3.93v7.05c3.9-3.02 11.69-12.07 10.87-13.79-.66-1.37-5.52 2.07-7.87 3.96 7.27-7.05 10.2-7.4 10.77-6.68C42.94 14.18 29.85 26.42 23 32.35z" fill="silver"/><path d="M12.33 40.05c-.67-.7-.12-2.04.24-2.62-1.27 1.72-3.47 5.4-2.17 6.4 1.62 1.25 10.58-4.9 12.6-6.83v4h4v-7.2l2.3-2.53 5.85 9.82h4.89l-7.75-12.62c1.5-1.6 4.52-5.8 5.1-8.55-12.94 15.35-23.78 21.46-25.06 20.13z" fill="#9B8343"/></svg>