<!-- by TradingView --><svg width="56" height="56" viewBox="0 0 56 56" xmlns="http://www.w3.org/2000/svg"><path fill="#F0F3FA" d="M0 0h56v56H0z"/><path d="M43 43H13V13h30v30Zm-29-1h28V14H14v28Z" fill="#282561"/><path d="M22 26h5v1H16v-1h5v-3h-4v-1h4v-1.47h-2.77v-.65c-.6.48-1.24.92-1.9 1.31-.2-.34-.44-.66-.71-.94a13.68 13.68 0 0 0 5.09-4.7l1.57.1a.28.28 0 0 1-.1.15.27.27 0 0 1-.16.06 14.26 14.26 0 0 0 5.13 4.22c-.28.33-.54.68-.76 1.05-.68-.4-1.34-.83-1.96-1.31v.71H22V22h4v1h-4v3Zm-3.31-.1a8.3 8.3 0 0 0-1.1-2.25l.94-.4c.5.65.89 1.37 1.17 2.14l-1.01.51Zm5.26-6.42a13.84 13.84 0 0 1-2.68-2.75 13.45 13.45 0 0 1-2.54 2.75h5.22Zm-1.27 5.97c.5-.7.92-1.45 1.27-2.25l1.23.54c-.04.08-.15.12-.3.12-.4.71-.85 1.39-1.35 2.03l-.85-.44Z" fill="#282561"/><path d="M35 39h5v1H29v-1h5v-3h-4v-1h4v-1.47h-2.76v-.65c-.6.48-1.25.92-1.91 1.31-.2-.34-.43-.66-.7-.94a13.68 13.68 0 0 0 5.08-4.7l1.57.1a.28.28 0 0 1-.1.15.27.27 0 0 1-.16.06 14.26 14.26 0 0 0 5.13 4.22c-.28.33-.53.68-.76 1.05-.68-.4-1.33-.83-1.96-1.31v.71H35V35h4v1h-4v3Zm-3.31-.1a8.3 8.3 0 0 0-1.09-2.25l.93-.4c.5.65.89 1.37 1.17 2.14l-1.01.51Zm5.27-6.42a13.84 13.84 0 0 1-2.68-2.75 13.45 13.45 0 0 1-2.55 2.75h5.23Zm-1.28 5.97c.5-.7.93-1.46 1.28-2.25l1.22.54c-.04.08-.14.12-.29.12-.4.71-.86 1.39-1.35 2.03l-.86-.44Z" fill="#1E75BB"/><path d="M31.5 21v2.61l1.12-.23.1 1c-1.3.39-2.45.65-3.32.89-.01.05-.03.1-.07.13a.23.23 0 0 1-.12.07l-.35-1.26a48 48 0 0 0 1.64-.34V21H29v-1h1.5v-3H29v-1h4v1h-1.5v3h1.12v1H31.5Zm8.5 0h-3.07c-.08.3-.19.68-.3 1H40v3.85c0 .9-.38 1.15-1.5 1.15a3.33 3.33 0 0 0-.33-1c.73.03.83-.04.83-.18V23h-1v4h-1v-4h-1v4h-1v-4h-1v4h-1v-5h2.6c.09-.3.18-.68.25-1H33v-1h7v1Zm-.72-4.81c0 .1-.1.15-.28.2V19h-5v-2.9l1.32.09c0 .1-.12.15-.32.2V18h1v-2.58l1.32.09c0 .1-.13.16-.32.18V18h1v-1.9l1.28.09Z" fill="#282561"/><path d="M27 36h-1.93c.74.74 1.04 1.13 2.02 1.49-.29.26-.54.57-.75.9-1.25-.56-2-1.5-2.47-2.39h-4.53c-.3.45-.4.63-.8 1H21v-.82l1.18.1c0 .1.02.16-.18.18V37h2.34v1H22v1h4v1h-9v-1h4v-1h-2.64v-.87c-.61.54-1.3 1-2.04 1.35-.2-.32-.46-.62-.74-.87 1.01-.4 1.7-.81 2.45-1.61H16v-1h2v-4h-1v-1h1v-1h1.48c0 .1-.29.25-.48.28V30h5v-1h1.34c0 .1-.13.25-.34.28V30h1v1h-1v4h2v1Zm-3-5h-5v1h5v-1Zm-5 1.5v1h5v-1h-5Zm0 1.5v1h5v-1h-5Z" fill="#1E75BB"/></svg>