<!-- by TradingView --><svg xmlns="http://www.w3.org/2000/svg" width="56" height="56" viewBox="0 0 56 56"><path fill="#016BFF" d="M0 0h56v56H0z"/><path fill-rule="evenodd" d="M7 21H6v12h3v-1H7V22h2v-1H7zm11 0h1v12h-3v-1h2V22h-2v-1h2zm-9 2h1v3.8l4.22-3.8h1.61l-3.74 3.55L16 30.98h-1.56l-3.2-3.6L10 28.54V31H9v-8zm12 6.56V25h1v4.47c0 .91.58 1.53 1.43 1.53S25 30.38 25 29.47V25h1v7h-1v-.88a2.2 2.2 0 0 1-1.74.88C22.01 32 21 30.9 21 29.56zm6-2.3V23h1v2.48c.34-.28.77-.48 1.3-.48 1.86 0 2.7 1.87 2.7 3.6 0 1.75-1.06 3.4-2.7 3.4-.53 0-.96-.14-1.3-.35V32h-1v-4.74zm1 2.34c0 .47.4 1.4 1.38 1.4.98 0 1.62-1.18 1.62-2.42S30.5 26 29.38 26c-.9 0-1.3 1.08-1.38 1.61v2zm6.25-6.1a.75.75 0 1 1-1.5 0 .75.75 0 0 1 1.5 0zM33 32v-7h1v7h-1zm3-3h4.5c.03-1.25-.43-4-2.6-4-2.69 0-2.9 3-2.9 3.76 0 .76.25 3.24 2.9 3.24.54 0 1.8-.27 2.6-1.32l-.73-.57c-.3.37-1 .89-1.77.89-.96 0-2-.5-2-2zm0-1h3.61c0-.67-.36-2-1.8-2-1.45 0-1.81 1.33-1.81 2zm12 3v-5h-1v-1h1v-2h1v2h1.5v1H49v4.3c0 .39.31.7.7.7H51v1h-2a1 1 0 0 1-1-1z" fill="#fff"/><path d="M46 32v-4.56C46 26.1 44.99 25 43.74 25c-.7 0-1.33.34-1.74.88V25h-1v7h1v-4.47c0-.91.72-1.53 1.57-1.53.85 0 1.43.62 1.43 1.53V32h1z" fill="#fff"/></svg>