<!-- by TradingView --><svg xmlns="http://www.w3.org/2000/svg" width="56" height="56"><path fill="#14264D" d="M0 0h56v56H0z"/><path d="M18.23 17h-3.46a.77.77 0 00-.77.77v20.46c0 .43.35.77.77.77h3.46c.42 0 .77-.34.77-.77V17.77a.77.77 0 00-.77-.77z" fill="#fff"/><path d="M39.93 17c-.2 0-.4.08-.55.21l-8.36 10.63v.07a.21.21 0 000 .19v.07l8.35 10.62c.15.13.35.2.55.21h1.35c.27 0 .52-.16.64-.4a.72.72 0 00-.06-.74l-7.4-9.72a.2.2 0 010-.27l7.4-9.72c.17-.22.2-.5.07-.75a.73.73 0 00-.64-.4h-1.35z" fill="url(#a1x0s4oe5)"/><path d="M27.9 28.13a.27.27 0 01-.06-.13c0-.05.03-.1.05-.14l7.33-9.72a.72.72 0 00-.57-1.14h-4.17c-.2 0-.4.08-.55.22l-8.26 10.61v.03l-.02.04v.19l.02.04v.03l8.27 10.62c.15.14.34.22.55.22h4.16a.72.72 0 00.58-1.14l-7.33-9.73" fill="#fff"/><defs><linearGradient id="a1x0s4oe5" x1="36.48" y1="39" x2="36.48" y2="17.01" gradientUnits="userSpaceOnUse"><stop stop-color="#0890AB"/><stop offset="1" stop-color="#00E2DD"/></linearGradient></defs></svg>