<!-- by TradingView --><svg width="56" height="56" viewBox="0 0 56 56" xmlns="http://www.w3.org/2000/svg"><path fill="#F0F3FA" d="M0 0h56v56H0z"/><path d="M12 27.28c1.4-2.76 4.26-6.28 8.48-6.28 3.63 0 7.39 2.62 10.76 4.93C33.95 27.78 36.4 29 38.28 29c3.07 0 4.87-1.81 5.51-4.28A16.06 16.06 0 0 0 28.06 12 16.04 16.04 0 0 0 12 27.28Z" fill="#47D9D9"/><path d="M12.98 33.57c.89-3.84 3.14-9.57 7.17-9.57 3.6 0 6.7 2.46 9.68 4.68 2.72 2.04 5.33 4.32 8.1 4.32A7.9 7.9 0 0 0 44 30.04 16.05 16.05 0 0 1 28.06 44a16.1 16.1 0 0 1-15.08-10.43Z" fill="#F28705"/></svg>