<!-- by TradingView --><svg xmlns="http://www.w3.org/2000/svg" width="56" height="56" viewBox="0 0 56 56"><path fill="url(#a5gkhymhm)" d="M0 0h56v56H0z"/><path d="M16.47 37.09c-2-3.8-2.5-5.14-2.5-5.34l1.09 1.15a29.9 29.9 0 0 1 2.88 6.84c.12.65.09 2.03-.9 2.12-.99.1-1.35-.6-1.41-.96.76 1.04 3.35.92.84-3.81z" fill="url(#b5gkhymhm)"/><path d="M22.84 12.66c-.04-.45.32-.63.5-.66.17 0 .53.09.55.43.03.43-.53.51-.55.47.29.65 1.36.92 1.86.97.15-.04.36-.3.45-.42-.8-.12-1.1-.55-1.15-.9-.05-.35.3-.55.51-.55.2 0 .42.18.46.43.03.2-.17.4-.27.47.3.2.96.08 1.25 0 2.64-1.7 4.55-.5 5.18.33 2.55.23 2.16 1.3 1.65 1.81-.21-.81-1.24-1.12-1.73-1.17-.97-.07-3.07.3-3.65 2.38-.59 2.07.65 3.17 1.35 3.46A8.08 8.08 0 0 0 35 27.96l-1.48 2.2a6.5 6.5 0 0 1-3.18.81c-6.82-.48-8.32-5.75-8.21-8.33-.15-4.6 1.65-7.4 2.57-8.21-1.36-.27-1.82-1.22-1.86-1.77z" fill="url(#c5gkhymhm)"/><path d="M18.26 40.41c0-2.85-1.52-5.77-2.42-7.31l-.9-.4c1 1.74 3 6.07 3.02 7.6.03 1.91-1.3 1.68-1.96 1.33.66.5 2.26.79 2.26-1.22z" fill="url(#d5gkhymhm)"/><path d="M14.84 27.75c.88.53 2.24.75 2.81.79.19 2.22-.28 4.98-1.92 4.82-1.3-.13-1.81-1.47-1.9-2.12l1.01-3.5z" fill="#FEFDFE"/><path d="M14.9 27.7c.78.46 2.03.69 2.53.73.16 1.96-.26 4.7-1.7 4.56-1.17-.11-1.62-1.3-1.7-1.88l.87-3.42z" fill="url(#e5gkhymhm)"/><path d="M12 26.5c.04-3.33 1.36-5.08 1.99-5.5a10.28 10.28 0 0 0-1.71 5.5c.15 3.85 1.08 4.76 1.53 4.74-.1.23-.27.33-.35.34-.24-.01-1.51-.92-1.46-5.08z" fill="#FEFDFE"/><path d="M15.04 26.26c.1-2.95-.67-4.74-1.07-5.24a10.33 10.33 0 0 0-1.71 5.24c-.04 3.7 1 4.88 1.5 5 .55-.44 1.14-1.32 1.28-5z" fill="url(#f5gkhymhm)"/><path d="M20.08 15.32c1.37-.05 1.49.97 1.38 1.5-.1-1.07-.96-1.19-1.38-1.12-3.46.44-5.53 3.3-6.13 4.67.16.9 1.54 1.18 2.22 1.21-1.76.19-2.45-.63-2.58-1.06 1.16-3.25 4.78-5.14 6.5-5.2z" fill="#FEFDFE"/><path d="M22.66 18.11c-.79.17-1.07-.41-1.14-.7-.18 1.47.58 1.97.97 1.98l.17-1.28z" fill="#B1B2B4"/><path d="M20.27 15.64c1.22-.04 1.32 1.31 1.24 1.96a8.81 8.81 0 0 1-5.53 4c-1.65-.14-2.08-.92-2.08-1.27 1.55-3.28 4.83-4.65 6.37-4.7z" fill="url(#g5gkhymhm)"/><path d="M37.62 40.2c-.1-1.77 1.55-5.31 2.39-6.86l.85-.22c-.87 1.68-2.64 5.48-2.76 7.23-.12 1.75 1.22 1.6 1.9 1.3-.63.59-2.24.77-2.38-1.45z" fill="url(#h5gkhymhm)"/><path d="M38.57 40.46c-.24-1.1 2.1-5.9 3.3-8.16l-.88.6c-1.12 1.34-2.8 6.41-2.84 6.82-.05.47-.3 2.08.97 2.1 1.04 0 1.32-.7 1.33-1.04-.12.24-.53.71-1.17.67-.64-.03-.74-.67-.7-1z" fill="url(#i5gkhymhm)"/><path d="M22.48 19.32c-.78-.16-.95-1.29-.97-1.76-3.16 4.28-6.37 4.15-7.55 3.5 1.06 1.52 1.09 5.13.98 6.72 3.31 1.96 6.79-.04 8.1-1.28l-.56-7.18z" fill="url(#j5gkhymhm)"/><path d="M22.81 19.35c.83-4.48 3.86-6.45 5.27-6.87-2.86 1.43-3.75 4.64-3.85 6.06l-1.42.81z" fill="url(#k5gkhymhm)"/><path d="M25.07 14.06c-1.53-.04-1.92-.88-1.93-1.3l.2.06c.33.84 1.44 1 1.98.98l-.25.26zM26.07 13.2c-.8.03-1.14-.3-1.22-.45.55.31 1.15.27 1.4.2l-.18.26z" fill="#B0B1B3"/><path d="M31.36 13.84c1.2.06 1.77.65 1.93 1.21-1.93-.94-4.17-.5-4.44 2.31-.22 2.25 1.74 2.28 2.75 2-1.79 1.24-4 .2-3.89-2.18a3.46 3.46 0 0 1 3.65-3.34z" fill="url(#l5gkhymhm)"/><path d="M30.87 12.98c-.35-.63-1.43-.55-1.93-.43 0 .14.52.9 1.27.86.6-.04.7-.3.66-.43z" fill="url(#m5gkhymhm)"/><path d="M30.47 13.1c.18 0 .22-.16.23-.24l.17.13c-.01.22-.27.28-.4.28-.47 0-.6-.34-.6-.51h.36c0 .1.02.35.24.35z" fill="#fff"/><path d="M37.92 16.65c-2.86-1.48-4.2-.97-4.52-.53.79-.54 3.11 0 5.47 1.52 1.9 1.21 2.8 2.44 3.05 2.94-.06.7-1.52.95-2.27 1 2.02.43 2.57-.61 2.67-.94.1-.32-.83-2.13-4.4-3.99z" fill="#FEFDFE"/><path d="M44 26.77c.1-3.45-1.31-5.25-2.03-5.71 1.28 1.91 1.46 2.85 1.58 5.7a9.48 9.48 0 0 1-1.04 4.8c.43-.16 1.39-1.34 1.49-4.8zM40.13 33.33c1.45-.01 1.98-1.3 2.06-1.93l-.21-.65c-.08.75-.57 2.27-1.85 2.28-1.3.01-1.77-2.97-1.84-4.46-.1.6.01 4.77 1.84 4.76z" fill="#FEFDFE"/><path d="M41.98 31.14c-.6-.72-.8-2.75-.86-3.52l-2.87.88c.23 3.28.9 4.62 2.11 4.56 1.21-.05 1.62-1.85 1.62-1.92z" fill="#E1E1E1"/><path d="M43.62 26.46c-.01-3.03-1.1-4.84-1.63-5.37-.54.28-1.02.38-1.07 5.37-.04 4 1.1 5.06 1.6 5.1.37-.44 1.12-2.07 1.1-5.1z" fill="url(#n5gkhymhm)"/><path d="M32.43 18.15c-.69 1.77-2.41 1.81-3.19 1.6a8.4 8.4 0 0 0 1.53 5.28c1.82 2.77 5.34 3.38 6.83 3.52a5.42 5.42 0 0 0 3.47-.68v-2.84c-.05-2.43.42-3.48.66-3.7-.6.35-1.53.31-1.92.25 1.74-.15 2.16-.75 2.16-1.03-.72-1.34-2.06-2.48-4.35-3.7-2.28-1.22-3.59-1-3.91-.87-.32.11-.41-.06-1.28 2.17z" fill="url(#o5gkhymhm)"/><path d="M23.84 41.37c3 .37 5.48-1.37 6.34-2.29l.63-.12c-2.22 3.2-6.34 3.04-8.04 2.63-.95-.28-2.84-1.34-2.77-3.39.07-2.05 1.47-2.49 2.16-2.45a2.45 2.45 0 0 0-1.77 2.32c-.1.95.45 2.93 3.45 3.3z" fill="#FFFEFF"/><path d="M22.72 30.7a3.62 3.62 0 0 0 1.76-2.13l.67.58c-.07.5-2.13 2.53-3.46 2.6-1.06.07-1.64-.47-1.8-.74-.59.58 0 .96.32 1.1-1.05-.08-1.15-.7-1.1-.93.5-1.59 2.61-.98 3.6-.47z" fill="url(#p5gkhymhm)"/><path d="M25.74 33.17c1.1-.55 1.64-2.26 1.78-2.75l.94.25c-.32 1.66-2.42 3.47-3.75 3.55-1.06.06-1.64-.47-1.8-.75-.59.59 0 .96.32 1.1-1.05-.08-1.16-.7-1.1-.93.5-1.58 2.61-.97 3.6-.47z" fill="url(#q5gkhymhm)"/><path d="M22.31 31.58c1.67-.26 3-1.44 3.44-2l-.6-.43a6.43 6.43 0 0 1-2.84 2.43z" fill="url(#r5gkhymhm)"/><path d="M25.33 34.05a4.5 4.5 0 0 0 3.62-3.26l-.5-.1a5.5 5.5 0 0 1-3.12 3.36z" fill="url(#s5gkhymhm)"/><path d="M20.22 31.33c-.24.29-.1.64 0 .78-.92-.26-.6-.85-.32-1.11l.32.33zM23.24 33.8c-.24.28-.1.63 0 .78-.92-.27-.6-.86-.32-1.12l.32.34z" fill="#7E8184"/><path d="M23.04 32c.58-.07.55-.53.47-.77l-.26.1c.07.27-.11.54-.21.67zM26.06 34.47c.58-.07.55-.56.46-.8-.08.05-.25.14-.25.12.07.27-.11.54-.21.68z" fill="#616165"/><path d="M23.04 32c.76-.04.93-.67.84-.96l-.37.19c.04.5-.35.72-.47.77zM26.08 34.47c.73-.05.9-.69.82-.98l-.37.18c.04.5-.32.74-.45.8z" fill="#EDEFEC"/><path d="M36.73 32.5c.13-2.58-1.11-4.08-1.75-4.5l-1.46 2.16c1.9 1.72 1.46 7.29-2.6 7.8-3.26.41-4.51-1.24-4.73-2.12.48 2.87 3.22 3.38 4.53 3.27 4.54-.5 5.85-3.4 6.01-6.62z" fill="url(#t5gkhymhm)"/><path d="M30.72 30.97a6.42 6.42 0 0 0 2.8-.84c.26.34 1.12 1.12 1.08 3.1-.03 1.99-1.02 4.82-4.5 4.85-2.78.03-3.76-1.5-3.9-2.24a5.04 5.04 0 0 0 3.42 1.03c1.77-.25 2.4-1.97 2.43-3.5.03-1.2-.88-2.1-1.33-2.4z" fill="url(#u5gkhymhm)"/><path d="M27.91 35.18c1.79 1.65 3.32.5 3.86-.27-.48 1.62-1.78 2-2.36 1.97-.93-.23-1.46-1.23-1.5-1.7z" fill="url(#v5gkhymhm)"/><path d="M28.35 36.8a2.44 2.44 0 0 1-.43-1.62c.12.93 1.26 1.5 1.69 1.68-.33.07-1.05 0-1.26-.06z" fill="#8F9190"/><path d="M31.66 38.96c-.7 1.15-3.08 3.4-7.02 3.3-4.94-.14-5.21-3.53-5.18-3.78.04-.25 0-1.75 1.83-2.55-.52.26-1.24.98-1.24 2.55 0 2.26 2.6 3.35 4.37 3.3 1.77-.06 4.1-.07 6.27-2.68l.97-.14z" fill="url(#w5gkhymhm)"/><path d="M28.13 44c6.5-.24 7.75-5.3 7.57-7.8l-.6.71c-1.13 5.66-4.36 6.32-6.97 6.48-2.61.16-5.9-1.45-5.93-4.17a3.53 3.53 0 0 1 2.53-3.44c-2.62.56-3.17 2.53-3.12 3.44.2 4 4.43 4.85 6.52 4.78z" fill="url(#x5gkhymhm)"/><path d="M28.1 43.39c4.94.08 6.54-3.58 6.96-6.25l-.66.55a6.27 6.27 0 0 1-6.3 5.27c-3.6-.04-5.35-1.72-5.41-3.97a3.48 3.48 0 0 1 2-3.17c-2 .5-2.59 2.5-2.58 3.27.13 3.6 4.08 4.33 6 4.3z" fill="#FFFEFF"/><defs><linearGradient id="a5gkhymhm" x1="28" y1="0" x2="28" y2="56" gradientUnits="userSpaceOnUse"><stop stop-color="#0E6592"/><stop offset=".82" stop-color="#26B5E7"/></linearGradient><linearGradient id="b5gkhymhm" x1="15.97" y1="31.75" x2="15.97" y2="41.87" gradientUnits="userSpaceOnUse"><stop stop-color="#B3B3B3"/><stop offset="1" stop-color="#FDFFFE"/></linearGradient><linearGradient id="c5gkhymhm" x1="30.39" y1="16.89" x2="22.63" y2="26.81" gradientUnits="userSpaceOnUse"><stop offset=".76" stop-color="#fff"/><stop offset="1" stop-color="#C4C4C4"/></linearGradient><linearGradient id="d5gkhymhm" x1="16.6" y1="32.7" x2="17.4" y2="41.99" gradientUnits="userSpaceOnUse"><stop stop-color="#A6A6A8"/><stop offset=".55" stop-color="#FEFDFD"/><stop offset="1" stop-color="#9FA3A4"/></linearGradient><linearGradient id="e5gkhymhm" x1="15.16" y1="27.75" x2="15.74" y2="33" gradientUnits="userSpaceOnUse"><stop stop-color="#919294"/><stop offset="1" stop-color="#EDEDED"/></linearGradient><linearGradient id="f5gkhymhm" x1="12.32" y1="26.18" x2="14.27" y2="26.18" gradientUnits="userSpaceOnUse"><stop stop-color="#E4E4E5"/><stop offset="1" stop-color="#fff"/></linearGradient><linearGradient id="g5gkhymhm" x1="16.64" y1="17.2" x2="17.75" y2="19.12" gradientUnits="userSpaceOnUse"><stop stop-color="#D1D1D2"/><stop offset="1" stop-color="#FEFEFE"/></linearGradient><linearGradient id="h5gkhymhm" x1="39.24" y1="33.12" x2="39.24" y2="42.03" gradientUnits="userSpaceOnUse"><stop stop-color="#A1A1A1"/><stop offset=".4" stop-color="#F1F1F1"/><stop offset=".64" stop-color="#FEFEFE"/><stop offset="1" stop-color="#979596"/></linearGradient><linearGradient id="i5gkhymhm" x1="39.98" y1="32.3" x2="39.98" y2="41.82" gradientUnits="userSpaceOnUse"><stop stop-color="#B3B5B3"/><stop offset="1" stop-color="#fff"/></linearGradient><linearGradient id="j5gkhymhm" x1="18.81" y1="24.55" x2="23.05" y2="26.28" gradientUnits="userSpaceOnUse"><stop stop-color="#FEFEFE"/><stop offset="1" stop-color="#CDCDCD"/></linearGradient><linearGradient id="k5gkhymhm" x1="26.72" y1="12.74" x2="23.41" y2="19.03" gradientUnits="userSpaceOnUse"><stop stop-color="#E3E3E5"/><stop offset="1" stop-color="#FDFDFD"/></linearGradient><linearGradient id="l5gkhymhm" x1="32.11" y1="13.27" x2="30.21" y2="20.4" gradientUnits="userSpaceOnUse"><stop stop-color="#818085"/><stop offset=".36" stop-color="#F7F7F7"/><stop offset=".59" stop-color="#F7F7F7"/><stop offset="1" stop-color="#8F9094"/></linearGradient><linearGradient id="m5gkhymhm" x1="30.52" y1="13.02" x2="28.94" y2="12.67" gradientUnits="userSpaceOnUse"><stop stop-color="#909497"/><stop offset="1" stop-color="#fff"/></linearGradient><linearGradient id="n5gkhymhm" x1="43.62" y1="26.32" x2="41.86" y2="26.32" gradientUnits="userSpaceOnUse"><stop offset=".15" stop-color="#E2E2E2"/><stop offset="1" stop-color="#fff"/></linearGradient><linearGradient id="o5gkhymhm" x1="38.41" y1="17.52" x2="33.76" y2="27.43" gradientUnits="userSpaceOnUse"><stop stop-color="#E1E1E1"/><stop offset=".33" stop-color="#fff"/><stop offset=".67" stop-color="#F4F4F4"/><stop offset="1" stop-color="#B9B9B9"/></linearGradient><linearGradient id="p5gkhymhm" x1="24.58" y1="28.89" x2="19.71" y2="31.26" gradientUnits="userSpaceOnUse"><stop offset=".04" stop-color="#9B9D9C"/><stop offset=".63" stop-color="#fff"/></linearGradient><linearGradient id="q5gkhymhm" x1="27.48" y1="30.7" x2="24.14" y2="33.23" gradientUnits="userSpaceOnUse"><stop stop-color="#909193"/><stop offset=".73" stop-color="#fff"/></linearGradient><linearGradient id="r5gkhymhm" x1="25.28" y1="29.66" x2="23.37" y2="31.59" gradientUnits="userSpaceOnUse"><stop stop-color="#7A787D"/><stop offset=".82" stop-color="#fff"/></linearGradient><linearGradient id="s5gkhymhm" x1="28.48" y1="31.03" x2="26.43" y2="33.66" gradientUnits="userSpaceOnUse"><stop stop-color="#4E4D51"/><stop offset=".76" stop-color="#fff"/></linearGradient><linearGradient id="t5gkhymhm" x1="31.17" y1="36.26" x2="27.13" y2="37.73" gradientUnits="userSpaceOnUse"><stop stop-color="#fff"/><stop offset="1" stop-color="#8F9294"/></linearGradient><linearGradient id="u5gkhymhm" x1="32.95" y1="30.62" x2="31.59" y2="36.06" gradientUnits="userSpaceOnUse"><stop stop-color="#909093"/><stop offset="1" stop-color="#fff"/></linearGradient><linearGradient id="v5gkhymhm" x1="31.01" y1="35.88" x2="28.6" y2="35.88" gradientUnits="userSpaceOnUse"><stop stop-color="#B7B6B7"/><stop offset="1" stop-color="#FBF9FA"/></linearGradient><linearGradient id="w5gkhymhm" x1="19.46" y1="38.3" x2="29.49" y2="41.03" gradientUnits="userSpaceOnUse"><stop stop-color="#F1F1F1"/><stop offset=".27" stop-color="#959597"/><stop offset="1" stop-color="#D2D1D4"/></linearGradient><linearGradient id="x5gkhymhm" x1="33.89" y1="40.23" x2="21.61" y2="40.39" gradientUnits="userSpaceOnUse"><stop stop-color="#FDFEFF"/><stop offset=".79" stop-color="#969799"/><stop offset="1" stop-color="#D9D9DB"/></linearGradient></defs></svg>