<!-- by TradingView --><svg width="56" height="56" viewBox="0 0 56 56" xmlns="http://www.w3.org/2000/svg"><path fill="#F0F3FA" d="M0 0h56v56H0z"/><path d="M26.05 12.15c.8-.15 1.67-.15 2.46-.15 3.98 1.32-5.66 10.69-12.6 17.45-1.18 1.14-2.27 2.2-3.2 3.14-.3-.88-.44-1.76-.59-2.64a15.92 15.92 0 0 1 13.93-17.8Zm8.85 4.54c-.08 1.4-1.1 3.22-1.38 3.74-.91 1.7-2.12 3.7-3.64 6.24-1.5 2.5-3.3 5.5-5.43 9.22-.65 1.1-.5 2.05.37 2.7 1.01.74 2.97 1.33 5.22 1.03 9.79-1.39 12.4-4.98 13.12-6.44A15.98 15.98 0 0 0 32.93 12.8c.44.22 2.11 1.46 1.97 3.88ZM21.48 42.63a15.76 15.76 0 0 0 8.48 1.24 15.9 15.9 0 0 0 11.32-7.03 37.04 37.04 0 0 1-12.77 5.35 21.4 21.4 0 0 1-7.03.44Z" fill="#008C99"/></svg>