<!-- by TradingView --><svg width="56" height="56" viewBox="0 0 56 56" xmlns="http://www.w3.org/2000/svg"><path fill="#F0F3FA" d="M0 0h56v56H0z"/><path d="m29.24 23.98-.57 1.53-.33-.07.05-1.64c.08-2.43.18-5.9.6-8.31.23-1.36.96-4.75 2.35-4.47h.07c1.4.29.77 3.7.47 5.04-.54 2.39-1.78 5.64-2.64 7.92Zm-2.48 0 .57 1.53.33-.07-.05-1.63c-.08-2.43-.18-5.9-.6-8.32-.23-1.36-.96-4.75-2.35-4.47h-.07c-1.4.29-.77 3.7-.47 5.04a67.82 67.82 0 0 0 2.64 7.91Zm1.63 8.2-.05-1.62.33-.07.57 1.53a67.9 67.9 0 0 1 2.64 7.92c.3 1.34.92 4.75-.47 5.03l-.07.01c-1.4.28-2.12-3.1-2.35-4.47-.42-2.41-.52-5.9-.6-8.32Zm-1.96-6.23-1.13-1.2c-1.66-1.77-4.04-4.3-5.45-6.3-.8-1.12-2.68-4.03-1.5-4.82l.06-.04c1.18-.8 3.15 2.06 3.89 3.23a67.92 67.92 0 0 1 3.73 7.45l.68 1.5-.28.18Zm3.54 5.79-.68-1.5.28-.2c.3.34.7.75 1.13 1.21a67.71 67.71 0 0 1 5.45 6.3c.8 1.12 2.68 4.03 1.5 4.82l-.06.04c-1.18.8-3.15-2.06-3.9-3.23-1.3-2.06-2.72-5.23-3.72-7.44Zm-5.7-5.7c-2.2-1-5.38-2.43-7.45-3.74-1.17-.74-4.02-2.7-3.23-3.89l.04-.05c.79-1.19 3.7.7 4.83 1.5 2 1.4 4.53 3.78 6.3 5.45l1.2 1.12-.2.28-1.48-.68Zm6.98 4.65-1.2-1.12.19-.28 1.49.68c2.21 1 5.38 2.42 7.45 3.73 1.17.74 4.02 2.7 3.23 3.89l-.04.05c-.79 1.19-3.7-.7-4.83-1.5-2-1.4-4.53-3.78-6.3-5.45Zm-5.8-3.03-1.66-.05c-2.42-.08-5.9-.18-8.3-.6-1.36-.23-4.75-.96-4.47-2.35v-.07c.29-1.4 3.7-.77 5.04-.47 2.38.54 5.63 1.77 7.9 2.63l1.55.58-.07.33Zm6.58 1.59c-.59-.23-1.11-.43-1.54-.58l.07-.33 1.65.05c2.42.08 5.9.18 8.3.6 1.36.23 4.75.96 4.47 2.35v.07c-.29 1.4-3.7.77-5.04.47a67.75 67.75 0 0 1-7.9-2.63Zm-6.52-.58c-.43.15-.95.35-1.54.58-2.27.86-5.52 2.09-7.9 2.63-1.35.3-4.76.92-5.04-.47l-.01-.07c-.28-1.4 3.11-2.12 4.47-2.35 2.4-.42 5.89-.52 8.31-.6l1.64-.05.07.33Zm6.69-1.06-1.64.05-.07-.33c.43-.15.95-.35 1.54-.58 2.27-.86 5.52-2.09 7.9-2.63 1.35-.3 4.76-.93 5.04.47l.01.07c.28 1.4-3.1 2.12-4.47 2.35-2.41.42-5.89.52-8.31.6Zm-7.45 3.08a67.77 67.77 0 0 1-6.3 5.46c-1.12.8-4.03 2.68-4.82 1.5l-.04-.06c-.8-1.18 2.06-3.15 3.23-3.9a67.86 67.86 0 0 1 7.45-3.72l1.5-.68.18.28-1.2 1.12Zm6.98-4.66-1.5.68-.18-.28 1.2-1.12c1.76-1.66 4.3-4.05 6.3-5.46 1.12-.8 4.03-2.68 4.82-1.5l.04.06c.8 1.18-2.06 3.15-3.23 3.89a67.81 67.81 0 0 1-7.45 3.73Zm-5.02 4.2-.68 1.5a68 68 0 0 1-3.73 7.45c-.74 1.17-2.7 4.02-3.89 3.23l-.05-.04c-1.19-.79.7-3.7 1.5-4.83 1.4-1.99 3.78-4.52 5.44-6.29l1.13-1.2.28.19Zm3.99-5.48-1.13 1.2-.28-.19c.2-.4.42-.92.68-1.5 1-2.21 2.43-5.38 3.73-7.44.74-1.17 2.7-4.02 3.89-3.23l.05.04c1.19.79-.7 3.7-1.5 4.83-1.4 2-3.78 4.52-5.44 6.29Zm-3.1 7.44c-.07 2.42-.17 5.9-.59 8.32-.23 1.36-.96 4.75-2.35 4.47h-.07c-1.4-.29-.77-3.7-.47-5.04.54-2.39 1.78-5.64 2.64-7.91l.57-1.54.33.07-.05 1.63Z" fill="#B1911F"/></svg>