<!-- by TradingView --><svg width="56" height="56" viewBox="0 0 56 56" xmlns="http://www.w3.org/2000/svg"><path fill="#F0F3FA" d="M0 0h56v56H0z"/><path d="M47.03 31.69H13V32h34.03v-.31Z" fill="url(#ai5bthdl1)"/><path d="M16.84 26.1h.14v1.44h-.16c-.11-.8-.62-1.4-1.4-1.4-1.21 0-1.57 1.3-1.57 2.4 0 1.1.38 2.26 1.56 2.26.94 0 1.28-.73 1.48-1.6H17v1.63h-.09l-.16-.37c-.44.4-.89.54-1.47.54-1.36 0-2.28-.95-2.28-2.44S13.98 26 15.35 26c.55 0 .89.15 1.36.46l.13-.36ZM20.18 27l1.16 3.1c.2.5.22.7.66.7v.2h-1.7v-.2c.31 0 .67-.08.44-.46l-.26-.77h-1.36l-.11.3c-.07.21-.2.5-.2.67 0 .28.31.28.5.28V31H18v-.18c.56 0 .66-.66.96-1.37l.96-2.45h.26Zm.2 2.37-.56-1.53-.58 1.53h1.15ZM23.84 30c0 .63.07.82.66.82V31h-2.02v-.18c.6 0 .68-.19.68-.81v-2.67c0-.1-.1-.13-.22-.13h-.46c-.61 0-.78.27-.8.79h-.18v-1h4v1h-.17c-.03-.55-.2-.8-.8-.8h-.47c-.15 0-.22.04-.22.14v2.67ZM28.34 30c0 .63.07.82.66.82V31h-2.02v-.18c.6 0 .68-.19.68-.81v-2.67c0-.1-.1-.13-.22-.13h-.46c-.61 0-.78.27-.8.79H26v-1h4v1h-.17c-.03-.55-.2-.8-.8-.8h-.47c-.15 0-.22.04-.22.14v2.67ZM41.34 30c0 .63.07.82.66.82V31h-2.02v-.18c.6 0 .68-.19.68-.81v-2.67c0-.1-.1-.13-.22-.13h-.46c-.61 0-.78.27-.8.79H39v-1h4v1h-.17c-.03-.55-.2-.8-.8-.8h-.47c-.15 0-.22.04-.22.14v2.67ZM31.38 28c0-.61 0-.8-.38-.8V27h2.77v1h-.12c-.09-.66-.23-.8-.8-.8l-.73.03c-.08 0-.12.03-.12.1v1.5c.6 0 .98-.1 1-.82h.15v1.7H33c-.02-.62-.4-.7-1-.7v1.24c0 .44.35.57.81.57.65 0 .94-.02 1.04-.82H34v1h-3v-.18c.3 0 .38-.16.38-.77V28ZM35.58 27.98c0-.62-.02-.8-.58-.8V27h1.94c.8 0 1.45.26 1.45 1 0 .55-.42.96-1.1 1.01l.98 1.3c.22.28.38.48.73.48V31h-1.08l-1.17-1.57c-.16-.21-.18-.21-.46-.21v.8c0 .62.02.8.58.8V31H35v-.18c.58 0 .58-.18.58-.8v-2.04Zm.73 1.02h.26c.7 0 1.03-.32 1.03-.89 0-.6-.33-.93-.92-.93-.18 0-.4 0-.4.18V29h.03ZM45.5 31c-1.25 0-2-.8-2-2s.75-2 2-2 2 .8 2 2-.75 2-2 2Zm0-3.82c-.9 0-1.2.9-1.2 1.82 0 .93.3 1.82 1.2 1.82.92 0 1.22-.9 1.22-1.82 0-.93-.3-1.82-1.22-1.82ZM51.4 31h-.22l-2.34-3.21h-.02v2.2c0 .65.15.83.62.83V31H48v-.18c.49 0 .6-.18.6-.84v-2.52c-.14-.2-.4-.28-.6-.28V27h1.04l2.12 2.98h.02v-2.04c0-.66-.13-.76-.6-.76V27H52v.18c-.49 0-.6.1-.6.76V31Z" fill="#002D56"/><path fill-rule="evenodd" d="M12 24v8H4v-8h8Zm-1 5.56c-.16.39-.4 1.44-.4 1.44H5s.06-.18.25-.21c.22-.03.62-.09.71-.3l1.43-4.35c.13-.33.16-.51.16-.63.03-.15-.06-.24-.37-.24 0 0-.19 0-.31-.06-.13-.03-.16-.21-.16-.21h2.86s-.06.18-.19.21c-.09.03-.34.03-.34.03-.4.03-.5.09-.62.42l-1.59 4.95h3.14c.13 0 .25-.09.44-.48l.19-.36c.06-.21.4-.21.4-.21Z" fill="#002D56"/><defs><linearGradient id="ai5bthdl1" x1="13.01" y1="31.83" x2="47.02" y2="31.83" gradientUnits="userSpaceOnUse"><stop stop-color="#002D56"/><stop offset=".05" stop-color="#00335C"/><stop offset=".43" stop-color="#00568A"/><stop offset=".6" stop-color="#1F6099"/><stop offset=".71" stop-color="#1E66A2" stop-opacity=".72"/><stop offset="1" stop-color="#1A75BB" stop-opacity="0"/></linearGradient></defs></svg>