<!-- by TradingView --><svg width="56" height="56" viewBox="0 0 56 56" xmlns="http://www.w3.org/2000/svg"><path fill="#F0F3FA" d="M0 0h56v56H0z"/><path fill-rule="evenodd" d="M4 32v-8h1.5v7H9v1H4Zm6.35-3h3.62c.14-1.04-.12-3-2.31-3C8.97 26 9 28.8 9 29.11v.02c0 .19.09 2.87 2.66 2.87 1.41 0 2.13-.67 2.3-1l-.67-.72c-.25.2-.94.72-1.63.72-.87 0-1.3-1.14-1.3-2Zm0-1h2.46c-.03-.33-.32-1-1.17-1a1.3 1.3 0 0 0-1.29 1Zm5.24-.58-.34-.47a4.16 4.16 0 0 1 2.44-.95c1.68 0 2.24 1.2 2.31 1.8V32h-.97a.33.33 0 0 1-.33-.33v-.5c-.25.28-.98.83-1.88.83A1.7 1.7 0 0 1 15 30.46c0-1.65 2.4-1.99 3.6-1.94 0-.66-.18-1.39-1.02-1.39-.55 0-.95.23-1.23.4-.15.08-.26.14-.34.14-.2 0-.36-.17-.42-.25Zm3 2.97v-1.03c-2.96 0-2.35 1.61-1.33 1.61.57 0 1.12-.38 1.33-.58ZM21 26h.97c.3 0 .53.24.53.55v.48c.29-.44.88-1.03 1.68-1.03.41 0 .72.14.82.21l-.42 1.43a1.34 1.34 0 0 0-.77-.2c-.44 0-.75.17-1.31 1.04V32H21v-6Zm8.1 0c-.7 0-1.25.35-1.6.68 0-.38-.3-.68-.65-.68H26v6h1.5v-4.1c.25-.35.65-.74 1.18-.74.76 0 .83.67.82 1V32H31v-3.92c0-1.29-.7-2.08-1.9-2.08Zm10.97 3.95.93.83A4.17 4.17 0 0 1 38 32c-1.16 0-4-.73-4-3.9 0-3.16 2.46-4.1 4.26-4.1A3.8 3.8 0 0 1 41 25.1l-.83.88c-.3-.25-1.1-.74-1.91-.74-1 0-2.64.66-2.64 2.52 0 1.87 1.02 3.02 2.38 3.02 1.1 0 1.84-.56 2.07-.83ZM41 24l2.33 8h1.37l1.82-5.75L48.28 32h1.39L52 24h-1.33a.37.37 0 0 0-.36.29L48.9 29.8l-1.62-5.54a.37.37 0 0 0-.36-.27h-.78c-.17 0-.31.11-.36.27l-1.62 5.54-1.4-5.52a.37.37 0 0 0-.35-.29H41Z" fill="#13235A"/></svg>