<!-- by TradingView --><svg width="56" height="56" viewBox="0 0 56 56" fill="none" xmlns="http://www.w3.org/2000/svg">
<rect width="56" height="56" fill="#051C48"/>
<path fill-rule="evenodd" clip-rule="evenodd" d="M28 10L29.1564 11.1564L44.8436 26.8436L46 28L44.8436 29.1564L29.1564 44.8436L28 46L26.8436 44.8436L11.1564 29.1564L10 28L11.1564 26.8436L26.8436 11.1564L28 10ZM28.7709 44.4556L44.4581 28.7684L45.2291 28L44.4581 27.2291L28.7709 11.5418L28 10.7709L27.2291 11.5418L11.5418 27.2265L10.7709 27.9975L11.5418 28.7684L27.2291 44.4556L28 45.2265L28.7709 44.4556ZM28 44.0727L11.9273 28L28 11.9273L44.0727 28L28 44.0727ZM26.4988 14.7118C26.4049 14.6306 26.3213 14.5419 26.2502 14.4481L24.9671 15.7287C25.8901 16.2866 26.3213 17.3314 26.6535 18.148C26.6731 18.1965 26.7021 18.2709 26.7385 18.3642C27.0024 19.0409 27.6545 20.7129 27.9442 20.7397C28.0026 20.7468 27.8949 20.1555 27.791 19.5844C27.7096 19.1372 27.6304 18.7024 27.6349 18.5765C27.5943 17.4075 27.3863 15.4878 26.4988 14.7118ZM27.8885 34.7329C28.9028 34.7329 30.1809 34.525 31.7025 33.0972C30.1809 33.929 28.3956 33.2748 28.3956 32.0246C28.3956 32.0246 28.4616 30.716 30.0491 31.2511C31.6239 31.7836 31.7684 29.0499 30.4675 28.4717C29.8701 28.2074 29.122 28.3509 28.5373 28.463C28.2807 28.5122 28.0556 28.5554 27.8885 28.5554C27.7214 28.5554 27.4966 28.512 27.2404 28.4626C26.6563 28.3498 25.9087 28.2056 25.3094 28.4717C24.0085 29.0499 24.1505 31.7836 25.7278 31.2511C27.3153 30.716 27.3813 32.0246 27.3813 32.0246C27.3813 33.2748 25.596 33.929 24.0744 33.0972C25.596 34.5275 26.8741 34.7329 27.8885 34.7329ZM26.0829 18.3787C25.7557 17.5749 25.3601 16.6137 24.5131 16.1826L23.3973 17.2959C23.675 17.4928 23.9304 17.7513 24.1881 18.0121C24.8036 18.635 25.4323 19.2715 26.41 19.1142C26.2984 18.9037 26.1945 18.6552 26.0829 18.3787ZM24.1505 19.1826C24.0085 18.8048 23.5622 18.1936 22.9434 17.7549L22.2029 18.4954C23.1259 19.3588 23.2298 20.5615 23.2487 20.7808C23.2508 20.8043 23.2518 20.8165 23.2528 20.8158C23.6712 20.5672 24.3762 19.8141 24.1505 19.1826ZM25.2638 26.3213C26.1514 25.1344 27.2697 23.2655 24.4142 22.4743C23.3619 22.1844 22.1621 23.0645 22.067 23.1343C22.063 23.1372 22.061 23.1387 22.0609 23.1387C22.4397 24.5833 23.4917 24.6183 24.2816 24.6445C24.798 24.6617 25.2023 24.6752 25.2333 25.0761C25.2599 25.412 24.967 25.9298 24.6157 26.5509C24.2297 27.2332 23.7732 28.0402 23.5926 28.8673C23.306 30.1809 23.5951 31.525 23.5951 31.525C23.3973 29.2021 24.7033 27.0668 25.2638 26.3213ZM20.8868 19.8115L20.8132 19.8851L19.3322 21.3711C19.3322 21.3711 19.3601 21.6526 19.3804 21.8073C19.4007 21.9645 19.4362 22.0812 19.4768 22.208C19.5174 22.3348 19.6771 22.6594 19.6771 22.6594L19.8699 23.0043C19.8699 23.0043 19.9561 23.1539 20.159 23.5241C20.3618 23.8918 20.5901 24.6095 20.5901 24.6095C20.5901 24.6095 20.6053 24.4497 20.6205 24.2443C20.6298 24.1191 20.6324 24.1023 20.6394 24.0583C20.6439 24.03 20.6502 23.9907 20.6611 23.9045C20.689 23.6864 20.76 23.3923 20.76 23.3923C20.76 23.3923 20.8158 23.1792 20.8817 22.9561C20.9462 22.7402 21.0423 22.5267 21.0892 22.4226L21.0922 22.4159C21.1255 22.3418 21.1426 22.3097 21.189 22.2225C21.2061 22.1904 21.2272 22.1508 21.2545 22.0989C21.3585 21.9062 21.5106 21.7109 21.5943 21.607C21.6593 21.5262 21.6983 21.4883 21.7445 21.4433C21.7578 21.4304 21.7717 21.4169 21.787 21.4016C21.8555 21.3306 21.853 21.3052 21.8428 21.2215C21.8327 21.1378 21.8124 21.0617 21.782 20.9679C21.7515 20.8741 21.6907 20.7524 21.6602 20.6915C21.6298 20.6306 21.5284 20.4683 21.4624 20.3694C21.399 20.2768 21.3356 20.2052 21.2609 20.1209L21.2519 20.1108C21.1757 20.0271 21.1113 19.9745 21.0566 19.9297L21.0516 19.9257C20.9958 19.8775 20.8868 19.8115 20.8868 19.8115ZM18.8124 23.2376C18.6425 22.9764 18.4776 22.6797 18.3331 22.3652L14.4886 26.2097C14.8614 26.0702 15.2038 25.8851 15.4903 25.6366C16.6087 24.6704 18.9823 24.4497 19.7101 24.4016L19.7177 24.3255C19.6518 24.2342 19.5199 24.0896 19.4235 23.9857C19.2232 23.7676 19 23.5216 18.8124 23.2376ZM12.6983 28L15.7262 31.0279C16.3094 30.5918 16.8369 29.9907 17.0423 29.1792C17.4328 27.6044 19.2587 26.3948 19.6923 26.1285C19.6467 25.8876 19.6264 25.6568 19.6264 25.4311C19.6264 25.2942 19.634 25.1598 19.6442 25.0254C18.8707 25.0812 16.8115 25.3094 15.8935 26.1032C15.2722 26.6382 14.4531 26.9273 13.6264 27.0719L12.6983 28ZM17.6382 29.3263C17.4024 30.2748 16.8166 30.9696 16.1699 31.4717L18.962 34.2612C19.2739 33.7211 19.4945 33.0237 19.4464 32.1336C19.3475 30.3711 20.4481 28.8521 20.798 28.4159C20.3339 27.7667 20.0398 27.2266 19.8648 26.7473C19.317 27.1099 17.935 28.1268 17.6382 29.3263ZM19.4007 34.7025L21.6501 36.9519C21.8783 36.3153 21.9747 35.5064 21.6805 34.5478C21.077 32.585 22.1243 30.5512 22.1699 30.465C22.1852 30.4371 22.2029 30.4117 22.2257 30.3914C21.9772 29.9781 21.6754 29.5419 21.3128 29.093C21.2987 29.075 21.2851 29.0575 21.2718 29.0403C21.2419 29.0018 21.2133 28.965 21.1835 28.9282C20.8082 29.4303 19.9814 30.7033 20.0601 32.1006C20.1184 33.2012 19.8141 34.0558 19.4007 34.7025ZM22.2663 34.3652C22.6467 35.6053 22.4565 36.6374 22.1142 37.4159L23.8005 39.0998C23.7879 38.7067 23.7118 38.2832 23.5419 37.8267C22.9383 36.224 23.4785 34.5022 23.6966 33.924C23.3162 33.1936 23.0322 32.4836 22.8978 31.918C22.8318 31.6492 22.7228 31.3576 22.5782 31.0508C22.3297 31.6492 21.8631 33.0541 22.2663 34.3652ZM24.1175 37.6112C24.4066 38.377 24.4599 39.0744 24.3863 39.6881L25.9891 41.2934C25.9307 40.9916 25.8394 40.6771 25.7 40.3551C24.9848 38.6966 25.2308 36.7794 25.3044 36.3229C24.8707 35.8183 24.465 35.2426 24.1099 34.6568C23.9121 35.3745 23.7169 36.5436 24.1175 37.6112ZM26.6814 41.9831L27.4827 42.7845C27.5537 42.4472 27.5994 42.0516 27.5968 41.5748C27.5968 40.6239 27.541 39.5182 27.0998 38.5875C26.372 37.1877 27.8707 35.7295 27.8707 35.7295C27.8707 35.7295 26.3263 35.8639 25.9003 37.4311C25.7278 38.0575 25.9104 39.29 26.2629 40.1065C26.5495 40.771 26.6661 41.4024 26.6814 41.9831ZM27.5081 37.2587C27.3407 37.8699 27.9442 39.1175 27.9442 39.1175C27.9442 39.1175 28.5453 37.9079 28.3754 37.2486C28.2612 36.8682 28.0736 36.5461 27.9442 36.3534C27.8124 36.5486 27.6222 36.8732 27.5081 37.2587ZM28.4134 42.8885L29.1894 42.1125C29.1894 42.1099 29.1894 42.1074 29.1919 42.1049C29.1919 41.4937 29.306 40.8191 29.6129 40.1091C29.9628 39.295 30.1454 38.0626 29.9755 37.4337C29.547 35.8639 28.0026 35.7321 28.0026 35.7321C28.0026 35.7321 29.5013 37.1902 28.7735 38.5901C28.3297 39.5182 28.2765 40.6264 28.2765 41.5774C28.2765 42.0998 28.3297 42.5309 28.4134 42.8885ZM31.5123 39.7896C31.421 39.153 31.4666 38.4202 31.771 37.6112C32.1792 36.5233 31.9688 35.3339 31.7684 34.6213C31.4185 35.2071 31.0127 35.7853 30.5791 36.29C30.645 36.6856 30.9189 38.656 30.1885 40.3525C30.0262 40.7253 29.9273 41.0854 29.8716 41.4303L31.5123 39.7896ZM32.3466 37.8267C32.159 38.3289 32.0829 38.7955 32.0829 39.219L33.8048 37.4945C33.4421 36.7084 33.2266 35.6459 33.6196 34.3652C34.0305 33.0288 33.536 31.5934 33.2925 31.0153C33.1378 31.3348 33.0262 31.6391 32.9578 31.918C32.8259 32.4734 32.547 33.1708 32.1767 33.8885C32.3872 34.4286 32.9628 36.1911 32.3466 37.8267ZM34.208 34.5478C33.9011 35.5495 34.0153 36.3863 34.2663 37.0355L36.5284 34.771C36.0947 34.1167 35.765 33.2393 35.8284 32.0981C35.9045 30.683 35.0575 29.3948 34.6898 28.9054C34.6682 28.9327 34.6471 28.96 34.6258 28.9875C34.5996 29.0214 34.5732 29.0555 34.5453 29.0905C34.1902 29.5343 33.8885 29.9628 33.6425 30.3711C33.6729 30.3965 33.6983 30.4269 33.7185 30.465C33.7192 30.4663 33.7201 30.468 33.7212 30.4701C33.7928 30.6121 34.8025 32.6144 34.208 34.5478ZM36.4421 32.1361C36.3914 33.0643 36.6323 33.787 36.9671 34.3348L39.7819 31.5224C39.1099 31.0178 38.4937 30.3077 38.2502 29.3263C37.9459 28.1091 36.5284 27.0795 35.9983 26.7321C35.8234 27.2088 35.5343 27.749 35.0727 28.3956C35.4075 28.809 36.541 30.3483 36.4421 32.1361ZM40.2257 31.0787L43.3018 28L42.3965 27.0972C41.5241 26.9603 40.6492 26.6712 39.995 26.1057C39.0643 25.2993 36.962 25.0787 36.2139 25.0229C36.224 25.1573 36.2317 25.2942 36.2317 25.4311C36.2317 25.6518 36.2139 25.8749 36.1708 26.1108C36.5436 26.339 38.4481 27.5664 38.8487 29.1792C39.0567 30.0212 39.6171 30.6374 40.2257 31.0787ZM41.5698 26.2655L37.5655 22.2612C37.4083 22.6137 37.2308 22.9485 37.0457 23.2376C36.858 23.5241 36.6349 23.7701 36.4345 23.9857C36.3382 24.0896 36.2063 24.2342 36.1404 24.3255C36.1429 24.3483 36.1454 24.3737 36.148 24.399C36.8377 24.4421 39.2646 24.6577 40.3982 25.6366C40.7278 25.9206 41.1336 26.1209 41.5698 26.2655ZM34.0939 20.9818C34.0669 21.0667 34.0453 21.1348 34.0406 21.2114C34.0401 21.2202 34.0396 21.2285 34.039 21.2362C34.0343 21.3066 34.0322 21.3376 34.0939 21.4016C34.1058 21.4135 34.1168 21.4244 34.1274 21.4348C34.1777 21.4844 34.2175 21.5236 34.2866 21.6095C34.3703 21.7135 34.5199 21.9087 34.6239 22.1015C34.6365 22.1246 34.6478 22.1452 34.658 22.1638C34.7314 22.2978 34.7461 22.3246 34.7862 22.4159C34.8344 22.5199 34.9333 22.738 34.9992 22.9612C35.0677 23.1843 35.1209 23.3923 35.1209 23.3923C35.1209 23.3923 35.1919 23.6864 35.2198 23.9071C35.2307 23.9918 35.2369 24.0306 35.2414 24.0584C35.2484 24.1022 35.2511 24.1187 35.2604 24.2443C35.2781 24.4497 35.2858 24.6095 35.2858 24.6095C35.2858 24.6095 35.5267 23.8893 35.7295 23.5191C35.9324 23.1488 36.0186 22.9992 36.0186 22.9992L36.2114 22.6543C36.2114 22.6543 36.3711 22.3297 36.4117 22.2029C36.4145 22.1935 36.4174 22.1841 36.4202 22.1747C36.4553 22.0582 36.4893 21.9454 36.5081 21.8022C36.5284 21.6475 36.5537 21.2545 36.5537 21.2519L36.1581 20.8563L35.0702 19.7684C35.0702 19.7684 34.9003 19.8572 34.8344 19.9155C34.8195 19.929 34.8035 19.9426 34.7863 19.9571C34.7421 19.9948 34.6907 20.0385 34.634 20.1006C34.5579 20.1869 34.492 20.2629 34.4235 20.3593C34.3551 20.4557 34.2536 20.6205 34.2232 20.6814C34.1928 20.7422 34.1319 20.8639 34.1015 20.9578C34.0989 20.9659 34.0964 20.974 34.0939 20.9818ZM31.2395 26.5484C30.889 25.9285 30.5968 25.4116 30.6222 25.0761C30.6532 24.6753 31.0569 24.6621 31.5725 24.6453C32.3617 24.6195 33.4132 24.5851 33.7921 23.1387C33.7921 23.1387 32.5368 22.1699 31.4413 22.4743C28.5833 23.268 29.7042 25.137 30.5918 26.3213C31.1522 27.0668 32.4582 29.2046 32.2604 31.525C32.2604 31.525 32.5495 30.1784 32.2629 28.8673C32.0822 28.0392 31.6255 27.2313 31.2395 26.5484ZM33.7794 18.4776L33.044 17.7422C32.4125 18.1809 31.9535 18.7997 31.8065 19.1826C31.5808 19.8141 32.2858 20.5698 32.7042 20.8158C32.7055 20.8166 32.707 20.8016 32.7097 20.7731C32.7327 20.5332 32.8478 19.3322 33.7794 18.4776ZM31.7664 18.0181C32.0325 17.749 32.2962 17.4824 32.585 17.2832L31.4717 16.1699C30.6044 16.5934 30.2038 17.5672 29.8741 18.3813C29.7625 18.6602 29.6611 18.9087 29.547 19.1167C30.524 19.2742 31.1514 18.6399 31.7664 18.0181ZM31.0203 15.716L29.7169 14.4126C29.6408 14.5191 29.5546 14.6205 29.4506 14.7118C28.563 15.4878 28.3551 17.41 28.3145 18.5765C28.3189 18.7016 28.2402 19.1321 28.159 19.5764C28.0542 20.1501 27.9451 20.7468 28.0051 20.7397C28.2945 20.7132 28.936 19.0683 29.2039 18.3816C29.2435 18.2799 29.275 18.1993 29.2959 18.148C29.6306 17.3213 30.0744 16.2688 31.0203 15.716ZM27.9442 16.2181C28.1446 15.4371 28.4667 14.7042 28.984 14.2503C29.0905 14.1539 29.1716 14.0474 29.2376 13.9333L28.0026 12.6983L26.694 14.0068C26.7498 14.093 26.8208 14.1767 26.9045 14.2503C27.4218 14.7016 27.7439 15.4371 27.9442 16.2181Z" fill="white"/>
</svg>
