<!-- by TradingView --><svg width="56" height="56" viewBox="0 0 56 56" xmlns="http://www.w3.org/2000/svg"><path fill="#F0F3FA" d="M0 0h56v56H0z"/><path d="M40.39 32.5a24.8 24.8 0 0 0-2.12-5.36 43.56 43.56 0 0 0 .16-.27 22.67 22.67 0 0 0 2.46-5.08c.55-1.7.84-3.44.53-5.23-.24-1.43-.91-2.54-2.36-3.02a5.42 5.42 0 0 0-2.5-.14c-1.83.26-3.5.98-5.12 1.82a34.5 34.5 0 0 0-2.74 1.6c-1.3-.85-2.7-1.55-4.14-2.1-1.45-.55-2.96-.9-4.5-1.03-.41-.82-1.4-1-2-.01-4.3.35-6.63 2.86-6.7 7.32H8v8h5.66c.3.56.6 1.03.92 1.52l.47.72a22 22 0 0 0-1.2 2.68 11.65 11.65 0 0 0-.75 5.73c.33 2.2 1.87 3.41 4.08 3.28 1.2-.1 2.36-.36 3.48-.8a24.76 24.76 0 0 0 3.65-1.76c1.09.65 2.24 1.2 3.43 1.63 2.57.91 5.2 1.3 7.91.74 2-.4 3.57-1.4 4.5-3.24h-.21a5.83 5.83 0 0 1-4.43 3.1c-2.47.45-4.87.07-7.22-.75-.82-.3-1.62-.65-2.4-1.05l-.78-.43-.4-.22.44-.29.56-.36h-.9l-.56.35-.52-.35h-.78l.48.33.39.26c-.58.35-1.18.67-1.8.96-1.29.62-2.62 1.14-4.04 1.36-.46.07-.92.1-1.38.07-1.67-.1-2.74-1.03-3.07-2.69a9.23 9.23 0 0 1 .13-3.67 17.35 17.35 0 0 1 1.65-4.45l1.24 1.7v-.75c-.12-.17-.25-.42-.39-.68a11.2 11.2 0 0 0-.53-.92c.3-.56.6-1.01.94-1.5l.36-.52H28v-8h-3.87l.32-.38.64-.58c1.1-1 2.1-1.9 3.39-2.76 3.91 2.4 7 5.59 9.38 9.53l-.96 1.4c-1.2-.08-1.6.82-1.22 1.59-.24.29-.47.6-.72.92-.46.61-.94 1.25-1.44 1.78h.73l1.82-2.33c.5.17.98.14 1.31-.35.3-.43.23-.87-.07-1.3l.84-1.2a23.41 23.41 0 0 1 2.04 5.18h.2Zm.12-11.2a21.45 21.45 0 0 1-2.53 5.31 30.47 30.47 0 0 0-9.04-9.64c2.45-1.49 4.9-2.84 7.77-3.14.6-.07 1.2-.03 1.8.13 1.42.38 2.17 1.39 2.41 2.8a9.89 9.89 0 0 1-.41 4.54ZM23.64 21H12.3c.04-3.47 2.21-6.08 5.92-6.35.68.55 1.06.54 1.75-.07 2.94.14 5.64 1.07 8.25 2.56-1.29.89-2.53 2.01-3.73 3.1l-.85.76Zm-8.47 9.25c-.27-.4-.52-.78-.74-1.25h2.03l-1.06 1.6-.23-.35Z" fill="#286493"/><path d="M17 33h6v6h-6v-6Zm24.75 6h-6.12v-6h6.12v6ZM48 33h-6v5.99h6V33Zm-18.75 0V39h-5.92V33h5.92Zm.28 6h5.81V33h-5.81V39Z" fill="#286493"/><path d="M20 22.52v1.3c-.17.06-.2-.07-.3-.14-.3-.24-.64-.42-1-.53-1.14-.3-2.03.32-2.18 1.52-.2 1.52.71 2.45 2.17 2.23V26h-1.05v-1H20v2.55c-1.06.39-2.08.65-3.22.25-1.1-.4-1.75-1.33-1.78-2.67-.05-2 1.26-3.23 3.22-3.12.64.03 1.22.2 1.78.51ZM10 22h1.48v5H14v1h-4v-6ZM22 22h1.5v5H26v1h-4v-6Z" fill="#fff"/><path d="M37.01 34h.9v1.44a6.41 6.41 0 0 0 .06.73.56.56 0 0 0 .34.25c.07.01.15.02.23 0a.54.54 0 0 0 .4-.13c.05-.03.09-.09.11-.14a.36.36 0 0 0 .03-.18c.02-.52 0-1.04 0-1.55V34h.9c.03.72.03 1.44-.03 2.16a.72.72 0 0 1-.18.4.97.97 0 0 1-.4.27 2.32 2.32 0 0 1-1.7 0 1.01 1.01 0 0 1-.42-.27.76.76 0 0 1-.2-.42c-.1-.7-.02-1.41-.04-2.15ZM21.34 36.75c-.86.42-1.81.3-2.25-.27a1.7 1.7 0 0 1 .06-2c.48-.55 1.44-.64 2.2-.2v.67c-.51-.35-1-.63-1.54-.18-.28.23-.35.85-.17 1.23.16.35.47.49.98.44a.73.73 0 0 0 .01-.5c-.14-.08-.3-.02-.46-.06-.09-.14-.04-.3-.04-.49h1.21v1.36ZM44.64 36.06V37H44v-2.99c.42 0 .83-.03 1.23.01.5.05.75.37.77.88.02.25-.04.5-.17.7a.86.86 0 0 1-.54.39c-.21.04-.43.06-.65.07Zm.02-.61c.26.03.5.04.62-.23a.47.47 0 0 0-.03-.49c-.16-.2-.37-.17-.6-.14v.86ZM27.63 37h-.84c-.39-.3-.52-.91-1.09-1.17V37H25v-3c.56.03 1.14-.06 1.7.1.54.15.7.89.32 1.34-.1.11-.21.22-.33.31l.46.6.48.65Zm-1.92-1.65c.29.02.54.06.7-.2a.36.36 0 0 0 0-.43c-.2-.23-.45-.14-.7-.11v.74ZM34 35.49c0 .93-.57 1.51-1.5 1.51-.92 0-1.5-.58-1.5-1.49 0-.93.58-1.52 1.5-1.51.93 0 1.5.57 1.5 1.49Zm-.8-.04c0-.19-.04-.37-.12-.54a.57.57 0 0 0-.24-.27.65.65 0 0 0-.36-.09.63.63 0 0 0-.34.1.56.56 0 0 0-.21.26c-.1.2-.14.4-.13.62 0 .57.27.91.7.92.43 0 .7-.35.7-1Z" fill="#F8F9FB"/></svg>