<!-- by TradingView --><svg xmlns="http://www.w3.org/2000/svg" width="56" height="56" viewBox="0 0 56 56"><path fill="#F0F3FA" d="M0 0h56v56H0z"/><path d="M5.7 28a9.3 9.3 0 0 1 16.4-6.01l1.29-1.1a11 11 0 1 0-.86 15.13l-1.17-1.24A9.3 9.3 0 0 1 5.7 28zm2.15 0a7.15 7.15 0 0 1 12.6-4.62l1.3-1.1a8.85 8.85 0 1 0-.7 12.17l-1.16-1.24A7.15 7.15 0 0 1 7.85 28z" fill="#586492"/><path d="M34.87 24.2c0-.58-.27-.95-.8-1.13-.19-.05-.4-.07-.64-.07h-1.47v.22c0 .06.03.1.09.1.03.02.13.04.3.07v3.22l-.3.06c-.06.01-.09.05-.09.1V27h1.3v-.23c0-.05-.02-.09-.07-.1a3.12 3.12 0 0 1-.32-.06v-1.18h.56c.45 0 .8-.12 1.07-.35.25-.21.37-.5.37-.88zm-.75-.58c.15.14.22.33.22.57 0 .25-.07.45-.24.6a.97.97 0 0 1-.67.21h-.56v-1.6h.56c.3 0 .54.08.69.22zM14.25 24.9c.4.18.59.47.59.88 0 .35-.12.64-.34.87a1.3 1.3 0 0 1-.96.35 3.06 3.06 0 0 1-.97-.15l-.16-.05v-.98h.27c.06 0 .1.03.1.1l.03.26.02.24c.28.1.5.15.66.15.16 0 .3-.02.4-.06.1-.03.2-.08.25-.14.14-.13.2-.3.2-.52 0-.2-.09-.37-.28-.48a1.2 1.2 0 0 0-.3-.13c-.38-.11-.61-.2-.68-.22-.1-.05-.2-.11-.3-.2-.19-.17-.29-.41-.29-.72a1 1 0 0 1 .31-.74c.23-.22.52-.36.87-.36.38 0 .74.1 1.1.25v.9h-.27c-.06 0-.1-.04-.11-.1l-.01-.1-.03-.38c-.25-.07-.47-.1-.64-.1-.24 0-.42.05-.54.17a.56.56 0 0 0-.19.43c0 .2.1.35.3.45.08.05.18.1.3.14.32.1.55.19.68.24zm2.17-.73c.16 0 .31.03.45.08.15.06.27.13.36.24.1.11.19.24.24.38.06.16.08.34.08.52 0 .08 0 .13-.02.15-.02.03-.05.04-.1.04h-1.82c0 .17.03.33.07.46.04.1.1.21.18.31a.7.7 0 0 0 .27.2c.11.04.23.06.35.06a1.06 1.06 0 0 0 .54-.13l.17-.09a.24.24 0 0 1 .1-.04.1.1 0 0 1 .1.05l.13.18a1.23 1.23 0 0 1-.48.32 1.96 1.96 0 0 1-.6.1 1.4 1.4 0 0 1-.52-.1c-.15-.06-.3-.15-.41-.28-.12-.12-.21-.28-.28-.46a1.88 1.88 0 0 1 0-1.16c.06-.17.15-.32.25-.44.12-.12.25-.22.41-.29.16-.06.34-.1.53-.1zm.01.35a.73.73 0 0 0-.54.2 1 1 0 0 0-.25.57h1.49a.9.9 0 0 0-.18-.55.7.7 0 0 0-.22-.16.75.75 0 0 0-.3-.05zm3.07-.35c-.28 0-.54.14-.77.43l-.04-.29c-.02-.06-.06-.1-.13-.1h-.67v.23c0 .06.02.1.07.1.03.02.14.04.32.07v2l-.32.06c-.05.01-.07.05-.07.1V27h1.26v-.23c0-.05-.02-.09-.08-.1l-.16-.03-.15-.03v-1.7c.19-.23.39-.35.61-.35.35 0 .52.22.52.65v1.8h.88v-.24c0-.05-.03-.08-.08-.1a5.56 5.56 0 0 1-.31-.06v-1.4c0-.2.06-.37.18-.49.1-.1.24-.16.4-.16.18 0 .32.06.42.17.1.1.14.27.14.49v1.8h.87v-.25c0-.05-.02-.08-.08-.1a3.16 3.16 0 0 0-.31-.06v-1.4c0-.33-.08-.59-.24-.77a.72.72 0 0 0-.3-.2 1.18 1.18 0 0 0-.42-.07.97.97 0 0 0-.47.14.86.86 0 0 0-.36.44.9.9 0 0 0-.25-.42.65.65 0 0 0-.46-.16zm3.89.47c.26-.32.57-.48.92-.48a.9.9 0 0 1 .76.36c.19.25.28.6.28 1.05 0 .41-.1.75-.31 1.01-.22.28-.5.42-.84.42-.33 0-.6-.11-.79-.32v.92l.15.03.15.03c.06.01.1.05.1.1V28h-1.28v-.23c0-.06.03-.1.09-.1l.3-.07v-2.99a4.83 4.83 0 0 1-.3-.06c-.06-.02-.09-.05-.09-.1v-.24h.69c.06 0 .1.04.13.1l.03.33zm.02 1.66c.16.21.37.32.63.32.27 0 .47-.09.6-.27.14-.18.21-.44.21-.78s-.06-.59-.18-.76a.6.6 0 0 0-.52-.26c-.29 0-.53.14-.74.42v1.33zm4.04-2.05a1.33 1.33 0 0 0-.98.02 1.17 1.17 0 0 0-.66.73c-.06.16-.1.34-.1.53 0 .23.04.44.1.63a1.23 1.23 0 0 0 .7.74c.15.07.33.1.52.1a1.83 1.83 0 0 0 .59-.1 1.23 1.23 0 0 0 .48-.32l-.14-.18a.1.1 0 0 0-.09-.05.24.24 0 0 0-.1.04 2.3 2.3 0 0 1-.4.18 1.06 1.06 0 0 1-.66-.02.7.7 0 0 1-.27-.2.88.88 0 0 1-.18-.31 1.44 1.44 0 0 1-.07-.46h1.82c.05 0 .08-.01.1-.04.02-.02.02-.07.02-.15 0-.18-.03-.36-.08-.52a1.1 1.1 0 0 0-.24-.38.92.92 0 0 0-.36-.24zm-.99.47c.13-.13.32-.2.55-.2.11 0 .21.03.3.06.08.04.15.1.22.16a.89.89 0 0 1 .18.55h-1.5a1 1 0 0 1 .25-.57zm2.85.05c.2-.4.48-.61.84-.61.14 0 .26.03.37.1l-.06.36c-.01.05-.03.07-.07.07-.03 0-.07 0-.13-.03a.8.8 0 0 0-.22-.02c-.32 0-.56.19-.7.57v1.4l.3.06c.06.01.08.05.08.1V27h-1.26v-.23c0-.05.03-.09.08-.1l.3-.06v-2a3.83 3.83 0 0 1-.3-.06c-.05-.02-.08-.05-.08-.1v-.24h.67c.05 0 .08.01.1.03.02.02.03.05.04.1l.03.43h.01zm8.1 1.89c.02 0 .04.02.05.04a.1.1 0 0 1 .02.06V27h-.56l-.11-.03c-.03 0-.05-.03-.06-.08l-.05-.31-.22.18a1.24 1.24 0 0 1-.75.24.89.89 0 0 1-.53-.18.68.68 0 0 1-.17-.23.76.76 0 0 1-.06-.33c0-.11.03-.22.1-.31.06-.1.15-.2.28-.27.15-.08.32-.15.52-.2.21-.04.48-.07.8-.07v-.2c0-.22-.05-.38-.15-.5-.09-.1-.22-.16-.4-.16a.82.82 0 0 0-.3.04 1.11 1.11 0 0 0-.28.15l-.08.05a.2.2 0 0 1-.13.04c-.04 0-.07 0-.08-.02a.24.24 0 0 1-.06-.06l-.09-.16c.15-.13.3-.24.5-.32a1.46 1.46 0 0 1 .99-.03c.12.05.22.12.3.2.08.09.14.2.18.33.04.12.06.26.06.42v1.42l.27.06v-.01zm-.75-.94c-.24 0-.43.01-.57.04-.14.02-.26.06-.38.11-.1.05-.17.1-.22.17a.36.36 0 0 0-.06.2c0 .06.01.12.04.19.02.05.05.1.1.13l.14.07c.06.02.12.02.18.02a1.03 1.03 0 0 0 .42-.1.85.85 0 0 0 .18-.11l.17-.15v-.57zm2.83-1.56c-.35 0-.63.2-.83.61l-.04-.43a.21.21 0 0 0-.04-.1c-.02-.02-.05-.03-.1-.03h-.67v.23c0 .06.03.1.08.1.03.02.13.04.3.07v2l-.3.05c-.05.02-.08.05-.08.1V27h1.26v-.23c0-.06-.03-.1-.08-.1l-.3-.06v-1.4c.14-.38.38-.57.7-.57a.8.8 0 0 1 .22.02l.13.03c.03 0 .06-.02.07-.07l.06-.36a.71.71 0 0 0-.38-.1zm2.93 2.5c.03 0 .05.02.06.04a.1.1 0 0 1 .02.06V27h-.56l-.11-.03c-.03 0-.05-.03-.06-.08l-.05-.31-.22.18a1.24 1.24 0 0 1-.75.24.89.89 0 0 1-.53-.18.68.68 0 0 1-.17-.23.76.76 0 0 1-.06-.33c0-.11.03-.22.09-.31.07-.1.16-.2.3-.27.14-.08.31-.15.51-.2.21-.04.48-.07.8-.07v-.2c0-.22-.05-.38-.15-.5-.09-.1-.23-.16-.4-.16a.82.82 0 0 0-.3.04 1.11 1.11 0 0 0-.28.15l-.08.05a.2.2 0 0 1-.13.04c-.04 0-.07 0-.09-.02a.24.24 0 0 1-.05-.06l-.09-.16c.14-.13.3-.24.5-.32a1.46 1.46 0 0 1 .99-.03c.12.05.22.12.3.2.08.09.14.2.18.33.04.12.06.26.06.42v1.42l.27.06v-.01zm-.75-.94c-.23 0-.42.01-.56.04-.14.02-.26.06-.38.11-.1.05-.17.1-.22.17a.36.36 0 0 0-.06.2c0 .06.01.12.04.19.02.05.05.1.1.13l.13.07c.07.02.13.02.18.02a1.03 1.03 0 0 0 .43-.1.85.85 0 0 0 .18-.11c.04-.03.1-.08.16-.15v-.57zm1.51 1.1c.12.12.29.18.5.18.12 0 .24-.02.36-.06.1-.04.2-.1.3-.19l-.13-.23c-.02-.02-.04-.04-.07-.04l-.05.02-.04.02-.03.03a.5.5 0 0 1-.23.07.3.3 0 0 1-.22-.1c-.06-.04-.09-.13-.09-.25v-1.65h.8v-.35h-.8v-.94h-.24c-.03 0-.06 0-.08.02a.07.07 0 0 0-.03.06l-.1.85-.46.06v.2c0 .03.01.06.03.07.02.02.04.03.08.03H43v1.68c0 .23.07.4.18.52zm2.8-.2c.27 0 .51-.12.74-.38v-1.62a3.71 3.71 0 0 0-.31-.07c-.05-.01-.08-.04-.08-.1v-.24h.87v2.39l.31.06c.05.02.08.05.08.1V27h-.68c-.06 0-.1-.04-.13-.1l-.03-.33c-.26.29-.57.44-.91.44-.3 0-.53-.1-.69-.3-.16-.18-.24-.43-.24-.74V24.6a4.83 4.83 0 0 1-.3-.06c-.06-.02-.09-.05-.09-.1v-.24h.88v1.75c0 .22.05.38.14.49.1.11.24.17.44.17zm3.72-2.3c-.29-.1-.52-.15-.71-.15-.33 0-.59.08-.77.24a.7.7 0 0 0-.26.55c0 .22.08.39.23.51l.24.15a8.67 8.67 0 0 0 .74.26l.16.13c.04.05.06.13.06.23s-.04.2-.14.28a.64.64 0 0 1-.42.13c-.23 0-.37-.03-.51-.1l-.03-.35c-.01-.04-.04-.07-.08-.07H48v.72c.3.1.55.15.85.15.3 0 .54-.09.73-.26a.8.8 0 0 0 .26-.63c0-.2-.07-.36-.22-.47a.72.72 0 0 0-.23-.15l-.26-.1a2.99 2.99 0 0 0-.17-.05l-.16-.05a.67.67 0 0 1-.32-.19c-.04-.04-.06-.1-.06-.2s.05-.18.14-.25c.1-.08.23-.12.38-.12.12 0 .26.02.43.06l.03.36c.01.05.04.05.1.05h.2v-.68zM15.16 31.7c.05.01.07.04.07.09V32h-1.11v-.21c0-.05.02-.08.07-.1l.23-.06-.3-.81h-1.68l-.3.81.22.07c.04.01.07.04.07.09V32h-1.11v-.21c0-.05.02-.08.07-.1l.21-.06L13.01 28h.53l1.4 3.63.22.07zm-1.77-2.82l-.12-.36-.1.36-.59 1.56h1.39l-.58-1.56zm4.32 2.7c-.23.28-.57.42-1.02.42a1.1 1.1 0 0 1-.86-.37 1.5 1.5 0 0 1-.35-1.04c0-.42.11-.76.33-1.02.23-.26.55-.4.97-.4.2 0 .47.07.81.2v.72h-.22c-.05 0-.08-.03-.09-.08l-.02-.2-.02-.18a.73.73 0 0 0-.12-.03l-.07-.02-.3-.02a.73.73 0 0 0-.56.27c-.14.18-.2.43-.2.76 0 .32.07.58.21.77a.7.7 0 0 0 .58.27c.23 0 .43-.08.6-.23a.15.15 0 0 1 .11-.04c.04 0 .07.01.09.04l.13.18zm1.4.42c.34 0 .64-.15.89-.44v1.05l-.37.07c-.05 0-.07.04-.07.1V33h1.36v-.23c0-.05-.03-.08-.09-.1a2.7 2.7 0 0 0-.34-.06v-3.29l-.2-.03a5.44 5.44 0 0 0-1.02-.12c-.35 0-.63.13-.85.37-.24.27-.36.61-.36 1.05 0 .45.1.8.29 1.05a.9.9 0 0 0 .76.36zm.89-.8c-.2.27-.45.41-.74.41-.47 0-.7-.34-.7-1.01v-.14c0-.08.02-.19.05-.32a.83.83 0 0 1 .26-.43c.12-.1.27-.16.45-.16h.03c.2 0 .42.03.65.08v1.57zm2.4.43c.26 0 .51-.13.73-.38v-1.63a3.83 3.83 0 0 0-.3-.06c-.06-.01-.09-.05-.09-.1v-.24h.88v2.4l.3.06c.06.01.09.05.09.1V32h-.68c-.07 0-.1-.02-.13-.09l-.04-.34c-.26.3-.56.43-.91.43-.3 0-.52-.08-.68-.27-.16-.2-.24-.45-.24-.76v-1.35a4.7 4.7 0 0 1-.3-.07c-.06 0-.1-.04-.1-.1v-.23h.89v1.75c0 .21.04.38.14.49.1.1.24.16.43.16zm2.24-3.14c.02.04.04.08.07.1a.4.4 0 0 0 .11.08c.04.02.08.03.13.03s.1 0 .13-.03a.41.41 0 0 0 .11-.07.41.41 0 0 0 .08-.11.29.29 0 0 0 0-.27.44.44 0 0 0-.08-.1.41.41 0 0 0-.1-.09.29.29 0 0 0-.14-.02c-.05 0-.1 0-.13.02a.41.41 0 0 0-.1.08.44.44 0 0 0-.08.11.3.3 0 0 0-.03.14c0 .05.01.1.03.13zm.92 3.21a.08.08 0 0 0-.06-.04l-.3-.06v-2.38h-.88v.23c0 .02 0 .05.02.07.01.02.03.03.06.03l.31.06v2l-.31.05a.08.08 0 0 0-.06.04.1.1 0 0 0-.02.07V32h1.26v-.23a.1.1 0 0 0-.02-.07zm1.4-2.52c.2 0 .44.05.72.14v.71h-.2c-.06 0-.09-.03-.1-.08l-.03-.35a1.92 1.92 0 0 0-.42-.06h-.01a.59.59 0 0 0-.37.12c-.1.07-.15.15-.15.24 0 .1.02.17.07.21.07.08.17.15.3.2l.17.04.18.05.26.1c.07.03.14.07.22.14.15.12.23.28.23.48a.8.8 0 0 1-.27.63c-.2.17-.43.25-.73.25s-.6-.05-.89-.14v-.72h.2c.04 0 .07.02.08.07l.03.34c.15.08.33.11.56.11.18 0 .32-.04.42-.13.1-.09.15-.18.15-.28 0-.1-.03-.18-.07-.23a.54.54 0 0 0-.16-.13 8.72 8.72 0 0 1-.73-.26 1.15 1.15 0 0 1-.25-.15.63.63 0 0 1-.23-.51c0-.22.1-.4.26-.55.19-.16.44-.24.77-.24zm1.47-.69l.07.1a.4.4 0 0 0 .11.08c.04.02.08.03.13.03s.1 0 .13-.03a.4.4 0 0 0 .11-.07.41.41 0 0 0 .08-.11.29.29 0 0 0 0-.27.44.44 0 0 0-.08-.1.41.41 0 0 0-.1-.09.29.29 0 0 0-.14-.02c-.05 0-.1 0-.13.02a.41.41 0 0 0-.1.08.44.44 0 0 0-.08.11.3.3 0 0 0-.03.14c0 .05.01.1.03.13zm.92 3.21a.08.08 0 0 0-.06-.04l-.3-.06v-2.38h-.88v.23c0 .02 0 .05.02.07.01.02.03.03.06.03l.31.06v2l-.31.05a.08.08 0 0 0-.06.04.1.1 0 0 0-.02.07V32h1.26v-.23a.1.1 0 0 0-.02-.07zm1.33.3c-.2 0-.37-.05-.5-.18-.11-.11-.17-.29-.17-.52v-1.68h-.33c-.03 0-.06 0-.08-.02l-.02-.08v-.19l.45-.06.1-.85c0-.03.02-.05.04-.07a.12.12 0 0 1 .07-.02h.25v.95h.78v.35h-.78v1.65c0 .12.03.2.08.26a.3.3 0 0 0 .22.08.5.5 0 0 0 .24-.07l.03-.02.03-.02a.19.19 0 0 1 .05-.02c.03 0 .05.01.07.04l.14.23c-.1.08-.2.14-.3.18-.12.05-.24.06-.37.06zm1.25-3.51l.07.1c.03.04.07.06.11.08.04.02.08.03.13.03s.1 0 .13-.03a.4.4 0 0 0 .11-.07.4.4 0 0 0 .08-.11.29.29 0 0 0 0-.27.44.44 0 0 0-.08-.1.41.41 0 0 0-.1-.09.29.29 0 0 0-.14-.02c-.05 0-.1 0-.13.02a.41.41 0 0 0-.1.08.44.44 0 0 0-.08.11.3.3 0 0 0-.03.14c0 .05.01.1.03.13zm.92 3.21a.08.08 0 0 0-.06-.04l-.3-.06v-2.38h-.88v.23c0 .02 0 .05.02.07.01.02.03.03.06.03l.31.06v2l-.31.05a.08.08 0 0 0-.06.04.1.1 0 0 0-.02.07V32h1.26v-.23a.1.1 0 0 0-.02-.07zm1.62-2.52c.2 0 .38.03.55.1a1.17 1.17 0 0 1 .68.73c.06.17.09.36.09.58 0 .21-.03.4-.1.58a1.17 1.17 0 0 1-.67.73c-.17.06-.35.1-.55.1-.2 0-.37-.04-.54-.1-.16-.07-.3-.16-.41-.28-.11-.11-.2-.26-.27-.45a1.7 1.7 0 0 1-.09-.58c0-.24.03-.43.09-.59a1.22 1.22 0 0 1 .68-.73c.17-.06.35-.1.54-.1zm0 2.45c.28 0 .49-.1.61-.27.14-.19.2-.45.2-.77s-.06-.57-.2-.76c-.12-.18-.33-.27-.6-.27a.88.88 0 0 0-.36.06.67.67 0 0 0-.25.2c-.07.1-.12.21-.15.33a1.82 1.82 0 0 0 0 .88c.03.13.08.23.15.33.06.08.14.15.25.2.11.04.23.07.35.07zm3.42-2.46c-.34 0-.64.15-.92.44l-.04-.3c-.02-.06-.06-.09-.13-.09h-.67v.23c0 .06.02.1.08.1l.3.07v1.99l-.3.06c-.06 0-.08.04-.08.1V32h1.26v-.23c0-.06-.02-.1-.08-.1L37 31.6v-1.66c.22-.25.47-.38.74-.38.39 0 .58.22.58.66V32h.88v-.24c0-.05-.03-.09-.09-.1a3.71 3.71 0 0 0-.3-.06V30.2c0-.31-.09-.56-.24-.75a.84.84 0 0 0-.68-.29zm5.87.01h-.26c-.07 0-.11-.03-.12-.1l-.05-.48c-.3-.1-.57-.15-.82-.15-.4 0-.74.14-1 .41-.27.29-.4.7-.4 1.16 0 .3.06.57.16.8.12.23.27.41.48.54.2.13.44.2.71.2.21 0 .4-.03.55-.08.16-.06.3-.15.44-.27a.15.15 0 0 1 .1-.05.1.1 0 0 1 .08.04l.2.22c-.33.4-.8.59-1.4.59a1.75 1.75 0 0 1-1.63-.96c-.15-.3-.22-.65-.22-1.03 0-.58.18-1.1.54-1.47.36-.36.85-.55 1.47-.55.29 0 .68.1 1.17.27v.91zm2.11.1c-.16-.07-.34-.1-.54-.1s-.38.03-.54.1c-.16.06-.3.16-.42.28-.1.11-.2.26-.26.44a1.7 1.7 0 0 0-.09.59c0 .23.03.43.09.58.07.19.15.34.26.45.12.12.26.21.42.28.16.06.34.1.54.1s.38-.04.54-.1c.16-.07.3-.16.42-.28.11-.12.2-.27.26-.45a1.78 1.78 0 0 0 0-1.17 1.17 1.17 0 0 0-.68-.72zm.07 2.08c-.13.18-.33.27-.6.27a.88.88 0 0 1-.37-.08.61.61 0 0 1-.24-.2.96.96 0 0 1-.16-.32 1.78 1.78 0 0 1 0-.88.96.96 0 0 1 .16-.32c.07-.1.15-.16.24-.2.1-.05.22-.07.36-.07.28 0 .48.09.61.27.13.19.2.44.2.76s-.07.58-.2.77zm1.86-1.58c.2-.4.48-.61.84-.61.14 0 .26.03.37.1l-.06.36c-.01.05-.03.07-.07.07l-.13-.03a.8.8 0 0 0-.22-.03c-.32 0-.56.2-.7.58v1.39l.3.06c.06 0 .08.04.08.1V32h-1.26v-.23c0-.06.03-.1.08-.1l.31-.06v-2a3.71 3.71 0 0 1-.3-.06c-.06 0-.09-.04-.09-.1v-.23h.67c.05 0 .08.01.1.03.02.02.03.05.04.1l.04.43zm3.16-.61c-.35 0-.72.16-.98.47l-.05-.32c-.02-.07-.06-.1-.13-.1h-.68v.23c0 .06.03.1.09.1l.3.07v2.98l-.3.06c-.06.01-.09.05-.09.1V33h1.27v-.24c0-.05-.03-.09-.09-.1l-.15-.03-.15-.03v-.92c.2.22.51.32.85.32.34 0 .62-.13.84-.4.2-.27.31-.61.31-1.02 0-.45-.1-.8-.28-1.05a.9.9 0 0 0-.76-.36zm-.27 2.46a.86.86 0 0 1-.69-.33v-1.32a1 1 0 0 1 .8-.42c.23 0 .4.08.52.26.12.17.18.42.18.76s-.07.6-.2.78c-.14.18-.34.27-.61.27z" fill="#7A7A7A"/></svg>