<!-- by TradingView --><svg xmlns="http://www.w3.org/2000/svg" width="56" height="56" viewBox="0 0 56 56"><path fill="#243569" d="M0 0h56v56H0z"/><ellipse rx="2.09" ry="1.06" transform="matrix(.91004 .41451 -.41957 .90773 31.4 13.33)" fill="#35B1E5"/><ellipse rx="2.08" ry=".94" transform="matrix(.63092 -.77585 .78078 .6248 30.57 42.3)" fill="#35B1E5"/><ellipse rx="3.32" ry="2.35" transform="matrix(.63991 -.76845 .77347 .63383 18.37 19.58)" fill="url(#ajjtsogax)"/><ellipse rx="3.78" ry="2.35" transform="rotate(-93.09 20.45 8.01) skewX(-.05)" fill="url(#bjjtsogax)"/><ellipse rx="3.06" ry="2.06" transform="matrix(-.60147 -.7989 .8035 -.5953 21.85 37.48)" fill="url(#cjjtsogax)"/><path d="M28.39 22.32c-.24.04-.49.06-.74.06-2.52 0-4.57-1.76-4.57-3.92s2.05-3.91 4.57-3.91c1.56 0 2.94.67 3.76 1.7 1.88.86 3.13.34 3.67-.18.08-.23.21-.43.4-.56.97-.73 3.04.37 4.62 2.45s2.06 4.36 1.08 5.09c-.76.57-2.2.02-3.54-1.25v.01a44.08 44.08 0 0 0-.52-.54c-1.41-1.42-3.4-2.98-4.54-1.39-1.23 1.73.86 2.75 2.1 2.76l.23-.01a4.2 4.2 0 0 1 3.67 2.32c1.4 2.28 2.53 1.68 3.04 1.05.36-.93.8-1.49 1.23-1.46.83.07 1.32 2.31 1.1 5-.22 2.7-1.08 4.83-1.9 4.76-.69-.05-1.14-1.57-1.16-3.6-.95-1.72-1.97-.93-2.55-.28a4.14 4.14 0 0 1-4.07 1.88c-1.2-.07-2.5.12-2.17 1.72.37 1.82 2.45 1.24 3.53.68 1.44-1.5 3.06-2.21 3.9-1.6.97.73.49 3.01-1.09 5.1-1.57 2.08-3.64 3.17-4.62 2.44-.53-.39-.63-1.23-.36-2.26-1.01-.77-1.72-.4-2.21.12-.6 1.22-1.7 2.04-2.98 2.04-1.9 0-3.44-1.84-3.44-4.1s1.54-4.09 3.44-4.09c.28 0 .54.04.8.11 2.08.18 2.33-.94 2.4-1.26l.01-.05c.15-.55-.39-2.1-2.28-2.18a2.55 2.55 0 0 0-2.5 1.5 4.62 4.62 0 0 1-3.96 2.3 4.75 4.75 0 0 1-4.65-4.84 4.75 4.75 0 0 1 4.65-4.84c1.43 0 2.71.68 3.56 1.73 1.95 1.87 4.77.66 4.8-1.03 0-1.4-1.77-1.53-2.71-1.46z" fill="url(#djjtsogax)"/><defs><linearGradient id="ajjtsogax" x1="3.32" y1="0" x2="3.32" y2="4.69" gradientUnits="userSpaceOnUse"><stop stop-color="#2D9DDD"/><stop offset="1" stop-color="#1B80C4"/></linearGradient><linearGradient id="bjjtsogax" x1="3.78" y1="0" x2="3.78" y2="4.71" gradientUnits="userSpaceOnUse"><stop stop-color="#3EADE1"/><stop offset="1" stop-color="#2887C7"/></linearGradient><linearGradient id="cjjtsogax" x1="3.06" y1="0" x2="3.06" y2="4.12" gradientUnits="userSpaceOnUse"><stop stop-color="#2984C7"/><stop offset="1" stop-color="#2877C2"/></linearGradient><linearGradient id="djjtsogax" x1="43.39" y1="26.31" x2="18.09" y2="27.73" gradientUnits="userSpaceOnUse"><stop stop-color="#4AAEE2"/><stop offset=".31" stop-color="#1D74B9"/><stop offset=".54" stop-color="#38A6E1"/><stop offset=".71" stop-color="#34A5DF"/><stop offset="1" stop-color="#2A77BF"/></linearGradient></defs></svg>