<!-- by TradingView --><svg xmlns="http://www.w3.org/2000/svg" width="56" height="56" viewBox="0 0 56 56"><path fill="#0D2B4D" d="M0 0h56v56H0z"/><path d="M42.7 22a2.5 2.5 0 1 1-1 .13A14 14 0 0 0 14 25v6a14 14 0 0 0 27.7 2.87 2.5 2.5 0 1 1 1 .12A15 15 0 0 1 13 31v-6a15 15 0 0 1 29.7-3zm-.2 4a1.5 1.5 0 1 0 0-3 1.5 1.5 0 0 0 0 3zm0 7a1.5 1.5 0 1 0 0-3 1.5 1.5 0 0 0 0 3z" fill="#fff"/><path fill-rule="evenodd" d="M27 20h-6v1h1v10.67l-1 .91V34l4-3.72V34h1V21h1v-1zm-2 8.92V27h-2v3.75l2-1.83zM25 21v5h-2v-2h2v-1h-2v-2h2zm10 4.42V26h-1.9l2.17-2.09v-1.38l-.93.9h-1.25l2.18-2.1V20L32 23.05v1.38h1.18L32 25.53V27h3v.42h1v-2h-1zM30 26v-.53h1v2h-1V27h-3v-1.46l1.18-1.11H27v-1.38L30.27 20v1.33l-2.18 2.1h1.25l.93-.9v1.38L28.1 26H30zm2 8v-6h1v2h2v-2h1v3h-3v3h-1zm-5-3v-3h1v2h2v-2h1v3l-4 3v-1.18L29.46 31H27z" fill="#fff"/><path d="M28.4 36.75a.7.7 0 1 0-.7-.58l-1.26.89a.7.7 0 0 0-1.17.53.7.7 0 0 0 1.11.58l1.32.9-.02.13a.7.7 0 1 0 .2-.49l-1.25-.85a.7.7 0 0 0 .03-.46l1.22-.87a.7.7 0 0 0 .51.22z" fill="#E6BAA6"/><path d="M17.6 20.64l.02-.05.5.3-.34 1.54-.06-.02.02-.07c.02-.09 0-.15-.04-.2-.03-.03-.1-.05-.21-.08l-1.29-.29c-.12-.03-.2-.03-.24 0-.05.02-.09.07-.1.15l-.02.07-.05-.01.2-.9.05.01a.57.57 0 0 0-.02.23c.01.05.03.08.06.1.03.03.1.05.22.08l1.25.28c.08.02.14.02.17.01a.1.1 0 0 0 .06-.04l.07-.23.03-.14c.03-.16.05-.27.04-.33a.43.43 0 0 0-.08-.2 1.02 1.02 0 0 0-.24-.21zM22.95 14.89l-.7.36.03.35c0 .09.02.15.04.18.01.03.04.05.07.06.04 0 .1-.01.2-.05l.02.05-.57.3-.02-.05c.07-.06.1-.1.12-.13a.92.92 0 0 0 0-.34L22 13.8l.05-.02 1.42 1.17c.11.09.2.14.26.16.06.01.13 0 .2-.03l.03.05-.71.37-.03-.05c.07-.04.11-.08.13-.11a.1.1 0 0 0 0-.1.62.62 0 0 0-.15-.15l-.25-.2zm-.09-.08l-.7-.57.08.9.62-.33zM26.36 12.47h.55l1.24 1.54v-1.18c0-.12 0-.2-.04-.23-.03-.05-.1-.07-.17-.07h-.07v-.05h.7v.05h-.06c-.1 0-.15.03-.19.08-.02.03-.03.1-.03.22v1.72h-.06l-1.34-1.65v1.26c0 .12 0 .2.03.23.04.05.1.07.18.07h.07v.05h-.7v-.06h.06c.09 0 .15-.02.19-.07.02-.03.03-.1.03-.22v-1.42a.9.9 0 0 0-.13-.14.48.48 0 0 0-.13-.06.48.48 0 0 0-.13-.01v-.06zM32.78 14.55c.12.08.2.16.25.25.05.12.06.24.01.37a.5.5 0 0 1-.19.24c-.1.06-.2.1-.32.1s-.29-.05-.5-.13l-.9-.34.02-.05.07.03c.08.03.15.02.2-.01.03-.03.07-.1.11-.2l.47-1.24c.04-.11.06-.2.04-.23-.02-.06-.07-.1-.14-.13l-.07-.02.02-.06.82.31c.16.06.28.12.36.18.13.08.21.18.25.3a.47.47 0 0 1-.18.56.55.55 0 0 1-.32.07zm-.7-.35a1.24 1.24 0 0 0 .25.12c.14.05.24.07.32.07.08 0 .15-.03.21-.08a.4.4 0 0 0 .13-.18.39.39 0 0 0-.02-.33c-.07-.12-.18-.2-.36-.27-.1-.04-.18-.06-.26-.07l-.28.74zm-.35.9c.1.08.2.13.3.17.17.06.32.07.44.03.11-.04.2-.12.24-.23a.44.44 0 0 0 .02-.24.43.43 0 0 0-.14-.24.9.9 0 0 0-.31-.18 3.66 3.66 0 0 0-.26-.08l-.3.78zM37.41 21.23a.92.92 0 0 1 .04-.75c.11-.25.31-.43.6-.54.28-.11.56-.12.82 0 .26.1.44.29.54.54.1.27.1.52-.02.77-.12.25-.33.43-.62.55-.3.12-.59.1-.86-.02a.98.98 0 0 1-.5-.55zm.12-.01c.06.17.18.28.34.34.21.06.47.04.77-.08.3-.12.52-.28.64-.48.09-.15.1-.3.03-.47a.59.59 0 0 0-.38-.37c-.18-.06-.42-.03-.73.08-.32.13-.54.29-.65.48a.56.56 0 0 0-.02.5zM20.05 17.84l.05.04-.57.66-.05-.03.05-.06c.06-.06.08-.12.06-.19 0-.03-.05-.1-.15-.17l-1-.86a.67.67 0 0 0-.16-.12h-.1a.28.28 0 0 0-.11.08l-.05.06-.04-.04.57-.66.04.04-.05.05c-.05.07-.07.13-.06.19 0 .04.06.1.15.18l1 .86.17.12h.09a.28.28 0 0 0 .12-.09l.04-.06zM35.04 17.28l-.04.03.57.67.04-.04-.05-.06c-.05-.06-.07-.12-.06-.18 0-.04.06-.1.15-.18l1-.86c.08-.07.13-.1.17-.12h.09c.04.02.08.05.11.09l.05.05.04-.04-.57-.66-.04.04.05.05c.05.07.07.13.06.2 0 .03-.06.1-.15.17l-1 .86a.67.67 0 0 1-.17.12h-.09a.28.28 0 0 1-.11-.09l-.05-.05zM38.14 35.3l-.02.04-.5-.29.34-1.54.05.01-.01.08c-.02.08 0 .15.04.2.02.03.1.05.2.08l1.3.29c.12.02.2.03.23 0 .06-.02.1-.07.1-.15l.02-.07h.06l-.2.91-.06-.01c.03-.1.03-.18.02-.23a.18.18 0 0 0-.06-.1.66.66 0 0 0-.21-.08l-1.25-.28a.42.42 0 0 0-.18-.01.1.1 0 0 0-.06.04.97.97 0 0 0-.06.23l-.03.14c-.04.15-.05.26-.04.33 0 .07.03.13.08.2.05.06.12.13.24.2zM32.79 41.05l.7-.37-.03-.35a.5.5 0 0 0-.04-.18c-.02-.02-.04-.04-.08-.05-.04 0-.1.01-.19.05l-.03-.05.57-.3.03.05c-.07.05-.11.1-.12.13a.92.92 0 0 0-.01.34l.14 1.82-.04.02L32.27 41a.8.8 0 0 0-.26-.16.32.32 0 0 0-.2.03l-.03-.05.7-.37.03.05c-.07.04-.1.07-.12.1a.1.1 0 0 0 0 .1c.02.04.07.1.15.16l.25.2zm.08.08l.7.57-.08-.9-.62.33zM29.38 43.47h-.56l-1.24-1.54v1.18c0 .12.01.2.04.23.04.04.1.07.18.07h.07v.05h-.71v-.06h.07c.08 0 .15-.02.18-.07.02-.04.04-.1.04-.22v-1.72h.06l1.34 1.64v-1.25c0-.13-.01-.2-.04-.24-.04-.04-.1-.06-.18-.06h-.07v-.06h.71v.06h-.07c-.09 0-.15.03-.18.08-.03.03-.04.1-.04.22v1.42l.13.14.14.06.13.01v.06zM22.95 41.39a.66.66 0 0 1-.24-.25.45.45 0 0 1-.02-.37.5.5 0 0 1 .2-.24c.09-.06.2-.1.31-.1.12 0 .29.05.5.13l.9.34-.01.05-.08-.03c-.08-.03-.14-.03-.2.01-.03.03-.07.1-.1.2l-.47 1.23c-.05.12-.06.2-.05.24.03.06.07.1.14.13l.08.02-.02.05-.83-.3a1.74 1.74 0 0 1-.36-.18.63.63 0 0 1-.25-.3.47.47 0 0 1 .18-.56c.1-.06.2-.08.32-.07zm.71.35a1.28 1.28 0 0 0-.25-.12.89.89 0 0 0-.33-.07.36.36 0 0 0-.21.07.4.4 0 0 0-.13.18.39.39 0 0 0 .03.34c.06.11.18.2.35.27.1.03.18.06.27.06l.27-.73zm.35-.91c-.1-.07-.2-.12-.31-.16-.17-.07-.31-.08-.43-.03a.39.39 0 0 0-.24.23.44.44 0 0 0-.02.24c.01.08.06.16.13.23a.9.9 0 0 0 .32.19 3.34 3.34 0 0 0 .25.08l.3-.78zM18.32 34.7c.1.25.09.5-.03.76-.12.25-.32.43-.6.54-.29.11-.56.11-.82 0a.95.95 0 0 1-.55-.55.94.94 0 0 1 .03-.77c.11-.24.32-.43.62-.54.3-.12.58-.11.85.02.24.12.4.3.5.55zm-.11.02a.54.54 0 0 0-.35-.34c-.2-.06-.46-.04-.76.08-.31.12-.53.28-.64.47a.53.53 0 0 0-.04.48c.07.18.2.3.38.36.19.07.43.04.73-.08.32-.12.54-.28.65-.47.09-.15.1-.32.03-.5zM35.68 38.1l-.04-.04.57-.67.04.04-.05.06c-.05.06-.07.12-.06.18 0 .04.06.1.15.18l1 .86c.08.07.13.1.17.12h.09a.28.28 0 0 0 .12-.09l.04-.05.04.04-.57.66-.04-.04.05-.05c.05-.07.08-.13.06-.2 0-.03-.06-.1-.15-.17l-1-.86a.67.67 0 0 0-.16-.12h-.1a.28.28 0 0 0-.11.09l-.05.05zM20.7 38.66l.04-.04-.57-.66-.04.04.04.05c.06.07.08.13.07.19-.01.04-.06.1-.16.18l-1 .86a.67.67 0 0 1-.16.12h-.1a.29.29 0 0 1-.1-.09l-.06-.05-.04.03.57.66.04-.03-.04-.06c-.06-.06-.08-.12-.07-.18.01-.04.06-.1.15-.18l1-.86c.08-.07.14-.1.17-.12h.1c.04.02.08.05.1.08l.06.06z" fill="#fff"/></svg>