<!-- by TradingView --><svg xmlns="http://www.w3.org/2000/svg" width="56" height="56" viewBox="0 0 56 56"><path fill="#F0F3FA" d="M0 0h56v56H0z"/><path d="M15 25h2v1h-3v-6h1v5zm4 1h-1v-6h1v6zm-1 7.39c0-.23-.07-.4-.22-.52a2.72 2.72 0 0 0-.8-.39 5.48 5.48 0 0 1-.9-.4c-.61-.36-.91-.84-.91-1.45a1.5 1.5 0 0 1 .94-1.42c.3-.14.65-.21 1.03-.21s.73.08 1.02.23c.3.15.54.36.7.64.17.27.25.58.25.93h-1.1a.82.82 0 0 0-.24-.62c-.15-.15-.37-.18-.65-.18-.27 0-.48.02-.63.15a.6.6 0 0 0-.22.49c0 .19.09.35.26.47.18.13.44.25.78.36.63.21 1.08.47 1.37.77.29.3.43.69.43 1.14 0 .5-.18.9-.53 1.2-.35.28-.82.42-1.41.42-.41 0-.79-.08-1.13-.24-.34-.17-.6-.4-.78-.68-.17-.29-.26-.7-.26-1.08h1.1c0 .64.36 1 1.07 1 .26 0 .46 0 .61-.12a.6.6 0 0 0 .22-.5zm6.7.25c.2-.43.3-.93.3-1.5v-.27c0-.57-.1-1.07-.31-1.51-.21-.44-.5-.77-.89-1a2.42 2.42 0 0 0-1.3-.36 2.32 2.32 0 0 0-2.19 1.36c-.2.44-.31.94-.31 1.52v.28c0 .57.1 1.06.32 1.5A2.32 2.32 0 0 0 22.5 35a2.3 2.3 0 0 0 2.19-1.36zM22.5 30c.82 0 1.5.64 1.5 1.87v.28c0 1.21-.68 1.85-1.5 1.85s-1.5-.68-1.5-1.87v-.28c0-1.22.7-1.85 1.5-1.85zm7.5-1v3.9c0 .65-.18 1.16-.54 1.54-.35.37-.84.56-1.46.56-.6 0-1.1-.18-1.45-.55a2.1 2.1 0 0 1-.55-1.5V29h1v3.9c0 .6.38 1.1 1 1.1.6 0 .99-.34 1-1.06V29h1zm10.6 4c-.04.63-.26 1.1-.67 1.46-.4.36-.94.54-1.6.54a2.1 2.1 0 0 1-1.7-.75c-.42-.5-.63-1.2-.63-2.08v-.36c0-.56.1-1.05.29-1.48.19-.43.46-.76.82-.99.35-.23.77-.34 1.24-.34.65 0 1.17.18 1.57.54.4.36.63.8.7 1.46h-1.05c-.01-.6-.5-1-1.22-1-.77 0-1.34.54-1.35 1.76v.44c0 1.26.54 1.8 1.33 1.8.73 0 1.18-.36 1.23-1h1.05zm8.07-.13c.15.12.22.29.22.52a.6.6 0 0 1-.22.49c-.15.11-.35.12-.61.12-.71 0-1.06-.36-1.06-1h-1.11c0 .38.09.8.26 1.08.18.28.44.51.78.68.34.16.71.24 1.13.24.6 0 1.06-.14 1.41-.43.35-.29.53-.69.53-1.19 0-.45-.14-.83-.43-1.14-.29-.3-.75-.56-1.37-.77-.34-.1-.6-.23-.78-.36a.57.57 0 0 1-.26-.47c0-.2.07-.37.22-.5.15-.12.36-.14.63-.14.28 0 .5.03.65.18.16.15.24.36.24.62H50c0-.35-.08-.66-.25-.93-.16-.28-.4-.5-.7-.64A2.47 2.47 0 0 0 47 29.2a1.5 1.5 0 0 0-.95 1.42c0 .6.3 1.1.92 1.45.22.13.52.26.9.4.39.14.65.26.8.39zM41.6 20l-1.08 2.7-1.07-2.7h-1.17L40 23.82V26h1v-2.18L42.75 20H41.6zm-3.77 1H36v5h-1v-5h-1.78v-1h4.6v1zM30 23.8h1l1.02 2.2h1.2v-.06l-1.17-2.45c.32-.16.57-.38.73-.65A2 2 0 0 0 33 21.8c0-.57-.16-1.02-.5-1.34A2.13 2.13 0 0 0 31 20H29v6h1v-2.2zm1.12-1H30V21h1.12c.3 0 .52.08.67.24.14.17.21.39.21.67s-.07.5-.22.66a.87.87 0 0 1-.66.23zm-23.11 10H7V35H6v-6h2.02c.64 0 1.13.16 1.48.47.35.32.5.77.5 1.34a2 2 0 0 1-.22 1.03c-.16.27-.4.49-.73.65l1.17 2.45V35h-1.2l-1.01-2.2zm-1-1h1.12c.28 0 .5-.08.65-.23.15-.16.22-.38.22-.66s-.06-.5-.21-.67c-.14-.16-.37-.24-.67-.24H7v1.8zm25 1h1l1.02 2.2h1.2v-.06l-1.18-2.45c.33-.16.57-.38.73-.65a2 2 0 0 0 .23-1.03c0-.57-.16-1.02-.5-1.34A2.13 2.13 0 0 0 33 29h-2v6h1v-2.2zm1.12-1h-1.12V30h1.12c.3 0 .52.08.66.24.15.17.22.39.22.67s-.07.5-.23.66a.87.87 0 0 1-.65.23zM28 23.5h-2V25h2.5v1H25v-6h3.5v1H26v1.5h2v1zm-16 9h2v-1h-2V30h2.5v-1H11v6h3.5v-1H12v-1.5zm32.5 0h-2V34H45v1h-3.5v-6H45v1h-2.5v1.5h2v1zM20 20v6h2.1c.6 0 1.07-.16 1.4-.45.33-.3.5-.74.5-1.31 0-.34-.08-.63-.24-.86a1.12 1.12 0 0 0-.65-.47c.24-.1.43-.26.56-.49.14-.22.2-.48.2-.78 0-.53-.16-.94-.5-1.22-.34-.28-.83-.42-1.48-.42H20zm1 5v-1.61h1.25c.5 0 .75.28.75.83 0 .25-.06.44-.21.58-.15.14-.35.2-.61.2H21zm1.05-2.49H21v-1.5h1c.31 0 .53.05.67.17.15.12.22.32.22.59 0 .48-.28.73-.84.74z"/></svg>