<!-- by TradingView --><svg xmlns="http://www.w3.org/2000/svg" width="56" height="56" viewBox="0 0 56 56"><path fill="#323DD3" d="M0 0h56v56H0z"/><path d="M21.56 43H33.3a5.58 5.58 0 0 0 1.54-.32c1.64-.63 3.06-2.17 3.16-3.98v-9.97h-.06c-.23.15-.77.22-1.03.21-.24 0-.48-.05-.7-.16-.17-.1-.17-.1-.17.08v10.13c0 1.34-1.54 2.05-2.78 2.01H21.28c-1.44-.16-2.26-1.04-2.28-2.48V19.11c-.15-1.83 1.45-3.11 3.04-3.11h.88c.05 0 .09-.02.08-.06a1 1 0 0 0 0-.18c0-1.03.17-1.76 1.44-1.76h5.94c1.25 0 1.62.61 1.62 1.7v.25c0 .03.03.05.07.05h1.2c1.5.22 2.71 1.83 2.73 3.33V26.03l-.25-.13c-.07-.08-.32-.34-.52-.34a.53.53 0 0 0-.2 0 .57.57 0 0 0-.16.1c-.05.04-.09.1-.13.16a.69.69 0 0 0-.06.23.54.54 0 0 0 0 .2c.01.06.04.11.07.16l.52.56 1.14 1.23c.05.05.11.08.18.1h.5c.1-.02.14-.07.26-.2v-.01l.58-.65.88-.98.17-.29a.43.43 0 0 0 0-.27.42.42 0 0 0-.07-.14.53.53 0 0 0-.32-.27.5.5 0 0 0-.19 0 1.1 1.1 0 0 0-.1.06.98.98 0 0 0-.16.2c-.07.1-.14.2-.14.15a.2.2 0 0 1 0-.06v-6.71c-.07-2.5-2.14-4.06-4.42-4.4h-.09a.13.13 0 0 1-.04-.08c-.32-1.56-1.49-2.75-3.2-2.64H24.5a4.98 4.98 0 0 0-1.12.16l-.25.1c-.08.04-.14.07-.17.07a3.02 3.02 0 0 0-1.2 1.1l-.14.22c-.1.3-.18.6-.23.9-.04.14-.05.14-.16.14l-.3.05-.84.18c-.22.08-.45.16-.66.26a4.75 4.75 0 0 0-1.75 1.59 4.48 4.48 0 0 0-.68 2.18v19.48c.01.3.04.6.08.9a6.78 6.78 0 0 0 .48 1.34 4.3 4.3 0 0 0 1.31 1.42l.16.12a4.79 4.79 0 0 0 2.53.78zm-1.53-23.54v9.66l-.01 3.2c-.02 1.96-.04 3.84.01 5.9-.05 1.12.8 1.63 1.95 1.78h10.98c1.2-.12 2.07-.48 2.07-1.67v-10.1-.06l-.4-.5-.03-.03-.09-.1-.19-.22a4.16 4.16 0 0 1-.19-.23c-.1-.12-.17-.25-.22-.39a1.82 1.82 0 0 1-.01-.94 1.2 1.2 0 0 1 .26-.42c.08-.08.17-.16.27-.21.1-.05.21-.07.32-.07.28 0 .28 0 .28-.3v-5.44c-.03-2.05-1.66-2.36-3.46-2.32-.47 0-.56-.31-.57-.7v-.44c0-.44-.34-.8-.77-.86h-5.35c-.4.03-.82.23-.88.65v.96c-.05.25-.11.35-.35.39h-.2c-1.34 0-2.87.18-3.35 1.7l-.07.34V19.46zm7.73 2.88a.5.5 0 0 1 .24.1v4.42c0 .1.15.14.22.14h2.9c.34-.01.5.26.34.58 0 .04-.96 1.79-1.9 3.51-.94 1.7-1.87 3.4-1.87 3.43-.15.38-.58.25-.69-.1a6.8 6.8 0 0 1 0-.71v-3.33-.08c0-.2 0-.3-.23-.3h-2.2c-.43.06-.63-.1-.5-.48.1-.38 1-2.19 1.82-3.86.7-1.41 1.35-2.73 1.44-3.02.04-.1.1-.18.18-.25a.46.46 0 0 1 .25-.05z" fill="#fff"/></svg>