<!-- by TradingView --><svg xmlns="http://www.w3.org/2000/svg" width="56" height="56" viewBox="0 0 56 56"><path fill="#F0F3FA" d="M0 0h56v56H0z"/><path d="M28.12 10.5c3.92 4 9.17 13.51 11.3 17.77C37.74 26.12 33.27 22 28.84 22s-7.94 3.12-9.14 4.78c1.22 1.3 4.63 4.22 8.42 4.22 3.8 0 5.76-2.2 6.26-3.16-7.1 2.65-10.33.07-11.56-1.3 1.4-1.83 4.1-2.54 6.02-2.54C37.22 24 42.69 36.09 44 41.5c-2.46-2.38-9.08-7.5-15.88-7.5-6.79 0-13.58 5.12-16.12 7.5 3.54-14.6 12.22-26.75 16.12-31z" fill="url(#ab4xlfqco)"/><defs><linearGradient id="ab4xlfqco" x1="28" y1="10.5" x2="28" y2="41.5" gradientUnits="userSpaceOnUse"><stop stop-color="#008AB5"/><stop offset=".89" stop-color="#09588E"/></linearGradient></defs></svg>