<!-- by TradingView --><svg width="56" height="56" viewBox="0 0 56 56" xmlns="http://www.w3.org/2000/svg"><path fill="#F0F3FA" d="M0 0h56v56H0z"/><path d="M28.59 11h.36a1.46 1.46 0 0 1 1.12 2.08 1.45 1.45 0 0 1-2 .62 1.45 1.45 0 0 1 .5-2.7Zm-5.33 5.11c1.94-.68 4.05-.88 6.09-.61.7 1.5 1.2 3.1 1.54 4.71a18.4 18.4 0 0 0-3.93 1.86 25.79 25.79 0 0 0-7.7 7.47 7.89 7.89 0 0 1-2.68-3.06 5.36 5.36 0 0 1-.48-2.44c.05-1.5.7-2.91 1.6-4.08.45-.59.99-1.1 1.55-1.58a13 13 0 0 1 4.01-2.27Zm3.4 8.46a17.52 17.52 0 0 1 4.58-2.15c.39 3.37.17 6.84-.9 10.07-1.62 0-3.25-.12-4.84-.44-1.73-.34-3.43-.9-4.98-1.73a25.57 25.57 0 0 1 6.14-5.75Zm-12.1 3.28a8.13 8.13 0 0 0 2.5 2.98c.32.24.65.46.99.67a21.2 21.2 0 0 0-1.62 3.63 13.02 13.02 0 0 1-1.87-7.28Zm28.65.17a1.46 1.46 0 0 1 1.76 1.1c.06.3.03.61-.1.9a1.44 1.44 0 1 1-1.66-2Zm-23.97 4.14a19 19 0 0 0 4.45 1.49c1.97.41 4 .57 6 .5A12.02 12.02 0 0 1 27.94 37a7.5 7.5 0 0 1-2.42 1.94 5.53 5.53 0 0 1-4.08.28 8.98 8.98 0 0 1-4.21-3c.5-1.42 1.2-2.77 2.01-4.05Zm-3.76 5.41a1.45 1.45 0 0 1 1.7 1.43 1.44 1.44 0 1 1-2.77-.58c.18-.44.6-.77 1.07-.85Z" fill="#76BD43"/><path d="M23.74 12.2c.82-.19 1.65-.32 2.49-.39-.1.4-.1.83 0 1.24A15.45 15.45 0 0 0 14.7 20a15.3 15.3 0 0 0-.7 15.55c.19.36.4.71.61 1.06-.38.18-.7.45-.96.78a16.7 16.7 0 0 1 1.88-20.44 16.57 16.57 0 0 1 8.2-4.75Zm7.64-.02a16.63 16.63 0 0 1 12.79 14.69c-.41-.1-.84-.1-1.25 0a15.35 15.35 0 0 0-11.71-13.46c.15-.39.21-.81.17-1.23Zm-.67 3.58c2.76.68 5.28 2.3 7.05 4.54a7.22 7.22 0 0 0-3.6-.72c-.65.03-1.3.12-1.94.26-.38-1.4-.87-2.78-1.51-4.08Zm2 6.34a7.8 7.8 0 0 1 3.97.33c.94.36 1.77 1 2.37 1.8.57.75.95 1.63 1.18 2.53.28 1.14.31 2.33.2 3.49a20.84 20.84 0 0 1-4.31 1.54c-1.2.28-2.43.48-3.66.6.79-3.37.82-6.89.25-10.29Zm6.86 9.79.63-.32a13.05 13.05 0 0 1-14.26 9.76 6.77 6.77 0 0 0 2.6-1.5c1.2-1.09 2.1-2.5 2.77-3.97.28-.61.5-1.25.72-1.88 2.6-.3 5.17-.97 7.54-2.1Zm.92 4.91c.99-1.5 1.7-3.18 2.11-4.93.4.14.81.2 1.23.16a16.63 16.63 0 0 1-26.74 9.2c.36-.21.66-.51.88-.87a15.41 15.41 0 0 0 15.89 2.08 15.43 15.43 0 0 0 6.63-5.64Z" fill="#213C93"/></svg>