<!-- by TradingView --><svg width="56" height="56" viewBox="0 0 56 56" xmlns="http://www.w3.org/2000/svg"><path fill="#F0F3FA" d="M0 0h56v56H0z"/><path d="M31.2 14.47s1.86 2.59 2.49 5.8c0 0 .73 3.31-1.1 5.63l-.87 1.06-.97.99-1.5 1.45-1.47 1.32-1.75 1.77s-1.62 1.33-2.65 4.67c0 0-.58 2.18.68 5.32 0 0 .45 1.23 1.79 3.46l-5.36-4.08s-5.84-4.83-5.47-9.63l.05-.5.15-.54.16-.44.21-.52.24-.39.28-.52.37-.57.37-.51.4-.55.52-.63 1.7-2.02c0-.02.6-.76 3.36-3.4.78-.75 1.66-1.76 2.7-2.98 0 0 3.62-3.8-.08-9.66 0 0 2.74 1.15 5.75 5.47ZM27.03 41.4s1.1-1.84 3.68-3.57l.51-.36 1.07-.8.67-.55.99-.84s2.7-2.07 2.71-5.52c0 0-.86 1.86-4.14 3.67 0 0-.59.31-2.36 1.38 0 0-2.23 1.23-3.39 3.2 0 0-.67-3.56 3.6-6.84 0 0 1.84-1.38 3.53-3.16 0 0 1.93-1.64 2.8-5.02 0 0 .57 2.54 2.76 6.33 0 0 1.68 2.5 1.53 4.84 0 0 .25 3.32-5.25 6.44l-.93.52-2.19 1.2-2.4 1.38s-3.46 2.13-3.62 4.3c0 0-1.43-3.7.43-6.6Z" fill="url(#aiijmgn5q)"/><defs><linearGradient id="aiijmgn5q" x1="40.88" y1="29.4" x2="11.19" y2="35.3" gradientUnits="userSpaceOnUse"><stop stop-color="#1E6CB4"/><stop offset="1" stop-color="#17AADC"/></linearGradient></defs></svg>