<!-- by TradingView --><svg width="56" height="56" viewBox="0 0 56 56" xmlns="http://www.w3.org/2000/svg"><path fill="#F0F3FA" d="M0 0h56v56H0z"/><path fill-rule="evenodd" d="M26.4 41.44c-.8.5-.14.58.3.56h5.36a4.05 4.05 0 0 1-1.31-1.17c-.43-.62-.52-2.35-.51-3.13-.14-1.14.75-2.55 1.55-2 .65.45 1.56.5 1.94.46-.23-.4-.37-1.09.83-.66 1.2.42.64 1 .21 1.24l1.37.96c.3-.12 1.02-.25 1.56.16.67.5 1.13.26.7-.5-.26-.47-.04-.6.17-.72.14-.08.27-.15.26-.32-.01-.18-.34-.24-.66-.3-.44-.07-.87-.14-.47-.52.56-.53 1.95-.9 2.58-1.01.69.95 1.98.97 3.12 1h.56c.98.05 1.05-.65.96-1 .61.63 1.92 1.86 2.29 1.67.2-.1.03-.31-.17-.57-.26-.33-.58-.73-.3-1.1.48-.62.42-.73.09-1.36l-.08-.15c-.21-.4.28-.48.7-.55.39-.06.72-.1.45-.38-.45-.47-.4-1.66-.32-2.2a5.55 5.55 0 0 1-2.66-2.23c.65-.17 1.87-.6 1.61-.93-.25-.34-1.82-.35-2.57-.32-.26.22-.87.56-1.24.13-.36-.42.44-.99.89-1.22.7.06 2.14.02 2.33-.55.25-.72-2.04-2.6-2.92-2.68-.89-.08-3.28-.59-3.79-1.28-.5-.69.19-1.35 1.18-1.88.8-.43.42-.56-.06-.73l-.37-.15c-.47-.2.1-.56.43-.71-.38-.72-1.63-.44-2.2-.21.54-.35-.43-.9-1.23-1.12-.38-.1-.8.3-1.17.65-.44.42-.83.8-1.06.3-.29-.6-1.2-.74-1.83-.75.1-.12.16-.39.1-.91-.1-1.09-1.2-1.3-1.74-1.28-.58-.72-1.24-.46-1.5-.24-1.11-.77-3.28-2.17-3.09-1.61.2.55-.87.77-1.42.82-.43.6-1.5 1.65-2.34 1.03-.84-.61-1.53-.25-1.77 0 .16.5.39 1.47 0 1.28a1.3 1.3 0 0 0-1.02 0c-.96.71-.74 1.22-.6 1.51.09.22.13.33-.4.32-.98-.03-1.32.48-1.36.74.14-.07.5-.2.8-.13.38.08-.03 1.77-.37 1.3a1.34 1.34 0 0 0-1.88-.35c-.67.4.27 1.35.83 1.78.66-.04.69.42.62.66.22.19.53.62 0 .85-.38.16-.53-.02-.73-.27-.16-.2-.36-.44-.72-.58-.67-.25-1.3.1-1.53.32 0 .28-.07.89-.33 1.03-.26.15-.37-.46-.4-.8-1.06.32-3.16 1.05-3.11 1.5.02.26.67.24 1.45.21.88-.02 1.91-.05 2.38.31.71.56-.8.85-1.63.93-.12.8-.73.85-1.55.91-.27.03-.56.05-.87.1-.65.11-.62.29-.58.44.03.13.05.25-.41.3-.8.09-1.5.5-1.75.7.68.66 1.98 2.08 1.75 2.46-.1.15-.3.27-.54.4-.54.32-1.25.73-1.2 1.78.03 1.2 2.16 1.77 3.21 1.9-.47.29-1.28 1.11-.72 2.13.4.73-.33.75-.99.77-.48.01-.92.02-.84.32.15.55 1.77.31 2.55.13l1.27-1.94c.55.24 1.61.8 1.42 1.12-.14.22-.48.2-.8.16-.25-.02-.49-.04-.62.05-.33.21 1.37 1.9 2.3.77.76-.91 2.75-.77 3.66-.59.36.2 1.12.56 1.23.43.14-.16.97-.82 1.7-.82.72 0 .8.4.24.82-.28.2-.92.28-1.48.34-.6.07-1.1.13-.97.32.24.37 1.56 1.04 2.8.3.59-.36.77-.79.91-1.11.15-.35.25-.57.75-.46.77.17 1.41-.34 1.64-.61l1.42.4c0 .25-.35.35-.67.45-.38.11-.7.2-.24.53.47.33.7.06.94-.21.17-.21.35-.42.64-.38.67.11.78.46.73 2.13-.06 1.67-.7 2.17-1.7 2.8Zm.39-26.73c-.23-.55-.9.06-1.2.44h.53a9.7 9.7 0 0 0-.7 1.1c-.1.23-.48.24-.88.26-.18 0-.37.02-.54.04-.43.08 0 .72.25 1.04.45-.1 1.33-.33 1.33-.54 0-.13.22-.28.43-.44.18-.12.35-.25.4-.37.02-.05.06-.13.12-.21.18-.3.48-.79.26-1.32Zm3.03.44c.26-.01.76.15.76.9 0 .56-.16.62-.36.7-.13.04-.28.09-.4.3-.22.43-.1-1.09 0-1.9Zm-4.05 3.97c-.86-.33-1.66.34-1.96.72.54-.45 1.1.16 1.51.6.2.2.35.37.45.37.3-.29.45-.12.6.07.17.19.34.4.7.2.73-.37 1.36-.3 1.74 0 .38.32 1.2-.12 1.77-.59.44-.35.96-.31 1.49-.27l.5.02c.37 0 .53-.1.68-.21a.8.8 0 0 1 .53-.2c.57 0 .98-.43.44-1.59-.43-.92-1.74-.82-2.34-.65.41.2 1.25.73 1.33 1.31.05.35-.26.24-.58.12-.35-.13-.72-.27-.75.1-.05.62-.67.45-1.1.33l-.2-.05c-.25-.06-.87.13-1.36.28-.3.08-.54.16-.63.16-.09 0-.22.08-.37.18-.27.17-.61.39-.9.22-.15-.09-.26-.2-.38-.33a2.6 2.6 0 0 0-1.17-.8ZM21.6 23.9c-.23-1.27-1.24-.88-1.71-.53.33.12.44.39.56.68.12.31.26.66.7.88l.27.14c.2.11.31.17.36.14.06-.04.02-.23-.06-.65l-.12-.66Zm-1.84-4.5c.29.26.82.84.7 1.1-.05.1-.04.27-.03.44.03.38.06.76-.54.4-.53-.32-.36-.77-.2-1.18.1-.29.2-.56.07-.76Zm17.4-1.34c-.36-.29.03-.58.27-.68l1.33.2c-.42.13-.56.58-.67.92-.07.22-.13.4-.24.4-.14 0-.2-.13-.29-.3a1.5 1.5 0 0 0-.4-.54Zm1.6 3.51c.51.27 1.53.87 1.49 1.2-.06.41-.94.96-1.22.68-.12-.12-.08-.34-.05-.56.04-.29.07-.55-.22-.55-.53 0-.72-.77 0-.77Zm-1.6 2.1c-.55-.48-.23-.93 0-1.09.42-.4.58-.03.8.45.1.2.21.45.36.64.47.63-.11 1.1-.67.98-.25-.05-.23-.13-.2-.26.03-.16.08-.4-.3-.72Zm-2.37.3c.35.06 1.02.29.8.68-.28.5-1.41.52-.8-.68Zm-2.9 8.12c.12-.43-.36-.65-.6-.7-.24.08-.65.4-.42.97.28.71.85.28 1.01-.27Zm2.9-3.13c.19-.2.62-.54.8-.3.22.3.3 1.14-.25 1.03-.25-.05-.45.02-.61.08-.2.07-.36.12-.5-.08-.22-.28.28-.6.56-.73Zm6.45.27c-.64.11-1.52.05-1.88 0-.1.45-.16 1.34.53 1.34.33 0 .57-.02.78-.04.34-.03.58-.05.9.04.53.13.47-1.48-.33-1.34Zm.33-2.8c.38.15 1.2.55 1.44.95.3.49-.45.98-.94.79-.17-.07-.34-.21-.53-.37-.39-.32-.84-.7-1.43-.59-.7.13-1.49-.03-1.8-.13.41-.1 1.3-.38 1.58-.82.29-.44 1.24-.07 1.68.16Zm4.53 6.5c.05-.68-1.06-.6-1.39-.57h-.08c-.14.41-.42 1.27-.33 1.42.07.11.3.2.56.29.21.07.44.15.63.26.44.24.55-.63.6-1.4Zm-10.04 2.68c.44.05 1.31.28 1.25.81-.06.54.44.85.7.94h-1.43c-.42-.21-1.12-.86-.52-1.75Z" fill="#273326"/></svg>