<!-- by TradingView --><svg width="56" height="56" viewBox="0 0 56 56" xmlns="http://www.w3.org/2000/svg"><path fill="#F0F3FA" d="M0 0h56v56H0z"/><path d="M28.5 29c0-3.09 2.07-5 5.19-5 2.88 0 4.78 1.42 4.78 4h-2.1c-.04-1.46-1.02-2-2.58-2-1.8 0-2.79 1.03-2.79 3s.96 3 2.69 3c1.66 0 2.67-.57 2.7-2h2.11c-.03 2.61-1.97 4-4.92 4-3.05 0-5.08-1.88-5.08-5ZM17 29.99V24h2.5v5.66c0 1.56.92 2.34 2.65 2.34 2.15 0 3.35-1.24 3.35-3.63V24H28v10h-2.5v-2.91c-.45 1.87-1.72 2.91-4.07 2.91C18.7 34 17 32.6 17 29.99ZM8 20h2.5v12H17v2H8V20Z" fill="#4A475A"/><path d="M39 37.71v-1.74c.3.06 1.09.2 1.58.2 1.06 0 1.56-.33 2.32-2.17h-.56L38 24h2.65l3.21 7.58h.04L46.75 24H49l-3.84 10.03c-1.13 2.94-2.1 3.97-4.11 3.97a9.98 9.98 0 0 1-2.05-.29Z" fill="#4A475A"/></svg>