<!-- by TradingView --><svg width="56" height="56" viewBox="0 0 56 56" xmlns="http://www.w3.org/2000/svg"><path fill="#F0F3FA" d="M0 0h56v56H0z"/><path d="M11.5 31.46V19.14c0-.14-.08-.14-.08-.14l-3.34 1.15a.12.12 0 0 0-.06.04.15.15 0 0 0-.02.08v15.9l.01.06.04.05.05.02a58.74 58.74 0 0 1 5.8-2c.04-.01.1-.1.1-.1V31c0-.08-.07-.17-.16-.14-.82.23-1.26.46-2.03.73-.07.03-.3-.04-.31-.13ZM25 17.16v14.7c0 .08.06.14.12.14h3.26c.07 0 .12-.06.12-.13v-14.7c0-.08-.06-.17-.12-.17h-3.26c-.07 0-.12.1-.12.16ZM37.24 26.73a.13.13 0 0 1 .06-.13c.98-.52 1.2-1.8 1.2-2.8v-1.97a5.4 5.4 0 0 0-.38-2.24c-.63-1.42-2.2-2.06-3.67-2.19l-4.31-.4a.13.13 0 0 0-.14.13v14.75c0 .06.06.12.13.13l3.23.3a.13.13 0 0 0 .13-.08c0-.01.09-.03.09-.05l-.08-4.78c0-.1.24-.06.29-.03.13.17.2.38.23.59l.18.71c.32 1.28.6 2.49 1.66 3.42.67.6 1.5.98 2.4 1.1l.6.07a.12.12 0 0 0 .11-.04.11.11 0 0 0 .02-.12l-1.76-6.37ZM35 23.88c.01.37-.38.78-.82.7l-.43-.04c-.06 0-.25-.05-.25-.11v-3.86c.02-.23.66-.08.75-.07.44.02.78.4.77.78l-.02 2.6ZM47.55 23.12a4.35 4.35 0 0 0-1.34-1.86 6.47 6.47 0 0 0-2.27-1.12l-3.78-1.1a.12.12 0 0 0-.11.02.12.12 0 0 0-.05.1v14.63c0 .02 0 .05.02.07l.07.05 3.85 1.12a4.7 4.7 0 0 0 2.27.2 1.87 1.87 0 0 0 1.34-1.08c.33-.8.49-1.66.44-2.53V25.9a7.73 7.73 0 0 0-.44-2.78ZM44.5 30.5c.01.41.07 1.68-.64 1.42l-.36-.1a.12.12 0 0 1-.06-.04c-.02-.02.06-.05.06-.07v-8.48c0-.07 0-.13.07-.11l.3.08c.67.17.64.75.63 1.32v5.98ZM15 34.2v.04l.02.02.03.01h.03c.77-.27 1.26-.98 1.7-1.5.82-1.01 1.81-1.95 3.06-2.22l.12-.02c.28-.05.56-.08.84-.06.35 0 .7.1 1 .27.15.09.28.2.4.35a1.42 1.42 0 0 1 .22.5.02.02 0 0 1-.02 0 .41.41 0 0 0-.4.01.46.46 0 0 0-.15.15.51.51 0 0 0-.08.2.8.8 0 0 0 .12.46c.08.14.2.24.34.3.55.14 1.12.16 1.67.06.03 0 .06-.03.08-.05a.14.14 0 0 0 .02-.1l-.06-.65c-.06-.66-.14-1.32-.22-1.97-.15-1.27-.32-2.54-.46-3.82l-1-8.7-.04-.36a.14.14 0 0 0-.04-.09.12.12 0 0 0-.09-.03l-.58.05c-1.34.1-2.67.3-3.98.6l-.69.15a.12.12 0 0 0-.06.04.14.14 0 0 0-.04.08L15 34.2Zm3.93-6.05.52-7.74.02-.02a.04.04 0 0 1 .04 0l.01.02.99 7.64a.14.14 0 0 1-.03.1.12.12 0 0 1-.04.04.11.11 0 0 1-.05.01l-1.32.09a.12.12 0 0 1-.1-.04.15.15 0 0 1-.04-.1ZM13.2 37.32c.03.1.04.2.04.3 0 .21-.06.42-.18.6-.1.14-.24.25-.4.33a5.8 5.8 0 0 1-.45.16c-.18.07-.37.11-.56.12a.4.4 0 0 1-.25-.06.45.45 0 0 1-.16-.2 1.35 1.35 0 0 1-.06-.4v-.14l.03-.03.4-.1.03.15c.01.05.03.1.06.13.02.03.04.05.06.05.03.01.06.02.09 0l.18-.03c.18-.05.36-.1.54-.18a.96.96 0 0 0 .08-.08.34.34 0 0 0 .06-.1v-.1a.1.1 0 0 0 0-.06.1.1 0 0 0-.04-.04.57.57 0 0 0-.36-.02l-.4.06a.86.86 0 0 1-.43-.03.37.37 0 0 1-.18-.11.42.42 0 0 1-.09-.2 1.5 1.5 0 0 1-.02-.45.08.08 0 0 0 .03-.06v-.05c.07-.21.2-.4.38-.51.16-.12.35-.2.54-.25l.27-.08c.34-.06.57 0 .67.2.07.18.1.38.07.58l-.02.02-.41.1-.01-.01c0-.19-.06-.3-.16-.33-.1-.02-.2 0-.28.03l-.16.05-.17.05-.11.08a.28.28 0 0 0-.1.11.27.27 0 0 0 0 .19l.06.08a.7.7 0 0 0 .37.02 2.25 2.25 0 0 1 .77-.02c.06 0 .11.03.16.07.05.04.09.1.1.15h.01ZM17.07 34.9l-.05 1.82a1.07 1.07 0 0 1-.44.8 2.4 2.4 0 0 0-.2.1 3.88 3.88 0 0 1-.92.15.07.07 0 0 0-.06 0l-.02-.03h-.03a.24.24 0 0 1-.06-.03.63.63 0 0 1-.25-.37 2.1 2.1 0 0 1-.05-.51v-.19a2.7 2.7 0 0 0 0-.46v-.46c0-.15 0-.3.02-.46a.9.9 0 0 1 .22-.07l.23-.04.05.02c.02.03.03.08.02.12v.14L15.5 37c.03.16.1.24.2.23.06 0 .26-.04.59-.1a.42.42 0 0 0 .15-.13.45.45 0 0 0 .08-.18 38.05 38.05 0 0 0 .03-1.43V35a.17.17 0 0 1 .04-.06.16.16 0 0 1 .07-.03l.13-.03.16-.03c.06-.01.1 0 .1.06h.01ZM20.93 35.32l-.06.18a.58.58 0 0 1-.08.16.84.84 0 0 1-.6.3 4.55 4.55 0 0 1-.48.03c-.05 0-.1.02-.14.03l-.22.03v1.03c-.02.07-.04.1-.08.1l-.4.04-.04-.05c0-.37 0-.92.02-1.66a3.27 3.27 0 0 1-.02-.47v-.47c0-.04.02-.06.07-.06.57-.08 1.03-.14 1.39-.17.32 0 .52.13.6.36.03.1.05.22.05.33l-.02.3Zm-.52-.1a.6.6 0 0 0 .01-.09c0-.04 0-.07-.02-.1a.2.2 0 0 0-.08-.1h-.03l-.03-.01c-.14 0-.28 0-.43.02l-.43.05-.04.03v.49l.04.03.46-.04c.08 0 .13-.01.15-.02.22-.03.36-.11.4-.27ZM24.7 34.07v.46a.1.1 0 0 1-.03.04.09.09 0 0 1-.05.02h-.23l-.76.05-.34.02c-.01 0-.03 0-.04.02a.07.07 0 0 0-.02.04v.22a.7.7 0 0 0 0 .12.14.14 0 0 0 .04.09l.74-.02a.1.1 0 0 1 .04.03 3.62 3.62 0 0 1 0 .45l-.04.03-.74.04a.39.39 0 0 0-.05.27v.2l.04.03c.3-.02.76-.03 1.37-.04.04.02.06.04.06.06 0 .15 0 .3-.02.46a.26.26 0 0 1-.1.04.5.5 0 0 1-.1.01h-.1l-1.35.06a.3.3 0 0 0-.09-.01h-.11c-.04 0-.09 0-.13-.02a.35.35 0 0 1-.02-.14v-.15a43.99 43.99 0 0 0-.04-1.87c0-.11 0-.22.02-.33.03-.11.08-.17.15-.17l.05.01a.3.3 0 0 0 .04 0 7.09 7.09 0 0 0 .55-.03l.75-.05h.4l.05.01.03.02.02.02ZM28.68 36.6c0 .04-.03.06-.06.06a.3.3 0 0 1-.06-.01h-.28a.18.18 0 0 1-.09-.02.19.19 0 0 1-.06-.07.5.5 0 0 1-.04-.27v-.4a.33.33 0 0 0-.05-.19.3.3 0 0 0-.15-.12 5.6 5.6 0 0 0-.81-.03l-.02.05c0 .22 0 .56-.02 1l-.03.02h-.24l-.23-.01a.06.06 0 0 1-.03-.03.07.07 0 0 1-.01-.04l-.02-.1.03-2.43a.15.15 0 0 1 .05-.05.13.13 0 0 1 .08-.02l.16-.01 1.05.03c.12.02.24.05.36.1.13.04.24.12.32.22.08.13.12.27.11.42 0 .07 0 .14-.02.22a.6.6 0 0 1-.11.22.55.55 0 0 1-.19.15l.01.02.03.02.06.04a.73.73 0 0 1 .2.6v.23c0 .13.02.26.05.39Zm-.6-1.89a.3.3 0 0 0-.12-.12 1.64 1.64 0 0 0-.43-.05h-.44v.52l.82-.01.12-.07a.25.25 0 0 0 .06-.18l-.01-.09ZM32.56 34.46l-.02.32-.05.03a45.74 45.74 0 0 0-1.39-.12c-.03.15-.03.3-.01.46l.03.03.76.08.02.01v.02l.02.05-.01.38a.18.18 0 0 1-.13.04h-.09a1.01 1.01 0 0 0-.13-.02l-.23-.02-.23-.01-.03.48v.54l-.05.05c-.16-.01-.31-.03-.47-.06l-.03-.09v-.73l.02-.01a14.2 14.2 0 0 1-.02-.91v-.9c0-.03.03-.04.08-.06.68.06 1.32.12 1.91.19a.1.1 0 0 1 .05.04.1.1 0 0 1 0 .06v.08a.3.3 0 0 0 0 .07ZM36.3 36.43c0 .17-.06.34-.16.49a.65.65 0 0 1-.37.28c-.16.04-.33.05-.49.02a1.6 1.6 0 0 1-.61-.21 1.22 1.22 0 0 1-.4-.53 1.31 1.31 0 0 1-.08-.67v-.45c0-.16.03-.32.1-.45a.85.85 0 0 1 .3-.34c.2-.1.44-.13.67-.08l.12.02.12.02a1 1 0 0 1 .52.33c.22.3.33.68.3 1.07 0 .13 0 .3-.02.5Zm-.53-.51v-.28a.58.58 0 0 0-.06-.26.69.69 0 0 0-.24-.26 1.75 1.75 0 0 0-.2-.04.74.74 0 0 0-.3.01.34.34 0 0 0-.13.1.37.37 0 0 0-.07.17 2.73 2.73 0 0 0 0 .85.57.57 0 0 0 .3.38l.2.04c.11.03.22 0 .3-.05.14-.08.2-.25.2-.53v-.13ZM40.15 37.2a.97.97 0 0 1-.16.48.59.59 0 0 1-.37.25 1.1 1.1 0 0 1-.48-.02 1.74 1.74 0 0 1-.6-.26c-.11-.1-.2-.2-.29-.32a1.75 1.75 0 0 1-.19-.9v-.46c0-.16.03-.3.1-.44a.78.78 0 0 1 .3-.32c.2-.09.44-.1.66-.02l.12.02.12.03c.2.07.38.2.51.37.22.31.33.7.31 1.1 0 .12 0 .29-.03.49Zm-.52-.55v-.28a.6.6 0 0 0-.06-.26.75.75 0 0 0-.25-.28 1.68 1.68 0 0 0-.19-.06.72.72 0 0 0-.3 0 .3.3 0 0 0-.13.09.34.34 0 0 0-.06.15 2.68 2.68 0 0 0-.01.85c.02.09.06.17.11.24a.6.6 0 0 0 .2.17l.2.06c.1.03.2.02.3-.03.12-.07.18-.24.18-.52v-.13ZM44.07 38.01c.02.21-.02.43-.1.62a.64.64 0 0 1-.15.22.59.59 0 0 1-.23.13l-.1.02a2.83 2.83 0 0 1-.71-.14 14.44 14.44 0 0 1-.76-.26l-.03-.03-.01-.01v-.02c-.02-.96-.01-1.83.01-2.6.03-.03.07-.04.13 0l.14.04.6.19c.2.06.4.14.58.24.16.1.3.23.4.4a1.56 1.56 0 0 1 .23.87v.33Zm-.54-.03-.01-.64a.63.63 0 0 0-.23-.38 1.23 1.23 0 0 0-.37-.18l-.16-.05a1.32 1.32 0 0 1-.17-.06l-.04.02-.01.35c-.02.48-.02.85-.01 1.13l.02.04c.23.1.46.16.7.2.2-.04.3-.18.28-.43Z" fill="#04304D"/></svg>