<!-- by TradingView --><svg xmlns="http://www.w3.org/2000/svg" width="56" height="56" viewBox="0 0 56 56"><path fill="#F0F3FA" d="M0 0h56v56H0z"/><path d="M29 23.68v2.98h1v-3.02L31.69 21h-1.24l-.74 1.36c-.07.11-.13.24-.18.37L28.59 21h-1.24L29 23.68ZM24 22h1v4h1v-4h1v-1h-3v1Zm-1.96 0c.23 0 .63-.03.63.6 0 .1-.01.2-.05.28a.6.6 0 0 1-.36.38.44.44 0 0 1-.25.03H21V22h1.04ZM20 26h1v-1.78h.75l.87 1.78h1.2l-1-1.98c.27-.08.5-.26.66-.5.17-.26.25-.57.23-.88 0-.4-.11-.8-.34-1.1-.4-.5-.97-.54-1.43-.54H20v5Zm-4 0h3.4v-1H17v-1h2v-1h-2v-1h2.4v-1H16v5Zm-2.52-2c.23 0 .7.05.7.52 0 .48-.52.46-.88.48h-.82v-1h1Zm-.04-2c.2 0 .63 0 .63.48s-.46.51-.7.52h-.9v-1h.97Zm-1.96 4h1.85c.4.03.8-.04 1.17-.2.21-.1.4-.26.52-.47.13-.22.2-.46.2-.73.01-.27-.07-.54-.23-.75-.23-.26-.54-.4-.86-.42.18-.02.35-.1.5-.2.15-.12.26-.28.35-.46.06-.16.08-.33.08-.5 0-.16-.04-.33-.1-.48a1.22 1.22 0 0 0-.27-.4c-.11-.12-.24-.2-.38-.26-.37-.1-.75-.15-1.13-.13h-1.7v5Zm-1.89 0h1v-5h-1v5Zm-3.1 0H9v-1H7.5v-5H6.48v6Z" fill="#005288"/><path d="M50.84 22.45c-5.65 1.83-13.88 3.3-22.6 4.1-8.27.74-16.13.78-22.28.19-.73-.07-.96.31-.96.31 3.4.37 6.8.54 10.22.53 4.1 0 8.54-.21 13.1-.62 8.57-.79 15.19-2 20.88-3.77 0 0 2.44-.67 1.64-.74M50.85 38c-5.66-1.78-13.9-3.23-22.61-4-8.27-.72-16.13-.76-22.28-.18-.73.07-.96-.31-.96-.31 3.4-.36 6.8-.52 10.22-.5 4.1 0 8.54.19 13.1.59 8.58.76 15.19 1.93 20.88 3.66 0 0 2.44.66 1.64.72" fill="#717073"/><path d="M7.67 29.57H7V29h1.92v.57h-.68V32h-.56l-.01-2.43Zm1.51-.02c.25-.03.5-.05.76-.05.28-.02.56.05.8.2.08.06.13.14.18.23.04.1.06.19.05.29 0 .13-.05.26-.13.37-.08.1-.18.2-.32.24v.02c.1.04.17.1.23.18.06.08.1.18.1.28l.21.69h-.55a2.73 2.73 0 0 1-.18-.57c-.06-.31-.17-.4-.4-.4h-.17V32h-.58v-2.45Zm.56 1.06h.24c.28 0 .45-.13.45-.36 0-.21-.16-.33-.42-.34-.08 0-.17 0-.26.02v.68ZM12 32v-2.46h-.57V32H12Zm.54-2.45c.26-.03.51-.06.77-.05.27-.02.54.05.76.2.1.07.16.16.2.26.04.1.07.2.07.31a.77.77 0 0 1-.23.6c-.23.18-.52.27-.82.25h-.2V32h-.55v-2.45Zm.56 1.12c.07.01.13.02.2.01.3 0 .48-.15.48-.4s-.16-.36-.44-.36c-.08 0-.16 0-.24.02v.73ZM15.14 32l.18-.77h.7l.2.77h.61l-.78-3h-.74l-.77 3h.6Zm.65-1.92.16.64h-.55l.14-.64.08-.39.04-.19.06.27.07.31Zm1.37-.53c.25-.04.5-.06.76-.05.37-.03.73.06 1.03.25a1.09 1.09 0 0 1 .42.94c.02.18-.02.37-.1.54-.06.17-.17.33-.32.45-.33.24-.74.34-1.16.32-.22 0-.43-.01-.65-.04v-2.41h.02Zm.57 2a.9.9 0 0 0 .2 0c.5 0 .84-.26.84-.85a.72.72 0 0 0-.2-.58.65.65 0 0 0-.27-.16.7.7 0 0 0-.33-.04c-.08 0-.17 0-.26.02l.02 1.62Zm1.86-2.02.8 2.46h.66l.84-2.45h-.6l-.32 1.04c-.09.29-.16.57-.23.88-.06-.31-.14-.6-.22-.89l-.3-1.04h-.63Zm3.18 0V32h-.56v-2.46h.56Zm1.17 2.01c-.22 0-.43-.06-.63-.16l-.12.48c.23.1.47.15.7.14.7 0 1.02-.35 1.02-.77 0-.34-.2-.56-.65-.73-.33-.12-.46-.22-.46-.35 0-.13.11-.23.36-.23.18-.01.36.03.53.11l.13-.45c-.2-.09-.42-.13-.64-.12-.6 0-.95.32-.95.74 0 .36.27.59.69.73.3.11.42.2.42.35 0 .15-.14.26-.4.26Zm3.7-.84c0 .8-.5 1.3-1.23 1.3s-1.18-.55-1.18-1.25.48-1.3 1.22-1.3c.73 0 1.2.58 1.2 1.25Zm-1.82.03c0 .48.23.83.61.83s.6-.36.6-.84-.21-.83-.6-.83c-.38 0-.61.36-.61.84Zm2.99-1.24c-.26 0-.51.02-.76.05V32h.57v-.97h.16c.24 0 .35.09.41.4.05.2.1.38.18.57h.58a7.58 7.58 0 0 1-.2-.7.6.6 0 0 0-.11-.27.58.58 0 0 0-.23-.19v-.02a.66.66 0 0 0 .45-.61c0-.1-.01-.2-.05-.29a.65.65 0 0 0-.19-.23 1.32 1.32 0 0 0-.81-.2Zm.03 1.11h-.23v-.68l.26-.02c.26.01.42.12.42.35 0 .22-.17.35-.45.35Zm2.95-1.6v1.16h.94V29h.56v3h-.56v-1.26h-.94V32h-.55v-3h.55Zm3.1 3c.73 0 1.23-.5 1.23-1.3 0-.67-.44-1.24-1.19-1.24-.74 0-1.22.59-1.22 1.29 0 .7.45 1.25 1.18 1.25Zm.04-.44c-.38 0-.62-.35-.62-.83s.23-.84.62-.84c.38 0 .6.35.6.83s-.23.84-.6.84Zm1.6-2.02h.57v2h1V32h-1.57v-2.46Zm2.7-.04c-.25-.01-.51.01-.76.05v2.4c.2.04.42.04.64.04.41.03.82-.07 1.15-.31a1.25 1.25 0 0 0 .42-1c.01-.17-.02-.35-.1-.51-.07-.17-.18-.3-.32-.42-.3-.19-.67-.28-1.03-.25Zm0 2.06h-.2v-1.62l.26-.02a.7.7 0 0 1 .32.03.72.72 0 0 1 .44.43c.03.1.05.21.03.32 0 .59-.33.86-.85.86Zm2.43-2.02V32h-.57v-2.46h.57Zm.54 0V32h.53v-.75c0-.4 0-.74-.02-1.07.13.3.28.59.44.87l.53.95h.6v-2.46h-.53v.72c0 .34.02.69.05 1.03a7.51 7.51 0 0 0-.4-.84l-.54-.9h-.66Zm4.7 2.32a2.77 2.77 0 0 1-1.4.07 1.46 1.46 0 0 1-.46-.27 1.27 1.27 0 0 1-.28-.41 1.25 1.25 0 0 1-.08-.49c0-.82.61-1.29 1.43-1.29.24 0 .48.04.7.12l-.11.43c-.19-.08-.39-.1-.59-.1-.2 0-.4.09-.56.23a.79.79 0 0 0-.03 1.11c.14.15.34.25.55.27a.8.8 0 0 0 .26-.04v-.52h-.4v-.42h.94l.02 1.3Zm1.11-.32c-.21 0-.43-.06-.62-.16l-.11.47c.22.1.46.15.7.15.7 0 1.02-.35 1.02-.77 0-.34-.2-.56-.65-.73-.33-.12-.47-.22-.47-.35 0-.13.12-.23.37-.23.18-.01.36.03.53.11l.12-.45c-.2-.09-.43-.13-.64-.12-.6 0-.95.32-.95.74 0 .36.27.59.68.73.3.11.43.2.43.35 0 .15-.14.26-.4.26Z" fill="#005288"/></svg>