<!-- by TradingView --><svg width="56" height="56" viewBox="0 0 56 56" xmlns="http://www.w3.org/2000/svg"><path fill="#F0F3FA" d="M0 0h56v56H0z"/><path fill-rule="evenodd" d="M28 44a16 16 0 1 0 0-32 16 16 0 0 0 0 32Zm-6-24a25.56 25.56 0 0 0 4.45.28c2.27-.09 6.68-.26 8.55 3.72-.42-.21-2.26-.52-5.62-.52-3.35 0-5.85-.6-7.38-3.48Zm2.83 6.3c-1.96 0-4.04-.2-4.83-.3 2 2.88 5.27 3.48 9.66 3.48 4.38 0 6.8.3 7.34.52-2.44-3.98-8.2-3.8-11.19-3.72l-.98.02ZM19 32a48.7 48.7 0 0 0 6.16.28C28.3 32.2 34.4 32.02 37 36c-.58-.21-3.13-.52-7.78-.52-4.64 0-8.1-.6-10.22-3.48Z" fill="#005CB9"/></svg>