<!-- by TradingView --><svg width="56" height="56" viewBox="0 0 56 56" xmlns="http://www.w3.org/2000/svg"><path fill="#F0F3FA" d="M0 0h56v56H0z"/><path d="M19.83 14.52C22.8 11.65 27.73 10.19 32 10v2.35c-8.1 0-14.5 5.98-15.67 13.04a5.44 5.44 0 0 1-2.33-.38c.46-4.2 3.05-7.76 5.83-10.5ZM32 39.7c-.5-.13-1-.19-1.54-.25-1.26-.15-2.7-.32-4.61-1.53a11.48 11.48 0 0 1-4.15-15.34c.19-.34.37-.68.52-1.07a3.92 3.92 0 0 1-.96-.56c-.3-.2-.6-.43-.98-.58-1.3 1.4-2.26 4.77-2.33 7.06-.13 2.73.65 5.6 1.88 7.56 2.26 3.7 5.95 6.68 12.17 6.94V39.7Zm0 4.07a16.18 16.18 0 0 1-10.62-4.07c-2.85-2.6-4.08-4.64-5.18-9.54l-2.2.32c-.06 1.72 1.3 4.96 2 6.23A18.15 18.15 0 0 0 32 46v-2.23Zm-5.76-11.13c-.12-.26-.27-.5-.44-.76a6.02 6.02 0 0 1-1.05-2.8c-.52-4.13 2.46-7.95 7.25-8.2V18.7a9.53 9.53 0 0 0-8.48 5.1c-1.68 3.23-1.1 7.88 1.1 10.1.52-.19 1.3-.89 1.62-1.27Zm-2.6-15.83c2.99-1.79 4.41-2.49 8.36-2.68v2.36a10.63 10.63 0 0 0-5.94 1.57c-.38.21-.74.42-1.12.59-.17-.28-.38-.55-.6-.82-.27-.36-.54-.7-.7-1.02Z" fill="#0AAEFF"/><path d="M30.6 24.21c-.9-.5-1.6-.06-1.6.96v7.66c0 1.02.7 1.47 1.6.96l6.73-3.83c.9-.51.9-1.34 0-1.85l-6.73-3.9Z" fill="#FF3030"/></svg>