<!-- by TradingView --><svg width="56" height="56" viewBox="0 0 56 56" xmlns="http://www.w3.org/2000/svg"><path fill="#F0F3FA" d="M0 0h56v56H0z"/><path d="M42.57 41.94c-.44-3.4-.81-6.79-1.43-10.11-.32-1.7-.7-3.33-1.25-4.96-.25-.78-.63-1.57-1.07-2.28-.43-.65-1.06-1.3-1.87-1.3-.37 0-.68.19-.93.51-.25.33-.44.66-.63 1.05-.37.71-.62 1.56-.93 2.35-.56 1.63-1 3.26-1.81 4.76-.19.39-.44.78-.69 1.1-.3.33-.62.66-1.06.79-.93.2-1.8-.07-2.5-.59a5.57 5.57 0 0 1-1.62-2.02c-.43-.78-.74-1.56-1-2.41-.55-1.63-.93-3.33-1.3-4.96-.38-1.63-.69-3.33-1.25-4.9-.13-.38-.31-.77-.5-1.1-.19-.33-.44-.65-.75-.72a2.7 2.7 0 0 0-1 .07c-.37.13-.68.32-.93.59-1.19 1.04-1.94 2.6-2.56 4.17a52.5 52.5 0 0 0-2.62 9.78c-.31 1.7-.56 3.33-.81 5.02-.25 1.7-.44 3.4-.57 5.1h-.06c.13-3.4.5-6.8 1-10.18.56-3.4 1.25-6.72 2.5-9.98.62-1.57 1.37-3.2 2.68-4.37.31-.26.69-.52 1.12-.72.5-.13.94-.26 1.44-.06s.8.58 1.06.97c.25.4.37.79.56 1.24.56 1.63.87 3.33 1.25 5.02.37 1.7.68 3.33 1.24 4.96.25.78.57 1.57.94 2.35a5.5 5.5 0 0 0 1.5 1.9c.31.25.68.38 1.06.51.37.07.75.13 1.12.07.69-.2 1.19-.98 1.56-1.63.75-1.5 1.25-3.13 1.81-4.7.31-.78.56-1.63.94-2.41.18-.4.43-.79.68-1.11.25-.33.69-.65 1.19-.59.43 0 .87.2 1.18.46.32.26.63.65.88.98.43.71.8 1.56 1.06 2.35.56 1.63.87 3.32 1.18 4.95.5 3.2.81 6.65 1.19 10.05Z" fill="#262261"/><path d="M44.07 41.94c-.44-3.6-1-7.11-1.81-10.64a37.3 37.3 0 0 0-1.5-5.15 16.7 16.7 0 0 0-1.12-2.41c-.44-.72-1-1.44-1.81-1.7a2.7 2.7 0 0 0-2.25.72 6.38 6.38 0 0 0-1.43 2.15c-.7 1.63-1.07 3.4-1.69 5.1-.31.84-.62 1.75-1.3 2.4-.38.33-.88.53-1.38.46-.5-.07-.94-.26-1.25-.59a6.06 6.06 0 0 1-1.43-2.34 41.1 41.1 0 0 1-.88-2.55c-.5-1.76-.8-3.52-1.25-5.22-.43-1.7-.87-3.52-1.68-4.95-.44-.72-1-1.37-1.75-1.3-.74 0-1.5.45-2.12.97a12.77 12.77 0 0 0-2.87 4.3 46.78 46.78 0 0 0-3.18 10.18A87.16 87.16 0 0 0 11.81 42h-.06c.12-3.59.56-7.17 1.18-10.7A45.37 45.37 0 0 1 16 21a13.4 13.4 0 0 1 3-4.5 4.02 4.02 0 0 1 2.5-1.1c.49-.07.99.19 1.36.45.38.32.63.72.88 1.1.87 1.64 1.24 3.4 1.68 5.16.38 1.76.75 3.52 1.19 5.22.25.85.5 1.7.8 2.54.32.78.76 1.63 1.32 2.15s1.5.72 2.06.13c.56-.52.93-1.37 1.24-2.21.57-1.7 1-3.46 1.75-5.1a6 6 0 0 1 1.5-2.2 3.03 3.03 0 0 1 2.56-.73c.93.26 1.5 1.05 1.93 1.83.44.78.81 1.63 1.12 2.48.63 1.7 1.06 3.46 1.44 5.22.87 3.39 1.37 6.9 1.75 10.5Z" fill="#4050A2"/><path d="M44.94 41.94c-.5-3.72-1-7.44-1.8-11.16-.45-1.82-.88-3.65-1.57-5.34-.37-.85-.75-1.7-1.25-2.48-.5-.72-1.12-1.44-2-1.7a2.68 2.68 0 0 0-1.24-.06c-.44.06-.88.2-1.25.45a5.32 5.32 0 0 0-1.8 1.96c-.95 1.56-1.44 3.4-2 5.22-.13.45-.32.91-.44 1.37-.19.45-.38.91-.69 1.3-.19.2-.43.4-.68.4-.32.06-.57-.07-.82-.2-.43-.33-.62-.79-.87-1.24-.75-1.76-1.06-3.66-1.5-5.48a86.61 86.61 0 0 0-1.3-5.48c-.26-.91-.57-1.76-1-2.6a5.63 5.63 0 0 0-1.56-2.1c-.32-.26-.69-.39-1.13-.45a2.8 2.8 0 0 0-1.24.13c-.82.26-1.57.72-2.19 1.37a14.9 14.9 0 0 0-3.06 4.5c-1.68 3.32-2.74 6.91-3.68 10.56a78.62 78.62 0 0 0-1.8 11.03H10c.13-3.79.69-7.5 1.44-11.22.8-3.65 1.87-7.3 3.55-10.7.88-1.7 1.81-3.32 3.18-4.63a5.96 5.96 0 0 1 2.44-1.5c.5-.13.93-.2 1.43-.13.5.07 1 .26 1.38.59a5.12 5.12 0 0 1 1.8 2.22c.44.84.75 1.76 1 2.67.56 1.83.94 3.65 1.31 5.48.38 1.82.75 3.72 1.44 5.41.19.4.37.78.68 1.05.32.26.69.19.94-.14.5-.65.81-1.56 1.12-2.47.57-1.77 1.13-3.6 2.06-5.22a5.86 5.86 0 0 1 1.94-2.02 3.57 3.57 0 0 1 2.74-.4 4.24 4.24 0 0 1 2.12 1.83 12 12 0 0 1 1.25 2.54 33.2 33.2 0 0 1 1.5 5.42c.75 3.72 1.24 7.43 1.62 11.22Z" fill="#408BCA"/><path d="M43.38 41.94a80.91 80.91 0 0 0-2.12-10.96 20.86 20.86 0 0 0-2-5.09 4.7 4.7 0 0 0-1.8-1.89c-.38-.2-.82-.26-1.2-.13-.37.13-.74.4-.99.72-.5.71-.88 1.56-1.19 2.41-.3.85-.56 1.76-.87 2.61-.31.85-.62 1.76-1.12 2.6-.25.4-.56.8-.94 1.12-.37.32-.87.45-1.37.45-.5 0-1-.26-1.31-.58a3.6 3.6 0 0 1-.81-1.18c-.44-.84-.69-1.76-.94-2.67-.5-1.83-.81-3.65-1.18-5.48-.38-1.83-.75-3.65-1.25-5.41a15.2 15.2 0 0 0-.94-2.55 5.05 5.05 0 0 0-1.5-2.08c-.3-.26-.68-.33-1.05-.4-.38 0-.82.07-1.2.27a4.7 4.7 0 0 0-1.92 1.63 16.32 16.32 0 0 0-2.5 4.76 72.37 72.37 0 0 0-2.75 10.82A129.7 129.7 0 0 0 11 41.94h-.06c.12-3.72.5-7.44 1.06-11.09a59.4 59.4 0 0 1 2.62-10.83 18.75 18.75 0 0 1 2.62-4.95 5.32 5.32 0 0 1 2.18-1.76c.44-.2.94-.33 1.44-.27.5 0 1 .2 1.43.46.81.59 1.31 1.5 1.69 2.35.37.85.68 1.76.93 2.67.5 1.83.81 3.65 1.19 5.48.37 1.83.68 3.65 1.12 5.41.25.92.5 1.77.87 2.55.38.78.94 1.56 1.75 1.56.81.07 1.5-.58 2-1.37.44-.78.81-1.63 1.06-2.47.31-.85.56-1.77.87-2.61.31-.85.62-1.77 1.25-2.55.31-.39.69-.72 1.12-.85a2 2 0 0 1 1.37.13 4.77 4.77 0 0 1 1.88 2.03 21.9 21.9 0 0 1 2 5.21c1 3.53 1.55 7.18 1.99 10.9Z" fill="#00ADEE"/><path d="M43.57 41.94c-.44-3.46-.81-6.92-1.44-10.37-.3-1.7-.62-3.4-1.18-5.1-.25-.84-.56-1.62-.94-2.4-.37-.72-.93-1.5-1.68-1.7a1.05 1.05 0 0 0-1.06.2c-.32.26-.57.58-.75.97-.38.72-.69 1.57-1 2.35-.56 1.63-1.06 3.33-1.81 4.9-.37.78-.87 1.62-1.75 2.01-.19.07-.43.14-.68.14-.25 0-.44 0-.69-.07a3.04 3.04 0 0 1-1.25-.52 5.79 5.79 0 0 1-1.68-2.02c-.44-.79-.75-1.63-1-2.42-.56-1.7-.94-3.39-1.31-5.08a22 22 0 0 0-1.19-4.96c-.12-.4-.3-.78-.56-1.1-.25-.34-.5-.6-.8-.6-.7-.06-1.44.4-2 .98-1.13 1.18-1.81 2.8-2.44 4.37a60.44 60.44 0 0 0-2.56 10.05c-.3 1.7-.56 3.45-.8 5.15a69.6 69.6 0 0 0-.57 5.22h-.06c.12-3.46.5-6.98 1.06-10.44a56.23 56.23 0 0 1 2.43-10.17 13.95 13.95 0 0 1 2.56-4.63c.62-.66 1.5-1.18 2.43-1.11.57.06.94.45 1.25.84.25.4.44.79.63 1.24.62 1.7.93 3.4 1.24 5.1.38 1.69.69 3.38 1.25 5.01a13 13 0 0 0 .94 2.35 5 5 0 0 0 1.56 1.9c.3.19.68.38 1.06.45.37.06.8.13 1.12-.07.69-.32 1.18-1.04 1.56-1.82.75-1.5 1.25-3.2 1.8-4.83.32-.85.63-1.63 1-2.41.26-.4.45-.79.82-1.05.19-.13.37-.26.62-.32.25-.07.44 0 .69.06.87.33 1.43 1.11 1.8 1.9.38.78.7 1.62.95 2.47.5 1.7.8 3.4 1.12 5.1.68 3.45 1 6.97 1.3 10.43Z" fill="#5D6BB1"/><path d="M45.13 41.94c-.5-3.66-1-7.24-1.81-10.83a54.46 54.46 0 0 0-1.38-5.28c-.3-.85-.62-1.7-1-2.48a4.95 4.95 0 0 0-1.62-1.96 1.71 1.71 0 0 0-1.24-.2c-.44.07-.81.27-1.13.46a5.15 5.15 0 0 0-1.56 2.09c-.74 1.63-1.18 3.39-1.74 5.15-.31.85-.63 1.76-1.25 2.48a1.9 1.9 0 0 1-1.31.59c-.5 0-1-.2-1.31-.52a5.56 5.56 0 0 1-1.5-2.35c-.37-.85-.62-1.76-.87-2.61-.5-1.76-.87-3.59-1.31-5.35-.44-1.76-.87-3.59-1.75-5.09-.25-.39-.5-.71-.81-.9-.31-.2-.62-.27-1.06-.2-.81.06-1.5.58-2.12 1.17-1.19 1.24-2 2.87-2.75 4.5a54.15 54.15 0 0 0-3.12 10.43 90.26 90.26 0 0 0-1.56 10.83h-.06c.13-3.65.56-7.3 1.19-10.9a56.3 56.3 0 0 1 2.93-10.56 15.7 15.7 0 0 1 2.87-4.7 4.4 4.4 0 0 1 2.43-1.36c.44-.07 1.06 0 1.44.32.43.26.75.72 1 1.11.5.85.8 1.7 1.06 2.61.25.91.5 1.76.68 2.67.44 1.77.75 3.6 1.25 5.35.25.85.5 1.77.81 2.55.31.84.75 1.63 1.37 2.15.63.52 1.56.59 2.12 0 .57-.59.88-1.5 1.2-2.35.55-1.7.99-3.52 1.8-5.15a5.1 5.1 0 0 1 1.69-2.15 3 3 0 0 1 1.24-.52c.25 0 .44-.07.69-.07.25 0 .5.13.68.2.82.52 1.31 1.3 1.75 2.15.44.84.75 1.7 1 2.54a89 89 0 0 1 3.06 16.18Z" fill="#00ADEE"/><path d="M46 41.94c-.5-3.79-1-7.63-1.8-11.35-.38-1.9-.88-3.72-1.5-5.55-.32-.91-.7-1.76-1.13-2.6a5.54 5.54 0 0 0-1.8-2.03c-.38-.2-.82-.26-1.26-.26-.43 0-.87.13-1.3.33a5.42 5.42 0 0 0-2 1.82c-1 1.57-1.56 3.4-2.13 5.22-.3.92-.56 1.83-1.12 2.68-.12.2-.37.39-.62.52s-.56.06-.81-.07c-.5-.26-.75-.78-.94-1.17-.43-.91-.68-1.83-.93-2.74-.25-.91-.44-1.9-.63-2.8-.43-1.9-.8-3.72-1.37-5.55-.31-.91-.62-1.76-1-2.6a5.36 5.36 0 0 0-1.62-2.1c-.75-.38-1.62-.38-2.43-.06-.81.33-1.5.85-2.19 1.5-1.25 1.3-2.18 3-3 4.7a53.42 53.42 0 0 0-3.55 10.82 80.17 80.17 0 0 0-1.12 5.61 54.45 54.45 0 0 0-.69 5.68H11c.19-3.85.68-7.7 1.5-11.42a54.4 54.4 0 0 1 3.43-10.95 16.24 16.24 0 0 1 3.12-4.83 6.04 6.04 0 0 1 2.37-1.63c.43-.2.93-.26 1.43-.26.5 0 1 .2 1.44.46a5.69 5.69 0 0 1 1.8 2.28c.45.84.76 1.82 1 2.74.57 1.82.94 3.71 1.32 5.6.43 1.83.75 3.79 1.5 5.48.18.4.43.85.74.98.32.2.69.07.94-.32.5-.72.75-1.7 1.06-2.55.56-1.82 1.12-3.72 2.18-5.35a5.47 5.47 0 0 1 2.12-1.89c.44-.2.94-.32 1.38-.32.5-.07 1 .06 1.43.26.87.45 1.44 1.3 1.94 2.15.5.85.8 1.76 1.12 2.6a45.36 45.36 0 0 1 1.43 5.55c.88 3.79 1.31 7.57 1.75 11.42Z" fill="#343086"/><path d="M44.38 41.94a99.72 99.72 0 0 0-2.06-11.29 27.29 27.29 0 0 0-1.93-5.35 5.1 5.1 0 0 0-1.75-2.08c-.38-.26-.81-.33-1.25-.26a2 2 0 0 0-1.12.65 9.6 9.6 0 0 0-1.56 2.28c-.44.85-.81 1.7-1.19 2.61l-1.12 2.61c-.19.46-.44.85-.69 1.3-.25.4-.5.85-.93 1.11-.19.13-.5.26-.81.2-.25-.07-.5-.2-.69-.4-.37-.38-.56-.84-.81-1.3-.38-.91-.62-1.82-.81-2.8-.44-1.9-.75-3.78-1.06-5.68a56.2 56.2 0 0 0-1.19-5.6 33.3 33.3 0 0 0-.87-2.68 5.51 5.51 0 0 0-1.5-2.22c-.25-.2-.62-.39-1.06-.39-.37 0-.81.07-1.18.2-.82.32-1.44.98-2 1.7a17.5 17.5 0 0 0-2.5 4.95 66.24 66.24 0 0 0-2.8 11.02c-.7 3.79-1.19 7.57-1.5 11.42h-.06a117 117 0 0 1 1.12-11.48 69.58 69.58 0 0 1 2.62-11.22 19.82 19.82 0 0 1 2.62-5.15 5.84 5.84 0 0 1 2.24-1.9c.5-.13 1-.19 1.5-.19s1 .26 1.44.59a5.87 5.87 0 0 1 1.62 2.48c.37.9.69 1.82.87 2.73.5 1.9.81 3.79 1.13 5.68.3 1.89.62 3.78 1 5.6.18.92.43 1.83.8 2.75.2.45.38.84.7 1.1.3.33.68.4 1 .14.3-.27.61-.6.86-.98.25-.4.44-.79.69-1.24.44-.85.75-1.7 1.19-2.61.37-.85.74-1.76 1.18-2.61a8.7 8.7 0 0 1 1.62-2.35 3.5 3.5 0 0 1 1.25-.72c.5-.06 1 .07 1.43.33a5.6 5.6 0 0 1 1.81 2.22c.88 1.7 1.44 3.59 1.88 5.41.93 3.79 1.5 7.57 1.87 11.42Z" fill="#1B75BB"/></svg>