<!-- by TradingView --><svg xmlns="http://www.w3.org/2000/svg" width="56" height="56"><path fill="#F0F3FA" d="M0 0h56v56H0z"/><path d="M29.73 10.53L28 13.28a.75.75 0 00.19 1 .8.8 0 001.05-.1l2.26-2.34c.46-.48.4-1.23-.13-1.62-.53-.39-1.3-.24-1.64.31zm.8 3.46l-.35 3.5a1.12 1.12 0 102.24 0l-.34-3.5a.78.78 0 00-1.55 0zm0 9.64l-.34 3.13a1.12 1.12 0 102.22.01l-.32-3.13a.79.79 0 00-1.56 0zm-8.45-9.71l1.71 2.72c.21.33.13.77-.19 1a.8.8 0 01-1.05-.09l-2.24-2.33c-.46-.47-.4-1.22.13-1.61.53-.4 1.29-.25 1.64.3zm.06 7.1l1.9-2.98c.35-.56 1.12-.7 1.65-.3.52.39.59 1.13.13 1.61l-2.45 2.58a.8.8 0 01-1.05.1.74.74 0 01-.18-1.01zm11.9-1.47l-3.57.76c-.63.13-1 .78-.8 1.4.21.6.9.92 1.5.67l3.34-1.4a.74.74 0 00.42-.93.77.77 0 00-.9-.5zm-12.7 3.62l3.18-.65c.38-.08.76.14.89.51a.74.74 0 01-.42.93l-2.97 1.27c-.59.25-1.28-.06-1.48-.67-.2-.61.17-1.26.8-1.39zm3.08-9.19l3.63.78c.63.13 1 .78.8 1.4-.21.61-.9.92-1.5.67l-3.4-1.42a.74.74 0 01-.42-.92.77.77 0 01.9-.5zm12.72 3.7l-3.2-.65a.78.78 0 00-.88.5c-.13.38.05.78.41.93l2.99 1.28c.59.25 1.28-.06 1.48-.67.21-.61-.16-1.26-.8-1.39zm-7.52 6.7l-1.86-2.92a1.15 1.15 0 00-1.64-.3 1.07 1.07 0 00-.14 1.61l2.4 2.52a.8.8 0 001.05.09c.32-.24.4-.67.19-1z" fill="#EB2E4C"/><path fill-rule="evenodd" d="M13.86 31L13 42h2.53l.34-6.6 2.24 5.1h1.8l2.19-5.1.34 6.6H25l-.92-11h-2.52L19 36.72 16.42 31h-2.56zM26 31h6.06a2.63 2.63 0 011.32 4.9 3.27 3.27 0 01-1.66 6.1H26V31zm2.5 2H31a1 1 0 110 2h-2.5v-2zm0 4h2.75a1.25 1.25 0 110 2.5H28.5V37zm7.5 2.58v1.82c.16.1.36.18.6.25a7.1 7.1 0 001.62.3 6.36 6.36 0 002.24-.1c.49-.11.92-.28 1.3-.51.38-.23.68-.54.9-.9.23-.38.34-.83.34-1.37 0-.4-.08-.76-.23-1.07-.15-.32-.35-.6-.6-.86a7.54 7.54 0 00-2.22-1.42c-.86-.35-1.95-.8-1.95-1.85 0-1.11 1.25-1.4 2.14-1.4.97 0 1.77.22 2.39.65v-1.74a6.1 6.1 0 00-2.5-.38c-.5 0-1 .06-1.48.18-.48.11-.91.29-1.3.53-.37.24-.67.54-.9.92-.24.36-.35.8-.35 1.3 0 .4.07.75.2 1.06.14.3.32.57.55.81.24.24.52.46.84.66.55.34 1.13.61 1.71.89l.3.14c.66.3 1.4.76 1.4 1.6 0 .94-.64 1.45-2.17 1.45a5.37 5.37 0 01-2.23-.56 2.93 2.93 0 01-.6-.4z" fill="#141ED2"/></svg>