<!-- by TradingView --><svg width="56" height="56" viewBox="0 0 56 56" xmlns="http://www.w3.org/2000/svg"><path fill="#F0F3FA" d="M0 0h56v56H0z"/><path d="M12 21.07v16.86c0 1.14.93 2.07 2.07 2.07h6.5c.85 0 1.61-.52 1.93-1.3l3.4-8.62c.13-.3.13-.65.01-.96l-3.42-8.8A2.07 2.07 0 0 0 20.56 19h-6.49c-1.14 0-2.07.93-2.07 2.07Z" fill="#00ADEF"/><path d="M44 21.07v16.86c0 1.14-.93 2.07-2.07 2.07h-6.5c-.85 0-1.61-.52-1.93-1.3l-3.4-8.62c-.13-.3-.13-.65-.01-.96l3.42-8.8c.3-.8 1.08-1.32 1.93-1.32h6.49c1.14 0 2.07.93 2.07 2.07ZM32.7 17H30l1.21-4.17c.18-.28.77-.83 1.67-.83.9 0 1.12.55 1.12.83L32.7 17Z" fill="#BDD63D"/></svg>