<!-- by TradingView --><svg width="56" height="56" viewBox="0 0 56 56" xmlns="http://www.w3.org/2000/svg"><path fill="#F0F3FA" d="M0 0h56v56H0z"/><path d="M43.09 36.08c-.15-.21-.44-.26-.84-.26h-.27c-.17 0-.48.05-1.17.16-.69.1-1.65.26-2.68.39-.66-.65-1.43-1.51-2.28-2.37h3.45c.5 0 .68.02.74.03 1.16.16 1.42.5 1.5.58.12.14.18.26.18.26l.27.08.25.06.52.12c.2.07.35.19.42.32.16.33-.1.63-.1.63ZM15.43 36l-.96-1h7.48L23 36h-7.58Zm27.54-1.63c-.36-.1-.64-.15-.76-.18-.23-.33-.7-.75-2.06-.87l-.83-.04C41.34 31.13 43 28.4 43 25.46V20h-1.84v3.76L40.07 20h-1.69l1.15 3.76-2.25-3.74a3 3 0 0 0-1.26.88l1.7 2.86-2.3-1.73a3 3 0 0 0-.1.57c-.22 2.7-1.6 5.09-3.44 7.05l-.36.39a530.42 530.42 0 0 1-6.23-6.5c-2.46-2.63-4.25-5.86-4.25-9.54h-1.92a12 12 0 0 0 1.1 4.86A13.58 13.58 0 0 1 17.77 14H16.3c-.13 0-.26 0-.4.02.36 2.12 2.24 4.84 2.24 4.84s-1.84-1.37-2.96-3.42c-.24-.44-.42-.8-.55-1.1a4.4 4.4 0 0 0-1.53 1.1 14.3 14.3 0 0 0 2.5 3.45h-.03s-1.91-.78-3.23-2.25a6.08 6.08 0 0 0-.34 2.01c0 2.82 1.13 6.9 4.38 10.86 1.49 1.82 3.09 3.1 4.61 4.49h-8.7l2.8 3h9.2c2.05 1.32 4.5 2 7.12 2 2.45 0 4.75-.67 6.72-1.85 1.83-.23 3.6-.53 3.88-.54h.24c.31 0 .48.03.55.08.14.12.1.53.07.6.2-.06.72-.45.97-.95.2-.4.2-.73.07-1.13-.13-.4-.46-.7-.94-.84Z" fill="#4B6EBE"/></svg>