<!-- by TradingView --><svg width="56" height="56" viewBox="0 0 56 56" fill="none" xmlns="http://www.w3.org/2000/svg">
<rect width="56" height="56" fill="#273B5A"/>
<path d="M23.1111 12C25.8369 12 28.0292 14.1922 28.0292 16.9185C28.0292 14.1922 30.2219 12 32.8881 12H23.1111Z" fill="#4AAA42"/>
<path fill-rule="evenodd" clip-rule="evenodd" d="M28.0304 17.3124C28.0304 14.3678 25.7881 12 23.0001 12V22.6237L28.0304 28L33.0001 22.6237V12C30.2731 12 28.0304 14.3678 28.0304 17.3124Z" fill="white"/>
<path fill-rule="evenodd" clip-rule="evenodd" d="M28.0303 38.5667C28.0303 41.5484 30.273 44 33 44V33H23V44C25.7879 44 28.0303 41.5484 28.0303 38.5667Z" fill="white"/>
<path fill-rule="evenodd" clip-rule="evenodd" d="M17.4666 28.0005C14.4671 28.0606 12 30.2894 12 33H23V23H12C12 25.7717 14.4671 28.0005 17.4666 28.0005" fill="white"/>
<path fill-rule="evenodd" clip-rule="evenodd" d="M38.5338 28.0005C41.6 28.0005 44 25.7717 44 23H33V33H44C44 30.2894 41.6 28.0606 38.5338 28.0005" fill="white"/>
</svg>
