<!-- by TradingView --><svg width="56" height="56" viewBox="0 0 56 56" xmlns="http://www.w3.org/2000/svg"><path fill="#F0F3FA" d="M0 0h56v56H0z"/><path d="M43.48 32.5c-.25-1.04.42-2.06.78-2.44.6-.93 1.3-2.38 0-3a2.36 2.36 0 0 1-1.35-1.92c1.42-2.57.59-3.6 0-3.78.25-2.24-1.67-2.9-2.65-2.96-.25-1.86-1.95-2.6-2.76-2.74-.38-2.53-2.07-2.61-2.86-2.33-.45-.37-1.54-.96-2.3-.42-.74.54-1.9.23-2.39 0-2.03-2.9-3.33-1.86-4.42-.98-.87.7-1.72.74-2.03.67-1.46.25-4.28 1.87-5.52 2.64l-1.4 2.39c-.87-.42-1.54.62-1.77 1.19l-2.29 1.91c.33.44.8 1.42 0 1.92s-.33 1.56 0 2.02v4.04c-.35.1-.83.6 0 1.71.83 1.12 0 1.44-.52 1.46v2.43l1.5.36.43 1.5.88.37v1.6l2.19 1.1c.37 2.15 1.96 2.27 2.7 2.07a2.71 2.71 0 0 0 1.72 1.08c.37 1.66 2.1 1.42 2.91 1.1.42-1.09 1.7-.11 2.3.51.62-.62 1.15-.43 1.35-.26l1.97-.26h.94l.31-.57c.75.7 1.7.68 2.08.57l1.36-.57.98.57c1.57-2.33 2.24-1.7 2.76-3.16.42-1.16 2.01-2.28 2.76-2.7.89-1.27 2.6-4.09 2.34-5.12Z" fill="#EE3727"/><path d="M44.07 30.29c-.36.48-.8 1.34-.59 2.2.25 1.04-1.45 3.86-2.34 5.14-.74.41-2.34 1.53-2.76 2.7-.25.7-.54.91-.95 1.22-.44.32-1 .74-1.8 1.93l-1-.57-1.35.57c-.38.1-1.33.14-2.08-.57l-.31.57h-.65a6.4 6.4 0 0 1-.29-1.45c0-.66-1.14-1.59-1.71-1.97a138.8 138.8 0 0 0-6.14-.26c-2.04-.03-3.23-1.16-4.03-1.91-.4-.39-.7-.68-.97-.68-.62 0-1.16-2.42-1.35-3.62l.52-3.22c-.09-1.41.11-4.35 1.61-4.76 1.87-.52 3.33 2.38 1.98 4.2-1.08 1.44.45 3.64 1.35 4.55l2.5 1.5c.73 0 3-.07 6.24-.36 3.25-.29 3.5.37 3.23.73.7.14 2.5.26 4.16-.36 2.02-.76 3.01-3.31 3.64-4.93l.06-.15c.46-1.2 2.1-.87 3.03-.5Zm-31.73-5.92c-.27-.53-.47-1.31.18-1.72.8-.5.33-1.48 0-1.92l2.29-1.91c.23-.57.9-1.6 1.77-1.2l1.4-2.38c1.24-.77 4.06-2.4 5.52-2.64.24.05.8.04 1.45-.3l1.67 1.03c.05.36-.08 1.17-1.04 1.5-.96.33-2.13 1.17-2.6 1.55a8.12 8.12 0 0 1-2.19 2.02c-.95.54-1.2 1.92-1.2 2.54l-.67 3.27c-.7-.4-2.47-1.24-4-1.4-1.22-.13-2.11.79-2.58 1.56Z" fill="#FBBE31"/><path d="m25.02 12.27 1.55 1.06c.58-.16 2.04-.46 3.35-.47-2.01-2.84-3.3-1.8-4.39-.93a3.5 3.5 0 0 1-.51.34Zm18.34 14.04c.2.28.5.55.9.75 1.3.62.6 2.07 0 3l-.21.26c-.72.17-1.41.24-1.6 0-.31-.38.4-2.65.9-4.01Z" fill="#9D3421"/><path d="M12.52 27.87v.84c-.35.1-.83.6 0 1.71.83 1.12 0 1.44-.52 1.46v2.43l1.5.36.43 1.5.88.37v1.6l2.19 1.1c.37 2.15 1.96 2.27 2.7 2.07a2.71 2.71 0 0 0 1.72 1.08c.37 1.66 2.1 1.42 2.91 1.1.42-1.09 1.7-.11 2.3.51.62-.62 1.15-.43 1.35-.26l1.97-.26h.4c0-1.5-.7-3.8-3.78-3.57-4.21.3-8.48-.94-10.4-3.84a25.21 25.21 0 0 1-2.2-4.9c-.52-1.44-1-2.7-1.45-3.3Z" fill="#F8A34C"/><path fill-rule="evenodd" d="M27.64 14.46c-.07.02-.13.06-.17.17-.12.4-.4.75-.7 1.02a4.3 4.3 0 0 1-.74.53v.49c.43-.15.95-.44 1.47-.78.51-.32 1-.68 1.34-.95a3.45 3.45 0 0 0-.8-.43.8.8 0 0 0-.4-.05Zm1.56.28c-.28-.2-.67-.45-1.04-.57-.2-.07-.41-.1-.6-.06a.58.58 0 0 0-.44.42c-.1.3-.33.6-.6.85-.22.19-.45.35-.62.45-.34-.43-.69-.7-1.05-.83-.39-.15-.77-.12-1.12 0-.58.22-1.07.72-1.38 1.17a1.1 1.1 0 0 0-.6-.3c-.28-.03-.56.05-.8.17-.44.23-.83.63-1.08.97-.6-.1-1.07-.05-1.42.14-.38.2-.59.53-.68.9-.17.67.01 1.51.24 2.12l-2.18.95h-.02c-.88.53-1.22 1.16-1.26 1.74-.03.47.14.89.35 1.18l-1.32.89.05.13c.04.13.05.32.01.56-.03.24-.1.51-.2.8-.18.55-.45 1.12-.64 1.47l-.04.09 1.38 2.75c-.01.5.02 1.3.13 2.16.13.89.35 1.85.73 2.61a8.81 8.81 0 0 0 1.76 2.21c.67.64 1.35 1.18 1.8 1.5.26.94.91 1.46 1.61 1.73.65.25 1.34.28 1.83.24.53 1.02 1.22 1.4 1.9 1.4.64 0 1.23-.34 1.6-.66l.74.18.3.73 1.8.62.06-.19c.1-.34.37-.6.69-.8.26-.15.54-.26.75-.31.16.22.42.34.7.4.34.08.74.07 1.12.02.39-.05.78-.15 1.09-.27.15-.07.3-.14.41-.21a.83.83 0 0 0 .28-.28 4.1 4.1 0 0 1 .54-.4c.3-.18.72-.4 1.17-.62.9-.44 1.95-.89 2.64-1.17l.08-.04.94-3.15c.07 0 .14 0 .2-.04a.84.84 0 0 0 .21-.15c.28-.26.7-.86 1.34-2.05a4.35 4.35 0 0 0-.57-5.12c.75-.88 1.07-2.28 1.12-3.64a8.93 8.93 0 0 0-.55-3.66 2.76 2.76 0 0 0-1.39-1.33c-.45-.2-.91-.3-1.26-.34.03-.58-.14-.96-.41-1.2-.2-.17-.46-.25-.67-.26.07-.57.02-1.04-.12-1.42a1.91 1.91 0 0 0-.74-.95c-.6-.41-1.37-.46-1.91-.39-.26-.14-.88-.46-1.67-.85a4.47 4.47 0 0 0-1.71-.34c-.57-.02-1.12.01-1.48.05Zm7.26 3.93c.07-.56.02-1-.1-1.33-.13-.35-.34-.6-.6-.77a2.52 2.52 0 0 0-1.7-.32l-.07.01-.05-.03-1.71-.87c-.39-.2-.97-.28-1.56-.3-.48-.02-.95 0-1.3.03a.9.9 0 0 0 .26.26c.21.15.51.3.86.42.7.25 1.55.43 2.12.51l.06.01.04.04c.44.44 1.17 1.08 1.92 1.59.37.25.75.46 1.09.6.29.1.53.16.74.15Zm.19.34c-.32.07-.7-.01-1.06-.16a6.33 6.33 0 0 1-1.17-.63c-.7-.47-1.38-1.06-1.84-1.5a5.08 5.08 0 0 1-1.35.87 3.9 3.9 0 0 1 2.94 2.03c.41.32 1.38 1.03 2.25 1.5.2.1.35.13.46.1a.55.55 0 0 0 .32-.18c.18-.2.3-.54.33-.8.07-.6-.1-.9-.27-1.06a.8.8 0 0 0-.61-.17Zm1.22 1.45a1.9 1.9 0 0 1-.4.83.91.91 0 0 1-.52.3.93.93 0 0 1-.4-.03l.23 1.88c.76.25 1.3.59 1.66.98.38.4.56.86.61 1.32.09.83-.27 1.65-.65 2.2.36.34.42.88.36 1.36-.05.5-.23 1-.39 1.35.44.4.66.81.7 1.21.43.4.61.84.6 1.28-.01.46-.22.9-.52 1.28a7.14 7.14 0 0 1-2.2 1.77 4 4 0 0 1-.16.85c-.1.3-.34.58-.65.83-.31.26-.7.5-1.12.73-.82.44-1.75.8-2.36 1.01-1.6 1-3.13.37-3.9-.19-.13.34-.45.68-1.03.9-.73.27-1.87.35-3.6-.02-.24.26-.57.45-.9.58a4.4 4.4 0 0 1-.84.24c.46.84 1.02 1.1 1.51 1.09.56 0 1.1-.32 1.42-.62l.08-.07 1.1.27.32.75 1.3.44c.16-.37.47-.64.78-.83.36-.22.75-.34 1-.39l.15-.02.05.13c.07.15.23.27.52.33a4.27 4.27 0 0 0 2.34-.42c.09-.06.14-.11.15-.14.05-.1.15-.19.26-.27l.42-.27c.32-.2.75-.42 1.2-.64.88-.42 1.88-.86 2.57-1.15l1-3.29.31.04a.57.57 0 0 0 .1-.08 8.4 8.4 0 0 0 1.27-1.96 3.97 3.97 0 0 0-.63-4.81l-.13-.13.13-.14c.74-.76 1.08-2.12 1.13-3.52a8.59 8.59 0 0 0-.5-3.5 2.39 2.39 0 0 0-1.22-1.15c-.42-.19-.85-.28-1.15-.3ZM24.35 39.97c1.61.33 2.63.24 3.25 0 .58-.22.8-.55.86-.8l-1.75-1.52a3.15 3.15 0 0 1-2.36 1.12c.1.24.14.47.14.69-.01.19-.06.36-.14.51Zm-.4-1.2a6.26 6.26 0 0 1-1.9-.35.89.89 0 0 1-.17.7c-.2.25-.55.37-.9.41-.61.08-1.37-.03-1.98-.17.26.65.75 1.03 1.3 1.24.64.25 1.34.26 1.78.2.3-.04.66-.12 1-.26a2 2 0 0 0 .83-.56.9.9 0 0 0 .2-.54c.02-.18-.03-.4-.16-.66Zm-5.15.16c.63.17 1.5.32 2.13.24.32-.04.55-.14.66-.28.1-.1.14-.28.07-.57-.9.16-2.13.16-3.1-.33a2.6 2.6 0 0 1-1.25-1.26 3.9 3.9 0 0 1-.2-2.2 3.51 3.51 0 0 1-1.13-.86l-.62 1.74c.36.68 1 1.4 1.66 2.04a16.3 16.3 0 0 0 1.78 1.48Zm-3.66-4 .56-1.6c-.2-.27-.42-.7-.54-1.16-.13-.51-.14-1.1.23-1.59a3.8 3.8 0 0 1 1.07-1 3.02 3.02 0 0 1-1.3-1.64c-.25-.9.12-1.97 1.62-3.08l1.12-1.19a4.29 4.29 0 0 0-1.22-.13c-.57.03-1.08.21-1.36.64l-.02.03-1.29.87c.04.18.03.38 0 .6-.04.26-.12.56-.22.85-.18.54-.43 1.08-.62 1.45l1.34 2.67v.05c-.01.47.01 1.27.13 2.14.1.7.26 1.45.5 2.08Zm2.8-10.76-.92.97h-.01c-1.45 1.07-1.69 2-1.5 2.7.18.7.81 1.26 1.39 1.58l1.5-.84a1.86 1.86 0 0 1-.5-1.2c-.03-.56.16-1.23.72-1.99l-.2-.01c-.26-.06-.39-.26-.45-.47a1.9 1.9 0 0 1-.03-.74Zm1.04.73c-.04-1 .55-2.89 3.11-3.73-.26-.3-.95-.7-2.35-.35-.6 1-1.07 2.08-1.32 2.81-.06.19-.1.4-.12.62-.02.22-.02.41.02.56.04.14.1.2.18.21.08.02.23 0 .48-.12Zm-.8-1.69c.28-.74.72-1.73 1.28-2.64.38-.61.82-1.2 1.3-1.66.22-.22.46-.42.71-.57a4.06 4.06 0 0 1-.66-.11 2.05 2.05 0 0 1-.6-.25c.02.4-.03.82-.16 1.2-.12.35-.31.67-.61.9-.3.23-.68.37-1.16.38-.3.14-.64.45-.74.9-.1.44.01 1.05.64 1.85Zm-.84-2.35a1.6 1.6 0 0 0-.16.43c-.11.53.02 1.2.58 1.97-.33-.06-.72-.1-1.1-.08-.54.03-1.1.18-1.5.6a1.5 1.5 0 0 1-.24-.9c.02-.43.28-.95 1.07-1.44l1.35-.58Zm1.02-.77c.37-.02.64-.13.85-.3.23-.18.39-.43.49-.73a3.6 3.6 0 0 0 .08-1.7c-.54-.08-.91-.02-1.16.11a.99.99 0 0 0-.5.67c-.14.58.02 1.36.24 1.95Zm1.81-2.7-.02-.14c.23-.31.59-.69.97-.88.2-.1.4-.15.58-.13.17.02.35.12.53.34l.16.2.14-.22c.28-.46.77-1 1.33-1.21.27-.1.57-.12.87 0 .22.07.45.23.7.49a3.6 3.6 0 0 0-1.53.25c-.7.3-1.36.87-1.67 1.9-.38.02-.9 0-1.32-.12a1.49 1.49 0 0 1-.57-.26.55.55 0 0 1-.17-.22Zm2.46.57c.19 0 .35.02.5.08.12.05.23.13.3.23l2.23-1.45v-.6a3.26 3.26 0 0 0-1.62.2c-.58.25-1.12.7-1.41 1.54Zm3.03-.7-2.08 1.35c.03.17.02.36-.01.54a3.75 3.75 0 0 1-.37 1.06c.6-.43 1.43-.82 2.46-.93v-2.03Zm.57 2.2c.49.3 1.12.62 1.75.84.48.17.95.28 1.32.26.31 0 .55-.09.7-.26-.37-.3-.95-.68-1.63-.89a3.11 3.11 0 0 0-2.14.06Zm3.38 1.44-.3.03c-.43.01-.92-.1-1.4-.27-.29.04-.45.17-.55.33-.1.18-.15.43-.13.73.02.5.2 1.09.4 1.54.49-.4 1.52-.8 3.12-.46.1-.28.16-.55.2-.8.04-.21.04-.4.01-.54-.3.01-.54.04-.75.07h-.03l-.28.03a.7.7 0 0 1-.25-.02.28.28 0 0 1-.14-.1.27.27 0 0 1-.05-.16c0-.09.04-.18.09-.27l.06-.11Zm1.73.58c.02.18 0 .38-.03.58-.04.32-.15.67-.27 1.01-.17.48-.39.96-.6 1.37l2.27-1.51c-.07-.26-.2-.6-.44-.89-.23-.27-.53-.5-.93-.56Zm1.72 1.33c.5-.05 1.17-.01 1.75.25a2 2 0 0 1 .84.69c.21.3.34.7.35 1.2.3.42.66 1.12.76 1.88.1.76-.03 1.6-.7 2.27.31.54.7 1.35.92 2.24.2.8.27 1.67 0 2.43.35-.15.73-.36 1.04-.61.45-.36.72-.77.7-1.2-.02-.32-.2-.7-.7-1.13l-.1-.1.06-.12c.17-.33.36-.85.42-1.35.06-.51-.04-.92-.35-1.13l-.17-.1.12-.16c.39-.5.77-1.31.69-2.09-.04-.38-.2-.77-.52-1.11a3.68 3.68 0 0 0-1.6-.92l-.08-.02-.03-.06a7.9 7.9 0 0 0-2.28-2.43 4.7 4.7 0 0 0-3.81-.8l-.06.06a7.4 7.4 0 0 0-.44.68v.02l.27-.03h.03c.23-.04.55-.07.93-.07.66 0 1.14.32 1.45.71.27.33.43.7.51 1Zm-2.44-2.8a5.12 5.12 0 0 1 3.77.92 8.3 8.3 0 0 1 1.95 1.9l-.18-1.43c-.9-.5-1.87-1.22-2.25-1.53l-.04-.02-.02-.05c-.29-.67-1.42-1.98-3.65-1.9h-.02c.2.18.38.41.5.69.17.4.2.88-.06 1.42Zm-.45-2.47c-.16 0-.33.02-.5.04h-3.64v-.53c.5-.15 1.1-.49 1.67-.85.5-.33.99-.68 1.34-.95.08.15.22.28.37.4.25.18.6.33.96.47.59.2 1.26.37 1.8.46-.2.17-.47.36-.79.53-.36.2-.77.35-1.21.43Zm-4.14.4h3.6c.25.15.55.43.7.8.15.33.17.75-.12 1.26a5.25 5.25 0 0 0-1.73-.94 3.47 3.47 0 0 0-2.45.1v-1.22Zm10.55 15.84c.3-.7.25-1.53.04-2.35a8.21 8.21 0 0 0-.67-1.75c-.05.46-.16 1-.35 1.5-.24.63-.6 1.24-1.16 1.57l1.96 1.04h.01c.05-.02.11-.03.17-.01Zm-.18.42.06.03c.08.4.18 1.12.13 1.83-.02.3-.06.6-.15.87-.06.2-.24.42-.53.66-.29.24-.66.47-1.06.69-.48.26-1 .49-1.48.68a2.14 2.14 0 0 0 .33-1.5 3.52 3.52 0 0 0-.4-1.17c.2.07.4.1.6.1.5-.01.97-.27 1.39-.87.56-.8.91-1.18 1.1-1.32Zm-.35-.19-2.1-1.1-1.19-.49-.31-1.46c-.37.19-.83.44-1.23.7a5.13 5.13 0 0 0-.77.6l1.54 2.42c.2.3.5.65.84.92.34.26.7.43 1.06.43.35-.01.73-.2 1.1-.72.47-.67.81-1.07 1.06-1.3Zm-4.37.86-.35-.56c-1 .23-1.82.6-2.47 1.02.08.5.3 1.16.7 1.67.42.53 1.03.89 1.9.72a2 2 0 0 0 .6-1.13 2.9 2.9 0 0 0-.38-1.72Zm-.72 3.26c-.74-.03-1.3-.4-1.68-.9a4.17 4.17 0 0 1-.75-1.68 5.26 5.26 0 0 0-1.62 1.78l1.8 1.58a5.63 5.63 0 0 0 2.25-.78Zm-1.85 1.08a5.17 5.17 0 0 0 2.57-1.19 2.37 2.37 0 0 0 .7-2.33l.2.18c.32.38.67 1 .76 1.64.04.33.02.65-.1.95-.13.3-.37.58-.76.83-1.34.85-2.66.4-3.37-.08Zm-2.54-2.03c.22-.45.7-1.1 1.45-1.7-.43-.05-.8-.25-1.11-.5-.38-.31-.67-.7-.86-1.04a8.28 8.28 0 0 0-1.49 1.89c-.1.2-.1.34-.02.47.09.15.26.3.51.42.44.23 1.05.38 1.52.46Zm-.3-3.6c.15.32.46.78.87 1.12.4.33.9.52 1.44.37.67-.44 1.51-.83 2.54-1.08l-.88-1.37a4.01 4.01 0 0 1-.8.41c-.5.2-1.08.36-1.48.45l-.48.12 1.27-1.75c-.28.03-.6.05-.94.06-.5.02-1.02 0-1.42-.1-.23.12-.32.38-.33.73 0 .37.1.77.21 1.03Zm-.32-1.88c-.55-.08-1.13 0-1.43.07-.24.39-.47.96-.45 1.49 0 .27.07.53.23.75.15.2.37.37.72.5.33-.4.65-.73.87-.92-.1-.28-.2-.67-.2-1.05 0-.3.07-.6.26-.84Zm-1.17 3.1a1.8 1.8 0 0 1-.78-.58c-.2-.29-.3-.62-.3-.96a3.3 3.3 0 0 1 .46-1.61 1.86 1.86 0 0 1-.56-.99c-.05-.26-.03-.54.07-.83-.37.25-.8.51-1.22.7a.82.82 0 0 0-.42.5c-.1.25-.13.56-.14.92-.01.34.01.7.03 1.08v.1c.03.33.05.67.05.98 0 .43.34.77.87 1.02.48.23 1.04.36 1.46.41.15-.26.31-.5.48-.73Zm-.64 1.1c-.43-.07-.98-.2-1.45-.44-.56-.26-1.09-.7-1.09-1.35 0-.3-.02-.62-.04-.96v-.1c-.02-.34-.04-.68-.04-1.01a3.02 3.02 0 0 1-1.16-1.78c-.07-.4 0-.83.26-1.25.24-.38.62-.74 1.19-1.07l-1.14-1.16c-.24.4-.53 1.02-.73 1.74-.25.84-.36 1.8-.14 2.7.22.93.72 1.91 1.25 2.77.54.85 1.1 1.57 1.46 1.96l.07.08-.57 1.98c.51.2 1.27.4 2.05.4.84 0 1.69-.22 2.28-.9a5.46 5.46 0 0 1-1.46-.46 1.59 1.59 0 0 1-.65-.56.77.77 0 0 1-.09-.6Zm-2.47 1.93a7.68 7.68 0 0 1-1.9-1.86c-.38-.52-.4-.98-.28-1.35.06-.2.16-.39.28-.53.13-.11.24-.22.32-.33l.24-.27a14.46 14.46 0 0 0 1.84 2.63l-.5 1.71Zm-1.36-4.39a8.98 8.98 0 0 1-.87-2.13c-.24-.99-.1-2.02.14-2.9.23-.79.56-1.47.83-1.9l-1.23-1.24c-.74.86-.94 1.57-.91 2.09.03.55.32.93.56 1.1l.15.11-.1.15a4.25 4.25 0 0 0-.79 1.67c-.05.3-.04.58.07.82.1.22.29.43.63.57l.19.08-.1.17c-.14.29-.23.68-.13.97a.6.6 0 0 0 .32.34c.19.09.46.15.88.12l.36-.02Zm.53-7 .52-2.17c.13.11.3.17.48.18.26.03.55-.02.81-.09a4.1 4.1 0 0 0-.14 1.14c0 .24.06.49.2.66a.6.6 0 0 0 .22.16 3.49 3.49 0 0 0-.9 1.31l-1.19-1.2Zm1.09 1.85c-.5.3-.8.61-1 .91-.2.34-.26.68-.21 1 .08.53.44 1.02.82 1.38.02-.24.07-.47.14-.67.11-.31.3-.57.62-.71a9.86 9.86 0 0 0 1.6-.97c-.36-.04-.76-.1-1.1-.22a1.7 1.7 0 0 1-.67-.38.76.76 0 0 1-.2-.34Zm2.32.6c.1-.55.36-1.24.81-1.74.25-.28.57-.5.96-.59.4-.08.84-.04 1.33.18l1.5.32a1.13 1.13 0 0 1-.01-.28c.02-.22.1-.46.2-.7.2-.45.51-.9.74-1.18.25-.43.58-1.1.84-1.75-1.63-.33-2.55.17-2.84.48l.36 1.88h-2.3c-.34 0-.59.04-.77.1a1.72 1.72 0 0 0-.57.28c-.25.16-.53.35-1.05.46-.16.12-.4.33-.61.61-.24.3-.46.67-.55 1.06-.04.15 0 .26.1.36.1.1.29.2.52.29.42.13.93.2 1.34.21Zm2.85-6a4.47 4.47 0 0 1-.24-1.16c-.02-.33.03-.67.19-.93.08-.14.2-.25.33-.34-.53-.22-1.05-.5-1.45-.74l-.63 1.51 1.8 1.66Zm-2.17-1.73.63-1.5a4.54 4.54 0 0 0-3.01 1.69l-.03.03v.01c-.28.36-.88 1.3-1 2.21-.04.2 0 .31.06.37.05.06.15.1.3.12.25.03.58-.04.85-.14.01-.6.39-1.17.82-1.65a7 7 0 0 1 1.38-1.14Zm-1.82 2.72 4.05-.44-2.1-1.93c-.36.23-.84.6-1.24 1.04-.4.43-.67.9-.71 1.33Zm4.32-.1-4.37.47c-.1.37-.2.86-.19 1.24.02.2.06.35.13.44.05.06.14.1.33.07a2.4 2.4 0 0 0 1.08-.49c.16-.1.32-.19.55-.26.23-.06.51-.1.89-.1h1.85l-.27-1.37Zm-5.05-2.84c.22-.35.45-.76.61-1.16.1-.25.18-.48.22-.69a.99.99 0 0 0-.01-.5.35.35 0 0 0-.22-.22c-.12-.04-.3-.06-.58-.02-.47.09-.94.38-1.39.82-.35.34-.69.76-1 1.22 1.28-.24 2.03.14 2.37.55Zm-.47.69c-.3.49-.66 1.2-.76 1.92l-.61 2.58-1.19-1.21c-.05-.8.39-2.45 2.56-3.3Zm8.15 3.5c-.21.27-.5.7-.68 1.1-.1.22-.16.42-.17.59-.02.17.01.3.08.38l.02.02v.03c.12.33.36.77.72 1.06.18.14.4.24.63.28.23.03.5 0 .82-.14.68-.31 1.02-.58 1.18-.77.15-.19.1-.27.1-.27l-.04-.06.02-.07c.07-.36.26-.86.62-1.31-.3-.23-.62-.6-.81-1.05a2 2 0 0 1-.07-1.4l-2.42 1.62Zm3.54.57c-.25-.2-.55-.52-.71-.93a1.7 1.7 0 0 1 .14-1.59 3.2 3.2 0 0 1 1.62.21c.28.13.52.3.7.56.15.22.25.5.28.87a3 3 0 0 0-2.03.88Zm.12.41c.63-.02 1.08.4 1.4 1 .32.64.47 1.43.51 1.97-.01.5-.11 1.28-.38 1.98-.26.7-.65 1.27-1.22 1.49l-.95-.4-.3-1.36c.37-.22.78-.61.96-1.18.2-.62.08-1.41-.62-2.34.07-.32.26-.76.6-1.16Zm-.69 1.67c-.03.04-.05.09-.09.13-.16.2-.42.4-.84.64.08.04.16.1.23.15.19.17.3.4.38.64.1.32.12.68.1.99.24-.19.47-.47.58-.82.13-.43.1-1-.36-1.73Zm-.62 2.79c.05-.33.06-.76-.05-1.13a1 1 0 0 0-.28-.46.74.74 0 0 0-.49-.18 1.66 1.66 0 0 1-1.79-.2 2.7 2.7 0 0 1-.8-1.13l-1.55-.34c0 .27.14.58.38.9.28.37.66.7.92.88.52.23.7.78.73 1.3.04.52-.06 1.09-.16 1.45v.03l-.95 1.3c.3-.08.64-.18.94-.3.24-.09.44-.18.59-.27a.73.73 0 0 0 .17-.14c0-.1.05-.2.1-.26l.21-.22c.17-.14.4-.3.64-.46.46-.29 1-.58 1.4-.77Zm-4.52-1.93a4.34 4.34 0 0 1-.35-.39c-.27-.35-.5-.8-.45-1.22a1.68 1.68 0 0 0-.99-.1c-.3.06-.55.23-.77.46a3.47 3.47 0 0 0-.74 1.65c.4.8.75.98.98.98.23-.01.46-.2.6-.42-.05-.27-.01-.5.14-.69.16-.19.4-.28.66-.31.27-.04.6-.02.92.04ZM26.34 30c-.19.2-.44.38-.76.4-.42 0-.84-.3-1.23-1-.38.46-.45.87-.39 1.2.07.36.28.64.48.82a4.2 4.2 0 0 1 1.99.02c.34.1.85.13 1.37.12l.63-.04a9.1 9.1 0 0 1-.98-.53 4.73 4.73 0 0 1-.78-.6 2.15 2.15 0 0 1-.33-.4Zm2.68 1.37c.07-.32.13-.74.1-1.13-.04-.48-.2-.85-.53-.99a3.27 3.27 0 0 0-1.57-.28c-.22.03-.36.1-.43.19-.07.08-.1.2-.04.43.05.17.18.35.37.54.2.2.45.38.72.55.47.3.98.54 1.38.7Zm6.94-2.7a5.57 5.57 0 0 0-.52-1.7c-.29-.58-.73-1.07-1.38-1.19.4-.32.95-.57 1.66-.59.28.4.58 1.03.68 1.7.08.6 0 1.24-.44 1.78ZM19.5 33.82v.01c-.5.41-1.28.74-2.14.41a3.25 3.25 0 0 1-1.85-2.16c-.12-.46-.1-.92.16-1.28.31-.41.59-.66.8-.8a.92.92 0 0 1 .42-.19h.05l1.22-.68a4 4 0 0 0-.44 1.2c-.06.35-.05.7.09 1.02.12.28.34.52.66.69-.12.3-.2.72-.08 1.08.09.22.25.42.51.55.16.08.36.13.6.15Zm-.37.67v.02c-.15.48-.11 1.06.33 1.67a8.22 8.22 0 0 0 1.81 1.83c-.8.1-1.79.05-2.56-.34a2.24 2.24 0 0 1-1.07-1.1c-.22-.46-.3-1.1-.2-1.92.64.18 1.22.07 1.7-.16Zm17.7-.27c.07.37.14.94.13 1.54a6.57 6.57 0 0 0 1.9-1.56c.26-.35.43-.72.43-1.06 0-.25-.07-.51-.26-.77-.11.42-.43.78-.79 1.07-.43.35-.96.61-1.42.78Z" fill="#F5DBC7"/></svg>