<!-- by TradingView --><svg xmlns="http://www.w3.org/2000/svg" width="56" height="56"><path fill="#2053A4" d="M0 0h56v56H0z"/><path d="M7.35 26.55c.62 1.15 1.27 2.32 1.95 3.53l.17-.3a28.21 28.21 0 00.59-1.06l.21-.39.17-.3c.17-.3.36-.63.54-.98l.37-.67.4-.72.78-1.4.72-1.26h.17l.03.31.24 2.07a820.79 820.79 0 00.52 4.46c.1.73.19 1.45.3 2.16-.11-.02-.22-.04-.32-.04h-.63l-.27.03-.04.01-.3-3.32c-.09-1.07-.21-2.16-.35-3.27h-.03c-.6 1.07-1.2 2.15-1.78 3.22A49.05 49.05 0 009.11 32H9a95.55 95.55 0 00-1.67-3.27L5.58 25.4h-.03l-.09.79-.1.94c-.08.62-.15 1.23-.2 1.84l-.07.66-.1 1.05A15 15 0 004.92 32 3.63 3.63 0 004 32l.23-1.43.12-.77.35-2.32A109.67 109.67 0 005.27 23h.23c.61 1.21 1.22 2.4 1.85 3.55zm10.32-3.39V23a4.15 4.15 0 00.32.05l.31.02.31-.02.33-.05-.03.82-.04.88c-.02.55-.03 1.11-.03 1.7v2.24c0 .58 0 1.15.03 1.71l.07 1.65a6.84 6.84 0 00-1.28 0l.04-.85.04-.8c.02-.56.02-1.13.02-1.7v-2.26a49.57 49.57 0 00-.1-3.23zm5.75 1.9l3.48 3.5c1.16 1.17 2.25 2.32 3.29 3.44h.18c0-2.72 0-6 .12-8.17l.06-.83c-.3.08-.59.08-.88 0 .12 1.86.11 3.73.1 5.6v1.23a62.4 62.4 0 01-1.44-1.4l-1.3-1.32-.44-.44-1.85-1.88-.8-.81L23 23h-.21v.14c.01.29.03.67.03 1.16.02 1.37 0 2.9-.03 4.28l-.03.65a63.55 63.55 0 01-.2 2.77c.3-.04.66-.04.95 0l-.02-.39c-.04-.78-.08-1.56-.08-2.35l-.01-1.17a60.04 60.04 0 01.03-3.04zm17.62.66c-.17-.5-.42-.93-.74-1.27a3 3 0 00-1.13-.74 3.92 3.92 0 00-2.78 0 3 3 0 00-1.12.74c-.32.34-.57.75-.75 1.27-.17.5-.27 1.1-.27 1.8s.1 1.3.27 1.8c.18.51.43.94.75 1.27a3 3 0 001.12.74 4.028 4.028 0 002.79 0 3 3 0 001.12-.74c.32-.33.57-.75.74-1.26.18-.5.27-1.11.27-1.8 0-.7-.1-1.3-.27-1.81zm-7.69-.11a4.01 4.01 0 012.5-2.3c.58-.2 1.22-.31 1.92-.31s1.35.1 1.94.3c.59.2 1.08.5 1.5.9.43.38.76.85.99 1.4.23.57.35 1.2.35 1.92s-.12 1.36-.35 1.92a4 4 0 01-2.5 2.28 6.3 6.3 0 01-1.93.28c-.7 0-1.34-.09-1.93-.28a3.9 3.9 0 01-2.5-2.28 4.96 4.96 0 01-.34-1.92c0-.72.12-1.35.35-1.91zm13.82 1.58h-.5l-.43-.07v-.75c0-.47.01-.95.03-1.41l.06-1.43.54-.04.8-.02c.24 0 .48.03.73.07.25.06.48.14.69.27.21.13.39.31.52.54.13.22.2.5.2.84 0 .4-.09.72-.26.97-.17.26-.38.47-.64.62-.26.15-.54.26-.85.32-.31.06-.6.1-.89.1zm-2.16-4.03l.07 1.53c.02.56.04 1.12.03 1.72v2.24a47.56 47.56 0 01-.07 2.5L45 32c.42-.04.94-.04 1.36 0l-.08-1.65c-.02-.56-.03-1.13-.03-1.7v-.95h.53c.3.28.62.63.98 1.04a64.28 64.28 0 011.97 2.43l.62.81.01.02A6.16 6.16 0 0152 32a42.9 42.9 0 01-1.19-1.32l-.54-.64-.21-.25a300.28 300.28 0 01-1.73-2.06c-.05-.06-.1-.1-.13-.16a4.75 4.75 0 001.81-.67c.29-.2.53-.45.73-.75.2-.3.3-.65.3-1.07 0-.4-.08-.72-.23-.99a1.77 1.77 0 00-.62-.63 2.72 2.72 0 00-.92-.35 6 6 0 00-1.11-.11H45v.16z" fill="#fff"/></svg>