<!-- by TradingView --><svg width="56" height="56" viewBox="0 0 56 56" xmlns="http://www.w3.org/2000/svg"><path fill="#F0F3FA" d="M0 0h56v56H0z"/><path d="M20.59 31h4.58l2.27 3.96L25.18 39h-4.6l-2.25-4.04L20.59 31Zm.67 1-1.55 2.97L21.27 38h3.23l1.55-3.03L24.5 32h-3.24Z" fill="#DF5E67"/><path d="M26.7 34h4.59l1.97 3.97L31.29 42H26.7l-2.26-4.04L26.7 34Zm.68 1-1.55 2.97L27.38 41h3.23l1.71-3.27L30.75 35h-3.37Z" fill="#DF5E67"/><path d="M32.23 16h4.58l2.27 3.96L36.82 24h-4.6l-2.25-4.04L32.23 16Zm.67 1-1.55 2.97L32.91 23h3.23l1.55-3.03L36.14 17H32.9Z" fill="#F09BA8"/><path d="M38.24 13H40v1l3.4-.08 1.6 2.55L42.77 20h-4.54L36 16.47 38.24 13Zm.66 1-1.53 2.47L38.91 19h3.18l1.54-2.53-1.33-1.92 1.1-.63L40 14h-1.1Z" fill="#F09BA8"/><path d="M20.43 24h4.59l2.26 4.04L25.02 32h-4.6l-2.25-3.96L20.43 24Zm.68 1-1.55 3.05L21.1 31h3.23l1.55-2.95L24.34 25h-3.23Z" fill="#DF5E67"/><path d="M26.44 27h4.58l2.17 3.95L30.8 35h-4.36l-2.18-3.82L26.44 27Zm.89 1-1.77 2.95L27.12 34h3l1.78-3.05L30.35 28h-3.02Z" fill="#DF5E67"/><path d="M32.32 23h4.59l2.26 4.09L36.91 31h-4.6l-2.25-3.91L32.32 23Zm.68 1-1.55 3.1L33 30h3.23l1.55-2.9-1.55-3.1H33Z" fill="#DF5E67"/><path d="M32.23 9h4.58l2.27 3.96L36.82 17h-4.6l-2.25-4.04L32.23 9Zm.67 1-1.55 2.97L32.91 16h3.23l1.55-3.03L36.14 10H32.9Z" fill="#F09BA8"/><path d="m19.55 18.32 1 .65 4.51 2.64 1.14.48L24.74 25h-4.6l-2.26-3.71 1.67-2.97Zm1 .65-1.28 2.32L20.83 24h3.23l1-2.39-4.51-2.64Z" fill="#DF5E67"/><path d="M14.47 34h4.59l2.26 3.96L19.06 42h-4.6l-2.25-4.04L14.47 34Zm.68 1-1.55 2.97L15.15 41h3.23l1.55-3.03L18.38 35h-3.23ZM32.3 30h4.54l2.24 4.03L36.84 38H32.3l-2.24-3.97L32.3 30Zm.86 1-1.73 3.03L32.97 37h3.2l1.53-2.97L36.1 31h-2.93Z" fill="#C01F26"/><path d="M32.37 37h4.44l2.27 3.96L36.82 45h-4.6l-2.03-3.76L32.37 37Zm.88 1-1.67 3.25L32.91 44h3.23l1.55-3.03L35.96 38h-2.7Z" fill="#C01F26"/><path d="M26.4 41h4.48l2.22 3.47L30.88 48h-1.7l-3.65-1.42-1.36-2.11L26.4 41Zm.65 1-1.52 2.47 1 1.45-1 .66L29.18 48v-1.1h1.04l1.52-2.43L30.22 42h-3.17ZM13 31l-2 7v1h2l2.03-4.04L13 31Zm-.62 1 1.4 2.97-1.4 3.03H11l2-7h-2v1h1.38Z" fill="#C01F26"/></svg>