<!-- by TradingView --><svg xmlns="http://www.w3.org/2000/svg" width="56" height="56" viewBox="0 0 56 56"><path fill="#F0F3FA" d="M0 0h56v56H0z"/><path d="M42 23h-8.18v.98H37V32h2v-8.02h3c.07 0 .03-.65 0-.98z"/><path fill-rule="evenodd" d="M28 44a16 16 0 1 0 0-32 16 16 0 0 0 0 32zm0 1a17 17 0 1 0 0-34 17 17 0 0 0 0 34z"/><circle cx="20" cy="20" r="4" fill="url(#apgln2kju)"/><path d="M21.9 19.12a2.78 2.78 0 0 1-2.79 2.77c-1.54 0-2.91-.45-2.91-1.98s1.17-3.63 3.52-3.77c1.54 0 2.17 1.44 2.17 2.98z" fill="url(#bpgln2kju)"/><path d="M20.16 18.36c0 .95-.77 1.72-1.72 1.72-.96 0-1.8-.27-1.8-1.23 0-.95.72-2.25 2.18-2.33.95 0 1.34.89 1.34 1.84z" fill="url(#cpgln2kju)"/><circle cx="16" cy="28" r="4" fill="url(#dpgln2kju)"/><path d="M17.9 27.12a2.78 2.78 0 0 1-2.79 2.77c-1.54 0-2.91-.45-2.91-1.98s1.17-3.63 3.52-3.77c1.54 0 2.17 1.44 2.17 2.98z" fill="url(#epgln2kju)"/><path d="M16.16 26.36c0 .95-.77 1.72-1.72 1.72-.96 0-1.8-.27-1.8-1.23 0-.95.72-2.25 2.18-2.33.95 0 1.34.89 1.34 1.84z" fill="url(#fpgln2kju)"/><circle cx="21" cy="37" r="4" fill="url(#gpgln2kju)"/><path d="M22.9 36.12a2.78 2.78 0 0 1-2.79 2.77c-1.54 0-2.91-.45-2.91-1.98s1.17-3.63 3.52-3.77c1.54 0 2.17 1.44 2.17 2.98z" fill="#1538A2"/><path d="M21.16 35.36c0 .95-.77 1.72-1.72 1.72-.96 0-1.8-.27-1.8-1.23 0-.95.72-2.25 2.18-2.33.95 0 1.34.89 1.34 1.84z" fill="#9999E0"/><path d="M23 31.36V32h1.78l1-4.7 2.03 4.7h.34l2.13-4.7 1.08 4.7H33l-1.86-9h-.65l-2.34 6.42L25.93 23h-.76l-1.85 8.36H23zM34.5 28a.5.5 0 1 0 0-1 .5.5 0 0 0 0 1zm-1 1v-.23c.23.02.79-.04 1.14-.37H35V32h-1v-3h-.5z"/><defs><linearGradient id="apgln2kju" x1="22.7" y1="22.67" x2="20" y2="19.8" gradientUnits="userSpaceOnUse"><stop offset=".15" stop-color="#901000"/><stop offset="1" stop-color="#C01802"/></linearGradient><linearGradient id="bpgln2kju" x1="20.92" y1="20.82" x2="17.95" y2="17.68" gradientUnits="userSpaceOnUse"><stop stop-color="#BE1702"/><stop offset="1" stop-color="#F42512"/></linearGradient><linearGradient id="cpgln2kju" x1="17.44" y1="17.29" x2="19.98" y2="19.96" gradientUnits="userSpaceOnUse"><stop stop-color="#FAA27B"/><stop offset="1" stop-color="#FAA27B" stop-opacity="0"/></linearGradient><linearGradient id="dpgln2kju" x1="18.7" y1="30.67" x2="16" y2="27.8" gradientUnits="userSpaceOnUse"><stop offset=".15" stop-color="#0B6E16"/><stop offset="1" stop-color="#26B72D"/></linearGradient><linearGradient id="epgln2kju" x1="16.92" y1="28.82" x2="13.95" y2="25.68" gradientUnits="userSpaceOnUse"><stop stop-color="#20A627"/><stop offset="1" stop-color="#34D23A"/></linearGradient><linearGradient id="fpgln2kju" x1="13.44" y1="25.29" x2="15.98" y2="27.96" gradientUnits="userSpaceOnUse"><stop stop-color="#BBE9AC"/><stop offset="1" stop-color="#fff" stop-opacity="0"/></linearGradient><linearGradient id="gpgln2kju" x1="23.7" y1="39.67" x2="21" y2="36.8" gradientUnits="userSpaceOnUse"><stop offset=".15" stop-color="#202344"/><stop offset="1" stop-color="#142C89"/></linearGradient></defs></svg>