<!-- by TradingView --><svg width="56" height="56" viewBox="0 0 56 56" xmlns="http://www.w3.org/2000/svg"><path fill="#F0F3FA" d="M0 0h56v56H0z"/><path d="M11.5 32c-1.75.05-3.48-1-4.16-2.77-1.1-2.87.56-6.11 3.65-6.23 2-.07 3.49.84 4.17 2.62l.34.88-6.93 2.99-.54-1.41L12.99 26c-.24-.64-1.13-1.02-2-1-1.65.04-2.67 1.73-1.99 3.5.35.91.9 1.5 2.5 1.5 1.59 0 2.13-.91 2.5-2h2c0 2-2 4-4.5 4ZM21 24v2h-5v-2h5Zm-4-1 2-1v7c0 .5 0 1 1 1h1v2h-1.39c-1.39 0-2.61-.56-2.61-2v-7ZM25 32h-2v-9c0-1.5 1-2 2-2h2v2h-1c-.5 0-1 0-1 .68V32Zm2-8v2h-5v-2h5Z"/><path d="M28.5 32H28v-8h.5v8Zm-.12-4.6-.23-.42A3.42 3.42 0 0 1 31.46 24c1.68 0 2.79 1.13 2.79 2.77V32h-.5v-5.23c0-1.51-.77-2.27-2.29-2.27a3.16 3.16 0 0 0-3.08 2.9Zm5.87-.63-.34-.24c.25-1.59 1.84-2.53 3.35-2.53 1.8 0 2.74 1.16 2.74 2.92V32h-.5v-5c0-1.53-.65-2.52-2.24-2.5-1.39.01-2.86.79-3.01 2.27ZM47.5 24h.5v7.77C48 33.8 46.49 35 44.55 35a3.9 3.9 0 0 1-3-1.3l.35-.38a3.43 3.43 0 0 0 2.65 1.18c1.74 0 2.95-.93 2.95-2.73V24ZM41 28.08v-.15c0-2.11 1.18-3.93 3.45-3.93 1.21 0 2.4.48 3.05 1.54.2.31.4.6.5.96v3c-.4 1.68-1.87 2.52-3.57 2.52-2.24 0-3.43-1.85-3.43-3.94Zm.5-.15v.15c0 1.84.9 3.42 2.92 3.42 1.42 0 2.7-.5 3.08-1.97V26.8c-.4-1.55-1.4-2.31-3-2.31-2.03 0-3 1.59-3 3.43Z" fill="#C32E2E"/></svg>