<!-- by TradingView --><svg width="56" height="56" viewBox="0 0 56 56" xmlns="http://www.w3.org/2000/svg"><path fill="#00E5C4" d="M0 0h56v56H0z"/><path d="M27.46 11.01c-.36.03-.85.12-1.25.23-.78.22-1.62.6-2.69 1.23-1.57.92-1.6.93-3.1 1.33-.86.23-1.3.37-1.74.53a6.69 6.69 0 0 0-4.36 4.35c-.16.45-.3.89-.52 1.75a8.39 8.39 0 0 1-1.34 3.1 10.08 10.08 0 0 0-1.36 3.23c-.1.52-.1.6-.1 1.23 0 .69.03.98.17 1.55.24.98.59 1.74 1.5 3.3a7.37 7.37 0 0 1 1.05 2.43 14.1 14.1 0 0 0 1 2.98c.9 1.83 2.3 2.93 4.6 3.63l.99.28c1.55.4 1.66.45 2.82 1.13a11.9 11.9 0 0 0 2.9 1.4c1.5.47 3 .4 4.53-.2.63-.25 1.11-.5 2.19-1.14 1.19-.7 1.4-.78 2.69-1.13.92-.24 1.24-.34 1.7-.5a7.2 7.2 0 0 0 2.85-1.68c.35-.35.58-.63.83-1.02.57-.87.89-1.66 1.36-3.42.4-1.48.46-1.63 1.18-2.86.85-1.43 1.2-2.18 1.43-3.12a6.44 6.44 0 0 0-.14-3.74 14.3 14.3 0 0 0-1.47-2.94 7.63 7.63 0 0 1-.97-2.44 12.73 12.73 0 0 0-1-2.89 6.46 6.46 0 0 0-3.18-3c-.67-.3-1.19-.46-2.44-.8a8 8 0 0 1-2.91-1.22 14.3 14.3 0 0 0-1.85-.97 7.52 7.52 0 0 0-2.23-.6 8.67 8.67 0 0 0-1.14 0Zm3.52 8.66c1.96.1 3.4.44 4.2 1 .25.17.45.39.55.58.07.14.08.18.08.34 0 .17 0 .2-.07.31-.14.27-.3.33-.68.25-.36-.07-.49-.03-.57.15-.1.23-.02.6.24 1.05.13.22.34.49.74.94.42.48.61.74.76 1.03.24.49.24.73 0 .85-.07.04-.55.13-1 .19-1.16.15-2.03-.02-2.66-.52a4.11 4.11 0 0 1-.93-1.2 4.16 4.16 0 0 0-2.52-2.14c-1-.33-2.06-.4-3.93-.28-.85.06-2.43.06-2.86 0a4.55 4.55 0 0 1-1.26-.3c-.23-.13-.41-.37-.41-.54 0-.24.33-.52.85-.7.56-.2 2.42-.57 3.82-.74a36.3 36.3 0 0 1 5.65-.27Zm-2.15 4.92c.7.16 1.06.57 1.37 1.56.17.52.14.65-.27.98-.54.45-1.2.8-1.95 1-.96.26-2.06.3-3.28.09-.42-.07-1.26-.28-1.48-.37-.52-.2-.76-.54-.76-1.08 0-.3.06-.51.2-.8.28-.59.83-.9 1.94-1.13a17.7 17.7 0 0 1 2.15-.29 20.36 20.36 0 0 1 2.08.04Zm8.56 3.27.2.18c.41.4.68 1 .83 1.92.13.76.12 1.13-.07 1.51-.14.3-.42.54-.63.54-.08 0-.22-.09-.48-.3a2.3 2.3 0 0 1-.85-1.38c-.04-.2-.05-.31-.05-.65 0-.42.02-.54.12-.86a2 2 0 0 1 .5-.85c.2-.18.28-.2.43-.11Zm-5.17.27c.24.06 1.28.43 1.45.5.28.13.48.35.55.61.04.15.06.52.06 1.06 0 .46-.03.6-.2.83-.14.2-.31.32-1.06.71-1.03.54-1.1.57-1.64.55a5.36 5.36 0 0 1-1.42-.28 5 5 0 0 1-1.03-.35c-.23-.13-.36-.25-.4-.4a4.8 4.8 0 0 1 0-.8c0-.7.01-.7.07-.83a.91.91 0 0 1 .19-.26c.26-.24.49-.38 1.36-.81a5.44 5.44 0 0 1 1.33-.56c.16-.03.57-.02.74.03Zm3.5 4.2c.15.07.89.62.96.71.14.16.22.41.22.64 0 .12-.13 1.07-.2 1.46-.08.42-.22.7-.46.89-.2.15-1.4.82-1.61.89-.29.09-.36.09-.58.02a8.3 8.3 0 0 1-1.56-.82.78.78 0 0 1-.14-.21c-.09-.2-.06-.37.16-1.17.3-1.1.36-1.19 1.18-1.67.7-.4 1.3-.72 1.43-.77a.96.96 0 0 1 .6.03Z"/></svg>