<!-- by TradingView --><svg width="56" height="56" viewBox="0 0 56 56" xmlns="http://www.w3.org/2000/svg"><path fill="#F0F3FA" d="M0 0h56v56H0z"/><path d="M39.6 18.68c2.66 3.85 5.39 7.65 7.89 11.67a4 4 0 0 1 .51 2.14c0 2.98-2.5 5.23-5.4 5.23-3.35 0-4.6-2.53-6.13-4.84l2.21-3.25c.98 1.22 1.85 2.8 3.07 4.13.87.95 2.5-.18 2.5-1.27 0-.76-2.56-4.07-2.61-4.18-.63-.99-1.31-1.98-2.05-2.97h-.23c-1.64 2.48-3.46 4.9-5.05 7.43C32.2 36.02 30.95 38 28 38c-1.45 0-3.02-.57-3.93-1.7-.85-1.1-2.27-3.31-2.27-3.42 0-.16 2.04-3.2 2.16-3.2.28 0 2.38 3.64 3.35 4.47.32.31 1.14.3 1.42-.06 1.25-1.43 2.16-3.03 3.24-4.57 2.5-3.58 4.94-7.2 7.38-10.84h.23Zm-5.4 4.35a32.6 32.6 0 0 1-2.22 3.24L28 20.67c-1.6 1.92-2.84 3.95-4.26 6.05-1.54 2.2-3.07 4.56-4.66 6.82-1.54 2.07-2.83 4.18-5.74 4.18-2.4 0-5.34-1.9-5.34-4.56 0-3.2 2.04-5.34 3.8-7.88 1.48-2.2 3.08-4.4 4.55-6.6 0 0 .12-.06.17-.06l3.01 4.4-2.21 3.25c-.29-.27-.85-.99-.85-.99s-2.72 3.9-3.75 5.34c-.52.83-.97 1.1-.97 1.87 0 .89.8 1.6 1.6 1.6 1.01 0 1.53-1.15 2.2-2.03.4-.56.8-1.16 1.2-1.77.85-1.2 1.7-2.47 2.56-3.74 2.84-4.13 5.68-8.26 8.46-12.38a.79.79 0 0 1 .29-.17l6.13 9.03Z" fill="#5BA971"/></svg>