<!-- by TradingView --><svg width="56" height="56" viewBox="0 0 56 56" xmlns="http://www.w3.org/2000/svg"><path fill="#F0F3FA" d="M0 0h56v56H0z"/><path fill-rule="evenodd" d="M5 22v11h1V22.99L9 33h1.1L13 22.99V33h1V22h-1.78l-2.66 9.89L6.8 22H5Zm11 8.3v-2.76c-.01-.85.46-2.54 2.5-2.54s2.51 1.7 2.5 2.54v2.76c.04.9-.4 2.7-2.5 2.7s-2.54-1.8-2.5-2.7Zm1-.33V27.9c0-.63.28-1.9 1.5-1.9s1.5 1.27 1.5 1.9v2.07c.02.68-.24 2.03-1.5 2.03s-1.52-1.35-1.5-2.03ZM27 22h1v11h-1v-.86a2 2 0 0 1-1.75.86c-1.89 0-2.29-1.8-2.25-2.7v-2.76c-.01-.85.42-2.54 2.25-2.54.86 0 1.4.37 1.75.85V22Zm0 7.97v.09c0 .7-.3 1.94-1.5 1.94-1.26 0-1.52-1.35-1.5-2.03V27.9c0-.63.28-1.9 1.5-1.9s1.5 1.27 1.5 1.9v2.07ZM37 22h1v11h-1V22Zm-7 5.54v2.76c-.04.9.4 2.7 2.5 2.7 1.95 0 2.47-1.56 2.5-2.5h-1.04c-.1.68-.48 1.5-1.46 1.5-1.26 0-1.52-1.35-1.5-2.03V29H35v-1.46c.03-.85-.45-2.54-2.49-2.54S30 26.7 30 27.54Zm4 .36v.1h-3v-.1c0-.63.28-1.9 1.5-1.9s1.5 1.27 1.5 1.9Z" fill="#0069A9"/><path d="M43 22v11h2v-8.09L48.04 33H51V22h-2v7.61L45.99 22H43Z" fill="#00A5DC"/></svg>