<!-- by TradingView --><svg width="56" height="56" viewBox="0 0 56 56" fill="none" xmlns="http://www.w3.org/2000/svg">
<rect width="56" height="56" fill="#F0F3FA"/>
<path d="M21.7856 19.3263C21.5764 19.3746 21.3844 19.4777 21.2299 19.6248C21.0754 19.7718 20.9643 19.9573 20.9082 20.1616C20.8351 20.5389 21.1129 20.7779 21.5253 20.6944C21.7361 20.6477 21.9297 20.5444 22.0846 20.3959C22.2395 20.2475 22.3496 20.0597 22.4026 19.8534C22.4219 19.786 22.4242 19.7149 22.4094 19.6464C22.3946 19.5779 22.3631 19.514 22.3176 19.4602C22.2722 19.4063 22.2141 19.3642 22.1484 19.3373C22.0827 19.3105 22.0114 19.2998 21.9406 19.3061C21.8836 19.3062 21.8267 19.312 21.7709 19.3234M24.1106 17.2526C23.8574 17.3139 23.6255 17.4408 23.4388 17.62C23.2522 17.7993 23.1176 18.0244 23.049 18.2722C22.97 18.7215 23.3181 19.0066 23.8299 18.8972C24.0895 18.8412 24.3283 18.7155 24.5199 18.534C24.7114 18.3525 24.8481 18.1223 24.9149 17.8689C24.9352 17.7865 24.9347 17.7005 24.9136 17.6183C24.8925 17.5362 24.8513 17.4603 24.7937 17.3973C24.7361 17.3343 24.6637 17.2861 24.5829 17.2569C24.5021 17.2276 24.4153 17.2183 24.33 17.2295C24.2542 17.2301 24.1787 17.2388 24.1048 17.2555M26.8481 15.2566C26.5475 15.3255 26.2716 15.4736 26.05 15.6852C25.8284 15.8968 25.6696 16.1639 25.5905 16.4577C25.5057 16.9847 25.9327 17.3073 26.5527 17.1719C27.1727 17.0366 27.7605 16.4836 27.8366 15.9479C27.8548 15.852 27.8499 15.7533 27.8221 15.6597C27.7943 15.5662 27.7444 15.4804 27.6766 15.4093C27.6087 15.3383 27.5248 15.2841 27.4317 15.251C27.3385 15.218 27.2388 15.2071 27.1405 15.2192C27.042 15.2196 26.9439 15.2312 26.8481 15.2538M41.5852 14.8217C41.5275 14.8825 41.4876 14.9576 41.4697 15.0389C41.4518 15.1202 41.4566 15.2048 41.4836 15.2836C41.5106 15.3625 41.5588 15.4327 41.623 15.4868C41.6872 15.5408 41.7651 15.5768 41.8484 15.5907C42.0591 15.6258 42.2755 15.6023 42.4734 15.5229C42.6712 15.4435 42.8427 15.3114 42.9686 15.1414C43.027 15.0796 43.0673 15.0033 43.0849 14.9206C43.1025 14.8379 43.0969 14.7521 43.0686 14.6723C43.0403 14.5926 42.9904 14.5219 42.9243 14.4681C42.8582 14.4142 42.7785 14.3791 42.6936 14.3667C42.634 14.3543 42.5732 14.3486 42.5123 14.3494C42.3312 14.3521 42.1532 14.3961 41.9923 14.4781C41.8314 14.56 41.6921 14.6777 41.5852 14.8217ZM39.3128 13.6697C38.7951 13.8886 38.4705 14.3523 38.5787 14.718C38.6869 15.0838 39.2133 15.2077 39.7485 14.9888C40.2838 14.7699 40.6259 14.2947 40.4885 13.926C40.4331 13.8043 40.3388 13.7038 40.22 13.6398C40.1012 13.5758 39.9644 13.5519 39.8304 13.5717C39.651 13.5741 39.4739 13.6124 39.3099 13.6841M30.1002 13.4767C29.372 13.6524 28.714 14.2745 28.6379 14.8736C28.5619 15.4726 29.0766 15.8413 29.8078 15.6771C30.5389 15.513 31.2379 14.8649 31.311 14.2371C31.3695 13.7388 31.0186 13.4191 30.4717 13.4191C30.3434 13.4201 30.2157 13.4365 30.0915 13.4681M36.3414 13.1973C35.7564 13.4565 35.3616 14.0038 35.464 14.43C35.5663 14.8563 36.1717 15.0061 36.7801 14.7382C37.3884 14.4703 37.7832 13.9202 37.6574 13.4911C37.6023 13.3515 37.5019 13.2337 37.3718 13.1561C37.2417 13.0785 37.0892 13.0454 36.938 13.0619C36.7291 13.065 36.5231 13.1101 36.3326 13.1944M33.1769 13.1224C32.5101 13.4104 32.0714 14.0354 32.1855 14.5164C32.2996 14.9974 32.943 15.1645 33.6215 14.8765C34.3 14.5884 34.7562 13.9462 34.6246 13.4565C34.5698 13.3004 34.4626 13.1674 34.3206 13.0794C34.1786 12.9914 34.0104 12.9538 33.8437 12.9727C33.6121 12.9767 33.3839 13.0287 33.174 13.1253" fill="url(#paint0_linear_229_6176)"/>
<path d="M44.8347 26.8233C44.3433 26.9904 44.0479 27.4253 44.1737 27.8141C44.2995 28.2029 44.8083 28.3901 45.3085 28.2202C45.8086 28.0503 46.0981 27.6038 45.9694 27.2179C45.9082 27.0727 45.8021 26.9503 45.666 26.868C45.53 26.7858 45.3711 26.748 45.2119 26.76C45.0845 26.7609 44.958 26.7823 44.8376 26.8233M43.1823 24.4097C43.1047 24.5054 43.0524 24.6184 43.0301 24.7388C43.0078 24.8592 43.0162 24.9831 43.0544 25.0995C43.0927 25.2159 43.1596 25.3212 43.2493 25.4059C43.339 25.4906 43.4486 25.5521 43.5683 25.5849C43.8529 25.6663 44.1561 25.6585 44.436 25.5625C44.7159 25.4665 44.9584 25.2871 45.13 25.0491C45.2079 24.9514 45.2598 24.8361 45.2811 24.7136C45.3024 24.5912 45.2925 24.4654 45.2521 24.3477C45.2118 24.23 45.1424 24.124 45.0501 24.0393C44.9578 23.9546 44.8456 23.8939 44.7235 23.8625C44.6061 23.8269 44.4837 23.8094 44.3609 23.8107C44.1319 23.8133 43.9067 23.8689 43.7035 23.973C43.5003 24.077 43.3248 24.2266 43.191 24.4097M41.7024 21.7168C41.331 22.264 41.5211 22.8689 42.1382 23.0561C42.4724 23.1405 42.8247 23.1229 43.1486 23.0056C43.4724 22.8884 43.7524 22.6769 43.9514 22.3994C44.3287 21.8234 44.1181 21.2473 43.4923 21.0544C43.367 21.0177 43.2369 20.9993 43.1062 20.9996C42.8318 21.0023 42.5619 21.0683 42.318 21.1924C42.0742 21.3164 41.8634 21.495 41.7024 21.7139M39.7254 19.2744C39.3013 19.8908 39.506 20.5532 40.1845 20.7548C40.5653 20.8411 40.9636 20.8134 41.3283 20.6754C41.693 20.5373 42.0076 20.2952 42.2318 19.9801C42.6617 19.3522 42.4335 18.684 41.7404 18.4968C41.6126 18.4633 41.4808 18.4469 41.3485 18.4478C41.0332 18.4528 40.7233 18.5301 40.4436 18.6736C40.1639 18.8171 39.922 19.0228 39.7371 19.2744M28.3808 17.0365C28.024 17.3735 27.9596 17.8199 28.2433 18.0273C28.527 18.2347 29.0593 18.1281 29.4132 17.7825C29.767 17.4369 29.8401 16.9818 29.5448 16.7831C29.4388 16.7123 29.313 16.676 29.185 16.6794C28.8778 16.6924 28.5871 16.8201 28.372 17.0365M37.3623 16.9962C36.7218 17.5982 36.6633 18.3873 37.2394 18.756C37.8156 19.1246 38.845 18.9518 39.5002 18.3326C40.1553 17.7134 40.1991 16.9098 39.5937 16.5498C39.3799 16.4276 39.1361 16.3658 38.8889 16.3712C38.3197 16.3852 37.7762 16.6081 37.3652 16.9962M31.1533 16.5872C30.7117 17.0048 30.6415 17.555 31.01 17.8113C31.3785 18.0676 32.0541 17.9438 32.5191 17.5031C32.9841 17.0624 33.0338 16.5181 32.6507 16.2704C32.5147 16.185 32.3557 16.1418 32.1945 16.1466C31.8067 16.161 31.4389 16.3195 31.165 16.5901M34.1891 16.4893C33.6538 16.9933 33.6041 17.6414 34.0516 17.9668C34.4991 18.2923 35.3531 18.1137 35.9029 17.5953C36.4527 17.0769 36.5083 16.4029 36.0199 16.1034C35.8469 15.9989 35.6465 15.9468 35.4437 15.9536C34.9687 15.9685 34.5167 16.1587 34.1774 16.4864" fill="url(#paint1_linear_229_6176)"/>
<path d="M33.9113 40.7142C33.8445 40.8033 33.7973 40.9052 33.773 41.0134C33.7486 41.1215 33.7476 41.2335 33.7699 41.3421C33.7922 41.4507 33.8374 41.5534 33.9026 41.6437C33.9678 41.734 34.0514 41.8098 34.1482 41.8663C34.3574 41.9709 34.5988 41.9943 34.8247 41.9319C35.0505 41.8695 35.2444 41.7258 35.3678 41.5293C35.4354 41.4398 35.4828 41.3371 35.5068 41.2281C35.5309 41.119 35.531 41.0062 35.5072 40.8972C35.4834 40.7881 35.4362 40.6853 35.3687 40.5956C35.3013 40.506 35.2152 40.4315 35.1162 40.3773C34.9932 40.3119 34.8554 40.2783 34.7156 40.2793C34.5556 40.2812 34.3985 40.3218 34.2582 40.3977C34.1179 40.4735 33.9988 40.5823 33.9113 40.7142ZM36.4235 37.1256C36.1424 37.1972 35.8984 37.3693 35.7389 37.6083C35.5794 37.8473 35.516 38.1362 35.5608 38.4187C35.5966 38.5513 35.66 38.675 35.7472 38.782C35.8343 38.889 35.9431 38.9769 36.0668 39.0401C36.1904 39.1033 36.326 39.1403 36.465 39.1489C36.604 39.1575 36.7433 39.1373 36.8739 39.0898C37.1613 39.0211 37.4115 38.8477 37.5743 38.6045C37.7371 38.3614 37.8004 38.0666 37.7513 37.7794C37.6961 37.5705 37.5699 37.3867 37.3938 37.2583C37.2176 37.1299 37.0022 37.0648 36.7833 37.0737C36.6634 37.0736 36.5441 37.0911 36.4294 37.1256M38.1286 33.6377C37.4091 33.8681 36.9588 34.5478 37.1079 35.1699C37.2571 35.792 37.9853 36.1377 38.7135 35.9216C39.4418 35.7056 39.9155 34.9971 39.7488 34.3606C39.6747 34.1203 39.5208 33.9114 39.312 33.7673C39.1031 33.6232 38.8512 33.5522 38.5965 33.5657C38.4397 33.5666 38.2839 33.5909 38.1344 33.6377M39.3891 29.8935C38.5527 30.1815 38.035 30.9447 38.2193 31.6417C38.4035 32.3387 39.24 32.7045 40.091 32.4338C40.9421 32.163 41.4919 31.3537 41.2843 30.651C41.1955 30.3857 41.0198 30.1569 40.7848 30.0006C40.5498 29.8442 40.2688 29.769 39.9857 29.7869C39.7867 29.7886 39.5892 29.8216 39.4008 29.8848M40.325 25.8526C39.3686 25.9764 38.5702 26.7166 38.5176 27.5231C38.4649 28.3295 39.2253 28.9113 40.2022 28.8019C41.179 28.6924 42.0271 27.9177 42.0534 27.0882C42.0739 26.3537 41.4422 25.8324 40.5911 25.8324C40.4933 25.8325 40.3956 25.8392 40.2987 25.8526M39.0031 22.9062C38.2046 23.03 37.5232 23.6579 37.4793 24.3261C37.4355 24.9943 38.0643 25.4494 38.8773 25.3399C39.6903 25.2305 40.401 24.5796 40.4274 23.8998C40.4537 23.3037 39.9565 22.8947 39.278 22.8947C39.1849 22.8951 39.092 22.9028 39.0001 22.9177M37.1986 20.7374C36.5435 20.8526 35.9849 21.3797 35.9468 21.9125C35.9088 22.4454 36.406 22.814 37.0699 22.7075C37.7338 22.6009 38.3187 22.0652 38.3479 21.5122C38.3772 21.0398 37.9882 20.7144 37.4472 20.7144C37.3648 20.7151 37.2826 20.7228 37.2015 20.7374M35.2303 19.1533C34.9854 19.1936 34.7585 19.3055 34.5791 19.4745C34.3997 19.6435 34.276 19.8618 34.2242 20.1009C34.1862 20.5329 34.5752 20.8066 35.1016 20.7144C35.3519 20.6778 35.5845 20.5656 35.7674 20.3933C35.9502 20.221 36.0742 19.9971 36.1223 19.7524C36.1516 19.3838 35.862 19.1332 35.4438 19.1332C35.3721 19.1332 35.3007 19.1399 35.2303 19.1533Z" fill="url(#paint2_linear_229_6176)"/>
<path d="M19.1419 43.4764C18.9421 43.542 18.7694 43.67 18.6501 43.841C18.5308 44.0121 18.4714 44.2167 18.481 44.424C18.481 44.5768 18.5426 44.7233 18.6523 44.8313C18.762 44.9393 18.9108 45 19.0659 45C19.1263 44.9995 19.1863 44.9908 19.2443 44.9741C19.4451 44.9076 19.6183 44.778 19.7371 44.6053C19.856 44.4326 19.914 44.2262 19.9023 44.0179C19.9023 43.8651 19.8407 43.7186 19.731 43.6106C19.6213 43.5025 19.4725 43.4418 19.3174 43.4418C19.252 43.4422 19.187 43.4519 19.1244 43.4706M21.4319 42.8946C21.1102 43.3698 21.1658 43.9718 21.5606 44.2397C21.9554 44.5075 22.555 44.3462 22.8825 43.8652C23.0426 43.6655 23.1169 43.412 23.0896 43.159C23.0623 42.906 22.9355 42.6736 22.7363 42.5116C22.611 42.4315 22.4645 42.3895 22.3151 42.3906C22.1385 42.3989 21.9666 42.4491 21.8138 42.5369C21.6611 42.6246 21.5321 42.7473 21.4378 42.8946M24.4794 41.5035C24.0933 42.0795 24.1869 42.8082 24.6812 43.1366C25.1754 43.4649 25.9446 43.2518 26.3394 42.6613C26.7342 42.0709 26.6319 41.3307 26.1113 41.0168C25.9556 40.9229 25.7762 40.874 25.5936 40.8756C25.3702 40.8836 25.152 40.9449 24.9579 41.0542C24.7638 41.1636 24.5996 41.3178 24.4794 41.5035ZM27.6964 39.4874C27.2344 40.1729 27.363 41.0168 27.9889 41.3941C28.6148 41.7714 29.5273 41.515 30.001 40.818C30.4748 40.121 30.3198 39.2627 29.6735 38.8998C29.4843 38.7982 29.2719 38.7456 29.0564 38.7472C28.7851 38.7545 28.5197 38.8264 28.2829 38.9568C28.046 39.0872 27.8448 39.2723 27.6964 39.496M31.1826 36.3278C30.4865 36.9788 30.3871 37.9811 30.9662 38.5715C31.5452 39.1619 32.6361 39.1302 33.3643 38.4592C34.0926 37.7881 34.1657 36.757 33.5486 36.1723C33.2688 35.9177 32.9 35.7795 32.5191 35.7864C32.0209 35.7936 31.5441 35.9872 31.1855 36.3278M33.4111 32.8313C32.8057 33.4074 32.7326 34.2397 33.2532 34.7207C33.7738 35.2017 34.7301 35.147 35.3531 34.5623C35.976 33.9776 36.0404 33.1222 35.4876 32.6499C35.2454 32.4532 34.9385 32.3508 34.6249 32.3619C34.1736 32.369 33.7415 32.5427 33.4141 32.8486M34.7623 29.5364C34.2505 30.0116 34.1979 30.7058 34.6395 31.0888C35.0811 31.4719 35.8912 31.397 36.4206 30.9074C36.9499 30.4178 37.0055 29.7121 36.5259 29.3377C36.3244 29.1844 36.0755 29.104 35.821 29.1102C35.4254 29.116 35.0464 29.2681 34.7594 29.5364M35.5286 26.5267C35.1103 26.9126 35.0665 27.4656 35.435 27.7594C35.8035 28.0531 36.4586 27.9783 36.8973 27.5779C37.336 27.1776 37.3594 26.6217 36.9762 26.3394C36.8184 26.2241 36.6258 26.1642 36.4293 26.1695C36.1021 26.1777 35.7896 26.305 35.552 26.5267" fill="url(#paint3_linear_229_6176)"/>
<path d="M17.1474 38.7326C16.8205 38.8538 16.5393 39.071 16.3421 39.3549C16.1448 39.6388 16.041 39.9756 16.0448 40.3196C16.0405 40.4687 16.0738 40.6166 16.1418 40.7499C16.2098 40.8833 16.3104 40.9979 16.4344 41.0836C16.5585 41.1692 16.7022 41.2232 16.8527 41.2406C17.0031 41.2581 17.1557 41.2385 17.2966 41.1836C17.6336 41.0662 17.9242 40.8465 18.1265 40.5562C18.3289 40.2659 18.4325 39.9198 18.4225 39.5679C18.4229 39.4505 18.3996 39.3343 18.3539 39.2259C18.3083 39.1176 18.2411 39.0192 18.1565 38.9367C18.0718 38.8541 17.9713 38.7889 17.8608 38.745C17.7504 38.7011 17.6321 38.6792 17.513 38.6808C17.3876 38.6814 17.2632 38.7018 17.1445 38.7413M20.8646 38.6001C20.4565 38.6517 20.0759 38.8309 19.779 39.1114C19.4821 39.3919 19.2844 39.7589 19.2151 40.1583C19.0718 40.9907 19.5865 41.6531 20.385 41.6301C21.1834 41.607 21.9379 40.8927 22.0725 40.0402C22.207 39.1877 21.6893 38.6001 20.9465 38.6001H20.8763M14.4568 38.1767C14.1878 38.2815 13.9564 38.4625 13.7919 38.6968C13.6274 38.9311 13.5372 39.2082 13.5326 39.493C13.5255 39.6131 13.5496 39.733 13.6026 39.8415C13.6556 39.9499 13.7358 40.0432 13.8356 40.1126C13.9354 40.1821 14.0515 40.2254 14.1729 40.2384C14.2944 40.2514 14.4172 40.2338 14.5299 40.1871C14.8053 40.0838 15.0426 39.9009 15.2107 39.6624C15.3787 39.4239 15.4697 39.141 15.4716 38.8507C15.4755 38.7568 15.4601 38.663 15.4264 38.5751C15.3926 38.4872 15.341 38.4069 15.2749 38.3391C15.2088 38.2713 15.1294 38.2174 15.0416 38.1806C14.9538 38.1438 14.8593 38.1248 14.7638 38.1249C14.6642 38.1268 14.5655 38.1443 14.4714 38.1767M24.4677 37.3127C24.1006 37.3534 23.7571 37.5115 23.4898 37.7628C23.2226 38.014 23.0463 38.3445 22.9879 38.7038C22.9512 38.8626 22.9526 39.0275 22.992 39.1856C23.0313 39.3437 23.1075 39.4906 23.2145 39.6147C23.3214 39.7388 23.4563 39.8367 23.6083 39.9005C23.7604 39.9644 23.9255 39.9925 24.0904 39.9826C24.4658 39.9486 24.8185 39.7907 25.0914 39.5345C25.3642 39.2784 25.5412 38.939 25.5937 38.5713C25.6259 38.4184 25.6231 38.2604 25.5854 38.1087C25.5476 37.9571 25.476 37.8156 25.3756 37.6947C25.2753 37.5738 25.1488 37.4765 25.0054 37.4099C24.8619 37.3433 24.7052 37.3091 24.5467 37.3098H24.4648M12.3072 37.3069C12.0928 37.393 11.9083 37.5383 11.776 37.7254C11.6436 37.9124 11.5691 38.1332 11.5614 38.3611C11.5519 38.456 11.5681 38.5517 11.6083 38.6385C11.6484 38.7253 11.7112 38.8001 11.7901 38.8553C11.8691 38.9106 11.9614 38.9443 12.0579 38.9531C12.1543 38.9619 12.2514 38.9455 12.3393 38.9054C12.5596 38.8211 12.7494 38.6742 12.8848 38.4835C13.0201 38.2927 13.095 38.0667 13.0997 37.834C13.1058 37.7607 13.0964 37.687 13.0721 37.6175C13.0478 37.548 13.0092 37.4842 12.9586 37.43C12.9081 37.3759 12.8467 37.3327 12.7784 37.3031C12.7101 37.2735 12.6363 37.2581 12.5616 37.258C12.4776 37.2592 12.3945 37.2748 12.3159 37.3041M10.1722 36.6099C9.94407 36.9296 9.94114 37.3098 10.1722 37.474C10.4032 37.6382 10.7717 37.497 11.0028 37.186C11.2338 36.8749 11.2251 36.4803 11.0028 36.3219C10.9369 36.2791 10.8594 36.257 10.7805 36.2586C10.6583 36.2665 10.5397 36.3024 10.4341 36.3634C10.3285 36.4244 10.2388 36.5088 10.1722 36.6099ZM27.6702 35.5299C27.3507 35.5625 27.051 35.6977 26.8173 35.9148C26.5837 36.1319 26.4291 36.4187 26.3775 36.7309C26.3495 36.8719 26.3557 37.0174 26.3954 37.1556C26.4351 37.2938 26.5072 37.4209 26.606 37.5266C26.7048 37.6323 26.8274 37.7137 26.964 37.764C27.1006 37.8144 27.2473 37.8325 27.3923 37.8167C27.7173 37.7854 28.0223 37.6479 28.2587 37.426C28.4951 37.2042 28.6493 36.9108 28.6967 36.5927C28.7232 36.4587 28.7186 36.3206 28.6834 36.1886C28.6482 36.0567 28.5832 35.9342 28.4932 35.8304C28.4033 35.7266 28.2907 35.6441 28.1639 35.5891C28.0371 35.5341 27.8993 35.5079 27.7608 35.5126H27.6702M30.4924 33.4619C30.2253 33.489 29.975 33.6027 29.7807 33.7852C29.5864 33.9676 29.4592 34.2085 29.4191 34.47C29.402 34.5874 29.4128 34.7071 29.4509 34.8196C29.4889 34.9321 29.5531 35.0344 29.6382 35.1182C29.7234 35.2021 29.8272 35.2653 29.9415 35.3027C30.0557 35.3402 30.1773 35.3509 30.2965 35.334C30.5679 35.3095 30.8229 35.1955 31.0204 35.0104C31.2178 34.8254 31.3461 34.5802 31.3844 34.3144C31.4006 34.2034 31.3916 34.0903 31.358 33.9831C31.3244 33.876 31.267 33.7775 31.1901 33.6949C31.1131 33.6122 31.0185 33.5474 30.913 33.5051C30.8076 33.4628 30.6939 33.4441 30.5802 33.4504H30.4895" fill="url(#paint4_linear_229_6176)"/>
<path d="M21.4378 35.9216C21.04 36.2932 20.9494 36.8577 21.2301 37.1832C21.5109 37.5086 22.0666 37.4712 22.4643 37.0996C22.8621 36.7281 22.9469 36.1549 22.6603 35.8266C22.596 35.7571 22.5173 35.7022 22.4295 35.6654C22.3416 35.6286 22.2468 35.6109 22.1514 35.6135C21.8821 35.6217 21.6264 35.7321 21.4378 35.9216ZM18.481 35.7085C18.0248 36.1463 17.8961 36.803 18.2119 37.1889C18.5278 37.5749 19.1712 37.5288 19.6509 37.0968C20.1305 36.6647 20.2358 35.9821 19.9111 35.602C19.8393 35.5192 19.7494 35.4537 19.648 35.4102C19.5467 35.3668 19.4366 35.3467 19.3262 35.3514C19.0083 35.3587 18.7055 35.4867 18.481 35.7085ZM15.6588 35.0662C15.1382 35.5616 14.9861 36.3105 15.3195 36.7396C15.6529 37.1688 16.3607 37.1313 16.8929 36.6244C17.4252 36.1175 17.5685 35.3571 17.2205 34.928C17.1452 34.8364 17.0497 34.7629 16.9412 34.713C16.8328 34.6631 16.7143 34.6381 16.5946 34.64C16.2399 34.656 15.9049 34.8055 15.6588 35.0576M13.129 33.799C12.544 34.3462 12.3744 35.167 12.7195 35.6394C13.0646 36.1117 13.8396 36.0513 14.4246 35.4925C15.0095 34.9338 15.1879 34.0899 14.8194 33.6233C14.7406 33.529 14.6407 33.454 14.5276 33.404C14.4144 33.354 14.2911 33.3305 14.1672 33.3353C13.7743 33.3552 13.404 33.5221 13.1319 33.8018M11.6696 31.9557C11.2806 32.4971 11.2835 33.1452 11.6842 33.3957C12.0849 33.6463 12.7517 33.3957 13.1465 32.8428C13.5413 32.2898 13.5267 31.636 13.1143 31.4027C13.0066 31.3423 12.8844 31.3115 12.7605 31.3134C12.539 31.3324 12.3248 31.4009 12.1343 31.5137C11.9437 31.6265 11.7818 31.7806 11.6608 31.9643M11.1197 29.7523C10.7951 30.2016 10.7951 30.7258 11.1197 30.9217C11.4444 31.1175 12.003 30.9044 12.3393 30.4407C12.6756 29.977 12.6552 29.4643 12.313 29.2685C12.2314 29.2246 12.1398 29.2018 12.0469 29.2022C11.8601 29.2187 11.6796 29.2768 11.519 29.3721C11.3584 29.4674 11.2218 29.5974 11.1197 29.7523ZM10.9647 27.6095C10.6986 27.9724 10.6986 28.3871 10.9647 28.5369C11.2309 28.6867 11.6754 28.5052 11.9416 28.1366C12.2077 27.7679 12.2048 27.3503 11.9416 27.2092C11.8729 27.1746 11.7964 27.1577 11.7193 27.1602C11.5671 27.1737 11.4201 27.2213 11.2894 27.2991C11.1586 27.377 11.0476 27.4831 10.9647 27.6095ZM11.4385 25.2794C11.2922 25.3432 11.1659 25.4444 11.0728 25.5726C10.9797 25.7008 10.9232 25.8512 10.9092 26.0081C10.9092 26.2961 11.149 26.4085 11.4444 26.2961C11.5914 26.233 11.7185 26.1321 11.8122 26.0038C11.9058 25.8756 11.9627 25.7248 11.9767 25.5675C11.9796 25.5248 11.9733 25.4821 11.9583 25.442C11.9433 25.402 11.9198 25.3655 11.8894 25.335C11.859 25.3045 11.8224 25.2808 11.782 25.2652C11.7416 25.2497 11.6983 25.2428 11.655 25.2449C11.5782 25.2459 11.5025 25.2626 11.4327 25.2938" fill="url(#paint5_linear_229_6176)"/>
<path d="M16.7464 31.852C16.5218 31.8939 16.3145 31.9997 16.1503 32.1563C15.986 32.3129 15.872 32.5135 15.8222 32.7333C15.7897 32.823 15.7814 32.9195 15.7981 33.0134C15.8148 33.1072 15.856 33.1952 15.9176 33.2687C15.9793 33.3421 16.0592 33.3986 16.1496 33.4324C16.2401 33.4663 16.3379 33.4765 16.4335 33.462C16.6613 33.4208 16.8715 33.314 17.0376 33.155C17.2037 32.9961 17.3181 32.7922 17.3664 32.5691C17.3943 32.4867 17.4018 32.3989 17.3884 32.3131C17.375 32.2272 17.341 32.1458 17.2893 32.0754C17.2376 32.005 17.1696 31.9478 17.0909 31.9085C17.0123 31.8691 16.9253 31.8488 16.8371 31.8491H16.7523M15.5824 29.784C15.3209 29.8383 15.0804 29.9646 14.8889 30.1481C14.6974 30.3317 14.5626 30.5649 14.5003 30.8209C14.3892 31.3335 14.6933 31.7022 15.1876 31.6446C15.4534 31.594 15.6984 31.4681 15.8927 31.2824C16.087 31.0967 16.2221 30.8592 16.2814 30.5991C16.3808 30.1239 16.1176 29.7754 15.6965 29.7754H15.5824M14.7401 27.4482C14.445 27.5135 14.1738 27.6578 13.9566 27.8651C13.7393 28.0725 13.5844 28.3348 13.5089 28.6233C13.3743 29.1993 13.7136 29.6026 14.2693 29.5248C14.5711 29.461 14.8486 29.3148 15.07 29.1029C15.2914 28.891 15.4477 28.622 15.521 28.3267C15.6321 27.7996 15.3485 27.428 14.8805 27.428C14.8309 27.4241 14.781 27.4241 14.7314 27.428M14.4389 24.7264C14.1127 24.8078 13.8143 24.9731 13.5743 25.2054C13.3343 25.4377 13.1613 25.7286 13.0731 26.0484C12.9239 26.6734 13.3012 27.1026 13.9154 27.0075C14.2501 26.9313 14.5571 26.7662 14.8031 26.53C15.0491 26.2939 15.2246 25.9958 15.3104 25.6683C15.4362 25.0922 15.1379 24.7092 14.6319 24.7092C14.5672 24.7092 14.5026 24.715 14.4389 24.7264ZM15.0063 22.1516C14.7454 22.2634 14.5201 22.4426 14.3543 22.6703C14.1886 22.898 14.0884 23.1656 14.0645 23.4448C14.085 23.9286 14.5383 24.136 15.0852 23.9027C15.6321 23.6694 16.0679 23.079 16.0416 22.5894C16.0413 22.5155 16.0257 22.4425 15.9958 22.3747C15.9658 22.307 15.9221 22.2461 15.8673 22.1956C15.8125 22.1452 15.7478 22.1063 15.6772 22.0814C15.6066 22.0565 15.5315 22.0461 15.4567 22.0508C15.3018 22.0543 15.1494 22.0896 15.0092 22.1545M16.2492 19.761C16.0298 19.8538 15.8401 20.0035 15.7005 20.1943C15.5609 20.3851 15.4766 20.6097 15.4567 20.844C15.4742 21.2443 15.8661 21.3999 16.334 21.1982C16.5587 21.1067 16.7531 20.9552 16.8951 20.7608C17.0372 20.5665 17.1214 20.3369 17.1383 20.098C17.1359 20.0368 17.1207 19.9766 17.0936 19.9214C17.0665 19.8662 17.0282 19.8171 16.981 19.7771C16.9338 19.7371 16.8788 19.7071 16.8193 19.689C16.7598 19.6708 16.6972 19.665 16.6353 19.6718C16.4985 19.6747 16.364 19.7061 16.2405 19.7639M17.6647 17.6326C17.4852 17.7085 17.3302 17.8313 17.2163 17.9876C17.1024 18.1439 17.034 18.3279 17.0184 18.5197C17.0418 18.8394 17.3694 18.9575 17.7554 18.7847C17.9384 18.7101 18.0966 18.5868 18.2124 18.4286C18.3281 18.2704 18.3967 18.0835 18.4105 17.8889C18.4084 17.8408 18.3963 17.7937 18.375 17.7503C18.3537 17.707 18.3237 17.6683 18.2867 17.6368C18.2498 17.6052 18.2067 17.5815 18.1601 17.5669C18.1135 17.5523 18.0644 17.5472 18.0157 17.552C17.8968 17.5548 17.78 17.5833 17.6735 17.6355M18.8024 16.0341C18.6035 16.3221 18.624 16.5842 18.8551 16.662C19.0088 16.6837 19.1656 16.6613 19.3067 16.5974C19.4478 16.5336 19.5672 16.431 19.6506 16.302C19.8524 16.014 19.8231 15.7432 19.5891 15.6712C19.5503 15.6596 19.5099 15.6538 19.4692 15.6539C19.3374 15.6654 19.2098 15.7055 19.0956 15.7712C18.9813 15.8369 18.8832 15.9267 18.8083 16.0341" fill="url(#paint6_linear_229_6176)"/>
<path d="M16.3784 25.6021C16.0391 25.9247 15.9426 26.3826 16.1619 26.6159C16.3813 26.8492 16.8404 26.7801 17.1885 26.4489C17.5365 26.1176 17.6301 25.6597 17.402 25.4293C17.356 25.3843 17.3011 25.349 17.2408 25.3258C17.1804 25.3025 17.1158 25.2916 17.051 25.2939C16.7954 25.3072 16.5546 25.4164 16.3784 25.5992M17.0773 23.0359C16.6737 23.4218 16.5568 23.9546 16.8258 24.2196C17.0949 24.4846 17.6447 24.3953 18.0542 24.0007C18.4636 23.6061 18.5747 23.0676 18.2998 22.8055C18.1909 22.7072 18.0468 22.6554 17.8992 22.6615C17.5854 22.679 17.2904 22.814 17.0744 23.0388M18.1624 20.3631C17.6944 20.8124 17.5775 21.4115 17.8699 21.7081C18.1624 22.0048 18.8292 21.878 19.3118 21.4201C19.7943 20.9622 19.8967 20.3516 19.5808 20.0635C19.4577 19.9612 19.3002 19.9077 19.1392 19.9138C18.764 19.9358 18.4111 20.0962 18.1507 20.3631M19.8002 17.6096C19.2679 18.1223 19.1304 18.7876 19.5077 19.1073C19.885 19.427 20.622 19.2686 21.1689 18.7444C21.7158 18.2202 21.8415 17.5434 21.4613 17.2352C21.3246 17.1302 21.1551 17.0753 20.9817 17.0797C20.5384 17.1046 20.1208 17.2927 19.8119 17.6068M22.2627 15.6857C21.8942 16.1897 21.9702 16.7053 22.4089 16.8378C22.8476 16.9702 23.5378 16.6765 23.9151 16.1667C24.2924 15.6569 24.2076 15.1356 23.7455 15.0146C23.6712 14.9945 23.5944 14.9848 23.5174 14.9858C23.2684 15.0039 23.0266 15.0763 22.8096 15.1979C22.5925 15.3194 22.4057 15.4871 22.2627 15.6886M25.0265 13.9605C24.7106 14.3896 24.7808 14.8245 25.1815 14.9426C25.5821 15.0607 26.1788 14.7871 26.4975 14.3464C26.8163 13.9058 26.7374 13.4824 26.3279 13.3643C26.2675 13.3503 26.2057 13.3435 26.1437 13.3441C25.9223 13.3589 25.707 13.4218 25.5133 13.5284C25.3196 13.635 25.1523 13.7826 25.0235 13.9605M27.7785 12.5665C27.5182 12.9294 27.5855 13.2894 27.9394 13.3787C28.156 13.4047 28.3756 13.3714 28.5743 13.2824C28.7729 13.1935 28.9428 13.0524 29.0654 12.8747C29.3315 12.506 29.2584 12.1431 28.8986 12.0625C28.8488 12.051 28.7978 12.0452 28.7466 12.0452C28.5572 12.0574 28.3729 12.1104 28.2066 12.2005C28.0403 12.2905 27.8962 12.4155 27.7844 12.5665M30.9313 11.089C30.5774 11.2531 30.3463 11.5815 30.3931 11.832C30.4399 12.0826 30.7821 12.1633 31.1418 11.9991C31.5016 11.8349 31.7443 11.4979 31.6858 11.2474C31.6605 11.1687 31.6081 11.1011 31.5376 11.0564C31.4671 11.0117 31.383 10.9927 31.2998 11.0026C31.1718 11.0055 31.046 11.036 30.9313 11.0918" fill="url(#paint7_linear_229_6176)"/>
<defs>
<linearGradient id="paint0_linear_229_6176" x1="20.8321" y1="16.4231" x2="41.2029" y2="17.6079" gradientUnits="userSpaceOnUse">
<stop stop-color="#00BCE4"/>
<stop offset="1" stop-color="#007DC3"/>
</linearGradient>
<linearGradient id="paint1_linear_229_6176" x1="20.5662" y1="21.0083" x2="40.937" y2="22.1961" gradientUnits="userSpaceOnUse">
<stop stop-color="#00BCE4"/>
<stop offset="1" stop-color="#007DC3"/>
</linearGradient>
<linearGradient id="paint2_linear_229_6176" x1="20.0603" y1="29.7034" x2="40.4311" y2="30.8882" gradientUnits="userSpaceOnUse">
<stop stop-color="#00BCE4"/>
<stop offset="1" stop-color="#007DC3"/>
</linearGradient>
<linearGradient id="paint3_linear_229_6176" x1="19.7444" y1="35.1297" x2="40.1152" y2="36.3145" gradientUnits="userSpaceOnUse">
<stop stop-color="#00BCE4"/>
<stop offset="1" stop-color="#007DC3"/>
</linearGradient>
<linearGradient id="paint4_linear_229_6176" x1="19.6246" y1="37.2205" x2="39.9924" y2="38.4053" gradientUnits="userSpaceOnUse">
<stop stop-color="#00BCE4"/>
<stop offset="1" stop-color="#007DC3"/>
</linearGradient>
<linearGradient id="paint5_linear_229_6176" x1="19.9492" y1="31.61" x2="40.32" y2="32.7949" gradientUnits="userSpaceOnUse">
<stop stop-color="#00BCE4"/>
<stop offset="1" stop-color="#007DC3"/>
</linearGradient>
<linearGradient id="paint6_linear_229_6176" x1="20.3525" y1="24.6976" x2="40.7204" y2="25.8825" gradientUnits="userSpaceOnUse">
<stop stop-color="#00BCE4"/>
<stop offset="1" stop-color="#007DC3"/>
</linearGradient>
<linearGradient id="paint7_linear_229_6176" x1="20.7009" y1="18.6983" x2="41.0718" y2="19.8832" gradientUnits="userSpaceOnUse">
<stop stop-color="#00BCE4"/>
<stop offset="1" stop-color="#007DC3"/>
</linearGradient>
</defs>
</svg>
