<!-- by TradingView --><svg width="56" height="56" viewBox="0 0 56 56" xmlns="http://www.w3.org/2000/svg"><path fill="url(#a5epspttc)" d="M0 0h56v56H0z"/><path d="M14 14v28h5v-3h-2V17h22v14h3V14H14Z" fill="#71C5E9"/><path d="M22 42h2v-9h-2v9ZM29.5 40.26c-1.56 0-2.5-1.2-2.5-2.76 0-1.56.87-2.78 2.5-2.78.94 0 1.7.5 2.23 1.24l1.2-1.36a4.41 4.41 0 0 0-3.5-1.6A4.39 4.39 0 0 0 25 37.5c0 2.55 1.76 4.5 4.5 4.5 1.47 0 2.65-.63 3.5-1.74l-1.27-1.2a2.66 2.66 0 0 1-2.24 1.2ZM35.97 38.26c.27 1.29 1.1 2 2.36 2 .91 0 1.6-.38 2.13-1.14l1.24 1.14A4.04 4.04 0 0 1 38.33 42C35.7 42 34 40.05 34 37.5s1.68-4.5 4.1-4.5c1.8 0 4.26 1.3 3.86 5.26h-5.99ZM40.2 37c-.19-1.76-1.05-2.32-1.9-2.32-1.37 0-2.04.86-2.33 2.32h4.23Z" fill="#fff"/><defs><linearGradient id="a5epspttc" x1="10.42" y1="9.71" x2="68.15" y2="76.02" gradientUnits="userSpaceOnUse"><stop stop-color="#1A1E21"/><stop offset="1" stop-color="#06060A"/></linearGradient></defs></svg>