<!-- by TradingView --><svg xmlns="http://www.w3.org/2000/svg" width="56" height="56" viewBox="0 0 56 56"><path fill="#F0F3FA" d="M0 0h56v56H0z"/><circle cx="37.5" cy="15.5" r="3.5" fill="#019B48"/><circle cx="21.5" cy="21.5" r="3.5" fill="#95B724"/><circle cx="14.5" cy="37.5" r="3.5" fill="#00A7E2"/><path d="M19 38.5a2.5 2.5 0 0 0 2.5 2.5h12.22a4.32 4.32 0 0 1-1.16-1.55L26.35 33H34 21.5a2.5 2.5 0 0 0-2.5 2.5v3zm16.91-5.01l.66 6.57a4 4 0 0 0-.66-6.57z" fill="#00A7E2"/><path d="M24.22 25.98a2.5 2.5 0 0 0 0 3.54l8.56 8.56.22.2V28.4l-3.84-3.83a2.5 2.5 0 0 0-3.53 0l-1.41 1.41zm10.23 3.87V39a3.5 3.5 0 0 0 3.28-5.88l-3.28-3.28z" fill="#95B724"/><rect x="34" y="20" width="7" height="21" rx="2.5" fill="#019B48"/></svg>