<!-- by TradingView --><svg width="56" height="56" viewBox="0 0 56 56" xmlns="http://www.w3.org/2000/svg"><path fill="#F0F3FA" d="M0 0h56v56H0z"/><path d="M13 24h-2.81l-1.95 4.85L8.1 24H5.1L4 32h1.64l1.1-5.83.2 5.83h1.72l2.06-5.83L9.9 32h2l1.1-8ZM16.7 27.66l.3-1.5h-1.17l.5-2.16-1.9 1.08-.24 1.08h-.9l-.29 1.5h.9l-.52 2.49c0 1.63.53 1.85 1.8 1.85.23 0 .55-.01.88-.05v-1.53c-.2.02-.27 0-.4 0-.3 0-.47.07-.47-.4l.34-2.36h1.18ZM21.05 26c-.63 0-1.03.33-1.4 1.02l.3-1.02H18l-1 6h1.76l.63-2.86c.35-1.02.39-1.48 1.24-1.48.18 0 .29.15.48.19l.89-1.57a2.82 2.82 0 0 0-.95-.28ZM24.71 32c1.5 0 3.29-1.5 3.29-3.18 0-1.68-.56-2.82-2.58-2.82-1.23 0-3.42 1.15-3.42 3.18 0 2.02.7 2.82 2.71 2.82Zm.05-1.5c-.53 0-.75-.22-.75-1.5 0-.77.45-1.55 1.32-1.55.83 0 .7.41.7 1.37 0 .95-.75 1.68-1.27 1.68ZM39.4 24h-2.93L35 32h2.25l.6-3h1.13c1.08 0 2.63-.28 3.02-2.54 0-1.7-.58-2.46-2.6-2.46Zm-.8 3.49h-.53l.39-1.74h.52c.42 0 .9-.08.9.7 0 .7-.51 1.04-1.29 1.04Z"/><path d="M49 24h-6.67L42 26h2.23l-1.19 6h2.13l1.15-6h2.35l.33-2ZM48 32h2.57L52 24h-2.57L48 32ZM32.64 26c-.88 0-1.54.33-1.93.92V26H29l-1 6h1.9l.66-3.19c.22-.49.31-1.08 1.05-1.08.64 0 .49.43.36 1.18L31.44 32h1.94l.49-3.43c.26-1.54.27-2.57-1.23-2.57Z"/><path d="M11 23.82h-1c.73-1.94 3.46-5.82 8.55-5.82 5.1 0 9.09 5.33 10.45 8h-1c-1.73-2.51-4.69-5-8.73-5-3.24 0-4.64 1.76-5.27 2.82h-1A6.78 6.78 0 0 1 19.27 20c3.03 0 5.22 1.7 5.73 2a9.7 9.7 0 0 0-6.45-3c-4.18 0-6.7 3.12-7.55 4.82ZM50 32h1c-.75 2.03-3.99 7-9.22 7S33.4 34.79 32 32h1c1.77 2.63 3.93 4 8.09 4 3.32 0 5.26-2.9 5.91-4h1c-1.26 2.36-3.8 5-6.91 5-4.46 0-5.57-1.7-6.09-2 2.3 2.45 4.96 3 6.78 3 4.3 0 7.35-4.22 8.22-6Z" fill="#D0043C"/></svg>