<!-- by TradingView --><svg width="56" height="56" viewBox="0 0 56 56" xmlns="http://www.w3.org/2000/svg"><path fill="#003545" d="M0 0h56v56H0z"/><path d="m45.11 16.04-.67.3c-.69.3-1 .38-1.77.43-3.47.18-4.68 1.05-7.07 5.11-2.45 4.15-3.49 4.94-8.6 6.61-6.15 2-6.42 2.1-7.53 2.9-.7.5-1.69 1.41-2.07 1.93l-.63.83c-.92 1.23-1.2 1.43-2.04 1.41-.46 0-.66-.03-1.72-.2-2.25-.39-3-.33-3.72.26-.36.3-.38.4-.1.53.13.07.4.26.61.43.64.52.92.73 1.16.85.3.15.32.05-.25.81-1.1 1.49-1.11 1.77-.04 1.76 1.08-.01 1.7-.2 3.31-.94 1.68-.78 1.59-.74 3.11-1.7 2.94-1.85 4-2.05 8.01-1.54 2.43.3 4.2.38 4.6.2.38-.2.67-.68 1.09-1.83.43-1.2.56-1.28.43-.29-.25 1.96-1.3 4.2-2.61 5.6-.43.44-.43.44.03.4 2.93-.2 5.4-2.3 6.8-5.79.23-.56.3-.63.3-.28 0 .2-.01.42-.11 1.27-.04.26 0 .26.46 0 2.26-1.23 3.6-3.95 4.91-9.97.75-3.43.75-3.42 3.1-5.08 1.24-.86 1.72-1.59 1.87-2.8.12-1.03-.13-1.38-.86-1.2Z" fill="#fff"/></svg>