<!-- by TradingView --><svg width="56" height="56" viewBox="0 0 56 56" xmlns="http://www.w3.org/2000/svg"><path fill="#18107D" d="M0 0h56v56H0z"/><path d="M16 28v-7h4v1h-3v2h2.5v1H17v2h3v1h-4ZM31 28v-7h4v1h-3v2h2.5v1H32v2h3v1h-4ZM23.02 28C21.6 28 21 26.78 21 25.5v-2c0-1.37.5-2.5 2-2.5 1.36 0 1.98.7 1.98 2H24c0-.76-.19-1-1-1-.9 0-1 .76-1 1.5v2c0 .74.11 1.5 1 1.5.9 0 1-.6 1-1.34V25h-1v-1h1.98l.02 1.5c0 1.5-.5 2.5-1.98 2.5ZM27.5 28v-6H26v-1h4v1h-1.5v6h-1ZM38 28c-1.42 0-2-.93-2-2.28V23.3c0-1.38.54-2.3 2-2.3 1.63 0 2 1.11 2 2.5h-1c0-1.02.04-1.5-1-1.5-.87 0-1 .76-1 1.5v2c0 .73-.06 1.5 1 1.5s.99-.37 1-1.5h1c0 1.42-.4 2.5-2 2.5ZM42 28v-7h1v3h3v-3h1v7h-1v-3h-3v3h-1ZM14 38v-7h1v7h-1ZM16 38v-7h1l3 5v-5h1v7h-1l-3-5v5h-1ZM23.97 38 22 31h1.15l1.4 5.16L25.88 31H27l-1.95 7h-1.08ZM28 38v-7h4v1h-3v2h2.5v1H29v2h3v1h-4ZM35 38c-1.23 0-1.92-.78-2-2h1c.05.62.31 1 1 1 .27 0 1 0 1-.5s-.47-1.05-.89-1.38c-.89-.68-2.09-1.27-2.09-2.54 0-1.06 1-1.58 1.98-1.58 1.15 0 1.87.85 2 2h-1c-.06-.66-.46-1-1-1-.38 0-1 .08-1 .58 0 .98 1.2 1.36 1.87 1.86.7.53 1.13 1.06 1.13 2.06s-.75 1.5-2 1.5ZM39.5 38v-6H38v-1h4v1h-1.5v6h-1Z" fill="#F29816"/><path d="M8 22h1.17l1.33 3.95 2.17-5.45-1.17-.27L14.13 19l.87 2.5-1.17-.5L11 28h-1l-2-6Z" fill="url(#az4zdwaze)"/><defs><linearGradient id="az4zdwaze" x1="14" y1="19" x2="10.01" y2="27.86" gradientUnits="userSpaceOnUse"><stop stop-color="#2B7238"/><stop offset=".44" stop-color="#468E32"/><stop offset=".72" stop-color="#8DCF39"/><stop offset="1" stop-color="#8FD234"/></linearGradient></defs></svg>