<!-- by TradingView --><svg xmlns="http://www.w3.org/2000/svg" width="56" height="56"><path fill="#00A2E5" d="M0 0h56v56H0z"/><path fill-rule="evenodd" d="M42.37 35.05a16 16 0 10-28.74 0c3.02-3.34 8.27-11.18 9.26-20.76.67 3.57 2.6 11.5 5.11 15.52 2.52-4.02 4.44-11.95 5.1-15.52 1 9.58 6.25 17.42 9.27 20.76zm-1.1 1.89a15.98 15.98 0 01-26.54 0c4.15-3.99 7.15-10.3 8.16-13.08.73 3.21 2.69 6.5 3.79 8.04-.2.46-1.23 1.98-2.68 3.28v3.17c.74-.52 2.53-2.03 3.75-3.94L28 34l.25.4A15.64 15.64 0 0032 38.36v-3.17a12.57 12.57 0 01-2.67-3.28c1.1-1.55 3.06-4.84 3.78-8.04 1.01 2.77 4.01 9.09 8.16 13.08zM28 46a18 18 0 100-36 18 18 0 000 36z" fill="#fff"/></svg>