<!-- by TradingView --><svg width="56" height="56" viewBox="0 0 56 56" xmlns="http://www.w3.org/2000/svg"><path fill="#191897" d="M0 0h56v56H0z"/><path d="M26.63 39.96c1.97-.26 3.22-1.56 3.81-3.38l5.1-15.89.06-.24a29.3 29.3 0 0 1 1.15-3.28c.48-1.04.9-1.76 2.2-2l.08-.01.08-.01c.05-.03.02-.1 0-.1-.21-.05-1.2-.05-2-.05-.44 0-.87.01-1.3.06-1.97.26-3.22 1.56-3.82 3.38-.45 1.38-.83 2.68-1.22 3.98L26.9 34.35l-.07.25a29.3 29.3 0 0 1-.7 2.18c-.05.11-.1.22-.13.33-.55 1.42-.95 2.44-2.55 2.73-.03 0-.06 0-.08.02l-.07.01c-.06.03-.03.09 0 .09.35.05 2.91.05 3.33 0ZM11 40l7.95-25H24v5h-2.28l-6.5 20H11Zm29.77 0H45l-6.49-20.58-2.2 6.85L40.77 40ZM28 20h-4v5h4v-5Z" fill="#FE6A4E"/></svg>