<!-- by TradingView --><svg width="56" height="56" viewBox="0 0 56 56" xmlns="http://www.w3.org/2000/svg"><path fill="#F0F3FA" d="M0 0h56v56H0z"/><path d="M23.9 12C17.56 12 12 17.53 12 23.85v8.7c0 3.22 1.44 6.12 3.69 8.2l3.45-17.89a.26.26 0 0 1 .48-.08l5.22 8.78-8.73 9.57A12.15 12.15 0 0 0 23.9 44h8.59C38.85 44 44 38.87 44 32.55v-8.7c0-3.22-1.34-6.24-3.5-8.42l-3.44 17.85a.26.26 0 0 1-.48.08l-5.22-8.77 8.73-9.57a11.2 11.2 0 0 0-7.6-3.02h-8.58Zm-4.42 9.25c-.01-.12.12-.42.69-.65 1.96-.78 6.21-1.82 7.57.18l7.75 13.59c.15.34.58.9 1.11.4.02.14-.18.53-1.11.86-1.17.43-5.9 1.93-7.38-.65l-7.62-13.44c-.18-.28-.63-.74-1.01-.3Z" fill="#FF5F0F"/></svg>