<!-- by TradingView --><svg width="56" height="56" viewBox="0 0 56 56" xmlns="http://www.w3.org/2000/svg"><path fill="#F0F3FA" d="M0 0h56v56H0z"/><path d="M8 30.76v-1.8c0-.56-.19-.72-.73-.77V28h2.4v.2c-.56.04-.67.2-.67.77v4.09c0 .56.13.73.68.78V34h-2.4v-.16c.65-.04.72-.33.72-.89v-1.8H5.74v1.91c0 .15 0 .28.02.37.02.1.06.17.11.22.06.06.14.1.24.13l.4.06V34H4v-.16c.17-.01.3-.03.41-.05.1-.02.18-.07.23-.13.05-.06.09-.15.1-.26.02-.12.03-.26.03-.45v-3.98c0-.16-.01-.28-.03-.38a.4.4 0 0 0-.11-.22.4.4 0 0 0-.23-.12L4 28.2V28h2.5v.2c-.17 0-.3.03-.4.05a.45.45 0 0 0-.24.12.48.48 0 0 0-.1.22c-.02.1-.02.22-.02.38v1.79H8ZM16.53 34h-2.37v-.16h.2a2.05 2.05 0 0 0 .2-.04.54.54 0 0 0 .08-.04.26.26 0 0 0 .1-.09.23.23 0 0 0 .03-.12c0-.14-.05-.34-.17-.6l-.36-.83h-2l-.4 1.02-.05.17a.93.93 0 0 0-.02.17c0 .12.05.2.14.27.09.06.24.09.45.09V34h-1.82v-.16c.1 0 .2-.03.27-.06.08-.03.15-.09.23-.19.08-.1.16-.24.24-.42.1-.2.2-.45.34-.77l1.8-4.4h.17l2.16 5.07.18.4.17.22c.06.05.12.09.18.1.07.03.16.04.25.05V34Zm-2.4-2.23-.84-2.2-.9 2.2h1.74ZM20.67 34h-.13l-2.32-4.84v3.56c0 .22.01.4.04.55.02.13.06.24.12.32a.5.5 0 0 0 .25.18c.11.03.25.06.41.07V34h-2.03v-.16c.18-.02.32-.04.43-.07.1-.04.2-.1.25-.18.06-.08.1-.19.12-.32.02-.15.03-.33.03-.55v-3.77c0-.15-.01-.28-.03-.38a.38.38 0 0 0-.12-.23.45.45 0 0 0-.24-.11c-.1-.03-.25-.04-.42-.05V28h1.71l2.14 4.51L22.92 28h1.83v.18c-.16 0-.29.02-.38.05a.49.49 0 0 0-.23.12.44.44 0 0 0-.11.23c-.02.1-.03.22-.03.37v4.11c0 .15.01.28.03.37.02.1.06.18.11.23.06.06.13.1.23.12.1.03.23.05.38.06V34h-2.54v-.16c.17-.01.3-.03.41-.06.1-.02.19-.06.24-.13a.5.5 0 0 0 .1-.25c.03-.12.04-.26.04-.45v-4.17L20.67 34ZM26 28.95c0-.58-.21-.74-.8-.77V28h2.58v.18c-.72.02-.78.12-.78.77v4.11c0 .61.06.76.78.78V34H25.2v-.16c.6-.02.79-.2.79-.78v-4.1ZM33.3 32.49l-.42 1.5h-4.65v-.15c.67-.05.77-.2.77-.78v-4.1c0-.54-.2-.75-.77-.78V28h2.56v.18c-.54.03-.79.17-.79.77v4.35c0 .41.45.36.73.36h.46c.37 0 .68-.04.92-.13.25-.08.45-.22.6-.4a6.31 6.31 0 0 0 .37-.65h.23ZM35.62 28.37c-.25 0-.45 0-.6.03a.8.8 0 0 0-.38.16c-.1.09-.18.2-.24.35-.05.14-.1.33-.16.57h-.2l.04-1.48h4.89l.05 1.48h-.2c-.06-.24-.12-.43-.18-.57a.81.81 0 0 0-.22-.35.76.76 0 0 0-.38-.16 3.93 3.93 0 0 0-.61-.03H37v4.69c0 .6.24.75.8.78V34h-2.52v-.16c.64-.04.72-.25.72-.89v-4.58h-.38ZM42.5 28c.4 0 .8.09 1.16.26.38.17.7.41.95.72.21.26.38.56.5.9.11.35.17.72.17 1.12 0 .44-.07.84-.21 1.22a2.73 2.73 0 0 1-1.48 1.56c-.35.15-.73.22-1.14.22-.42 0-.8-.07-1.15-.22a2.6 2.6 0 0 1-1.48-1.58 3.53 3.53 0 0 1 .01-2.43 2.74 2.74 0 0 1 1.5-1.55c.35-.15.74-.22 1.16-.22Zm-.08.3a1.73 1.73 0 0 0-1.49 1 3.87 3.87 0 0 0-.29 1.08 4.93 4.93 0 0 0 .17 2c.14.41.33.72.57.92.3.26.66.39 1.08.39a1.56 1.56 0 0 0 1.13-.47c.47-.46.7-1.22.7-2.27 0-.5-.07-.95-.21-1.34-.14-.4-.33-.7-.58-.9-.32-.27-.68-.4-1.08-.4ZM51.04 34l-3.83-4.63v3.33c0 .22 0 .4.03.55.02.13.06.24.12.32a.5.5 0 0 0 .25.18c.11.03.25.06.41.07v.16H46v-.16c.18-.02.32-.04.43-.07.1-.04.2-.1.25-.18.06-.08.1-.19.12-.32.02-.15.03-.33.03-.55v-4.04a4.2 4.2 0 0 0-.22-.25.65.65 0 0 0-.37-.21 1.06 1.06 0 0 0-.24-.02V28h1.48l3.33 4.09v-2.8c0-.54-.08-.86-.25-.98a.64.64 0 0 0-.22-.09 2 2 0 0 0-.36-.04V28H52v.18c-.16 0-.28.02-.36.05a.72.72 0 0 0-.2.1c-.17.11-.26.43-.26.95V34h-.14ZM22.04 17.25a.9.9 0 0 0-.24.03.28.28 0 0 0-.15.11.72.72 0 0 0-.1.24l-.06.4h-.08l.02-1.03h1.95l.02 1.03h-.08l-.07-.4a.69.69 0 0 0-.1-.24.27.27 0 0 0-.14-.11.92.92 0 0 0-.24-.03h-.19v3.1l.01.26c.01.07.03.12.05.16.02.04.06.07.1.09l.17.03V21h-1v-.11a.8.8 0 0 0 .17-.03.19.19 0 0 0 .1-.1c.02-.04.03-.1.04-.18l.01-.3v-3.03h-.19ZM34.05 21h-1.6v-.11c.05 0 .1-.02.13-.04a.17.17 0 0 0 .07-.08c.02-.04.04-.1.04-.16l.01-.26V17.4a.44.44 0 0 0-.04-.16.18.18 0 0 0-.08-.08.39.39 0 0 0-.14-.04V17h1.59v.87h-.07a3.14 3.14 0 0 0-.04-.33.51.51 0 0 0-.08-.2.22.22 0 0 0-.13-.09.8.8 0 0 0-.2-.02h-.4c-.04 0-.07.02-.09.04a.43.43 0 0 0-.02.17v1.34h.46c.06 0 .11 0 .15-.02a.17.17 0 0 0 .1-.08c.02-.05.04-.1.05-.18l.03-.3h.07v1.4h-.07a3.92 3.92 0 0 0-.03-.3.52.52 0 0 0-.05-.17.17.17 0 0 0-.1-.08.45.45 0 0 0-.15-.02H33v1.49l.01.13.02.06c.01.02.05.04.1.05a1 1 0 0 0 .19.02h.08c.11 0 .2-.01.27-.03a.37.37 0 0 0 .19-.13.8.8 0 0 0 .13-.24c.04-.1.08-.24.11-.4h.09L34.05 21ZM28.28 18.84v-1.18l-.01-.26a.41.41 0 0 0-.04-.16.15.15 0 0 0-.1-.08.61.61 0 0 0-.14-.04V17h.9v.12a.62.62 0 0 0-.15.04.16.16 0 0 0-.08.08.45.45 0 0 0-.04.16l-.01.26v2.95l.05.15a.2.2 0 0 0 .09.09l.15.04V21h-.91v-.11c.06 0 .11-.02.15-.03a.17.17 0 0 0 .09-.1c.02-.04.03-.1.04-.18V19.1h-.99v1.25l.01.26c0 .06.02.11.04.15.02.04.05.07.1.09l.14.04V21h-.91v-.11c.06 0 .12-.02.15-.03a.17.17 0 0 0 .09-.1c.02-.04.03-.1.04-.18V17.4a.41.41 0 0 0-.04-.16.15.15 0 0 0-.09-.08.62.62 0 0 0-.15-.04V17h.91v.12a.62.62 0 0 0-.15.04.16.16 0 0 0-.09.08.5.5 0 0 0-.04.16v1.44h.99ZM13.32 36.3a4.35 4.35 0 0 0-.14-.58 1.5 1.5 0 0 0-.07-.14.73.73 0 0 0-.2-.26.39.39 0 0 0-.25-.1.44.44 0 0 0-.3.13.98.98 0 0 0-.23.35 2.4 2.4 0 0 0-.15.55 4.56 4.56 0 0 0 .23 2.2c.13.2.3.3.48.3.12 0 .24-.05.35-.14.1-.1.22-.24.33-.45l.05.1c-.09.24-.2.42-.35.55a.7.7 0 0 1-.48.19.67.67 0 0 1-.41-.14c-.13-.1-.23-.23-.32-.4a2.43 2.43 0 0 1-.21-.62 4.1 4.1 0 0 1 .02-1.7c.06-.28.15-.5.26-.69.1-.14.2-.25.32-.33a.6.6 0 0 1 .35-.12c.15 0 .3.05.45.14.05.04.09.05.12.05s.05-.01.07-.05a.34.34 0 0 0 .05-.14h.07l.03 1.3h-.07ZM17.7 35a.8.8 0 0 1 .5.17c.15.12.28.28.39.48.09.17.15.38.2.6a3.61 3.61 0 0 1-.01 1.56 2.2 2.2 0 0 1-.25.63c-.1.18-.22.31-.37.41a.83.83 0 0 1-.95 0c-.14-.1-.27-.23-.37-.4-.1-.19-.18-.4-.24-.65a3.67 3.67 0 0 1 0-1.62c.06-.24.14-.45.25-.63.1-.17.23-.3.37-.4.15-.1.31-.15.49-.15Zm-.02.2c-.1 0-.2.04-.29.12a.91.91 0 0 0-.23.3c-.04.06-.07.15-.1.25a3.76 3.76 0 0 0-.13 1.12c0 .35.02.66.08.93s.14.48.24.61c.12.18.27.26.44.26.1 0 .18-.03.26-.08a.73.73 0 0 0 .21-.23c.2-.3.3-.81.3-1.51 0-.34-.03-.64-.1-.9a1.63 1.63 0 0 0-.23-.6c-.13-.18-.28-.27-.45-.27ZM23.18 39h-.06l-.97-3.32v2.43l.01.38c.01.1.03.17.06.23s.06.1.11.12c.05.03.11.04.18.05V39h-.9v-.11a.7.7 0 0 0 .19-.05.24.24 0 0 0 .1-.12.68.68 0 0 0 .06-.23l.02-.38v-2.45c0-.1 0-.2-.02-.26a.33.33 0 0 0-.05-.16.19.19 0 0 0-.1-.08.75.75 0 0 0-.2-.04V35h.77l.89 3.05.86-3.05h.77v.12a.63.63 0 0 0-.18.04.22.22 0 0 0-.1.08.4.4 0 0 0-.05.16v3.21c.01.07.03.12.05.16.03.04.06.06.1.08l.18.04V39H23.8v-.11a.7.7 0 0 0 .19-.04.2.2 0 0 0 .1-.09c.03-.04.04-.1.05-.18l.02-.3v-2.74l-1 3.46ZM28.44 38.35l.01.27c.01.07.03.12.06.16.03.04.07.06.12.08a.9.9 0 0 0 .2.03V39h-1.15v-.11a.78.78 0 0 0 .18-.04.2.2 0 0 0 .1-.1c.03-.04.04-.1.05-.17V35.4a.34.34 0 0 0-.05-.15.2.2 0 0 0-.1-.09.84.84 0 0 0-.18-.04V35h1.08c.2 0 .38.04.54.13.17.08.3.2.38.33.1.18.15.4.15.64 0 .2-.03.38-.1.56a.99.99 0 0 1-.3.4.84.84 0 0 1-.3.15c-.11.03-.25.05-.41.05h-.14l-.14-.01v1.1Zm0-1.35a3.81 3.81 0 0 0 .23.02c.48 0 .71-.3.71-.89 0-.31-.06-.54-.2-.69-.12-.14-.33-.21-.6-.21-.06 0-.1.01-.11.04-.02.02-.03.08-.03.16V37ZM34.9 39h-.98v-.1H34l.06-.02.04-.02.03-.02a.22.22 0 0 0 .06-.15c0-.1-.03-.23-.08-.4l-.16-.57h-1l-.19.7a1.75 1.75 0 0 0-.03.23c0 .08.02.14.06.18.04.04.11.06.2.06V39h-.76v-.1c.04-.01.09-.02.12-.05a.32.32 0 0 0 .1-.13 16.5 16.5 0 0 0 .26-.81l.8-2.91h.08l.96 3.37a5.5 5.5 0 0 0 .16.42c.02.04.05.06.08.07.03.02.07.03.11.03V39Zm-1-1.52-.45-1.64-.44 1.64h.89ZM39.57 39l-1.73-3.27v2.33l.02.37c.01.1.03.17.06.23.02.05.06.1.11.12.05.02.1.04.18.04v.11h-.91v-.1a.73.73 0 0 0 .19-.05.23.23 0 0 0 .11-.12.66.66 0 0 0 .06-.23l.01-.37v-2.61a2.76 2.76 0 0 0-.18-.27.2.2 0 0 0-.09-.04.32.32 0 0 0-.1-.02V35h.66l1.5 2.88v-2c0-.37-.03-.59-.1-.67a.24.24 0 0 0-.1-.06.62.62 0 0 0-.17-.03V35h.92v.12a.52.52 0 0 0-.17.04.3.3 0 0 0-.09.06c-.07.08-.11.3-.11.65V39h-.07ZM45.28 35.12a.4.4 0 0 0-.15.04.43.43 0 0 0-.13.11l-.14.2-.16.33-.63 1.37v1.18c0 .11 0 .2.02.27 0 .07.03.12.05.16.04.04.08.07.14.08.06.02.13.03.22.03V39h-1.29v-.11c.1 0 .17-.02.23-.03.06-.02.1-.05.13-.1.03-.04.05-.1.05-.17l.02-.31v-1.05l-.55-1.16a16.45 16.45 0 0 0-.43-.8.37.37 0 0 0-.13-.12.26.26 0 0 0-.13-.03V35h1.18v.12h-.1c-.13.01-.2.07-.2.17 0 .08.03.17.08.28l.62 1.33.6-1.36a.51.51 0 0 0 .06-.22c0-.07-.02-.12-.06-.15-.04-.03-.12-.05-.23-.05V35h.93v.12Z" fill="#097B8C"/><path d="M4 24v3h47v-3h-2.02v-2H47.5v2H47v-1h-2v1.67h-1.43V23h-.9v-1.04l-.67.55v2.16h-.28V22H41v1.69h-.7v.57H40V18h-3.23l-.77.73V23h-1.03v-1h-.76v2h-.64v-2.44h-.93V24h-1.46v.67h-.83v-.98H29.3v.57h-.27V22h-.84v3h-.49v-1.66h-1.25V25h-.47v-2.49h-.67V25h-.51v-2h-.77v-.49H22.5l-.49.6V24h-.81v.67h-.79V23.1h-.87v-5.03L18.48 17v7.27H18V17l-1 1.08v6.19h-1.38v-1.52H14v.71h-1v.96h-1.14v-.83h-1.3v.83H10V24H9v.42h-.29V22h-.43v2.42h-.46V23h-1.5v1H4Z" fill="#64686B"/></svg>