<!-- by TradingView --><svg width="56" height="56" viewBox="0 0 56 56" xmlns="http://www.w3.org/2000/svg"><path fill="#F0F3FA" d="M0 0h56v56H0z"/><path d="M22.82 26c-1 0-1.82-.77-1.82-1.72 0-.62.35-1.2.92-1.5l10.37-5.56a1.88 1.88 0 0 1 2.48.66c.48.82.18 1.86-.68 2.33l-10.37 5.57a1.9 1.9 0 0 1-.9.22M22.82 39c-1 0-1.82-.77-1.82-1.72 0-.62.35-1.2.92-1.5l10.35-5.55c.87-.47 1.98-.2 2.49.63.5.82.2 1.87-.67 2.35l-.02.01-10.35 5.56a1.9 1.9 0 0 1-.9.22M22.87 33c-1.03 0-1.87-.8-1.87-1.8 0-.64.36-1.24.95-1.56l6.26-3.4c.9-.5 2.04-.19 2.55.67.5.86.19 1.95-.7 2.45l-6.27 3.4c-.28.16-.6.24-.92.24" fill="#8EC640"/><path d="M19.06 12h17.77l.36.64L46 28.22l-.37.64L36.82 44H19.07l-.36-.63L10 28.22 19.06 12Zm16.3 3H20.54L12.9 28.2 20.52 41h14.86l7.71-12.8L35.37 15Z" fill="#6D6E71"/></svg>