<!-- by TradingView --><svg width="56" height="56" viewBox="0 0 56 56" xmlns="http://www.w3.org/2000/svg"><path fill="#181B1E" d="M0 0h56v56H0z"/><path d="M9.33 24.3 6 24.62l.48 1.14 2.93.89L11 25l-1.67-.7ZM15.41 23.4l-3.4.32.55 1.09 2.93.89L17 24l-1.59-.6ZM25.42 27.35l-3.33.33.47 1.13 2.86.65L27 28l-1.58-.65ZM46 28.2l-2.97.33.47 1.13 2.85.65 1.65-.73v-.73l-2-.65ZM48.42 24.8l-4.14.41.47 1.13 1.6.73L50 25.45l-1.58-.65ZM26.42 22.7 18 23.73l.48 1.14 2.93.89 6.59-2.4-1.58-.64ZM45.47 21l-6.46.77 1 .85 2.94.89 4.43-1.81-1.91-.7Z" fill="#D48227"/><path d="m6 24.64 2 .68V35l-2-.68v-9.68ZM12 23.72l2 .61V34l-2-.62v-9.66ZM18 23.72l2 .6V34l-2-.62v-9.66ZM31 23l2 .32V33l-2-.62V23ZM39 21.77l2 .56V32l-2-.63v-9.6Z" fill="#D3521D"/><path d="M13.6 30.14a78.22 78.22 0 0 0-2.85-2.67l-.47 1.3 2.46 1.78.87-.4ZM46 26.5l2 .65v1.7l-2-.65v-1.7Z" fill="#D3521D"/><path d="m14 24.32 3-.32v9.68L14 34v-3.66l-1 .13v-.97l-1 .16v-.97l-1 .13v5.86L8 35v-9.68l3-.32v1.55l1-.13v.97l1-.16v.97l1-.13v-3.75ZM23 24l5-.65v2.43l-5 .65v2l4-.43v1.58L23 30v3.68L20 34v-9.68l3-.32Z" fill="#00F6F6"/><path d="m44.26 25.2 1.74.66v1.53l-1.74-.64V25.2Z" fill="#D3521D"/><path d="m47.28 21.66-4.39.45v.01l-1.89.2V32l3-.33 6-.67V25.45l-2 .16-2 .25v1.53l2-.24v1.72l-4 .38v-4.88l6-.7v-.73l-2.72-1.28Z" fill="#00F6F6"/><path d="m37.8 21.68-8.8.89.48 1.13 2.93.9L39 22l-1.2-.32Z" fill="#D48227"/><path d="m29 22.57 1 .43v2.43l-1-.5v-2.36Z" fill="#D3521D"/><path d="m39 22-9 1v2.43l3-.34V33l3-.33v-7.9l3-.34V22Z" fill="#00F6F6"/></svg>