<!-- by TradingView --><svg width="56" height="56" viewBox="0 0 56 56" xmlns="http://www.w3.org/2000/svg"><path fill="#F0F3FA" d="M0 0h56v56H0z"/><path d="M26.15 27.3 11.8 29.77a1.55 1.55 0 0 1-1.78-1.3 1.57 1.57 0 0 1 1.26-1.8l11.52-2.04-3.7-4a1.5 1.5 0 0 1 .04-2.06c.57-.58 1.5-.57 2.05.02l4.18 4.34 5.08-12a1.49 1.49 0 0 1 1.95-.81c.77.32 1.13 1.22.8 2L27.26 26.4c-.2.47-.61.81-1.1.9Zm3.7-.38 6.02-13.48a1.53 1.53 0 0 1 2.06-.77c.76.36 1.1 1.28.75 2.06L33.5 26H39.38c.7-.02 1.31.6 1.45 1.33.14.75-.32 1.48-1.02 1.68-.1.03-.2.04-.3.04l-5.7-.05 6.95 10.72c.44.7.25 1.63-.43 2.1-.7.46-1.63.26-2.08-.45l-8.4-12.67c-.28-.43-.21-1.31 0-1.78Zm5.63 16.67-7.83-12.72c-.25-.4-.8-.58-1.27-.61-.1-.01-.2 0-.3.02L12.27 33a3 3 0 0 1-.26.03l-.14.02c-.74.1-1.31.74-1.3 1.51 0 .76.53 1.38 1.24 1.5.15.03.3 0 .45-.03l11.82-2.57-2.34 5.6c-.32.75.03 1.62.77 1.93.73.31 1.56-.02 1.89-.75l2.21-5 6.28 10.03c.45.73 1.39.95 2.1.5.74-.46.96-1.44.5-2.18Z" fill="#052B49"/></svg>