<!-- by TradingView --><svg width="56" height="56" viewBox="0 0 56 56" xmlns="http://www.w3.org/2000/svg"><path fill="#F0F3FA" d="M0 0h56v56H0z"/><path d="M48 31c2.33 0 4-1.56 4-3.96S50.33 23 48 23s-4 1.63-4 4.04c0 2.4 1.67 3.96 4 3.96Zm0-1c-1.62 0-3-1.08-3-2.96A2.92 2.92 0 0 1 48 24c1.62 0 3 1.16 3 3.06 0 1.9-1.38 2.94-3 2.94ZM42 31h1v-8h-1v8ZM39.28 26.8c1.3-.16 1.77-.9 1.77-1.78 0-1.2-.9-2.02-2.38-2.02H35v8h3.93c1.47 0 2.57-.81 2.57-2.23 0-1.25-.91-1.82-2.22-1.94v-.03Zm-.84-2.8c.96 0 1.56.39 1.56 1.1 0 .73-.64 1.4-1.56 1.4H36V24h2.44ZM36 30v-2.5h2.64c1.1 0 1.86.37 1.86 1.2 0 .81-.75 1.3-1.8 1.3H36Z" fill="#2BB97F"/><path d="M30.47 23a3.5 3.5 0 0 0-2.48 1.05A3.5 3.5 0 0 0 22 26.58V31h2v-4.46c0-.82.66-1.54 1.52-1.54.87 0 1.48.72 1.48 1.54V31h2v-4.46A1.49 1.49 0 0 1 30.48 25c.8 0 1.63.75 1.52 1.57V31h2v-4.43a3.6 3.6 0 0 0-2.18-3.3 3.48 3.48 0 0 0-1.35-.27ZM17 35a4 4 0 0 1-4-4h2c0 1.16.84 2 2 2 1.16 0 2-.84 2-2h2a4 4 0 0 1-4 4ZM12 27.05C12 24.86 10.2 23 8 23c-1.06 0-2.08.43-2.83 1.19A4.07 4.07 0 0 0 4 27.05V31h2v-4.07c-.05-1.07.92-2.01 2-2.01s2.05.94 2 2.01V31h2v-3.95Z" fill="#0A6160"/><path d="M19.5 23h-2.51a3.98 3.98 0 0 0-3.91 4.78 4 4 0 0 0 5.44 2.92 4 4 0 0 0 1.92-5.7h1.06v-2h-2Zm-.5 4a2 2 0 1 1-4 0 2 2 0 0 1 4 0Z" fill="#0A6160"/></svg>