<!-- by TradingView --><svg xmlns="http://www.w3.org/2000/svg" width="56" height="56" viewBox="0 0 56 56"><path fill="#F0F3FA" d="M0 0h56v56H0z"/><path fill-rule="evenodd" d="M34.78 33.35 23.29 18.41a1 1 0 0 0-1.58 0L10.22 33.35c-.51.67-.04 1.64.8 1.64h22.96c.84 0 1.31-.97.8-1.64ZM24.09 17.79a2 2 0 0 0-3.18 0L9.43 32.73A2.03 2.03 0 0 0 11.02 36h22.96a2.03 2.03 0 0 0 1.6-3.27L24.08 17.79Z" fill="#AC9F83"/><path fill-rule="evenodd" d="m43.8 33.36-13-17.93a.99.99 0 0 0-1.6 0l-13 17.93c-.49.67-.02 1.62.8 1.62h26c.82 0 1.29-.95.8-1.62ZM31.6 14.82a1.97 1.97 0 0 0-3.2 0l-13 17.94C14.41 34.1 15.35 36 17 36h26c1.64 0 2.58-1.9 1.6-3.24l-13-17.94Z" fill="#37494F"/></svg>