<!-- by TradingView --><svg width="56" height="56" viewBox="0 0 56 56" xmlns="http://www.w3.org/2000/svg"><path fill="#F0F3FA" d="M0 0h56v56H0z"/><circle cx="28" cy="28" r="17" fill="#02679A"/><circle cx="28" cy="28" r="13.77"/><path opacity=".5" d="M40.37 38.28a16.05 16.05 0 0 1-24.59.18l1.5-1.45a13.97 13.97 0 0 0 21.7-.32l1.4 1.59Zm2.76-4.81a16.06 16.06 0 0 0 .08-10.72l-2.02.55a13.98 13.98 0 0 1-.07 9.58l2.01.59Zm-3.77-13.65a13.98 13.98 0 0 0-23.05.47c-.61-.48-1.25-.97-1.66-1.27a16.07 16.07 0 0 1 26.41-.4l-1.7 1.2Zm-26.2 1.98a16.04 16.04 0 0 0 .72 13.91l1.78-1.1a13.94 13.94 0 0 1-.53-12.13l-1.97-.68Z" fill="#fff"/><path d="M16.76 23v.54h.89l.68.77v7.28c0 .5-.41.9-.92.9h-.65V33h3.78v-.5h-.58c-.5 0-.96-.41-.96-.91v-6.5L25.46 33H26v-8.55c0-.5.42-.9.92-.9h.41V23H23.8v.54h.58c.5 0 .91.41.91.91v6.15l-6.3-7.6h-2.22Zm10.79 0v.56h.28c.5 0 .9.41.9.92v7.08a.9.9 0 0 1-.9.92h-.28V33h3.91v-.52h-.55a.93.93 0 0 1-.91-.92V28.6h2.08c.57 0 .92.48.92 1.08v.16h.45v-3.05H33v.15c0 .6-.35 1.06-.92 1.06H30v-4.44h2.53c.9 0 1.16 1.21 1.18 1.82l.52-.19-.2-2.19h-6.48Zm7.2.63V23h3.9v.63h-.43c-.5 0-.9.4-.9.9v7.02c0 .5.4.9.9.9h.44V33h-3.91v-.54h.43c.5 0 .82-.41.82-.91v-7.01c0-.5-.33-.91-.82-.91h-.43Z" fill="#fff"/></svg>