<!-- by TradingView --><svg width="56" height="56" fill="none" xmlns="http://www.w3.org/2000/svg"><path fill="#F0F3FA" d="M0 0h56v56H0z"/><path d="M28.002 12.004c-8.836 0-15.999 7.162-15.999 15.998 0 7.479 5.063 13.759 11.997 15.511V32.01l7-7.963v-11.75a15.42 15.42 0 0 0-2.998-.292Z" fill="#EE3342"/><path d="M28.002 44C36.837 44 44 36.837 44 28.002c0-7.448-5.109-13.708-12-15.49v11.534l-7 7.963v11.714c.965.182 1.984.277 3.002.277Z" fill="#007DBC"/><path fill="#F0F3FA" d="M24 18h8v20h-8z"/><path fill="#F0F3FA" d="M18 32v-8h20v8z"/><path fill-rule="evenodd" clip-rule="evenodd" d="M28 10.5c-9.665 0-17.5 7.835-17.5 17.5S18.335 45.5 28 45.5 45.5 37.665 45.5 28 37.665 10.5 28 10.5ZM9.5 28C9.5 17.783 17.783 9.5 28 9.5S46.5 17.783 46.5 28 38.217 46.5 28 46.5 9.5 38.217 9.5 28Z" fill="#007DBC"/></svg>