<!-- by TradingView --><svg width="56" height="56" viewBox="0 0 56 56" xmlns="http://www.w3.org/2000/svg"><path fill="url(#a2oenhsaq)" d="M0 0h56v56H0z"/><path fill-rule="evenodd" d="m23.48 20.6-2.77 1.98L27.9 9v3l-4.43 8.6Zm15.6 9.94L44 40.78l-2.26-1.47-2.23-4.63-.42-4.14Zm-22.17 0L12 40.78l2.26-1.47 2.23-4.63.42-4.14Zm-2.6 8.96h27.28l2.2 1.5H12.23l2.08-1.5Zm21.04-16.92-2.78-1.97-4.43-8.6V9l7.2 13.58ZM29.5 29v-5h1.55l.64 2.66.86-2.66H34v5h-1v-3.28L32.03 29h-.7l-.83-3.28V29h-1Zm4.5 0 1.28-5h1l1.2 4.92 1.2-2.6L37.62 24h1.07l.52 1.14.52-1.14h1.07l-1.04 2.32L41 29h-1.13l-.65-1.46-.65 1.46H36.5l-.24-1h-1.18l-.23 1H34Zm-14.62-5h-1v5h1v-5ZM15 24h1.05l.7 1.72.64-1.72h1l-1.23 2.85V29h-.9v-2.15L15 24Zm9 0h-1v5h2.47v-1.05H24V24Zm-4 5v-5h2.7v1.05H21v.93h1.19v1.05H21v.92h1.7V29H20Zm7.14-5H26v5h1.14c1.03 0 1.86-.8 1.86-1.78v-1.44c0-.98-.83-1.78-1.86-1.78Zm.24 1H27v3h.38c.34 0 .62-.48.62-1.07v-.86c0-.6-.28-1.07-.62-1.07Zm8.7 2.23-.42-1.7-.4 1.7h.81Zm-10.36 6.74H24V31h1.72v.6h-1.07v.6h.78v.63h-.78v.58h1.07v.56Zm2.28 0V31h1.72v.6h-1.07v.6h.78v.63h-.78v1.14H28ZM25.86 31h1.84v.62H27v2.35h-.6v-2.35h-.54V31Zm4.02 2.32h-.53c0 .4.25.68.8.68.57 0 .85-.31.85-.68 0-.37-.54-.64-.78-.73-.24-.1-.28-.39-.06-.39.17 0 .23.14.24.22h.56c0-.52-.55-.68-.8-.68s-.7.12-.7.68c0 .53.36.64.67.73l.03.01c.31.1.28.39 0 .39-.23 0-.28-.15-.28-.23Z" fill="#fff"/><defs><linearGradient id="a2oenhsaq" x1="10.42" y1="9.71" x2="68.15" y2="76.02" gradientUnits="userSpaceOnUse"><stop stop-color="#1A1E21"/><stop offset="1" stop-color="#06060A"/></linearGradient></defs></svg>