<!-- by TradingView --><svg xmlns="http://www.w3.org/2000/svg" width="56" height="56" viewBox="0 0 56 56"><path fill="#213864" d="M0 0h56v56H0z"/><path fill-rule="evenodd" d="M5.15 23a.16.16 0 0 0-.15.16v9.68c0 .09.07.16.15.16h1.7c.08 0 .15-.07.15-.16v-9.68a.16.16 0 0 0-.15-.16h-1.7zm3.85.1v9.8c0 .06.04.1.1.1h1.8a.1.1 0 0 0 .1-.1V27l4.97 5.96a.1.1 0 0 0 .08.04h.85a.1.1 0 0 0 .1-.1v-9.8a.1.1 0 0 0-.1-.1h-1.8a.1.1 0 0 0-.1.1V29l-4.97-5.96a.1.1 0 0 0-.08-.04H9.1a.1.1 0 0 0-.1.1zm9.03.34l4.63 9.38c.05.11.17.18.3.18h.01c.13 0 .25-.07.3-.18l4.7-9.38c.1-.2-.06-.44-.3-.44h-1.53a.33.33 0 0 0-.3.19l-2.85 6.03-2.84-6.03a.33.33 0 0 0-.3-.19h-1.52c-.24 0-.4.23-.3.44zm14 0l4.63 9.38c.05.11.17.18.3.18h.01c.13 0 .25-.07.3-.18l4.7-9.38c.1-.2-.06-.44-.3-.44h-1.53a.33.33 0 0 0-.3.19l-2.85 6.03-2.84-6.03a.33.33 0 0 0-.3-.19h-1.52c-.24 0-.4.23-.3.44zM29 23.16c0-.09.07-.16.15-.16h1.7c.08 0 .15.07.15.16v9.68c0 .09-.07.16-.15.16h-1.7a.16.16 0 0 1-.15-.16v-9.68zM52 28a5 5 0 1 1-10 0 5 5 0 0 1 10 0zm-2 0a3 3 0 1 1-6 0 3 3 0 0 1 6 0z" fill="#fff"/></svg>