<!-- by TradingView --><svg width="56" height="56" viewBox="0 0 56 56" xmlns="http://www.w3.org/2000/svg"><path fill="#F0F3FA" d="M0 0h56v56H0z"/><path d="M23 44.26A17.04 17.04 0 0 1 11.47 32c2.5.02 7.36.4 9.9 1.8 1.81.95 3.63 2.08 3.63 5.48 0 2.53-.41 4.09-2 4.98ZM44.53 32A17.04 17.04 0 0 1 33 44.26c-1.59-.9-2-2.45-2-4.98 0-3.4 1.82-4.53 3.63-5.48 2.54-1.4 7.4-1.78 9.9-1.8Z" fill="#B91F45"/><path d="M18.7 32.33c-2.71-.65-5.6-.92-7.44-.97v-.25c1.85.05 4.77.33 7.5.98 1.36.33 2.68.75 3.8 1.29a6.71 6.71 0 0 1 2.63 2l.16.24c.19.27.4.56.57 1.03.22.6.39 1.5.39 3.02a7.8 7.8 0 0 1-.57 3.39A3.1 3.1 0 0 1 24 44.64l-.1-.23a2.86 2.86 0 0 0 1.62-1.46c.36-.73.54-1.78.54-3.28 0-1.5-.16-2.37-.37-2.94-.16-.43-.35-.7-.53-.95l-.17-.26a6.48 6.48 0 0 0-2.53-1.92 19.1 19.1 0 0 0-3.76-1.27ZM36.91 32.33c2.71-.65 5.6-.92 7.44-.97v-.25a39.1 39.1 0 0 0-7.5.98c-1.36.33-2.68.75-3.8 1.29a6.71 6.71 0 0 0-2.63 2l-.16.24c-.19.27-.4.56-.57 1.03a8.8 8.8 0 0 0-.39 3.02c0 1.52.2 2.6.57 3.39.4.8.97 1.27 1.74 1.58l.1-.23a2.86 2.86 0 0 1-1.62-1.46 7.58 7.58 0 0 1-.54-3.28c0-1.5.16-2.37.37-2.94.16-.43.35-.7.53-.95l.17-.26a6.48 6.48 0 0 1 2.53-1.92c1.1-.53 2.4-.95 3.76-1.27Z" fill="#293D82"/><path d="M25.08 34.5a5.02 5.02 0 0 1-2.41-2.48l.23-.09c.2.52.95 1.73 2.29 2.35.86.4 1.46.76 1.85 1.23.39.47.55 1.04.55 1.83l.01.82c.05 1.59.12 4.01-.89 6.84l-.23-.08c1-2.78.93-5.15.88-6.74l-.02-.84c0-.75-.15-1.26-.49-1.68-.35-.42-.9-.76-1.77-1.16ZM29.77 34.94a6.2 6.2 0 0 0 2.98-2.65l.22.1c-.29.61-1.3 2-3.1 2.77-.4.19-.74.4-1 .74a2.3 2.3 0 0 0-.4 1.44v2.82c0 .51.07 1.36.23 2.22.16.87.4 1.93.76 2.49l-.21.13c-.38-.6-.63-1.7-.79-2.58-.16-.87-.23-1.73-.24-2.26v-2.82c0-.7.17-1.2.46-1.59.29-.38.67-.62 1.08-.81Z" fill="#293D82"/><path fill-rule="evenodd" d="M27.56 11c.04 4.2.15 10.97.33 13.12.18-2.15.29-8.92.33-13.12.9.01 1.77.1 2.63.24-.36.67-.7 1.45-.82 2.13-.09.5.02.93.19 1.26.2.4.74.5 1.08.18.27-.24.53-.6.62-1.12a7.7 7.7 0 0 0 0-2.24c.62.15 1.24.33 1.84.55a289.34 289.34 0 0 0-3.75 12.3c.83-1.93 2.99-8.08 4.36-12.07.75.3 1.47.66 2.17 1.06-.48.5-.94 1.07-1.24 1.62-.27.5-.33 1-.29 1.4.05.51.52.83.95.63.34-.15.71-.43.98-.93.3-.56.55-1.29.72-2 .58.4 1.13.83 1.66 1.3-2.63 3.3-6.68 8.44-7.87 10.19 1.46-1.52 5.65-6.5 8.35-9.75a17.1 17.1 0 0 1 1.52 1.69c-.56.27-1.1.59-1.53.94a2.3 2.3 0 0 0-.8 1.23c-.12.51.26.98.79.96.41-.02.9-.16 1.37-.53.4-.33.8-.77 1.15-1.24.33.5.63 1.03.9 1.57-3.62 2.14-8.7 5.18-10.34 6.3 1.8-.83 6.95-3.67 10.61-5.73.32.7.6 1.43.82 2.18-.4.05-.8.13-1.13.24-.5.15-.84.42-1.04.69-.26.33-.07.77.38.88.36.09.82.11 1.33-.04.26-.09.54-.2.82-.33.1.48.18.98.24 1.48-4.07.9-9.53 2.14-11.37 2.7 1.9-.24 7.35-1.28 11.43-2.08.03.44.05.89.05 1.34v.04a8 8 0 0 0-1.35-.02c-.61.06-1.07.29-1.38.54-.4.33-.34.89.12 1.14.37.2.86.34 1.47.29.33-.03.69-.1 1.04-.18-.03.3-.07.61-.12.9L28.12 33.5l-16.9-2.7-.13-.98c.36.09.72.15 1.05.18.6.05 1.1-.1 1.47-.3.46-.24.52-.8.12-1.13a2.51 2.51 0 0 0-1.38-.54 8 8 0 0 0-1.35.02V28c0-.44.02-.87.05-1.3 4.05.8 9.34 1.8 11.2 2.02a252.4 252.4 0 0 0-11.14-2.64c.06-.52.14-1.03.24-1.53.28.13.56.24.82.33.5.15.97.13 1.33.04.45-.11.64-.55.38-.88-.2-.27-.53-.54-1.04-.7-.34-.1-.72-.18-1.13-.23.22-.71.47-1.4.77-2.07a262.6 262.6 0 0 0 10.43 5.63c-1.61-1.12-6.55-4.07-10.16-6.2.26-.52.54-1.01.84-1.5.34.51.72.99 1.1 1.35.49.47 1 .64 1.45.67.56.03.97-.56.83-1.2a3 3 0 0 0-.84-1.55c-.37-.36-.82-.69-1.3-.99.39-.48.81-.94 1.26-1.38 2.7 3.24 6.8 8.12 8.24 9.62a285.47 285.47 0 0 0-7.77-10.07c.56-.51 1.16-.99 1.79-1.42.18.7.42 1.43.72 2 .27.5.64.78.98.93.43.2.9-.11.94-.62.04-.4-.02-.9-.29-1.4a8.13 8.13 0 0 0-1.24-1.62c.67-.39 1.36-.73 2.08-1.03a287.84 287.84 0 0 0 4.35 12.04 288.5 288.5 0 0 0-3.74-12.27c.63-.24 1.27-.43 1.94-.59a7.7 7.7 0 0 0-.01 2.24c.1.51.35.88.62 1.12a.7.7 0 0 0 1.08-.18c.17-.33.28-.75.19-1.26a7.83 7.83 0 0 0-.82-2.13c.79-.13 1.6-.21 2.41-.23Zm-2.18 5a7.1 7.1 0 0 1 1.59 2.7c.09.4-.02.74-.19 1-.2.33-.74.4-1.08.15-.27-.2-.53-.49-.62-.9-.22-.94.05-2.27.3-2.95Zm1.6 6.35a3.56 3.56 0 0 0-.8-1.35c-.12.34-.25 1-.14 1.48.05.2.17.35.3.45.18.12.45.08.55-.08.09-.13.14-.3.1-.5ZM30.62 16a7.1 7.1 0 0 0-1.59 2.7c-.09.4.02.74.19 1 .2.33.74.4 1.08.15.27-.2.53-.49.62-.9a6.08 6.08 0 0 0-.3-2.95Zm-1.6 6.35c.1-.47.52-1.06.8-1.35.12.34.25 1 .14 1.48a.77.77 0 0 1-.31.45c-.17.12-.44.08-.54-.08a.64.64 0 0 1-.1-.5Zm-5.32-2.01A9.42 9.42 0 0 0 21 18c.08.8.44 2.28 1.07 3.2a2 2 0 0 0 .98.75c.43.16.9-.09.94-.5.04-.32-.02-.71-.29-1.11ZM24 22a4 4 0 0 1 .9 1.17c.09.2.1.4.1.56-.02.2-.17.32-.31.25a.78.78 0 0 1-.33-.38A5.49 5.49 0 0 1 24 22Zm-6-1c.64.18 1.8.7 2.48 1.35.3.28.44.63.5.93.09.38-.16.74-.5.72a1.35 1.35 0 0 1-.87-.4A8.49 8.49 0 0 1 18 21Zm5.65 3.9A4.5 4.5 0 0 0 22 24c.18.47.62 1.3 1.08 1.73.2.19.4.26.58.27.22.01.38-.22.33-.48a1.2 1.2 0 0 0-.34-.62Zm-5.57.46a7.68 7.68 0 0 0-3.08-.33c.51.57 1.6 1.5 2.54 1.86.4.15.77.13 1.06.04a.59.59 0 0 0 .3-.88 1.68 1.68 0 0 0-.82-.7ZM20 27.02a3.85 3.85 0 0 1 1.54.16c.2.08.33.21.41.35a.3.3 0 0 1-.15.44.8.8 0 0 1-.53-.03 4.06 4.06 0 0 1-1.27-.92Zm-5 2.3c.5-.17 1.47-.37 2.18-.3.3.02.53.13.69.26.2.16.17.44-.07.57-.18.1-.43.17-.73.14a6.19 6.19 0 0 1-2.07-.67Zm6.17-.3c-.7-.07-1.68.13-2.17.3a6.2 6.2 0 0 0 2.07.67c.3.03.55-.04.74-.14.23-.13.26-.4.06-.57a1.26 1.26 0 0 0-.7-.27Zm17.65 0c.71-.07 1.69.13 2.18.3-.45.25-1.36.61-2.07.67a1.3 1.3 0 0 1-.74-.14c-.23-.13-.26-.4-.06-.57.16-.13.39-.24.7-.27Zm-1.82.3a6.36 6.36 0 0 0-2.17-.3c-.31.02-.54.13-.7.26-.2.16-.17.44.06.57.19.1.44.17.74.14a6.2 6.2 0 0 0 2.07-.67Zm4-4.29a7.68 7.68 0 0 0-3.08.33c-.4.15-.66.42-.83.69-.2.33-.05.77.31.88.29.09.66.11 1.06-.04A8.07 8.07 0 0 0 41 25.03Zm-6.54 2.15c.47-.18 1.17-.2 1.54-.16-.26.28-.8.74-1.27.92a.8.8 0 0 1-.53.03.3.3 0 0 1-.15-.44.85.85 0 0 1 .41-.35Zm1.06-4.83A6.68 6.68 0 0 1 38 21c-.27.7-.93 1.94-1.61 2.6-.3.28-.6.38-.87.4-.34.02-.59-.34-.5-.72.06-.3.2-.65.5-.93ZM34 24a4.5 4.5 0 0 0-1.65.9c-.2.2-.3.42-.34.62-.05.26.1.5.33.48a.9.9 0 0 0 .58-.27A5.7 5.7 0 0 0 34 24Zm1-6a9.42 9.42 0 0 0-2.7 2.34c-.27.4-.33.8-.29 1.11.05.41.5.66.94.5a2 2 0 0 0 .98-.75c.63-.92 1-2.4 1.07-3.2Zm-3.84 5.26c.22-.47.62-1 .84-1.26a8.16 8.16 0 0 1-.5 1.54c-.1.2-.21.34-.3.42-.12.1-.22.02-.2-.17.02-.14.06-.33.16-.53Z" fill="#293D82"/></svg>