<!-- by TradingView --><svg width="56" height="56" viewBox="0 0 56 56" xmlns="http://www.w3.org/2000/svg"><path fill="#F0F3FA" d="M0 0h56v56H0z"/><path d="m36.6 25.06.63.62c-.41.29-.72.39-1.12.39-.18 0-.33-.02-.45-.08.27.32.34.69.34 1.1 0 1.27-.97 2.07-2.16 2.07-.9.31-1.2.53-1.2.76 0 .2.2.31.53.31h1.06c1.1 0 2.33.43 2.33 1.74 0 1.4-1.03 2.03-2.64 2.03-2.07 0-2.87-.72-2.87-1.64 0-.23.03-.43.13-.7l1.1-.09c-.1.14-.2.38-.2.6 0 .32.15.6.4.75.31.18.8.3 1.34.3 1.02 0 1.6-.32 1.6-1.13 0-.94-.92-1.09-1.66-1.09h-1.03c-.79 0-1.25-.26-1.25-.84 0-.52.3-.83 1.2-1.1-.89-.28-1.49-1.01-1.49-1.88 0-1.3 1-2.18 2.45-2.18 1.01 0 1.21.37 2.02.37.37-.03.63-.1.93-.31Zm-2.97.78c-.83 0-1.25.41-1.25 1.3 0 .84.43 1.27 1.28 1.27.85 0 1.2-.42 1.2-1.3 0-.87-.35-1.27-1.23-1.27Z" fill="#41273B"/><path d="m41.93 29.7.41.59c-.6.46-1.43.71-2.3.71-1.9 0-3.04-1.15-3.04-3.05C37 26.3 38.17 25 39.87 25c1.83 0 2.63 1.3 2.63 3h-4.26c0 .48 0 1.16.31 1.55.4.5 1.02.7 1.7.7.68 0 1.2-.18 1.68-.54Zm-3.7-2.23h3.14c-.01-.63-.1-1-.31-1.28-.24-.3-.72-.5-1.24-.5-.97 0-1.52.6-1.58 1.78ZM42.72 25.2l1.07-.2s.24.44.24.92c.71-.62 1.42-.91 2.13-.91.9 0 1.84.58 1.84 1.54V31h-1v-3.97c0-.7-.27-1.23-1.06-1.23a3.5 3.5 0 0 0-1.94.82V31h-1v-4.52c-.01-.84-.28-1.28-.28-1.28Z" fill="#41273B"/><path d="M13.9 19 8 24.95V36h16.1l5.9-5.95V19H13.9Z" fill="url(#aj0bcklgc)"/><path d="M17.71 25.57c-.94 0-1.48.68-1.53 2.02h3.04c-.01-.7-.1-1.13-.3-1.44-.24-.35-.7-.58-1.2-.58Z" fill="url(#bj0bcklgc)"/><path d="M12.2 25.01c-.75 0-1.47.3-2.2.9 0-.47-.24-.91-.24-.91l-1.09.2s.33.45.33 1.28V31h1v-4.36a3.44 3.44 0 0 1 1.95-.84c.8 0 1.05.51 1.05 1.23V31h1v-4.45c0-.99-.9-1.54-1.8-1.54ZM17.76 25c-.8 0-1.45.25-1.98.8-.56.58-.8 1.19-.8 2.15 0 1.9 1.1 3.05 2.94 3.05.85 0 1.65-.25 2.24-.71l-.4-.58c-.47.36-.99.54-1.62.54-.64 0-1.28-.2-1.65-.7-.23-.3-.3-.72-.3-1.26v-.14h4.13v-.11c-.02-1.37-.18-1.92-.75-2.42a2.67 2.67 0 0 0-1.81-.62Zm-1.58 2.49c.05-1.19.59-1.79 1.53-1.79.5 0 .97.2 1.2.51.2.28.3.65.3 1.28h-3.03ZM23.37 27l-1.32-2h-1.27l2.05 2.68L20.36 31h1.22l1.8-2.56 1.8 2.56h1.25l-2.54-3.32L25.87 25h-1.21l-1.29 2Z" fill="#fff"/><path d="M28 30.17V26h1.75v-1H28c0-.9.22-2 .22-2l-1.1.24S27 24.34 27 25h-.7l-.5 1H27v4.45c0 .7.2 1.13.65 1.36.25.12.52.19.88.19h.04l.87-.9c-.15.05-.3.08-.54.08-.66 0-.9-.26-.9-1Z" fill="#fff"/><defs><linearGradient id="aj0bcklgc" x1="8" y1="27.5" x2="30.01" y2="27.5" gradientUnits="userSpaceOnUse"><stop stop-color="#DC6B2F"/><stop offset=".39" stop-color="#C45433"/><stop offset="1" stop-color="#A4343A"/></linearGradient><linearGradient id="bj0bcklgc" x1="8.45" y1="26.58" x2="30.4" y2="26.58" gradientUnits="userSpaceOnUse"><stop stop-color="#DC6B2F"/><stop offset=".39" stop-color="#C45433"/><stop offset="1" stop-color="#A4343A"/></linearGradient></defs></svg>