<!-- by TradingView --><svg width="56" height="56" viewBox="0 0 56 56" xmlns="http://www.w3.org/2000/svg"><path fill="#F0F3FA" d="M0 0h56v56H0z"/><path d="M20.88 12c.81 0 1.48.4 1.75 1.16l4.8 14c.22.62.08 1.43-.16 2.12a7089.8 7089.8 0 0 1-4.56 13.3c-.49 1.42-1.37 1.43-2.75 1.42h-5.92l-.02-.02-.01-.01a.04.04 0 0 1 0-.03l5-14.67c.3-.83.36-1.57.1-2.33A10004.15 10004.15 0 0 1 14.02 12H20.88ZM29.08 44c1.71-1.43 2.8-4.15 3.45-6.13l.06-.22c1.65-4.68 2.67-7.66 3.08-8.95.2-.64.01-1.43-.24-2.15A76301.92 76301.92 0 0 1 30.47 12a.03.03 0 0 1 .02 0l6.8-.01c.82 0 1.52.35 1.79 1.12.66 1.85 2.23 6.43 4.7 13.74.21.6.3 1.38.13 1.9a6262.7 6262.7 0 0 1-4.69 13.67c-.35 1.03-.82 1.56-1.94 1.57h-8.2Z" fill="#38AEC5"/><path d="m32.59 37.65-.06.22c-.66 1.98-1.7 4.7-3.4 6.13-.8 0-1.51 0-1.86-.66l-1.52-2.88a.15.15 0 0 1 0-.12l2.79-8.12c.24-.71.94-.58 1.24.01l2.8 5.42Z" fill="#333"/></svg>