<!-- by TradingView --><svg xmlns="http://www.w3.org/2000/svg" width="56" height="56" viewBox="0 0 56 56"><path fill="url(#abkflcatt)" d="M0 0h56v56H0z"/><path d="M7.47 24.43c1.48 0 2.87 1.23 2.87 3.23 0 2.58-1.69 2.9-2.32 2.9-1.73 0-3.02-1.48-3.02-3.34 0-2.22 1.43-2.8 2.47-2.8Zm.26-.43C5.03 24 4 25.97 4 27.5 4 29.08 5.05 31 7.64 31c2.3 0 3.74-1.62 3.74-3.66 0-2.05-1.4-3.34-3.65-3.34Zm4.16 1.76c-.1-.29-.16-.47-.27-.54a.63.63 0 0 0-.3-.06c-.09 0-.13-.03-.13-.09 0-.05.06-.07.18-.07h1.81c.12 0 .17.02.17.07 0 .06-.06.09-.14.09a.5.5 0 0 0-.2.03c-.07.03-.08.08-.08.16 0 .1.07.34.16.67l.01.04c.14.52.85 2.88.96 3.23h.03l1.5-3.99c.08-.22.16-.28.23-.28.09 0 .16.12.26.37l1.56 3.85h.03c.1-.28.35-1.15.6-2l.42-1.41c.06-.19.08-.34.08-.45 0-.13-.07-.22-.38-.22-.07 0-.13-.04-.13-.09 0-.05.06-.07.18-.07h1.49c.09 0 .14.02.14.06 0 .06-.03.1-.1.1a1 1 0 0 0-.28.03c-.17.07-.26.32-.4.71l-.04.1c-.3.83-.9 2.68-1.32 3.95l-.23.68c-.08.28-.13.37-.24.37-.11 0-.16-.1-.28-.38l-1.6-3.85h-.01l-.29.73c-.37.97-.98 2.57-1.22 3.09-.14.32-.18.41-.3.41-.1 0-.14-.08-.21-.28l-1.66-4.96ZM22 28.68c0 1.02.05 1.52.22 1.67.13.12.43.17 1.04.17.42 0 .72-.01.92-.23.1-.1.17-.32.2-.47 0-.08.02-.12.08-.12.05 0 .07.08.07.17 0 .1-.05.68-.11.92-.06.17-.1.21-.5.21h-3.44c-.1 0-.15-.05-.15-.1 0-.04.03-.09.12-.09.12 0 .21 0 .28-.02.16-.04.2-.19.23-.42.04-.34.04-.96.04-1.69v-1.4l-.01-1.67c-.02-.27-.09-.35-.34-.42a1.01 1.01 0 0 0-.26-.03c-.09 0-.13-.03-.13-.09 0-.05.05-.07.17-.07h2.2c.12 0 .18.02.18.07 0 .06-.05.09-.15.09-.09 0-.21 0-.3.03-.21.03-.34.14-.36.42v3.07Zm6.5-1.26c0 .08.1.12.16.15l.03.01c.2.07.46.1.69.1.36 0 .48-.04.64-.16.27-.2.53-.63.53-1.39 0-1.32-.85-1.7-1.38-1.7-.23 0-.39.01-.48.04-.06.02-.19.06-.19.13v2.82Zm-1-.73v-1.97c-.02-.31-.06-.46-.36-.53a1.82 1.82 0 0 0-.35-.02c-.1 0-.16-.02-.16-.09 0-.06.07-.08.2-.08h2.51c.57 0 1.18.06 1.66.4.26.17.62.65.62 1.27 0 .68-.28 1.31-1.2 2.07l.32.41c.66.85 1.19 1.53 1.65 2.03.5.52.86.6 1 .62l.26.03c.07 0 .1.03.1.08 0 .07-.05.09-.16.09h-.86c-.5 0-.73-.05-.97-.18a4.43 4.43 0 0 1-1.23-1.36 51.09 51.09 0 0 1-.9-1.27c-.04-.06-.1-.07-.16-.07l-.9-.02c-.04 0-.07.02-.07.08v.13c0 .86 0 1.59.04 1.98.03.27.09.47.36.5l.44.04c.07 0 .1.03.1.08 0 .06-.06.09-.17.09h-2.32c-.12 0-.18-.03-.18-.1 0-.04.03-.07.14-.07.14 0 .25-.02.33-.03.18-.04.22-.25.26-.51V26.69Zm8.55-1.28c1.27 0 2.39 1.02 2.39 2.71 0 2.18-1.36 2.47-1.91 2.47-1.48 0-2.53-1.25-2.53-2.82 0-1.9 1.18-2.36 2.05-2.36Zm.23-.41C33.91 25 33 26.7 33 28c0 1.36.93 3 3.2 3 2.03 0 3.29-1.38 3.29-3.13 0-1.76-1.23-2.87-3.2-2.87Zm4.68 5.17a2.88 2.88 0 0 1-.96-2.26c0-.52.17-1.42.9-2.1.56-.5 1.29-.81 2.43-.81a7.65 7.65 0 0 1 1.45.14l.44.07c.08 0 .1.04.1.09v.11a7.27 7.27 0 0 0-.04.86l-.01.28c-.01.1-.04.19-.1.19-.07 0-.09-.06-.09-.16 0-.25-.1-.52-.3-.72-.25-.26-.77-.45-1.47-.45-.68 0-1.1.13-1.45.44-.57.5-.86 1.24-.86 1.99a2.63 2.63 0 0 0 2.54 2.68c.68 0 1.06-.05 1.36-.4.13-.16.24-.37.26-.52.02-.11.04-.15.1-.15.05 0 .09.07.09.14 0 .09-.1.75-.17 1.01-.03.14-.07.17-.2.23-.3.12-.89.17-1.39.17a3.86 3.86 0 0 1-2.63-.83Zm7.34-3.37c-.34.34-.68.68-.8.82v-2c.02-.28.11-.4.32-.43h.02a.91.91 0 0 1 .2-.03c.06 0 .1-.03.1-.09 0-.05-.05-.07-.16-.07h-2.06c-.11 0-.18.02-.18.07 0 .06.06.09.14.09.1 0 .24 0 .3.03.25.07.3.16.32.43v3.7c0 .45.01.83-.01 1.06-.03.24-.07.39-.23.42-.07.02-.16.03-.27.03-.1 0-.12.05-.12.09 0 .05.05.08.15.08h2.14c.08 0 .14-.03.14-.08 0-.04-.04-.09-.1-.09-.1 0-.27 0-.38-.03-.19-.03-.3-.2-.32-.42v-2.41c.17.25 1.78 2.19 2.11 2.5.34.3.59.5 1 .53h1.2c.15 0 .19-.03.19-.08s-.04-.09-.1-.09c-.1 0-.25 0-.48-.1-.33-.15-.6-.4-.86-.67l-.18-.18c-.3-.3-1.81-1.98-2.08-2.35a47.2 47.2 0 0 1 1.62-1.69c.32-.33.57-.5.81-.59.14-.05.34-.1.45-.1.07 0 .11-.02.11-.07 0-.06-.05-.08-.13-.08h-1.7c-.07 0-.12.02-.12.07s.04.07.1.09c.08.02.11.07.11.16 0 .13-.14.3-.33.53l-.05.06c-.12.14-.5.52-.87.9Z" fill="#FEFEFE"/><defs><linearGradient id="abkflcatt" x1="10.42" y1="9.71" x2="68.15" y2="76.02" gradientUnits="userSpaceOnUse"><stop stop-color="#1A1E21"/><stop offset="1" stop-color="#06060A"/></linearGradient></defs></svg>