<!-- by TradingView --><svg width="56" height="56" viewBox="0 0 56 56" xmlns="http://www.w3.org/2000/svg"><path fill="#B59A64" d="M0 0h56v56H0z"/><path d="m26.1 22.85.65-.87-1.46-.48 6.47-9.03a.98.98 0 0 1 1.2-.4l.81.32-6.05 8.4 1.2.4s5.1-7.05 5.58-7.69c.49-.63.8-.55 1.05-.47.24.08.89.23.89.23s-6.06 8.16-6.54 8.88c-.44.65-.82.5-1.06.42l-.07-.03c-.08 0-.4-.08-.65-.15l-.4.55c-.16.16-.4.32-.81.16l-.8-.24Zm-3.71-8.87 3.87 4.6-.8 1.18-5.41-6.58 3.3-.87c.77-.22 1.25.26 1.36.38l.02.02 3.15 3.64-.89 1.2-3.31-3.97-1.3.4Zm7.5 23.3 3.88 4.59-1.29.4-3.3-3.97-.9 1.19s3.07 3.57 3.15 3.64l.02.02c.12.12.59.6 1.36.38l3.3-.87-5.4-6.58-.81 1.2Zm.09-4.29-.65.87 1.54.64-6.46 9.03a.98.98 0 0 1-1.21.4l-.81-.32 6.05-8.4-1.2-.4s-5.1 7.06-5.58 7.7c-.48.62-.8.55-1.05.47-.24-.08-.97-.4-.97-.4s6.06-8.16 6.54-8.87c.44-.65.82-.52 1.06-.43l.07.03c.08 0 .4.08.65.16l.4-.56c.17-.15.4-.31.81-.15l.8.23Zm5.49-11.25 2.1-5.62.97.95-1.86 4.75 1.54.16s1.61-4.36 1.7-4.44c.07-.08.23-.79-.33-1.42l-2.42-2.38-3.23 7.84 1.53.16Zm-3.8 2.93-.16-.87 1.13.08-.56-1.27 11.22.95c.65.08.9.4.97.88l.16.79-10.41-1.03.24 1.27 9.6.95c.82.08.98.4.98.63.08.24.16.95.16.95l-11.06-1.19c-.75-.06-.81-.4-.86-.65l-.03-.14c0-.08-.08-.4-.16-.63l-.65-.08a.78.78 0 0 1-.57-.64ZM20.7 34.18l-2.1 5.55-.97-.95 1.86-4.76-1.53-.16s-1.62 4.36-1.7 4.44c-.08.08-.24.8.32 1.43L19 42.1l3.06-7.84-1.37-.08Zm3.96-2.06-1.13-.16.4 1.43-11.22-.95c-.65-.08-.9-.4-.97-.87l-.16-.8 10.41 1.11-.24-1.26-9.6-.95c-.82-.16-.98-.48-.82-.8-.08-.23-.16-.95-.16-.95s10.18 1.11 11.07 1.19c.74.07.8.4.85.66l.03.13c0 .08.09.4.17.64l.64.08c.24.08.49.23.57.63l.16.87Zm12.6-1.03 5.97-1.03-.4 1.35-5.17.79.65 1.35s4.6-.8 4.76-.8c.16 0 .89-.15 1.05-.95l.89-3.24-8.48 1.26.73 1.27Zm-3.31-1.27 1.05-1.03 4.68 9.99c.24.55.08.95-.24 1.26l-.65.56-4.28-9.5-.97.86 3.96 8.64c.32.71.08.95-.08 1.1-.24.17-.8.64-.8.64s-4.13-9.19-4.53-9.98c-.3-.71 0-.98.18-1.14l.06-.05s.32-.24.49-.4l-.25-.63c-.08-.24-.08-.55.25-.8l.64-.55.49 1.03Zm-15.1-5.07-5.98 1.03.32-1.27 5.17-.79-.65-1.34s-4.6.79-4.76.79c-.16 0-.89.16-1.05.95L11 27.37l8.48-1.27-.65-1.35Zm3.39 1.27-1.13 1.03s-4.69-9.98-4.77-9.98c-.16-.56-.08-.95.32-1.27l.65-.56 4.28 9.43.97-.87-3.96-8.63c-.32-.72-.08-.96.16-1.03.25-.16.81-.64.81-.64s4.12 9.2 4.52 9.98c.3.72 0 .98-.18 1.14l-.06.05s-.32.24-.48.4l.24.63c.08.24.08.56-.24.8l-.65.55-.48-1.03Z" fill="#fff"/></svg>