<!-- by TradingView --><svg xmlns="http://www.w3.org/2000/svg" width="56" height="56" viewBox="0 0 56 56"><path fill="#F0F3FA" d="M0 0h56v56H0z"/><path d="M43 13H13v9.33a6.45 6.45 0 0 1 7 2.04V22h5v8h4v-8h9.17a3 3 0 0 1 0 6h.7a3 3 0 1 1 0 6H20v-2.37a6.31 6.31 0 0 1-7 2.04V43h30V13zM13 29.75c.41.34.95.54 1.54.54A2.34 2.34 0 0 0 16.92 28c0-1.27-1.07-2.3-2.38-2.3-.59 0-1.13.2-1.54.55v3.5zM36 31h-2v-2h2a1 1 0 1 1 0 2zm-2-6v2h1.62a1 1 0 1 0 0-2H34z" fill="#EB2A2E"/><ellipse cx="21.22" cy="36.29" rx=".78" ry=".71"/><path d="M27 36.59c-.44.26-.96.41-1.53.41-1.53 0-2.78-1.12-2.78-2.5s1.25-2.5 2.78-2.5c.57 0 1.1.15 1.53.41v1.49c-.27-.53-.87-.9-1.58-.9-.95 0-1.72.67-1.72 1.5s.77 1.5 1.72 1.5c.7 0 1.31-.37 1.58-.9v1.49z"/><path fill-rule="evenodd" d="M30.5 37c1.52 0 2.75-1.12 2.75-2.5S32.02 32 30.5 32s-2.75 1.12-2.75 2.5S28.98 37 30.5 37zm0-1c.97 0 1.75-.67 1.75-1.5S31.47 33 30.5 33s-1.75.67-1.75 1.5.78 1.5 1.75 1.5z"/><path d="M34 32h1v.97a1.86 1.86 0 0 1 3.37.2 1.89 1.89 0 0 1 3.63.72V37h-1v-2.83a1.25 1.25 0 0 0-2.5 0V37h-1v-2.83a1.25 1.25 0 1 0-2.5 0V37h-1v-5z"/></svg>