<!-- by TradingView --><svg xmlns="http://www.w3.org/2000/svg" width="56" height="56" viewBox="0 0 56 56"><path fill="#F0F3FA" d="M0 0h56v56H0z"/><path d="M16.7 24.64c.2-.43.3-.93.3-1.5v-.27c0-.57-.1-1.07-.31-1.51-.21-.44-.5-.77-.89-1a2.42 2.42 0 0 0-1.3-.36 2.32 2.32 0 0 0-2.19 1.36c-.2.44-.31.94-.31 1.52v.28c0 .57.1 1.06.32 1.5A2.33 2.33 0 0 0 14.5 26a2.3 2.3 0 0 0 2.19-1.36zM14.5 21c.82 0 1.5.64 1.5 1.87v.28c0 1.21-.68 1.85-1.5 1.85s-1.5-.68-1.5-1.87v-.28c0-1.22.7-1.85 1.5-1.85zm5.04-1L21 24.35 22.46 20H24v6h-1v-4.47L21.4 26h-.8L19 21.53V26h-1v-6h1.54zm9.96 6h-1.14L26 21.85V26h-1v-6h1.14l2.36 4.19V20h1v6zm1.5 0h1v-6h-1v6zm3-1h2.5v1H33v-6h1v5zm8-4h1.71v-1H39.3v1H41v5h1v-5zm-4.55 8h1.72v-1h-4.42v1h1.7v5h1v-5zM27 34h-1v-6h1v6zm6 0h1v-6h-1v6zm8 0h-1v-6h1v6zm-3.52-8h1v-6h-1v6zm13.38 8H52v-6h-1v4.19L48.64 28H47.5v6h1v-4.15L50.86 34zM47 31.13c0 .58-.1 1.08-.3 1.51A2.3 2.3 0 0 1 44.5 34a2.32 2.32 0 0 1-2.19-1.34 3.42 3.42 0 0 1-.31-1.5v-.28c0-.58.1-1.08.31-1.52A2.32 2.32 0 0 1 44.5 28a2.29 2.29 0 0 1 2.19 1.36c.2.44.31.94.31 1.51v.26zm-1-.26c0-1.23-.68-1.87-1.5-1.87-.8 0-1.5.63-1.5 1.85v.28c0 1.2.68 1.87 1.5 1.87s1.5-.64 1.5-1.85v-.28zm-16.04.59c.45.16 1.04.37 1.04.93 0 .41-.38.61-.9.61-.68 0-1.1-.36-1.1-1h-1c0 1.21.95 2 2.1 2 1 0 1.9-.54 1.9-1.62 0-.45-.14-.83-.42-1.14-.28-.3-.72-.56-1.33-.77-.67-.22-1.09-.46-1.09-.84 0-.4.38-.63.9-.63.55 0 .94.27.94.8h1c0-1.06-.86-1.8-1.92-1.8-.96 0-1.92.57-1.92 1.63 0 .6.33 1.07.92 1.43.22.13.51.26.88.4zM25 28v3.9a2 2 0 0 1-.6 1.54c-.4.37-.95.56-1.65.56-.69 0-1.23-.18-1.63-.55-.4-.36-.61-.87-.62-1.5V28h1v3.9c0 .78.6 1.1 1.25 1.1.68 0 1.24-.34 1.25-1.06V28h1zm-5.46 4.57c.17-.4.25-.88.25-1.43v-.26c0-.57-.1-1.08-.3-1.52A2.24 2.24 0 0 0 17.4 28c-.46 0-.88.12-1.25.35a2.3 2.3 0 0 0-.84 1.01c-.2.44-.3.95-.3 1.52v.3c0 .56.1 1.06.3 1.5.2.42.49.76.86.99a2.26 2.26 0 0 0 1.33.33c.11 0 .23 0 .34-.02l1.2 1.02.74-.7-.94-.76c.3-.24.54-.57.7-.97zM17.4 29c.78 0 1.37.65 1.37 1.88v.29c0 1.21-.59 1.83-1.37 1.83-.79 0-1.4-.66-1.4-1.86v-.28c0-1.22.62-1.86 1.4-1.86zm-3.16 3c-.04.63-.26 1.1-.66 1.46-.39.36-.9.54-1.56.54-.7 0-1.26-.25-1.66-.75-.4-.5-.61-1.2-.61-2.08v-.36c0-.56.1-1.05.28-1.48.19-.43.45-.76.8-.99.35-.23.75-.34 1.21-.34.64 0 1.15.18 1.54.54.38.36.6.8.67 1.46h-1c-.06-.75-.51-1-1.21-1-.75 0-1.28.54-1.29 1.76v.44c0 1.26.5 1.8 1.27 1.8.71 0 1.17-.3 1.22-1h1zm-8.67 1h2.08L8 34h1.23l-2.1-6H6.09L4 34h1.22l.35-1zm1.82-1H5.84l.77-2.48L7.4 32z"/></svg>