<!-- by TradingView --><svg width="56" height="56" viewBox="0 0 56 56" xmlns="http://www.w3.org/2000/svg"><path fill="url(#a4h5gnhhe)" d="M0 0h56v56H0z"/><path d="M12.58 28c0-8.5 6.92-15.42 15.42-15.42a15.3 15.3 0 0 1 10.5 4.14l.39-.42a16 16 0 0 0-21.8 23.4l.4-.42A15.36 15.36 0 0 1 12.57 28Z" fill="url(#b4h5gnhhe)"/><path d="m38.89 16.3-.4.42A15.38 15.38 0 0 1 43.42 28c0 8.5-6.92 15.42-15.42 15.42a15.3 15.3 0 0 1-10.5-4.14l-.39.42a16 16 0 1 0 21.77-23.4Z" fill="url(#c4h5gnhhe)"/><path d="M14.57 28a13.42 13.42 0 0 1 22.53-9.8l.4-.44a13.98 13.98 0 1 0-19.04 20.47l.41-.43a13.27 13.27 0 0 1-4.3-9.8Z" fill="url(#d4h5gnhhe)"/><path d="M42 28c0-4.03-1.7-7.69-4.47-10.24l-.4.44a13.39 13.39 0 1 1-18.26 19.6l-.4.44A14 14 0 0 0 42 28Z" fill="url(#e4h5gnhhe)"/><path d="M16.61 27.99a11.4 11.4 0 0 1 19.14-8.32l.43-.47a12 12 0 0 0-16.37 17.57l.44-.46a11.33 11.33 0 0 1-3.64-8.32Z" fill="url(#f4h5gnhhe)"/><path d="M40 27.99a12.1 12.1 0 0 0-3.82-8.79l-.43.47a11.28 11.28 0 0 1 3.64 8.32 11.4 11.4 0 0 1-19.14 8.32l-.43.46c2.15 2 5 3.23 8.18 3.23 6.64-.03 12-5.38 12-12.01Z" fill="url(#g4h5gnhhe)"/><defs><linearGradient id="a4h5gnhhe" x1="10.42" y1="9.71" x2="68.15" y2="76.02" gradientUnits="userSpaceOnUse"><stop stop-color="#1A1E21"/><stop offset="1" stop-color="#06060A"/></linearGradient><linearGradient id="b4h5gnhhe" x1="12" y1="25.86" x2="38.89" y2="25.86" gradientUnits="userSpaceOnUse"><stop offset=".01" stop-color="#fff"/><stop offset=".86" stop-color="#fff" stop-opacity=".05"/><stop offset="1" stop-color="#fff" stop-opacity="0"/></linearGradient><linearGradient id="c4h5gnhhe" x1="17.1" y1="30.14" x2="43.99" y2="30.14" gradientUnits="userSpaceOnUse"><stop stop-color="#fff" stop-opacity="0"/><stop offset=".14" stop-color="#fff" stop-opacity=".05"/><stop offset=".99" stop-color="#fff"/></linearGradient><linearGradient id="d4h5gnhhe" x1="14" y1="26.12" x2="37.54" y2="26.12" gradientUnits="userSpaceOnUse"><stop offset=".01" stop-color="#fff"/><stop offset=".86" stop-color="#fff" stop-opacity=".05"/><stop offset="1" stop-color="#fff" stop-opacity="0"/></linearGradient><linearGradient id="e4h5gnhhe" x1="18.46" y1="29.88" x2="42" y2="29.88" gradientUnits="userSpaceOnUse"><stop stop-color="#fff" stop-opacity="0"/><stop offset=".14" stop-color="#fff" stop-opacity=".05"/><stop offset=".99" stop-color="#fff"/></linearGradient><linearGradient id="f4h5gnhhe" x1="15.99" y1="26.38" x2="36.18" y2="26.38" gradientUnits="userSpaceOnUse"><stop offset=".01" stop-color="#fff"/><stop offset=".86" stop-color="#fff" stop-opacity=".05"/><stop offset="1" stop-color="#fff" stop-opacity="0"/></linearGradient><linearGradient id="g4h5gnhhe" x1="19.82" y1="29.59" x2="40" y2="29.59" gradientUnits="userSpaceOnUse"><stop stop-color="#fff" stop-opacity="0"/><stop offset=".14" stop-color="#fff" stop-opacity=".05"/><stop offset=".99" stop-color="#fff"/></linearGradient></defs></svg>