<!-- by TradingView --><svg width="56" height="56" viewBox="0 0 56 56" xmlns="http://www.w3.org/2000/svg"><path fill="url(#anqdeoa1a)" d="M0 0h56v56H0z"/><path d="M33.32 39.18a14.54 14.54 0 0 1-6.8 1.68A14.48 14.48 0 0 1 12 26.43C12 18.46 18.5 12 26.53 12c8.02 0 14.53 6.46 14.53 14.43 0 3.9-1.56 7.44-4.1 10.04L44 43h-6.54l-4.14-3.82Zm-.33-6.4c1.4-1.57 2.6-3.5 3.42-5.83-1.44-4.46-7.23-12.64-18.85-9.62a18.48 18.48 0 0 0 5.96 21.19c1.48-.3 3.78-1.16 6.1-2.76L23.39 30h6.6l3 2.78Z" fill="#fff"/><defs><linearGradient id="anqdeoa1a" x1="10.42" y1="9.71" x2="68.15" y2="76.02" gradientUnits="userSpaceOnUse"><stop stop-color="#1A1E21"/><stop offset="1" stop-color="#06060A"/></linearGradient></defs></svg>