<!-- by TradingView --><svg width="56" height="56" viewBox="0 0 56 56" xmlns="http://www.w3.org/2000/svg"><path fill="#F0F3FA" d="M0 0h56v56H0z"/><path d="M24 31.74V12.12l-.71.11-5.3 1.1c-1.86.34-1.99 1.22-1.99 2.38v16.65c0 3.44 1.6 6 2.4 6.85l5.1 5.07c.58.57 1.4.82 2.2.68l7.04-1.26a134.5 134.5 0 0 1-6.52-6.95 11.18 11.18 0 0 1-2.22-5Z" fill="url(#amkfrb2kx)"/><path d="M32 24.26v19.58l6-1.17c1.87-.34 2-1.22 2-2.38V23.64c0-3.43-1.6-6-2.4-6.85l-5.1-5.07a2.49 2.49 0 0 0-2.2-.68l-7.05 1.2c1.62 1.63 5.22 5.38 6.53 7A11.18 11.18 0 0 1 32 24.27Z" fill="url(#bmkfrb2kx)"/><defs><linearGradient id="amkfrb2kx" x1="15.37" y1="15.37" x2="24.15" y2="45.07" gradientUnits="userSpaceOnUse"><stop offset=".55" stop-color="#414142"/><stop offset=".69" stop-color="#595A5C"/></linearGradient><linearGradient id="bmkfrb2kx" x1="38.07" y1="39.23" x2="29.6" y2="12.38" gradientUnits="userSpaceOnUse"><stop offset=".48" stop-color="#A45525"/><stop offset=".7" stop-color="#E77C2E"/></linearGradient></defs></svg>