<!-- by TradingView --><svg xmlns="http://www.w3.org/2000/svg" width="56" height="56" viewBox="0 0 56 56"><path fill="#005B84" d="M0 0h56v56H0z"/><path d="M10.71 34.88a.87.87 0 0 0 .34-.27.93.93 0 0 0 .17-.56c0-.7-.51-1.05-1.52-1.05H8v4h1.78c.5 0 .9-.1 1.17-.3.26-.2.4-.5.4-.89.01-.42-.2-.74-.64-.93Zm-.32-.4c-.14.1-.35.15-.65.15H8.61v-1.06h1.07c.32 0 .56.05.7.13.07.03.12.09.15.16.04.06.06.14.05.22 0 .19-.06.32-.2.4Zm-1.78.72h1.16c.32 0 .57.05.72.16.15.1.22.25.22.47 0 .2-.07.36-.21.45-.15.1-.4.15-.75.15H8.6V35.2ZM13.9 33h-.62v4h3.05v-.59H13.9V33ZM20.68 35.34c0 .37-.09.64-.27.82-.18.17-.48.26-.87.26s-.68-.09-.86-.26c-.19-.18-.28-.45-.28-.82V33h-.62v2.32c0 1.12.6 1.68 1.76 1.68 1.17 0 1.77-.56 1.77-1.68V33h-.63v2.34ZM24 35.23h2.29v-.59H24V33.6h2.4V33h-3.05v4h3.17v-.59H24v-1.18ZM40.62 36.1l-1-3.08H39L38 36.08 37.08 33h-.7l1.3 4h.63l.99-3.07.98 3.07h.65l1.3-4h-.68l-.93 3.1ZM44.62 36.41V33H44v4h3v-.59h-2.38ZM34.06 33.24a2.47 2.47 0 0 0-1.1-.24c-.4 0-.78.08-1.13.25-.31.16-.57.4-.75.7-.17.33-.26.69-.25 1.05-.01.37.08.74.27 1.07.17.3.44.54.75.7.34.15.72.24 1.1.23.4 0 .78-.08 1.13-.25.3-.16.57-.4.74-.71.17-.32.26-.68.25-1.04.01-.38-.08-.75-.27-1.07-.17-.3-.43-.54-.74-.7Zm.37 1.76c0 .45-.13.8-.39 1.05a1.5 1.5 0 0 1-1.09.38c-.46 0-.83-.12-1.09-.37-.25-.25-.39-.6-.39-1.06 0-.46.13-.8.4-1.06a1.5 1.5 0 0 1 1.08-.37c.46 0 .84.12 1.1.37.25.25.38.6.38 1.06Z" fill="#fff"/><path d="M35.46 17.37h-1.03A3.65 3.65 0 0 0 31.2 15a3.56 3.56 0 0 0-3.4 2.12l-.11.25H26.5v.8h.8L22 29.8l.52.08c.53.08 1.07.11 1.6.11 1.69 0 4.37-.32 6.4-2.05 1.67-1.43 2.56-3.55 2.65-6.3a3.64 3.64 0 0 0 1.47-3.48h.82v-.8Zm-4.39-1.57a2.78 2.78 0 0 1 2.5 1.57h-.5c-.76.02-1.49.33-2.04.87a3.08 3.08 0 0 0-2.02-.87h-.45a2.85 2.85 0 0 1 2.51-1.57Zm2.55 4.07a2.85 2.85 0 0 1-2.45 1.66 2.78 2.78 0 0 1-2.57-1.48l-.39.85a3.6 3.6 0 0 0 4.14 1.19c-.16 2.28-.95 4.05-2.34 5.25A7.93 7.93 0 0 1 26.2 29c2.37-1.25 3.63-3.6 4.27-5.53-.26-.04-.52-.1-.78-.18-.86 2.56-2.28 4.3-4.21 5.17-.71.32-1.48.5-2.26.55l4.33-9.49.63-1.37h.84c.03 0 .94 0 1.7.92l.32.36.3-.37a2.29 2.29 0 0 1 1.7-.9h.79c.1.57.03 1.17-.22 1.7Z" fill="#7CD0E6"/></svg>