<!-- by TradingView --><svg xmlns="http://www.w3.org/2000/svg" width="56" height="56" viewBox="0 0 56 56"><path fill="#F0F3FA" d="M0 0h56v56H0z"/><path fill-rule="evenodd" d="M28 28c0 3.2 1.96 5.94 4.7 7H4V21h28.7a7.46 7.46 0 0 0-4.7 7zM6 28v-5h1.07L9 26.33V23h1v5H8.97L7 24.6V28H6zm5.74-5h-1.4l1.85 3.12V28h1.03v-1.88L15 23h-1.33l-.93 2.17-1-2.17zm7.1 1.54c0-.51-.35-1.53-1.85-1.54-1.88 0-1.99 1.34-1.99 1.54 0 .2.16 1.07 1.49 1.3 1.33.22 1.51.45 1.51.73 0 .28-.29.6-.92.6-.64.02-1.11-.28-1.12-.75H15c-.01.53.39 1.6 2.08 1.58 1.69-.02 1.98-1.1 1.91-1.63a1.43 1.43 0 0 0-1.23-1.2c-1.14-.2-1.74-.36-1.76-.77-.02-.42.52-.6 1-.58.46.03.83.28.88.72h.95zM25 27h1v1h-1v-1zm1 3h-1v1h1v-1zm-5-7h-1v5h4v-1h-3v-1h3v-1h-3v-1h3v-1h-3zM6.6 29l-1.06 3h.65l.2-.62h1.07l.21.62h.69l-1.07-3h-.7zm.34.72l-.38 1.13h.75l-.37-1.13zM9.13 32h-.47v-2.21h.57v.3a.72.72 0 0 1 1.23-.02.74.74 0 0 1 1.36.4V32h-.56v-1.41a.37.37 0 0 0-.7-.17V32h-.6v-1.41a.37.37 0 0 0-.73 0v1.4h-.1zm14.1-2.27a.77.77 0 0 0-.68.4v-.34H22V32h.6v-1.36a.4.4 0 0 1 .8 0V32h.6v-1.5a.77.77 0 0 0-.77-.77zm-6.98.06h.56V32h-.56v-2.2zm.56-.79h-.56v.55h.56V29zm2.47 2.1c-.09.52-.44.9-1.01.9-.68-.01-1.05-.53-1.05-1.18 0-.65.4-1.18 1.05-1.18.54 0 .9.36 1 .86h-.57a.46.46 0 0 0-.9.1v.47a.46.46 0 0 0 .91.03h.57zm-4.91.19c-.15.42-.52.71-1.1.7-.75 0-1.16-.52-1.16-1.16 0-.64.44-1.17 1.17-1.17s1.16.53 1.16 1.17V31H12.75v.02a.51.51 0 0 0 .94.27h.67zm-1.1-1.13c.25 0 .46.18.5.43h-1a.51.51 0 0 1 .5-.43zm1.94.5V32h-.56v-2.2h.56v.33c.2-.34.55-.4.7-.39v.59c-.42-.02-.62.15-.7.34zm5.36-1c-.8-.01-1 .52-1.01.79h.57c.03-.17.14-.33.4-.32.27 0 .35.15.35.22s-.08.2-.56.26c-.49.06-.82.35-.83.71 0 .37.3.7.75.68a.8.8 0 0 0 .64-.31l.06.31h.63v-.17c-.09-.04-.12-.15-.12-.2v-1.18c0-.27-.1-.77-.88-.79zm.29 1.47v-.26a6 6 0 0 1-.57.15c-.33.07-.3.6.1.56.37-.04.46-.32.47-.45z" fill="#00234E"/><path d="M29.94 31.01a7.27 7.27 0 0 1 13.43-5.58l-1.65 1.17a5.3 5.3 0 1 0-6.2 6.86c-1.66.13-4.04-.12-5.58-2.45z" fill="#00234E"/><path d="M38.48 32.73c-2.63 2.15-5.95.9-7.28 0a7.38 7.38 0 0 0 5.7 2.25 7.34 7.34 0 0 0 6.7-5.58l.71.4-.7-3.8-3.05 2.1.77.41a8.66 8.66 0 0 1-2.85 4.22z" fill="url(#avimfwjlb)"/><path d="M52 21h-9v2h5.54L42 35h9.5v-2h-5.99L52 21z" fill="#00234E"/><defs><linearGradient id="avimfwjlb" x1="43.25" y1="26.6" x2="37.43" y2="33.81" gradientUnits="userSpaceOnUse"><stop stop-color="#8CC63F"/><stop offset="1" stop-color="#14984A"/></linearGradient></defs></svg>