<!-- by TradingView --><svg width="56" height="56" viewBox="0 0 56 56" xmlns="http://www.w3.org/2000/svg"><path fill="#F0F3FA" d="M0 0h56v56H0z"/><path d="M36.43 25.91a7.08 7.08 0 0 1 4.19-.34c.68.34 1.13 1.47.34 1.92a19.17 19.17 0 0 0-15.64 14.57c0 .23-.11.64-.57.45-.56-.22-1.02-1.58-1.02-2.37.34-6.44 10.32-13.33 12.7-14.23Z" fill="url(#ac1nw5itf)"/><path d="M20.9 38.67C23.71 27.3 34 21.81 38.8 20.5c.46-.13.35-1.8-.45-2.15C25.1 20.83 19 34.84 19 36.53c0 1.7 1.45 2.48 1.9 2.14Z" fill="#231E60"/><path d="M16.14 32.46c2.83-11.18 17.11-19.54 21.42-18.86-.15-.8-1.04-2.37-3.4-2.37-2.95 0-16.66 6.66-19.95 18.75 0 .34-.45 2.14 1.02 2.82 1.18.54 1.1 0 .91-.34Z" fill="url(#bc1nw5itf)"/><path d="M14 31.56c0-.9.3-1.66.45-1.92 0 3.5 3.62 3.36 5.32 3.36 9.29 0 18.92-10.03 18.92-13.08 0-.79-.1-1.35-.33-1.58 1.58-.11 1.92 1.7 1.92 2.37-2.72 9.72-15.75 13.67-20.17 14.12-4.42.46-6.11-2.14-6.11-3.27Z" fill="url(#cc1nw5itf)"/><path d="M27.93 42.5c7.25 0 13.94-5.55 14.39-9.5.26.26.68.8.68 1.6-.45 6.22-8.95 10.4-13.94 10.4s-5.33-3.16-5.55-4.74c.79 1.8 2.83 2.24 4.42 2.24Z" fill="url(#dc1nw5itf)"/><path d="M23.8 41.8c.82 1.15 2.28 2.2 4.7 2.2 4.98 0 13.03-4.65 14.05-9.5.1-.49.04-.96-.16-1.42a2.49 2.49 0 0 0-.07-.08c-.45 3.95-7.14 9.5-14.4 9.5-1.58 0-3.62-.44-4.41-2.24l.01.1c.06.41.13.91.29 1.44Z" fill="url(#ec1nw5itf)"/><path d="M11 24.44c0-3.34 6.86-8.48 10-10.44C9.9 20.33 9.68 25.68 9.68 26.81c0 1.13 3.51 4.97 13.94 1.25 10.43-3.73 14.85-10.73 14.73-14.01-.09-2.62-2.6-2.9-3.85-2.71.76.11 2.5.77 2.5 2.48 0 2.15-2.05 4.64-6.01 7.91-3.97 3.28-10.66 5.87-14.96 5.87-4.31 0-5.03-2.14-5.03-3.16Z" fill="url(#fc1nw5itf)"/><path d="M9 26.7c0-5.15 8.07-10.74 12-12.7-9.86 6.1-11 9.88-11 12.14S13.95 29 15.3 29C28.46 29 38 17.66 38 14.39c0-2.62-2.48-3.13-3.61-3.05.22-.11.79-.34 1.24-.34 2.38 0 3.37 2.26 3.37 3.39 0 4.32-4.27 8.36-9.49 11.52-5.4 3.27-11.85 4.59-14.28 4.59-4.76 0-6.23-2.22-6.23-3.8Z" fill="url(#gc1nw5itf)"/><path d="M20 35.51c-5.17 0-6.04-2.63-6-3.95 1.59 2.7 4.75 2.44 6 2.44 10.5-.5 19.5-10.8 19.5-13.74 0-.79.02-1.26-.2-1.71a2.85 2.85 0 0 1 1.7 2.5c-1.02 7.91-14.55 14.46-21 14.46Z" fill="url(#hc1nw5itf)"/><path d="M23.5 41c-4.16 0-4.69-2.97-4.5-4.36.57 2.03 1.33 1.92 2.58 2.37 1.25.46 5.33-.45 7.82-1.13 2.5-.67 10.88-8.02 11.56-8.92.54-.72.53-2.3.6-2.9.27.15.94.98.94 2.34 0 3.95-4.62 7.8-9.59 10.16-3.55 1.68-7.14 2.44-9.4 2.44Z" fill="url(#ic1nw5itf)"/><path d="M41 26.93c0-.55-.32-1.17-.47-1.4 1 .13 1.47.95 1.47 1.74C39.85 35.85 27.36 40 23.28 40 19.2 40 19 37.54 19 36.64c.23 1.7 2.58 1.92 3.83 1.92 8.16 0 18.17-8.58 18.17-11.63Z" fill="url(#jc1nw5itf)"/><defs><linearGradient id="ac1nw5itf" x1="40.73" y1="26.7" x2="23.9" y2="41.67" gradientUnits="userSpaceOnUse"><stop stop-color="#214087"/><stop offset="1" stop-color="#0E5752"/></linearGradient><linearGradient id="bc1nw5itf" x1="36.54" y1="12.69" x2="14.16" y2="31.52" gradientUnits="userSpaceOnUse"><stop stop-color="#630C0D"/><stop offset="1" stop-color="#93191C"/></linearGradient><linearGradient id="cc1nw5itf" x1="39.83" y1="18.46" x2="13.69" y2="33.1" gradientUnits="userSpaceOnUse"><stop stop-color="#8A79B7"/><stop offset="1" stop-color="#D97D64"/></linearGradient><linearGradient id="dc1nw5itf" x1="43.11" y1="33.7" x2="24.32" y2="42.68" gradientUnits="userSpaceOnUse"><stop stop-color="#F5E583"/><stop offset="1" stop-color="#B3D351"/></linearGradient><linearGradient id="ec1nw5itf" x1="42.66" y1="33.49" x2="23.7" y2="41.85" gradientUnits="userSpaceOnUse"><stop stop-color="#FBF1B3"/><stop offset="1" stop-color="#CDE08C"/></linearGradient><linearGradient id="fc1nw5itf" x1="38.35" y1="15.74" x2="9.79" y2="15.74" gradientUnits="userSpaceOnUse"><stop stop-color="#E98C69"/><stop offset="1" stop-color="#F9E08A"/></linearGradient><linearGradient id="gc1nw5itf" x1="38.92" y1="13.15" x2="9.15" y2="27.91" gradientUnits="userSpaceOnUse"><stop stop-color="#D83327"/><stop offset="1" stop-color="#F5CF34"/></linearGradient><linearGradient id="hc1nw5itf" x1="40.85" y1="19.7" x2="13.68" y2="33.66" gradientUnits="userSpaceOnUse"><stop stop-color="#533996"/><stop offset="1" stop-color="#C62127"/></linearGradient><linearGradient id="ic1nw5itf" x1="42.66" y1="27.38" x2="18.66" y2="38.74" gradientUnits="userSpaceOnUse"><stop stop-color="#87C652"/><stop offset="1" stop-color="#3096D2"/></linearGradient><linearGradient id="jc1nw5itf" x1="41.87" y1="26.02" x2="18.89" y2="38.29" gradientUnits="userSpaceOnUse"><stop stop-color="#BBDB8C"/><stop offset="1" stop-color="#87B4E0"/></linearGradient></defs></svg>