<!-- by TradingView --><svg width="56" height="56" viewBox="0 0 56 56" xmlns="http://www.w3.org/2000/svg"><path fill="#F0F3FA" d="M0 0h56v56H0z"/><path d="M11.07 19c3.42 0 6.05 2.35 6.93 3.5-.45-.23-1.82-.5-3.67-.5C12.02 22 7 23.62 7 28.46c0 4.83 3.57 6.16 5 7.54-5.91-1.38-8-6.29-8-9.26C4 23.77 6.79 19 11.07 19Z" fill="url(#aihxinepi)"/><path d="M12 34v-8h3.79c1.53 0 3.21.65 3.21 2.42S17.34 31 15.81 31H13v3h-1Zm1-4h2.9c1 0 2.1-.41 2.1-1.58 0-1.16-1.1-1.42-2.1-1.42H13v3ZM20 30c0-2.63 2.17-4 4.62-4 1.7 0 4.02.6 4.38 2.55l-1.34.1C27.42 27.32 25.8 27 24.62 27 22.75 27 21 28.12 21 30c0 1.93 1.85 3 3.74 3 1.26 0 2.67-.4 2.92-1.77l1.34.07c-.33 2.02-2.48 2.7-4.26 2.7-2.47 0-4.74-1.3-4.74-4ZM30 27v-1h7v1h-3v6h-1v-6h-3ZM38 33v-7h7v1h-6v2h5v1h-5v2h6v1h-7ZM46 33v-7h1v6h5v1h-6Z"/><defs><linearGradient id="aihxinepi" x1="12.29" y1="19" x2="9.83" y2="35.99" gradientUnits="userSpaceOnUse"><stop stop-color="#6CB7E5"/><stop offset=".3" stop-color="#0A99D4"/><stop offset=".69" stop-color="#71BEEC"/><stop offset="1" stop-color="#17A5E0"/></linearGradient></defs></svg>