<!-- by TradingView --><svg width="56" height="56" viewBox="0 0 56 56" xmlns="http://www.w3.org/2000/svg"><path fill="#F0F3FA" d="M0 0h56v56H0z"/><path d="M25 12.83 28 9l3 3.83L28 22l-3-9.17ZM24.77 15.04 21 13l.63 4.6L27 23l-2.23-7.96ZM31.23 15.04 35 13l-.63 4.6L29 23l2.23-7.96Z" fill="#02B214"/><path d="m23 21 4 4-4 4-4-4 4-4ZM33 21l4 4-4 4-4-4 4-4ZM23 31l4 4-4 4-4-4 4-4ZM33 31l4 4-4 4-4-4 4-4ZM28 26l4 4-4 4-4-4 4-4ZM19.5 27l2.5 2.5-2.5 2.5-2.5-2.5 2.5-2.5ZM18 36l2 2-2 2-2-2 2-2ZM22 40l2 2-2 2-2-2 2-2ZM34 40l2 2-2 2-2-2 2-2ZM31 43l2 2-2 2-2-2 2-2ZM25 43l2 2-2 2-2-2 2-2ZM37.9 35.9l2.1 2.12-2.1 2.1-2.12-2.1 2.11-2.11ZM36.5 27l2.5 2.5-2.5 2.5-2.5-2.5 2.5-2.5ZM28 36l4 4-4 4-4-4 4-4Z" fill="#F3C337"/></svg>