<!-- by TradingView --><svg width="56" height="56" viewBox="0 0 56 56" xmlns="http://www.w3.org/2000/svg"><path fill="#F0F3FA" d="M0 0h56v56H0z"/><path fill-rule="evenodd" d="M28 44a16 16 0 1 0 0-32 16 16 0 0 0 0 32Zm0 1a17 17 0 1 0 0-34 17 17 0 0 0 0 34ZM17 19h.2c.37 0 .93.13 1.4.5.48.4.84 1.04.83 2.03 0 .99-.37 1.61-.85 1.98-.4.3-.84.41-1.2.43V26H17v-7Zm.39 4.54c.28-.02.65-.12.96-.36.37-.28.7-.78.7-1.65 0-.87-.3-1.4-.69-1.7a1.94 1.94 0 0 0-.97-.41v4.12ZM21.5 19h-.2v7h.4v-2.05c.35-.02.8-.14 1.19-.44.48-.36.85-.99.85-1.98.01-.99-.35-1.63-.83-2.02a2.3 2.3 0 0 0-1.4-.5Zm1.16 4.19a1.8 1.8 0 0 1-.97.35v-4.12c.3.03.67.15.98.4.38.32.7.84.69 1.71 0 .87-.33 1.37-.7 1.66ZM24 19h.2c.37 0 .93.13 1.4.5.48.4.84 1.04.83 2.03 0 .99-.37 1.61-.85 1.98-.4.3-.84.41-1.2.43V26H24v-7Zm.39 4.54c.28-.02.65-.12.96-.36.37-.28.7-.78.7-1.65 0-.87-.3-1.4-.69-1.7a1.94 1.94 0 0 0-.97-.41v4.12ZM28.57 19h-.2v7h.4v-2.26c.18 0 .4-.03.6-.1L30.43 26h.47l-1.15-2.5c.26-.13.52-.33.73-.62.25-.35.41-.83.42-1.46 0-.98-.37-1.6-.87-1.96a2.54 2.54 0 0 0-1.46-.46Zm.84 4.21c-.22.09-.45.12-.64.13v-3.93c.31.03.7.13 1.02.37.39.29.72.78.7 1.64 0 .56-.14.95-.34 1.23s-.47.46-.74.56Zm-9.82-4.2h1.42v.4H20V21h1.01v.39H20v4.2h1.01v.4h-1.42v-7ZM39 19h-1.42v7H39v-.4h-1v-4.2h1V21h-1v-1.6h1V19Zm-12.2 0h1.41v.4H27.2V21h1.01v.4H27.2v4.2h1.01v.4h-1.42v-7ZM24 27h-2.4v10H24v-.4h-2v-6.14h2V30h-2v-2.6h2V27Zm7-8h.4v6.6h.97v.4H31v-7Zm-.6 8H30v10h2v-.4h-1.6V27Zm2.2-1v-7h.4v7h-.4Zm2.74-2.54L37 19.9V26h.4v-7h-.47l-1.58 3.5-1.5-3.5h-.5v7h.4v-6.07l1.59 3.53ZM17 27h.4v3h3.2v-3h.4v10h-.4v-6.56h-3.2V37H17V27Zm18.4 0H35v10h.4v-6.56h3.2V37h.4V27h-.4v3h-3.2v-3Zm-2.6.4h-1.4V27h3.21v.4h-1.4V37h-.4v-9.6ZM28.68 35H25.1l1.82-7.14L28.68 35Zm.5 2-.4-1.6h-3.8l-.41 1.6h-.44l2.58-10h.4l2.54 10h-.46Z" fill="url(#arkm3xcgz)"/><defs><linearGradient id="arkm3xcgz" x1="11" y1="28" x2="45" y2="28" gradientUnits="userSpaceOnUse"><stop stop-color="#106039"/><stop offset="1" stop-color="#94CD28"/></linearGradient></defs></svg>