<!-- by TradingView --><svg xmlns="http://www.w3.org/2000/svg" width="56" height="56" viewBox="0 0 56 56"><path fill="#01394A" d="M0 0h56v56H0z"/><path fill-rule="evenodd" d="M23.24 25.4c.44 0 .8-.31.8-.7 0-.39-.36-.7-.8-.7-.44 0-.8.31-.8.7 0 .39.36.7.8.7zm.76.6h-1.5v5H24v-5zM4 25h2.6c1.05 0 1.9.9 1.9 2s-.85 2-1.9 2H5.5v2H4v-6zm2.33 2.82H5.5v-1.64h.83c.4 0 .73.37.73.82 0 .45-.32.82-.73.82zM35 30h1.16l.02.08c.16.6.44 1.64-.72 2.22H35v-.53c.16-.01.56-.13.56-.55H35V30zM8.5 28.47A2.48 2.48 0 0 1 11 26c1.38 0 2.5 1.1 2.5 2.47v.23H9.95v.1a1 1 0 0 0 1 1 1 1 0 0 0 .93-.6h1.52A2.5 2.5 0 0 1 11 31c-1.38 0-2.5-1.1-2.5-2.47v-.06zm3.46-.47a1 1 0 0 0-1-.86 1 1 0 0 0-1 .86h2zM14 29.51v-2.26h-.6V26h.6v-1h1.5v1h.73v1.25h-.73V29c0 .27.05.5.32.5h.68V31h-1c-.83 0-1.5-.65-1.5-1.49zM18 25h-1.5l2.04 6h1.69l2.03-6h-1.5l-1.38 4.05L18.01 25zm6.46 1h1.35l1.1 3.5 1.1-3.5h1.45l-1.58 5h-1.83l-1.59-5zm10.04 2.5a2.5 2.5 0 1 1-5 0 2.5 2.5 0 0 1 5 0zm-1.5 0c0 .68-.44 1.22-1 1.22s-1-.54-1-1.22c0-.68.44-1.22 1-1.22s1 .54 1 1.22zm4-3.5h1.5v6H37v-6zm6 6v-2.86c0-.51-.34-.92-.8-.92a.83.83 0 0 0-.7.4V31H40v-5h1.5v.68c.27-.41.71-.68 1.2-.68h.3c.83 0 1.5.77 1.5 1.67V31H43zm7.2-2a2.41 2.41 0 0 1-2.33 2 2.44 2.44 0 0 1-2.37-2.5c0-1.38 1.06-2.5 2.38-2.5 1.14 0 2.1.86 2.32 2h-1.45c-.15-.43-.49-.72-.88-.72-.52 0-.95.54-.95 1.22 0 .68.43 1.22.95 1.22.4 0 .73-.3.88-.72h1.45zm1.8.5h-1.5V31H52v-1.5z" fill="#FFFEF9"/></svg>