<!-- by TradingView --><svg width="56" height="56" viewBox="0 0 56 56" xmlns="http://www.w3.org/2000/svg"><path fill="#F0F3FA" d="M0 0h56v56H0z"/><path fill-rule="evenodd" d="M21.77 38c-.15-.2-.48-.68-.57-1 .37-.16.69-.7.8-1h-.69l-.57.6-.45-.7c.34-.23 1.02-.8 1.02-1.2 0-.5-.34-.7-.91-.7-.57 0-1.37.6-1.37 1 0 .32.15.6.23.7-.42.23-1.26.82-1.26 1.3 0 .6.23 1 1.03 1a3.3 3.3 0 0 0 1.48-.4l.12.4h1.14Zm-1.14-3.2c0 .32-.46.53-.69.6-.19-.2-.24-.37-.22-.5.04-.27.38-.4.45-.4.12 0 .46 0 .46.3Zm-.51 2.27c-.12-.27-.33-.79-.63-.77-.35.02-.69.3-.69.7 0 .3.44.4.75.43.15 0 .4-.05.62-.23l-.05-.13Z" fill="#024572"/><path d="M24.66 18h-8.84l-.18.46H29.6c.3.27.6.57.88.92H15.28l-.25.62h16.09c.3.3.6.62.88 1H14.64l-.39 1h18.31c.16.31.31.65.44 1H13.86l-.39 1h20.38c.06.32.12.65.15 1H13.08l-.39 1H34c-.01.34-.04.68-.1 1H12.3l-.4 1H33c-.12.35-.25.68-.4 1H11.51l-.4 1H32c-.25.36-.52.69-.8 1H10.73l-.4 1H30c-.5.4-1 .73-1.47 1H24l-2.37 5h9.59l1.95-5h9.17l2.64-7H34v-1h11.36L48 18H24.66ZM9.56 34l.4-1h8.4l-.47 1H9.56Zm-.78 2 .4-1h8.24l-.47 1H8.78Zm-.39 1L8 38h8l.47-1H8.4Z" fill="#024572"/></svg>