<!-- by TradingView --><svg xmlns="http://www.w3.org/2000/svg" width="56" height="56" viewBox="0 0 56 56"><path fill="url(#afxtiz3sk)" d="M0 0h56v56H0z"/><path fill-rule="evenodd" d="M11.6 30.08c.17.74-.63 1.27-.85 1.37l-.37.02a4.5 4.5 0 0 1-4.58-4.44 4.5 4.5 0 0 1 4.58-4.43 4.6 4.6 0 0 1 3.94 2.17c.06.1.17.13.27.09a.2.2 0 0 0 .1-.28 5.2 5.2 0 1 0-2.94 7.57c.58.08.94.36 1.05.51-.11.12-.35.35-.38.35-.13-.04-.4-.02-.48.15-.06.13.12.25.22.29-.1.09-.24.29-.13.4.1.1.33-.01.43-.09.02.08.1.23.26.24.18.01.18-.24.16-.37.07.04.23.1.32 0 .08-.12-.14-.3-.27-.36l.44-.45c.31-.32.01-.7-.17-.87 1.28-.63 1.74-1.5 1.8-1.87 0 .03.1.17.5.49.4.31.86-.14 1.04-.4.02.17.16.19.23.18.22-.05.18-.27.13-.38.12.04.29-.02.27-.19-.02-.13-.2-.17-.3-.17.1-.05.26-.18.15-.31-.11-.14-.32.02-.4.11 0-.06-.04-.19-.24-.18-.2.01-.14.29-.09.42-.03.2-.28.34-.4.38-.28-.19-.48-.52-.55-.66 1.37-1.06 1.2-2.22.73-2.4-1.02-.23-1.52.92-1.65 1.52-.22.3-.71.19-.7 0 0-.15.2-.44.3-.56h.05c.11 0 .33.02.35-.13.03-.13-.14-.21-.23-.24.1-.04.24-.23.12-.36-.1-.1-.28 0-.36.06 0-.07-.02-.21-.17-.2-.15 0-.17.2-.15.3-.06-.05-.2-.1-.31.03-.1.14.09.33.2.41l-.02.02c-.14.2-.38.51-.41.82-.02.26.23.47.36.54-.61.2-.91.48-1 .6-.25-.5-.99-.3-1.32-.13.08-.18-.01-.28-.12-.28-.08 0-.2.1-.25.16-.01-.1-.09-.26-.26-.16s-.07.31 0 .41c-.08-.02-.27 0-.31.19-.04.2.22.24.36.24-.07.46.38.3.42.1.03-.16.43-.22.62-.23zM20 22h31v12H20V22zm14 3.5h3.35v1.2h-2v.93h1.74v1.2h-1.74v1.67H34v-5zm-9 0H27.32a1.75 1.75 0 1 1 0 3.5h-.97v1.5H25v-5zm1.35 1.2v1.16h.73a.58.58 0 0 0 0-1.15h-.73zm17.68-1.32c1.11-.03 1.66.68 1.8 1.03l-.92.7c-.15-.2-.5-.56-.82-.56-.37 0-.47.19-.47.34 0 .15.29.44 1.1.66.8.21 1.25.84 1.28 1.56.03.72-.73 1.5-1.97 1.5A2.63 2.63 0 0 1 42 29.5l.96-.71c.18.22.65.64 1.07.64.44 0 .54-.23.54-.33 0-.12 0-.26-.95-.62-.94-.35-1.38-1-1.38-1.54 0-.46.4-1.53 1.8-1.57z" fill="#fff"/><defs><linearGradient id="afxtiz3sk" x1="10.42" y1="9.71" x2="68.15" y2="76.02" gradientUnits="userSpaceOnUse"><stop stop-color="#1A1E21"/><stop offset="1" stop-color="#06060A"/></linearGradient></defs></svg>