<!-- by TradingView --><svg width="56" height="56" viewBox="0 0 56 56" xmlns="http://www.w3.org/2000/svg"><path fill="#181F4B" d="M0 0h56v56H0z"/><path d="M11 29.78c0-.53-.4-.78-1.11-.78H7v1.6h2.85c.8-.04 1.15-.3 1.15-.82ZM7 25v1.45h1.95c.75 0 1.05-.25 1.05-.74 0-.5-.3-.75-1.05-.75L7 25Zm7 5.23c.1 2.16-2.51 2.77-4.31 2.77H4V23h5.4c1.59 0 4.1.56 4.1 2.6 0 .91-.5 1.83-1.37 2.19A2.55 2.55 0 0 1 14 30.23ZM15 25h3v8h-3v-8ZM15 22.47c0 .94.8 1.47 1.5 1.53.75 0 1.5-.6 1.5-1.56 0-.9-.8-1.5-1.5-1.44-.72-.05-1.5.55-1.5 1.47Z" fill="#FFFEFF"/><path fill-rule="evenodd" d="M22.99 25A3.91 3.91 0 0 0 19 29c-.1 2.45 1.98 4 3.99 4 2.09 0 4.01-1.52 4.01-4s-1.92-4-4.01-4ZM22 28.98c-.05.82.36 1.65 1 1.64.63-.01 1.05-.8 1-1.64.05-.82-.39-1.6-1-1.6-.62 0-1.05.77-1 1.6Z" fill="#FFFEFF"/><path d="M41 28.49V33h-3v-3.7c0-.88-.4-1.34-.97-1.34-.72 0-1.09.8-1.03 1.45V33h-3v-3.66c0-.88-.33-1.34-.91-1.34-.72 0-1.15.79-1.09 1.44V33h-3v-8h3v.92c.58-.6 1.5-.92 2.11-.92.9 0 1.85.38 2.35 1.2a3.2 3.2 0 0 1 2.52-1.2c1.85 0 3.02 1.5 3.02 3.49Z" fill="#FFFEFF"/><path d="m48.18 33-1.71-2.69L44.82 33H41l3.57-5.05L41.11 23h3.74l1.68 2.5 1.65-2.5h3.61l-3.43 4.84L52 33h-3.82Z" fill="#45BFBD"/></svg>