<!-- by TradingView --><svg xmlns="http://www.w3.org/2000/svg" width="56" height="56" viewBox="0 0 56 56"><path fill="#F0F3FA" d="M0 0h56v56H0z"/><path fill="#C3262D" d="M21 20h3v13h-3zM29 20h3v13h-3z"/><path d="M45.65 20h3.67l-5 6.08L50 33h-3.75l-5.55-6.92L45.65 20Z" fill="#8E2F35"/><path d="M33.3 20h3.66l4.95 6.08L36.37 33h-3.7l4.37-5.37c-12.88-1.91-24.7 5.3-29.06 9.22L6 35.1c11.2-10.34 24.5-11.27 31.27-10.29L33.3 20Z" fill="url(#a03ybfw3v)"/><path d="M25.51 34h.38l1.4 2.95L28.62 34H29v3.5h-.4V35l-1.12 2.5h-.36l-1.21-2.54v2.54h-.4V34ZM30 37.5V34h.4v3.5H30ZM31.6 34h.36l2.23 2.82V34h.4v3.5h-.36L32 34.69v2.81h-.4V34ZM35.6 34h2.19v.38h-1.8v1.09h1.6v.38H36v1.27h1.8v.38h-2.2V34ZM38.75 34h1.21c.17 0 .42.06.63.2a.9.9 0 0 1 .39.79c0 .39-.23.69-.48.83-.13.07-.27.12-.4.15l1.02 1.53h-.5l-.96-1.5h-.51v1.5h-.4V34Zm.4 1.62h.62c.14 0 .35-.04.52-.13.17-.1.28-.28.29-.5 0-.25-.1-.4-.22-.48a.77.77 0 0 0-.4-.13h-.81v1.24ZM42.92 34h.36l1.6 3.5h-.45l-.44-.98h-1.77l-.44.98h-.43l1.57-3.5Zm-.53 2.15h1.43l-.72-1.6-.71 1.6ZM45.4 34h.4v3.1h1.6v.4h-2V34ZM48.87 34c.5-.03.88.26 1.01.42l-.3.25a.86.86 0 0 0-.68-.28c-.23.02-.42.09-.55.18-.12.1-.19.22-.19.37 0 .13.07.26.23.38.17.12.4.22.66.3.6.17.93.58.93.94 0 .14-.04.37-.21.57-.18.2-.48.35-.93.37-.72.03-1.08-.28-1.17-.54l.38-.12c.02.04.17.3.77.27.37-.02.55-.13.64-.23.1-.11.12-.24.12-.32 0-.12-.16-.43-.65-.57a2.5 2.5 0 0 1-.78-.36c-.22-.17-.39-.4-.39-.7 0-.28.14-.5.35-.66.2-.16.48-.24.76-.27Z" fill="#074C82"/><path d="M9.47 20H8v13h3V23h4.5a1.5 1.5 0 0 1 0 3h-3.97L11 29h4.5a4.5 4.5 0 0 0 0-9H9.47Z" fill="#C3262D"/><defs><linearGradient id="a03ybfw3v" x1="41.18" y1="25.79" x2="6.78" y2="35.59" gradientUnits="userSpaceOnUse"><stop offset=".26" stop-color="#C3262D"/><stop offset=".49" stop-color="#E37140"/><stop offset=".76" stop-color="#FBAF63"/><stop offset="1" stop-color="#FEF9F3"/></linearGradient></defs></svg>