<!-- by TradingView --><svg width="56" height="56" fill="none" xmlns="http://www.w3.org/2000/svg"><path fill="url(#paint0_linear_3608_50313)" d="M0 0h56v56H0z"/><path fill="#fff" d="M16 26h2v7h-2zM38 26h2v7h-2z"/><path fill="#FE8308" d="M16 22h2v2h-2z"/><path fill="#03827F" d="M38 22h2v2h-2z"/><path fill-rule="evenodd" clip-rule="evenodd" d="M7 22h2v6.217l2.677-2.609 1.285 1.315-2.393 2.332 2.931 2.306-1.139 1.443-3.36-2.644v2.644H7V22zM43 21.996h2v6.217l2.677-2.608 1.285 1.314-2.393 2.333 2.931 2.305L48.361 33l-3.36-2.643V33H43V21.996zM27 22h-2v4.337a3.5 3.5 0 00-5 3.165 3.5 3.5 0 005.668 2.749V33H27v-3.494-.004V22zm-2 7.504v-.003-.003a1.5 1.5 0 100 .006zM29 37h2v-4.337a3.5 3.5 0 005-3.165 3.5 3.5 0 00-5.668-2.749V26H29v11zm2-7.504v.006a1.5 1.5 0 100-.006z" fill="#fff"/><defs><linearGradient id="paint0_linear_3608_50313" x1="10.418" y1="9.712" x2="68.147" y2="76.017" gradientUnits="userSpaceOnUse"><stop stop-color="#1A1E21"/><stop offset="1" stop-color="#06060A"/></linearGradient></defs></svg>