<!-- by TradingView --><svg width="56" height="56" viewBox="0 0 56 56" xmlns="http://www.w3.org/2000/svg"><path fill="#F0F3FA" d="M0 0h56v56H0z"/><path d="M13 27h-1v4c0 1.6 1.33 2 2 2h3v-6h-1v5h-2c-.8 0-1-.67-1-1v-4ZM34 33h1v-4c0-1.6-1.33-2-2-2h-3v6h1v-5h2c.8 0 1 .67 1 1v4ZM50 33h1v-4c0-1.6-1.33-2-2-2h-3v6h1v-5h2c.8 0 1 .67 1 1v4Z" fill="#93292B"/><path fill="#1A2864" d="M9 24h1v9H9z"/><path fill-rule="evenodd" d="M6 20H5v13h2v-5h4c1 0 4 0 4-4 0-3.2-2.67-4-4-4H6Zm1 1v6h3.5c.83 0 2.5-.6 2.5-3s-2-3-3-3H7Z" fill="#93292B"/><path d="M20 25h-1v2h-1v1h1v3c0 1.5 1 2 2 2 .8 0 1-.33 1-.5v-1s-.42.5-1 .5c-.58 0-1-.5-1-1v-3h2v-1h-2v-2Z" fill="#952A2C"/><path fill-rule="evenodd" d="M26 33a3 3 0 1 0 0-6 3 3 0 0 0 0 6Zm-1.5-1.5h3c.5 0 1 0 1-.75 0-.4-.67-.75-1-.75 0-.5-.7-1.5-1.5-1.5-1 0-1.5 1-1.5 1.5-.33 0-1 .35-1 .75 0 .5.5.75 1 .75Z" fill="#952A2C"/><path fill="#93292B" d="M37 27h1v6h-1z"/><path fill="#1A2864" d="M37 25h1v1h-1z"/><path d="M40 28.5c0-.76.8-1.5 2.5-1.5 1.17 0 2.5.67 2.5 2v4h-3c-1.04 0-2-.56-2-2s.96-2 2-2h2c0-.75-.9-1-1.5-1-1.4 0-1.5.51-1.5.51v-.01h-1Zm4 1.5h-2c-.43 0-1 .34-1 1 0 1 .57 1 1 1h2v-2Z" fill="#93292B"/></svg>