<!-- by TradingView --><svg width="56" height="56" viewBox="0 0 56 56" xmlns="http://www.w3.org/2000/svg"><path fill="#F0F3FA" d="M0 0h56v56H0z"/><path fill-rule="evenodd" d="M4.15 27.92H4v.76c.1.11.52.32 1.43.32 1.14 0 1.75-.7 1.75-1.6 0-.92-.96-1.6-1.75-2.1-.62-.4-.85-.92-.9-1.13-.01-.33.17-1 1.07-1s1.15.7 1.17 1.05h.1v-.83A1.98 1.98 0 0 0 5.6 23c-.88 0-1.5.68-1.5 1.41 0 .74.64 1.35 1.62 1.99.78.5.98 1.06.98 1.28 0 .37-.24 1.13-1.27 1.13-1.04 0-1.28-.6-1.28-.89ZM10.92 29a3 3 0 1 0 .01-6 3 3 0 0 0 0 6Zm.46-.16c1.26-.2 2.07-1.64 1.82-3.2-.25-1.58-1.48-2.68-2.74-2.48-1.25.2-2.07 1.64-1.81 3.2.25 1.58 1.47 2.68 2.73 2.48ZM41.5 26a3 3 0 1 1-6 0 3 3 0 0 1 6 0Zm-.73-.37c.25 1.57-.56 3.01-1.81 3.21-1.26.2-2.48-.9-2.73-2.47-.25-1.57.56-3.01 1.81-3.21 1.26-.2 2.48.9 2.73 2.47ZM15.98 23h-1.31l.33.53V27c0 1.28.9 2.01 2.15 2.01 1.01 0 1.63-.42 1.85-.64v.23l-.22.41h1.29l-.32-.47v-5l.32-.53h-1.25l.18.53v4.55c-.2.23-.73.7-1.57.7-1.22 0-1.66-1.03-1.74-1.54v-3.7c0-.19.2-.44.3-.54Zm4.2.76h-.11v-.51l.3-.25h4.51l.27.25v.51h-.12l-.27-.42H23v5.23l.32.43h-1.35l.32-.43v-5.23h-1.86l-.24.42Zm26.59 0h.12l.24-.42H49v5.23l-.33.43h1.35l-.32-.43v-5.23h1.9l.26.42H52v-.51l-.29-.25h-4.65l-.3.25v.51ZM25.66 29h1.33l-.34-.49V26H30v2.51l-.34.49H31l-.33-.49v-5.2l.33-.31h-1.33l.34.31v2.37h-3.35v-2.37L27 23h-1.33l.34.31v5.2l-.34.49Zm7.4 0H31.8l.2-.6v-5.18l-.2-.22h1.53c.28 0 1.82.07 1.82 1.53 0 1.45-1.2 1.6-1.6 1.6-.31 0-.47-.17-.5-.26h.1c.04.03.17.11.4.11.29 0 .98-.22.98-1.24 0-1.57-1.21-1.67-1.81-1.52v5.19l.36.59Zm8.97 0 .32-.44v-5.13l-.32-.43h1.75c.55 0 1.67.35 1.67 1.68-.02.4-.24 1.09-.9 1.4.35.51 1.01 1.46 1.43 1.99.45.57 1.02.79 1.25.83v.1c-1.16 0-2.08-.94-2.39-1.4l-.9-1.37H43v2.33l.33.44h-1.3Zm.97-3.01v-2.68c.1-.04.35-.13.6-.13.31 0 1.28.24 1.28 1.52 0 1.29-1.03 1.29-1.34 1.29H43Z" fill="#022368"/><path d="M7 31h16l-.5 1H7v-1Zm0 2h15.45l-.5 1H7v-1Z" fill="#022368"/><path opacity=".3" fill="#022368" d="M24 31h25v3H24z"/></svg>