<!-- by TradingView --><svg xmlns="http://www.w3.org/2000/svg" width="56" height="56" viewBox="0 0 56 56"><path fill="#F0F3FA" d="M0 0h56v56H0z"/><path d="M15.94 22.25c-2.26-3.47-.85-8.28.13-10.25-5.38 7.3-3.97 15.83 4.4 18.5 6.68 2.14 9.19 6.09 9.6 7.8.2-.9.1-3.46-1.88-6.56-1.2-1.9-3.48-3.17-5.82-4.48-2.45-1.38-4.98-2.8-6.43-5.01Zm18.97-7.5a1.26 1.26 0 1 0-2.31.03 1.26 1.26 0 1 0 .6 2.44c-.12 1.02-.65 2.57-2.24 2.57-1.2 0-1.93-.86-2.27-1.53a.84.84 0 0 0-.45-1.55.84.84 0 1 0 .02 1.68c.23 1.67-1.12 2.19-1.79 2.23-1.05 0-1.56-.93-1.74-1.62.05-.1.09-.21.09-.33a.66.66 0 1 0-1.16.42L26.18 24h15.28l2.44-4.98c.06-.1.1-.22.1-.34a.66.66 0 1 0-1.04.53c-.53 1.34-1.65 1.41-1.75 1.41-1.76 0-1.95-1.4-1.8-2.23a.85.85 0 0 0 .88-.84.84.84 0 0 0-.84-.84.84.84 0 0 0-.51 1.5 2.45 2.45 0 0 1-2.18 1.58c-1.7 0-2.28-1.55-2.4-2.61A1.26 1.26 0 0 0 36.09 16c0-.66-.52-1.2-1.17-1.25ZM26.5 26c0-.55.4-1 .9-1h13.2c.5 0 .9.45.9 1s-.4 1-.9 1H27.4c-.5 0-.9-.45-.9-1Zm-4.19 18.35c1.75.36 5.88.02 8.36-4.15a43.19 43.19 0 0 0 1.84-3.55c1.66-3.46 2.87-6 7.74-6.68-1.04.31-3.39 1.82-4.53 5.4l-.07.2c-1.43 4.49-3.7 11.62-13.34 8.78ZM12 28.27c.35 1.44 2.45 4.58 8.08 5.6 7.04 1.26 8.22 5.62 8.53 7.1-.62-1.12-3.26-3.53-8.8-4.19-6.94-.82-7.81-8.03-7.81-8.5Z" fill="#D1A16C"/></svg>