<!-- by TradingView --><svg width="56" height="56" viewBox="0 0 56 56" xmlns="http://www.w3.org/2000/svg"><path fill="#273F6F" d="M0 0h56v56H0z"/><path d="M13.37 24.98a1.9 1.9 0 0 0-.13-.32 1.09 1.09 0 0 0-.17-.22.92.92 0 0 0-.66-.27c-.15 0-.3.03-.42.1a.94.94 0 0 0-.34.26 1.2 1.2 0 0 0-.2.4 1.95 1.95 0 0 0 .03 1.2c.07.2.17.34.3.45.19.15.42.23.68.23.19 0 .35-.03.5-.1.16-.07.32-.18.49-.34l.07.08c-.13.17-.3.3-.5.4-.21.1-.44.15-.7.15-.21 0-.41-.04-.6-.1a1.36 1.36 0 0 1-.46-.3 1.38 1.38 0 0 1-.3-.47c-.07-.18-.1-.38-.1-.6 0-.25.04-.48.13-.68.09-.2.22-.37.39-.51.13-.1.28-.19.45-.25.16-.06.33-.09.5-.09.22 0 .44.04.65.1.07.03.13.04.17.04.05 0 .08 0 .12-.03a.2.2 0 0 0 .06-.11h.1l.04.98h-.1ZM16.42 24.98a1.93 1.93 0 0 0-.13-.32 1.08 1.08 0 0 0-.17-.22.92.92 0 0 0-.66-.27c-.15 0-.3.03-.42.1a.94.94 0 0 0-.33.26 1.2 1.2 0 0 0-.21.4 1.95 1.95 0 0 0 .03 1.2c.07.2.17.34.3.45.19.15.42.23.69.23.18 0 .35-.03.5-.1.15-.07.31-.18.48-.34l.07.08c-.13.17-.3.3-.5.4-.21.1-.44.15-.7.15-.21 0-.41-.04-.6-.1a1.36 1.36 0 0 1-.45-.3 1.37 1.37 0 0 1-.3-.47c-.07-.18-.1-.38-.1-.6 0-.25.04-.48.12-.68.09-.2.22-.37.39-.51.13-.1.28-.19.45-.25.17-.06.33-.09.5-.09.22 0 .44.04.65.1.07.03.13.04.17.04.05 0 .09 0 .12-.03a.2.2 0 0 0 .07-.11h.09l.04.98h-.1ZM20.74 27l-1.95-2.4v1.7l.01.27c.02.07.04.13.07.17.03.04.07.07.13.08l.2.04V27h-1.03v-.14c.1 0 .16-.02.22-.04.05-.01.1-.04.13-.08s.05-.1.06-.17l.01-.27v-1.91l-.11-.13a.33.33 0 0 0-.1-.07.27.27 0 0 0-.09-.03.54.54 0 0 0-.12-.02V24h.75l1.7 2.17V24.7c0-.27-.05-.43-.13-.49a.33.33 0 0 0-.11-.04l-.18-.03V24h1.02v.14a.84.84 0 0 0-.18.03.37.37 0 0 0-.1.05c-.09.06-.13.22-.13.48V27h-.07ZM23.84 27h-2.37v-.14c.08 0 .14-.02.19-.03a.23.23 0 0 0 .11-.06.22.22 0 0 0 .06-.11.92.92 0 0 0 .02-.19v-1.94c0-.07 0-.13-.02-.18a.2.2 0 0 0-.05-.12.25.25 0 0 0-.12-.06 1.05 1.05 0 0 0-.2-.03V24h2.34l.01.68h-.1l-.07-.23a.31.31 0 0 0-.12-.14.41.41 0 0 0-.18-.07 2.38 2.38 0 0 0-.3-.02h-.6c-.06 0-.1.01-.12.03-.02.02-.02.06-.02.12v.97h.67c.09 0 .16 0 .22-.02.06 0 .1-.03.13-.05a.28.28 0 0 0 .09-.13l.05-.21h.1v1h-.1l-.05-.21a.26.26 0 0 0-.08-.13.26.26 0 0 0-.14-.06 1.31 1.31 0 0 0-.22-.01h-.67V26.69c0 .02.02.03.03.04.02.02.07.03.15.04a3 3 0 0 0 .28 0h.12l.4-.01c.1-.02.2-.05.27-.1.07-.03.14-.1.2-.17.05-.07.11-.17.16-.29h.13l-.2.8ZM26.9 25.83c0 .17 0 .31-.03.42a.98.98 0 0 1-.1.3c-.18.3-.51.45-1 .45-.37 0-.65-.09-.83-.27-.18-.18-.27-.46-.27-.84v-1.36l-.01-.19a.2.2 0 0 0-.06-.11.2.2 0 0 0-.11-.06 1.18 1.18 0 0 0-.21-.03V24h1.24v.14c-.09.01-.16.02-.21.04a.23.23 0 0 0-.12.05.22.22 0 0 0-.06.12l-.01.18v1.4c0 .13 0 .25.03.33a.8.8 0 0 0 .08.24c.12.2.34.3.65.3.17 0 .31-.02.45-.08a.61.61 0 0 0 .28-.25.73.73 0 0 0 .07-.24c.02-.09.03-.2.03-.36V24.7c0-.11 0-.2-.02-.27a.35.35 0 0 0-.06-.16.23.23 0 0 0-.12-.1.78.78 0 0 0-.2-.03V24h1.01v.14a1.2 1.2 0 0 0-.22.05.27.27 0 0 0-.13.08.36.36 0 0 0-.05.16l-.02.27v1.13ZM28.82 24c.38 0 .67.12.86.24.2.13.29.31.29.56 0 .09-.02.17-.05.25a.47.47 0 0 1-.13.19 1.4 1.4 0 0 1-.17.1l-.1.04a4.4 4.4 0 0 1-.15.05 2.45 2.45 0 0 1 .32.1.66.66 0 0 1 .21.14c.15.12.22.29.22.49 0 .12-.02.23-.07.33a.7.7 0 0 1-.21.24c-.1.07-.2.12-.34.16-.13.03-.28.11-.44.11h-1.48v-.14l.22-.02c.06-.01.1-.03.13-.06a.2.2 0 0 0 .06-.12l.01-.19v-2.14a.19.19 0 0 0-.06-.1.26.26 0 0 0-.14-.06 1.77 1.77 0 0 0-.22-.03V24h1.24Zm-.37 2.6c0 .07.02.12.06.14.04.03.1.04.21.04a4.89 4.89 0 0 0 .37-.02.9.9 0 0 0 .26-.1c.18-.1.27-.26.27-.5a.55.55 0 0 0-.39-.56.95.95 0 0 0-.3-.06 4.4 4.4 0 0 0-.49-.02v1.08Zm.43-1.25c.2 0 .36-.05.47-.14.12-.09.17-.22.17-.4 0-.2-.06-.34-.2-.44a.96.96 0 0 0-.58-.15h-.19c-.06 0-.1.04-.1.13v1h.43ZM33 27h-2.38v-.14c.08 0 .14-.02.19-.03a.23.23 0 0 0 .12-.06.22.22 0 0 0 .05-.11.92.92 0 0 0 .02-.19v-1.94c0-.07 0-.13-.02-.18a.2.2 0 0 0-.05-.12.25.25 0 0 0-.12-.06 1.05 1.05 0 0 0-.2-.03V24h2.34l.01.68h-.1l-.07-.23a.31.31 0 0 0-.12-.14.41.41 0 0 0-.18-.07 2.38 2.38 0 0 0-.3-.02h-.6c-.06 0-.1.01-.12.03-.02.02-.02.06-.02.12v.97h.67c.09 0 .16 0 .22-.02.06 0 .1-.03.13-.05a.28.28 0 0 0 .09-.13l.05-.21h.1v1h-.1l-.05-.21a.26.26 0 0 0-.08-.13.27.27 0 0 0-.14-.06 1.31 1.31 0 0 0-.22-.01h-.67V26.69c0 .02.02.03.03.04.02.02.07.03.15.04h.4l.4-.01c.1-.02.2-.05.27-.1.07-.03.14-.1.2-.17.05-.07.11-.17.16-.29h.13l-.2.8ZM36.27 27h-.71l-1.05-1.4h-.24v1.06l.06.12.12.06.2.02V27h-1.2v-.14c.07 0 .14-.02.19-.03a.21.21 0 0 0 .11-.07.25.25 0 0 0 .05-.12l.01-.22v-2.07a.21.21 0 0 0-.06-.11.23.23 0 0 0-.11-.06 1.28 1.28 0 0 0-.2-.04V24h1.21c.22 0 .41.09.58.14.18.06.3.14.38.23.06.06.1.13.12.2.03.09.04.17.04.26a.6.6 0 0 1-.19.47c-.12.11-.32.2-.6.25l.9 1.1c.07.08.12.13.18.16a.6.6 0 0 0 .2.05V27Zm-2-1.55a6.16 6.16 0 0 0 .46-.04 1.23 1.23 0 0 0 .31-.11c.08-.04.15-.1.19-.2a.64.64 0 0 0 .06-.28c0-.21-.06-.36-.2-.45-.12-.1-.33-.15-.6-.15-.1 0-.15.01-.18.04-.03.02-.04.06-.04.12v1.07ZM39.54 25.48a.75.75 0 0 0-.16.03.19.19 0 0 0-.1.05.2.2 0 0 0-.04.1v1.04a.79.79 0 0 1-.2.1 2.63 2.63 0 0 1-.91.2 1.9 1.9 0 0 1-.68-.12c-.2-.08-.38-.2-.53-.35a1.24 1.24 0 0 1-.27-.44 1.67 1.67 0 0 1-.09-.56c0-.23.04-.43.11-.62.08-.18.18-.34.31-.48.14-.13.3-.24.48-.32.18-.07.38-.11.6-.11.2 0 .4.03.6.1l.2.04a.2.2 0 0 0 .2-.14h.1l.03.92h-.1a4.6 4.6 0 0 0-.22-.41.9.9 0 0 0-.72-.34c-.17 0-.32.03-.45.1a.96.96 0 0 0-.34.26c-.1.1-.17.25-.22.43a1.92 1.92 0 0 0 0 1.11c.05.16.13.3.23.4.1.12.22.2.36.27a1.23 1.23 0 0 0 .9.01.4.4 0 0 0 .13-.08.15.15 0 0 0 .04-.1V25.67a.18.18 0 0 0-.06-.1.2.2 0 0 0-.12-.06 1.2 1.2 0 0 0-.2-.03v-.08h1.12v.08ZM42.14 27h-2.37v-.14c.08 0 .14-.02.19-.03a.23.23 0 0 0 .12-.06.22.22 0 0 0 .05-.11.92.92 0 0 0 .02-.19v-1.94c0-.07 0-.13-.02-.18a.2.2 0 0 0-.05-.12.25.25 0 0 0-.12-.06 1.05 1.05 0 0 0-.2-.03V24h2.34l.01.68h-.1l-.07-.23a.31.31 0 0 0-.11-.14.41.41 0 0 0-.2-.07 2.38 2.38 0 0 0-.3-.02h-.59c-.06 0-.1.01-.12.03-.02.02-.02.06-.02.12v.97h.67c.09 0 .16 0 .22-.02.06 0 .1-.03.13-.05a.28.28 0 0 0 .09-.13l.05-.21h.1v1h-.1a1.5 1.5 0 0 0-.05-.21.26.26 0 0 0-.08-.13.27.27 0 0 0-.14-.06 1.31 1.31 0 0 0-.22-.01h-.67V26.69c0 .02.02.03.03.04.02.02.07.03.15.04h.4l.4-.01c.1-.02.2-.05.27-.1.08-.03.14-.1.2-.17s.11-.17.16-.29h.13l-.2.8ZM45.45 27h-.71l-1.05-1.4h-.24v1.06l.07.12.12.06.2.02V27h-1.22v-.14c.08 0 .15-.02.2-.03a.21.21 0 0 0 .11-.07.25.25 0 0 0 .05-.12l.02-.22v-1.89c0-.07 0-.13-.02-.18a.21.21 0 0 0-.05-.11.23.23 0 0 0-.11-.06 1.28 1.28 0 0 0-.2-.04V24h1.22c.21 0 .4.09.57.14.18.06.3.14.39.23.05.06.09.13.12.2.02.09.03.17.03.26a.6.6 0 0 1-.18.47c-.13.11-.33.2-.61.25l.9 1.1c.07.08.13.13.18.16a.6.6 0 0 0 .2.05V27Zm-2-1.55a6.17 6.17 0 0 0 .46-.04 1.22 1.22 0 0 0 .32-.11c.08-.04.14-.1.18-.2a.64.64 0 0 0 .07-.28c0-.21-.07-.36-.2-.45-.13-.1-.33-.15-.62-.15-.08 0-.14.01-.17.04-.03.02-.04.06-.04.12v1.07ZM4.82 31.47a1 1 0 0 0 .02.2c0 .04.03.08.05.1.03.04.08.06.13.07l.21.02V32H4v-.14c.08 0 .15-.02.2-.03a.21.21 0 0 0 .1-.07.22.22 0 0 0 .05-.12l.02-.22v-1.89c0-.08 0-.14-.02-.18a.2.2 0 0 0-.05-.11.23.23 0 0 0-.1-.06 1.27 1.27 0 0 0-.2-.04V29h1.16c.22 0 .42.09.59.15.18.06.31.14.4.24.11.13.17.28.17.46 0 .14-.04.28-.12.4a.8.8 0 0 1-.3.29c-.1.05-.21.09-.34.11-.12.02-.26.03-.44.03h-.3v.79Zm0-.97a5.46 5.46 0 0 0 .25.01c.5 0 .76-.21.76-.64 0-.22-.07-.39-.2-.5-.15-.1-.37-.15-.67-.15-.06 0-.1.01-.11.03-.02.02-.03.06-.03.12v1.13ZM9.45 32h-.7l-1.06-1.4h-.24v.87l.01.19c.01.05.03.08.06.12l.12.06.2.02V32H6.63v-.14c.08 0 .14-.02.2-.03a.21.21 0 0 0 .1-.07.25.25 0 0 0 .06-.12l.01-.22v-1.89l-.01-.18a.21.21 0 0 0-.05-.11.23.23 0 0 0-.12-.06 1.28 1.28 0 0 0-.2-.04V29h1.22c.22 0 .4.09.58.14.17.06.3.14.38.23.05.06.1.13.12.2.03.09.04.17.04.26a.6.6 0 0 1-.2.47c-.11.11-.32.2-.6.25l.91 1.1c.06.08.12.13.17.16a.6.6 0 0 0 .21.05V32Zm-2-1.55a6.16 6.16 0 0 0 .47-.04 1.22 1.22 0 0 0 .3-.11c.09-.04.15-.1.2-.2a.64.64 0 0 0 .06-.28c0-.21-.07-.36-.2-.45-.13-.1-.33-.15-.61-.15-.1 0-.15.01-.18.04-.02.02-.04.06-.04.12v1.07ZM10.05 29.53l-.01-.2a.19.19 0 0 0-.06-.1.26.26 0 0 0-.13-.06 1.9 1.9 0 0 0-.23-.03V29h1.31v.14c-.1 0-.17.02-.22.03a.26.26 0 0 0-.13.05.21.21 0 0 0-.06.12.96.96 0 0 0-.02.2v1.93c0 .08 0 .14.02.2 0 .04.03.08.06.1.03.04.08.06.13.07l.22.02V32h-1.3v-.14l.22-.02c.05-.01.1-.03.13-.06a.2.2 0 0 0 .06-.12.97.97 0 0 0 .01-.19v-1.94ZM13.75 32l-1.94-2.4v1.7l.01.27c.01.07.04.13.07.17.03.04.07.07.12.08l.21.04V32H11.2v-.14c.09 0 .16-.02.21-.04.06-.01.1-.04.13-.08s.05-.1.06-.17l.02-.27v-1.91l-.11-.13a.33.33 0 0 0-.2-.1.54.54 0 0 0-.11-.02V29h.75l1.7 2.17V29.7c0-.27-.05-.43-.14-.49a.33.33 0 0 0-.1-.04l-.19-.03V29h1.03v.14a.85.85 0 0 0-.18.03.37.37 0 0 0-.1.05c-.1.06-.14.22-.14.48V32h-.07ZM17.06 29.98a1.93 1.93 0 0 0-.13-.32 1.06 1.06 0 0 0-.17-.22.92.92 0 0 0-.66-.27c-.15 0-.3.03-.43.1a.94.94 0 0 0-.33.26 1.2 1.2 0 0 0-.2.4 1.95 1.95 0 0 0 .03 1.2c.06.2.16.34.3.45.18.15.41.23.68.23.18 0 .35-.03.5-.1.16-.07.32-.18.48-.34l.08.08c-.13.17-.3.3-.51.4-.2.1-.44.15-.69.15-.22 0-.41-.04-.6-.1a1.36 1.36 0 0 1-.46-.3 1.37 1.37 0 0 1-.3-.47c-.07-.18-.1-.38-.1-.6 0-.25.04-.48.13-.68.09-.2.22-.37.38-.51.14-.1.29-.19.46-.25.16-.06.33-.09.5-.09.22 0 .43.04.65.1.07.03.13.04.17.04.05 0 .08 0 .11-.03a.2.2 0 0 0 .07-.11h.1l.04.98h-.1ZM18 29.53c0-.08-.02-.14-.03-.2a.19.19 0 0 0-.06-.1.26.26 0 0 0-.13-.06 1.9 1.9 0 0 0-.22-.03V29h1.3v.14c-.09 0-.16.02-.22.03a.26.26 0 0 0-.13.05.21.21 0 0 0-.06.12.95.95 0 0 0-.02.2v1.93a1 1 0 0 0 .02.2c.01.04.03.08.06.1.03.04.08.06.13.07l.22.02V32h-1.3v-.14l.22-.02c.06-.01.1-.03.13-.06a.2.2 0 0 0 .06-.12c.01-.04.03-.1.03-.19v-1.94ZM20 31.47a1 1 0 0 0 .02.2c0 .04.03.08.05.1.03.04.08.06.13.07l.21.02V32h-1.23v-.14c.08 0 .15-.02.2-.03a.21.21 0 0 0 .1-.07.22.22 0 0 0 .05-.12l.02-.22v-1.89c0-.08 0-.14-.02-.18a.2.2 0 0 0-.05-.11.22.22 0 0 0-.1-.06 1.27 1.27 0 0 0-.2-.04V29h1.16c.22 0 .41.09.59.15s.31.14.4.24c.11.13.17.28.17.46 0 .14-.04.28-.12.4a.8.8 0 0 1-.3.29c-.1.05-.21.09-.34.11-.12.02-.26.03-.44.03H20v.79Zm0-.97a5.47 5.47 0 0 0 .25.01c.5 0 .76-.21.76-.64 0-.22-.07-.39-.2-.5-.15-.1-.37-.15-.67-.15-.06 0-.1.01-.11.03-.02.02-.03.06-.03.12v1.13ZM24.75 32h-1.12v-.14h.1a1 1 0 0 0 .1-.02l.04-.02a.13.13 0 0 0 .04-.04.11.11 0 0 0 .02-.07.8.8 0 0 0-.08-.3l-.19-.4h-1.14l-.2.5a.47.47 0 0 0-.03.17c-.01.06 0 .1.06.13.04.03.12.05.23.05V32h-.88v-.14c.06 0 .1-.01.14-.03a.3.3 0 0 0 .12-.1 9.2 9.2 0 0 0 .3-.6l.9-2.13h.1l1.09 2.48.1.2c.02.04.05.08.08.1l.09.06.13.02V32Zm-1.14-1.17-.51-1.2-.51 1.2h1.02ZM27.53 31.18l-.22.82h-2.36v-.14c.08 0 .14-.02.2-.03a.23.23 0 0 0 .1-.06.22.22 0 0 0 .07-.11.93.93 0 0 0 .01-.19v-1.94l-.01-.18a.2.2 0 0 0-.06-.12.25.25 0 0 0-.12-.06 1.05 1.05 0 0 0-.19-.03V29h1.24v.14l-.21.03a.22.22 0 0 0-.13.06.22.22 0 0 0-.06.12.92.92 0 0 0-.01.18v2.06l.01.1a.1.1 0 0 0 .06.05l.11.03h.5c.18 0 .34-.02.46-.06.13-.05.23-.11.3-.2a3.04 3.04 0 0 0 .19-.32h.12ZM31.23 30.38v-.85c0-.08 0-.14-.02-.18a.2.2 0 0 0-.05-.12.2.2 0 0 0-.11-.05 1.41 1.41 0 0 0-.2-.04V29h1.21v.14l-.2.04a.23.23 0 0 0-.12.05.21.21 0 0 0-.05.12l-.01.18v2.13c.02.04.04.08.07.1.02.04.06.06.11.07l.2.03V32h-1.22v-.14l.2-.02a.21.21 0 0 0 .12-.07.25.25 0 0 0 .05-.13l.02-.22v-.85h-1.34v.9l.01.19c.01.04.03.08.06.1.03.04.07.06.12.07l.2.03V32h-1.22v-.14l.2-.02a.21.21 0 0 0 .12-.07.25.25 0 0 0 .05-.13l.02-.22v-1.89c0-.08 0-.14-.02-.18a.2.2 0 0 0-.05-.12.2.2 0 0 0-.12-.05 1.41 1.41 0 0 0-.2-.04V29h1.22v.14l-.2.04a.23.23 0 0 0-.12.05.24.24 0 0 0-.06.12v1.03h1.33ZM33.88 29a1.4 1.4 0 0 1 1.33.94c.06.17.09.36.09.56 0 .22-.04.42-.11.6a1.36 1.36 0 0 1-1.33.9c-.22 0-.41-.04-.59-.11a1.32 1.32 0 0 1-.75-.79 1.74 1.74 0 0 1 0-1.22 1.37 1.37 0 0 1 1.36-.88Zm-.04.15a.88.88 0 0 0-.76.5 1.93 1.93 0 0 0-.16.84c0 .27.04.5.1.7.07.2.17.36.3.46.15.13.33.2.54.2a.8.8 0 0 0 .58-.24c.23-.23.35-.6.35-1.13 0-.26-.03-.48-.1-.68-.07-.2-.17-.34-.3-.45a.85.85 0 0 0-.55-.2ZM38.2 31.18l-.22.82h-2.36v-.14c.08 0 .14-.02.19-.03a.23.23 0 0 0 .12-.06.22.22 0 0 0 .05-.11.93.93 0 0 0 .02-.19v-1.94c0-.07 0-.13-.02-.18a.2.2 0 0 0-.05-.12.25.25 0 0 0-.12-.06 1.05 1.05 0 0 0-.2-.03V29h1.24v.14l-.2.03a.22.22 0 0 0-.13.06.22.22 0 0 0-.06.12.92.92 0 0 0-.01.18v2.16a.1.1 0 0 0 .07.05l.11.03h.5c.18 0 .33-.02.46-.06.12-.05.23-.11.3-.2a3.09 3.09 0 0 0 .19-.32h.12ZM38.82 29.53v-.2a.18.18 0 0 0-.06-.1.2.2 0 0 0-.12-.06 1.86 1.86 0 0 0-.2-.03V29h1.18c.28 0 .53.09.74.16.22.06.4.15.56.27.15.13.26.28.34.45.08.18.12.38.12.6 0 .23-.04.43-.12.62-.09.2-.2.35-.36.48-.14.12-.32.2-.53.27-.21.06-.44.15-.69.15h-1.24v-.14l.2-.02a.23.23 0 0 0 .11-.06.22.22 0 0 0 .06-.12.92.92 0 0 0 .01-.19v-1.94Zm.45 2.07c0 .07.02.12.05.14.03.03.09.04.17.04.2 0 .37-.01.5-.04.14-.03.26-.07.37-.14.36-.2.54-.56.54-1.08 0-.24-.04-.45-.13-.64a1.12 1.12 0 0 0-.78-.6c-.14-.04-.3-.06-.5-.06-.08 0-.14.01-.17.04-.03.02-.05.06-.05.13v2.21ZM42.17 29.53c0-.08 0-.14-.02-.2a.19.19 0 0 0-.06-.1.26.26 0 0 0-.13-.06 1.9 1.9 0 0 0-.22-.03V29h1.3v.14c-.09 0-.16.02-.22.03a.26.26 0 0 0-.13.05.21.21 0 0 0-.06.12.96.96 0 0 0-.02.2v1.93l.02.2c.01.04.03.08.07.1.03.04.07.06.13.07l.22.02V32h-1.31v-.14l.22-.02c.06-.01.1-.03.13-.06a.2.2 0 0 0 .06-.12.97.97 0 0 0 .02-.19v-1.94ZM45.93 32l-2.01-2.4v1.7c0 .11 0 .2.02.27 0 .07.03.13.06.17.03.04.07.07.13.08l.2.04V32H43.3v-.14c.1 0 .17-.02.22-.04.06-.01.1-.04.13-.08s.05-.1.06-.17l.01-.27v-1.91l-.1-.13a.33.33 0 0 0-.2-.1.54.54 0 0 0-.12-.02V29h.76l1.76 2.17V29.7c0-.27-.05-.43-.13-.49a.33.33 0 0 0-.11-.04l-.18-.03V29h1.02v.14a.84.84 0 0 0-.18.03.37.37 0 0 0-.1.05c-.09.06-.14.22-.14.48V32h-.07ZM49.66 30.48a.75.75 0 0 0-.16.03.19.19 0 0 0-.09.05.2.2 0 0 0-.04.1l-.01.15v.89a.79.79 0 0 1-.2.1 2.63 2.63 0 0 1-.9.2 1.9 1.9 0 0 1-.68-.12c-.2-.08-.38-.2-.53-.35a1.24 1.24 0 0 1-.28-.44 1.67 1.67 0 0 1-.08-.56 1.45 1.45 0 0 1 .42-1.1 1.44 1.44 0 0 1 1.08-.43c.2 0 .4.03.6.1.09.03.15.04.2.04a.2.2 0 0 0 .12-.04.2.2 0 0 0 .07-.1h.1l.03.92h-.1a4.6 4.6 0 0 0-.22-.41.9.9 0 0 0-.72-.34c-.16 0-.31.03-.45.1a.96.96 0 0 0-.34.26c-.09.1-.16.25-.22.43a1.92 1.92 0 0 0 0 1.11c.06.16.14.3.24.4.1.12.22.2.36.27a1.23 1.23 0 0 0 .9.01.4.4 0 0 0 .12-.08.15.15 0 0 0 .05-.1v-.7l-.01-.2a.18.18 0 0 0-.06-.1.2.2 0 0 0-.11-.06 1.2 1.2 0 0 0-.21-.03v-.08h1.12v.08ZM51.9 29.93h-.1a2.21 2.21 0 0 0-.12-.3 1.48 1.48 0 0 0-.16-.21.73.73 0 0 0-.54-.24.5.5 0 0 0-.33.1.36.36 0 0 0-.12.3c0 .12.05.23.15.33.1.1.26.22.5.34.28.16.5.32.62.47a.73.73 0 0 1-.06 1.05.88.88 0 0 1-.28.17c-.11.04-.23.06-.36.06-.09 0-.18 0-.26-.02a1.12 1.12 0 0 1-.26-.08.97.97 0 0 0-.2-.05.1.1 0 0 0-.1.04.17.17 0 0 0-.03.1h-.1l-.13-.92h.1c.11.27.24.47.38.6.14.11.31.17.51.17.17 0 .3-.04.4-.13.1-.09.14-.2.14-.35a.52.52 0 0 0-.06-.26 1.02 1.02 0 0 0-.25-.25 3.01 3.01 0 0 0-.4-.26 2.45 2.45 0 0 1-.32-.2 1.17 1.17 0 0 1-.21-.19.72.72 0 0 1-.16-.45c0-.24.08-.43.25-.57.08-.06.16-.1.24-.13a.72.72 0 0 1 .26-.05c.08 0 .16 0 .23.03.08.01.16.03.25.07a.65.65 0 0 0 .2.04c.06 0 .11-.04.13-.14h.1l.09.93Z" fill="#fff"/></svg>