<!-- by TradingView --><svg xmlns="http://www.w3.org/2000/svg" width="56" height="56" viewBox="0 0 56 56"><path fill="#F0F3FA" d="M0 0h56v56H0z"/><path d="M19 31v-6.99l2.14-.01c1.08 0 1.92.83 1.92 1.88a1.85 1.85 0 0 1-.52 1.33 1.74 1.74 0 0 1-1.29.52h-1.47V31H19zm2.02-3.82c.74 0 1.24-.54 1.24-1.32 0-.33-.14-.65-.36-.89a1.24 1.24 0 0 0-.86-.38h-1.26v2.59h1.24zM27.08 31l-.78-2h-2.88l-.87 2h-.65l2.7-6.75.85-.25L28 31h-.93zm-2.15-5.9l-1.3 3.25h2.48l-1.18-3.25zm4.05-.84V31h3.63l-.32-.58h-2.45V24l-.86.26zM38.55 31l-.8-2h-2.88l-.85 2h-.66l2.7-6.75.85-.25 2.56 7h-.92zm-2.16-5.9l-1.3 3.25h2.48L36.4 25.1zm3.76-.55V31h.87v-6.45h2V24l-4.74.01-.26.54h2.13zM44.1 31v-6.72L45 24v7h-.9zm2.92-5.62L51.16 31H52v-7h-.59v5.86L47.1 24l-.68.22V31h.6v-5.62z" fill="#F46957"/><path d="M7.63 23l5.14.55v2.71L7.63 23z" fill="url(#asla5uj4x)"/><path d="M7.51 23.15L10.26 25 7.01 26.8l-1.02-1.24 1.52-2.42z" fill="url(#bsla5uj4x)"/><path d="M5.86 25.79L4 28.68 11.76 33l-5.9-7.21z" fill="url(#csla5uj4x)"/><path d="M9.93 30.39L18 27.82l-6.03 5.07-2.04-2.5z" fill="url(#dsla5uj4x)"/><path d="M13 29.14l2.27-.71L13 23.6v5.53z" fill="url(#esla5uj4x)"/><defs><linearGradient id="asla5uj4x" x1="13.41" y1="25.25" x2="10.2" y2="20.75" gradientUnits="userSpaceOnUse"><stop stop-color="#6D28A9" stop-opacity="0"/><stop offset=".09" stop-color="#6D28A9" stop-opacity=".22"/><stop offset=".2" stop-color="#6D28A9" stop-opacity=".46"/><stop offset=".31" stop-color="#6D28A9" stop-opacity=".66"/><stop offset=".42" stop-color="#6D28A9" stop-opacity=".81"/><stop offset=".54" stop-color="#6D28A9" stop-opacity=".91"/><stop offset=".66" stop-color="#6D28A9" stop-opacity=".98"/><stop offset=".8" stop-color="#6D28A9"/></linearGradient><linearGradient id="bsla5uj4x" x1="6.52" y1="26.34" x2="8.66" y2="23.54" gradientUnits="userSpaceOnUse"><stop offset=".09" stop-color="#6D28A9"/><stop offset=".2" stop-color="#6D28A9" stop-opacity=".95"/><stop offset=".36" stop-color="#6D28A9" stop-opacity=".81"/><stop offset=".57" stop-color="#6D28A9" stop-opacity=".59"/><stop offset=".81" stop-color="#6D28A9" stop-opacity=".28"/><stop offset="1" stop-color="#6D28A9" stop-opacity="0"/></linearGradient><linearGradient id="csla5uj4x" x1="5.1" y1="26.21" x2="9.31" y2="34.34" gradientUnits="userSpaceOnUse"><stop stop-color="#6D28A9" stop-opacity="0"/><stop offset=".08" stop-color="#6D28A9" stop-opacity=".17"/><stop offset=".21" stop-color="#6D28A9" stop-opacity=".42"/><stop offset=".35" stop-color="#6D28A9" stop-opacity=".63"/><stop offset=".49" stop-color="#6D28A9" stop-opacity=".79"/><stop offset=".62" stop-color="#6D28A9" stop-opacity=".91"/><stop offset=".76" stop-color="#6D28A9" stop-opacity=".98"/><stop offset=".91" stop-color="#6D28A9"/></linearGradient><linearGradient id="dsla5uj4x" x1="11.01" y1="31.95" x2="13.72" y2="25.32" gradientUnits="userSpaceOnUse"><stop offset=".01" stop-color="#6D28A9" stop-opacity=".05"/><stop offset=".06" stop-color="#6D28A9" stop-opacity=".28"/><stop offset=".11" stop-color="#6D28A9" stop-opacity=".47"/><stop offset=".16" stop-color="#6D28A9" stop-opacity=".64"/><stop offset=".23" stop-color="#6D28A9" stop-opacity=".77"/><stop offset=".3" stop-color="#6D28A9" stop-opacity=".88"/><stop offset=".39" stop-color="#6D28A9" stop-opacity=".94"/><stop offset=".51" stop-color="#6D28A9" stop-opacity=".99"/><stop offset=".8" stop-color="#6D28A9"/></linearGradient><linearGradient id="esla5uj4x" x1="14.11" y1="29.14" x2="14.11" y2="23.61" gradientUnits="userSpaceOnUse"><stop stop-color="#6D28A9" stop-opacity="0"/><stop offset=".02" stop-color="#6D28A9" stop-opacity=".05"/><stop offset=".11" stop-color="#6D28A9" stop-opacity=".3"/><stop offset=".2" stop-color="#6D28A9" stop-opacity=".52"/><stop offset=".3" stop-color="#6D28A9" stop-opacity=".69"/><stop offset=".4" stop-color="#6D28A9" stop-opacity=".83"/><stop offset=".51" stop-color="#6D28A9" stop-opacity=".93"/><stop offset=".64" stop-color="#6D28A9" stop-opacity=".98"/><stop offset=".8" stop-color="#6D28A9"/></linearGradient></defs></svg>