<!-- by TradingView --><svg width="56" height="56" viewBox="0 0 56 56" xmlns="http://www.w3.org/2000/svg"><path fill="#F0F3FA" d="M0 0h56v56H0z"/><path d="M41.14 39c-3.02 3.91-8.22 6-13.02 6-4.2 0-9.35-1.44-13.06-6h26.08ZM28.22 11c9.95 0 15.24 7.93 16.13 12.04l-8.75-2.37-7.58-4.42-2.77-.5v2.04l2.13 1.98-2.97-.25s.1.15 2.57 2.78l11.29 1.88 1.98 1.3-5.15.24-2.13 7.78L26 38h-4.55l1.53-2.86-.24-.1L18.62 38h-.99l4.2-5.74c.2-1.69.1-.94.36-3.96l-.65-.9-1.68 6.55L16.34 38h-.89l2.08-2.76 2.92-8.98-.74.35-1.29 3.57-.89.5s-2.08 5.05-3.17 7.53A17.3 17.3 0 0 1 11 27.51C11 19.46 17.88 11 28.22 11Zm14.5 17.74 2.28.8A16.04 16.04 0 0 1 41.83 38h-3.81l3.61-5.54 1.1-3.72ZM39.8 27.6l2.28.94-1.58 3.72-1.44 1.24-2.88 4.5h-1.87l1.88-3.16 1.48-1.24 2.13-6Zm-4.5 5.06.44.84-2.47 4.5H30.9l4.4-5.34ZM28.22 12C18.52 12 12 20.07 12 27.5c0 4.27 1.23 6.4 2.36 8.43l4.3-11.55s1.35-.7 1.35-.6l1.93-4.9 1.24-.65 1.53-3.27 3.36.55 6.83 3.82 7.82 2.13C40.74 16.4 35 12 28.22 12Zm8.12 14.21 2.91 1.2-2.07 3.91-1.14.2.3-2.28-.3-.45.3-2.58Z" fill="#002246"/></svg>