<!-- by TradingView --><svg width="56" height="56" viewBox="0 0 56 56" xmlns="http://www.w3.org/2000/svg"><path fill="#F0F3FA" d="M0 0h56v56H0z"/><path d="M45 28a17 17 0 1 1-34 0 17 17 0 0 1 34 0ZM23.55 39h9c.27 0 .45-.23.45-.6v-.99c0-.23 0-.32-.08-.4-.1-.1-.19-.1-.46-.1-2-.19-3.14-1.78-3.14-2.71l-.36-12.8c0-.29-.19-.4-.46-.4h-1c-.27 0-.45.11-.45.4l-.37 12.8c0 .93-1.13 2.52-3.13 2.71-.19 0-.37.1-.46.19-.09.09-.09.27-.09.27v1.12c0 .28.27.51.55.51Zm10.54-6h3.46c1.45 0 2.81-1.13 3-2.43 0-.17 0-.57-.46-.57h-.45l-3.1-11.47c-.18-.27-.45-.53-.81-.53h-6.37c-.09-.65-.54-1-1.27-1s-1.18.35-1.27 1h-6.37c-.36 0-.72.16-.81.53L16.54 30H16c-.23 0-.36.06-.36.29a3 3 0 0 0 2.9 2.71h3.37a3 3 0 0 0 2.9-2.71c0-.27-.12-.29-.36-.29h-.54l-2.6-10h13.44l-2.57 10h-.63c-.24 0-.37.16-.37.38.1 1.49 1.46 2.62 2.91 2.62Zm1.73-11.59 2 8.59h-4l2-8.59ZM22.27 30h-4l2-8.59 2 8.59Z" fill="#0072BB"/></svg>