<!-- by TradingView --><svg width="56" height="56" viewBox="0 0 56 56" xmlns="http://www.w3.org/2000/svg"><path fill="#F0F3FA" d="M0 0h56v56H0z"/><path d="M31.05 13.38c5.55-.4 6.44 3.72 6.44 3.72 4.36 1.1 3.57 5.92 3.57 5.92 2.28 1.9 1.1 4.82 1.1 4.82 2.37 3.91-1 6.92-1 6.92.5 4.52-3.27 4.92-3.27 4.92-.7 3.71-4.76 3.11-4.76 3.11-2.87 2-5.35.7-5.35.7V12.2c1.29-.61 3.27 1.2 3.27 1.2Z" fill="url(#a1myfjrgg)"/><path d="M24.51 13.59c-5.35-.3-6.24 3.7-6.24 3.7-4.17 1.11-3.37 5.93-3.37 5.93-2.18 1.9-1.1 4.82-1.1 4.82-2.27 3.91 1 6.92 1 6.92-.5 4.52 3.17 4.92 3.17 4.92.7 3.71 4.56 3.11 4.56 3.11 2.77 2 5.25.4 5.25.4V12.1c-1.49-.51-3.27 1.5-3.27 1.5Z" fill="url(#b1myfjrgg)"/><path d="M41.36 27.94c0 .4.3.7.7.7.19 0 .29 0 .39-.1 0 0-.1-.3-.4-.7l.2-.6h-.2c-.4 0-.7.3-.7.7ZM17.77 29.54c0 .4-.3.7-.7.7-.39 0-.69-.3-.69-.7 0-.4.3-.7.7-.7.3 0 .69.3.69.7ZM14.5 27.94c0 .4-.3.7-.7.7-.1 0-.2 0-.29-.1 0 0 .1-.3.3-.5-.2-.4-.2-.9-.2-.9h.2c.4.1.7.4.7.8ZM21.74 24.83c0 .4-.3.7-.7.7-.4 0-.7-.3-.7-.7 0-.4.3-.7.7-.7.4 0 .7.3.7.7ZM25 27.94c0 .4-.3.7-.69.7-.4 0-.7-.3-.7-.7 0-.4.3-.7.7-.7.4 0 .7.3.7.7ZM28.47 31.65c0 .4-.3.7-.69.7-.4 0-.7-.3-.7-.7 0-.4.3-.7.7-.7.4-.1.7.3.7.7ZM28.47 43.1c0 .2-.1.4-.2.6 0 0-.3-.1-.49-.2-.1.1-.4.2-.4.2-.2-.1-.3-.3-.3-.6 0-.41.3-.71.7-.71.4 0 .7.3.7.7ZM17.87 25.13c0 .4-.3.7-.7.7-.39 0-.69-.3-.69-.7 0-.4.3-.7.7-.7.4 0 .69.3.69.7ZM18.96 17.1c0 .4-.3.7-.7.7-.3 0-.59-.2-.69-.5 0 0 .3-.2.7-.2.1-.3.2-.7.2-.7.3.1.49.3.49.7ZM15.5 22.52c.19.3.1.8-.2 1-.2.1-.5.1-.7 0l.3-.3c-.1-.5 0-1.1 0-1.1.2 0 .5.2.6.4ZM21.93 18.4c0 .4-.3.7-.69.7-.4 0-.7-.3-.7-.7 0-.4.3-.7.7-.7.4-.1.7.3.7.7ZM25.2 13.49c0 .4-.3.7-.69.7-.3 0-.6-.2-.7-.6h.7c.2-.2.6-.5.6-.5 0 .1.1.2.1.4ZM26.2 19.4c0 .4-.3.7-.7.7-.4 0-.7-.3-.7-.7 0-.4.3-.7.7-.7.4 0 .7.3.7.7ZM19.95 34.66c0 .4-.3.7-.7.7-.39 0-.69-.3-.69-.7 0-.4.3-.7.7-.7.4-.1.7.3.7.7ZM15.4 34.66c0 .4-.3.7-.7.7v-.3c-.4-.4-.7-.8-.7-.8.1-.2.3-.3.6-.3.5-.1.8.3.8.7ZM23.62 33.46c0 .4-.3.7-.7.7-.4 0-.69-.3-.69-.7 0-.4.3-.7.7-.7.4-.1.69.3.69.7ZM18.47 39.78c0 .3-.2.5-.4.6 0 0-.1-.2-.1-.5-.6-.1-.9-.3-.9-.3 0-.4.3-.6.7-.6.4.1.7.4.7.8ZM23.22 42.79c0 .2-.1.4-.2.6 0 0-.3-.1-.5-.3-.29.1-.59 0-.59 0 0-.1-.1-.2-.1-.3 0-.4.3-.7.7-.7.4 0 .7.3.7.7Z" fill="#F0F3FA"/><path d="m16.78 29.24-.1.3-2.58-1.3.2-.3 2.48 1.3ZM21.04 24.73l.1.3-3.77.5-.1-.4 3.77-.4Z" fill="#F0F3FA"/><path d="m17.18 25.03.2.3-3.28 2.7-.3-.3 3.38-2.7ZM18.96 34.53l-3.77.06v.4l3.77-.06v-.4ZM22.83 33.26l.2.3-3.67 1.3-.1-.4 3.57-1.2Z" fill="#F0F3FA"/><path d="m27.68 31.45.1.4-4.76 1.8-.1-.4 4.76-1.8ZM20.84 24.93l.2.3-3.47 4.01-.3-.2 3.57-4.11ZM27.78 24.63h-6.74v.4h6.74v-.4Z" fill="#F0F3FA"/><path d="m27.98 24.93-.4.2-2.28-5.52.3-.2 2.38 5.52ZM21.14 18.2l.3.2-4.16 6.83-.3-.2 4.16-6.83Z" fill="#F0F3FA"/><path d="m27.68 24.73-.2.3-6.14-6.13.3-.3 6.04 6.13ZM28.18 24.83l-.2-.3 6.24-5.93.2.3-6.24 5.93ZM20.94 18.4l.2.3L15 23.02l-.1-.3 6.04-4.32ZM27.68 15.1l.2.3-6.54 3-.1-.4 6.44-2.9ZM17.1 24.9l-.08 4.8.4.02.08-4.82h-.4Z" fill="#F0F3FA"/><path d="m15 23.12.1-.4 2.27 2.3-.3.2-2.07-2.1ZM24.11 13.69l.4.2-3.37 4.81-.3-.2 3.27-4.81Z" fill="#F0F3FA"/><path d="m21.34 18.2-.2.4-2.87-1.4.2-.3 2.87 1.3ZM25.2 19.2l-.1.4-3.46-.9.1-.4 3.46.9ZM27.68 15l.4.2-2.48 4.3-.3-.2 2.38-4.3Z" fill="#F0F3FA"/><path d="M27.68 19.8v.4l-2.08-.6v-.4l2.08.6ZM16.88 29.44l.3.2L15 34.56l-.4-.1 2.28-5.02ZM24.11 28.14l.4.1-1.39 5.32-.4-.1 1.4-5.32ZM27.48 24.73l.3.3-3.37 3.1-.2-.3 3.27-3.1Z" fill="#F0F3FA"/><path d="m22.92 33.26-.2.3-5.44-3.62.2-.3 5.44 3.62ZM24.6 27.64l.1.3-7.52 1.7v-.3l7.43-1.7Z" fill="#F0F3FA"/><path d="m19.36 34.56-.3.2-1.98-4.62.3-.2 1.98 4.62ZM24.5 27.64l-.19.3-3.37-3.01.3-.3 3.27 3Z" fill="#F0F3FA"/><path d="M20.96 18.68 20.88 25h.4l.08-6.32h-.4ZM22.63 42.69l-.3.1-3.07-7.73.3-.1 3.07 7.73ZM27.58 42.79l-.3.2-4.45-9.33.3-.1 4.45 9.23Z" fill="#F0F3FA"/><path d="m28.08 42.89-.3.3-8.62-8.43.3-.2 8.62 8.33ZM33.13 42.49l-.3.2-5.45-6.72.3-.2 5.45 6.72Z" fill="#F0F3FA"/><path d="m22.73 42.89-.3-.2 5.05-7.03.3.2-5.05 7.03ZM17.97 39.78l-.3-.1 1.29-4.72.3.1-1.3 4.72Z" fill="#F0F3FA"/><path d="m27.58 35.46-.1.4-4.16-2.2.2-.3 4.06 2.1ZM24.21 27.94l.2-.2 3.67 3.81-.2.2-3.67-3.81ZM38.09 29.54c0 .4.3.7.69.7.4 0 .7-.3.7-.7 0-.4-.3-.7-.7-.7-.4 0-.7.3-.7.7ZM40.27 22.92c0 .4.3.7.7.7.19 0 .39-.1.49-.2 0 0-.2-.3-.5-.5.1-.4.1-.8.1-.8h-.1c-.4 0-.7.4-.7.8ZM33.92 24.83c0 .4.3.7.7.7.4 0 .7-.3.7-.7 0-.4-.3-.7-.7-.7-.4 0-.7.3-.7.7ZM26.99 24.83c0 .4.3.7.7.7.39 0 .69-.3.69-.7 0-.4-.3-.7-.7-.7-.4 0-.7.3-.7.7ZM26.99 15.2c0 .4.3.7.7.7.39 0 .69-.3.69-.7 0-.41-.3-.71-.7-.71-.4 0-.7.3-.7.7ZM26.99 12.18c0 .4.3.7.7.7.39 0 .69-.3.69-.7v-.1s-.4-.1-.7.1c-.4-.2-.7-.1-.7 0 0-.1 0-.1 0 0ZM30.46 27.94c0 .4.3.7.69.7.4 0 .7-.3.7-.7 0-.4-.3-.7-.7-.7-.4 0-.7.3-.7.7Z" fill="#F0F3FA"/><path d="M26.89 31.65c0 .4.3.7.7.7.39 0 .69-.3.69-.7 0-.4-.3-.7-.7-.7-.4-.1-.7.3-.7.7ZM37.89 25.13c0 .4.3.7.7.7.39 0 .69-.3.69-.7 0-.4-.3-.7-.7-.7-.4 0-.7.3-.7.7ZM36.7 17.1c0 .4.3.7.7.7.29 0 .59-.2.69-.5 0 0-.4-.2-.7-.2-.1-.4-.3-.7-.3-.7-.2.1-.4.3-.4.7ZM33.63 18.4c0 .4.3.7.7.7.39 0 .68-.3.68-.7 0-.4-.3-.7-.69-.7-.3-.1-.7.3-.7.7ZM30.26 13.49c0 .4.3.7.7.7.39 0 .69-.3.69-.7v-.1h-.7c-.2-.2-.5-.4-.5-.4-.1.1-.2.3-.2.5ZM29.27 19.4c0 .4.3.7.7.7.39 0 .69-.3.69-.7 0-.4-.3-.7-.7-.7-.4 0-.7.3-.7.7ZM35.7 34.66c0 .4.3.7.7.7.4 0 .7-.3.7-.7 0-.4-.3-.7-.7-.7-.4-.1-.7.3-.7.7ZM40.46 34.66c0 .4.3.7.7.7v-.6l.6-.6c-.1-.1-.3-.2-.5-.2-.5-.1-.8.3-.8.7ZM31.94 33.46c0 .4.3.7.7.7.4 0 .7-.3.7-.7 0-.4-.3-.7-.7-.7-.4-.1-.7.3-.7.7ZM37.2 39.68c0 .3.2.6.5.7 0 0 .19-.3.19-.7.6-.1.8-.2.8-.2-.1-.3-.4-.5-.7-.5-.5 0-.8.3-.8.7ZM32.34 42.79c0 .1 0 .3.1.4 0 0 .4-.2.6-.4.3.1.69 0 .69 0 0-.4-.3-.7-.7-.7-.4 0-.69.3-.69.7ZM38.98 29.24l.2.3 2.67-1.3-.2-.3-2.67 1.3Z" fill="#F0F3FA"/><path d="m34.62 24.73-.1.3 3.96.5v-.4l-3.86-.4ZM39.08 25.03l-.3.3 3.17 2.5.2-.3-3.07-2.5ZM36.83 34.48v.4l3.96.06v-.4l-3.96-.06ZM32.74 33.26l-.2.3 3.76 1.3.1-.4-3.66-1.2Z" fill="#F0F3FA"/><path d="m27.68 31.45-.1.4 4.96 1.8.2-.4-5.06-1.8ZM34.82 24.93l-.2.3 3.57 4.01.3-.2-3.67-4.11ZM34.62 24.63h-7.04v.4h7.04v-.4Z" fill="#F0F3FA"/><path d="m27.38 24.93.4.2 2.38-5.52-.4-.2-2.38 5.52ZM34.52 18.2l-.3.2 4.26 6.83.3-.2-4.26-6.83Z" fill="#F0F3FA"/><path d="m34.72 18.4-.2.3 6.34 4.32.1-.4-6.24-4.22ZM27.68 15.1l-.2.3 6.74 3 .2-.4-6.74-2.9ZM38.74 24.92l-.4.01.08 4.82h.4l-.08-4.83Z" fill="#F0F3FA"/><path d="m40.96 23.02-.1-.3-2.38 2.3.2.2 2.28-2.2ZM31.35 13.59l-.3.3 3.47 4.81.3-.2-3.47-4.91Z" fill="#F0F3FA"/><path d="m34.32 18.2.2.4 2.97-1.4-.2-.3-2.97 1.3ZM30.26 19.2l.1.4 3.66-.9-.1-.4-3.66.9ZM27.68 15l-.4.2 2.58 4.3.3-.2-2.48-4.3Z" fill="#F0F3FA"/><path d="M27.68 19.8v.4l2.28-.6-.1-.3-2.18.5ZM38.98 29.44l-.3.2 2.28 4.92.3-.1-2.28-5.02ZM31.35 28.14l-.3.1 1.39 5.32.4-.1-1.5-5.32ZM27.88 24.73l-.3.3 3.47 3.1.3-.3-3.47-3.1Z" fill="#F0F3FA"/><path d="m32.64 33.26.2.3 5.64-3.62-.2-.3-5.64 3.62ZM30.85 27.64l-.1.3 7.83 1.7.1-.3-7.83-1.7Z" fill="#F0F3FA"/><path d="m36.4 34.56.3.2 2.08-4.62-.4-.2-1.98 4.62ZM30.95 27.64l.3.3 3.47-3.01-.3-.3-3.47 3Z" fill="#F0F3FA"/><path d="M34.68 18.6h-.4l.08 6.33h.4l-.08-6.33ZM32.93 42.69l.5-.2 3.07-7.43-.4-.1-3.17 7.73ZM27.78 42.79l.3.2 4.65-9.33-.3-.1-4.65 9.23Z" fill="#F0F3FA"/><path d="m27.29 42.89.3.3 9.01-8.43-.3-.2-9.01 8.33Z" fill="#F0F3FA"/><path d="m37.69 39.58.3-.1-1.3-4.72-.39.1 1.39 4.72ZM27.78 35.56v.4l4.46-2.1-.2-.3-4.26 2ZM31.35 27.94l-.3-.2-3.76 3.81.2.2 3.86-3.81ZM27.48 12.18h.3l.1 3.21h-.3l-.1-3.2Z" fill="#F0F3FA"/><path d="M28.28 35.87c0 .4-.3.7-.7.7-.4 0-.7-.3-.7-.7 0-.4.3-.7.7-.7.4-.1.7.3.7.7Z" fill="#F0F3FA"/><defs><linearGradient id="a1myfjrgg" x1="26.04" y1="28.32" x2="42.55" y2="28.32" gradientUnits="userSpaceOnUse"><stop stop-color="#00B3AE"/><stop offset="1" stop-color="#0E6288"/></linearGradient><linearGradient id="b1myfjrgg" x1="28.51" y1="29.33" x2="13.21" y2="29.25" gradientUnits="userSpaceOnUse"><stop stop-color="#D8B942"/><stop offset=".34" stop-color="#8FAB42"/><stop offset=".65" stop-color="#53A042"/><stop offset=".88" stop-color="#2D9942"/><stop offset="1" stop-color="#1F9642"/></linearGradient></defs></svg>