<!-- by TradingView --><svg width="56" height="56" viewBox="0 0 56 56" xmlns="http://www.w3.org/2000/svg"><path fill="#F0F3FA" d="M0 0h56v56H0z"/><path d="M12 17.76v-.07l.04-.03a.12.12 0 0 1 .12-.02l13.03 4.4a.18.18 0 0 0 .2-.05l8.25-10.95a.09.09 0 0 1 .14 0l.02.05-.2 13.27c0 .2.07.32.2.36a10386.74 10386.74 0 0 1 13.2 4.3.04.04 0 0 1 0 .05l-.03.02-13.36 4.03a.12.12 0 0 0-.06.04 1635.43 1635.43 0 0 0-.18 11.72l-.04.03a.08.08 0 0 1-.08-.02l-8.27-7.6c-.21-.2-.22-.32-.56-.28l-11.7 1.32c-.08 0-.1-.02-.05-.09l7.28-9.44a.1.1 0 0 0 0-.12 7475.3 7475.3 0 0 1-7.62-10.37 3.84 3.84 0 0 1-.33-.55ZM25.55 23l-7.44-2.49h-.04a.04.04 0 0 0-.02.02v.04s0 .02.02.02c2.58 1.6 5.18 3.17 7.79 4.72a5.52 5.52 0 0 1 .65.44.11.11 0 0 0 .1-.02.1.1 0 0 0 .03-.04l4.74-10.13v-.03a.04.04 0 0 0-.02-.03h-.03a.05.05 0 0 0-.03.02l-5.64 7.45a.1.1 0 0 1-.1.03Zm6.48 9.12.01-.03.02-.01 10.07-3.03s.02 0 .02-.02a.04.04 0 0 0 0-.05l-.02-.02-9.99-3.25-.02-.02-.01-.03.09-9.05-.01-.03-.03-.01h-.03a.05.05 0 0 0-.02.02L26.94 27a.05.05 0 0 1-.03.03.05.05 0 0 1-.04 0l-10.41-5.76-.03-.01-.03.01a.04.04 0 0 0 0 .06l5.43 7.41.01.03-.01.03-6.3 8.16a.04.04 0 0 0 0 .05l.03.02h.03l10.06-3.04a.05.05 0 0 1 .05.02l6.11 8.3.02.02a.05.05 0 0 0 .06-.01v-.03l.14-10.18Zm-6.8 2.91-5.74 1.67a.05.05 0 0 0-.03.02.04.04 0 0 0 .01.07h.04a86.6 86.6 0 0 1 5.3-.54c.14 0 .27.04.38.14a95.9 95.9 0 0 0 3.56 3.26l.02-.01.02-.03-.01-.02-3.4-4.51a.13.13 0 0 0-.07-.05h-.08Z" fill="#0D4E91"/><path d="m25.66 22.96 5.64-7.45.03-.02h.03l.03.03v.03l-4.75 10.13a.1.1 0 0 1-.03.04.11.11 0 0 1-.1.02 472.83 472.83 0 0 1-8.47-5.18v-.04l.03-.02h.04l7.44 2.5a.1.1 0 0 0 .11-.04Z" fill="#9EA7B1"/><path d="M27.12 27.91a.07.07 0 0 0 .06 0 .07.07 0 0 0 .04-.03l4.42-9.06c.02-.03.03-.03.03 0l-.01.1a1184.53 1184.53 0 0 1-4.1 9.92.13.13 0 0 1-.1.03l-.05-.02-8.76-5.65c-.17-.1-.16-.11 0-.02l8.47 4.73Z" fill="#7E2633"/><path d="m25.38 35.07 3.4 4.5a.04.04 0 0 1 0 .06h-.06a95.9 95.9 0 0 1-3.53-3.25.47.47 0 0 0-.38-.14 86.6 86.6 0 0 0-5.34.54.05.05 0 0 1-.02-.03v-.04l.04-.02 5.74-1.67h.08l.07.05Z" fill="#9EA7B1"/><path d="M32.26 44.92a.05.05 0 0 1 .01.05c0 .01 0 .02-.02.02l-.03.01a.71.71 0 0 1-.38-.17l-7.72-5.9a.35.35 0 0 0-.22-.08c-3.71.08-7.44.13-11.19.16a.27.27 0 0 1-.13-.05c-.04-.02-.04-.03 0-.04.03-.01.06 0 .08.01a.12.12 0 0 0 .08.02c3.56-.38 7.1-.77 10.66-1.18.31-.03.63-.05.95-.06.05 0 .1.02.13.05l7.78 7.16Z" fill="#7E2633"/></svg>