<!-- by TradingView --><svg width="56" height="56" viewBox="0 0 56 56" xmlns="http://www.w3.org/2000/svg"><path fill="#F0F3FA" d="M0 0h56v56H0z"/><path d="M29 28.5 22 25v7.33L29 36v-7.5Z" fill="#1C4594"/><path d="m36 25-7 3.5V36l7-4v-7Z" fill="#135BA8"/><path d="M29 28.5 22 25l7-3.5 7 3.5-7 3.5Z" fill="#228BD0"/><path d="M19.02 23 14 20v3.5l3 1.83v4.4l-3 1.77v5L29 45v-5.5l-9.98-5.39V23Z" fill="#1C4594"/><path d="M29 45v-5.5l4.13 2.76L29 45ZM36.42 40.61l-4.39-2.74L39 34V23l4-3v16.5l-6.58 4.11Z" fill="#135BA8"/><path d="m43 20-4 3.06-10-5.56-10 5.56L14 20l3-2 3 2 5-3v-3l4-2 14 8Z" fill="#228BD0"/><path d="M21 18v-2.78l2-1.1v2.77L21 18Z" fill="#135BA8"/><path d="m21 15.22-2-1.1v2.77L21 18v-2.78Z" fill="#1C4594"/><path d="m21 13-2 1.11 2 1.11 2-1.1L21 13Z" fill="#228BD0"/><path d="M14 30v-2.78l2-1.1v2.77L14 30Z" fill="#135BA8"/><path d="m14 27.22-2-1.1v2.77L14 30v-2.78Z" fill="#1C4594"/><path d="m14 25-2 1.11 2 1.11 2-1.1L14 25Z" fill="#228BD0"/><path d="M11 24v-2.78l2-1.1v2.77L11 24Z" fill="#135BA8"/><path d="m11 21.22-2-1.1v2.77L11 24v-2.78Z" fill="#1C4594"/><path d="m11 19-2 1.11 2 1.11 2-1.1L11 19Z" fill="#228BD0"/><path d="M15 18v-2.78l2-1.1v2.77L15 18Z" fill="#135BA8"/><path d="m15 15.22-2-1.1v2.77L15 18v-2.78Z" fill="#1C4594"/><path d="m15 13-2 1.11 2 1.11 2-1.1L15 13Z" fill="#228BD0"/></svg>