<!-- by TradingView --><svg width="56" height="56" viewBox="0 0 56 56" xmlns="http://www.w3.org/2000/svg"><path fill="#F0F3FA" d="M0 0h56v56H0z"/><path d="M20 28.1c0-1.67 1.76-1.34 2.39-1.34 3.54.01 1.93-.07 3.14.6.68-.39.29-.6 1.2-.6 3.04 0 2.48-.27 3.6.61.7-.36.2-.6 1.21-.6 2.02 0 3.49-.45 3.49 1.33L35 32.56H20V28.1Zm7.32-5.44c-.16-.25-.16-.55-.28-.81l-.18-1.16c-.54.17-.44-.32-.64 1.25-.13.99-.33.56-.6 1.3 0 0-.38 3-.98 2.28-.42-.49 1.15-2.61-.53-3.05a6.9 6.9 0 0 1-1.2 2.18c-.55.73-.75 1.32-1.84 1.64.15-.8.94-.69.42-1.71-.62.3-.09.73-1.14 1.5-.5.37-1.3.55-1.8.96-.75.6-1.92 2.54-2.4 3.34-.14-.16-.75.02.29-1.12.36-.4 1.04-1.34.93-1.89-.82-.15-1.02.45-1.66.32-.71-.14-.92-.63-1.71.25.25.82 2.26 3.65 2.77 4.4.25.36.41.53.64.6.24.08.55.06 1.08.05h18.87c.64 0 .98.04 1.24-.06.4-.15.63-.6 1.5-1.9.62-.91 1.53-2.07 1.9-3.09-.3-.55-.83-1.59-1.21-2.07-.39-.49-.05-.11-.58-.45l-.49.45c-.23-.55-.8-1.32-1.37-1.3-.27.6-.06 1.4-.1 2.17-.33-.2-.33-.36-.64-.83-.27-.4-.2-.43-.65-.61-.35.6.53 1.76.25 2.47-.7-.48-.42-1.92-1.5-2.54-.26.6.08.34-.1.89-.43-.42-.7-1.01-1.1-1.55l-.9.12c-.3.61.04 1.24-.76 1.61-1.1-.98-1.35-2.53-1.95-3.77a80.63 80.63 0 0 0-2.07-3.69c-.3.17-.03-.06-.24.22-.51.7-.18.46-.9 1.04.04.58.27 1.24.47 1.86.17.54.32 1.17.31 1.57-1.05-.61-.59-.68-1.15-.87Z" fill="#042992"/><path d="M15 26.52c.8-.06.62.06 1.29.15.58.07.45-.15 1.12-.37.78-.26 1.3-.87 1.97-1.37.4-.29 1.91-3.14 2.77-3.8.59.56-.05.92.9 1.3.77-.58 1.61-3.74 2.33-4.08l1.63-.28.73-1.96c.74.03 1.39.27 2.14.52a8.4 8.4 0 0 0 .38 2.47c.8.15.68-.49 1.05.46.97 2.45.98 3.43 2.6 2.76.76.6 1.4 1 2.29 1.4 1.15.53.42-.57 2.8-.5-2.66-3.43-7.32-8.79-11-10.22-3.26 1.68-11.93 10.08-13 13.52Zm17.23 4.92h-.76c-.15-1-.02-2-.04-3.01-.02-.97.1-.65-.3-.86l-.13.86.01 1.21c0 .77-.04 1.55.04 2.3l2.9-.02.04-3.31c0-.9.07-.43-.13-1.05-.36.22-.28-.51-.27 1.74 0 .7.06 1.46-.08 2.14h-.74c-.25-1.65.18-3.92-.2-4.76-.47.35-.26.49-.26 2.28 0 .81.08 1.7-.08 2.48Zm-4.13-2.5c.22.88.26.71-.42.7l.41-.7Zm.78 2c-.39-.29-.14.19-.28-.3-.08-.3 0-.3.05-.55l1.11-.09.04-.32c-1.26 0-1.14.27-1.12-.63l1.05-.12c-.13-.4.07-.19-.23-.39h-1.13l.2-.3c.16-.46.15-.2-.01-.5-1 .2.01.74-1.54.73.12.23.34.48.32.71 0 .02-.27.54-.34.92l1.11-.01c.29.91-.19.8-.33.83-.3.1-.4 0-.78.23.4.25.4.2 1.15.2l.13.6c.5-.22.3.13.44-.6.7 0 .84.12 1.28-.2-.43-.33-.4-.2-1.12-.2Zm-3.54-.18c-1.08-.22-.77-.2-.82-1.08.54.26.74.62.82 1.08Zm-.83-1.93c0-.66-.16-.4.36-.6.28.32-.08.43-.36.6Zm-.04 3.12v-.98l.33.13 1.2.21c-.14-1.18-.33-1.2-1-2.04.27-.6.63-.8.85-1.35L24 27.74v3.89c.17.43-.09.17.47.32Zm-3.34-3.93c.2.15-.02.11.34.18.17.04.44.02.62.02-.3.69-.83 1.18-.96 1.43-.24.44-.08.47-.06.55.5-.07.33-.27.86-.78 0 .64-.13 1.97.17 2.53.64-.46.08-1.2.26-2 .18-.4-.04-.16.22-.15l.4.07c0-.07.04-.16.02-.22-.13-.45-.27-.37-.64-.83l.6-.97c-.73-.13-1.42-.22-1.83.17Z" fill="#042992"/><path d="M26.4 29.13c-.02 1.74.14 1.06-.28 2.67.92-.1 1.78.14 2.75.15h.51c.6-.07.39-.08.62-.19-.05-.02-.11-.1-.14-.07l-.65-.13c-1.12-.06-1.17.23-2.36-.29.01-1.05 0-1.55.2-2.48H26c.08.44-.11.27.4.34Zm-4.66-1.86c-.05.4-.04.4.45.46 0-.21.22-.12-.1-.43-.48-.45-.31-.04-.35-.03Zm4.96.78c.55-.75-.05-.55-.12-.6-.05.1-.48 0 .12.6Z" fill="#042992"/><path fill-rule="evenodd" d="M31.73 11.55 28 10l-3.73 1.55a23.5 23.5 0 0 0-12.72 12.72L10 28l1.55 3.73a23.5 23.5 0 0 0 12.72 12.72L28 46l3.73-1.55a23.5 23.5 0 0 0 12.72-12.72L46 28l-1.55-3.73a23.5 23.5 0 0 0-12.72-12.72Zm-3.29.7L28 12l-2.1 1.32a40 40 0 0 0-12.75 12.82L12 28l2.4 3.47a40 40 0 0 0 10.08 10.08L28 44l2.52-1.63a40 40 0 0 0 12-12.06L44 28a39.12 39.12 0 0 0-15.56-15.76Z" fill="#042992"/><path d="m21.41 37.87-.82-1H35.4l-.82 1H21.4Zm3.41 2.97c1.19.83 2.6 1.65 3.17 1.98H28c.58-.33 1.99-1.15 3.18-1.98h-6.36Zm-.94-.99c-.39-.32-.78-.65-1.17-1h10.58c-.39.35-.78.68-1.17 1h-8.24ZM21.25 34h.63v2.52h-.63zm3.46 0h.63v2.52h-.63zm2.66 0h.55l.55 1.36V34h.47v2.52h-.47l-.63-1.55v1.55h-.47V34Zm7.53 0h.55l.55 1.36V34h.47v2.52H36l-.63-1.55v1.55h-.47V34Z" fill="#042992"/><path fill-rule="evenodd" d="M20.33 36.51a.4.4 0 0 1-.1.01c-.38 0-.7-.56-.7-1.26s.32-1.26.7-1.26c.4 0 .71.56.71 1.26 0 .47-.14.87-.35 1.1l.35.09v.22h-.31l-.3-.16Zm.14-1.25c0 .53-.1.96-.23.96s-.24-.43-.24-.96.1-.96.24-.96c.13 0 .23.43.23.96Z" fill="#042992"/><path d="M23.76 34h-.62v2.52h1.25v-.3h-.63V34Zm1.73 2.52.67-2.52h.55l.66 2.52h-.47l-.15-.6h-.63l-.16.6h-.47Zm.7-.89h.48l-.24-.89-.23.9Zm6.83.89.67-2.52h.55l.66 2.52h-.47l-.16-.6h-.62l-.16.6h-.47Zm.7-.89h.48l-.24-.89-.23.9ZM30.75 34c.25 0 .41.2.47.3l-.24.07c-.16-.05-.31-.15-.47 0-.13.13.13.31.24.45.23.3.54.7.54 1.1 0 .53-.47.67-.7.67-.19 0-.5-.14-.63-.22.03-.05.1-.16.16-.22.15.15.39.22.47.22.08 0 .23 0 .23-.15a.73.73 0 0 0-.15-.37c-.21-.3-.63-.89-.63-1.18 0-.37.4-.67.7-.67Zm.7 0h.47v.89h.47V34h.47v2.52h-.47v-1.33h-.47v1.33h-.47V34Z" fill="#042992"/></svg>