<!-- by TradingView --><svg width="56" height="56" viewBox="0 0 56 56" xmlns="http://www.w3.org/2000/svg"><path fill="#002A5B" d="M0 0h56v56H0z"/><path d="M14.04 12h9.38a9.2 9.2 0 0 1 2.53.5 16.6 16.6 0 0 1 5.4.16c2.95 1.46 3.5 1.98 3.4 2.06-2.16-1.21-5.22-1.51-6.48-1.51-.23 0-.46.01-.68.03.44.26.87.56 1.27.92 4.57.25 7.7 2.53 8.98 4.12h-.3a13.64 13.64 0 0 0-8.22-3.66 6.6 6.6 0 0 1 1.68 3.9c0 3.27-.93 5.43-4.37 8.26l4.8 6.25c1.1 1.43 3.65 4.26 5.63 4.87a13.24 13.24 0 0 0 4.36-7.28c.86-1.73.77-5.13.57-6.95 1.4 2.86 1.04 7.16.68 8.95.76-1.5.94-4.5.94-5.82 0 0 .18.52.39 4.32A16.06 16.06 0 0 1 28.14 44C19.23 44 12 36.91 12 28.17A15.8 15.8 0 0 1 20.95 14h-1.52a12.1 12.1 0 0 1-5.39-2Zm8.73 2.18c-1.13.38-1.92.8-2.32 1.09-3.8 2.44-5.31 5.3-5.6 6.41a15.2 15.2 0 0 1 6.18-6.2h.45c.85-.34 1.67-.6 2.47-.8-.36-.21-.75-.38-1.18-.5Zm1.75.88a13.35 13.35 0 0 0-9.94 12.82c0 7.34 6.07 13.3 13.56 13.3 2.23 0 4.34-.53 6.2-1.47a12.2 12.2 0 0 1-6.13-4.96c-2.36-3.37-3.91-5.58-7.21-5.86v-2.95c1.85-.04 5.97-1.3 6-5.98a6.97 6.97 0 0 0-2.48-4.9Z" fill="#fff"/></svg>