<!-- by TradingView --><svg width="56" height="56" viewBox="0 0 56 56" xmlns="http://www.w3.org/2000/svg"><path fill="#F0F3FA" d="M0 0h56v56H0z"/><path d="M17 34h-1.6l-1.9-2.73H13V33c0 .47.2.84.77.84H14V34h-3v-.16h.23c.55 0 .77-.39.77-.84v-3.93c0-.47-.2-.91-.77-.91H11V28h2.35c1.05 0 2.33.17 2.33 1.53 0 .87-.72 1.43-1.5 1.6l1.24 1.64c.28.39.54.66.74.77.2.14.47.2.78.25V34H17Zm-4-3c.87 0 1.72-.29 1.72-1.38 0-.75-.37-1.25-1.11-1.25-.17 0-.33.02-.61.09V31ZM21.65 39h-1.07l-1.27-1.82H19v1.1c0 .32.12.61.5.61h.15V39H18v-.1h.15c.37 0 .35-.3.35-.6v-2.59c0-.3.03-.6-.35-.6H18V35h1.22c.7 0 1.55.12 1.55 1.02 0 .58-.48.95-1 1.07l.83 1.09c.18.26.35.44.48.52.14.09.32.13.53.16V39h.04ZM19 37c.58 0 1.13-.19 1.13-.92 0-.5-.25-.84-.74-.84-.12 0-.2.02-.39.06V37Z" fill="#181B1E"/><path d="M19.5 33.84V34h-2v-.16c.5 0 .5-.4.5-.9V29c0-.49 0-.84-.5-.84V28h2v.16c-.5 0-.5.3-.5.84v3.94c0 .54 0 .9.5.9Z" fill="url(#ah0jfbtq3)"/><path d="M24.5 32.8h.1l-.22 1.2H20.3v-.16c.6 0 .69-.33.69-.9v-3.89c0-.57-.08-.9-.69-.9V28h2.51v.16c-.71 0-.82.32-.82.98v3.8c0 .64.17.7.78.7h.36c.37 0 .64-.02.8-.11.35-.15.44-.43.55-.73Z" fill="#181B1E"/><path d="M27 28.3v2.37h1.3c.41 0 .91-.09.91-.58h.17v1.51h-.17c-.08-.67-.22-.59-.91-.59H27V33c0 .44-.02.67.47.67h.73c.34 0 .58-.02.72-.06.37-.12.73-.47.91-.8H30V34h-4.86v-.16c.66 0 .86-.24.86-.9v-3.9c0-.69-.2-.88-.86-.88V28H30v1.2h-.17c-.11-.66-.6-.89-1.26-.89L27 28.3Z" fill="url(#bh0jfbtq3)"/><path d="M15 35.2v1.58h.95c.25 0 .56-.06.56-.39h.1v1.01h-.1c-.05-.45-.13-.4-.56-.4H15v1.33c0 .29.14.45.44.45h.45c.2 0 .36-.02.44-.05.23-.08.46-.3.57-.53h.1v.8h-3v-.1c.4 0 .5-.17.5-.6v-2.61c0-.46-.09-.59-.5-.59V35h3v.8h-.1c-.07-.44-.38-.59-.78-.59L15 35.19ZM34.62 28.02h1.98v.16h-.1c-.57 0-.85.67-1.13 1.02L34 31.03v1.94c0 .5.05.87.62.87h.18V34h-2.6v-.16h.21c.56 0 .59-.4.59-.87v-1.82l-1.38-2.12c-.27-.36-.5-.87-1.02-.87V28H33v.16h-.13c-.24 0-.35.09-.35.38 0 .1.05.3.27.58l1.02 1.51 1.13-1.43c.37-.46.31-1.07-.35-1.07l.03-.1ZM12 37.15v1.15c0 .31.05.6.42.6h.15v.1H11v-.1h.14c.38 0 .36-.3.36-.6v-2.6c0-.44-.07-.6-.5-.6V35h1.28c.73 0 1.22.23 1.22 1.1 0 .72-.18 1.11-.85 1.11-.22 0-.43-.02-.65-.06Zm.46-.15c.45 0 .54-.38.54-.8 0-.48-.13-.9-.63-.9-.12 0-.23.03-.37.05V37h.46ZM23.8 39l-1.18-3.37v2.7c0 .24.02.4.07.44.04.08.06.13.2.13H23v.1h-1v-.1h.11c.14 0 .23-.05.28-.15.02-.08.04-.2.04-.43v-2.64c0-.33-.06-.58-.43-.58V35h.9l1.1 3 1-3h.93v.1h-.11c-.14 0-.23.05-.27.15-.03.08-.05.2-.05.43v2.64c0 .25.02.4.07.45.04.08.14.13.27.13h.12v.1h-1.4v-.1h.12c.14 0 .23-.05.27-.15.03-.08.05-.2.05-.43v-2.7L23.92 39h-.11Z" fill="#181B1E"/><path d="M27.83 38.9v.1h-1.16v-.1c.36 0 .33-.31.33-.6v-2.6c0-.29.03-.6-.33-.6V35h1.16v.1c-.34 0-.33.33-.33.6v2.6c0 .29-.03.6.33.6Z" fill="url(#ch0jfbtq3)"/><path d="M30.57 37.7H29.1l-.25.61c-.14.4-.12.53.33.6V39H28v-.1c.16-.02.27-.07.3-.12.1-.1.19-.27.32-.57L29.95 35h.08l1.32 3.26c.12.31.27.64.65.64v.1h-1.49v-.1c.43 0 .43-.3.27-.64l-.21-.56Zm-.08-.22L29.84 36l-.65 1.48h1.3ZM32.23 35h.76l2.28 2.96v-2.29c0-.25-.02-.4-.07-.45-.07-.07-.23-.12-.37-.12h-.13V35H36v.1h-.11c-.17 0-.25.05-.32.15-.05.07-.07.2-.07.42V39h-.1L33 35.82v2.5c0 .43.1.58.52.58v.1h-1.29v-.1c.41 0 .55-.15.55-.57l-.02-2.83c-.22-.24-.16-.43-.5-.43l-.03-.07Z" fill="#181B1E"/><path d="M27.1 12h.46l-.3 1.5h-.14c-3.73 0-7.2 1.13-10.11 3.05-.3-.37-.62-.8-.91-1.2a19.85 19.85 0 0 1 11-3.35Zm12.32 4.33a20.45 20.45 0 0 1 6.84 10.15l-1.4.45a18.89 18.89 0 0 0-6.33-9.43l.89-1.17ZM47 34.3c-.12 1.2-.32 2.4-.64 3.53l-1.45-.33c.3-1.05.5-2.1.62-3.2H47ZM8 26.33a20.08 20.08 0 0 1 2.3-5l1.38.62a18.33 18.33 0 0 0-2.28 4.93c-.47-.2-.98-.4-1.4-.55Z" fill="#B0ADAB"/><path d="m27.43 19.04.03 2.34h-.03c-3.3 0-6.23 1.61-8.1 4.1l-1.88-1.28a12.29 12.29 0 0 1 9.98-5.16Zm4.8.98c2.2.96 4.08 2.52 5.45 4.53L36 26.1a10.53 10.53 0 0 0-4.5-3.9l.73-2.19Zm7.48 9.58a13.1 13.1 0 0 1-1.9 9.4L36 37.62a10.68 10.68 0 0 0 1.49-7.72l2.22-.3Z" fill="#3C3939"/><path d="M27.27 17.87c1 0 2 .13 2.93.33l-.7 2.78a10.76 10.76 0 0 0-6.7.76l-1.2-2.57c1.75-.84 3.67-1.3 5.67-1.3Zm-8.18 6.67c-.67.77-1.24 1.63-1.7 2.55l-2.3-1.45a15.54 15.54 0 0 1 2.05-3.06l1.95 1.96Zm19.34 7.4a12.17 12.17 0 0 0-3.98-8.42l1.6-2.29a15.17 15.17 0 0 1 5.04 10.73c-.74 0-1.76-.03-2.66-.03Z" fill="#777272"/><path d="M30.48 14.35c3.75.73 7.08 2.74 9.56 5.59l-1.24 1.1a15.54 15.54 0 0 0-8.32-4.95v-1.74Zm14.06 16.04a19.28 19.28 0 0 1-1.1 8.61l-1.46-.76a17.39 17.39 0 0 0 .98-7.45l1.58-.4Zm-31.81-8.06a17.64 17.64 0 0 1 10.1-7.7l.35 1.68c-3.8 1.08-7 3.6-9.11 6.98l-1.34-.96Z" fill="#28A449"/><defs><linearGradient id="ah0jfbtq3" x1="18.5" y1="28" x2="18.5" y2="34"><stop offset="1" stop-color="#181B1E"/></linearGradient><linearGradient id="bh0jfbtq3" x1="27.57" y1="28" x2="27.57" y2="34"><stop offset="1" stop-color="#181B1E"/></linearGradient><linearGradient id="ch0jfbtq3" x1="27.25" y1="35" x2="27.25" y2="39"><stop offset="1" stop-color="#181B1E"/></linearGradient></defs></svg>