<!-- by TradingView --><svg width="56" height="56" viewBox="0 0 56 56" fill="none" xmlns="http://www.w3.org/2000/svg">
<rect width="56" height="56" fill="#F0F3FA"/>
<rect x="32" y="16" width="2" height="7" fill="#38B52B"/>
<path fill-rule="evenodd" clip-rule="evenodd" d="M14 13H16V13H20V14.5H16V17H20V18.5H16V23H14V18.5V17V13Z" fill="#38B52B"/>
<path fill-rule="evenodd" clip-rule="evenodd" d="M23.4978 23C25.6927 23 27 21.432 27 19.4978C27 17.5636 25.7202 15.9819 23.4978 15.9956C21.2754 16.0094 19.9956 17.5636 19.9956 19.4978C19.9956 21.432 21.3029 23 23.4978 23ZM23.5 21.516C24.4401 21.516 25 20.617 25 19.5079C25 18.3988 24.4519 17.4918 23.5 17.4997C22.5481 17.5076 22 18.3988 22 19.5079C22 20.617 22.5599 21.516 23.5 21.516Z" fill="#38B52B"/>
<path fill-rule="evenodd" clip-rule="evenodd" d="M38.5022 23.0045C40.6971 23.0045 42.0044 21.4365 42.0044 19.5023C42.0044 17.5681 40.7246 15.9863 38.5022 16.0001C36.2798 16.0139 35 17.5681 35 19.5023C35 21.4365 36.3073 23.0045 38.5022 23.0045ZM38.5044 21.5205C39.4444 21.5205 40.0044 20.6214 40.0044 19.5123C40.0044 18.4032 39.4562 17.4963 38.5044 17.5041C37.5525 17.512 37.0044 18.4032 37.0044 19.5123C37.0044 20.6214 37.5643 21.5205 38.5044 21.5205Z" fill="#38B52B"/>
<path d="M28 21.9332V13H30V21.1795C30 21.4741 30.3684 21.7129 30.695 21.7129H31V23H29.1826C28.5295 23 28 22.5224 28 21.9332Z" fill="#38B52B"/>
<path fill-rule="evenodd" clip-rule="evenodd" d="M43.5351 33H45V37.9848L45 38L45 38.0151V41H43.5351V40.6346C43.1058 40.8676 42.5904 41 42 41C40.1198 41 39 39.6569 39 38C39 36.3432 40.0963 35.0119 42 35.0001C42.5929 34.9964 43.1075 35.1253 43.5351 35.3546V33ZM41.9999 40.0018C42.9049 40.0018 43.444 39.1062 43.444 38.0013C43.444 36.8965 42.9163 35.993 41.9999 36.0008C41.0836 36.0087 40.5559 36.8965 40.5559 38.0013C40.5559 39.1062 41.095 40.0018 41.9999 40.0018ZM13.5984 34H9.99615V37.1213V37.4224V41H13.6728C14.7439 41 15.6121 40.1317 15.6121 39.0607C15.6121 38.2305 15.0905 37.5221 14.3571 37.2455C14.9215 36.9658 15.3096 36.3838 15.3096 35.7112C15.3096 34.7661 14.5435 34 13.5984 34ZM12.8347 35H11.4333V37H12.8347C13.387 37 13.8347 36.5523 13.8347 36C13.8347 35.4477 13.387 35 12.8347 35ZM13 38H11.4521V40H13C13.5523 40 14 39.5523 14 39C14 38.4477 13.5523 38 13 38ZM32.372 38C32.372 39.6569 31.2745 41 29.4317 41C27.5889 41 26.4913 39.6569 26.4913 38C26.4913 36.3432 27.5658 35.0119 29.4317 35.0001C31.2976 34.9883 32.372 36.3432 32.372 38ZM30.847 38.0001C30.847 39.0677 30.3187 40 29.4317 40C28.5447 40 28 39.0677 28 38.0001C28 36.9324 28.5336 36.0076 29.4317 36C30.3298 35.9924 30.847 36.9324 30.847 38.0001ZM18.5798 41C19.9778 41 20.9304 40.1667 21.272 39.0033H19.7743C19.5615 39.5993 19.1458 40 18.5759 40C17.8241 40 17.3406 39.3025 17.2374 38.3792H19.9145L19.9145 38.3792H21.3929C21.4054 38.255 21.4118 38.1285 21.4118 38C21.4118 36.3432 20.3769 34.9883 18.5798 35.0001C16.7828 35.0119 15.7479 36.3432 15.7479 38C15.7479 39.6569 16.805 41 18.5798 41ZM19.8888 37.4338C19.7469 36.603 19.2851 35.9936 18.5759 36.0001C17.8672 36.0065 17.4054 36.607 17.2633 37.4338H19.8888ZM20.9383 35L23.2256 41.0143C23.1869 41.3324 22.8245 41.9582 21.6841 41.9173V42.9396C22.3582 43.11 23.8654 43.0214 24.5019 41.304C25.1384 39.5866 26.3583 36.3857 26.8887 35H25.2644L23.9384 39.498L22.5792 35H20.9383ZM34.5055 35H33.0124V41H34.5055V36.8654C34.6783 36.3619 35.156 36 35.7182 36C36.4261 36 37 36.5739 37 37.2818V41H38.4317V37.0806C38.4317 35.9315 37.5001 35 36.3511 35C35.5488 35 34.8527 35.454 34.5055 36.1191V35Z" fill="#666666"/>
<path fill-rule="evenodd" clip-rule="evenodd" d="M38.8532 26.7979C39.794 26.7979 40.5567 26.0352 40.5567 25.0943C40.5567 24.1535 39.794 23.3908 38.8532 23.3908C37.9123 23.3908 37.1496 24.1535 37.1496 25.0943C37.1496 25.3912 37.2256 25.6704 37.3591 25.9135L34.127 28.601C33.8963 27.9336 33.2624 27.4543 32.5166 27.4543C31.6601 27.4543 30.9512 28.0864 30.831 28.9096L27.3587 27.1813C27.3555 26.2432 26.594 25.4837 25.6552 25.4837C24.7143 25.4837 23.9516 26.2464 23.9516 27.1872C23.9516 27.2472 23.9547 27.3064 23.9608 27.3648L19.7092 31.1098C19.4243 30.8955 19.0702 30.7686 18.6863 30.7686C17.7455 30.7686 16.9828 31.5313 16.9828 32.4721C16.9828 33.413 17.7455 34.1756 18.6863 34.1756C19.6271 34.1756 20.3898 33.413 20.3898 32.4721C20.3898 32.1583 20.305 31.8643 20.157 31.6118L24.191 28.0585C24.4882 28.5569 25.0327 28.8907 25.6552 28.8907C26.3558 28.8907 26.9576 28.4678 27.2192 27.8634L30.8995 29.6951C31.1245 30.3727 31.7635 30.8614 32.5166 30.8614C33.3701 30.8614 34.0771 30.2336 34.2009 29.4146L37.7929 26.4278C38.0838 26.6594 38.4523 26.7979 38.8532 26.7979ZM38.8531 26.0621C39.3876 26.0621 39.8209 25.6288 39.8209 25.0943C39.8209 24.5598 39.3876 24.1265 38.8531 24.1265C38.3186 24.1265 37.8853 24.5598 37.8853 25.0943C37.8853 25.6288 38.3186 26.0621 38.8531 26.0621ZM25.6552 28.155C26.1897 28.155 26.623 27.7217 26.623 27.1872C26.623 26.6527 26.1897 26.2194 25.6552 26.2194C25.1207 26.2194 24.6874 26.6527 24.6874 27.1872C24.6874 27.7217 25.1207 28.155 25.6552 28.155ZM18.6863 33.4399C19.2208 33.4399 19.6541 33.0066 19.6541 32.4721C19.6541 31.9376 19.2208 31.5043 18.6863 31.5043C18.1518 31.5043 17.7185 31.9376 17.7185 32.4721C17.7185 33.0066 18.1518 33.4399 18.6863 33.4399ZM33.4844 29.1579C33.4844 29.6923 33.0511 30.1256 32.5166 30.1256C31.9821 30.1256 31.5488 29.6923 31.5488 29.1579C31.5488 28.6234 31.9821 28.1901 32.5166 28.1901C33.0511 28.1901 33.4844 28.6234 33.4844 29.1579Z" fill="#38B52B"/>
<circle cx="33" cy="14" r="1" fill="#38B52B"/>
</svg>
