<!-- by TradingView --><svg width="56" height="56" viewBox="0 0 56 56" xmlns="http://www.w3.org/2000/svg"><path fill="#F0F3FA" d="M0 0h56v56H0z"/><path d="M4 26h4.5v.5h-2V30H6v-3.5H4V26ZM12.08 26c1.2 0 1.92.47 1.92 1.25 0 .6-.48 1.02-1.2 1.18L14 30h-.63l-1.18-1.5H9.5V30H9v-4h3.08ZM9.5 28h2.78c.74 0 1.22-.25 1.22-.75 0-.48-.46-.75-1.22-.75H9.5V28ZM16.05 26h.9L19 30h-.69l-.52-1h-2.57l-.53 1H14l2.05-4Zm-.56 2.49h2.03l-1.02-1.97-1.01 1.97ZM20 30v-4l4.5 3v-3h.5v4l-4.5-3v3H20ZM26 27.11c0-.87 1.37-1.11 2.03-1.11.64 0 1.34.12 1.84.56l-.28.46c-.42-.39-1.03-.5-1.58-.5-.33 0-1.5.06-1.5.57 0 .58 1.08.6 1.46.65.7.1 2.03.18 2.03 1.15 0 .88-1.37 1.11-2.03 1.11-.66 0-1.41-.1-1.92-.56l.28-.47c.42.4 1.1.5 1.66.5.33 0 1.5-.08 1.5-.58 0-.56-1.1-.6-1.46-.64-.7-.09-2.03-.17-2.03-1.14Z" fill="#1F274D"/><path d="M36 28c0-1.31 1.34-2 2.5-2 1.17 0 2.5.7 2.5 2 0 1.32-1.34 2-2.5 2s-2.5-.68-2.5-2Zm.58 0c0 1 1.07 1.5 1.92 1.5.86 0 2-.51 2-1.5 0-.98-1.15-1.5-2-1.5-.85 0-1.92.52-1.92 1.5ZM42 26h2.54c1.2 0 2.46.65 2.46 2 0 1.34-1.25 2-2.46 2H42v-4Zm2.75 3.49c.88 0 1.75-.54 1.75-1.5 0-.95-.88-1.48-1.75-1.48H42.5v2.98h2.25ZM31 27.5h.58c.25-.62.94-1 1.62-1 .66 0 1.13.24 1.42.62l.38-.32a2.15 2.15 0 0 0-1.8-.8c-.97 0-1.95.58-2.2 1.5ZM31.58 28.5H31c.25.92 1.23 1.5 2.2 1.5.78 0 1.38-.26 1.8-.8l-.38-.32c-.28.38-.75.62-1.42.62-.68 0-1.37-.38-1.62-1ZM48 30v-4h4v.51h-3.5v.98h3.16V28H48.5v1.49H52V30h-4Z" fill="#577184"/></svg>