<!-- by TradingView --><svg width="56" height="56" viewBox="0 0 56 56" xmlns="http://www.w3.org/2000/svg"><path fill="#F0F3FA" d="M0 0h56v56H0z"/><path d="M28 44a16 16 0 1 0 0-32 16 16 0 0 0 0 32Zm7.39-19.53c-1.2.6-2.13 3.02-2.6 4.69a7.23 7.23 0 1 1-4.47-7.61c5.18 1.1 7.5-.74 7.68-3.15.15-2.02 2.06-1.85 3-1.5a16.68 16.68 0 0 1 3.78 5.78c-.42 2.42-1.78 1.93-2.88 1.54l-.35-.12a4.98 4.98 0 0 0-4.16.37Zm-9.44 6.73a3.2 3.2 0 0 0 2.91-4.5l9.33-5.29.02.03c.64.82 1.62 1.12 2.18.68.56-.45.49-1.46-.16-2.28-.64-.81-1.61-1.12-2.17-.67-.42.33-.49.98-.22 1.64l-9.33 5.28a3.2 3.2 0 1 0-2.56 5.1Zm15.94-.2c0 2.81-1.28 5.11-2.92 5.35-.67.22-1.73.38-2.5.5l-.75.1c-.73.15-1.99.48-4.28 1.8-1.84 1.05-3.8 3.7-4.54 4.9-2.81-.31-5.11-1.2-6.8-2.14a24 24 0 0 0 10.99-3.65 25.5 25.5 0 0 0 6.32-5.46c.36.65.92 1.05 1.52.99.9-.1 1.52-1.2 1.39-2.49-.13-1.28-.97-2.25-1.87-2.16-.9.1-1.52 1.21-1.4 2.5l.1.52c-1.26 1.4-3.9 4.05-6.06 5.4-2.88 1.78-7.94 4.13-11.54 4.02a10.97 10.97 0 0 1-2.35-1.84c0-.79.14-2.5 4.57-1.9 4.43.58 7.2-.4 9.92-2.2 1.92-1.26 3.25-3.61 3.84-5 .22-2.6 1.55-4.59 3.16-4.59 1.77 0 3.2 2.4 3.2 5.36ZM14 21.03c.18-.08.92-.27 2.39-.46 1.83-.24 5.54-2.05 7.53-4.66 2-2.6 3.9-2.5 5.04-2.42 1.13.08 4.83.99 5.22 3.96.3 2.3-3.5 2.09-5.55 1.67-1.45-.12-4.99.1-7.5 1.9-3.15 2.27-4.6 5.14-4.74 5.68-.22.79-1.45 4.5-3.82 3.85-.12-.56-.22-1.46-.2-2.56a25.63 25.63 0 0 1 7.87-7.64c3.4-2 6.2-3 7.64-3.38.25.38.64.74 1.13 1 1.15.61 2.43.46 2.86-.34.42-.8-.17-1.94-1.32-2.56-1.16-.61-2.44-.46-2.86.34-.15.28-.18.6-.1.94a31.33 31.33 0 0 0-7.56 3.46 30.47 30.47 0 0 0-7.63 7.47c.1-1.82.52-4.07 1.6-6.25Z" fill="url(#ac2j214qh)"/><defs><linearGradient id="ac2j214qh" x1="12" y1="28.61" x2="44" y2="28" gradientUnits="userSpaceOnUse"><stop stop-color="#658E40"/><stop offset="1" stop-color="#2C6A92"/></linearGradient></defs></svg>