<!-- by TradingView --><svg width="56" height="56" xmlns="http://www.w3.org/2000/svg"><path fill="#007AC2" d="M0 0h56v56H0z"/><path d="M34.682 25.656c-.275-.2-.707-.32-1.126-.314-.456.006-.892.148-1.194.383V23h-1.366v9h1.366v-4.715c0-.331.286-.696.816-.718a.761.761 0 01.668.323c.177.255.154.602.154.972V32h1.495v-4.19c0-1.247-.168-1.69-.813-2.154zM23.678 28.912c0 .885-.027 1.135-.034 1.211-.046.492-.25 1.012-.804 1.012-.555 0-.78-.556-.804-1.035-.001-.003-.034-.303-.034-1.188 0-.887.033-1.256.034-1.259.007-.5.258-1 .803-1 .546 0 .798.5.805.995 0 .008.034.377.034 1.264zm1.288-1.067c-.188-1.935-1.254-2.35-2.129-2.35-1.24 0-1.994.813-2.13 2.346-.012.123-.03.348-.037 1.071-.004.526.028.957.035 1.067.084 1.431.883 2.314 2.132 2.314 1.25 0 2.046-.897 2.133-2.314.006-.101.035-.54.035-1.067 0-.238-.022-.886-.038-1.067zM38 28c.01-.295.004-.297.01-.382.038-.534.276-.977.824-.98.648-.005.8.63.823.983.012.185.026.248.024.379H38zm1.664 2s.002-.052-.013.07c-.039.314-.162.986-.82.986-.56 0-.777-.51-.814-1.017-.007-.145-.019-.491-.017-1.039h3s.005-.264-.004-.534c-.004-.106-.01-.283-.035-.655-.04-.572-.255-1.197-.582-1.602-.379-.467-.914-.714-1.548-.714-1.218 0-1.98.794-2.129 2.315-.014.136-.036.326-.036 1.055 0 .519.03.953.035 1.051.081 1.39.902 2.283 2.13 2.283 1.224 0 2.045-.72 2.13-2.199h-1.297zM16.218 24h.54c.723 0 1.3.476 1.318 1.15.001.048.007.105.007.21 0 .122-.002.166-.006.213-.04.4-.213 1.118-1.06 1.118h-.8V24zm3.204 7.477l-.145-2.235c-.063-1-.328-1.632-.854-1.934.38-.224.872-.738.867-1.898-.006-1.768-1.123-2.396-2.438-2.41H15v9h1.218v-4.244h.839c.447 0 .95.536 1.026 1.614l.144 2.115c.012.3.07.515.07.515h1.197s-.06-.209-.072-.523zM28.872 30c-.036.494-.215 1.056-.785 1.056-.53 0-.74-.57-.779-.99-.023-.254-.017-.451-.022-1.201-.006-.875.02-1.1.032-1.242.045-.553.247-.982.77-.986.536-.003.762.493.768.98V28h1.28a14.05 14.05 0 00-.01-.207c-.143-1.85-1.204-2.298-2.041-2.298-1.187 0-1.91.802-2.04 2.314-.01.12-.028.343-.034 1.056-.006.519.025.944.033 1.051.08 1.412.844 2.28 2.04 2.283 1.24.005 1.905-.714 2.024-2.199h-1.236z" fill="#fff"/><path d="M15.99 16h24.024L50 27.995 40.294 40H15.99L6 28l9.99-12zm.518 1L7.469 28l9.039 11h23.258l8.774-10.995L39.496 17H16.508z" fill="#fff"/></svg>