<!-- by TradingView --><svg xmlns="http://www.w3.org/2000/svg" width="56" height="56" viewBox="0 0 56 56"><path fill="#F0F3FA" d="M0 0h56v56H0z"/><path fill-rule="evenodd" d="M14.87 23.22c.29.76 1.1.56 1.46.36-.9 2.95-2.72 9.15-2.73 10.35-.03 1.51 1.05 2.18 1.93 2.06.7-.1.77-1.02.71-1.46.09-1.54.44-3.23.6-3.88.56 1.2 2.83 3.65 3.89 4.72.4.32 1.5.77 2.67 0 1.47-.97 1.37-1.4 1.2-1.73-.15-.26-.92-.16-1.29-.07-1.4.03-3.8-2.6-4.83-3.9 4.83-1.93 5.42-5.14 4.65-7.22-.76-2.08-4.28-1.4-5.9-1.1-1.64.32-2.72.91-2.36 1.87zm4.04-.26l-1.78 5.42c2.63-.78 3.74-2.35 3.87-4.12.1-1.42-1.35-1.46-2.09-1.3zm-8.85 2.95c.52.12 1.06-.3 1.21-.92.15-.63-.15-1.24-.67-1.36-.53-.12-1.07.29-1.22.92-.14.63.16 1.23.68 1.36zm-.88.76c-.53.77-1.6 2.6-1.6 3.7a1.85 1.85 0 0 0 1.5 1.84c.22 0 .61-.01 1.59-.92.5.06 1.59.11 1.95-.14.45-.32.65-.89.65-1.57 0-.67-1.75-2.5-4.09-2.91zm-.81-1.74c.41.5.41 1.18 0 1.52-.41.34-1.08.22-1.5-.28-.41-.5-.41-1.18 0-1.52.41-.34 1.08-.21 1.5.28zm-1.2 3.43c.25-.48-.02-1.1-.59-1.4-.57-.3-1.24-.15-1.49.32-.24.47.02 1.1.6 1.4.57.3 1.24.15 1.48-.32zm6.43-2.06c-.33.55-.96.8-1.43.53-.46-.27-.58-.94-.26-1.5.33-.56.96-.8 1.43-.53.46.27.58.93.26 1.5zm9.81 1.6c.35-1.6 1.52-4.83 3.45-4.83 2.42 0 2.7 2.99 2.7 4.1 0 1.13-1.04 5.86-3.6 5.86-2.55 0-2.86-3.36-2.55-5.12zm4.14 1.1c.26-1.12.55-3.46-.31-3.96-.86-.5-1.38 2.14-1.53 3.52-.08.87-.08 2.64.53 2.8.62.15 1.13-1.51 1.31-2.36zm3.39-5.35c-.52 2.65-.97 7.95 1.27 9.45 1.23-.4 3.87-2.19 4.5-6.28.18-.88.2-2.75-1.22-3.17-.14-.03-.42.09-.45.84v.05c-.04 1-.17 4.52-1.9 6.22-.3-.5-.68-2.2.07-5.08.13-.68.1-2.1-1-2.4-1.1-.29-1.24.13-1.27.37zm8.32 5.3c1.54.2 4.64-.15 4.64-3.24 0-.85-.42-2.56-2.17-2.56-2.18 0-4.64 2.7-4.64 6.12 0 3.41 2.57 3.66 3.04 3.66.48 0 2.92-.88 2.3-2.4-.1-.22-.51-.4-1.38.67-.03.04-.22.13-.74.13-.65 0-1.35-1.26-1.05-2.39zm.32-1.42c.3-.9 1.18-2.66 2.28-2.4 1.37.33-.05 1.96-.7 2.12-.5.13-1.26.24-1.58.28zm4.2 4.68c.16-3 .9-9 2.55-9.17.3.03.93.34 1.06 1.33.05 0 .15-.05.3-.13.29-.17.75-.43 1.2-.43.68 0 2.11.6 2.11 2.1s-1.21 2.11-1.58 2.11c-.37 0-1.54-.5-1.54-1.53 0-.17.05-.55.28-.76-.67.25-2 1.31-2 3.55v1.5c.02 1.52.02 1.9-.22 2.05-.31.19-2.16.32-2.16-.62z" fill="#27B66C"/></svg>