<!-- by TradingView --><svg width="56" height="56" viewBox="0 0 56 56" xmlns="http://www.w3.org/2000/svg"><path fill="#F0F3FA" d="M0 0h56v56H0z"/><path d="m19 19-9 9h9v-9Z" fill="#017301"/><path d="m37 19-9-9v9h9Z" fill="#33A600"/><path d="m37 37 9-9h-9v9Z" fill="#2C7BC8"/><path d="m19 37 9 9v-9h-9Z" fill="#52A1F0"/><path d="M28 37h9l-9-9v9Z" fill="#A8E5F7"/><path d="M37 28v-9l-9 9h9Z" fill="#4EC101"/><path d="M28 28h-9v9l9-9Z" fill="#52A1F0"/><path d="M28 28v-9h-9l9 9Z" fill="#83D322"/><path d="m10 28 9 9v-9h-9Z" fill="#2C7BC8"/><path d="m28 10-9 9h9v-9Z" fill="#017301"/><path d="M28 37v9l9-9h-9Z" fill="#8FCEED"/><path d="m46 28-9-9v9h9Z" fill="#017301"/><path d="m28 28 9 9v-9h-9Z" fill="#52A1F0"/><path d="M19 28h9l-9-9v9Z" fill="#4EC101"/><path d="m28 28-9 9h9v-9Z" fill="#71BAED"/><path d="m28 28 9-9h-9v9Z" fill="#B8E77F"/></svg>