<!-- by TradingView --><svg width="56" height="56" viewBox="0 0 56 56" xmlns="http://www.w3.org/2000/svg"><path fill="#F0F3FA" d="M0 0h56v56H0z"/><path fill-rule="evenodd" d="M5 24v8h.6v-3.41h2.38l.3-.01 2.7 3.42h.77L9 28.47c1.09-.23 2.34-.84 2.34-2.14 0-1.8-1.65-2.33-3.36-2.33H5Zm.6 4h2.38c1.17 0 2.74-.67 2.74-1.67 0-1.5-1.3-1.76-2.74-1.76H5.61V28ZM17 24h-.6v8h.6v-8Zm9.68 8c-.63 0-1.2-.1-1.74-.3a3.83 3.83 0 0 1-2.62-3.7 3.86 3.86 0 0 1 2.62-3.7c.53-.2 1.12-.3 1.75-.3.6 0 1.16.09 1.68.27.51.18.95.45 1.32.81l-.38.38a3.24 3.24 0 0 0-1.2-.72 4.4 4.4 0 0 0-2.9.05 3.4 3.4 0 0 0-2 1.84c-.19.42-.28.87-.28 1.37 0 .5.1.95.28 1.37a3.4 3.4 0 0 0 2 1.84 4.44 4.44 0 0 0 2.89.04c.32-.1.62-.25.9-.46V28.3h-3v-.6h3.65v3.29c-.37.33-.82.59-1.34.76a5.3 5.3 0 0 1-1.63.25Zm20.92-8H47v8h4v-.57h-3.4V24ZM39 32a5 5 0 0 1-1.74-.3 3.83 3.83 0 0 1-2.62-3.7 3.86 3.86 0 0 1 2.62-3.7c.54-.2 1.12-.3 1.75-.3.95 0 1.59.25 2.35.84l-.43.36c-.45-.41-1-.67-1.9-.67-.55 0-1.04.09-1.5.26a3.4 3.4 0 0 0-2 1.84c-.14.32-.23.67-.26 1.05h4.45v.56h-4.46c.03.4.12.78.27 1.13a3.4 3.4 0 0 0 2 1.84 4.44 4.44 0 0 0 2.89.04c.35-.11.44-.18.58-.3l.1-.09.36.4c-.23.22-.42.36-.83.5A5.3 5.3 0 0 1 39 32Z"/></svg>