<!-- by TradingView --><svg xmlns="http://www.w3.org/2000/svg" width="56" height="56" viewBox="0 0 56 56"><path fill="#F0F3FA" d="M0 0h56v56H0z"/><path d="M48 30.62v-4.11l-8.7-2.11c-.5 1.33-2.36 4.48-7.31 6.58-6.55 2.78-11.27 2.72-13.81 2.78l-1.8-3.14c2.59-2.5 7.34-5.68 9.84-6.58C19.7 23.58 11.24 25.4 8 26.5v2.98c0 4.27 1.84 9.6 19.03 9.5C44.2 38.93 48 34.59 48 30.63Z" fill="url(#abuneqoyc)"/><path d="M27.95 17C11.34 17 8 20.65 8 26.56c8.59-2.34 15.63-2.62 18.08-2.47a37.63 37.63 0 0 1 12.1-1.9l1.06 2.31L48 26.56C47.3 19.78 45.11 17 27.95 17Z" fill="url(#bbuneqoyc)"/><defs><linearGradient id="abuneqoyc" x1="48" y1="30.11" x2="8" y2="29.55" gradientUnits="userSpaceOnUse"><stop stop-color="#0680C1"/><stop offset=".36" stop-color="#C0D8F0"/><stop offset=".5" stop-color="#FCFDFF"/><stop offset=".65" stop-color="#C4DAF1"/><stop offset="1" stop-color="#0483C3"/></linearGradient><linearGradient id="bbuneqoyc" x1="28" y1="17" x2="28" y2="26.56" gradientUnits="userSpaceOnUse"><stop stop-color="#6AAAD6"/><stop offset=".43" stop-color="#AFCEEB"/><stop offset="1" stop-color="#E0F1F9"/></linearGradient></defs></svg>