<!-- by TradingView --><svg width="56" height="56" viewBox="0 0 56 56" xmlns="http://www.w3.org/2000/svg"><path fill="#F0F3FA" d="M0 0h56v56H0z"/><path fill-rule="evenodd" d="M27.01 43a15 15 0 0 0 15.01-15h1a16 16 0 0 1-31.8 2.6A10.54 10.54 0 0 1 11 28a16 16 0 0 1 27.49-11.16l-.68.74a15.02 15.02 0 0 0-24.57 4.43 10.5 10.5 0 1 1 1.31 14.36A15 15 0 0 0 27.02 43Zm-15-14.69A5.5 5.5 0 0 1 22.98 28h1a6.5 6.5 0 0 0-10.49-4.62 9.5 9.5 0 1 1 0 10.24 6.48 6.48 0 0 0 8.2-.15l-.65-.76a5.5 5.5 0 0 1-9.04-4.4ZM44 27h1a17.92 17.92 0 0 0-4.38-10.8l-.7.72A16.92 16.92 0 0 1 44 27Z" fill="url(#am20wbrho)"/><defs><linearGradient id="am20wbrho" x1="11.5" y1="29" x2="44.02" y2="21.49" gradientUnits="userSpaceOnUse"><stop stop-color="#F15F69"/><stop offset="1" stop-color="#273A91"/></linearGradient></defs></svg>