<!-- by TradingView --><svg xmlns="http://www.w3.org/2000/svg" width="56" height="56" viewBox="0 0 56 56"><path fill="#F0F3FA" d="M0 0h56v56H0z"/><path d="M20.65 13H28v1h-6.8L14 20.84V28h10l-4.06 4H13v-1h6.47l2.03-2H13v-8.6l7.65-7.4Zm.06 21.5L41.4 14H30v-1h13v13h-1V14.82l-20.5 20.3V43h-1v-6.89L18 38.6V43h-1v-4h-4v-1h4.17l2.52-2.5-6.69.07V34.5h7.7ZM22.1 16H28v1h-5.42l-3.4 3H25v1h-6.94L17 22v3h8.53l8.02-8H30v-1h6.05L25.97 26H16v-4.55L22.12 16ZM40 20.53V26h-1v-3.1L33.87 28H43v7.57L35.48 43H27v-1h8.09L42 35.12V29H31.44L40 20.53ZM29.4 31H40v3.8L34.59 40H27v-1h7.28l3.16-3H31v-1h7.4l.6-.56V32h-9.19L25 36.81V43h-1v-6.66L29.4 31Z" fill="#BE9C60"/></svg>