<!-- by TradingView --><svg width="56" height="56" viewBox="0 0 56 56" xmlns="http://www.w3.org/2000/svg"><path fill="#F0F3FA" d="M0 0h56v56H0z"/><path d="m31.18 26.97.3-.66.38-.9c-.13-.1-.25-.15-.38-.22-.86-.4-1.7-.17-2.52.68l-.1-.7a25.8 25.8 0 0 1-2.84 1.81l-.1.04.07.7h.03c.37-.13.62-.03.64.5v4.1c0 .25 0 .47-.04.68 1.05-.7 2.17-1.33 3.38-1.84v-1.27c-.26.57-1 .66-1-.18V28.5c-.01-.87.33-1.25.43-1.36.28-.27.68-.15.72.28.01.32-.05.67-.22 1.04l.5.22.68-1.5-.03-.15.1-.05ZM21.35 32.7l-.24.16c-.3.14-.59.18-.88.1-1.4-.39-2.11-1.4-2.36-2.95a6.15 6.15 0 0 1 0-2.16c.37-1.86 1.8-2.98 3.48-2.84v1.85c-.78.12-1.15.88-1.12 2.03 0 .94.28 1.84 1.02 2.04l.1.03v1.74Zm.07-.03-.07.03v-1.74l.24.03c.52 0 .84-.35.89-.97v-2.2c-.05-.72-.48-1.02-1.01-.98l-.12.02V25c.6.07 1.23.28 1.84.66.73-.71 1.68-.76 2.65-.2.04.01.06.04.09.05-.03.04-.05.08-.09.11a2.6 2.6 0 0 0-.36.51c-.32-.12-.48 0-.48.5v3.14c0 .73.6.74.81.18v1.14a20.6 20.6 0 0 0-3.36 1.8l.01-.9-1.04.67ZM13.27 27.54l-5.56-3.3c-.2-.95 1.02-1.96 2.5-1.47 1.1.39 1.28 1.23.98 2.57l1.03.62a19.91 19.91 0 0 1 1.45-3.68c-.12-.09-.26-.16-.4-.22-2.03-1.1-4.3-1.45-6.23-.53-1.9.98-2.64 2.61-2.32 4.72l5.32 3.18c.28.14.28.34.21.52-.37 1.04-2.2 1.93-3.23.4-.37-.52-.36-1.35-.27-2.12l-.96-.56c-.4 1.2-1.05 2.45-1.79 3.76 1.9 1.22 4.23 1.96 6.3 1.36a4.45 4.45 0 0 0 2.97-2.66c.3-.77.36-1.62.17-2.5l-.17-.09Z" fill="#DA2128"/><path d="M16.52 29.63v-3.14l.98-.02.37-.97.1-.22-.1.05c-.37.2-.58.26-.98.2-.2-.03-.37-.31-.37-.7V23c-.94.85-2.02 1.88-3.25 2.67l-.38.23.21.46c.03.05.1.11.17.13H14V33a24.09 24.09 0 0 1 3.66-1.9v-1.29c-.25.59-1.14.67-1.14-.18ZM35.43 28.67l1.05-2.32.4-.93c-.13-.1-.27-.17-.4-.24-.86-.39-1.72-.15-2.53.7l-.12-.7c-.83.6-1.65 1.15-2.53 1.65-.1.04-.2.08-.3.14l-.07.2.04.55c.12-.04.24-.06.33-.06.22.03.33.2.33.56v4.1c0 .25 0 .47-.04.68 1.08-.7 2.18-1.33 3.41-1.84v-1.27c-.26.57-1 .66-1-.18V28.5c-.01-.87.3-1.24.43-1.35.28-.28.68-.16.72.27.02.32-.05.67-.2 1.04l.48.22ZM51.45 26.47v-.04l.43-1.15c-.16.1-.3.15-.43.2-.2.08-.39.1-.63.05-.2-.03-.37-.31-.38-.7l.01-1.83c-.8.71-1.75 1.58-2.75 2.29-.42.23-.65.31-1.06.24-.2-.03-.37-.31-.37-.7V23c-.93.84-1.98 1.85-3.2 2.63-.14.1-.3.2-.45.27l.22.46c.03.05.1.13.2.13H44v5.81c0 .26-.03.49-.06.7a21.37 21.37 0 0 1 3.45-1.9v-1.29c-.23.59-1.12.67-1.12-.18v-3.14H48v5.81c0 .26-.1.49-.12.7 1.02-.68 2.8-1.3 3.97-1.85l.15-.04v-1.3c-.01.07-.1.15-.15.22-.33.38-1.4.34-1.4-.4v-3.14l1-.02Z" fill="#DA2128"/><path d="M39.62 25a3.8 3.8 0 0 0-3.16 2.23c-.3.58-.43 1.24-.46 1.88 0 .66.16 1.29.46 1.83A3.75 3.75 0 0 0 39.62 33v-2.17c-.25-.16-.44-.4-.6-.68l.6-.23v-1.4l-1.1.4c-.47-.9.07-2.17 1.02-2.18h.08V25Zm0 4.92v-1.4l1.28-.47c-.2-.74-.62-1.26-1.28-1.31V25h.27a3.85 3.85 0 0 1 3.64 2.93l.1.45-.1.04-3.9 1.5Zm0 3.08h.2c1.34.03 2.8-.62 3.7-1.64.2-.2.36-.42.48-.66l-.47-.65-.34-.45a3.53 3.53 0 0 1-2.31 1.52c-.54.03-.93-.07-1.26-.29V33Z" fill="#DA2128"/></svg>