<!-- by TradingView --><svg width="56" height="56" viewBox="0 0 56 56" xmlns="http://www.w3.org/2000/svg"><path fill="#F0F3FA" d="M0 0h56v56H0z"/><path d="M33.79 12.43 37 18a16.06 16.06 0 0 0-4.06-.45c-9.07 0-17.3 8.62-17.63 12.2v2.64c-.74-1.19-2.28-3.72-2.55-4.26a5.73 5.73 0 0 1-.76-2.65C14.46 14.73 26.92 12 29.89 12c1.76 0 3.39.28 3.9.43Z" fill="url(#acnhse5ya)"/><path d="m23.47 25.42 3.12 5.18c5.68-3.84 9.04-4.58 11.41-4.58 1.9 0 5.11 1.67 5.22 1.87-.57-1.01-1.85-3.15-2.19-3.67-.34-.51-1.57-3.22-5.81-3.22-4.2 0-9.66 2.88-11.75 4.42Z" fill="url(#bcnhse5ya)"/><path d="m32.53 30.6-3.12-5.17C23.73 29.27 20.37 30 18 30c-1.9 0-5.11-1.67-5.22-1.87.57 1.01 1.85 3.16 2.19 3.67.34.51 1.57 3.22 5.81 3.22 4.2 0 9.66-2.88 11.75-4.42Z" fill="url(#ccnhse5ya)"/><path d="M22.21 43.6 19 38.02c1.22.32 2.54.45 4.06.45 9.07 0 17.6-8.89 17.94-12.47l-.32-2.34c.74 1.2 2.29 3.69 2.56 4.23.34.69.76 1.54.76 2.65C41.54 41.29 29.08 44 26.11 44a18.2 18.2 0 0 1-3.9-.4Z" fill="url(#dcnhse5ya)"/><defs><linearGradient id="acnhse5ya" x1="35.23" y1="14.9" x2="12.43" y2="28.42" gradientUnits="userSpaceOnUse"><stop stop-color="#1E79B5"/><stop offset=".34" stop-color="#1F3C76"/><stop offset=".5" stop-color="#2B4C86"/><stop offset=".75" stop-color="#72AEE4"/><stop offset=".85" stop-color="#6DACE2"/><stop offset=".99" stop-color="#3393CF"/></linearGradient><linearGradient id="bcnhse5ya" x1="24.76" y1="27.13" x2="38.78" y2="20.4" gradientUnits="userSpaceOnUse"><stop stop-color="#B9D238"/><stop offset=".6" stop-color="#4F9640"/><stop offset=".74" stop-color="#11843F"/><stop offset="1" stop-color="#46A546"/></linearGradient><linearGradient id="ccnhse5ya" x1="31.24" y1="28.9" x2="17.22" y2="35.62" gradientUnits="userSpaceOnUse"><stop stop-color="#1A8CC8"/><stop offset=".6" stop-color="#22407C"/><stop offset=".74" stop-color="#233B77"/><stop offset="1" stop-color="#197BB8"/></linearGradient><linearGradient id="dcnhse5ya" x1="20.77" y1="41.12" x2="43.57" y2="27.6" gradientUnits="userSpaceOnUse"><stop stop-color="#38AA47"/><stop offset=".34" stop-color="#184"/><stop offset=".5" stop-color="#549A42"/><stop offset=".75" stop-color="#9EBF37"/><stop offset=".85" stop-color="#C9DD6E"/><stop offset=".99" stop-color="#BED65A"/></linearGradient></defs></svg>