<!-- by TradingView --><svg xmlns="http://www.w3.org/2000/svg" width="56" height="56" viewBox="0 0 56 56"><path fill="#00B37F" d="M0 0h56v56H0z"/><path d="M13 26.5h-2.3c-.1 0-.18-.2-.16-.31l.3-2.05a.17.17 0 0 1 .17-.15h3.53c.77 0 1.44-.38 1.57-1.18l.27-1.6c.01-.1-.06-.21-.17-.21H9.67c-1.08 0-2 .83-2.2 1.96l-.66 4.01c-.23 1.37.76 2.63 2.07 2.63h2.3c.11 0 .2.1.18.21l-.31 2.04c-.02.08-.08.15-.17.15H7.34c-.78 0-1.44.39-1.57 1.2l-.27 1.59c-.02.1.06.21.17.21h6.54c1.08 0 2.01-.83 2.2-1.96l.67-4.01A2.12 2.12 0 0 0 13 26.5zM35.26 34.85l.84-5.1a.17.17 0 0 1 .16-.15h3.2c.09 0 .16-.06.17-.15l.47-2.84c.02-.11-.06-.21-.17-.21h-3.09c-.1 0-.18-.1-.16-.21l.4-2.04c.02-.08.09-.15.17-.15H43c.1 0 .18.1.17.22l-1.81 10.57c-.02.1.06.21.16.21h3.22c.08 0 .15-.06.16-.15l1.83-10.7c.02-.08.09-.15.17-.15h1.89c.76 0 1.31-.39 1.45-1.2l.26-1.59c.02-.1-.06-.21-.17-.21H34.12a.17.17 0 0 0-.17.15l-2.24 13.64c-.02.1.06.21.17.21h3.21c.08 0 .15-.06.17-.15zM28.57 21.15l-2.3 13.64c-.02.1.06.21.17.21h3.3c.08 0 .15-.06.16-.15l2.3-13.64c.02-.1-.06-.21-.17-.21h-3.3a.17.17 0 0 0-.16.15zM23.66 21.15l-.85 5.1a.17.17 0 0 1-.16.15H20.6c-.11 0-.19-.1-.17-.21l.83-4.98c.02-.1-.06-.21-.17-.21h-3.26a.17.17 0 0 0-.17.15L15.4 34.79c-.02.1.06.21.17.21h3.26c.08 0 .15-.06.17-.15l.85-5.1a.17.17 0 0 1 .16-.15h2.05c.1 0 .19.1.17.21l-.83 4.98c-.02.1.06.21.17.21h3.26c.08 0 .15-.06.16-.15l2.28-13.64c.01-.1-.07-.21-.17-.21h-3.26a.17.17 0 0 0-.17.15z" fill="#fff"/></svg>