<!-- by TradingView --><svg width="56" height="56" viewBox="0 0 56 56" xmlns="http://www.w3.org/2000/svg"><path fill="#F0F3FA" d="M0 0h56v56H0z"/><path d="M12 27.97C11.9 19.2 19.31 11.86 28.3 12 36.86 12.14 44 19.28 44 28a16.02 16.02 0 0 1-30.8 6.1c-.8-1.94-1.2-4.02-1.2-6.12ZM13.52 29a13.67 13.67 0 0 0 2.92 7.72c5.5-1.48 11.05-1.56 16.62-1.18.6-1.32 1.16-5.3.9-6.54H13.52Zm28.94-2a13.7 13.7 0 0 0-2.86-7.6c-5.56 1.47-11.15 1.58-16.8 1.12-.57 2.24-.9 4.22-.88 6.48h20.54Zm-10.7 14.88c5.5-1.16 10.6-6.7 10.62-12.88h-6.74c-.26 4.66-.93 8.95-3.88 12.88ZM20.34 27c.23-4.66.95-8.96 3.85-12.89-5.84 1.34-10.62 7.1-10.58 12.89h6.73Zm12.3-7.95c-.01-.38-.2-.67-.32-.97a9.77 9.77 0 0 0-2.24-3.41c-1.33-1.22-2.74-1.26-4.1-.08-1.34 1.18-2.06 2.73-2.7 4.42 3.11.3 6.24.32 9.36.04Zm-9.32 18.03c.62 1.63 1.33 3.08 2.55 4.23 1.33 1.24 2.8 1.28 4.15.07a9.3 9.3 0 0 0 2.55-4.17c0-.04-.04-.09-.08-.18a51.98 51.98 0 0 0-9.17.05Zm8.27-23.1a15.37 15.37 0 0 1 2.7 4.91c1.42-.2 2.79-.4 4.2-.8a14.5 14.5 0 0 0-6.9-4.1ZM17.57 38.02a13.68 13.68 0 0 0 6.63 3.88 16.97 16.97 0 0 1-2.48-4.67c-1.4.16-2.8.43-4.15.8Z" fill="#253A69"/></svg>