<!-- by TradingView --><svg width="56" height="56" viewBox="0 0 56 56" xmlns="http://www.w3.org/2000/svg"><path fill="#F28021" d="M0 0h56v56H0z"/><path fill-rule="evenodd" d="M13.75 21a1 1 0 1 1-2 0 1 1 0 0 1 2 0Zm-5.31 4.9.7-1.36A4.82 4.82 0 0 0 6.92 24c-1.3 0-2.75.72-2.75 2.3 0 1.42 1.37 1.93 2.03 2.18l.2.08.31.11c.62.21 1.55.54 1.55 1.34 0 .97-.9 1.42-1.86 1.42-.95 0-1.66-.8-1.89-1.6L4 31.54c.3.15 1.19.47 2.4.47 1.52 0 3.14-.75 3.14-2.67 0-1.55-1.73-1.98-2.65-2.21-.22-.05-.4-.1-.5-.14l-.15-.07c-.45-.2-.85-.37-.85-1.07 0-.8.72-1.17 1.53-1.17.82 0 1.44.47 1.52 1.23ZM12 24v8h1.5v-8H12Zm9.97 4c-1.75.01-5.28.03-5.38 0 0 1.84.82 3.32 2.46 3.32 1.3 0 2.27-.79 2.58-1.18v1c-.19.3-.98.86-2.58.86A3.88 3.88 0 0 1 15 28.38c-.11-1.46.43-4.38 3.55-4.38 3.12 0 3.57 2.67 3.41 4Zm-1.42-.78h-3.8c.1-.84.63-2.52 2-2.52 1.36 0 1.77 1.68 1.8 2.52Zm4.95-1.6A3.54 3.54 0 0 1 28.53 24c2.22 0 2.47 1.93 2.47 2.4V32h-1.5v-5.48c-.03-.5-.41-1.46-1.8-1.46-1.4 0-2.04 1.4-2.18 2.11l-.02-.06V32H24v-8h1.5v1.63Zm8 4.9v-8.54L35 21v3h2v1h-2v4.85c0 .67.22 1.3 1.02 1.3.64 0 .94-.14 1.01-.2v.58c-.18.16-.73.47-1.44.47-1.64 0-2.08-.99-2.09-1.48Zm6 1.48H41v-5.14a2.38 2.38 0 0 1 2.88-1.3v-1.54A2.93 2.93 0 0 0 41 25.56V24h-1.5v8Zm6.13-6.23v-.58A3.39 3.39 0 0 1 48.12 24c2.44 0 2.95 1.26 2.88 1.88v4.64c0 .87.55.8 1 .67l-.04.06c-.16.29-.42.75-1.25.75-.67 0-1.04-.52-1.16-.97-.77.64-1.5.95-2.21.95-.85 0-2.34-.3-2.34-1.95 0-1.66 1.31-2.26 2.93-2.6a5.8 5.8 0 0 0 1.57-.5v-.57c0-.57-.14-1.7-1.55-1.7-1.13 0-1.7.74-1.85 1.11h-.47Zm3.87 1.85v2.5c-.35.45-.92.94-1.66.94-1.06 0-1.34-.9-1.34-1.34-.05-.37.2-1.21 1.5-1.58.65-.18 1.15-.37 1.5-.52Z" fill="#F4F2F0"/></svg>