<!-- by TradingView --><svg width="56" height="56" viewBox="0 0 56 56" fill="none" xmlns="http://www.w3.org/2000/svg">
<rect width="56" height="56" fill="#F0F3FA"/>
<path fill-rule="evenodd" clip-rule="evenodd" d="M26.6 28.5078V30H26.375C25.8594 30 25.8594 29 25.8594 29C25.8594 29 24.6 29.2188 24.6 30.7656C24.6 31.3753 24.8516 31.762 25.1153 32H4V24H25.858C25.4367 24.5588 25.078 25.1864 25 25.6562C24.2247 25.6562 23.8674 25.2194 23.7187 25.0376L23.7185 25.0375C23.707 25.0233 23.6967 25.0107 23.6875 25L23.6821 25.0562C23.6368 25.5313 23.5898 26.0241 23.6001 26.4375C23.6241 27.4081 24.1648 27.9458 25.2545 27.7963L26.6 28.5078ZM5.43451 29.6403C5.72462 29.8801 6.13825 29.9999 6.67539 29.9999C7.19431 30.0031 7.5995 29.8991 7.89095 29.6879C8.1824 29.4767 8.32812 29.1686 8.32812 28.7634C8.32857 28.423 8.22239 28.1588 8.00957 27.9707C7.79676 27.7827 7.45689 27.6492 6.98994 27.5703L6.67873 27.5166C6.46832 27.4909 6.11354 27.4098 6.13759 27.1325C6.13759 26.9218 6.29753 26.8 6.61674 26.8C6.90067 26.8 7.22205 26.9309 7.21253 27.2631H8.20284C8.18196 26.8475 8.03445 26.5332 7.76033 26.3202C7.48177 26.1067 7.09546 26 6.60142 26C6.10738 26 5.80705 26.1067 5.54048 26.3202C5.41114 26.421 5.30734 26.5519 5.23777 26.7019C5.1682 26.852 5.13489 27.0169 5.14063 27.1829C5.14063 27.8631 5.49449 28.2751 6.36217 28.4187L6.6574 28.467C6.67646 28.4703 6.6978 28.4738 6.72081 28.4774C6.9448 28.5133 7.32813 28.5747 7.32813 28.8395C7.32813 29.0688 7.16826 29.2 6.81727 29.2C6.57403 29.2 6.2982 29.1454 6.18557 29.0707C6.07317 28.9954 6.01519 28.8574 6.01163 28.6567H5C4.99956 29.0727 5.14439 29.4006 5.43451 29.6403ZM8.66406 30H9.66406V27H8.66406V30ZM11 30H10V26H11V30ZM13.0698 30C13.5662 30 13.9634 29.8637 14.2612 29.5911C14.5551 29.3218 14.7023 28.9607 14.7028 28.5078C14.7033 28.0549 14.5561 27.6922 14.2612 27.4196C13.9733 27.1503 13.5761 27.0156 13.0698 27.0156C12.5634 27.0156 12.1651 27.1503 11.8747 27.4196C11.5808 27.6954 11.4226 28.0582 11.4221 28.5078C11.4216 28.9575 11.5798 29.3186 11.8747 29.5911C12.175 29.8637 12.5734 30 13.0698 30ZM12.4219 28.5106C12.4219 27.9839 12.7032 27.7623 13.0683 27.7617C13.4344 27.7623 13.7031 27.9607 13.7031 28.5106C13.7031 29.0613 13.4347 29.2539 13.0698 29.2539C12.7049 29.2539 12.4219 29.038 12.4219 28.5106ZM17.1085 30H18.0938C18.0157 29.8936 18 29.6555 18 29.4188V27.9015C18 27.3013 17.5252 27.0012 16.6221 27.0012C16.1503 27.0012 15.7964 27.0848 15.5601 27.2514C15.3451 27.403 15.2171 27.7044 15.1762 28H15.6946H16.1207C16.1207 27.8125 16.2969 27.6719 16.6108 27.6719C16.8009 27.6719 17 27.7834 17 27.9352C17.0098 28.0917 16.8009 28.2625 16.6277 28.2656L16.1652 28.3043C16.1031 28.3094 16.0436 28.3136 15.9868 28.3177C15.6758 28.3398 15.4438 28.3563 15.2894 28.4799C15.1074 28.6261 15 28.8346 15 29.1054C15 29.3476 15.1245 29.6098 15.3091 29.7611C15.5042 29.9204 15.7597 30.0001 16.0756 30.0001C16.4893 30.0005 16.8026 29.8801 17 29.6388C17.0049 29.7405 17.0668 29.9071 17.1085 30ZM17 28.8053C17 29.1647 16.7911 29.3443 16.4268 29.3443C16.2497 29.3533 15.9927 29.2812 16 29.0639C16 28.899 16.1684 28.8053 16.388 28.7828L16.7166 28.7498C16.847 28.7315 16.9591 28.6942 17 28.6387V28.8053ZM22.7079 27.2928C22.5336 27.0976 22.2939 27 21.9888 27C21.6551 27.0005 21.3609 27.1691 21.1062 27.506C20.9441 27.1711 20.6588 27.0036 20.2502 27.0036C19.9451 27.0036 19.7157 27.155 19.5 27.4579V27H18.5V30H19.5V28.238C19.5 28.0345 19.5894 27.75 19.8858 27.75C20.1618 27.75 20.2875 28.0078 20.2875 28.1871V30H21.1812V28.2498C21.1812 28.0466 21.2683 27.75 21.6285 27.75C21.9888 27.75 22 28.0198 22 28.1988V29.9957H23V28.1297C23.0005 27.767 22.8822 27.488 22.7079 27.2928ZM9.62501 26.4C9.62501 26.6209 9.42109 26.8 9.16954 26.8C8.91799 26.8 8.71406 26.6209 8.71406 26.4C8.71406 26.1791 8.91799 26 9.16954 26C9.42109 26 9.62501 26.1791 9.62501 26.4Z" fill="#292B64"/>
<path fill-rule="evenodd" clip-rule="evenodd" d="M52 32H30.312C30.334 31.9773 30.3567 31.9541 30.3799 31.9304L30.3801 31.9303C30.8025 31.4991 31.4 30.8892 31.4 29.4841C31.4109 28.9743 31.2207 28.4447 31 28C31.3913 28 32.1718 28.4408 32.4 28.8276V26.5233C32.4 25.4219 31.2032 25.5938 31.2032 25.5938C31.2032 25.5938 31.4 25.5178 31.4 24.4219C31.4 24.27 31.3855 24.1291 31.3614 24H52V32ZM43.7624 26.2474C43.7624 26.3855 43.6505 26.4974 43.5124 26.4974C43.3743 26.4974 43.2624 26.3855 43.2624 26.2474C43.2624 26.1094 43.3743 25.9974 43.5124 25.9974C43.6505 25.9974 43.7624 26.1094 43.7624 26.2474ZM35 27.6V26H35.4L35.4 30H35V28H33.4V29.9987H33L33 26H33.4V27.6H35ZM36.914 29.9996C36.0519 30.0006 35.6 29.2748 35.6 28.5C35.6 27.7399 36.0523 27 36.914 27.0004C37.851 27 38.1656 27.8729 38.1656 28.5C38.1656 29.2697 37.7483 30.0006 36.914 29.9996ZM36.914 29.6C37.5912 29.598 37.7619 28.9283 37.7625 28.5028C37.763 28.1481 37.6312 27.4 36.914 27.4C36.1969 27.4 35.9995 28.1486 36 28.5028C36.0005 28.9058 36.2893 29.598 36.914 29.6ZM42.6787 27.4007C42.4702 27.1281 42.176 27.0034 41.8538 26.9968C41.5097 27.0034 41.1744 27.1799 41 27.5055V27H40.6V30.996H41V29.505C41.1757 29.8067 41.5335 30 41.855 30C42.167 30 42.4776 29.8388 42.6787 29.5714C42.8825 29.3022 43 28.9412 43 28.4885C43 28.0357 42.8825 27.6731 42.6787 27.4007ZM42.3735 29.2815C42.2407 29.4754 42.0245 29.6 41.8064 29.6H41.8051C41.5881 29.6 41.3723 29.4796 41.2373 29.2891C41.0963 29.1014 41.0004 28.8345 41 28.4885C40.9996 28.1424 41.0954 27.8736 41.2373 27.6822C41.3743 27.4944 41.5899 27.4 41.8064 27.3951C42.0234 27.4 42.2402 27.4919 42.3785 27.6794C42.5183 27.8688 42.6 28.1231 42.6 28.4661C42.6 28.8092 42.5164 29.0802 42.3735 29.2815ZM43.7047 30H43.3077V27H43.7047V30ZM45.5499 27.4V27H45V26H44.6V27H44V27.4H44.6V29.3563C44.6005 29.7854 44.8168 30 45.2576 30C45.3399 30 45.4371 29.9939 45.55 29.9817V29.5785H45.3093C45.1075 29.5785 45 29.4902 45 29.3137V27.4H45.5499ZM47.8651 29.6375H48.0124V29.9375C47.9375 30 47.8652 30.0005 47.7912 30C47.5192 30 47.3739 29.8131 47.3533 29.5391C47.1729 29.8459 46.8914 29.9995 46.5088 30C46.224 30 46.0003 29.9267 45.8377 29.7801C45.6751 29.6335 45.5938 29.4272 45.5938 29.1611C45.5938 28.6426 45.9139 28.3464 46.5542 28.2724L46.9261 28.2281C47.1971 28.1944 47.3328 28.0628 47.3333 27.8333C47.3333 27.6745 47.2886 27.5593 47.2 27.489C47.1113 27.4187 46.9601 27.385 46.7461 27.385C46.5217 27.385 46.36 27.4267 46.2609 27.5101C46.1623 27.593 46.1063 27.7405 46.0923 27.9513H45.6924C45.7284 27.3171 46.0796 27 46.7461 27C47.3966 27 47.7218 27.2778 47.7218 27.8333V29.4984C47.7245 29.5911 47.7712 29.6375 47.8651 29.6375ZM46.5275 29.622C46.734 29.625 46.9344 29.548 47.0907 29.4056C47.2511 29.2651 47.3315 29.0632 47.332 28.8V28.4614C47.2308 28.5345 47.1125 28.5768 46.99 28.5836L46.6128 28.6335C46.3946 28.663 46.2391 28.7185 46.1463 28.8C46.052 28.8868 45.992 29.0196 46 29.1513C45.994 29.2805 46.0514 29.41 46.1409 29.4984C46.228 29.5813 46.3569 29.6225 46.5275 29.622ZM48.2689 30H48.6659V26H48.2689V30ZM48.9219 29C48.9608 29.6521 49.3183 30 49.9944 30C50.3056 29.9995 50.5519 29.9246 50.7332 29.7751C50.9093 29.626 51.0011 29.3844 51 29.1427C51.0011 28.9399 50.9346 28.7359 50.7968 28.598C50.6614 28.4687 50.4385 28.3687 50.1281 28.298L49.9029 28.2481C49.7646 28.2223 49.6323 28.1677 49.5133 28.0871C49.4347 28.0213 49.3896 27.9134 49.3958 27.806C49.3833 27.5042 49.685 27.3851 49.9223 27.4C50.3143 27.4 50.5376 27.5622 50.5586 28H50.9481C50.9312 27.3666 50.5884 27 49.9197 27C49.4964 27.0007 49.1884 27.1713 49.0575 27.4842C49.0146 27.5869 48.9944 27.699 48.9985 27.8117C48.9985 28.2628 49.2614 28.5439 49.7873 28.655L50.0223 28.7056C50.2422 28.7538 50.3937 28.8112 50.4768 28.8777C50.5599 28.9461 50.6079 29.0594 50.6014 29.1722C50.6014 29.4683 50.3991 29.6 49.9944 29.6C49.7724 29.6 49.6094 29.572 49.5068 29.4807C49.4042 29.3893 49.3413 29.215 49.3186 29H48.9219ZM39.4006 30C38.7246 30 38.3671 29.6521 38.3281 29H38.7248C38.7475 29.215 38.8105 29.3893 38.9131 29.4807C39.0157 29.572 39.1786 29.6 39.4006 29.6C39.8053 29.6 40.0077 29.4683 40.0077 29.1722C40.0141 29.0594 39.9662 28.9461 39.883 28.8777C39.7999 28.8112 39.6484 28.7538 39.4286 28.7056L39.1935 28.655C38.6677 28.5439 38.4047 28.2628 38.4047 27.8117C38.4006 27.699 38.4209 27.5869 38.4638 27.4842C38.5946 27.1713 38.9027 27.0007 39.326 27C39.9947 27 40.3375 27.3666 40.3543 28H39.9648C39.9438 27.5622 39.7205 27.4 39.3286 27.4C39.0912 27.3851 38.7896 27.5042 38.8021 27.806C38.7959 27.9134 38.841 28.0213 38.9196 28.0871C39.0385 28.1677 39.1708 28.2223 39.3091 28.2481L39.5344 28.298C39.8447 28.3687 40.0676 28.4687 40.2031 28.598C40.3408 28.7359 40.4073 28.9399 40.4063 29.1427C40.4073 29.3844 40.3156 29.626 40.1395 29.7751C39.9581 29.9246 39.7118 29.9995 39.4006 30Z" fill="#4B9E44"/>
<path d="M24.0001 25.6719C24.0001 25.6719 23.9999 25.9972 24.0001 26.4392C23.9999 27.0932 24.4069 27.548 25.3437 27.5C25.026 27.3028 25 26.9976 25 26.6259V26H24.6127C24.2112 26 24.0001 25.6719 24.0001 25.6719Z" fill="#F2C514"/>
<path d="M27 21.755V26C27 26 27.4375 26.3438 28.25 26.6875C28.6901 26.8737 29.9062 27.5 29.9062 27.5H31.134C31.6867 27.5 32.0156 28 32.0156 28V26.9267C32.0156 26.235 31.5147 26 31.0828 26H29V21.755L29.2582 21.2075C29.0206 21.0927 28.3227 21 28.0181 21C27.5858 21 27.0922 21.2952 27 21.755Z" fill="#F2C514"/>
<path d="M29 28.6205L27 27.9353V34.1171L26.7502 34.9266C26.7502 34.9266 27.1858 35 27.725 35C28.2643 35 29 34.625 29 33.9062V28.6205Z" fill="#F2C514"/>
<path d="M26.6 32V30.4297C26.6 30.4297 26.161 30.5046 25.875 30.1953C25.589 29.886 25.5703 29.4844 25.5703 29.4844C25.5703 29.4844 25 29.8977 25 30.608C25 31.4886 25.582 32 26.2498 32H26.6Z" fill="#292B64"/>
<path d="M29.3594 32V30C29.7812 30.0781 30.3976 30.5295 30.5938 30.9375C30.3584 31.3379 29.75 31.8125 29.3594 32Z" fill="#292B64"/>
<path d="M26.6719 25.6406V23.6719C26.2031 24 25.8906 24.5312 25.7969 24.8438C26 25.2031 26.2969 25.4531 26.6719 25.6406Z" fill="#292B64"/>
<path d="M29.3594 24.9112V23C29.3594 23 31 23.2344 31 24.519C31 25.8037 30.244 25.8075 30.244 25.8075C30.1636 25.434 29.9384 25.0232 29.3594 24.9112Z" fill="#292B64"/>
<path d="M26.7232 26.1743C26.1916 25.7621 25.5938 25.3125 25.5938 25.3125C25.5938 25.3125 25.2812 25.5938 25.2812 26.6562C25.2812 27.5792 26.5 28.0428 27.4706 28.4419C29.9906 29.4782 30.8105 30.5 30.8105 30.5C30.8105 30.5 30.9959 29.9648 31 29.4062C31.0018 29.1676 30.9643 28.8961 30.8105 28.6074C30.2967 27.6432 28.0311 27.188 26.7232 26.1743Z" fill="#292B64"/>
</svg>
