<!-- by TradingView --><svg width="56" height="56" viewBox="0 0 56 56" xmlns="http://www.w3.org/2000/svg"><path fill="url(#a3bvjxqpk)" d="M0 0h56v56H0z"/><path d="M36.98 40.4a.8.8 0 0 0-.8.8c0 .45.35.8.8.8a.8.8 0 0 0 .8-.8.8.8 0 0 0-.8-.8ZM35.36 40.4a.8.8 0 0 0-.8.8.8.8 0 1 0 1.61 0 .8.8 0 0 0-.8-.8ZM40.2 40.4a.8.8 0 0 0-.8.8c0 .45.35.8.8.8a.8.8 0 0 0 .8-.8.8.8 0 0 0-.8-.8ZM38.59 40.4a.8.8 0 0 0-.8.8c0 .45.35.8.8.8a.8.8 0 0 0 .8-.8.8.8 0 0 0-.8-.8Z" fill="#fff"/><path d="M36.98 38.78a.8.8 0 0 0-.8.8.8.8 0 1 0 1.61 0 .8.8 0 0 0-.81-.8ZM35.36 38.78a.8.8 0 0 0-.8.8.8.8 0 1 0 1.61 0 .8.8 0 0 0-.8-.8ZM40.2 38.78a.8.8 0 0 0-.8.8.8.8 0 1 0 1.61 0 .8.8 0 0 0-.81-.8Z" fill="#fff"/><path d="M38.59 38.78a.8.8 0 0 0-.8.8.8.8 0 1 0 1.61 0 .8.8 0 0 0-.81-.8ZM36.98 37.17a.8.8 0 0 0-.8.8.8.8 0 1 0 1.61 0 .8.8 0 0 0-.81-.8ZM35.36 37.17a.8.8 0 0 0-.8.8.8.8 0 1 0 1.61 0 .8.8 0 0 0-.8-.8ZM40.2 37.17a.8.8 0 0 0-.8.8.8.8 0 1 0 1.61 0 .8.8 0 0 0-.81-.8Z" fill="#fff"/><path d="M38.59 37.17a.8.8 0 0 0-.8.8.8.8 0 1 0 1.61 0 .8.8 0 0 0-.81-.8ZM36.98 35.56a.8.8 0 0 0-.8.8c0 .45.35.8.8.8a.8.8 0 0 0 .8-.8.8.8 0 0 0-.8-.8ZM35.36 35.56a.8.8 0 0 0-.8.8.8.8 0 1 0 1.61 0 .8.8 0 0 0-.8-.8ZM40.2 35.56a.8.8 0 0 0-.8.8c0 .45.35.8.8.8a.8.8 0 0 0 .8-.8.8.8 0 0 0-.8-.8ZM38.59 35.56a.8.8 0 0 0-.8.8c0 .45.35.8.8.8a.8.8 0 0 0 .8-.8.8.8 0 0 0-.8-.8ZM36.98 33.95a.8.8 0 0 0-.8.8c0 .45.35.8.8.8a.8.8 0 0 0 .8-.8.8.8 0 0 0-.8-.8Z" fill="#fff"/><path d="M35.36 33.95a.8.8 0 0 0-.8.8.8.8 0 1 0 1.61 0 .8.8 0 0 0-.8-.8ZM40.2 33.95a.8.8 0 0 0-.8.8c0 .45.35.8.8.8a.8.8 0 0 0 .8-.8.8.8 0 0 0-.8-.8ZM38.59 33.95a.8.8 0 0 0-.8.8c0 .45.35.8.8.8a.8.8 0 0 0 .8-.8.8.8 0 0 0-.8-.8ZM36.98 32.33a.8.8 0 0 0-.8.81c0 .45.35.8.8.8a.8.8 0 0 0 .8-.8.8.8 0 0 0-.8-.8Z" fill="#fff"/><path d="M35.36 32.33a.8.8 0 0 0-.8.81.8.8 0 1 0 1.61 0 .8.8 0 0 0-.8-.8ZM40.2 32.33a.8.8 0 0 0-.8.81c0 .45.35.8.8.8a.8.8 0 0 0 .8-.8.8.8 0 0 0-.8-.8ZM38.59 32.33a.8.8 0 0 0-.8.81c0 .45.35.8.8.8a.8.8 0 0 0 .8-.8.8.8 0 0 0-.8-.8ZM36.98 30.72a.8.8 0 0 0-.8.8c0 .46.35.81.8.81a.8.8 0 0 0 .8-.8.8.8 0 0 0-.8-.8Z" fill="#fff"/><path d="M35.36 30.72a.8.8 0 0 0-.8.8.8.8 0 1 0 1.61 0 .8.8 0 0 0-.8-.8ZM40.2 30.72a.8.8 0 0 0-.8.8c0 .46.35.81.8.81a.8.8 0 0 0 .8-.8.8.8 0 0 0-.8-.8ZM38.59 30.72a.8.8 0 0 0-.8.8c0 .46.35.81.8.81a.8.8 0 0 0 .8-.8.8.8 0 0 0-.8-.8ZM36.98 29.11a.8.8 0 0 0-.8.8c0 .46.35.81.8.81a.8.8 0 0 0 .8-.8.8.8 0 0 0-.8-.8Z" fill="#fff"/><path d="M35.36 29.11a.8.8 0 0 0-.8.8.8.8 0 1 0 1.61 0 .8.8 0 0 0-.8-.8ZM40.2 29.11a.8.8 0 0 0-.8.8c0 .46.35.81.8.81a.8.8 0 0 0 .8-.8.8.8 0 0 0-.8-.8ZM38.59 29.11a.8.8 0 0 0-.8.8c0 .46.35.81.8.81a.8.8 0 0 0 .8-.8.8.8 0 0 0-.8-.8ZM36.98 27.5a.8.8 0 0 0-.8.8.8.8 0 1 0 1.61 0 .8.8 0 0 0-.81-.8Z" fill="#fff"/><path d="M35.36 27.5a.8.8 0 0 0-.8.8.8.8 0 1 0 1.61 0 .8.8 0 0 0-.8-.8ZM40.2 27.5a.8.8 0 0 0-.8.8.8.8 0 1 0 1.61 0 .8.8 0 0 0-.81-.8Z" fill="#fff"/><path d="M38.59 27.5a.8.8 0 0 0-.8.8.8.8 0 1 0 1.61 0 .8.8 0 0 0-.81-.8ZM36.98 25.89a.8.8 0 0 0-.8.8.8.8 0 1 0 1.61 0 .8.8 0 0 0-.81-.8ZM35.36 25.89a.8.8 0 0 0-.8.8.8.8 0 1 0 1.61 0 .8.8 0 0 0-.8-.8ZM40.2 25.89a.8.8 0 0 0-.8.8.8.8 0 1 0 1.61 0 .8.8 0 0 0-.81-.8Z" fill="#fff"/><path d="M38.59 25.89a.8.8 0 0 0-.8.8.8.8 0 1 0 1.61 0 .8.8 0 0 0-.81-.8ZM36.98 24.28a.8.8 0 0 0-.8.8.8.8 0 1 0 1.61 0 .8.8 0 0 0-.81-.8ZM35.36 24.28a.8.8 0 0 0-.8.8.8.8 0 1 0 1.61 0 .8.8 0 0 0-.8-.8ZM40.2 24.28a.8.8 0 0 0-.8.8.8.8 0 1 0 1.61 0 .8.8 0 0 0-.81-.8Z" fill="#fff"/><path d="M38.59 24.28a.8.8 0 0 0-.8.8.8.8 0 1 0 1.61 0 .8.8 0 0 0-.81-.8ZM36.98 22.67a.8.8 0 0 0-.8.8.8.8 0 1 0 1.61 0 .8.8 0 0 0-.81-.8ZM35.36 22.67a.8.8 0 0 0-.8.8.8.8 0 1 0 1.61 0 .8.8 0 0 0-.8-.8ZM40.2 22.67a.8.8 0 0 0-.8.8.8.8 0 1 0 1.61 0 .8.8 0 0 0-.81-.8Z" fill="#fff"/><path d="M38.59 22.67a.8.8 0 0 0-.8.8.8.8 0 1 0 1.61 0 .8.8 0 0 0-.81-.8ZM36.98 21.06a.8.8 0 0 0-.8.8c0 .45.35.8.8.8a.8.8 0 0 0 .8-.8.8.8 0 0 0-.8-.8ZM35.36 21.06a.8.8 0 0 0-.8.8.8.8 0 1 0 1.61 0 .8.8 0 0 0-.8-.8ZM40.2 21.06a.8.8 0 0 0-.8.8c0 .45.35.8.8.8a.8.8 0 0 0 .8-.8.8.8 0 0 0-.8-.8ZM38.59 21.06a.8.8 0 0 0-.8.8c0 .45.35.8.8.8a.8.8 0 0 0 .8-.8.8.8 0 0 0-.8-.8ZM36.98 19.44a.8.8 0 0 0-.8.81c0 .45.35.8.8.8a.8.8 0 0 0 .8-.8.8.8 0 0 0-.8-.8Z" fill="#fff"/><path d="M35.36 19.44a.8.8 0 0 0-.8.81.8.8 0 1 0 1.61 0 .8.8 0 0 0-.8-.8ZM40.2 19.44a.8.8 0 0 0-.8.81c0 .45.35.8.8.8a.8.8 0 0 0 .8-.8.8.8 0 0 0-.8-.8ZM38.59 19.44a.8.8 0 0 0-.8.81c0 .45.35.8.8.8a.8.8 0 0 0 .8-.8.8.8 0 0 0-.8-.8ZM36.98 17.83a.8.8 0 0 0-.8.8c0 .46.35.81.8.81a.8.8 0 0 0 .8-.8.8.8 0 0 0-.8-.8Z" fill="#fff"/><path d="M35.36 17.83a.8.8 0 0 0-.8.8.8.8 0 1 0 1.61 0 .8.8 0 0 0-.8-.8ZM40.2 17.83a.8.8 0 0 0-.8.8c0 .46.35.81.8.81a.8.8 0 0 0 .8-.8.8.8 0 0 0-.8-.8ZM38.59 17.83a.8.8 0 0 0-.8.8c0 .46.35.81.8.81a.8.8 0 0 0 .8-.8.8.8 0 0 0-.8-.8ZM36.98 16.22a.8.8 0 0 0-.8.8c0 .46.35.81.8.81a.8.8 0 0 0 .8-.8.8.8 0 0 0-.8-.8Z" fill="#fff"/><path d="M35.36 16.22a.8.8 0 0 0-.8.8.8.8 0 1 0 1.61 0 .8.8 0 0 0-.8-.8ZM40.2 16.22a.8.8 0 0 0-.8.8c0 .46.35.81.8.81a.8.8 0 0 0 .8-.8.8.8 0 0 0-.8-.8ZM38.59 16.22a.8.8 0 0 0-.8.8c0 .46.35.81.8.81a.8.8 0 0 0 .8-.8.8.8 0 0 0-.8-.8ZM36.98 14.61a.8.8 0 0 0-.8.8.8.8 0 1 0 1.61 0 .8.8 0 0 0-.81-.8Z" fill="#fff"/><path d="M35.36 14.61a.8.8 0 0 0-.8.8.8.8 0 1 0 1.61 0 .8.8 0 0 0-.8-.8ZM40.2 14.61a.8.8 0 0 0-.8.8.8.8 0 1 0 1.61 0 .8.8 0 0 0-.81-.8Z" fill="#fff"/><path d="M38.59 14.61a.8.8 0 0 0-.8.8.8.8 0 1 0 1.61 0 .8.8 0 0 0-.81-.8ZM36.98 13a.8.8 0 0 0-.8.8.8.8 0 1 0 1.61 0 .8.8 0 0 0-.81-.8ZM35.36 13a.8.8 0 0 0-.8.8.8.8 0 1 0 1.61 0 .8.8 0 0 0-.8-.8ZM40.2 13a.8.8 0 0 0-.8.8.8.8 0 1 0 1.61 0 .8.8 0 0 0-.81-.8Z" fill="#fff"/><path d="M38.59 13a.8.8 0 0 0-.8.8.8.8 0 1 0 1.61 0 .8.8 0 0 0-.81-.8ZM28.92 40.4a.8.8 0 0 0-.8.8c0 .45.35.8.8.8a.8.8 0 0 0 .8-.8.8.8 0 0 0-.8-.8ZM30.53 38.78a.8.8 0 0 0-.8.8.8.8 0 1 0 1.61 0 .8.8 0 0 0-.81-.8Z" fill="#fff"/><path d="M28.92 38.78a.8.8 0 0 0-.8.8.8.8 0 1 0 1.61 0 .8.8 0 0 0-.81-.8ZM30.53 37.17a.8.8 0 0 0-.8.8.8.8 0 1 0 1.61 0 .8.8 0 0 0-.81-.8Z" fill="#fff"/><path d="M28.92 37.17a.8.8 0 0 0-.8.8.8.8 0 1 0 1.61 0 .8.8 0 0 0-.81-.8ZM32.14 37.17a.8.8 0 0 0-.8.8.8.8 0 1 0 1.61 0 .8.8 0 0 0-.8-.8ZM30.53 35.56a.8.8 0 0 0-.8.8c0 .45.35.8.8.8a.8.8 0 0 0 .8-.8.8.8 0 0 0-.8-.8ZM28.92 35.56a.8.8 0 0 0-.8.8c0 .45.35.8.8.8a.8.8 0 0 0 .8-.8.8.8 0 0 0-.8-.8ZM33.75 35.56a.8.8 0 0 0-.8.8.8.8 0 1 0 1.61 0 .8.8 0 0 0-.8-.8ZM32.14 35.56a.8.8 0 0 0-.8.8c0 .45.35.8.8.8a.8.8 0 0 0 .8-.8.8.8 0 0 0-.8-.8ZM30.53 17.83a.8.8 0 0 0-.8.8c0 .46.35.81.8.81a.8.8 0 0 0 .8-.8.8.8 0 0 0-.8-.8ZM28.92 17.83a.8.8 0 0 0-.8.8c0 .46.35.81.8.81a.8.8 0 0 0 .8-.8.8.8 0 0 0-.8-.8ZM33.75 17.83a.8.8 0 0 0-.8.8.8.8 0 1 0 1.61 0 .8.8 0 0 0-.8-.8ZM32.14 17.83a.8.8 0 0 0-.8.8c0 .46.35.81.8.81a.8.8 0 0 0 .8-.8.8.8 0 0 0-.8-.8ZM30.53 16.22a.8.8 0 0 0-.8.8c0 .46.35.81.8.81a.8.8 0 0 0 .8-.8.8.8 0 0 0-.8-.8ZM28.92 16.22a.8.8 0 0 0-.8.8c0 .46.35.81.8.81a.8.8 0 0 0 .8-.8.8.8 0 0 0-.8-.8Z" fill="#fff"/><path d="M33.75 16.22a.8.8 0 0 0-.8.8.8.8 0 1 0 1.61 0 .8.8 0 0 0-.8-.8ZM32.14 16.22a.8.8 0 0 0-.8.8c0 .46.35.81.8.81a.8.8 0 0 0 .8-.8.8.8 0 0 0-.8-.8ZM30.53 14.61a.8.8 0 0 0-.8.8.8.8 0 1 0 1.61 0 .8.8 0 0 0-.81-.8Z" fill="#fff"/><path d="M28.92 14.61a.8.8 0 0 0-.8.8.8.8 0 1 0 1.61 0 .8.8 0 0 0-.81-.8ZM33.75 14.61a.8.8 0 0 0-.8.8.8.8 0 1 0 1.61 0 .8.8 0 0 0-.8-.8Z" fill="#fff"/><path d="M32.14 14.61a.8.8 0 0 0-.8.8.8.8 0 1 0 1.61 0 .8.8 0 0 0-.8-.8ZM30.53 13a.8.8 0 0 0-.8.8.8.8 0 1 0 1.61 0 .8.8 0 0 0-.81-.8Z" fill="#fff"/><path d="M28.92 13a.8.8 0 0 0-.8.8.8.8 0 1 0 1.61 0 .8.8 0 0 0-.81-.8ZM33.75 13a.8.8 0 0 0-.8.8.8.8 0 1 0 1.61 0 .8.8 0 0 0-.8-.8Z" fill="#fff"/><path d="M32.14 13a.8.8 0 0 0-.8.8.8.8 0 1 0 1.61 0 .8.8 0 0 0-.8-.8ZM24.09 40.4a.8.8 0 0 0-.81.8.8.8 0 1 0 1.61 0 .8.8 0 0 0-.8-.8Z" fill="#fff"/><path d="M22.47 40.4a.8.8 0 0 0-.8.8.8.8 0 1 0 1.61 0 .8.8 0 0 0-.8-.8ZM27.3 40.4a.8.8 0 0 0-.8.8.8.8 0 1 0 1.61 0 .8.8 0 0 0-.8-.8Z" fill="#fff"/><path d="M25.7 40.4a.8.8 0 0 0-.8.8c0 .45.35.8.8.8a.8.8 0 0 0 .8-.8.8.8 0 0 0-.8-.8ZM24.09 38.78a.8.8 0 0 0-.81.8.8.8 0 1 0 1.61 0 .8.8 0 0 0-.8-.8Z" fill="#fff"/><path d="M22.47 38.78a.8.8 0 0 0-.8.8.8.8 0 1 0 1.61 0 .8.8 0 0 0-.8-.8ZM27.3 38.78a.8.8 0 0 0-.8.8.8.8 0 1 0 1.61 0 .8.8 0 0 0-.8-.8Z" fill="#fff"/><path d="M25.7 38.78a.8.8 0 0 0-.8.8.8.8 0 1 0 1.61 0 .8.8 0 0 0-.81-.8ZM24.09 37.17a.8.8 0 0 0-.81.8.8.8 0 1 0 1.61 0 .8.8 0 0 0-.8-.8Z" fill="#fff"/><path d="M22.47 37.17a.8.8 0 0 0-.8.8.8.8 0 1 0 1.61 0 .8.8 0 0 0-.8-.8ZM27.3 37.17a.8.8 0 0 0-.8.8.8.8 0 1 0 1.61 0 .8.8 0 0 0-.8-.8Z" fill="#fff"/><path d="M25.7 37.17a.8.8 0 0 0-.8.8.8.8 0 1 0 1.61 0 .8.8 0 0 0-.81-.8ZM24.09 35.56a.8.8 0 0 0-.81.8.8.8 0 1 0 1.61 0 .8.8 0 0 0-.8-.8Z" fill="#fff"/><path d="M22.47 35.56a.8.8 0 0 0-.8.8.8.8 0 1 0 1.61 0 .8.8 0 0 0-.8-.8ZM27.3 35.56a.8.8 0 0 0-.8.8.8.8 0 1 0 1.61 0 .8.8 0 0 0-.8-.8Z" fill="#fff"/><path d="M25.7 35.56a.8.8 0 0 0-.8.8c0 .45.35.8.8.8a.8.8 0 0 0 .8-.8.8.8 0 0 0-.8-.8ZM24.09 17.83a.8.8 0 0 0-.81.8.8.8 0 1 0 1.61 0 .8.8 0 0 0-.8-.8Z" fill="#fff"/><path d="M22.47 17.83a.8.8 0 0 0-.8.8.8.8 0 1 0 1.61 0 .8.8 0 0 0-.8-.8ZM27.3 17.83a.8.8 0 0 0-.8.8.8.8 0 1 0 1.61 0 .8.8 0 0 0-.8-.8Z" fill="#fff"/><path d="M25.7 17.83a.8.8 0 0 0-.8.8c0 .46.35.81.8.81a.8.8 0 0 0 .8-.8.8.8 0 0 0-.8-.8ZM24.09 16.22a.8.8 0 0 0-.81.8.8.8 0 1 0 1.61 0 .8.8 0 0 0-.8-.8Z" fill="#fff"/><path d="M22.47 16.22a.8.8 0 0 0-.8.8.8.8 0 1 0 1.61 0 .8.8 0 0 0-.8-.8ZM27.3 16.22a.8.8 0 0 0-.8.8.8.8 0 1 0 1.61 0 .8.8 0 0 0-.8-.8Z" fill="#fff"/><path d="M25.7 16.22a.8.8 0 0 0-.8.8c0 .46.35.81.8.81a.8.8 0 0 0 .8-.8.8.8 0 0 0-.8-.8ZM24.09 14.61a.8.8 0 0 0-.81.8.8.8 0 1 0 1.61 0 .8.8 0 0 0-.8-.8Z" fill="#fff"/><path d="M22.47 14.61a.8.8 0 0 0-.8.8.8.8 0 1 0 1.61 0 .8.8 0 0 0-.8-.8ZM27.3 14.61a.8.8 0 0 0-.8.8.8.8 0 1 0 1.61 0 .8.8 0 0 0-.8-.8Z" fill="#fff"/><path d="M25.7 14.61a.8.8 0 0 0-.8.8.8.8 0 1 0 1.61 0 .8.8 0 0 0-.81-.8ZM24.09 13a.8.8 0 0 0-.81.8.8.8 0 1 0 1.61 0 .8.8 0 0 0-.8-.8Z" fill="#fff"/><path d="M22.47 13a.8.8 0 0 0-.8.8.8.8 0 1 0 1.61 0 .8.8 0 0 0-.8-.8ZM27.3 13a.8.8 0 0 0-.8.8.8.8 0 1 0 1.61 0 .8.8 0 0 0-.8-.8Z" fill="#fff"/><path d="M25.7 13a.8.8 0 0 0-.8.8.8.8 0 1 0 1.61 0 .8.8 0 0 0-.81-.8ZM17.64 40.4a.8.8 0 0 0-.8.8c0 .45.35.8.8.8a.8.8 0 0 0 .8-.8.8.8 0 0 0-.8-.8ZM20.86 40.4a.8.8 0 0 0-.8.8.8.8 0 1 0 1.61 0 .8.8 0 0 0-.8-.8ZM19.25 40.4a.8.8 0 0 0-.8.8c0 .45.35.8.8.8a.8.8 0 0 0 .8-.8.8.8 0 0 0-.8-.8Z" fill="#fff"/><path d="M17.64 38.78a.8.8 0 0 0-.8.8.8.8 0 1 0 1.61 0 .8.8 0 0 0-.81-.8Z" fill="#fff"/><path d="M16.03 38.78a.8.8 0 0 0-.8.8.8.8 0 1 0 1.61 0 .8.8 0 0 0-.81-.8ZM20.86 38.78a.8.8 0 0 0-.8.8.8.8 0 1 0 1.61 0 .8.8 0 0 0-.8-.8Z" fill="#fff"/><path d="M19.25 38.78a.8.8 0 0 0-.8.8.8.8 0 1 0 1.61 0 .8.8 0 0 0-.81-.8ZM17.64 37.17a.8.8 0 0 0-.8.8.8.8 0 1 0 1.61 0 .8.8 0 0 0-.81-.8Z" fill="#fff"/><path d="M16.03 37.17a.8.8 0 0 0-.8.8.8.8 0 1 0 1.61 0 .8.8 0 0 0-.81-.8ZM20.86 37.17a.8.8 0 0 0-.8.8.8.8 0 1 0 1.61 0 .8.8 0 0 0-.8-.8Z" fill="#fff"/><path d="M19.25 37.17a.8.8 0 0 0-.8.8.8.8 0 1 0 1.61 0 .8.8 0 0 0-.81-.8ZM17.64 35.56a.8.8 0 0 0-.8.8c0 .45.35.8.8.8a.8.8 0 0 0 .8-.8.8.8 0 0 0-.8-.8ZM16.03 35.56a.8.8 0 0 0-.8.8c0 .45.35.8.8.8a.8.8 0 0 0 .8-.8.8.8 0 0 0-.8-.8ZM20.86 35.56a.8.8 0 0 0-.8.8.8.8 0 1 0 1.61 0 .8.8 0 0 0-.8-.8ZM19.25 35.56a.8.8 0 0 0-.8.8c0 .45.35.8.8.8a.8.8 0 0 0 .8-.8.8.8 0 0 0-.8-.8ZM17.64 33.95a.8.8 0 0 0-.8.8c0 .45.35.8.8.8a.8.8 0 0 0 .8-.8.8.8 0 0 0-.8-.8ZM16.03 33.95a.8.8 0 0 0-.8.8c0 .45.35.8.8.8a.8.8 0 0 0 .8-.8.8.8 0 0 0-.8-.8ZM17.64 32.33a.8.8 0 0 0-.8.81c0 .45.35.8.8.8a.8.8 0 0 0 .8-.8.8.8 0 0 0-.8-.8ZM16.03 32.33a.8.8 0 0 0-.8.81c0 .45.35.8.8.8a.8.8 0 0 0 .8-.8.8.8 0 0 0-.8-.8Z" fill="#fff"/><path d="M17.64 30.72a.8.8 0 0 0-.8.8c0 .46.35.81.8.81a.8.8 0 0 0 .8-.8.8.8 0 0 0-.8-.8ZM16.03 30.72a.8.8 0 0 0-.8.8c0 .46.35.81.8.81a.8.8 0 0 0 .8-.8.8.8 0 0 0-.8-.8ZM17.64 29.11a.8.8 0 0 0-.8.8c0 .46.35.81.8.81a.8.8 0 0 0 .8-.8.8.8 0 0 0-.8-.8ZM16.03 29.11a.8.8 0 0 0-.8.8c0 .46.35.81.8.81a.8.8 0 0 0 .8-.8.8.8 0 0 0-.8-.8Z" fill="#fff"/><path d="M17.64 27.5a.8.8 0 0 0-.8.8.8.8 0 1 0 1.61 0 .8.8 0 0 0-.81-.8Z" fill="#fff"/><path d="M16.03 27.5a.8.8 0 0 0-.8.8.8.8 0 1 0 1.61 0 .8.8 0 0 0-.81-.8ZM17.64 25.89a.8.8 0 0 0-.8.8.8.8 0 1 0 1.61 0 .8.8 0 0 0-.81-.8Z" fill="#fff"/><path d="M16.03 25.89a.8.8 0 0 0-.8.8.8.8 0 1 0 1.61 0 .8.8 0 0 0-.81-.8ZM17.64 24.28a.8.8 0 0 0-.8.8.8.8 0 1 0 1.61 0 .8.8 0 0 0-.81-.8Z" fill="#fff"/><path d="M16.03 24.28a.8.8 0 0 0-.8.8.8.8 0 1 0 1.61 0 .8.8 0 0 0-.81-.8ZM17.64 22.67a.8.8 0 0 0-.8.8.8.8 0 1 0 1.61 0 .8.8 0 0 0-.81-.8Z" fill="#fff"/><path d="M16.03 22.67a.8.8 0 0 0-.8.8.8.8 0 1 0 1.61 0 .8.8 0 0 0-.81-.8ZM17.64 21.06a.8.8 0 0 0-.8.8c0 .45.35.8.8.8a.8.8 0 0 0 .8-.8.8.8 0 0 0-.8-.8ZM16.03 21.06a.8.8 0 0 0-.8.8c0 .45.35.8.8.8a.8.8 0 0 0 .8-.8.8.8 0 0 0-.8-.8ZM17.64 19.44a.8.8 0 0 0-.8.81c0 .45.35.8.8.8a.8.8 0 0 0 .8-.8.8.8 0 0 0-.8-.8ZM16.03 19.44a.8.8 0 0 0-.8.81c0 .45.35.8.8.8a.8.8 0 0 0 .8-.8.8.8 0 0 0-.8-.8Z" fill="#fff"/><path d="M17.64 17.83a.8.8 0 0 0-.8.8c0 .46.35.81.8.81a.8.8 0 0 0 .8-.8.8.8 0 0 0-.8-.8ZM20.86 17.83a.8.8 0 0 0-.8.8.8.8 0 1 0 1.61 0 .8.8 0 0 0-.8-.8ZM19.25 17.83a.8.8 0 0 0-.8.8c0 .46.35.81.8.81a.8.8 0 0 0 .8-.8.8.8 0 0 0-.8-.8Z" fill="#fff"/><path d="M20.86 16.22a.8.8 0 0 0-.8.8.8.8 0 1 0 1.61 0 .8.8 0 0 0-.8-.8ZM19.25 16.22a.8.8 0 0 0-.8.8c0 .46.35.81.8.81a.8.8 0 0 0 .8-.8.8.8 0 0 0-.8-.8Z" fill="#fff"/><path d="M20.86 14.61a.8.8 0 0 0-.8.8.8.8 0 1 0 1.61 0 .8.8 0 0 0-.8-.8ZM14.42 37.17a.8.8 0 0 0-.8.8.8.8 0 1 0 1.61 0 .8.8 0 0 0-.81-.8ZM14.42 35.56a.8.8 0 0 0-.8.8c0 .45.35.8.8.8a.8.8 0 0 0 .8-.8.8.8 0 0 0-.8-.8ZM12.8 35.56a.8.8 0 0 0-.8.8.8.8 0 1 0 1.61 0 .8.8 0 0 0-.8-.8ZM14.42 33.95a.8.8 0 0 0-.8.8c0 .45.35.8.8.8a.8.8 0 0 0 .8-.8.8.8 0 0 0-.8-.8Z" fill="#fff"/><path d="M12.8 33.95a.8.8 0 0 0-.8.8.8.8 0 1 0 1.61 0 .8.8 0 0 0-.8-.8ZM14.42 32.33a.8.8 0 0 0-.8.81c0 .45.35.8.8.8a.8.8 0 0 0 .8-.8.8.8 0 0 0-.8-.8Z" fill="#fff"/><path d="M12.8 32.33a.8.8 0 0 0-.8.81.8.8 0 1 0 1.61 0 .8.8 0 0 0-.8-.8ZM14.42 30.72a.8.8 0 0 0-.8.8c0 .46.35.81.8.81a.8.8 0 0 0 .8-.8.8.8 0 0 0-.8-.8Z" fill="#fff"/><path d="M12.8 30.72a.8.8 0 0 0-.8.8.8.8 0 1 0 1.61 0 .8.8 0 0 0-.8-.8ZM14.42 29.11a.8.8 0 0 0-.8.8c0 .46.35.81.8.81a.8.8 0 0 0 .8-.8.8.8 0 0 0-.8-.8Z" fill="#fff"/><path d="M12.8 29.11a.8.8 0 0 0-.8.8.8.8 0 1 0 1.61 0 .8.8 0 0 0-.8-.8ZM14.42 27.5a.8.8 0 0 0-.8.8.8.8 0 1 0 1.61 0 .8.8 0 0 0-.81-.8Z" fill="#fff"/><path d="M12.8 27.5a.8.8 0 0 0-.8.8.8.8 0 1 0 1.61 0 .8.8 0 0 0-.8-.8ZM14.42 25.89a.8.8 0 0 0-.8.8.8.8 0 1 0 1.61 0 .8.8 0 0 0-.81-.8Z" fill="#fff"/><path d="M12.8 25.89a.8.8 0 0 0-.8.8.8.8 0 1 0 1.61 0 .8.8 0 0 0-.8-.8ZM14.42 24.28a.8.8 0 0 0-.8.8.8.8 0 1 0 1.61 0 .8.8 0 0 0-.81-.8Z" fill="#fff"/><path d="M12.8 24.28a.8.8 0 0 0-.8.8.8.8 0 1 0 1.61 0 .8.8 0 0 0-.8-.8ZM14.42 22.67a.8.8 0 0 0-.8.8.8.8 0 1 0 1.61 0 .8.8 0 0 0-.81-.8Z" fill="#fff"/><path d="M12.8 22.67a.8.8 0 0 0-.8.8.8.8 0 1 0 1.61 0 .8.8 0 0 0-.8-.8ZM14.42 21.06a.8.8 0 0 0-.8.8c0 .45.35.8.8.8a.8.8 0 0 0 .8-.8.8.8 0 0 0-.8-.8Z" fill="#fff"/><defs><linearGradient id="a3bvjxqpk" x1="10.42" y1="9.71" x2="68.15" y2="76.02" gradientUnits="userSpaceOnUse"><stop stop-color="#1A1E21"/><stop offset="1" stop-color="#06060A"/></linearGradient></defs></svg>