<!-- by TradingView --><svg width="56" height="56" viewBox="0 0 56 56" xmlns="http://www.w3.org/2000/svg"><path d="m40 16.42-10.74-6.07a2.52 2.52 0 0 0-2.57 0L13.26 18.1c-.42.26-.79.63-1 1.05L29.36 22 40 16.42Z" fill="#DB40EF"/><path d="M26.22 34 16 39.5l10.69 6.15c.79.47 1.78.47 2.57 0l13.43-7.74c.37-.21.63-.47.84-.79L26.22 34Z" fill="#4067E2"/><path d="M29.36 22 12 32l14.22 2L44 24.73 29.36 22Z" fill="#59CFDB"/><path d="M12.26 19.14c-.16.36-.26.73-.26 1.15V32l17.36-10-17.1-2.86Z" fill="#4C34CD"/><path d="M44 24.73 26.22 34l17.3 3.18c.27-.42.48-.94.48-1.47V24.73Z" fill="#0051D2"/></svg>