<!-- by TradingView --><svg width="56" height="56" viewBox="0 0 56 56" xmlns="http://www.w3.org/2000/svg"><path fill="#F0F3FA" d="M0 0h56v56H0z"/><path d="m31 49-10-7.32V34l10 7.32V49ZM25 7l10 7.32V22l-10-7.32V7Z" fill="#F9AB0C"/><path d="m21 41.7-4.42-3.6c-1.3-1.03-1.58-1.8-1.58-3V28a5.4 5.4 0 0 0 1.68 2.5L21 34v7.7ZM35 14.3l4.42 3.6c1.3 1.03 1.58 1.8 1.58 3V28a5.4 5.4 0 0 0-1.68-2.5L35 22v-7.7ZM31 33.5V42l-6-5 6-3.5ZM25 22.5V14l6 5-6 3.5Z" fill="#FACD09"/><path d="M25 37v-7l6 3.5-6 3.5ZM31 19v7l-6-3.5 6-3.5ZM21 20c-2.42.66-6 2.1-6 5.3v3.2a4.97 4.97 0 0 0 1.68 2.29L21 34V20ZM35 36c2.42-.66 6-2.1 6-5.3v-3.2a4.97 4.97 0 0 0-1.68-2.29L35 22v14Z" fill="#F9AB0C"/></svg>