<!-- by TradingView --><svg width="56" height="56" viewBox="0 0 56 56" xmlns="http://www.w3.org/2000/svg"><path fill="#F0F3FA" d="M0 0h56v56H0z"/><path fill="#0053A1" d="M14 14h28v28H14z"/><path d="M27.52 34.67c-4.34 3.2-5.67 6-5.52 7.33h-3c-.45-.89-.57-1.52-.57-6.89 0-5.33 7.2-16.22 11.57-21.11h12v10L27.52 34.67Z" fill="url(#apquvanlb)"/><path d="M22 39c-1.81 3.2 1.1 4.56 2 5-5.88-.89-9-3.72-9-9.5 0-4.64 9.17-15.61 14-20.5l-1.5-2H40v12l-2-2c-9.5 7.56-13.74 13-16 17Z" fill="url(#bpquvanlb)"/><defs><linearGradient id="apquvanlb" x1="19.33" y1="40.44" x2="42.89" y2="16.91" gradientUnits="userSpaceOnUse"><stop stop-color="#032C64"/><stop offset=".63" stop-color="#00458A"/><stop offset="1" stop-color="#00519B"/></linearGradient><linearGradient id="bpquvanlb" x1="38.79" y1="13.78" x2="15.34" y2="44.41" gradientUnits="userSpaceOnUse"><stop stop-color="#91A4A9"/><stop offset=".19" stop-color="#C8D1D6"/><stop offset=".34" stop-color="#F1F2F4"/><stop offset=".47" stop-color="#DADFE2"/><stop offset=".74" stop-color="#A7B5BE"/><stop offset="1" stop-color="#94A5AF"/></linearGradient></defs></svg>