<!-- by TradingView --><svg width="56" height="56" viewBox="0 0 56 56" xmlns="http://www.w3.org/2000/svg"><path fill="#F0F3FA" d="M0 0h56v56H0z"/><path d="M37 12H26c-5.16 1.5-14 9-14 17 0 8.8 7.89 14.35 11.35 14.99C21.41 42.71 18.96 36.65 20 30c1.04-6.65 11.58-14.16 17-18Z" fill="url(#attjzsq10)"/><path d="M21 32.5c0 6.5.5 11.5 7 11.5v-3c-.02-1.9-.14-3.71-.83-5.13-1.03-2.14-3.97-3.03-6.17-3.37Z" fill="#DC0E16"/><path d="m29 44 1.43-.01c.97 0 2.16-.3 3.07-.49.89-3.54.96-9.1-1.26-12.06A17.1 17.1 0 0 0 24 25.5a17.08 17.08 0 0 0-2.44 5.5c2.61.41 5.13 1.77 6.34 4.29 1.22 2.52 1.37 5.93 1.1 8.71Z" fill="#E25A10"/><path d="M25 24.5c2.53.86 5.43 2.58 8 6 2.66 3.54 2.43 8.92 1.5 13A15.49 15.49 0 0 0 40 40c.72-3.44.43-7.04-1-10.5-1.83-4.43-5.65-7.65-10-9.5a29.02 29.02 0 0 0-4 4.5Z" fill="#007BC4"/><path d="M30 19a42.85 42.85 0 0 1 4-3c5.86 1.63 10 7.17 10 13.75a15.3 15.3 0 0 1-3 8.75c1.11-8.7-3.25-15.95-11-19.5Z" fill="#1E3D91"/><defs><linearGradient id="attjzsq10" x1="24.39" y1="12" x2="24.39" y2="43.99" gradientUnits="userSpaceOnUse"><stop stop-color="#FFCE00"/><stop offset="1" stop-color="#B06C00"/></linearGradient></defs></svg>