<!-- by TradingView --><svg width="56" height="56" viewBox="0 0 56 56" fill="none" xmlns="http://www.w3.org/2000/svg">
<rect width="56" height="56" fill="url(#paint0_linear_229_4459)"/>
<path d="M6.34684 32.0006C5.63837 32.0006 5.06718 31.8291 4.64863 31.4911C4.44108 31.3292 4.27393 31.1179 4.16118 30.8751C4.04844 30.6322 3.99338 30.3648 4.00063 30.0953V29.8062C3.99882 29.7722 4.00394 29.7382 4.01566 29.7065C4.02738 29.6747 4.04543 29.6459 4.06864 29.6219C4.09185 29.5979 4.11968 29.5792 4.15032 29.5672C4.18095 29.5551 4.21369 29.5499 4.24639 29.552H4.68606C4.71872 29.5499 4.75143 29.5551 4.78201 29.5672C4.8126 29.5792 4.84038 29.5979 4.86351 29.6219C4.88665 29.6459 4.90461 29.6748 4.91622 29.7065C4.92783 29.7383 4.93282 29.7723 4.93086 29.8062V30.0584C4.9278 30.2042 4.95994 30.3485 5.02433 30.478C5.08872 30.6076 5.18332 30.7184 5.2995 30.8002C5.55773 30.9996 5.92829 31.0993 6.4006 31.0993C6.823 31.0993 7.14363 31.0096 7.35387 30.8331C7.45224 30.7521 7.53081 30.6481 7.58319 30.5296C7.63556 30.4111 7.66027 30.2814 7.65531 30.1512C7.66091 29.9849 7.61294 29.8214 7.51899 29.6866C7.39183 29.5239 7.23405 29.3899 7.05531 29.2927C6.74459 29.1174 6.42401 28.9616 6.09533 28.8261C5.73493 28.6799 5.38242 28.5134 5.03934 28.3276C4.78103 28.1864 4.55712 27.9859 4.38463 27.7414C4.20573 27.4684 4.11527 27.1432 4.12639 26.8132C4.12639 26.2419 4.32319 25.7892 4.71006 25.4692C5.09694 25.1492 5.60477 25.0006 6.24796 25.0006C6.94587 25.0006 7.50747 25.1761 7.91738 25.522C8.12135 25.69 8.28475 25.9051 8.39458 26.1502C8.50441 26.3953 8.55763 26.6636 8.55001 26.9338V27.1392C8.55183 27.1732 8.54671 27.2071 8.53499 27.2389C8.52327 27.2707 8.50521 27.2995 8.48201 27.3235C8.4588 27.3475 8.43096 27.3662 8.40033 27.3782C8.3697 27.3903 8.33696 27.3955 8.30426 27.3934H7.85594C7.82324 27.3955 7.7905 27.3903 7.75987 27.3782C7.72924 27.3662 7.7014 27.3475 7.67819 27.3235C7.65499 27.2995 7.63693 27.2707 7.62521 27.2389C7.61349 27.2071 7.60837 27.1732 7.61019 27.1392V26.9717C7.61349 26.8251 7.58339 26.6798 7.52233 26.5476C7.46127 26.4154 7.37098 26.3 7.25883 26.211C7.01595 26.0056 6.66748 25.8979 6.22108 25.8979C5.83709 25.8979 5.53565 25.9777 5.33694 26.1352C5.24172 26.213 5.16636 26.3138 5.11748 26.4289C5.0686 26.544 5.0477 26.6698 5.05662 26.7952C5.04924 26.9582 5.09639 27.1189 5.19006 27.2499C5.30554 27.3947 5.45001 27.5118 5.61341 27.5928C5.81405 27.6975 6.13085 27.8391 6.55612 28.0106C6.9263 28.163 7.28615 28.3412 7.63323 28.544C7.90436 28.7036 8.14043 28.9203 8.32634 29.1801C8.51614 29.4545 8.61517 29.7854 8.60857 30.1232C8.61691 30.3865 8.56567 30.6481 8.45896 30.8871C8.35226 31.126 8.19307 31.3357 7.99418 31.4991C7.59195 31.8321 7.03899 32.0006 6.34684 32.0006Z" fill="white"/>
<path d="M19.2629 31.9996C19.2133 31.9989 19.1645 31.9862 19.1208 31.9626C19.0772 31.939 19.0399 31.9052 19.0123 31.8641L16.0031 26.9878L16 31.7398C16.0021 31.7745 16.006 31.8092 15.9936 31.8416C15.9813 31.8741 15.9621 31.9035 15.9375 31.9281C15.9128 31.9526 15.8832 31.9717 15.8506 31.984C15.818 31.9963 15.7831 32.0016 15.7483 31.9996H15.2623C15.2275 32.0016 15.1926 31.9963 15.1599 31.984C15.1273 31.9717 15.0976 31.9527 15.0729 31.9281C15.0481 31.9036 15.0289 31.8741 15.0164 31.8417C15.0039 31.8092 14.9984 31.7745 15.0004 31.7398V25.2602C14.9984 25.2255 15.0039 25.1908 15.0164 25.1583C15.0289 25.1259 15.0481 25.0964 15.0729 25.0719C15.0976 25.0473 15.1273 25.0283 15.1599 25.016C15.1926 25.0037 15.2275 24.9984 15.2623 25.0004H15.7401C15.7896 25.0013 15.8382 25.0141 15.8817 25.0377C15.9251 25.0613 15.9622 25.095 15.9898 25.1359L19 30.0173L19 25.2663C18.9972 25.2312 18.9937 25.1959 19.0057 25.1628C19.0178 25.1296 19.0368 25.0995 19.0615 25.0743C19.0862 25.0491 19.1161 25.0295 19.1491 25.0167C19.182 25.004 19.2174 24.9984 19.2527 25.0004H19.7408C19.7753 24.9991 19.8097 25.005 19.8418 25.0176C19.874 25.0302 19.9031 25.0493 19.9275 25.0737C19.9518 25.0982 19.9708 25.1273 19.9832 25.1594C19.9956 25.1915 20.0012 25.2258 19.9996 25.2602V31.7398C20.0016 31.7745 19.9961 31.8092 19.9836 31.8417C19.9711 31.8741 19.9519 31.9036 19.9271 31.9281C19.9024 31.9527 19.8727 31.9717 19.8401 31.984C19.8074 31.9963 19.7725 32.0016 19.7377 31.9996H19.2629Z" fill="white"/>
<path d="M28.3996 32.0005C27.6911 32.0005 27.1199 31.8291 26.7014 31.4911C26.4938 31.3291 26.3267 31.1179 26.2139 30.875C26.1012 30.6322 26.0461 30.3648 26.0534 30.0953V29.8061C26.0516 29.7722 26.0567 29.7382 26.0684 29.7064C26.0801 29.6746 26.0982 29.6458 26.1214 29.6218C26.1446 29.5978 26.1724 29.5792 26.2031 29.5671C26.2337 29.5551 26.2664 29.5499 26.2991 29.5519H26.7388C26.7715 29.5499 26.8042 29.555 26.8347 29.5671C26.8653 29.5792 26.8931 29.5978 26.9162 29.6218C26.9394 29.6459 26.9573 29.6747 26.969 29.7065C26.9806 29.7383 26.9856 29.7722 26.9836 29.8061V30.0584C26.9805 30.2041 27.0127 30.3484 27.0771 30.478C27.1415 30.6075 27.2361 30.7183 27.3522 30.8002C27.6105 30.9996 27.981 31.0993 28.4533 31.0993C28.8757 31.0993 29.1964 31.0095 29.4066 30.8331C29.505 30.752 29.5835 30.648 29.6359 30.5295C29.6883 30.411 29.713 30.2814 29.708 30.1511C29.7136 29.985 29.666 29.8216 29.5727 29.6865C29.4451 29.5238 29.287 29.3899 29.108 29.2927C28.7973 29.1174 28.4767 28.9615 28.1481 28.8261C27.786 28.6802 27.4318 28.5137 27.0873 28.3276C26.8292 28.1852 26.6056 27.9837 26.4335 27.7383C26.2558 27.4659 26.1657 27.142 26.1762 26.8131C26.1762 26.2418 26.373 25.7892 26.7599 25.4691C27.1468 25.1491 27.6546 25.0005 28.2959 25.0005C28.9938 25.0005 29.5554 25.176 29.9653 25.522C30.1693 25.6899 30.3327 25.905 30.4425 26.1501C30.5523 26.3952 30.6056 26.6635 30.5979 26.9337V27.1391C30.5997 27.1727 30.5947 27.2062 30.5833 27.2376C30.5718 27.269 30.5542 27.2976 30.5315 27.3215C30.5089 27.3455 30.4816 27.3642 30.4516 27.3766C30.4215 27.389 30.3893 27.3947 30.357 27.3934H29.9087C29.876 27.3954 29.8432 27.3902 29.8126 27.3782C29.782 27.3661 29.7541 27.3475 29.7309 27.3235C29.7077 27.2995 29.6897 27.2706 29.6779 27.2389C29.6662 27.2071 29.6611 27.1731 29.6629 27.1391V26.9716C29.6662 26.8251 29.6361 26.6797 29.5751 26.5475C29.514 26.4153 29.4237 26.3 29.3116 26.2109C29.0687 26.0055 28.7202 25.8979 28.2738 25.8979C27.8898 25.8979 27.5884 25.9776 27.3897 26.1351C27.2945 26.2129 27.2191 26.3137 27.1702 26.4288C27.1213 26.5439 27.1004 26.6697 27.1094 26.7952C27.102 26.9582 27.1491 27.1188 27.2428 27.2498C27.3587 27.3932 27.5031 27.5089 27.6661 27.5888C27.8668 27.6935 28.1836 27.835 28.6089 28.0065C28.979 28.159 29.3389 28.3372 29.686 28.5399C29.9572 28.6998 30.1935 28.9164 30.38 29.176C30.5684 29.4527 30.6654 29.7854 30.6565 30.1242C30.6648 30.3874 30.6136 30.6491 30.5069 30.888C30.4002 31.127 30.241 31.3366 30.0421 31.5001C29.6447 31.8321 29.0917 32.0005 28.3996 32.0005Z" fill="white"/>
<path d="M33.2602 32C33.1205 32 32.9966 31.8782 32.9961 31.7402V26.107C32.9961 26.0529 32.9476 26 32.8929 26H31.2642C31.2296 26.0001 31.1952 25.9986 31.1632 25.9856C31.1312 25.9726 31.102 25.9535 31.0775 25.9294C31.053 25.9052 31.0335 25.8765 31.0202 25.845C31.0069 25.8134 31.0001 25.7795 31.0001 25.7453V25.2659C30.9992 25.2313 31.0054 25.1969 31.0183 25.1646C31.0311 25.1324 31.0504 25.103 31.0749 25.0783C31.0994 25.0535 31.1287 25.0338 31.161 25.0204C31.1934 25.0069 31.2281 25 31.2632 25H35.7317C35.7668 24.9995 35.8016 25.0058 35.8341 25.0187C35.8666 25.0316 35.8962 25.0507 35.9212 25.075C35.9462 25.0992 35.966 25.1282 35.9795 25.1601C35.993 25.192 36 25.2262 36 25.2608V25.7402C35.9997 25.8092 35.9718 25.8753 35.9223 25.924C35.8728 25.9727 35.8057 26 35.7359 26H34.1176C34.0629 26 34 26.0478 34 26.1019V31.7351C34 31.8729 33.8909 31.9949 33.7513 31.9949L33.2602 32Z" fill="white"/>
<path d="M44.3016 31.9995C43.8878 32.0077 43.4783 31.9135 43.1081 31.7248C42.7662 31.5483 42.4816 31.2745 42.2887 30.9364C42.0906 30.5817 41.9896 30.179 41.9964 29.7707V27.2104C41.9901 26.8063 42.0911 26.4079 42.2887 26.0577C42.4822 25.7227 42.765 25.451 43.1042 25.2743C43.4759 25.0858 43.8867 24.9919 44.3016 25.0006C44.7143 24.9925 45.123 25.0846 45.4941 25.2693C45.8317 25.4413 46.1146 25.7078 46.3095 26.0378C46.5075 26.3813 46.6086 26.774 46.6018 27.1726C46.6025 27.2075 46.5965 27.2422 46.5839 27.2747C46.5714 27.3072 46.5526 27.3368 46.5287 27.3617C46.5058 27.3856 46.4786 27.4045 46.4485 27.4175C46.4184 27.4305 46.386 27.4372 46.3534 27.4374L45.8964 27.4643C45.8633 27.4677 45.8299 27.4638 45.7983 27.453C45.7668 27.4421 45.7379 27.4245 45.7135 27.4014C45.6892 27.3782 45.67 27.35 45.6572 27.3186C45.6443 27.2872 45.6382 27.2534 45.6392 27.2194V27.1905C45.6392 26.412 45.0682 26 44.3016 26C43.5411 26 42.9633 26.4073 42.9998 27.1875V29.7986C42.9627 30.5788 43.5414 31 44.3016 31C45.0676 31 45.6363 30.5777 45.6363 29.7986C45.6335 29.764 45.6379 29.7292 45.6494 29.6965C45.6608 29.6638 45.6789 29.6339 45.7025 29.6089C45.7261 29.584 45.7547 29.5644 45.7863 29.5516C45.8179 29.5389 45.8518 29.5331 45.8857 29.5348L46.3602 29.5637C46.3918 29.5625 46.4234 29.5681 46.4528 29.58C46.4823 29.5918 46.509 29.6097 46.5314 29.6326C46.5538 29.6555 46.5713 29.6828 46.5829 29.7129C46.5945 29.743 46.6 29.7752 46.5989 29.8075C46.6056 30.2105 46.5046 30.6077 46.3066 30.9563C46.1124 31.2885 45.829 31.5569 45.4902 31.7297C45.1205 31.9146 44.7131 32.0071 44.3016 31.9995Z" fill="white"/>
<path fill-rule="evenodd" clip-rule="evenodd" d="M9.55002 27.4136C9.5952 27.46 9.65649 27.486 9.72038 27.486H10.2161C10.2791 27.4863 10.3396 27.4612 10.3847 27.416C10.4298 27.3709 10.4558 27.3093 10.4571 27.2447V26.1005C10.4571 26.0734 10.4675 26.0475 10.4861 26.0284C10.5047 26.0093 10.5299 25.9986 10.5562 25.9986H13.7468C13.8139 25.9983 13.8783 25.9707 13.9256 25.9219C13.973 25.873 13.9996 25.8069 13.9996 25.7379V25.2597C13.9996 25.1908 13.973 25.1248 13.9256 25.0761C13.8782 25.0274 13.8139 25 13.7468 25H9.73129C9.66449 25.0005 9.60059 25.0281 9.55344 25.0767C9.5063 25.1253 9.47971 25.1911 9.47945 25.2597V27.2386C9.47945 27.3042 9.50484 27.3671 9.55002 27.4136ZM9.73252 28.0011H12.7419C12.8093 28.0011 12.8739 28.0308 12.9215 28.0836C12.9692 28.1365 12.9959 28.2081 12.9959 28.2829V28.7171C12.9959 28.7921 12.9691 28.8641 12.9212 28.9171C12.8734 28.9702 12.8086 29 12.7409 29H9.73252C9.66515 29 9.60054 28.9703 9.5529 28.9175C9.50526 28.8646 9.4785 28.793 9.4785 28.7182V28.2829C9.4785 28.2079 9.50537 28.1359 9.55319 28.0829C9.60102 28.0298 9.66588 28 9.73352 28L9.73252 28.0011ZM9.73136 31.998C9.66421 31.998 9.5998 31.9706 9.55223 31.922C9.50466 31.8733 9.4778 31.8072 9.47754 31.7383V29.7594C9.47754 29.7268 9.48384 29.6945 9.49608 29.6644C9.50833 29.6343 9.52627 29.607 9.54886 29.584C9.57146 29.5611 9.59826 29.543 9.62772 29.5308C9.65717 29.5186 9.68869 29.5125 9.72045 29.5129H10.2162C10.2798 29.5129 10.3409 29.5389 10.3859 29.5851C10.4309 29.6313 10.4561 29.694 10.4561 29.7594V30.8982C10.4561 30.9252 10.4666 30.9511 10.4852 30.9702C10.5038 30.9893 10.529 31 10.5553 31H13.7459C13.8125 31 13.8765 31.0269 13.924 31.0749C13.9715 31.1229 13.9987 31.1882 13.9997 31.2567V31.7403C13.9997 31.8092 13.9731 31.8752 13.9256 31.9239C13.8782 31.9726 13.8139 32 13.7469 32L9.73136 31.998Z" fill="white"/>
<path fill-rule="evenodd" clip-rule="evenodd" d="M21.0715 27.4142C21.1167 27.4606 21.178 27.4867 21.2419 27.4867H21.7376C21.8576 27.4872 21.9974 27.3706 21.9999 27.2453V26.1011C21.9999 26.0451 22.0065 25.9992 22.0777 25.9992H25.2683C25.3354 25.9989 25.3997 25.9714 25.4471 25.9225C25.4945 25.8736 25.5211 25.8075 25.5211 25.7385V25.2603C25.5211 25.1914 25.4945 25.1254 25.4471 25.0767C25.3996 25.028 25.3353 25.0006 25.2683 25.0006H21.2528C21.186 25.0011 21.1221 25.0287 21.0749 25.0773C21.0278 25.1259 21.0012 25.1917 21.0009 25.2603V27.2392C21.0009 27.3048 21.0263 27.3678 21.0715 27.4142ZM21.254 28.0017H24.2634C24.3308 28.0017 24.3954 28.0314 24.443 28.0842C24.4907 28.1371 24.5174 28.2088 24.5174 28.2835V28.7177C24.5174 28.7928 24.4906 28.8647 24.4427 28.9178C24.3949 28.9708 24.33 29.0006 24.2624 29.0006H21.254C21.1866 29.0006 21.122 28.9709 21.0744 28.9181C21.0267 28.8652 21 28.7936 21 28.7188V28.2835C21 28.2085 21.0269 28.1365 21.0747 28.0835C21.1225 28.0304 21.1874 28.0006 21.255 28.0006L21.254 28.0017ZM21.2528 31.9986C21.1857 31.9986 21.1213 31.9712 21.0737 31.9226C21.0261 31.8739 20.9993 31.8078 20.999 31.7389V29.76C20.999 29.7274 21.0053 29.6951 21.0176 29.665C21.0298 29.6349 21.0478 29.6076 21.0703 29.5846C21.0929 29.5617 21.1197 29.5436 21.1492 29.5314C21.1787 29.5192 21.2102 29.5131 21.2419 29.5135H21.76C21.8236 29.5135 21.8846 29.5395 21.9296 29.5857C21.9746 29.632 21.9999 29.6946 21.9999 29.76V30.8988C21.9999 30.9258 22.0104 30.9517 22.0289 30.9708C22.0475 30.9899 22.0728 31.0006 22.0991 31.0006H25.2674C25.334 31.0006 25.398 31.0275 25.4455 31.0755C25.4929 31.1236 25.5201 31.1888 25.5212 31.2573V31.7409C25.5212 31.8098 25.4945 31.8758 25.4471 31.9245C25.3997 31.9732 25.3354 32.0006 25.2684 32.0006L21.2528 31.9986Z" fill="white"/>
<path fill-rule="evenodd" clip-rule="evenodd" d="M37.0749 27.4142C37.1201 27.4606 37.1814 27.4867 37.2453 27.4867H37.741C37.861 27.4872 38.0008 27.3706 38.0033 27.2453V26.1011C38.0033 26.0451 38.0099 25.9992 38.0811 25.9992H41.2717C41.3389 25.9989 41.4032 25.9714 41.4505 25.9225C41.4979 25.8736 41.5245 25.8075 41.5245 25.7385V25.2603C41.5245 25.1914 41.4979 25.1254 41.4505 25.0767C41.4031 25.028 41.3388 25.0006 41.2717 25.0006H37.2562C37.1894 25.0011 37.1255 25.0287 37.0783 25.0773C37.0312 25.1259 37.0046 25.1917 37.0044 25.2603V27.2392C37.0044 27.3048 37.0297 27.3678 37.0749 27.4142ZM37.2574 28.0017H40.2668C40.3342 28.0017 40.3988 28.0314 40.4464 28.0842C40.4941 28.1371 40.5208 28.2088 40.5208 28.2835V28.7177C40.5208 28.7928 40.494 28.8647 40.4461 28.9178C40.3983 28.9708 40.3335 29.0006 40.2658 29.0006H37.2574C37.1901 29.0006 37.1254 28.9709 37.0778 28.9181C37.0302 28.8652 37.0034 28.7936 37.0034 28.7188V28.2835C37.0034 28.2085 37.0303 28.1365 37.0781 28.0835C37.1259 28.0304 37.1908 28.0006 37.2584 28.0006L37.2574 28.0017ZM37.2563 31.9986C37.1891 31.9986 37.1247 31.9712 37.0771 31.9226C37.0296 31.8739 37.0027 31.8078 37.0024 31.7389V29.76C37.0024 29.7274 37.0087 29.6951 37.021 29.665C37.0332 29.6349 37.0512 29.6076 37.0738 29.5846C37.0964 29.5617 37.1232 29.5436 37.1526 29.5314C37.1821 29.5192 37.2136 29.5131 37.2454 29.5135H37.7634C37.827 29.5135 37.8881 29.5395 37.933 29.5857C37.978 29.632 38.0033 29.6946 38.0033 29.76V30.8988C38.0033 30.9258 38.0138 30.9517 38.0324 30.9708C38.051 30.9899 38.0762 31.0006 38.1025 31.0006H41.2708C41.3374 31.0006 41.4014 31.0275 41.4489 31.0755C41.4964 31.1236 41.5236 31.1888 41.5246 31.2573V31.7409C41.5246 31.8098 41.498 31.8758 41.4506 31.9245C41.4031 31.9732 41.3388 32.0006 41.2718 32.0006L37.2563 31.9986Z" fill="white"/>
<path fill-rule="evenodd" clip-rule="evenodd" d="M47.7409 27.4868C47.6771 27.4865 47.616 27.4609 47.5708 27.4155C47.5257 27.3701 47.5003 27.3085 47.5 27.2443V25.2598C47.5003 25.1908 47.5277 25.1247 47.5762 25.076C47.6248 25.0273 47.6906 25 47.7591 25H48.2419C48.3104 25 48.376 25.0274 48.4244 25.0761C48.4728 25.1248 48.5 25.1909 48.5 25.2598V27.2443C48.5 27.3084 48.4748 27.37 48.4298 27.4154C48.3848 27.4608 48.3238 27.4865 48.2601 27.4868H47.7409ZM47.7591 32C47.6906 32 47.6248 31.9727 47.5762 31.924C47.5277 31.8753 47.5003 31.8092 47.5 31.7402V29.7557C47.5003 29.6916 47.5258 29.6301 47.5709 29.5849C47.6161 29.5396 47.6772 29.5142 47.7409 29.5142H48.2601C48.3237 29.5142 48.3848 29.5397 48.4297 29.585C48.4747 29.6302 48.5 29.6917 48.5 29.7557V31.7402C48.5 31.8091 48.4728 31.8752 48.4244 31.9239C48.376 31.9726 48.3104 32 48.2419 32H47.7591ZM51.2484 25H51.7564C51.821 25 51.883 25.0274 51.9287 25.0761C51.9743 25.1248 52 25.1909 52 25.2598V31.7401C52 31.7743 51.9937 31.8081 51.9814 31.8397C51.9691 31.8713 51.951 31.9 51.9283 31.9241C51.9056 31.9483 51.8786 31.9674 51.849 31.9804C51.8193 31.9934 51.7875 32 51.7555 31.9998H51.2475C51.1829 31.9998 51.1209 31.9725 51.0752 31.9238C51.0296 31.875 51.0039 31.809 51.0039 31.7401V29.1131C51.0039 29.0831 50.9927 29.0543 50.9729 29.0331C50.953 29.0119 50.926 29 50.8979 29H47.7445C47.6797 29 47.6175 28.9725 47.5716 28.9236C47.5258 28.8747 47.5 28.8084 47.5 28.7392V28.2598C47.5003 28.1908 47.5261 28.1247 47.572 28.076C47.6178 28.0273 47.6798 28 47.7445 28H50.8979C50.9263 28 50.9535 27.988 50.9735 27.9666C50.9936 27.9452 51.0049 27.9162 51.0049 27.8859V25.2598C51.0049 25.1909 51.0305 25.1248 51.0762 25.0761C51.1219 25.0274 51.1838 25 51.2484 25Z" fill="white"/>
<defs>
<linearGradient id="paint0_linear_229_4459" x1="28" y1="0" x2="28" y2="56" gradientUnits="userSpaceOnUse">
<stop stop-color="#87B212"/>
<stop offset="0.383302" stop-color="#1E5620"/>
<stop offset="1" stop-color="#1B3918"/>
</linearGradient>
</defs>
</svg>
