<!-- by TradingView --><svg width="56" height="56" viewBox="0 0 56 56" xmlns="http://www.w3.org/2000/svg"><path fill="#F0F3FA" d="M0 0h56v56H0z"/><path d="M18.37 19.18a6.85 6.85 0 0 0 6.57-3.06c.92-1.3 1.5-4.15 1.94-6.01.04-.15.06-.15.07 0 .24 4.76 3.77 7.91 8.34 7.6 2.82-.18 5.1-1.03 7.65-1.82h.03l.03.02v.04l-.02.03c-.46.3-.91.65-1.35 1.04l-7.05 6.31c-.05.05-.11.06-.18.02-.85-.56-1.67-1.18-2.6-1.44a6.81 6.81 0 0 0-8.3 8.98c.24.67.72 1.36 1.1 2 .05.07.03.1-.05.1L12.09 33c-.1 0-.12-.04-.04-.11 2.34-2.4 4.19-5.7 3.7-9.22-.29-1.99-1.67-4.11-2.4-6.04-.04-.1-.01-.14.1-.1 1.58.61 3.11 1.5 4.92 1.65Z" fill="#2F578A"/><path d="m41.31 39.94.01.01v.03l-.02.01h-.02c-3-.81-6.08-1.2-9.23-1.14a9.21 9.21 0 0 0-7.5 3.93c-.58.88-1 2.08-1.39 3.14-.04.1-.06.1-.08 0-.66-5.3-2.32-9.58-7.72-11.77a.07.07 0 0 1-.04-.03.07.07 0 0 1 0-.05c0-.01 0-.03.02-.04a4.72 4.72 0 0 1 11.72.2 10 10 0 0 0 6.25-.2.2.2 0 0 1 .19.03l7.81 5.88Z" fill="#94B2D5"/></svg>