<!-- by TradingView --><svg xmlns="http://www.w3.org/2000/svg" width="56" height="56" viewBox="0 0 56 56"><path fill="url(#aumymxmxh)" d="M0 0h56v56H0z"/><path d="M13.6 23.09a3.55 3.55 0 0 1 0-4.99 20.19 20.19 0 0 1 28.79-.14 3.55 3.55 0 0 1 0 4.99 3.47 3.47 0 0 1-4.92.03 13.27 13.27 0 0 0-18.95.1 3.47 3.47 0 0 1-4.92 0z" fill="url(#bumymxmxh)"/><path d="M18.03 39.57a20.8 20.8 0 0 1-5.34-19.98 3.5 3.5 0 0 1 4.26-2.51 3.55 3.55 0 0 1 2.48 4.31c-.91 3.5-.46 7.18 1.36 10.33a13.5 13.5 0 0 0 8.16 6.33 3.55 3.55 0 0 1 2.48 4.3 3.5 3.5 0 0 1-4.26 2.52 19.8 19.8 0 0 1-9.14-5.3z" fill="url(#cumymxmxh)"/><path d="M25.57 43.99a3.58 3.58 0 0 1 1.53-5.94 13.58 13.58 0 0 0 9.46-16.66A3.58 3.58 0 0 1 39 17.04c1.85-.5 3.77.6 4.3 2.48 2.92 11-3.53 22.38-14.38 25.35a3.41 3.41 0 0 1-3.35-.88z" fill="url(#dumymxmxh)"/><defs><linearGradient id="aumymxmxh" x1="28" y1="0" x2="28" y2="56" gradientUnits="userSpaceOnUse"><stop stop-color="#011A46"/><stop offset="1" stop-color="#0A3859"/></linearGradient><linearGradient id="bumymxmxh" x1="19.59" y1="12.02" x2="36.65" y2="28.79" gradientUnits="userSpaceOnUse"><stop stop-color="#00A6D3"/><stop offset="1" stop-color="#17EFFF"/></linearGradient><linearGradient id="cumymxmxh" x1="19" y1="42.69" x2="25.29" y2="19.32" gradientUnits="userSpaceOnUse"><stop stop-color="#166CFE"/><stop offset="1" stop-color="#17EFFF"/></linearGradient><linearGradient id="dumymxmxh" x1="45.52" y1="27.81" x2="22.41" y2="33.97" gradientUnits="userSpaceOnUse"><stop stop-color="#0C66EE"/><stop offset="1" stop-color="#0FD8FF"/></linearGradient></defs></svg>