<!-- by TradingView --><svg width="56" height="56" viewBox="0 0 56 56" xmlns="http://www.w3.org/2000/svg"><path fill="#F0F3FA" d="M0 0h56v56H0z"/><path fill-rule="evenodd" d="M45 28a17 17 0 1 0-33.99-.01A17 17 0 0 0 45 28Zm-2 0a15.01 15.01 0 0 0-30 0 15.01 15.01 0 0 0 30 0Z" fill="#A1A2A2"/><path d="M20.54 38A12.97 12.97 0 0 1 16 28c0-4.73 2.42-8.86 5.98-11-.71 1-1.16 2.45-1.16 4.63 0 4.42 3.81 6.97 6.02 7.9 2.43 1.06 4.16 2.42 4.16 4.6 0 2.17-1.39 3.28-3.37 3.28-1.98 0-3.6-2.71-3.6-2.71l-3.5 3.3Z" fill="#E66B27"/><path d="M33.01 20s-1.67-2.36-4.76-2.36c-2.97 0-4.48 1.85-4.48 3.44C23.77 26.9 35 27.45 35 33.45c0 4.37-2.8 6.55-6.54 6.55-4.28 0-5.87-1.7-5.97-2.18l1.52-.96s1.12 1.5 4.45 1.5c2.71 0 4.77-1.63 4.77-4.9C33.23 28.54 22 28.1 22 21.07c0-2.4 1.96-5.08 6.23-5.08a8.24 8.24 0 0 1 6.34 3.06L33 20Z" fill="#05A5AA"/><path d="M35.28 18A12.66 12.66 0 0 1 40 27.98 12.7 12.7 0 0 1 35.23 38c.74-1.43 1-3.2 1-5.23 0-3.4-3.39-6.2-6.4-7.82-3-1.63-3.83-2.7-3.83-4 0-1.3.8-2.4 2.7-2.4 1.88 0 3.04 1.97 3.04 1.97L35.28 18Z" fill="#05A5AA"/></svg>