<!-- by TradingView --><svg xmlns="http://www.w3.org/2000/svg" width="56" height="56" viewBox="0 0 56 56"><path fill="#F0F3FA" d="M0 0h56v56H0z"/><path d="M24.5 12.12c.31-.16.58-.13.72-.08-5.47 3.83-8.38 6.64-9.15 7.56-2.34 1.8-2.96 5.85-2.98 7.65l-2.93 2.07c-.64-2.78.8-5.93 1.58-6.92 5.53-7.5 12.45-10.1 12.77-10.28Z" fill="#3880B4"/><path d="M25.1 12.5c.23-.17.16-.37.1-.45-3.62 2.11-6.07 5.35-7.07 6.64-2.6 3.66-3.26 6.81-3.25 7.82.66 1.97 2.43 1.35 3.23.88-3.3-6.54 6.7-14.69 6.99-14.9Z" fill="url(#ai52fezka)"/><path d="m11.38 28.5 2.2-1.62c0-.43.1-1.82.93-3.82.96-2.3 3.98-5.56 5.2-6.84-2.28.95-6.92 4.85-7.91 7.91a8.49 8.49 0 0 0-.42 4.37Z" fill="#C0CBE7"/><path d="m11 28.76.4-.31c-.43-1.58.2-3.78.56-4.67 1.5-3.45 5.28-6.12 6.98-7.03-5.85 3.07-7.53 6.81-7.95 8.73a7.26 7.26 0 0 0 0 3.28Z" fill="#A1B7E0"/><path d="M11.94 29.5c-.25-.23-.5-.8-.59-1.07l2.21-1.57a5.8 5.8 0 0 0 .16 2.28c-.32.24-1.48.63-1.78.35Z" fill="url(#bi52fezka)"/><path d="M11.94 29.57c-.4-.06-.8-.51-1-.81l.43-.33c.19.58.52 1.01.69 1.1.73.15 1.35-.26 1.65-.39.02.16.16.65.24.84-.07.1-.36.26-.9.25-.55-.01-.96-.45-1.11-.66Z" fill="#515A91"/><path d="M14.53 23.1c1.79-4.18 5.88-7.68 7.57-8.78-4.02 3.77-7.01 8.25-7.35 13.38-.26 4.1 4.02 6.43 6.12 7.15h-.95c-2.88-1-4.8-2.9-5.39-3.73-.74-.94-1.79-3.86 0-8.03Z" fill="url(#ci52fezka)"/><path d="M13.58 33.5c-2.14-.94-3.16-3.18-3.4-4.19l.76-.56c.44.66.86.81 1.02.8.65.93 1.61.68 1.99.44 1.29 2.8 4.52 4.4 6 4.86-1.75-.03-3.69-.2-6.37-1.36Z" fill="url(#di52fezka)"/><path d="M27.24 32.55c-5.78.95-9.6.1-10.72-.38.8 1.03 3.1 2.27 4.08 2.69 4.78-.04 10.06-2.45 12.1-3.64a42.6 42.6 0 0 1-5.46 1.33Z" fill="url(#ei52fezka)"/><path d="M16.67 32.34c-2.2-1.86-2.09-4.7-1.78-5.89.9 1.75 2.52 1.35 3.22.93A8.36 8.36 0 0 0 24.2 31c3.23.26 6.62-.1 7.91-.32.2-.04.64-.06.73.16a.3.3 0 0 1-.12.4c-.76.36-3.34 1.2-7.6 1.63-4.27.44-7.43-.17-8.46-.53Z" fill="url(#fi52fezka)"/><path d="M16.62 31.04c-.02-.85 1.1-1.48 1.66-1.68l.25.22c-1.2.6-.81 1.2-.72 1.43.37 1.69 5.88 1.62 8.85 1.38a52.6 52.6 0 0 1-6.1.28c-2.47-.11-3.92-.57-3.94-1.63Z" fill="#AEA3CD"/><path d="M17.33 30.87c-.1-.44.75-1.05 1.19-1.3 2.25 1.56 3.47 1.8 6.45 2.07 2.38.2 5.36-.33 6.54-.63.18-.03.56-.06.6.08.05.14-.19.25-.31.29a30.1 30.1 0 0 1-6.3 1.1c-7.28.33-8.03-1.06-8.17-1.6Z" fill="#CBBDDE"/><path d="M30.13 43.96c-.07-.1.18-.31.32-.4 2.1-1.15 4.7-3.52 5.74-4.56a18.08 18.08 0 0 0 5.75-6.93 24.74 24.74 0 0 0 3.94-4.77c1.7 9.6-14.67 16.41-14.92 16.5-.26.1-.74.28-.83.16Z" fill="url(#gi52fezka)"/><path d="M41.69 26.23c1.34 2.03.71 4.77.24 5.86a23.7 23.7 0 0 0 3.95-4.77c-.28-3.2-4.62-6.41-11.09-5.95a31.94 31.94 0 0 0-11.33 3.01c-.28.2-.17.35-.08.4 1.65-.78 5.8-2.33 9.17-2.33 4.21 0 7.46 1.24 9.14 3.78Z" fill="url(#hi52fezka)"/><path d="M43.25 24.75c.16.63-.93 1.36-1.48 1.65-.63-.93-2.1-2.89-5.87-3.64-3.01-.6-6.26-.07-7.59.27.28-.1 2.7-1.33 7.76-1 5.07.33 6.99 1.93 7.18 2.72Z" fill="#E8D9EC"/><path d="M33.82 23.55c-3.42-.22-8.02.6-9.9 1.03 5.62-2.9 11.89-2.13 12.86-1.7.98.43 5.4 1.37 5.74 5.96.27 3.68-3 7.46-5.37 9.33 2.85-3.58 4.26-7.42 3.76-10.02-.5-2.6-2.8-4.32-7.09-4.6Z" fill="#F5E9F3"/><path d="M30.17 43.48c-.19.16-.15.36-.1.43 4.74-3.26 3.22-2.33 6.05-4.7 2.27-1.9 3.52-4.5 3.86-5.5.46-1.99-.84-2.23-1.53-1.94-.08 4.62-5.55 9.73-8.28 11.71Z" fill="#EA7F9C"/><path d="M38.46 31.79c-.02-.87-.1-1.5-.15-1.7.92-1.87.96-4 .86-4.83a5.38 5.38 0 0 1 1.85 3.72 9.05 9.05 0 0 1-.98 4.5c.07-1.88-1.02-1.91-1.58-1.7Z" fill="#B54079"/><path d="M24.11 24.96c10.26-1.41 13.74 2.86 14.2 5.18.9-1.72 1-3.88.87-4.88-1.6-1.46-4.38-1.74-5.58-1.76-3.76-.1-7.03.47-8.19.78-.75.1-2.06.31-2.05.5.02.2.51.2.75.18Z" fill="url(#ii52fezka)"/><defs><linearGradient id="ai52fezka" x1="20.08" y1="12.05" x2="20.08" y2="27.74" gradientUnits="userSpaceOnUse"><stop stop-color="#151A16"/><stop offset="1" stop-color="#413E73"/></linearGradient><linearGradient id="bi52fezka" x1="12.27" y1="27.61" x2="12.93" y2="29.58" gradientUnits="userSpaceOnUse"><stop stop-color="#6A81B9"/><stop offset="1" stop-color="#949BCA"/></linearGradient><linearGradient id="ci52fezka" x1="17.68" y1="14.58" x2="17.68" y2="34.85" gradientUnits="userSpaceOnUse"><stop stop-color="#EAEEFA"/><stop offset=".58" stop-color="#E5E9F6"/><stop offset="1" stop-color="#D2C9DF"/></linearGradient><linearGradient id="di52fezka" x1="10.91" y1="28.75" x2="18.83" y2="34.56" gradientUnits="userSpaceOnUse"><stop stop-color="#18304A"/><stop offset=".35" stop-color="#3D4171"/><stop offset="1" stop-color="#9678AE"/></linearGradient><linearGradient id="ei52fezka" x1="17.95" y1="33.03" x2="24.68" y2="33.28" gradientUnits="userSpaceOnUse"><stop stop-color="#654181"/><stop offset="1" stop-color="#AA6BAD"/></linearGradient><linearGradient id="fi52fezka" x1="15.14" y1="27.9" x2="25.56" y2="32.72" gradientUnits="userSpaceOnUse"><stop stop-color="#454A81"/><stop offset=".33" stop-color="#9B86BE"/><stop offset="1" stop-color="#B989BE"/></linearGradient><linearGradient id="gi52fezka" x1="45.34" y1="29.09" x2="34.21" y2="41.8" gradientUnits="userSpaceOnUse"><stop stop-color="#B7123D"/><stop offset="1" stop-color="#261514"/></linearGradient><linearGradient id="hi52fezka" x1="33.58" y1="24.46" x2="44.77" y2="28.22" gradientUnits="userSpaceOnUse"><stop stop-color="#A98FC6"/><stop offset="1" stop-color="#D0496A"/></linearGradient><linearGradient id="ii52fezka" x1="25.69" y1="24.31" x2="38.89" y2="27.35" gradientUnits="userSpaceOnUse"><stop stop-color="#3A1D46"/><stop offset="1" stop-color="#812264"/></linearGradient></defs></svg>