<!-- by TradingView --><svg xmlns="http://www.w3.org/2000/svg" width="56" height="56" viewBox="0 0 56 56"><path fill="#F0F3FA" d="M0 0h56v56H0z"/><path fill-rule="evenodd" d="M11.88 29.54l-1.67.29c0-1.1-2.68-1.2-2.68.02 0 .12.08.23.2.25.21.05.48.09.77.13 1.23.16 2.92.4 3 1.67.2 2.93-6.5 2.62-6.5.1h1.77c0 1.09 1.39 1.04 2.2 1h.24c.75-.02.89-1.21.1-1.36l-2.07-.38c-.97-.18-1.57-1.04-1.18-1.96.86-2 5.34-1.52 5.82.24zM23.05 34l1.01-4h3.74l-.24.6H25.2l-.26 1.06h2.12l-.24.6H24.8l-.26 1.03h2.52l-.3.71H23.04zm-10.04-4L12 34h1.33l.97-4H13zm1.44 4l1.01-4h1.3l-.8 3.3h2.29l-.29.7h-3.51zm3.9-4h1.39l.5 2.95 2-2.95h1.12l-2.75 4h-1.4l-.85-4zm9.63 4l.96-4h2.52c.93 0 1.61.6 1.53 1.28a1.1 1.1 0 0 1-.97 1l-.24.02.78 1.7h-1.32l-.62-1.7h-1.1l-.4 1.7h-1.14zm1.64-2.15l.27-1.25h1.42c.37 0 .65.38.56.77a.59.59 0 0 1-.56.48h-1.69zm11.06-2.33l-1.67.3c0-1.1-2.68-1.19-2.68.01 0 .12.08.23.2.25.2.05.47.08.77.12 1.22.17 2.92.4 3 1.66.2 2.9-6.5 2.73-6.5.23h1.77c0 1.01 1.24.93 2.06.88l.38-.02c.75-.01.89-1.2.1-1.34l-2.07-.38c-.97-.18-1.58-1.03-1.18-1.94.86-1.98 5.34-1.5 5.82.23zm.88.48l-.51 2.09c-.24.97.46 1.91 1.43 1.91h.76c.9 0 1.68-.63 1.9-1.53l.63-2.47H44.7l-.6 2.64c-.11.45-.61.76-1.05.76-.62 0-.95-.6-.8-1.21l.49-2.19h-1.17zm4.42 4c0-.08.57-2.7.86-4h1.29l1.4 2.5L50 30H51l-.99 4h-.96l-1.56-2.94-.65 2.94h-.86z"/><path d="M33.6 17.8c.77 0 1.4-.63 1.4-1.4a1.4 1.4 0 1 0-2.82 0c0 .77.63 1.4 1.41 1.4zm-1.84 4.4c0 .65-.53 1.17-1.18 1.17a1.17 1.17 0 0 1 0-2.33c.65 0 1.18.52 1.18 1.16zm-3.15 5.74c0 .49-.4.88-.9.88a.88.88 0 0 1-.88-.88c0-.49.4-.88.89-.88s.89.4.89.88z" fill="#1886C4"/><path d="M31.76 16.4c0 .64-.53 1.16-1.18 1.16-.65 0-1.17-.52-1.17-1.16 0-.65.52-1.17 1.17-1.17.65 0 1.18.52 1.18 1.17zm-4.04 1.02c.57 0 1.03-.46 1.03-1.02 0-.57-.46-1.03-1.03-1.03-.57 0-1.04.46-1.04 1.03 0 .56.47 1.02 1.04 1.02zm-1.96-1.02c0 .5-.42.92-.93.92a.93.93 0 0 1-.94-.92c0-.51.42-.93.94-.93.51 0 .93.42.93.93zm-3.86.94c.5 0 .91-.4.91-.9s-.4-.9-.9-.9-.91.4-.91.9.4.9.9.9zm0 2.79c.46 0 .82-.37.82-.81 0-.45-.36-.81-.82-.81a.81.81 0 0 0-.81.8c0 .45.36.82.81.82zm.74 2.07c0 .4-.33.73-.74.73a.73.73 0 0 1-.73-.73.73.73 0 1 1 1.47 0zm-.73 3.42c.34 0 .61-.27.61-.61a.61.61 0 0 0-.61-.61.61.61 0 0 0-.62.6c0 .35.27.62.62.62zm3.62 2.25a.7.7 0 0 1-.7.7.7.7 0 0 1-.7-.7c0-.38.31-.7.7-.7.38 0 .7.32.7.7zm-.7-2.17a.7.7 0 0 0 .7-.7.7.7 0 0 0-.7-.68.7.7 0 0 0-.7.69c0 .38.31.7.7.7zm.82-3.55c0 .45-.37.81-.82.81a.82.82 0 0 1-.83-.81c0-.45.37-.82.83-.82.45 0 .82.37.82.82zm2.07.81c.45 0 .82-.36.82-.81a.82.82 0 0 0-.82-.82.82.82 0 0 0-.83.82c0 .45.37.81.83.81zm.82 2.05a.82.82 0 1 1-1.65 0c0-.45.37-.82.83-.82.45 0 .82.37.82.82zm2.04.88c.5 0 .89-.4.89-.88 0-.49-.4-.88-.89-.88s-.88.4-.88.88.4.88.88.88zm.89 2.09c0 .48-.4.87-.89.87a.88.88 0 0 1-.88-.87.88.88 0 1 1 1.77 0zm-6.64-7.73a.93.93 0 0 0 0-1.85.93.93 0 0 0-.94.92c0 .52.42.93.94.93zm3.92-.93c0 .56-.46 1.02-1.03 1.02-.57 0-1.04-.46-1.04-1.02 0-.57.47-1.03 1.04-1.03.57 0 1.03.46 1.03 1.03zm1.83 1.02c.57 0 1.04-.46 1.04-1.02 0-.57-.47-1.03-1.04-1.03a1.03 1.03 0 0 0 0 2.05zm4.1-1.02a1.13 1.13 0 1 1-2.28 0c0-.63.52-1.13 1.15-1.13.62 0 1.13.5 1.13 1.13zm-1.13 4.01c.62 0 1.13-.5 1.13-1.13a1.13 1.13 0 1 0-2.28 0c0 .63.52 1.13 1.15 1.13zm1.03 1.68c0 .57-.46 1.02-1.03 1.02-.58 0-1.04-.45-1.04-1.02 0-.57.46-1.03 1.04-1.03.57 0 1.03.46 1.03 1.03zM33.55 29c.57 0 1.03-.46 1.03-1.02 0-.57-.46-1.03-1.03-1.03a1.03 1.03 0 0 0 0 2.05zm-11.64-.52c.34 0 .61-.27.61-.6a.61.61 0 0 0-.61-.62.61.61 0 0 0-.62.61c0 .34.27.61.62.61z"/></svg>