<!-- by TradingView --><svg width="56" height="56" viewBox="0 0 56 56" xmlns="http://www.w3.org/2000/svg"><path fill="#F0F3FA" d="M0 0h56v56H0z"/><path d="M19 23.46c0-.36-.25-.45-.47-.45a.63.63 0 0 0-.53.3c-.75 1.22-1.5 2.19-2.5 3.69-1-1.5-1.73-2.45-2.5-3.68a.62.62 0 0 0-.57-.32c-.26 0-.43.2-.43.44 0 .16.05.27.11.38L15 28v3.5c0 .32.24.5.5.5s.5-.2.5-.5V28l2.87-4.17c.1-.13.13-.24.13-.37ZM23.82 26.79l-1-.33c-.58-.19-1.24-.36-1.24-1.09 0-.83.66-1.37 1.42-1.37 1.18 0 1.5.44 2 1.18.13.21.37.64.5.64.37 0 .5-.26.5-.64 0-1.44-1.79-2.18-3-2.18-1.7 0-2.66.94-2.66 2.52 0 .88.36 1.35 1.01 1.67.55.27 1.15.42 1.72.6.77.25 1.93.48 1.93 1.7 0 .92-1.17 1.51-2 1.51-1.06 0-1.67-.57-1.9-1.59-.03-.14-.11-.41-.52-.41-.24 0-.58.14-.58.65 0 1.62 1.64 2.35 3.07 2.35 2.16 0 2.93-1.35 2.93-2.61 0-1.9-1.35-2.35-2.18-2.6ZM8.82 26.79l-1-.33c-.58-.19-1.24-.36-1.24-1.09 0-.83.66-1.37 1.42-1.37 1.18 0 1.5.44 2 1.18.13.21.37.64.5.64.37 0 .5-.26.5-.64C11 23.74 9.21 23 8 23c-1.7 0-2.66.94-2.66 2.52 0 .88.36 1.35 1.01 1.67.55.27 1.15.42 1.72.6.77.25 1.93.48 1.93 1.7C10 30.4 8.83 31 8 31c-1.06 0-1.67-.57-1.9-1.59-.03-.14-.11-.41-.52-.41-.24 0-.58.14-.58.65C5 31.27 6.64 32 8.07 32c2.16 0 2.93-1.35 2.93-2.61 0-1.9-1.35-2.35-2.18-2.6ZM32.47 23h-4.94c-.26 0-.53.05-.53.5 0 .33.41.5.53.5h1.97v7.44c0 .2.08.56.5.56.46 0 .48-.4.5-.56V24h1.97c.26 0 .53-.29.53-.5 0-.34-.18-.5-.53-.5ZM39.44 31H35v-3h4.04c.28 0 .56-.06.56-.5 0-.39-.2-.5-.56-.5H35v-3h4.4c.4 0 .6-.1.6-.5s-.23-.5-.6-.5h-4.76c-.53 0-.62.36-.64.67v7.66c0 .18.03.67.64.67h4.8c.13 0 .56.08.56-.5.02-.39-.2-.5-.56-.5ZM43.67 23.27c-.17-.25-.5-.27-.77-.27-.46 0-.9.16-.9.68v7.74c0 .37.12.58.5.58.4 0 .5-.27.5-.64V24l3 3.83c.14.15.34.17.5.17.37 0 .44-.17.5-.5l-3.33-4.23Z" fill="#181B1E"/><path d="M50.84 31H50v-7.33c0-.28 0-.67-.5-.67-.23 0-.43.02-.62.2-.08.07-1.03 1.45-1.88 2.8l.5 1c.84-1.3 1.5-2.4 1.5-2.4V31h-.9c-.3 0-.6.07-.6.5 0 .56.46.5.59.5h2.75c.28 0 .56-.06.56-.5.01-.38-.22-.5-.56-.5Z" fill="#49A4DB"/></svg>