<!-- by TradingView --><svg width="56" height="56" viewBox="0 0 56 56" xmlns="http://www.w3.org/2000/svg"><path fill="#F0F3FA" d="M0 0h56v56H0z"/><path d="M14 12h11v12h5V12h11v32h-6.06c.83 0 1.64-.2 2.44-.58a8.5 8.5 0 0 0 2.06-1.3l-.58-.88a4.93 4.93 0 0 1-2.8 1.09c-.94 0-1.4-.7-1.4-2.1 0-.54.07-1.23.23-2.07a204 204 0 0 1 .39-2.07L41 14h-6.07l-.43 1h3.93l-3.27 11.37a6.65 6.65 0 0 0-3.82-1.13c-5.53 0-9.13 3.62-10.4 8.7-.9 3.69-.83 10.04 4.2 10.06H14V12Z" fill="#0356A4"/><path d="M30 40.42V33h-5v9.33c-2.5-.33-1.99-5.56-1.52-7.77.94-4.02 3.22-8.01 7.94-8.01 1.18 0 2.55.39 3.23 1.45l-1.13 4.71c-.28 1.21-.7 2.39-1.24 3.52-.6 1.26-1.1 2.92-2.28 4.2Z" fill="#0356A4"/></svg>