<!-- by TradingView --><svg xmlns="http://www.w3.org/2000/svg" width="56" height="56" viewBox="0 0 56 56"><path fill="#F0F3FA" d="M0 0h56v56H0z"/><circle cx="28" cy="28" r="17" fill="url(#ag0juar5r)"/><circle cx="26" cy="28" r="14" fill="url(#bg0juar5r)"/><path d="M27.75 12c8.7 0 15.75 7.05 15.75 15.75S36.45 44 27.75 44 12 36.45 12 27.75 19.05 12 27.75 12Z" fill="url(#cg0juar5r)"/><path d="M23.42 21.45c-5.7-1.16-6.95 1.09-7.4 1.26 0 0-.29-3.63 4.1-6.2A10.9 10.9 0 0 1 25.55 15c3.12 0 6.2 1.12 8 2.43 4.38 3.18 7.87 10.89 4.7 12.19-2.26.93-9.15-7.02-14.84-8.17Z" fill="url(#dg0juar5r)" fill-opacity=".8"/><path d="m40.19 20.22-.52.53c-.4.39.84 2.25.84 2.25s.65 0 1.01-.3c.36-.28.48-.86.48-.86L40.51 19s.06.85-.32 1.22ZM41.8 23.22c-.47.42-1 .42-1 .42l.44 1.2c.48 2.1.56 5.32.56 5.32s.5-.36.72-.77c.48-.89.47-2.26.48-3.39 0-1.69-.48-2.78-.82-3.58 0 0-.09.53-.38.8Z" fill="#ADD7F0" fill-opacity=".9"/><path opacity=".8" d="M13.5 25.47c.08-2.93 2.2-6.47 2.2-6.47s-1.72 2.05-2.86 5.38c-.6 1.75-.84 5.27-.84 5.27l2.59 2.17s-1.22-1.91-1.09-6.35Z" fill="#ABDBF9"/><path d="M14 24v2h6.35c.36 0 .65.4.65.79V27h-7v2h7v.4c0 .39-.3.6-.65.6H14v2h7.7c.71 0 1.3-.64 1.3-1.42v-5.16c0-.78-.59-1.42-1.3-1.42H14ZM33 26v-2h-7.68c-.73 0-1.32.63-1.32 1.4v5.2c0 .77.6 1.4 1.32 1.4h6.36c.73 0 1.32-.63 1.32-1.4V27h-7v-.13c0-.39.33-.87.84-.87H33Zm-7 3h5c0 .4-.36 1-1.03 1H27c-.66 0-1-.6-1-1Z" fill="#fff"/><path fill-rule="evenodd" d="M35.75 24c-.85 0-1.75.84-1.75 1.88v4.24c0 1.04.9 1.88 1.75 1.88h4.4c.86 0 1.85-.84 1.85-1.88v-4.24c0-1.04-.99-1.88-1.84-1.88h-4.4Zm.9 2c-.32 0-.65.3-.65.7v2.63c0 .39.33.67.66.67h2.7c.32 0 .64-.28.64-.67V26.7c0-.4-.32-.7-.64-.7h-2.7Z" fill="#fff"/><defs><linearGradient id="ag0juar5r" x1="33.09" y1=".07" x2="22.33" y2="66.46" gradientUnits="userSpaceOnUse"><stop offset=".2" stop-color="#358AC7"/><stop offset=".39" stop-color="#07548E"/><stop offset=".42" stop-color="#045593"/><stop offset=".53" stop-color="#005698"/><stop offset=".76" stop-color="#4090CC"/></linearGradient><linearGradient id="bg0juar5r" x1="27.04" y1="8.16" x2="26" y2="41.6" gradientUnits="userSpaceOnUse"><stop offset=".1" stop-color="#fff" stop-opacity=".59"/><stop offset=".53" stop-color="#fff" stop-opacity=".01"/></linearGradient><linearGradient id="cg0juar5r" x1="6.25" y1="31.75" x2="39.84" y2="27.87" gradientUnits="userSpaceOnUse"><stop offset=".14" stop-color="#fff" stop-opacity=".4"/><stop offset=".48" stop-color="#fff" stop-opacity="0"/></linearGradient><linearGradient id="dg0juar5r" x1="39.49" y1="12.45" x2="24.91" y2="27.11" gradientUnits="userSpaceOnUse"><stop offset=".21" stop-color="#fff" stop-opacity=".69"/><stop offset=".78" stop-color="#fff" stop-opacity="0"/></linearGradient></defs></svg>