<!-- by TradingView --><svg width="56" height="56" viewBox="0 0 56 56" xmlns="http://www.w3.org/2000/svg"><path fill="url(#a2zshxt0y)" d="M0 0h56v56H0z"/><path d="M34 40H24v-1c.97 0 3.08-.15 3.08-3.42 0-2.62-2.77-4.6-4.16-5.26l-5.05-2.65-.15-.07c-.91-.43-4.72-2.21-4.72-6.64 0-3.79 2.8-5.66 4.2-6.13-1.5 5.28 3.76 7.7 5.21 8.36l.04.02A67.5 67.5 0 0 1 27 25.54V15.9c0-.53-.82-.91-1.37-.91H24v-1h8v11.2a6.68 6.68 0 0 1 5.62-3.2c4.3 0 5.38 3.38 5.38 6.05v9.94c0 .52.32.94.85.94H45V40h-9v-1.07h.67c.53 0 1.33-.42 1.33-.94v-9.94c.01-1.14-.95-3.41-3.36-3.41-1.22 0-2.07.81-2.64 1.82v11.32c0 .7.79 1.22 1.52 1.22H34v1Zm-19.67 0h-.8L13 32.3l1.2-.15c.83 5.04 3.35 6.63 4.51 6.8v.9c-.93-.32-1.53-.67-2-.96-.5-.3-.86-.5-1.3-.5-.71 0-1.02 1.12-1.08 1.61Z" fill="#fff"/><defs><linearGradient id="a2zshxt0y" x1="10.42" y1="9.71" x2="68.15" y2="76.02" gradientUnits="userSpaceOnUse"><stop stop-color="#1A1E21"/><stop offset="1" stop-color="#06060A"/></linearGradient></defs></svg>