<!-- by TradingView --><svg width="56" height="56" viewBox="0 0 56 56" xmlns="http://www.w3.org/2000/svg"><path fill="#032D5F" d="M0 0h56v56H0z"/><path d="M7.52 27.78c.11.04.26.07.42.07.84 0 1.46-.43 1.46-1.3 0-.78-.62-1.14-1.54-1.14-.28 0-.64.04-.86.1v2.92c0 2 .01 2.07.12 2.16.09.07.38.11.76.11l.03.03v.24l-.03.03H5.03L5 30.97v-.24l.03-.03c.37 0 .66-.04.75-.11.1-.09.22-.18.22-2.16v-.86c0-1.98-.11-2.07-.22-2.16-.09-.07-.38-.11-.75-.11L5 25.28v-.25l.03-.03h3.13c1.4 0 2.35.24 2.35 1.4 0 1.1-.99 1.81-2.27 1.81-.32 0-.54-.03-.68-.06l-.13-.3.09-.07ZM14 25.03l.03-.03h2.94l.03.03v.25l-.03.02c-.38 0-.69.04-.78.11-.1.09-.19.16-.19 2.16v.86c0 2 .08 2.07.2 2.16.08.07.39.11.77.11l.03.03v.24l-.03.03h-2.94l-.03-.03v-.24l.03-.03c.38 0 .69-.04.78-.11.1-.09.19-.17.19-2.16v-.86c0-2-.08-2.07-.2-2.16-.08-.07-.39-.11-.77-.11l-.03-.02v-.25Zm7.03-.03-.03.03v.24l.03.02c.37 0 .66.05.75.11.1.09.22.18.22 2.12v.85c0 1.96-.12 2.14-.22 2.23-.09.06-.38.1-.75.1l-.03.03v.24l.03.03h2.33l.03-.03v-.24l-.03-.02c-.34 0-.63-.05-.72-.11-.1-.09-.11-.33-.11-2.23V26.3h.02l.34.6c.7 1.24 2.02 3.54 2.24 4.1h.2c.21-.57 1.74-3.14 2.67-4.7v2.07c0 1.96-.01 2.14-.12 2.23-.08.06-.37.1-.74.1l-.03.03v.24l.03.03h2.83l.03-.03v-.24l-.03-.02c-.37 0-.66-.05-.75-.11-.1-.09-.22-.27-.22-2.23v-.85c0-1.94.11-2.03.22-2.11.1-.07.38-.12.75-.12l.03-.02v-.24l-.03-.03h-1.84c-.85 1.52-1.7 3.03-2.59 4.53l-.26-.44c-.54-.94-1.53-2.65-2.29-4.09h-1.96ZM40 30.11l-.21.48c-.6.25-1.31.41-2.17.41-1.85 0-3.62-1-3.62-2.94C34 26.2 35.42 25 37.76 25c.78 0 1.78.18 2.18.3l.06.07c-.13.34-.19.96-.18 1.16l-.03.03h-.3l-.03-.03c0-.2-.02-.4-.05-.59v-.03c-.23-.24-.93-.51-1.77-.51-1.75 0-2.64 1.22-2.64 2.36 0 1.51 1.1 2.74 3.11 2.74.56 0 1.25-.13 1.78-.44l.11.05Zm5-2.45c0-1.38 1.1-2.26 2.43-2.26 1.02 0 2.57.61 2.57 2.74 0 1.34-.85 2.46-2.39 2.46-1.41 0-2.61-1.15-2.61-2.94Zm6 .2C51 25.9 49.49 25 47.59 25 45.57 25 44 26.1 44 27.96c0 1.4.79 3.04 3.35 3.04C49.5 31 51 29.6 51 27.86Z" fill="#fff"/></svg>