<!-- by TradingView --><svg width="56" height="56" viewBox="0 0 56 56" xmlns="http://www.w3.org/2000/svg"><path fill="#F0F3FA" d="M0 0h56v56H0z"/><path d="M16 26v-2.35c0-.91-.69-1.65-1.53-1.65H8.53C7.7 22 7 22.74 7 23.65v2.7c0 .66.4 1.25.98 1.46l.5.19 4.55-.75L9 26.04V24h5v2h2ZM49 28v-4.43c0-.87-.67-1.57-1.5-1.57h-6c-.83 0-1.5.7-1.5 1.57v3.03c1.45.18 1.16.15 2 .27V24h5v3.56l2 .44Z" fill="#2670CA"/><path d="M40 27.5v3.98c0 .84.67 1.52 1.5 1.52h6c.83 0 1.5-.68 1.5-1.52V28.5c-1.45-.17-1.16-.14-2-.26V31h-5v-3.17l-2-.33ZM7 29.01v2.36c0 .9.69 1.63 1.53 1.63h5.94c.84 0 1.53-.73 1.53-1.63V29.5c0-.65-.4-1.23-.98-1.44l-.7-.26-4.88.58L14 29.81V31H9v-1.99H7Z" fill="#152342"/><path d="M19 22h2v3.8l-2 .2v-4Z" fill="#2670CA"/><path d="M21 33h-2v-5.3l2-.2V33Z" fill="#152342"/><path d="M37 22h-2v3.8l2 .2v-4Z" fill="#2670CA"/><path d="M35 33h2v-5.3l-2-.2V33ZM29 33h-2v-5.8l2-.2v6Z" fill="#152342"/><path d="M32 22h-8v2h3v2h2v-2h3v-2Z" fill="#2670CA"/><path d="M28 27c7.95 0 16.18.46 24 2a211.31 211.31 0 0 0-48 0c7.82-1.54 16.05-2 24-2Z" fill="#152342"/></svg>