<!-- by TradingView --><svg width="56" height="56" viewBox="0 0 56 56" xmlns="http://www.w3.org/2000/svg"><path fill="#F0F3FA" d="M0 0h56v56H0z"/><path d="M25.9 19c3.82 0 5.78 3 6.21 4.58l-.3.1c-.42-1.5-2.19-4.02-5.9-4.02-2.57 0-5.5 1.67-5.87 4.9.85.08 1.44.17 1.73.23l-.06.32a16.1 16.1 0 0 0-1.7-.21c-.02.24-.03.8-.03 1.04h-.31c0-.24 0-.82.02-1.07-.68-.05-1.5-.08-2.42-.08-4.41 0-8.7 2.88-8.94 7.76-.22 4.38 3.3 7.12 7.34 7.12 2.24 0 5.33-1.51 5.33-4.17 0-2.96-2.05-4.23-4.67-4.5-2.45-.25-3.65 2.08-3.85 3.24.22-1.26 1.19-3.77 3.85-3.5 2.78.29 4.93 1.67 4.93 4.8 0 2.84-3.17 4.46-5.59 4.46-4.23 0-7.9-2.87-7.66-7.45.26-5.05 4.68-8.1 9.26-8.1.94 0 1.76.04 2.45.1A6.06 6.06 0 0 1 25.9 19Zm14.14 6.15c-1.87.75-3.7 1.66-4.81 2.26l-.15-.29a50.7 50.7 0 0 1 4.84-2.28c1.88-.76 3.82-1.38 5.13-1.38 1.89 0 4.95.61 4.95 3.15 0 3.27-3.62 4.48-6.23 4.3-3.85-.27-7.54-1.32-8.94-1.99l.07-.81c1.37.66 5.08 2.04 8.88 2.3 2.42.17 5.9-.66 5.9-3.8 0-2.33-2.94-2.81-4.63-2.81-1.24 0-3.13.59-5.01 1.35Z" fill="#009D46"/><path d="M20.14 28.26c-1.78 1.06-2.02 3.75-1.91 4.96.1-.11.5-.22 1.28-.22h2.23c1.02 0 1.92-1 2.24-1.43.53.33 1.78.99 2.55.99.77 0 1.76-.23 1.97-.56.53.22 1.71.5 3.5.5 2.24 0 3.47-1.6 3.47-2.26 0-.66.32-.99.64-1.65.26-.53.1-1.1 0-1.32.26-.27.1-.77 0-1v-.66c0-.26-.21-.55-.32-.66v-.66c0-.26-.43-.55-.64-.66.1-.22.26-.66 0-.66-.25 0-.53.22-.64.33-.1-.33-.38-1-.64-1-.25 0-.31.23-.31.34a4.74 4.74 0 0 0-3.84 1.32 2.56 2.56 0 0 0-1.91-1.98v-.33l-1.6-.67-.32.34-.64-.34-.32.67-1.6-.67L24 22h-1.5v.64c-1.02.53-1.61 2.2-1.72 2.97-2.3 0-2.87.89-2.87 1.33 1.28 0 2.02.88 2.23 1.32Z" fill="#0C6348"/><path d="M23.5 22.5h1.11v-.52l.64.33.32-.66.64.33.32-.33.64.33v.33l.64.69h-.64v.63l-.64-.33-.32 1-.32-.67-.32.66-.64-.66-.64.66-.31-1-.96.34.48-.66v-.47Zm9.42 2.78.63-.66-.31-.66.63.33v-.66l.64.66.32-.33v.66l.64-.33-.32 1 .64.32-.32.67h.32l-.32.66.32 1.32-.32-.66-.64 1v-1.33l-.96.66.32-.93h-.64l.32-1h-.63l.31-.72h-.63Zm-11.82.66v.67h-.96c.51 0 1.07.66 1.28.99l-.96.33c-.25-.8-1.17-1.21-1.6-1.32.77-.53 1.82-.66 2.24-.66Zm-.96 5.63a9.75 9.75 0 0 1 2.24-1.33l1.28 1.33c-.32.44-1.15 1.25-1.92.99-.96-.33-1.28-.33-1.92-.33-.5 0-1.06.44-1.27.66.1-.77.44-2.45.95-2.98h.64v-.99l.32.66v-.99l.64 1v-1l.64.66v-.33l.3.67c-.54.23-1.64.93-1.9 1.98Zm4.48-8.6c.2.1.76.26 1.27 0 .51-.27.43-.55.32-.66 0 .1-.13.33-.64.33-.5 0-.85.22-.95.33Zm9.9 2.31c-.33 0-.64.66-.33 1 .32.33.96.33.96 0 0-.34-.3-.36-.64-.34.1-.22.25-.66 0-.66Z" fill="#3BAF2A"/><path d="M29.4 23.96c-.25-.8-1.38-1.43-1.91-1.65 0 .33 1.18.7.96.99-.22.29-.32 0-.64 0s.32 1 .32 1.32c0 .33-.96-.33-1.28-.33-.32 0-.32 1-.64 1s0-1-.32-1-.32 1-.64 1-.32-1-.64-1c-.31 0-.31.66-.63.66-.26 0-.32-.66-.32-.99l-.64.33a1 1 0 0 1-.64-.33c-.32-.33-.32 0-.32.33s.32.33 0 .33c-.25 0-.32.22-.32.33h.32v.33h-.64v.33h.64v.34h-.32v.33l.32.33-.32.33v.33l.96.33h-.64v.33l.32.33h-.32v.33h.64l-.32.33.32.33h.64v.33h-.64v.33h.96c0 .11-.07.33-.32.33-.26 0 .32.22.64.34-.11 0-.26.06 0 .33a3.94 3.94 0 0 0 2.87 1.32c1.6 0 2.24-2.65 2.55-4.63.32-1.99.32-2.65 0-3.64ZM32.6 23.3c.76 0 .96.22.96.33h-.96c-.26 0 .1.88.32 1.32-.11.11-.32.4-.32.66 0 .27.21.34.32.34 0 .52.21.66.32.66 0 .53.2.88.32.99-.22 0-.58.06-.32.33.25.26.74.33.95.33 0 .22.07.73.32 1 .32.32.64-.67.96-.67.32 0 0 .66 0 1 0 .32-.32 0-.64 0s.32.32.32.65c0 .34-.64-.33-.64 0 0 .34.32.34 0 .67s-.32 0-.64 0c-.31 0 .32.33 0 .66-.31.33-.31-.33-.63-.33s0 .66-.32.66 0-.66-.32-.33 0 .33-.32.33c-.26 0-.32-.22-.32-.33l-.32.33h-.32v-.33H31v.33h-.32l-.32-.33v.33l-1.6-.66.33-.66c.31.1.95.2.95-.34 0-.52-.42-.44-.64-.33l.32-.99c.22 0 .64-.06.64-.33 0-.26-.21-.33-.32-.33v-1c.11-.1.32-.39.32-.65 0-.27-.21-.33-.32-.33 0-.34.07-1.13.32-1.66a2.67 2.67 0 0 1 2.24-1.32Z" fill="#E31239"/><path d="M26.53 26.94c-.32 0-.32 0-.32-.66 0-.53.21-.45.32-.34.1.12.32.4.32.67 0 .33 0 .33-.32.33ZM28.13 26.28c.25-.53.32-.45.32-.34.1.12.32.4.32.67 0 .33-.96.33-.64-.33ZM28.77 24.62c0-.53.2-.66.31-.66.32 0 .32.33.32.66s-.63.66-.63 0ZM24.61 25.95c0-.53.22-.67.32-.67.26 0 .32.44.32.66 0 .23-.06.67-.32.67-.32 0-.32 0-.32-.66ZM26.85 27.93c0-.53.43-.44.64-.33v.66c-.21.11-.64.2-.64-.33ZM28.45 28.6c0-.54.2-.67.32-.67.31 0 .31.33.31.66s-.63.66-.63 0ZM24.93 29.25c-.25-.53.11-.66.32-.66.27-.07.32.33.32.66s-.32.66-.64 0ZM27.49 30.24c0-.52.21-.66.32-.66.64 0 .64.66.32 1-.32.33-.64.33-.64-.34ZM25.9 30.9c0-.52.2-.66.31-.66.32 0 .32.67.32 1 0 .33-.64.33-.64-.33ZM25.25 30.9c0 .34-.32.34-.64 0-.25-.26-.1-.55 0-.66.32-.33.64.33.64.67ZM23.66 26.94c0-.53.2-.66.32-.66.16-.1.63.33.63.66s0 .33-.32.66c-.25.26-.53-.33-.63-.66ZM22.7 28.26c0-.26.21-.33.32-.33.21 0 .64.07.64.33 0 .33 0 .66-.32.66s-.64-.33-.64-.66ZM22.38 25.61c0-.26.21-.33.32-.33.21-.07.32 1 0 1s-.32-.34-.32-.67ZM30.04 26.6c-.1.12-.25.34 0 .34.32 0 .13-.51 0-.33ZM29.72 28.26c0 .11.07.33.32.33.32 0 0-.33-.32-.33ZM29.4 30.24c.11.11.32.27.32 0 0-.33-.32-.33-.32 0ZM31.32 24.62c-.26-.53.1-.66.32-.66.27-.08.32.33.32.66s-.32.66-.64 0ZM30.68 25.95c-.25-.27.1-.56.32-.67.1 0 .32.07.32.33 0 .34-.32.67-.64.34ZM31.32 26.94c0-.27.21-.33.32-.33.2-.1.3.18.32.33 0 .1-.07.33-.32.33-.32 0-.32 0-.32-.33ZM31.96 28.92c0-.53.42-.44.64-.33.5 0 .42.44.32.66-.32.11-.96.2-.96-.33ZM31.32 29.58c-.26 0-.53-.22-.64-.33 0-.66.96-.66.96-.33s0 .66-.32.66ZM33.55 30.57c-.5 0-.63-.22-.63-.33 0-.52.63-.44.95-.33.11.22.2.66-.32.66ZM30.68 30.9c-.25-.26.1-.55.32-.66.64 0 .64.33.64.67 0 .33-.64.33-.96 0Z" fill="#FEFFFF"/></svg>