<!-- by TradingView --><svg width="56" height="56" viewBox="0 0 56 56" xmlns="http://www.w3.org/2000/svg"><path fill="#F0F3FA" d="M0 0h56v56H0z"/><path d="M15 26a4 4 0 1 0 0-8 4 4 0 0 0 0 8Zm-4.78 11.19a5.34 5.34 0 0 1 5.25-3.78c2.34 0 3.7 1.1 4.5 2.3.17.26.31.56.45.86.33.72.65 1.43 1.39 1.43.41 0 .93-.4 1.02-.8.79-3.6-1.04-9.2-7.36-9.2-5.72 0-8.36 5.58-7.2 9.4.11.37.48.6.88.6.5 0 .91-.36 1.07-.81Z" fill="#45466B"/><path d="M28 26a4 4 0 1 0 0-8 4 4 0 0 0 0 8Zm-5.1 11.19c.54-1.6 1.9-3.78 5.12-3.78a5.13 5.13 0 0 1 5 3.2c.31.7.62 1.39 1.34 1.39.42 0 .87-.5.96-.9.8-3.6-.93-9.1-7.3-9.1-5.76 0-8.42 5.58-7.25 9.4.12.37.67.6 1.08.6.5 0 .9-.36 1.05-.81Z" fill="#AA96C8"/><path d="M21.81 31.24a7.52 7.52 0 0 0-1.1 5.92c.2.37.43.67.77.79.12.03.24.05.35.05.4-.01.91-.41 1-.8.4-1.8.13-4.1-1.02-5.96Z" fill="#3D3966"/><path d="M41 26a4 4 0 1 0 0-8 4 4 0 0 0 0 8Zm-5.71 11.22c.53-1.6 1.98-3.81 5.19-3.81a5.7 5.7 0 0 1 5.48 3.86c.15.42.54.73 1 .73.4 0 .78-.26.87-.65.79-3.6-1.02-9.35-7.35-9.35-5.73 0-8.38 5.58-7.21 9.4.11.37.48.6.89.6.54 0 .93-.27 1.13-.78Z" fill="#ACB6C0"/><path d="M34.34 31.18a7.63 7.63 0 0 0-1.2 5.7c.26.57.56 1.07 1.13 1.12.2-.02.39-.07.54-.17.25-.18.45-.47.51-.72.4-1.81.16-4.1-.98-5.93Z" fill="#8279A2"/></svg>