<!-- by TradingView --><svg width="56" height="56" viewBox="0 0 56 56" xmlns="http://www.w3.org/2000/svg"><path fill="#F0F3FA" d="M0 0h56v56H0z"/><path d="M32.08 16.16c-9.79.73-18.03 3.99-18.65 7.36-.2 1.08.36 2.21 1.45 2.94 1.72 1.14 3.35 1.47 10.1 2.06 6.87.6 9.79 1.07 11.49 1.89 1.25.6 1.58 1.12 1.39 2.18-.54 2.93-7.43 5.35-15.21 5.34-2.93 0-8.87-.88-10.26-1.42-.53-.2-.56-.28-.41-1.35l.15-1.13h-.77c-.74 0-.85.1-2.13 2.15-.74 1.18-1.3 2.29-1.22 2.46.17.47.64.56 5.3.98 5.18.46 13.55.51 16.1.1 4.67-.78 14.57-3.36 14.57-9.66 0-1.2-.97-2.31-2.15-2.98-1.24-.7-4.66-1.35-9.3-1.77-8.71-.78-10.4-1.12-11.07-2.2-.41-.67.35-1.9 1.57-2.52 3.2-1.63 5.98-2.06 13.37-2.07 6.08 0 6.1 0 6.8.54 1.86 1.41 4.68-.12 3.53-1.91-.2-.32-.64-.7-.97-.83-.76-.33-10.04-.44-13.68-.16Z" fill="#402B66"/></svg>