<!-- by TradingView --><svg width="56" height="56" viewBox="0 0 56 56" xmlns="http://www.w3.org/2000/svg"><path fill="#F0F3FA" d="M0 0h56v56H0z"/><path d="M11.97 24.45c.33.25.52.6.57 1.07h2.3a3.33 3.33 0 0 0-2.02-3.08 5.14 5.14 0 0 0-2.2-.44c-.84 0-1.58.15-2.23.44-.65.3-1.17.71-1.54 1.24a3.12 3.12 0 0 0-.55 1.85c0 .87.27 1.55.83 2.06.55.51 1.31.89 2.27 1.13l1.24.31c.41.1.76.22 1.05.35.29.12.5.27.65.45.16.18.23.4.23.66 0 .29-.08.53-.25.75-.16.22-.4.39-.7.5a3.04 3.04 0 0 1-2.18-.01 1.83 1.83 0 0 1-.78-.58c-.2-.26-.3-.76-.33-1.15H6c.02.84.22 1.71.6 2.28.38.57.9 1 1.58 1.29.68.29 1.48.43 2.4.43.93 0 1.72-.14 2.38-.43a3.4 3.4 0 0 0 1.5-1.21c.36-.53.54-1.15.54-1.86 0-.49-.1-.92-.26-1.3-.17-.37-.4-.7-.7-.97-.31-.28-.67-.52-1.08-.7a7.08 7.08 0 0 0-1.37-.46l-1.02-.25a5.87 5.87 0 0 1-.7-.2 2.96 2.96 0 0 1-.58-.3c-.17-.11-.3-.25-.4-.4a.98.98 0 0 1-.12-.55c0-.25.07-.48.2-.67.15-.2.36-.36.63-.47.27-.1.6-.17 1-.17.57 0 1.03.13 1.37.39Zm11 0c.33.25.52.6.57 1.07h2.3a3.33 3.33 0 0 0-2.02-3.08 5.14 5.14 0 0 0-2.2-.44c-.84 0-1.58.15-2.23.44-.65.3-1.17.71-1.54 1.24a3.12 3.12 0 0 0-.55 1.85c0 .87.27 1.55.83 2.06.55.51 1.31.89 2.27 1.13l1.24.31c.41.1.76.22 1.05.35.29.12.5.27.65.45.16.18.23.4.23.66 0 .29-.08.53-.25.75-.16.22-.4.39-.7.5a3.04 3.04 0 0 1-2.18-.01 1.83 1.83 0 0 1-.78-.58c-.2-.26-.3-.76-.33-1.15H17c.02.84.22 1.71.6 2.28.38.57.9 1 1.58 1.29.68.29 1.48.43 2.4.43.93 0 1.72-.14 2.38-.43a3.4 3.4 0 0 0 1.5-1.21c.36-.53.54-1.15.54-1.86 0-.49-.1-.92-.26-1.3-.17-.37-.4-.7-.7-.97-.31-.28-.67-.52-1.08-.7a7.08 7.08 0 0 0-1.37-.46l-1.02-.25a5.87 5.87 0 0 1-.7-.2 2.96 2.96 0 0 1-.58-.3c-.17-.11-.3-.25-.4-.4a.98.98 0 0 1-.12-.55c0-.25.07-.48.2-.67.15-.2.36-.36.63-.47.27-.1.6-.17 1-.17.57 0 1.03.13 1.37.39Zm12.57 1.07a1.45 1.45 0 0 0-.57-1.07c-.34-.26-.8-.39-1.38-.39-.39 0-.72.06-.99.17a1.4 1.4 0 0 0-.62.47c-.14.2-.21.42-.21.67-.01.2.03.4.12.55.1.15.23.29.4.4.17.11.36.2.58.3.22.07.45.14.7.2l1.02.25c.5.11.95.26 1.37.45.41.2.77.43 1.07.7.3.28.54.61.7.99.18.37.27.8.27 1.29 0 .71-.18 1.33-.53 1.86a3.4 3.4 0 0 1-1.51 1.21c-.66.29-1.45.43-2.38.43-.92 0-1.72-.14-2.4-.43a3.53 3.53 0 0 1-1.59-1.29A4.53 4.53 0 0 1 29 30h2.33c.02.4.13.89.33 1.15.2.26.45.45.78.59.33.13.7.2 1.12.2.4 0 .76-.07 1.06-.2.3-.11.54-.28.7-.5.17-.22.25-.46.25-.75a.99.99 0 0 0-.23-.66 1.73 1.73 0 0 0-.65-.45 6.55 6.55 0 0 0-1.05-.35l-1.24-.31a5.14 5.14 0 0 1-2.27-1.13c-.56-.5-.83-1.2-.83-2.06 0-.7.18-1.32.55-1.85.37-.53.89-.94 1.54-1.24.65-.3 1.4-.44 2.22-.44.85 0 1.58.15 2.21.44a3.33 3.33 0 0 1 2.02 3.07h-2.3Zm12.08.48H50a4.28 4.28 0 0 0-3.03-3.71 5.45 5.45 0 0 0-4.43.42 4.9 4.9 0 0 0-1.86 2.04c-.45.9-.68 1.98-.68 3.25s.22 2.35.67 3.25c.45.89 1.07 1.57 1.85 2.04s1.67.71 2.66.71c2.42 0 4.54-1.54 4.82-4h-2.38c-.2 1.21-1.2 1.82-2.4 1.82-.57 0-1.06-.15-1.49-.44a2.82 2.82 0 0 1-1-1.28 5.49 5.49 0 0 1-.35-2.1c0-.81.12-1.5.35-2.06.24-.58.57-1 1-1.3.42-.3.93-.46 1.5-.46 1.24 0 2.23.58 2.4 1.82Z"/></svg>