<!-- by TradingView --><svg width="56" height="56" viewBox="0 0 56 56" xmlns="http://www.w3.org/2000/svg"><path fill="#F0F3FA" d="M0 0h56v56H0z"/><path d="M6 22v-1h5v1H9v6H8v-6H6ZM12 28v-7h1v3h3v-3h1v7h-1v-3h-3v3h-1ZM23 21h1v4.5c0 1.59-.92 2.5-2.4 2.5s-2.6-.88-2.6-2.5V21h1v4.4c0 .9.72 1.6 1.6 1.6.98 0 1.4-.74 1.4-1.6V21ZM31 21v7h-.83L27 23.2V28h-1v-7h.9l3.1 4.7V21h1ZM34.92 28H33v-7h1.97C37.1 21 38 22.3 38 24.44c0 2.15-.9 3.56-3.08 3.56ZM34 27h.86c1.5 0 2.14-.98 2.14-2.56 0-1.59-.65-2.44-2.1-2.44H34v5ZM39 28v-7h4v1h-3v2h3v1h-3v2h3v1h-4ZM45 28v-7h2.23c1.65 0 2.51.89 2.51 2.2 0 1.32-.88 2.07-2.53 2.07h-1.9v-.94h1.73c.97 0 1.63-.4 1.63-1.12 0-.74-.68-1.21-1.64-1.21H46v6h-1Zm3.24-3.23L50 28h-1.24l-1.73-3.23h1.2Z"/><path fill-rule="evenodd" d="M12 30v7h2.55c1.63 0 2.45-.9 2.45-1.95 0-.64-.27-1.35-1.23-1.67v-.07c.7-.16.96-.75.96-1.42 0-1-.79-1.89-2.33-1.89H12Zm2.66 6H13v-2h1.7c.79 0 1.3.33 1.3.94 0 .72-.74 1.06-1.34 1.06Zm-.1-3H13v-2h1.58c.56 0 1.14.38 1.14 1.02 0 .59-.5.98-1.17.98ZM18 30v7h1v-2.66H20.65L22.1 37h1.22l-1.57-2.85c.84-.3 1.25-.95 1.25-1.88 0-1.3-.8-2.27-2.43-2.27H18Zm1 3.39h1.38c.96 0 1.62-.4 1.62-1.12 0-.73-.68-1.27-1.63-1.27H19v2.39ZM25 30v7h-1v-7h1Zm10.05 1c.85 0 1.57.55 1.8 1.27h1.17C37.8 30.93 36.6 30 35.03 30c-2 0-3.03 1.63-3.03 3.5 0 1.96 1.09 3.5 3.07 3.5A2.9 2.9 0 0 0 38 34v-1h-3v1h2c0 .98-.84 2-1.92 2-1.2 0-2.08-.96-2.08-2.5s.91-2.5 2.05-2.5Zm-7.13 6H26v-7h1.97C30.1 30 31 31.3 31 33.44c0 2.15-.9 3.56-3.08 3.56ZM27 36h.86c1.5 0 2.14-.98 2.14-2.56 0-1.59-.65-2.44-2.1-2.44H27v5Zm12 1v-7h4v1h-3v2h3v1h-3v2h3v1h-4Z"/></svg>