<!-- by TradingView --><svg xmlns="http://www.w3.org/2000/svg" width="56" height="56" viewBox="0 0 56 56"><path fill="#F0F3FA" d="M0 0h56v56H0z"/><path d="m39.64 14.8-3.2 5.56 4.17 7.24H47l-7.36-12.8Z" fill="#E16A2C"/><path d="m36 36.27 3.19 5.56L46.9 28.4h-6.39L36 36.27Z" fill="url(#a54agq0xc)"/><path d="M19.55 35.47 15.5 28.4H9.1l7.26 12.63 3.2-5.56Z" fill="url(#b54agq0xc)"/><path d="m19.55 20.36-3.2-5.57L9 27.6h6.39l4.16-7.24Z" fill="#E16A2C"/><path d="M28.46 34.27 32.89 42h5.49L31.2 29.5l-2.74 4.77Z" fill="url(#c54agq0xc)"/><path d="M27.09 22.35 22.29 14h-5.47l7.53 13.12 2.74-4.77Z" fill="#D7176F"/><path d="M32.8 14 16.72 42h6.39l16.08-28h-6.4Z" fill="url(#d54agq0xc)"/><defs><linearGradient id="a54agq0xc" x1="44.16" y1="27.62" x2="37.31" y2="39.41" gradientUnits="userSpaceOnUse"><stop stop-color="#E16A2C"/><stop offset="1" stop-color="#F2C318"/></linearGradient><linearGradient id="b54agq0xc" x1="11.5" y1="27" x2="18.81" y2="39.61" gradientUnits="userSpaceOnUse"><stop stop-color="#D51773"/><stop offset="1" stop-color="#F2C318"/></linearGradient><linearGradient id="c54agq0xc" x1="17.68" y1="10.74" x2="34.68" y2="40.02" gradientUnits="userSpaceOnUse"><stop stop-color="#D7176F"/><stop offset="1" stop-color="#E16A2C"/></linearGradient><linearGradient id="d54agq0xc" x1="19.11" y1="43.39" x2="35.78" y2="14.66" gradientUnits="userSpaceOnUse"><stop stop-color="#F1C31B"/><stop offset="1" stop-color="#E26C27"/></linearGradient></defs></svg>