<!-- by TradingView --><svg xmlns="http://www.w3.org/2000/svg" width="56" height="56" viewBox="0 0 56 56"><path fill="#F0F3FA" d="M0 0h56v56H0z"/><path fill-rule="evenodd" d="M30 17a2 2 0 1 1-4 0 2 2 0 0 1 4 0zm2 0a4 4 0 1 1-8 0 4 4 0 0 1 8 0zm-2 22a2 2 0 1 1-4 0 2 2 0 0 1 4 0zm2 0a4 4 0 1 1-8 0 4 4 0 0 1 8 0zM12 28c0 3.3 2.7 6 6.06 6 1.35 0 2.57-.33 4.73-2.16A18.74 18.74 0 0 0 26.17 28c-.15-.23-.36-.52-.63-.85-.7-.84-1.66-1.85-2.73-2.73C20.24 22.3 19.07 22 18.06 22A6.03 6.03 0 0 0 12 28zm14.4.4v-.01zm0-.85a.32.32 0 0 1 .01 0zm1.6 1.27a19.59 19.59 0 0 1-3.92 4.55C21.67 35.4 20 36 18.06 36A8.03 8.03 0 0 1 10 28c0-4.42 3.6-8 8.06-8 1.69 0 3.3.63 6.02 2.87A19.32 19.32 0 0 1 28 27.14c.65-1.1 2.17-2.83 3.92-4.27 2.72-2.24 4.33-2.87 6.02-2.87A8.03 8.03 0 0 1 46 28c0 4.42-3.6 8-8.06 8-1.94 0-3.6-.59-6.02-2.63A19.59 19.59 0 0 1 28 28.82zM37.94 34C41.3 34 44 31.3 44 28s-2.7-6-6.06-6c-1.01 0-2.18.3-4.75 2.41a20.37 20.37 0 0 0-2.73 2.73c-.27.33-.48.62-.63.85a18.74 18.74 0 0 0 3.38 3.85C35.37 33.67 36.6 34 37.94 34zm-8.34-5.6v-.01zm0-.85a.32.32 0 0 0-.01 0z" fill="#121633"/></svg>