<!-- by TradingView --><svg xmlns="http://www.w3.org/2000/svg" width="56" height="56" viewBox="0 0 56 56"><path fill="#F0F3FA" d="M0 0h56v56H0z"/><path fill="#2A3676" d="M6 20h17v16H6z"/><path fill="#B4C0C1" d="M23 20h27v16H23z"/><path fill-rule="evenodd" d="M17 25.35a.35.35 0 1 1-.7 0 .35.35 0 0 1 .7 0ZM16.3 31v-4h.7v4h-.7ZM11 25v6h.7v-3h2.6v3h.7v-6h-.7v2.3h-2.6V25H11Zm7.3 5.41V25h.7v4.86c0 .3.32.55.6.55V31h-.51c-.58 0-.77-.4-.79-.59ZM21 25v5.41c.02.2.21.59.79.59h.51v-.59c-.28 0-.6-.24-.6-.55V25H21Zm6 2.7v2.26c0 .57.47 1.04 1.04 1.04.2 0 .68-.11.96-.4l-.4-.41c-.08.07-.3.2-.53.2-.29 0-.37-.22-.37-.64V27.7h.9V27h-.9v-1.5H27V27h-1v.7h1Zm3-.7v4h.7v-2.67c.22-.34.92-.54 1.3-.6v-.7c-.71 0-1.13.5-1.3.84V27H30Zm5.98 2.12c.1-.7-.1-2.12-1.64-2.12-1.54 0-1.87 1.42-1.84 2.12.04.63.41 1.88 2.06 1.88.26 0 .9-.09 1.42-.5l-.5-.34a2 2 0 0 1-.85.33c-.4 0-1.43-.2-1.43-1.32h2.77l.01-.05Zm-2.77-.42h2.22c-.07-.4-.39-1.21-1.13-1.21-.75 0-1.04.8-1.09 1.2Zm4.35-1h-.63c0-.23.27-.7 1.35-.7 1.09 0 1.42.59 1.46.88V30c0 .36.33.47.5.48V31h-.5a.64.64 0 0 1-.6-.43c-.06.14-.39.43-1.27.43s-1.18-.66-1.21-1c0-1.22 1.57-1.4 2.34-1.33v-.4c0-.46-.43-.78-.85-.78-.33 0-.53.14-.6.21Zm.58 2.78c.75 0 .88-.84.86-1.26h-.06c-.34 0-1.44-.01-1.44.63 0 .5.43.63.64.63ZM41 27v4H41.7v-2.43c0-.5.45-.9.95-.9.5 0 .95.4.95.9V31h.7V28.24a.9.9 0 0 1 .83-.58c.5 0 .87.4.87.9V31h.7v-2.6c0-.77-.51-1.4-1.29-1.4a1.4 1.4 0 0 0-1.25.78 1.36 1.36 0 0 0-1.23-.78c-.53 0-1 .3-1.23.73V27H41Zm-15.46.77v-.59a2.52 2.52 0 0 0-.92-.18c-.5 0-1.42.15-1.42 1.07 0 .84.74 1.08.99 1.16l.06.03.06.02c.2.07.61.22.61.58 0 .4-.32.58-.77.58-.37 0-.79-.17-.95-.25v.6c.23.06.76.21 1.05.21.37 0 1.45-.13 1.45-1.14 0-.85-.62-1.03-.94-1.12l-.14-.05a5.1 5.1 0 0 0-.07-.03c-.22-.1-.58-.25-.58-.59 0-.37.3-.52.77-.52.38 0 .7.14.8.22Z" fill="#F0F3FA"/></svg>