<!-- by TradingView --><svg width="56" height="56" viewBox="0 0 56 56" xmlns="http://www.w3.org/2000/svg"><path fill="#F0F3FA" d="M0 0h56v56H0z"/><path d="M40.14 14H15.86a.84.84 0 0 0-.6.25.88.88 0 0 0-.26.62v5.28a.89.89 0 0 0 .25.61c.08.08.18.15.28.19.1.04.22.05.33.05H24v25.53c.01.13.16.25.26.34.1.09.22.13.35.13h.55c.23 0 .7-.26 1.02-.57l.48-.47.02-.02 4.62-3.87c.48-.49.7-1.15.7-1.84V21h8.14c.11 0 .22 0 .33-.05a.86.86 0 0 0 .46-.47c.05-.1.07-.22.07-.33v-5.28a.89.89 0 0 0-.25-.62.86.86 0 0 0-.61-.25Z" fill="url(#a13ptuzql)"/><defs><linearGradient id="a13ptuzql" x1="23.45" y1="52.6" x2="50.14" y2="20.21" gradientUnits="userSpaceOnUse"><stop stop-color="#504139"/><stop offset=".14" stop-color="#807877"/><stop offset=".3" stop-color="#544A42"/><stop offset=".51" stop-color="#ADB0B7"/><stop offset=".66" stop-color="#C5A09B"/><stop offset=".84" stop-color="#CEA9A1"/><stop offset=".91" stop-color="#443A33"/><stop offset="1" stop-color="#BA8889"/></linearGradient></defs></svg>