<!-- by TradingView --><svg width="56" height="56" viewBox="0 0 56 56" xmlns="http://www.w3.org/2000/svg"><path fill="#F0F3FA" d="M0 0h56v56H0z"/><path d="M7 23v10H6V23h1ZM27 25v8h-1v-8h1Z" fill="#0F75BB"/><path d="M41 24v9h-2v-9h2Z" fill="#243F75"/><path d="M29 23v10h-1V23h1ZM24 23v10h-1V23h1ZM11.5 25c1.97 0 3.5 1.58 3.5 3.43V33h-1v-5c0-1.16-1.21-2-2.5-2-1.3 0-2.5.83-2.5 2v5H8v-8h1v1.14A3.5 3.5 0 0 1 11.5 25ZM21 30.66c0 1.53-1.2 2.34-2.78 2.34-.94 0-1.57-.15-2.18-.47L16 31.37c.66.35 1.45.63 2.22.63.95 0 1.78-.5 1.78-1.34 0-.74-.9-.89-1.5-1.16-1.12-.51-2.46-1.17-2.46-2.4 0-1.39 1.2-2.1 2.6-2.1.83 0 1.55.2 2.25.56l-.52.97c-.6-.3-1.21-.53-1.85-.53-.73 0-1.52.27-1.52 1s.91 1.23 1.5 1.5c1.12.5 2.5.93 2.5 2.16Z" fill="#0F75BB"/><path fill="#0F75BB" d="M22 25h3v1h-3z"/><circle cx="26.5" cy="22.5" r=".5" fill="#0F75BB"/><circle cx="29" cy="20" r="1" fill="#0F75BB"/><circle cx="33" cy="19" r="1" fill="#0F75BB"/><circle cx="37" cy="20" r="1" fill="#0F75BB"/><circle cx="40" cy="22" r="1" fill="#0F75BB"/><path d="M35.29 27.5C36.2 28 37 28.87 37 30c0 2.5-1.55 3-3.86 3H31V23h2.14c1.85 0 3.36.58 3.36 2.5 0 1.08-.46 1.67-1.21 2Zm-2.29-1c1 0 1.5 0 1.5-.75S34 25 33 25v1.5Zm0 4.5c1.5 0 2-.42 2-1.25 0-.9-.5-1.25-2-1.25V31ZM50 29a4 4 0 1 1-8 0 4 4 0 0 1 8 0Zm-4 2a2 2 0 1 0 0-4 2 2 0 0 0 0 4Z" fill="#243F75"/></svg>