<!-- by TradingView --><svg width="56" height="56" viewBox="0 0 56 56" xmlns="http://www.w3.org/2000/svg"><path fill="#F0F3FA" d="M0 0h56v56H0z"/><path fill-rule="evenodd" d="M28 45a17 17 0 1 0 0-34 17 17 0 0 0 0 34Zm-8.74-10.91c0 5.13 5.36 7.28 8.03 7.71-6.82.29-11.32-3.5-11.32-8.03 0-3.62 3.06-5.94 4.59-6.64 1.1-.64 3.5-2.03 4.24-2.5.93-.57 1.53-1.2 1.53-1.79a5.5 5.5 0 0 0-.2-1.3l1.34.35-2.84-2.33c-.4-.33-1.25-1-1.45-1-.19 0-.23.02-.4.1l-.26.13-.32.16c-.24.12-.4.2-.51.2-.12 0-.42-.11-.56-.17l-1.08-.38.56.67c.1.14.08.17-.4.3-.37.1-.4.28-.36.37.99 0 1.79.08 2.07.12.96.35 2.88 1.32 2.88 2.5 0 1.45-2.71 2.52-4.11 2.52-1.4 0-5.5-.3-5.5-4.3 0-4.02 3.72-4.54 4.66-4.54.75 0 1.41.22 1.65.33 1.42-2.52 4.8-3.24 7.6-1.69 2.25 1.24 2.06 4.2 1.68 5.52.87.01 2.61.56 2.61 2.63 0 2.54-2.85 3.61-4.28 3.83-3.28.27-9.85 2.1-9.85 7.23Zm10.06-19.9c2.45.8 7.33 3.5 7.33 7.8 0 3.67-4.59 5-8.54 6.13-1.87.55-3.6 1.04-4.62 1.73-3.17 2.13-2.54 5.05 1.11 5.4-.37.22-1.1 1-1.1 2.3 0 1.63 1.52 3.29 4.8 3.29a5.66 5.66 0 0 0 4.74-2.44c.38.73 1.6 2.18 3.42 2.18 2.28 0 4.41-2.33 4.41-5.2 0-2.88-3.13-5.03-5.96-5.03-2.82 0-3.91 1.33-3.91 3.18s1.93 2.1 3.91 1.85c-.6.37-2.06 1.1-3.2 1.1-1.4 0-3.04-1.32-3.04-2.95 0-1.63 2.98-3.46 4.83-4.11 1.85-.66 6.22-2.92 6.22-7.42s-5.68-7.81-10.4-7.81Zm3.18 23.87c.09-.28.45-.94 1.2-1.26a5.9 5.9 0 0 0 1.74-1.28c.04.34-.09 1.12-.94 1.48-.85.36-1.69.86-2 1.06Z" fill="url(#ablclaweo)"/><defs><linearGradient id="ablclaweo" x1="28" y1="11" x2="28" y2="45" gradientUnits="userSpaceOnUse"><stop stop-color="#498338"/><stop offset="1" stop-color="#1D2F80"/></linearGradient></defs></svg>