<!-- by TradingView --><svg width="56" height="56" viewBox="0 0 56 56" xmlns="http://www.w3.org/2000/svg"><path fill="#F06A20" d="M0 0h56v56H0z"/><path d="M37.12 18c4.99 0 9.17 6.03 10.28 14h-.45c-1.16-3.1-3.2-5.2-5.54-5.2-3.27 0-5.98 4.07-6.47 9.37v.02c-.42.96-3.45 1.68-6.93 1.81-.25 0-.5-.02-.74-.04-3.17-.19-5.82-.88-6.22-1.77v-.02c-.48-5.3-3.2-9.37-6.46-9.37-2.34 0-4.39 2.1-5.54 5.2h-.46c1.12-7.97 5.3-14 10.29-14 3.33 0 6.83 2.65 9.13 6.8 2.3-4.15 5.77-6.8 9.1-6.8ZM9 37a2 2 0 1 0 0-4 2 2 0 0 0 0 4Zm38-4a2 2 0 1 0 0 4 2 2 0 0 0 0-4Z" fill="#fff"/></svg>