<!-- by TradingView --><svg width="56" height="56" viewBox="0 0 56 56" xmlns="http://www.w3.org/2000/svg"><path fill="#414242" d="M0 0h56v56H0z"/><path d="M28.46 17H27v24.16c0 .47.37.84.82.84h5.51c.46 0 .67-.37.67-.84V23h7.16c.45 0 .82-.14.82-.6v-1.85c-.15-.31-.62-.55-.98-.55s-.85.24-1 .55V21h-8v19h-3V19h15.17c.46 0 .83-.54.83-1 0-.46-.36-.99-.81-1H28.46Z" fill="url(#acd0ge1hn)"/><path d="M15.84 13.01a.83.83 0 0 0-.84.82v6.37c0 .46.38.8.84.8H22v25.18c0 .45.54.82 1 .82.46 0 1-.37 1-.82V19h-7v-4h23v.6c.15.3.66.56 1.03.56.36 0 .82-.25.97-.56v-1.78a.83.83 0 0 0-.84-.82l-25.32.01Z" fill="url(#bcd0ge1hn)"/><defs><linearGradient id="acd0ge1hn" x1="-1706.01" y1="1267" x2="1800.55" y2="1267" gradientUnits="userSpaceOnUse"><stop stop-color="#00FFC1"/><stop offset="1" stop-color="#4287F2"/></linearGradient><linearGradient id="bcd0ge1hn" x1="-556.33" y1="1712.99" x2="2994.87" y2="1712.99" gradientUnits="userSpaceOnUse"><stop stop-color="#00FFC1"/><stop offset="1" stop-color="#4287F2"/></linearGradient></defs></svg>