<!-- by TradingView --><svg width="56" height="56" viewBox="0 0 56 56" xmlns="http://www.w3.org/2000/svg"><path fill="#573281" d="M0 0h56v56H0z"/><path d="M14.25 17a2.22 2.22 0 0 0-1.95 3.32l13.54 23.21-1.03-8.96-1.78-13.96L14.25 17Z" fill="url(#aeybcogto)"/><path d="m23.03 20.6 13.13 5.46 7.54-5.74A2.22 2.22 0 0 0 41.75 17h-27.5l8.78 3.6Z" fill="url(#beybcogto)"/><path d="m26.05 43.89-.2-.36-1.04-8.96 11.35-8.5 7.54-5.75L29.95 43.9a2.27 2.27 0 0 1-3.9 0Z" fill="url(#ceybcogto)"/><defs><linearGradient id="aeybcogto" x1="16.46" y1="18.39" x2="25.05" y2="43.7" gradientUnits="userSpaceOnUse"><stop stop-color="#D45F33"/><stop offset="1" stop-color="#FEAD13"/></linearGradient><linearGradient id="beybcogto" x1="40.66" y1="22.18" x2="15.17" y2="17.52" gradientUnits="userSpaceOnUse"><stop stop-color="#E25A30"/><stop offset=".51" stop-color="#F8931D"/><stop offset="1" stop-color="#FAAA0D"/></linearGradient><linearGradient id="ceybcogto" x1="42.73" y1="21.35" x2="26.06" y2="43.4" gradientUnits="userSpaceOnUse"><stop stop-color="#F7AB29"/><stop offset="1" stop-color="#D4622E"/></linearGradient></defs></svg>