<!-- by TradingView --><svg width="56" height="56" viewBox="0 0 56 56" xmlns="http://www.w3.org/2000/svg"><path fill="#F0F3FA" d="M0 0h56v56H0z"/><path d="M25.1 32.6c-.26.02-.52.02-.78.02a10.32 10.32 0 1 1 9.07-15.24c-.7.15-1.38.35-2.03.62a8.25 8.25 0 1 0-6.85 12.56c.13.7.33 1.39.58 2.04Zm9.46-11.65a10.31 10.31 0 0 1-5.83 10.69c-.29-.63-.5-1.3-.6-2a8.25 8.25 0 0 0 4.41-8.1 7.99 7.99 0 0 1 2.02-.59Z" fill="#2183DE"/><path d="M46 28.5a10.32 10.32 0 0 1-11.25 10.27c.25-.65.45-1.33.57-2.03l.36.01a8.25 8.25 0 1 0-7.08-12.5c-.65-.27-1.32-.48-2.02-.63A10.32 10.32 0 0 1 46 28.5Zm-14.86 9.26a10.31 10.31 0 0 1-5.7-10.58c.7.12 1.38.34 2 .64l-.02.68a8.25 8.25 0 0 0 4.3 7.24c-.1.71-.3 1.39-.58 2.02Z" fill="#0EB7DB"/><path d="M28.85 27.79a8.23 8.23 0 0 0-9.06 0 7.66 7.66 0 0 1-1.5-1.47 10.28 10.28 0 0 1 12.06 0 7.66 7.66 0 0 1-1.5 1.47Zm2.58 2.7a8.25 8.25 0 1 1-14.22 0 11.4 11.4 0 0 1-1.51-1.47 10.32 10.32 0 1 0 17.25 0 11.4 11.4 0 0 1-1.52 1.47Z" fill="#008"/></svg>