<!-- by TradingView --><svg width="56" height="56" viewBox="0 0 56 56" xmlns="http://www.w3.org/2000/svg"><path fill="#F0F3FA" d="M0 0h56v56H0z"/><path d="M5 21H4v.5h1V26h.5v-4.5h1V21H5Zm7 5v-5h.5v5H12Zm7 0v-5h.5v5H19Zm1.5-5H23v.5h-1V26h-.5v-4.5h-1V21ZM35 25.5V21h.5v4.5h2v.5H35v-.5ZM7.5 26v-5h1.75c.7 0 1.25.7 1.25 1.43S9.94 24 9.25 24h-.13l1.46 2h-.6l-1.45-2H8v2h-.5Zm1.7-4.5H8v2h1.2c.44 0 .8-.45.8-1s-.36-1-.8-1ZM31 26v-5h1.75c.7 0 1.25.73 1.25 1.47 0 .73-.56 1.53-1.25 1.53H31.5v2H31Zm1.7-4.5h-1.2v2h1.2c.44 0 .8-.45.8-1s-.36-1-.8-1ZM14 26v-5l3 3.52V21h.5v5l-3-3.54V26H14Zm11.5-2.43V26h.5v-2.43L27.62 21h-.58l-1.27 2.08L24.55 21H24l1.5 2.57ZM40.23 21 38 26h.66l.6-1.5h2.04l.68 1.5h.6l-2.35-5Zm.85 3h-1.61l.76-1.9.85 1.9Zm7.28 1.17A2.5 2.5 0 0 1 44 23.5a2.5 2.5 0 0 1 4.36-1.67l-.35.36a2 2 0 0 0-3.51 1.31 2 2 0 0 0 3.51 1.3l.35.37ZM52 21h-2.5v5H52v-.5h-2v-2h2V23h-2v-1.5h2V21Z" fill="#3973B3"/><path fill-rule="evenodd" d="m51.04 30.58.86-.7a2.92 2.92 0 0 0-1.85-.88c-1 0-1.75.74-1.75 1.5 0 .64.58 1.1.94 1.39l.17.14.3.24c.44.34 1.13.86 1.13 1.22 0 .47-.37.6-.8.6-.36 0-.84-.57-1.04-.85l-1 .6c.2.39.9 1.16 2.03 1.16 1.43 0 1.97-.68 1.97-1.66 0-.78-1-1.6-1.51-1.93-.49-.28-1.34-.93-.88-1.27.57-.42 1.07.07 1.43.44ZM6 29H5v6h1v-2.5h2V35h1v-6H8v2.5H6V29Zm13 0h1v5h2v1h-3v-6Zm12 0h1v6h-1v-6Zm4 0h-1v6h1v-4.33L38 35h1v-6h-1v4.33L35 29Zm-21 6a3 3 0 1 0 0-6 3 3 0 0 0 0 6Zm0-1a2 2 0 1 0 0-4 2 2 0 0 0 0 4Zm11.75 1H24v-6h1.75c1.52 0 2.75 1.34 2.75 3s-1.23 3-2.75 3Zm-.03-1H25v-4h.72c.98 0 1.78.9 1.78 2s-.8 2-1.78 2ZM44 35a3 3 0 0 0 3-3h-3v1h1.72a2 2 0 1 1-.03-2.08l.68-.76A3 3 0 1 0 44 35Z" fill="#3973B3"/><path fill="#7F7F7F" d="M4 27h48v.5H4z"/></svg>