<!-- by TradingView --><svg xmlns="http://www.w3.org/2000/svg" width="56" height="56" viewBox="0 0 56 56"><path fill="#F0F3FA" d="M0 0h56v56H0z"/><path fill-rule="evenodd" d="M34.01 17.74L28 11l-6 6.73 3.03 9.48-3.33-9.16-3.4 3.8 4.81 6.78-.2.08-5.04-6.38-3.13 3.47 9.85 7.13.86-1-.97-1.21.13.02.84 1.18 1.03-.55V34h.8l.2-2.73h.86L28.08 35h-1.85c-.22-.15-.66-.5-.72-.85l-.01-.1v.1L25.7 36h5.81v-1.4c-.04.13-.22.4-.68.4h-1.3v-3.63l1.03.55.84-1.18.13-.02-.97 1.21.86 1 9.86-7.14-3.13-3.45-5.04 6.37a5.07 5.07 0 0 0-.22-.08l4.81-6.8-3.4-3.79-3.52 9.7 3.24-10zm-4.5 12.25l.47-1.43-.46-.03v1.46zm0-1.94V26h-.8l-.14 2a24.52 24.52 0 0 0-.86 0l.2-3h1.86c.22.15.66.5.72.85l.01.1v-.1L30.3 24h-5.78l-1.96-6.15L28 11.77l5.45 6.09-3.32 10.24-.61-.05zm-.97.43l-.14 2.04a23.66 23.66 0 0 1-.87 0l.14-2.04a23.6 23.6 0 0 1 .87 0zm-2.06 1.64v-1.6l-.49.05.5 1.55zM25.18 25a.9.9 0 0 0-.31.05l.97 3.05.64-.05V25h-1.3zm7.2 3.47l4.67-6.61-2.58-2.84-3.34 9.2c.46.07.88.16 1.24.25zm-1.41.21c.4.06.78.13 1.1.21l-1 1.41-.73.1.63-1.72zm-6.1-.46l-3.35-9.2-2.58 2.87 4.68 6.59c.37-.1.78-.19 1.24-.26zm-.95.67c.33-.08.7-.15 1.11-.21l.63 1.72-.74-.1-1-1.4zm-.52.15a5 5 0 0 0-.19.07l.81 1.02.19.04-.8-1.13zm-.22.84l-.44-.55a.62.62 0 0 0-.2.17c0 .03.06.09.22.18.11.07.25.14.42.2zm-.74-.94l-4.6-5.83-2.35 2.6 9.02 6.54.28-.33-1.08-1.37C22.65 30.28 22 29.9 22 29.5c0-.2.16-.39.44-.56zm2.86 1.9l.3.43.31-.17-.07-.2-.54-.06zm4.86.06l-.07.2.3.17.3-.43-.53.06zm1.63-.73l.8-1.13.2.07-.8 1.02a10 10 0 0 1-.2.04zm.5.38l-1.08 1.37.28.33 9.03-6.54-2.35-2.58-4.6 5.81c.28.17.43.36.43.56 0 .4-.65.78-1.7 1.05zm.97-1.22c.14.09.2.15.2.17a.65.65 0 0 1-.22.18c-.11.07-.25.13-.42.2l.44-.55zm-8.84 3.76l-9.97-6.96-3.48 3.85 7.8 3-8.1-2.66L5.5 36h17.95v-1.21l.07.03.9-1.73zm-12.59-3.33l2.7-2.96 9.24 6.45-.48.93-11.46-4.42zm-1.02 1.15l-4.14 4.58h16.28v-.6L10.8 30.91zm20.77 2.18l9.98-6.98L45.04 30l-7.25 2.78 7.5-2.5L50.5 36H32.55v-1.21l-.07.03-.9-1.73zm12.6-3.32l-2.7-2.98-9.25 6.46.48.93 11.47-4.4zm.96 1.09l4.19 4.63H33.05v-.6l12.1-4.03z" fill="#2A497E"/></svg>