<!-- by TradingView --><svg width="56" height="56" viewBox="0 0 56 56" xmlns="http://www.w3.org/2000/svg"><path fill="#F0F3FA" d="M0 0h56v56H0z"/><path d="M26 43.92c8.27-.8 14.73-7.62 14.73-15.92S34.27 12.88 26 12.08c.54-.05 1.08-.08 1.64-.08C36.67 12 44 19.16 44 28s-7.33 16-16.36 16c-.56 0-1.1-.03-1.64-.08Z" fill="url(#a1114c1mc)"/><path d="M14.88 29.35C14.97 21.3 20.72 14.78 28 14.1c-.47-.06-.95-.1-1.44-.1-7.95-.1-14.47 6.76-14.56 15.31-.02 2 .31 3.92.94 5.69l2.22-2.42a16.7 16.7 0 0 1-.28-3.23Z" fill="#075686"/><path d="M16.29 38.95 14 36.05 30 21v4.63L16.29 38.95Z" fill="url(#b1114c1mc)"/><path d="M20.29 43 18 40.68l12-11.57v4.63L20.29 43Z" fill="url(#c1114c1mc)"/><defs><linearGradient id="a1114c1mc" x1="33.88" y1="10.86" x2="35.04" y2="44" gradientUnits="userSpaceOnUse"><stop stop-color="#2E6A8E"/><stop offset=".37" stop-color="#2A6F8D"/><stop offset="1" stop-color="#33AD84"/></linearGradient><linearGradient id="b1114c1mc" x1="30" y1="24.47" x2="13.81" y2="39.32" gradientUnits="userSpaceOnUse"><stop stop-color="#12AF7A"/><stop offset=".38" stop-color="#387D8E"/><stop offset="1" stop-color="#135E88"/></linearGradient><linearGradient id="c1114c1mc" x1="30" y1="24.47" x2="13.81" y2="39.32" gradientUnits="userSpaceOnUse"><stop stop-color="#12AF7A"/><stop offset=".38" stop-color="#387D8E"/><stop offset="1" stop-color="#135E88"/></linearGradient></defs></svg>