<!-- by TradingView --><svg width="56" height="56" viewBox="0 0 56 56" xmlns="http://www.w3.org/2000/svg"><path fill="#F0F3FA" d="M0 0h56v56H0z"/><path d="m24.61 32.1 4.24-.72 1.5-.23a12.04 12.04 0 0 1 7.4 1.19l.58.3c.1.05.04.2-.06.17a12.31 12.31 0 0 0-4.49-.54l-.57.04-1.96.28-5.98 1.4c-.86.2-1.74.33-2.62.4l-.9.05c-.69.05-1.38.03-2.07-.06l-.23-.03c-1.1-.14-2.17-.45-3.18-.92l-1.2-.55c-.12-.05-.07-.25.06-.23l1.92.22h2.2l1.8-.19 3.56-.59Z" fill="url(#afb0knv51)"/><path d="m31.4 34.98-4.05.77-1.75.17a15.83 15.83 0 0 1-7.42-1.04l-.12-.05c-.13-.05-.08-.26.06-.24l2.04.32.73.03a15.9 15.9 0 0 0 4.5-.44l.58-.14 4.72-1.18a16.2 16.2 0 0 1 2.83-.44l.88-.06a9.74 9.74 0 0 1 5.61 1.33l.93.54c.1.06.05.23-.07.21l-.8-.15c-1-.19-2-.28-3-.28h-.28l-1.79.12-3.6.53Z" fill="#E03030"/><path d="M50.05 24.06c-.67.2-1.1.84-.96 1.48.1.46.48.78 1.24 1.07.82.3 1.17.52 1.3.81.13.29.06.67-.16.96-.18.24-.32.33-.65.4-.34.08-.72.05-1.02-.09a1.9 1.9 0 0 1-.69-.84c-.1-.26-.2-.37-.2-.22 0 .2.2 1.07.25 1.12.22.2 1.3.33 1.78.2.67-.18 1.1-.78 1.06-1.48-.04-.69-.34-.95-1.67-1.46a2.05 2.05 0 0 1-.8-.5c-.07-.08-.1-.2-.11-.4-.02-.23 0-.3.1-.46.22-.37.73-.56 1.22-.46.46.1.8.4.99.87.1.25.2.28.17.05a22.3 22.3 0 0 1-.07-.53c-.07-.47-.07-.48-.17-.42-.07.04-.15.03-.38-.04a2.45 2.45 0 0 0-1.23-.06Zm-4.31.13c-.12.23-1.34 2.81-1.65 3.5-.28.6-.43.83-.67 1.05-.26.22-.22.26.15.26h.64c.2 0 .38-.03.41-.04.09-.05 0-.12-.2-.17-.4-.1-.43-.32-.11-1.09.27-.65.16-.6 1.28-.62.9-.01.96 0 1.02.07.08.1.47 1.22.47 1.34 0 .15-.08.25-.25.3-.08.03-.15.07-.15.1 0 .05.1.11.46.11h.85c.34 0 .39 0 .39-.05s-.07-.09-.2-.12a.88.88 0 0 1-.29-.14c-.15-.13-.4-.64-.74-1.56A88.95 88.95 0 0 0 45.88 24c-.02 0-.09.08-.14.19Zm.35 1.56c.2.49.36.91.35.94-.04.08-.51.12-1.03.08-.51-.03-.61-.05-.61-.11 0-.1.82-1.82.87-1.8a7 7 0 0 1 .42.89Zm-6.63-1.74c-.05.01-.08.04-.08.06 0 .04.04.06.35.18.3.1.28.1.27 2.22 0 2.17.01 2.14-.34 2.3-.1.05-.2.12-.2.15 0 .05.1.08.63.08h1.4c1.11 0 1.19.01 1.55-.66.22-.4.19-.47-.1-.2-.12.1-.3.23-.38.27a.63.63 0 0 0-.18.1 4.8 4.8 0 0 1-1.26.15c-.52-.02-.53-.04-.59-.59a6.53 6.53 0 0 1 .03-1.47c.06-.06 1.2-.07 1.38-.02.18.06.27.18.32.45.02.1.06.16.1.16a8.03 8.03 0 0 0 .08-1.49c-.04-.06-.13.06-.17.23-.08.26-.24.3-1.02.3-.48 0-.67 0-.7-.05a7.1 7.1 0 0 1-.03-1.44c.02-.2.06-.35.1-.39.05-.05.2-.06.73-.06 1.02 0 1.2.07 1.24.47.02.15.04.22.08.22.08 0 .1-.09.13-.57l.03-.41h-3.07l-.3.01Zm-2.89.04c-.63.2-1 .66-1 1.25 0 .63.32.97 1.32 1.35 1.03.4 1.28.62 1.28 1.14a.9.9 0 0 1-.34.74c-.27.23-.44.28-.9.28-.36 0-.42-.01-.64-.13a1.51 1.51 0 0 1-.67-.77c-.05-.13-.1-.25-.1-.28 0-.02-.03-.04-.06-.04-.08 0-.07.12.06.75.07.3.1.35.22.44.23.15.75.24 1.24.22.35-.01.45-.04.7-.16.54-.25.82-.69.82-1.3 0-.37-.13-.66-.4-.89-.18-.15-.68-.4-1.2-.6-.2-.07-.47-.2-.6-.29-.95-.62-.12-1.86 1.02-1.54.46.12.78.45.95.98.02.04.05.08.08.08.02 0 .04-.04.04-.08 0-.14-.13-1.06-.16-1.08-.01-.01-.04 0-.06.04-.03.05-.1.04-.4-.04a2.55 2.55 0 0 0-1.2-.07Zm-7.12-.03c-.12.05-.05.14.15.2.1.02.24.09.3.15l.1.1v2c0 2.25.01 2.18-.34 2.31-.1.04-.17.1-.17.14 0 .05.08.08.63.08h1.4c.98 0 1.1 0 1.3-.28.19-.24.4-.65.36-.71-.01-.03-.11.04-.21.14-.1.1-.29.23-.4.28-.28.13-.9.23-1.38.23-.36 0-.41 0-.52-.1l-.13-.1-.01-.87c-.01-.53 0-.9.03-.94.04-.05.17-.06.74-.06.66 0 .7 0 .8.1.07.06.13.18.15.3.02.13.06.21.1.22.06.01.07-.1.08-.73 0-.8-.04-.93-.17-.54-.09.28-.2.32-1 .32-.51 0-.65-.01-.7-.06-.08-.1-.04-1.73.04-1.83.05-.06.17-.07.76-.07 1.01 0 1.18.06 1.24.47.07.48.2.16.2-.49v-.27h-3.07a.87.87 0 0 0-.28 0ZM24.93 24h-.68c-.43 0-.51.03-.5.08.02.03.1.08.2.11.38.12.44.23 1.16 1.9.55 1.3 1.25 2.86 1.3 2.9.01.02.04.01.06-.01.07-.07.88-1.9 1.39-3.1.53-1.27.73-1.65.95-1.7.07-.02.13-.06.13-.1 0-.04-.07-.08-.28-.08h-.7c-.34 0-.42.01-.4.06 0 .03.12.05.24.08.48.12.47.27-.1 1.62a99.45 99.45 0 0 1-1 2.29c-.02.05-.07.1-.1.1-.07 0-.1-.06-.64-1.28l-.69-1.56c-.4-.88-.41-1-.13-1.13.13-.07.16-.17.04-.18h-.25Zm-4.46.04c-.04.06.02.1.2.14.15.02.2.05.26.17.07.13.07.31.07 2.17v2.03l-.12.13a.64.64 0 0 1-.23.16c-.06.01-.1.05-.1.09 0 .06.1.08.72.07h1.47c.7 0 .74 0 .93-.09a.9.9 0 0 0 .32-.3c.15-.23.26-.52.2-.57 0-.02-.1.05-.2.15-.24.24-.48.36-.9.43-.38.07-1.2.08-1.35.02-.07-.02-.13-.1-.16-.18a32.5 32.5 0 0 1-.01-3.47c.05-.62.1-.76.36-.83.1-.03.18-.07.18-.1 0-.06-1.6-.09-1.64-.02ZM16.43 24c-.1.06 0 .16.19.2.12.03.22.1.28.17.1.13.1.17.1 2.1 0 2.21 0 2.16-.33 2.31-.1.05-.2.2-.19.22h3.06l.2-.22c.22-.24.42-.58.42-.73 0-.09-.03-.07-.2.1-.1.1-.28.24-.4.3-.39.17-1.54.29-1.84.18-.17-.07-.2-.25-.2-1.15 0-.8 0-.83.09-.88.06-.03.32-.04.74-.03.64.01.65.01.75.13.06.07.12.21.14.32.02.14.05.2.1.2.07 0 .08-.09.08-.75 0-.53-.01-.75-.05-.75-.03 0-.07.08-.1.17-.1.32-.15.34-.96.35-.57.02-.73 0-.76-.04-.06-.1-.04-1.67.02-1.8l.06-.1h.78c1.03 0 1.14.04 1.17.48.01.12.04.18.09.19.06 0 .08-.06.1-.46.02-.25.03-.5.02-.51h-3.36Zm-3.23 0c-.6.02-.72.08-.4.18.23.07.26.1.25.28a9 9 0 0 1-.47 1.32c-.03.03-.08-.06-.34-.66-.18-.42-.23-.56-.22-.72.01-.17.03-.2.16-.23.08-.02.15-.07.15-.1s-.39-.07-.78-.07c-.4 0-.81.05-.82.08-.01.04.05.07.15.08.38.06.48.17.8.89l.4.91.2.46-.34.84a4.6 4.6 0 0 1-.4.84c-.05 0-.14-.18-.47-.94l-.42-.95c-.27-.6-.58-1.36-.68-1.66-.06-.21 0-.34.19-.38.06-.02.1-.06.1-.08-.02-.04-.24-.08-.81-.09-.66-.01-.8.02-.8.07 0 .04.09.08.23.11.28.07.4.18.6.6.15.3 1.27 2.85 1.7 3.84.08.2.18.37.21.37s.26-.48.51-1.08c.25-.59.48-1.09.5-1.1.01-.02.04-.02.05 0 .15.39 1.03 2.18 1.07 2.19.02 0 .14-.22.26-.5a281.6 281.6 0 0 1 1.1-2.57c.66-1.55.67-1.58.87-1.73.09-.06.15-.13.13-.15a1.97 1.97 0 0 0-.55-.05c-.36 0-.76.02-.76.06 0 .04 0 .05.32.13.3.07.34.17.24.5a41.4 41.4 0 0 1-1.45 3.45c-.05 0-.12-.12-.57-1.08-.34-.73-.43-.95-.4-1.04.04-.17.6-1.48.7-1.64.08-.13.15-.18.4-.25.1-.03.1-.1.03-.13h-.64Zm-9.14 0c-.02.03-.05.32-.06.57-.02.52.03.56.17.16.13-.38.18-.4 1.04-.4h.72l.04.18A32 32 0 0 1 6 26.64c-.02 2.2 0 2.11-.37 2.21-.43.12-.28.15.66.15.95 0 1.09-.04.66-.15-.4-.11-.4-.02-.4-2.25 0-1.08.03-2.03.05-2.12l.03-.16.32-.03c.18-.02.52-.02.77 0 .5.06.65.14.72.41.02.09.07.17.1.18.06.02.06-.05.04-.4a3.7 3.7 0 0 0-.06-.48H4.06Z" fill="#407CA1"/><defs><linearGradient id="afb0knv51" x1="33.01" y1="31.38" x2="16.97" y2="32.97" gradientUnits="userSpaceOnUse"><stop stop-color="#2B7BA6"/><stop offset=".65" stop-color="#287CAB"/></linearGradient></defs></svg>