<!-- by TradingView --><svg xmlns="http://www.w3.org/2000/svg" width="56" height="56" fill="none"><path fill="#FFC708" d="M0 0h56v56H0z"/><path d="M9.5 20c0-.28.22-.5.5-.5h36c.28 0 .5.22.5.5v17a.5.5 0 01-.5.5H10a.5.5 0 01-.5-.5V20z" stroke="#000"/><path fill-rule="evenodd" d="M10.5 20l3 3h29.02l3-3H10.5zM43 33.49V23.5l3-3v16l-3-3zm-.48.51H13.5l-3 3h35.03l-3-3zM13 23.5v10l-3 3v-16l3 3zM10 19a1 1 0 00-1 1v17a1 1 0 001 1h36a1 1 0 001-1V20a1 1 0 00-1-1H10zm4 5h28v9H14v-9zm2 3.3c0-.85-1-1.13-1-1.13V26h3v.17s-1 .16-1 .99v1.73c0 .89.53 1.51 1.72 1.51.9 0 1.68-.47 1.68-1.34v-2.1c0-.6-.88-.79-.88-.79V26H22v.17s-1 .22-1 .74v2.15c0 .7-.55 1.94-2.42 1.94-2.14 0-2.58-1.1-2.58-2.03V27.3zm10.52.05l.18-.03-.13-1.32h-.2s-.1.2-.15.26c-.4-.2-.7-.26-1.11-.26C24 26 23 26.42 23 27.27c0 .79.93 1.23 1.75 1.62.66.32 1.25.6 1.25 1 0 .53-.43.75-1.08.75-.92 0-1.52-.8-1.92-1.64v2h.16l.14-.16.13-.15c.3.13.8.31 1.5.31.86 0 2.07-.27 2.07-1.44 0-.79-1-1.3-1.83-1.73-.63-.33-1.17-.6-1.17-.92 0-.46.56-.6 1.1-.6.8 0 1.12.48 1.3.8l.12.24zm14.48.4V26h-.25s-.27.4-.32.44c-.75-.44-1.4-.44-1.72-.44C37.2 26 36 27.03 36 28.4c0 1.4.93 2.6 2.74 2.6 1.53 0 2.26-1.14 2.26-1.29 0-.08-.08-.12-.13-.12-.07 0-.09.02-.23.2v.01c-.5.6-1.1.7-1.6.7-1.06 0-2.04-.82-2.04-2.2 0-.84.63-1.86 1.94-1.86.92 0 1.41.42 1.74 1.02l.13.28H41zM30.7 26l.27.31-2.43 4.33H28V31h2v-.36h-.42l.69-1.24H33l.69 1.24H33V31h2.5v-.36h-.84l-2.41-4.33.26-.31H30.7zm.94.9l-1.05 1.9h2.09l-1.04-1.9z" fill="#000"/></svg>