<!-- by TradingView --><svg width="56" height="56" xmlns="http://www.w3.org/2000/svg"><path fill="#1D8649" d="M0 0h56v56H0z"/><path d="M25.121 46s2.11-2.575.883-4.563c-.91-1.476-3.825-1.163-5.427-1.609-3.227-.901-6.296-4.188-5.677-7.063 0 0 4.667 6.192 10.854 3.902-.733.14-4.61-1.405-7.273-3.882-3.196-2.973-5.764-6.474-3.791-12.408 0 0 .206 10.081 11.284 12.497 0 0-14.082-6.757-8.844-20.036 0 0 .763 7.373 3.262 9.445 0 0-4.427-6.526.148-13.283 0 0-1.375 9.05 3.694 13.249 3.905 3.235 6.503 3.545 9.074 7.311 1.99 2.912 2.234 6.267-1.272 10.234 0 0 1.073-7.62-6.564-11.83 0-.003 10.393 10.864-.35 18.036zm11.435-22.751c-.389.276-.636.599-.547.721.09.123.478-.003.866-.279.389-.275.636-.599.547-.721-.09-.123-.474.003-.866.279zM42 23.212c-.457.207-.87.438-1.244.69a5.582 5.582 0 00-.956.728c-.051.048-.096.099-.144.15-2.193 2.092-2.75 5.137-3.674 7.791 0-.003-.004-.007-.004-.01-.117-1.3-.629-2.521-1.416-3.674a12.626 12.626 0 00-2.375-2.64 53.604 53.604 0 00-.075-.075c.31-.412.835-1.09 1.282-1.555.536-.558 1.866-1.684 2.086-1.865.22-.177 1.361-.881 2.31-.422.646-.452 1.845-1.01 2.526-.707.67.296 1.186.728 1.684 1.588z" fill="#fff"/></svg>