<!-- by TradingView --><svg xmlns="http://www.w3.org/2000/svg" width="56" height="56" viewBox="0 0 56 56"><path fill="url(#a12gyqrkd)" d="M0 0h56v56H0z"/><path fill-rule="evenodd" d="M27.97 14.58 26.14 11l-8.31 4.23A6.62 6.62 0 0 0 15 24.3l-4.01.63 1.45 9.18a6.65 6.65 0 0 0 7.85 5.49l-.6 3.91 9.23 1.41a6.64 6.64 0 0 0 7.56-5.56l3.46 1.8 4.3-8.26a6.63 6.63 0 0 0-3-9.03l2.95-2.91-6.56-6.6a6.66 6.66 0 0 0-9.67.22Zm8.59 23.32 3.74-7.2a2.14 2.14 0 1 0-3.8-1.97l-2.36 4.5a6.64 6.64 0 0 1 2.42 4.67Zm-6-1.62.9.47a2.14 2.14 0 0 1-1.73 3.74l-8.21-1.25a6.65 6.65 0 0 0 3.7-3.78l5.16.79.18.03Zm-.64-4.63 2.12-4.08-3.08-3.1-4.23 2.15.68 4.34 4.5.7Zm10.47-8.13a6.66 6.66 0 0 0-5.44.62l-3.66-3.69a2.14 2.14 0 1 1 3.05-3.02l6.05 6.1Zm-13.1-8.05-7.52 3.83a2.14 2.14 0 1 0 1.95 3.82l4.76-2.42a6.63 6.63 0 0 1 .82-5.23ZM16.94 33.54l-1.32-8.32a6.66 6.66 0 0 0 4.76 2.54l.8 5.11a2.15 2.15 0 1 1-4.24.67Z" fill="#FFF000"/><defs><linearGradient id="a12gyqrkd" x1="10.42" y1="9.71" x2="68.15" y2="76.02" gradientUnits="userSpaceOnUse"><stop stop-color="#1A1E21"/><stop offset="1" stop-color="#06060A"/></linearGradient></defs></svg>