<!-- by TradingView --><svg width="56" height="56" viewBox="0 0 56 56" xmlns="http://www.w3.org/2000/svg"><path fill="#F0F3FA" d="M0 0h56v56H0z"/><path d="M28.22 26.44c-4.89-2.66-14.7-8-14.82-8.1l2.34-2.72 13 7.1 3.51-.39-2.03 3.86-2 .25Z" fill="#F89520"/><path d="M32.23 22.33h.02l-2.03 3.86-1.72.21 3.73-4.07Z" fill="#F05D2A"/><path d="m25.16 20.21-3.95-2.12-.65-5.83L24.08 11l1.08 9.21Z" fill="#EB7B2F"/><path d="M29.27 28.56c2.73-4.75 8.64-15.22 8.76-15.33l2.8 2.28-7.73 13.55.4 3.41-3.97-1.97-.26-1.94Z" fill="#F89520"/><path d="M33.5 32.45v.02l-3.97-1.97-.22-1.67 4.19 3.62Z" fill="#F05D2A"/><path d="m35.68 25.58 2.19-3.83 6.83-.78L46 24.4l-10.32 1.2Z" fill="#EB7B2F"/><path d="M27.1 29.56c4.9 2.66 14.7 8 14.82 8.1l-2.34 2.72-13-7.1-3.5.39 2.02-3.86 2-.25Z" fill="#F89520"/><path d="M23.09 33.67h-.02l2.03-3.86 1.72-.21-3.73 4.07Z" fill="#F05D2A"/><path d="m30.16 35.79 3.95 2.12.65 5.83L31.24 45l-1.08-9.21Z" fill="#EB7B2F"/><path d="M26.05 27.44c-2.73 4.75-8.03 14.09-8.03 14.09l-2.8-2.28 7-12.3-.4-3.42 3.97 1.97.26 1.94Z" fill="#F89520"/><path d="M21.82 23.55v-.02l3.97 1.97.22 1.67-4.19-3.62Z" fill="#F05D2A"/><path d="m19.64 30.42-2.19 3.83-5.15.56-1.3-3.42 8.64-.97Z" fill="#EB7B2F"/></svg>