<!-- by TradingView --><svg width="56" height="56" viewBox="0 0 56 56" xmlns="http://www.w3.org/2000/svg"><path fill="#F0F3FA" d="M0 0h56v56H0z"/><path d="M44.6 28.35c0-.31.27-1.13.4-1.35v1.35h-.4ZM42 31h1.84l.16-1.01c0-.28.33-.19 1-.19V31h2v-5.98c-3.44 0-2.96-.5-4.3 3.83-.19.47-.51 1.78-.7 2.15ZM38.38 29.85c-.31 0-.38-.3-.38-.85h-2c.2 1.57-.24 1.9 1.53 2 1.97 0 2.83.04 3.18-.45.29-.43.29-1.12.29-1.67-.03-1.15-1.06-1.33-2.03-1.75-.38-.17-.93-.28-.97-.65-.02-.23.07-.48.5-.48.28 0 .46.36.5.7h2c-.2-1.26.06-1.69-2.06-1.69-1.2 0-2.53-.18-2.85.88-.06.2-.1.46-.09.7.01.34.08.66.24.87.5.7 1.6 1 2.32 1.42.41.21.56.97-.18.97ZM32 26.2c.5.03 1 .13 1 .53 0 .5-.39.67-1 .67v-1.2ZM30 31h2v-2.4c.83.22.58 2.18 1.08 2.4H35c-.2-.5-.28-.53-.61-1.5a5.6 5.6 0 0 0-.75-1.4c.5-.22.85-.85.86-1.47a1.6 1.6 0 0 0-.72-1.38C33.12 25 30.86 25 30 25v6ZM11.94 25.3c-.19-.26.06-.2-.25-.3H10v6h2v-4.5c.06-.16.42-.3.64-.3.13 0 .31.06.36.2V31h2v-4.44c0-1.02-.35-1.55-1.38-1.56-.6 0-1.28.13-1.68.3ZM24 30.98V25h-2v4c-.27-.53-.5-1-1.5-4h-2c.5 1.5 1.5 6 2.5 6 .5 0 2.49.01 3-.02ZM5.4 31c.8 0 1.05-.06 1.7-.28l.15.28H9v-6H7v4.37c0 .34-.4.64-.63.63a.4.4 0 0 1-.37-.41V25H4v3.5c0 1.41-.2 2.53 1.4 2.5ZM29 29.38h-2v-.78h1.65l.03-1.19H27v-.88h2V25h-4v6h3.6c.37-.15.4-1.25.4-1.63ZM48 31h3.69l.31-2h-2v-4h-2v6ZM16 31h1.98c0-1.8.04-4.8 0-6H16v6Z" fill="#2C2C2C"/></svg>