<!-- by TradingView --><svg width="56" height="56" fill="none" xmlns="http://www.w3.org/2000/svg"><path fill="#F0F3FA" d="M0 0h56v56H0z"/><path d="M15.327 42c-.459 0-.89-.09-1.294-.27a3.543 3.543 0 01-1.776-1.84c-.171-.418-.257-.976-.257-1.447 0-.47.088-.915.265-1.333.178-.419.415-.782.714-1.09.304-.314.658-.56 1.062-.741A3.037 3.037 0 0115.327 35c.326 0 .658.052.996.157.337.105.636.247.896.427l-.133.218a2.903 2.903 0 00-.838-.392 3.018 3.018 0 00-.92-.148 2.91 2.91 0 00-1.204.252 3.163 3.163 0 00-1.635 1.7c-.16.384-.24.793-.24 1.23 0 .435.08.961.24 1.35.16.384.38.721.656 1.012.282.285.608.511.979.68a2.91 2.91 0 002.182.078c.338-.116.639-.276.904-.48l.142.219a3.52 3.52 0 01-.963.514c-.36.122-.713.183-1.062.183zM18 42h-.274l2.945-7 2.974 7h-.273l-1.075-2.45h-3.27L18 42zm1.136-2.711h3.053l-1.518-3.644-1.535 3.644zM24.386 42h-.249v-7h1.784c.282 0 .55.04.805.122.26.081.487.2.68.358.194.156.346.351.457.584.116.226.174.488.174.784 0 .279-.058.526-.174.741-.11.21-.26.39-.448.54a2.022 2.022 0 01-.656.332 2.534 2.534 0 01-.755.113h-1.618V42zm0-3.687h1.618c.221 0 .437-.032.647-.096.216-.064.407-.157.573-.28.171-.121.307-.272.406-.453a1.27 1.27 0 00.158-.636c0-.273-.055-.508-.166-.706a1.388 1.388 0 00-.423-.497 1.607 1.607 0 00-.597-.288 2.44 2.44 0 00-.68-.096h-1.536v3.052zM29.198 35v7h-.25v-7h.25zM35 35.261h-2.36V42h-.248v-6.739H30V35h5v.261zM34.29 42h-.274l2.991-7L40 42h-.274l-1.093-2.45h-3.269L34.29 42zm1.182-2.711h3.053l-1.518-3.644-1.535 3.644zM44 42h-3.526v-7h.249v6.739H44V42zM17 17v13h-4v-7.96l-2 1.46-1-3.609L14 17h3z" fill="#000"/><path d="M38.877 32l-10.73-15h4.918l10.73 15h-4.918z" fill="url(#paint0_linear_3186)"/><path d="M36.258 19.271L39.252 15H44l-5.274 7.72-2.468-3.448zM31.698 24.568L25.718 33h4.904l3.539-4.99-2.463-3.442z" fill="#000"/><path fill-rule="evenodd" clip-rule="evenodd" d="M29 23.5a9.03 9.03 0 00-.115-1.446l-3.354-4.688A5.494 5.494 0 0023.5 17c-3.75 0-5.5 3.19-5.5 6.5s1.75 6.5 5.5 6.5c.676 0 1.288-.104 1.835-.293l3.594-5.068c.048-.375.071-.756.071-1.139zm-4 0c0-1.227 0-3.5-1.5-3.5S22 22.273 22 23.5c0 1.227 0 3.5 1.5 3.5s1.5-2.273 1.5-3.5z" fill="#000"/><defs><linearGradient id="paint0_linear_3186" x1="35.971" y1="17" x2="35.971" y2="32" gradientUnits="userSpaceOnUse"><stop stop-color="#0374FD"/><stop offset="1" stop-color="#01326F"/></linearGradient></defs></svg>