<!-- by TradingView --><svg width="56" height="56" viewBox="0 0 56 56" xmlns="http://www.w3.org/2000/svg"><path fill="#F0F3FA" d="M0 0h56v56H0z"/><path d="M42.5 32.56c-6.89-.76-9.22-3.92-9.46-4.33-.11-.17-.11-.23-.11-.23s0-.06.11-.23c.24-.35 2.57-3.57 9.45-4.33.7 1.46 1.52 2.98 2.51 4.5a53.2 53.2 0 0 0-2.5 4.62ZM13.5 32.56a39.09 39.09 0 0 0-2.5-4.5c1-1.58 1.8-3.1 2.5-4.5 6.89.7 9.22 3.86 9.51 4.2.12.18.12.24.12.24s0 .06-.12.23c-.29.35-2.62 3.57-9.5 4.33Z" fill="#A690B3"/><path d="M35.09 41.5c-4.38-5.44-3.74-9.3-3.68-9.76.06-.18.06-.23.06-.23s.06-.06.23-.06c.18-.06.53-.06 1-.06 1.57 0 4.72.47 8.74 3.74-.52 1.52-.99 3.15-1.46 4.96-1.8.35-3.38.82-4.9 1.4Z" fill="#7C5D90"/><path d="M23.3 24.67c-1.57 0-4.72-.47-8.74-3.74.52-1.52.99-3.15 1.46-4.96 1.8-.41 3.44-.88 4.95-1.4 4.38 5.43 3.74 9.28 3.68 9.75-.06.17-.06.23-.06.23s-.06.06-.23.06c-.24.06-.59.06-1.05.06ZM32.7 24.67c-.47 0-.82-.06-1-.06-.17-.06-.23-.06-.23-.06s-.06-.06-.06-.23c-.06-.4-.7-4.32 3.68-9.76 1.51.53 3.14 1 4.95 1.46.41 1.82.88 3.45 1.46 4.97-4.08 3.21-7.23 3.68-8.8 3.68Z" fill="#C0B0CA"/><path d="M20.97 41.5c-1.51-.53-3.15-1-4.95-1.47-.41-1.8-.88-3.44-1.46-4.96 4.02-3.27 7.23-3.74 8.75-3.74.46 0 .81.06.99.06.17.06.23.06.23.06s.06.06.06.23c.12.47.7 4.38-3.62 9.81Z" fill="#7C5D90"/><path d="M28.03 23.1s-.06 0-.23-.12c-.35-.24-3.56-2.57-4.32-9.47 1.46-.7 2.97-1.52 4.5-2.51a52 52 0 0 0 4.48 2.51c-.76 6.9-3.9 9.23-4.31 9.47-.06.11-.12.11-.12.11Z" fill="#DAD1E0"/><path d="M28.03 45a52 52 0 0 0-4.5-2.51c.77-6.9 3.92-9.23 4.32-9.47.18-.11.24-.11.24-.11s.06 0 .23.11c.35.24 3.56 2.57 4.32 9.47A59.71 59.71 0 0 0 28.03 45Z" fill="#522D6D"/></svg>