<!-- by TradingView --><svg xmlns="http://www.w3.org/2000/svg" width="56" height="56" viewBox="0 0 56 56"><path fill="url(#a0cd4dhat)" d="M0 0h56v56H0z"/><path fill-rule="evenodd" d="M37.85 24.9c.6.08 1.02.22 1.15.28-.29.05-.89.17-.96.17-11.35-.15-16.5 1.6-18 2.31.34.21.3.78.25 1.04 1.42 1.46 1.67 4.88 1.75 7.33.07 2.45-1.82 10.9-4.92 10.97-2.48.06-.27-12.47 1.15-18.74a5.11 5.11 0 0 1-.34-1.74c.02-.61.5-.87.74-.92.96-5.89 3.3-17.44 4.96-16.55 1.78.96-2.32 11.45-3.58 14.67l-.35.91c-.16.52-.21 1.6-.22 2.08 8.08-2.35 17.63-1.9 18.37-1.8Zm-17.87-2.92c.64-3.5 2.62-12 3.45-11.94.54.1-1.14 6.27-3.45 11.94ZM19.4 29c-.1-.02-.42.25-.84 1.6-.53 1.69-2.52 15.52-1.1 15.48 1.43-.05 3.74-5.8 3.86-10.3.12-4.51-1.48-6.78-1.92-6.78Zm7.32-10.04c-.44-.14-1.37-.6-1.55-1.3l-.02-.07c-.22-.85-.42-1.61 1.08-3.5 1.54-1.92 4.29-3.09 7.52-3.09 3.23 0 2.05 4.07.77 6.82-1.28 2.75-2.08 5.15-.77 4.67 1.3-.47 5.28-5.12 7.07-11.23.5.05 1.42.44 1.12 1.67C41.57 14.46 36.55 24 32.47 24c-.8-.14-2.2-1-1.4-3.38.26-.74.65-1.64 1.06-2.58 1.25-2.84 2.66-6.07.9-6.49-2.35-.55-7.78 4.35-6.3 7.41ZM27 34v-3h.29l1.41 2.56V31h.3v3h-.37l-1.34-2.4.01 2.4H27Zm3.8 0h-.3l.98-3 1.02 3h-.34l-.3-1h-.75l-.31 1Zm.68-2.2.28.9h-.56l.28-.9ZM37 34h.3l.3-1h.75l.31 1H39l-1.02-3-.98 3Zm1.26-1.3-.28-.9-.28.9h.56ZM34 31v3h.3v-1h.31c.73 0 1.06-.44 1.06-1 0-.55-.28-1-1.06-1H34Zm.3.16v1.64h.46c.37 0 .67-.37.67-.82 0-.45-.3-.82-.67-.82h-.46ZM29.5 41a2.5 2.5 0 0 0 1.7-.67l-.22-.2a2.2 2.2 0 0 1-3.68-1.63 2.2 2.2 0 0 1 3.67-1.64l.2-.21A2.5 2.5 0 1 0 29.5 41Zm5.98 0H35l1.96-5L39 41h-.55l-.63-1.64H36.1L35.48 41Zm1.48-3.86.72 1.86h-1.44l.72-1.86Zm-3.6.1.26.76h.86l-.7.5.27.78-.7-.48-.7.48.27-.78-.7-.5h.87l.26-.76Z" fill="#fff"/><defs><linearGradient id="a0cd4dhat" x1="10.42" y1="9.71" x2="68.15" y2="76.02" gradientUnits="userSpaceOnUse"><stop stop-color="#1A1E21"/><stop offset="1" stop-color="#06060A"/></linearGradient></defs></svg>