<!-- by TradingView --><svg width="56" height="56" viewBox="0 0 56 56" xmlns="http://www.w3.org/2000/svg"><path fill="#F0F3FA" d="M0 0h56v56H0z"/><path d="M6.58 31 4 25h1.38l1.94 4.83L9.14 25h1.47l-2.59 6H6.58Z" fill="#DB1B31"/><path d="M12 26.61v2.7L14.5 31l2.5-1.7v-2.55L14.5 25 12 26.6Zm2.44-1.37v2.5L12.2 29.2v-2.5l2.24-1.46Z" fill="#A5A7A6"/><path d="m14.48 30.86-2.26-1.54 2.26-1.4 2.36 1.4-2.36 1.54ZM35.5 22H34v9h1.5v-9Zm-11.7 9-1.85-2.14L20.11 31h-1.5l2.58-3.02L18.62 25h1.56l1.77 2.08L23.72 25h1.57l-2.57 2.98L25.29 31h-1.5Zm5.2-6c1.94 0 3 1.34 3 3h-4.63c0 1.29.57 2.33 1.63 2.33.83 0 1.3-.54 1.51-1.33h1.37c-.31 1.17-1.21 2-2.88 2-1.96 0-3-1.34-3-3s1.06-3 3-3Zm1.5 2c-.23-.78-.74-1.33-1.5-1.33s-1.27.55-1.5 1.33h3Zm16.7 1c0-1.66-1.1-3-3.1-3S41 26.34 41 28s1.08 3 3.1 3c1.72 0 2.65-.83 2.97-2h-1.4c-.22.79-.72 1.33-1.57 1.33-1.1 0-1.68-1.04-1.68-2.33H47.2Zm-3.1-2.33c.78 0 1.31.54 1.55 1.33h-3.1c.24-.79.76-1.33 1.55-1.33ZM50 24h-1.5v1h-1v1h1v5H50v-5h2v-1h-2v-1Zm-11 1h-1.5v8H39v-8Z" fill="#171717"/><circle cx="38.25" cy="23.25" r=".75" fill="#DB1B31"/></svg>