<!-- by TradingView --><svg xmlns="http://www.w3.org/2000/svg" width="56" height="56"><path fill="#0174F9" d="M0 0h56v56H0z"/><ellipse cx="28" cy="29.13" rx="24" ry="10.87" fill="#7CC244"/><path d="M52 28.86c0 5.85-10.75 10.6-24 10.6S4 34.7 4 28.85c0-5.86 10.75-10.6 24-10.6S52 23 52 28.86z" fill="url(#a2m4xksz2)"/><path d="M52 28c0 5.53-10.75 10-24 10S4 33.53 4 28c0-5.52 10.75-10 24-10s24 4.48 24 10z" fill="#fff"/><ellipse cx="28" cy="27.5" rx="22" ry="8.5" fill="url(#b2m4xksz2)"/><path d="M15.5 25c-.28 0-.5.25-.5.56v4.88c0 .31.22.56.5.56s.5-.25.5-.56v-4.88c0-.31-.22-.56-.5-.56zm2.5 5.45c0 .3-.18.55-.5.55s-.5-.25-.5-.55V25.7c0-.68.45-.71.58-.71.3 0 .43.17.53.31l.04.06L21 29.11v-3.58c0-.3.18-.53.5-.53s.5.23.5.53v4.57c0 .53-.09.9-.49.9-.42 0-.56-.16-.76-.43a6.13 6.13 0 01-.04-.06l-.1-.13L18 26.9v3.55zm12-.04c0 .33-.17.59-.5.59-.33 0-.5-.26-.5-.59v-4.5c0-.57.32-.9.89-.9H30c.48 0 .77.24.9.7l1.1 3.4 1.1-3.4c.2-.63.65-.71.91-.71.76 0 .99.37.99 1.08v4.34c0 .32-.17.58-.5.58-.33 0-.5-.26-.5-.58v-3.85l-1.28 3.54-.04.12c-.14.4-.27.77-.68.77-.42 0-.58-.4-.74-.82l-.03-.08L30 26.57v3.84zM38.5 25c-.3 0-.5.25-.5.57v4.49c0 .32 0 .49.19.7.2.24.4.24.78.24h2.41c.55 0 .74-1.06.55-1.32-.2-.26-.82-.07-.88.32H39v-4.43c0-.32-.2-.57-.5-.57zm4.5 0c-.3 0-.5.25-.5.56v4.88c0 .31.2.56.5.56s.5-.25.5-.56v-1.99c1.15 1.7 2.82 2.8 3.3 2.45.23-.18.3-.6 0-.81 0 0-1.41-.64-2.3-2.09l2.06-1.95a.58.58 0 00.03-.78.472.472 0 00-.67 0l-2.42 2.35v-2.06c0-.31-.2-.56-.5-.56zm-17.5 1.76l.68 1.74h-1.35l.68-1.74zm-2.17 4.2c.23.1.59-.04.7-.33l.49-1.13h1.96l.5 1.15c.1.29.41.42.69.31.27-.12.4-.44.3-.73l-1.76-4.65-.01-.01c-.17-.41-.41-.6-.74-.57-.27.03-.5.23-.65.6l-.02.02-1.23 3.22c0 .02 0 .04-.02.05l-.5 1.31c-.11.3.02.65.3.77zM36 25.57c0-.31.22-.56.5-.56s.5.25.5.56v4.88c0 .31-.22.56-.5.56s-.5-.25-.5-.56v-4.88zm-26.64-.5a.57.57 0 00-.33.72l1.7 4.58.01.05c.17.36.4.56.7.59.33.03.6-.16.77-.57v-.02l1.76-4.65a.57.57 0 00-.33-.73.57.57 0 00-.72.33l-1.44 3.83-1.4-3.8a.57.57 0 00-.72-.33z" fill="#fff"/><path d="M16.56 17.54l1.1 2 1.52-1.7-.65 2.18 4.54-.49-4.27 1.45 1.7 1.52-2.19-.65.12 2.27-1.09-2-1.52 1.69.65-2.17-4.4.86 4.12-1.82-1.7-1.52 2.2.64-.13-2.26z" fill="url(#c2m4xksz2)"/><defs><linearGradient id="a2m4xksz2" x1="28" y1="36.44" x2="28" y2="39.46" gradientUnits="userSpaceOnUse"><stop stop-color="#7CC244"/><stop offset="1" stop-color="#CADB30"/></linearGradient><linearGradient id="b2m4xksz2" x1="28" y1="19" x2="28" y2="36" gradientUnits="userSpaceOnUse"><stop stop-color="#56609E"/><stop offset=".37" stop-color="#283987"/><stop offset="1" stop-color="#3C6CAE"/></linearGradient><linearGradient id="c2m4xksz2" x1="16.58" y1="17.54" x2="18.43" y2="24.12" gradientUnits="userSpaceOnUse"><stop stop-color="#7878BF"/><stop offset=".51" stop-color="#fff"/><stop offset="1" stop-color="#7878BF"/></linearGradient></defs></svg>