<!-- by TradingView --><svg width="56" height="56" viewBox="0 0 56 56" xmlns="http://www.w3.org/2000/svg"><path fill="#F0F3FA" d="M0 0h56v56H0z"/><path d="M19.28 13.37C23.9 16.78 30.07 24.27 31.04 38c.37-.86 1.38-5.28 1.38-11.48 0-5.1-1.76-10.98-5.92-15.52a16.76 16.76 0 0 0-7.22 2.37Z" fill="#F29987"/><path d="M27.54 45A17.02 17.02 0 0 1 13.5 19.1C18.33 22.67 26.2 31.52 27.54 45Z" fill="url(#adjp32bup)"/><path d="M26.14 37.83a10 10 0 0 1-7.37-13.68 38.29 38.29 0 0 1 7.37 13.68Z" fill="url(#bdjp32bup)"/><path d="M30.99 18.45c.98 2.71 1.43 5.49 1.43 8.07 0 5.37-.76 9.41-1.2 10.95l-.22.07c-.69-8.61-3.43-14.73-6.52-18.9a9.98 9.98 0 0 1 6.5-.19Z" fill="url(#cdjp32bup)"/><path d="M33.68 11.91C36 14.61 39 19.25 39 24.45c0 7.55-.87 12.76-5.6 19.68a17.04 17.04 0 0 0 .28-32.22Z" fill="url(#ddjp32bup)"/><defs><linearGradient id="adjp32bup" x1="23.04" y1="28.08" x2="12.58" y2="36.87" gradientUnits="userSpaceOnUse"><stop stop-color="#ED8F7E"/><stop offset=".84" stop-color="#EB5546"/></linearGradient><linearGradient id="bdjp32bup" x1="22.94" y1="28.72" x2="17.82" y2="31.7" gradientUnits="userSpaceOnUse"><stop stop-color="#F37862"/><stop offset="1" stop-color="#EC4F40"/></linearGradient><linearGradient id="cdjp32bup" x1="30.4" y1="18.37" x2="26.11" y2="37.1" gradientUnits="userSpaceOnUse"><stop offset=".12" stop-color="#E95746"/><stop offset=".37" stop-color="#F49889"/><stop offset="1" stop-color="#EF7059"/></linearGradient><linearGradient id="ddjp32bup" x1="39.2" y1="11.91" x2="39.2" y2="44.13" gradientUnits="userSpaceOnUse"><stop stop-color="#F59986"/><stop offset="1" stop-color="#EA604A"/></linearGradient></defs></svg>