<!-- by TradingView --><svg width="56" height="56" viewBox="0 0 56 56" xmlns="http://www.w3.org/2000/svg"><path fill="#011F5B" d="M0 0h56v56H0z"/><path d="M8 24v-2h11l-1.5 2H14v10h-2V24H8ZM33.5 22H31l4 12h3l2-6.75L42.08 34H45l4-12h-2.5l-3 9.6-3-9.6H38l.62 2.25-2.12 7.35-3-9.6ZM25.42 34c-3.4 0-5.42-2.35-5.42-5.94 0-3.68 2.19-6.06 5.65-6.06 1.13 0 2.32.2 3.35.7l-.82 1.92a7.36 7.36 0 0 0-2.63-.62C23.34 24 22 25.92 22 28.06c0 2.06 1.42 3.94 3.55 3.94 1.12 0 2.46-.47 3.45-1v2.08a7.86 7.86 0 0 1-3.58.92Z" fill="#fff"/></svg>