<!-- by TradingView --><svg xmlns="http://www.w3.org/2000/svg" width="56" height="56" viewBox="0 0 56 56"><path fill="#F1F2EA" d="M0 0h56v56H0z"/><path d="M38.68 21.09c-2.9.36-5.34 2.5-6.34 5.54a8.65 8.65 0 0 0 0 4.86c1.3 4.19 5.64 6.51 9.55 5.24a7.3 7.3 0 0 0 3.74-2.63 7.2 7.2 0 0 0 1.13-2.1h-.93a4.56 4.56 0 0 1-3.51 2.46A5.32 5.32 0 0 1 38 32.8a7.1 7.1 0 0 1-1.53-4.33V28H46.5c.49-.23.55-.83.49-1.39-.43-3.87-5.09-5.92-8.3-5.52zM9 21.99c.43 0 .9.21 1.2.55.22.25 1.01 2.14 2.9 6.93.88 2.22 2.1 5.05 2.94 6.94a.97.97 0 0 0 1.8-.02c1.77-4.33 3.57-9.19 3.76-8.86 1.54 2.69 2.32 6.12 3.78 8.99.36.69 1.3.63 1.63-.07 2.82-6.02 3.11-7.7 5.71-14.19.17-.33.22-.91-.4-1.26h-4.78v1h.7c.66 0 1.24.61 1.6 1.13.44.62.62 1.48.46 2.22-.1.45-1.76 4.88-2.02 5.38-.09.18-3.16-7.54-3.16-7.95-.17-.52.01-.79.56-.79V21h-7.41v1h.57c.75 0 .86.66 1.45 2.14.31.79.57 1.51.57 1.61 0 .22-1.84 5.03-1.92 5.03-.08 0-3.15-7.76-3.15-7.96-.22-.66.04-.83.62-.83V21H9v1zm32.01.39c1.38.76 2.12 3.07 2.28 4.62h-6.83c.13-1.6.59-3.43 1.87-4.41.7-.55 1.9-.64 2.68-.21z" fill="#252628"/></svg>