<!-- by TradingView --><svg width="56" height="56" viewBox="0 0 56 56" xmlns="http://www.w3.org/2000/svg"><path fill="#F0F3FA" d="M0 0h56v56H0z"/><path d="M11.26 31.04h-.04a27.46 27.46 0 0 1-.22-3.15C11 15.07 22.93 10.77 28.18 11 40.24 11 45 22 45 27.89c0 1.1-.25 2.6-.38 3.2-.44-.15-2.1-.2-3.06-.2.35-1.48.34-2.52.33-3.44V27c0-1.03-2.06-13-13.71-13-11.66 0-14.16 11.03-14.16 13 0 1.57.28 3.27.41 3.86-.64-.03-2.27.1-3.17.18Zm.23 1.06c.23.84.87 2.8 1.62 3.95 2.4-.21 8.26.08 12.45 2.95.57-.63 2-2.07 3.08-2.82-1.86-1.65-7.89-4.76-17.15-4.08Zm10.6 11.86a17.48 17.48 0 0 1-8.07-5.97c5.05-.12 9.08 1.62 10.47 2.5a17.18 17.18 0 0 0-2.4 3.47Zm1.46.46c.68.2 2.52.58 4.5.58 1.7-2.52 6.98-7.77 14.44-8.55.5-.82 1.6-2.84 1.99-4.45-4.47-.07-14.9 2.32-20.93 12.42Zm6.41.55c2.4-.28 8-2 11.23-6.67-5.9.56-11.03 6.37-11.23 6.67ZM37 31.68a16.5 16.5 0 0 0-7.75-2.63 4.6 4.6 0 0 1 2.55-4.18c-.33.27-1.06.97-1.37 1.65.15.22.69.66 1.62.66 1.17 0 2.37-.9 2.8-2.17.42-1.25 1.29-2.21 2.06-2.38-1.34-.25-4.42-.48-6.01.63-1.04.72-1.05 1.36-1.07 1.99-.01.58-.02 1.15-.82 1.78-.25-.05-.74-.45-.69-1.67.04-.78.17-1.15.3-1.49.11-.33.22-.63.22-1.24 0-1.26-1.75-4.39-7.63-5.09.56.3 1.65 1.3 1.5 2.98-.19 2.1-.22 5.47 4.43 5.07 0-1.15-1.34-3.07-2.01-3.89a9.83 9.83 0 0 1 3.4 7.31A16.48 16.48 0 0 0 20 30.99c2.28.3 7.6 1.53 10.62 4.01 1.27-.96 4.32-2.97 6.38-3.32Z" fill="#519D00"/></svg>