<!-- by TradingView --><svg width="56" height="56" viewBox="0 0 56 56" xmlns="http://www.w3.org/2000/svg"><path fill="#F0F3FA" d="M0 0h56v56H0z"/><path d="M5.33 22v5H4v-5h1.33ZM11 22v5H9.87l-2.5-2.88h-.03V27H6v-5h1.16l2.46 2.87h.05V22H11ZM11.5 23v-1H16v1h-1.69v4h-1.3v-4h-1.5ZM16.66 27v-5h3.99v1H18v1h2.65v1H18v1h2.65v1h-4ZM25.1 23.66a.81.81 0 0 0-.36-.46 1 1 0 0 0-.3-.13 1.47 1.47 0 0 0-.36-.04c-.26 0-.5.06-.69.17-.2.12-.34.28-.45.5-.1.22-.16.48-.16.8 0 .3.05.57.16.8.1.21.25.38.44.5.2.11.43.17.7.17.25 0 .45-.04.62-.1.17-.08.3-.18.39-.3a.8.8 0 0 0 .13-.47l.25.03h-1.34v-.86h2.37v.65c0 .43-.1.8-.31 1.12-.21.3-.5.54-.86.71-.37.17-.78.25-1.26.25-.52 0-.98-.1-1.38-.3-.4-.2-.71-.49-.93-.86a2.56 2.56 0 0 1-.34-1.33c0-.4.07-.76.2-1.07.14-.3.33-.57.57-.78.24-.22.52-.38.84-.5a3.11 3.11 0 0 1 1.92-.04c.27.08.52.2.73.34.21.15.38.33.52.53.13.2.21.42.24.67H25.1ZM27.29 27v-5h2.27c.41 0 .77.13 1.07.26.3.13.53.32.7.56.16.25.24.53.24.87 0 .33-.08.62-.25.86-.17.23-.4.41-.71.53-.3.13-.67.19-1.09.19h-1.44v-.93h1.2c.2 0 .36-.02.5-.07.27-.1.41-.28.41-.58 0-.5-.47-.69-.92-.69h-.65v4h-1.33Zm3.1-2.3 1.37 2.3H30.3l-1.35-2.3h1.43ZM33.49 27h-1.43l1.86-5h1.77l1.86 5h-1.43l-1.3-3.7h-.04L33.49 27Zm-.2-2h3v1h-3v-1ZM37.27 23v-1H42v1h-1.74v4H39v-4h-1.73ZM42.67 27v-5h3.74v1H44v1h2.41v1H44v1h2.41v1h-3.74ZM49.28 27H47v-5h2.28c.9 0 1.91.4 2.39 1.2.22.36.33.8.33 1.3s-.11.94-.33 1.3c-.48.8-1.5 1.2-2.39 1.2Zm-.94-1h.9c.9 0 1.43-.65 1.43-1.5 0-.88-.57-1.5-1.46-1.5h-.87v3ZM6 34l-1.85-5h1.7l.95 3.26h.06L7.96 29h1.38l1.1 3.27h.05l.96-3.27h1.7l-1.85 5H9.82l-1.15-3.02h-.05L7.48 34H6ZM14 34v-5h4v1h-2.46v1H18v1h-2.46v1H18v1h-4ZM19 34v-5h1.54v4H23v1h-4ZM24 34v-5h1.55v4H28v1h-4ZM34.56 29v5h-1.3l-2.69-2.87h-.04V34H29v-5h1.32L33 31.87V29h1.56ZM35.44 34v-5H40v1h-3v1h3v1h-3v1h3v1h-4.56ZM44.36 30.53a.53.53 0 0 0-.27-.41c-.16-.1-.4-.15-.7-.15-.2 0-.36.02-.5.06a.67.67 0 0 0-.29.17.34.34 0 0 0-.1.23c0 .07.01.14.05.2.05.05.1.1.19.14a3.85 3.85 0 0 0 .69.2l.55.09c.31.05.59.12.83.2.24.1.44.2.6.32a1.12 1.12 0 0 1 .5.94c.01.31-.09.58-.29.8-.2.22-.49.39-.87.5-.37.12-.82.18-1.35.18-.54 0-1-.06-1.4-.18-.4-.13-.7-.31-.92-.56a1.41 1.41 0 0 1-.34-.94h1.48c0 .15.06.28.16.39.1.1.23.18.4.24a2 2 0 0 0 .6.08c.2 0 .38-.02.52-.07a.8.8 0 0 0 .34-.18.37.37 0 0 0 .12-.26c0-.09-.03-.17-.1-.23a.9.9 0 0 0-.34-.17c-.15-.05-.34-.1-.57-.14l-.67-.12c-.55-.1-.98-.25-1.3-.47a1 1 0 0 1-.47-.88c0-.3.1-.56.31-.79.22-.23.51-.4.89-.53s.8-.19 1.29-.19c.5 0 .92.06 1.28.2.37.12.65.3.85.53.2.23.3.5.3.8h-1.47ZM50.14 30.53a.53.53 0 0 0-.28-.41c-.16-.1-.39-.15-.69-.15-.2 0-.36.02-.5.06a.67.67 0 0 0-.3.17.34.34 0 0 0-.1.23c0 .07.02.14.06.2.04.05.1.1.19.14a3.85 3.85 0 0 0 .69.2l.54.09c.32.05.6.12.83.2.25.1.45.2.61.32a1.12 1.12 0 0 1 .5.94c0 .31-.1.58-.3.8-.2.22-.48.39-.86.5-.38.12-.83.18-1.36.18-.53 0-1-.06-1.4-.18-.39-.13-.7-.31-.91-.56a1.41 1.41 0 0 1-.34-.94h1.47c.01.15.07.28.16.39.1.1.24.18.4.24a2 2 0 0 0 .6.08c.2 0 .39-.02.53-.07a.8.8 0 0 0 .34-.18.37.37 0 0 0 .12-.26c0-.09-.04-.17-.11-.23a.9.9 0 0 0-.34-.17c-.15-.05-.34-.1-.57-.14l-.66-.12c-.55-.1-.99-.25-1.3-.47a1 1 0 0 1-.48-.88c0-.3.1-.56.32-.79.21-.23.5-.4.88-.53s.81-.19 1.3-.19.91.06 1.28.2c.36.12.64.3.84.53.2.23.3.5.31.8h-1.47Z" fill="#011F4B"/></svg>