<!-- by TradingView --><svg width="56" height="56" viewBox="0 0 56 56" xmlns="http://www.w3.org/2000/svg"><path fill="#14359C" d="M0 0h56v56H0z"/><path d="M18.62 22.47a2.16 2.16 0 0 0-.27-.33c-.53-.54-2.53-2.65-2.53-2.65-.34-.34-.86-.88-1.24-1.34a2.8 2.8 0 0 1-.6-1.15 44.44 44.44 0 0 1-.98-5.84c0-.03 0-.06.02-.09a.15.15 0 0 1 .23-.03l7.83 7.01.11.1.42.43c.36.4.66.86.9 1.34.32.67.6 1.36.83 2.07.36 1.29 4.25 13.64 4.25 13.64l7.78-18.49a.22.22 0 0 1 .08-.1.24.24 0 0 1 .12-.04h7.33c.01 0 .03 0 .05.02a.09.09 0 0 1 .05.07l-.01.05-11.52 26.73a.23.23 0 0 1-.08.1.24.24 0 0 1-.12.03h-7.3a.22.22 0 0 1-.12-.04.21.21 0 0 1-.07-.1l-4.5-12.07a11.6 11.6 0 0 0-.76-1.7 8.38 8.38 0 0 0-.9-1.34l-2.03-2.51a3.3 3.3 0 0 1-.69-1.62l-.7-4.5c0-.03.02-.05.04-.08a.15.15 0 0 1 .14-.05c.03 0 .06.02.08.04l1.21 1.23.2.21 3.98 4.2c.05.05.08.03.06-.04 0 0-.75-2.35-1.29-3.16Z" fill="#fff"/></svg>