<!-- by TradingView --><svg width="56" height="56" viewBox="0 0 56 56" fill="none" xmlns="http://www.w3.org/2000/svg">
<rect width="56" height="56" fill="#0B3359"/>
<path fill-rule="evenodd" clip-rule="evenodd" d="M21 47H26V34.8848L30 33.5338V47H30.4438V33.5338H34V45.0528C33.9649 45.6906 33.5343 45.9557 33.337 46H32V47H36.9973V46H35.9218C35.3431 45.9468 35.0365 45.3407 35 45.0528V32.4263L40 31.186V27H36V23H36.9973V20.9978L30 13.6888V12V8.81617L28.0548 7L26 8.81617V12V13.6888L19 20.9978V23H20V27H16V31.186L21 32.4263V47ZM23 41H25V44H23V41ZM24 23H21V27H24V23ZM27.5329 11H29.5033V13H27.5329V11ZM29.5033 9H27.5329V10.404H29.5033V9ZM25 23H31V27H25V23ZM39 28H23V31H39V28ZM32 23.0015H35V27.0015H32V23.0015ZM29.3438 8.76092H27.5159L28.0796 7.40579L29.3438 8.76092ZM27.5392 14L25.082 21H32V22H36V21.2058L29.3948 14H27.5392ZM31 39V36H33V39H31ZM27 38H29V41H27V38Z" fill="url(#paint0_linear_5071_141837)"/>
<defs>
<linearGradient id="paint0_linear_5071_141837" x1="16" y1="29.3828" x2="40" y2="29.2612" gradientUnits="userSpaceOnUse">
<stop stop-color="#CE9F54"/>
<stop offset="0.191854" stop-color="#DFBA5F"/>
<stop offset="0.468413" stop-color="#FBEFC0"/>
<stop offset="0.683719" stop-color="#F2D074"/>
<stop offset="1" stop-color="#BC9C64"/>
</linearGradient>
</defs>
</svg>
