<!-- by TradingView --><svg width="56" height="56" viewBox="0 0 56 56" xmlns="http://www.w3.org/2000/svg"><path fill="#F0F3FA" d="M0 0h56v56H0z"/><path fill-rule="evenodd" d="M7.34 33 5 23h2.44l1.25 6.95h.08l1.7-6.95h2.56l1.68 6.96h.08L15.97 23h2.44l-2.3 10h-2.73l-1.57-6.54h-.07L10.12 33H7.34Zm26.16 0h2.2l.63-2H40l.63 2h2.2l-3.35-10h-2.64L33.5 33Zm6.02-3.51-1.32-4.2h-.07l-1.33 4.2h2.72Zm10.34-2.95H52c-.28-2.33-2.27-3.54-4.34-3.54-2.72 0-4.66 2.11-4.66 5 0 2.9 1.92 5 4.66 5 1.96 0 4.06-1.2 4.34-3.45l-2.14-.01c-.2 1.1-1.18 1.46-2.17 1.46C46 31 45 29.68 45 28c0-1.67 1-3 2.7-3 1.02 0 2 .4 2.16 1.54ZM19.45 23l2.34 10h2.78l1.61-6.54h.08L27.83 33h2.72l2.3-10h-2.43l-1.18 6.96h-.08L27.48 23h-2.57l-1.7 6.95h-.07L21.89 23h-2.44Z" fill="#06234F"/></svg>