<!-- by TradingView --><svg width="56" height="56" viewBox="0 0 56 56" xmlns="http://www.w3.org/2000/svg"><path fill="#F0F3FA" d="M0 0h56v56H0z"/><path d="M19.23 16.65 23.87 12l16 4.13L28 28l-5.68-2.06 6.71-6.71-9.8-2.58Z" fill="#3FC8F4"/><path d="m44 32.13-4.13-16L28 28l1.55 5.68 6.7-6.71 3.1 9.8L44 32.13Z" fill="#01BAF0"/><path d="m28 28-5.68-2.06 1.55 5.67 5.68 2.07L28 28Z" fill="#00ADEF"/><path d="M16.13 19.23 12 23.87l7.23 1.55 4.12-4.65-7.22-1.54Z" fill="#4C739E"/><path d="M19.23 25.42 12 23.87l4.13 16 16 4.13-2.07-7.23-8.77-2.58-2.06-8.77Z" fill="#003D6C"/><path d="m34.71 32.13-4.65 4.64L32.13 44l4.64-4.65-2.06-7.22Z" fill="#175584"/></svg>