<!-- by TradingView --><svg width="56" height="56" viewBox="0 0 56 56" xmlns="http://www.w3.org/2000/svg"><path fill="#F0F3FA" d="M0 0h56v56H0z"/><path d="M23 20c.03 2.32-2.5 3.03-4.4 3h-2.93a.75.75 0 0 1-.45-.15.61.61 0 0 1-.17-.23.56.56 0 0 1-.05-.27v-8.7c0-.09 0-.18.04-.27a.6.6 0 0 1 .16-.23c.12-.1.28-.15.45-.15h2.8c1.66-.02 3.95.46 3.9 2.56 0 .96-.66 1.75-1.55 2.03 1.2.2 2.2 1.14 2.2 2.4Zm-3-4c-.01-.8-.5-1-1.66-1H17v2h1.46c.73.02 1.55-.15 1.54-1Zm1 4c.02-1-1-1-2.46-1H17v2h2c1 0 1.98 0 2-1Z" fill="#272355"/><path d="M39 15H23v-2h18v30H15V25h2v16h22V15Z" fill="#2A255F"/></svg>