<!-- by TradingView --><svg width="56" height="56" viewBox="0 0 56 56" xmlns="http://www.w3.org/2000/svg"><path fill="#F0F3FA" d="M0 0h56v56H0z"/><path d="M17.79 32.08c-1.84.2-2.54.72-4.2 1.48-1.76.8-1.61 1.76-1.57 4.36 1.36.04 1.65-.28 3.05-.76-1.44 2-2.65 1.28-2.83 2.84H44V21.72c-3.33.76-5.39.96 0-.92l-.5-4.8c-.52.32-28.47 20.52-25.71 16.08Z" fill="#120F1B"/><path d="M20.71 22.78c-2.68.49-5.8 2.22-7.96 3.43l.08-.63c.14-1.21.18-1.62 1.02-2.6.7-.6 1.64-1.24 2.5-1.83.65-.44 1.25-.85 1.68-1.2L21.86 16l1.98.12c-.47.41-.56.47-.56.53 0 .07.1.14-.06.64.9-.1.93.07 1.02.1.1.03.3-.15 2.24-1.35l3.25-.04c-.37 1.13-1.12 1.7-1.95 2.34-.36.27-.73.55-1.08.89-.21.2-.44.39-.66.58-.88.77-1.76 1.54-1.76 2.08 1.67-.22 3.03-1.17 4.5-2.19 1.75-1.23 3.66-2.57 6.45-2.85l.18-.85h3.53c-1.2 2.5-3.08 3.55-6.09 2.79l-3.82 2.66-1.04.76c-1.7 1.26-2.48 1.84-5.12 2.8-1.45.28-3.83 1.45-5.41 2.3-.2.1-.42.24-.67.38-5.24 3.02-4.27 3.84-4.57-.1 2-.87 2.45-.67 2.72-.55.3.13.38.17 2.03-1.4.75-.7.9-.73 1.14-.8.18-.04.4-.1.98-.48l1.62-1.58Z" fill="#B99E11"/><path d="M16.8 32.79c.27-.08.72-.35 1.36-1.19 1.62-.2 4.81-3.02 6.79-4.6 4.62-3.7 10.87-5.76 14.21-11h1.26c-1.24 2.8-1.48 2.07 1.38 1.13.18 2.04-2 3.45-3.02 4.08a5.04 5.04 0 0 0-1.15.9l-.68.6-3.79 4.51c-.33.76-.2.85-.2.93 0 .07-.1.14-.72.65-2.12 1.75-2.83 2.56-3.44 3.24-.56.63-1.03 1.16-2.46 2.25l-.04.05a.63.63 0 0 1-.18.15l-2.85 1.82-.15.06c-1.02.45-2.62 1.15-3.37 1.23 3.1-1.65 3.49-2.24 3.82-2.74.14-.2.26-.38.53-.61.49-.4.82-.55 1.16-.7.4-.17.81-.35 1.48-.96 1.3-1.18 1.1-1.28.93-1.37-.08-.04-.15-.08-.1-.2.13-.3.14-.31.3-.39.1-.05.28-.15.63-.42.72-.57 1.27-.97 1.7-1.3 1.45-1.07 1.68-1.25 3.14-3.54.48-.8.72-1.03.95-1.23.18-.18.35-.33.63-.8-1.58.25-5.9 3.28-7.21 4.53-1.76 1.7-10.03 5.93-12.67 7.07 1.09-1.96 1.4-2.05 1.76-2.15Z" fill="#B99E11"/><path d="M32.85 18.75c-.7 1.7-4.22 4.81-6.15 6.07-3.95 2.58-6.81 4-11.42 5.58-.84.28-.8.32-1.5.56l-1.76.73c.44.28-1.23 1.62 3.83-.32 1.14-.45 2.24-.81 3.3-1.14l-1 1.37c2.3-.28 7.76-5.2 8.29-5.5 3.16-1.53 3.07.05 5.89-3.35a7.93 7.93 0 0 1 2.54-2.14c1.1-.65 1.72-.85 2.64-1.98L39.18 16h-.48c-1.28 2.67-1.8.24-2.37 2.75l-1.5-.69c-.88-.12-.92.2-1.98.69ZM20.24 16.44c-2.45 5.96-7.27 6.04-7.8 6.8-.17.28-.26.72-.04 2.08.09.8-.87.16.53.88.22-1.76.96-1.88 2.01-2.96l.4-.44c1.53-1.56 1.1-.76 2.19-1.6L22 16.12c-.88.12-1.23.2-1.76.32Z" fill="#120F1B"/><path d="M24.29 21.8c2.08 1.27 6.32-3.93 11.39-4.45L35.24 16l-3.33.04c-1.04 1.2-2.04 1.9-3.5 3.1-1.13.91-3 1.75-4.12 2.66ZM20.24 16.44a8.57 8.57 0 0 0-5.3.04c-3.37 1.48-2.8 1.48-2.84 2.72 1.05-.44.35-.32 1.48-.8l6.66-1.96ZM23.35 17.4c-.96 1.4-5.17 4.8-6.74 5.64 2.36-.44 9.02-5.44 9.98-6.88-1.62.08-2.1.52-3.24 1.24ZM12.62 30.44c2.1-.52 3.42-1.4 5.3-2.48 1.5-.8 4.03-2.04 5.04-2.96-.57.12-1.36-.52-2.15-.2-1.14.48-2.58.84-3.5 1.32-1.27.68-3.42 3.32-4.95 3.52-.3 1.6-.18.44.26.8Z" fill="#120F1B"/><path d="M41.81 17.2c.62-.7.06.39.44-1.2h-1.97c-.62 1.46-.56 1.22-1.1 2.4 1.29-.57 1.47-.8 2.63-1.2Z" fill="#130F11"/></svg>