<!-- by TradingView --><svg width="56" height="56" viewBox="0 0 56 56" xmlns="http://www.w3.org/2000/svg"><path fill="#F0F3FA" d="M0 0h56v56H0z"/><path d="M38.59 31.96c-.63.37-1.24.79-1.88 1.12a20.18 20.18 0 0 1-5.45 1.88c-1.51.3-3 .28-4.5.1-1.8-.24-3.63-.36-5.27-1.32-1.75-1.03-3.27-2.24-4.13-4.13-.1-.24-.15-.57-.43-.73l-.03-.21c0-.3-.07-.59-.21-.85 0-.1-.02-.2-.03-.29a12.13 12.13 0 0 1-.09-4.32c.1-.7.5-1.27.6-1.95.22-.78.79-1.4 1.06-2.15.12-.34.4-.57.62-.84.47-.56 1.15-.9 1.65-1.42l.98-.68c.31-.1.61-.26.88-.46.2-.02.36-.15.54-.23.73-.35 1.49-.72 2.28-.81 2.88-.35 5.76-.55 8.49.78.08.18.36.16.41.42l-1.37 1.64.49.52c.49-.28.9-.68 1.19-1.16.18-.11.32-.27.4-.46.38-.2.58.15.8.31 1.14.84 2.1 1.88 3.1 2.86l.38.57-2.17 1.48c0 .2.2.34.1.53-.15-.08-.17-.32-.43-.33l-7.02 4.62-6.51 4.28c-.26.17-.6.32-.13.76l14.23-8.95-.14-.36c.18-.08.25.2.36.15l4.64-2.9c-.23-.31-.32-.6-.59-.8l-1.21.78c-.28-.3-.53-.6-.79-.89a1.29 1.29 0 0 0-.12-.32c-.9-1.22-1.62-2.57-2.85-3.47.07-.36.44-.48.5-.8-.25-.17-.41-.43-.7-.54l-.55.56-.46-.16a1.3 1.3 0 0 0-.72-.47c-1-.65-2.15-.83-3.3-1.05a16.05 16.05 0 0 0-8.14.62c-1.66.52-3.2 1.39-4.5 2.54a.33.33 0 0 0-.25.24 9.42 9.42 0 0 0-3.27 4.5l-.06.12c-.16.24-.24.53-.21.82a5.5 5.5 0 0 0-.52 2c-.14.38-.1.79-.17 1.18a8.53 8.53 0 0 0 .45 4.25l.09.13c-.14.43.3.68.33 1.04.07 1.27.98 2.14 1.66 3.04a9.6 9.6 0 0 0 2.4 2.16c2.07 1.37 4.2 2.41 6.75 2.5.88.03 1.76-.06 2.62.02a8.6 8.6 0 0 0 4.52-.55c.43-.2.78-.55 1.25-.63.85-.13 1.54-.69 2.36-.87.73-.16 1.15-.86 1.97-1.02-.22.59-.55 1.08-.63 1.65-.05.01-.08.04-.05.1a.07.07 0 0 0-.05.06c-.5.29-.3.8-.38 1.22-.46.61-1.05 1.12-1.43 1.8a.16.16 0 0 0-.11.15c0 .02 0 .04.02.06l-.13.19c-.72.1-1 .79-1.56 1.13-.78.48-1.47 1.06-2.47.95a.55.55 0 0 0-.5.17c-.65.86-1.69.84-2.57.93-1.89.2-3.77.07-5.51-.87-.73-.4-1.56-.57-2.28-.83-.2-.21.1-.25.06-.39l-.32-.35c-1.09.15-1.28-.78-1.77-1.32a.65.65 0 0 0-.47-.05l-.01-.02c0-.07-.04-.1-.11-.1l-.04-.02-.08-.1c-.32-.6-.73-1.15-.95-1.8.03-.39-.25-.64-.45-.95.06-.1.2-.2.08-.4-.32-.14-.34-.48-.34-.83-.54-.16-.24-.96-.91-1.08.14.73.67 1.34.43 2.08.18.21.33.4.49.57-.01.17-.23.33-.02.49v.02c.02.22-.08.48.23.6.09.52.5.86.77 1.27 0 .07.02.1.09.1l.01.02a123.34 123.34 0 0 1 .23.24l.1.11.01.01c-.02.16.01.32.1.45.42.59.95 1.09 1.56 1.48 1.33.82 2.58 1.8 4.12 2.24.85.25 1.7.46 2.58.6.86.14 1.74 0 2.6-.06 1.18-.07 2.35-.23 3.45-.62.45-.16.97-.13 1.33-.47.34-.32.76-.48 1.15-.7.95-.56 1.9-1.13 2.5-2.09l.12-.08c.05.03.07 0 .05-.05l.07-.11c.2-.04.25-.18.25-.35l.1-.13.12-.12c.28-.24.63-.42.72-.82a.1.1 0 0 0 .04-.07.38.38 0 0 0 .22-.4.1.1 0 0 0 .02-.08.57.57 0 0 0 .2-.38l.01-.01c.19-.15.2-.37.24-.58v-.01c.16-.2.23-.46.22-.7.3-1.24.52-2.5.64-3.75-.63-.84-.87-.9-1.7-.4Z" fill="url(#avm4g5jk2)"/><path d="m32.46 17.7-2.3 2.7-8.2 9.71c-.31.24-.36.46.02.66a.76.76 0 0 0 .46-.44.7.7 0 0 0 .15-.1l10.36-11.7c.11-.14.2-.3.24-.48-.32.07-.4-.32-.73-.35Z" fill="url(#bvm4g5jk2)"/><defs><linearGradient id="avm4g5jk2" x1="28" y1="44" x2="28" y2="12" gradientUnits="userSpaceOnUse"><stop stop-color="#E6AA74"/><stop offset=".5" stop-color="#F96831"/><stop offset="1" stop-color="#D90415"/></linearGradient><linearGradient id="bvm4g5jk2" x1="27.45" y1="30.77" x2="27.45" y2="17.7" gradientUnits="userSpaceOnUse"><stop stop-color="#E6AA74"/><stop offset=".5" stop-color="#F96831"/><stop offset="1" stop-color="#D90415"/></linearGradient></defs></svg>