<!-- by TradingView --><svg width="56" height="56" viewBox="0 0 56 56" xmlns="http://www.w3.org/2000/svg"><path fill="#F0F3FA" d="M0 0h56v56H0z"/><path d="M12 24.1v6.6s.18 5.3 5.5 5.3c5.3 0 5.5-5.57 5.5-5.57V24h-4v6.5s-.02 1.5-1.5 1.5-1.5-1.26-1.5-1.5V24s0-2 2-2h1.22l1.55-1.08-.5-2.71-1.05-.21h-1.59c.04 0-5.42.65-5.63 6.1Z" fill="url(#apukas4hd)"/><path d="m34 21-9 14 3 2 10-16h-4Z" fill="#FECC33"/><path d="M23 18h15.82c.53 0 5.18.77 5.18 5.02 0 1.62-.53 2.46-.53 2.46L32.97 43.4S31.46 46 28 46c-3.64 0-6.1-2.63-6-5.5 0-1 .65-1.76 1-2.5l2-3 3 2c-.59 1-2 2.53-2 3.5 0 .69 1 1.5 2 1.5 1.17 0 1.7-1.26 1.95-1.69.25-.45 9.84-16.52 9.84-16.52s.21-.38.21-.77S39.61 22 38.8 22H22l1-4Z" fill="url(#bpukas4hd)"/><path d="M19 29.9V18s.57-7 7.12-7h5.03c.39 0 6.85.4 6.85 7h-4s-.1-3-2.5-3h-6s-2.5.35-2.5 3v12l-1.74 1.87L19 29.91Z" fill="url(#cpukas4hd)"/><defs><linearGradient id="apukas4hd" x1="19" y1="20.5" x2="17" y2="25" gradientUnits="userSpaceOnUse"><stop stop-color="#91B4BD"/><stop offset="1" stop-color="#6CCEFF"/></linearGradient><linearGradient id="bpukas4hd" x1="34.42" y1="27.39" x2="26.38" y2="34.95" gradientUnits="userSpaceOnUse"><stop stop-color="#FF6602"/><stop offset="1" stop-color="#FECC33"/></linearGradient><linearGradient id="cpukas4hd" x1="38" y1="17.5" x2="20.5" y2="13" gradientUnits="userSpaceOnUse"><stop stop-color="#C8CA7F"/><stop offset=".6" stop-color="#6CCEFF"/></linearGradient></defs></svg>