<!-- by TradingView --><svg width="56" height="56" viewBox="0 0 56 56" xmlns="http://www.w3.org/2000/svg"><path fill="#1B0826" d="M0 0h56v56H0z"/><path d="M35 24h7.8c2.6 0 5.2 1.64 5.2 5 0 3.36-1.73 4-4.33 4H40l.3 2h-3.67L35 24Zm4 3 .45 3h3.6c1.45 0 1.95-.5 1.95-1.5S44 27 43.2 27H39ZM20 24H8l1 3h7l-6.5 5 .5 3h12l-1-3h-6.5l6-4-.5-4Z" fill="#FFFFF7"/><path d="m35 35-1.24-11H22l1 11h12Z" fill="#AA90FE"/><path d="M25.54 19.95c.7.94.59 2.17-.27 2.75-.85.58-2.1.29-2.81-.65-.7-.94-.59-2.17.27-2.75.85-.58 2.1-.29 2.81.65Z" fill="#FFFFF7"/></svg>