<!-- by TradingView --><svg width="56" height="56" viewBox="0 0 56 56" xmlns="http://www.w3.org/2000/svg"><path fill="#F0F3FA" d="M0 0h56v56H0z"/><path d="M38 28.44c0-2.37 2.03-3.44 3.59-3.44 1.67 0 2.99 1.42 2.99 2.61 0 .95-.8 1.35-1.2 1.39h-1.63a.75.75 0 0 1 0-1.5H43c-.16-.55-.53-1-1.5-1s-2 .81-2 2c0 1.07.77 2 2.2 2 1.77 0 3.08-1.62 3.6-2.53.43.35 1.12 1.23.36 1.9-.96.82-2.16 2.13-3.95 2.13-1.8 0-3.71-1.07-3.71-3.56ZM13 22h2v10h-2z" fill="#113044"/><circle cx="14" cy="20" r="1" fill="#E69026"/><path d="M10 22c-1.4 0-2 1.12-2 2.5V30H5.15C4.52 30 4 30.5 4 31.14V32h4.15c1.02 0 1.85-.81 1.85-1.82V22Zm11 0c-2.2 0-4 1.93-4 4.32V32c1.28 0 2-1.12 2-2.5v-3.68c0-1 1.07-1.82 2-1.82.93 0 2 .81 2 1.82V32h2v-5.68c0-2.39-1.8-4.32-4-4.32Zm8 3c-1.58 0-3 1.25-3 2.8v3.49c0 .39.32.71.71.71.4 0 .79-.32.79-.71V27.8c0-.77.71-1.4 1.5-1.4s1.5.63 1.5 1.4v3.49c0 .39.4.71.79.71s.71-.32.71-.71V27.8c0-1.55-1.42-2.8-3-2.8Z" fill="#113044"/><path d="M33.5 25c-1.58 0-3 1.25-3 2.8v3.49c0 .39.32.71.71.71.4 0 .79-.32.79-.71V27.8c0-.77.71-1.4 1.5-1.4s1.5.63 1.5 1.4v3.49c0 .39.4.71.79.71s.71-.32.71-.71V27.8c0-1.55-1.42-2.8-3-2.8Z" fill="#113044"/><path fill-rule="evenodd" d="M51.25 22a.75.75 0 0 0-.75.75v2.88a3.5 3.5 0 1 0 1.5 3.12v-6a.75.75 0 0 0-.75-.75Zm-.75 6.5c0-1.19-.92-2.15-2-2.15s-2 .96-2 2.15.92 2.15 2 2.15 2-.96 2-2.15Z" fill="#113044"/></svg>