<!-- by TradingView --><svg width="56" height="56" viewBox="0 0 56 56" xmlns="http://www.w3.org/2000/svg"><path fill="#F0F3FA" d="M0 0h56v56H0z"/><path d="M9.95 22.43H4V22h6.53v.33l-5.91 9.24H11V32H4.03v-.33l5.92-9.24ZM13 29.87V24h.36v5.87c0 1.14 1.14 1.7 2.14 1.7 1 0 2.14-.56 2.14-1.7V24H18v9.67c0 1.4-1.16 2.33-2.5 2.33a2.47 2.47 0 0 1-2.5-2.54h.36c0 1.22.93 2.12 2.14 2.12 1.11 0 2.14-.72 2.14-1.9V31c-.36.54-1.03.98-2.14.98-1.24 0-2.5-.75-2.5-2.11Z" fill="#006AB4"/><path fill-rule="evenodd" d="M51.56 28a3.56 3.56 0 1 1-7.12 0 3.56 3.56 0 0 1 7.12 0Zm.02 1.79A4 4 0 1 1 52 28v4h-.42v-2.21ZM30.09 31.56c1.62 0 3-1.04 3.46-2.47l.45.08A4.08 4.08 0 0 1 30.09 32 4.05 4.05 0 0 1 26 28c0-2.2 1.83-4 4.09-4 1.6 0 2.97.89 3.65 2.19l-7.1 2.92a3.63 3.63 0 0 0 3.45 2.45Zm-3.57-2.89a3.6 3.6 0 0 1 3.57-4.23c1.24 0 2.34.61 3 1.54l-6.57 2.7Z" fill="#006AB4"/><path d="M35.9 25.2c-.34.44-.46.97-.46 1.33V32H35v-5.47c0-.42.13-1.05.53-1.57.4-.54 1.09-.96 2.14-.96H39v.42h-1.33c-.9 0-1.45.35-1.78.78ZM18 22l3.86 10h.4L26 22h-.46l-3.48 9.31-3.6-9.31H18Z" fill="#006AB4"/><path d="M41.43 26.83v2.67c0 3.6-2.95 6.12-6.38 6.5l-.05-.44c3.2-.36 6-2.7 6-6.06v-2.67c0-3.97 3.1-6.83 7-6.83v.44c-3.66 0-6.57 2.66-6.57 6.4Z" fill="#85C235"/></svg>