<svg width="56" height="56" viewBox="0 0 56 56" fill="none" xmlns="http://www.w3.org/2000/svg">
<rect width="56" height="56" fill="url(#paint0_linear_87_14)"/>
<g clip-path="url(#clip0_87_14)">
<path d="M20.5 13C19.5054 13 18.5516 13.3951 17.8483 14.0983C17.1451 14.8016 16.75 15.7554 16.75 16.75V39.25C16.75 40.2446 17.1451 41.1984 17.8483 41.9016C18.5516 42.6049 19.5054 43 20.5 43H35.5C36.4946 43 37.4484 42.6049 38.1516 41.9016C38.8549 41.1984 39.25 40.2446 39.25 39.25V16.75C39.25 15.7554 38.8549 14.8016 38.1516 14.0983C37.4484 13.3951 36.4946 13 35.5 13H20.5ZM20.5 14.875H35.5C35.9973 14.875 36.4742 15.0725 36.8258 15.4242C37.1775 15.7758 37.375 16.2527 37.375 16.75V39.25C37.375 39.7473 37.1775 40.2242 36.8258 40.5758C36.4742 40.9275 35.9973 41.125 35.5 41.125H20.5C20.0027 41.125 19.5258 40.9275 19.1742 40.5758C18.8225 40.2242 18.625 39.7473 18.625 39.25V16.75C18.625 16.2527 18.8225 15.7758 19.1742 15.4242C19.5258 15.0725 20.0027 14.875 20.5 14.875Z" fill="white"/>
<path d="M21.6306 35.6631C21.2651 35.517 20.9707 35.2346 20.8093 34.8756C20.4437 34.1481 20.5656 33.4206 20.9593 32.8094C21.3306 32.2338 21.9456 31.7444 22.6412 31.3338C23.5223 30.834 24.4537 30.4287 25.4199 30.1244C26.1703 28.7755 26.8353 27.3809 27.4112 25.9488C27.0669 25.1665 26.797 24.3535 26.6049 23.5206C26.4437 22.7706 26.3818 22.0281 26.5187 21.3906C26.6593 20.7269 27.0324 20.1306 27.7374 19.8475C28.0974 19.7031 28.4874 19.6225 28.8662 19.7031C29.0567 19.7437 29.2358 19.8261 29.3905 19.9445C29.5452 20.0629 29.6716 20.2142 29.7606 20.3875C29.9256 20.695 29.9856 21.055 29.9987 21.3963C30.0118 21.7469 29.9762 22.1369 29.9106 22.5475C29.7531 23.5038 29.4043 24.6738 28.9356 25.9113C29.4529 27.0175 30.0678 28.0755 30.7731 29.0725C31.6076 29.0066 32.447 29.0381 33.2743 29.1663C33.9568 29.2881 34.6506 29.5319 35.0743 30.0381C35.2993 30.3081 35.4362 30.6381 35.4493 31.0094C35.4624 31.3694 35.3612 31.7256 35.1906 32.065C35.0428 32.3795 34.8136 32.6488 34.5268 32.845C34.2433 33.0299 33.9086 33.1205 33.5706 33.1038C32.9499 33.0775 32.3443 32.7363 31.8212 32.3219C31.1851 31.7959 30.612 31.1982 30.1131 30.5406C28.8451 30.6844 27.5922 30.9392 26.3687 31.3019C25.8078 32.2956 25.1676 33.2424 24.4543 34.1331C23.9106 34.7894 23.3143 35.3613 22.7181 35.6088C22.3755 35.7637 21.9869 35.7832 21.6306 35.6631ZM24.2162 32.0988C23.9049 32.2413 23.6162 32.3913 23.3556 32.545C22.7406 32.9088 22.3412 33.2631 22.1424 33.5706C21.9662 33.8425 21.9624 34.0394 22.0674 34.2475C22.0862 34.2888 22.1049 34.315 22.1162 34.33C22.1386 34.324 22.1605 34.3165 22.1818 34.3075C22.4387 34.2025 22.8474 33.8669 23.3724 33.235C23.671 32.8694 23.9526 32.4903 24.2162 32.0988ZM27.2912 29.605C27.9173 29.4588 28.549 29.338 29.1849 29.2431C28.8434 28.7208 28.5243 28.184 28.2287 27.6344C27.9347 28.2993 27.622 28.9558 27.2912 29.6031V29.605ZM31.8774 30.4488C32.1587 30.7525 32.4324 31.0113 32.6931 31.2175C33.1431 31.5738 33.4562 31.6919 33.6268 31.6975C33.6725 31.7035 33.7188 31.6936 33.7581 31.6694C33.8361 31.6078 33.8968 31.527 33.9343 31.435C34.001 31.3208 34.0389 31.1921 34.0449 31.06C34.0439 31.016 34.0265 30.9739 33.9962 30.9419C33.8987 30.8256 33.6212 30.6569 33.0249 30.55C32.6457 30.4866 32.262 30.4534 31.8774 30.4506V30.4488ZM28.1462 23.875C28.304 23.366 28.4293 22.8474 28.5212 22.3225C28.5793 21.97 28.6018 21.6794 28.5924 21.4506C28.593 21.3244 28.5727 21.199 28.5324 21.0794C28.4386 21.091 28.3471 21.1163 28.2606 21.1544C28.0974 21.22 27.9643 21.3531 27.8931 21.685C27.8181 22.045 27.8368 22.5644 27.9793 23.2263C28.0243 23.4344 28.0806 23.6519 28.1481 23.875H28.1462Z" fill="white"/>
</g>
<defs>
<linearGradient id="paint0_linear_87_14" x1="0" y1="28" x2="56" y2="28" gradientUnits="userSpaceOnUse">
<stop stop-color="#FF2D24"/>
<stop offset="1" stop-color="#FB130D"/>
</linearGradient>
<clipPath id="clip0_87_14">
<rect width="30" height="30" fill="white" transform="translate(13 13)"/>
</clipPath>
</defs>
</svg>
