<!-- by TradingView --><svg width="56" height="56" viewBox="0 0 56 56" xmlns="http://www.w3.org/2000/svg"><path fill="#F0F3FA" d="M0 0h56v56H0z"/><path fill-rule="evenodd" d="m36.76 16.76.77-7.17c-.9 1.36-1.57 3.12-2.03 5.76.61.4.9.86.88 1.4a1.56 1.56 0 0 1 1.04.3 1 1 0 0 1-.07.52c-.02-.2-.26-.34-.74-.36-.61-.07-.9.04-.85.33l-.09.07a.51.51 0 0 1-.04-.58c.16-.11.33-.19.52-.23l-.02-.02c.13-.18-.17-.63-.92-1.3.26-2.2 1.13-4.36 2.38-6.44V9v.03l.02-.03v.1c.45 2.13.62 4.32.53 6.5-.64.26-1.12.51-1.38 1.16Zm-7.13 6.61c.59-.17.9-.15.9.12-.22-.2-.53-.23-.9-.11Zm-4.25-6.86c-1.42.72-1.44 2.16-1.12 3.39a3.33 3.33 0 0 1 1.31-2.42.68.68 0 0 1 .11-.16l.18-.16c.2-.16.49-.39.41-.6-.15-.4-.57-.2-.85-.07l-.04.02Zm7.8 4.26h.05a2.33 2.33 0 0 0-.2-.18h-.02a5.93 5.93 0 0 1-1.61-1.61c-.02-.09-.02-.24-.02-.4-.01-.36-.02-.79-.14-.88-.03-.01-.16.07-.28.15-.1.07-.2.13-.22.12-.98-.31-3.82.85-4.62 1.37 0 0 1-.25 1.55-.14 1.24.23 3.18.72 2.68 1.64-.1.18-.55.26-1 .35l-.48.1c-2.1.25-3.25 1.14-3.43 2.67.26-.72 1.03-1.66 3.03-2.16a6.3 6.3 0 0 1 3.15.24l.6.15c.2.04.41.05.62.04.05-.01 0-.07-.1-.19a37.2 37.2 0 0 0-1.12-1.43c-.3-.37-.56-.69-.6-.76v-.02a.46.46 0 0 0-.08-.18c-.4-.45-1.94-.72-2.2-.7-.1 0 1.52-.87 2.44.34l.13.18c.22.28.58.76.96 1.01a2 2 0 0 0 .91.3Zm-4.17 1.3c-.32.08-.63.29-.93.63-.48.7-.96 1.1-1.46 1.17.54.04 1.11-.36 1.68-1.21.2-.34.6-.54 1.26-.59a1.27 1.27 0 0 0-.54 0c-.44-.1-.85.07-1.22.5-.37.54-.79.87-1.2.96.43.05.9-.29 1.37-.98.18-.27.52-.43 1.04-.48Zm0 0ZM31.03 26c-.05-.07-.14-.07-.27-.05.04-.16-.07-.23-.18-.3-.12-.08-.24-.17-.25-.37v-.07a.95.95 0 0 1 .22-.06c.12-.02.22-.04.28-.14.08-.14.1-.25.12-.44.01-.12.03-.27.08-.48.05-.26-.18-.33-.34-.39a1.23 1.23 0 0 1-.1-.03h-.02a.18.18 0 0 0-.02.18 3.2 3.2 0 0 1-.86-.27c.11.2.35.33.75.4a.91.91 0 0 1-.92-.36.69.69 0 0 0-.37-.09l.18-.07.19-.09c-.24.05-.5.02-.72-.08l.17-.16c.1-.1.2-.22.35-.25.99.07 1.55.23 1.73.45h.02l.02.02c.11.11.18.2.18.27s.02.13.04.2l.09.4c.07.33.17.64.28.95l.15.3.03.05h-.05c-.06 0-.17 0-.35.05a.88.88 0 0 1-.15.05c-.13.02-.26.09-.28.38Zm-4.92-1.51c.14.5.25.91-1.32 1.1 1.3-.34 1.23-.74 1.13-1.18-.07-.36-.15-.75.5-1.15-.52.43-.4.85-.3 1.23Zm-.84 1.91c.44-.12.85-.23.85-1.07-.2.6-.45.68-.75.78l-.2.07c-.4.18-.93.51-.93.85.15-.3.57-.5.94-.6l.09-.03ZM16.8 44.14a1.5 1.5 0 0 1-.43-.72c-.38-1.95-.16-4.35.67-7.22-.37 3.93-.22 6.69.5 8.3a1.44 1.44 0 0 1-.74-.36Zm12.9-1.55.04 1.75-.85-.27.1-1.83c.23.13.46.25.7.35Zm1.08 1.82a27.2 27.2 0 0 1-.76-1.9.57.57 0 0 1-.13.1l.26 1.8-.04.02c.24.07.5.12.74.14l-.07-.16Zm-2.46-2.53c-.22.56-.41 1.16-.55 1.61.23.14.46.27.7.38l.42-1.72c-.19-.1-.37-.2-.57-.27Zm-.17-1.2c-.53-.06-1.12-.89-.83-1.8-.57-.32-1.94-2.12-.61-2a4.35 4.35 0 0 1-1.36-2.34 7.86 7.86 0 0 0 2.08 2.51 1.9 1.9 0 0 1-.4.05c-1.33-.02-.04 1.3.57 1.61-.3.9.1 1.78.55 1.98Zm1.92 1.33c-.07.31-.2.34-.38.07a1.75 1.75 0 0 1-.24-1.35c.11-.67.42-.86.6-.57v.04c-.15.01-.27.2-.33.58-.07.37 0 .75.2 1.07.03.07.08.12.15.16Zm-.02-1.81h.02a15.67 15.67 0 0 1-.01-.25c1.65-.84 3-1.89 3.56-3.1l.04-.25-1.05 7.94c-.52.06-1.04.07-1.56.03-.35-.97-1-2.34-1-2.34v-.1l.02-.12c.04-.02.06-.09.08-.22.18-.94.07-1.44-.1-1.55v-.04Zm3.01 4.4c.27-.08.53-.19.78-.3-.28.08-.56.14-.85.19.3-3.39.83-7.25 1.22-10.04.2-1.49.36-2.67.43-3.32.16-.03.38.01.62.14 0 0-.31 1.9-.53 3.95 1.11-1.57 1.5-2.87 1.22-3.6 0 0-.06-.17-.21-.5-.03-.19-.22-.41-.6-.64a.62.62 0 0 0-.32-.24c-.37.04-.48.02-.33-.07.33-.22.77-.2 1.31.09a1.79 1.79 0 0 0-.91-.67.68.68 0 0 0-.48.33c-.07-.02-.1-.06-.07-.15a1.1 1.1 0 0 1 .76-.4c.38.1.74.29 1.03.55.06-.09.06-.22-.02-.45-.18 0-.3-.13-.44-.38a.23.23 0 0 0-.33-.04c-.39-.07-.67-.02-.85.18-.02-.2.11-.36.42-.52a.31.31 0 0 0-.25-.14.3.3 0 0 0-.25.12c-.04.2-.05.39-.03.58a5.11 5.11 0 0 0-.09 2.46l-.14 1.12a10.21 10.21 0 0 1-2.57 2.69c-.38.3-.72.56-.97.84a.44.44 0 0 0-.06.1c.14-.54.3-1.07.5-1.6.6-.2.94-.72.96-1.55a10.25 10.25 0 0 1-1.33-2.85 3.43 3.43 0 0 0-.36-.97 1.76 1.76 0 0 0-.28-.46l.07.13a3 3 0 0 0-1.32-.96 1 1 0 0 0-.19-.1c-.15-.55-.02-.78.4-.64.32.16 1.44.56 1.5.07.02-.07 0-.1-.04-.07l-.07.05c-.1.07-.13.09-.45 0-.96-.36-2.45-1.3-1.68-2.54a.44.44 0 0 0 .15-.34 2.3 2.3 0 0 1 .2-1.23l-.04.02a.11.11 0 0 0-.03.03c-.52.78-1.18.96-1.83.74.6.04 1.41-.63 1.92-1.28.3-.43.6-.72 1.2-.81l.2-.07.15.05h.06l-.02.02c.42.1.85.16 1.29.16.3 0 .21 1.03.06 1.27.02 0 .29-.17.61-.69.11-.17.36-.21.58-.25l.12-.02c.37-.04.5-.16.55-.31 0-.03-.08-.13-.2-.28a3.54 3.54 0 0 1-.55-.78l.21-.12.2-.12c.45-.14.45-.25-.14-.52a5.55 5.55 0 0 1-1.49-1.48c.03-.23.15-1.37-.2-1.46a1.45 1.45 0 0 0-.32-.04c-.19-.01-.27-.02-.4-.3-.3-.73-1.17-1-1.87-1 .28-.38 1.37-.59 3.01.67.33-1.08 1.88-2.7 2.4-3.2-.25-.1-.89.7-1.15 1.02-.04.05-.07.1-.1.12.47-.65.8-1.1 1.01-1.35a13.3 13.3 0 0 0-.7-.5c-.64.85-1.2 1.77-1.63 2.74.3-1.03.77-2.01 1.35-2.91a4.77 4.77 0 0 0-.3-.18c-.45.74-.82 1.53-1.12 2.35.2-.86.5-1.69.87-2.49-.61.79-1.14 1.65-1.57 2.56.32-.96.75-1.87 1.29-2.71l-.02-.01-.02-.02c-.68.84-1.26 1.75-1.73 2.72.34-1.02.8-1.99 1.4-2.87-.6-.26-1.24-.46-1.88-.6a13.08 13.08 0 0 0-.94 3.24c.04-1.13.24-2.25.6-3.32a13.56 13.56 0 0 0-.97 3.28c.04-1.14.24-2.27.61-3.34h-.04a13.56 13.56 0 0 0-.96 3.27c.04-1.13.23-2.25.59-3.32h-.07a13.56 13.56 0 0 0-.96 3.28c.04-1.13.24-2.24.6-3.3-.31 0-.62 0-.9.02a13.6 13.6 0 0 0-.26 3.66 10.8 10.8 0 0 1-.11-3.61c-.26.02-.52.07-.77.13-.03 1.24.1 2.48.4 3.68-.45-1.15-.7-2.36-.77-3.59-.16.04-.32.1-.48.16.16 1.19.48 2.35.94 3.45A11.39 11.39 0 0 1 25 11.87c-.17.06-.34.14-.5.22.31 1.2.78 2.35 1.4 3.41a10.7 10.7 0 0 1-1.72-3.23c-.24.12-.46.26-.68.4a12.88 12.88 0 0 0 2.03 3.08 11.1 11.1 0 0 1-2.34-2.85c-.3.22-.58.47-.85.74a6.3 6.3 0 0 1 2.49 1.9 6.57 6.57 0 0 0-2.64-1.74c-.18.19-.35.4-.5.6.9.14 2 .72 2.73 1.33a6.53 6.53 0 0 0-2.86-1.12 4.6 4.6 0 0 0-.48.87 6.37 6.37 0 0 1 2.83.2c-.97-.2-1.97-.2-2.94.05a5.7 5.7 0 0 0-.33 1.16c.98-.92 2.36-1.25 3.38-.87-1.59-.18-2.83.5-3.44 1.6v.1c.98-1.14 2.53-1.57 3.64-1.16-1.77-.2-3.1.65-3.62 1.95.14 1.2.66 2.24 1.15 3.24.7 1.41 1.35 2.72.79 4.18.6-.2 2.04-1.98 2-3.45.02.19.05.38.12.56l.2 1.14c-.03.2-.15.35-.27.5-.1.13-.2.26-.24.42-.02.07 0 .21.04.36.04.21.08.44 0 .51-.27.27-.35.7-.41 1.04l-.02.1c-.04.2-.13.4-.26.55-.3.33-.53.4-.9.48l-.15.03a2.65 2.65 0 0 1-1.68-.22 2.52 2.52 0 0 0-2.23-.02c-.74.38-.3 1.2.3.92a.6.6 0 0 0 .26-.24.6.6 0 0 0 .08-.35c.48-.36 1.98.07.52.72-3.53 1.66-6.33 9.37-5.85 13.28a17.35 17.35 0 0 1 3.15-9c1.48-2.22 1.63-2.3 1.28.72-.48 4.28-.17 7.47.61 8.28-.2-2.27-.3-4.78.13-7.18.48-2.71 1.18-3.81 1.1-.58-.09 3.24.8 5.13 2.04 7.76l.14.29c-1.33-4.47-1.8-7.85-1.22-11 .08-.52.19-.46.47-.31-.54 5.34.81 9.58 3.82 11.87a7.77 7.77 0 0 0 7.01 1.64v.04c.42-.05.52-.1.48-.19Zm-8.51-22.17Zm4.23 5.79h.01Zm-.24-.09Zm1.57 1.05c.08.1.15.21.21.33.38.9.06 2.07-1.2 1.92a1.37 1.37 0 0 0 1.12-.07.98.98 0 0 0 .5-.58c.06.77.05 1.54-.02 2.3l-.09 1.17c-.74-1.07-1.98-1.63-3.2-1.97.24-.16.45-.38.41-.67-.07-.38-.52-.56-.83-.65a4.01 4.01 0 0 0-2.05-.05c-.64.15-1.29.21-1.94.18a2 2 0 0 0 .7-.5c.18.13.65.06 1.2-.03 1.23-.2 2.91-.46 3.27 1-.3-1.59-1.9-1.37-3.08-1.21-.53.07-.98.13-1.18 0 .6-1-.28-2.29-3.33-1.57a.45.45 0 0 0 .17-.45c-.06-.31-.52-.42-.78-.42a.9.9 0 0 0-.64.15l-.1.07.06.04v.05a.3.3 0 0 0-.17-.11.3.3 0 0 0-.24.1.24.24 0 0 0-.03.28c0-.05.01-.1.04-.14a.22.22 0 0 1 .1-.09.16.16 0 0 1 .18.05.17.17 0 0 1 .02.18.37.37 0 0 1-.12.09c-.15.07-.32.09-.41-.07a.27.27 0 0 1-.02-.22c.02-.11.15-.2.26-.27a2.6 2.6 0 0 1 1.15-.23c.3.03.58.1.85.23.27.11.54.2.81.27.35.08.7.08 1.05 0 .44-.11.87-.25 1.29-.43a3.06 3.06 0 0 0 .85-.52c-.05 1.04.7 2.27 1.18 2.3-.6-.41-1.03-1.87-.66-2.68l.22-.13.33-.2a5.14 5.14 0 0 0 1.35 3.16c.34.4.75.72 1.22.94 1.24.56 2.01-.5 1.55-1.55Zm-3.98 4.08c-.23-.62-.39-1.06-1.21-.76.77-.24.96.38 1.16 1.03.1.32.2.66.39.9.17.29.37.56.59.8 1.59 1.85 3.86.48 3.75-.6-.33.52-.79.68-1.33.77a.41.41 0 0 1-.18.02 4.34 4.34 0 0 1-2.1-.58h-.01c-.66-.46-.88-1.08-1.06-1.58Zm4.33.57c-.09-.79-.57-1.35-1.42-1.66l.94-.27-2.25.27c1.55.29 2.44.85 2.73 1.66ZM21.8 29.5l.01-.06a.49.49 0 0 1 .15-.2.8.8 0 0 1 1 0 .59.59 0 0 1 .2.4.52.52 0 0 1-.2.4.88.88 0 0 1-.2.12.87.87 0 0 1-.23.02c-.41 0-.74-.29-.74-.62v-.06Zm-.06-.15a.48.48 0 0 0-.1.3v-.03a4.7 4.7 0 0 0-2.01 1.32c.23-.49.57-.93.98-1.27l.59-.5-.74.18c-.64.15-1.26.4-1.81.77a3.6 3.6 0 0 1 3.1-1.3c2.48-.36 2.33 1.48.78 1.83.02-.13.05-.27.09-.4a.8.8 0 0 0 .39-.18.57.57 0 0 0 .24-.47.59.59 0 0 0-.24-.47.75.75 0 0 0-.55-.2.9.9 0 0 0-.54.2.87.87 0 0 0-.18.22Zm.66.07c0-.06.02-.11.06-.16l.09-.03.07-.03c.08 0 .15.02.21.06a.2.2 0 0 1 .1.18.3.3 0 0 1-.1.18.41.41 0 0 1-.17.07.28.28 0 0 1-.18-.08.3.3 0 0 1-.08-.19Zm.48-.18a.46.46 0 0 0-.26-.09.4.4 0 0 0-.26.1.27.27 0 0 0-.08.34.3.3 0 0 0 .08.1.43.43 0 0 0 .52 0 .27.27 0 0 0 .08-.35.31.31 0 0 0-.08-.1Zm3.66-2.13c.44 1.77 1.38 2.04 2.01 2.1l-.07-.08c-.26-.32-.48-.6-.52-.67-.33-.55-.56-1.35-.73-1.94-.1-.36-.19-.63-.25-.73-.1-.13-.14-.12-.29-.1l-.1.03-.03.04c.02.19 0 .4-.02.61a2.5 2.5 0 0 0 0 .74Zm3.8-.74c.08 0 .16 0 .22.02.22.11.35.07.41 0 0-.04 0-.07.02-.11a.32.32 0 0 0 .05-.13c0-.03-.03-.03-.06-.04h-.05c-.02 0-.04-.02-.05-.03l-.08-.02-.18.06c-.2.08-.41.13-.63.14.1.1.23.1.36.1Zm.52.3Zm0 0a.43.43 0 0 0-.15.3.4.4 0 0 1-.26-.26.12.12 0 0 1 .15-.04c.09.02.18.02.26 0Zm-7.35 7.12c-.65.63-.57.1-.46-.33-.1-.03-.46.53-.48.87a6.1 6.1 0 0 1-.32-3.07c.42.07.85.09 1.28.07.5 1.4.42 2.04-.02 2.46Zm11.4-5.62s.02 0 .03.02a.16.16 0 0 1-.08-.04l.04.02Zm-.05-.02Zm0 0 .08.04c.2.04.4.06.61.04.28.12.52.3.72.54.05.23.02.47-.06.7-.22-.57-.44-.81-.68-.79a1.1 1.1 0 0 1-.54-.13.56.56 0 0 1-.4-.45l-.04-.2c.08.1.18.17.28.24h.02Zm.21-.43-.21.02s.23-1.83.65-5.47c-1.25 1.44-1.68 2.75-1.27 3.92-.75-1.62-.29-3.2 1.36-4.72l.04-.37c-.87-1.64-.68-2.85.63-3.68.35-.06.61 0 .72.2.29.43.92.88 1.9 1.33-.76-.1-1.3-.32-1.64-.65.25.33.7.67 1.17 1.03.32.24.65.5.95.76.3.16.37.02.17-.38.88.94.33 2.35-.47 3.25 1.04-1.92.32-2.51-.65-3.3a9.6 9.6 0 0 1-.82-.73c.4 1.05.22 1.9-.56 2.53a2.73 2.73 0 0 0 .28-2.29c-.12-.26-.28-.5-.46-.72-.48-.1-.57.14-.3.77.37.51.54.96.5 1.3a1 1 0 0 1-.42.8c.33-.7.29-1.25-.13-1.66l-.22.88c-.08-.18-.2-.27-.28-.27-.57 4.93-.9 7.42-.94 7.45Zm1.29-6.5-.07.62c1.2 1.6 1.31 2.87.29 4.24a3.25 3.25 0 0 0 1.11-3.25l-.02.02c-.1-.47-.32-.91-.63-1.28.5.85.6 1.28.37 1.3l.05.04c-.22-.09-.47-.57-.7-1.02a4.52 4.52 0 0 0-.4-.68Z" fill="#666"/></svg>