<!-- by TradingView --><svg width="56" height="56" viewBox="0 0 56 56" xmlns="http://www.w3.org/2000/svg"><path fill="url(#avvcmscyk)" d="M0 0h56v56H0z"/><path fill-rule="evenodd" d="M15 35.97a7.9 7.9 0 0 0 3-.58V32a5 5 0 1 1 1.99-3.69H20V36h3v-1.75a7.97 7.97 0 0 0 11.5-1.59A8 8 0 0 0 49 28.18l-3.35 1.66a5 5 0 0 1-8.27 1.6l8.6-4.61 2.6-1.37a8 8 0 0 0-15.56 2l-.06-.06a5 5 0 1 1-2.65-3.83l1.75-2.47a7.99 7.99 0 0 0-10.55 2.23A8 8 0 1 0 15 35.97ZM36 28c0 .4.05.79.14 1.16l8.47-4.62A4.99 4.99 0 0 0 36 28Z" fill="#F0B430"/><defs><linearGradient id="avvcmscyk" x1="10.42" y1="9.71" x2="68.15" y2="76.02" gradientUnits="userSpaceOnUse"><stop stop-color="#1A1E21"/><stop offset="1" stop-color="#06060A"/></linearGradient></defs></svg>