<!-- by TradingView --><svg width="56" height="56" viewBox="0 0 56 56" xmlns="http://www.w3.org/2000/svg"><path fill="#F0F3FA" d="M0 0h56v56H0z"/><path d="m47.63 23-4.72-3.18-4.52 3.16-.39-.56L42.9 19l5.1 3.44-.37.56ZM43 32v-1h-2v-7h-1v8h3Zm2-8h1v8h-1v-8Zm3 5.54c-.01.73-.01 2.48 1.94 2.46 1.1 0 2.06-.53 2.06-2.14 0-1.33-.9-1.87-1.7-2.35-.68-.4-1.3-.78-1.3-1.54 0-.83.52-.97 1.03-.97.8 0 .99.15.97 1h.93c.05-1.57-.63-2-1.84-2-1.12 0-2.09.64-2.09 2 0 1.25 1 1.85 1.8 2.33.7.41 1.2.8 1.2 1.59 0 .92-.38 1.08-1.06 1.08-.54 0-.94-.18-.94-1.22v-.22h-1v-.02Zm-9.62-.5c0 2.12-.71 2.96-2.2 2.96-1.47 0-2.18-.84-2.18-2.96V26.5c0-1.53.71-2.51 2.19-2.51s2.19.98 2.19 2.51v2.53Zm-3.38.04c0 1.67.35 2.1 1.19 2.1s1.28-.42 1.28-2.12v-2.59c0-1.6-1-1.67-1.28-1.67-.29 0-1.19.06-1.19 1.67v2.6Zm-3.95-.61c.7 0 1.95-.37 1.95-2.18C33 24.4 32 24 31.06 24H29v8h1v-3.53h1.05ZM31.1 25c.2 0 .98.02.98 1.24 0 1.25-.87 1.37-1.23 1.37H30V25h1.1ZM27 29.04c0 2.12-.81 2.96-2.5 2.96s-2.5-.84-2.5-2.96V26.5c0-1.53.81-2.51 2.5-2.51s2.5.98 2.5 2.51v2.53Zm-4 .04c0 1.67.54 2.1 1.5 2.1s1.5-.42 1.5-2.12v-2.59c0-1.6-1.17-1.67-1.5-1.67-.33 0-1.5.06-1.5 1.67v2.6Zm-4.94-.75c.3 0 .98.04 1.05 1.02l.04.87c.03.73.05 1.38.23 1.78h.93c-.15-.49-.23-1.76-.25-2.1-.06-1.61-.34-1.92-1.14-2.06v-.02c.82-.17 1.28-.88 1.28-1.82 0-1-.43-2-1.67-2H16v8h1v-3.67h1.06Zm.29-3.43c.7 0 .94.63.94 1.22 0 .7-.3 1.33-.94 1.33H17V24.9h1.35Zm-5.47-.9c1.39 0 1.92.78 1.83 2.27v.02h-.94c.02-.43-.02-.88-.2-1.11-.17-.26-.6-.34-.78-.34-.73 0-1.01.5-1.05.6l-.01.04c-.05.1-.18.41-.18 1.54v2.06c0 1.88.55 2.1 1.24 2.1.27 0 1.09-.12 1.1-1.61h.93C14.86 32 13.3 32 12.85 32c-.88 0-2.21-.06-2.21-3.04v-2.18c0-2.17.87-2.78 2.24-2.78ZM4.9 32l.53-2h2.7l.49 2h1l-2.26-8H6.22L4 32h.89Zm.75-3 1.08-4.06h.02L7.86 29H5.64Z" fill="#009245"/></svg>