<!-- by TradingView --><svg width="56" height="56" viewBox="0 0 56 56" xmlns="http://www.w3.org/2000/svg"><path fill="#3A52AC" d="M0 0h56v56H0z"/><path d="M29 10v2.07c.13.02.42.29.52 1.14l2.44 20.83C32.3 36.69 34.34 42 39.9 42c5.28 0 7.11-5.27 7.11-8.22 0-2.95-2.4-6.78-6.4-6.78h-5.5l-2-13.8A3.96 3.96 0 0 0 29 10Zm7 21h4.33c.89.27 2.67 1.26 2.67 3.09 0 2.29-1.23 3.91-3.07 3.91-1.84 0-3.93-2.05-3.93-7ZM27 12.07V10a3.96 3.96 0 0 0-4.1 3.2l-2 13.8h-5.5c-4 0-6.4 3.83-6.4 6.78S10.83 42 16.11 42c5.55 0 7.6-5.3 7.93-7.96l.35-3.04H29v-4h-4.14l1.62-13.8c.1-.84.39-1.1.52-1.13ZM15.67 31H20c0 4.95-2.1 7-3.93 7-1.84 0-3.07-1.62-3.07-3.91 0-1.83 1.78-2.82 2.67-3.09Z" fill="#fff"/></svg>