<!-- by TradingView --><svg width="56" height="56" viewBox="0 0 56 56" xmlns="http://www.w3.org/2000/svg"><path fill="#F0F3FA" d="M0 0h56v56H0z"/><path fill-rule="evenodd" d="M28.5 45V22l2.54 2.45a2 2 0 0 1 .46 1.28v18.92c-.97.2-1.97.32-3 .35Zm4-.6V25.5l2.6 3.47a2 2 0 0 1 .4 1.2v13.1c-.95.47-1.96.85-3 1.14Zm4-6.56v4.9a17 17 0 1 0-17 0v-14.3a1 1 0 0 1 .31-.73L28 20l8.19 8.7a1 1 0 0 1 .31.73v8.4Zm3-3.77a13 13 0 1 0-23 0v-6.64a1 1 0 0 1 .3-.72L28 16l11.2 11.7c.19.2.3.45.3.73v5.63Zm-16 10.34a16.87 16.87 0 0 1-3-1.14V28.94a2 2 0 0 1 .72-1.54l2.28-1.9v18.9Zm1 .24V25.83a2 2 0 0 1 .59-1.41L27.5 22v23a17.04 17.04 0 0 1-3-.35Z" fill="#DFB75D"/><path d="M28.5 41v4c1.02-.03 2.03-.15 3-.35V25.73a2 2 0 0 0-.46-1.28L28.5 22v19Zm4-.8v4.2c1.04-.28 2.05-.66 3-1.13v-13.1a2 2 0 0 0-.38-1.17H32.5v11.2Zm-9-11.2v15.4a16.87 16.87 0 0 1-3-1.13V29h3Zm-4 0v13.73A17 17 0 0 1 11.03 29h4c.15 1.82.66 3.54 1.47 5.07V29h3Zm16.9 0a1 1 0 0 1 .1.44v13.3A17 17 0 0 0 44.97 29h-4a12.92 12.92 0 0 1-1.47 5.07V29h-3.1ZM24.5 40.53v4.12c.97.2 1.97.32 3 .35V22l-2.41 2.42a2 2 0 0 0-.59 1.41v14.7Z" fill="#C99D42"/></svg>