<!-- by TradingView --><svg xmlns="http://www.w3.org/2000/svg" width="56" height="56" viewBox="0 0 56 56"><path fill="#F0F3FA" d="M0 0h56v56H0z"/><circle cx="28" cy="28" r="16" fill="#E7501E"/><path fill-rule="evenodd" d="M35.07 20.76c1.66-2.51 1.02-4.77.36-5.64-.06-.08-.17-.08-.24 0a.17.17 0 0 0-.04.14c.9 4-2.5 5.27-4.33 5.4-.52-.53-1.51-2-1.38-3.68.13-1.6 1.54-2.78 2.32-3.24.06-.04.1-.11.06-.18a.14.14 0 0 0-.18-.08c-1.72.59-3.04 1.56-3.56 3.88-.03.1-.05.21-.06.32l-.07-.32c-.52-2.32-1.85-3.3-3.58-3.88a.14.14 0 0 0-.18.08c-.02.07 0 .14.07.18.78.46 2.2 1.64 2.32 3.24a5.15 5.15 0 0 1-1.38 3.68c-1.83-.13-5.25-1.4-4.35-5.4.01-.05 0-.11-.04-.15-.06-.07-.18-.07-.23 0-.67.88-1.31 3.14.36 5.65a5.08 5.08 0 0 0 4.39 1.87 6.03 6.03 0 0 0-2.61 2.52 5.05 5.05 0 0 0-1.87-4.3c-2.52-1.67-4.78-1.02-5.65-.36-.07.06-.07.17 0 .23.04.04.1.05.14.04 4-.9 5.28 2.51 5.4 4.34-.52.51-2 1.5-3.68 1.37-1.6-.13-2.78-1.53-3.23-2.31a.15.15 0 0 0-.19-.07c-.06.03-.1.1-.08.18.6 1.72 1.57 3.05 3.88 3.57l.32.06-.32.06c-2.31.52-3.29 1.86-3.88 3.58-.02.07.02.15.08.18.07.03.15 0 .19-.06.45-.79 1.63-2.2 3.23-2.33a5.15 5.15 0 0 1 3.69 1.38c-.13 1.83-1.4 5.25-5.4 4.35a.16.16 0 0 0-.15.04c-.07.07-.07.18 0 .24.87.66 3.13 1.3 5.65-.36a5.07 5.07 0 0 0 1.88-4.11c.52.96 1.3 1.76 2.25 2.32a5.06 5.06 0 0 0-4.04 1.88c-1.67 2.51-1.03 4.77-.36 5.64.05.08.17.08.23 0 .04-.03.05-.09.04-.14-.9-4 2.52-5.27 4.35-5.4.52.52 1.52 2 1.38 3.68-.13 1.6-1.54 2.78-2.32 3.24a.15.15 0 0 0-.07.18c.03.07.11.1.18.08 1.73-.59 3.06-1.56 3.58-3.88l.07-.32.06.32c.52 2.32 1.84 3.3 3.56 3.88.08.02.15-.01.18-.08a.15.15 0 0 0-.06-.18c-.78-.46-2.19-1.64-2.32-3.24a5.16 5.16 0 0 1 1.38-3.68c1.82.13 5.23 1.4 4.33 5.4 0 .05 0 .1.04.15.07.07.18.07.24 0 .66-.88 1.3-3.14-.36-5.65a5.04 5.04 0 0 0-4.05-1.88 6.03 6.03 0 0 0 2.25-2.32c-.05 2 1.1 3.58 1.88 4.1 2.52 1.68 4.78 1.03 5.65.37.07-.06.07-.17 0-.24a.17.17 0 0 0-.14-.04c-4 .9-5.28-2.52-5.4-4.35.52-.52 2-1.52 3.68-1.38 1.6.13 2.78 1.54 3.23 2.33.04.06.12.09.19.06.06-.03.1-.1.08-.18-.6-1.72-1.57-3.06-3.88-3.58l-.32-.06.32-.06c2.31-.52 3.29-1.85 3.88-3.57a.14.14 0 0 0-.08-.18.15.15 0 0 0-.19.06c-.45.79-1.63 2.2-3.23 2.32a5.16 5.16 0 0 1-3.69-1.37c.13-1.83 1.4-5.23 5.4-4.34.06.01.11 0 .15-.04.07-.06.07-.17 0-.23-.87-.66-3.13-1.3-5.65.36a5.05 5.05 0 0 0-1.87 4.3 6.03 6.03 0 0 0-2.61-2.53 5.06 5.06 0 0 0 4.4-1.86Zm-1.15 6.25a6.04 6.04 0 0 1 .03 1.76c.51-.3 1.49-.72 2.62-.87a7.56 7.56 0 0 1-2.65-.9Zm-11.87 1.76a6.06 6.06 0 0 1 .03-1.76c-.5.3-1.5.73-2.65.89 1.13.15 2.11.58 2.62.87ZM28 22c-.38 0-.74.03-1.1.1l.2-.08c.3-.5.75-1.5.92-2.67.16 1.17.6 2.18.9 2.67l.23.09A6.03 6.03 0 0 0 28 22Zm.02 14.48c-.15-1.07-.54-2-.83-2.53a6.06 6.06 0 0 0 1.65 0c-.29.52-.68 1.46-.82 2.53Z" fill="#F0F3FA"/></svg>