<!-- by TradingView --><svg width="56" height="56" viewBox="0 0 56 56" xmlns="http://www.w3.org/2000/svg"><path fill="#01214A" d="M0 0h56v56H0z"/><path d="M40.2 22.02c.53-.03 1.06-.01 1.58-.02H49v2H40.6c-.63-.01-1.61.51-1.61 1.59 0 .96.93 1.42 1.57 1.41h4.83c1.6 0 2.95.69 3.44 2.33.2.69.2 1.43 0 2.12A3.64 3.64 0 0 1 45.4 34H37v-2h8.4c.68 0 1.6-.67 1.6-1.6 0-.78-.98-1.39-1.56-1.4H40.6c-1.98.03-3.66-1.36-3.6-3.41a3.61 3.61 0 0 1 3.2-3.57Z" fill="#fff"/><path fill-rule="evenodd" d="M31.7 22.23a6.38 6.38 0 0 0-2.33-.2 5.74 5.74 0 0 0-3.62 1.76 6 6 0 0 0-1.52 6 5.52 5.52 0 0 0 2.12 2.99c.69.52 1.48.89 2.32 1.05 1.28.25 2.82.28 4-.3a8.78 8.78 0 0 0 1.33-.88c.05 1.95-2.05 4.32-4 4.3V39a6.08 6.08 0 0 0 6-6.12v-4.89a6.1 6.1 0 0 0-4.3-5.76ZM30 32a4 4 0 1 0 0-8 4 4 0 0 0 0 8Z" fill="#fff"/><path d="M18.77 22.22a6.25 6.25 0 0 0-2.43-.17c-1.1.12-2.15.6-2.99 1.33A6.1 6.1 0 0 0 12 25a108.78 108.78 0 0 1 1.6.88 4 4 0 1 1 .13 4.41l-.92.5c-.23.14-.46.26-.7.39.13.2.28.4.43.6a6.16 6.16 0 0 0 2.06 1.65 6 6 0 0 0 4.13.34c.7-.18 1.69-.69 2.27-1.12A20.92 20.92 0 0 1 21 34a260.39 260.39 0 0 0 2 0v-2.6a1615.78 1615.78 0 0 1 0-3.05c0-.37 0-.73-.04-1.1a5.7 5.7 0 0 0-1.78-3.58 5.61 5.61 0 0 0-2.41-1.45Z" fill="#fff"/><path d="M6.13 24.01c.24-.08.5-.01.7.12l6.86 3.58c.28.13.4.49.25.75-.1.2-.32.28-.5.38L6.9 32.25c-.15.08-.3.17-.49.18-.23.02-.44-.09-.65-.17-.14-.05-.3-.1-.42-.17a.68.68 0 0 1-.34-.6v-6.6c0-.27.19-.53.45-.63l.68-.25Z" fill="#F4821F"/></svg>