<!-- by TradingView --><svg xmlns="http://www.w3.org/2000/svg" width="56" height="56" viewBox="0 0 56 56"><path fill="#F0F3FA" d="M0 0h56v56H0z"/><path d="M40.94 16.76a.7.7 0 1 1-1.39 0 .7.7 0 0 1 1.39 0zm-3.25 1.28a.8.8 0 1 0 0-1.6.8.8 0 0 0 0 1.6zm-1.53.86a.9.9 0 1 1-1.8 0 .9.9 0 0 1 1.8 0zm-2.86 3.65a1.09 1.09 0 1 0 0-2.18 1.09 1.09 0 0 0 0 2.18zm-1.55 3.7a1.25 1.25 0 1 0 0-2.5 1.25 1.25 0 0 0 0 2.5zm10.72-8.85a.56.56 0 1 0 0-1.12.56.56 0 0 0 0 1.12zm2.49.05a.54.54 0 1 1-1.1 0 .54.54 0 0 1 1.1 0zm1.19 1.42a.48.48 0 1 0 0-.97.48.48 0 0 0 0 .97zm2.1.8a.6.6 0 1 1-1.18 0 .6.6 0 0 1 1.18 0zm.6 2.4a.68.68 0 1 0 0-1.34.68.68 0 0 0 0 1.35zm1.78 1.72a.76.76 0 1 1-1.53 0 .76.76 0 0 1 1.53 0zm-.66 3.77a.87.87 0 1 0 0-1.74.87.87 0 0 0 0 1.74zm.11 2.14a1.04 1.04 0 1 1-2.08 0 1.04 1.04 0 0 1 2.08 0zm-3.13 4a1.18 1.18 0 1 0 0-2.36 1.18 1.18 0 0 0 0 2.37zM31 27h1.5v7H31z" fill="#FC9D41"/><path fill-rule="evenodd" d="M28.5 23H27v11h1.5V23zM8.93 34c.78 0 1.5-.26 2.07-.7v.7h1.5v-7H11v.7c-.57-.44-1.3-.7-2.07-.7a3.47 3.47 0 0 0-3.43 3.5c0 1.93 1.54 3.5 3.43 3.5zm0-1.48a2 2 0 0 0 1.98-2.02 2 2 0 0 0-1.98-2.02 2 2 0 0 0-1.98 2.02 2 2 0 0 0 1.98 2.02zM18 34c.74 0 1.43-.23 2-.63v.2c0 .98-.8 1.93-1.78 1.93-.59.04-1.91-.28-2.49-1.26L14.6 35.4c.4.54 1.65 1.62 3.48 1.62h.19c2.09 0 3.27-1.72 3.23-3.8V27H20v.63A3.5 3.5 0 1 0 18 34zm2-3.5a2 2 0 1 1-4 0 2 2 0 0 1 4 0zm5.5-5.5a1.25 1.25 0 1 1-2.5 0 1.25 1.25 0 0 1 2.5 0zM43 25a1.25 1.25 0 1 1-2.5 0 1.25 1.25 0 0 1 2.5 0zm-19.5 2H25v7h-1.5v-7zm19 0v7H41v-7h1.5z" fill="#003661"/><path d="M37.5 24H36v2h-1v1.5h1V34h1.5v-6.5h1V26h-1v-2z" fill="#003960"/></svg>