<!-- by TradingView --><svg width="56" height="56" viewBox="0 0 56 56" xmlns="http://www.w3.org/2000/svg"><path fill="#F0F3FA" d="M0 0h56v56H0z"/><path fill="#A32942" d="M14 14h28v28H14z"/><path fill="#222F64" d="M20 20h22v22H20z"/><path fill-rule="evenodd" d="M24.3 38h1.9v-.23h-.38c-.13-.03-.33-.16-.13-.52l.58-.95h1.81l.14.95c.03.17 0 .52-.37.52h-.29V38h2.62v-.23h-.32c-.14-.01-.44-.16-.5-.67-.05-.52-.62-3.61-.9-5.1l-3.3 5.25-.05.1c-.14.22-.27.41-.8.41V38Zm3.74-2-.3-2.06L26.45 36h1.59Zm3.55-4v.26c.61 0 .7.3.66.45-.33 1.3-1.03 4-1.18 4.5-.15.51-.37.6-.46.57h-.23V38H33v-.22h-.3c-.36 0-.4-.34-.36-.51l1.26-4.56c.09-.33.43-.4.59-.39l.04-.32h-2.64Zm3.43 0v.27c.56 0 .62.3.58.46a1509 1509 0 0 1-1.27 4.72c-.09.32-.3.35-.4.32h-.2V38h3.12c.9 0 2.02-.45 2.02-1.68 0-.98-.7-1.35-1.06-1.42.5-.04 1.5-.4 1.5-1.47 0-1.08-1.06-1.4-1.6-1.43h-2.69Zm1.32 2.77.55-2.07a.46.46 0 0 1 .41-.26c.3 0 .68.17.68.96 0 .78-.36 1.37-1.64 1.37Zm-.74 2.94.6-2.3c.05-.1.2-.3.47-.3.34 0 .76.2.76 1.07 0 .87-.4 1.53-1.83 1.53Z" fill="#F0F3FA"/></svg>