<!-- by TradingView --><svg width="56" height="56" viewBox="0 0 56 56" xmlns="http://www.w3.org/2000/svg"><path fill="#243E8B" d="M0 0h56v56H0z"/><path d="M23.88 45c-.48 0-.88.45-.88 1 0 .52.35.95.81 1h8.3c.5 0 .89-.45.89-1 0-.52-.35-.95-.8-1h-8.32ZM14 24.84c0-8.2 6.26-14.87 14-14.84 7.74-.03 14 6.65 14 14.84 0 7.62-8.11 14.68-13.45 18.96a.92.92 0 0 1-.55.2c-.2 0-.4-.07-.55-.2C22.1 39.52 14 32.46 14 24.84ZM28 42a58.39 58.39 0 0 0 8.5-8.5c-.27-1.96-2.83-3.99-4.06-5.32-.35-.35-.44-.48-.44-.81 0-.2.06-.4.18-.56.66-.93.82-2.05.82-3.2 0-3-2.07-5.6-5-5.61-2.93 0-5 2.62-5 5.6 0 1.16.16 2.28.82 3.21.12.16.18.36.18.56 0 .33-.1.46-.44.81-1.23 1.33-3.79 3.4-4.06 5.36A58.14 58.14 0 0 0 28 42Zm0-26c3.96 0 7 3.58 7 7.63 0 1.2-.3 2.4-.86 3.47.99.81 3.2 2.83 3.66 4.56 1.64-2.5 2.2-4.93 2.2-6.78 0-7.11-5.32-12.85-12-12.88-6.68.03-12 5.77-12 12.88 0 1.85.56 4.31 2.2 6.82.45-1.73 2.67-3.79 3.66-4.6a7.48 7.48 0 0 1-.86-3.47c0-4.05 3.04-7.62 7-7.63Z" fill="#FFFFFD"/></svg>