<!-- by TradingView --><svg width="56" height="56" viewBox="0 0 56 56" xmlns="http://www.w3.org/2000/svg"><path fill="#F0F3FA" d="M0 0h56v56H0z"/><path d="m24.64 8 5.45 5.9a11.25 11.25 0 0 1 2.63 10.6l-2.22 7.85-5.44-5.9a11.25 11.25 0 0 1-2.64-10.6L24.64 8Z" fill="#F9A534"/><path d="m14 45 2.18-7.86a10.74 10.74 0 0 1 7.7-7.63l7.99-2.03-2.18 7.86a10.74 10.74 0 0 1-7.7 7.63L14 45Z" fill="#405465"/><path d="m31.51 28.77-1.01 3.58-3.37-3.66 4.74-1.21-.36 1.3Z" fill="#282D44"/><path d="m31.38 32.35 1.16-4.18c.74-2.68 2.5-4.76 5.22-5.45L42 21.63l-1.16 4.18c-.74 2.68-2.5 4.76-5.22 5.45l-4.24 1.09Z" fill="#405465"/><path d="m32.46 28.45 3.23 3.1a7.31 7.31 0 0 1 2.04 7.28l-1.19 4.23-3.23-3.1a7.31 7.31 0 0 1-2.04-7.28l1.19-4.23Z" fill="#F9A534"/><path d="m32.46 28.45-1.08 3.9 4.07-1.04-2.99-2.86Z" fill="#282D44"/></svg>