<!-- by TradingView --><svg width="56" height="56" viewBox="0 0 56 56" xmlns="http://www.w3.org/2000/svg"><path fill="#F0F3FA" d="M0 0h56v56H0z"/><path d="M26.6 21s-3.04-1.3-3.53-4.71c-.49-3.4-2.16-4.29-2.16-4.29s3.07.42 3.62 3.91c.55 3.5 2.06 5.08 2.06 5.08Z" fill="#4A4939"/><path d="M19.6 19.56s3.02-.11 4.55-2.63c1.53-2.5 3.25-2.7 3.25-2.7s-2.76-.6-4.37 1.97c-1.6 2.57-3.42 3.36-3.42 3.36Z" fill="#B6B76C"/><path d="M28.87 27.35s-.46-3.11 2.15-5.27c2.6-2.14 2.5-3.95 2.5-3.95s1.24 2.69-1.43 4.93c-2.66 2.25-3.22 4.29-3.22 4.29Z" fill="#4A4939"/><path d="M26.47 20.98s1.66 2.37 4.57 2.3c2.9-.06 3.96 1.22 3.96 1.22s-.93-2.52-3.93-2.5c-3 .04-4.6-1.02-4.6-1.02Z" fill="#B6B76C"/><path d="M18.93 34.34s3.37 0 5.26 3c1.87 2.97 3.8 3.15 3.8 3.15s-3.04.83-5-2.22c-1.98-3.05-4.06-3.93-4.06-3.93Z" fill="#4A4939"/><path d="M26.06 32.9s-2.77 1.3-3.15 4.27C22.52 40.12 21 41 21 41s2.82-.55 3.25-3.6c.43-3.05 1.8-4.5 1.8-4.5Z" fill="#B6B76C"/><path d="M13.65 31.16s2.2 2.11 1.48 5.25c-.72 3.11.43 4.44.43 4.44s-2.54-1.36-1.83-4.59c.7-3.23-.08-5.1-.08-5.1Z" fill="#4A4939"/><path d="M19.26 34.67s-2.67-.88-4.86.82c-2.18 1.7-3.75 1.32-3.75 1.32s2.2 1.4 4.48-.32c2.28-1.72 4.13-1.82 4.13-1.82Z" fill="#B6B76C"/><path d="M15.11 24.1s-1.15 3.15-4.73 3.9C6.83 28.74 6 30.49 6 30.49s.22-3.13 3.88-3.94c3.66-.8 5.23-2.46 5.23-2.46Z" fill="#4A4939"/><path d="M14.1 31.26s-.34-3.04-3.11-4.4c-2.77-1.37-3.11-3.1-3.11-3.1s-.42 2.84 2.42 4.28c2.84 1.44 3.8 3.22 3.8 3.22Z" fill="#B6B76C"/><path d="M19.63 19.56s-2.74 1.84-5.99.45c-3.22-1.38-4.89-.47-4.89-.47s1.99-2.34 5.34-.95c3.35 1.4 5.54.97 5.54.97Z" fill="#4A4939"/><path d="M14.68 24.64s1.49-2.58.1-5.2c-1.38-2.6-.65-4.14-.65-4.14s-1.97 2-.58 4.7c1.4 2.7 1.13 4.64 1.13 4.64Z" fill="#B6B76C"/><path d="m25 31 1.52-4h.96L29 31h-1.01l-1.2-3.45h.4L25.98 31H25Zm.8-1 .26-1h1.68l.25 1H25.8ZM30 31v-4h1v3h2v1h-3ZM34 31v-4h1.52c.7 0 1.48.41 1.48 1.48 0 1.06-.82 1.52-1.5 1.52h-1l.5-.54V31h-1Zm1-1.42-.5-.58h.94c.4 0 .6-.16.6-.52 0-.37-.18-.48-.58-.48h-.94l.48-.63v2.21ZM38 31v-4h1v4h-1ZM40 31v-4h1l2.3 2.66H43V27h1v4h-1l-2.3-2.66h.3V31h-1ZM46 28.5h2v1h-2v-1Zm0 1.5h2v1h-3v-4h3v1h-2v2Z" fill="#B2AE44"/><path d="M30 35v-3h.5v3H30ZM34.26 33c.5 0 .74.4.74.87V35h-.5v-1.07c0-.35-.06-.53-.32-.53-.37 0-.44.3-.44.6v1h-.5v-1.07c0-.35-.1-.53-.35-.53-.34 0-.39.3-.39.6v1H32v-2h.5v.55l-.17-.16c.12-.26.36-.39.66-.39.34 0 .6.18.68.55l-.16-.06c.11-.3.4-.49.75-.49ZM38.26 33c.5 0 .74.4.74.87V35h-.5v-1.07c0-.35-.06-.53-.32-.53-.37 0-.44.3-.44.6v1h-.5v-1.07c0-.35-.1-.53-.35-.53-.34 0-.39.3-.39.6v1H36v-2h.5v.55l-.17-.16c.12-.26.36-.39.66-.39.34 0 .6.18.68.55l-.16-.06c.11-.3.4-.49.75-.49ZM41 35c-1 0-1-.5-1-1v-1h.5v.98c0 .52.2.62.5.62.35 0 .5-.1.5-.6v-1h.5v1c0 .5 0 1-1 1ZM44.15 33c.52 0 .85.35.85.87V35h-.5v-1.07c0-.35-.15-.53-.46-.53-.35 0-.54.25-.54.6v1H43v-2h.5v.56l-.13-.17c.15-.25.43-.39.78-.39ZM47.08 35c-.59 0-1.08-.4-1.08-1 0-.58.44-1 1.01-1a.97.97 0 0 1 .99 1.08v.06h-1.64v-.3h1.4l-.19.1c0-.32-.24-.54-.56-.54-.33 0-.51.22-.51.55v.07c0 .37.24.58.6.58.21 0 .39-.05.52-.2l.25.28a1 1 0 0 1-.79.32ZM28.02 39c-.2 0-.37-.03-.53-.1a.9.9 0 0 1-.35-.29.74.74 0 0 1-.14-.42h.41c.01.14.07.25.17.35.1.09.25.14.44.14.18 0 .33-.05.43-.14.1-.1.16-.2.16-.35a.4.4 0 0 0-.1-.28.6.6 0 0 0-.22-.16l-.38-.11c-.2-.05-.35-.1-.47-.15a.78.78 0 0 1-.3-.24.71.71 0 0 1-.12-.44.75.75 0 0 1 .46-.7c.15-.08.32-.11.51-.11.28 0 .5.07.68.2.18.14.28.33.3.55h-.42a.45.45 0 0 0-.18-.3.63.63 0 0 0-.41-.12.6.6 0 0 0-.4.12c-.1.09-.15.2-.15.35 0 .1.03.2.09.26.06.07.14.12.22.16l.38.11.47.16a.69.69 0 0 1 .43.68c0 .14-.04.28-.11.4a.84.84 0 0 1-.34.31c-.15.08-.33.12-.53.12ZM30 38c0-.6.45-1 1.03-1 .52 0 .86.25.97.65h-.38c-.07-.23-.28-.38-.6-.38-.4 0-.66.26-.66.73 0 .46.27.73.67.73.3 0 .52-.14.6-.38H32c-.11.4-.46.65-.97.65-.59 0-1.03-.41-1.03-1ZM36 37.93l-.01.19h-1.64c.02.38.3.6.66.6.3 0 .5-.14.58-.35h.37c-.11.37-.45.63-.95.63A.98.98 0 0 1 34 38c0-.6.43-1 1.01-1 .54 0 .99.37.99.93Zm-.35-.07c0-.36-.3-.59-.65-.59a.62.62 0 0 0-.65.59h1.3ZM38.09 37c.54 0 .91.3.91.84V39h-.37v-1.11c0-.4-.24-.6-.62-.6-.39 0-.64.21-.64.62V39H37v-2h.37v.32c.15-.2.42-.32.72-.32ZM40 38c0-.6.45-1 1.03-1 .52 0 .86.25.97.65h-.38c-.07-.23-.28-.38-.6-.38-.4 0-.66.26-.66.73 0 .46.27.73.67.73.3 0 .52-.14.6-.38H42c-.11.4-.46.65-.97.65-.59 0-1.03-.41-1.03-1ZM45 37.93l-.01.19h-1.64c.02.38.3.6.66.6.3 0 .5-.14.58-.35h.37c-.11.37-.45.63-.95.63A.98.98 0 0 1 43 38c0-.6.43-1 1.01-1 .54 0 .99.37.99.93Zm-.35-.07c0-.36-.3-.59-.65-.59a.62.62 0 0 0-.65.59h1.3ZM47.22 39c-.16 0-.3-.02-.44-.07a.76.76 0 0 1-.3-.22.54.54 0 0 1-.13-.31h.37c0 .1.06.17.14.24.1.06.21.09.36.09.13 0 .24-.03.32-.08.07-.06.11-.13.11-.2 0-.1-.04-.16-.12-.2a1.78 1.78 0 0 0-.39-.12 3.38 3.38 0 0 1-.38-.11.74.74 0 0 1-.26-.18.44.44 0 0 1-.1-.3c0-.1.03-.19.1-.27a.64.64 0 0 1 .27-.2c.12-.05.25-.07.4-.07.24 0 .43.05.58.16.14.11.22.26.23.45h-.35c-.01-.1-.06-.18-.14-.25a.53.53 0 0 0-.33-.09.55.55 0 0 0-.3.08c-.08.05-.11.11-.11.2 0 .05.02.1.06.15l.17.1.3.08.37.11c.1.04.17.1.24.17.07.07.1.16.11.28 0 .1-.03.2-.1.29a.65.65 0 0 1-.27.2c-.12.05-.26.07-.4.07ZM33.36 37v2H33v-2h.36Z"/><circle cx="33.18" cy="36.18" r=".18"/></svg>