<!-- by TradingView --><svg width="56" height="56" viewBox="0 0 56 56" xmlns="http://www.w3.org/2000/svg"><path fill="#F0F3FA" d="M0 0h56v56H0z"/><path d="M17.46 41.32C20.36 43.62 24.02 45 28 45c3.92 0 7.52-1.33 10.4-3.57l-3.44-8.66a17.77 17.77 0 0 0-6.87-1.36c-3.12 0-5.92.83-7.3 1.39l-3.33 8.52Zm24.02-3A17.06 17.06 0 0 0 45 27.93c0-8.63-6.37-15.77-14.64-16.92l11.12 27.33Zm-15.9-27.31A17.06 17.06 0 0 0 11 27.9c0 3.85 1.26 7.4 3.4 10.25L25.56 11ZM28.08 28c-2.25 0-4.31.3-5.66.6l5.39-13.8 5.52 13.89c-1.3-.35-3.18-.69-5.25-.69Z" fill="url(#adknemn1z)"/><defs><linearGradient id="adknemn1z" x1="28" y1="11" x2="28" y2="45" gradientUnits="userSpaceOnUse"><stop stop-color="#3C7FBF"/><stop offset=".44" stop-color="#209FD5"/><stop offset="1" stop-color="#F4DB0C"/></linearGradient></defs></svg>