<!-- by TradingView --><svg width="56" height="56" viewBox="0 0 56 56" xmlns="http://www.w3.org/2000/svg"><path fill="#F0F3FA" d="M0 0h56v56H0z"/><circle cx="28" cy="28" r="16" fill="#CDC6C0"/><path d="M18 36v-.5c1.6 0 2.67-1.67 3-2.5l6.5-16h.5c1.83 4.5 5.7 14 6.5 16 .8 2 2.67 2.5 3.5 2.5v.5h-6.5v-.5c.8 0 .67-.67.5-1L27 22c-1.17 3.5-4.04 10.13-4.5 11.5-.5 1.5.67 2 1.5 2v.5h-6Z" fill="#183D74"/><path d="M19 27c-.8 0-2.33.17-3 .5V27c1-.5 2-1 3-1 5 0 6 1 12 1 1.6 0 3-1.5 3.5-2l1.5 1.5c-.83.5-3 2-5 2-2.5 0-11-1.5-12-1.5Z" fill="#183D74"/><path d="M15 30.22v-.89c1.04-.44 2.08-1.33 3.64-1.33 4.67 0 8.05 1.33 16.36 1.33 1 0 3.48-1.03 4-1.33l2 4h-4c-7.27 0-15.25-3-18.36-3-1.56 0-2.95.78-3.64 1.22Z" fill="#DB282E"/></svg>