<!-- by TradingView --><svg width="56" height="56" viewBox="0 0 56 56" xmlns="http://www.w3.org/2000/svg"><path fill="#F0F3FA" d="M0 0h56v56H0z"/><path d="M20.96 23.85A27.22 27.22 0 0 0 13 28.84a.45.45 0 0 1 .12-.38 18.44 18.44 0 0 1 5.2-5.38 15.51 15.51 0 0 1 3.5-1.9.34.34 0 0 0 .2-.24c1.36-3.87 2.84-7.72 4.2-11.57a.45.45 0 0 1 .2-.29c.09-.07.32-.08.32-.08h3.23s.2.01.27.07a.4.4 0 0 1 .17.22c1.42 3.3 2.88 6.59 4.31 9.89a.57.57 0 0 0 .45.36c1.55.35 3.08.79 4.58 1.33 1.05.3 2.05.74 2.99 1.29.09.05.17.12.25.2-2.53-.48-5.08-.8-7.65-.96l1.99 5.6H34c-.2 0-.18-.16-.21-.27-.57-1.7-1.1-3.13-1.63-4.84-.08-.26-.17-.39-.5-.4-1.27 0-2.54.06-3.8.2-1 .12-1.97.3-2.93.53a.37.37 0 0 0-.3.3c-.46 1.5-.9 2.7-1.35 4.2-.06.2-.14.29-.37.28H20.1s-.23-.08-.16-.27c.34-.97.62-1.68.96-2.61l.07-.27Zm4.8-4.16c1.7-.44 3.46-.63 5.22-.56.29 0 .29-.07.2-.29l-1.65-4.19-1.17-2.99-.09.21c-.83 2.52-1.68 5.03-2.5 7.57 0 .07-.12.17 0 .25h-.02Z" fill="#00893C"/><path d="M19.73 45a9.98 9.98 0 0 1 3.8-8.03 9.56 9.56 0 0 1-2.59-3.04 10.5 10.5 0 0 1-1.23-4.7c0-.16 0-.24.22-.23h3.13c.27 0 .25.15.26.32a6.03 6.03 0 0 0 2.04 4.44 4.68 4.68 0 0 0 7.15-.93c.71-1 1.12-2.2 1.16-3.42 0-.3.1-.42.43-.41h2.88c.24 0 .3.08.3.3a9.78 9.78 0 0 1-3.61 7.52c-.2.17-.2.22 0 .38a9.78 9.78 0 0 1 3.54 6.62c.05.37.08.89.08 1.18h-3.63v-.18c0-1.48-.53-2.91-1.5-4.04a4.57 4.57 0 0 0-4.79-1.64 5.21 5.21 0 0 0-3.54 3.17 7.82 7.82 0 0 0-.57 2.69h-3.53Z" fill="#013E7D"/><path d="M25 28.56c-.03-.89.29-1.75.9-2.42a3.56 3.56 0 0 1 4.65-.49 3.35 3.35 0 0 1 1.32 1.91c.24.84.15 1.74-.25 2.52a3.6 3.6 0 0 1-1.92 1.7 3.58 3.58 0 0 1-4.05-1.2 3.3 3.3 0 0 1-.65-2.02Z" fill="#013E7D"/></svg>