<!-- by TradingView --><svg width="56" height="56" viewBox="0 0 56 56" xmlns="http://www.w3.org/2000/svg"><path fill="#F0F3FA" d="M0 0h56v56H0z"/><path d="M12.07 22c0-.14.02-.26-.01-.4-.02-.1-.06-.2-.12-.33l-.42-.92H9.28l-.4.9-.12.27c-.03.06-.12.4-.06.48H8c.04-.04.1-.19.16-.3l.2-.4L10.4 17h.28l1.92 4.13a8.13 8.13 0 0 0 .27.53c.06.1.18.22.18.34h-.97Zm-.72-2-.97-2.1-1 2.11 1.97-.01ZM14.22 19.8c.23.04.44.05.63.01.66-.11.94-.7.94-1.31 0-.6-.28-1.2-.96-1.2-.2 0-.42 0-.6.06v2.44Zm-.7-2.8H15c.84 0 1.5.58 1.5 1.47 0 .85-.61 1.44-1.42 1.59-.27.04-.56.05-.86 0v.57l.01.5c.01.29.1.87.1.87h-.85s.08-.58.1-.87v-2.7c0-.38.01-.77-.06-1.14-.02-.12-.04-.18 0-.29ZM17.93 19.8c.23.04.44.05.63.01.65-.11.93-.7.93-1.31 0-.6-.27-1.2-.96-1.2-.2 0-.41 0-.6.06v2.44Zm-.75-2.8h1.32c.84 0 1.7.58 1.7 1.47 0 .85-.61 1.44-1.42 1.59-.27.04-.55.05-.85 0V21.13c.02.27.02.54.1.8V22h-.85v-.07c.08-.26.09-.54.1-.8v-3.2c-.01-.27-.02-.67-.1-.93ZM21.63 21.65a8 8 0 0 0 1.93-.22l-.06.57h-2.61s.1-.93.1-1.38v-2.2a15.34 15.34 0 0 0-.03-.87L20.9 17h.84l-.07.55a19.93 19.93 0 0 0-.03.88v3.22ZM24.33 21.13l.01-.5v-2.7c-.02-.31-.1-.93-.1-.93h.85l-.09.93-.02.5v2.2l.02.5c.01.29.09.87.09.87h-.85s.08-.58.1-.87ZM26.33 17H29l-.2.5a2.7 2.7 0 0 0-.6-.1 4.22 4.22 0 0 0-.44-.01c-.23 0-.53.01-.76.03v1.84a17.05 17.05 0 0 0 1.65-.1l-.11.49a27.97 27.97 0 0 0-.98-.1l-.56-.02v2.12a9.6 9.6 0 0 0 2-.22V22h-2.67s.08-.6.1-.87v-3.2c-.02-.28-.1-.93-.1-.93ZM30.44 17.4a71.27 71.27 0 0 0 .03 4.26 4.7 4.7 0 0 0 1.14.01c1.15-.15 1.67-1.05 1.67-2.15 0-1.24-.7-2.17-1.99-2.17h-.21l-.64.04Zm-.77-.4h1.83c1.46 0 2.5.89 2.5 2.41 0 1.72-1.33 2.59-2.93 2.59h-1.4s.1-.91.1-1.38c0-1.01.07-2.05-.02-3.07l-.08-.55ZM8 29.88a1.07 1.07 0 0 0 .16-.42A71.74 71.74 0 0 0 8.52 27a68.34 68.34 0 0 0 .21-1.62l.04-.38h.42l2.09 4.03L13.35 25h.31l.55 4.07a4.57 4.57 0 0 0 .15.71l.05.1V30h-.83v-.12a1.05 1.05 0 0 0 .04-.4l-.01-.1-.42-3.2L11.23 30H11l-1.97-3.86c-.08.53-.15 1.01-.2 1.46l-.08.58a70.86 70.86 0 0 0-.13 1.24 2.67 2.67 0 0 0 .02.35l.02.23H8v-.12ZM17.33 25.02a2.48 2.48 0 0 1 2.57 2.5A2.41 2.41 0 0 1 17.52 30a2.47 2.47 0 0 1-2.56-2.5 2.44 2.44 0 0 1 2.37-2.48Zm.2 4.68c1.1 0 1.66-.97 1.66-1.97 0-1.15-.54-2.4-1.86-2.4-1.1 0-1.66.94-1.66 1.95 0 1.15.53 2.42 1.85 2.42ZM21.5 29.6a6.07 6.07 0 0 0 1.24-.1l.52-.12-.1.62h-2.42c.05-.3.25-.6.26-.91.04-1.17 0-3.09-.02-3.54-.01-.18-.24-.55-.24-.55h.86s-.06.37-.07.55c-.02.2-.03.48-.03.86v3.2ZM23.78 25h2.51l-.19.5a2.4 2.4 0 0 0-.56-.1 3.77 3.77 0 0 0-.82 0l-.24.01v1.83a12.17 12.17 0 0 0 1.48-.1l-.1.48a24.78 24.78 0 0 0-1.38-.12v2.1a7.15 7.15 0 0 0 1.81-.22l-.1.62h-2.41s.18-.37.2-.55a6.82 6.82 0 0 0 .02-.86V25.9c-.02-.26-.22-.91-.22-.91ZM30.96 25.84h-.03a2.07 2.07 0 0 0-1.42-.52c-1.14 0-1.9.84-1.9 1.96 0 1.28.73 2.42 2.1 2.42.52 0 1.02-.23 1.36-.6l.03.02-.26.68c-.33.13-.75.2-1.16.2-1.47 0-2.77-.94-2.77-2.5 0-1.44 1.24-2.48 2.64-2.48.42 0 .82.07 1.19.2l.22.62ZM35 26.41v-.5c0-.3-.05-.91-.05-.91h.63l-.05.92v2.3c0 1.12-.74 1.78-1.85 1.78-1.09 0-1.9-.6-1.9-1.75v-2.34c-.01-.3-.1-.91-.1-.91h.8s-.08.61-.09.92v2.37c0 .84.54 1.34 1.36 1.34.83 0 1.25-.5 1.25-1.34V26.4ZM37.24 29.6a7.15 7.15 0 0 0 1.82-.22l-.1.62H36.5s.1-.37.11-.55a6.82 6.82 0 0 0 .03-.86V26.4c0-.46-.1-1.39-.1-1.39h.8s-.1.93-.1 1.4v3.18ZM42.96 30v-.12l.01-.05v-.06a1.76 1.76 0 0 0-.14-.54l-.4-.9h-2.1l-.38.87-.1.27a.82.82 0 0 0-.06.38l.01.03-.02.12h-.67l.02-.12a5.2 5.2 0 0 0 .35-.63l1.9-4.25h.26l1.8 4.09a8.41 8.41 0 0 0 .43.8V30h-.9Zm-.66-2-.93-2.11-.92 2.11h1.85ZM44.98 28.59l.01.5c.02.3.1.91.1.91h-.8s.07-.6.08-.91l.01-.5V26.4c0-.47-.1-1.41-.1-1.41h1.22c.78 0 1.62.53 1.62 1.36 0 .58-.32 1.1-.85 1.33l1.17 1.65a3.82 3.82 0 0 0 .3.37l.13.1c.04.04.09.06.13.07V30h-.96c0-.04-.03-.2-.07-.27a1.6 1.6 0 0 0-.12-.21l-1.18-1.67-.15.01a3.61 3.61 0 0 1-.54-.02v.75Zm0-1.01a1.64 1.64 0 0 0 .37.03c.16 0 .31-.02.45-.07.48-.18.66-.68.66-1.15 0-.57-.28-1.1-.9-1.1a2.25 2.25 0 0 0-.58.07v2.22ZM9.7 33.4a5.94 5.94 0 0 0-1.7.22V33h4l-.01.62a5.37 5.37 0 0 0-1.7-.23v3.2a16.45 16.45 0 0 0 .06 1.12c0 .07.02.13.03.17V38H9.6v-.12a3.72 3.72 0 0 0 .08-.8l.02-.5V33.4ZM13.15 36.59a16.78 16.78 0 0 0 .05 1.12l.04.17V38h-.78v-.12l.03-.17a6.98 6.98 0 0 0 .06-1.12V33.9c-.02-.3-.1-.91-.1-.91H14c.77 0 1.24.54 1.24 1.36 0 .58-.3 1.09-.83 1.33l1.14 1.65a3.8 3.8 0 0 0 .3.37l.13.1c.04.04.09.06.13.07V38h-.94c-.01-.04-.03-.2-.07-.27a1.61 1.61 0 0 0-.12-.21l-1.16-1.67-.15.01a3.49 3.49 0 0 1-.52-.02v.75Zm0-1.01a1.6 1.6 0 0 0 .35.03c.72 0 1.1-.54 1.1-1.22 0-.4-.12-.84-.5-1.02a.88.88 0 0 0-.4-.08 2.18 2.18 0 0 0-.55.07v2.22ZM20.1 38v-.01l.02-.05v-.06a1.78 1.78 0 0 0-.13-.54l-.4-1.04h-2.07l-.38 1-.1.28a.84.84 0 0 0-.05.37l.01.04V38h-.66v-.01l.15-.23.19-.4L18.55 33h.26l1.77 4.2a8.21 8.21 0 0 0 .42.79V38h-.9Zm-.64-2-.92-2-.9 2h1.82ZM21.26 33.01l3.36 3.83V34a6.33 6.33 0 0 0-.13-.99h.58l-.05 1v4h-.12l-3.36-3.62v2.29a16.44 16.44 0 0 0 .06 1.12l.04.17V38h-.59v-.04l.04-.17.03-.26a6.98 6.98 0 0 0 .03-.86v-2.18a16.44 16.44 0 0 0-.06-1.13 1.59 1.59 0 0 0-.04-.17v-.18h.21ZM27.83 33.86h-.07a.81.81 0 0 0-.77-.55c-.62 0-.81.66-.53 1.14.18.29.45.57.76.86.41.38.9.87.9 1.47 0 .72-.56 1.22-1.27 1.22-.39 0-.79-.12-1.1-.34l.07-.74h.08c.1.43.47.79.93.79.58 0 .86-.57.64-1.08-.1-.24-.26-.46-.47-.66l-.32-.3c-.43-.4-.87-.87-.87-1.5 0-.65.53-1.16 1.17-1.16.31 0 .6.1.87.23l-.02.62ZM29.6 35.77c.22.04.41.05.6.02.17-.04.32-.1.45-.21.13-.1.22-.25.3-.43.07-.18.1-.4.1-.67 0-.56-.22-1.2-.88-1.2a1.95 1.95 0 0 0-.56.08v2.41Zm-.68-2.76h1.27c.83 0 1.51.6 1.51 1.45a1.46 1.46 0 0 1-.64 1.3c-.19.13-.4.22-.66.27-.25.04-.52.05-.8 0v.56a16.78 16.78 0 0 0 .06 1.41h-.78c.06-.18.1-.36.1-.55a6.98 6.98 0 0 0 .03-.86V33.9c-.01-.3-.1-.9-.1-.9ZM34.48 33.02a2.46 2.46 0 0 1 2.52 2.5c0 1.32-.98 2.48-2.34 2.48a2.45 2.45 0 0 1-2.52-2.5c0-1.31.97-2.48 2.34-2.48Zm.18 4.68c1.1 0 1.64-.98 1.64-1.97 0-1.13-.52-2.4-1.82-2.4-1.1 0-1.64.96-1.64 1.95 0 1.13.51 2.42 1.82 2.42ZM38.42 36.59a16.78 16.78 0 0 0 .06 1.12c0 .07.02.13.04.17V38h-.79v-.12a2.14 2.14 0 0 0 .07-.43 6.89 6.89 0 0 0 .03-.86V34.4a10.74 10.74 0 0 0-.1-1.41H39c.77 0 1.52.54 1.52 1.36a1.4 1.4 0 0 1-.83 1.33l1.14 1.65a3.75 3.75 0 0 0 .3.37c.04.04.08.08.13.1.04.04.08.06.12.07l.02.12h-.95c0-.04-.04-.2-.08-.27a1.6 1.6 0 0 0-.12-.21l-1.15-1.67-.15.01a3.49 3.49 0 0 1-.53-.02v.75Zm0-1.01a1.6 1.6 0 0 0 .36.03c.16 0 .3-.02.44-.07.48-.18.65-.68.65-1.15 0-.56-.26-1.1-.89-1.1a2.18 2.18 0 0 0-.56.07v2.22ZM42.7 33.4a5.94 5.94 0 0 0-1.69.22L41 33h4v.62a5.38 5.38 0 0 0-1.7-.23v3.2a16.42 16.42 0 0 0 .06 1.12c0 .07.02.13.04.17V38h-.78v-.12l.03-.17a3.7 3.7 0 0 0 .05-.62v-3.7Z" fill="#49699C"/></svg>