<!-- by TradingView --><svg xmlns="http://www.w3.org/2000/svg" width="56" height="56" viewBox="0 0 56 56"><path fill="url(#a2ovb25xk)" d="M0 0h56v56H0z"/><path d="M28.04 45a1.5 1.5 0 0 1-1.06-.43l-4.24-4.17a1.5 1.5 0 0 1-.02-2.13c.59-.59 1.54-.6 2.14-.01l3.18 3.13 11.3-11.03a8.2 8.2 0 0 0-.01-11.1 7.02 7.02 0 0 0-4.38-2.21 7 7 0 0 0-5.85 2.2 1.51 1.51 0 0 1-2.19 0 7.07 7.07 0 0 0-4.69-2.23 7.03 7.03 0 0 0-5.53 2.24 8.18 8.18 0 0 0-1.83 7.93 1.5 1.5 0 0 1-2.9.85A11.2 11.2 0 0 1 14.5 17.2a10.05 10.05 0 0 1 7.91-3.18 10 10 0 0 1 5.6 2.15 9.91 9.91 0 0 1 13.52 1.03 11.24 11.24 0 0 1-.04 15.29L29.1 44.57c-.3.29-.68.43-1.06.43Z" fill="url(#b2ovb25xk)"/><path d="M20.61 37c-.42 0-.84-.16-1.17-.48l-3.93-3.88a1.7 1.7 0 0 1-.03-2.4 1.67 1.67 0 0 1 2.37-.02l2.76 2.71 9.54-9.45a1.66 1.66 0 0 1 2.37.03 1.7 1.7 0 0 1-.02 2.4L21.79 36.5c-.33.33-.76.49-1.18.49Z" fill="#fff"/><defs><linearGradient id="a2ovb25xk" x1="28" y1="0" x2="28" y2="56" gradientUnits="userSpaceOnUse"><stop stop-color="#00A1F7"/><stop offset="1" stop-color="#0062B2"/></linearGradient><linearGradient id="b2ovb25xk" x1="28" y1="44.58" x2="28" y2="14" gradientUnits="userSpaceOnUse"><stop stop-color="#EF9C23"/><stop offset=".28" stop-color="#F3AD30"/><stop offset=".51" stop-color="#F5B838"/><stop offset="1" stop-color="#FCD54E"/></linearGradient></defs></svg>