<!-- by TradingView --><svg width="56" height="56" xmlns="http://www.w3.org/2000/svg"><path fill="#F0F3FA" d="M0 0h56v56H0z"/><path d="M25.638 26.005H22V17L10 39h9.5c1.508-2.513 2.786-5.142 3.835-7.52.916-.387 2.7-1.038 3.902-1.463l-1.6-4.012zm9.01 1.879a229.268 229.268 0 018.088-1.953c1.851-.425 3.206-2.068 3.263-4.079a4.248 4.248 0 00-4.14-4.35c-2.308-.057-4.235 1.837-4.292 4.196-.02 1.875 1.125 3.48 2.728 4.079l-6.449.251.802 1.856zm9.443-3.886c-.496-.348-1.335-.56-2.29-.56-.953 0-1.793.232-2.288.56l-1.145-1.875.496-.87.706 1.218.953-.232-.61-1.47 1.87-2.3 1.87 2.3-.611 1.47.954.232.706-1.218.495.87-1.106 1.875z" fill="#0B3B60"/><path d="M25.613 26H22v-9L10 39h9.5c1.508-2.513 2.79-5.143 3.838-7.521.916-.387 2.672-1.012 3.874-1.437L25.612 26zm9.035 1.884a229.268 229.268 0 018.088-1.953c1.851-.425 3.206-2.068 3.263-4.079a4.248 4.248 0 00-4.14-4.35c-2.308-.057-4.235 1.837-4.292 4.196-.02 1.875 1.125 3.48 2.728 4.079l-6.449.251.802 1.856zm9.443-3.886c-.496-.348-1.335-.56-2.29-.56-.953 0-1.793.232-2.288.56l-1.145-1.875.496-.87.706 1.218.953-.232-.61-1.47 1.87-2.3 1.87 2.3-.611 1.47.954.232.706-1.218.495.87-1.106 1.875z" fill="url(#paint0_linear)"/><path d="M30.794 39h9.5L30.68 17.02H28.2L22 17l8.794 22z" fill="#0B3B60"/><defs><linearGradient id="paint0_linear" x1="8.845" y1="29.462" x2="46.429" y2="24.908" gradientUnits="userSpaceOnUse"><stop stop-color="#0097CC" stop-opacity="0"/><stop offset=".22" stop-color="#0097CC" stop-opacity=".01"/><stop offset=".445" stop-color="#0097CC"/><stop offset=".71" stop-color="#0097CC" stop-opacity="0"/></linearGradient></defs></svg>