<!-- by TradingView --><svg xmlns="http://www.w3.org/2000/svg" width="56" height="56" viewBox="0 0 56 56"><path fill="#F0F3FA" d="M0 0h56v56H0z"/><path fill-rule="evenodd" d="M23.07 13.22h2.41l1.82 3.26c-1.25 2.1-4.75 3.04-6.34 3.26-3.78 1.27-5.3 6.28-5.3 8.8 0 4.4 1.73 7.46 4.09 9.52 2.68-2.8 8.13-8.95 10.62-13.41V23.5l-3.29.48-4.33-1.34V21.5l2.55.58 8.83-3.22 1.47 1.47c-.71.79-2.3 3.33-2.94 7.22h3.22l.96.95v2.69c-1.16 2.5-4.6 7.77-9.09 8.71h-.01c-.21 0-1.2.03-1.33-3.1-.9.7-3.23 2.04-5.6 2.08a16.17 16.17 0 0 0 8.85 2.82c12.15-.25 13.75-10.61 13.09-15.12 1.01 2.1.14 6.28-.42 8.11 2.23-3.31 1.63-7.75 1.05-9.55l1.4 3.38v-1.27C46.38 37.46 39.18 45 29.25 45 20.2 45 11 38.42 11 28.53c0-9 7-13.95 8.6-15.08.16-.11.27-.19.3-.23.38-.33 1.32-.14 1.74 0 .57-.4 1.2-.17 1.43 0zm15.9 1.04c-2.52.25-3.5 2.02-3.68 2.88.5.35 1.52 1.07 1.65 1.07.56-.21.8-1.1.86-1.52.81-1.04 1.37-.87 1.54-.65-.44 2.38-3.09 4.88-4.36 5.83-.75 1.27 0 1.59.47 1.59 1.27-.67 4.34-.49 5.72-.31 1.08-.03.78-.87.5-1.28L38.6 20.6l.94 1.1h-3.16c1.86-1.49 3.5-3.08 3.97-4.1 1.27-2.76-.32-3.4-1.39-3.35zm-5.44 14.35h1.59v1.72c-1.12 3.38-4.49 6.03-6.03 6.93l-.89-.8v-1.6c-.07-.04.15-.75 1.63-3.15s3.08-3.07 3.7-3.1z" fill="#3B3736"/></svg>