<!-- by TradingView --><svg xmlns="http://www.w3.org/2000/svg" width="56" height="56" viewBox="0 0 56 56"><path fill="#F0F3FA" d="M0 0h56v56H0z"/><path d="M26.93 13.18h.24l.1-.12-.22-.06-.12.18zm1.48-.1l-.1.22.22.06.14-.1v-.2l-.26.03zm4.22 1.22l-.26-.02.16.18.2-.02-.1-.14zm-.27.73l.31-.04.19.2-.27.02-.23-.18zm.35.61l-.28.06.18.22.3-.01-.2-.27zm-.22.8l-.02-.12.18.02.14.1-.01.12h-.13l-.16-.13zm-.79.68h-.28l-.13.14.14.12h.2l.18-.09-.1-.17zm-1.34 1.01l-.05.17.21.01.15-.13v-.16h-.17l-.14.11zm-1.1.8h.23l.2-.09.09-.12v-.15h-.25l-.19.13-.08.23zm-.76.82h-.19l.15-.33.2-.1h.22l-.12.26-.26.17zm-1.11.99h.2l.3-.22.14-.38h-.2l-.25.19-.2.41zm-.66 1.12h-.2l.2-.43.22-.21h.22l-.08.31-.36.33zm-.88.82l-.1.4h.2l.3-.3.14-.44h-.2l-.34.34zm-.66 1.78l-.17-.02.12-.46.32-.31.17.07-.17.4-.27.32zm-.82.98l.36-.38.17.08-.11.39-.37.4-.15-.07.1-.42zm6.83-8.84l.19-.15.39.02.12.13-.23.14h-.3l-.17-.14zm-.87.88l-.08.26h.3l.2-.09.03-.18-.19-.06-.26.07zm-1.18.9l.1-.25.32-.2h.22l.1.15-.32.29-.42.02zm-.64.83l-.4-.03.12-.21.42-.33h.24l.04.2-.42.37zm-1.29 1h.28l.53-.5v-.22h-.22l-.5.38-.09.34zm-.84.79v.33h.23l.53-.52v-.31h-.2l-.56.5zm-.8 1.57v-.38l.49-.52h.28l-.04.3-.48.55-.26.05zm-.75.9c0 .14-.03.42-.02.43l.23-.03.46-.5.07-.4-.26-.02-.48.52zm-.73 1.84l.01-.45.49-.62h.24v.32l-.41.58-.33.17zm7.07-9.34l.2-.21h.35l.22.21-.27.13h-.3l-.2-.13zm.09-.88l-.23.16.26.21h.22l.28-.15-.13-.22h-.4zm-1.2 2l.2-.26.27-.09.33.2-.33.25-.47-.1zm-1.95 1.21l-.07.36h.37l.45-.36.02-.27-.23-.08-.54.35zm-1.06 1.23l.3.1.6-.47.02-.31h-.33l-.5.35-.09.33zm-.77.76l-.07.47.28-.06.54-.46.05-.4h-.28l-.52.45zm-.97 1.65l.11-.48.56-.53h.24l-.02.4-.58.61h-.3zm-.44 1.3h-.32l.08-.53.5-.48h.25v.39l-.51.61zm-1.07 1.43l.07-.51.53-.63h.24v.39l-.58.75h-.26zm6.38-8.56l-.24.3.24.11h.44l.25-.22-.18-.19h-.5zm-1.25 1l.1-.29.4-.2h.32l.03.32-.43.24-.42-.07zm-.94.46l-.12.35.35.09.6-.36.06-.24-.28-.12-.6.28zm-1.09 1.4l.1-.4.66-.45.2.1v.27l-.65.48h-.31zm-.8.6l-.1.45h.34l.5-.38.16-.4-.32-.1-.58.44zm-1 1.72l.12-.53.57-.51.3.05-.1.46-.53.53h-.35zm-.8 1.3l.08-.6.53-.5h.28v.5l-.56.6h-.33zm-.75 1.36v-.54l.61-.63h.3l-.07.49-.57.68h-.27zm6.54-8.5l-.2.29.24.09h.42l.24-.2-.18-.17h-.52zm-1.3 1l.07-.28.4-.25.48.09-.02.23-.54.32-.4-.1zm-1.01.53l.03.38h.28l.58-.35.1-.28-.3-.14-.7.4zm-1.05 1.28l.08-.44.61-.39.34.05v.34l-.63.46-.4-.02zm-.9.65l-.08.47h.39l.59-.47.1-.42-.33-.07-.67.5zm-.94 1.66l.07-.54.59-.47h.37l-.09.46-.57.55h-.37zm-1.6 2.05v.59h.3l.6-.7v-.48h-.36l-.55.59zm-.74 2.03v-.68l.55-.55h.3v.55l-.57.68h-.28zm6.13-9.2l-.05.3.37.07.3-.08.3-.36-.27-.2-.26.05-.39.22zm-1.13 1.11l.08-.4.52-.26.45.14-.26.41-.45.19-.34-.08zm-.93.5l-.07.44.36.06.67-.53-.09-.28h-.36l-.51.31zm-1.04 1.51v-.44l.72-.48.33.13-.06.32-.66.55-.33-.08zm-.9.67l-.07.51.37.06.68-.63v-.33l-.35-.09-.63.48zm-.94 1.8l.08-.62.57-.49.37.09-.04.46-.54.56h-.44zm-.77.7v.64h.36l.58-.6v-.56h-.35l-.59.52zm-.8 2.02v-.7l.57-.47h.35v.61l-.55.56h-.38zm5.14-8.06l.4.22.44-.2.25-.39-.31-.17-.48.11-.3.43zm-.73 1.13l-.29-.12.17-.5.57-.25.36.2-.3.44-.51.23zm-1.3.93l.34.1.63-.37.15-.47-.38-.09-.61.34-.13.49zm-1.48 2.48l-.36-.05.06-.54.67-.53.26.1v.48l-.63.54zm-1.19 1.21v-.56l.59-.48.44.06v.42l-.68.67-.35-.1zm-.8.79v.59h.45l.53-.51v-.55l-.4-.09-.59.56zm-.82 1.98l.39.12.6-.57v-.58l-.31-.15-.68.58v.6zm6.22-9.55v.31h.52l.31-.27-.1-.26h-.34l-.39.22zm-1.1.86v.38l.38.03.55-.34v-.27l-.31-.09-.62.29zm-2 2.07l-.06.5.37.1.67-.47v-.45l-.43-.08-.55.4zm.69-1.55v-.33l.5-.35.4.08v.32l-.61.37-.3-.1zm-1 .7l-.07.42.33.11.68-.45v-.36l-.35-.1-.6.38zm-1.6 3.77l.38.17.66-.52v-.54l-.3-.12-.68.5-.07.51zm-.45 1.49l-.42-.16.1-.6.6-.47.36.13v.55l-.64.55zm-1.15 1.2l.4.2.58-.6v-.57l-.32-.12-.66.52v.56zm-.34 1.55l-.38-.18v-.61l.6-.48.36.15v.6l-.58.52zm-1.07.62l.55-.51.38.16v.6l-.59.55-.34-.15v-.65zm3.96-6.62v.58l.36.04.6-.44.05-.54-.4-.1-.61.46zm-.33-.87l.56-.42.43.12v.4l-.61.48-.38-.02v-.56zm1.73-2.78v-.29l.53-.25.18.12v.22l-.46.26-.25-.06zm-1.1 1.01l.35.18.47-.33v-.3l-.24-.13-.57.3v.28zm-.64 1.37l-.39-.16V17l.65-.36.27.15v.31l-.53.39zm-.92 2.1v-.48l.55-.44.44.11-.04.52-.6.45-.35-.16zm-.9 1.26v-.54l.66-.45.32.19v.5l-.64.49-.33-.2zm.45-2.32l.4.2.57-.4v-.41l-.31-.15-.57.31-.1.45zm-.83 1.28l.34.2.59-.42v-.49l-.37-.16-.56.42v.45zm-.9 1.25l.4.22.58-.44v-.49l-.32-.17-.65.4v.48zm-.3 1.85v.6l.42.2.57-.5v-.59l-.42-.16-.58.45zm1.77-5.44v-.3l.42-.26.3.14v.3l-.44.28-.28-.16zm-.95.85v.36l.3.18.45-.35v-.3l-.29-.19-.46.3zm-.9 1.58v-.38l.47-.3.34.16v.4l-.5.33-.3-.2zm-.85.8v.44l.36.17.46-.3v-.43l-.38-.19-.44.32zm-.76 1.67l.03-.48.4-.24.34.15v.5l-.42.27-.35-.2zm2.24-5.05l-.03.17.2.02.17-.1-.03-.18-.13-.04-.18.13zm.96-.98l.02-.13.13-.1.1.03.02.13-.12.08-.15-.01zm-3.61 4.35v.32l.22.11.24-.13v-.26l-.24-.16-.22.12zm.85-.86v-.3l.21-.12.22.16v.24l-.22.13-.21-.1zm-1.36 2.45l-.24-.16.02-.27.18-.11.26.16v.27l-.22.11zm1.88 1.95l.6-.45.4.25v.55l-.58.48-.42-.2v-.63zm.45-.74l-.55.39-.35-.25v-.6l.48-.33.42.26v.53zm-1.63.8v.59l.4.3.47-.35v-.57l-.38-.26-.49.3zm-.49-1.2v.45l.32.24.42-.26v-.42l-.37-.22-.37.22zm-.69 1.65l.35.27.31-.22v-.44l-.31-.25-.3.14-.05.5zm-.65 1.03l.18.18.48-.1v-.23l-.16-.18-.21-.13-.29.18v.28zm-1.03-.56a.22.22 0 0 0 .06.23c.1.1.24-.01.13-.15-.09-.11-.16-.1-.19-.08zm.67-.81a.3.3 0 0 1-.07-.32c.03-.03.14-.05.26.1.15.2-.04.35-.19.22zm.54-1.45a.3.3 0 0 0 .1.36c.2.14.45-.03.24-.24-.16-.17-.29-.15-.34-.12zm3.17-4.44v.2l.14.04.23-.1.02-.25-.03-.09-.15-.03-.2.23zm3.17-2.15v-.32l.4-.21.2.1v.22l-.36.26-.24-.05zm1.1-1.37v.2l.2.03.24-.2v-.2h-.2l-.24.17zm1.13-.86V14l.17-.1h.13v.13l-.16.13-.14-.02zm-5.46 7.66v.6l.37.19.55-.38v-.59l-.43-.18-.5.36zm1.2-.17l.64-.47.37.18v.56l-.63.48-.39-.18v-.57zm5.78-7.5l-.27-.08.13-.2.24-.09.2.08v.15l-.3.14zm.01.6l.36-.25.35.06v.28l-.4.28h-.32l.01-.38zm1.56-1.03l-.44.16v.24l.2.08.41-.26v-.17l-.17-.05zM25 16.9l.34.14.67-.43.03-.29-.33-.18-.61.39-.1.38zm3.86-3.1l-.5.14v.24l.35.03.38-.16-.04-.2-.2-.06zm-8.54 11.2l.57-.55.35.15v.6l-.6.6-.32-.14V25zm4.06-6.56l-.04.49.36.05.69-.43v-.45l-.32-.1-.69.44zm4.4-3.35l-.31-.18.21-.35.42-.09.29.19-.22.32-.4.11zm.87-.83l.23-.25h.36l.19.16-.17.2h-.38l-.23-.11zm.1-.98l-.12.25.2.05h.2l.12-.19-.19-.1h-.2zm-8.32 11.3l.55-.6h.34v.6l-.53.66h-.36v-.66zm8.55-9.84l-.23.28.23.15h.49l.16-.23-.16-.2h-.5zm.98-.95l.23-.13.25.1.02.13-.18.06-.2-.04-.12-.12zM21.8 25.43v.48l.47-.03.44-.45v-.6h-.36l-.55.6zm2.25-3.57l.05-.61.55-.5h.36v.45l-.6.66h-.36zm7.2-7.5l-.21.13.14.2.27.03.24-.1-.1-.17-.34-.08zm-8.42 11.05v-.57l.54-.62h.36l-.1.55-.5.64h-.3zm.34.12v.44l.36.02.38-.65v-.37h-.25l-.49.56zm5.88-7.73l.09-.29.34-.22h.3l.03.28-.4.26-.36-.03zm-3.78 6.89v.25l.19-.16.08-.14.06-.22h-.12l-.2.27zm.75-1.09v-.25l.21-.27h.12l-.06.22-.08.14-.19.16zm.74-1.45v.26l.19-.17.08-.13.06-.22h-.12l-.21.26zm.78-.85l.05-.25.26-.22.11.02-.1.2-.1.12-.22.13zm.91-1.25l-.07.2.2-.07.11-.07.12-.16-.1-.03-.26.13zm.9-.6l.06-.16.2-.1.07.02-.09.12-.08.06-.16.05z" fill="url(#akj0kx12v)"/><path d="M34.14 18.21h-.19l-.08-.08.17-.03.1.11zm-1.12-.06l.07.14-.16.04-.1-.06v-.13l.2.01zm-3.18.78l.2-.02-.12.12-.15-.01.07-.1zm.2.47l-.23-.03-.14.13h.2l.18-.1zm-.27.39l.22.03-.13.15-.23-.01.14-.17zm.18.5l.01-.07-.14.01-.1.07v.07h.1l.13-.08zm.59.44h.21l.1.09-.1.08h-.16l-.13-.06.08-.1zm1.01.65l.03.1-.15.01-.12-.08v-.1h.13l.11.07zm.83.5h-.18l-.14-.05-.07-.07v-.1h.18l.15.08.06.15zm.57.53h.14l-.1-.2-.15-.08h-.17l.09.17.2.11zm.84.64h-.15l-.23-.14-.1-.25h.14l.2.12.14.27zm.5.7h.14l-.15-.26-.16-.14h-.17l.07.2.26.2zm.74.8h-.16l-.22-.2-.1-.28h.14l.26.22.08.25zm.42.87l.12-.01-.09-.3-.24-.2-.13.06.13.25.2.2zm.62.63l-.28-.24-.13.05.1.25.27.26.11-.05-.07-.27zm-5.15-5.65l-.15-.1-.29.02-.1.08.18.1h.23l.13-.1zm.65.56l.06.17h-.22l-.15-.06-.03-.12.14-.03.2.04zm.9.58l-.08-.16-.24-.12h-.17l-.07.09.24.18.31.01zm.48.53l.3-.02-.1-.14-.31-.21h-.18l-.03.13.32.24zm.96.63h-.2l-.4-.3v-.15h.16l.37.24.07.21zm.64.51v.22h-.18l-.4-.34v-.2h.15l.43.32zm.6 1v-.24l-.36-.33h-.22l.03.2.37.34.19.03zm.56.58c.01.1.03.27.02.28l-.17-.02-.34-.32-.06-.26.2-.01.35.33zm.56 1.18l-.01-.3-.37-.39h-.18v.2l.31.38.25.1zM30.94 20l-.15-.14h-.26l-.17.14.2.08h.23l.15-.08zm-.07-.57l.17.1-.19.14h-.17l-.21-.1.1-.14h.3zm.9 1.29l-.14-.18-.21-.05-.25.13.25.16.35-.06zm1.48.77l.05.22h-.28l-.34-.22-.02-.18.18-.05.4.23zm.8.78l-.23.07-.45-.3-.02-.2h.25l.38.22.06.21zm.57.49l.06.3-.21-.04-.41-.3-.04-.24h.21l.4.28zm.73 1.05l-.08-.3-.42-.34h-.18l.02.26.44.38h.22zm.34.83h.24l-.06-.34-.38-.3h-.19v.25l.39.39zm.8.92l-.05-.33-.4-.4h-.18v.25l.44.48h.2zm-4.8-5.47l.18.2-.19.06h-.32l-.2-.14.14-.12h.38zm.94.64l-.08-.2-.3-.11h-.24l-.03.2.33.15.32-.04zm.7.29l.1.22-.27.06-.45-.23-.05-.15.22-.08.45.18zm.83.9l-.07-.27-.5-.28-.16.06v.18l.5.3h.23zm.6.38l.08.29h-.26l-.38-.24-.12-.27.24-.06.44.28zm.75 1.1l-.08-.34-.44-.33-.23.04.08.29.4.34h.27zm.6.83l-.05-.38-.4-.32h-.21v.31l.42.39h.25zm.58.87v-.35l-.47-.4H36l.05.31.43.44h.2zm-4.94-5.43l.16.18-.18.06h-.32l-.19-.14.14-.1h.4zm.99.64l-.06-.19-.3-.15-.36.05.02.15.4.2.3-.06zm.76.33l-.03.25h-.2l-.45-.23-.08-.18.23-.09.53.25zm.78.82l-.06-.28-.46-.25-.25.03v.22l.48.3.3-.02zm.69.42l.05.3h-.29l-.44-.3-.09-.28.26-.04.5.32zm.7 1.06l-.05-.35-.45-.3h-.28l.07.3.43.35h.28zm1.21 1.3v.38h-.23l-.44-.44v-.3h.26l.41.37zm.56 1.3v-.43l-.42-.35h-.22v.35l.42.43h.22zm-4.63-5.88l.04.19-.28.05-.22-.05-.23-.23.21-.13.2.03.28.14zm.86.72l-.06-.26-.4-.17-.33.09.19.27.34.11.26-.04zm.7.32l.05.27-.27.05-.5-.35.06-.18h.27l.39.2zm.78.96v-.28l-.54-.31-.25.08.04.2.5.36.25-.05zm.68.42l.06.33-.29.04-.5-.4v-.22l.25-.05.48.3zm.71 1.15l-.06-.39-.43-.3-.28.04.03.3.41.35h.33zm.58.46v.4h-.28l-.43-.38v-.36h.27l.44.34zm.6 1.29v-.45l-.43-.3h-.26v.39l.42.36h.28zm-3.87-5.16l-.3.14-.33-.13-.19-.24.23-.11.36.07.23.27zm.55.72l.21-.07-.12-.32-.43-.16-.27.12.23.3.38.13zm.98.6l-.25.06-.48-.23-.11-.3.28-.06.46.22.1.31zm1.11 1.59l.27-.04-.04-.34-.5-.34-.2.06v.3l.47.36zm.9.77v-.36l-.44-.3-.33.03v.27l.5.43.27-.07zm.6.5v.38h-.34l-.4-.32v-.36l.31-.05.44.36zm.62 1.27l-.3.08-.44-.37v-.37l.23-.1.51.38v.38zm-4.69-6.1v.2h-.39l-.23-.18.07-.17h.26l.29.15zm.83.54v.25l-.28.02-.42-.22v-.17l.24-.06.46.18zm1.51 1.33l.05.32-.29.06-.5-.3v-.29l.33-.04.41.25zm-.52-1v-.2l-.38-.23-.3.05v.2l.47.24.21-.05zm.75.45l.06.28-.25.07-.52-.3v-.23l.27-.06.44.24zm1.22 2.42l-.3.1-.5-.33v-.34l.24-.08.5.32.06.33zm.33.95l.31-.1-.07-.4-.46-.29-.26.08v.36l.48.35zm.87.76l-.3.14-.45-.39V24l.25-.07.5.33v.36zm.25 1l.29-.12v-.4l-.46-.3-.27.1v.39l.44.32zm.8.4l-.4-.34-.3.1v.4l.45.35.26-.1V26zM37 21.77v.37l-.28.02-.45-.27-.04-.35.3-.06.47.3zm.24-.55l-.42-.27-.33.07v.25l.47.31h.28v-.36zm-1.3-1.78v-.19l-.4-.16-.14.08v.14l.35.17.19-.04zm.82.64l-.26.12-.35-.21v-.2l.18-.08.43.19v.18zm.49.88l.3-.1v-.22l-.5-.22-.2.09v.2l.4.25zm.7 1.34v-.3l-.42-.29-.33.07.03.34.46.28.25-.1zm.67.8v-.34l-.5-.29-.24.12v.32l.48.32.26-.12zm-.34-1.48l-.3.13-.43-.25v-.27l.24-.1.42.2.07.3zm.63.82l-.25.13-.45-.27V22l.27-.1.43.27v.28zm.67.8l-.3.14-.43-.28v-.31l.24-.11.5.25v.3zm.24 1.19v.38l-.32.13-.43-.33v-.37l.31-.1.44.29zm-1.34-3.48v-.2l-.32-.16-.22.09v.19l.32.18.22-.1zm.71.54v.23l-.22.11-.34-.22v-.2l.21-.11.35.19zm.68 1.01v-.25l-.35-.19-.26.1v.27l.38.2.23-.13zm.64.51v.28l-.27.11-.34-.19v-.27l.28-.12.33.2zm.57 1.07l-.02-.31-.3-.15-.25.1v.31l.31.17.26-.12zm-1.68-3.23l.02.1-.15.02-.13-.07.02-.11.1-.02.14.08zm-.72-.63l-.02-.08-.1-.06-.07.02-.02.08.1.05h.1zm2.72 2.79v.2l-.17.07-.18-.09v-.16l.18-.1.17.08zm-.64-.56v-.19l-.16-.08-.17.1v.16l.17.08.16-.07zm1.02 1.57l.18-.1-.01-.17-.14-.08-.2.1v.18l.17.07zm-1.42 1.25l-.44-.3-.3.17v.35l.43.3.31-.12v-.4zm-.33-.47l.4.24.28-.16v-.38l-.37-.21-.31.17v.34zm1.22.5v.38l-.3.2-.35-.23v-.36l.28-.17.37.19zm.37-.76v.29l-.24.15-.32-.17v-.27l.28-.14.28.14zm.52 1.06l-.26.17-.24-.14v-.29l.24-.16.22.1.04.32zm.49.65l-.13.12-.37-.07v-.14l.13-.12.15-.08.22.11v.18zm.78-.36c.01.03.02.1-.04.15-.09.06-.2 0-.1-.1.06-.07.12-.06.14-.04zm-.51-.52a.17.17 0 0 0 .06-.2c-.03-.02-.1-.03-.2.07-.12.12.03.22.14.13zm-.4-.92c.02.05.03.15-.08.23-.15.09-.34-.02-.18-.15.12-.11.22-.1.25-.08zm-2.4-2.84v.12l-.1.03-.17-.06-.02-.16.03-.06.11-.02.16.15zm-2.38-1.37v-.2l-.3-.15-.15.08v.13l.26.17.19-.03zm-.83-.88v.13l-.15.02-.18-.13v-.13h.14l.19.1zm-.86-.55v-.09l-.12-.07h-.1v.09l.12.08h.1zm4.12 4.9v.38l-.28.12-.41-.24v-.38l.32-.11.37.23zm-.9-.11l-.48-.3-.28.11v.36l.47.3.3-.1v-.37zm-4.36-4.8l.2-.05-.09-.13-.19-.05-.14.05v.1l.22.08zm0 .38l-.28-.15-.26.04v.17l.3.18h.24v-.24zm-1.18-.65l.33.1v.15l-.15.06-.31-.17v-.1l.13-.04zm1.89 2.05l-.27.09-.5-.28-.02-.19.24-.11.47.25.08.24zm-2.92-2l.37.1v.15l-.26.02-.28-.1.03-.13.14-.03zm6.44 7.17l-.43-.35-.27.1v.38l.46.39.24-.1v-.42zm-3.06-4.19l.03.31-.27.04-.52-.28v-.29l.24-.06.52.28zm-3.31-2.14l.23-.12-.16-.22-.32-.06-.21.12.16.2.3.08zm-.67-.53l-.17-.16h-.27l-.14.1.13.13h.28l.17-.07zm-.07-.63l.1.16-.15.03h-.16l-.09-.12.14-.07H32zm6.28 7.22l-.42-.38h-.26v.38l.4.43h.28v-.43zm-6.45-6.29l.18.18-.18.1h-.37l-.12-.15.12-.13h.37zm-.74-.6l-.17-.09-.19.07-.02.08.14.04.15-.03.1-.08zM38 26.03v.3l-.35-.01-.34-.29v-.38h.28l.41.38zm-1.7-2.28l-.04-.39-.4-.31h-.28v.28l.46.42h.27zm-5.42-4.79l.16.08-.1.12-.21.03-.19-.07.09-.1.25-.06zm6.35 7.06v-.36l-.41-.4h-.28l.08.36.37.4h.24zm-.26.08v.28l-.27.01-.3-.41v-.24h.2l.37.36zm-4.43-4.95l-.07-.18-.25-.14h-.24l-.02.18.3.16.28-.02zm2.85 4.41v.16l-.15-.1-.06-.09-.04-.14h.08l.17.17zm-.57-.7v-.16l-.16-.17h-.09l.04.14.07.1.14.1zm-.56-.92v.16l-.14-.1-.06-.09-.05-.14h.1l.15.17zm-.58-.55l-.04-.16-.2-.14-.08.02.07.13.09.07.16.08zm-.7-.8l.06.13-.15-.04-.08-.05-.1-.1.08-.02.2.09zm-.67-.38l-.04-.1-.15-.07-.06.02.07.08.06.03.12.04z" fill="url(#bkj0kx12v)"/><path fill-rule="evenodd" d="M8.2 26L5 34h2.34l.36-1H11l.36 1h2.32l-3.15-8H8.19zm2.07 5H8.42l.92-2.58.93 2.58zm10.32 3h1.92l.73-4.52L24.98 34h.85l1.9-4.52.66 4.52h4.54l.37-1h3.42l.38 1h2.4l-3.26-8H33.8l-3.31 8-1.38-8h-2.07l-1.57 4.23-1.6-4.23h-2.03l-1.33 7.9-2.4-3.02a2.5 2.5 0 0 0 1.88-2.4A2.53 2.53 0 0 0 17.42 26H14v8h2v-2.82L17.91 34h2.68zm13.46-3h1.92L35 28.42 34.05 31zm11.76-5l-3.31 8h2.43l.37-1h3.42l.38 1h2.4l-3.26-8H45.8zm2.16 5h-1.92l.95-2.58.97 2.58zM16 27.5v2h.8c.66 0 1.2-.45 1.2-1s-.54-1-1.2-1H16zm22 .5v-2h6v2h-2v6h-2v-6h-2z" fill="#3D98CD"/><defs><linearGradient id="akj0kx12v" x1="24.05" y1="20.75" x2="23.77" y2="26.18" gradientUnits="userSpaceOnUse"><stop offset=".11" stop-color="#3D98CD"/><stop offset=".57" stop-color="#fff"/></linearGradient><linearGradient id="bkj0kx12v" x1="36.26" y1="22.48" x2="36.52" y2="26.53" gradientUnits="userSpaceOnUse"><stop stop-color="#F05433"/><stop offset=".52" stop-color="#fff"/></linearGradient></defs></svg>