<!-- by TradingView --><svg width="56" height="56" viewBox="0 0 56 56" xmlns="http://www.w3.org/2000/svg"><path fill="#F0F3FA" d="M0 0h56v56H0z"/><path d="m17.25 26-.43-1.1h-1.65l-.42 1.1H14l1.6-4h.8l1.6 4h-.75Zm-.61-1.67-.41-1.09-.23-.69c-.06.24-.13.47-.22.7l-.41 1.08h1.27Zm7.08.56c0 .23-.06.43-.18.6-.12.16-.3.29-.53.38-.23.09-.5.13-.82.13a3.97 3.97 0 0 1-1.19-.2v-.6l.58.18c.21.05.43.08.65.08.18 0 .33-.02.45-.06a.6.6 0 0 0 .27-.19.48.48 0 0 0 .08-.28c0-.1-.03-.22-.1-.3a.92.92 0 0 0-.3-.21 5.4 5.4 0 0 0-.52-.22c-.14-.05-.27-.1-.4-.17a1.63 1.63 0 0 1-.34-.24 1 1 0 0 1-.23-.31c-.06-.14-.1-.28-.09-.43 0-.22.06-.41.17-.57.12-.15.28-.27.5-.35a2 2 0 0 1 .73-.13c.42 0 .83.08 1.21.24l-.22.52a4.17 4.17 0 0 0-.5-.16 2.14 2.14 0 0 0-.5-.06 1 1 0 0 0-.38.06c-.1.04-.18.1-.24.18a.43.43 0 0 0-.08.26c0 .11.03.2.1.29.05.07.15.14.28.2.13.07.3.14.5.22.23.09.43.18.6.28.16.1.29.21.37.35.1.13.13.3.13.5v.01ZM26.24 22c.55 0 .95.1 1.2.3.25.21.38.5.38.87 0 .17-.03.33-.09.49-.06.15-.15.28-.28.4-.13.11-.3.2-.51.27-.22.07-.48.1-.79.1h-.45V26H25v-4h1.24Zm-.05.53h-.5v1.37h.39c.22 0 .4-.02.56-.07a.68.68 0 0 0 .35-.23c.08-.1.12-.23.12-.4 0-.23-.08-.4-.23-.5-.14-.12-.38-.17-.69-.17ZM30.85 26l-.42-1.13h-1.62L28.39 26h-.68l1.53-4H30l1.58 4h-.74.01Zm-.6-1.68-.4-1.07a19.1 19.1 0 0 0-.23-.67 5.1 5.1 0 0 1-.21.67l-.4 1.07h1.24Zm3.77-1.78c-.85 0-1.3.67-1.3 1.46 0 .82.42 1.46 1.3 1.46.35 0 .68-.07 1.05-.18v.54c-.35.13-.68.18-1.14.18-1.2 0-1.93-.81-1.93-2s.84-2 2.02-2c.43 0 .85.1 1.2.25l-.24.53c-.3-.13-.62-.24-.96-.24ZM37.3 26v-4h.7v4h-.7ZM7.25 32l-.43-1.1H5.17L4.75 32H4l1.6-4h.8L8 32h-.75Zm-.61-1.67-.41-1.09a20.6 20.6 0 0 0-.23-.69c-.06.24-.13.47-.22.7l-.41 1.08h1.27ZM9.58 32c-.33 0-.6-.05-.84-.16-.24-.1-.42-.27-.55-.49-.13-.22-.19-.5-.19-.83 0-.36.07-.64.21-.87.14-.22.33-.38.58-.5.45-.16.93-.2 1.4-.1.52.1.38.23.21.62a3.53 3.53 0 0 0-.76-.16c-.2 0-.37.04-.5.11a.7.7 0 0 0-.3.34c-.06.15-.1.33-.1.55 0 .21.04.4.1.54a.7.7 0 0 0 .3.33 1 1 0 0 0 .48.1c.32 0 .63-.06.92-.2v.53c-.13.07-.27.11-.42.14-.15.03-.33.05-.54.05ZM18 29v3h-.57l-.1-.44h-.04a.9.9 0 0 1-.27.25 1.8 1.8 0 0 1-1.46.08.87.87 0 0 1-.42-.34c-.1-.16-.14-.36-.14-.6V29h.73v1.83c0 .22.05.4.16.5.1.12.28.17.5.17.22 0 .4-.04.53-.11.13-.08.22-.2.27-.34.06-.15.08-.34.08-.56V29H18Zm5.34 2.12a.7.7 0 0 1-.16.48 1 1 0 0 1-.48.3c-.45.1-.92.12-1.38.05a2.4 2.4 0 0 1-.48-.13v-.53c.36.14.74.22 1.12.24.24 0 .4-.03.51-.1.1-.06.16-.14.16-.25a.25.25 0 0 0-.07-.17.66.66 0 0 0-.23-.15 4.93 4.93 0 0 0-.5-.2c-.21-.07-.4-.14-.54-.21a.9.9 0 0 1-.34-.27.66.66 0 0 1-.11-.4c0-.25.11-.45.35-.58.24-.13.56-.2.96-.2.39 0 .78.06 1.14.2l-.23.47c-.16-.06-.31-.1-.47-.14a1.95 1.95 0 0 0-.47-.06 1 1 0 0 0-.43.08c-.1.04-.14.11-.14.2 0 .07.02.13.07.18.05.04.13.1.24.14l.49.17.53.21c.15.07.26.16.34.27.08.1.12.24.12.4Zm9.83-.62c0 .24-.04.45-.11.64a1.3 1.3 0 0 1-.33.47c-.14.13-.3.22-.5.3-.43.14-.9.14-1.33 0a1.32 1.32 0 0 1-.84-.77c-.07-.2-.11-.4-.11-.65 0-.31.06-.58.2-.8.12-.23.31-.4.55-.51.25-.12.53-.18.87-.18.31 0 .59.06.83.18.24.11.43.28.57.5.13.23.2.5.2.81v.01Zm-2.48 0c0 .2.03.39.1.54.05.15.15.26.28.34.12.08.29.12.49.12s.37-.04.5-.12a.7.7 0 0 0 .27-.34 1.46 1.46 0 0 0 0-1.08.67.67 0 0 0-.28-.34.94.94 0 0 0-.5-.12c-.3 0-.51.09-.65.26s-.2.42-.2.73l-.01.01Zm5.09-1.5c.38 0 .68.08.9.25.21.17.32.44.32.81V32h-.72v-1.82c0-.23-.06-.4-.17-.5-.1-.12-.28-.18-.5-.18-.33 0-.56.09-.7.26a1.3 1.3 0 0 0-.18.75V32H34v-3h.56l.1.45h.05a.8.8 0 0 1 .27-.25c.11-.07.24-.12.37-.15.14-.03.28-.05.43-.05ZM13.3 34c0-.65-.07-1.88.03-2.53h-.04c-.18.3-.27.53-.79.53-.97 0-1.5-.68-1.5-1.5 0-.83.53-1.5 1.5-1.5.5 0 .62.23.82.53h.02l.08-.53H14v5h-.7Zm-.8-2.58a.8.8 0 0 0 .83-.8c0-.54-.24-1.02-.83-1.02-.53 0-.78.16-.78.91 0 .76.25.9.78.9v.01ZM19.77 29v3H19v-3h.77Zm-.36-1c.12 0 .21.02.3.07.08.05.12.14.12.26s-.04.2-.13.26a.54.54 0 0 1-.29.08.55.55 0 0 1-.3-.08c-.07-.05-.11-.14-.11-.26s.04-.2.12-.26c.1-.05.2-.08.3-.07h-.01Zm5.32 1v3H24v-3h.73Zm-.32-1c.11 0 .2.02.29.07.08.05.12.14.12.26s-.04.2-.12.26a.54.54 0 0 1-.29.08.55.55 0 0 1-.3-.08c-.07-.05-.11-.14-.11-.26s.04-.2.11-.26c.1-.05.2-.08.3-.07Zm2.77 3.51c.19 0 .38-.03.54-.07v.45c-.17.06-.44.11-.72.11-.59 0-1-.28-1-.91v-1.63h-.5v-.27l.5-.21.24-.98h.46v1h.99v.46h-.99v1.62c0 .3.2.43.48.43ZM29 29v3h-.78v-3H29Zm-.41-1c.1 0 .2.02.29.07.08.05.12.14.12.26s-.04.2-.12.26a.54.54 0 0 1-.3.08c-.1 0-.2-.03-.29-.08-.08-.05-.12-.14-.12-.26s.04-.2.12-.26c.1-.05.2-.08.3-.07Zm12.29.54c-.2 0-.36.04-.51.1-.15.07-.28.17-.38.3-.1.12-.18.28-.23.46a2.23 2.23 0 0 0 .04 1.38 1.06 1.06 0 0 0 1.07.68c.17 0 .33-.02.5-.05.15-.03.31-.08.48-.13v.54c-.33.13-.7.2-1.05.18-.4 0-.74-.08-1-.25-.27-.16-.47-.4-.6-.7-.14-.3-.2-.65-.2-1.05 0-.3.04-.56.12-.8.09-.25.2-.46.37-.64.16-.18.35-.32.58-.41.24-.1.5-.15.8-.15.4 0 .78.08 1.13.25l-.23.53a3.35 3.35 0 0 0-.43-.17c-.15-.04-.3-.07-.46-.07Zm9.82.46c.97 0 1.3.67 1.3 1.5s-.35 1.5-1.32 1.5c-.34 0-.58-.1-.75-.24a1.23 1.23 0 0 1-.22-.24h-.05c.08.64.05 1.83.05 2.48H49v-5h.57l.1.54h.04c.22-.35.57-.54.99-.54Zm-.2.6c-.62 0-.79.35-.8.9 0 .56.14.9.82.9.62 0 .76-.4.76-.9 0-.74-.25-.9-.77-.9h-.01Zm-5 .9c0 .93-.67 1.5-1.58 1.5-.9 0-1.56-.6-1.56-1.5 0-.94.67-1.5 1.58-1.5.89 0 1.56.58 1.56 1.5Zm-2.42 0c0 .54.25 1 .85 1s.84-.46.84-1c0-.56-.25-1-.84-1s-.85.36-.85 1Zm4.88-1.5c.12 0 .26.01.36.03l-.07.63c-.1-.02-.21-.04-.32-.04-.52 0-.93.33-.93.87V32h-.72v-3h.55l.1.62h.03c.22-.35.6-.62 1-.62Z" fill="#545454"/></svg>