<!-- by TradingView --><svg width="56" height="56" viewBox="0 0 56 56" xmlns="http://www.w3.org/2000/svg"><path fill="#F0F3FA" d="M0 0h56v56H0z"/><path fill-rule="evenodd" d="M30.92 20.64c.57-.17.87-.14.87.11-.21-.2-.5-.21-.87-.1Zm-5.21-3.3c-.32-1.17-.3-2.53 1.08-3.2.27-.14.72-.37.87.03.1.28-.45.58-.58.73a.65.65 0 0 0-.1.15 3.1 3.1 0 0 0-1.27 2.3Zm8.7.84h-.03a1.98 1.98 0 0 1-.9-.28c-.46-.3-.9-.96-1.05-1.13-.9-1.15-2.46-.32-2.38-.32.26-.02 1.76.24 2.14.66.04.05.07.1.09.17v.02c.06.13 1.04 1.26 1.48 1.85.2.26.36.39.28.4-.2.02-.4 0-.6-.03-.84-.17-2.16-.7-3.64-.37-1.95.47-2.7 1.37-2.95 2.05.17-1.45 1.3-2.3 3.33-2.54.53-.12 1.31-.19 1.44-.42.49-.87-1.4-1.34-2.6-1.55-.54-.11-1.51.12-1.51.12.78-.49 3.54-1.6 4.5-1.3.03.03.42-.27.48-.25.17.13.1.96.15 1.21.42.61.95 1.13 1.57 1.53h.02l.19.18Zm-5 1.83c.45-.51.94-.7 1.45-.6-.64.04-1.04.23-1.23.55-.55.81-1.1 1.2-1.63 1.15.48-.06.95-.44 1.42-1.1Zm2.61 3.08c.13-.02.22-.02.26.05.02-.28.15-.35.27-.37.05 0 .1-.02.15-.04.53-.13.43.13.21-.38a7.3 7.3 0 0 1-.27-.9l-.13-.57c0-.06-.06-.15-.17-.26l-.04-.02c-.17-.21-.72-.36-1.68-.42-.2.04-.33.25-.5.38.21.1.46.13.7.08-.09.05-.22.09-.37.15.13 0 .26.03.37.09a.91.91 0 0 0 .89.34c-.39-.06-.62-.2-.73-.38.26.13.54.21.83.25a.17.17 0 0 1 .02-.17h.02c.15.07.5.1.43.4-.1.52-.07.67-.2.88-.08.15-.29.1-.48.2v.05c.02.39.49.32.42.64Zm-5.8-.34c2.65-.32.38-1.25 1.58-2.21-1.42.85.73 1.62-1.59 2.21Zm1.29-.25c0 .85-.45.91-.91 1.04-.36.1-.77.3-.92.58 0-.32.51-.64.92-.81.38-.15.67-.13.9-.81Zm-9.48 17.18a1.42 1.42 0 0 0 1.15 1.02c-.7-1.54-.85-4.15-.5-7.88-.8 2.73-1 5-.65 6.86Zm13 .87-.05-1.66a5 5 0 0 1-.67-.34l-.11 1.74.83.26Zm.27-1.75c.24.68.66 1.62.8 1.96a3.93 3.93 0 0 1-.71-.13l.04-.02-.25-1.7a.55.55 0 0 0 .12-.1Zm-2.18.94c.13-.43.32-1 .53-1.53.19.07.37.15.55.25l-.4 1.64c-.24-.1-.46-.23-.68-.36Zm-.45-4.39c-.27.88.3 1.66.81 1.73-.42-.2-.83-1.02-.53-1.88-.6-.3-1.84-1.55-.55-1.53.13 0 .25-.01.38-.04a7.5 7.5 0 0 1-2.01-2.38c.19.86.65 1.63 1.31 2.2-1.3-.1.04 1.6.6 1.9ZM31 38.4c.16.25.3.23.36-.07a.47.47 0 0 1-.15-.14 1.4 1.4 0 0 1-.2-1.03c.07-.38.2-.55.35-.55-.17-.32-.5-.15-.6.51A1.64 1.64 0 0 0 31 38.4Zm-4.65-9.1c1.44-.5.79 1.24 2.2 2.22h.03a4.3 4.3 0 0 0 2.2.54c.53-.09.98-.24 1.3-.73.1 1.02-2.1 2.32-3.65.58-.21-.24-.4-.5-.57-.77-.53-.68-.38-2.17-1.5-1.83Zm4-.31c.84.3 1.3.83 1.39 1.57-.28-.76-1.15-1.3-2.65-1.57l2.18-.26-.91.26Zm-7-2.58c0 .05-.03.07-.03.11 0 .32.32.6.72.6.08 0 .16 0 .23-.02a.86.86 0 0 0 .2-.11.48.48 0 0 0 .19-.38.56.56 0 0 0-.2-.39.78.78 0 0 0-.97 0 .46.46 0 0 0-.15.2Zm-.18.2c0-.1.04-.2.1-.28.05-.08.11-.15.18-.21a.9.9 0 0 1 .53-.2c.2 0 .38.07.53.2a.54.54 0 0 1 0 .9.78.78 0 0 1-.38.16c-.04.13-.07.25-.09.38 1.5-.34 1.65-2.08-.76-1.74a3.53 3.53 0 0 0-3.01 1.23 5.59 5.59 0 0 1 1.76-.72l.72-.17-.57.47c-.4.33-.73.74-.96 1.21a4.5 4.5 0 0 1 1.95-1.26v.03Zm.8-.37a.23.23 0 0 0-.06.15.27.27 0 0 0 .26.26.4.4 0 0 0 .17-.07c.05-.04.08-.1.08-.17a.2.2 0 0 0-.08-.17.32.32 0 0 0-.21-.06l-.15.06Zm.16-.1c.09 0 .18.03.25.08a.3.3 0 0 1 .1.21.26.26 0 0 1-.1.22.42.42 0 0 1-.5 0 .3.3 0 0 1-.11-.22.26.26 0 0 1 .1-.2.52.52 0 0 1 .26-.1Zm2.73-2.09c-.36.77.06 2.15.64 2.53-.47-.02-1.19-1.19-1.15-2.17a3 3 0 0 1-.83.49c-.4.17-.82.3-1.25.4-.33.08-.68.08-1.01 0a4.83 4.83 0 0 1-.79-.25 2.79 2.79 0 0 0-.82-.21c-.39-.01-.77.06-1.13.21-.1.07-.23.15-.25.26a.25.25 0 0 0 .02.21c.08.15.25.13.4.06a.36.36 0 0 0 .21-.38l-.06-.04.1-.07a.9.9 0 0 1 .62-.14c.25 0 .7.1.76.4a.42.42 0 0 1-.17.43c2.97-.69 3.82.53 3.25 1.49.61.38 3.7-1.05 4.13 1.15-.5-2.03-3.77-.56-4.34-.92-.2.2-.43.36-.68.47.63.03 1.26-.03 1.88-.17a3.98 3.98 0 0 1 2 .04c.3.09.74.26.8.62.05.27-.17.49-.4.64 1.19.32 2.4.85 3.12 1.87.02-.36.04-.72.08-1.1.07-.74.08-1.47.02-2.2a.96.96 0 0 1-.49.55 1.36 1.36 0 0 1-1.08.07c1.44.17 1.61-1.43.9-2.26.57 1.04-.2 2.15-1.45 1.6a4.86 4.86 0 0 1-2.5-3.9l-.53.32Zm3.03 2.15c-.61-.06-1.52-.32-1.95-2-.08-.36.07-.9.02-1.28l.02-.04c.24-.04.28-.09.39.06.17.26.44 1.7.95 2.54.04.06.25.34.5.64l.07.08Zm.26-.94a.99.99 0 0 0-.21-.1c-.15-.53-.03-.75.38-.62.32.15 1.4.53 1.46.06.02-.06 0-.08-.04-.06-.17.1-.13.15-.51.04-.93-.34-2.38-1.23-1.63-2.4a.42.42 0 0 0 .14-.32 2.2 2.2 0 0 1 .2-1.17l-.07.04c-.5.75-1.14.92-1.78.7.6.05 1.38-.6 1.87-1.21.3-.4.6-.68 1.16-.77l.2-.06.14.04h.07l-.03.02c.41.1.83.15 1.26.15.3 0 .2.98.06 1.22.02 0 .27-.17.6-.66.12-.2.44-.22.67-.26.36-.04.49-.15.53-.3.02-.06-.55-.6-.72-1l.4-.23c.43-.13.43-.24-.14-.5a5.33 5.33 0 0 1-1.45-1.4c.02-.19.15-1.3-.19-1.38-.42-.1-.53.06-.7-.32-.3-.7-1.14-.96-1.82-.96.28-.36 1.34-.55 2.93.64.31-1.02 1.82-2.55 2.33-3.04-.28-.1-1.06.91-1.21 1.08.44-.61.76-1.04.97-1.27l-.67-.47c-.63.8-1.17 1.67-1.6 2.6.31-.99.75-1.92 1.32-2.77-.1-.07-.2-.11-.3-.17-.43.7-.8 1.45-1.08 2.23.2-.81.49-1.6.85-2.36-.6.75-1.11 1.56-1.53 2.42.31-.9.73-1.77 1.25-2.57l-.04-.02c-.65.79-1.22 1.65-1.67 2.57.32-.96.78-1.88 1.35-2.72-.59-.25-1.2-.44-1.82-.58a12.2 12.2 0 0 0-.91 3.1c.03-1.08.22-2.14.57-3.16-.44 1-.76 2.04-.93 3.1.03-1.07.23-2.14.6-3.16h-.05c-.44.99-.76 2.03-.93 3.1.03-1.07.22-2.13.57-3.15h-.06c-.45 1-.76 2.04-.94 3.11.04-1.06.23-2.12.57-3.13-.3 0-.59 0-.86.02-.24 1.14-.33 2.31-.26 3.47a10.01 10.01 0 0 1-.1-3.42c-.26.02-.5.06-.75.12-.03 1.18.1 2.35.38 3.5a10.65 10.65 0 0 1-.74-3.41 3 3 0 0 0-.46.15c.15 1.13.46 2.23.9 3.28-.58-.99-1-2.06-1.24-3.18-.17.06-.33.13-.5.22.31 1.13.77 2.22 1.37 3.23-.74-.91-1.3-1.95-1.68-3.06-.23.11-.44.24-.66.38a12.2 12.2 0 0 0 1.98 2.92 10.6 10.6 0 0 1-2.27-2.7c-.3.2-.57.44-.83.7a6.1 6.1 0 0 1 2.42 1.8 6.4 6.4 0 0 0-2.57-1.65c-.17.18-.33.37-.49.57a6.1 6.1 0 0 1 2.65 1.26 6.43 6.43 0 0 0-2.77-1.07c-.18.26-.34.54-.47.83a6.33 6.33 0 0 1 2.76.2 6.52 6.52 0 0 0-2.86.04c-.15.35-.26.72-.32 1.1.95-.87 2.29-1.19 3.28-.83-1.54-.17-2.75.47-3.35 1.51v.11c.96-1.09 2.46-1.49 3.54-1.1-1.71-.2-3 .61-3.52 1.84.34 2.75 2.82 4.69 1.9 7.05.59-.2 2-1.92 1.94-3.32 0 .2.04.39.1.57l.2 1.09c-.04.34-.4.55-.49.87-.04.17.17.7.04.83-.3.28-.36.77-.42 1.09-.04.19-.13.36-.25.5-.32.37-.58.4-1.02.5-1.61.32-1.93-.98-3.8-.24-.72.37-.3 1.15.3.88a.56.56 0 0 0 .32-.56c.46-.34 1.93.07.5.68-3.43 1.58-6.14 8.9-5.68 12.6a16.22 16.22 0 0 1 3.06-8.53c1.44-2.1 1.59-2.2 1.25.68-.47 4.07-.17 7.09.6 7.86-.2-2.15-.3-4.54.12-6.82.47-2.57 1.14-3.61 1.06-.55-.09 3.2.85 5 2.12 7.64-1.3-4.23-1.74-7.45-1.19-10.43.09-.5.2-.44.47-.3-.53 5.07.78 9.1 3.7 11.27a7.64 7.64 0 0 0 8.04 1.12 7.9 7.9 0 0 1-2.7.26c-.35-.92-.98-2.21-.98-2.21l.02-.22c.04-.02.06-.08.08-.2.17-.9.07-1.37-.1-1.48.03-1.74.36-3.46.97-5.08.6-.2.91-.69.93-1.47-.57-.83-1-1.74-1.3-2.7a2.83 2.83 0 0 0-2.07-2.24c.1.02.2.05.28.1Zm1.7-1.74c-.16-.07-.41.04-.56-.13a2.06 2.06 0 0 0 .79-.2c.06 0 .08.05.12.05.04.02.1 0 .1.04a.3.3 0 0 1-.03.13.23.23 0 0 0-.03.1c-.06.07-.19.11-.4 0Zm.29.25a.4.4 0 0 0-.15.3.38.38 0 0 1-.25-.25.12.12 0 0 1 .14-.05c.09.03.18.03.26 0Zm-7.59 6.45c-.1.4-.2.92.45.32.42-.4.5-1 .02-2.34-.42.02-.84 0-1.25-.06-.16.98-.05 1.99.31 2.91.02-.32.36-.85.47-.83Zm4.6-10.34c.36-.4.76-.58 1.19-.47-.51.04-.85.2-1.02.45-.47.66-.91.98-1.34.93.4-.08.81-.4 1.17-.91Z" fill="#7D7D7D"/><path d="M31.3 10.94c-.07.27-.18.54-.32.79.11-.64.33-1.26.66-1.81a7.8 7.8 0 0 0-.34 1.02ZM20.94 25.3l-.05.26-.1-.04a.16.16 0 0 0-.01-.19.16.16 0 0 0-.18-.04.21.21 0 0 0-.13.2.23.23 0 0 1 .02-.25.3.3 0 0 1 .23-.1.3.3 0 0 1 .22.17ZM35.33 27.46c.02-.41.1-.82.21-1.22-.02-.18-.01-.37.02-.55a.3.3 0 0 1 .5.02c-.3.15-.43.3-.41.5.17-.2.44-.24.82-.18a.23.23 0 0 1 .32.04c.13.24.26.37.43.37.08.2.08.34.02.42a2.4 2.4 0 0 0-1-.53 1.05 1.05 0 0 0-.74.38c-.02.09 0 .13.06.15a.68.68 0 0 1 .47-.32c.36.11.67.34.89.64-.53-.28-.95-.3-1.27-.09-.15.09-.04.11.32.07a.6.6 0 0 1 .31.23c.36.22.56.43.58.6.15.32.2.49.2.49.28.68-.1 1.91-1.18 3.4.21-1.93.5-3.74.5-3.74-.35-.2-.69-.2-.8.02-.03.2-.05.4-.04.6a2.24 2.24 0 0 1-.2-1.3Zm.76-2.24-.08-.04.08.04Zm.58.47c.23-.02.44.21.65.75.09-.21.11-.44.07-.66a2 2 0 0 0-.7-.52c-.2.02-.4 0-.6-.04a.16.16 0 0 1-.08-.04h-.02c-.1-.07-.2-.14-.28-.24l.05.26a.55.55 0 0 0 .38.36c.16.09.34.13.53.13ZM34.8 33.44l.57-3.9c-1.23 1.96-2.75 2.64-3.5 3.45a7.91 7.91 0 0 0-.55 3.39c1.62-.8 2.93-1.8 3.48-2.94ZM36.01 24.8l.21-.03c.04-.02.36-2.38.91-7.06.09 0 .2.08.28.25l.21-.83c.4.39.44.92.13 1.58a.92.92 0 0 0 .4-.77c.04-.32-.13-.74-.49-1.23-.25-.6-.17-.83.3-.73.18.21.33.44.44.68a2.55 2.55 0 0 1-.27 2.18c.76-.6.93-1.4.55-2.4 1.23 1.22 2.71 1.5 1.42 3.82.79-.85 1.32-2.19.47-3.08.19.38.12.5-.17.36-.72-.64-1.66-1.17-2.06-1.7.32.31.85.53 1.6.61a4.45 4.45 0 0 1-1.85-1.25c-.1-.2-.36-.26-.7-.2-1.27.8-1.46 1.94-.62 3.5-.48 4.19-.76 6.3-.76 6.3Z" fill="#7D7D7D"/><path d="m36.8 15.18.08-.07c-.04-.28.23-.38.83-.32.46.02.7.15.72.34a.92.92 0 0 0 .06-.49 1.52 1.52 0 0 0-1.74-.02.48.48 0 0 0 .04.56ZM35.54 27.9l-.57 4.3-1.19 8.77c.53-.06.55-.12.4-.25.45-5.03 1.47-11.18 1.62-12.82.06-.78-.26 0-.26 0ZM37.47 18.6l-.06.6c1.16 1.5 1.27 2.72.27 4.02a3.05 3.05 0 0 0 1.08-3.09c-.38.5-.93-1.1-1.29-1.53Z" fill="#7D7D7D"/><path d="m38.49 20.18.3.2a2.8 2.8 0 0 0-.66-1.44c.49.81.6 1.22.36 1.24ZM36.86 19.37l-.09-.56c-1.63 1.45-2.1 2.96-1.35 4.52-.43-1.17.06-2.5 1.44-3.96ZM38.66 7l-.8 7.37c.25-.62.71-.86 1.33-1.11.1-2.1-.08-4.2-.53-6.26Z" fill="#7D7D7D"/><path d="M38.68 7.45V7a15.25 15.25 0 0 0-2.33 6.15c.72.64 1.02 1.07.89 1.24l.21.19c.13-.62-.15-1.13-.83-1.56.47-2.57 1.15-4.28 2.06-5.57ZM28.76 37.9l-.17-.1c-.38.64-.6.96-.6.96l.77-.85ZM15 46.31l.51.53 1.82-3.1.97 1.4-.9 1.45.52.38.8-1.2.77 1.2.4-.66-2.56-3.58L15 46.31ZM20.66 43.35l.07 3.51h.7v-3.51h1.29v-.62h-3.15v.62h1.09ZM24.37 42.73h-.77V47h.65v-1.21l1.3-.94V47h.68l.18-4.27h-.75l-.1 1.28-1.3 1 .11-2.28ZM26.95 42.57h2.85v.72h-2.04l1.08 1.48v.24l-1.27 1.26h2.23v.55h-2.43c-.37 0-.58-.3-.64-.46l1.36-1.51-1.14-1.56v-.72ZM30.8 45.17l-.73-1.77.5-.33.77 1.7.76-1.57.74-.53 1.76 4.03-.5.3-1.5-3.36c-.36.7-1.1 2.13-1.26 2.13-.16 0-.43-.4-.55-.6ZM37.45 42.67l-2.3 3.78.47.37 1.83-3.02.92 1.31-.92 1.43.6.46.82-1.23.75 1.15.38-.6-2.55-3.65Z" fill="#7D7D7D"/></svg>