<!-- by TradingView --><svg width="56" height="56" viewBox="0 0 56 56" xmlns="http://www.w3.org/2000/svg"><path fill="#F0F3FA" d="M0 0h56v56H0z"/><path d="m32 26.93-1.27 1.39a3.76 3.76 0 0 0-1.9-.62c-.45 0-.83.05-.83.41s.7.57 1.27.57c.57 0 2.22.36 2.22 1.85 0 1.5-1.59 2.47-3.8 2.47-1.79 0-3.2-.82-3.69-1.24l1.46-1.23c.5.24 1.63.72 2.03.72.51 0 1.01-.11 1.01-.42 0-.3-.44-.4-1-.5-.58-.1-2.61-.42-2.61-1.91 0-1.5 1.71-2.42 3.94-2.42 1.77 0 2.85.62 3.17.93Z" fill="#002F5D"/><path d="M17 33h-3.08l-.74-2H9.85l-.77 2H6l3.78-10h3.45L17 33Zm-4.47-4-1.02-3.22-1 3.22h2.02ZM19.4 33c-1.43 0-2.4-.98-2.4-2.4V26h2.5v4c0 .6.52 1 1 1 .5 0 .98-.29.98-1v-4H24v7h-2.45l-.07-.8c-.39.48-1.14.8-2.08.8Z" fill="#9C7B2C"/><path d="M39.3 26H42l-1.3 7H38l1.3-7ZM45.77 26.61c.36-.3.99-.61 1.97-.61 1.85 0 2.26 1.04 2.26 1.83 0 .63-.54 3.7-.81 5.17h-2.67l.7-3.92c.02-.07.06-.26.06-.47 0-.26-.24-.61-.76-.61-.38 0-.78.3-1.16.73l-.8 4.27H42l1.33-7h2.56l-.12.61ZM42.03 24.35c-.57.68-1.52.85-2.12.38-.6-.47-.62-1.4-.04-2.08.57-.68 1.52-.85 2.12-.38.6.47.62 1.4.04 2.08ZM32.36 26H38l-.36 2H32l.36-2Z" fill="#002F5D"/><path d="m35.84 29.05.99-6.05-2.67.44c-.39 2.11-1.16 6.5-1.16 7.22 0 2.04 2.28 2.4 3.42 2.33l.58-1.94c-1.04-.22-1.28-.67-1.28-1.11a4 4 0 0 1 .12-.89Z" fill="#002F5D"/></svg>