<!-- by TradingView --><svg width="56" height="56" viewBox="0 0 56 56" xmlns="http://www.w3.org/2000/svg"><path fill="#F0F3FA" d="M0 0h56v56H0z"/><path d="m5 31 2.6-6h.8l2.6 6h-1l-2.31-5.52h.62L6 31H5Zm1-1 .5-1h3l.5 1H6ZM22 31v-6h1v6h-1ZM41.5 31c-1.58 0-2.5-1.1-2.5-2.63V25h1v3.34c0 1.07.35 1.66 1.5 1.66 1.07 0 1.5-.34 1.5-1.66V25h1v3.37c0 1.54-.92 2.63-2.5 2.63ZM47.59 31 45 25h1l2 5 2-5h1l-2.58 6h-.83Z"/><path fill-rule="evenodd" d="M34 30.73V31h1v-6h-1v2.27a2 2 0 1 0 0 3.46ZM34 29a1 1 0 1 0-2 0 1 1 0 0 0 2 0Zm-5.13-.5a1 1 0 0 0-1.74 0h1.74Zm-1.74 1H30V29a2 2 0 1 0-.4 1.2l-.8-.6a1 1 0 0 1-1.67-.1Z"/><path d="M24.5 26a.5.5 0 1 0 0-1 .5.5 0 0 0 0 1Zm-.5 1v4h1v-4h-1Z"/><path fill-rule="evenodd" d="M12 29v4h1v-2.27a2 2 0 1 0 0-3.46V27h-1v2Zm1 0a1 1 0 1 0 2 0 1 1 0 0 0-2 0ZM17 29v4h1v-2.27a2 2 0 1 0 0-3.46V27h-1v2Zm1 0a1 1 0 1 0 2 0 1 1 0 0 0-2 0Z"/></svg>