<!-- by TradingView --><svg width="56" height="56" viewBox="0 0 56 56" xmlns="http://www.w3.org/2000/svg"><path fill="#F0F3FA" d="M0 0h56v56H0z"/><path d="m5 32 3-7h1l3 7h-.95l-2.72-6.5h.38L6 32H5Zm3.5-2L8 29h2.5v1h-2ZM14 32l-4-9h1l3.85 8.5h-.6L17 25h1l-3 7h-1ZM19 32v-7h2.62a5.3 5.3 0 0 1 2.1.26c.42.19.74.47.97.83.22.37.33.8.33 1.3 0 .51-.1.95-.33 1.31-.23.36-.8.81-1.22 1-.42.2-.97.3-1.85.3h-2.1l.48-.5V32h-1Zm5 0-1.71-2.56h1L25 32h-1Zm-4-2.5-.47-.5H22c1.13 0 2-.14 2-1.5 0-1.46-.88-1.5-2-1.5h-2.47l.47-.5v4ZM29.5 32a3.53 3.53 0 0 1-2.52-1 3.36 3.36 0 0 1-.98-2.5 3.37 3.37 0 0 1 3.5-3.5c.51 0 .92.07 1.35.25.43.17.81.42 1.13.74A3.46 3.46 0 0 1 33 28.5c0 .53-.09.94-.27 1.37a3.34 3.34 0 0 1-1.88 1.88c-.43.17-.84.26-1.35.26Zm0-1c1.42 0 2.5-.96 2.5-2.5 0-1.56-1.03-2.5-2.5-2.5-1.54 0-2.5.92-2.5 2.5a2.4 2.4 0 0 0 2.5 2.5Z" fill="#1D428A"/><path d="M34 32v-7h3c.83 0 1.56.16 2 .48.45.31.67.74.67 1.29 0 .37-.09.68-.27.94-.17.25-.4.53-.7.66-.29.14-.36.13-.7.13V28c.41 0 .69.16 1 .37.58.26 1 1.02 1 1.63 0 .59-.18 1.2-.65 1.52a3.6 3.6 0 0 1-2.05.48H34Zm1-1h2c.82 0 2-.04 2-1s-1.3-1-2-1h-2v-1h2c1.04 0 1.7-.27 1.7-1 0-1.02-.98-1-1.7-1h-2v5ZM42 32v-7h1v7h-1ZM47.5 32c-.86 0-1.78-.42-2.41-1A3.33 3.33 0 0 1 44 28.5a3.33 3.33 0 0 1 1.09-2.5c.62-.58 1.54-1 2.41-1a3.73 3.73 0 0 1 3.21 2.1c.2.43.29.9.29 1.4a3.35 3.35 0 0 1-1.09 2.51c-.63.58-1.55.99-2.41.99Zm0-1c1.5 0 2.5-1 2.5-2.5 0-1.39-1-2.5-2.5-2.5s-2.5.95-2.5 2.5 1 2.5 2.5 2.5Z" fill="#D51478"/></svg>