<!-- by TradingView --><svg width="56" height="56" viewBox="0 0 56 56" xmlns="http://www.w3.org/2000/svg"><path fill="#F0F3FA" d="M0 0h56v56H0z"/><path d="M12.88 38H10l5.42-4c.1.67.43 1.4.58 1.68L12.88 38Z" fill="#475F90"/><path d="M16 32.5c0-5.84 13.31-12.76 20-15.5-12.2 6.82-14 10.75-14 13.06 0 2.32 1.86 3.59 4.1 3.59 6.33 0 11.97-4.86 14.9-6.82C35.84 32.26 26.45 37 21.87 37 17.29 37 16 34.23 16 32.5Z" fill="url(#avaxhn5a5)"/><path d="M38.63 26.95 35.75 29c-.7-1.13 1.75-5.35 3.25-7.5-5.64 1.8-14.66 7.7-15.93 8.5-.23-1.36.12-1.92.47-2.49C35.52 19.94 44.39 17.34 46 17c-6 6.06-7.41 9.16-7.37 9.95Z" fill="url(#bvaxhn5a5)"/><path d="M36.17 38H25c5.13-1.48 11.02-5.45 12-6a12.64 12.64 0 0 0-1 4.8c0 .6.08 1 .17 1.2Z" fill="#38393E"/><defs><linearGradient id="avaxhn5a5" x1="28.5" y1="17" x2="28.5" y2="37" gradientUnits="userSpaceOnUse"><stop stop-color="#8B8F9B"/><stop offset="1" stop-color="#425689"/></linearGradient><linearGradient id="bvaxhn5a5" x1="34.5" y1="17" x2="34.5" y2="30" gradientUnits="userSpaceOnUse"><stop stop-color="#919BB0"/><stop offset="1" stop-color="#415379"/></linearGradient></defs></svg>