<!-- by TradingView --><svg width="56" height="56" viewBox="0 0 56 56" xmlns="http://www.w3.org/2000/svg"><path fill="#F0F3FA" d="M0 0h56v56H0z"/><path d="M25.06 11.22c-.25.11-.66.52-.91.91-.5.78-.65.79-.81.04-.14-.6-.25-.63-.73-.11-.25.27-.37.6-.37 1.09 0 .51-.09.76-.34.94-.2.14-.53.5-.75.8l-.4.55-.12-.45a2.14 2.14 0 0 1 0-.87c.1-.37.05-.42-.36-.42a.8.8 0 0 0-.7.37l-.23.37-.24-.46c-.26-.5-.73-.61-.73-.17 0 .15-.34.68-.76 1.17-1 1.18-1 2.12.01 1.35.53-.4.92-.32.92.18 0 .32-.07.42-.25.35-.14-.05-.3-.02-.35.07-.05.09-.24.16-.42.16-.24 0-.33.12-.33.42 0 .24-.06.43-.13.42-.26 0-.6-.32-.65-.6-.12-.86-.84-.7-1.16.28-.14.4-.31.6-.59.64-.73.1-1.18.53-1.18 1.1 0 .3.06.45.13.35.07-.1.4-.15.75-.1.57.06.64.13.74.68.08.4.05.63-.08.67-.1.04-.19.21-.19.4 0 .26-.12.32-.65.32-.73 0-1.2-.4-1.2-1 0-.36-.03-.35-.68.18-.64.53-.68.6-.59 1.23.06.37.18.76.27.87.18.22-.05.47-.6.65-.19.06-.6.32-.9.58-.44.36-.55.56-.47.83.08.25.21.33.45.26.24-.06.33 0 .33.26 0 .4-.76.95-1.11.82-.16-.07-.24.02-.24.27 0 .2-.12.5-.26.65-.36.4-.17 1.04.48 1.68.28.28.56.51.62.51.06 0 .24-.27.4-.61l.3-.62.57.57c.32.3.58.7.58.88 0 .18.23.52.51.77s.5.53.5.64c0 .1.15.32.33.48.25.23.48.28 1.01.19.62-.1 1.14-.43.7-.43-.1 0-.18-.27-.18-.6 0-.4.08-.59.24-.59.13 0 .29-.15.35-.33.08-.27.24-.32.85-.3.65.04.75.09.75.42 0 .21-.08.38-.17.38-.4 0-.14.65.34.85.28.12.5.32.5.45 0 .14-.07.2-.16.15-.1-.06-.21.09-.27.33-.06.24-.21.41-.33.39-.29-.06-.32.04-.18.5.08.25.3.4.68.48.78.14 1.2-.02 2.04-.8.42-.39.86-.65 1.03-.62.38.07.72.46.73.86 0 .4.14.37.52-.09.17-.2.31-.62.32-.92 0-.51.04-.54.7-.6.94-.06.99-.35.15-.85-.37-.22-.64-.45-.59-.5.05-.05.02-.4-.06-.8-.14-.6-.12-.7.13-.7.15 0 .45-.14.64-.33.72-.67 1.14-.3.96.83-.06.43-.04.53.07.35.12-.18.38-.24.91-.2l.74.07.2 1.55c.34 2.62-.33 6.05-1.38 7.03-.51.49-2.69 1.18-4.07 1.3-1.6.14-3.1.58-3.3.98-.24.44-.13.5.5.28.46-.16.75-.13 1.88.25.73.24 1.5.44 1.72.44.63 0 1.66.35 1.56.52-.16.26-2.33.19-3.14-.1-1.03-.38-3.19-.35-3.47.04a1.2 1.2 0 0 0-.21.38c0 .05.6.07 1.34.04 1.18-.05 1.48 0 2.32.4 1.4.64 2.47.78 3.85.5 1.13-.25 1.97-.8 2.17-1.43.05-.14.24-.36.43-.48.3-.19.46-.12 1.4.6 1.51 1.17 2.58 1.47 4.74 1.34.93-.06 1.94-.19 2.23-.29.43-.15.75-.12 1.65.15l1.12.34-.06-.35c-.03-.2-.26-.51-.52-.7-.4-.3-.71-.36-1.86-.35-.75 0-1.53.03-1.71.05-.5.08-2.43-.3-2.95-.57-.47-.25-1.42-1.26-1.3-1.38.04-.04.34.05.68.19.4.17 1.16.26 2.18.26 1.9 0 3.5.4 5.46 1.38 1.35.67 2.92 1.04 2.92.69 0-.1-.57-.45-1.27-.78-.7-.33-1.6-.86-1.98-1.17-1.07-.84-2.58-1.28-4.7-1.36-1-.04-1.92-.16-2.05-.27-.54-.45-1.1-2.47-1.24-4.53-.13-1.85 0-2.39.81-3.28 1.16-1.26 1.55-1.87 1.66-2.52.08-.52.17-.63.56-.68.43-.05.45-.02.35.51-.05.3-.2.73-.33.94-.29.46-.3.76-.04 1.02.11.11.21.6.23 1.08.02.7.11.93.44 1.19.22.17.44.31.49.31.05 0 .2-.32.34-.71.22-.66.3-.73.88-.78.55-.04.63 0 .63.32 0 .26-.08.34-.26.26-.17-.06-.33.05-.45.33-.17.38-.14.49.22.85.41.41.44.42 1.15.16.4-.14.94-.25 1.2-.25.25 0 .54-.11.65-.24.15-.19.1-.31-.25-.6-.54-.42-.47-1 .1-.7.24.14.33.14.33 0s.07-.15.21-.03c.12.1.63.14 1.14.1.7-.05 1-.16 1.2-.43.33-.44.6-.14.3.35-.18.27-.16.46.1 1.03.17.39.42.76.55.84.2.1.21.2.04.52-.18.34-.17.38.07.29.15-.06.77-.16 1.37-.22.8-.09 1.14-.2 1.26-.42.26-.49.2-.64-.42-1.04-.68-.45-.73-.58-.26-.73.19-.06.34-.25.34-.43 0-.22.12-.33.34-.33.18 0 .33-.1.34-.21 0-.17.03-.17.13 0 .11.17.24.14.58-.12.24-.2.5-.35.57-.35.08 0 .14-.4.12-.89-.01-.77-.07-.9-.37-.94-.45-.07-.46-.23-.02-.63.3-.28.37-.29.51-.07.14.2.24.15.58-.26.43-.53.68-1.07.54-1.2-.04-.05-.29 0-.55.1-.53.2-1.33.08-1.17-.18.06-.1-.09-.17-.33-.17-.26 0-.43-.1-.43-.24 0-.13-.17-.26-.38-.3-.38-.05-.67-.81-.3-.81.1 0 .34-.17.54-.37.34-.34.38-.34.57-.07.15.2.25.23.33.1.08-.13.22-.08.45.16.53.57.79.45.64-.29-.19-.97-.3-1.15-.89-1.37-.73-.27-1.14-.61-1.2-.98-.02-.17-.25-.36-.52-.43-.26-.07-.54-.23-.61-.35-.09-.14-.14-.15-.14-.02 0 .1-.29.24-.64.3-.34.07-.8.24-1.03.38-.37.24-.42.23-.75-.1-.45-.45-.25-.84.55-1.11.3-.1.62-.32.7-.48.1-.16.4-.4.67-.55.3-.15.5-.39.5-.6 0-.29-.06-.3-.35-.15-.36.2-.91-.1-1.58-.83-.36-.4-.77-.48-.77-.13 0 .25-.53.79-.79.79s-.55-.77-.39-1.03c.18-.29-.16-.78-.8-1.18-.42-.25-.5-.4-.42-.79.05-.26.16-.57.24-.68.18-.22-.56-.44-1.33-.39-.75.05-1.2-.17-1.31-.65l-.11-.45-.6.65c-.61.68-.89.73-.56.1.27-.49.1-.9-.32-.76-.23.07-.39 0-.51-.24-.22-.4-.51-.46-.51-.1 0 .47-.35.45-.44-.03-.09-.43-.22-.52-1.3-.84-1.07-.3-1.27-.32-1.67-.11-.26.13-.47.3-.47.4 0 .09-.15.16-.33.16-.22 0-.37-.15-.44-.43-.1-.38-.17-.41-.68-.32-.46.1-.72.02-1.24-.33a5.05 5.05 0 0 0-.72-.43l-.5.22Zm5.35 6.62c-.16.43-.37.78-.46.78-.12 0-.8-.41-1.29-.8-.2-.15.44-.56.89-.56.29 0 .64-.08.77-.16.39-.25.4-.1.09.74Zm3.5-.13c.33.2.07.56-.46.66-.64.12-2.11-.04-2.1-.23 0-.35.96-.69 1.68-.6.41.05.81.13.88.17Zm-7.88 2.25c.05.08.32.2.6.27.72.16.8.52.25 1.1-.26.27-.43.6-.38.72.05.13-.05.41-.21.63l-.3.4-.3-.58c-.17-.32-.4-.98-.51-1.47-.19-.79-.18-.9.07-1.05.36-.21.65-.22.78-.02Zm-4.97.17c.14.1.21.19.17.22l-.8.69c-.77.68-1.05.78-1.05.37 0-.14-.2-.35-.42-.45-.52-.24-.53-.36-.04-.7.41-.3 1.75-.37 2.14-.13Zm2.96 1.28c.12.47.38 1.22.57 1.67.2.45.35.93.35 1.06 0 .42-.52.26-1.13-.35-.32-.33-.54-.6-.48-.6.06 0 .03-.14-.07-.32-.1-.2-.13-.76-.06-1.37.13-1.3.5-1.34.82-.09Zm8.67.82c0 .45-.15.7-.69 1.19-.77.7-.87.73-1.16.37-.17-.2-.14-.34.15-.7.43-.56.43-.6 0-1.05l-.34-.37h2.04v.56Zm-14.16.62c-.01.63-1.13 1.32-1.66 1.03-.48-.26-.73-.65-.62-.99.08-.26.27-.31 1.2-.3.85 0 1.09.06 1.08.26Zm3 .11c.1.71-1.89 1.46-2.1.8-.04-.11.1-.23.32-.26.21-.03.4-.17.4-.3.05-.68.08-.7.7-.65.5.04.65.13.69.41Zm12.33.98c.1.13.59.29 1.07.35 2.1.25 2.05.23 2.07.78.02.44-.06.52-.61.67-.35.1-.68.3-.74.44-.08.22-.15.23-.35.06-.2-.16-.3-.16-.5 0s-.3.07-.63-.5c-.21-.37-.5-.68-.65-.68-.39 0-.73-.82-.48-1.12.25-.3.56-.3.82 0ZM17.6 25.85c.36.17.6.4.6.6 0 .26-.15.3-1.01.3-.92 0-1.01-.03-1.01-.36 0-.33.41-.8.7-.82.07 0 .4.12.72.28Zm-2.99.8c.08.13.29.26.47.3.44.08.53.6.17 1-.16.17-.34.3-.4.3-.06-.02-.33.07-.6.18-.57.23-.9.15-1.05-.28a1 1 0 0 0-.28-.4c-.23-.16.32-.98.78-1.17.54-.21.76-.2.91.07Zm15.68.87c.22.17-1.14 2.11-1.48 2.11-.07 0-.16-.26-.2-.58-.05-.42.02-.66.25-.86.18-.15.28-.38.23-.5-.05-.13 0-.27.11-.32.18-.06.96.04 1.1.15Zm-1.81.33c0 .14-.12.26-.26.26a.25.25 0 0 1 0-.51c.14 0 .26.11.26.25Zm-3.13 11.38c.22.09.2.17-.2.51-.4.35-.63.4-1.73.39-.7-.01-1.45-.08-1.68-.14-.36-.11-.27-.16.59-.34l1.6-.35c.77-.18 1.1-.2 1.42-.07Z" fill="url(#avuuk251d)"/><defs><linearGradient id="avuuk251d" x1="28" y1="11" x2="28" y2="43" gradientUnits="userSpaceOnUse"><stop stop-color="#CAB86E"/><stop offset=".55" stop-color="#D4CB90"/><stop offset="1" stop-color="#CAB76A"/></linearGradient></defs></svg>