<!-- by TradingView --><svg xmlns="http://www.w3.org/2000/svg" width="56" height="56" viewBox="0 0 56 56"><path fill="#232579" d="M0 0h56v56H0z"/><path d="M28 11l4.99 8.45-3.71 1.46L27.99 11zm-5 8.45L28 11l-1.3 9.9-3.69-1.44 3.16 5.06H20l3.6-1.36-.6-3.7zM15 33l5-8.45 3.14 2.4L15 33l9.43-3.86.56 3.86H15zm26 0l-8.14-6.04L36 24.55 41 33H31l.57-3.86L41 33zm-10 0l-3.02-2.37L24.99 33l2.99-5.25L31.01 33zm5-8.48h-6.17L33 19.45l-.6 3.7 3.6 1.37zM12 39l2.1-4h1.3l2.26 4h-1.43l-.37-.7h-2.29l-.34.7H12zm2.67-2.94l-.66 1.29h1.37l-.7-1.3zM18.7 36h-1.4v-1h4.09v1H20v3h-1.3v-3zm7.14 1.67c.12 0 .23-.01.34-.03.1-.02.2-.06.3-.12a.58.58 0 0 0 .19-.24.88.88 0 0 0 .07-.37v-1.13c0-.13-.02-.25-.06-.38a.55.55 0 0 0-.18-.24.72.72 0 0 0-.3-.12 2.31 2.31 0 0 0-.44-.04H22v4h1.3v-1.33h.6L25.33 39H27l-1.57-1.33h.41zm-.45-.72a.23.23 0 0 1-.1.04h-.04l-.13.01H23.3v-1h1.82c.24 0 .36.03.35.29v.4c0 .07 0 .12-.02.18 0 .03-.02.06-.05.08zm5.61.48h-1.7V38h3.2v1h-4.53v-4h4.53v1h-3.2v.5H31v.93zm6.75-2.18a.74.74 0 0 0-.3-.18c-.15-.05-.3-.07-.46-.07h-2.5c-.16 0-.32.02-.48.06-.14.03-.27.1-.39.18a.85.85 0 0 0-.26.32c-.06.15-.1.3-.1.47v1.84c0 .15.03.3.09.45a.98.98 0 0 0 .62.6c.17.05.35.08.53.08h2.38c.16 0 .32-.02.48-.08a.86.86 0 0 0 .53-.53c.03-.12.06-.25.06-.37v-.47l-1.24-.27v.66h-2.2v-1.95h2.2v.56l1.24-.19v-.5c0-.11-.02-.23-.05-.34a.63.63 0 0 0-.15-.27zm2.7-.25h1.3L44 39h-1.43l-.37-.7h-2.3l-.33.7h-1.23l2.1-4zm.56 1.06l-.66 1.29h1.37l-.71-1.3z" fill="#fff"/></svg>