<!-- by TradingView --><svg width="56" height="56" viewBox="0 0 56 56" xmlns="http://www.w3.org/2000/svg"><path fill="url(#asoz5hcrd)" d="M0 0h56v56H0z"/><path d="M19.46 41.6c10.07 6.17 23.2-.15 24.38-12.02l.04-.4c.07-.58.13-1.14.08-1.72a21.89 21.89 0 0 0-.45-3v-.2a.7.7 0 0 0-.03-.2 16.11 16.11 0 0 0-16.9-12.01c-2.13.16-5.58.58-5.58 3.43v11.33c0 1.43.2 2.44.34 3.03a6.79 6.79 0 1 0 13.1-3.47c-1.14-3.7-4.47-5.45-8.27-4.84-.06 0-.17-.08-.17-.08V17.2c0-.11.13-.17.24-.19a11.2 11.2 0 0 1 9.16 2.79c8.08 7.44 1.9 20.4-8.86 19.29-.78-.08-1.74-.34-2.9-.79-4.88-2.2-7.4-6.61-6.72-11.92.05-.45.21-.93.38-1.4.23-.7.46-1.38.4-2-.2-1.97-2.59-2.9-4.02-1.48-.33.33-.63.93-.91 1.8-2.23 7 .53 14.34 6.69 18.3Zm1.07-1.2Zm9.45-13.17a2.18 2.18 0 0 1-.34 2.44 2.27 2.27 0 0 1-3.71-.5 2.18 2.18 0 0 1 .34-2.44 2.27 2.27 0 0 1 3.7.5Z" fill="url(#bsoz5hcrd)"/><path d="M29.17 16.97c-.96-.1-1.94-.1-2.93.03-.1.02-.24.08-.24.2v.05a9.42 9.42 0 0 0-5 2.87v-4.64c0-2.85 3.45-3.27 5.58-3.43A16.11 16.11 0 0 1 43.5 24.1c-4.42-4.9-9.49-7.03-14.33-7.14Z" fill="url(#csoz5hcrd)"/><path d="m43.47 23.99.01.06c.29 1.07.4 2.3.48 3.4.41 5.2-2.57 10.63-6.73 13.57-4.96.48-8.45-.04-10.9-1.97l.2.03c10.78 1.1 16.95-11.85 8.87-19.3a10.87 10.87 0 0 0-6.23-2.8c4.82.1 9.89 2.17 14.3 7.01Z" fill="url(#dsoz5hcrd)"/><defs><linearGradient id="asoz5hcrd" x1="10.42" y1="9.71" x2="68.15" y2="76.02" gradientUnits="userSpaceOnUse"><stop stop-color="#1A1E21"/><stop offset="1" stop-color="#06060A"/></linearGradient><linearGradient id="bsoz5hcrd" x1="15.53" y1="20.26" x2="34.37" y2="29.29" gradientUnits="userSpaceOnUse"><stop offset=".05" stop-color="#04D5FB"/><stop offset=".39" stop-color="#2670ED"/><stop offset="1" stop-color="#03D5FB"/></linearGradient><linearGradient id="csoz5hcrd" x1="21.13" y1="17.15" x2="36.37" y2="18.05" gradientUnits="userSpaceOnUse"><stop stop-color="#00E1FD"/><stop offset="1" stop-color="#206DF0"/></linearGradient><linearGradient id="dsoz5hcrd" x1="35.15" y1="16.97" x2="35.15" y2="41.19" gradientUnits="userSpaceOnUse"><stop stop-color="#04E1FB"/><stop offset="1" stop-color="#2674F0"/></linearGradient></defs></svg>