<!-- by TradingView --><svg width="56" height="56" viewBox="0 0 56 56" xmlns="http://www.w3.org/2000/svg"><path fill="#F0F3FA" d="M0 0h56v56H0z"/><path fill-rule="evenodd" d="M28 45a17 17 0 1 0 0-34 17 17 0 0 0 0 34Zm0-1a16 16 0 1 0 0-32 16 16 0 0 0 0 32Z" fill="#D9D9D9"/><path d="M37 38.83A14.07 14.07 0 0 1 28.08 42 14.04 14.04 0 0 1 14 28c0-7.73 6.3-14 14.08-14 3.36 0 6.44 1.17 8.86 3.12l-1.33 1.6a12 12 0 1 0 .04 18.52L37 38.83Z" fill="#4069B2"/><path d="M28 28v4h1v-4h4v-1h-4v-4h-1v4h-4v1h4Z" fill="#434A4F"/></svg>