<!-- by TradingView --><svg xmlns="http://www.w3.org/2000/svg" width="56" height="56" viewBox="0 0 56 56"><path fill="#F0F3FA" d="M0 0h56v56H0z"/><path fill-rule="evenodd" d="M44 15H12v25h32V15zm-29 4h3.5a4 4 0 0 1 .74 7.93 4.57 4.57 0 0 1-.78 9.07H14v-1h.16c.72 0 .84-.33.84-1V21c0-.67-.12-1-.84-1H14v-1h1zm2 1h.78c1.5 0 2.72 1.03 2.72 2.3v1.9c0 1.27-1.22 2.3-2.72 2.3H17V20zm0 7.48h.9c1.7 0 3.1 1.23 3.1 2.75v2.24c0 1.43-1.01 2.46-2.57 2.57-.19.02-.38 0-.56-.05-.51-.12-.87-.53-.87-1v-6.5zM24.5 36H30v-1h-.65c-.55 0-1.35-.22-1.35-.73V28h1.78c.93 0 1.22.43 1.22 1.28v1.74h1V24h-1v1.27c0 .86-.3 1.73-1.22 1.73H28v-7h2.57c1.48 0 2.43 1 2.43 2.36v.7h1V19h-9.5v1h.04c.75 0 1.46 0 1.46.81v13.46c0 .75-.61.74-1.3.74h-.2V36zm12-17h5v1h-.75c-.51 0-.75.32-.75.83v13.12c0 .5.24 1.05.75 1.05h.75v1h-5v-1h.56c.51 0 .94-.54.94-1.05V20.83c0-.51-.43-.83-.94-.83h-.56v-1z" fill="#0C59A1"/></svg>