<!-- by TradingView --><svg xmlns="http://www.w3.org/2000/svg" width="56" height="56" viewBox="0 0 56 56"><path fill="#F0F3FA" d="M0 0h56v56H0z"/><path d="M30.55 11C38.32 12.28 44 18.81 44 26.47c0 7.76-5.85 14.4-13.77 15.52l-.39-.32a4.8 4.8 0 0 0 1.7-1.75c.16-.32.22-.64.22-.96 0-.26-.06-.58-.17-.85a14.08 14.08 0 0 0 10.17-10.64c1.47-7.39-3.55-14.6-11.2-16.04V11zm.77 12.01l-1.15-.85.11-2.65c0-.11.06-.22.11-.32.77-.96.82-2.34.1-3.4-.2-.32-.37-.8.34-.9a3.73 3.73 0 0 1 4.26 2.49 3.4 3.4 0 0 1-1.37 3.88c-.92.74-2.4 1.8-2.4 1.75zm-5.85-7.17c.33-.32.5-1.01-.55-.96-.7 0-3.88.05-4.1 3.5-.05 1.13.28 2.4 3.34 4.42.24.2.73.56 1.34 1.02.9.67 2.08 1.54 3.09 2.33l.21.22c.5.5 1.19 1.18 1.04 2.65-.05.53-.05 1.33.77.8.93-.53 3.55-2.93.65-6.27l-1.1-.82c-1.3-.95-3.21-2.37-3.76-2.75l-.23-.23c-.58-.58-1.28-1.3-1.14-2.74.06-.38.22-.8.44-1.17zm-.05 8.66c.38-.16.54.06.54.22a19.29 19.29 0 0 0 .06 1.17c.05.8.38 1.54.87 2.17.13.11.56.42 1.1.8 1.01.72 2.4 1.71 2.84 2.13 2.57 2.6.16 4.57-.6 5.1a.6.6 0 0 1-.33.1c-.22-.04-.38-.2-.33-.42.37-1.94-.88-2.7-1.51-3.09l-.07-.04c-1.26-.9-2.74-2.02-3.34-2.5-2.4-2.29 0-5.37.77-5.64zm.82 7.34c0-.16-.11-.43-.6-.16a3.2 3.2 0 0 0-.99 3.99c.3.68 1.43 1.44 2.56 2.2.54.37 1.08.73 1.54 1.1.5.52.71 1.22.6 1.85-.05.22-.1.8.66.38.98-.64 2.18-2.18.65-3.94a99.3 99.3 0 0 0-3.28-2.5 2.33 2.33 0 0 1-1.03-1.96c-.11-.38-.11-.7-.11-.96zm-.5 5.85c.6-.64.77.05.77.2 0 .38 0 .7.05 1.02.22.8.86 1.28 1.44 1.7.15.1.3.21.42.32a8.32 8.32 0 0 1 2.02 1.86 2.72 2.72 0 0 1-.98 3.4c-.38.27-.44 0-.44-.26.21-1.18.07-1.52-.04-1.78l-.01-.03c-.06-.16-.96-.78-1.8-1.36-.61-.43-1.2-.83-1.43-1.03-1.79-1.75-.43-3.5-.03-4l.03-.04zm1.04 5.26l.11 3.14c0 .16-.1.47-.44.26a2.05 2.05 0 0 1-1.14-1.97c0-.63.32-1.22.82-1.59.32-.27.65-.05.65.16zm-1.42-1.01c-8.8-1.49-14.65-9.62-13.12-18.18A16 16 0 0 1 25.47 11v.43C18.86 12.7 14 18.33 14 24.88c0 6.32 4.86 11.74 10.81 13.34a4.4 4.4 0 0 0-.49 1.7c.11.74.44 1.49 1.04 2.02zm.88-22.71l3.38 2.32s.17-3.46.17-3.96-.22-.59-.44-.59h-2.73c-.27 0-.5.25-.5.54l.12 1.69zm.21 5.91a3.09 3.09 0 0 0 1.2 2.87c.34.27 1.81 1.33 1.81 1.33v-.07c.01-.38.05-1.73-.65-2.32-.39-.32-2.36-1.8-2.36-1.8zm1.32 9.2a2.32 2.32 0 0 1-1.04-2.08s1.7 1.23 2.07 1.44c.5.4.44 1.13.4 1.52l-.01.18c-.05-.05-.31-.23-.6-.44-.35-.25-.73-.53-.82-.62zm-.82 3.77c-.06.7.27 1.33.82 1.8a13.66 13.66 0 0 0 1.2.86c.1-.53-.06-1.12-.5-1.49-.32-.32-1.52-1.17-1.52-1.17zm1.82 6.33l-1.55-1.17.1 4.3c0 .16.37.43.73.43s.67-.27.67-.48l.05-2.6v-.48z" fill="#8B6D4A"/></svg>