<!-- by TradingView --><svg width="56" height="56" viewBox="0 0 56 56" xmlns="http://www.w3.org/2000/svg"><path fill="#F0F3FA" d="M0 0h56v56H0z"/><path d="m4.52 28.38-.02-3.06c0-.35-.15-.43-.4-.46v-.2c.46 0 .84.03 1.2.03.42 0 .64-.03.86-.03 1.03 0 2.26.43 2.26 1.61 0 .78-.64 1.28-1.34 1.5v.01c.87.24 1.45.72 1.45 1.66 0 1.18-1.2 1.56-2.2 1.56H4v-.2c.4-.05.52-.18.52-.57v-1.85Zm.99-.8.42.02c.82 0 1.37-.5 1.37-1.3s-.38-1.32-1.37-1.32c-.26 0-.37 0-.37.18l-.05 2.42Zm0 2.5c0 .5.06.59.64.59.79 0 1.26-.56 1.26-1.26 0-.83-.52-1.45-1.4-1.45h-.5v2.13Zm4.67-.63-.2.67c-.04.12-.06.25-.06.38 0 .18.1.32.28.32V31H8.88v-.18c.3-.06.6-.77.74-1.13l1.64-4.08h.09l1.68 4.26c.27.67.34.92.62.95V31H12.1v-.18c.16 0 .25-.1.25-.28 0-.1-.04-.23-.1-.38l-.26-.71h-1.8m1.66-.36-.78-2-.74 2h1.52Zm2.1 1.73c.26-.05.38-.18.38-.44v-1.94c0-.65-.04-1.3-.04-1.95 0-.35-.04-.54-.43-.62v-.16l.74.03c.23 0 .46-.03 1.04-.03 1.38 0 2.06.68 2.06 1.5 0 .76-.71 1.25-1.4 1.42l1.55 1.77c.12.14.38.39.59.42V31h-1.53v-.18c.06 0 .08-.03.09-.09 0-.06-.03-.13-.12-.24l-1.27-1.47c-.12-.13-.28-.33-.47-.33v1.5c0 .32.04.55.44.63V31h-1.64v-.18m1.21-2.36.3.03c.7 0 1.31-.47 1.31-1.2 0-.69-.32-1.31-1.16-1.31-.2 0-.41.02-.41.21l-.04 2.27Zm6.82-3.6c-.34.05-.37.29-.37.6l-.02 1.94c.23 0 1.28.06 1.78.06.4 0 1.46-.06 1.89-.06-.02-.6-.04-1.2-.04-1.82 0-.38-.04-.68-.42-.72v-.2c.32 0 .63.03.95.03.32 0 .64-.03.95-.03v.2c-.34.05-.37.29-.37.6 0 .89-.04 1.96-.04 2.93v1.76c0 .3.1.64.45.65v.2h-1.9v-.2c.3 0 .46-.26.46-.65l-.03-2.18c-.44 0-1.5-.06-1.9-.06-.5 0-1.55.06-1.78.06l-.02 2.18c0 .3.09.64.44.65v.2h-1.88v-.2c.3 0 .46-.26.46-.65v-1.3c0-1.1-.08-2.7-.08-3.27 0-.37-.04-.67-.42-.72v-.2c.31 0 .63.04.95.04.31 0 .64-.04.95-.04v.2m6.3 4.6-.2.66c-.03.12-.05.25-.05.38 0 .18.09.32.27.32V31h-1.32v-.18c.31-.06.6-.77.75-1.13l1.63-4.08h.1l1.67 4.26c.27.67.34.92.62.95V31H30.2v-.18c.16 0 .25-.1.25-.28 0-.1-.04-.23-.09-.38l-.27-.71h-1.8m1.67-.36-.78-2-.74 2h1.52Zm2.1 1.73c.25-.05.37-.18.37-.44v-1.94c0-.65-.04-1.3-.04-1.95 0-.35-.03-.54-.43-.62v-.16l.75.03c.23 0 .46-.03 1.04-.03 1.38 0 2.05.68 2.05 1.5 0 .76-.7 1.25-1.39 1.42l1.55 1.77c.12.14.38.39.58.42V31h-1.52v-.18c.05 0 .07-.03.08-.09 0-.06-.02-.13-.12-.24l-1.27-1.47c-.12-.13-.28-.33-.46-.33v1.5c0 .32.04.55.43.63V31h-1.63v-.18m1.2-2.36.3.03c.7 0 1.31-.47 1.31-1.2 0-.69-.32-1.31-1.15-1.31-.2 0-.42.02-.42.21l-.04 2.27Zm4 .35c0-.9-.03-1.87-.03-2.55 0-.29-.12-.36-.33-.39v-.16c.38 0 .7.03 1 .03.35 0 .53-.03.71-.03.86 0 1.89.36 1.89 1.34 0 .65-.54 1.06-1.11 1.24v.02c.72.2 1.2.6 1.2 1.38 0 .98-1.03 1.31-1.87 1.31H36.8v-.18c.34-.04.44-.15.44-.47V28.8m.76-.67.41.02c.69 0 1.15-.42 1.15-1.08 0-.66-.32-1.1-1.15-1.1-.21 0-.41 0-.41.15v2.01Zm0 2.1c0 .4.12.48.6.48.66 0 1.05-.47 1.05-1.06 0-.69-.43-1.2-1.17-1.2H38v1.77Zm6.13-4.63c1.77 0 2.98.99 2.98 2.74 0 1.75-1.2 2.64-2.98 2.64-1.77 0-2.98-.9-2.98-2.64 0-1.75 1.2-2.74 2.98-2.74Zm0 5.06c1.3 0 1.91-1.07 1.91-2.32 0-1.25-.6-2.42-1.91-2.42-1.3 0-1.91 1.17-1.91 2.42s.6 2.32 1.91 2.32Zm3.38.15c.26-.05.38-.18.38-.44v-1.94c0-.65-.04-1.3-.04-1.95 0-.35-.04-.54-.43-.62v-.16c.25 0 .5.03.74.03.23 0 .47-.03 1.04-.03 1.38 0 2.06.68 2.06 1.5 0 .76-.7 1.25-1.4 1.42l1.56 1.77c.11.14.37.39.58.42V31h-1.53v-.18c.06 0 .08-.03.09-.09 0-.06-.03-.13-.12-.24l-1.27-1.47c-.12-.13-.28-.33-.47-.33v1.5c0 .32.04.55.44.63V31H47.5v-.18m1.21-2.36.3.03c.7 0 1.31-.47 1.31-1.2 0-.69-.32-1.31-1.15-1.31-.2 0-.42.02-.42.21l-.04 2.27ZM8.48 33H9.8c.6 0 .93.33.93.77 0 .27-.14.47-.43.62.2.07.28.12.37.22.1.11.16.27.16.46a.8.8 0 0 1-.42.73c-.16.08-.4.2-.68.2H8.48v-3Zm.89 1.24c.22 0 .37-.02.45-.07a.3.3 0 0 0 .17-.28c0-.22-.14-.3-.56-.3h-.27v.65h.2Zm.06 1.17c.25 0 .38-.02.49-.08.1-.06.16-.16.16-.29 0-.16-.1-.27-.28-.32a1.95 1.95 0 0 0-.41-.02h-.23v.71h.27Zm5.14.59h-.76l-.21-.68h-1.07l-.23.68h-.7l1.14-3h.8l1.03 3Zm-1.47-2.17-.4 1.01h.76l-.36-1.01ZM18.39 36h-.7l-1.43-1.82V36h-.69v-3h.66l1.47 1.87V33h.69v3Zm2.02-1.7 1-1.3h.85l-1.1 1.4L22.4 36h-.95l-1.05-1.35V36h-.68v-3h.68v1.3Zm7.33.02c-.02.31-.1.55-.34.87.18.1.25.13.55.21l-.4.56c-.29-.1-.4-.15-.65-.31-.3.23-.58.33-.96.33-.66 0-1.1-.35-1.1-.9 0-.37.2-.6.67-.75a.97.97 0 0 1-.2-.57c0-.2.08-.36.21-.5.17-.16.4-.23.7-.23.53 0 .83.23.83.63a.7.7 0 0 1-.2.5c-.1.11-.2.17-.44.28.18.2.27.3.48.45a.9.9 0 0 0 .16-.57h.7Zm-2.24.75c0 .22.21.4.47.4.18 0 .3-.06.46-.17a3.39 3.39 0 0 1-.63-.6c-.2.1-.3.2-.3.37Zm1-1.41c0-.15-.11-.25-.3-.25-.2 0-.33.12-.33.3 0 .13.05.24.2.39.31-.13.44-.26.44-.44ZM31.7 36H31v-2.4h-.82V33h2.37v.6h-.86V36Zm1.84-3h1.04c.44 0 .6.02.77.12.25.14.4.38.4.69 0 .35-.17.6-.53.79l.76 1.4h-.85l-.62-1.28h-.3V36h-.68v-3m.9 1.22h.03c.36 0 .57-.12.57-.37 0-.12-.06-.21-.16-.26-.09-.05-.16-.06-.36-.06H34.22v.68h.2ZM37.64 33v1.74c0 .3.03.42.1.53.1.11.28.19.51.19.27 0 .47-.1.54-.26.05-.1.07-.22.07-.46V33h.69v1.75c0 .44-.06.65-.23.86-.21.25-.58.38-1.07.38-.58 0-.97-.18-1.16-.51-.11-.19-.14-.35-.14-.73V33h.7Zm4.67.83c-.09-.23-.25-.34-.48-.34-.22 0-.39.13-.39.3 0 .1.06.2.16.24l.48.17c.26.08.46.17.6.27.16.12.27.35.27.59 0 .28-.14.54-.4.71-.2.15-.46.22-.81.22-.35 0-.6-.06-.81-.2a.84.84 0 0 1-.37-.44l.65-.26c.1.25.28.37.56.37.26 0 .42-.13.42-.32 0-.11-.06-.2-.19-.26-.1-.06-.1-.06-.44-.15-.22-.06-.48-.2-.61-.34a.8.8 0 0 1-.22-.53.8.8 0 0 1 .3-.61c.2-.16.48-.24.83-.24.56 0 .89.17 1.05.55l-.6.27Zm3 2.17h-.68v-2.4h-.83V33h2.38v.6h-.86V36Z" fill="#006FBA"/><path d="M27.9 37.81c2.34.16 4.4.48 6.67.65.76.06 1.71.2 2.35.26.02 0 .36-.18.41-.19.72-.12 1.2.4 1.53.62.63.45 1.41.7 1.34 1.7-.14.06-.13.08-.32.12-.33.14-1.23-.2-1.63-.34-1.48-.52-3.14-.62-4.8-1.1-3.48-.98-8.85-.9-11.63-.09-1.12.33-2.32.61-3.5.97-.35.1-1.04.47-1.37.33a7.4 7.4 0 0 1-2.23-2.42l.23.02c.5.5 1.9.57 2.74.43 2.44-.4 4.98-.49 7.51-.87.57-.1 2.34.09 2.7-.09Z" fill="#5CAADE"/><path d="m29.61 19.33.23.22c-1.18 1.3-3.48 2.92-4.69 2.1-.34-1.84-2.25-4.21-4.13-6.05l-1.12.01c-.6.2-3.4 2.63-3.88 3.57-.31.6.05.89-.43 1.59-.77.11-1.45.73-2.23.94-.74.19-1.61.2-2.35.37l-.12-.11.22-.23c.17-1.14 2.29-3.21 3.32-3.9l1.55-1.61c2.43-1.6 4.71-3.05 7.16-1.69a6.3 6.3 0 0 1 1.6 1.79c.8 1.22 2.64 2.66 3.64 3.34.47-.1.73-.05 1.23-.34Z" fill="#97D2B5"/><path d="M27.66 22.37c-.66.52-1.53 1.23-4.13.89.35-.74.93-1.47 1.49-2.2 1.34-1.76 3.77-3.05 5.26-3.51 4.38-1.38 7.51.1 11.56 2.43 1.1.63 2.39 1.4 3.4 2.35v.1l-.12.11c-.77-.16-1.67.4-2.44.18-1.42-.4-2.56-1.88-3.94-2.61a8.5 8.5 0 0 0-11.08 2.26Z" fill="#00AA4F"/></svg>