<!-- by TradingView --><svg width="56" height="56" viewBox="0 0 56 56" xmlns="http://www.w3.org/2000/svg"><path fill="#0D1E72" d="M0 0h56v56H0z"/><path d="M28 12A16.1 16.1 0 0 0 17 16.35 15.93 15.93 0 0 0 12 27h4.01a11.94 11.94 0 0 1 3.84-7.8A12.06 12.06 0 0 1 39.97 27H44a15.95 15.95 0 0 0-5.02-10.65A16.1 16.1 0 0 0 28 12Z" fill="#0171BB"/><path d="M39.97 29a12.55 12.55 0 0 1-3.84 8.1A11.82 11.82 0 0 1 28 40.36c-3.01 0-5.92-1.17-8.14-3.28-2.22-2.1-3.59-5-3.84-8.09H12c.37 4.1 2.21 7.91 5.17 10.69A15.77 15.77 0 0 0 27.97 44c3.99 0 7.84-1.54 10.8-4.31A16.73 16.73 0 0 0 43.92 29h-3.96Z" fill="#57AC32"/><path d="M37.91 26.9a9.73 9.73 0 0 0-3.2-6.34 10.07 10.07 0 0 0-13.45 0 9.73 9.73 0 0 0-3.2 8.31 9.68 9.68 0 0 0 3.52 6.82c1.02.85 2.2 1.48 3.49 1.87a10.11 10.11 0 0 0 10.78-3.29 9.75 9.75 0 0 0 2.06-7.37Z" fill="#F3B800"/></svg>