<!-- by TradingView --><svg width="56" height="56" viewBox="0 0 56 56" xmlns="http://www.w3.org/2000/svg"><path fill="#05294D" d="M0 0h56v56H0z"/><path fill-rule="evenodd" d="M11 30v7h5.74c1.84 0 3.32-1 3.32-3.05 0-1.64-1.16-2.6-1.74-2.88.3-.26.68-1.02.68-2.02A2.87 2.87 0 0 0 16.45 26H14v2h2.15c.62 0 .85.35.85 1s-.23 1-.85 1H11Zm2 2v3h3.67c.73 0 1.33-.67 1.33-1.5s-.6-1.5-1.33-1.5H13Zm8-6h2v2h-2v-2Zm0 3h2v8h-2v-8Zm4 2v4.08c.05.64.64 1.92 2.6 1.92.66 0 1.2-.12 1.4-.18v-1.93a4 4 0 0 1-1.13.11c-.69 0-.87-.19-.87-.66V31h2v-2h-2v-3h-2v3h-1v2h1Zm13 2c0 .17-.01.34-.03.5h-5.9a2.02 2.02 0 0 0 3.7.5h2.1a4 4 0 1 1 .13-1Zm-5.73-1a2.02 2.02 0 0 1 3.5 0h-3.5Z" fill="#fff"/><path fill="#18569F" d="M32 16h3v3h-3zM35 19h3v3h-3z"/><path fill="#2275D1" d="M35 16h3v3h-3z"/><path fill="#18569F" d="M38 22h3v3h-3z"/><path fill="#2275D1" d="M38 19h3v3h-3z"/><path fill="#69ADFE" d="M38 16h3v3h-3z"/><path fill="#18569F" d="M41 25h3v3h-3z"/><path fill="#2275D1" d="M41 22h3v3h-3z"/><path fill="#69ADFE" d="M41 19h3v3h-3z"/><path fill="#99C6FF" d="M41 16h3v3h-3z"/></svg>