<!-- by TradingView --><svg width="56" height="56" viewBox="0 0 56 56" xmlns="http://www.w3.org/2000/svg"><path fill="#F0F3FA" d="M0 0h56v56H0z"/><path d="M28 17h4v6.8l6.19-6.8H43l-7.82 8.6L43 32.5V37L32 26.99V36h-4V17Z" fill="#2A4E6E"/><path fill-rule="evenodd" d="M13 17h7.48a5.09 5.09 0 0 1 3.11 9.11A5.09 5.09 0 0 1 21.91 36H13V17Zm4 3h2.5a2.5 2.5 0 0 1 0 5H17v-5Zm0 13h3.5a2.5 2.5 0 0 0 0-5H17v5Z" fill="#2A4E6E"/><path d="M13 40c2.25-1 8.4-3 15-3s12.75 2 15 3c-4.44-1.35-11.85-1.53-15-1.5-3.15-.03-10.56.15-15 1.5Z" fill="#B90000"/></svg>