<!-- by TradingView --><svg width="56" height="56" viewBox="0 0 56 56" xmlns="http://www.w3.org/2000/svg"><path fill="#F0F3FA" d="M0 0h56v56H0z"/><path d="M28 44a16 16 0 1 0 0-32 16 16 0 0 0 0 32Z" fill="url(#aja2sznam)"/><path d="M32.57 28.67a61.55 61.55 0 0 1-1.93.32 249.58 249.58 0 0 0-.94.15l-.11.02c-1.04.17-2.42.4-3.74.76h-.02c-.57.16-1.12.34-1.64.56-.51.2-.98.45-1.39.73a1.3 1.3 0 0 0-.5.56.57.57 0 0 0-.03.18v.01c0 .1.07.22.16.32.12.13.28.25.46.35.24.15.5.27.7.36l.13.06c1.17.56 2.48.89 3.73 1.2l.33.08a7.9 7.9 0 0 1 .37.1l.06.03.05.01h.01c.26.1.51.19.7.32.25.17.4.4.35.7a.84.84 0 0 1-.1.3 1.5 1.5 0 0 1-.21.26l-.03.03-.06.05-.01.02h-.01v.01c-.27.25-.62.48-1.04.7-.41.21-.89.42-1.42.61-.57.22-1.2.43-1.88.64a108.91 108.91 0 0 1-6.85 1.85c-.2.05-.28.05-.44-.1a15.95 15.95 0 0 1-5.26-12.34v-.07c.06-1.78.41-3.49 1.01-5.08l.01-.03a.3.3 0 0 1 .17-.13l.05-.02c.53-.2 1.08-.44 1.64-.67a7.58 7.58 0 0 1 1.9-.56 3.05 3.05 0 0 1 1.5.18c.23.08.5.2.77.35a15.13 15.13 0 0 1 1.95 1.42c.35.3.67.6 1 .9l.59.57a16.13 16.13 0 0 0 1.25 1.15c.18.15.34.27.5.35.4.23.74.13 1.14-.08.24-.12.53-.27.94-.38a4.42 4.42 0 0 1 2.55.1c.3.1.6.24.9.4.3.16.6.34.9.54a28.82 28.82 0 0 1 .92.64l.01.01 1.02.76.02.01.28.22c.06.04.1.1.12.18.03.15-.07.3-.23.33l-.35.06Zm10.67-5.55A16 16 0 0 1 27.94 44c-.96 0-1.9-.1-2.82-.26a.28.28 0 0 1 .05-.47l.3-.15c2.16-1.1 4.97-2.52 6.82-4.17l.02-.02c.31-.28.62-.57.9-.86.28-.3.52-.59.73-.89.2-.3.37-.62.47-.94.1-.31.14-.63.1-.96-.05-.44-.34-.8-.71-1.08a9.45 9.45 0 0 0-2.1-1.12c-.4-.16-.78-.3-1.1-.4l-.77-.27c-.25-.1-.47-.19-.66-.3-.27-.14-.42-.3-.47-.44-.07-.17 0-.33.12-.47.17-.18.45-.31.63-.38.6-.23 1.22-.43 1.84-.62 1.2-.37 2.38-.74 3.44-1.4.28-.18.55-.38.8-.6 1.48-1.29 2.6-2.95 4.1-4.24.24-.2.5-.42.78-.61.22-.15.45-.28.68-.38a2.6 2.6 0 0 1 1.27-.2c.2.02.42.05.66.1h.04c.14.04.14.13.18.25Zm-20.97 8.83" fill="#466FB5"/><defs><linearGradient id="aja2sznam" x1="28" y1="12" x2="28" y2="44" gradientUnits="userSpaceOnUse"><stop offset=".03" stop-color="#798FC8"/><stop offset=".14" stop-color="#9FACD8"/><stop offset=".3" stop-color="#CFD4ED"/><stop offset=".43" stop-color="#ECEEF8"/><stop offset=".49" stop-color="#F7F8FC" stop-opacity="0"/></linearGradient></defs></svg>