<!-- by TradingView --><svg xmlns="http://www.w3.org/2000/svg" width="56" height="56" viewBox="0 0 56 56"><path fill="url(#akksw1ryh)" d="M0 0h56v56H0z"/><path d="M43.93 33l1.92-1.93-1.92-1.92L42 31.07 43.93 33z" fill="#FC3D45"/><path d="M43.93 27.85l1.92-1.92L43.93 24 42 25.93l1.93 1.92z" fill="#FDB300"/><path d="M49.07 27.85L51 25.93 49.07 24l-1.92 1.93 1.92 1.92z" fill="#00CCE5"/><path d="M49.07 33L51 31.07l-1.93-1.92-1.92 1.92L49.07 33z" fill="#E9238A"/><path d="M46.5 30.43l1.93-1.93-1.93-1.93-1.93 1.93 1.93 1.93z" fill="#00B47E"/><path fill-rule="evenodd" d="M7 20h6.05c1.9 0 3.45 1.8 3.45 4 0 1.06-.36 2.02-.93 2.74a3.9 3.9 0 0 1 1.93 3.39A3.82 3.82 0 0 1 13.73 34H7V20zm3 2.5h2.5a1.5 1.5 0 0 1 0 3H10v-3zm0 5.5h3.2c1 0 1.8.78 1.8 1.75s-.8 1.75-1.8 1.75H10V28zm8-5h3v1.25A3.27 3.27 0 0 1 23.54 23c1.3 0 2.43.8 3 1.98a3.37 3.37 0 0 1 3-1.98c1.87 0 3.39 1.66 3.39 3.7V34H18V23zm3 4.3c0-.8.67-1.47 1.5-1.47s1.5.66 1.5 1.47V34h-3v-6.7zm6 0c0-.8.67-1.47 1.5-1.47s1.5.66 1.5 1.47V34h-3v-6.7zm8 4.1v-5.9h-1V23h1v-2h3v2h2v2.5h-2v5.34c0 .36.4.66.77.66H40V34h-2.37A2.62 2.62 0 0 1 35 31.4z" fill="#fff"/><defs><linearGradient id="akksw1ryh" x1="10.42" y1="9.71" x2="68.15" y2="76.02" gradientUnits="userSpaceOnUse"><stop stop-color="#1A1E21"/><stop offset="1" stop-color="#06060A"/></linearGradient></defs></svg>