<!-- by TradingView --><svg width="56" height="56" viewBox="0 0 56 56" xmlns="http://www.w3.org/2000/svg"><path fill="#F0F3FA" d="M0 0h56v56H0z"/><path d="M6.89 23.08c.04.04.1.11.11.16V28.86l-.1.1.1.03c.06.01.34.17.64.36.63.37.82.48 1.05.55.82.26 1.83 0 2.47-.65.65-.66.89-1.68.6-2.56a2.54 2.54 0 0 0-2.03-1.67 3.5 3.5 0 0 0-1.15.04c-.34.1-.65.29-.8.5a.38.38 0 0 1-.1.12s-.02-.6-.02-1.34V23h-.85l.08.08Zm2.96 2.61c.1.02.26.08.38.14.17.09.25.15.43.34.18.19.25.27.33.45.3.62.27 1.32-.08 1.85a1.9 1.9 0 0 1-2.36.7c-.1-.04-.35-.18-.54-.31l-.35-.24V26.4l.14-.13c.29-.29.53-.44.85-.54.33-.1.86-.12 1.2-.04ZM12.95 23.08l.05.08v6.61a.48.48 0 0 1-.08.17l-.05.06h.49c.47 0 .49 0 .45-.05-.12-.14-.12 0-.12-3.6V23h-.8l.06.08ZM21.9 25.03c-.74.14-1.33.52-1.7 1.1-.22.33-.34.7-.38 1.13-.11 1.31.71 2.39 2.06 2.69.19.04.33.05.64.05.35 0 .43 0 .75-.08.44-.1.53-.1.63-.01l.07.06v-1.05l-.11.09c-.32.23-.6.32-1.15.34-.56.02-.9-.05-1.3-.27a1.92 1.92 0 0 1-.9-1.28l-.02-.1h4.63l-.05-.09a.85.85 0 0 1-.06-.3 2.56 2.56 0 0 0-1.9-2.23c-.31-.08-.9-.1-1.21-.05Zm1.07.68c.55.13.97.46 1.21.96.1.19.15.31.14.33H20.5l.08-.16c.23-.56.65-.94 1.2-1.1.35-.12.8-.13 1.2-.03ZM46.7 25.03c-.73.14-1.32.52-1.69 1.1-.22.33-.34.7-.38 1.13-.11 1.31.71 2.39 2.07 2.69.18.04.32.05.63.05.36 0 .44 0 .75-.08.44-.1.53-.1.63-.01l.08.06v-1.05l-.12.09c-.32.23-.6.32-1.14.34-.57.02-.9-.05-1.3-.27a1.92 1.92 0 0 1-.91-1.28l-.02-.1h4.63l-.05-.09a.85.85 0 0 1-.06-.3 2.56 2.56 0 0 0-1.9-2.23c-.31-.08-.9-.1-1.21-.05Zm1.09.68c.54.13.97.46 1.2.96.1.19.16.31.14.33H45.3l.08-.16c.24-.56.65-.94 1.2-1.1.35-.12.8-.13 1.2-.03ZM26.68 25.04c-.66.16-1.02.71-.94 1.42.05.38.25.7.58.9a6 6 0 0 0 .52.24c.2.1.43.2.5.25.17.11.33.3.38.46.06.17.06.46 0 .6-.13.3-.5.46-1.02.43a1.62 1.62 0 0 1-1-.44l-.13-.12v1.12l.1-.05.08-.05.33.08a3 3 0 0 0 1.17.1 1.45 1.45 0 0 0 1.16-1.79c-.1-.5-.39-.8-1.04-1.07-.78-.33-.96-.49-.96-.88 0-.23.1-.41.28-.5.16-.08.43-.12.63-.08.16.02.49.16.63.27l.05.04v-.95l-.05.03c-.07.04-.25.03-.5-.01a2.11 2.11 0 0 0-.77 0ZM30.76 25.04a2.47 2.47 0 0 0-1.92 2.49c0 .42 0 .47.07.68.29.97 1.05 1.65 2 1.78.25.03.58 0 1.08-.1l.32-.06.09.05.08.05v-1.09l-.15.13c-.34.28-.7.4-1.13.37a1.68 1.68 0 0 1-1.18-.53 1.66 1.66 0 0 1-.45-.76 2.2 2.2 0 0 1 0-1.03 1.8 1.8 0 0 1 1.97-1.36c.35.04.44.09.9.43.04.03.04.02.04-.5v-.55l-.08.07c-.09.08-.14.08-.4.01-.49-.12-.9-.15-1.24-.08ZM35.18 25.03a2.52 2.52 0 0 0-2 3.06 2.56 2.56 0 0 0 2.6 1.91c.64 0 1.01-.14 1.35-.48l.19-.2.01.28v.26h.86l-.07-.05-.12-.12v-3.51c.01-.06.07-.13.1-.17l.05-.07-.12-.02c-.17-.02-.27-.08-.64-.32-.41-.28-.7-.43-1-.52-.19-.06-.27-.07-.63-.08-.27 0-.46 0-.58.03Zm.73.63c.39.05.69.19 1.18.55l.24.17v2.22l-.16.16a2 2 0 0 1-.88.52c-.16.05-.26.06-.62.06-.42 0-.45 0-.64-.07a1.86 1.86 0 0 1-1.16-1.23c-.07-.25-.09-.68-.04-.94a1.9 1.9 0 0 1 2.08-1.44ZM40.92 25.03c-.36.08-.53.16-1.22.58a9.47 9.47 0 0 1-.75.44c0 .02.04.08.05.14.02.06 0 3.59 0 3.59 0 3.78.01 3.57-.12 3.67-.06.04-.02.04.46.04h.52l-.07-.06a.4.4 0 0 1-.09-.13c-.03-.07-.04-4.01 0-4.04l.13.13c.2.25.49.41.88.5.25.05.86.05 1.13 0 1-.22 1.76-.9 2-1.8a3 3 0 0 0 0-1.2 2.95 2.95 0 0 0-.4-.85 2.55 2.55 0 0 0-2.52-1Zm.91.67c.59.15 1.12.64 1.3 1.2a1.89 1.89 0 0 1-.46 1.88c-.16.17-.24.23-.43.32-.32.16-.56.2-.97.18a1.86 1.86 0 0 1-1.4-.57l-.2-.18v-2.18l.34-.21c.35-.25.57-.36.8-.43.32-.1.68-.1 1.02-.01ZM14.69 25.06c.12.14.12.1.13 1.75.02 1.52.02 1.57.07 1.76.2.73.72 1.2 1.48 1.39.24.05.84.05 1.08 0 .37-.09.6-.21 1.04-.59a6.24 6.24 0 0 1 .58-.45l-.03-.09c-.04-.06-.04-.3-.04-1.87v-1.8l.07-.08.06-.08h-1l.1.12.1.12v3.3l-.12.14c-.36.44-.71.62-1.21.65-.76.03-1.3-.34-1.47-1a11.1 11.1 0 0 1-.04-1.6c0-1.37 0-1.46.05-1.56a.37.37 0 0 1 .1-.14c.03-.02-.1-.03-.48-.03h-.52l.05.06Z"/><path d="M42.6 30.08c-.83.04-1.65.09-1.98.12l-.13.02v.56c0 .43 0 .55.03.55l.38-.03c2-.2 4.63-.26 6.6-.14a28.14 28.14 0 0 1 4.5.61 17.26 17.26 0 0 0-6.94-1.68 47.4 47.4 0 0 0-2.46 0ZM37.62 30.57c-2.96.4-5.95.95-9.54 1.8-1.89.43-2.16.5-2.81.61a33.58 33.58 0 0 1-8.1.53A42.02 42.02 0 0 1 4 30.58l.57.35A26.65 26.65 0 0 0 18.99 35c1.87 0 3.5-.14 5.44-.46 1.75-.28 3.2-.62 5.74-1.31a64.53 64.53 0 0 1 7.68-1.61l.15-.05V30.5s-.1.03-.38.07Z" fill="#0679E6"/></svg>