<!-- by TradingView --><svg width="56" height="56" viewBox="0 0 56 56" xmlns="http://www.w3.org/2000/svg"><path fill="#F0F3FA" d="M0 0h56v56H0z"/><path d="M46.23 22H36v12h10.23c3.92 0 5.77-2.21 5.77-6 0-3.8-1.83-6-5.77-6Zm0 9H39v-6h7.23c1.95 0 2.83.71 2.83 3 .01 2.32-.88 3-2.83 3Zm-12.96-1.47L35.65 34h-3.03l-1.96-4H21v4h-2.98l4.06-6.5h8.38c.95 0 1.54-.53 1.54-1.45 0-.92-.58-1.55-1.54-1.55H22.4l1.24-2.5h7.23c2.6 0 4.08 1.58 4.08 4.07.02 1.58-.59 2.78-1.67 3.46ZM17.94 34l1.34-6h-1.43l1.18-6H4v12h13.94Zm-3.13-2.5H7v-2h7.81c.7 0 1.07.42 1.07 1.06 0 .6-.38.94-1.07.94ZM7 24.5h7.56c.97 0 1.32.82 1.32 1.38 0 .57-.35 1.12-1.32 1.12H7v-2.5Z" fill="#007A3F"/></svg>