<!-- by TradingView --><svg xmlns="http://www.w3.org/2000/svg" width="56" height="56" viewBox="0 0 56 56"><path fill="url(#aobnocgoj)" d="M0 0h56v56H0z"/><path fill-rule="evenodd" d="M16.34 32c-.74 0-1.34.6-1.34 1.34v1.82a1.34 1.34 0 0 0 2.69 0v-1.82c0-.74-.6-1.34-1.35-1.34Zm0 .7a.6.6 0 0 0-.6.6v1.9a.6.6 0 0 0 1.2 0v-1.9a.6.6 0 0 0-.6-.6Z" fill="#fff"/><path d="M19.74 32.37a.37.37 0 1 0-.74 0v2.79a1.34 1.34 0 0 0 2.69 0v-2.79a.37.37 0 0 0-.75 0v2.83a.6.6 0 1 1-1.2 0v-2.83Z" fill="#fff"/><path fill-rule="evenodd" d="M20.77 18a.2.2 0 0 0-.2.2v4.1c0 .11.09.2.2.2h1.49a1 1 0 0 0 1-1V19a1 1 0 0 0-1-1h-1.49Zm1.24.76h-.7v2.98h.7a.5.5 0 0 0 .5-.5v-1.98a.5.5 0 0 0-.5-.5ZM7 18.4c0-.22.18-.4.4-.4h.97a1.2 1.2 0 0 1 .72 2.18 1.3 1.3 0 0 1-.82 2.32H7.4a.4.4 0 0 1-.4-.4v-3.7Zm.74.32h.55a.55.55 0 1 1 0 1.1h-.55v-1.1Zm0 1.8h.54a.6.6 0 1 1 0 1.22h-.54v-1.21ZM13.12 18h-.98a.4.4 0 0 0-.4.4v3.72a.38.38 0 0 0 .76 0v-1.5h.4l.78 1.67a.36.36 0 0 0 .66-.3l-.67-1.5a1.3 1.3 0 0 0-.55-2.49Zm-.02.71h-.6v1.2h.6a.6.6 0 0 0 0-1.2ZM12.38 32h-.98a.4.4 0 0 0-.4.4v3.72a.38.38 0 1 0 .75 0v-1.5h.4l.79 1.67a.36.36 0 0 0 .66-.3l-.68-1.5a1.3 1.3 0 0 0-.54-2.49Zm-.03.71h-.6v1.2h.6a.6.6 0 0 0 0-1.2ZM24.9 32h-.99a.4.4 0 0 0-.4.4v3.72a.38.38 0 1 0 .75 0v-1.5h.4s.52 0 .78-.12a1.3 1.3 0 0 0-.55-2.5Zm-.03.71h-.6v1.2h.6a.6.6 0 1 0 0-1.2Z" fill="#fff"/><rect x="26.07" y="19.85" width="1.63" height=".75" rx=".37" fill="#fff"/><rect x="8.07" y="33.85" width="1.63" height=".75" rx=".37" fill="#fff"/><path d="M29.8 22.5a.4.4 0 0 0 .03 0h1.91a.38.38 0 0 0 0-.76h-1.53v-1.2h1.03a.38.38 0 0 0 0-.76h-1.03v-1.02h1.54a.38.38 0 1 0 0-.76h-1.92c-.2 0-.37.17-.37.38v3.74c0 .2.15.36.34.38ZM20.62 29.5a.4.4 0 0 0 .03 0h1.9a.38.38 0 0 0 0-.76h-1.52v-1.2h1.02a.38.38 0 0 0 0-.76h-1.02v-1.02h1.53a.38.38 0 1 0 0-.76h-1.92c-.2 0-.37.17-.37.38v3.74c0 .2.15.36.35.38ZM38.35 29.5a.4.4 0 0 0 .03 0h1.91a.38.38 0 1 0 0-.76h-1.53v-1.2h1.03a.38.38 0 0 0 0-.76h-1.03v-1.03h1.53a.38.38 0 1 0 0-.75h-1.91c-.21 0-.38.17-.38.38v3.74c0 .2.15.36.35.38ZM28.9 25a.38.38 0 0 0 0 .75h.58v3.37a.38.38 0 1 0 .76 0v-3.37h.58a.38.38 0 1 0 0-.75H28.9ZM46.7 25a.38.38 0 1 0 0 .75h.59v3.37a.38.38 0 0 0 .75 0v-3.37h.59a.38.38 0 1 0 0-.75H46.7ZM16.12 18.38c0-.21.17-.38.38-.38h1.76a.38.38 0 0 1 0 .76h-.5v2.98h.5a.38.38 0 0 1 0 .76H16.5a.38.38 0 1 1 0-.76h.5v-2.98h-.5a.38.38 0 0 1-.38-.38ZM7 25.38c0-.21.17-.38.38-.38h1.76a.38.38 0 0 1 0 .75h-.5v3h.5a.38.38 0 0 1 0 .75H7.38a.38.38 0 0 1 0-.76h.5v-2.99h-.5a.38.38 0 0 1-.38-.37ZM18.78 25.5a.37.37 0 0 0-.24-.47.38.38 0 0 0-.48.25L17.2 28l-.87-2.74a.38.38 0 0 0-.48-.25.37.37 0 0 0-.24.47l1.18 3.74c.05.15.2.26.35.26.2.06.4-.06.46-.25l1.18-3.73ZM34.37 27l.86-1.77c.09-.18.23-.23.42-.23.2 0 .42.17.42.38v3.74a.38.38 0 0 1-.76 0v-2.29l-.59 1.22a.39.39 0 0 1-.45.2.41.41 0 0 1-.3-.22l-.55-1.13v2.22a.38.38 0 0 1-.75 0v-3.74c0-.21.21-.38.42-.38.2 0 .34.03.43.23l.85 1.77ZM25 19.35a1.35 1.35 0 1 1 2.7 0v.02h-.76v-.07a.6.6 0 0 0-1.2 0v1.9a.6.6 0 0 0 1.2 0v-1.1l.76.15v.9a1.35 1.35 0 0 1-2.7 0v-1.8ZM7 33.35a1.35 1.35 0 0 1 2.7 0v.02h-.76v-.07a.6.6 0 1 0-1.2 0v1.9a.6.6 0 0 0 1.2 0v-1.1l.76.15v.9a1.35 1.35 0 0 1-2.7 0v-1.8Z" fill="#fff"/><path fill="#00DE00" d="M7 23.3h25v.7H7zM7 30.3h42v.7H7zM7 37.3h19v.7H7z"/><path d="M24.7 25.44c.2-.26.55-.46 1.04-.44.42.01.72.2.92.43.19.21.29.47.32.65.04.2-.08.38-.27.41a.35.35 0 0 1-.41-.28.75.75 0 0 0-.17-.32.54.54 0 0 0-.4-.19c-.28 0-.42.1-.5.2a.58.58 0 0 0-.13.25c0 .15.04.23.14.32.12.1.33.22.72.38.56.22.85.57.99.9a1.53 1.53 0 0 1 .11.64c0 .17-.08.44-.28.67-.21.24-.55.44-1.05.44-.46 0-.8-.21-1-.48-.21-.26-.3-.56-.32-.78a.35.35 0 1 1 .7-.08c0 .12.06.3.16.42s.23.21.46.21c.3 0 .44-.1.52-.2.08-.09.1-.18.11-.2v-.02c0-.06 0-.19-.06-.35-.07-.16-.22-.37-.6-.52-.38-.16-.7-.3-.93-.51-.25-.23-.37-.5-.37-.84 0-.2.1-.48.3-.71ZM11 25.36a.37.37 0 0 1 .45-.35c.12.01.23.09.29.2l1.11 2.31v-2.16a.37.37 0 0 1 .74 0v3.77a.37.37 0 0 1-.7.16.38.38 0 0 1-.02-.03l-1.13-2.36v2.23a.37.37 0 1 1-.74 0v-3.77ZM42.42 25.36a.37.37 0 0 1 .45-.35c.12.01.23.09.28.2l1.12 2.31v-2.16a.37.37 0 1 1 .73 0v3.77a.37.37 0 0 1-.7.16.38.38 0 0 1-.01-.03l-1.14-2.36v2.23a.37.37 0 0 1-.73 0v-3.77Z" fill="#fff"/><defs><linearGradient id="aobnocgoj" x1="10.42" y1="9.71" x2="68.15" y2="76.02" gradientUnits="userSpaceOnUse"><stop stop-color="#1A1E21"/><stop offset="1" stop-color="#06060A"/></linearGradient></defs></svg>