<!-- by TradingView --><svg width="56" height="56" viewBox="0 0 56 56" xmlns="http://www.w3.org/2000/svg"><path fill="#F0F3FA" d="M0 0h56v56H0z"/><path d="m14.5 36-.5-1h10c.5 0 1.6.2 2 1 .4.8.17 1.67 0 2 .67 0 2 .4 2 2s-1 2-1.5 2H21l-1.5-1H25c.5 0 1.4-.2 1-1-.4-.8-.83-1-1-1h-8l-1-1h7c.33 0 1-.2 1-1s-.67-1-1-1h-8.5Z" fill="#062053"/><path d="M29 40c0 1.6-1 3.5-1.5 4H29c2-1.2 2.5-4 3-5h7l1-1h-7c-1 0-1.5-.5-1.5-1 0-.57.5-1 1-1H41l1-1H30c-1 0-2 1-2 2s1 1 1 3Z" fill="#062053"/><path fill-rule="evenodd" d="M28 44a16 16 0 1 0 0-32 16 16 0 0 0 0 32Zm0 1a17 17 0 1 0 0-34 17 17 0 0 0 0 34Z" fill="#062053"/><path d="M43.2 33a16 16 0 1 0-30.4 0h30.4Z" fill="url(#aduaxyz2t)"/><path d="M22 27c-.59-.35-1.26-.83-2-.48.5-.95 1.52-.38 2 0 .5-.38 2-.95 2 0-.74-.35-1.41.13-2 .48ZM34 17c-.59-.35-1.26-.83-2-.48.5-.95 1.52-.38 2 0 .49-.38 2-.95 2 0-.74-.35-1.41.13-2 .48ZM40 33H15c2-1 6.5-3 13-3 6.72 0 9.67 2 12 3Z"/><path d="M27.5 27c0-1.2 1-2.5 1.5-3 0 1.6 1 5.33 1.5 7h1c-.8-2-1.33-5.5-1.5-7 0-1.2.67-1.17 1-1 .8 0 1.17 1.33 1 2-.4 0-1 1-1 1.5 0-.4.67-.5 1-.5-.4.4-.17 1.17 0 1.5.4-.8 1.17-1 1.5-1 0 1.6-.33 4-.5 5h1c.4-.4.5-2.83.5-4 1.2.4 1.17 1.5 1 2 .4 0 .5-1 .5-1.5l1 .5c.4-.8-.17-1.33-.5-1.5 0-.4 1-.5 1.5-.5 0-.8-1-1-1.5-1 .4-.4 1.17-.5 1.5-.5-.8-1.2-2.33-.83-3-.5l.5-1.5c-.5.5-1 .5-1.5 1-.17 0 0-1-1-1 .5.5.1 1 0 1 0-.4-.33-1.17-.5-1.5.4-.4 1.5.17 2 .5 0-.4-1-1.17-1.5-1.5.4-.8 1.83-.33 2.5 0 0-1.2-1.5-2-2.5-1.5 0-.8 1.33-1 2-1-2-1-3.17 0-4 .5 0-.8.33-1.33.5-1.5-1.5 0-1.5 1.17-1.5 1.5-.4-.8-1.83-1.33-2.5-1.5.8.8.67 1.67.5 2-.8-.8-3-1-4 0 1.2 0 1.83.67 2 1-.8 0-2 1-2 2 .8-.8 1.67-.33 2 0-1.2 1.2-1.17 2.5-1 3 0-1.2 1.33-2.17 2-2.5-.4 1.2.17 2.83.5 3.5Z"/><defs><linearGradient id="aduaxyz2t" x1="36" y1="12" x2="36" y2="33" gradientUnits="userSpaceOnUse"><stop stop-color="#F46504"/><stop offset="1" stop-color="#F0F91C"/></linearGradient></defs></svg>