<!-- by TradingView --><svg width="56" height="56" viewBox="0 0 56 56" xmlns="http://www.w3.org/2000/svg"><path fill="#181B1E" d="M0 0h56v56H0z"/><path d="M12.17 21.88c.55.12 1 .46 1 1.13 0 .9-.88.99-1.57.99H9.5v-.1c.47 0 .5-.14.5-.6v-2.6c0-.46-.03-.6-.5-.6V20h1.98c.66 0 1.52.1 1.52 1 0 .56-.38.77-.83.88ZM11 21.77c.54 0 1-.09 1-.77 0-.64-.46-.78-1-.78v1.55Zm0 .23v1.46c0 .21.13.32.36.32.5 0 .81-.25.81-.77 0-.72-.57-1.01-1.17-1.01ZM16 22.18v1.12c0 .42.06.6.5.6v.1h-2v-.1c.44 0 .5-.19.5-.6v-2.6c0-.41-.06-.6-.5-.6V20h1.71c.76 0 1.79.14 1.79 1.1 0 .52-.44.88-.92 1l.9 1.36c.12.2.25.42.5.43V24h-1.17l-1.2-1.82H16Zm0-1.96V22c.58 0 1-.22 1-.9 0-.6-.24-.88-.83-.88H16ZM30 36.18v1.12c0 .42.06.6.5.6v.1h-2v-.1c.44 0 .5-.19.5-.6v-2.6c0-.42-.06-.6-.5-.6V34h1.71c.76 0 1.79.14 1.79 1.1 0 .52-.44.88-.92 1l.9 1.36c.12.2.25.42.5.43V38h-1.17l-1.2-1.82H30Zm0-1.96V36c.58 0 1-.22 1-.9 0-.6-.24-.88-.83-.88H30ZM21.5 23.9v.1h-2v-.1c.43 0 .5-.15.5-.58v-2.64c0-.42-.07-.57-.5-.57V20h2v.1c-.43 0-.5.15-.5.58v2.64c0 .43.07.57.5.57ZM32.5 23.9v.1h-2v-.1c.43 0 .5-.15.5-.58v-2.64c0-.42-.07-.57-.5-.57V20h2v.1c-.43 0-.5.15-.5.58v2.64c0 .43.07.57.5.57ZM25.5 30.9v.1h-2v-.1c.43 0 .5-.15.5-.58v-2.64c0-.42-.07-.57-.5-.57V27h2v.1c-.43 0-.5.15-.5.58v2.64c0 .43.07.57.5.57ZM40.5 30.9v.1h-2v-.1c.43 0 .5-.15.5-.58v-2.64c0-.42-.07-.57-.5-.57V27h2v.1c-.43 0-.5.15-.5.58v2.64c0 .43.07.57.5.57ZM32.5 30.9v.1h-2v-.1c.43 0 .5-.15.5-.58v-2.64c0-.42-.07-.57-.5-.57V27h2v.1c-.43 0-.5.15-.5.58v2.64c0 .43.07.57.5.57ZM26 22.6l-.12 1.4H22.5v-.1c.4 0 .5-.2.5-.58v-2.64c0-.38-.1-.57-.5-.57V20h2.2v.1c-.42 0-.7.17-.7.58v2.55c0 .39.02.55.43.55h.5c.65 0 .85-.66.97-1.18h.1ZM30 22.6l-.12 1.4H26.5v-.1c.4 0 .5-.2.5-.58v-2.64c0-.38-.1-.57-.5-.57V20h2.2v.1c-.42 0-.7.17-.7.58v2.55c0 .39.02.55.43.55h.5c.65 0 .85-.66.97-1.18h.1ZM7.32 29.88H6l-.16.39a.88.88 0 0 0-.07.31c0 .28.28.3.5.31V31H5v-.1c.38-.07.52-.46.66-.77L7 27h.06l1.35 3.21c.12.28.24.65.59.68V31H7.18v-.1h.07c.25 0 .37-.06.37-.2 0-.12-.06-.23-.1-.33l-.2-.49Zm-.1-.2-.55-1.36-.58 1.35h1.14ZM35.32 22.88H34l-.16.39a.88.88 0 0 0-.07.31c0 .28.28.3.5.31V24H33v-.1c.38-.07.52-.46.66-.77L35 20h.06l1.35 3.21c.12.28.24.65.59.68V24h-1.82v-.1h.07c.25 0 .37-.06.37-.2 0-.12-.06-.23-.1-.33l-.2-.49Zm-.1-.2-.55-1.36-.58 1.35h1.14ZM39.37 20l1.91 2.43v-1.69c0-.39-.13-.64-.56-.63V20H42v.1c-.41.06-.5.24-.5.64V24h-.1l-2.62-3.26v2.58c0 .32.15.57.5.57h.1V24H38v-.1c.43-.01.57-.17.57-.58v-2.85l-.08-.1a.76.76 0 0 0-.22-.2.65.65 0 0 0-.27-.06V20h1.37ZM48.37 27l1.91 2.43v-1.69c0-.39-.13-.64-.56-.63V27H51v.1c-.41.06-.5.24-.5.64V31h-.1l-2.62-3.26v2.58c0 .32.15.57.5.57h.1V31H47v-.1c.43-.01.57-.17.57-.58v-2.85l-.08-.1a.76.76 0 0 0-.22-.2.65.65 0 0 0-.27-.06V27h1.37ZM46.5 20v1h-.12c-.21-.76-.67-.77-1.38-.77v3.09c0 .47.18.57.63.57V24h-2.26v-.1c.45 0 .63-.1.63-.58v-3.09c-.66 0-1.25 0-1.38.77h-.12v-1h4ZM23 34v1.33h-.12a1.4 1.4 0 0 0-1.36-1.08c-.94 0-1.52.85-1.52 1.7 0 .9.48 1.78 1.5 1.78.58 0 1.11-.32 1.5-.73v.33c-.47.45-1.02.67-1.7.67-1.15 0-2.3-.68-2.3-1.93 0-1.22 1.16-2.07 2.3-2.07.46 0 .88.28 1.31.28.07 0 .12-.03.17-.07a.35.35 0 0 0 .1-.21H23ZM37.5 27v1h-.12c-.21-.76-.67-.77-1.38-.77v3.09c0 .47.18.57.63.57V31h-2.26v-.1c.45 0 .63-.1.63-.58v-3.09c-.66 0-1.25 0-1.38.77h-.12v-1h4ZM13 27v1.33h-.12a1.4 1.4 0 0 0-1.36-1.08c-.94 0-1.52.85-1.52 1.7 0 .9.48 1.78 1.5 1.78.58 0 1.11-.32 1.5-.73v.33c-.47.45-1.02.67-1.7.67-1.15 0-2.3-.68-2.3-1.93C9 27.85 10.16 27 11.3 27c.46 0 .88.28 1.31.28.07 0 .12-.03.17-.07a.35.35 0 0 0 .1-.21H13ZM16.5 31c.17.5.53.74 1.07.74.07 0 .15 0 .23-.02v.17c-.28.07-.53.11-.75.11-.68 0-1.26-.33-1.53-1A1.98 1.98 0 0 1 14 29.01c0-1.13.87-2.01 2-2.01 1.14 0 2 .88 2 2.01 0 .9-.58 1.83-1.5 1.99Zm-.5-3.78c-.61 0-1 .6-1 1.8 0 .66.12 1.82 1 1.82.86 0 1-1.1 1-1.76 0-.67-.07-1.86-1-1.86ZM18.5 27h2.07v.1h-.1c-.43 0-.47.21-.47.6v1.92c0 .57.12 1.09.8 1.09.81 0 .96-.73.96-1.41v-1.6c0-.4-.14-.6-.56-.6V27h1.35v.1h-.08c-.37 0-.47.28-.47.6v1.49c0 1.02-.3 1.81-1.47 1.81-.89 0-1.53-.47-1.53-1.38V27.7c0-.41-.06-.6-.5-.6V27ZM29.7 27l.04 1.27h-.13c-.11-.57-.47-1-1.07-1-.3 0-.54.18-.54.54 0 1.11 2 .64 2 2.02 0 .77-.8 1.17-1.48 1.17-.27 0-.47-.04-.83-.17a.75.75 0 0 0-.25-.06c-.11 0-.25.07-.32.23H27v-1.45h.12c.09.41.27.72.53.93.26.22.55.32.85.32.34 0 .5-.17.5-.57 0-1.08-2-.8-2-2.13 0-.7.7-1.1 1.32-1.1.68 0 .95.45 1.2.22.03-.03.06-.1.09-.22h.09ZM43.98 27A1.92 1.92 0 0 1 46 28.97c0 1.13-.84 2.03-1.99 2.03A1.97 1.97 0 0 1 42 28.97c0-1.1.85-2.01 1.98-1.97Zm.03.18c-.63 0-1.01.59-1.01 1.82 0 .66.12 1.79 1 1.79s1-1.13 1-1.8c0-.66-.08-1.8-1-1.8ZM25.98 34A1.92 1.92 0 0 1 28 35.97c0 1.13-.84 2.03-1.99 2.03A1.97 1.97 0 0 1 24 35.97c0-1.1.85-2.01 1.98-1.97Zm.03.18c-.63 0-1.01.59-1.01 1.82 0 .66.12 1.79 1 1.79s1-1.13 1-1.8c0-.66-.08-1.8-1-1.8ZM35 36.19v1.1c0 .41.06.6.5.6V38h-2v-.1c.44 0 .5-.2.5-.6v-2.6c0-.4-.06-.6-.5-.6V34h1.74c.69 0 1.38.28 1.38 1.09 0 .96-.86 1.1-1.62 1.1Zm0-1.96v1.73h.13c.43 0 .87-.28.87-.87 0-.6-.43-.86-.9-.86H35Z" fill="#fff"/></svg>