<!-- by TradingView --><svg xmlns="http://www.w3.org/2000/svg" width="56" height="56" viewBox="0 0 56 56"><path fill="#F0F3FA" d="M0 0h56v56H0z"/><ellipse cx="19.1" cy="12.82" rx=".78" ry=".52" fill="#EBC771"/><ellipse rx=".78" ry=".52" transform="rotate(-23.62 57.9 -15.92) skewX(.1)" fill="#EEB526"/><ellipse rx=".78" ry=".52" transform="rotate(24.05 -12.1 78.98) skewX(-.1)" fill="#CF983E"/><ellipse rx=".78" ry=".52" transform="rotate(24.05 -22.22 72.67) skewX(-.1)" fill="#E28548"/><ellipse rx=".78" ry=".52" transform="rotate(37.84 -7.7 60.57) skewX(-.13)" fill="#B57746"/><ellipse rx=".68" ry=".45" transform="rotate(37.84 -5.8 69.06) skewX(-.13)" fill="#B88F51"/><ellipse rx=".68" ry=".45" transform="rotate(57.14 -1.52 48.84) skewX(-.12)" fill="#D68746"/><ellipse cx="17.54" cy="14.81" rx="1.39" ry=".86" fill="#EDBA2B"/><ellipse rx="1.69" ry=".92" transform="rotate(30.35 -10.12 71.24) skewX(-.12)" fill="#E99236"/><ellipse rx="1.69" ry="1.05" transform="rotate(51.06 -2.16 54.78) skewX(-.13)" fill="#F3903D"/><ellipse cx="21.68" cy="16.1" rx="1.44" ry=".89" fill="#F8923C"/><ellipse rx="1.44" ry=".89" transform="rotate(13.62 -45.4 134.31) skewX(-.06)" fill="#F78638"/><ellipse rx="2.15" ry="1.41" transform="rotate(-16.61 71.63 -46.68) skewX(.07)" fill="#E8AA2F"/><ellipse rx="2.31" ry="2.01" transform="rotate(-31.26 60 -12.42) skewX(.12)" fill="#E39D3B"/><ellipse rx="1.91" ry="1.29" transform="rotate(-16.61 87.62 -46.13) skewX(.07)" fill="#EB853A"/><ellipse rx="1.91" ry="1.71" transform="rotate(-16.61 123.37 -53.66) skewX(.07)" fill="#F19250"/><ellipse rx="1.91" ry="1.71" transform="rotate(8.47 -247.4 142.84) skewX(-.04)" fill="#F1AA39"/><ellipse cx="30.67" cy="38.13" rx="1.52" ry="1.63" fill="#D28743"/><ellipse cx="32.85" cy="42.55" rx="1.34" ry="1.63" fill="#F0A32F"/><ellipse cx="37.09" cy="38.91" rx="1.66" ry="2.02" fill="#EC9F2B"/><ellipse rx="1.1" ry="1.59" transform="rotate(-7.16 293.62 -295.39) skewX(.03)" fill="#F37930"/><ellipse rx="1.01" ry="1.46" transform="rotate(-7.16 313.1 -324.77) skewX(.03)" fill="#EEB11A"/><ellipse rx="1.36" ry="1.97" transform="rotate(-7.16 273.82 -329.7) skewX(.03)" fill="#F2A638"/><ellipse rx="2.36" ry="2.18" transform="rotate(8.47 -251.04 187.06) skewX(-.04)" fill="#F1AE2E"/><ellipse rx="1.68" ry="1.14" transform="rotate(-24.59 63.03 -15.11) skewX(.1)" fill="#F8A430"/><ellipse rx="1.91" ry="1.29" transform="rotate(14.27 -41.56 105.23) skewX(-.07)" fill="#E6942B"/><ellipse rx="1.1" ry=".74" transform="rotate(-16.61 99.46 -50.74) skewX(.07)" fill="#E97F42"/><ellipse rx=".83" ry=".74" transform="rotate(-16.61 130.81 -31.2) skewX(.07)" fill="#FCC429"/><ellipse cx="29.14" cy="44.17" rx=".83" ry=".75" transform="rotate(-90 29.14 44.17)" fill="#EEB820"/><ellipse cx="33.88" cy="36.26" rx=".83" ry=".75" transform="rotate(-90 33.88 36.26)" fill="#C2713A"/><ellipse cx="41.65" cy="39.76" rx=".63" ry=".57" transform="rotate(-90 41.65 39.76)" fill="#E8C432"/><ellipse cx="45.43" cy="28.81" rx=".63" ry=".57" transform="rotate(-90 45.43 28.81)" fill="#C5AF5A"/><ellipse rx=".83" ry=".64" transform="rotate(-106.57 31.72 .56) skewX(-.07)" fill="#D88B53"/><ellipse rx=".94" ry=".84" transform="rotate(-16.61 129.98 -67.18) skewX(.07)" fill="#E97B3C"/><ellipse rx="1.21" ry=".74" transform="rotate(10.07 -54.76 166.07) skewX(-.05)" fill="#F4A335"/><ellipse rx="1.38" ry=".75" transform="rotate(44.61 -3.8 56) skewX(-.14)" fill="#D38731"/><ellipse rx="1.38" ry=".75" transform="rotate(64.48 -.03 46.51) skewX(-.11)" fill="#F6882F"/><ellipse rx="1.13" ry=".61" transform="rotate(64.48 1.64 48.15) skewX(-.11)" fill="#FAA12E"/><ellipse rx="1.19" ry=".67" transform="rotate(44.61 -.84 55.48) skewX(-.14)" fill="#E5A442"/><ellipse rx=".93" ry=".63" transform="rotate(14.97 -60.46 87.52) skewX(-.07)" fill="#BE783D"/></svg>