<!-- by TradingView --><svg xmlns="http://www.w3.org/2000/svg" width="56" height="56" viewBox="0 0 56 56"><path fill="#F0F3FA" d="M0 0h56v56H0z"/><path d="M36.22 16.03 46 19.58l-4.93 13.6c-.02-.4-.06-.8-.14-1.22-.65-3.71-2.44-5.65-5.08-6.46v-.04a6.46 6.46 0 0 0 1.83-2.79c.34-1.06.4-2.19.15-3.27a7.1 7.1 0 0 0-1.61-3.37ZM29.6 13.63 19.57 10l-2 5.53 9.19-1.62c1-.17 1.94-.27 2.82-.28ZM15.62 20.92 10 36.42l8.91 3.23-3.29-18.73ZM28.2 43.02 36.42 46l2.59-7.14c-1.66 1.8-4.18 3-7.03 3.5l-3.78.66ZM26.77 18.64l-5.24.92 1.17 6.73 5.63-.99c2.84-.5 4.17-1.92 3.75-4.35-.4-2.31-2.43-2.82-5.3-2.31ZM24.92 38.87l5.46-.95c3.04-.54 5.09-1.85 4.56-4.91-.5-2.79-2.73-3.55-6.1-2.96l-5.3.93 1.38 7.9Z" fill="#FF7F2B"/></svg>