<!-- by TradingView --><svg width="56" height="56" viewBox="0 0 56 56" xmlns="http://www.w3.org/2000/svg"><path fill="#F0F3FA" d="M0 0h56v56H0z"/><path d="M32.64 31.97c-1.05-4.28-1.75-5.35-3.07-5.8-1.32-.44-3.08 0-4.4.9-.81.55-3.51 3.12-6.15 4-2.63.9-5.27 3.57-3.51 7.14 1.75 3.56 6.59 2.23 8.79 2.67 2.2.45 4.39 3.12 6.59 3.12s4.4-1.78 4.4-4.9-1.33-1.78-2.65-7.13Z" fill="#0083CB"/><ellipse cx="16.88" cy="22.5" rx="3.88" ry="5.5" fill="#0083CB"/><ellipse cx="25.59" cy="17.5" rx="3.88" ry="5.5" fill="#0083CB"/><path d="M39.4 22.73c-1.31 2.6-4.02 3.92-6.03 2.96-2.01-.96-2.57-3.83-1.25-6.42 1.33-2.6 4.03-3.92 6.04-2.96s2.57 3.83 1.25 6.42ZM43.28 32.73c-1.32 2.6-4.02 3.92-6.03 2.96-2.02-.96-2.57-3.83-1.25-6.42 1.32-2.6 4.02-3.92 6.04-2.96 2 .96 2.57 3.83 1.24 6.42Z" fill="#0083CB"/></svg>