<!-- by TradingView --><svg width="56" height="56" viewBox="0 0 56 56" xmlns="http://www.w3.org/2000/svg"><path fill="#F0F3FA" d="M0 0h56v56H0z"/><path d="M4 24v5h1.4v-3.65L11.29 29H12v-5h-1.4v3.41L5.2 24H4ZM14.4 24H13v3.95c0 .58.52 1.05 1.17 1.05h4.66c.64 0 1.17-.47 1.17-1.05V24h-1.4v3.7c0 .18-.14.3-.32.3h-3.55c-.18 0-.33-.12-.33-.3V24ZM30.4 24H29v3.95c0 .58.52 1.05 1.17 1.05h4.66c.64 0 1.17-.47 1.17-1.05V24h-1.4v3.7c0 .18-.14.3-.32.3h-3.55c-.18 0-.33-.12-.33-.3V24ZM46.4 24H45v3.95c0 .58.53 1.05 1.17 1.05h4.66c.65 0 1.17-.47 1.17-1.05V24h-1.39v3.7c0 .18-.15.3-.33.3h-3.55c-.18 0-.33-.12-.33-.3V24Z" fill="#292E80"/><path fill-rule="evenodd" d="M21 24h5.77c.68 0 1.23.45 1.23 1v.58c0 .33-.2.63-.52.8.32.2.52.53.52.9v.63c0 .6-.55 1.09-1.23 1.09H21v-5Zm1.38 1h3.9c.18 0 .33.1.33.24v.52c0 .13-.15.24-.32.24h-3.91v-1Zm0 2h3.93c.18 0 .33.1.33.24v.52c0 .13-.15.24-.33.24h-3.93v-1ZM42.77 24H37v5h1.4v-2h2.88l1.15 2h1.47l-1.15-2h.02c.68 0 1.23-.52 1.23-1.16v-.68c0-.64-.55-1.16-1.23-1.16Zm-.48 1H38.4v1h3.9c.17 0 .31-.1.31-.24v-.52c0-.13-.14-.24-.32-.24Z" fill="#292E80"/><path fill="#7789C4" d="M4 30h8v1H4z"/><path fill="#853E62" d="M20 30h-8v1h8z"/><path fill="#D15140" d="M28 30h-8v1h8z"/><path fill="#F4885A" d="M36 30h-8v1h8z"/><path fill="#853E62" d="M44 30h-8v1h8z"/><path fill="#7789C4" d="M52 30h-8v1h8z"/></svg>