<!-- by TradingView --><svg xmlns="http://www.w3.org/2000/svg" width="56" height="56" viewBox="0 0 56 56"><path fill="#F0F3FA" d="M0 0h56v56H0z"/><path d="M45.32 21 52 28.64 45.32 36H9.1V21h36.22Z" fill="url(#alf3ywws1)" fill-opacity=".7"/><path d="M29.43 24.68a.52.52 0 0 1-.1.1l-2.13 1.85-3.57.62-2.97-2.9a2.6 2.6 0 0 1 .13-3.59 2.67 2.67 0 0 1 3.7-.03c1.77 1.67 3.75 3.57 4.04 3.88.32.34.62.28.8.16l.1-.09Z" fill="url(#blf3ywws1)"/><path d="M6 36h10.93c2.8 0 5.07-2.24 5.07-5s-2.27-5-5.07-5H9.21A3.19 3.19 0 0 0 6 29.17V36Zm4-4v-2h5.9c.6 0 1.1.45 1.1 1s-.5 1-1.1 1H10Z" fill="url(#clf3ywws1)"/><path d="m19.21 26.6-2.23.13-1.6 3.27h.52c.6 0 1.1.45 1.1 1 0 .36-.2.67-.51.85.57.16 1.77.12 3.3-1.07a2.95 2.95 0 0 0 1.2-2.6 5.03 5.03 0 0 0-1.78-1.59Z" fill="url(#dlf3ywws1)"/><path d="M6 30h8.97A5.02 5.02 0 0 0 20 25c0-2.76-2.25-5-5.03-5H9.19A3.18 3.18 0 0 0 6 23.17V30Zm4-4v-2h3.93c.6 0 1.07.45 1.07 1s-.48 1-1.07 1H10Z" fill="url(#elf3ywws1)"/><path d="M40.33 36h-11.4l2.53-4h8.1c3.16 0 5.16-2.8 5.76-4.2.64 1.26 1.58 4.21.23 5.9-1.35 1.69-4.04 2.25-5.22 2.3Z" fill="url(#flf3ywws1)"/><path d="m26 29.87-5.76-5.98c.89.89 2.67 2.66 4.65 2.66 1.97 0 3.7-1.18 4.33-1.77l4.3-4.27c.29-.28.67-.51 1.07-.51h5.78c4.04 0 7.63 3.31 7.63 7.3v1.39c0 2.38-1.48 4.65-3.49 5.95a7.58 7.58 0 0 0 1.2-4.2A7.06 7.06 0 0 0 39 23c-5.63 0-6.92 4.75-7 6.87v3.4c0 1.5-1.53 2.73-3.05 2.73-1.53 0-2.95-1.22-2.95-2.73v-3.4Z" fill="url(#glf3ywws1)"/><path d="M40.12 30H35c0-2.2 1.69-4 3.76-4h1.36c1.04 0 1.88.9 1.88 2s-.84 2-1.88 2Z" fill="url(#hlf3ywws1)"/><path d="M39 30v-2.37c0-.84.56-1.54 1.28-1.62.96.09 1.72.94 1.72 1.99 0 1.1-.84 2-1.88 2H39Z" fill="url(#ilf3ywws1)"/><path fill-rule="evenodd" d="M39.55 28.93c0 .08.09.23.45.23v-.9h.4l.76 1.34c.07-.06.23-.2.29-.27l-.68-1.16c.12-.04.37-.2.37-.53 0-.43-.37-.64-.68-.64h-.9v1.93ZM40 27.3v.63h.43c.16 0 .3-.14.3-.31 0-.18-.14-.32-.3-.32H40Z" fill="#624525"/><defs><linearGradient id="alf3ywws1" x1="50.66" y1="28.5" x2="19.93" y2="28.5" gradientUnits="userSpaceOnUse"><stop stop-color="#EEC45E"/><stop offset="1" stop-color="#EEC45E" stop-opacity="0"/></linearGradient><linearGradient id="blf3ywws1" x1="24.22" y1="18.96" x2="24.22" y2="27.25" gradientUnits="userSpaceOnUse"><stop offset=".2" stop-color="#9C6A2B"/><stop offset=".71" stop-color="#F3E29C"/></linearGradient><linearGradient id="clf3ywws1" x1="8.09" y1="32.58" x2="18.13" y2="32.58" gradientUnits="userSpaceOnUse"><stop stop-color="#EED58B"/><stop offset="1" stop-color="#A9732B"/></linearGradient><linearGradient id="dlf3ywws1" x1="18.19" y1="26.59" x2="18.19" y2="31.92" gradientUnits="userSpaceOnUse"><stop stop-color="#D0A348"/><stop offset=".92" stop-color="#966429"/></linearGradient><linearGradient id="elf3ywws1" x1="7.91" y1="24.55" x2="20.51" y2="24.43" gradientUnits="userSpaceOnUse"><stop stop-color="#EFD78D"/><stop offset="1" stop-color="#AF7A2E"/></linearGradient><linearGradient id="flf3ywws1" x1="31.76" y1="32.94" x2="48.1" y2="32.94" gradientUnits="userSpaceOnUse"><stop stop-color="#2A2118"/><stop offset="1" stop-color="#7C5327"/></linearGradient><linearGradient id="glf3ywws1" x1="24.19" y1="27.75" x2="46.74" y2="27.57" gradientUnits="userSpaceOnUse"><stop stop-color="#A8722A"/><stop offset=".52" stop-color="#E5C067"/><stop offset="1" stop-color="#F6F0B2"/></linearGradient><linearGradient id="hlf3ywws1" x1="35.35" y1="29.12" x2="40.64" y2="29.12" gradientUnits="userSpaceOnUse"><stop stop-color="#0C0B09"/><stop offset=".87" stop-color="#583F21"/></linearGradient><linearGradient id="ilf3ywws1" x1="39.19" y1="26.79" x2="41.88" y2="29.63" gradientUnits="userSpaceOnUse"><stop stop-color="#8B6A35"/><stop offset="1" stop-color="#A97C38"/></linearGradient></defs></svg>