<!-- by TradingView --><svg width="56" height="56" fill="none" xmlns="http://www.w3.org/2000/svg"><path fill="#2A8173" d="M0 0h56v56H0z"/><path d="M21.968 36h3.322v-3H27v-2.69h-1.71V20h-4.93l-7.045 10.192V33h8.653v3Zm-5.266-5.605v-.086l5.255-7.705h.08v7.791h-5.335ZM35.88 36c4.236 0 6.805-3.076 6.805-7.995v-.021c0-4.919-2.569-7.984-6.805-7.984s-6.805 3.065-6.805 7.984v.021c0 4.92 2.57 7.995 6.805 7.995Zm0-2.593c-2.083 0-3.275-2.004-3.275-5.402v-.021c0-3.397 1.192-5.39 3.275-5.39s3.276 1.993 3.276 5.39v.021c0 3.398-1.193 5.402-3.276 5.402Z" fill="#fff"/></svg>