<!-- by TradingView --><svg xmlns="http://www.w3.org/2000/svg" width="56" height="56" viewBox="0 0 56 56"><path fill="#F0F3FA" d="M0 0h56v56H0z"/><path d="M27.68 45.63 28 46l11.17-12.93A7.9 7.9 0 0 0 39.22 23L28 10l-5.56 6.43 9.1 10.29c.6.68.6 1.71 0 2.4l-3.8 4.25a9.27 9.27 0 0 0-.06 12.26Z" fill="#5ABB47"/><path d="m24.46 26.89 3.8-4.26a9.27 9.27 0 0 0 .06-12.26L28 10 16.83 22.93a7.7 7.7 0 0 0-1.82 4.66c-.1 1.93.5 3.9 1.77 5.4L27.5 45.41a9.27 9.27 0 0 1 .25-12.04l.17-.18-3.45-3.9a1.8 1.8 0 0 1 0-2.4Z" fill="#0065B3"/></svg>