<!-- by TradingView --><svg width="56" height="56" viewBox="0 0 56 56" xmlns="http://www.w3.org/2000/svg"><path fill="#E0E3EB" d="M0 0h56v56H0z"/><path d="M22 28.5C22 35.4 27.37 41 34 41V16c-6.63 0-12 5.6-12 12.5ZM10 28.5C10 35.4 15.37 41 22 41V16c-6.63 0-12 5.6-12 12.5ZM47 29a13 13 0 0 0-13-13v13h13Z" fill="#152259"/><path d="M45 29a11 11 0 0 0-11-11v11h11Z" fill="#0F3367"/><path d="M43 29a9 9 0 0 0-9-9v9h9Z" fill="#104E83"/><path d="M41 29a7 7 0 0 0-7-7v7h7Z" fill="#0B668C" fill-opacity=".7"/><path d="M39 29a5 5 0 0 0-5-5v5h5Z" fill="#1E86A1" fill-opacity=".4"/><path d="M37 29a3 3 0 0 0-3-3v3h3Z" fill="#1E86A1"/></svg>