<!-- by TradingView --><svg width="56" height="56" viewBox="0 0 56 56" xmlns="http://www.w3.org/2000/svg"><path fill="#F0F3FA" d="M0 0h56v56H0z"/><path d="M27 12.03a16 16 0 0 0 0 31.94v-8.03a8 8 0 0 1 0-15.88v-8.03Z" fill="#232125"/><path d="M30.29 12.5a.5.5 0 0 1-.51.5.5.5 0 0 1-.51-.5.5.5 0 0 1 1.02 0Zm-.47 3.25c.42 0 .76-.34.76-.75a.76.76 0 0 0-.76-.75.76.76 0 0 0-.76.75c0 .41.34.75.76.75Zm.97 1.75a1 1 0 0 1-1.01 1 1 1 0 0 1-1.02-1 1 1 0 0 1 1.02-1 1 1 0 0 1 1.01 1ZM28.06 20a8.06 8.06 0 0 1 2.95.47c-.02-.8-.7-1.45-1.52-1.45-.65 0-1.21.41-1.43.98Zm-.36 15.98c.21.72.95 1.18 1.72 1.05a1.5 1.5 0 0 0 1.26-1.4 8.24 8.24 0 0 1-2.98.35Zm5.26-1.46c.45.14.96.08 1.37-.22.54-.39.75-1.07.55-1.67a8.1 8.1 0 0 1-1.92 1.89Zm2.68-3.18c.48-.13.9-.49 1.06-.99.18-.55.02-1.13-.36-1.52-.1.89-.34 1.73-.7 2.5Zm.7-4.22c.38-.39.55-.97.36-1.52-.17-.52-.59-.88-1.09-1 .38.78.62 1.63.72 2.52Zm-1.49-3.8c.25-.62.05-1.35-.52-1.76a1.54 1.54 0 0 0-1.49-.17 8.12 8.12 0 0 1 2.01 1.93Zm4.02-6.58a.51.51 0 0 1-.71.12.5.5 0 0 1-.12-.7.51.51 0 0 1 .71-.11.5.5 0 0 1 .12.7Zm-2.32 2.37c.34.24.82.16 1.06-.17a.74.74 0 0 0-.17-1.05.77.77 0 0 0-1.06.17c-.25.33-.17.8.17 1.05Zm-.26 1.97c-.33.45-.96.55-1.42.22a.99.99 0 0 1-.22-1.4c.33-.44.96-.54 1.42-.21.45.32.55.95.22 1.4ZM42.61 24c.09.26.38.4.64.32a.5.5 0 0 0 .33-.63.51.51 0 0 0-.64-.32.5.5 0 0 0-.33.63Zm-1.68 1.37a.76.76 0 0 1-.96-.48.75.75 0 0 1 .49-.94c.4-.13.83.08.96.48.13.4-.09.82-.49.94Zm-3.63.33c.17.53.75.81 1.28.64a1 1 0 0 0 .65-1.26 1.02 1.02 0 0 0-1.28-.64 1 1 0 0 0-.65 1.26Zm5.46 7.41a.5.5 0 0 1-.32-.63c.08-.26.37-.4.64-.32a.5.5 0 0 1 .32.63.51.51 0 0 1-.64.32Zm-3-1.44c-.12.4.1.82.5.95.4.12.82-.1.96-.49a.75.75 0 0 0-.5-.94.76.76 0 0 0-.95.48Zm-1.99.37a1 1 0 0 1-.65-1.26c.18-.52.75-.81 1.28-.64a1 1 0 0 1 .65 1.26c-.17.52-.74.81-1.28.64Zm-.08 7.3a.5.5 0 0 0-.11.7c.16.23.48.28.7.11a.5.5 0 0 0 .12-.7.51.51 0 0 0-.7-.1Zm-1.84-1.15a.74.74 0 0 1 .16-1.05.77.77 0 0 1 1.07.17c.25.34.17.8-.17 1.05a.77.77 0 0 1-1.06-.17Zm-1.44-3.3a.99.99 0 0 0-.23 1.4c.33.45.97.55 1.42.22a.99.99 0 0 0 .23-1.4 1.03 1.03 0 0 0-1.42-.21Zm-4.62 8.7a.5.5 0 0 1 .41-.58.5.5 0 0 1 .6.4.5.5 0 0 1-.42.58.5.5 0 0 1-.59-.4Zm-.11-3.28a.75.75 0 0 0-.62.87c.07.4.47.68.88.6.41-.07.7-.46.62-.86a.76.76 0 0 0-.88-.61Zm-1.27-1.56a1 1 0 0 1 .82-1.16c.56-.1 1.08.27 1.18.81a1 1 0 0 1-.82 1.16c-.56.1-1.08-.27-1.18-.81Zm5.95-24.47c.26.09.55-.06.64-.32a.5.5 0 0 0-.33-.63.51.51 0 0 0-.64.32.5.5 0 0 0 .33.63Zm.14 2.15a.76.76 0 0 1-.96.48.75.75 0 0 1-.5-.94c.14-.4.57-.61.97-.49.4.13.62.56.49.95Zm-.59 2.44c-.17.53-.75.81-1.28.64a1 1 0 0 1-.65-1.26c.17-.52.75-.81 1.28-.64a1 1 0 0 1 .65 1.26Zm.72 22.6a.51.51 0 0 0-.64-.32.5.5 0 0 0-.32.63c.09.26.37.4.64.32a.5.5 0 0 0 .32-.63Zm-1.46-2.95c.4-.13.83.09.96.48.13.4-.09.82-.49.95a.76.76 0 0 1-.96-.48.75.75 0 0 1 .5-.95Zm-.9-2.6c.53-.17 1.1.12 1.28.64a1 1 0 0 1-.65 1.26c-.54.17-1.11-.12-1.28-.64a1 1 0 0 1 .65-1.26ZM41.5 19.4c.16.22.48.27.7.1a.5.5 0 0 0 .12-.7.51.51 0 0 0-.7-.1.5.5 0 0 0-.12.7Zm-1.17 1.81a.77.77 0 0 1-1.07-.16.74.74 0 0 1 .17-1.05.77.77 0 0 1 1.07.16c.24.34.17.8-.17 1.05Zm-1.93 1.64c-.46.32-1.1.22-1.42-.22a.99.99 0 0 1 .22-1.4 1.03 1.03 0 0 1 1.42.22.99.99 0 0 1-.22 1.4Zm3.44 13.08a.51.51 0 0 0-.7.1.5.5 0 0 0 .1.7c.23.17.55.12.72-.1a.5.5 0 0 0-.12-.7Zm-2.94-1.54a.77.77 0 0 1 1.06-.17c.34.24.42.71.17 1.05a.77.77 0 0 1-1.06.16.74.74 0 0 1-.17-1.04Zm-2.29-1.59c.33-.44.97-.54 1.42-.22.46.33.56.95.23 1.4-.33.45-.97.55-1.42.22a.99.99 0 0 1-.23-1.4Zm6.37-4.8c0 .27.23.5.51.5A.5.5 0 0 0 44 28a.5.5 0 0 0-.5-.5.5.5 0 0 0-.52.5Zm-2.03.79a.76.76 0 0 1-.76-.75c0-.41.34-.75.76-.75s.76.34.76.75-.34.75-.76.75Zm-2.54.2a1 1 0 0 1-1.01-1 1 1 0 0 1 1.01-1 1 1 0 0 1 1.02 1 1 1 0 0 1-1.02 1Z" fill="#245591"/></svg>