<!-- by TradingView --><svg width="56" height="56" viewBox="0 0 56 56" xmlns="http://www.w3.org/2000/svg"><path fill="#F0F3FA" d="M0 0h56v56H0z"/><path d="M10.72 29 8 32.36c1.1 2 4.37 4.6 5.86 5.64H36v-.25c-12.54-.74-16.86-2.86-20.24-4.34A11.74 11.74 0 0 1 10.72 29ZM45.28 27 48 23.64c-1.1-2-4.37-4.6-5.86-5.64H20v.25c12.54.74 16.86 2.86 20.24 4.34A11.74 11.74 0 0 1 45.28 27Z" fill="#EE021F"/><path fill-rule="evenodd" d="M11.8 27.79 18.38 20c2.9-.01 10.11.39 15.84 2.08 6.5 1.92 8.2 3.98 9.54 5.61l.4.49L37.59 36c-5.9-.33-18.7-1.83-22.73-5.22a14.46 14.46 0 0 1-3.06-3Zm19.04-1.6 1.16-1.2c-.32-.33-1.3-.99-2.64-.99-1.67 0-2.97 1.03-2.97 2.48s1.37 1.95 2.34 2.3c.96.35 1.4.74 1.4 1.26s-.38.8-1.24.8c-.7 0-1.4-.53-1.68-.8L26 31.28c.4.37 1.52 1.1 2.89 1.1 1.7 0 3.11-.87 3.11-2.58 0-1.72-1.94-2.38-2.46-2.47-.53-.08-1.29-.4-1.29-.97 0-.58.69-.8 1.29-.8.48 0 .75.2 1.06.44l.24.18Zm-8.5 6.31c1.25 0 2.37-.51 3.16-1.33l-1.2-1.23a2.5 2.5 0 0 1-4.3-1.75 2.5 2.5 0 0 1 4.18-1.85l1.26-1.07A4.38 4.38 0 0 0 18 28.25a4.3 4.3 0 0 0 4.35 4.25ZM34 24h2v8h-2v-8Z" fill="#1E2D72"/></svg>