<!-- by TradingView --><svg width="56" height="56" viewBox="0 0 56 56" xmlns="http://www.w3.org/2000/svg"><path fill="#F0F3FA" d="M0 0h56v56H0z"/><path d="M27.88 29.5C17.1 29.5 7.47 32.33 4 34c3.51-1.2 13.2-3 23.88-3C38.55 31 48.4 32.8 52 34c-3.55-1.67-13.35-4.5-24.12-4.5Z" fill="#4C4B48"/><path d="M28 24v4h1.5v-2.5h.97c.59 0 2.03.08 2.03 1.93 0 1.47-1.33 2.33-2.03 2.57h2.46c.35-.21 1.07-1.05 1.07-2.7 0-2.66-2.04-3.3-3.06-3.3H28Z" fill="#4C4B48"/><path d="M35.52 29H34l1.92-5h1.78l2.3 6-1.76-.32-1.43-4.53L35.52 29Z" fill="#DD0622"/><path d="M12 24.39v1.22c-.1-.11-.53-.34-1.55-.34-1.27 0-1.95 1.11-1.95 2.27s.74 2.21 1.78 2.21c.84 0 1.5-.27 1.72-.4v1.26c-.2.13-.85.39-1.72.39C8.57 31 7 29.97 7 27.54a3.44 3.44 0 0 1 5-3.15ZM17.5 24H19v5.32l-1.5.34V28h-3v2.02l-1.5.34V24h1.5v2.5h3V24ZM19.5 24h1.47v5.03l-1.47.2V24ZM21.97 24h-.47v5.01l1.5-.2v-2.87L24.88 29h2.62v-5H26v4.46L23.28 24h-1.31Z" fill="#EE0219"/><path d="M43.5 24H39v1h1.5v4.83L42 30v-5h1.5v-1ZM45.19 24H46.77L49 31h-1.43l-1.64-5.14-1.65 4.48L43 30l2.19-6Z" fill="#DD0622"/></svg>