<!-- by TradingView --><svg width="56" height="56" viewBox="0 0 56 56" xmlns="http://www.w3.org/2000/svg"><path fill="#F0F3FA" d="M0 0h56v56H0z"/><path d="M17.27 26h-2.18c-.56-1.36-1.83-2-3.2-2C9.3 24 8 26.1 8 28.5S9.28 33 11.88 33c1.39 0 2.68-.58 3.21-2h2.18c-.43 2.48-3.04 4-5.4 4a5.51 5.51 0 0 1-5.11-3.02A7.45 7.45 0 0 1 6 28.5c0-1.35.26-2.51.77-3.48a5.47 5.47 0 0 1 5.1-3.02c2.39 0 4.98 1.47 5.4 4ZM20 35V22h8v2h-6v4h5v2h-5v5h-2ZM31 35V22h8v2h-6v4h5v2h-5v5h-2ZM41 35V22h8v2h-6v3.5h5v2h-5V33h6v2h-8Z"/></svg>