<!-- by TradingView --><svg width="56" height="56" viewBox="0 0 56 56" xmlns="http://www.w3.org/2000/svg"><path fill="#F0F3FA" d="M0 0h56v56H0z"/><path d="m12.62 31.8-1.56-3.24L32.25 17v.87l4.53-1.05-2.8 2.15 3.23-.4L14.3 31.8v-.75l-1.69.75Z" fill="#E77811"/><path d="M8.56 41 7 35.99l31.46-18.17-.75 1.32L46.67 14v1.15l2.33-.68-8 5.38 1.23 1.05L8.56 41Z" fill="#6C609F"/><path d="m15.95 39.15-.5-.9 2.69-1.76-.53-.88L39.3 22.65l.24 1.07.38-.25.31.41 4.34-2.53-4.16 4.35 2.15-.8-.72 1.35 2.5-1.35-20.05 14.8-1.37-1.31 1.85-2.1-.9-1.36-7.9 4.22Z" fill="#00923D"/><path fill-rule="evenodd" d="M22.52 22.5V26H18c-.65 0-1 .53-1 1.17V28c0 .65.35 1 1 1h4.52v3.39h-4.7c-2.5 0-3.82-1.02-3.82-3.5V26c0-2.48 1.31-3.5 3.82-3.5h4.7Zm8.98 0v10h-4.69c-2.3 0-3.81-1.57-3.81-4.14v-1.61c0-2.58 1.61-4.25 3.92-4.25h4.58Zm-3.32 6.66v-.13H26.8c.18.08.37.13.55.13h.83ZM26 27.09c0-.32.17-.6.4-.82v2.5c-.23-.21-.4-.5-.4-.82v-.86Zm9.35 5.41H31.9l3.85-10h3.58l3.79 10H36v-1.46l-.65 1.46Zm2.8-3.5h-1.42l.73-1.7.7 1.7Z" fill="#F0F3FA"/><path d="M14.3 26.29c0-2.02 1.53-3.29 3.41-3.29h4.33v.7H17.7c-1.46 0-2.71 1.02-2.71 2.59v2.49c0 1.57 1.25 2.52 2.71 2.52H22v.7h-4.29c-1.88 0-3.41-1.2-3.41-3.22v-2.5Zm9 .37c0-2.02 1.5-3.66 3.37-3.66H31v.7h-4.33c-1.46 0-2.67 1.39-2.67 2.96v1.68c0 1.57 1.21 2.96 2.67 2.96h3.63v-4.05H27v-.81h4V32h-4.33c-1.88 0-3.37-1.64-3.37-3.66v-1.68Z"/><path d="M15.3 27.5c0-1.8.41-3.2 2.12-3.2H22v.7h-4.58C16.13 25 16 26.14 16 27.5c0 1.37.13 2.5 1.42 2.5H22v.7h-4.58c-1.7 0-2.12-1.38-2.12-3.2Zm9.3-.72a2.6 2.6 0 0 1 2.66-2.58H31v.8h-3.74c-1.05 0-1.9.74-1.9 1.78v1.59c0 1.03.85 1.63 1.9 1.63H29v-1.63h-2v-.75h2.7v3.08h-2.44c-1.46 0-2.65-.89-2.65-2.33v-1.6ZM32.9 32h.92l3.11-8.3h1.42l2.76 7.6H37v.7h5.42l-3.4-9h-2.69l-3.42 9Zm1.3 0h.92l2.5-6.47L39.14 30H37v.7h3.49l-2.39-6.47h-.93L34.2 32Z"/></svg>