<!-- by TradingView --><svg width="56" height="56" viewBox="0 0 56 56" xmlns="http://www.w3.org/2000/svg"><path fill="#F0F3FA" d="M0 0h56v56H0z"/><path fill-rule="evenodd" d="M17.5 26.4c.83.65.6.46 1.28 1.41 1.73 2.4-.04 2.55.53 1.64a11.75 11.75 0 0 0-4.46-.28c.06 3.22 1.92 2.53-.38 2.22-.62-.45-.91-1.08-1.06-.03l.43 1.94c.75-.23 2.54-.72 3.16.06-.53.14-3.28 1.36-3.46 1.55-.48.24-.55 0-.5.82.08 1.15 1.17 1.34 2.17 1.26-.3 2.56 1.82 2.92 2.57 2.43.27-.43-.22-.21.56-.53.08-.1.36-.36.62-.62.91 2.25-1.18-.99-1.42 2.5-.12 1.6 2.87 1.79 4.13 1.48.1 3.44 4.58 2.59 5.41.7l.38.25c.52 1.6 2.78 1.35 3.5 1 .41-.42.68-.62.96-1.18.56.44 2.45 1.92 2.47 1.98.59-.52 1.37-.94 1.62-1.71.36-1.09-.07-1.52-.12-2 .04.08.17.17.62.33l2.35.44c.94-.8 1.73-.74 1.83-2.27-.06-.86.34-.32-.52-.7-.42-.18-1.55-.3-2.38-.9.49-.28 2.4-1.39 2.87-1.3.19.67.2.6.58.95.53-1.06.83-1.73.62-3.13-.87-.4-2.15-1.19-3-.97-2.31.6-2.4-.13-3.37.33l-1.23-.01c.43-.63 1.4-1.03 2.25-1.3 1.53-.44 3.98-1.56 5.25-.26.71-.01.2.05.35-.22.5-.33.84-1.19.47-1.77-.5-.76-3.2-.44-4.25-.5.73-.4 1.96-.69 2.44-1.17.82-.83.08-.72 1.6-.87.42-.4 1.02-1.3.28-1.88-.82-.41-2.79.72-3.51 1.36l-.68-.06c-1.3-2.07 1.25-2.7 3.4-2.85-.68-2.4-1.04-1.64-2.5-1.48-1.81.2-.22-.61-2.5 1.2-1.12.9-1.11.57-1.39 1.37-2.67 1 1.26-3.05 2.44-3.39.36-.67.02-.38-.04-1.39.6-.34.3-.37 1-.64l1.21-.45-.82-1.47c-.9-.06-1.1.08-2.3 1.02-3.4 2.66-1.77-.17-.3-.55.31-.24.74-.54 1.03-.82-.38-.39-1.3-.72-1.97-.51.15-.77.52-.85 1-1.32.54-.53 1.01-.77 1.32-1.14-1.26-.95-3.1.97-3.76 1.6l-.04-.38.5-1.4c.25-.14.1.13.24-.32.24-.76-.4-1.4-.82-1.99-.99-.24-1.77.68-2.88 1.07.72-1.33 1.4-2.98 1.34-3.25a1.8 1.8 0 0 0-.76-1.18c-.17-.1-3 .34-3.48.41-.74.1-.77.85-.63 1.56l-.08.76c-.6-.7-1.91-1.19-2.55-.23.1.37 1.38 1.56 1.95 2.17.52.74-.16 2.96-.47 1.47a9.49 9.49 0 0 0-1.75-2.24c-.8-.62-2.09-.31-3.23-.16 1.8 5.85 3.9 3.62-1.2 1.43-1.09.05-1.57.59-1.36 1.7.57.1.7.1 1.17.47.32.24 3.27 4.6.24 4.25-.21-.02-2.08-.82-3.08.4.39.43.08.08.38.28a7.93 7.93 0 0 0 2.17 1.24c.03.18.2.23.15.73 1.01.89 1.05 2.12 1.35 3.37-1.54-1.46-3.07-3.01-5.37-2.8-.32.76-.48 1.09-.27 1.95l.86.07c.55.12.4.13.85.45Zm18.4 14.66c.04.08 0 .12 0 .17v-.17Z" fill="#543B24"/><path d="M20.7 40.56c-.88.1-.75-.39-1.76-.48.25.1.67-.27.93-.54.06-.07.12-.13.17-.21 1.18-1.7-.88-1.12-1.28-1.81-3.11 7.71 8.19 5.67 8.3 5.42l.37.26c.72-.35.73-.18 1.77-.17-.74-.31-.97-.12-1.5-.45-2.12-2.45 2.04-4.3.31-6.65.4 1.3-1.36 3.63-2.36 4.52-2.38-1.06-3.18-.08-4.94.1Z" fill="#8B6D53"/><path d="m35.95 35.77-2.77-.79-.46-.23c-.2.94-.11.53-.76.93 8.4-.53.41 2.95.17 2.8l.01.3c2.12-.1 2-.27 3.9 1.94.84-.1 1.63-.03 2.41-.25.7-.2 1.61-.58 2.21-.68-.05-.86.34-.32-.52-.7-.42-.18-1.55-.3-2.37-.9.48-.28 2.39-1.39 2.86-1.3 0 0 .68-.1-.21-.87-.45-.39-.54-.4-1.1-.25.6-.44.78-.44 1.1-1.37-2.62.78-3.28 1.79-4.47 1.37Z" fill="#644B33"/><path d="M28.62 29.35c-.6-1.59-1.07-2.25-1.84-3.64l-.18.38c-.33.9.15 1.83.6 2.56.39-3.18 1.03 3.94 1.81 4.42 2.93.72 6.3-3.42 5.3-4.98-.01-.01-4.45-.78-1.42-4.9.07-.05.17-.05.4-.23l.05-.67c-.67.05-.8.25-1.18.86-1.75 3.12-1.37 3.46-3.22 7.33-.02.02-.03.09-.05.13-.05-.7-.1-.73-.27-1.26Z" fill="#321C0B"/><path d="M25.12 22.6c1.15.03.2-.07.78-.12.68-.07 1.86 1.27 1.95 1.95.16 1.22.16 1-.07 1.31-.4-.97-3.6-1.77-5.44-1.09l-.31.15c1.68-.33-.4.64 1.76.07l-.87 1.72.11.46c.13-.05.45-.12.62-.18.27-1.49 3.11-1.89 4.18.56.32.74.52 1.2.8 1.92.58-3.47 1.64-2.54 2.93-4.62.17-.27 0-1.01-.16-2.5-.03-.03-.1-.09-.22-.16-1.72-.95-1.86.91-3.01 1.45l-.67-.43c-.54-.43-.3-.4-.96-.68.08-.14.12-.4.35-.47.05-.02.18.03.27 0-.68-.55-1.38-.24-1.4-.46-.62.48-.02.23-.64 1.11Z" fill="#896645"/><path d="M35.44 25.63c.38.43-.43-.23 1.32.46l-1.68.11c-.36.04-.44 0-.82.25-.93.6-.14.01-.6.59.85-.14 2.1-.45 2.95.47.38.4.18.37.42.79.46-.07.81-.02 1.16-.04.84-.06.48-.03.66-.58-.79-.2-.12-.04-.42-.3-1.3-2.06 1.25-2.7 3.41-2.84-.69-2.4-1.04-1.64-2.51-1.48-1.8.2-.21-.61-2.5 1.2-1.11.9-1.11.57-1.39 1.37Z" fill="#9C825A"/><path d="m27.26 34.78.54.27-.18.76c-.13.34-.2.55-.33.97-.6 1.92-.33 1.54-.93 1.58-.32.3-.71.36-1.21.54-3.1 3.93-3.7-.32.5 1.55l.98-.87s1.67-2.73 1.38-3.65l.55.75c0 .04-.36 1.08-.43 1.39-.3 1.3-.9 1.95-.75 3.12.52.3.49-.23.65-.72.29-.87.23-1.2.66-1.95l.6-1.35c.24-.63.19-.28-.4-1.2-.43-.67-.36-.77-.24-1.1.24.3.17.82.87.96.73.15.51.11 1.21-.54-.5-.3-.95-.54-1.3-.68-.37-.07-.65.01-.72-1.23-1.22.53-.16.67-1.45 1.4Z" fill="#3B2414"/><path d="M31.72 15.15c-.56.42-.02.03-.37.64-1.1 1.13-1.98 2.2-3.2 2.76-.16.5.18.15-.47.35.2 1.4.27-.14.38 1.17 1.76-1.78.36-1.59 2.05-1.67-.05 2.26.66 2.78.83-.08l-.26-.14c-.16-.12 1.68-3.17.77 1.34.56-.68 1.3-1.42 1.96-2.46.56-.88.27-.61.8-.87l.51-1.4c-.56.28-.03.13-.53.23-1.2.26-.26-.6-2 .95-1.06 1.11-.68.29-.47-.82Z" fill="#7B5C3C"/><path d="M32.14 38.78c-1.04 0-.53-.07-.72.37.5.86.97.97 2 .37 0 .05-.11.95.34 1.7 1.57 2.6 1.34 3.36-1.3 2.59 1.44 1.1 1.52 0 1.9 1.19l.27-.23.12-.11c.57-.48.98-.6 1.24-1.37.41-1.26-.23-1.65-.11-2.23l.15-.34c-.61-.71-.77-.83-1.54-1.42l-.08-.12c-.1-.15-.29-.37-.24-.96-.4.5-.33.33-.4.93-.56-.39-.31-.43-1.63-.37Z" fill="#7C6244"/><path d="M24.16 16.56c.09-.01 1.19-1.2 2.41-1.3a9.5 9.5 0 0 0-1.75-2.24c-.8-.62-2.08-.31-3.23-.16-.23 1.7.21.01 2.37 3.43.15.24.14.22.2.27Z" fill="#B48D65"/><path d="M33.23 31.81c.12.07.1.14.55.25.29.06.39.07.71.06 2.18-.08 3.03-1.27 3.62-1.53-.14 1.51-.48 1.11-1.27 1.7-.36.28-.24-.03-.36.47 1.53-.44 3.98-1.56 5.25-.27.71 0 .2.06.36-.2-.1-.3-.4-.73-.58-.93-1.07-1.15-2.6-1.41-3.98-1.36-.7.48-2.45.26-3.23-.1 1.52 1.05 1.1 1.97-1.07 1.91Z" fill="#846B4C"/><path d="M35.46 34.07c.54.22.46.03.98.22.12.04.39.19.5.28.22.2.17.14.27.37.44.4.6.54.76 1.12 1.42-.45.58-1.1 2.45-1.66-.32.93-.5.93-1.1 1.37.56-.16.65-.14 1.1.25.9.77.21.87.2.87.2.67.21.6.59.95.53-1.06.84-1.73.62-3.13-.29-.14-.4-.19-.79-.31-.14-.05-.27-.07-.4-.13-.34-.16-.05 0-.31-.2-.59-.44-.42-.6-1.5-.33-2.3.6-2.4-.13-3.37.33Z" fill="#B69978"/><path d="M17.76 39.42c.27-.43-.22-.21.56-.53-.16-.74-1.01-.8-1.72-.87-.02-.95-.83-.92-.35-1.66.34-.19.22-.09.53-.38-.46-.34-.64-.15-.64-.15-2.23.23-1.82-.53-1.85-1.02-.72.49-.15-.06-.4.56-.33-.5.04-.15-.38-.46-.48.24-.55 0-.5.82.09 1.15 1.18 1.34 2.17 1.26-.3 2.56 1.82 2.92 2.58 2.43Z" fill="#CBB488"/><path d="M15.93 31.6c-.35-1.05 1.28.2 1.1-.22 2.11-.12 4.68-.01.85-1.05.8-.9 1.08-.32 1.65-.3-.26.19-.22.1-.58-.04l.34-.54a11.75 11.75 0 0 0-4.46-.28c.01.98-.78 2.2 1.1 2.43Z" fill="#A78969"/><path d="M23.52 22.84a4.51 4.51 0 0 0-.75-1.4c-.62-.69-.41-.24-.82-1.15l-.38.08c-1.05.36-.12.46-1.13.34-.2-.02-2.08-.82-3.07.4.38.43.08.08.37.28 4.16 2.9 1.27-.33 5.78 1.45Z" fill="#A4835C"/><path d="M29.74 10.07c.13.27.01-.17.16.46.27 1.15-.12 3.69.23 4.64.89-.75 2.56-4.45 2.47-4.87a1.8 1.8 0 0 0-.77-1.18c-.73-.46-1.74.53-2.1.95Z" fill="#BBA37A"/><path d="m24.16 16.56.26 1.07-.62-.6-.5-.5-.66-.2c-.29.45.64.93-.84 1.64 0 .19.07.1.1.23.09.3.67.34 1.18.91.56.65-.1.3.39.32.87-.05.36-.37.9.56.1-.06.29-.18.36-.25 0 0-.15.26-.24-.62-.27-2.5 1.08-2.37 1.35-3l.46.55.7-.9c-.45-.18-.27.24-.43-.51-3.23.29-1.78 1.2-2.41 1.3Z" fill="#735434"/><path d="m35.87 20.77.99-.1c-.34.53-.64.06-1.27.62l.9.45c-2.96.01-2.1.44-3.15.55l-.04.67c.34.3.06.41.25 1.01.32 1 .04-.09.5.75.43-.6.8-1 1.3-1.62.73-.87.68-.5 1.68-1.33l.54.27.1.06.21.14c.36-.67.02-.38-.04-1.39.6-.34.31-.37 1-.64-.62-.27-.6.14-1.31.25-.3.05-.61 0-.86.02l-.8.3Z" fill="#9C7C5B"/><path d="M32.5 12.94c.16.3.13-.06 0 .36-.04.15-.2.42-.29.58-.24.46-.4.72-.5 1.27l-.26 1.42c.61-.2.26-.1.74-.6l.8-.72c.9-.8.13 0 1.2-.23.5-.1-.03.05.53-.23.24-.14.1.13.23-.32.18-.54-.04-.87-.25-1.18l-.57-.8c-.57-.15-.49-.26-1.3.23-.33.2-.17.1-.33.22Z" fill="#BB9A73"/><path d="M25.28 37.66c.9.2 1.16-.06 1.08.7.6-.04.34.34.93-1.58.12-.42.2-.63.33-.97l.18-.76c-.73-.37-2.12-1.11-2.64-1.05l-.25.13c-.4.38-.23-.12-.15.5.02.14.14.3.17.34 1.12 1.7 1.6-.4 2.58.78-.46.17.4-.06-.44.08l-.16.02c-4.48.75-1.65.54-.96 1.47-.42.35-.23.15-.67.34Z" fill="#846B53"/><path d="M25.15 38.9c.5-.18.89-.24 1.21-.54.08-.76-.18-.5-1.08-.7-1.84.33-2.33-.15-3.21-.32-1.28-.25-1.02.33-.88.76.08.25.18.28.34.42 1.55 1.42 1.5.6 3.62.38Z" fill="#CBAC83"/><path d="m34.66 17.76-1.23.98c-.73.43-.74.6-1.26.92.56.66.37.55.7 1.44 1.23-.17 1.46-2.48 2.93-2.6.76-.05.7.13.83.26.31-.24.74-.54 1.03-.82-.38-.39-1.3-.72-1.97-.51-.08.07-.34.53-1.03.33Z" fill="#AC9369"/><path d="M26.65 30.57c-.3-.49-.46-.34-1.26-.49-.58-.18-.53-.23-1.27-.36-1.8-.32-3.11-.79-3.91-.06.22.96.95 1.2 1.81 1.3.28.03.26.05.53.02.43-.05.31-.08.55-.19.84-.39.7-.39 1.63-.19 1.46.32.66.16 1.92-.03Z" fill="#C8A878"/><path d="m26.5 12.15-.12.56c.1.46.3.7.66 1.08 1.3-1.61.9.67.14 1.98l1.37-.23c.69-.18.7.08 1.01-.76-.27-.48-.13-.25-.4-.62-.45.2-.2 0-.67.79l-.14.25c-.68-1.08.48-.91.54-3.83-.14.13-1.52.55-2.4.78Z" fill="#937453"/><path d="m34.67 20.54-.06.53 1.26-.3.8-.3c.25-.02.57.04.86 0 .71-.12.69-.53 1.32-.26l1.2-.45-.82-1.47c-.9-.06-1.1.08-2.3 1.02-.9.7-.9 1-2.26 1.23Z" fill="#D6BA96"/><path d="M27.68 18.9c.65-.2.3.15.47-.35.75-.34-.04.15.26-.87.56-.23 1.3-.45 1.77-.82.37.65.01.54.33.53l.08-.82c-.41-.47-.38-.37-1.16-.21.68-.59.53-.26.39-.47-.39-.56-2.82.18-2.83.18.07.65.42.5.7 2.83Z" fill="#B39373"/><path d="M21.68 20.1c1.44-.13 1.03-.4 2.1.4l.35.23c-.42-1.12-2.22-2.53-2.22-2.53-.02-.08-.08-.1-.11-.14-3.8-.46-1.5 2.53-.12 2.04Z" fill="#A8844A"/><path d="M29.44 34.6c.34.15.79.4 1.3.69 1.27.1 2.25-1.03 2.98-1.6l-1.9-.07c-1.44-.1-1.62-.25-2.8-.55-.2.25-.1.16-.2.5.37.53.38.39.62 1.04Z" fill="#B4936C"/><path d="m36.03 40.72-.15.34c.1.2-.34.22.6.56l2.36.44c.93-.8 1.72-.74 1.82-2.27-.6.1-1.5.48-2.2.68-.8.22-1.58.16-2.43.25Z" fill="#BBA37A"/><path d="M39.11 27.45c.28.38.15.9 0 1.11-.49.73-.49.22-.5.21.43.42.36.35.33.9a4.56 4.56 0 0 0 1.8-.83c.83-.83.08-.72 1.6-.87-.35-.79-.85-.73-1.19-.92-.42-.23-.13-.02-.46-.36.11-.08.7-.4.95-.48l.98-.12c-.82-.41-2.78.72-3.5 1.36Z" fill="#8C7354"/><path d="m16.97 33.36.37-.36.09-.08.87-.68c-.61-.06-1.9-.2-2.47-.33a27.8 27.8 0 0 1-.97-.29c-.91-.35-1.3-1.52-1.48-.26l.43 1.94c.75-.23 2.54-.72 3.16.06Z" fill="#BBA37A"/><path d="M34.26 16.57c-.12.67-.24.63-.47 1.24l.88-.05c.68.2.94-.26 1.02-.33.15-.77.53-.85 1-1.32.54-.53 1.02-.77 1.33-1.14-1.27-.95-3.1.97-3.76 1.6Z" fill="#8C7354"/><path d="M16.04 36.69c.3.78.54.61.56 1.33.7.08 1.56.13 1.72.87.17-.21 1.27-1.2 1.16-1.31-.76-.77-1.13-1.44-.64-1.8-.07 0-2.35.83-2.8.9Z" fill="#9C7B54"/><path d="m33.23 31.81 1.88.06c.05-.24.09-.4.1-.58 0-.25-.04-.3-.05-.35l-.01-.47c-.04-.02-.1-.11-.13-.07-.02.04-.1-.06-.12-.08l-.6-.41-1.8.15-.51-.03-.16.74c.4.38.75.83 1.4 1.04Z" fill="#CBB488"/><path d="M19.7 16.1c.26.22.32.21.5.36.8.62.98 1.25 1.6 1.5.74-.34.36-.29.96-.73-.08-.77-.4-.47-.12-.9l.66.2c-.2-.55-.2-.74-.76-.82a13.2 13.2 0 0 0-2.3-.1c-.7.22-.7-.16-.54.48Z" fill="#B4936C"/><path d="m25.12 22.6.33 1.6 1.43.96c.2-.3-.03-.1.37-.28.62.51.32.35.53.86.23-.3.23-.1.07-1.31-.1-.68-1.27-2.02-1.95-1.95-.58.05.37.15-.78.12Z" fill="#B99768"/><path d="M17.98 33.66c.53.88.95 1.01 2.13 1.1 1.25.08 1.37-.52 2.31-.74-.52-.9-1.45-.08-2.84-.59-.74-.26-1.24-1.04-1.6.23Z" fill="#CBAB7C"/><path d="M33.23 37.13c1.15.53 2.5-.38 2.97-1.02-1.33-.06-3.12-.5-4.24-.43l-.52.1c.33.4.38.48.9.75.47.24.7.2.9.6Z" fill="#CBB488"/><path d="M16.63 25.95c.55.12.4.13.85.45l1.08.4a3.42 3.42 0 0 1 1.52-1.16c-.27-.35-.36-.4-.54-.51-.17-.12-.25-.14-.42-.22-1.1-.18-1.97.24-2.78.47.07.11.28.54.3.57Z" fill="#B4936C"/><path d="M27.43 43.2c.52 1.6 2.78 1.35 3.5 1-.75-.24-.13.26-.57-.35l.81-.4-.29-.48c-.8 0-.83.3-1.68.06-1.04 0-1.05-.18-1.77.17Z" fill="#BB9A73"/><path d="M19.7 16.1c-.15-.65-.16-.27.55-.48.27-.09 1.84.04 2.3.1l-.2-.65c.2-.1.2.19-.37-.2-.6-.4-.67-.63-1.59-.58-1.08.05-1.57.59-1.36 1.7l.67.1Z" fill="#DAC497"/><path d="M16.64 25.95c-.02-.03-.23-.46-.3-.57.81-.23 1.68-.65 2.78-.47-1.07-1.08-1.28-1.14-3.07-.97-.33.75-.48 1.08-.27 1.94l.86.07Z" fill="#E9D5A8"/><path d="M27.73 11.08c.27.5.18-.67.26.73.68-.2.5-.09.9-.44.62-.04.07.11.8.23l.04-1.53c-.3-.22-.77-.63-1.38-.54-.74.1-.76.85-.62 1.55Z" fill="#C8A878"/><path d="m42.09 32.28.4-.27c.1-.47.31-1.11.06-1.5-.42-.65-3.42-.72-3.65-.2.9 0 1.99.38 2.6 1.05.2.2.5.63.59.92Z" fill="#BAA688"/><path d="M23.65 26.87c.15.88.16.97.54 1.78.46 0 .23-.24 1.3-.38-.24-.87.17-.22-.47-.73.22-.22.57-.49.71-.75.68-1.3-1.88-.05-2.08.08Z" fill="#937453"/><path d="M17.68 41c1.11 1.07 1.09 1.4 2.84 1.2.15-.4.28-.6.37-.98-2.24-.17-2.47-.14-2.95-1.03-.15.16-.84.98-.26.8Z" fill="#E6C798"/><path d="M25.76 21.48c.02.18-.17.03.44.09 1.99.17.1 1.32 2.5-.29.04-.47-.07-.61-.2-1.03-.95-.02-.92.5-1.42.57-.7.1-1.07-.53-1.32.66Z" fill="#C4A374"/><path d="m32.41 43.68.05.13 1.86.54c.49-.63.33-.48.58-1.2-1.27.04-.7.19-1.17 0l-.17-.14c-1.04-.24-.44-.63-1.48-.9l.33 1.57Z" fill="#D3B48B"/><path d="m22.92 26.6.44-.2.43-1.53c-2.15.57-.08-.4-1.76-.07.17.56-.19.23-.73.77.45.4.7.9 1.62 1.02Z" fill="#D7B788"/><path d="m27.42 22.17.93.64c.22-1.16.97-1.07 1.68-1.46.94-.52.4-.3.46-.62-.33-.01-.96-.1-1.01-.12-.35-.1-.65-.24-.99-.36.14.42.25.56.22 1.03l-1.2.8c-.02-.02-.06.06-.09.1Z" fill="#846B4C"/><path d="M42.34 27.97c.4-.39 0 .27.4-.47.07-.11.15-.32.17-.46.12-.77-.14-.84-.29-.95l-.98.12c-.24.07-.84.4-.95.48.33.34.04.13.46.36.34.19.84.13 1.2.92Z" fill="#CBB488"/><path d="M24.62 44.37c-.46-1.42-1.13-.68-2-1.57-.1-.12-.22-.3-.23-.32-.37-.43.06-.08-.44-.4.32 2 .68 2.23 2.67 2.29Z" fill="#DAC497"/><path d="m26.38 12.71.11-.56 1.15-.3c-.6-.7-1.9-1.19-2.55-.23.23.81-.44-.12 1.3 1.1Z" fill="#E6C798"/><path d="M29.8 40.8c.47.54.32.73.45 1.37.04.01.1-.02.12.02l.87-.28.22-1.27c-.5-.18-.67-.26-.94-.54-.5.45-.2.45-.72.7Z" fill="#937453"/><path d="M17.48 26.4c.82.65.59.46 1.27 1.41 2.07 2.87-.05 1.6-.87 2.52 3.83 1.04-.26.51-2.38.63.2.42.08-.4.43.64-.53-.06-5.14-.8-.1.31.57.13 1.86.27 2.47.33-1.28 1-4.75 2.63-4.79 2.67.42.3.05-.04.37.46.26-.62-.3-.07.4-.56.16 2.05 1.55.46 2.5 1.17-.34.33-.47.29-.74.7 1.33-.2 2.6-1.25 4.07-1.93.71-.32 1.54-2.08 2.31-.73l.89-.68c.26-.78 1.54-4.04 3.48-2.2.07-.35-.11-.51-.14-.57-1.26.19-.46.35-1.92.03-.93-.2-.8-.2-1.63.19-.5.23-.53.23-1.08.17-.86-.1-1.59-.34-1.81-1.3.8-.73 2.12-.26 3.91.06.74.13.69.18 1.27.36-.94-1.12-.47.26-1.09-.84a5.64 5.64 0 0 0-1.95-2.37l.04.47c.12 1.07.33 1.06.71 1.95l-.2-.1c-.86-.48-1.25-.95-1.16-2.17-.59-.46-1.09-1.2-1.66-1.38-.2.04-1.18.56-1.52 1.16l-1.08-.4Z" fill="#6D5334"/></svg>