<!-- by TradingView --><svg width="56" height="56" viewBox="0 0 56 56" xmlns="http://www.w3.org/2000/svg"><path fill="#F0F3FA" d="M0 0h56v56H0z"/><path d="M4 28.5C4 26.52 5.4 25 7.44 25c1.59 0 2.7.88 3.05 2.07l-1.3.5c-.28-.81-.82-1.37-1.77-1.37-1.19 0-1.92.84-1.92 2.3 0 1.44.71 2.29 1.92 2.29.94 0 1.53-.58 1.81-1.38l1.27.52C10.02 31.22 9.02 32 7.42 32 5.35 32 4 30.53 4 28.5ZM11.5 25H13v3h3v-3h1.5v7H16v-3h-3v3h-1.5v-7ZM22.43 29l-.5-1.42a4.82 4.82 0 0 1-.18-1.58h-.52a4.73 4.73 0 0 1-.18 1.6l-.5 1.4h1.88Zm.07 1h-2l-.94 2H18l2.56-7h1.9L25 32h-1.62l-.88-2ZM35.43 29l-.5-1.42a4.82 4.82 0 0 1-.18-1.58h-.52a4.73 4.73 0 0 1-.18 1.6l-.5 1.4h1.88Zm.07 1h-2l-.94 2H31l2.56-7h1.9L38 32h-1.62l-.88-2ZM25 25h1.45l1.02 3.79c.2.68.3 1.49.31 2.21h.47c0-.72.1-1.53.3-2.21L29.57 25H31l-2.07 7h-1.85L25 25ZM39 25h2.08l2.75 5.2.4-.31c-.43-.81-.73-1.19-.73-2.25V25H45v7h-1.61l-3.23-6.08-.4.3c.31.66.74 1.3.74 2.44V32H39v-7ZM48.28 26H46v-1h6v1h-2.28v6h-1.44v-6Z" fill="#020203"/></svg>