<!-- by TradingView --><svg width="56" height="56" viewBox="0 0 56 56" xmlns="http://www.w3.org/2000/svg"><path fill="#F0F3FA" d="M0 0h56v56H0z"/><circle cx="28" cy="28" r="16.29" fill="url(#aipaemwn5)"/><path fill-rule="evenodd" d="M28 45a17 17 0 1 0 0-34 17 17 0 0 0 0 34Zm0-.94a16 16 0 1 0 0-32 16 16 0 0 0 0 32Z" fill="#0C1A2C"/><path d="M28.88 33.77V23.14c.2-.23.87-.7 1.9-.7.62 0 1.12.3 1.65.6.57.33 1.16.67 1.94.67 1.22 0 1.76-.38 1.87-.57V27c-.1.26-.6.78-1.87.78-.74 0-1.16-.18-1.6-.36a4.4 4.4 0 0 0-1.99-.42c-.45 0-1.05.18-1.29.28v7.61h-.7l.1-1.13Zm-15.7-2.27 5.3-5.68 6.03 6 2.62 3.43h6.33l1.05-.85c.2-.17 1.13-2.95 1.57-4.32.7.81 2.27 2.25 2.97 1.45.36-.4.5-.72.6-.95.15-.34.22-.5.77-.5.73 0 1.78.97 2.22 1.45l1.55.21c-.87 1.85-3.16 6.05-5.36 8.03-2.75 2.48-8.76 2.88-9.63 2.8-.86-.07-10.93-2.69-12.43-3.44-.63-.32-1.12-1.74-1.68-3.35-.53-1.51-1.11-3.2-1.91-4.28Z" fill="#183050"/><path d="m12.48 27.88-.84 2.7c.48 4.65 5 13.96 16.1 13.96 11.72 0 15.72-8.71 16.25-13.07l-.74-.1h-.37l.58-1.1-.58-2.26c-.2.31-.6.95-.6 1v2.36c-.31.28-.94.93-.9 1.22a18 18 0 0 1-.5 2.67c-.02-.09-.42-1.93-.44-1.93-.02 0-.7-2.72-.79-3.37-.09-.65-.26.46-.35.65-.09.2-.5 1.14-.84 1.77-.33.64-.39.95-.39 1.25 0 .3-.3 2.9-.3 3.09 0 .15-.35-.54-.52-.91-.02-.87-.07-2.74-.13-3.22a30.3 30.3 0 0 0-.24-1.61l-.9-1.5c-.35.82-1.14 2.5-1.5 2.75-.46.3-.64.15-.73.15-.07 0-.55 1.15-.79 1.72l-.9-2-.27 2.55c-.02.08-.52.3-.77.4l-.93-2.82-.39 2.17h-.6c-.1 0 .1-.91 0-1.07-.08-.16-1.23-.6-1.37-.74-.1-.1.27-.37.48-.49l-.34-1.31-.75-1.69c-.23.56-.7 1.71-.7 1.88 0 .17-.85 1.08-1.27 1.5L23.84 29c-.37 1.16-1.18 3.57-1.46 3.87-.35.38-.16 1.23-.2 1.53-.02.24-.77.54-1.13.65l-.81-2.95-.62 1.78c-.17-.08-.5-.26-.49-.39.02-.16-.14-.62-.24-.62-.1 0-.53-.13-.56-.49-.03-.28-.4-1.82-.58-2.56l-2.37 3.96c-.16.06-.49.13-.57 0a3.7 3.7 0 0 1-.27-.91c-.07-.34-.78-.98-.88-1.25-.08-.21-.82-2.58-1.18-3.74Z" fill="#0C1A2C"/><defs><linearGradient id="aipaemwn5" x1="28" y1="11.71" x2="28" y2="44.29" gradientUnits="userSpaceOnUse"><stop stop-color="#1B3E60"/><stop offset=".32" stop-color="#4698BD"/><stop offset=".67" stop-color="#F9FCFD"/></linearGradient></defs></svg>