<!-- by TradingView --><svg width="56" height="56" viewBox="0 0 56 56" xmlns="http://www.w3.org/2000/svg"><path fill="#F0F3FA" d="M0 0h56v56H0z"/><path d="M35 30.54v4.2A7.62 7.62 0 0 1 30.8 36a7.18 7.18 0 0 1-2.97-.54A8.07 8.07 0 0 1 23 28c0-4.25 3.4-8.14 7.8-8 1.48 0 2.94.44 4.2 1.26v4.2c-.89-1.36-2.42-2.48-4.06-2.46-2.68-.17-4.94 2.4-4.94 5s2.26 5.17 4.94 5c1.64.02 3.17-1.1 4.06-2.46ZM13 28c0 1.92.36 3.82 1.07 5.6l5.95-3.93a9 9 0 0 1 .37-4.7l-6.11-3.07c-.85 1.92-1.28 4-1.28 6.1Z" fill="#5A7F8F"/><path d="m14.48 34.53 5.8-3.83c1.25 3.96 5.18 6.85 9.84 6.85A10.48 10.48 0 0 0 39 32.8v8.8a17.77 17.77 0 0 1-8.97 2.4c-3.23.05-6.4-.82-9.16-2.5a16.98 16.98 0 0 1-6.4-6.96Zm15.64-16.08A10.48 10.48 0 0 1 39 23.2v-8.8a17.77 17.77 0 0 0-8.97-2.4c-3.13-.04-6.21.77-8.9 2.35a17.04 17.04 0 0 0-6.4 6.59l6.08 3.04a10.26 10.26 0 0 1 9.31-5.54Z" fill="#0E3140"/></svg>