<!-- by TradingView --><svg xmlns="http://www.w3.org/2000/svg" width="56" height="56" viewBox="0 0 56 56"><path fill="#F0F3FA" d="M0 0h56v56H0z"/><path d="M6 28.17c-.06-1.72.91-5.17 5.32-5.17.53 0 2 .18 3.68.83l-.5 2.2-.48-.26a4.69 4.69 0 0 0-2.7-.77C10.5 25 9 25.47 9 28.17 9 29 9.4 31 11.56 31c.55.01 2.18-.3 3.44-1.45v2.42l-.16.09c-.69.36-1.8.94-3.28.94C9.8 33 6 32.3 6 28.17zm10-1.7V33h3v-7.02c0-.48.29-.98.76-.98h.55c.47 0 .69.5.69.98V33h3v-6.54A3.45 3.45 0 0 0 20.57 23h-1.14A3.45 3.45 0 0 0 16 26.46zm17 0V33h3v-7.02c0-.48.29-.98.76-.98h.55c.47 0 .69.5.69.98V33h3v-6.54A3.45 3.45 0 0 0 37.57 23h-1.14A3.45 3.45 0 0 0 33 26.46zM32 23h-7v6.44c0 2.14 1.35 3.56 3.44 3.56H32v-2h-3.03c-.7 0-.97-.65-.97-1.36V29h4v-2h-4v-2h4v-2zm10 3.29V23h3v3.7c0 .66.33 1.3 1 1.3.67 0 1-.64 1-1.3V23h3v3.29a3.64 3.64 0 0 1-2.5 3.48V33h-3v-3.23A3.64 3.64 0 0 1 42 26.3zM30.6 15.55c-1.36.24-2.75.84-4.42 1.93a23.1 23.1 0 0 1-9.11 3.63 13.95 13.95 0 0 0-4.19 1.5l-.59-.16.92-.5A14.4 14.4 0 0 1 17 20.7c2.83-.5 5.6-1.4 8.94-3.57 1.7-1.1 3.15-1.73 4.59-1.99 1.44-.25 2.84-.13 4.42.26 1.67.4 3.22 1.76 4.5 3.22a36.73 36.73 0 0 1 2.65 3.51l.05.08h-.53c-.63-.91-1.5-2.16-2.51-3.32-1.28-1.44-2.75-2.72-4.27-3.08a10.1 10.1 0 0 0-4.23-.25zm9.12 6.65c-.74-.97-1.9-2.2-3.26-3.3a13.9 13.9 0 0 0-4.7-2.7 4.41 4.41 0 0 0-2.61.15c-.78.26-1.44.65-1.84.92l-.96.66c-.6.42-1.27.89-1.96 1.32a12 12 0 0 1-3.1 1.52c-.91.24-3.55.86-4.75 1.08l.04.17a10.19 10.19 0 0 1 2.01-.17 96.3 96.3 0 0 0 2.82-.67c1.03-.27 2.16-.9 3.23-1.57a56.5 56.5 0 0 0 2.93-2c.38-.24 1-.61 1.73-.86a3.95 3.95 0 0 1 2.33-.14c1.5.42 3.11 1.44 4.54 2.6 1.21 1 2.27 2.1 2.99 3h.56zm-4.49 0a6.99 6.99 0 0 0-2.47-2.74 2.93 2.93 0 0 0-1.44-.44c-1.82-.1-3.8.44-5.62 1.1-1.15.43-2.27.93-3.26 1.36l-1.22.53c.52.05.96.11 1.26.16l.28-.12c.97-.43 2.05-.9 3.19-1.32 1.8-.66 3.67-1.16 5.34-1.06h.02c.07 0 .5 0 1.1.35.56.32 1.3.95 2.05 2.18h.77zm-1.77 0c-.1-.3-.28-.65-.58-.95a2.9 2.9 0 0 0-2.08-.8 7.82 7.82 0 0 0-3.04.76c-.74.31-1.42.68-1.93 1h1.33c.28-.15.57-.29.87-.42a7.16 7.16 0 0 1 2.76-.7c.8.02 1.3.3 1.6.6.17.17.28.35.35.51h.72zM44.15 34h.46c-.08.45-.37.93-.92 1.45-.6.56-1.5 1.13-2.8 1.65-2.6 1.04-6.81 1.87-13.4 1.9-6.59.03-10.9-.79-13.63-1.83a10.1 10.1 0 0 1-2.99-1.67A3.18 3.18 0 0 1 9.78 34h.47c.11.34.4.73.92 1.18.61.53 1.53 1.08 2.86 1.6 2.65 1 6.9 1.82 13.46 1.8 6.55-.04 10.7-.87 13.23-1.87a8.39 8.39 0 0 0 2.66-1.56c.47-.45.7-.83.77-1.15zm-2.19 0h.46c-.07.38-.33.79-.8 1.22-.53.47-1.32.94-2.46 1.38-2.27.86-5.96 1.55-11.7 1.58-5.76.02-9.53-.66-11.91-1.53a8.96 8.96 0 0 1-2.62-1.4 2.69 2.69 0 0 1-.96-1.25h.47c.1.27.34.57.78.93.53.44 1.33.9 2.49 1.32 2.3.85 6.02 1.53 11.74 1.5 5.72-.02 9.35-.71 11.55-1.55a7.37 7.37 0 0 0 2.3-1.3c.4-.35.6-.65.66-.9zm-2.48 0h.46c-.07.33-.29.66-.69 1.02-.44.4-1.1.8-2.05 1.16-1.9.72-4.99 1.3-9.8 1.32-4.8.02-7.95-.55-9.94-1.28-1-.36-1.71-.77-2.2-1.17a2.28 2.28 0 0 1-.81-1.05h.47c.1.21.29.44.64.73.43.36 1.1.74 2.06 1.1 1.92.7 5.02 1.26 9.79 1.24 4.77-.02 7.79-.6 9.62-1.3a6.12 6.12 0 0 0 1.92-1.06c.31-.29.47-.51.53-.71zm-2.49 0h.46c-.05.27-.24.53-.56.82-.35.32-.9.65-1.66.94-1.53.58-4.01 1.04-7.86 1.06-3.86.02-6.4-.44-8-1.03-.8-.29-1.38-.62-1.77-.94-.37-.3-.58-.57-.67-.85h.48c.08.15.22.31.48.52.34.29.87.6 1.64.87 1.54.57 4.01 1.02 7.83 1 3.83-.01 6.24-.47 7.7-1.03a4.86 4.86 0 0 0 1.53-.85c.23-.21.35-.36.4-.51zm-2.62 0h.33c-.05.19-.18.36-.4.56-.26.23-.65.47-1.22.68-1.12.43-2.94.77-5.76.78-2.83.02-4.69-.32-5.86-.75a4.44 4.44 0 0 1-1.3-.7 1.4 1.4 0 0 1-.47-.57h.34c.06.1.16.2.33.35.26.21.65.44 1.21.64 1.13.41 2.94.75 5.75.73 2.8 0 4.57-.35 5.65-.75.53-.2.9-.43 1.12-.63.15-.14.24-.24.28-.34zm-2.04 0h.24c-.04.13-.13.23-.28.36-.19.17-.47.34-.87.5-.8.3-2.11.54-4.14.55-2.03.01-3.36-.23-4.2-.54a3.19 3.19 0 0 1-.93-.5 1.03 1.03 0 0 1-.33-.37h.25c.04.07.11.12.22.21.18.15.46.31.87.46.8.3 2.11.54 4.12.53 2.01-.01 3.28-.25 4.06-.55.38-.14.64-.3.8-.45.1-.08.15-.13.19-.2zm-1.91 0h.25c-.04.08-.1.14-.19.22-.12.11-.31.23-.58.33-.53.21-1.39.37-2.72.38-1.32 0-2.2-.16-2.76-.36-.28-.1-.48-.22-.62-.34-.1-.09-.17-.14-.21-.23h.26l.1.07c.12.1.3.2.55.3.53.2 1.37.35 2.68.34 1.32 0 2.14-.16 2.64-.36.25-.1.4-.2.5-.29.05-.03.07-.03.1-.06zm-.99 0h.27c-.03.06-.07.09-.13.14-.1.09-.24.18-.44.25a5.7 5.7 0 0 1-1.98.28c-.97 0-1.6-.11-2.02-.27-.2-.07-.35-.16-.46-.25-.07-.06-.12-.09-.15-.15h.28s.01-.02.02-.01c.08.07.2.14.4.21.37.14.98.26 1.93.26s1.54-.13 1.9-.26c.18-.07.3-.15.36-.21l.02.01z" fill="#1D95CC"/></svg>