<!-- by TradingView --><svg width="56" height="56" viewBox="0 0 56 56" xmlns="http://www.w3.org/2000/svg"><path fill="#F0F3FA" d="M0 0h56v56H0z"/><path d="M12.35 20H18v3h-5.4c-1.1 0-3.6.6-3.6 4.98C9 32.52 11.32 33 12.6 33H18v3h-5.65c-.92-.08-6.35.37-6.35-8.02C6 20.73 10.14 20 12.35 20ZM20 20v16h3V24l7.4 12H34V20h-3v11.4L23.9 20H20ZM40.88 20H49v3h-7.51c-.81 0-2.49-.08-2.49 1.52 0 1.62 1.48 1.51 2.07 1.48h4.56c.81.06 4.37.2 4.37 5.01 0 4.16-3 4.99-4.79 4.99H37v-3h8.21c.42 0 1.79-.4 1.79-1.99 0-1.17-.89-2.01-1.79-2.01h-4.33c-.48 0-4.88.44-4.88-4.48C36 19.9 39.22 20 40.88 20Z" fill="#0133CC"/></svg>