<!-- by TradingView --><svg width="56" height="56" viewBox="0 0 56 56" fill="none" xmlns="http://www.w3.org/2000/svg">
<rect width="56" height="56" fill="#F0F3FA"/>
<path fill-rule="evenodd" clip-rule="evenodd" d="M24 18.4438L18.7722 15.3853L19.8289 13.6355L24.8115 16.5138L27 15.3117V10H29V15.3117L30.8119 16.3069L35.3618 13.6355L36.4184 15.3853L32 17.9703V20.5775L38 23.6372V29.4673L39.5295 30.3074L43.9498 27.2789L45 29.0325L41 31.7219V34.8092L45 37.4987L43.9498 39.2522L39.6052 36.2756L38 37.1573V43H36V37.1573L34.0746 36.0997L27.9415 39.8637L22.1786 35.9606L20 37.1573V43H18V37.1573L16.6758 36.43L12.0557 39.2506L11 37.5003L15 35.163V31.3681L11 29.0309L12.0557 27.2805L16.7564 30.1504L18 29.4673V23.6372L24 20.2504V18.4438ZM25.1316 21.9754L20 24.7953V29.4673L22.3483 30.7572L27 28.2043V23.0017L25.1316 21.9754ZM29 23.0017V28.2022L33.9299 30.6044L36 29.4673V24.7953L30.5815 22.133L29 23.0017ZM33 32.4604L27.9452 29.9662L23 32.8558V33.7914L27.9452 37.4987L33 34.2986V32.4604Z" fill="#183A93"/>
</svg>
