<!-- by TradingView --><svg width="56" height="56" viewBox="0 0 56 56" fill="none" xmlns="http://www.w3.org/2000/svg">
<rect width="56" height="56" fill="#00283C"/>
<path d="M18.1459 20.9461C18.4599 22.3717 20.5219 29.434 20.9873 30.3796C21.7856 32.0251 22.8526 33 26.1745 33C29.5569 33 38.5691 31.0649 39.8896 30.5262C42.1445 29.5953 43.185 27.5283 42.9731 25.1241V25.1094C42.7461 23.1744 42.2202 21.2063 41.4257 19.2859C40.8089 17.699 39.1404 13.5063 33.9192 13.0702C33.8738 13.0702 28.4294 12.5021 22.3834 14.5984C20.9873 15.0932 17.2152 16.6508 18.1459 20.9461ZM35.6218 14.6974C36.5979 14.8147 38.3005 14.9723 39.7571 18.1058C40.703 20.1581 41.3046 22.2984 41.6678 24.5707C42.0121 26.711 40.9149 27.5393 39.9085 27.8325C37.907 28.4298 29.9655 29.9435 26.5377 30.1487C24.9297 30.2367 23.5147 29.4194 23.019 28.199C22.705 27.4257 20.8095 20.2058 20.8095 20.2058C20.223 17.9628 21.8462 16.5958 23.9687 16.0131C30.3741 14.2759 34.343 14.5398 35.6218 14.6974Z" fill="#E3B70A"/>
<path d="M40 25.3692C35.8 26.3894 31.202 27.3333 26.3064 28C25.5364 24.7628 24.7701 21.5376 24 18.2682C28.2148 16.6897 32.7533 15.6977 37.236 16.0832C38.9361 18.8907 39.9256 24.9877 40 25.3692Z" fill="#E3B70A"/>
<path d="M39.9698 37.907C37.1078 40.0739 28.367 42.033 22.673 40.7232C12.5219 38.3819 12.1788 26.0148 12.1788 26H12.0883C11.5641 31.9256 13.3779 37.1871 17.424 40.1778C18.8494 41.2241 20.3012 41.9774 21.9679 42.4338C23.661 42.905 25.5803 43.0831 27.9032 42.9643C32.9108 42.7269 37.828 40.7084 40 37.9218L39.9698 37.907Z" fill="#E3B70A"/>
<path d="M43.8638 30.8826C43.5346 31.5172 42.6303 32.7122 39.804 33.8033C36.9776 34.8945 31.3968 36.0449 27.0949 36.2342C24.2685 36.3678 19.4823 35.8817 18.0861 31.0459C17.7418 29.8508 15.8462 23.4526 15.7857 21.4931C15.6457 16.3455 20.7914 14.1633 21.1962 14C20.8065 14.1188 16.0997 15.5662 14.2798 21.0477C13.1826 24.3656 15.6041 31.9291 16.5197 33.7254C18.7596 38.1492 23.2583 38.7839 25.2295 38.9286C30.432 39.3406 36.902 37.9563 41.2039 35.1246C43.2357 33.7959 43.8222 31.7918 44 30.8789L43.8638 30.8826Z" fill="#E3B70A"/>
</svg>
