<!-- by TradingView --><svg width="56" height="56" viewBox="0 0 56 56" xmlns="http://www.w3.org/2000/svg"><path fill="url(#aekklcw2h)" d="M0 0h56v56H0z"/><path d="M8.15 33C5.73 33 4 31.45 4 29c0-2.38 2.07-4 4.33-4a10.5 10.5 0 0 1 2.57.34L10.8 27h-.63l-.27-1.17c-.24-.18-.9-.33-1.81-.33C6.2 25.5 5 27.24 5 29c0 1.84 1.15 3.5 3.18 3.5.6 0 1.23-.04 1.74-.4l.48-.98.6.07-.3 1.41c-.2 0-.43.05-.71.14-.6.17-1.21.26-1.84.26ZM13 32.54l1-.1v-6.79l-1-.13V25h3c1.45 0 3 .31 3 2 0 1.02-.75 2.05-1.74 2.34.2.12.38.32.57.6.2.28.44.67.72 1.16.25.44.44.76.59.98.15.22.29.33.4.36l.46.11V33h-1.28c-.11 0-.25-.12-.4-.36-.15-.24-.37-.63-.64-1.17-.3-.6-.55-1.04-.74-1.36a1.73 1.73 0 0 0-.57-.63H15v2.97l.95.1V33H13v-.46ZM16.5 29c1.06 0 1.5-1 1.5-2 0-1.2-.9-1.48-2-1.48-.36 0-.64.07-1 .07V29h1.5ZM24.81 33C22.5 33 21 31.32 21 29.04A4 4 0 0 1 25.12 25c2.33 0 3.88 1.6 3.88 3.92A4.06 4.06 0 0 1 24.81 33Zm.2-7.5C23 25.5 22 27.23 22 29.03c0 1.74 1.05 3.47 2.98 3.47 2.01 0 3.02-1.66 3.02-3.47 0-1.73-1.08-3.55-2.99-3.55ZM44 25.58l-1-.12V25h2.5l4.5 6.6v-6.02l-1-.12V25h3v.46l-1.04.12V33H50l-5-6.98v6.42l.9.1V33H43v-.46l1-.11v-6.85ZM42 25l-2 8h-2l-1.5-5.5L35 33h-2l-2-8h2l1 6 1.5-6h2l1.5 6 1-6h2ZM32.5 22a1 1 0 1 1-2 0 1 1 0 0 1 2 0ZM37.5 22a1 1 0 1 1-2 0 1 1 0 0 1 2 0ZM42.5 22a1 1 0 1 1-2 0 1 1 0 0 1 2 0Z" fill="#fff"/><defs><linearGradient id="aekklcw2h" x1="10.42" y1="9.71" x2="68.15" y2="76.02" gradientUnits="userSpaceOnUse"><stop stop-color="#1A1E21"/><stop offset="1" stop-color="#06060A"/></linearGradient></defs></svg>