<!-- by TradingView --><svg xmlns="http://www.w3.org/2000/svg" width="56" height="56" viewBox="0 0 56 56"><path fill="url(#ah5wtmkot)" d="M0 0h56v56H0z"/><path d="M11.37 26.8A2.97 2.97 0 0 1 6 25a3 3 0 0 1 5.36-1.82l-.79.58a2 2 0 1 0-.01 2.5l.8.54z" fill="#fff"/><path fill="#E71818" d="M37 31h1v6h-1z"/><path fill-rule="evenodd" d="M32.67 22h1.77a2 2 0 0 1 .8 3.83L36.38 28H35.2l-1.04-2H33v2h-1v-6h.67zm.33 3v-2h1.44a1 1 0 1 1 0 2H33z" fill="#fff"/><path fill-rule="evenodd" d="M13.67 31h1.77a2 2 0 0 1 .8 3.83L17.38 37H16.2l-1.04-2H14v2h-1v-6h.67zm.33 3v-2h1.44a1 1 0 1 1 0 2H14z" fill="#E71818"/><path d="M27.5 22H26v1h1.5v5h1v-5H30v-1h-2.5z" fill="#fff"/><path d="M26 31h-1.5v1H26v5h1v-5h1.5v-1H26z" fill="#E71818"/><path d="M47 22h-1v6h4v-1h-3v-5z" fill="#fff"/><path d="M41 31h-1v6h4v-1h-3v-5z" fill="#E71818"/><path d="M13.56 22H13v6h3.42v-1H14v-1.5h2.25v-1H14V23h2.42v-1h-2.86z" fill="#fff"/><path d="M19.56 31H19v6h3.42v-1H20v-1.5h2.25v-1H20V32h2.42v-1h-2.86z" fill="#E71818"/><path d="M19 22v6h1v-4.18L22.9 28H24v-6h-1v4.23L20 22h-1z" fill="#fff"/><path fill-rule="evenodd" d="M38.22 28l2.47-6h1.07l2.44 6h-1.21l-.56-1.32h-2.48L39.46 28h-1.24zm2.13-2.32l.84-2.25.88 2.25h-1.72z" fill="#fff"/><path fill-rule="evenodd" d="M29.01 37l2.48-6h1.07l2.43 6h-1.21l-.55-1.32h-2.49L30.25 37h-1.24zm2.13-2.32l.84-2.25.88 2.25h-1.72z" fill="#E71818"/><defs><linearGradient id="ah5wtmkot" x1="10.42" y1="9.71" x2="68.15" y2="76.02" gradientUnits="userSpaceOnUse"><stop stop-color="#1A1E21"/><stop offset="1" stop-color="#06060A"/></linearGradient></defs></svg>