<!-- by TradingView --><svg width="56" height="56" viewBox="0 0 56 56" xmlns="http://www.w3.org/2000/svg"><path fill="#F0F3FA" d="M0 0h56v56H0z"/><path fill-rule="evenodd" d="M28 45a17 17 0 1 0 0-34 17 17 0 0 0 0 34Zm0-2a15 15 0 1 0 0-30 15 15 0 0 0 0 30Zm1.99-24.8a2 2 0 1 1-.18-1.05 11 11 0 0 1 8.08 15.68c-.22-.28-.48-.5-.8-.67A10 10 0 0 0 30 18.2Zm-.77-.2a1.22 1.22 0 1 1-2.44 0 1.22 1.22 0 0 1 2.44 0Zm5.66 18.58a2.09 2.09 0 0 0 2.87-1.95 2.1 2.1 0 1 0-3.71 1.34 9.96 9.96 0 0 1-11.33.52c-.25.26-.55.48-.89.61a10.95 10.95 0 0 0 13.06-.52Zm-14.6-4.04c-.38 0-.74.1-1.04.28a10 10 0 0 1 5.89-14.4 2.45 2.45 0 0 1 .04-1.05 11 11 0 0 0-6.67 16.17 2.1 2.1 0 1 0 1.8-1Zm0 3.37a1.28 1.28 0 1 0 0-2.56 1.28 1.28 0 0 0 0 2.56Zm16.65-1.28a1.28 1.28 0 1 1-2.56 0 1.28 1.28 0 0 1 2.56 0ZM28.47 33c1.88 0 3.55-.87 4.53-2.2l-1.39-1.43A3.6 3.6 0 0 1 28.5 31c-1.93 0-3.5-1.34-3.5-3s1.57-3 3.5-3a3.6 3.6 0 0 1 3.06 1.55L33 25.18A5.62 5.62 0 0 0 28.47 23C25.45 23 23 25.24 23 28s2.45 5 5.47 5Z" fill="#779BCD"/></svg>