<!-- by TradingView --><svg xmlns="http://www.w3.org/2000/svg" width="56" height="56" viewBox="0 0 56 56"><path fill="#F2D4D6" d="M0 0h56v56H0z"/><path d="M40.66 29.59a7.93 7.93 0 0 0-1.16-.96 5.36 5.36 0 0 1-1.39 1.35 5.93 5.93 0 0 1 1.21 9.33v.01a5.92 5.92 0 0 1-9.33-1.2 5.37 5.37 0 0 1-1.35 1.37 7.81 7.81 0 0 0 12.07 1.22v-.01a7.83 7.83 0 0 0-.05-11.11zM26 38.11a5.92 5.92 0 0 1-9.32 1.21 5.93 5.93 0 0 1 1.2-9.34 5.4 5.4 0 0 1-1.38-1.35A7.83 7.83 0 0 0 15.3 40.7v.01a7.81 7.81 0 0 0 12.07-1.22 5.37 5.37 0 0 1-1.35-1.38z" fill="#212322"/><path d="M20.06 20.06a8.1 8.1 0 0 1 7.88 3.79l-.84 2.81c-.56-1.98-2.37-4.26-5.1-4.67.4 2.74 2.68 4.56 4.66 5.11l-2.8.85a8.11 8.11 0 0 1-3.77-5.72l-.03-.2V22 22l-.02-.12a8.13 8.13 0 0 1 .02-1.82zM34.01 22c-.41 2.74-2.7 4.56-4.67 5.11l2.8.85a8.1 8.1 0 0 0 3.77-5.72l.03-.2V22l.02-.12a8.13 8.13 0 0 0-.02-1.82 8.46 8.46 0 0 0-1.96 0 8.1 8.1 0 0 0-5.93 3.8l.85 2.8c.56-1.98 2.37-4.26 5.1-4.67zm1.94.03zm-1.97 13.93a8.17 8.17 0 0 0 1.96-.01 8.5 8.5 0 0 0 .02-1.82l-.01-.1v-.05l-.03-.2a8.11 8.11 0 0 0-3.77-5.72l-2.81.85c1.98.55 4.26 2.37 4.67 5.1-2.74-.4-4.55-2.68-5.1-4.67l-.86 2.82a8.1 8.1 0 0 0 5.93 3.8zM22 34c.41-2.74 2.7-4.56 4.67-5.11l-2.8-.85a8.11 8.11 0 0 0-3.77 5.72l-.03.2V34l-.02.13a8.12 8.12 0 0 0 .02 1.82 8.49 8.49 0 0 0 1.96 0 8.1 8.1 0 0 0 5.93-3.8l-.85-2.8c-.56 1.98-2.37 4.26-5.1 4.67z" fill="#212322"/><path d="M30 17.89a5.92 5.92 0 0 1 9.32-1.21 5.93 5.93 0 0 1-1.21 9.34 5.4 5.4 0 0 1 1.39 1.35A7.83 7.83 0 0 0 40.7 15.3v-.01a7.81 7.81 0 0 0-12.07 1.22 5.38 5.38 0 0 1 1.35 1.38zM15.33 26.4c.36.36.74.68 1.16.96a5.35 5.35 0 0 1 1.39-1.35 5.93 5.93 0 0 1-1.21-9.33v-.01a5.92 5.92 0 0 1 9.33 1.2 5.37 5.37 0 0 1 1.35-1.37 7.81 7.81 0 0 0-12.07-1.22v.01a7.83 7.83 0 0 0 .05 11.11z" fill="#212322"/></svg>