<!-- by TradingView --><svg width="56" height="56" viewBox="0 0 56 56" xmlns="http://www.w3.org/2000/svg"><path fill="#F0F3FA" d="M0 0h56v56H0z"/><path d="M28 26c-2.81 0-5.17.97-6 1.45 0 1.57.29 4.23 1 6.93.7 2.73 3.55 5.57 5 6.62 1.9-1.34 4.4-3.96 5.08-6.62.55-2.13.84-5.5.92-6.93A13.07 13.07 0 0 0 28 26Z" fill="url(#ahn0gkyb4)"/><path opacity=".3" d="M28 41V26c2.82 0 5.18.97 6 1.45-.08 1.43-.37 4.8-.92 6.93C32.4 37.04 29.9 39.66 28 41Z"/><path d="M17 24.1c0 3.52.57 11.37 2.85 14.59A24.15 24.15 0 0 0 27.92 46c1.93-.98 6.3-3.8 8.42-7.31 2.34-4.16 2.74-11.25 2.65-14.44C37.7 23.17 33.7 21 27.92 21c-4.4 0-9.11 2.06-10.92 3.1Zm3.28 1.84a17.63 17.63 0 0 1 7.75-1.77c3.63 0 6.68 1.18 7.75 1.77-.1 1.74-.49 5.86-1.2 8.46-.87 3.25-4.11 6.44-6.55 8.08-1.89-1.28-5.56-4.75-6.48-8.08a35.2 35.2 0 0 1-1.27-8.46Z" fill="url(#bhn0gkyb4)"/><path d="M28.03 45.95c1.97-1.03 6.23-3.82 8.3-7.26 2.35-4.16 2.75-11.25 2.66-14.44-1.27-1.07-5.23-3.22-10.96-3.25v3.17c3.63 0 6.68 1.18 7.75 1.77-.1 1.74-.49 5.86-1.2 8.46-.87 3.25-4.11 6.44-6.55 8.08v3.47Z" fill="url(#chn0gkyb4)"/><path d="m38.87 28.47-3.2-1.06a45.62 45.62 0 0 1-1.08 7 11.16 11.16 0 0 1-1.91 3.66l4.12-.29c1.24-2.7 1.83-6.3 2.07-9.31Z" fill="#163956"/><path d="m19.63 17.66-1.31-.58-.21 2.65 1.52-.2v-1.87Z" fill="url(#dhn0gkyb4)"/><path d="m22.96 16.34-1.3-.58-.22 2.65 1.52-.2v-1.87Z" fill="url(#ehn0gkyb4)"/><path d="m26.3 15.02-1.3-.58-.22 2.64 1.53-.2v-1.86Z" fill="url(#fhn0gkyb4)"/><path d="M28 19.3c-5.3 0-9.54 2.05-11 3.08v-4.76l1.33-.57v2.25l1.85-.63v-2.19l1.5-.72v2.22l1.95-.73v-2.18l1.35-.6v2.14l1.97-.65v-2.21l1.05-.47v6.02Z" fill="#6492C4"/><path d="m36.37 17.66 1.31-.58.21 2.65-1.52-.2v-1.87Z" fill="url(#ghn0gkyb4)"/><path d="m33.04 16.34 1.3-.58.22 2.65-1.52-.2v-1.87Z" fill="url(#hhn0gkyb4)"/><path d="m29.7 15.02 1.3-.58.22 2.64-1.53-.2v-1.86Z" fill="url(#ihn0gkyb4)"/><path d="M28 19.3c5.3 0 9.54 2.05 11 3.08v-4.76l-1.33-.57v2.25l-1.85-.63v-2.19l-1.5-.72v2.22l-1.95-.73v-2.18l-1.35-.6v2.14l-1.97-.65v-2.21L28 13.28v6.02Z" fill="#5F85B6"/><path d="M27.96 8.4a1.9 1.9 0 0 1 1.44.19c.6.33 1.08.8 1.25 1 .09.07.2.17.35.27.23.16.5.33.77.46a3.5 3.5 0 0 0 1.4.34v.21c-.27 0-.93-.07-1.5-.36a6.28 6.28 0 0 1-1.01-.64v.3a4.27 4.27 0 0 0 2.08.9c.22.03.35.02.4 0l.06.21c-.09.03-.26.04-.49.01a4.5 4.5 0 0 1-2.06-.84v.1a25.35 25.35 0 0 0 .8.6c.18.12.33.21.44.26.16.06.45.1.74.12.3.02.59.01.77 0v.22h-.78c-.3-.02-.61-.06-.82-.15a2.9 2.9 0 0 1-.48-.28 12.83 12.83 0 0 1-1.06-.8l-.05-.04-.1-.1a3.97 3.97 0 0 0-.06-.04l.02-.02a2.82 2.82 0 0 0-1.18-.43c-.53 0-.84.03-.93.04V8.4Z" fill="url(#jhn0gkyb4)"/><path d="M28.62 10.29a2.3 2.3 0 0 0-.66.06l-.05-.2c.16-.05.42-.09.71-.08.3.01.62.06.9.22a8.2 8.2 0 0 1 1.44 1.05c.12.1.38.23.68.35.29.11.6.2.86.21.4.03.83-.05.99-.1l.06.2c-.17.06-.63.14-1.07.12a3.27 3.27 0 0 1-.93-.24c-.3-.12-.58-.26-.73-.37l-.22-.19c-.3-.24-.7-.58-1.2-.85a1.76 1.76 0 0 0-.78-.18Z" fill="url(#khn0gkyb4)"/><path d="M27.99 11.03c.24-.17.9-.43 1.57 0l.66.48.1.08.57.42c.45.31.91.58 1.37.62.71.07 1.19-.15 1.35-.28l-.15-.16c-.1.09-.52.3-1.18.23-.4-.04-.81-.27-1.26-.58l-.56-.42-.1-.08c-.23-.17-.45-.33-.68-.48-.76-.5-1.53-.2-1.83 0l.14.17Z" fill="url(#lhn0gkyb4)"/><path d="M28.96 11.5c-.5 0-.9.14-1.04.2l-.1-.2c.16-.07.6-.21 1.14-.21.7 0 1.22.4 1.59.83a6.83 6.83 0 0 1 .28.35c.1.13.2.26.32.37.23.22.48.37.77.35.32-.02.51-.11.68-.19a.88.88 0 0 1 .58-.1c.34.05.82.17 1.01.21l-.05.21c-.2-.05-.67-.16-1-.22-.17-.03-.27.02-.45.1-.17.08-.39.18-.75.2-.4.03-.7-.17-.95-.41a4.11 4.11 0 0 1-.33-.39l-.09-.1a6.5 6.5 0 0 0-.2-.25c-.34-.4-.8-.75-1.4-.75Z" fill="url(#mhn0gkyb4)"/><path d="M28.04 8v5.4h-.22V8h.22Z" fill="#677E99"/><defs><linearGradient id="ahn0gkyb4" x1="28" y1="26" x2="28" y2="41" gradientUnits="userSpaceOnUse"><stop stop-color="#C5AA41"/><stop offset="1" stop-color="#809EBA"/></linearGradient><linearGradient id="bhn0gkyb4" x1="28" y1="21" x2="28" y2="46" gradientUnits="userSpaceOnUse"><stop stop-color="#638DB7"/><stop offset="1" stop-color="#40627E"/></linearGradient><linearGradient id="chn0gkyb4" x1="33.51" y1="21" x2="33.51" y2="45.95" gradientUnits="userSpaceOnUse"><stop stop-color="#557FAF"/><stop offset=".97" stop-color="#2F5677"/></linearGradient><linearGradient id="dhn0gkyb4" x1="18.23" y1="17.29" x2="18.82" y2="19.74" gradientUnits="userSpaceOnUse"><stop stop-color="#6A91BA"/><stop offset=".65" stop-color="#3D6191"/></linearGradient><linearGradient id="ehn0gkyb4" x1="21.57" y1="15.96" x2="22.15" y2="18.42" gradientUnits="userSpaceOnUse"><stop stop-color="#6A91BA"/><stop offset=".65" stop-color="#3D6191"/></linearGradient><linearGradient id="fhn0gkyb4" x1="24.91" y1="14.64" x2="25.5" y2="17.09" gradientUnits="userSpaceOnUse"><stop stop-color="#6A91BA"/><stop offset=".65" stop-color="#3D6191"/></linearGradient><linearGradient id="ghn0gkyb4" x1="37.77" y1="17.29" x2="37.18" y2="19.74" gradientUnits="userSpaceOnUse"><stop stop-color="#6A91BA"/><stop offset=".65" stop-color="#3D6191"/></linearGradient><linearGradient id="hhn0gkyb4" x1="34.43" y1="15.96" x2="33.85" y2="18.42" gradientUnits="userSpaceOnUse"><stop stop-color="#6A91BA"/><stop offset=".65" stop-color="#3D6191"/></linearGradient><linearGradient id="ihn0gkyb4" x1="31.09" y1="14.64" x2="30.5" y2="17.09" gradientUnits="userSpaceOnUse"><stop stop-color="#6A91BA"/><stop offset=".65" stop-color="#3D6191"/></linearGradient><linearGradient id="jhn0gkyb4" x1="28.99" y1="9.25" x2="33.65" y2="10.35" gradientUnits="userSpaceOnUse"><stop stop-color="#85AADF"/><stop offset=".5" stop-color="#53697E"/><stop offset="1" stop-color="#849DC0"/></linearGradient><linearGradient id="khn0gkyb4" x1="28.99" y1="9.25" x2="33.65" y2="10.35" gradientUnits="userSpaceOnUse"><stop stop-color="#85AADF"/><stop offset=".5" stop-color="#53697E"/><stop offset="1" stop-color="#849DC0"/></linearGradient><linearGradient id="lhn0gkyb4" x1="28.99" y1="9.25" x2="33.65" y2="10.35" gradientUnits="userSpaceOnUse"><stop stop-color="#85AADF"/><stop offset=".5" stop-color="#53697E"/><stop offset="1" stop-color="#849DC0"/></linearGradient><linearGradient id="mhn0gkyb4" x1="28.99" y1="9.25" x2="33.65" y2="10.35" gradientUnits="userSpaceOnUse"><stop stop-color="#85AADF"/><stop offset=".5" stop-color="#53697E"/><stop offset="1" stop-color="#849DC0"/></linearGradient></defs></svg>