<!-- by TradingView --><svg width="56" height="56" viewBox="0 0 56 56" xmlns="http://www.w3.org/2000/svg"><path fill="#F0F3FA" d="M0 0h56v56H0z"/><path d="M45 29.46c-2.47 5.11-8.1 9.74-14.86 11.65-8.25 2.35-15.48-.1-17.63-5.5l14.42-4.1c1.28 4.1 5.59 6.07 10.42 4.45 3.25-1.1 6-3.56 7.65-6.5Zm-15.82 4.31 15.22-4.31a13.6 13.6 0 0 1-7.01 5.69c-3.28 1.07-6.28.46-8.2-1.38ZM12 30.2c1.1-6.45 7.7-12.93 16.06-15.31 6.48-1.84 12.35-.73 15.6 2.47-2-1.45-4.8-1.86-7.86-.84a14.25 14.25 0 0 0-8.85 9.45L12 30.2Zm31.09-12.47-12.8 3.64a13.36 13.36 0 0 1 5.83-4.03c2.62-.9 5.1-.67 6.97.4Z" fill="url(#atcbsjqsq)"/><defs><linearGradient id="atcbsjqsq" x1="15.88" y1="36.33" x2="48.62" y2="26.52" gradientUnits="userSpaceOnUse"><stop stop-color="#C2D500"/><stop offset="1" stop-color="#ACB663"/></linearGradient></defs></svg>