<!-- by TradingView --><svg width="56" height="56" viewBox="0 0 56 56" xmlns="http://www.w3.org/2000/svg"><path fill="#005542" d="M0 0h56v56H0z"/><path d="M37.45 24.74C21.2 20.44 8.38 25.13 4 28.01c1.1-.15 2.7-.06 3.37 0 8-4.95 18.56-4.85 22.85-4.18-12.44-.26-19.32 2.8-21.2 4.37l2.1.52c4-3.02 13.87-4.04 18.3-4.17-9.29.92-15.3 3.5-17.14 4.68a9.4 9.4 0 0 1 1.86 1.12c5.33-3.46 13.26-4.79 16.56-5.02-8.46 1.7-13.96 4.57-15.66 5.8a9.2 9.2 0 0 1 1.52 1.9C22.6 27.5 33 25.2 37.45 24.73Z" fill="#98B9AE"/><path d="M18.96 32.94c14.48-8.73 28.06-7.84 33.04-6.3-1.1.16-2.62.7-3.24.95-9.01-2.5-19.15.58-23.09 2.43 11.9-3.76 19.33-2.76 21.56-1.79l-1.9 1.1c-4.64-1.78-14.4.03-18.7 1.16 9.18-1.74 15.65-.96 17.74-.35-.45.3-1.19 1.2-1.5 1.6-6.05-1.8-14.03-.84-17.26-.13 8.59-.76 14.65.44 16.6 1.14a9.4 9.4 0 0 0-.95 2.25c-7.28-3.6-17.9-2.87-22.3-2.06Z" fill="#D5A10F"/></svg>