<!-- by TradingView --><svg width="56" height="56" viewBox="0 0 56 56" xmlns="http://www.w3.org/2000/svg"><path fill="#F0F3FA" d="M0 0h56v56H0z"/><path d="m49.64 22.78 2.36.19-2.2.87a.43.43 0 0 0-.25.27l-.59 1.8a.14.14 0 0 1-.26.01l-.88-1.8h-.7l-.12-.81.67-.2.32-1.99a.14.14 0 0 1 .25-.06l1.08 1.54c.08.1.2.17.32.18ZM24 23h1.5v8H24v-8Z" fill="#006395"/><path fill-rule="evenodd" d="M16.5 23H15v8h1.5v-3h5.31c.66 0 1.19-.59 1.19-1.3v-2.4c0-.71-.53-1.3-1.19-1.3H16.5Zm0 3.5h4.52c.27 0 .48-.23.48-.52v-.96c0-.29-.21-.52-.48-.52H16.5v2Z" fill="#006395"/><path d="M6.5 23c-.89 0-1.5.25-1.5 1.37v5.26C5 30.75 5.61 31 6.5 31h6.04c1 0 1.46-.66 1.46-1.5H6.5v-5H14c0-.92-.53-1.5-1.46-1.5H6.5Zm12.9 11.14L4 35h17.78c2.37 0 6.02-1.68 8.66-5.2a10.71 10.71 0 0 1 6.33-4.05L46 24.2V24c-2.42.22-7.73.7-9.6.85-2.35.2-4.31.88-7.63 5.1-2.65 3.37-7.14 4.03-9.37 4.19Z" fill="#006395"/><path fill-rule="evenodd" d="m32.62 31.18-.73.82H31l3.51-4h.9l.59 4h-.95l-.11-.82h-2.32Zm.66-.75 1.33-1.52.22 1.52h-1.55Z" fill="#B4B2B2"/><path d="M41 28h-3.54L36 32h3.58l.28-.74h-2.78l.34-.94H39l.27-.74H37.7l.3-.84h2.73L41 28Z" fill="#B4B2B2"/><path fill-rule="evenodd" d="M44.08 28h-2.56L40 32h.84l.57-1.5h.77l.85 1.5h1.25l-1.1-1.5a2.02 2.02 0 0 0 1.74-1.25.9.9 0 0 0-.84-1.25Zm-1.98.7-.44 1.16h1.56c.38 0 .72-.22.88-.56a.42.42 0 0 0-.37-.6H42.1Zm5.28-.7c-.6 0-1.14.36-1.37.92l-.97 2.35c-.14.36.12.75.5.75h3.08c.6 0 1.14-.37 1.37-.92l.97-2.36a.54.54 0 0 0-.5-.74h-3.08Zm2.62.73h-2.87L46 31.3h2.87L50 28.73Z" fill="#B4B2B2"/></svg>