<!-- by TradingView --><svg width="56" height="56" viewBox="0 0 56 56" fill="none" xmlns="http://www.w3.org/2000/svg">
<rect width="56" height="56" fill="#F0F3FA"/>
<path d="M33.7115 22.0044H22.2885C22.1292 22.0044 22 21.8702 22 21.7048V16.4061C22 16.2472 22.0608 16.0949 22.169 15.9825L27.8422 10.0921C27.9548 9.97512 28.1375 9.97512 28.2502 10.0921L33.831 15.8867C33.9392 15.999 34 16.1514 34 16.3103V21.7048C34 21.8702 33.8708 22.0044 33.7115 22.0044Z" fill="#67A796"/>
<path d="M22.0044 22.2885L22.0044 33.7115C22.0044 33.8708 21.8702 34 21.7048 34L16.4061 34C16.2472 34 16.0949 33.9392 15.9825 33.831L10.0921 28.1578C9.97512 28.0452 9.97512 27.8625 10.0921 27.7498L15.8867 22.169C15.999 22.0608 16.1514 22 16.3103 22L21.7048 22C21.8702 22 22.0044 22.1292 22.0044 22.2885Z" fill="#00785D"/>
<path d="M34.0044 22.2885L34.0044 33.7115C34.0044 33.8708 34.1385 34 34.304 34L39.6026 34C39.7615 34 39.9139 33.9392 40.0263 33.831L45.9167 28.1578C46.0336 28.0452 46.0336 27.8625 45.9167 27.7498L40.1221 22.169C40.0098 22.0608 39.8574 22 39.6985 22L34.304 22C34.1385 22 34.0044 22.1292 34.0044 22.2885Z" fill="#67A796"/>
<path d="M33.7115 34.0044H22.2885C22.1292 34.0044 22 34.1385 22 34.3039V39.6026C22 39.7615 22.0608 39.9139 22.169 40.0262L27.8422 45.9166C27.9548 46.0336 28.1375 46.0336 28.2502 45.9166L33.831 40.1221C33.9392 40.0097 34 39.8573 34 39.6984V34.3039C34 34.1385 33.8708 34.0044 33.7115 34.0044Z" fill="#67A796"/>
<circle cx="28.0044" cy="28.0044" r="6.00002" fill="#FFD203"/>
</svg>
