<!-- by TradingView --><svg width="56" height="56" viewBox="0 0 56 56" xmlns="http://www.w3.org/2000/svg"><path fill="#F0F3FA" d="M0 0h56v56H0z"/><path d="M18.87 32.23c2.7-1.22 6.96.52 6.96-1.54-1.28-.46-2.97-.2-4.32-.18-1.2.02-3.69-.47-4.16-1.25-.12-.2-.18-.37-.18-.54 0-1.25 1.78-1.49 2.82-1.49h2.89c1.34 0 1.93.4 1.87-1.14-1.6-1.32-4.95.13-6.92-.96-.06-1.04.26-1.9.58-2.61 2.17-.19 4.22-.08 6.44-.08.76 0 .71-.2.98-.58-.6-1.18-5.1-.62-6.78-.56-.5-1.2 0-1.67.66-2.49.4-.49 1.15-1.35 2.24-1.4 2.4-.14 6.33.45 7.13-.52-.86-1.18-5.73-.33-7.27-.85-.33-2.42 2.54-2.8 4.71-2.82 4.95-.04 10.2 2.97 10.15 4.56-.01.29-.18.53-.54.7-1.52.73-6.1-.36-7.05.75.6.92 2.69.48 3.83.48 1.46 0 3.34-.16 4.55.18.21.55.3 1 .29 1.37-.08 3.04-6.86.74-8.67 1.91.13.94.96.74 1.94.73 2.15 0 6.11-.27 7.35.52.03 1.17-.92 1.11-2.12 1.12-2.21.03-7.43-.4-8.25.55.7.86 6.05.43 7.5.44 4.1.03 4.2 2.52.6 2.52h-6.38c-.8 0-1.24-.09-1.72.53 1.24 1.67 8-.58 9.44 1.4.23.3.31.67.31 1.03 0 .35-.09.7-.22.98-.3.69-.88.7-1.88.7-1.79.02-4.33-.37-4.4.88.61.57 1.36.26 2.25.26h2.6c.94 0 1.63.48 1.65 1.24 0 .1 0 .21-.03.32-.6 1.33-6.78 1.12-8.9 1.11-.59 0-1.9-.07-1.9.63 0 1.48 1.96.76 2.52.76h3.73c1.02 0 1.34.5 1.33 1.1a3.38 3.38 0 0 1-.76 1.85c-1.45 1.66-7.64 1.22-9.15.88-2.27-.52-4.24-2.8-5.33-4.67a2.9 2.9 0 0 1-.47-1.4c0-2.04 4.33-1.5 6.67-1.5 1.3 0 3.4.45 3.62-.87-.19-.48-.48-.7-1.18-.7l-7.65.03c-1.47 0-2.01-.35-2-.72 0-.24.25-.5.62-.66ZM15 28.13c.03 7.12 3.95 18.83 12.85 18.87 6.79.03 13.14-8 13.15-18.74 0-6.65-3.04-17.02-10.7-18.95-.83-.2-1.62-.3-2.39-.31-9-.03-12.94 11.89-12.91 19.14Z" fill="url(#az10ivjn0)"/><defs><linearGradient id="az10ivjn0" x1="35.4" y1="12.12" x2="23.16" y2="46.63" gradientUnits="userSpaceOnUse"><stop stop-color="#66C3EF"/><stop offset=".93" stop-color="#1A365E"/></linearGradient></defs></svg>