<!-- by TradingView --><svg width="56" height="56" viewBox="0 0 56 56" xmlns="http://www.w3.org/2000/svg"><path fill="#F0F3FA" d="M0 0h56v56H0z"/><path d="M48.4 25.92a.03.03 0 0 0 .02.03h.02l.01-.01c.55-.71 1.26-.98 2.12-.82 1.05.2 1.42 1.14 1.43 2.17v3.66c0 .02 0 .03-.02.04l-.03.01h-1.33c-.03 0-.04-.02-.04-.05v-3.38c0-.63-.14-1.3-.87-1.33-.89-.06-1.28.85-1.3 1.71-.02 1-.02 2 0 3 0 .03-.02.05-.05.05h-1.3c-.04 0-.06-.02-.06-.06v-7.78c0-.04.01-.07.04-.1l1.31-1.05c.03-.02.05-.01.05.03v3.88Z" fill="#D6441D"/><path d="M7.95 29.77a2.95 2.95 0 0 0 1.63-.28.05.05 0 0 1 .05.04l.37 1.2a.04.04 0 0 1-.01.03l-.02.01c-1.75.45-4.11.34-5.27-1.24-.95-1.3-.9-3.5-.06-4.82 1.08-1.73 3.48-2.03 5.3-1.42a.07.07 0 0 1 .04.1l-.4 1.2a.05.05 0 0 1-.04.02H9.5a2.2 2.2 0 0 0-1.72-.34c-1.13.22-1.82.9-2.07 2.03-.35 1.63.45 3.3 2.24 3.47Z" fill="#0099A7"/><path d="M33.49 26h-.96c-.04 0-.1-.05-.1-.09v-.82c.01-.05.04-.1.1-.09h.96c.04 0 .06-.03.05-.07v-.44c0-.03 0-.05.02-.07l1.4-1.4c.02-.03.04-.03.04.02v1.87a.1.1 0 0 0 .02.06.1.1 0 0 0 .07.03h1.15c.04 0 .06 0 .06.03v.88c0 .04-.03.1-.06.09h-1.2c-.03 0-.04.01-.04.04v3.1c.02.79.76.83 1.33.59.03-.02.05 0 .05.03l.03 1.06c0 .03-.01.05-.04.06-1 .24-2.27.2-2.7-.86a2.99 2.99 0 0 1-.12-1.03v-2.9c0-.02-.03-.1-.06-.09Z" fill="#D6441D"/><path d="M18.26 27.28c0-.38.17-1.13-.48-1.17a2.89 2.89 0 0 0-1.97.58c-.03.02-.04.02-.04-.02l-.04-1.18c0-.03.02-.05.05-.07.9-.4 1.83-.52 2.75-.34.95.18 1.07 1.2 1.06 2.06-.01 1.23.03 2.58.12 3.8 0 .04-.02.06-.05.06h-1.23c-.04 0-.07-.03-.07-.07l-.02-.83a.05.05 0 0 0-.07-.04.05.05 0 0 0-.02.02c-.91 1.5-3.7 1.12-3.68-.84.02-1.96 2.3-1.96 3.63-1.91.04 0 .06-.02.06-.05Zm-2.24 2.1c.03.26.24.42.47.48 1.11.27 1.79-.55 1.75-1.6a.04.04 0 0 0-.02-.04h-.02c-.78.04-2.36-.14-2.18 1.16ZM22.05 25.91c.09-.07.15-.2.22-.28 1.35-1.21 3.14-.65 3.19 1.45v3.88c0 .03-.02.04-.05.04h-1.34c-.07 0-.07-.04-.07-.1v-3.52c-.01-.5-.23-1.1-.8-1.16-1.05-.13-1.2.86-1.2 1.78v2.94c0 .04-.01.06-.05.06h-1.36c-.04 0-.07-.02-.07-.07v-5.86c0-.01 0-.03.02-.04.01-.02.03-.03.05-.03h1.36c.03 0 .05.02.05.05v.84c0 .04.02.05.05.02Z" fill="#0099A7"/><path d="M28.39 30.9c-3.37-.72-2.68-6.22 1.05-5.89 4.12.37 3.43 6.85-1.05 5.9Zm.75-4.73c-1.91.06-1.8 3.72.07 3.67 1.9-.06 1.92-3.74-.07-3.67Z" fill="#0099A7"/><path d="M37.93 28.5c.21 1.82 2.26 1.57 3.33.85l.02-.01h.02a.05.05 0 0 1 .03.04l.1 1.1a.08.08 0 0 1-.05.09c-2.77 1.25-5.54-.3-4.72-3.6a2.46 2.46 0 0 1 2.3-1.96c2.18-.15 2.94 1.5 2.9 3.4l-.02.02h-.02l-3.84.02a.05.05 0 0 0-.05.03v.03Zm2.5-1.1c0-1.75-2.3-1.76-2.5-.02a.05.05 0 0 0 .02.05h2.44a.04.04 0 0 0 .04-.04ZM42.41 26.5c.72-1.53 2.34-1.72 3.8-1.32.04.01.05.04.04.07l-.32 1.07c-.02.04-.04.05-.07.03-.17-.1-.31-.16-.44-.17-1.63-.2-2.14 1.6-1.6 2.8.41.9 1.4 1.09 2.2.61.04-.02.06 0 .07.03l.27 1.15c.01.03 0 .05-.03.06-1.15.28-2.6.3-3.46-.63-.86-.91-1-2.56-.46-3.7Z" fill="#D6441D"/><path d="M10.7 33h-.17l-.03-1.08c0-.03.02-.05.05-.05.66-.09 1.15-.55.9-1.23a10152.71 10152.71 0 0 1-2.07-5.62.04.04 0 0 1 .03-.02h1.53c.03 0 .06.02.07.05l1.33 3.98a.03.03 0 0 0 .03.02h.02v-.02l1.35-4a.06.06 0 0 1 .05-.03h1.4c.04 0 .05.02.04.05l-2.01 5.23c-.51 1.3-.99 2.55-2.53 2.72Z" fill="#0099A7"/></svg>