<!-- by TradingView --><svg width="56" height="56" viewBox="0 0 56 56" xmlns="http://www.w3.org/2000/svg"><path fill="url(#aqkhttelw)" d="M0 0h56v56H0z"/><path d="m20 35.35-2.6-1.54c-.78-.45-1.4-1.67-1.4-2.72v-6.41l2.6 1.54c.78.45 1.4 1.67 1.4 2.72v6.41ZM26 41.18l-3.26-1.45A3.08 3.08 0 0 1 21 37.17v-8.61L24.26 30A3.08 3.08 0 0 1 26 32.56v8.62ZM32 47l-3.26-1.48A3.15 3.15 0 0 1 27 42.9V31.47l3.26 1.48c.96.44 1.74 1.61 1.74 2.62V47ZM39 31.47v2.7a3 3 0 0 1-1.37 2.26L33 39.23v-2.69a3 3 0 0 1 1.37-2.27l4.63-2.8ZM42 22.74v3.2c0 .95-.7 2.16-1.55 2.7L33 33.42v-3.2c0-.95.7-2.16 1.55-2.7L42 22.73ZM44 14.97v3.1c0 .9-.68 2.06-1.51 2.59L33 26.62v-3.1c0-.9.68-2.07 1.51-2.6L44 14.98ZM26 15.96l2.6-1.64c.77-.48 2.1-.41 2.99.14l5.41 3.4-2.6 1.64c-.77.48-2.1.42-2.99-.14L26 15.96ZM18 17.88l2.74-1.64c.8-.44 2.2-.39 3.14.13L32 20.79l-2.74 1.64c-.8.45-2.2.4-3.14-.12L18 17.88ZM9 18.87l2.83-1.63c.84-.48 2.29-.42 3.25.13L26 23.71l-2.83 1.61c-.84.48-2.29.42-3.25-.13L9 18.87Z" fill="#F0F3FA"/><defs><linearGradient id="aqkhttelw" x1="0" y1="42" x2="56" y2="8.5" gradientUnits="userSpaceOnUse"><stop stop-color="#01506E"/><stop offset=".74" stop-color="#001A2B"/></linearGradient></defs></svg>