<!-- by TradingView --><svg width="56" height="56" viewBox="0 0 56 56" xmlns="http://www.w3.org/2000/svg"><path fill="#091A21" d="M0 0h56v56H0z"/><path d="M16.05 29.5 7 17l11 9.3 15.34 6.83h-5.91L16.05 29.5Zm16.33 0 11.77-5.18L49 18.11l-2.16 7.26-6.68 5.04-7.78-.91Zm-4.95 0L35 33.13h8.95v-.81l-1.86-.56-1.47-.83s-10.16-1.27-13.2-1.43Zm-2.03 3.63-7.69-1.82-6.22-3.54 5.4 5.36h8.51Zm7.62 1.99 6.58-1.5H25.72l-6.52.78 1.77 1.62 4.43-1.62-3.06 2.02 1.76.12 2.5-1.74-1.72 2.2h2l.67-2.12.23 2.12 1.8-1.01-.84-1.05 4.28.18Z" fill="#FF9415"/></svg>