<!-- by TradingView --><svg width="56" height="56" viewBox="0 0 56 56" xmlns="http://www.w3.org/2000/svg"><path fill="#F0F3FA" d="M0 0h56v56H0z"/><path d="M29.5 22 43 8 31.24 22H29.5Zm-6.19-5-5.26 5h2.74l4.69-4.44h1.4l-.57-.56h-3Zm3.02 2-1.4 1.4 1.4 1.41-.6 1.19h1.52l2.01-2h-2.33l1.17-1.2.95.6-.81-1.4h-1.9Zm-9.5 9L15 29.63v2.72l2.4-2.12v1.93L13 36h2.44L19 32.72V28.7l1-.7h-3.17ZM23 25.7l1.74-1.7H23v1.7Zm6.59-1.7-5.3 5.2-1.14-1.04L27.38 24h2.2ZM31 27.25v-2.03L33.18 23h5.25l-3.31 3.36.53.64h1.96L39 28.33v1.12h-.7l-1.57-1.6h-.97l-1.1-1.1-1.2 1.21V30l-1.85-1.89 3.14-3.18v-.45h-1.02L31 27.25Zm-4.9 4.4L25 30.59l4-3.93v2.16l-2.9 2.85Zm1.9-.33v3.7h3l-2-1.63V30l-1 1.32Zm-10 9.82V42h1.66v-1.24l-1.28-1.4L20.36 37h.85l4.4 5h2.33l-4.02-4.4h5.25L33.2 42h1.73l-4.03-4.4 1.46-1.6h-12.7l-3.07 3.36L18 41.14Zm19.03-3.29.9.79L39 37.7v-3.05l-1.97-1.71-1.03.88 1.57 1.36v2.2l-.54.46Z" fill="#2C3E7E"/></svg>