<!-- by TradingView --><svg width="56" height="56" viewBox="0 0 56 56" xmlns="http://www.w3.org/2000/svg"><path fill="#F0F3FA" d="M0 0h56v56H0z"/><path d="m16 15 3 6 3-6h-6Z" fill="#4265A0"/><path d="m19 21 3-6 3 6h-6Z" fill="#496EAC"/><path d="m19 21 3 6 3-6h-6ZM26 21l3 6 3-6h-6Z" fill="#5680C1"/><path d="m16 27 3-6 3 6h-6ZM29 27l3-6 3 6h-6Z" fill="#6E96CE"/><path d="m16 27 3 6 3-6h-6ZM29 27l3 6 3-6h-6ZM36 27l3 6 3-6h-6Z" fill="#99BFE3"/><path d="m13 33 3-6 3 6h-6ZM26 33l3-6 3 6h-6ZM39 33l3-6 3 6h-6Z" fill="#A6CCE9"/><path d="m13 33 3 6 3-6h-6ZM26 33l3 6 3-6h-6ZM39 33l3 6 3-6h-6Z" fill="#BAD8EE"/><path d="m10 39 3-6 3 6h-6ZM23 39l3-6 3 6h-6ZM36 39l3-6 3 6h-6Z" fill="#C5DEF0"/></svg>