<!-- by TradingView --><svg xmlns="http://www.w3.org/2000/svg" width="56" height="56" viewBox="0 0 56 56"><path fill="#F0F3FA" d="M0 0h56v56H0z"/><path d="M17.45 17.13l23.06 22.66-2.41 2.2-3.67-3.57-3.57 3.29a8.54 8.54 0 0 1-6.27 2.28 8.7 8.7 0 0 1-6.17-2.56A7.62 7.62 0 0 1 16 35.5c0-2.2.96-4.3 2.7-5.85l2.41-2.2 2.32 2.29-2.42 2.2a4.9 4.9 0 0 0-.1 7.22c.97 1 2.32 1.54 3.77 1.54 1.45 0 2.8-.45 3.86-1.46l3.57-3.29L17.45 21.8v-4.66z" fill="#005172"/><path d="M38.58 23.16A7.62 7.62 0 0 1 41 29.1c0 2.2-.96 4.3-2.7 5.85l-.29.27-2.31-2.28.29-.28a4.9 4.9 0 0 0 .1-7.22c-.59-.54-1.3-1-2.08-1.27v-3.39a9.1 9.1 0 0 1 4.58 2.38zm-18.9-9.23l-1.65 1.55 2.32 2.29 1.64-1.46a4.15 4.15 0 0 1 5.69.09 3.64 3.64 0 0 1-.1 5.39l-1.64 1.46 2.32 2.29 1.64-1.47a6.8 6.8 0 0 0 .2-9.96 7.72 7.72 0 0 0-10.43-.18z" fill="#3095B4"/></svg>