<!-- by TradingView --><svg width="56" height="56" xmlns="http://www.w3.org/2000/svg"><path fill="#F0F3FA" d="M0 0h56v56H0z"/><path d="M27.955 15L12 28.11 28.019 41l15.955-12.96L27.954 15z" fill="#000"/><path d="M34.141 29.625h-.033l-.043.025c-.01.013-1.674.812-3.359.812-1.619 0-2.652-.625-2.663-.637L28 31.387c.054.038.739.538 2.706.538 1.848 0 3.576-.8 3.816-.913.163-.05 1.717-.55 2.706-.55.913 0 1.913.388 2.087.45.261.163 1.794 1.088 3.294 1.088 1.586 0 2.13.013 3.37-.663l.021-1.6c-1.065.588-1.99.8-3.391.8-1.272 0-2.718-.912-2.729-.924l-.043-.026-.055-.025c-.043-.025-1.314-.562-2.554-.562-1.217 0-3.01.6-3.087.625z" fill="#FFE024"/><path d="M34.141 32.615l-.033.012-.043.026c-.01 0-1.674.816-3.359.816-1.619 0-2.652-.64-2.663-.64L28 34.398c.054.025.739.54 2.706.54 1.848 0 3.576-.804 3.816-.93.163-.05 1.717-.54 2.706-.54.913 0 1.913.378 2.087.453.261.163 1.794 1.079 3.294 1.079 1.586 0 2.13.026 3.37-.665L46 32.728c-1.065.59-1.99.816-3.391.816-1.272 0-2.718-.93-2.729-.941l-.043-.026-.055-.012C39.74 32.54 38.468 32 37.228 32c-1.217 0-3.01.59-3.087.615z" fill="#00B6E7"/><path d="M34.141 35.616l-.033.012-.043.013c-.01.013-1.674.83-3.359.83-1.619 0-2.652-.641-2.663-.641L28 37.4c.054.026.739.528 2.706.528 1.848 0 3.576-.792 3.816-.917.163-.05 1.717-.553 2.706-.553.913 0 1.913.39 2.087.465.261.163 1.794 1.08 3.294 1.08 1.586 0 2.13.026 3.37-.666L46 35.73c-1.065.59-1.99.817-3.391.817-1.272 0-2.718-.93-2.729-.943l-.043-.025-.055-.025C39.74 35.54 38.468 35 37.228 35c-1.217 0-3.01.59-3.087.616z" fill="#D3272C"/></svg>