<!-- by TradingView --><svg xmlns="http://www.w3.org/2000/svg" width="56" height="56" viewBox="0 0 56 56"><path fill="#10059F" d="M0 0h56v56H0z"/><path d="M6 28.52C6 27.17 7 26 8.4 26a3 3 0 0 1 1.98.72c.46.46.62 1.06.62 1.8 0 .75-.16 1.36-.62 1.83-.57.57-1.32.8-2.26.66A2.67 2.67 0 0 1 6 28.52zM12.72 21h-1.45c-.16 0-.27.13-.27.28v3.3c0 .25-.3.38-.5.23a3.91 3.91 0 0 0-2.33-.75c-1.16 0-2.14.42-2.95 1.26A4.45 4.45 0 0 0 4 28.55 4.35 4.35 0 0 0 8.24 33a3.82 3.82 0 0 0 2.26-.73c.2-.14.5.22.5.45 0 .16.11.28.27.28h1.45c.17 0 .28-.12.28-.28V21.28a.27.27 0 0 0-.28-.28zm23.02 2.17l2.8 1.88c.29.2.46.5.46.84v6.82c0 .16-.14.29-.31.29h-1.37c-.17 0-.32-.13-.32-.29v-5.76c0-.15-.07-.3-.2-.39l-1.45-1.03a.31.31 0 0 0-.18-.05.31.31 0 0 0-.18.05l-1.28 1.03a.47.47 0 0 0-.21.35v5.8c0 .16-.14.29-.31.29H31.83c-.18 0-.33-.13-.33-.29v-4.85a.45.45 0 0 0-.2-.35l-1.29-1.06a.31.31 0 0 0-.18-.05.31.31 0 0 0-.18.05l-1.4 1.06c-.14.09-.25.23-.25.38v4.83c0 .15-.11.28-.28.28H26.3c-.17 0-.31-.13-.31-.29v-5.88a1 1 0 0 1 .46-.83l2.8-1.89a1 1 0 0 1 .57-.16c.2 0 .4.05.57.16l1.18.8c.13.08.3.08.43 0l2.59-1.74c.17-.12.37-.17.57-.17.2 0 .4.05.57.17zm-16.26 2.85a2.5 2.5 0 0 0 0 4.98c1.4 0 2.52-1.15 2.52-2.5a2.5 2.5 0 0 0-2.52-2.48zM19.45 24A4.56 4.56 0 0 1 24 28.5a4.49 4.49 0 0 1-4.54 4.5 4.29 4.29 0 0 1-3.15-1.31A4.34 4.34 0 0 1 15 28.51c0-1.34.5-2.45 1.47-3.35A4.32 4.32 0 0 1 19.45 24zM43 28.5a2.54 2.54 0 0 1 2.52-2.51 2.46 2.46 0 0 1 2.48 2.5A2.5 2.5 0 0 1 45.1 31c-1.2-.15-2.1-1.39-2.1-2.51zm6.71-4.5h-1.42c-.16 0-.29.13-.29.3v.01c0 .24-.46.6-.65.45a3.79 3.79 0 0 0-2.27-.76c-1.13 0-2.1.43-2.89 1.27A4.56 4.56 0 0 0 41 28.52c0 1.27.41 2.34 1.23 3.2a3.9 3.9 0 0 0 4.3 1.02c.28-.11.55-.27.82-.47.2-.14.65.21.65.45 0 .16.12.28.28.28h1.4c.18 0 .32-.13.32-.3v-8.41a.29.29 0 0 0-.29-.29z" fill="#FFFEFE"/></svg>