<!-- by TradingView --><svg xmlns="http://www.w3.org/2000/svg" width="56" height="56" viewBox="0 0 56 56"><path fill="#F67522" d="M0 0h56v56H0z"/><path d="M38.75 41H36.9a11.38 11.38 0 0 0 3.1-7.98c0-6.56-3.81-5.83-2.6-10.54a.14.14 0 0 0-.14-.18c-2.73.13-3.76 4.25-3.96 4.25.33-5.13-.43-11.53-6.67-17.52a.13.13 0 0 0-.22.13c1.81 7.57-.9 12.53-2.7 13.42 0-3.87-3.67-4.57-4.47-4.52a.12.12 0 0 0-.1.1v.06C20.84 24.13 16 25.71 16 32.4a12.35 12.35 0 0 0 3.13 8.6h-1.87c-.16 0-.26.15-.26.3v2.43c0 .14.1.27.26.27h7l-.18-.16c-3.72-3.64-4.24-11.18 2.1-15.99a.14.14 0 0 1 .21.14c-.8 4.22-.1 6.94 1.97 9.24 1.63-1.56 2.98-4.55 3.31-5.3a.14.14 0 0 1 .22-.06c4.42 4.11 2.06 10.12.53 11.97l-.16.16h6.49c.14 0 .25-.13.25-.27v-2.47c0-.15-.1-.26-.25-.26Z" fill="#fff"/></svg>