<!-- by TradingView --><svg width="56" height="56" viewBox="0 0 56 56" xmlns="http://www.w3.org/2000/svg"><path fill="#F0F3FA" d="M0 0h56v56H0z"/><path d="M18 24v-1h2v8h1v1h-3v-1h1v-7h-1Z" fill="#557A82"/><path d="M35 23v2h1v-1h3.8c-1.6 2-2.63 5.5-2.8 7h-1v1h3.5v-1h-1.3c0-3 1.8-5.5 2.8-7v-1h-6Z" fill="#557A80"/><path fill-rule="evenodd" d="M31.8 23H33v5h1v1h-1v2h1v1h-3.5v-1H32v-2h-3l-.5-1 3.3-5Zm.2 1.5V28h-2.2l2.2-3.5Z" fill="#557A80"/><path d="M30.14 13.04c3.56 0 6.87 1.08 9.6 2.92a17.66 17.66 0 0 0-11.15-3.94A17.47 17.47 0 0 0 11 29.37c0 5.4 2.51 10.24 6.45 13.42l1.47-.22a16.7 16.7 0 0 1-5.85-12.7c0-9.3 7.64-16.83 17.07-16.83Z" fill="#E6EFC2"/><path d="M15.14 27.32c0-8.67 6.86-15.77 15.53-16.29L29.62 11a17.47 17.47 0 0 0-17.59 17.35c0 7.89 5.35 14.55 12.66 16.65l3.36-1.75a16.38 16.38 0 0 1-12.91-15.93Z" fill="#43B1A9"/><path d="M35 40.91c-1.53.46-3.17.7-4.86.7a16.95 16.95 0 0 1-17.07-16.84c0-3.5 1.09-6.77 2.96-9.47-2.5 3-4 6.83-4 11 0 9.58 7.88 17.35 17.59 17.35 1.38 0 2.71-.16 4-.45L35 40.91Z" fill="#A1D5AF"/><path d="M41 34.8a17.14 17.14 0 0 1-11.9 4.77 16.95 16.95 0 0 1-17.07-16.84c0-3.5 1.1-6.77 2.96-9.47-2.5 3-3.99 6.83-3.99 11 0 9.58 7.87 17.35 17.59 17.35 4.84 0 9.23-1.93 12.41-5.06v-1.74Z" fill="#557A82"/><path fill-rule="evenodd" d="M26.8 27.5a2.39 2.39 0 0 0 1.2-2c0-1.38-1.34-2.5-3-2.5s-3 1.12-3 2.5c0 .82.47 1.54 1.2 2a2.39 2.39 0 0 0-1.2 2c0 1.38 1.34 2.5 3 2.5s3-1.12 3-2.5c0-.82-.47-1.54-1.2-2Zm.2-2c0 .67-.72 1.5-2 1.5s-2-.83-2-1.5.72-1.5 2-1.5 2 .83 2 1.5ZM25 28c-1.28 0-2 .83-2 1.5s.72 1.5 2 1.5 2-.83 2-1.5-.72-1.5-2-1.5Z" fill="#557A80"/></svg>