<!-- by TradingView --><svg width="56" height="56" viewBox="0 0 56 56" xmlns="http://www.w3.org/2000/svg"><path fill="#F0F3FA" d="M0 0h56v56H0z"/><path fill-rule="evenodd" d="M28 43a15 15 0 1 0 0-30 15 15 0 0 0 0 30Zm0 2a17 17 0 1 0 0-34 17 17 0 0 0 0 34Z" fill="#486D92"/><path d="M18 25v3h4v1h-4v3h4v1h-5v-9h5v1h-4ZM30.3 26.66a2.99 2.99 0 0 0-2.75-1.62A3.49 3.49 0 1 0 27.5 32c1.71 0 3.05-1.3 3.24-3H27v-1h5v1.05A4.41 4.41 0 0 1 27.55 33a4.49 4.49 0 1 1 0-9c1.8 0 3.5.95 4.18 2.66H30.3ZM39 31h-4l-.74 2H33l3.32-9h1.38l3.3 9h-1.26L39 31Zm-.34-1L37 25.45 35.34 30h3.32Z" fill="#486D92"/></svg>