<!-- by TradingView --><svg width="56" height="56" viewBox="0 0 56 56" xmlns="http://www.w3.org/2000/svg"><path fill="#F0F3FA" d="M0 0h56v56H0z"/><path d="M13 15.2c0-1.21.99-2.2 2.2-2.2h25.6c1.21 0 2.2.99 2.2 2.2V18H23.67c-3.3 0-5.67 2.82-5.67 6h3c0-1.54 1.25-3 2.79-3H43v19.8a2.2 2.2 0 0 1-2.2 2.2H15.2a2.2 2.2 0 0 1-2.2-2.2V29h21.26c.4 0 .74-.33.74-.73v-1.54c0-.4-.33-.73-.74-.73H13V15.2ZM21 31h-3c0 3.22 2.3 6 5.67 6h5.79c.3 0 .54-.24.54-.54v-1.92c0-.3-.24-.54-.54-.54h-5.34c-1.6 0-3.12-1.45-3.12-3Z" fill="#00B0AE"/></svg>