<!-- by TradingView --><svg xmlns="http://www.w3.org/2000/svg" width="56" height="56" viewBox="0 0 56 56"><path fill="#F0F3FA" d="M0 0h56v56H0z"/><path d="M22.5 38.38c-1.53 1.7-2.42 3.62-4.67 3.62-3.59 0-4.83-3.53-4.83-7.5C13 25.59 18.2 17 28.25 17c3.69 0 7.75.66 7.75 4.75 0 1.12-.51 2.42-1.58 3.68-5.17 6.14-7 7.49-11.92 12.95Z" fill="#9FBA80"/><path d="M39.49 37.47C35.57 39.74 32.93 41 29.17 41c-3.75 0-5.83-3.53-5.83-3.53C26.75 33.8 32.1 28 32.1 28h1.97c2.8 0 7.63.15 9.86 1.94.78.62 1.08 1.29 1.08 1.97 0 2.12-3.35 4.31-5.51 5.56Z" fill="#F3A24C"/><path d="m32.19 28-8.85 9.47S22 35.89 22 33.82C22 29.64 28.9 28 32.2 28Z" fill="#EF8E22"/><circle cx="30.5" cy="10.5" r="1.5" fill="#0D4978"/><circle cx="31.65" cy="14.35" r="1.35" fill="#0D4978"/><circle cx="32.25" cy="18.25" r="1.25" fill="#0D4978"/><ellipse cx="31.13" cy="21.4" rx="1.13" ry="1.1" fill="#0D4978"/><circle cx="29" cy="24" r="1" fill="#0D4978"/></svg>