<!-- by TradingView --><svg width="56" height="56" viewBox="0 0 56 56" xmlns="http://www.w3.org/2000/svg"><path fill="#F0F3FA" d="M0 0h56v56H0z"/><path fill-rule="evenodd" d="M41.5 27a4.5 4.5 0 1 0 0-9 4.5 4.5 0 0 0 0 9Zm0-1.5a3 3 0 1 0 0-6 3 3 0 0 0 0 6Z" fill="#F9ED32"/><path d="M9 39h2.27l5.7-11h5.52l1.1-2h-5.58l4.64-8.96 2.91 5.75 1.1-2.2-2.9-5.59h-2.27L9 39Zm11.66 0H18.4l12.49-24h2.27l12.46 24h-2.44L32.04 17.04 27.4 26h8.2l.96 2h-10.2l-5.7 11Z" fill="url(#apffrkm10)"/><defs><linearGradient id="apffrkm10" x1="27.3" y1="15" x2="27.3" y2="39" gradientUnits="userSpaceOnUse"><stop stop-color="#8BC642"/><stop offset="1" stop-color="#07AFE7"/></linearGradient></defs></svg>