<!-- by TradingView --><svg xmlns="http://www.w3.org/2000/svg" width="56" height="56" viewBox="0 0 56 56"><path fill="#F0F3FA" d="M0 0h56v56H0z"/><path d="M29 12a1 1 0 1 1-2 0 1 1 0 0 1 2 0zm-9 9a2 2 0 1 0 0-4 2 2 0 0 0 0 4zm8 9.5a2.5 2.5 0 1 0 0-5 2.5 2.5 0 0 0 0 5zm8-.5a2 2 0 1 0 0-4 2 2 0 0 0 0 4zm-14-2a2 2 0 1 1-4 0 2 2 0 0 1 4 0zm8-9a2 2 0 1 1-4 0 2 2 0 0 1 4 0zm6 2a2 2 0 1 0 0-4 2 2 0 0 0 0 4zm-6 16a2 2 0 1 1-4 0 2 2 0 0 1 4 0zm-10 2a2 2 0 1 0 0-4 2 2 0 0 0 0 4zm-6-11a1 1 0 1 1-2 0 1 1 0 0 1 2 0zm14 17a1 1 0 1 0 0-2 1 1 0 0 0 0 2zm15-16a1 1 0 1 0 0-2 1 1 0 0 0 0 2z" fill="#7D5FFB"/></svg>