<!-- by TradingView --><svg width="56" height="56" viewBox="0 0 56 56" xmlns="http://www.w3.org/2000/svg"><path fill="#F0F3FA" d="M0 0h56v56H0z"/><path d="M25.5 21.04 27 16c-13.7 4.31-11.93 12.03-11.93 13 4.3-5.53 7.34-6.82 10.43-7.96Z" fill="#FFE56E"/><path d="M28.36 21.44 30 16c-15.24 3.85-13.16 12.67-12.56 14 3.94-5.64 7.55-7.32 10.92-8.56Z" fill="#609363"/><path d="M29 42.12 25.25 46c-14.3-7.42-10.98-17.54-10.77-18C15.84 36.04 24.73 40.77 29 42.12Z" fill="#F58051"/><path d="M31 42.94C19.76 38.96 16.58 32 16.39 29c-2.33 9.84 6.4 16.1 11.06 18 .97-1.1 3.04-3.43 3.55-4.06Z" fill="#ABD372"/><path d="M27.72 41.6c.41.2.84.38 1.27.57l-3.69 3.77-.14-.07c-4.09-2.34-9.17-7-9.16-13.66 2.71 4.83 8.1 7.96 11.72 9.39Z" fill="#B0B643"/><path d="M26 20h13v1H26.48L26 20Z" fill="#A0AACB"/><path d="M28.8 20H26l.48 1h2.02l.3-1Z" fill="#41756F"/><path d="M20 24h20v1H20.45L20 24Z" fill="#6275A5"/><path d="M23.21 24H20l.45 1h1.45c.44-.37.88-.7 1.31-1Z" fill="#35785B"/><path d="M18 27h20v1H18.45L18 27Z" fill="#53699D"/><path d="M19.82 27H18l.22.5.23.5h.5c.3-.35.58-.69.87-1Z" fill="#2F755A"/><path d="M18 31h18v1H18.4l-.4-1Z" fill="#6A7CAA"/><path d="M20 34h8v1h-7.62L20 34Z" fill="#A1A8BE"/><path d="M28.34 9 26 12.45c7.32.68 13.14 9.94 13.5 10.55.57-1.62.5-2.23.5-2.84C38.86 12.69 31.76 9.6 28.34 9Z" fill="#5A7CAC"/><path d="M28.06 33.33 27 39c14.17-5.73 12.97-14.87 12.97-16-1.4 5.65-8.72 9.09-11.91 10.33Z" fill="#6B4A9E"/><path d="M31.02 34.5 30 40c13.63-5.57 11.93-14.9 11.93-16-1.35 5.5-7.84 9.28-10.91 10.5Z" fill="#A6D169"/><path d="M38.78 29.33a23.7 23.7 0 0 1-7.76 5.16l-.53 2.88c4.68-2.55 7.07-5.48 8.29-8.04Z" fill="#83A865"/></svg>