<!-- by TradingView --><svg width="56" height="56" viewBox="0 0 56 56" xmlns="http://www.w3.org/2000/svg"><path fill="#F0F3FA" d="M0 0h56v56H0z"/><path d="M4 29h1.5v-6L4 29Z" fill="#005295"/><path d="M7.25 23H6v6.5A1.5 1.5 0 0 0 7.5 31H51v-1.02L8.05 30C7.37 30 7 29.7 7 29.02v-2.36l1.1.58.4 1.76h.4l-1.65-6Zm.5 3.04.3 1L7 26.49v-.04l.75-.4Zm-.08-.26.04.12-.7.38v-.9l.66.4Zm-.24-.83.18.61-.54-.32.36-.29Zm-.43-.2h.39L7 25.1v-.34Zm0-1.25.34 1.08H7V23.5Z" fill="#181B1E"/><path d="M10 25v4h3v-.7h-2v-.95h2v-.7h-2v-.95h2V25h-3ZM39 25h1v4h-1zM26 25h-1v4h3v-.7h-2V25ZM38 25.7V25h-4v.7h1.5V29h1v-3.3H38ZM47 25h1l2 2.5V25h1v4h-1l-2-2.5V29h-1v-4ZM30 25h-1v2a2 2 0 1 0 4 0v-2h-1v2.3a1 1 0 1 1-2 0V25ZM14 25h1.04l1.46 3 1.46-3H19l-2 4h-1l-2-4Z" fill="#181B1E"/><path fill-rule="evenodd" d="M21.5 29c1.38 0 2.5-.9 2.5-2s-1.12-2-2.5-2-2.5.9-2.5 2 1.12 2 2.5 2Zm0-.7c.81 0 1.5-.57 1.5-1.3 0-.73-.69-1.3-1.5-1.3S20 26.27 20 27c0 .73.69 1.3 1.5 1.3ZM43.5 29c1.38 0 2.5-.9 2.5-2s-1.12-2-2.5-2-2.5.9-2.5 2 1.12 2 2.5 2Zm0-.7c.81 0 1.5-.57 1.5-1.3 0-.73-.69-1.3-1.5-1.3S42 26.27 42 27c0 .73.69 1.3 1.5 1.3Z" fill="#181B1E"/></svg>