<!-- by TradingView --><svg width="56" height="56" viewBox="0 0 56 56" xmlns="http://www.w3.org/2000/svg"><path fill="#F0F3FA" d="M0 0h56v56H0z"/><path d="M4.72 23.53h6.02a.27.27 0 0 0 0-.53H4.26a.26.26 0 0 0-.18.08.27.27 0 0 0-.08.18v10.48c0 .07.03.13.08.18.05.05.11.08.18.08h6.48a.27.27 0 0 0 0-.53H4.72a.2.2 0 0 1-.14-.06.2.2 0 0 1-.06-.14v-4.53c0-.06.02-.11.06-.15a.2.2 0 0 1 .14-.06H9.6a.27.27 0 0 0 0-.53H4.72a.2.2 0 0 1-.14-.06.2.2 0 0 1-.06-.14v-4.07a.2.2 0 0 1 .13-.19.2.2 0 0 1 .07-.01ZM19.15 29.2a4.96 4.96 0 0 0-1.11-.57c-.41-.15-.84-.3-1.27-.42l-1.26-.4a5.77 5.77 0 0 1-1.1-.49c-.3-.17-.56-.4-.77-.67-.2-.28-.3-.62-.3-.96 0-.29.07-.57.2-.83.13-.27.33-.51.57-.7.27-.22.59-.38.92-.48a4.76 4.76 0 0 1 3 .15 3.19 3.19 0 0 1 1.02.7c.24.26.43.56.56.88a.24.24 0 0 0 .2.16.24.24 0 0 0 .22-.1.24.24 0 0 0 .03-.23 3.43 3.43 0 0 0-1.78-1.84 4.42 4.42 0 0 0-1.97-.4c-.5 0-.99.07-1.46.22-.4.13-.77.33-1.1.6-.28.22-.51.52-.68.85a2.34 2.34 0 0 0 .07 2.16c.21.31.48.58.8.8.33.22.7.4 1.1.54.41.15.84.3 1.27.42l1.26.4c.38.13.75.3 1.1.5.3.18.56.41.77.69.2.29.3.63.3.98a2 2 0 0 1-.22.9c-.14.28-.35.54-.61.74-.3.23-.65.4-1.02.5a4.84 4.84 0 0 1-3.2-.17 3.22 3.22 0 0 1-1.1-.8c-.28-.3-.5-.66-.65-1.04a.24.24 0 0 0-.22-.16.24.24 0 0 0-.24.22 4.07 4.07 0 0 0 1.92 2.21 5.1 5.1 0 0 0 2.07.44c.54 0 1.08-.07 1.6-.23.43-.14.83-.35 1.18-.63.31-.24.56-.55.74-.9a2.42 2.42 0 0 0-.06-2.24c-.2-.32-.47-.59-.78-.8ZM35.7 23.53h5.85c.06 0 .13-.03.17-.08a.27.27 0 0 0 0-.37.25.25 0 0 0-.17-.08h-6.3a.25.25 0 0 0-.18.08.27.27 0 0 0-.07.18v10.48c0 .07.03.13.07.18.05.05.12.08.18.08h6.3c.06 0 .13-.03.17-.08a.27.27 0 0 0 0-.37.25.25 0 0 0-.17-.08H35.7a.2.2 0 0 1-.14-.06.21.21 0 0 1-.05-.14v-4.53c0-.05.02-.1.05-.15a.2.2 0 0 1 .14-.06h4.72c.07 0 .13-.02.18-.07a.27.27 0 0 0 0-.38.25.25 0 0 0-.18-.08H35.7a.19.19 0 0 1-.14-.05.2.2 0 0 1-.05-.15v-4.07c0-.05.02-.1.05-.14a.2.2 0 0 1 .14-.06ZM51.74 23a.26.26 0 0 0-.18.08.27.27 0 0 0-.08.18v10.17l-6.6-10.31a.26.26 0 0 0-.21-.12h-.41a.26.26 0 0 0-.18.08.27.27 0 0 0-.08.18v10.48c0 .07.03.13.08.18a.26.26 0 0 0 .36 0 .27.27 0 0 0 .08-.18V23.57l6.6 10.31a.26.26 0 0 0 .21.12h.41c.07 0 .14-.03.18-.08a.27.27 0 0 0 .08-.18V23.26a.27.27 0 0 0-.16-.24.25.25 0 0 0-.1-.02Z" fill="#10595A"/><path d="M32.7 28.45h-5.41a.3.3 0 0 0-.2.08.27.27 0 0 0-.09.2c0 .07.03.14.09.19a.3.3 0 0 0 .2.08h5.4a.3.3 0 0 0 .22-.07.27.27 0 0 0 .09-.2.26.26 0 0 0-.09-.2.29.29 0 0 0-.21-.08Z" fill="#48C727"/><path d="M32.59 29.92a.28.28 0 0 0-.17-.14.28.28 0 0 0-.2.02.28.28 0 0 0-.14.17 4.85 4.85 0 0 1-4.64 3.48 4.81 4.81 0 0 1-4.33-2.71 4.98 4.98 0 0 1 2.54-6.78 4.8 4.8 0 0 1 5.01.87c.68.6 1.18 1.39 1.44 2.26a.28.28 0 0 0 .34.19.29.29 0 0 0 .19-.35 5.5 5.5 0 0 0-2.28-3.06 5.37 5.37 0 0 0-7.01 1.02 5.54 5.54 0 0 0 3.26 9.05c1.29.2 2.6-.08 3.7-.78a5.5 5.5 0 0 0 2.32-3.14.28.28 0 0 0-.03-.1Z" fill="#48C727"/></svg>