<!-- by TradingView --><svg xmlns="http://www.w3.org/2000/svg" width="56" height="56" viewBox="0 0 56 56"><path fill="#F0F3FA" d="M0 0h56v56H0z"/><path d="M32.03 25.18c.42-.13.86-.16 1.3-.18 1.88-.05 3.9.25 5.67.87v-2.28a28.8 28.8 0 0 0-5.89-.59 13.9 13.9 0 0 0-3.14.35c-.74.19-1.5.5-2.04 1.04v-.8a29.14 29.14 0 0 0-4.03-.55 19.06 19.06 0 0 0-4.12.15c-.65.11-1.29.28-1.88.57-.4.2-.79.47-1.07.83a3.76 3.76 0 0 0-2-1.19c-1-.27-2.02-.36-3.03-.39-.9-.02-1.8 0-2.68.09-.37.03-.74.06-1.1.14-.86.19-1.67.64-2.23 1.32-.5.6-.81 1.36-.79 2.13v3.4c0 .4.12.8.33 1.14.3.49.78.83 1.3 1.07.94.41 1.96.56 2.97.64 2.32.16 4.66-.07 6.94-.54v-2.28c-1.7.6-3.5.89-5.31.87a6.64 6.64 0 0 1-1.37-.14 1.9 1.9 0 0 1-.63-.26c-.17-.13-.24-.32-.23-.54v-1.02c.94 0 6.23.4 7.83-1.5.5.66 1.34.92 2.12 1.12.98.23 1.98.34 2.97.43.64.07 1.28.1 1.9.23.27.05.55.12.74.31.23.23.22.63 0 .86-.22.23-.53.33-.83.4-.62.13-1.26.13-1.9.11-1.6-.04-3.32-.33-4.83-.86v2.28c1.9.39 3.95.6 5.89.58 1.06-.01 2.13-.09 3.15-.35.74-.19 1.43-.5 1.96-1.04v.82c1.71.34 3.52.56 5.28.58 1.07 0 2.14-.04 3.2-.24a5.56 5.56 0 0 0 2.09-.8 1.65 1.65 0 0 1-1.08-1.22c-.08-.37 0-.76.17-1.1.27-.58.73-1.05 1.02-1.62-.68-.47-1.52-.63-2.33-.8-1.07-.2-2.17-.28-3.26-.38a7.97 7.97 0 0 1-1.1-.17c-.22-.06-.46-.14-.61-.33a.62.62 0 0 1 .02-.78c.16-.2.4-.3.63-.38zm-18.57 1.67c-.31.28-.73.4-1.14.49-1.12.21-2.2.16-3.32.16 0-.65-.04-1.38.4-1.92.38-.49 1.05-.67 1.66-.7.62-.01 1.24 0 1.84.17.34.1.68.3.8.64.14.38.08.87-.24 1.16zm20.4 2.32c.4.05.81.1 1.2.2.22.08.44.19.54.39.14.26.05.6-.19.79-.28.22-.65.3-1 .36a9 9 0 0 1-1.66.08 15.53 15.53 0 0 1-4.1-.67 2.61 2.61 0 0 0-.47-1.9c-.42-.54-1.1-.8-1.75-.98-1.11-.3-2.26-.42-3.4-.54-.62-.05-1.23-.09-1.84-.22-.26-.06-.53-.13-.71-.32a.63.63 0 0 1 0-.82c.15-.18.38-.28.6-.35.4-.12.82-.16 1.24-.18 1.69-.05 3.4.18 5.01.67-.07.7.07 1.48.57 2.02.45.5 1.12.72 1.76.89 1.38.34 2.8.44 4.2.58z" fill="#2C9942"/><path d="M39.15 28.01c-.28.79-1.24 1.57-1.24 2.41 0 .66.54 1.2 1.22 1.2h.04c.68 0 1.23-.54 1.23-1.2-.01-.84-.98-1.62-1.25-2.4z" fill="#0075A9"/><path d="M50.87 25.22a2.48 2.48 0 0 0-1.18-1.35 6.7 6.7 0 0 0-2.25-.7 15.6 15.6 0 0 0-2.27-.17c-1.92-.02-3.84.2-5.71.58v2.28A15.7 15.7 0 0 1 44.8 25c.6.03 1.23.05 1.78.3.24.12.4.35.41.63v1.04c-.72 0-1.37 0-2.09.02-.99.02-3.73-.02-5.28 1.03.28.57.75 1.04 1.01 1.61.19.38.26.83.14 1.24-.14.5-.54.9-1.04 1.08.54.38 1.19.6 1.83.75 1.7.36 3.45.33 5.18.22 1.42-.1 2.85-.26 4.25-.54v-5.81c0-.45.02-.9-.13-1.34zM47 30.9c-.91.17-1.8.25-2.72.22a4.17 4.17 0 0 1-1.4-.26c-.3-.11-.55-.33-.63-.63-.1-.37-.03-.8.26-1.08.31-.29.74-.4 1.16-.5 1.1-.2 2.2-.15 3.33-.16v2.41z" fill="#2C9942"/></svg>