<!-- by TradingView --><svg width="56" height="56" viewBox="0 0 56 56" xmlns="http://www.w3.org/2000/svg"><path fill="#F0F3FA" d="M0 0h56v56H0z"/><path d="M10 21v6h10v2H10v6h11v2H8V19h13v2H10ZM24.18 19h-2.64l6.42 18h2.8l6.42-18h-2.6l-5.25 15.43L24.18 19Z" fill="#7DB5E1"/><path fill-rule="evenodd" d="M42.5 37a5.9 5.9 0 0 0 6-4h-2.25a4.04 4.04 0 0 1-3.75 2c-2.6-.05-4.1-1.73-4.43-4H48.95c.03-.33.05-.66.05-1 0-3.87-2.5-7-6.5-7S36 26.13 36 30c0 3.86 2.22 6.92 6.5 7Zm4.42-8c-.37-2.28-2-4-4.42-4s-4.05 1.72-4.42 4h8.84Z" fill="#7DB5E1"/></svg>