<!-- by TradingView --><svg width="56" height="56" viewBox="0 0 56 56" xmlns="http://www.w3.org/2000/svg"><path fill="#F0F3FA" d="M0 0h56v56H0z"/><path d="M43.98 28.4c0 .22.05.33 0 .44-.27 2.3-.48 4.59-.74 6.93-.06.6-.32 1.2-.48 1.8-.32 1.04-1 1.7-1.9 2.19-.95.54-2.22.21-2.91-.77a6.51 6.51 0 0 1-1-3c-.37-2.51-.32-5.08-.37-7.59-.06-1.74-.06-3.49-.37-5.23-.06-.17-.06-.28-.11-.44 0-.06-.05-.11-.1-.27l-.16.49a19.63 19.63 0 0 0-.59 4.96c-.05 2.13-.05 4.2-.1 6.33a13.46 13.46 0 0 1-.8 4.8 5.97 5.97 0 0 1-1.53 2.24 2.96 2.96 0 0 1-4.28-.43 5.6 5.6 0 0 1-1.22-3.5c-.05-1.8.06-3.54.11-5.34.1-3.6.16-7.2-.1-10.8-.06-.83-.22-1.6-.38-2.41-.05-.16-.2-.33-.31-.44-.1.11-.32.22-.37.39-.21.76-.48 1.58-.53 2.4-.42 3-.69 6.05-1 9.11-.22 2.35-.43 4.7-1.12 6.93a7.6 7.6 0 0 1-1.21 2.57c-.9 1.2-2.01 1.8-3.5 1.58-1-.17-1.63-.87-2.05-1.8-.69-1.42-1-3-1-4.59-.06-2.29.05-4.58.05-6.87 0-2.08 0-4.1-.43-6.11-.05-.39-.2-.71-.37-1.04-.05-.06-.1-.06-.1-.06-.21.22-.43.44-.58.66-.53.82-.7 1.8-.9 2.73-.16.76-.21 1.53-.37 2.29-.16.82-.32 1.7-.58 2.5-.16.45-.16 1-.64 1.32-.1.05-.26.1-.37.16 0-.1-.1-.27-.05-.38 0-.82.1-1.64.16-2.4h-.1c-.11.5-.22.98-.38 1.42h-.1c0-.27-.06-.5-.06-.77-.1-2.29-.05-4.58.64-6.82a6.5 6.5 0 0 1 1.1-2.18c.9-1.1 2.23-1.53 3.39-1.04.69.28 1.16.82 1.48 1.42.63 1.1.9 2.3 1.06 3.55.37 2.9.26 5.78.05 8.68-.1 1.63-.16 3.33-.21 4.96 0 .38.1.77.26 1.1.27.76.95.87 1.48.21.58-.7.8-1.58 1-2.45.43-1.86.54-3.77.7-5.68.2-3.22.42-6.38.68-9.6.1-1.1.37-2.19.74-3.22.85-2.35 2.91-2.79 4.87-1.91.63.27 1.05.82 1.26 1.52.27.99.59 2.02.7 3 .41 3.55.36 7.1.26 10.65-.06 1.8-.16 3.6-.22 5.4 0 .71.11 1.42.22 2.13.05.16.26.44.42.44.16 0 .42-.17.53-.33.58-.88.8-1.86.84-2.9.16-2.01.27-4.09.37-6.1.16-2.24.27-4.43.48-6.66.05-.71.26-1.42.58-2.08.85-1.9 2.96-2.18 4.39-.65.69.76 1 1.74 1.21 2.73.43 1.96.43 3.98.37 6 0 1.69-.1 3.38-.1 5.07 0 1.04.1 2.13.21 3.17 0 .22.21.44.32.65.2-.16.47-.27.53-.43.42-.88.84-1.75 1.21-2.62.58-1.42.8-2.95 1.16-4.48.11-.38.22-.82.43-1.2 0 0 .26-.1.53-.33Z" fill="#4E5050"/><circle cx="36" cy="16" r="2" fill="#C14835"/></svg>