<!-- by TradingView --><svg width="56" height="56" viewBox="0 0 56 56" xmlns="http://www.w3.org/2000/svg"><path fill="#181B1E" d="M0 0h56v56H0z"/><path d="M29.88 14c-1.34 0-2.67.19-3.95.56a6.6 6.6 0 0 0-2.64-.56c-1.6.03-3.15.6-4.39 1.62-.65-1.04-1.4-1.62-2.2-1.62-2.6 0-4.7 6.27-4.7 14s2.1 14 4.7 14c.8 0 1.55-.59 2.2-1.62A7.07 7.07 0 0 0 23.3 42c.9 0 1.8-.2 2.63-.56 1.24.36 2.52.55 3.8.56C37.36 42.08 44 35.62 44 28c0-7.67-6.55-14-14.12-14Zm-6.59.93c.4 0 .8.05 1.19.13A14.14 14.14 0 0 0 20 18c-.18-.53-.4-1.05-.64-1.56a6.18 6.18 0 0 1 3.93-1.5ZM18.64 38.9C15.89 36.05 15 31.85 15 27.99c0-3.55.75-6.88 2.42-9.37.36-.54.77-1.04 1.22-1.51.24.54.44 1.09.62 1.67A13.71 13.71 0 0 0 16 28c0 3.4 1 6.67 3.26 9.22-.18.58-.38 1.13-.62 1.67ZM17 27.99c0-2.94.71-5.68 2.57-7.99.6 2.67 1.43 4.51 1.43 8 0 3.7-.83 5.33-1.43 8-1.86-2.3-2.57-5.05-2.57-8Zm5 0c0-3.6-.92-6.03-1.68-8.96 1.52-1.6 3.43-2.8 5.54-3.47C30.2 17.86 32 23.42 32 28c0 4.57-1.8 10.13-6.14 12.44a13.21 13.21 0 0 1-5.54-3.47C21.08 34.04 22 32.35 22 28ZM16.7 41C14 41 13 30.01 13 28c0-3.64.41-7.05 1.27-9.6.86-2.56 1.85-3.4 2.44-3.4.37 0 .91.3 1.48 1.24C15.59 18.74 14 23.07 14 28s1.6 9.26 4.19 11.76c-.57.93-1.1 1.24-1.48 1.24Zm6.6 0a6.12 6.12 0 0 1-3.94-1.45c.25-.5.46-1.02.64-1.56a14.14 14.14 0 0 0 4.48 2.94c-.4.09-.79.07-1.19.07Zm6.43 0c-.87-.01-1.74-.04-2.59-.22C30.42 38.59 33 33.69 33 28c0-5.7-2.58-10.6-5.86-12.78.9-.2 1.82-.22 2.74-.22 7.04 0 13.18 5.87 13.18 13 0 7.2-6.1 13.08-13.33 13Z" fill="url(#a1wuuf0y4)"/><defs><linearGradient id="a1wuuf0y4" x1="13.83" y1="39.9" x2="37.64" y2="15.89" gradientUnits="userSpaceOnUse"><stop offset=".1" stop-color="#F04F23"/><stop offset=".5" stop-color="#A0F"/><stop offset=".9" stop-color="#006EFA"/></linearGradient></defs></svg>