<!-- by TradingView --><svg width="56" height="56" viewBox="0 0 56 56" xmlns="http://www.w3.org/2000/svg"><path fill="#F0F3FA" d="M0 0h56v56H0z"/><path d="M42.81 15c.52 0 1.19.5 1.19 1.2v.6c0 .65-.67 1.2-1.19 1.2H15.2c-.7 0-1.19-.55-1.19-1.2v-.6c0-.7.49-1.2 1.19-1.2H42.8Z" fill="#007DA5"/><path d="M22.8 23c.7 0 1.2.5 1.2 1.2v.6c0 .7-.5 1.2-1.2 1.2h-7.6c-.71 0-1.2-.5-1.2-1.2v-.6c0-.7.49-1.2 1.2-1.2h7.6Z" fill="#FF671D"/><path d="M33.83 31c.7 0 1.17.5 1.17 1.2v.6c0 .7-.47 1.2-1.17 1.2H15.17c-.7 0-1.17-.5-1.17-1.2v-.6c0-.7.48-1.2 1.17-1.2h18.66Z" fill="#007DA5"/><path d="M22.86 39c.65 0 1.14.5 1.14 1.02v.97c0 .52-.49 1.01-1.14 1.01h-7.72c-.65 0-1.14-.5-1.14-1.01v-.98c0-.52.49-1.01 1.14-1.01h7.72Z" fill="#FF671D"/></svg>