<!-- by TradingView --><svg width="56" height="56" viewBox="0 0 56 56" xmlns="http://www.w3.org/2000/svg"><path fill="#F0F3FA" d="M0 0h56v56H0z"/><path fill-rule="evenodd" d="M20.6 15.76c.21-.66.97-2.05 2.24-2.25 1.59-.26 2.38.37 2.77.75a5 5 0 0 1 3.97.38c.13-.05.3-.26-.13-.76-.22-.12-.66-.47-.66-.88 0-.5.26-1 .92-1s1.06.75 1.06 1.13c0 .38.66 2.26 1.72 2.13.98-.11.94-.99.93-1.21V14c0-.04-.05-.1-.1-.17-.13-.15-.3-.38-.3-.71 0-.5.4-.88.92-.88.53 0 1.06.38 1.06 1 0 .26-.1.54-.23.84-.18.45-.38.95-.3 1.55.07.55.54 1.39 1 2.25.4.72.8 1.44.98 2.01.06.18.1.34.15.46.14.44.2.63.23.83.02.15.02.31.02.6v4.26c-.04.38-.32 1.1-1.06 1a4 4 0 0 1-1.11-.36c-.35-.15-.6-.27-.74-.13-.26.25.8 2.5 2.12 2.76.22 0 .56-.31.89-.6.26-.25.52-.48.7-.53.3.08.95.22 1.05.12.13-.12-.4-1.38-.8-1.5-.39-.13-.65-.25-.65-.76 0-.5.4-.75.66-.75s.8.16.8.58c0 .42.39 1.18.65 1.18.27 0 .27-1.76.27-2.26 0-.27-.12-.4-.22-.51-.1-.1-.18-.2-.18-.37 0-.38.26-.88.8-.88.52 0 .79.5.79.88 0 .19-.1.28-.2.38-.1.1-.2.18-.2.37 0 .38.13 2.26 1.19 2.39.7.08.82-.27.93-.59.06-.17.12-.33.26-.42.4-.25.8-.25 1.06 0s.13.76-.14 1a.76.76 0 0 1-.36.2c-.12.02-.23.05-.3.18l-.2.51c-1.15 2.86-6.67 16.68-9.18 16.68-.5 0-.68-.33-.86-.69-.2-.4-.43-.81-1.12-.81-.47 0-.7.47-.93.94-.23.47-.46.94-.93.94a6.09 6.09 0 0 1-2.24-.88c-.44-.27-1.94-1.48-3.73-2.9-3.07-2.47-6.97-5.6-7.64-5.76-.68-.16-.87-.11-1.09-.06-.12.03-.26.06-.5.06a.94.94 0 0 1-.92-1.13c.13-.5.66-.62.92-.62.09 0 .22.1.38.24.32.27.77.64 1.21.38.57-.32-.14-.92-.51-1.24l-.15-.14-1.98-1.88c-.31-.04-.93-.25-.93-.75 0-.63.4-1 .66-1 .27 0 .93 0 1.06.75 0 .08.16.4.8 1 .23.23.43.45.61.65.43.49.77.86 1.23.86.66 0 1.59-.38 1.46-2.39-.14-2-3.18-5.64-4.9-5.77a2.1 2.1 0 0 1-.79.13c-.53 0-.79-.5-.79-1s.4-.76.8-.76c.2 0 .39.19.57.38.15.16.3.32.48.37l.22.08c.4.15.95.36 1.5.05.66-.38.53-1 .26-1.63a9.6 9.6 0 0 1-.4-1.13c-.26-.17-.76-.63-.65-1.13.13-.63.52-.75.66-.75.13 0 1.05 0 1.05.75v.37c-.02.53-.03.9.4 1.51l.15.22c.48.7.97 1.4 1.57 1.29.66-.13.26-2.01.13-2.39a1.9 1.9 0 0 0-.37-.46c-.42-.46-1.04-1.13-.95-1.92.13-1.13 2.25-2.51 3.17-2.64Zm11.5 3.52c.33 1.75 1 5.35 1.12 5.75.13.5.41.87.83.75.42-.13.55-.38.28-1.13l-.27-.7a84.87 84.87 0 0 1-1.68-4.67c0-.1.02-.12.06-.15.05-.06.14-.14.22-.6.1-.53-.41-1.89-.73-2.71l-.1-.29c-.14-.38-.28-.38-.14.12l.2.6c.25.63.55 1.44.35 1.53-.1.04-.4-.89-.62-1.53l-.21-.6c-.14-.25-.28-.25-.14.13l.07.17c.2.5.73 1.85.49 1.95-.21.1-.66-1.2-.88-1.84l-.1-.28c-.13-.38-.27-.13-.13.12.06.12.83 2.13.69 2.13-.25 0-.78-1.47-.94-1.9l-.03-.1c-.14-.38-.28-.25-.14.12l.14.4c.27.8.81 2.34.97 2.48.16.14.36.16.5.18.1 0 .18.02.2.07Zm-13.35 6.8c-.35-1.04 0-2.14.56-2.26.56-.13 1.4.25 1.81 1.62.28.91-.07 1.36-.28 1.63-.08.1-.14.18-.14.25 0 .25 1.26 3.5 1.82 4.38.56.88.84 2.13.28 2.13-.56 0-.98-.5-1.12-1.88-.14-1.37-1.12-4.25-1.4-4.5-.07-.07-.19-.11-.33-.16-.37-.13-.9-.3-1.2-1.22Zm13.27 14.75c1.42-.24 2.08-3.11 1.37-5.68-.76-2.7-2.55-3.14-3.5-3.38a4.83 4.83 0 0 1-.37-.1c-.49-1.06-2.7-7.8-2.85-11.18-.15-3.38-1.64-5.15-2.95-4.64-1.63.63-.73 2.84.55 5.05 1.27 2.2 4.22 10.41 4.19 11.02-.01.16-.11.34-.24.57-.37.66-.99 1.75-.42 4.05.86 3.41 2.8 4.52 4.22 4.29Zm-12.09-5.18c0-.4.27-.33.4-.25 1.22.92 3.85 2.9 4.6 3.5a35.1 35.1 0 0 0 3.8 2.5c.53.24 1.34.99.8 1.36-.43.3-1.35-.12-1.75-.37l-3.25-2.87c-.2-.18-.39-.1-.53-.04a.44.44 0 0 1-.15.04c-.13 0-1.76-1.37-2.57-2.12-.8-.75-1.35-1.25-1.35-1.75Zm18.75-3.35c.09-.13.3-.3.48.06.24.44-.02 1.12-.4 2.13a22.41 22.41 0 0 1-1.32 2.98.44.44 0 0 1-.14.02c-.16.01-.37.02-.46.26l-1.58 3.94c-.25.4-.88 1.16-1.4 1.07-.66-.1-.28-1.12.08-1.57.37-.45 1.74-2.76 2.24-3.82.4-.86 1.84-3.74 2.5-5.07Z" fill="#9BCA3C"/></svg>