<!-- by TradingView --><svg width="56" height="56" viewBox="0 0 56 56" fill="none" xmlns="http://www.w3.org/2000/svg">
<rect width="56" height="56" fill="#C01923"/>
<path fill-rule="evenodd" clip-rule="evenodd" d="M28 30.9978C30.665 30.9978 33.0594 29.8395 34.7074 27.9989C33.0594 26.1582 30.665 24.9999 28 24.9999C25.335 24.9999 22.9406 26.1582 21.2926 27.9989C22.9406 29.8395 25.335 30.9978 28 30.9978ZM28 22.9999C31.0941 22.9999 33.8899 24.2774 35.8886 26.3338C36.597 25.0477 37 23.5698 37 21.9978C37 17.0272 32.9706 12.9978 28 12.9978C23.0294 12.9978 19 17.0272 19 21.9978C19 23.5698 19.403 25.0477 20.1114 26.3338C22.1101 24.2774 24.9059 22.9999 28 22.9999ZM37.7995 26.9999C38.567 25.4993 39 23.7991 39 21.9978C39 15.9227 34.0751 10.9978 28 10.9978C21.9249 10.9978 17 15.9227 17 21.9978C17 23.7991 17.433 25.4993 18.2005 26.9999H12C11.4477 26.9999 11 27.4477 11 27.9999C11 28.5522 11.4477 28.9999 12 28.9999H18.1994C17.4326 30.5001 17 32.1995 17 33.9999C17 40.0751 21.9249 44.9999 28 44.9999C34.0751 44.9999 39 40.0751 39 33.9999C39 32.1995 38.5674 30.5001 37.8006 28.9999H44C44.5523 28.9999 45 28.5522 45 27.9999C45 27.4477 44.5523 26.9999 44 26.9999H37.7995ZM28 32.9978C31.0941 32.9978 33.8899 31.7203 35.8886 29.664C36.597 30.95 37 32.4279 37 33.9999C37 38.9705 32.9706 42.9999 28 42.9999C23.0294 42.9999 19 38.9705 19 33.9999C19 32.4279 19.403 30.95 20.1114 29.664C22.1101 31.7203 24.9059 32.9978 28 32.9978Z" fill="white"/>
</svg>
