<!-- by TradingView --><svg width="56" height="56" viewBox="0 0 56 56" xmlns="http://www.w3.org/2000/svg"><path fill="#B0272F" d="M0 0h56v56H0z"/><path d="M46 33h-.68l-3.16-5L39 23h.68L46 33Zm-8.5-10H37v10h.5V23ZM31 23h.5v9.5H36v.5h-5V23Zm-8 9.5v.5h-5V23h5v.5h-4.5v4H23v.5h-4.5v4.5H23Zm7 0v.5h-5V23h5v.5h-4.5v4H30v.5h-4.5v4.5H30Zm22 0v.5h-5V23h5v.5h-4.5v4H52v.5h-4.5v4.5H52ZM4.5 28v5H4V23h5v.5H4.5v4H9v.5H4.5ZM17 25.6c0-1.97-1.76-2.6-3.42-2.6H10v10h.5v-9.5h3.1c1.3 0 2.9.56 2.9 2.13 0 1.7-1.55 1.87-2.93 1.87H12l3.75 5.5h.75l-3.4-5h.73c1.7 0 3.17-.45 3.17-2.4Z" fill="#F0F3FA"/></svg>