<!-- by TradingView --><svg width="56" height="56" viewBox="0 0 56 56" xmlns="http://www.w3.org/2000/svg"><path fill="#F0F3FA" d="M0 0h56v56H0z"/><path d="M10 17v22h4V29h4v-3h-4v-6h5v-3h-9Zm11 22h4V29h2.3l2.78 10h4.25s-2.71-9.23-3.1-10.49l-.1-.33.33-.17a4.07 4.07 0 0 0 1.5-1.23c.45-.62.76-1.52.9-2.64.08-.52.08-1.97 0-2.46-.13-1-.41-1.79-.85-2.43-.72-1.03-2.03-1.75-3.73-2.04C28.19 17.02 27.5 17 24 17h-3v22Zm13.45-22 9.19 22H48l-4.18-10.03A43956.27 43956.27 0 0 1 39.1 17.7l-.28-.7h-4.36Zm9.12.08-.92 2.72-.9 2.65 1.05 2.46a87.5 87.5 0 0 0 1.06 2.47l.25-.65.67-1.88.84-2.36A18784.63 18784.63 0 0 0 47.55 17H43.6l-.03.08Zm-16.74 3.26H27c.15-.04.25 0 .24.1-.01.09.12.1.21 0l.07-.08.17.05c.19.05.21.1.09.14-.08.04-.1.1-.05.14l.25.02c.24 0 .33.05.33.17 0 .09-.07.12-.26.12-.14 0-.16 0-.16.05 0 .08.05.1.27.12l.2.02.13-.12c.06-.07.14-.12.17-.12.02 0 .1-.02.16-.05.14-.05.14-.05.12 0-.02.06.03.13.1.13l.2-.08c.17-.08.22-.07.25.08.03.13.01.16-.08.16-.18 0-.12.14.12.28l.14.08-.04.07c-.04.07-.06.07-.19.05a.48.48 0 0 0-.25.03c-.13.05-.24.14-.24.2 0 .01-.03.05-.07.08-.1.07-.06.1.1.13.27.04.32.07.32.23 0 .07 0 .09.05.07l.07.01c.03.05.06.04.1-.05.04-.12.09-.14.26-.08.26.1.52.3.49.4-.01.02 0 .06.02.08.02.03.06.1.07.17.04.15 0 .24-.13.31-.08.05-.12.05-.3.04-.26-.02-.3 0-.24.07.04.05.04.05 0 .11l-.06.06.11-.02c.1-.01.13 0 .18.04.05.04.05.06.02.08-.04.02-.01.08.04.08.07 0 .06.08-.02.15l-.09.08.13-.02.25-.03c.11-.02.13-.01.21.07.1.1.19.32.16.43-.02.1-.16.17-.34.17-.09 0-.2.02-.25.04-.13.06-.18.05-.3-.01-.12-.06-.22-.07-.3-.03-.07.04-.06.08.01.08.07 0 .16.17.14.23-.02.05-.11.08-.28.12a1.9 1.9 0 0 0-.2.05c-.1.03-.14.03-.26 0-.3-.09-.46-.09-.48.01-.01.05-.15.11-.37.17-.1.03-.5-.03-.53-.09-.01-.01-.05-.02-.1-.01-.06 0-.06 0-.05-.07.02-.08.02-.08-.05-.07a.24.24 0 0 1-.12-.01c-.05-.03-.06-.03-.1.01-.06.09-.07.23-.04.5.04.3.08.35.3.38.17.03.2.07.05.07-.07 0-.2.03-.3.06a.83.83 0 0 1-.49.03 1.6 1.6 0 0 0-.2-.05c-.08-.01-.12-.02-.1-.03.15-.05.27-.13.3-.2.05-.12.09-.82.05-.9-.03-.05-.06-.06-.2-.06-.22 0-.49.06-.65.15a.53.53 0 0 1-.3.07c-.2 0-.36.04-.46.11-.05.04-.11.05-.23.05a.44.44 0 0 0-.18.03c-.02.04-.1-.01-.15-.08-.02-.05-.02-.07.02-.1.03-.05.04-.07.01-.13-.02-.07-.02-.08.06-.1.04-.02.08-.05.08-.07 0-.04-.07-.1-.1-.08a.43.43 0 0 1-.15-.08c-.11-.1-.12-.1-.3-.08-.17.01-.2 0-.26-.04-.1-.09-.04-.15.2-.2l.23-.09a.76.76 0 0 1 .2-.07c.18-.05.2-.09.1-.17-.06-.04-.13-.06-.3-.06-.18 0-.25-.02-.34-.08-.13-.07-.2-.19-.18-.27.02-.04 0-.06-.06-.09-.1-.04-.1-.1 0-.2.1-.08.18-.1.27-.06l.38.02c.25 0 .31 0 .35-.04.03-.04.08-.05.18-.04.18 0 .42-.12.42-.23 0-.05-.2-.06-.36-.01-.06.01-.25.04-.42.05-.17 0-.32.03-.35.04-.1.05-.2-.2-.11-.3a.14.14 0 0 0 .04-.08c0-.02.04-.06.08-.09.05-.02.1-.06.11-.08a.32.32 0 0 1 .13-.08c.05-.02.1-.06.11-.09 0-.03.07-.06.19-.1.17-.05.29-.13.35-.25.03-.04.04-.04.12-.01.06.01.15.06.22.11.18.11.29.1.29-.04 0-.05-.05-.08-.24-.17a1.2 1.2 0 0 0-.26-.1 1.2 1.2 0 0 1-.4-.11.83.83 0 0 1-.07-.16 3.23 3.23 0 0 0-.06-.17c-.01-.03 0-.05.05-.07a.19.19 0 0 0 .1-.11c.04-.11.12-.13.35-.08l.19.03.12-.14c.1-.11.15-.14.21-.14s.1-.02.11-.06a.43.43 0 0 1 .14-.08.6.6 0 0 0 .14-.05.98.98 0 0 1 .24-.04c.26-.03.34-.06.36-.13 0-.04.02-.05.1-.03.04 0 .1.02.11.03Zm-.7 4.16-.11.02c-.04 0-.06.04-.06.06 0 .05.04.04.27-.02.08-.02.1-.04.07-.06-.04-.02-.08-.02-.17 0Zm1.02.16c-.04.02-.07.06-.07.1 0 .04.02.05.14.05.12 0 .15-.01.19-.06.02-.03.03-.07.02-.1-.02-.05-.19-.04-.28 0Zm11.3 3.74L34.48 39h3.88l.13-.38c.66-1.7 1.3-3.42 1.94-5.13l.11-.3-.08-.2a511.2 511.2 0 0 0-1.96-4.63c-.01-.02-.03 0-.05.04Z"/></svg>