<!-- by TradingView --><svg width="56" height="56" viewBox="0 0 56 56" xmlns="http://www.w3.org/2000/svg"><path fill="#F0F3FA" d="M0 0h56v56H0z"/><path d="M39.65 29a4.3 4.3 0 0 1-4.27 4.32A4.3 4.3 0 0 1 31.1 29a4.3 4.3 0 0 1 4.28-4.32A4.3 4.3 0 0 1 39.65 29Z" fill="#D74027"/><path d="M38.87 28.2a3.51 3.51 0 0 1-3.5 3.53 3.51 3.51 0 0 1-3.49-3.52 3.51 3.51 0 0 1 3.5-3.53 3.51 3.51 0 0 1 3.49 3.53Z" fill="#B03120"/><path d="M37.72 27.73c0 1.49-1.2 2.69-2.66 2.69a2.67 2.67 0 0 1-2.66-2.69c0-1.48 1.2-2.69 2.66-2.69 1.47 0 2.66 1.2 2.66 2.7Z" fill="#DC7336"/><path d="M35.83 26.86c0 .74-.6 1.35-1.33 1.35-.73 0-1.33-.6-1.33-1.35 0-.74.6-1.34 1.33-1.34.74 0 1.33.6 1.33 1.34Z" fill="#FBE792"/><path fill-rule="evenodd" d="M42.89 38.32c.77-2.87.85-6.67.04-10.72-.81-4.05-2.36-7.53-4.18-9.86-1.84-2.37-3.83-3.44-5.54-3.09-1.72.35-3.14 2.12-3.92 5.03-.77 2.87-.86 6.67-.05 10.72.82 4.05 2.36 7.53 4.18 9.86 1.84 2.37 3.83 3.44 5.55 3.09 1.71-.35 3.14-2.12 3.92-5.03Zm-3.8 5.6c4.09-.84 6.06-8.2 4.4-16.44-1.65-8.24-6.3-14.24-10.4-13.4-4.1.84-6.07 8.2-4.41 16.44 1.65 8.24 6.31 14.24 10.4 13.4Z" fill="#BCBEC0"/><path fill-rule="evenodd" d="M31.2 39.39c2.87-.68 6.22-2.41 9.36-5.06 3.14-2.65 5.43-5.67 6.6-8.4 1.19-2.76 1.17-5.04.05-6.4-1.12-1.36-3.34-1.78-6.24-1.1-2.86.68-6.22 2.41-9.36 5.06-3.14 2.65-5.42 5.67-6.6 8.4-1.18 2.76-1.17 5.04-.04 6.4 1.12 1.36 3.33 1.78 6.23 1.1Zm-6.68-.73c2.68 3.24 10.02 1.5 16.41-3.88 6.39-5.39 9.4-12.38 6.72-15.62-2.67-3.25-10.02-1.5-16.4 3.88-6.4 5.38-9.4 12.38-6.73 15.62Z" fill="#BCBEC0"/><path fill-rule="evenodd" d="M24.05 30c2.17 2 5.46 3.85 9.4 4.99 3.92 1.14 7.68 1.36 10.57.81 2.93-.55 4.79-1.84 5.27-3.54.49-1.7-.4-3.8-2.6-5.84-2.16-2.02-5.45-3.85-9.38-5-3.93-1.14-7.7-1.36-10.58-.81-2.93.55-4.79 1.84-5.27 3.54-.49 1.7.4 3.8 2.6 5.84Zm-3.15-6c-1.15 4.05 4.39 9.23 12.38 11.55 8 2.33 15.41.93 16.57-3.13 1.15-4.06-4.39-9.23-12.38-11.56-8-2.33-15.41-.93-16.57 3.13Z" fill="#BCBEC0"/><path d="M6 23.56v9.02c0 .23.2.42.43.42H7.6c.24 0 .41-.19.41-.42V29h3.11c.24 0 .44-.22.44-.45v-.82c0-.23-.2-.42-.44-.42H8v-2.63h3.58c.24 0 .42-.19.42-.42v-.84a.41.41 0 0 0-.42-.42h-5a.57.57 0 0 0-.58.56ZM13 30.08v-4.64c0-.24.2-.44.45-.44h1.13c.25 0 .42.2.42.44v4.17c.03.53.32 1.6 1.18 1.6.86 0 1.6-.75 1.82-1.13v-4.64c0-.24.1-.44.34-.44h1.22c.24 0 .44.2.44.44v7.12c0 .24-.2.44-.44.44h-.97c-.24 0-.59-.2-.59-.44v-.83A3.15 3.15 0 0 1 15.65 33c-2.16-.04-2.67-1.96-2.65-2.92ZM48 27.92v4.64c0 .24-.2.44-.45.44h-1.13c-.25 0-.42-.2-.42-.44v-4.17c-.02-.53-.32-1.6-1.18-1.6-.86 0-1.6.75-1.82 1.13v4.64c0 .24-.1.44-.34.44h-1.22a.44.44 0 0 1-.44-.44v-7.12c0-.24.2-.44.44-.44h.97c.24 0 .59.2.59.44v.83c.74-1 1.82-1.26 2.35-1.27 2.16.04 2.67 1.96 2.65 2.92ZM26.56 25.7v.87a.3.3 0 0 1-.42.28 5.31 5.31 0 0 0-1.64-.48c-.55 0-1.06.28-1.04.66.02.39.13.77 1.04 1.03s2.42.83 2.5 2.52c.08 1.69-1.62 2.4-3.03 2.42-1 .01-1.86-.35-2.27-.6a.27.27 0 0 1-.12-.23v-.9c0-.24.29-.39.5-.27.61.32 1.42.6 1.8.57.49-.04 1.08-.22 1.08-.9 0-.53-.91-.9-1.37-1.02-.68-.19-2.05-.9-2.01-2.3.05-1.74 1.63-2.32 2.78-2.35.8-.02 1.61.25 2.04.44.1.04.16.14.16.25ZM28 25.45c0-.25.19-.45.42-.45h1.16c.23 0 .42.2.42.45v7.1c0 .25-.19.45-.42.45h-1.16c-.23 0-.42-.2-.42-.45v-7.1Z" fill="#231F20"/><path d="M30.64 22.5c0 .92-.73 1.66-1.64 1.66-.9 0-1.64-.74-1.64-1.66 0-.91.73-1.66 1.64-1.66.9 0 1.64.75 1.64 1.66Z" fill="#D74027"/><path d="M30.34 22.2c0 .75-.6 1.35-1.34 1.35-.74 0-1.34-.6-1.34-1.35 0-.75.6-1.36 1.34-1.36.74 0 1.34.61 1.34 1.36Z" fill="#B03120"/><path d="M29.9 22.02c0 .57-.46 1.03-1.02 1.03-.57 0-1.02-.46-1.02-1.03 0-.57.45-1.04 1.02-1.04.56 0 1.02.47 1.02 1.04Z" fill="#DC7336"/><path d="M29.18 21.68c0 .29-.23.52-.52.52a.51.51 0 0 1-.5-.52c0-.28.22-.51.5-.51.29 0 .52.23.52.51Z" fill="#FBE792"/><path d="M49.84 19.7c0 1.24-1 2.25-2.23 2.25-1.22 0-2.22-1-2.22-2.25 0-1.24 1-2.25 2.22-2.25 1.23 0 2.23 1.01 2.23 2.25Z" fill="#D74027"/><path d="M49.43 19.29c0 1.01-.81 1.83-1.82 1.83-1 0-1.81-.82-1.81-1.83 0-1.02.81-1.84 1.81-1.84s1.82.82 1.82 1.84Z" fill="#B03120"/><path d="M48.83 19.04c0 .77-.62 1.4-1.38 1.4a1.4 1.4 0 0 1-1.38-1.4c0-.77.62-1.4 1.38-1.4.76 0 1.38.63 1.38 1.4Z" fill="#DC7336"/><path d="M47.85 18.59a.7.7 0 0 1-.69.7.7.7 0 0 1-.7-.7.7.7 0 1 1 1.38 0Z" fill="#FBE792"/><path d="M48.29 36.38c0 1.24-1 2.25-2.22 2.25-1.23 0-2.23-1.01-2.23-2.25s1-2.25 2.23-2.25c1.22 0 2.22 1 2.22 2.25Z" fill="#D74027"/><path d="M47.88 35.97c0 1-.81 1.83-1.81 1.83s-1.82-.82-1.82-1.83c0-1.02.81-1.84 1.82-1.84 1 0 1.81.82 1.81 1.84Z" fill="#B03120"/><path d="M47.29 35.72c0 .77-.62 1.4-1.39 1.4-.76 0-1.38-.63-1.38-1.4 0-.77.62-1.4 1.38-1.4.77 0 1.39.63 1.39 1.4Z" fill="#DC7336"/><path d="M46.3 35.27c0 .38-.3.7-.69.7a.7.7 0 0 1-.69-.7.7.7 0 1 1 1.38 0Z" fill="#FBE792"/></svg>