<!-- by TradingView --><svg width="56" height="56" viewBox="0 0 56 56" xmlns="http://www.w3.org/2000/svg"><path fill="#001A6E" d="M0 0h56v56H0z"/><path d="M38.3 27.87c.16 1.15.45 2.28.87 3.34a22.62 22.62 0 0 1 3.8-1.7l-.02-.02a32.6 32.6 0 0 0-3.76-2.36l-.9.74Zm.49 7.32c.7 0 1.42.02 2.13.06a14.35 14.35 0 0 1-2-3.3c-.96.58-1.85 1.24-2.64 1.97l.37 1.33c.7-.04 1.43-.06 2.14-.06Zm-1.83 4.66-.02-.2a27.36 27.36 0 0 0-.69-3.88c-.6.04-1.2.1-1.81.16-.55.71-1.04 1.48-1.44 2.29 1.26.24 2.6.8 3.96 1.63Zm-4.49-1.72.25-.48c.3-.56.65-1.12 1.03-1.64-2.28.28-4.61.76-6.91 1.4.56.46 1.08.91 1.55 1.36a6.96 6.96 0 0 1 4.08-.64Zm-3.69 1.01a14.58 14.58 0 0 1 2.4 3.01c.1-.7.38-2.02 1.07-3.55a6.37 6.37 0 0 0-3.47.54Zm-3.96 3.02c.22-.39.7-1.1 1.39-1.8.52-.53 1.1-.99 1.71-1.34-.5-.47-1.07-.95-1.68-1.44-.84.25-1.69.53-2.5.82.25 1.23.62 2.5 1.08 3.76Zm.94-4.95a41.94 41.94 0 0 0-2.46-1.74c.07.8.18 1.62.33 2.43.7-.24 1.41-.48 2.13-.7Zm-2.54-3.63.01.9A37.46 37.46 0 0 0 34.35 30c-.5-1.2-1.06-2.37-1.69-3.5-.2.43-.4.85-.63 1.22-1.38 2.3-3.28 3.46-5.67 3.46-.92 0-1.9-.18-2.94-.52-.14.96-.2 1.94-.2 2.92Zm-3.34 2.02a71.35 71.35 0 0 0-.62 4.1c.56-.26 1.97-.92 3.89-1.62a24.3 24.3 0 0 1-.4-2.95l-.01-.02a39 39 0 0 1-2.86.5Zm-4.63-.19h.3c.83 0 2.17-.04 3.89-.25.1-.61.23-1.22.35-1.8-.8-.45-1.65-.9-2.5-1.34a23.5 23.5 0 0 1-2.18 3.39h.14Zm1.45-8.63a10.5 10.5 0 0 1-3.48 2.75c.71.31 2.12.94 3.85 1.82.52-1 1-2.08 1.44-3.23a32.72 32.72 0 0 1-1.81-1.34Zm-3.04-3.4a36.68 36.68 0 0 0 2.94 2.67c.63-.95.99-2.02 1.04-3.18-1.31.11-2.65.28-3.98.52Zm6.5-.64c-.66.01-1.34.05-2 .1A6.66 6.66 0 0 1 17 26.36a26.3 26.3 0 0 0 1.69 1.26 45.75 45.75 0 0 0 1.47-4.9Zm.74-3.58c-1.4-.25-2.72-.59-3.93-1 .43.8 1.13 2.37 1.18 4.17.72-.05 1.43-.08 2.13-.1.23-1 .44-2.03.62-3.07Zm3.28.4c-.96-.07-1.89-.18-2.78-.32a52.02 52.02 0 0 1-.6 3l.3-.01c.65 0 1.31.01 1.96.05.36-.92.73-1.84 1.12-2.72Zm1.11-2.43a36.48 36.48 0 0 0-3.28-2.65c-.04.63-.19 2.22-.52 4.27.92.14 1.9.25 2.9.32l.9-1.94Zm.44.4-.04-.03-.76 1.6c.7.04 1.44.06 2.17.06h.3c-.53-.56-1.11-1.1-1.67-1.63ZM28 13.2a46.6 46.6 0 0 0-2.1 3.82l.04.03c.7.66 1.54 1.43 2.2 2.14l.4-.46c.6-.68 1.05-1.15 1.63-1.7a14.06 14.06 0 0 1-2.14-3.88l-.03.05Zm.8 5.92c1-.03 2.1-.1 3.13-.21-.52-.47-1-.97-1.44-1.5l-.18.18c-.51.5-1.04 1-1.5 1.52v.01Zm5.27-4.6a23.25 23.25 0 0 0-3.21 2.55c.52.63 1.12 1.22 1.76 1.77.43-.05.88-.1 1.34-.17.1-1.11.18-2.3.22-3.56v-.66l-.1.05v.02Zm3.85 7.86a19.82 19.82 0 0 1-3.68-1.76c-.2 1.3-.45 2.5-.75 3.56 1.41.46 2.8 1 4.12 1.62v-.17c0-1.06.1-2.15.31-3.25Zm1.25-4.17c-.68.16-2.45.57-4.74.9l-.12.97a18.66 18.66 0 0 0 3.71 1.8c.26-1.2.65-2.44 1.15-3.67Zm-.83 8.5-.19-.1c.02.23.03.45.06.67l.26-.22.22-.18-.35-.18ZM35 30.2c.42 1.04.8 2.1 1.13 3.18.79-.7 1.66-1.33 2.6-1.9a15.34 15.34 0 0 1-.88-3.25c-.92.7-1.88 1.36-2.85 1.97Zm1.14 5.08-.26-.97c-.35.34-.68.7-1 1.07l1.26-.1Zm-.42-1.51a37.22 37.22 0 0 0-1-2.9l-.16-.4a37.92 37.92 0 0 1-11.12 4.49c1.06.69 2.05 1.39 2.93 2.07 2.6-.75 5.23-1.28 7.8-1.57.47-.6 1-1.16 1.55-1.7Zm1.73-7.5c-1.3-.61-2.68-1.15-4.09-1.6-.13.43-.28.84-.43 1.24a38.73 38.73 0 0 1 1.87 3.81c1.02-.63 2.01-1.33 2.96-2.07-.05-.42-.1-.86-.11-1.29l-.2-.1Zm-3.53-7.09-.73.1c.2.16.44.32.66.48l.07-.58Zm-5.44.46a36.09 36.09 0 0 1 3.03 3.95c.5.13 1.02.28 1.51.44.32-1.1.57-2.35.76-3.71-.45-.3-.89-.62-1.3-.96-1.36.15-2.7.24-4 .28Zm4.4 4.87-.96-.29.68 1.12c.1-.27.2-.55.28-.83Zm-1.7-.5c-1.66-.43-3.38-.76-5.1-.97a21.19 21.19 0 0 0-2.58 7.13c1.02.33 1.98.5 2.86.5 2.2 0 3.96-1.07 5.24-3.2.27-.46.53-.97.76-1.53-.36-.64-.76-1.29-1.17-1.92Zm-.41-.61a35.65 35.65 0 0 0-2.63-3.38c-.65.82-1.25 1.67-1.78 2.55 1.48.19 2.96.47 4.4.83Zm-7.17-1.1c.74.05 1.48.11 2.2.2.58-.97 1.25-1.93 1.98-2.85a54.27 54.27 0 0 1-3.05-.06l-.11.26-.14.31-.88 2.14Zm-.18.5c-.8 2.08-1.5 4.25-2.1 6.43.58.3 1.15.55 1.7.76a21.68 21.68 0 0 1 2.51-7.02c-.7-.08-1.4-.13-2.11-.17Zm-2.72-.07c-.44 1.84-.97 3.6-1.56 5.2.58.39 1.16.74 1.72 1.05.58-2.1 1.26-4.19 2.02-6.21-.58-.03-1.19-.04-1.78-.04h-.4Zm-.79 10.11c.24-1.12.52-2.25.81-3.36-.57-.31-1.16-.67-1.77-1.07a33.88 33.88 0 0 1-1.41 3.17c.8.4 1.6.83 2.37 1.26Zm.36.78-.3 1.47 2.16-.36c-.6-.38-1.23-.75-1.86-1.11Zm.66-.2c.62.36 1.22.73 1.8 1.09l-.02-.93c0-1.03.08-2.07.22-3.08-.56-.21-1.15-.47-1.74-.78-.3 1.12-.57 2.26-.81 3.38l.36.21.19.1Zm18.2-6.89c1.1-.95 2.17-1.98 3.17-3.07a22 22 0 0 1-3.87-.9 17.17 17.17 0 0 0-.28 3.48c.34.16.67.33.98.5Zm4.8 3.1.05.04.03.03-.04.01-.07.02-.06.03-.15.04-.1.04c-1.53.5-2.95 1.12-4.22 1.85a13.27 13.27 0 0 0 2.34 3.67l.11.12.16.16.09.08.08.08.04.04h-.06l-.11-.01-.12-.01-.23-.02-.17-.01a36.26 36.26 0 0 0-4.73-.05c.6 2.51.72 4.24.75 4.54v.33l.01.08v.12l-.03-.02-.07-.05-.07-.04-.14-.09-.1-.07c-1.51-.99-2.97-1.61-4.34-1.86a13.14 13.14 0 0 0-1.17 4.17l-.06.64-.04.51s-.15-.37-.38-.85a13.58 13.58 0 0 0-2.82-3.77c-.45.25-.89.57-1.3.93a9.01 9.01 0 0 0-1.9 2.38l-.07.13-.03.05-.06.14-.09.18-.04.1-.04.08-.02.05-.02-.05-.03-.1-.04-.09-.07-.19-.06-.14a28.25 28.25 0 0 1-1.28-4.28 39.18 39.18 0 0 0-3.77 1.6c-.02 0-.03 0-.04.02-.1.04-.23.1-.34.17l-.12.06-.14.08-.08.03-.07.04-.03.03v-.05l.01-.07v-.09l.03-.16v-.12c.18-1.48.39-2.97.65-4.44a31.87 31.87 0 0 1-4.8.21h-.09l-.17-.01h-.07l-.08-.01h-.05l.03-.03.05-.07.05-.06.1-.13.08-.09c.88-1.06 1.7-2.3 2.44-3.69a73.7 73.7 0 0 0-4.32-2l-.13-.06-.17-.07-.1-.04-.08-.03-.04-.02.04-.02.09-.04.08-.04.17-.08.13-.06c1.66-.8 2.94-1.76 3.8-2.87-1.87-1.52-3.16-2.87-3.33-3.05l-.02-.01-.07-.1-.1-.1-.05-.05-.06-.06-.02-.03h.03l.08-.02.08-.01.14-.03.12-.02c1.5-.28 3.03-.49 4.53-.61a9.36 9.36 0 0 0-1.4-4.47l-.05-.06a.16.16 0 0 1-.01-.03l-.12-.17-.16-.22-.07-.11-.08-.11-.04-.06.06.02.13.05.13.05.26.1.19.08c1.37.53 2.88.94 4.5 1.22a52.8 52.8 0 0 0 .56-4.66v-.27l.01-.08v-.07l.01-.04.03.02.07.04.06.05.13.09.1.07a37.6 37.6 0 0 1 3.58 2.85 41.84 41.84 0 0 1 2.36-4.22l.08-.11.1-.15.04-.07.05-.07.02-.04.02.04.05.17.06.16.04.13c.5 1.53 1.24 2.93 2.2 4.17 1.98-1.82 3.61-2.8 3.74-2.88h.01l.1-.06.12-.08.13-.07.04-.02v1.56c-.03 1.22-.1 2.39-.2 3.48 2.4-.36 4.15-.77 4.8-.94h.02l.23-.06.13-.04.17-.04.09-.02.09-.03h.04l-.02.03-.04.08-.03.08-.07.16-.05.12a21.22 21.22 0 0 0-1.33 4.12c1.7.57 3.12.81 3.82.9l.48.05.13.01.17.02H43.3l.04.01-.02.03-.06.07-.06.06-.1.13-.1.09a37.3 37.3 0 0 1-3.39 3.35c2.6 1.4 4 2.58 4.06 2.63l.08.07.12.1.06.05Z" fill="#fff"/></svg>