<!-- by TradingView --><svg width="56" height="56" viewBox="0 0 56 56" xmlns="http://www.w3.org/2000/svg"><path fill="#B11AA7" d="M0 0h56v56H0z"/><path d="M26.85 13H39c0 2.4-2.9 4-3.88 4h-8.09c-2.8 0-5.1 2.35-5.1 5.45s1.73 5.73 5.1 5.73c3.37 0 5.3-2.47 5.3-5.27A5.1 5.1 0 0 0 30.7 19h5.4c.37.6.9 1.82.9 3.9 0 3.76-2.02 6.54-3.13 7.46C36.1 31.54 37 33.72 37 36.05c0 2.33-.47 8.95-9.82 8.95-7.5 0-9.9-5.14-10.18-7.72l5.05-.48c.77 3.42 4.8 3.68 5.13 3.68.32 0 5.01-.14 5.01-4.1 0-3.15-3.56-3.97-5.34-3.98-7.7-.05-9.78-6.35-9.85-9.5 0-7.36 5.73-9.9 9.85-9.9Z" fill="#fff"/></svg>