<!-- by TradingView --><svg width="56" height="56" viewBox="0 0 56 56" xmlns="http://www.w3.org/2000/svg"><path fill="#F0F3FA" d="M0 0h56v56H0z"/><path d="M19 40.74a13.37 13.37 0 0 0 8.28-5.32C28 33.74 28.35 31 26.08 31c-.43 0-.77.29-.96.66a8 8 0 1 1-.04-7.38c.2.37.5.72.92.72 1.46 0 1.95-2.15 2-3.3a13.33 13.33 0 0 0-9-6.44 13.42 13.42 0 0 1 13.5 5.16A13.42 13.42 0 0 1 46 15.26 13.1 13.1 0 0 0 35.33 28 13.1 13.1 0 0 0 46 40.74a13.42 13.42 0 0 1-13.5-5.16A13.42 13.42 0 0 1 19 40.74ZM21.3 26c-1.27 0-2.3.9-2.3 2s1.03 2 2.3 2h7.4c1.27 0 2.3-.9 2.3-2s-1.03-2-2.3-2h-7.4Z" fill="#EF6824"/></svg>