<!-- by TradingView --><svg xmlns="http://www.w3.org/2000/svg" width="56" height="56"><path fill="#404040" d="M0 0h56v56H0z"/><path d="M13.01 24.22L6 21v3.22l7.01 3.08L20 24.22V21l-6.99 3.22z" fill="#fff"/><path d="M13.01 28.07L6 24.85v3.22l7.01 3.07L20 28.07v-3.22l-6.99 3.22z" fill="#DC1D25"/><path d="M13.01 31.92L6 28.7v3.22L13.01 35 20 31.92V28.7l-6.99 3.22zM25.53 22H23v12h8v-3h-5v-1.5h4v-3h-4V25h5v-3h-5.47zm9 0H32v12h8v-3h-5v-1.5h4v-3h-4V25h5v-3h-5.47zM43 22a2 2 0 00-2 2v8c0 1.1.9 2 2 2h7v-7.5h-4.5v3H47V31h-2.5a.5.5 0 01-.5-.5v-5c0-.27.22-.5.5-.5H50v-3h-7z" fill="#fff"/></svg>