<!-- by TradingView --><svg width="56" height="56" viewBox="0 0 56 56" xmlns="http://www.w3.org/2000/svg"><path fill="#C9C1C1" d="M0 0h56v56H0z"/><path d="M7.5 28c0-.53-.53-.9-1.06-.9-.43 0-1.19.14-1.19.61H4C4 26.45 5.47 26 6.52 26c1.2 0 2.48.81 2.48 2.14V32H7.5v-4Zm.37.57.01.87H6.64c-.57 0-1.39.2-1.39.85 0 .43.58.56.98.56.46 0 1.5-.31 1.52-.87l.4.66c-.06.14-.14.3-.23.45-.35.59-1.35.91-2.01.91C4.93 32 4 31.34 4 30.27c0-1.47 1.4-1.7 2.6-1.7h1.27Z" fill="#0D2685"/><path d="M10.74 32A2.7 2.7 0 0 1 8 29.2v-.22C8 27.4 8.94 26 10.58 26c1.58 0 2.42 1.31 2.42 2.83v.6H8.63v-.86h2.87c0-.65-.22-1.37-.94-1.37-.9 0-1.15 1.05-1.15 1.78v.22c0 .84.55 1.6 1.42 1.6.54 0 1-.22 1.34-.66l.7.81A2.53 2.53 0 0 1 10.75 32Z" fill="#0D2685"/><path d="M26.74 32A2.7 2.7 0 0 1 24 29.2v-.22c0-1.58.94-2.98 2.58-2.98 1.58 0 2.42 1.31 2.42 2.83v.6h-4.37v-.86h2.87c0-.65-.22-1.37-.94-1.37-.9 0-1.06 1.05-1.06 1.78v.22c0 .84.46 1.6 1.33 1.6.54 0 1-.22 1.34-.66l.7.81A2.53 2.53 0 0 1 26.75 32Z" fill="#00A1D6"/><path d="M16.5 25.5v1H13v-1h3.5ZM14 24h1.5v5.5c0 .48 0 1.5.5 1.5h.5v1h-1c-.88 0-1.5-.79-1.5-2v-6ZM19.5 24v8H18v-8h1.5Zm-.27 4.72h-.42c.01-1.17.61-2.72 2.19-2.72 1.41 0 2 1.05 2 2.17V32h-1.5l-.09-3.83c0-.56-.5-1-.98-1-.94 0-1.2.85-1.2 1.55Z" fill="#0D2685"/><path d="M31.5 32H30v-6h1.5v6Zm2.5-5.93v1.64c-.13-.02-.5-.42-1-.42-.78 0-1.68.72-1.7 1.45l-.29-.1c0-.96 1.27-2.64 2.55-2.64.16 0 .34.03.44.07ZM36.5 26v6H35v-6h1.5ZM36.5 24v1.5H35V24h1.5ZM41.5 26H43v6h-1.5v-6Zm.25 3.43h.42c0 1.39-.58 2.57-2.09 2.57-1.28 0-2.08-.94-2.08-2.2V26h1.5v3.43c0 .86.44 1.28 1 1.28.87 0 1.25-.45 1.25-1.28ZM45.5 32H44v-6h1.5v6Zm-.22-3.15h-.4c0-1.44.84-2.85 2.32-2.85 1.14 0 1.8 1.04 1.8 2.14V32h-1.5v-3.86c0-.6-.5-.91-1.09-.91-.82 0-1.13.86-1.13 1.62Zm3.32-.18-.53.07c0-1.4.72-2.74 2.15-2.74 1.24 0 1.78.9 1.78 2.14V32h-1.5v-3.86c0-.6-.23-.91-.82-.91-.74 0-1.08.73-1.08 1.44Z" fill="#00A1D6"/></svg>