<!-- by TradingView --><svg width="56" height="56" viewBox="0 0 56 56" xmlns="http://www.w3.org/2000/svg"><path fill="#F0F3FA" d="M0 0h56v56H0z"/><path d="M20.56 17.77 22.55 15l1.99 2.77 1.59-.8-.9 4.55 2.39-3.06.2 2.07 2.18-.6L22.55 31 15 19.94l2.28.6.2-2.08 2.39 3.06-.9-4.54 1.6.79Z" fill="#D80021"/><path d="M32.06 21.8c.36-.5.96-.8 1.6-.8h10.39c1.08 0 1.95.96 1.95 2s-.88 2-1.95 2h-9.38L24.15 39.2a2 2 0 0 1-3.22-.03l-10.6-15.24c-.6-.86-.37-2.02.53-2.6a2 2 0 0 1 2.71.5L22.53 35l9.53-13.2Z" fill="#071C97"/><path d="M44 30.67c0-.92-1.04-1.67-2-1.67s-2 .75-2 1.67V36h-2.33c-1.94 0-5.67-.63-5.67-5.5a62.97 62.97 0 0 1-3 3.8c.92 1.9 3.8 5.7 7.96 5.7h5.42c.9 0 1.62-.7 1.62-1.56v-7.77Z" fill="#D80021"/></svg>