<!-- by TradingView --><svg xmlns="http://www.w3.org/2000/svg" width="56" height="56" viewBox="0 0 56 56"><path fill="#67B1BA" d="M0 0h56v56H0z"/><path d="M10.3 24.14c.11.04.2.08.25.15.04.06.07.15.07.26v2.69H7v-2.69c0-.11-.02-.2.02-.26.05-.07.2-.11.2-.15V24H5.3v.14c.11.04.2.09.25.15.04.06.07.15.07.26v6.84c0 .12-.03.2-.07.26-.05.07-.14.11-.25.15v.2h1.91v-.2c0-.03-.14-.08-.18-.14-.05-.06-.03-.15-.03-.27v-2.87h3.62v2.87c0 .12-.03.2-.08.27-.04.06-.13.1-.24.14v.2h2.02v-.2c-.1-.04-.2-.09-.24-.15a.45.45 0 0 1-.08-.26v-6.84c0-.11.03-.2.08-.26.04-.06.13-.11.24-.15V24H10.3v.14ZM15.42 28.82l1.03-2.86 1 2.86h-2.03Zm4.64 2.78c-.08-.1-.16-.27-.26-.53l-2.38-6.19a1.05 1.05 0 0 1-.09-.39c0-.16.07-.28.28-.34V24h-2.23v.15c.21.08.27.2.27.39 0 .11-.04.27-.11.47l-2.3 6.16c-.08.23-.1.38-.17.46-.06.08-.23.13-.23.16V32h2.01v-.2c-.21-.07-.33-.2-.33-.36 0-.1.02-.21.08-.37l.41-1.07h2.84l.43 1.07a1 1 0 0 1 .07.36c0 .2-.1.32-.32.36V32h2.33v-.2a.62.62 0 0 1-.3-.2ZM25.32 27.35c-.13.02-.35.03-.66.03h-2.28v-2.05h2.28c.32 0 .54-.01.66.01.13.02.24.06.35.14.23.16.35.44.35.86s-.12.7-.35.87a.88.88 0 0 1-.35.14Zm2.02 4.26a5.2 5.2 0 0 1-.46-.75l-1.2-2.22c1.13-.22 1.7-.99 1.7-2.3 0-.38-.06-.74-.17-1.08-.12-.34-.3-.62-.54-.82-.2-.18-.45-.28-.73-.35a4.97 4.97 0 0 0-1.13-.09h-4.02v.15c.1.04.14.09.19.15.04.06.02.16.02.28v6.8c0 .1.02.2-.02.26a.35.35 0 0 1-.2.15V32h2.02v-.2c-.21-.04-.25-.1-.29-.16-.04-.06-.13-.15-.13-.27v-2.65h1.84l1.27 2.36c.14.27.2.43.2.5 0 .11-.03.18-.24.21V32h2.23v-.2a.56.56 0 0 1-.34-.2ZM33.26 30.38c-.19.16-.5.18-.93.18H30v-2.05h2.33c.44 0 .75.06.93.21.22.18.33.44.33.83 0 .4-.11.66-.33.83ZM30 25.33h2.41c.36 0 .62.05.77.2.16.14.23.36.23.7 0 .33-.08.58-.24.74-.14.13-.4.2-.76.2H30v-1.84Zm3.93 2.45c.56-.34.84-.9.84-1.7 0-.7-.18-1.23-.55-1.6-.19-.2-.4-.3-.65-.38-.25-.08-.57-.1-.98-.1H28.3v.15c.22.04.2.09.25.15.04.06.07.16.07.28v6.79c0 .12-.03.2-.07.27-.05.06-.03.12-.25.15V32h4.33c.4 0 .74-.05 1.02-.15.27-.09.5-.24.72-.45.4-.42.6-1 .6-1.73 0-.92-.34-1.55-1.04-1.89ZM48.5 27.35c-.14.02-.36.03-.67.03h-2.02v-2.05h2.02c.32 0 .54-.01.66.01.13.02.24.06.35.14.24.16.35.44.35.86s-.11.7-.35.87a.88.88 0 0 1-.35.14Zm2.09 4.26c-.1-.11-.29-.36-.5-.75l-1.22-2.22c1.13-.22 1.69-.99 1.69-2.3 0-.38-.06-.74-.18-1.08-.11-.34-.3-.62-.54-.82-.2-.18-.45-.28-.73-.35a4.99 4.99 0 0 0-1.13-.09H44v.15c.22.04.26.09.3.15.04.06.13.16.13.28v6.8c0 .1-.09.2-.13.26-.04.06-.08.12-.3.15V32h2.02v-.2a.32.32 0 0 1-.19-.16c-.04-.06-.02-.15-.02-.27v-2.65h1.58l1.27 2.36c.14.27.23.43.23.5 0 .11-.12.18-.22.21V32H51v-.2c-.32-.02-.32-.08-.41-.2Z" fill="#fff"/><path fill-rule="evenodd" d="M39.65 29.8h.73v-.69h-.73v.7Zm0-.78h.73v-.8h-.73v.8Zm-.92 0h.72v-.8h-.72v.8Zm0 .79h.72v-.7h-.72v.7Zm-2.5-.32v.02c.17.54.42 1 .76 1.4.62.73 1.45 1.09 2.5 1.09 1.41 0 2.42-.63 3.04-1.88.12-.25.22-.52.3-.79l-3.33-3-3.28 3.16Z" fill="#fff"/><path d="m38.88 25.76.59-.6 3.52 3.19.01-.3c0-1.21-.33-2.2-.99-2.96A3.15 3.15 0 0 0 39.5 24a3.17 3.17 0 0 0-3.02 1.87 4.79 4.79 0 0 0-.44 2.64l2.85-2.74Z" fill="#fff"/></svg>