<!-- by TradingView --><svg width="56" height="56" viewBox="0 0 56 56" xmlns="http://www.w3.org/2000/svg"><path fill="#F0F3FA" d="M0 0h56v56H0z"/><path fill-rule="evenodd" d="m28.09 18 20.63 3.97A2.76 2.76 0 0 1 51 24.64v6.72c0 1.3-.95 2.42-2.28 2.67L28.1 38l-20.8-3.97A2.76 2.76 0 0 1 5 31.35v-6.7c0-1.3.96-2.43 2.28-2.68L28.1 18Zm.03 2.96 19.63 2.81c1.26.19 2.17.98 2.17 1.9v4.77c0 .93-.9 1.72-2.17 1.9l-19.63 2.82-19.8-2.82c-1.27-.18-2.18-.98-2.18-1.9v-4.76c0-.93.91-1.72 2.17-1.9l19.8-2.82Z"/><path d="M38.4 26H17.6l3.4-1.7v.58l3-1.36v.78l4-1.83 4 1.83v-.78l3 1.36v-.58l3.4 1.7ZM7.63 27.44h1v2.89h-1zM16 27.44h1v2.89h-1zM18 27.42h1v2.89h-1z"/><path d="M16.53 28.52h1.59v.68h-1.59zM28 27.42h-.88V28H28v2.3h1V28h.84v-.58H28ZM37 27.42h-.83V28H37v2.3h1V28h.81v-.58h-1.8ZM45 27.42h1v2.89h-1v-2.9ZM39.44 27.42H39v2.89h2.46v-.68H40v-.43h1.02v-.68H40V28h1.46v-.58h-2.02Z"/><path fill-rule="evenodd" d="M10.56 27.44H9v2.88h1.56a1.44 1.44 0 0 0 0-2.88Zm-.42.56H10v1.72h.14a.86.86 0 0 0 0-1.72Z"/><path d="m11.94 30.29 1.42-2.85h1.14l1.24 2.85h-1l-.23-.6h-1.27l-.26.6h-1.04Zm1.56-1.23h.76l-.37-.93-.39.93ZM32.74 30.3l1.42-2.86h1.14l1.24 2.86h-1l-.23-.6h-1.27l-.25.6h-1.05Zm1.56-1.23h.76l-.36-.94-.4.94Z"/><path fill-rule="evenodd" d="M20.94 30.37c1.13.01 1.76-.66 1.76-1.48s-.55-1.48-1.76-1.49c-1.2 0-1.75.67-1.75 1.49s.63 1.47 1.75 1.48Zm0-.62c.55 0 .85-.39.85-.86 0-.48-.27-.86-.85-.87-.58 0-.85.39-.85.87 0 .47.3.85.85.86Z"/><path d="m26.72 27.39.17.72c-.24-.1-1.1-.26-1.1 0-.02.21.17.34.26.38.32.17.95.62.96 1.06 0 .55-.6.8-1.1.8-.39 0-.8-.05-.94-.08l-.22-.8c.12.1.47.27.9.25.53-.03.51-.34-.16-.72-.54-.3-.68-.69-.68-.84.01-.68.6-.82 1.1-.82.41 0 .7.03.8.05ZM30 27.45v2.84h1V28h.46c.12 0 .36.14.34.4-.02.24-.24.34-.34.36h-.4l.62 1.53h1.06l-.65-1.21a.9.9 0 0 0 .65-.8c.01-.67-.7-.83-1.06-.83H30ZM43.33 27.45c.42-.02.8.06.94.1l.18.68c-.79-.32-1.95-.28-1.98.72-.03.79.8.8 1.21.7v-.45h-.35v-.56h1.23v1.54c-.42.12-.96.15-1.17.15-.64 0-1.9-.26-1.85-1.38.06-1.4 1.27-1.48 1.8-1.5ZM46.22 28.86c-.03-1.46 1.61-1.54 2.43-1.4l.18.7c-.27-.09-1.77-.44-1.7.77.05.97 1.16.84 1.7.65l-.18.69c-.2.06-2.4.4-2.43-1.41Z"/></svg>