<!-- by TradingView --><svg xmlns="http://www.w3.org/2000/svg" width="56" height="56" viewBox="0 0 56 56"><path fill="#F0F3FA" d="M0 0h56v56H0z"/><path d="M5.52 23h2.64l-.46 2.5H5.07l.45-2.5Zm1.12 9H4l1-6h2.63l-1 6Zm5.82-9H9.77l-.45 2.5h4.08l-.94-2.5Zm2.52 0h2.49l-.45 2.5h-2.5l.46-2.5Zm-.81 4.74h-.03l-.6-1.74h-4.3l-.99 6h2.5l.82-5h.03l1.79 5h2.56l1-6h-2.5l-.28 1.74Zm4.9-4.74h2.64l-.46 2.5h-2.63l.46-2.5Zm7.74 0h-2.63l-.46 2.5h2.64l.45-2.5Zm-5.62 3h5.1l-1 6h-2.63l.6-3.63h-2.47L20.2 32h-2.63l.99-6h2.64Zm9.86-3h-2.63l-.46 2.5h2.63l.46-2.5Zm-1.52 9h-2.64l1-6h2.63l-1 6Zm7.05-6h2.38c-.23.39-.58.7-1.03.93.92.36 1.28 1.2 1.1 2.29-.3 1.77-1.9 2.78-3.46 2.78h-4.84l.99-6h2.64l-.07.4h1.39c.4 0 .72-.08.9-.4Zm-.93 2H34l-.34 2h1.51c.57 0 1.16-.36 1.27-1.05.1-.6-.25-.95-.79-.95Zm.26-3h-1.4l-.09.5H31.8l.46-2.5h4.68c1.41 0 2.62.57 2.35 2.1-.03.15-.07.28-.12.4h-2.45c.03-.43-.42-.5-.8-.5Z" fill="#778E1D"/><path d="M49.1 27.65H52l-3.42 4.26 2.3 5.09h-3.19l-1.03-2.82L44.71 37h-3l3.86-5.1-1.52-3-1-1.9h1.3c.6 0 1.2-.2 1.32-.95.14-.8-.52-1.05-1.14-1.05H43.3l-.1.5h-2.63l.44-2.5h5.02c1.5 0 2.64.89 2.35 2.59-.15.91-.8 2.3-1.71 2.68l.76 1.86 1.24-1.84.43-.64ZM39.49 32l1-6h2.63l-.14.84-.33 1.97-.53 3.19H39.5Z" fill="#767561"/></svg>