<!-- by TradingView --><svg xmlns="http://www.w3.org/2000/svg" width="56" height="56" viewBox="0 0 56 56"><path fill="#F0F3FA" d="M0 0h56v56H0z"/><path d="M26.18 30.95L36.98 37l.43-4.61-3-3.2-4.45-.73-3.78 2.48z" fill="#FF4E00"/><path d="M28 10l8.99 27.01L46 28 28 10z" fill="#FF7D01"/><path d="M26.55 24.32l-.37 6.63L40.01 28l-13.46-3.68z" fill="#0218FF"/><path d="M10 28l9.63 9.63 1.76-2.41-.32-2.87-4.4-2.88L10 28z" fill="#E23303"/><path d="M27.02 10.98L10 28l11.07 4.35 5.95-21.37z" fill="#FF4E00"/><path d="M21.08 32.35l-1.45 5.28L28 46l7.88-7.88-14.8-5.77z" fill="#FF7D01"/></svg>