<!-- by TradingView --><svg width="56" height="56" viewBox="0 0 56 56" xmlns="http://www.w3.org/2000/svg"><path fill="#F0F3FA" d="M0 0h56v56H0z"/><path fill="#2D70B8" d="M20 25h2v11h-2zM26 28h-2v8h2v-3.57c.05-.74.58-2.43 1.64-2.43 1.26 0 1.32.85 1.35 1.3l.01.1V36h1.99v-4.12c.08-1.24-.28-3.88-2.52-3.88-1.08 0-2 .88-2.47 1.52V28ZM42 36h2v-8h-2v3.57c-.05.74-.58 2.43-1.64 2.43-1.26 0-1.32-.85-1.35-1.3l-.01-.1V28h-1.99v4.12c-.08 1.24.28 3.88 2.52 3.88 1.09 0 2-.88 2.47-1.52V36ZM36 26.09v-1.9c-.1-.06-.55-.19-1.44-.19-1.12 0-2.56.55-2.56 2.6V28h-1v2h1v6h2v-6h2v-2h-2v-1.17c.06-.46.65-1.25 2-.74Z"/><path d="M28.96 12c-1.75 0-3.37.4-3.96.6 6.7 0 11.26 7.83 11.48 8.15.22.32.96 1.25 2.04 1.25 1.85 0 2.48-1.74 2.48-2.35 0-.6-.44-1.5-.78-1.96C36.07 12.71 31.15 12 28.96 12Z" fill="#7A868C"/><path d="M12.32 23c-.4 1.7-.34 3.38-.27 4 1.52-6.52 10.74-9.17 11.12-9.31.39-.14 1.52-.65 1.76-1.7.42-1.8-1.26-2.81-1.89-2.95-.63-.14-1.66.1-2.22.31-6.15 2.9-8 7.53-8.5 9.66Z" fill="#2D70B8"/><path d="M19.33 41.87A12.1 12.1 0 0 0 23 43c-5.77-2.9-6.37-12.3-6.43-12.7-.06-.4-.3-1.6-1.23-2.06-1.59-.8-2.87.59-3.12 1.16a4.72 4.72 0 0 0-.16 2.2c1.46 6.52 5.4 9.32 7.27 10.27Z" fill="#7A868C"/></svg>