<!-- by TradingView --><svg xmlns="http://www.w3.org/2000/svg" width="56" height="56" viewBox="0 0 56 56"><path fill="#F0F3FA" d="M0 0h56v56H0z"/><path d="M12.96 22.06c-4.7-2.32-8.86-.11-8.86-.11 5.22-1.23 8.33.4 8.32.4.05 2.21-.83 3.57-.83 3.57-.97-.1-1.64-1.34-1.64-1.34.29.9.74 1.39 1.06 1.73.24.25.4.42.35.63-.02.1-.08.2-.17.23-.14.06-.29-.02-.4-.1a5.28 5.28 0 0 1-2.16-2.8c.1 1.38.84 2.35 1.33 2.97.25.33.44.57.42.72-.02.1-.07.18-.16.22-.2.08-.49-.14-.64-.26l-.02-.01c-.18-.14-.33-.32-.48-.49l-.1-.1c-.48-.57-1.5-1.91-1.53-3.11-.24 1.56.9 3.1 1.45 3.84l.17.23c.58.95.25 1.53-.42 1.06-1.7-1.96-2.29-4.08-2.2-5.48-.19.68-.34 2.6 1 5.1.09.15.16.3.23.44l.24.48.05.1c.08.12.16.26.2.4.03.1.08.43-.1.46-.05 0-.1-.02-.14-.05-.18-.13-.3-.29-.43-.47-.9-1.43-1.59-3-1.96-4.64a14.35 14.35 0 0 1-.25-2.1c-.04.54-.2 2.42.64 5.17a15.42 15.42 0 0 0 1.02 2.47l.11.2c.04.1.07.35-.13.25a.33.33 0 0 1-.13-.13 57.05 57.05 0 0 0-.45-.71 13.58 13.58 0 0 1-1.33-2.88 17.51 17.51 0 0 1-.9-4.52l-.02-.1c0-.1-.01-.2 0-.28-.71 4.97 2.57 12.23 4.81 10.76 4.8-4 4.05-11.75 4.05-11.75zM15 31h1v-5h-1v5zm5 0h1v-5h-1v3.1L18 26h-1v5h1v-3.1l2 3.1zm4-4h1v-1h-3v1h1v4h1v-4zm3 2.21h1l.84 1.79H30l-.9-2.08c.3-.14.52-.32.67-.54.14-.23.23-.49.23-.83 0-.47-.19-.84-.53-1.1a2.34 2.34 0 0 0-1.42-.45H26v5h1v-1.79zm1.05-.9H27V27h1.05c.23 0 .4.03.53.15.12.12.18.28.18.5 0 .2-.06.37-.18.48-.12.12-.3.18-.53.18zm6.95.94V26h-1v3.24c0 .48-.53.85-.96.85-.51 0-1.03-.26-1.04-.8V26h-1v3.28c0 .54.2.96.56 1.26.36.31.82.47 1.44.47.41 0 .8-.07 1.1-.21.31-.14.54-.34.7-.6.17-.27.2-.58.2-.94zm3.52-.01c.13.1.19.23.19.4a.4.4 0 0 1-.18.35.83.83 0 0 1-.48.13c-.32 0-.55-.06-.7-.19-.13-.12-.2-.31-.2-.57H35.9c0 .32.08.6.25.85.17.24.43.44.76.58.34.14.67.21 1.08.21.59 0 1.1-.12 1.44-.36.34-.25.5-.58.5-1 0-.54-.27-.96-.83-1.26a4.71 4.71 0 0 0-.87-.35c-.35-.1-.6-.21-.74-.31s-.21-.22-.21-.34c0-.14.06-.26.19-.36.13-.09.3-.13.52-.13.22 0 .4.05.52.16.13.1.2.26.2.46h1.22c0-.3-.08-.56-.24-.79-.16-.23-.39-.4-.68-.53-.3-.13-.65-.19-1.02-.19-.38 0-.69.06-.99.17-.3.12-.54.28-.7.48-.17.21-.25.45-.25.72 0 .54.33.96 1 1.27.2.1.46.2.78.3.33.1.55.2.68.3zM41 31h1v-5h-1v5zm5.8-1.14c.2-.37.29-.79.29-1.26v-.22c0-.47-.1-.89-.3-1.25a2.02 2.02 0 0 0-.78-.84c-.34-.2-.73-.29-1.17-.29-.43 0-.82.1-1.17.3-.34.2-.6.48-.79.84-.18.37-.27.79-.27 1.26v.28c0 .46.1.86.3 1.22.18.35.44.62.78.81.34.2.73.29 1.16.29 1.16 0 1.53-.46 1.96-1.14zm-1.22-2.56c.17.25.25.61.25 1.1v.22c0 .47-.09.84-.26 1.09a.82.82 0 0 1-.72.37.83.83 0 0 1-.74-.38 2.02 2.02 0 0 1-.25-1.1v-.36c.04-.88.37-1.32.99-1.32.31 0 .56.12.73.38zM51 31h1v-5h-1v3.1L49 26h-1v5h1v-3.1l2 3.1z" fill="#2A317D"/></svg>