<!-- by TradingView --><svg xmlns="http://www.w3.org/2000/svg" width="56" height="56" viewBox="0 0 56 56"><path fill="#FA452F" d="M0 0h56v56H0z"/><path d="M9.54 24H8v12h3V25.58a1.64 1.64 0 0 0-.43-1.12c-.13-.14-.29-.26-.47-.34a1.33 1.33 0 0 0-.56-.12Zm0-4H8v3h3v-.98c0-.2-.03-.85-.1-1.04a1.56 1.56 0 0 0-.8-.86 1.33 1.33 0 0 0-.56-.12ZM37 30.91v-6.9h-1.52C34.5 24 34 24.68 34 25.5V31c0 1-.87 2.07-2 2.07-1.12.01-2-1.07-2-2.04V24h-3v6.92c0 3.12 1.8 4.96 4.92 5.08 3.22.03 5.08-1.9 5.08-5.09ZM49 36h-1.5c-1 0-1.5-.66-1.5-1.5v-5.47c0-1.02-.87-2.04-1.99-2.03-1.11-.01-2.01 1-2.01 2.03V36h-3v-6.87c0-3.09 1.82-4.98 4.91-5.13 3.2-.02 5.08 1.95 5.08 5.11L49 36Zm-29.61-2.6c-1.53.1-3.24-.73-3.37-2.4h-3.01c.22 3.41 2.84 5 6.07 5 3.16 0 5.92-1.5 5.92-4.95.02-2.07-1.25-3.07-2.8-3.74-.73-.31-1.48-.52-2.23-.74l-.69-.17c-1.28-.3-3.1-.71-3.1-1.99-.06-1.39 1.34-1.85 2.48-1.85 1.26-.06 2.16.43 2.68 1.52.23.57.82.95 1.43.92h1.73c0-.67-.13-1.52-.4-2.14-.9-2.08-2.99-2.86-5.17-2.86-2.5 0-5.2 1.07-5.64 3.62-.58 3.37 1.6 4.8 4.47 5.45l.6.14c1.44.32 3.69.82 3.69 2.29.08 1.39-1.48 1.97-2.66 1.9Z" fill="#fff"/></svg>