<!-- by TradingView --><svg width="56" height="56" viewBox="0 0 56 56" xmlns="http://www.w3.org/2000/svg"><path fill="#F0F3FA" d="M0 0h56v56H0z"/><path d="M44 14H13v29h31V14Z" fill="#E27F33"/><path d="M26.99 23.74s6.9-.07 7.78.23c.89.3 1.95 3.6 2.35 4.35.4.75 2.29 3.87 2.46 4.78.17.9.15 1.77.15 1.77s-1.6-2.76-1.87-2.73c-.27.04.08 4.4-1.78 4.4 0 0 1.58-5.27-1-8.26-.61-.7-2.61-.03-3.77-.49-1.15-.45-2.98-2.84-2.98-2.84-.46-.07-.37.32-.99.02-.61-.3-.35-1.23-.35-1.23Z" fill="#231F20"/><path d="M30.13 23.73s.14 3.03 1.92 2.93c1.79-.1 2.14-2.76 2.14-2.76-.33-.06-1.08-.1-1.08-.1l-1.48-.04-1.5-.03Z" fill="#fff"/><path d="M18.91 23.5c.45-.1 2.14 1.88 2.73 1.78.6-.1.8-1.14 1.5-1.3.69-.18 1.43.12 1.48.86.05.74-1.06 1.2-1.29 1.77-.23.57-.1 1.8-1.04 2.57-.94.76-2.04 1.67-2.88.96-.84-.7-.55-2.74-.3-3.32.25-.58.4-.63-.54-.79-.94-.15-1-1.2-1-1.2s.9-1.23 1.34-1.33ZM22.54 18.53c1.04-.16 1.69.7 1.74 1.92.04 1.22-.45 1.84-1.5 1.84-1.04 0-1.96-1.18-1.93-1.9.02-.62.64-1.71 1.69-1.86ZM26.76 15.79c.6.6-.1 1.52-.75 2.23-.64.7-1.38 1.17-1.73.91-.35-.25-.35-1.37-.2-2.03.14-.66 2.08-1.72 2.68-1.11ZM29.39 14.97c.5.1-.15 2.6-.55 2.85s-1.1.08-1.24-.16c-.2-.36.23-1.6.5-1.88.26-.27.79-.9 1.29-.8ZM16.93 29.94c.65 0 .65 1.79.65 1.79.58.42 1 .93 1 1.5 0 2.5-2.26 1.87-2.66 1.91-.41.04-2.27.77-2.5-1.17-.16-1.38 1.66-1.4 2.03-1.68.37-.27.81-1.07.79-1.36-.03-.28.1-.99.69-.99ZM23.62 36.05c.5.14 4.7 1.35 4.97 1.6.34.33-1.42.57-1.62.42-.2-.15-.36-.68-.88-.67-.52.01-2.28.23-2.8.05s-.77-.62-.72-1.01c.04-.39.56-.53 1.05-.39ZM22.56 12.71c-.65.1-1.52 1.24-1.46 1.91.06.67.9.84 1.46.67.57-.17 1.5-1.15 1.4-1.81-.11-.67-.75-.87-1.4-.77ZM17.89 18.8c0 1.13-.8 3.35-1.9 3.49-1.1.12-1.72-1.1-1.66-1.9.07-.8 1.31-2.33 2.15-2.45.85-.12 1.4.29 1.4.85ZM13.94 27.69c.53.23 1.25 2.49 1.12 3.24-.12.76-.65 1.07-1.65 1.04-1-.04-1.4-1.48-1.41-2.03 0-.54 1.41-2.48 1.94-2.25ZM29.57 18.51c1.18.03 1.33 2.32 1.56 2.38.23.05 1.3.91 1.3.91-.14.62-1.89.3-2.27 0-.38-.29-2.16-1.08-2.17-1.64 0-.57.4-1.68 1.58-1.65ZM31.58 13.47s1.68-.33 1.95 0c.26.34-.39 1.92-1.09 2.13-.7.22-1 .82-1.53.47-.54-.35-.41-.9-.52-1.3-.11-.39 1.19-1.3 1.19-1.3ZM28.64 29.21c.52.09.59 1.35.44 1.72-.16.38-1.08.63-1.53.58-.45-.06-1.18-1.42-.9-1.57.27-.14 1.46-.81 1.99-.73ZM31.06 30.93c.25.28 1.13.54.95 1.03-.19.5-1.28.6-1.62.66-.34.08-1-.47-.82-.66.18-.19 1.23-1.3 1.49-1.03ZM33.17 32.27c.3.14.56 1.19 0 1.45-.55.27-1.6.45-1.59 0 0-.45 1.3-1.59 1.6-1.45ZM35.47 34.18c.23.1-.27 1.55-.68 1.82-.4.27-.97 1.14-1.26.85-.3-.28.36-1.34.55-1.54.2-.2 1.15-1.22 1.39-1.13ZM29.57 35.3c.25-.02.98-.16 1.22.22s-.08 1.05-.57 1.33c-.5.29-1.58-.38-1.58-.38s.67-1.14.93-1.16ZM26.65 34.18c.6-.53 1.9 0 1.9.3 0 .32.38 1.09 0 1.04-.36-.05-1.28.16-1.58-.21 0 0-.92-.6-.32-1.13ZM39.38 17.94c.4-.2 1.47.15 1.47.57v1.65s.5-.18.37.24c-.14.42-.44 2.44-.92 2.78-.48.34-.11-1.58-.35-1.83s-.63-.48-.9-.95c-.26-.47-.07-2.25.33-2.46ZM21.79 33c.68.03 1.7.75 1.5 1.18-.21.43-.94.38-1.5.67-.55.29-.7.81-1.27.67-.57-.15-.72-.75-.6-1.26s1.19-1.3 1.87-1.27ZM19.92 37.06c.59-.16 3.24.36 3.36 1 .12.66-.69 1.4-1.2 1.4-.5 0-1.72-.11-2.16 0-.44.09-.62.62-1.35.3-.73-.33-1.71-1.22-1.57-1.95.14-.73.21-.86.9-.96.69-.1 1.02.96 1.27.77.26-.2.17-.4.75-.56ZM24.28 39.76c.72-.04 1.32.95 1.2 1.6-.1.66-1.1 1.44-1.5 1.45-.38.02-.7-1.52-.7-1.52s.28-1.5 1-1.53ZM13.41 23.93c.48-.09.88.26 1.06.04.17-.22.64-.94 1.12-.8.48.15 1.26 1.32.9 1.67-.38.35-1.64 2.15-2.25 2.11-.61-.04-1.08-1.01-1.25-1.34-.17-.33-.05-1.58.42-1.68ZM38.3 14.3c.55-.01 1.05.57 1.08 1.3.02.74-.94 1.54-1.05 1.37-.11-.18-.92-.34-1.03-.8-.14-.51.47-1.86 1-1.87ZM31.23 23.73s-.22 1.6.54 1.66c.77.06.94-1.6.94-1.6l-.72-.04-.76-.02ZM33.02 16.99c.68-.08 1.05.09 1.07.72 0 .63-.5 1.57-.92 1.7-.42.15-1.71-.68-1.59-.9.13-.22.75-1.44 1.44-1.52ZM39.58 23.5c.48.06.85.7.5.9-.33.2-.42.37-.7.44-.29.07-.52-.46-.45-.67.07-.21.16-.74.65-.67ZM40.94 26.95c.44.17-.52 1.2-.85 1.2-.34 0-.25-.8-.25-.8s.66-.57 1.1-.4ZM41.24 23.93c.58.08-.35 1.58-.7 1.84-.35.27-.82-.3-.7-.49.12-.2.82-1.43 1.4-1.35ZM42.88 26.27c.35.13-.02 1.16-.27 1.4-.24.23-.3.75-.5.48-.2-.26-.17-.94 0-1.2.15-.26.41-.8.77-.68ZM41.69 29.2c-.17.24-.19.57-.45.62-.26.04-.4-.42-.3-.61.1-.2.22-.56.57-.56s.35.32.18.56ZM35.3 32.63c-.35.03-.75.29-.71.66.05.58.48.48.48.48s.44-.34.46-.64c.01-.3.13-.52-.23-.5Z" fill="#231F20"/><path d="M24.96 21.76c-.18.24-.43 1.23-.34 1.46.1.23.83 1.7.86 2.06.03.35-.13.96-.26 1.33-.13.37-.6.87-.6 1.72 0 .86.32 1.68.87 1.61.56-.07.96-1.05.98-1.31.02-.26-.36-1.42-.36-1.68s.54-.6.55-1.18c0-.58-.25-.66-.25-.93 0-.28-.23-.76-.19-1.03.05-.28.06-1.76-.5-2.06-.55-.3-.59-.22-.76.01ZM43.3 18.51c.48.23.8.9.66 1.36-.13.47-.27.8-.33 1.17-.07.36.52.75.33 1.26-.2.5-.2.25-.33.86s.23.66-.33 1.48c-.08.13-.1.25-.58.2-.48-.05-.38-1.35-.38-1.35s.85-.89.81-1.2l-.25-2.18s-.08-1.84.4-1.6ZM35.87 16.8c.62.19 1.69 2.24 1.59 2.84-.1.61 0 2.32-.4 2.51-.4.19-.46.44-.79.38-.33-.07-.7.03-1.16-.23-.47-.27-.69-2.26-.63-2.63l.42-2.37s.36-.67.97-.5ZM36.71 13.32c-.13.32-.1 1.42-.73 1.64-.63.23-1.36-.42-1.49-.94-.13-.52-.46-1.44 0-1.85.46-.4 2 0 2.23.27.21.27.13.57 0 .88ZM35.97 38.35c-.2.36-1.02 1.05-1.38.94-.37-.12-.06-.71 0-.94.05-.22 1.14-.92 1.38-.79s.21.43 0 .8ZM33.58 37.56c.52-.07.77.67.5.8-.26.12-.82.85-1.25.6-.43-.25-.4-.89-.4-.89s.64-.44 1.15-.5ZM37.28 38.96c.28.24-.14.52-.43.54-.29.03-.85-.34-.64-.54.2-.2.79-.23 1.07 0ZM40.22 38.96c.38 0 .88 1.1.83 1.25-.04.14.2.45-.14.48-.34.04-1-.68-1.09-.93-.1-.26.02-.8.4-.8ZM34.97 41.9c.72.12 1.47.67 1.23.91-.23.25-.63 1.15-1.13 1.19-.5.04-1.53-.88-1.37-1.19.15-.3.55-1.04 1.27-.91ZM28 38.53c.64-.07 1.53.7 1.53.7s.53-.88 1.25-.88 1.49.84 1.14 1.15c-.35.32-.65.44-1.14.65-.48.21-.67.63-1.25.54-.57-.1-.14-.78-.45-.83-.32-.06-.59.46-1.09.4-.5-.07-1-.3-1-.76-.02-.46.35-.9 1-.97Z" fill="#231F20"/><path d="M32.16 40.47c-.43.27-.85.86-1.3.81-.43-.05-.39.02-.47-.4-.1-.42 1.13-1.45 1.53-1.38.39.08 1.4.22 1.25.6-.15.37-.59.1-1.01.37ZM41.64 30.93c.25.35-.3 1.34-.59 1.33-.28-.02-.4-.49-.43-.75-.02-.26.77-.92 1.02-.58ZM38.2 36.1c.2.18.42 2.1.13 2.19-.3.08-.5-.57-.55-.74-.05-.18-.49-.36-.5-.7-.02-.35.71-.95.92-.76Z" fill="#231F20"/></svg>