<!-- by TradingView --><svg xmlns="http://www.w3.org/2000/svg" width="56" height="56" viewBox="0 0 56 56"><path fill="#83BD25" d="M0 0h56v56H0z"/><path d="M9 29.83c0 1.03-.4 1.62-1.16 1.62-.63 0-1.04-.28-1.5-1.01l-.2-.33L5 31.13l.15.25A2.95 2.95 0 0 0 7.82 33c1.7 0 2.75-1.22 2.75-3.18V24H9M16.86 24a4.46 4.46 0 0 0-4.5 4.51A4.4 4.4 0 0 0 16.83 33a4.46 4.46 0 0 0 4.51-4.51A4.4 4.4 0 0 0 16.86 24Zm2.84 4.51c0 1.7-1.22 2.96-2.84 2.96-1.63 0-2.86-1.28-2.86-2.98s1.22-2.96 2.84-2.96c1.63 0 2.86 1.27 2.86 2.98ZM40 24v5.97L35.8 24h-1.27v9H36v-6.13L40.32 33h1.15v-9M49.54 24v5.97L45.27 24H44v9h1.47v-6.13L49.85 33H51v-9M32 31.2v-1.52l-.2-.09a9.4 9.4 0 0 0-1.56-.53L28.08 24h-1.25l-2.37 5.56c-.26-.07-.78-.36-1.02-.47l-.44-.2v1.52l.18.09c.17.07.55.33.72.4L23 33h1.63l.8-1.89c.68-.02 1.34-.19 1.98-.34.6-.15 1.18-.3 1.77-.33L30.25 33h1.67l-.98-2.29c.36.11.71.34 1.06.5Zm-5.94-1.61 1.38-3.3 1.14 2.75c-.45.07-.9.18-1.33.29-.4.1-.8.2-1.2.26Z" fill="#fff"/></svg>