<!-- by TradingView --><svg xmlns="http://www.w3.org/2000/svg" width="56" height="56" viewBox="0 0 56 56"><path fill="#F0F3FA" d="M0 0h56v56H0z"/><path d="M38.85 17.94c.65 5.07-.64 18.42-7.58 25.32-9.3 9.26 8.02-6.58-.15-22.92a7.87 7.87 0 0 0 7.73-2.4z" fill="url(#abrjrx2sl)"/><path d="M26.7 46c-7.17-1.93-10.2-9.97-8.9-17 .53.35 3.5 16.87 12.94 9.88-.9 2.66-2.22 5.42-4.05 7.12z" fill="url(#bbrjrx2sl)"/><path d="M17.94 28.46a.48.48 0 0 0 .44-.3.49.49 0 0 0-.35-.66.48.48 0 0 0-.5.2.49.49 0 0 0 .07.62c.09.1.21.14.34.14zM18 26a1 1 0 1 0 0-2 1 1 0 0 0 0 2zM19 23a1.63 1.63 0 0 0 1.51-1.02 1.67 1.67 0 0 0-.35-1.8 1.63 1.63 0 0 0-2.8 1.17 1.67 1.67 0 0 0 1.01 1.52c.2.09.42.13.63.13zM21.5 19a2.5 2.5 0 1 0 0-5 2.5 2.5 0 0 0 0 5zM26.98 16c1.66 0 3-1.34 3.01-3 0-1.66-1.33-3-2.99-3-1.66 0-3 1.34-3.01 3 0 1.66 1.33 3 2.99 3zM34 19.54a3.64 3.64 0 0 0 .02-7.28 3.64 3.64 0 0 0-.03 7.28z" fill="#BC191E"/><defs><linearGradient id="abrjrx2sl" x1="35.39" y1="18.51" x2="29.17" y2="45.32" gradientUnits="userSpaceOnUse"><stop stop-color="#E58D05"/><stop offset="1" stop-color="#A24711"/></linearGradient><linearGradient id="bbrjrx2sl" x1="17.5" y1="30.61" x2="28.6" y2="43.74" gradientUnits="userSpaceOnUse"><stop stop-color="#A24711"/><stop offset="1" stop-color="#E58D05"/></linearGradient></defs></svg>