<!-- by TradingView --><svg width="56" height="56" viewBox="0 0 56 56" xmlns="http://www.w3.org/2000/svg"><path fill="#2C7BFE" d="M0 0h56v56H0z"/><path d="M12.53 31c-.43.02-.82-.17-.97-.51-.08-.18-.1-.35-.1-.56v-4.96c0-.55.39-1.02 1.1-.96.4.03.71.24.83.56.05.14.07.3.07.47a11282.46 11282.46 0 0 1-.01 5.16c-.05.44-.4.77-.92.8ZM23 27.42v2.63c0 .43-.3.87-.89.94-.45.06-.97-.18-1.07-.61a1.5 1.5 0 0 1-.04-.37v-4.89c0-.17.02-.32.06-.46.1-.38.5-.64.9-.66.48-.02.73.23.97.58.8 1.17 1.27 1.8 2.07 2.96v-2.58c0-.26.05-.52.23-.72.26-.28 1.09-.32 1.41-.1.28.18.35.49.35.8v5.1c0 .08 0 .16-.02.25-.1.5-.46.73-1 .7-.6-.02-.9-.5-1.21-.96L23 27.42ZM28.96 31c-.63-.03-.96-.46-.96-.93v-5.1c0-.57.32-.99.96-.96H31.22c.65 0 1.25.23 1.69.68 1.25 1.31.4 3.4-1.44 3.57l-.34.01H30v1.76c0 .55-.4 1-1.04.97Zm2.51-4.34c.4-.46.16-1.18-.47-1.32a1.94 1.94 0 0 0-.34-.02H30V27h.8c.27 0 .5-.15.67-.34ZM40 28.33a2.98 2.98 0 0 1-3.54 2.62 2.93 2.93 0 0 1-2.46-2.9 4585.85 4585.85 0 0 1 .03-3.42c.07-.3.46-.55.79-.61.45-.08 1.08.19 1.18.62v3.49c0 1.33 2 1.43 2 0V24.8c0-.42.38-.76.92-.8.41-.04.96.22 1.06.62l.02.3a4518.5 4518.5 0 0 1 0 3.4ZM50.71 24.03c.45-.1.95.05 1.16.41.12.2.13.4.13.64v4.96c0 .45-.24.85-.8.95-.45.07-.87-.1-1.07-.44a.88.88 0 0 1-.13-.45v-5.14c0-.41.2-.8.71-.93ZM14.14 30.8c-.43-.37-.3-.78-.12-1.23l1.99-4.69c.23-.56.6-.92 1.3-.87.6.03.9.4 1.11.9l2.01 4.65c.1.22.2.5.18.71-.03.4-.42.71-.83.73-.43.02-.68-.19-.85-.53-.18-.36-.32-.73-.47-1.1H15.97l-.01.01-.35.85c-.15.36-.3.72-.77.76a.91.91 0 0 1-.7-.2ZM16.5 28h1.43l-.72-1.84h-.01l-.7 1.84ZM46.45 24.04c.44.1.7.41.86.78l.29.65 1.8 4.11c.14.33.28.7.04 1.03a.91.91 0 0 1-.9.38c-.34-.04-.56-.27-.69-.54a17.3 17.3 0 0 1-.48-1.08h-2.52l-.36.9c-.17.4-.35.72-.86.73a.9.9 0 0 1-.8-.4c-.2-.3-.1-.6.02-.9l2.04-4.8c.16-.37.38-.7.8-.84.23-.07.53-.08.76-.02ZM45.4 28h1.45l-.73-1.85-.72 1.85Z" fill="#fff"/><path d="M5 26a1 1 0 1 0 0-2 1 1 0 0 0 0 2Z" fill="#EBBF08"/><path d="M9 25.83c-.34 0-.58.02-.88-.19-.67-.45-.44-1.44.35-1.62l.32-.02h1.26c.44 0 .83.3.93.7l.02.26v2.66l-.01.33a3.33 3.33 0 0 1-1.77 2.62c-1.49.8-3.4.45-4.46-.83A3.23 3.23 0 0 1 4 27.5c.01-.24.1-.45.28-.63.53-.53 1.52-.28 1.7.44l.02.25a1.5 1.5 0 0 0 1.58 1.58A1.49 1.49 0 0 0 9 27.87v-2.04s0-.01 0 0ZM41.34 31c-.43.01-.85-.23-.99-.65-.22-.7.28-1.42 1.05-1.34a1 1 0 0 1 .84 1.37.97.97 0 0 1-.9.62Z" fill="#fff"/></svg>