<!-- by TradingView --><svg xmlns="http://www.w3.org/2000/svg" width="56" height="56" viewBox="0 0 56 56"><path fill="#F0F3FA" d="M0 0h56v56H0z"/><path d="M10.07 24.7c3.48-2.76 10.13-7.41 13.03-9.4.28-.07.22.22.15.38-1.45 3.52 3.37 7.8 3.83 8.27.37.38.5.87.5 1.07.02.63-.45 1.88-2.48 1.85-2.54-.03-4.4-2.83-4.54-3.05a.4.4 0 0 0-.35-.2c-.3 0-.92.6-1.02 3.06-.1 2.45 1.62 4.62 2.5 5.4l6.5 5.36c1.14.97 3.1 3.28 1.97 4.7-1.14 1.44-3.2.75-4.1.23L9.55 31.12c-1.28-1-2.96-3.67.52-6.43z" fill="url(#abe4oaj42)"/><path d="M45.93 31.3a305.86 305.86 0 0 1-13.03 9.4c-.28.07-.22-.22-.15-.38 1.45-3.52-3.37-7.8-3.83-8.27-.37-.38-.5-.87-.5-1.07-.02-.63.45-1.88 2.48-1.85 2.54.03 4.4 2.83 4.54 3.05.1.18.28.21.35.2.3 0 .92-.6 1.02-3.06.1-2.45-1.62-4.62-2.5-5.4l-6.5-5.36c-1.14-.97-3.1-3.28-1.97-4.7 1.14-1.44 3.2-.75 4.1-.23l16.51 11.25c1.28 1 2.96 3.67-.52 6.43z" fill="url(#bbe4oaj42)"/><defs><linearGradient id="abe4oaj42" x1="28.71" y1="27.76" x2="8" y2="27.93" gradientUnits="userSpaceOnUse"><stop stop-color="#0073BF"/><stop offset="1" stop-color="#224D96"/></linearGradient><linearGradient id="bbe4oaj42" x1="26.21" y1="27.85" x2="48" y2="27.76" gradientUnits="userSpaceOnUse"><stop stop-color="#F29600"/><stop offset="1" stop-color="#D82F2B"/></linearGradient></defs></svg>