<!-- by TradingView --><svg width="56" height="56" viewBox="0 0 56 56" xmlns="http://www.w3.org/2000/svg"><path fill="url(#aywjnxf2a)" d="M0 0h56v56H0z"/><path d="M11 21h3v9.32A5.27 5.27 0 0 1 8.42 35 6.97 6.97 0 0 1 5 34.04l1.54-2.4c.23.2.92.6 1.88.6 1.2 0 2.58-.88 2.58-2.67V21Zm9.5 0-6.63 14h3l.93-2h5.37l.91 2h3.05L20.5 21Zm1.3 9h-2.61l1.31-2.82L21.8 30Zm7.02 5L24 21h3.23l2.17 6.85L32.47 21l3.08 6.85L37.8 21H41l-4.8 14-3.73-7.53L28.82 35ZM40 32.42l2.22-1.58a3.15 3.15 0 0 0 2.77 1.44c2 0 3.55-1.52 0-3.2-3.55-1.7-4.3-2.38-4.3-4.33 0-1.94 1.9-3.75 4.67-3.75a4.41 4.41 0 0 1 4.13 2.32l-2.08 1.43a2.44 2.44 0 0 0-1.96-1.12c-1.3 0-1.87.78-1.87 1.35 0 .53 1.1 1 2 1.39l.24.1.12.05c1.05.45 4.06 1.74 4.06 4.6C50 34.1 47.22 35 44.99 35s-3.92-.81-4.99-2.58Z" fill="#fff"/><defs><linearGradient id="aywjnxf2a" x1="10.42" y1="9.71" x2="68.15" y2="76.02" gradientUnits="userSpaceOnUse"><stop stop-color="#1A1E21"/><stop offset="1" stop-color="#06060A"/></linearGradient></defs></svg>