<!-- by TradingView --><svg width="56" height="56" viewBox="0 0 56 56" xmlns="http://www.w3.org/2000/svg"><path fill="#F0F3FA" d="M0 0h56v56H0z"/><path d="M14.77 22.53c0 .59-.51 1.23-.77 1.47.77-.18 1.08-.73 1.23-1.47.13-.59-.56-1.22-.92-1.47h2c.62 0 2.47-2.02 7.87-1.84.37.02.88.13 1.08.19h-1.08c-3.08 0-6.17 1.1-6.17 1.65 0 .55 4.63.55 5.25.55.61 0 6.94-.18 10.02 0 2.47.15 5.56 1.53 6.79 2.2H43c-2.78-2.2-7.71-2.56-9.72-2.75-2-.18-8.48.19-10.02.19-1.55 0-3.24-.37-3.24-.92 0-.19 1.54-.74 4.16-.74 2.1 0 4.47.5 5.4.74-.15-.3-1.45-1-5.4-1.29-4.94-.37-7.87 1.84-8.33 1.84H14c.26.3.77 1.06.77 1.65Z" fill="#1979C3"/><path d="m8.3 32-2.8-2.28V32H5v-5h.5v2.32L8.3 27h.68L6 29.5 9 32h-.7ZM10.5 27.5v1.75H13v.5h-2.5v1.75H13v.5h-3v-5h3v.5h-2.5ZM18 32h-.5l-3-4.25V32H14v-5h.5l3 4.25V27h.5v5ZM21.04 32c-.83 0-2.02-.49-2.04-1.5h.5c.07.6.97 1 1.5 1 .5 0 1.5-.27 1.5-.88 0-.68-1.18-.78-1.68-.9-.78-.16-1.82-.38-1.82-1.37 0-1 1.17-1.35 2-1.35.8 0 1.89.32 2 1.26h-.5c-.08-.53-1.05-.76-1.5-.76-.49 0-1.5.28-1.5.85 0 .67 1.22.76 1.7.87.77.18 1.8.42 1.8 1.4 0 .99-1.14 1.38-1.96 1.38ZM24.5 27v5H24v-5h.5ZM30 32h-.66l-2.84-4.25V32H26v-5h.5l3 4.25V27h.5v5ZM40 27v.5h-1.25V32h-.5v-4.5H37V27h3ZM51 32h-.5l-3-4.25V32H47v-5h.5l3 4.25V27h.5v5ZM33.5 27.5a2 2 0 0 1 1.41.59l.36-.36A2.5 2.5 0 0 0 31 29.5a2.5 2.5 0 0 0 5 .25v-.5h-2.5v.5h1.98a2 2 0 1 1-1.98-2.25Z" fill="#197AC1"/><path fill-rule="evenodd" d="M43.5 31.5a2 2 0 1 0 0-4 2 2 0 0 0 0 4Zm0 .5a2.5 2.5 0 1 0 0-5 2.5 2.5 0 0 0 0 5Z" fill="#197AC1"/></svg>