<!-- by TradingView --><svg width="56" height="56" viewBox="0 0 56 56" xmlns="http://www.w3.org/2000/svg"><path fill="#F0F3FA" d="M0 0h56v56H0z"/><path d="M42.22 41.97c-.03-1.07-.11-2.13-.25-3.2a8.24 8.24 0 0 0-5.5-6.49c-1.53-.58-3.13-1-4.73-1.43-1.07-.28-2.14-.56-3.2-.9l-1.87-.56a38.5 38.5 0 0 1-6.16-2.18C14.68 24.34 11.78 19.35 11 13c.38.45.74.9 1.1 1.35.8 1 1.6 2 2.5 2.88 3.79 3.72 8.57 5.57 13.64 6.82 2.33.54 4.61 1.24 6.84 2.1a13.3 13.3 0 0 1 6.19 5.02c2.83 4.47 1.42 9.65 1.06 10.83l-.11-.03Zm-1.62-1.98c-2.7-3.26-6.26-3.6-9.8-3.95l-.98-.1c-2.51-.25-4.99-.62-7.25-1.85-1.65-.9-2.44-1.89-2.74-3.5 1.76.81 3.63 1.38 5.54 1.7 1.47.24 2.53.3 3.52.34 1.33.07 2.53.13 4.44.63 2.08.54 3.93 1.06 5.42 2.71a8.06 8.06 0 0 1 1.85 4.02Zm-9.2-.22c3.02-.1 5.98.01 8.72 1.52-2.25-2.35-4.28-3.1-5.75-3.35-.8-.13-1.4-.11-2.25-.08a35.04 35.04 0 0 1-7.5-.5c1.87 1.98 4.25 2.5 6.77 2.4Z"/></svg>