<!-- by TradingView --><svg width="56" height="56" viewBox="0 0 56 56" xmlns="http://www.w3.org/2000/svg"><path fill="#F0F3FA" d="M0 0h56v56H0z"/><path d="M8 22h3v5.63L15.1 22H18l-4.5 6.3 5 5.7h-3.42L11 29.18V34H8V22ZM42 22h-1v12h7v-2h-4v-3h4v-2h-4v-3h4v-2h-6ZM31 22h5a4 4 0 0 1 .92 7.9L40 34h-3l-2.67-4H34v4h-3V22Zm4 6a2 2 0 1 0 0-4h-1v4h1Z" fill="#74838A"/><path fill-rule="evenodd" d="M23.98 34a5.99 5.99 0 1 0-.02-11.98A5.99 5.99 0 0 0 23.98 34Zm.02-3a3 3 0 1 0 0-6 3 3 0 0 0 0 6Z" fill="#F58220"/><path d="M27.5 32.85a5.99 5.99 0 0 1-7.2-9.58c-.32.58-.6 1.24-.6 1.72 0 1.04.39 2.86 1.8 4.8 1.43 1.95 3.79 3.24 5.15 3.24.27 0 .56-.07.85-.18Z" fill="#EE2939"/></svg>