<!-- by TradingView --><svg width="56" height="56" viewBox="0 0 56 56" xmlns="http://www.w3.org/2000/svg"><path d="M0 28a28 28 0 1 1 56 0 28 28 0 1 1-56 0Z" fill="#F0F3FA"/><path d="M26.83 38.29c.04.54.08 1.08.08 1.3.08 2.34-.1 2.62-.83 3.54-.87 1.1-4.1 1.59-8.4-1.23-4.25-2.77-8.28-9.26-6.04-18.17 1.65-6.5 6.34-10.5 11.1-11.6 2.38-.55 3.98.81 2.6 1.18-7.43 1.95-10 9.04-9.6 14.35.54 7.18 4.36 9.02 5.31 9.47l.1.05c1.21.6 2.66.04 2.84-.9.16-.9.1-1.9.05-2.71-.02-.34-.04-.64-.04-.9 0-.85 0-3.6 1.48-3.62C26.68 29.03 27 31 27 32.59c0 .74-.07 1.28-.13 1.82-.09.71-.18 1.43-.13 2.64l.09 1.24Zm2.34.02c-.04.53-.08 1.06-.08 1.27-.08 2.35.1 2.63.83 3.55.87 1.1 4.1 1.59 8.4-1.23 4.25-2.77 8.28-9.26 6.04-18.17-1.65-6.5-6.34-10.5-11.1-11.6-2.38-.55-3.98.81-2.6 1.18 7.43 1.95 10 9.04 9.6 14.35-.54 7.18-4.36 9.02-5.31 9.47l-.1.05c-1.21.6-2.67.04-2.84-.9-.16-.9-.1-1.9-.05-2.71.02-.34.04-.64.04-.9 0-.85 0-3.6-1.48-3.62C29.32 29.03 29 31 29 32.59c0 .74.07 1.28.13 1.82.09.7.18 1.43.13 2.64l-.09 1.26Z" fill="#02B5CC"/></svg>