<!-- by TradingView --><svg width="56" height="56" viewBox="0 0 56 56" xmlns="http://www.w3.org/2000/svg"><path fill="#F0F3FA" d="M0 0h56v56H0z"/><path d="M7.14 30H8l-1.66-2.45L7.72 26h-.78L5.7 27.45h-.02V24H5v6h.7v-2.22l.72 1.1v.01L7.15 30Zm3.17 0H11V27.18c0-.8-.46-1.33-1.23-1.13-.25.07-.48.22-.65.42l-.05.06-.07.07V24h-.68v6H9V27.82c0-.53.18-1.34.87-1.25.5-.04.47.45.45.86l-.01.22V30Zm11.62-3h-.75c-.03-.18 0-.26.09-.42.08-.16.22-.3.38-.38.2-.1.43-.17.66-.18.3-.04.62-.02.92.04.21.04.4.15.54.3s.2.35.22.55l.01.26v1.7c0 .38 0 .69.09 1.13h-.7l-.05-.5-.07.06-.15.13a1.36 1.36 0 0 1-1.15.28 1.15 1.15 0 0 1-.59-.33 1.03 1.03 0 0 1-.27-.6 1.6 1.6 0 0 1 .03-.62c.05-.2.15-.37.3-.51.14-.15.32-.25.52-.3.29-.1.58-.14.88-.14h.47v-.38l-.05-.26a.42.42 0 0 0-.14-.23.46.46 0 0 0-.26-.1 1.25 1.25 0 0 0-.5.02.55.55 0 0 0-.31.18c-.1.12-.12.15-.12.3Zm1.4 1H22.91c-.23 0-.46 0-.68.07-.1.04-.2.1-.28.18a.6.6 0 0 0-.14.3 1.1 1.1 0 0 0-.02.24c0 .1.02.2.06.28.05.08.1.16.19.21a.68.68 0 0 0 .56.12.8.8 0 0 0 .36-.16c.1-.08.18-.2.23-.31.08-.2.12-.42.12-.63V28Zm-8.46 1.07a3.4 3.4 0 0 0 .13-1.18 3.27 3.27 0 0 0-.15-1.04 1.1 1.1 0 0 0-.31-.5 1.18 1.18 0 0 0-.53-.29 2.08 2.08 0 0 0-.95-.01c-.18.03-.35.1-.49.22-.14.1-.25.24-.33.4-.06.13-.1.27-.14.4a4.24 4.24 0 0 0 .07 2.1c.06.19.17.36.32.5.16.14.34.23.55.28.25.05.5.06.76.03.26-.02.5-.12.7-.29.19-.16.32-.38.37-.62Zm-.57-1.16v.1a3.05 3.05 0 0 1-.13 1 .65.65 0 0 1-.3.35.7.7 0 0 1-.46.08.66.66 0 0 1-.35-.13.61.61 0 0 1-.22-.3 1.9 1.9 0 0 1-.12-.57c-.03-.35-.02-.7.03-1.06.02-.14.05-.27.1-.4a.62.62 0 0 1 .26-.32.67.67 0 0 1 .41-.1c.15 0 .3.03.41.12.12.08.2.2.25.33.07.22.11.45.12.68v.22Zm1.7.84h.77v.06l.02.13c.09.42.4.55.8.5.1 0 .2-.03.28-.07a.48.48 0 0 0 .17-.14.42.42 0 0 0 .06-.41.45.45 0 0 0-.12-.19c-.12-.1-.25-.19-.4-.26a10.72 10.72 0 0 0-.76-.37c-.15-.07-.3-.16-.43-.25a.8.8 0 0 1-.27-.34.74.74 0 0 1-.05-.41.94.94 0 0 1 .2-.53c.13-.15.3-.26.48-.33a1.95 1.95 0 0 1 1.43-.01c.2.06.37.2.49.36.12.17.17.29.16.49h-.76a.5.5 0 0 0-.15-.31.57.57 0 0 0-.33-.16.78.78 0 0 0-.6.1.43.43 0 0 0-.15.15.4.4 0 0 0 0 .38c.03.06.08.11.13.15.08.06.17.1.26.15l.34.15c.18.1.37.18.56.27.15.08.3.18.44.28.1.08.18.17.23.28.06.1.09.22.09.34.05.72-.48 1.1-1.05 1.2-.32.06-.66.05-.98-.03a1.11 1.11 0 0 1-.56-.32.98.98 0 0 1-.26-.55 2.2 2.2 0 0 1-.03-.2l-.01-.11ZM19.3 30h.7v-6h-.7v6Zm13.12-1.85h-2.27v.5c.02.12.04.24.09.36.04.12.12.23.23.3.12.09.26.13.4.13.46.02.75-.2.84-.65l.01-.05v-.03h.71c0 .29-.1.57-.28.8-.2.24-.5.4-.82.46-.29.05-.58.04-.87-.02a1.21 1.21 0 0 1-.56-.28 1.09 1.09 0 0 1-.33-.52c-.1-.29-.15-.58-.15-.89-.04-.43 0-.88.11-1.3.19-.61.59-.92 1.27-.96.2 0 .4 0 .6.04.25.03.47.13.64.3.17.15.28.35.32.57l.06.42a13.18 13.18 0 0 1 0 .82Zm-2.28-.5h1.6a23.25 23.25 0 0 1-.01-.4c0-.07 0-.13-.02-.2a.62.62 0 0 0-.2-.41.71.71 0 0 0-.44-.19.76.76 0 0 0-.5.09.67.67 0 0 0-.3.37 2 2 0 0 0-.13.74Zm15.7 1.38c-.1-.29-.14-.73-.11-1.03h2.26v-.68c-.01-.13-.03-.27-.07-.4a1.03 1.03 0 0 0-.32-.59 1.14 1.14 0 0 0-.62-.3c-.2-.03-.4-.04-.6-.03-.67.04-1.07.35-1.25.96a3.9 3.9 0 0 0-.12 1.3c.01.3.06.6.15.9.06.2.17.37.33.51.15.14.35.24.56.28.23.05.47.06.7.04.3-.02.56-.12.78-.3.21-.17.36-.4.42-.67l.03-.2.02-.1h-.7v.02l-.02.05c-.09.45-.37.67-.84.65a.67.67 0 0 1-.37-.11.61.61 0 0 1-.24-.3Zm1.44-1.94.04.42h-1.59c.01-.33.03-.52.24-.8.09-.12.2-.2.35-.24a.75.75 0 0 1 .43 0c.13.02.25.08.34.17.1.09.15.2.17.32l.02.13ZM36 30h-.7v-.77l-.02-1.93c0-.15-.04-.3-.08-.45a.4.4 0 0 0-.13-.2.45.45 0 0 0-.21-.1c-.43-.1-.86 0-1 .5a2.2 2.2 0 0 0-.08.55V30H33V26h.74l.04.55.03-.03.04-.05c.16-.2.39-.34.64-.42.26-.07.53-.07.79 0 .22.06.42.19.55.36.14.18.18.39.17.6V30Zm6-4h-.7v2.24c-.01.2-.03.39-.06.58v.03c-.08.38-.11.58-.47.61-.48.04-.69-.14-.74-.5a3.57 3.57 0 0 1-.03-.51V26h-.73V29.1c.02.19.08.37.2.52.12.15.28.26.47.32.25.08.52.1.77.03.2-.06.34-.22.47-.38l.1-.13.04.55H42v-4Zm8.92 1h-.76v-.02l-.01-.04c0-.14-.07-.2-.18-.29a.64.64 0 0 0-.43-.16.78.78 0 0 0-.55.15.42.42 0 0 0-.13.14.38.38 0 0 0 0 .36c.04.05.08.1.14.14.08.06.17.1.26.15l.36.16.46.2.45.25c.68.4.54 1.26.1 1.6-.2.17-.46.29-.74.33-.32.05-.64.04-.95-.03a1.2 1.2 0 0 1-.63-.33.99.99 0 0 1-.29-.6 4 4 0 0 1-.01-.17l-.01-.09h.8v.05c0 .04 0 .08.02.11 0 .1.03.18.08.26a.71.71 0 0 0 .76.28.97.97 0 0 0 .34-.12c.05-.03.1-.08.14-.13a.4.4 0 0 0 .06-.35.42.42 0 0 0-.1-.16c-.1-.11-.24-.2-.38-.28l-.53-.25a18.44 18.44 0 0 1-.7-.35.97.97 0 0 1-.28-.27.83.83 0 0 1-.11-.73c.03-.13.1-.24.19-.34.2-.22.47-.37.78-.42.38-.08.77-.06 1.14.05.22.07.42.2.55.38.13.18.19.3.16.52Zm-24.6-1h-.82l1.29 4h.88l1.29-4h-.74l-1 3.48c-.1-.6-.23-1.18-.41-1.76L26.32 26Zm11.4-1.55V26h.8v.53h-.8v.1a3977.06 3977.06 0 0 0 0 2.41.36.36 0 0 0 .4.36H38.53v.52c-.34.09-.7.1-1.04.02a.62.62 0 0 1-.46-.58c-.02-.1-.03-.22-.03-.33v-2.5h-.62V26h.63v-1.22l.7-.33ZM43.64 26h-.7c.12 1.3.05 4 .05 4h.72v-.1a564.44 564.44 0 0 1 .02-2.56c0-.16.07-.31.2-.43a.7.7 0 0 1 .44-.2l.34-.02h.16V26c-.2-.03-.41 0-.6.06a1 1 0 0 0-.57.5l-.06-.57Z" fill="#8A0CC9"/></svg>