<!-- by TradingView --><svg width="56" height="56" viewBox="0 0 56 56" xmlns="http://www.w3.org/2000/svg"><path fill="#F0F3FA" d="M0 0h56v56H0z"/><path d="M4 32v-8h1.37v3.68h.09L8.4 24h1.66l-2.91 3.6 2.94 4.4H8.45L6.2 28.56l-.83 1.01V32H4ZM11 32v-8h5v1.29h-3.62v2.11h3.28v1.19h-3.28v2.12H16V32h-5ZM16.9 24h1.54l1.84 3.55h.07L22.2 24h1.54L21 28.99V32h-1.36v-3.01L16.89 24ZM24.8 32h-1.46L26 24h1.68l2.66 8h-1.46l-2.01-6.3h-.06l-2 6.3Zm.05-3.16h3.97v1.13h-3.97v-1.13ZM31.64 32v-8h2.52c1.5 0 2.66 1.13 2.66 2.6 0 1-.42 1.74-1.21 2.15-.4.2-.89.3-1.47.3h-1.7v-1.18h1.52c.34 0 .61-.05.83-.14a1 1 0 0 0 .48-.43c.1-.2.15-.43.15-.7 0-.28-.05-.52-.15-.71-.1-.2-.27-.35-.49-.45-.21-.1-.49-.15-.83-.15H33V32h-1.36Zm3.59-3.63L37.09 32h-1.52l-1.83-3.63h1.49ZM44.52 26.73h-1.37a1.8 1.8 0 0 0-.22-.62 1.65 1.65 0 0 0-.93-.74c-.2-.07-.41-.1-.64-.1-.41 0-.78.1-1.1.32-.31.2-.56.52-.74.92-.18.4-.27.9-.27 1.49 0 .6.1 1.1.27 1.5.18.41.43.72.75.93a2.13 2.13 0 0 0 1.72.22 1.71 1.71 0 0 0 .93-.73c.1-.18.19-.38.23-.61h1.37a3.14 3.14 0 0 1-1 1.9c-.27.25-.6.45-.96.58-.37.14-.78.21-1.23.21a3.28 3.28 0 0 1-3-1.85c-.3-.6-.45-1.31-.45-2.15 0-.84.15-1.56.45-2.15.3-.6.72-1.06 1.24-1.37a3.64 3.64 0 0 1 2.94-.3 2.97 2.97 0 0 1 2.01 2.55ZM45.63 32v-8H47v3.4h3.63V24H52v8h-1.37v-3.41H47V32h-1.37Z"/></svg>