<!-- by TradingView --><svg width="56" height="56" viewBox="0 0 56 56" xmlns="http://www.w3.org/2000/svg"><path fill="#F0F3FA" d="M0 0h56v56H0z"/><path d="M26.37 27.5a39.22 39.22 0 0 1-10.89 4.9c-.12.03-.17 0-.22-.12a5.4 5.4 0 0 1-.17-.45 22.99 22.99 0 0 1-.93-6.64c-.05-2.6-.01-5.08.06-7.53a11.1 11.1 0 0 0 0-.95.1.1 0 0 1 .06-.04c.33-.06.64-.22.94-.3.61-.15 1.22-.34 1.82-.55.2-.08.4-.07.6-.13.47-.13.94-.25 1.42-.36h.1a39.7 39.7 0 0 1 6.44-1.18c.21-.02.47-.08.73-.1a20.8 20.8 0 0 1 3.83.08l1.66.2a52.84 52.84 0 0 1 9.86 2.4l.02.04.03 1.98c0 .02 0 .04-.03.05l-.94.27c-3.42 1-6.5 2.75-9.38 4.82-1.53 1.09-3.24 2.47-5 3.61Z" fill="url(#aotut4st3)"/><path d="M27.89 26.61a173.22 173.22 0 0 1 4.91-3.52 27.77 27.77 0 0 1 7.91-3.87 37.16 37.16 0 0 1 6.24-1.21.08.08 0 0 1 .05.07v.04L41.95 29a.1.1 0 0 1-.08.05.1.1 0 0 1-.09-.03l-.28-.32a.03.03 0 0 0-.04 0l-.01.02c0 .3-.1.55-.13.85a1.9 1.9 0 0 1-.1.4.04.04 0 0 1-.05 0 .5.5 0 0 0-.34-.16c-.02 0-.03.01-.03.03l-.02.41c0 .03.01.04.04.04l.28-.02c.02 0 .03 0 .03.03 0 .21-.03.42-.09.62a.1.1 0 0 1-.07.08l-.15.04c-.03 0-.04.01-.04.04.01.26.07.48-.01.75-.2.62-.43 1.24-.71 1.85h-.01l-.61-.3h-.05v.02l-.01.61.01.04.04.03.27.02a.1.1 0 0 1 .09.09.1.1 0 0 1 0 .04c-.08.2-.2.36-.38.48-.02.01-.02.03-.02.05.07.2-.58 1.12-.65 1.22-.08.1-.6-.14-.73-.17-.02 0-.03 0-.04.02-.02.2-.08.7.11.83a.1.1 0 0 1 .05.07.1.1 0 0 1-.02.08l-.57.67a.1.1 0 0 1-.08.04.1.1 0 0 1-.09-.04 1.02 1.02 0 0 0-.78-.46l-.02.01-.02.02v.77l.01.04c.02.02.03.03.05.03l.27.06a.1.1 0 0 1 .07.1c0 .11-.18.14-.29.2a.1.1 0 0 0-.04.03 2 2 0 0 1-.47.56.05.05 0 0 1-.05-.02c-.26-.35-.44-.54-.91-.57-.05 0-.08.02-.08.07v.8c0 .03.02.04.04.04l.38.01c.03 0 .04.02.04.04l.02.17c0 .04 0 .06-.04.06l-.37.06a.05.05 0 0 0-.04.04.75.75 0 0 1-.24.43c-.08.07-.21.07-.26-.02-.19-.34-.49-.5-.9-.48-.02 0-.03 0-.03.03l.02.9c0 .01 0 .03.02.04l.04.02h.23c.02 0 .04.01.05.03.07.17-.17.16-.25.14a.05.05 0 0 0-.04 0 .05.05 0 0 0-.02.03.63.63 0 0 1-.36.5.07.07 0 0 1-.06 0 .3.3 0 0 1-.13-.08c-.11-.14-.9-.77-.91-.33v.91c.02.23-.04.38-.2.52-.23.19-.34-.06-.5-.15-.1-.06-.22-.08-.27-.2a.05.05 0 0 1 0-.04.05.05 0 0 1 .04-.02l.53-.03c.02 0 .03 0 .04-.02.05-.07.06-.13.05-.18a1.2 1.2 0 0 0-1.02-.96c-.04 0-.07.01-.08.05v.06l-.01 1.77c0 .4.06.63-.27.82-.26.14-.52.05-.5-.28 0-.02 0-.03.02-.03h.4a.07.07 0 0 0 .06-.02.07.07 0 0 0 .02-.05 1.1 1.1 0 0 0-.68-1 .07.07 0 0 1 .02-.13l.54-.05c.01 0 .02 0 .02-.02.06-.49-.22-.8-.62-1.02a.62.62 0 0 0-.36-.06.1.1 0 0 0-.1.1v3.22l-.04.1a.04.04 0 0 1-.04.02.04.04 0 0 1-.03-.02c-.1-.2-.2-.5-.37-.65-.12-.1-.36-.26-.26-.4a.05.05 0 0 1 .04-.02c.16 0 .5.12.46-.18-.07-.4-.28-.7-.63-.88-.05-.03-.08-.08-.1-.15 0-.02.01-.03.03-.03l.57.01c.02 0 .03 0 .03-.03.07-.58-.37-1.03-.92-1.12-.12-.02-.18.06-.18.16v4.18c0 .04.01.08-.03.07-.17-.03-.45-.5-.54-.65-.02-.02-.01-.04.02-.04l.38-.08a.09.09 0 0 0 .07-.12c-.09-.24-.19-.58-.39-.75-.09-.07-.28-.2-.23-.34 0-.02.02-.03.04-.03.18 0 .5.08.45-.2a1.14 1.14 0 0 0-.66-.9.06.06 0 0 1-.03-.1l.03-.02c.12-.07.34-.02.53-.04.02 0 .03 0 .04-.02a.78.78 0 0 0-.26-.77c-.22-.2-.5-.36-.78-.32-.03 0-.04.02-.04.04l.02 3.38v.01l-.02.01a.03.03 0 0 1-.02 0c-.26-.15-.19-.44-.44-.66-.12-.1-.23-.22-.33-.34-.01-.02-.01-.03.01-.04.14-.07.34.02.51-.05.02-.01.03-.03.03-.05a1 1 0 0 0-.43-.87c-.1-.07-.18-.13-.23-.2-.06-.07-.04-.1.05-.1l.47-.01c.03 0 .04-.02.05-.04a.45.45 0 0 0 .03-.18 1.15 1.15 0 0 0-1.03-.94c-.02 0-.03 0-.04.02a.51.51 0 0 0-.06.26c.02.7 0 1.41.03 2.13a.07.07 0 0 1-.05.08c-.12.02-.17-.08-.2-.18-.1-.42-.19-.7-.52-.9-.08-.05-.23-.14-.22-.24 0-.02.02-.03.04-.03l.53.02c.02 0 .04 0 .04-.03.09-.56-.26-.91-.76-1.08a.37.37 0 0 0-.3 0 .04.04 0 0 0-.02.05v1.25c0 .05-.02.08-.08.08-.26 0-.27-.1-.25-.33.07-.6-.4-1-.98-1.08-.02 0-.03 0-.04.03l-.07.27c0 .02-.02.03-.04.03-.2 0-.39-.2-.5-.35a.05.05 0 0 1 0-.05c.03-.06.07-.1.13-.13a.07.07 0 0 0 .05-.08c-.07-.5-.47-.92-1.01-.82a.04.04 0 0 0-.03.03l-.06.2a.05.05 0 0 1-.03.04.05.05 0 0 1-.04-.01l-.42-.3a.08.08 0 0 1-.04-.06.32.32 0 0 1 .1-.32.05.05 0 0 0 .03-.05c-.1-.49-.4-.75-.9-.8a.04.04 0 0 0-.04.03v.02c-.02.45-.51-.12-.58-.19a.06.06 0 0 1-.03-.05c.02-.17.07-.33-.01-.49a.94.94 0 0 0-.88-.54.1.1 0 0 1-.05-.01c-.06-.04-.11-.06-.16-.12-.24-.32-.45-.66-.7-.98a8.17 8.17 0 0 1-.3-.41l.02-.02.03-.01.49-.07c.02 0 .03-.02.04-.04l.02-.11c0-.03 0-.04-.03-.04-.3.04-.6.11-.9.11-.77 0-1.51.04-2.26-.05l-.64-.07a16.64 16.64 0 0 1-4.5-.99c-.08-.03-.1-.09-.06-.19l.03-.03c.08-.03.2-.03.26-.05 2.2-.47 4.41-.9 6.57-1.52a38.95 38.95 0 0 0 12-5.8Zm11.9-.55c.04-.03.08-.03.12 0l1.72 1.63h.02c.07-.2.17-.43.3-.71l3.55-7.65c.05-.1.1-.2.19-.3 0-.02 0-.03-.01-.02-.87.11-1.83.29-2.86.52-3.3.73-6.34 2.07-9.1 3.95a84.8 84.8 0 0 0-2.48 1.72 56.25 56.25 0 0 1-8.74 5.59c-.62.31-1.48.68-2.57 1.12-.55.22-1.23.43-1.84.67-.48.19-.98.27-1.46.46-.1.04-.2.06-.32.08-.3.04-.5.19-.78.23a3.5 3.5 0 0 0-.77.22c-.28.11-.58.1-.87.21-.17.07-.61.03-.68.18 0 .02-.02.03-.04.03l-1.28.21c-.03 0-.03.01 0 .02.13.03.23.04.31.04.4 0 .8.04 1.19.1.17.03.33 0 .5.02.32.05.67.03.94.04.48.03.95 0 1.43.03.14 0 .27 0 .4-.02.26-.03.5 0 .76-.01.25-.02.5-.03.75-.02.34 0 .64-.06.97-.09.72-.05 1.44-.12 2.16-.2.71-.07 1.42-.2 2.21-.32 1.2-.19 2.54-.5 4.03-.91a30.6 30.6 0 0 0 11.06-5.75c.4-.32.77-.74 1.19-1.07Zm-.42 1.5a.1.1 0 0 0-.02.1.1.1 0 0 0 .05.06.4.4 0 0 0 .28.04c.02 0 .03-.01.03-.03.08-.25-.18-.36-.34-.16Zm1.62 1.1a.11.11 0 0 0-.11-.01.12.12 0 0 0-.07.08.45.45 0 0 0 0 .22c0 .02.02.03.04.03l.36-.02h.01a.03.03 0 0 0 .01-.03v-.01a.8.8 0 0 0-.24-.26Zm-1.22.31c0-.2-.12-.34-.33-.34-.03 0-.04.01-.05.03a.5.5 0 0 0 0 .32c.01.02.02.03.04.03l.32-.02c.01 0 .02 0 .02-.02Zm-1.43.03a.03.03 0 0 0 .04-.02v-.02a.47.47 0 0 0-.23-.3.11.11 0 0 0-.15.02.11.11 0 0 0-.02.05.53.53 0 0 0-.01.25c0 .01.01.02.03.02h.34Zm-.32 1.3.39-.03c.03 0 .04-.01.03-.04a.52.52 0 0 0-.43-.43c-.03 0-.04.01-.04.04l-.01.4c0 .03.02.05.06.05Zm1.43 0 .37-.03a.04.04 0 0 0 .04-.05.5.5 0 0 0-.42-.41h-.03l-.02.01a.05.05 0 0 0-.01.04l.02.38c0 .04.01.05.05.05Zm-2.84-.01.37-.01c.03 0 .04-.02.04-.04 0-.2-.22-.46-.45-.4-.02.01-.03.03-.03.05v.33a.07.07 0 0 0 .03.05.07.07 0 0 0 .04.02Zm-.94 1.12c-.1-.18-.28-.42-.51-.4-.03 0-.04.02-.04.05v.46c0 .02 0 .03.03.03h.44a.1.1 0 0 0 .1-.1l-.02-.04Zm2.33.14h.43a.09.09 0 0 0 .07-.04.08.08 0 0 0 .02-.07A.57.57 0 0 0 38 31c-.03 0-.05 0-.05.04v.45c0 .03.01.05.04.05Zm-1.42 0h.45c.03 0 .05-.01.04-.04-.02-.3-.18-.47-.49-.5-.03 0-.04.02-.04.05v.45l.01.02.03.01Zm2.86 0h.41c.03 0 .04-.01.05-.03.07-.13-.01-.23-.1-.33a.46.46 0 0 0-.38-.17c-.03 0-.04.01-.04.04v.44a.05.05 0 0 0 .06.05Zm-5.7 0 .44.02c.02 0 .04-.01.04-.04a.5.5 0 0 0-.05-.3.05.05 0 0 0-.04-.02c-.11 0-.55.15-.43.32.01.02.03.02.05.02Zm4.83 1.26c.03 0 .04-.01.03-.04a.7.7 0 0 0-.59-.56c-.02 0-.03 0-.03.02l-.02.57c0 .02.01.03.03.03l.58-.02Zm-5.69 0c.03-.33-.23-.55-.52-.6a.06.06 0 0 0-.05.02.06.06 0 0 0-.02.05l-.02.53c0 .02.01.03.03.03l.56-.02c.01 0 .02 0 .02-.02Zm1.45-.04a.63.63 0 0 0-.57-.55c-.02 0-.03 0-.03.03l-.01.54c0 .03 0 .04.03.04l.55-.02a.03.03 0 0 0 .03-.03v-.01Zm.9.05c.15.02.32.01.49-.02.02 0 .03-.01.02-.03-.05-.32-.23-.5-.55-.55-.03-.01-.05 0-.06.04l-.03.52c0 .02.01.04.04.05h.04l.04-.01Zm1.38 0h.52c.03 0 .05-.02.04-.06-.05-.33-.25-.5-.58-.53-.02 0-.03 0-.03.02v.52a.05.05 0 0 0 .05.06Zm2.8-.01a1.65 1.65 0 0 0 .59-.01.06.06 0 0 0 .02-.04v-.03a.62.62 0 0 0-.59-.5c-.02 0-.03 0-.03.02l-.01.52c0 .02 0 .03.02.04Zm-8.54 0 .52.02a.1.1 0 0 0 .09-.13l-.1-.2c-.01-.02-.03-.03-.05-.02-.17.05-.34.13-.5.23a.06.06 0 0 0 0 .1h.04Zm7.8 1.23a.74.74 0 0 0-.67-.64.04.04 0 0 0-.02.02v.02l-.02.61c0 .03.02.04.04.04h.63a.05.05 0 0 0 .03-.02.05.05 0 0 0 .01-.03Zm-7.77.05.58.02c.02 0 .03-.01.03-.03.1-.38-.27-.63-.6-.67a.04.04 0 0 0-.04.01v.64c0 .02.01.03.03.03Zm1.4 0h.6a.09.09 0 0 0 .09-.06v-.04a.74.74 0 0 0-.68-.58.06.06 0 0 0-.04.03v.62a.03.03 0 0 0 .04.03Zm-2.45-.55c-.58-.42-.42.32-.42.53 0 .02.02.03.04.03h.6c.02 0 .04 0 .04-.03a.6.6 0 0 0-.26-.53Zm5.3.53c.19.02.42.04.61 0 .02 0 .03-.01.04-.03.02-.35-.31-.6-.63-.62-.02 0-.04.01-.04.03l-.02.58c0 .03 0 .04.03.04Zm2.08-.01c.01-.37-.29-.63-.64-.64h-.02a.03.03 0 0 0-.02.03v.61c0 .02.01.03.03.03h.62c.02 0 .03-.01.03-.03Zm-2.85 0c.01-.36-.26-.58-.6-.63a.06.06 0 0 0-.06.03V34.05c0 .03.02.04.04.04h.6c.01 0 .02-.01.02-.03Zm-6.26.04h.54c.02 0 .03 0 .03-.02 0-.22-.1-.53-.36-.54-.29-.02-.43.31-.27.53l.06.03Zm-1.49 0c.14 0 .76.09.68-.17a.08.08 0 0 0-.09-.06c-.09.01-.69.08-.63.21a.05.05 0 0 0 .04.03Zm0 1.27.67.01c.02 0 .04 0 .04-.04.02-.47-.3-.65-.71-.74h-.01a.03.03 0 0 0-.02.03v.72a.03.03 0 0 0 .02.02Zm7.84-.06c-.05-.4-.3-.65-.72-.68-.01 0-.02 0-.02.02l-.02.68v.01l.01.02h.02l.02.01.67-.02a.04.04 0 0 0 .04-.04Zm2.14.08.64-.03c.07 0 .1-.03.08-.1a.78.78 0 0 0-.74-.64c-.03 0-.04 0-.04.03.03.22.02.45 0 .67 0 .04.01.07.06.07Zm-11.4-.01c.12.01.9.1.71-.23-.18-.32-.29-.53-.7-.52a.05.05 0 0 0-.06.06l.01.64c0 .01 0 .02.02.03l.02.02Zm3.54-.05c.03-.4-.29-.7-.68-.7-.02 0-.07.01-.07.03v.68c0 .03.06.05.09.04h.61c.03 0 .05-.02.05-.05Zm.71.04h.69c.03 0 .04-.02.04-.04 0-.42-.3-.67-.72-.7-.02 0-.03 0-.03.03l-.02.67c0 .03.02.04.04.04Zm2.17-.09c-.05-.36-.32-.65-.7-.65a.07.07 0 0 0-.07.08l.01.63.01.02h.68a.08.08 0 0 0 .05-.02.07.07 0 0 0 .02-.06Zm.67.09h.68c.02 0 .04-.01.04-.03.07-.42-.34-.7-.72-.7-.02 0-.03 0-.03.03v.67c0 .02 0 .03.03.03Zm3.58-.07a.69.69 0 0 0-.72-.66c-.02 0-.03 0-.03.03l-.02.67c0 .02.01.03.03.03H35.84a.07.07 0 0 0 .03-.05v-.02Zm2.11.07c.2 0 .41 0 .62.02.16 0 .12-.23.09-.3a.74.74 0 0 0-.7-.46c-.02 0-.03.01-.03.03v.68c0 .02 0 .02.02.03Zm-13.5-.03c.02-.35-.3-.8-.7-.68a.08.08 0 0 0-.05.07v.6c0 .02 0 .04.03.04h.68c.02 0 .03-.01.03-.03Zm-1.7-.54-.43.05c-.03 0-.04.02-.04.05l.02.43c0 .02.01.04.04.04h.64c.02 0 .03-.02.04-.04a.65.65 0 0 0-.2-.5.07.07 0 0 0-.06-.03Zm-1.16.22a.03.03 0 0 0-.03-.03l-.67.02a.03.03 0 0 0-.03.03v.3a.03.03 0 0 0 .01.03h.02l.67-.01.03-.01v-.33Zm-1.4.16a.09.09 0 0 0-.09-.09l-.6.02a.1.1 0 0 0-.06.03.09.09 0 0 0-.03.07v.1a.09.09 0 0 0 .1.1l.6-.03a.09.09 0 0 0 .1-.1l-.01-.1Zm-1.42 0h-.02l-.74.01h-.01V35.4l.02.01.74-.02h.01V35.18Zm3.55 1.43.7.01a.07.07 0 0 0 .08-.08c-.06-.43-.31-.67-.76-.71-.02 0-.03 0-.03.03l-.02.72a.03.03 0 0 0 0 .02l.02.01h.01Zm1.4.01.78.01c.02 0 .04 0 .03-.04-.04-.48-.3-.74-.8-.77-.01 0-.02 0-.02.03l-.02.73c0 .03.01.04.04.04Zm-5.66 0 .75.01c.03 0 .04 0 .04-.04a.8.8 0 0 0-.83-.76c-.02 0-.04.01-.04.04l.02.69.02.04.04.02Zm2.81 0 .76.01h.02a.06.06 0 0 0 .04-.04v-.03c-.06-.46-.33-.7-.8-.74-.02 0-.03.01-.03.03.02.24.02.49-.01.73 0 .02 0 .03.02.03Zm4.29.02h.72c.03 0 .05 0 .06-.03a.24.24 0 0 0 .02-.18c-.11-.4-.38-.6-.8-.6-.02 0-.03.01-.03.03v.78h.03Zm5.06-.05c0-.45-.35-.75-.79-.76-.02 0-.03 0-.03.03v.72c0 .02 0 .04.03.04h.77c.01 0 .02-.01.02-.03Zm.64.03.75.01c.03 0 .05-.01.05-.05-.06-.47-.33-.72-.8-.75h-.01v.01l-.02.75c0 .02 0 .03.03.03Zm1.41 0 .72.01h.03a.07.07 0 0 0 .04-.05v-.03c-.05-.45-.31-.7-.78-.73-.01 0-.02.01-.02.03v.76h.01Zm1.42 0c.23 0 .54.04.77-.01.03 0 .04-.02.03-.04-.05-.47-.32-.72-.8-.74-.02 0-.03 0-.03.02.04.25.04.49 0 .73 0 .02 0 .03.03.03Zm1.4 0c.27 0 .54.03.8 0l.02-.04c0-.47-.36-.71-.8-.75-.01 0-.02 0-.02.02l-.01.74c0 .02 0 .02.02.02Zm-15.63 0 .76.01h.02l.02-.01v-.02l.01-.02c-.05-.48-.32-.73-.8-.75h-.02a.03.03 0 0 0-.02.03v.72c0 .02.01.04.03.04Zm7.13 0 .73.01a.05.05 0 0 0 .06-.03v-.02c-.04-.48-.3-.73-.8-.75-.01 0-.02.01-.02.03v.73c0 .02 0 .03.03.03Zm1.42 0 .73.01c.04 0 .06-.02.06-.07-.05-.45-.3-.7-.76-.73-.02 0-.08.01-.08.04v.71c0 .03.02.04.05.04Zm8.54 0 .78.01c.02 0 .02 0 .02-.02-.04-.49-.3-.75-.8-.78-.01 0-.02.01-.02.03v.74c0 .02 0 .03.02.03Zm-17.1 1.3h.84c.03 0 .04 0 .04-.03-.03-.54-.32-.82-.86-.87-.03 0-.04.01-.04.04l-.01.82v.02a.03.03 0 0 0 .02.02h.02Zm2.91 0h.76c.02 0 .04-.02.04-.04a.8.8 0 0 0-.82-.85.04.04 0 0 0-.04.03l-.02.78c0 .05.03.08.08.08Zm1.4 0h.76c.05 0 .08-.02.08-.07.03-.46-.38-.83-.83-.82a.07.07 0 0 0-.07.07v.75c0 .04.02.06.06.06Zm1.46 0 .68.02a.13.13 0 0 0 .12-.09v-.05c-.07-.5-.36-.75-.86-.77-.02 0-.03 0-.03.03v.78c.01.05.04.07.09.07Zm1.4-.01.71.03c.05 0 .08-.02.1-.06.1-.48-.38-.86-.83-.85-.01 0-.02 0-.02.03l-.02.79c0 .04.02.06.05.06Zm1.4 0 .71.03a.13.13 0 0 0 .1-.05.13.13 0 0 0 .04-.1c-.06-.45-.32-.7-.76-.77a.1.1 0 0 0-.1.06c-.02.01-.05.02-.05.04v.75c0 .03.04.04.06.04Zm1.41 0 .8.02c.02 0 .04-.02.05-.04.1-.48-.43-.85-.85-.87-.02 0-.04.01-.04.04l.01.82.01.02h.02Zm1.46.01h.78c.03 0 .04-.01.04-.03-.02-.54-.3-.83-.85-.86a.03.03 0 0 0-.02 0l-.01.01v.01l.02.83a.04.04 0 0 0 .04.04Zm1.38-.02c.27.03.55.03.82 0 .02 0 .03 0 .03-.03.1-.46-.4-.82-.8-.85a.05.05 0 0 0-.05.01.05.05 0 0 0-.01.04V37.9h.01Zm1.46.01.77.01c.02 0 .04 0 .04-.02.13-.44-.37-.81-.75-.88a.1.1 0 0 0-.09.02.1.1 0 0 0-.03.08l.02.75c0 .03.01.04.04.04Zm1.4 0 .8.02c.05 0 .08-.03.07-.1-.05-.4-.4-.87-.87-.78-.03 0-.04.01-.04.04v.81a.04.04 0 0 0 .03 0Zm-14.24 0 .8.02c.04 0 .06-.03.06-.07-.01-.46-.37-.87-.85-.81-.02 0-.04.01-.04.04v.81l.03.01Zm4.27 1.26.86.03a.08.08 0 0 0 .08-.08c.01-.56-.36-.8-.86-.9a.07.07 0 0 0-.08.04l-.01.03-.02.85c0 .02.01.03.03.03Zm1.96.03c.15.02.31.04.4-.1.01-.02.02-.03.01-.05-.08-.52-.4-.8-.93-.81-.02 0-.02 0-.03.02l-.03.87c0 .03.01.04.04.04.19 0 .34 0 .54.03Zm5.17-.03.76.01c.1 0 .19-.03.16-.15-.09-.5-.4-.77-.92-.78-.02 0-.03 0-.03.03v.85c0 .02 0 .04.03.04Zm1.4 0c.3-.04.65.01.92.02.03 0 .04-.02.04-.04-.05-.58-.35-.88-.92-.9h-.01a.03.03 0 0 0-.02.01v.02l-.02.87v.02h.02Zm-12.81-.03.86.05a.08.08 0 0 0 .09-.08c.01-.56-.42-.81-.92-.86-.03 0-.05 0-.05.04v.83l.02.02Zm1.44.03.83.01a.12.12 0 0 0 .13-.09v-.05c-.1-.52-.42-.78-.95-.79-.02 0-.02.01-.02.02l-.02.87c0 .02.01.03.03.03Zm1.4.02c.29-.05.57 0 .85.02a.08.08 0 0 0 .09-.07.81.81 0 0 0-.88-.89c-.05 0-.08.04-.08.1v.82c0 .02.01.02.03.02Zm4.3-.01.85.02c.07 0 .1-.03.09-.09-.05-.54-.34-.83-.88-.86-.06 0-.12.02-.12.08v.82l.03.02.02.01Zm1.4-.02.84.04a.1.1 0 0 0 .08-.03.1.1 0 0 0 .02-.08c-.05-.54-.36-.82-.9-.84-.04 0-.06.02-.06.05v.84c0 .01 0 .02.03.02Zm1.44.01.89.01c.03 0 .04-.01.04-.04-.04-.57-.34-.87-.92-.89h-.01l-.01.02-.02.87c0 .02.01.03.03.03Zm-8.4 1.26.8.02c.02 0 .03 0 .03-.02.08-.66-.39-.95-.98-.97-.02 0-.03 0-.03.03l.04.9c0 .06.02.1.1.05a.1.1 0 0 1 .05-.01Zm2.74.02h.92a.07.07 0 0 0 .05-.02.07.07 0 0 0 .01-.05c-.05-.6-.38-.9-.98-.93a.07.07 0 0 0-.07.07l.02.87a.05.05 0 0 0 .05.06Zm1.4-.01h.95a.07.07 0 0 0 .05-.01l.01-.03v-.03c-.06-.6-.4-.9-1-.92h-.02l-.02.01a.05.05 0 0 0-.02.04l.02.9c0 .03.01.04.03.04Zm1.47.01.9.01a.04.04 0 0 0 .03 0 .03.03 0 0 0 .01-.03c-.01-.63-.34-.96-.98-.98-.02 0-.07.02-.07.04v.9c0 .04.07.06.11.06Zm2.81-.02.91.02a.06.06 0 0 0 .06-.05c.1-.57-.47-.97-1-.94-.01 0-.02.01-.02.03l.02.91c0 .02.01.03.03.03Zm1.41 0 .93.02c.02 0 .04 0 .05-.02a.3.3 0 0 0 .02-.2c-.13-.49-.45-.75-.97-.78a.06.06 0 0 0-.06.04v.9a.04.04 0 0 0 .03.03Zm-8.56.02h.96c.03 0 .05-.01.05-.04.04-.59-.43-1-1.01-.93-.02 0-.03.01-.03.03v.92c0 .01.01.02.03.02Zm5.72 0h.92a.06.06 0 0 0 .04-.02.06.06 0 0 0 .02-.05c-.03-.6-.34-.9-.94-.92a.1.1 0 0 0-.1.1l.02.84.01.03.03.01Z" fill="url(#botut4st3)"/><path d="M44.82 19.3c-.18-.04-.34.02-.48.18-.13.15-.02.33.09.46.47.55 1.11-.51.39-.65Zm-.3 1.18c0 .41-.33.74-.75.74a.75.75 0 0 1-.75-.74.75.75 0 0 1 1.5 0Zm-1.94.16a.36.36 0 1 0 0-.72.36.36 0 1 0 0 .72Zm-.76-.33c.08.11.05.27-.07.35-.11.08-.27.06-.35-.05-.08-.1-.05-.26.07-.34.11-.09.27-.07.35.04Zm-1.27 1.46c.33 0 .61-.27.61-.61a.61.61 0 0 0-.61-.61.61.61 0 0 0-.62.6c0 .35.28.62.62.62Zm2.46-.2c0 .5-.4.9-.89.9s-.89-.4-.89-.9c0-.48.4-.88.9-.88.48 0 .88.4.88.89Zm-3.64.47c.26 0 .47-.2.47-.46a.47.47 0 0 0-.47-.47.47.47 0 1 0 0 .94Zm4.69-.22c0 .27-.22.48-.49.48a.48.48 0 0 1-.48-.48c0-.26.22-.48.48-.48.27 0 .49.22.49.48Zm-5.8.42c.2 0 .36-.17.36-.37 0-.2-.16-.36-.36-.36-.2 0-.37.16-.37.36 0 .2.17.37.37.37Zm2.76.39a.6.6 0 0 1-.61.6.6.6 0 0 1-.61-.6c0-.34.27-.61.6-.61a.6.6 0 0 1 .62.6Zm-3.54.09c.18-.05.29-.23.24-.4-.05-.16-.23-.25-.41-.2-.18.06-.29.23-.24.4.05.16.23.25.41.2Zm2.25.58a1.06 1.06 0 0 1-2.13 0c0-.58.48-1.06 1.07-1.06.59 0 1.06.48 1.06 1.06ZM43 23.1a.36.36 0 1 0 0-.72.36.36 0 1 0 0 .72Zm-.74-.07a.58.58 0 0 1-1.17 0c0-.32.27-.58.6-.58.31 0 .57.26.57.58Zm-5.83.93a.72.72 0 1 0 0-1.43c-.4 0-.72.32-.72.71 0 .4.32.72.72.72Zm-.8-.12c0 .36-.3.64-.65.64a.64.64 0 0 1-.64-.64.64.64 0 0 1 1.29 0Zm7.13-.06c.14 0 .25-.12.25-.26a.26.26 0 0 0-.25-.25.26.26 0 0 0-.26.25c0 .14.12.26.26.26Zm-1.29.46a.76.76 0 0 1-1.53 0c0-.42.35-.76.77-.76.42 0 .76.34.76.76Zm.78.54a.5.5 0 0 0 .5-.5.5.5 0 0 0-.5-.49.5.5 0 0 0-.5.5c0 .27.23.5.5.5Zm-4.36-.23c0 .34-.28.62-.62.62a.62.62 0 0 1-.61-.62c0-.34.27-.61.61-.61.34 0 .62.27.62.61Zm-2.52.35c-.01.31.22.58.53.6.31 0 .57-.24.59-.55a.56.56 0 0 0-.54-.6.56.56 0 0 0-.58.55Zm4.42.18c0 .35-.29.63-.64.63a.63.63 0 0 1-.63-.63.63.63 0 0 1 1.27 0Zm-7.24.91a1.34 1.34 0 1 0 2.65-.34 1.34 1.34 0 1 0-2.65.34Zm9.66-.57a.5.5 0 0 1-.51.5.5.5 0 0 1-.5-.5c0-.28.22-.5.5-.5s.5.22.5.5Zm-1.9.57c.2 0 .37-.17.37-.37 0-.2-.16-.36-.37-.36-.2 0-.36.16-.36.36 0 .2.16.37.36.37Zm-7.84.1c0 .44-.36.8-.81.8a.81.81 0 0 1-.82-.8c0-.45.37-.82.82-.82.45 0 .8.37.8.81Zm5.1 1.23a1 1 0 0 0 1-1 1 1 0 0 0-1-.99 1 1 0 0 0-1 1 1 1 0 0 0 1 .99Zm-1.8-.38a.53.53 0 0 1-.43-.62c.05-.3.32-.5.6-.45.3.04.5.32.44.62-.04.3-.32.5-.6.45Zm5.53.01c.26 0 .47-.2.47-.46s-.21-.46-.47-.46-.46.2-.46.46c0 .25.2.46.46.46Zm-10.75.42c0 .31-.26.56-.57.56a.57.57 0 0 1-.57-.56c0-.31.25-.57.57-.57.31 0 .57.26.57.57Zm2.37 1.17c.4 0 .71-.32.71-.71 0-.4-.31-.71-.7-.71-.4 0-.72.32-.72.7 0 .4.32.72.71.72Zm-1.08-.92a.53.53 0 0 1-.52.55.54.54 0 0 1-.57-.5.53.53 0 0 1 .52-.54c.3-.02.56.2.57.5Zm4.26.38a.4.4 0 0 0 .4-.4.4.4 0 0 0-.4-.4.4.4 0 0 0-.4.4c0 .22.18.4.4.4Zm-.5.23a.87.87 0 0 1-1.75 0c0-.48.4-.87.88-.87s.87.4.87.87Zm-7 1c.44 0 .8-.36.8-.8 0-.46-.36-.82-.8-.82a.81.81 0 0 0-.82.81c0 .45.36.81.81.81Zm1.99-.8a.4.4 0 0 1-.4.4.4.4 0 0 1-.4-.4c0-.23.17-.4.4-.4.22 0 .4.17.4.4Zm1.06 2.37c.7 0 1.27-.57 1.27-1.26 0-.7-.57-1.26-1.27-1.26-.7 0-1.27.56-1.27 1.26s.57 1.26 1.27 1.26Zm-3.84-1.86a.4.4 0 0 1-.41.4.4.4 0 0 1-.4-.4c0-.22.17-.4.4-.4.22 0 .4.18.4.4Zm5.77.57a.4.4 0 0 0 .4-.4.4.4 0 0 0-.4-.4.4.4 0 0 0-.4.4c0 .22.18.4.4.4Zm-3.98.77a.65.65 0 0 1-.65-.65c0-.37.28-.67.64-.67.35 0 .64.29.65.65 0 .37-.28.67-.64.67Zm-3.75-.16a.4.4 0 0 0 .4-.4.4.4 0 0 0-.4-.4.4.4 0 0 0-.4.4c0 .22.18.4.4.4Zm2.13.34a.9.9 0 0 1-1.81 0 .9.9 0 0 1 1.81 0Zm.5-.08a.4.4 0 0 0 .4-.4.4.4 0 0 0-.4-.41.4.4 0 0 0-.41.4c0 .23.18.41.4.41Zm-2.94.14c0 .3-.25.55-.55.55a.55.55 0 0 1-.55-.55c0-.3.25-.55.55-.55.3 0 .55.25.55.55Zm4.7.75a.4.4 0 0 0 .4-.4.4.4 0 0 0-.4-.4.4.4 0 0 0-.4.4c0 .22.18.4.4.4Zm-6.17-.22a.5.5 0 0 1-.51.5.5.5 0 0 1-.5-.5c0-.28.22-.5.5-.5s.5.22.5.5Zm4.9.93c.38 0 .69-.3.69-.69a.7.7 0 0 0-.7-.69.7.7 0 0 0-.7.7c0 .37.32.68.7.68Zm-3.25-.39a.4.4 0 0 1-.23-.52.4.4 0 0 1 .52-.24c.2.08.3.3.22.52a.4.4 0 0 1-.51.24Zm-1.13 1.69c.56 0 1.02-.46 1.02-1.01 0-.56-.46-1.01-1.02-1.01s-1.01.45-1.01 1c0 .56.45 1.02 1.01 1.02Zm-2.03-1.3c0 .36-.29.65-.65.65a.65.65 0 0 1-.65-.65c0-.36.3-.65.65-.65.36 0 .65.3.65.65Zm5.12.38c.25-.05.42-.29.36-.53a.46.46 0 0 0-.55-.35.46.46 0 0 0-.37.54c.06.24.3.4.56.34Zm-4.4-.52c0 .17-.15.31-.32.31a.31.31 0 0 1-.32-.31c0-.17.14-.31.32-.31.17 0 .31.14.31.3Zm3.08 1.06c.32 0 .57-.25.57-.56 0-.3-.25-.55-.57-.55a.56.56 0 0 0-.56.55c0 .31.25.56.56.56Zm-4.95-.03c0 .5-.4.92-.92.92a.92.92 0 0 1 0-1.82c.51 0 .92.4.92.9Zm1.5.27c.25 0 .45-.2.45-.45 0-.24-.2-.44-.44-.44-.25 0-.45.2-.45.44 0 .25.2.45.45.45Zm-3.52-.04a.55.55 0 0 1-.64.44.55.55 0 0 1-.46-.62c.05-.3.33-.49.64-.44.3.05.51.33.46.62Zm2.19.7c-.4-.21-.15-.88.22-.97.55-.14.9.64.47.94a.73.73 0 0 1-.7.04Zm1.64-.55c.11.66 1.14.1.44-.3-.18-.1-.34.1-.43.24a.07.07 0 0 0-.01.06Zm-5.94 1c.35 0 .64-.3.64-.64a.64.64 0 0 0-.64-.64.64.64 0 0 0-.64.64c0 .35.28.64.64.64Zm-.85-.84c.06.15-.02.33-.18.4-.17.06-.35 0-.41-.16-.07-.15.01-.33.18-.4.16-.06.35 0 .4.16Zm3.03.76c.19 0 .33-.15.33-.33a.33.33 0 0 0-.33-.32.33.33 0 0 0-.32.32c0 .18.14.33.32.33Zm-1.5-.2c0 .24.3.37.49.34.81-.13.23-.98-.21-.8-.15.07-.27.3-.27.46Zm-2.57.43c.26-.04.45-.26.41-.5-.03-.24-.27-.4-.53-.37-.26.03-.44.26-.4.5.03.24.26.4.52.37Zm-.8-.37c.02.16-.1.3-.29.33-.18.02-.34-.09-.36-.25-.02-.16.1-.3.29-.33.18-.02.34.09.36.25Zm1.86.33c.14-.04.23-.18.19-.32-.04-.13-.18-.21-.33-.17-.14.04-.23.18-.2.31.05.14.2.21.34.18ZM13.27 34c-.02.14.02.28.18.3.3.04.37-.47-.1-.4a.1.1 0 0 0-.08.1Z" fill="url(#cotut4st3)"/><defs><linearGradient id="aotut4st3" x1="14.13" y1="19.89" x2="40.74" y2="19.89" gradientUnits="userSpaceOnUse"><stop stop-color="#DD6227"/><stop offset=".5" stop-color="#F2B715"/><stop offset="1" stop-color="#D85E17"/></linearGradient><linearGradient id="botut4st3" x1="13.29" y1="33.08" x2="45.08" y2="32.7" gradientUnits="userSpaceOnUse"><stop stop-color="#5B090A"/><stop offset=".49" stop-color="#DC6161"/><stop offset="1" stop-color="#580B09"/></linearGradient><linearGradient id="cotut4st3" x1="16.74" y1="32.96" x2="45.11" y2="23.46" gradientUnits="userSpaceOnUse"><stop stop-color="#194272"/><stop offset=".54" stop-color="#068DD3"/><stop offset="1" stop-color="#2A538C"/></linearGradient></defs></svg>