<!-- by TradingView --><svg width="56" height="56" viewBox="0 0 56 56" xmlns="http://www.w3.org/2000/svg"><path fill="#F0F3FA" d="M0 0h56v56H0z"/><path d="M43 17.43V22H29.5c-2.3-.57-7.73-1.5-10.5-1.5-2.77 0-5.23.55-6 .93v-5.14a5.2 5.2 0 0 1 4-.79c1.85.46 2.8 2.55 3 3.5-.2-1.14-.23-3.54 3-4a3.72 3.72 0 0 1 4.42 3.57l1.16-.57c.46-1.83 2.5-1.9 3.46-1.71C32.62 15.52 34 14 35.5 14c2.19 0 3.27 1.52 4.04 2.29A3.23 3.23 0 0 1 43 17.43Z" fill="#B8DB4B"/><path d="M43 22.5H31.5c2.3.56 7 1.6 7 2.5 0 .9-3.15 1.81-4.5 2 .77 0 2.08.14 2.08 1.56 0 1.44-3.54 2.07-5.08 2.44 2.12.56 7 2.5 7 5 0 2.29-4.08 4.88-6 6h11V22.5Z" fill="#13C8C7"/><path d="M19 21c-2.88 0-4.85.47-6 .84V39c3.27-.75 10-2.66 10-4 0-1.34-3.46-2.13-5-2.5 3.46-.93 11-3.1 11-4 0-.9-1.62-1.31-2-1.5 2.5-.19 8-1.16 8-2.5 0-1.68-13.12-3.5-16-3.5Z" fill="#0071C3"/></svg>