<!-- by TradingView --><svg width="56" height="56" viewBox="0 0 56 56" xmlns="http://www.w3.org/2000/svg"><path fill="#F0F3FA" d="M0 0h56v56H0z"/><path d="M7.3 23.24c2.59-4.52 9.27-8.17 16.45-9 12.91-1.48 24.43 4 26.1 12.41.9 4.5-2.47 9.5-8.37 12.4a30.8 30.8 0 0 1-8.17 2.62l-1.06.16.5-.49c.29-.27.66-.68.83-.92.18-.24 1-.63 1.85-.86 3.77-1.04 7.6-3.63 9.4-6.33 1.24-1.88 1.57-2.99 1.57-5.37a6.2 6.2 0 0 0-.89-3.72c-2.76-5.63-10.74-9.2-19.26-8.64-6.48.43-12.47 3.32-15.1 7.28-4.43 6.7.26 14.44 10.33 17.01 2.8.72 5.68.77 6.88.13 1.32-.71 1.63-1.16 1.64-9.85V22h3v8.2c0 6.62-.58 7.82-.98 8.66a9.8 9.8 0 0 0-.1.22c-.58 1.27-1.71 2.12-3.45 2.57-1.73.46-2.92.46-5.78.02-6.1-.95-11.78-3.9-14.48-7.5-2.59-3.48-2.92-7.43-.91-10.93ZM13 32.7V22h3v10.02l2-.02h2v2h-4.18C13 34 13 32.71 13 32.71Zm8.04.45L21 32.7V22h7v2h-4v3h3v.74c0 .95-1.33.9-2.33.86a8.66 8.66 0 0 0-.67-.01V32h4v2h-2.92c-2.47 0-3.49-.4-4.04-.84Zm14.65.26c-1.55-.9-1.69-1.44-1.69-6.69V22h3v4.56l-.01 2.2c-.02 2.04-.02 2.36.33 2.82.33.43.67.42 1.15.42h.09c1.64 0 2.44-.33 2.44-5.52V22h2v4.98c-.09 5.22-.8 5.84-2.37 6.6a6.4 6.4 0 0 1-4.94-.16Z" fill="#C7202B"/></svg>