<!-- by TradingView --><svg width="56" height="56" fill="none" xmlns="http://www.w3.org/2000/svg"><path fill="#F0F3FA" d="M0 0h56v56H0z"/><path fill-rule="evenodd" clip-rule="evenodd" d="M4 25.15V31h3.176l.331-1H5v-5l-1 .15zM13.397 28a3 3 0 11-6 0 3 3 0 016 0zm-1.004 0a1.999 1.999 0 11-1.998-2c1.103 0 1.998.895 1.998 2zM44 31a3 3 0 100-6 3 3 0 000 6zm-.002-1a1.999 1.999 0 10-.002-3.998A1.999 1.999 0 0043.998 30zM14 31v-6l3.5 3.603v-3.48l1-.123v6L15 27.471v3.397L14 31zm33.5 0l1-.132V27.47L52 31v-6l-1 .122v3.48L47.5 25v6zm-23.302-.87c-.551.538-1.31.87-2.148.87-1.685 0-3.05-1.343-3.05-3s1.365-3 3.05-3c.807 0 1.54.308 2.086.812l-.703.793a2 2 0 10-.235 2.997v-1.07H21.63l.27-1h2.298v2.598zM28.184 25H25v6h3.362l.205-1H26v-1.532H28v-1h-2.001V26h2.39l-.205-1zm5.898 0h2.59l.205 1h-2.391v1.468h2.001v1h-2.001V30h2.568l-.205 1h-3.363v-6h.596zm-3.314 6l-2.342-5.779L29.432 25l1.337 3.372L32.053 25l1.047.221L30.768 31zm9.813-4.252c-.047-1.805-2.114-1.867-3.142-1.672V31l1.001-.181v-2.196L40.01 31l1.017-.242-1.63-2.388c.986-.395 1.2-1.246 1.184-1.622zm-.987.025c-.006-.74-.772-.814-1.154-.758v1.62c.388.021 1.16-.122 1.154-.862z" fill="#000"/></svg>