<!-- by TradingView --><svg width="56" height="56" viewBox="0 0 56 56" xmlns="http://www.w3.org/2000/svg"><path fill="url(#ahy05u1ay)" d="M0 0h56v56H0z"/><path fill-rule="evenodd" d="M43.88 21.63 28.56 12 23 13.34V46l18.46-14.1 2.53-10a.26.26 0 0 0-.11-.27Zm-15.34 4.92-5.07-11.88V43.9l5.07-17.35Zm12.26 5.28L23.66 44.9l5.28-18.06 11.86 4.98Zm-.15-.57-11.63-4.88L29 13.53l11.65 17.73Zm.51-.07L29.3 13.02l14.2 8.93-2.34 9.25Zm-12.63-5.85V12.67l-4.97 1.02 4.97 11.65ZM22 14.02c0-.02-.03-.03-.04-.01L12 23v.02l4.69 7.3h.01L21.97 32c.01 0 .03 0 .03-.02V14.02Zm-9.2 9.3c-.02 0-.03.01-.02.03l3.9 6.07c.02.02.05.01.05 0l.87-5.78c0-.02 0-.03-.02-.03l-4.78-.3ZM17.16 30a.02.02 0 0 1-.02-.03l.85-5.66c0-.02.04-.03.05 0l3.25 6.95c0 .02-.01.04-.03.03l-4.1-1.3Zm.57-6.85-.03.01-4.78-.3c-.02 0-.03-.02-.01-.03L21 15.5c.02-.02.05 0 .04.02l-3.32 7.63Zm3.73-7.37c.01-.02.05-.02.05 0v14.7c0 .03-.03.04-.05.02l-3.3-7.1v-.01l3.3-7.6Z" fill="#F5F5F5"/><defs><linearGradient id="ahy05u1ay" x1="10.42" y1="9.71" x2="68.15" y2="76.02" gradientUnits="userSpaceOnUse"><stop stop-color="#1A1E21"/><stop offset="1" stop-color="#06060A"/></linearGradient></defs></svg>