<!-- by TradingView --><svg width="56" height="56" viewBox="0 0 56 56" xmlns="http://www.w3.org/2000/svg"><path fill="#F0F3FA" d="M0 0h56v56H0z"/><path d="M4.48 24c.25 0 .52.2.52.44V31h2.54c.26 0 .46.26.46.5 0 .25-.2.5-.46.5H4.61a.6.6 0 0 1-.61-.6v-6.96c0-.24.23-.44.48-.44ZM9.5 24c.28 0 .5.2.5.43v7.14c0 .24-.22.43-.5.43s-.5-.2-.5-.43v-7.14c0-.24.22-.43.5-.43ZM12.34 24.02c.24-.07.49.06.56.29l1.93 6.07 1.73-6.06a.45.45 0 0 1 .55-.3c.24.06.38.3.32.53l-2 7.02c-.16.56-.98.58-1.16.02l-2.23-7.03a.43.43 0 0 1 .3-.54Z" fill="#29ABE2"/><path d="M21 26.15c0-1.19.9-2.15 2-2.15h.17c1.01 0 1.83.92 1.83 2h-.55c0-.76-.57-1.4-1.28-1.4H23c-.8 0-1.45.69-1.45 1.55v3.7c0 .86.65 1.56 1.45 1.56h.2c.7 0 1.25-.67 1.25-1.41H25c0 1.07-.8 2-1.8 2H23c-1.1 0-2-.96-2-2.15v-3.7Z" fill="#7ABFEA"/><path fill-rule="evenodd" d="m27.1 29.65 1.14-4.5 1.13 4.5H27.1Zm-.14.57L26.5 32h-.6L28 24h.5l2.04 8h-.57l-.45-1.78h-2.55ZM44.35 29.65l1.14-4.5 1.13 4.5h-2.27Zm-.14.57L43.76 32h-.6l2.08-8h.5l2.05 8h-.58l-.45-1.78h-2.55ZM32.53 24.6h1.34c.73 0 1.33.7 1.33 1.54v.12c0 .85-.6 1.54-1.33 1.54h-1.34v-3.2ZM32 27.95V24h1.87c1.03 0 1.86.96 1.86 2.14v.12c0 1.18-.83 2.14-1.86 2.14h-1.35V32H32v-4.05Z" fill="#7ABFEA"/><path fill="#7ABFEA" d="M37 24h.48v8H37zM41.2 24h-1.93v.56h1.46V32h.48v-7.44h1.46V24H41.2ZM49.53 24H49v8h3v-.56h-2.47V24Z"/></svg>