<!-- by TradingView --><svg width="56" height="56" viewBox="0 0 56 56" xmlns="http://www.w3.org/2000/svg"><path fill="url(#apq5vii0p)" d="M0 0h56v56H0z"/><path fill-rule="evenodd" d="M9 20H6v14h3V20Zm5.85 4a4.64 4.64 0 0 0-3.36 1.37 5.03 5.03 0 0 0-1.36 2.46 5.25 5.25 0 0 0 1.36 4.8c.77.78 1.8 1.26 2.88 1.35.23.02.46.02.69.02h9.68c.51 0 1.03 0 1.53-.12a4.83 4.83 0 0 0 3.29-2.78c.49-1.1.57-2.37.24-3.53a5.04 5.04 0 0 0-1.5-2.4A4.65 4.65 0 0 0 25.27 24H14.85ZM13 29a2.16 2.16 0 0 1 2.08-2h9.76c1.23 0 2.18.7 2.16 2-.01 1.14-.89 1.97-2.14 2h-9.5c-1.33 0-2.46-.6-2.36-2Zm26.07-3.94a5 5 0 1 0-6.14 7.88 5 5 0 0 0 6.14-7.88ZM36 31a2 2 0 1 0 0-4 2 2 0 0 0 0 4Zm6-7a485.32 485.32 0 0 0 3 0v.47a5.02 5.02 0 0 1 6.05 1.47c.66.85 1 1.9.95 2.95-.11 2.49-1.59 4.59-4.1 5.01a4.74 4.74 0 0 1-2.9-.39V37h-3V24Zm7 5a2 2 0 1 1-4 0 2 2 0 0 1 4 0Z" fill="#fff"/><defs><linearGradient id="apq5vii0p" x1="10.42" y1="9.71" x2="68.15" y2="76.02" gradientUnits="userSpaceOnUse"><stop stop-color="#1A1E21"/><stop offset="1" stop-color="#06060A"/></linearGradient></defs></svg>