<!-- by TradingView --><svg width="56" height="56" viewBox="0 0 56 56" xmlns="http://www.w3.org/2000/svg"><path fill="#F0F3FA" d="M0 0h56v56H0z"/><path d="M18 35.12 16.77 38C12.59 33.12 12 28 12 24.3c0-3.71.74-8.24 2.02-11.3-1.1 14.54 2.11 20.59 3.98 22.12Z" fill="#D6762E"/><path d="M18.87 33c-3.57-4.3-4.04-10.46-3.83-13 1.85 7.45 4.08 10.74 4.96 11.46-.18.26-.66.94-1.13 1.54ZM23.54 38H20c.31-1.09 2.45-7.56 4.06-7.96C37.14 26.89 39.06 16.64 40 14c-.05 6.07-2.45 13.06-4.8 15.4-2.34 2.36-7.02 2.64-8.69 3.27-1.33.5-2.53 3.76-2.97 5.33Z" fill="#D6762E"/><path d="M26.94 38H25c1.18-5.05 6.94-3.65 10.11-6.5 5.25-4.72 5.66-11.67 5.81-12.96.27-2.2.83-7.31 1.08-9.54v9.54c0 5.94-3.23 10.88-5 13.29-1.77 2.4-7.04 3.35-8.32 3.59h-.02c-1 .18-1.56 1.8-1.72 2.58Z" fill="#D6762E"/><path d="M21 19.29c0-2.14 1.88-5.09 2.82-6.29-.34.78-1.03 2.77-1.03 4.43 0 2.08 2.21 4.54 2.21 6.45A6.4 6.4 0 0 1 23.82 27C23.1 22.08 21 21.97 21 19.29Z" fill="#398743"/><path fill-rule="evenodd" d="M43 39H13v4h30v-4Zm-27.73 1H15v2h1v-.34h-.73V40Zm6.43 0a1.6 1.6 0 0 1 .92.29c.12.09.21.2.28.31.07.13.1.26.1.4s-.03.27-.1.39-.16.23-.28.32a1.6 1.6 0 0 1-.92.3H21v-2.01h.7Zm-.26 1.66h.26c.12 0 .23-.01.33-.05.1-.03.2-.08.27-.14a.67.67 0 0 0 .19-.2.52.52 0 0 0 .07-.27c0-.1-.03-.19-.07-.27a.63.63 0 0 0-.19-.2.83.83 0 0 0-.27-.14c-.1-.03-.21-.05-.33-.05h-.26v1.32Zm8.05-.82h-.89v-.5H30V40h-2v2h.6v-.82h.9v-.34ZM34 40h.55v1.66H36V42h-2v-2Zm7.31.02a1.64 1.64 0 0 0-.64.02c-.1.03-.2.06-.27.1a.51.51 0 0 0-.17.17.38.38 0 0 0-.06.2c0 .1.03.18.08.25.06.07.13.13.21.17a3.93 3.93 0 0 0 .78.22.8.8 0 0 1 .16.06c.06.03.1.06.13.1.03.03.05.07.05.12 0 .08-.05.14-.15.19a1.35 1.35 0 0 1-.82 0c-.12-.03-.22-.09-.3-.15l-.31.22c.2.2.54.31 1.04.31.11 0 .22 0 .34-.03.1-.02.21-.05.3-.1.1-.04.17-.1.23-.18a.44.44 0 0 0 .09-.28c0-.1-.02-.19-.07-.25a.57.57 0 0 0-.2-.17 1.15 1.15 0 0 0-.27-.12 6.55 6.55 0 0 0-.72-.2.36.36 0 0 1-.11-.06.13.13 0 0 1-.04-.1.1.1 0 0 1 .03-.07.31.31 0 0 1 .1-.06.75.75 0 0 1 .3-.06c.12 0 .22.02.31.05.1.04.18.08.25.14l.31-.23a.87.87 0 0 0-.15-.1 1.33 1.33 0 0 0-.43-.15Z" fill="#D6762E"/></svg>