<!-- by TradingView --><svg width="56" height="56" viewBox="0 0 56 56" xmlns="http://www.w3.org/2000/svg"><path fill="#F0F3FA" d="M0 0h56v56H0z"/><path fill-rule="evenodd" d="M28 45a17 17 0 1 0 0-34 17 17 0 0 0 0 34Zm0-2a15 15 0 1 0 0-30 15 15 0 0 0 0 30Z" fill="#3E677D"/><path d="M18.72 17.09c.44-.18.94-.08 1.27.27L27 24l-1.5 1.5L20 20v17.82c0 .65-.36 1.18-1 1.18s-1-.53-1-1.18V18.18c0-.48.29-.91.72-1.1ZM36 23.3v14.53c0 .65.45 1.17 1 1.17s1-.52 1-1.17V21l-2 2.3Z" fill="#3E677D"/><path d="M37.67 17.35c.44.46.44 1.2 0 1.66L29.5 27.5c1.6 1.72 3.5 3.51 3.5 6.1 0 2.78-2.4 5.4-5 5.4-2.95 0-5-2.63-5-5.4 0-1.73.89-3.5 2.07-4.68l11.02-11.57a1.08 1.08 0 0 1 1.58 0ZM28 29c-1.21 1.27-3 2.62-3 4.6 0 1.45 1.27 3.4 3 3.4 1.38 0 3-1.9 3-3.4 0-1.83-1.89-3.4-3-4.6Z" fill="#58BCC0"/></svg>