<!-- by TradingView --><svg width="56" height="56" viewBox="0 0 56 56" xmlns="http://www.w3.org/2000/svg"><path fill="#F0F3FA" d="M0 0h56v56H0z"/><path d="M5.27 28.3 6.42 30h-.69l-1.06-1.64h-.1V30H4v-4h.66c.5 0 .85.1 1.07.3.24.22.37.51.37.87 0 .29-.08.53-.23.73-.15.2-.35.34-.6.4Zm-.7-.46h.17c.54 0 .8-.22.8-.66 0-.4-.25-.61-.77-.61h-.2v1.27ZM22 27.6l1.45-1.6h.75l-1.69 1.81 1.7 2.19h-.75l-1.35-1.78-.12.12V30h-.56v-4h.56v1.6ZM19.7 28.3l1.16 1.7h-.7l-1.06-1.64H19V30h-.57v-4h.67c.49 0 .85.1 1.07.3.24.22.36.51.36.87 0 .29-.08.53-.23.74a1 1 0 0 1-.6.39Zm-.7-.46h.18c.53 0 .8-.22.8-.66 0-.4-.26-.61-.78-.61H19v1.27ZM16.76 29h-1.6l-.42 1h-.6l1.84-4 1.8 4h-.63l-.39-1Zm-.23-.5-.56-1.23-.58 1.22h1.14ZM9.66 30l.79-4 1.28 2.77L13.06 26l.71 4h-.58l-.36-2.32-1.1 2.32-1.08-2.32-.4 2.32h-.59ZM9 26.57H7.55v.88h1.46V28H7.55v1.43H9V30H6.99v-4H9v.57Z" fill="#105469"/><path d="M26.62 27.56h1.76V26H29v4h-.62v-1.87h-1.76V30H26v-4h.62v1.56ZM51.9 26.65l-.45.28a.81.81 0 0 0-.25-.3.57.57 0 0 0-.31-.08.57.57 0 0 0-.39.14c-.1.09-.16.2-.16.34 0 .19.14.34.41.45l.37.16c.3.12.53.28.67.46s.21.4.21.67c0 .36-.11.65-.34.88-.23.23-.52.35-.86.35-.33 0-.6-.1-.8-.3-.22-.2-.35-.47-.4-.83l.57-.13c.03.22.08.38.14.47.12.16.29.24.5.24.18 0 .33-.06.45-.18a.64.64 0 0 0 .17-.46.67.67 0 0 0-.03-.2.53.53 0 0 0-.1-.18.75.75 0 0 0-.16-.14 1.66 1.66 0 0 0-.24-.13l-.36-.16c-.51-.22-.77-.55-.77-.98 0-.29.1-.53.32-.73.22-.2.48-.29.8-.29.44 0 .77.22 1.01.65ZM47.67 28h1.69v.05c0 .29-.04.54-.1.77a1.9 1.9 0 0 1-1.8 1.18 2.06 2.06 0 0 1-2.1-2c0-.55.2-1.03.62-1.41.42-.4.92-.59 1.52-.59.32 0 .62.06.9.18.26.13.52.33.77.6l-.43.4a1.52 1.52 0 0 0-1.23-.63c-.44 0-.8.14-1.1.42-.28.28-.41.62-.41 1.04 0 .43.14.78.47 1.06.3.26.64.39 1 .39.3 0 .57-.1.81-.3.25-.19.38-.42.4-.69h-1.01V28ZM41.43 30v-4l2.94 2.7V26H45v4l-3-2.7V30h-.57ZM40 26h.57v4H40v-4ZM36.44 30v-4h.78c.38 0 .68.04.9.12.23.08.44.21.63.4.39.37.58.87.58 1.48s-.2 1.11-.6 1.5c-.2.18-.42.31-.64.39-.2.07-.5.11-.88.11h-.77Zm.56-.57h.26c.25 0 .46-.03.63-.08.17-.06.32-.16.45-.29.28-.27.42-.62.42-1.06 0-.44-.14-.8-.41-1.07-.25-.24-.61-.36-1.1-.36H37v2.86ZM34.57 26v3.43h1.1V30H34v-4h.57ZM29.42 27.98c0-.54.2-1 .6-1.4.38-.39.86-.58 1.4-.58.55 0 1.02.2 1.41.59.4.4.59.86.59 1.41 0 .56-.2 1.03-.6 1.42-.39.39-.86.58-1.42.58-.5 0-.94-.17-1.33-.52a1.9 1.9 0 0 1-.65-1.5ZM30 28c0 .43.14.78.43 1.05.28.28.6.41.98.41.4 0 .74-.13 1.01-.41.28-.29.41-.63.41-1.04a1.42 1.42 0 0 0-1.4-1.45c-.4 0-.74.14-1.02.42a1.4 1.4 0 0 0-.4 1.02Z" fill="#231F20"/></svg>