<!-- by TradingView --><svg width="56" height="56" viewBox="0 0 56 56" xmlns="http://www.w3.org/2000/svg"><path fill="#F0F3FA" d="M0 0h56v56H0z"/><path d="M9 39V17h6.26l4.1 14.83L23.6 17H30v22h-4V21.78L21.32 39h-4.44L13 21.78V39H9Zm24.58-16.97 3.58.99c.2-.99 1.1-2.96 3.18-2.96 2.6 0 2.89 2.1 2.89 2.63 0 .52-.24 2.46-4.23 3.77v2.22c.3-.09 1.1-.27 1.8-.27.87 0 3.31.35 3.31 3.77 0 2.74-2.2 3.82-3.3 3.82-1.15 0-3.44-.72-3.44-3H33c.4 2.08 2.5 6 7.8 6s7-4.55 7.2-6.82a5.58 5.58 0 0 0-3.89-5.29c.99-.58 2.96-2.3 2.96-4.5 0-2.73-1.98-5.39-6.73-5.39a7 7 0 0 0-6.77 5.03Z"/></svg>