<!-- by TradingView --><svg xmlns="http://www.w3.org/2000/svg" width="56" height="56" viewBox="0 0 56 56"><path fill="#F0F3FA" d="M0 0h56v56H0z"/><path d="M10 24v3H7v-3H6v7h1v-3h3v3h1v-7h-1zm5 0v7h5v-1h-4v-2h4v-1h-4v-2h4v-1h-5zm9 0v7h4v-1h-3v-6h-1zm16 7h1v-7h-1v7zm-6-1c.55 0 1-.16 1-1 0-.66-.43-1-1-1h-2v2h2zm0-3c.5 0 1-.24 1-1 0-.67-.5-1-1-1h-2v2h2zm-3-3h3c1.3 0 2 .88 2 1.81 0 .88-.35 1.47-1 1.6.73.12 1 .87 1 1.73 0 1.05-.7 1.86-2 1.86h-3v-7zm17.53 1L45 30v1h5v-1h-3.42L50 25v-1h-5v1h3.53z"/></svg>