<!-- by TradingView --><svg width="56" height="56" viewBox="0 0 56 56" xmlns="http://www.w3.org/2000/svg"><path fill="#F0F3FA" d="M0 0h56v56H0z"/><path fill-rule="evenodd" d="M42.54 23.93c.46-.88.65-1.9.22-2.8A16.17 16.17 0 0 0 28.16 12 16.08 16.08 0 0 0 12 28c0 8.84 7.24 16 16.16 16 5.96 0 11.17-3.2 13.97-7.95.5-.86.4-1.9.02-2.81a10.87 10.87 0 0 1 .39-9.31ZM19 19.5v-1h1v.5h7v1h-7.5a.5.5 0 0 1-.5-.5Zm0 2c0-.28.22-.5.5-.5h7c.28 0 .5.22.5.5V23h.5v1H27v3c0 .37-.05.84-.26 1.23-.21.42-.62.77-1.24.77H23v-1h2.5c.18 0 .27-.07.36-.23.1-.19.14-.47.14-.77v-5h-2.73l-1.34 2H24a.5.5 0 0 1 .4.8l-.9 1.2H25v1h-4.5c-.56 0-.96-.25-1.2-.58-.23-.31-.3-.67-.3-.92V24h-.5v-1h.5v-1.5Zm4 3.5h-2a.5.5 0 0 1-.42-.78L22.07 22H20v3.5c0 .09.03.23.1.33.06.08.16.17.4.17h1.75l.75-1Zm13.96-1a3.5 3.5 0 1 1 0-1H33v1h3.96Zm1.04-.5a4.5 4.5 0 1 1-9 0 4.5 4.5 0 0 1 9 0Zm-7.92 5.72-1 1.5a.5.5 0 0 0 .42.78h3v-1h-2.07l.49-.72-.84-.56Zm-8.73 1.13L20 31.71V39h-1v-6.3l-.65.65-.7-.7 3-3 .7.7Zm3.23-.07 1 1.5.84-.56-1-1.5-.84.56ZM22 30v2h-1v1h1v.5a9.8 9.8 0 0 1-.29 2.16 7.09 7.09 0 0 1-1.11 2.54l.8.6a8.08 8.08 0 0 0 1.29-2.9c.23-.97.31-1.86.31-2.4V33h4v-1h-4v-2h-1Zm8 3.5c0-.09.03-.23.1-.33.06-.08.16-.17.4-.17h1c.09 0 .23.03.33.1.08.06.17.16.17.4 0 .09-.03.23-.1.33-.06.08-.16.17-.4.17h-1v1h1c.56 0 .96-.25 1.2-.58.23-.31.3-.67.3-.92 0-.56-.25-.96-.58-1.2-.31-.23-.67-.3-.92-.3h-1c-.56 0-.96.25-1.2.58-.23.31-.3.67-.3.92v2c0 .56.25.96.58 1.2.31.23.67.3.92.3h2v-1h-2a.62.62 0 0 1-.33-.1c-.08-.06-.17-.16-.17-.4v-2Zm-6 0v4c0 .25.07.6.3.92.24.33.64.58 1.2.58.9 0 1.5-.4 1.5-1v-1h-1v.91c-.05.03-.2.09-.5.09-.24 0-.34-.09-.4-.17a.62.62 0 0 1-.1-.33v-4h-1Zm8.5 4.5H29v1h3.5v-1Zm1.55-6.78-.5-1 .9-.44.5 1-.9.44Zm1.5-.44.5-1 .9.44-.5 1-.9-.44ZM35 33h-1.5v-1h4v1H36v1h1.5v1H36v1h1.5v1H36v2h-1v-2h-1.5v-1H35v-1h-1.5v-1H35v-1Z" fill="#EF0071"/></svg>