<!-- by TradingView --><svg width="56" height="56" viewBox="0 0 56 56" xmlns="http://www.w3.org/2000/svg"><path fill="#F0F3FA" d="M0 0h56v56H0z"/><path d="m36.38 22 .02-.34v-.03c-.03-.35-.09-.7-.17-1.03a1.54 1.54 0 0 0-.21-.49 1.12 1.12 0 0 0-.55-.4c-.2-.07-.4-.12-.6-.15l-.8-.1c-.05 0-.1 0-.18-.02l.44-.04c.28-.03.56-.07.83-.13.18-.04.35-.1.51-.19.2-.1.34-.26.44-.45.07-.16.12-.32.16-.49l.1-.6.06-.54c.02.01.01.04.02.06l.06.57c.03.27.08.54.17.8l.12.27c.12.2.32.37.55.46.2.08.41.13.62.16.27.05.53.08.8.1l.2.02c-.13.03-.26.03-.38.04l-.7.1c-.18.03-.34.08-.5.13a1.13 1.13 0 0 0-.7.7 3.1 3.1 0 0 0-.14.57l-.08.65v.03c.02.02.04.34.06.34h5.85c.02.27.05.26.02.53h-6.3a.62.62 0 0 1-.22-.04.39.39 0 0 1-.23-.2 1.91 1.91 0 0 1-.1-.46.23.23 0 0 0-.04-.1l-.02.16-.06.3c-.03.1-.1.2-.2.26a.6.6 0 0 1-.29.08H27.6l-2-.01h-1.3l-.1.01a1.67 1.67 0 0 1-.34-.12c-.29-.15-.36-.14-.52-.41h13.04ZM46.05 22.5A6.08 6.08 0 0 1 49 27.8c0 2.66-2.48 5.7-5.04 6.2l.18-1c1.94-.26 3.86-3.75 3.86-5.38 0-1.56-.9-3.05-2.15-3.95v-.12l.05-.21c.01-.13.05-.26.07-.39l.08-.45Z" fill="#E30021"/><path d="m46.05 22.5-.08.45c-.02.13-.06.26-.07.39l-.04.21a.38.38 0 0 0-.01.12l-.02.01v.02l-.08.43-.03.19-.07.38-.07.35-.06.38-.05.23-.07.39-.06.33-.06.38-.07.36-.1.55-.07.36-.06.38-.1.53-.08.49-.13.65a120.53 120.53 0 0 0-.18 1.04l-.07.37c-.03.17-.07.34-.09.52l-.07.35a112.3 112.3 0 0 0-.18 1.01l-.07.37-.05.26h-.9c-.3-.52-.03-1.66-.06-2.25l-.05-.65-.03-.52v-.02c-.03-.21-.03-.43-.05-.64 0-.18-.02-.35-.03-.52l-.03-.48c0-.11 0-.22-.02-.33a14.9 14.9 0 0 1-.05-.9l-.03-.42-.03-.5v-.02l-.03-.33-.02-.5v-.03c-.02-.13-.03-.25-.03-.38l-.03-.48v-.02a2.86 2.86 0 0 1-.03-.35c0-.17-.03-.34-.03-.5v-.02l-.03-.5c-.02-.15-.01-.3-.03-.44-.02-.13-.02-.27-.03-.4l-.02-.27v-.2l-.01-.04-.02-.42-.02-.2-.01-.18v-.03c0-.15-.01-.29-.03-.43 0-.12 0-.24-.02-.36-.01-.1 0-.2-.02-.3l-.02-.32a4.2 4.2 0 0 1-.03-.48c.14-.03.28-.08.4-.13l4.05-.56a.05.05 0 0 1 .03.06c-.05.23-.1.46-.13.7l-.07.34-.06.37-.06.35c-.03.12-.06.25-.07.38l-.04.22-.07.38-.03.15-.08.46-.04.2Zm-3.47-2.7V20.2c.03.12.01.24.03.36a1.78 1.78 0 0 1 .02.37 1 1 0 0 1 .02.27v.09c.02.06.02.11.02.17v.26l.02.25.01.15c.02.06.02.12.02.18a7.14 7.14 0 0 0 .07 1.17l.01.25c.03.13 0 .26.03.4.01.05 0 .1.02.16s.02.12.02.19c-.01.2.03.39.02.58v.05a.4.4 0 0 1 .02.13v.29l.02.27.01.15c.02.06.03.12.02.18v.13a4.07 4.07 0 0 1 .03.48l.03.28v.2l.02.15c-.01.08 0 .16.01.24v.28l.02.1c.03.15.05.29.04.43v.15c.02.06.02.11.02.17 0 .08 0 .15.02.23v.37c.03.11.04.22.03.33l.01.12c.01.04.02.08.01.12v.26c.02.08.03.16.02.24l.03.24v.34a.8.8 0 0 1 .03.18c-.01.09 0 .18.02.26v.07a29.68 29.68 0 0 1 .01.32c.02.07.03.14.02.21 0 .09 0 .17.02.25l.02.24c0 .19.03.38.02.57l.01.05c.02.08.03.17.03.25v.18c0 .06 0 .1.03.15.07-.01.14.03.22.01a.45.45 0 0 0 .03-.08c0-.14.05-.28.07-.41l.08-.46.07-.4.06-.31c.02-.07.01-.14.03-.2a.67.67 0 0 0 .04-.23v-.06a204.27 204.27 0 0 1 .15-.68c0-.1.05-.2.04-.3.04-.13.04-.27.08-.4a.41.41 0 0 0 .02-.12c0-.12.05-.22.05-.34.05-.18.07-.37.12-.55.01-.05 0-.1.02-.15l.04-.24c.02-.06.02-.12.03-.19.03-.1.04-.21.06-.32l.05-.33.04-.14c0-.11.05-.22.05-.33l.06-.3.05-.3c.02-.16.07-.33.1-.5l.06-.35.04-.23a4.4 4.4 0 0 1 .09-.47l.07-.41c.02-.18.07-.34.1-.52.02-.1.04-.21.04-.32.05-.15.05-.3.09-.45.04-.1.06-.22.06-.33.05-.15.04-.3.09-.45v-.02c.01-.15.04-.3.08-.44l.06-.34.07-.38.1-.56c0-.14.05-.29.08-.43l.03-.15.08-.48.02-.08c0-.13.05-.26.07-.4l.04-.3-.02-.02c-.08.03-.17.04-.27.05-.16.01-.31.06-.47.06-.12 0-.23.04-.34.04-.13.01-.25.04-.38.06a3.17 3.17 0 0 0-.53.09c-.08 0-.16 0-.24.02-.11.03-.23.03-.34.05l-.28.04a.65.65 0 0 1-.12.01h-.09a1.9 1.9 0 0 1-.33.05c-.1.01-.2.07-.3.09ZM48.1 35.95a.07.07 0 0 1-.01-.07c.03-.03.06-.02.1-.02a1.5 1.5 0 0 0 .94-.33 2.36 2.36 0 0 0 .86-1.66c0-.01 0-.03.02-.04a.07.07 0 0 1 .06 0l.01.02a3 3 0 0 0 .15.62c.09.28.24.54.43.77a1.52 1.52 0 0 0 1 .6c.11.02.22.01.32.02.03.03.02.05.02.07-.02.02-.04.02-.06.02-.4.02-.78.17-1.08.43a2 2 0 0 0-.78 1.61.06.06 0 0 1-.07 0l-.01-.02a1.97 1.97 0 0 0-.54-1.36 2.35 2.35 0 0 0-.44-.38 1.65 1.65 0 0 0-.93-.28ZM43.45 37.44h-.1a3.77 3.77 0 0 1-2-.61 1.16 1.16 0 0 1-.4-.53.79.79 0 0 1 .07-.68c.1-.16.24-.3.4-.41.3-.2.63-.35.98-.43a4.08 4.08 0 0 1 1.56-.1c.2.02.38.05.56.1.35.07.68.22.97.42.17.11.31.26.41.44a.8.8 0 0 1 .04.74c-.1.2-.24.36-.41.49a3.53 3.53 0 0 1-1.29.5c-.12.03-.24.04-.36.05-.14.02-.28.01-.43.02Zm0-.3a3.66 3.66 0 0 0 1.4-.24c.2-.08.39-.18.56-.31.12-.1.21-.22.27-.36a.5.5 0 0 0 .03-.3.57.57 0 0 0-.14-.26c-.1-.11-.21-.21-.34-.3a3.06 3.06 0 0 0-1.14-.39 5.68 5.68 0 0 0-.68-.04l-.25.02a3.46 3.46 0 0 0-1.07.22c-.21.08-.41.2-.6.34-.1.08-.18.19-.24.31-.05.1-.06.2-.04.3.02.12.07.22.15.3.13.15.29.27.47.36a3.15 3.15 0 0 0 1.62.35ZM23.14 21.67c0 .04.01.07.03.1a1.68 1.68 0 0 0 1.24.8l.09.03c-.4.04-.78.2-1.06.49-.29.28-.46.65-.5 1.05a1.68 1.68 0 0 0-1.55-1.54.66.66 0 0 1 .12-.03c.06 0 .13-.02.18-.05.06 0 .1-.01.16-.03.38-.14.7-.42.9-.77v-.05l.03-.02c.07-.15.12-.3.14-.47l.03-.12c0 .06.02.11.03.17.02.14.07.28.13.42l.03.02ZM48.42 32.97l.03.11c.03.2.12.4.25.56.07.1.17.17.27.23.08.05.17.07.27.08.04 0 .08 0 .11.03 0 .03-.03.02-.04.02a.88.88 0 0 0-.53.23 1 1 0 0 0-.35.71c0 .02 0 .04-.02.05-.02 0-.02-.02-.02-.04a1.04 1.04 0 0 0-.4-.76.82.82 0 0 0-.5-.19.03.03 0 0 1-.02-.01v-.01a.17.17 0 0 1 .1-.03.71.71 0 0 0 .45-.2c.2-.18.32-.42.36-.68 0-.04.01-.08.04-.1ZM51.14 32.74a.75.75 0 0 0-.46.23c-.12.13-.2.3-.2.47l-.02-.1a.7.7 0 0 0-.58-.58c-.02 0-.04 0-.05-.02l.03-.02a.54.54 0 0 0 .44-.23.8.8 0 0 0 .16-.39v-.04l.02-.01c.02.02.03.05.03.08.03.16.1.3.21.42a.5.5 0 0 0 .38.17.05.05 0 0 1 .04.02Z" fill="#FAD448"/><path d="M39.16 20.7c-.1 0-.2.02-.29.04a.3.3 0 0 0-.24.23l-.05.29a.3.3 0 0 1-.02-.11c0-.07-.02-.13-.04-.2a.29.29 0 0 0-.22-.21l-.3-.05.14-.02.18-.04a.29.29 0 0 0 .2-.2l.04-.2c0-.04 0-.08.02-.11 0 .12.03.23.07.35a.27.27 0 0 0 .16.15l.2.05c.05 0 .1 0 .15.02Z" fill="#E30021"/><path d="M21.7 22.52a.44.44 0 0 1-.19.05.66.66 0 0 0-.12.03 1.7 1.7 0 0 1 1.56 1.54c.03-.4.2-.77.49-1.05.28-.28.66-.45 1.06-.49a.45.45 0 0 0-.09-.02 1.2 1.2 0 0 1-.21-.05c.03-.02.06 0 .1 0l1.3-.01h2c2.4.02 4.81 0 7.22.01h.12l-.01.02h-.02l-.2.02a.4.4 0 0 0-.12.03c.08 0 .15.02.22.03.12 0 .24.03.35.08a.41.41 0 0 1 .24.21l.05.17.06.42a.09.09 0 0 0 .03-.06 1.51 1.51 0 0 1 .12-.55c.03-.07.1-.13.17-.17.13-.06.27-.1.41-.1l.22-.03a.4.4 0 0 0-.11-.02l-.21-.03h-.02l-.02-.02h6.3l.02.27c.01.13.01.27.03.4.02.14.01.3.03.44l.03.5v.01c0 .17.02.34.03.5a2.88 2.88 0 0 0 .03.38l.03.48.02.38v.03l.03.5.03.33v.02c0 .17.01.33.03.5.01.14 0 .28.03.43l.02.3a13.68 13.68 0 0 0 .05.92l.03.48.04.52c.01.21.01.43.04.64v.02l.03.52.05.65.02 1.52v.05l-.36.03h-.53c-5.7 0-11.38-.35-17.08-.35-4.12 0-8.25.36-12.37.36-2.71.03-6.45-2.54-5.66-5.78a4.6 4.6 0 0 1 1.16-3.15 5.27 5.27 0 0 1 2.3-1.54 6.22 6.22 0 0 1 2.09-.37H21.7Zm7.9 8.57.03.02.28.14h.04c.03.05.08.06.13.07l.26.12a4.1 4.1 0 0 0 1.58.34H33.56a.5.5 0 0 0 .46-.4l.01-.2a377.3 377.3 0 0 1 .01-1.6 3.22 3.22 0 0 0 .25.59c.2.34.45.65.76.9a3.38 3.38 0 0 0 1.51.7l.33.07.49.05h.42l.45-.05a5.79 5.79 0 0 0 1.98-.68c.53-.3.99-.69 1.37-1.15a3.84 3.84 0 0 0 .88-2.1v-.86a.1.1 0 0 0-.02-.05v-.1a2.9 2.9 0 0 0-1.35-2.18 3.73 3.73 0 0 0-1.63-.58 4.93 4.93 0 0 0-1.16 0 5.58 5.58 0 0 0-3.45 1.8 4.3 4.3 0 0 0-.9 1.77l-.05-.07a.48.48 0 0 0-.17-.15.6.6 0 0 0-.2-.06.52.52 0 0 0-.23-.09.38.38 0 0 0-.26-.1h-.63l-.46.01a.2.2 0 0 0-.2-.07c-.06-.01-.08-.06-.12-.09a.47.47 0 0 0-.14 0 .24.24 0 0 0-.11-.1l-.1.01a.15.15 0 0 0-.06.07c-.02.1-.01 1.96 0 2.03a.17.17 0 0 0 .12.08l.1-.03c.04.11.08.13.2.1l.03.01a.15.15 0 0 0 .13.12v.33l-.01.04a.2.2 0 0 1-.21.13l-.35-.02a1.84 1.84 0 0 1-.3-.04c-.18-.09-.35-.2-.5-.34-.27-.27-.48-.6-.6-.96a3.29 3.29 0 0 1-.12-1.65c.08-.44.27-.85.54-1.2.14-.18.3-.33.5-.45.33-.2.7-.32 1.1-.34h.97c.11-.01.22 0 .33.03.05.03.09.09.16.1l.04-.02.12.09a.12.12 0 0 0 .12.02.12.12 0 0 0 .07-.1V23.05a.15.15 0 0 0-.07-.14c-.1-.01-.1-.01-.16.03a.16.16 0 0 0-.08-.13.2.2 0 0 0-.13.02h-.04a.1.1 0 0 0-.05-.1.14.14 0 0 0-.06-.02l-.06.01-.11.1c-.14.09-.3.14-.46.14h-.78c-.2 0-.4 0-.6.03l-.38.06a3.88 3.88 0 0 0-2.7 2.03c-.15.27-.26.56-.35.86 0 .02 0 .05-.03.06a3.18 3.18 0 0 0-.66-.91l-.11-.1-.2-.16a3.44 3.44 0 0 0-1.3-.6 3.89 3.89 0 0 0-1.08-.13l-.25.02-.32.03-.33.05a5.5 5.5 0 0 0-2.34 1.06l-.22.2a3.81 3.81 0 0 0-.86.99 4.06 4.06 0 0 0-.52 1.17V23.9c0-.18.05-.36.17-.5a.44.44 0 0 0 .05-.06.1.1 0 0 0 0-.12.12.12 0 0 0-.05-.05.75.75 0 0 0-.18-.02.13.13 0 0 0-.06-.07.13.13 0 0 0-.09-.02h-.09c0-.05-.03-.07-.08-.1H17c-.11 0-.16.06-.16.18a.13.13 0 0 1 .03.13l-.1.11-.37.33-.45.4-.44.4-.45.42a.21.21 0 0 1-.1.06 2.2 2.2 0 0 1-.22-.2l-.6-.54-.37-.33-.49-.44c-.01-.02-.03-.03-.03-.05 0-.03.02-.05.04-.08a.12.12 0 0 0 0-.12.13.13 0 0 0-.1-.07h-.14a.13.13 0 0 0-.13-.1h-.1a.12.12 0 0 0-.11-.1h-2.06a.14.14 0 0 0-.14.07l-.02.06v.02c0 .03.01.05.03.07a.8.8 0 0 1 .2.56V30.92l-.01.09a.74.74 0 0 1-.18.35.2.2 0 0 0-.05.1.16.16 0 0 0 .09.12h.14c.04.02.03.08.08.09h.15l.04.08a.16.16 0 0 0 .13.03h1.95c.02 0 .05-.01.07-.03a.1.1 0 0 0 .03-.07v-.1l-.07-.07a.6.6 0 0 1-.14-.26 1.08 1.08 0 0 1-.03-.27V25.8c0-.03 0-.06.02-.08l.15.13.51.46.43.4.1.1.31.27.23.22a.2.2 0 0 0 .16.05c.03 0 .05.03.07.04a.21.21 0 0 0 .16.05l.05.04a.29.29 0 0 0 .4 0l.37-.34.38-.36.7-.64.27-.23v.11a13936.68 13936.68 0 0 1-.01 4.9.81.81 0 0 1-.06.21.98.98 0 0 1-.15.23.13.13 0 0 0-.01.16c0 .01 0 .02.02.03.05.02.11.03.17.02.03.03.05.08.1.1h.14l.03.06a.18.18 0 0 0 .15.04h1.94a.12.12 0 0 0 .1-.05.12.12 0 0 0 0-.11.23.23 0 0 0-.03-.06.74.74 0 0 1-.2-.53v-1.57c.02 0 .03.01.03.02l.01.05c.04.16.1.32.16.48.22.49.56.9 1 1.22.3.23.66.4 1.04.52a4.57 4.57 0 0 0 2.26.1 5.45 5.45 0 0 0 2.9-1.6 4.33 4.33 0 0 0 .89-1.46 3.77 3.77 0 0 0 1.77 2.24h.04c0 .04.03.04.06.04v.01h.01Z" fill="#4A9FD8"/><path d="M36.1 22.53a.05.05 0 0 0 .04.02l.2.03a.4.4 0 0 1 .12.02l-.22.03c-.14 0-.28.04-.41.1a.38.38 0 0 0-.18.17 1.51 1.51 0 0 0-.12.55c0 .02 0 .04-.02.06a3.78 3.78 0 0 0-.11-.59.4.4 0 0 0-.24-.21 1.23 1.23 0 0 0-.35-.08c-.07 0-.14-.03-.22-.03a.4.4 0 0 1 .13-.03l.19-.02h.02v-.02c.11 0 .22-.03.3-.08.1-.06.17-.15.2-.26l.06-.3.02-.16c.02.03.03.06.03.1a1.9 1.9 0 0 0 .11.46.39.39 0 0 0 .23.2c.07.02.14.04.22.04Z" fill="#FAD448"/><path d="M44.14 33c.09-.64.42-2.28.53-2.92l.12-.65.09-.49.1-.53.06-.38.07-.36.1-.55.07-.36.06-.38.06-.33.07-.4.05-.22.06-.38.07-.35.07-.38.03-.19a105.39 105.39 0 0 0 .1-.46c1.25.9 2.23 2.39 2.15 3.95.09 1.71-1.8 5.36-3.86 5.39Z" fill="#4A9FD8"/><path d="M42.58 19.8c.1-.01.2-.07.3-.08h.06l.27-.04h.09l.12-.02.28-.04c.11-.02.23-.02.34-.05l.24-.02.07-.01c.15-.04.3-.07.46-.08.13-.02.25-.05.38-.06.11 0 .22-.03.34-.04.16 0 .31-.05.47-.06.1 0 .19-.02.27-.05l.02.02-.04.3c-.02.14-.06.27-.07.4l-.02.08-.08.48-.03.15-.09.43c-.02.19-.05.37-.1.56 0 .13-.03.26-.06.38l-.06.34a2.78 2.78 0 0 0-.08.46c-.05.15-.04.3-.09.45 0 .11-.02.22-.06.33-.04.15-.04.3-.09.45 0 .1-.02.22-.05.32-.02.18-.07.34-.09.52a3.15 3.15 0 0 0-.07.42c-.04.15-.07.3-.09.46l-.04.23-.07.36c-.02.16-.07.33-.1.5 0 .09-.03.19-.04.29l-.06.3c0 .11-.05.22-.05.33 0 .04-.02.1-.04.14l-.05.33c-.02.1-.03.22-.06.32-.01.07 0 .13-.03.2l-.04.23c-.02.05 0 .1-.02.15-.05.18-.07.37-.12.55 0 .12-.05.22-.05.34 0 .04 0 .08-.02.12-.04.13-.04.27-.08.4 0 .1-.04.2-.04.3l-.02.07a.66.66 0 0 0-.04.17l-.01.1a204.16 204.16 0 0 1-.12.62c-.02.07-.01.14-.03.2l-.06.32-.07.4-.08.46c-.02.13-.06.27-.07.41 0 .03-.02.05-.03.08-.08.02-.15-.02-.22 0a.3.3 0 0 1-.03-.16v-.18c0-.08 0-.17-.03-.25v-.05c0-.19-.04-.38-.03-.57 0-.08 0-.16-.02-.24a1.69 1.69 0 0 1-.02-.25c0-.07 0-.14-.02-.21a24.74 24.74 0 0 0-.03-.65.8.8 0 0 0-.02-.18 1.06 1.06 0 0 1 0-.34.73.73 0 0 1-.04-.24l-.01-.24v-.26c0-.04 0-.08-.02-.12a.36.36 0 0 1 0-.12c0-.1 0-.22-.03-.33v-.3l-.01-.07a.77.77 0 0 1-.02-.23l-.01-.17v-.15c0-.14-.02-.28-.05-.42a.52.52 0 0 1-.01-.11v-.28a.84.84 0 0 1-.02-.24c0-.06 0-.1-.02-.16v-.19c0-.1 0-.19-.03-.28v-.05a4.1 4.1 0 0 0-.03-.56c0-.06 0-.12-.02-.18a.5.5 0 0 1-.01-.15c0-.1 0-.18-.02-.27v-.29c0-.04 0-.09-.02-.13v-.05c0-.2-.03-.39-.02-.58 0-.07 0-.13-.02-.2-.02-.05-.01-.1-.02-.16-.03-.13 0-.26-.03-.39a1.5 1.5 0 0 1 0-.25l-.01-.09a.68.68 0 0 1-.03-.22c0-.09 0-.18-.02-.27a.96.96 0 0 1 0-.19.4.4 0 0 0-.01-.13l-.01-.07a7.54 7.54 0 0 1-.02-.38.5.5 0 0 1-.01-.15c0-.08 0-.17-.02-.25v-.26c0-.06 0-.11-.02-.17v-.1a1 1 0 0 0-.02-.28c0-.12 0-.23-.02-.35-.02-.12 0-.24-.02-.36a2.59 2.59 0 0 1-.01-.4ZM43.45 37.14c-.16 0-.32 0-.48-.02-.4-.04-.79-.15-1.14-.33a1.51 1.51 0 0 1-.47-.36.65.65 0 0 1-.15-.3c-.02-.1 0-.2.04-.3a.91.91 0 0 1 .25-.31 2.88 2.88 0 0 1 1.67-.56l.24-.02c.23 0 .46.02.68.05a3.05 3.05 0 0 1 1.14.39c.13.08.24.18.34.3.07.06.12.15.14.25.02.1.01.2-.03.3a.97.97 0 0 1-.27.36 2.88 2.88 0 0 1-1.3.52c-.22.02-.44.04-.66.03ZM17.23 25.92c-.1.07-.18.15-.27.23a245.16 245.16 0 0 0-1.08 1c-.13.1-.25.22-.37.33a.29.29 0 0 1-.4 0c-.02 0-.03-.01-.05-.03l-.01-.02a736.87 736.87 0 0 0-1.65-1.51l-.24-.22c-.05-.04-.1-.07-.17-.03l-.03.02a.07.07 0 0 0-.02.04.14.14 0 0 0-.02.08v5.17l.03.27c.03.1.07.18.14.26l.06.07c.01.03.02.06.01.1a.1.1 0 0 1-.03.07.11.11 0 0 1-.07.03H11.1a.16.16 0 0 1-.13-.03l-.04-.07a.18.18 0 0 1 .06-.14.68.68 0 0 0 .16-.3c.02-.08.03-.17.03-.25v-7.1a.79.79 0 0 0-.17-.47l-.07-.1a.15.15 0 0 1 .06-.15c.04-.02.1-.03.15-.03H13.05l.13.01a.13.13 0 0 1 .11.07.12.12 0 0 1 0 .12c-.02.03-.04.05-.04.08 0 .02.02.03.03.05l.49.44.37.33.6.55.22.2a.6.6 0 0 0 .11.1.27.27 0 0 0 .25.1.3.3 0 0 0 .18-.07l.16-.14a2128.73 2128.73 0 0 1 1.68-1.55c.01-.04-.02-.07-.04-.1a.14.14 0 0 1 .07-.17l.14-.02H19.41c.07 0 .13 0 .19.02l.05.05a.1.1 0 0 1 0 .12.45.45 0 0 1-.05.06.74.74 0 0 0-.17.5v3.86c-.04.1-.05.2-.05.3a5.9 5.9 0 0 0 0 .63c.01-.06 0-.13.02-.2 0-.1.03-.2.04-.3l.13-.45a4.25 4.25 0 0 1 1.73-2.17 5.65 5.65 0 0 1 2.87-.96c.47-.02.94.04 1.4.17.67.19 1.26.58 1.69 1.12a2.85 2.85 0 0 1 .59 2.3l-.04.25-.1.35-.21.48c-.18.35-.41.68-.68.97a5.23 5.23 0 0 1-3.51 1.7 4.37 4.37 0 0 1-1.65-.19 3.47 3.47 0 0 1-1.05-.52 2.98 2.98 0 0 1-1.16-1.75l-.02-.02v1.57c-.01.2.06.38.19.53l.04.06a.12.12 0 0 1-.05.15.12.12 0 0 1-.06.01H17.6a.18.18 0 0 1-.14-.04l-.03-.06v-.08l.07-.1c.13-.14.2-.33.2-.52v-5.13c0-.05-.01-.1-.04-.14a.15.15 0 0 0-.15-.05 2.24 2.24 0 0 0-.28.26Zm-4.52 5.57-.02-.1a1.7 1.7 0 0 1-.07-.48 2505.6 2505.6 0 0 0 0-5.13.43.43 0 0 1 .52-.41c.1.02.17.07.24.13l.26.24.14.13c.11.09.2.2.31.28l.27.24.57.53a74.72 74.72 0 0 0 .37.34.21.21 0 0 0 .08-.06l.32-.3.4-.36.31-.3.14-.12.33-.3.38-.34a.4.4 0 0 1 .42-.1.4.4 0 0 1 .29.3l.02.2v5.04a1.56 1.56 0 0 1-.1.56l.05.01a1034.57 1034.57 0 0 0 1.26-.01v-.05c-.04-.1-.06-.22-.07-.33v-1.7c0-.17-.02-.34-.03-.5l-.03-.33v-.4l.03-.3.03-.3a1752.76 1752.76 0 0 1 0-3.8l.07-.27v-.06h-1.56a.3.3 0 0 0-.02.07.31.31 0 0 1-.1.17l-.09.09-.57.51-.29.27-.12.12-.3.26-.45.41a.61.61 0 0 1-.7.07l-.2-.16-.69-.63-.29-.27-.34-.3-.4-.36a.34.34 0 0 1-.13-.2.05.05 0 0 0-.02-.05H11.4v.06c.06.16.08.34.08.51v6.92c0 .17-.02.34-.07.5 0 .02-.02.03 0 .06h1.3Zm11.61-6.59c-.22 0-.44 0-.65.04l-.39.07a6.15 6.15 0 0 0-1.23.46 5.1 5.1 0 0 0-1.57 1.24 3.77 3.77 0 0 0-.8 2.04v.28l.01.17a2.67 2.67 0 0 0 1.44 2 3.62 3.62 0 0 0 1.33.42l.22.02a5.25 5.25 0 0 0 3.62-1.3 4.13 4.13 0 0 0 1.24-2.1 2.92 2.92 0 0 0 .03-.87c-.02-.12-.03-.23-.06-.33-.02-.1-.06-.2-.1-.3a2.75 2.75 0 0 0-1.03-1.27l-.14-.08a2.98 2.98 0 0 0-.97-.4l-.17-.02a3.04 3.04 0 0 0-.5-.07h-.28Z" fill="#E30021"/><path d="M31.82 29.38a.15.15 0 0 1-.13-.12V27.36l.01-.11a.2.2 0 0 1 .06-.07.2.2 0 0 1 .21.07.2.2 0 0 0 .1.07c.1.08.23.11.35.11H33.55a.6.6 0 0 1 .2.06c.07.04.13.09.17.15l.06.08v.07c-.02.09-.03.17-.03.26-.01.13 0 .25-.02.37v.03c.03-.01.03-.03.03-.05l.01-.15.07-.32.03-.1a4.12 4.12 0 0 1 1.14-1.79 5.22 5.22 0 0 1 2.5-1.31 5.13 5.13 0 0 1 1.84-.09c.34.05.67.15 1 .28.43.18.83.45 1.15.8a2.91 2.91 0 0 1 .73 2.55A3.84 3.84 0 0 1 41.6 30c-.38.46-.84.85-1.37 1.15a5.55 5.55 0 0 1-2.43.72h-.42a4.93 4.93 0 0 1-1.59-.36 3.38 3.38 0 0 1-.74-.45 2.96 2.96 0 0 1-.99-1.46c0-.01 0-.03-.02-.04v.11a686.02 686.02 0 0 0-.02 1.7.5.5 0 0 1-.46.4H31.92a4.09 4.09 0 0 1-1.58-.34l-.26-.12a.3.3 0 0 0-.13-.07c-.01-.03-.04-.04-.06-.05a3.85 3.85 0 0 1-1.45-1.57 4.92 4.92 0 0 1 .09-4.49 4.18 4.18 0 0 1 1.5-1.48 3.98 3.98 0 0 1 2.13-.52h.8a.68.68 0 0 0 .49-.2c.06-.04.06-.04.16-.03a.15.15 0 0 1 .08.14V25a.11.11 0 0 1-.08.1.12.12 0 0 1-.12-.02.48.48 0 0 0-.12-.09.45.45 0 0 0-.2-.08c-.1-.03-.22-.04-.33-.04h-.54l-.43.01c-.4.02-.77.14-1.1.34-.2.12-.36.27-.5.45-.27.35-.46.76-.54 1.2-.1.55-.06 1.12.13 1.65.11.36.32.69.6.96a1.98 1.98 0 0 0 .75.45l.09.04a2.29 2.29 0 0 0 .8.1.19.19 0 0 0 .17-.14.3.3 0 0 0 .02-.1v-.61a.07.07 0 0 0-.02-.06.28.28 0 0 0-.24.07.43.43 0 0 0-.09.09.2.2 0 0 1-.12.06Zm7.05-4.5c-.12 0-.24 0-.36.02-.2.02-.4.04-.58.08-.23.04-.46.1-.68.18l-.14.05-.37.16a4.86 4.86 0 0 0-.85.5l-.39.3a3.36 3.36 0 0 0-.72.85 8.02 8.02 0 0 0-.4.8l-.1.36a2.1 2.1 0 0 0-.04.56c-.03.18-.02.37.04.55.05.18.1.36.18.53.1.25.25.48.43.68.24.27.53.5.85.67a3.95 3.95 0 0 0 1.54.41l.16.01h.16l.32-.01.23-.02a6.18 6.18 0 0 0 1.42-.4c.22-.1.45-.21.66-.35l.18-.11a4.96 4.96 0 0 0 1.13-1.1 3.85 3.85 0 0 0 .58-1.27 3.14 3.14 0 0 0 .03-1.1 2.44 2.44 0 0 0-.35-.89 2.8 2.8 0 0 0-1.09-1.02 3.42 3.42 0 0 0-.91-.34c-.15-.02-.3-.06-.45-.07a3 3 0 0 0-.48-.03Zm-5.49-1.53-.05.01c-.14.05-.29.08-.44.08H31.96c-.13.02-.26.02-.4.03l-.24.03a3.88 3.88 0 0 0-1.37.54 3.35 3.35 0 0 0-.65.57c-.14.14-.26.3-.38.46l-.19.32-.17.35-.17.48c-.03.1-.06.2-.07.3a4.09 4.09 0 0 0-.07 1.32l.04.37a3.74 3.74 0 0 0 .32 1.07c.04.12.1.23.16.34l.16.26a3 3 0 0 0 .64.72 3.5 3.5 0 0 0 1.56.8c.26.06.53.09.8.09h1.56a.23.23 0 0 0 .23-.15v-.1c0-.66.03-1.32-.01-1.98l-.03-.28-.03-.45a5.18 5.18 0 0 1 .01-.74.3.3 0 0 0-.1-.06h-1.08c-.14 0-.27-.03-.4-.07-.03 0-.05-.03-.08-.02a18.8 18.8 0 0 0 0 1.26 2 2 0 0 1 .27-.05l.08.02a.3.3 0 0 1 .22.23l.02.18v.47c0 .1-.01.18-.04.27a.44.44 0 0 1-.26.3.54.54 0 0 1-.23.04 3.36 3.36 0 0 1-.93-.14 2.02 2.02 0 0 1-.6-.3 2.28 2.28 0 0 1-.75-.85 2.4 2.4 0 0 1-.22-.5 4.5 4.5 0 0 1-.18-1.1v-.2a3.4 3.4 0 0 1 .23-1.05c.1-.23.21-.44.36-.64a2.34 2.34 0 0 1 1.63-.97c.2-.03.38-.04.58-.04h.68c.1 0 .2.01.29.03.08.01.15.04.23.06v-1.3Z" fill="#E30021"/><path d="M33.45 22.94a.67.67 0 0 1-.48.2h-.81c-.17 0-.34 0-.5.02a3.98 3.98 0 0 0-3.68 3.56l-.02.19a4.92 4.92 0 0 0 .48 2.72 3.92 3.92 0 0 0 1.45 1.57c.02.02.05.02.06.05h-.04a2.12 2.12 0 0 1-.32-.16v-.01l-.02-.01a.04.04 0 0 0-.02-.03.05.05 0 0 0-.03 0c-.01-.05-.04-.05-.08-.04v-.03a.75.75 0 0 0-.1-.08 3.98 3.98 0 0 1-1.5-2.35c0-.03 0-.07-.03-.1l.04-.25a2.85 2.85 0 0 0-.6-2.3 3.26 3.26 0 0 0-1.69-1.12 4.85 4.85 0 0 0-3.46.33 5.64 5.64 0 0 0-1.33.89 4.25 4.25 0 0 0-1.33 2.2c-.02-.01-.02-.03-.02-.05v-.28h.03l.1-.36.13-.3c.08-.18.17-.35.27-.51l.22-.32a4.26 4.26 0 0 1 .63-.67l.4-.32a4.5 4.5 0 0 1 1.09-.6l.3-.13.42-.12c.15-.04.3-.08.45-.1l.17-.03a1.42 1.42 0 0 1 .3-.03.55.55 0 0 1 .2-.02h.43c.1 0 .18.03.27.02l.22.04.25.04a4.06 4.06 0 0 1 1.15.47 3.97 3.97 0 0 1 .77.68 3.02 3.02 0 0 1 .36.53c.04-.02.01-.06.05-.07.04.02.04.07.06.1l.04.13a.8.8 0 0 0 .05.13l.03-.12a3.59 3.59 0 0 1 .27-.84 3.82 3.82 0 0 1 .88-1.28c.06-.07.14-.1.2-.17l.16-.15.38-.25a3.67 3.67 0 0 1 1.77-.55.3.3 0 0 1 .14-.01h.98l.22-.01a.8.8 0 0 0 .38-.17l.01-.04h.04a.2.2 0 0 1 .13-.02.16.16 0 0 1 .08.13Z" fill="#F7C7B9"/><path d="M33.2 22.83a.09.09 0 0 1-.05.07.81.81 0 0 1-.34.14h-1.2a.3.3 0 0 0-.14.02 3.67 3.67 0 0 0-2.32.94c-.05.07-.13.11-.19.18a6.06 6.06 0 0 0-.6.75 3.83 3.83 0 0 0-.42.9c-.05.15-.1.31-.13.47l-.03.12a.8.8 0 0 1-.05-.13.77.77 0 0 0-.04-.12c-.02-.04-.02-.09-.06-.1-.04 0-.01.04-.04.06a.02.02 0 0 1-.02-.01 3.03 3.03 0 0 0-1.12-1.2 3.86 3.86 0 0 0-1.15-.47l-.25-.04a1.88 1.88 0 0 1-.22-.04c-.09.01-.18-.02-.27-.02h-.42c-.07 0-.14 0-.2.02a1.43 1.43 0 0 0-.3.03l-.18.02-.45.1a6 6 0 0 0-.42.13l-.3.12a5.21 5.21 0 0 0-1.1.61l-.4.32a4.3 4.3 0 0 0-.62.67 4.22 4.22 0 0 0-.49.83l-.12.3-.1.35h-.03V27.63a4.05 4.05 0 0 1 1.37-2.17l.23-.19a5.64 5.64 0 0 1 2.34-1.07l.33-.04c.1-.02.21-.03.32-.03l.25-.02.48.03a3.88 3.88 0 0 1 1.9.7l.2.16.12.1a3.18 3.18 0 0 1 .65.91c.03-.01.03-.04.03-.06a4.08 4.08 0 0 1 3.05-2.9l.39-.05c.2-.02.39-.04.59-.03h.78c.16 0 .32-.05.46-.15l.11-.09.06-.01c.02 0 .04 0 .06.02a.1.1 0 0 1 .05.1Z" fill="#F7E0DA"/><path d="M42.48 27.42a2.91 2.91 0 0 0-.77-1.7 3.24 3.24 0 0 0-1.17-.8 4.37 4.37 0 0 0-1.95-.32 5.73 5.73 0 0 0-3.38 1.45 4.12 4.12 0 0 0-1.14 1.78l-.03.1c-.02 0-.02-.03-.02-.05a.2.2 0 0 0-.02-.1c.03-.01.03-.05.03-.07l.1-.3c.08-.22.18-.43.3-.64l.1-.16a3.66 3.66 0 0 1 .49-.63l.25-.24a3.12 3.12 0 0 1 .4-.33l.3-.2.28-.17a5.4 5.4 0 0 1 .82-.38l.4-.13a5.31 5.31 0 0 1 1.71-.18c.07.01.14 0 .21.02.09 0 .17.02.26.04.2.03.41.08.61.15l.31.11a3.37 3.37 0 0 1 1.3 1 2.68 2.68 0 0 1 .44.78 2.46 2.46 0 0 1 .14.53l.01.02a92.12 92.12 0 0 0 .01.42Z" fill="#F7C7B9"/><path d="M42.46 27a.04.04 0 0 1-.02-.03 2.46 2.46 0 0 0-.31-.9 2.69 2.69 0 0 0-.69-.86 3.38 3.38 0 0 0-.87-.54l-.3-.11c-.2-.07-.41-.12-.62-.15l-.26-.04c-.07-.01-.14 0-.2-.02a2.87 2.87 0 0 0-.63 0c-.1 0-.2 0-.29.02a3.78 3.78 0 0 0-.8.16l-.4.13-.38.16-.44.22-.29.17-.28.2a5.3 5.3 0 0 0-.41.33l-.25.24c-.1.09-.17.18-.25.28-.08.11-.17.23-.24.35l-.1.16a4.02 4.02 0 0 0-.4.94c0 .02 0 .06-.03.07l-.01-.02-.01-.04a.05.05 0 0 0 .02-.04 4.3 4.3 0 0 1 2.16-2.83 5.64 5.64 0 0 1 1.73-.66l.42-.06a4.93 4.93 0 0 1 1.7.11c.38.1.76.26 1.1.48a3.14 3.14 0 0 1 1.23 1.6c.07.2.1.39.12.58v.1Z" fill="#F7E0DA"/><path d="M19.41 23.14h-.1a2138.6 2138.6 0 0 1-1.94.02.15.15 0 0 0-.07.16c.02.04.05.07.04.11a424.63 424.63 0 0 1-.98.9l-.7.65-.16.14a.3.3 0 0 1-.18.07.27.27 0 0 1-.25-.1h.1c.04-.02.09-.05.13-.09l.24-.22.22-.2.25-.23.23-.21.3-.27.18-.16c.12-.12.25-.22.37-.35v-.07l-.02-.05a.17.17 0 0 1 .09-.2h2.02l.1.01c.02 0 .06 0 .08.02.03.02.05.04.05.07Z" fill="#F7C7B9"/><path d="M19.18 23.05h-2.02a.17.17 0 0 0-.1.19l.04.05v.05l-.01.02c-.12.13-.25.23-.37.35l-.18.16-.3.27-.23.21-.25.23-.22.2-.24.22a.44.44 0 0 1-.14.09h-.09a.6.6 0 0 1-.11-.1.21.21 0 0 0 .1-.07l.45-.41.44-.4.45-.41.36-.33.11-.11a.13.13 0 0 0-.03-.13c0-.12.05-.17.16-.17h2.1c.04.02.08.04.08.09Z" fill="#F7E0DA"/><path d="M13 25.67c.06-.04.1-.01.16.03l.24.22.93.86a276.37 276.37 0 0 1 .73.67.21.21 0 0 1-.16-.05c-.02-.01-.04-.04-.07-.04a.8.8 0 0 0-.14-.13l-.3-.29-.22-.19-.29-.27-.21-.19c-.1-.09-.2-.2-.31-.28l-.35-.33h-.02Z" fill="#F7C7B9"/><path d="M31.82 29.38a.2.2 0 0 0 .12-.06.43.43 0 0 1 .1-.09.04.04 0 0 1 0 .04v.54a.26.26 0 0 1-.09.13.33.33 0 0 1-.15.03c-.1 0-.18 0-.27-.02a2.18 2.18 0 0 1-.3-.04l-.02.02a.23.23 0 0 1-.1-.03.44.44 0 0 1-.16-.08l.17.02.13.02.35.02a.2.2 0 0 0 .2-.13l.02-.04v-.33ZM13 25.67v.01l.36.33c.1.09.2.2.31.28l.21.2c.1.08.19.18.3.26l.2.2c.11.08.2.19.31.28l.14.13a.2.2 0 0 1-.16-.05l-.23-.21-.32-.29-.09-.09-.43-.4-.51-.46c-.05-.05-.1-.1-.15-.13a.06.06 0 0 1 .05-.06Z" fill="#F7E0DA"/><path d="M12.71 31.49h-1.3c-.02-.03 0-.04 0-.06.05-.16.07-.33.07-.5V24c0-.17-.02-.35-.08-.51v-.06h1.53a.05.05 0 0 1 .02.04c.02.08.06.16.13.2l.4.37.34.3.3.27a512.92 512.92 0 0 0 .88.79.92.92 0 0 0 .25.08.62.62 0 0 0 .45-.15l.45-.41.3-.26.12-.12.3-.27.56-.51.1-.09c.05-.05.08-.1.1-.17l.01-.06c.07-.02 1.46-.02 1.55 0 .02.01.01.03 0 .05l-.06.27v3.81c0 .1-.01.19-.03.28l-.03.31v.4c0 .11.02.22.03.32l.03.51v1.7c0 .11.03.23.06.33v.05a1292.16 1292.16 0 0 1-1.3 0l.05-.17c.03-.13.05-.26.05-.4a4993.17 4993.17 0 0 1-.02-5.24.39.39 0 0 0-.3-.29.41.41 0 0 0-.41.1l-.38.34-.33.3-.14.13-.3.29-.41.36-.32.3a.21.21 0 0 1-.08.06 104.61 104.61 0 0 1-.38-.34l-.56-.53-.27-.24-.3-.28-.15-.13-.26-.24a.49.49 0 0 0-.24-.13.43.43 0 0 0-.42.14.44.44 0 0 0-.1.27v5.13c0 .16.02.32.06.47l.03.1ZM24.32 24.9h.28c.17.01.33.03.5.07l.17.03a4.12 4.12 0 0 1 .98.4c.04.01.08.04.13.07a2.75 2.75 0 0 1 1.13 1.57c.03.1.04.21.06.32a2.93 2.93 0 0 1-.35 1.79 3.87 3.87 0 0 1-.91 1.19 4.82 4.82 0 0 1-2.01 1.12 4.67 4.67 0 0 1-1.62.18c-.07 0-.14 0-.22-.02a4.35 4.35 0 0 1-1.33-.4c-.2-.12-.39-.25-.55-.4a2.67 2.67 0 0 1-.9-1.79v-.28c0-.22.03-.44.08-.65a4.75 4.75 0 0 1 .72-1.4l.43-.45a5.25 5.25 0 0 1 2.37-1.24l.38-.07c.22-.03.44-.05.66-.04Zm2.13 2.81a.53.53 0 0 1-.01-.08l-.02-.2a1.44 1.44 0 0 0-.47-.85 1.99 1.99 0 0 0-.85-.44 3.44 3.44 0 0 0-1.02-.1c-.17.01-.33.04-.5.07a3.96 3.96 0 0 0-1.86.95c-.2.2-.38.4-.53.64-.13.2-.23.43-.3.67-.06.24-.07.5-.03.75a1.44 1.44 0 0 0 .4.77 1.74 1.74 0 0 0 .5.37 3.08 3.08 0 0 0 1.97.15 3.88 3.88 0 0 0 2.1-1.26c.17-.18.3-.4.4-.61.12-.24.19-.5.2-.76l.02-.07ZM19.43 27.77v.37l.01.05-.04.3c-.01.06 0 .13-.02.2a5.9 5.9 0 0 1 .04-.94v.02ZM38.87 24.88a3 3 0 0 1 .48.03c.15.01.3.05.44.07l.25.07a3.43 3.43 0 0 1 1.36.78 2.8 2.8 0 0 1 .75 1.4 3.13 3.13 0 0 1-.03 1.1 3.86 3.86 0 0 1-1.34 2.09c-.12.1-.24.2-.37.28l-.18.11a5.04 5.04 0 0 1-2.08.75l-.23.02c-.1 0-.21 0-.32.02l-.16-.01h-.16a3.71 3.71 0 0 1-1.54-.42c-.32-.17-.61-.4-.85-.67-.18-.2-.32-.43-.43-.68a3.67 3.67 0 0 1-.18-.53 1.28 1.28 0 0 1-.04-.55v-.08a2.1 2.1 0 0 1 .15-.84 3.32 3.32 0 0 1 .4-.8 3.4 3.4 0 0 1 .71-.84l.4-.32a4.9 4.9 0 0 1 .84-.5l.37-.15.14-.05a4.22 4.22 0 0 1 1.26-.26l.36-.02Zm-.07 1.14a4.6 4.6 0 0 0-1.98.59c-.2.13-.4.28-.58.44a3 3 0 0 0-.61.8c-.12.22-.19.45-.22.69a1.54 1.54 0 0 0 .27 1.12c.15.2.34.36.56.48a2 2 0 0 0 .4.17 3.2 3.2 0 0 0 1.5.1 4.93 4.93 0 0 0 1.19-.4c.1-.06.22-.12.32-.2a4.24 4.24 0 0 0 .77-.66c.1-.12.2-.24.28-.37a2.74 2.74 0 0 0 .35-1.11 2.48 2.48 0 0 0-.08-.4 1.4 1.4 0 0 0-.31-.56 1.84 1.84 0 0 0-.61-.44 1.74 1.74 0 0 0-.52-.16 2.66 2.66 0 0 0-.73-.09ZM33.38 23.35v1.3l-.23-.05c-.1-.02-.19-.03-.29-.03h-.68c-.2 0-.39.01-.58.04a2.34 2.34 0 0 0-1.63.96 3.04 3.04 0 0 0-.58 1.7c0 .07-.02.14-.01.2a5.74 5.74 0 0 0 .18 1.1 2.4 2.4 0 0 0 .37.75 2.71 2.71 0 0 0 .96.82l.24.08a3.36 3.36 0 0 0 .93.13.54.54 0 0 0 .4-.15.44.44 0 0 0 .1-.18.97.97 0 0 0 .03-.27 13.5 13.5 0 0 1-.02-.65.3.3 0 0 0-.22-.23.78.78 0 0 0-.08-.02 2 2 0 0 0-.27.05 18.8 18.8 0 0 1 0-1.26l.08.02c.13.04.26.07.4.07h1.07a.3.3 0 0 1 .11.06v.15a5.15 5.15 0 0 0 .05 1.32c.04.66 0 1.32.02 1.98v.1a.23.23 0 0 1-.23.15h-1.56a4.04 4.04 0 0 1-1.27-.23 3.94 3.94 0 0 1-1.34-.9 3.01 3.01 0 0 1-.4-.48l-.16-.26c-.05-.11-.12-.22-.16-.34a5.56 5.56 0 0 1-.32-1.07l-.04-.37a4.36 4.36 0 0 1 .14-1.62c.05-.16.1-.32.17-.48l.17-.35c.06-.1.12-.22.2-.32a4.67 4.67 0 0 1 .6-.7 3.36 3.36 0 0 1 1.12-.69 3.87 3.87 0 0 1 .92-.21l.39-.02c.2-.02.4 0 .6-.01h.33a1.21 1.21 0 0 0 .48-.1l.01.01Z" fill="#FAD448"/><path d="M31.21 29.93a.04.04 0 0 1 .05-.02c.09.02.18.04.27.04.09.02.18.01.27.02.05 0 .1 0 .15-.03a.26.26 0 0 0 .1-.13v-.54a.04.04 0 0 0-.02-.04.28.28 0 0 1 .24-.07.07.07 0 0 1 .02.06v.61a.3.3 0 0 1-.02.1.19.19 0 0 1-.18.13 2.72 2.72 0 0 1-.88-.13Z" fill="#F7C7B9"/><path d="m33.99 27.77.01.01a.2.2 0 0 1 .02.1c0 .02 0 .04.02.05l-.07.32-.01.15c0 .02 0 .04-.02.05v-.4l.03-.26.02-.02Z" fill="#FAD448"/><path d="m26.45 27.71-.01.07c-.03.26-.1.52-.2.76-.11.22-.24.43-.4.61a4.42 4.42 0 0 1-.6.57 4.31 4.31 0 0 1-1.06.57 3.9 3.9 0 0 1-1.87.15 2.27 2.27 0 0 1-.86-.37 1.54 1.54 0 0 1-.6-.95c-.03-.25-.02-.51.05-.75.06-.24.16-.47.3-.67a3.43 3.43 0 0 1 1.57-1.32 3.95 3.95 0 0 1 1.8-.33c.17.01.35.05.53.1.32.07.6.22.85.43a1.51 1.51 0 0 1 .49 1.05v.08Zm-5.31 1.05v.14a.7.7 0 0 0 0 .1 1.22 1.22 0 0 0 .6.9c.3.19.65.29 1 .3h.5c.12-.02.24-.03.35-.06.84-.16 1.6-.62 2.11-1.3.17-.2.29-.44.37-.69.05-.14.07-.29.07-.44v-.15c0-.02 0-.05-.02-.07V27.43c-.05-.2-.15-.39-.28-.54-.19-.2-.43-.35-.7-.43a3.05 3.05 0 0 0-1.42-.08c-.38.08-.75.21-1.09.4-.52.27-.96.69-1.26 1.2a1.77 1.77 0 0 0-.23.78ZM38.8 26.02a2.66 2.66 0 0 1 .82.1c.15.04.3.08.42.15.24.1.44.25.62.44.14.16.25.35.31.56a2.48 2.48 0 0 1 .07.48 2.15 2.15 0 0 1-.35 1.03 3.37 3.37 0 0 1-1.04 1.04l-.32.2-.3.13a4.93 4.93 0 0 1-1.06.27c-.19.02-.38.03-.57.02a3.2 3.2 0 0 1-.76-.13 2 2 0 0 1-.4-.17 1.64 1.64 0 0 1-.78-.92 1.6 1.6 0 0 1-.05-.68c.03-.24.1-.47.22-.69a3 3 0 0 1 .61-.8 3.6 3.6 0 0 1 1.31-.79 4.6 4.6 0 0 1 1.25-.24Zm-3.1 2.77v.16c.05.32.22.6.48.8.2.14.41.25.65.3.22.07.44.1.67.1l.28-.01a3.47 3.47 0 0 0 2.69-1.55c.16-.26.25-.56.28-.86 0-.02 0-.05-.02-.08l-.01-.14a1.14 1.14 0 0 0-.3-.63c-.21-.2-.46-.35-.74-.44a2.87 2.87 0 0 0-1.35-.08 3.8 3.8 0 0 0-2.12 1.16c-.18.2-.32.43-.41.68-.05.12-.08.24-.1.37a.54.54 0 0 0 0 .22Z" fill="#E30021"/><path d="M21.15 28.65c.03-.24.1-.47.22-.67.3-.51.73-.93 1.26-1.2a3.75 3.75 0 0 1 1.66-.45c.29 0 .58.04.86.13.26.08.5.23.69.43.13.15.23.34.27.54v.06c-.06.26-.17.5-.32.73a3.18 3.18 0 0 1-.9.9 3.87 3.87 0 0 1-1.3.53 3.44 3.44 0 0 1-1.1.04c-.2-.04-.4-.1-.58-.18-.16-.06-.3-.16-.42-.27a1.2 1.2 0 0 1-.3-.44.21.21 0 0 0-.03-.08l-.01-.07Z" fill="#4A9FD8"/><path d="M26.14 27.71c0 .15-.02.3-.07.44-.08.25-.2.49-.37.7a3.51 3.51 0 0 1-2.1 1.3l-.36.04a2.9 2.9 0 0 1-.5.01c-.35-.01-.7-.11-1-.3a1.24 1.24 0 0 1-.6-.9v-.1l.03.01a1.24 1.24 0 0 0 .78.85 2.15 2.15 0 0 0 .86.19h.26c.1 0 .2 0 .29-.02l.28-.05a3.5 3.5 0 0 0 2.13-1.39 1.98 1.98 0 0 0 .33-.76l.01-.01.03-.01Z" fill="#F7C7B9"/><path d="M26.14 27.71h-.03v.02c-.02.1-.05.2-.1.3-.06.17-.14.32-.24.46a2.71 2.71 0 0 1-.41.47 3.28 3.28 0 0 1-2.29.99h-.26a2.12 2.12 0 0 1-1.22-.4 1.18 1.18 0 0 1-.42-.64h-.03v-.15l.02-.04c.01.02.03.05.03.08.07.16.17.31.3.44.12.11.26.2.42.27a2.4 2.4 0 0 0 1.21.2 3.45 3.45 0 0 0 2.33-1.07c.12-.13.24-.27.34-.42.15-.22.26-.47.32-.73v-.02l.01.01c0 .03-.01.06.01.08v.15Z" fill="#F7E0DA"/><path d="M35.71 28.57c0-.13.04-.25.09-.37.1-.25.23-.48.41-.68.33-.39.74-.69 1.2-.88a3.8 3.8 0 0 1 1.5-.32c.26 0 .52.05.77.12.28.09.53.24.73.44.17.17.27.4.3.63-.01.07-.03.15-.06.22-.12.32-.3.6-.54.84A3.46 3.46 0 0 1 38 29.62c-.13.02-.27.03-.4.03h-.28a2.2 2.2 0 0 1-.66-.14 1.59 1.59 0 0 1-.67-.45 1.39 1.39 0 0 1-.18-.26l-.09-.23Z" fill="#4A9FD8"/><path d="M40.73 27.65c.03.03.02.06.02.08-.03.3-.12.6-.28.86a3.47 3.47 0 0 1-2.69 1.55c-.09 0-.18.01-.28 0-.22 0-.45-.02-.67-.08a1.92 1.92 0 0 1-.65-.31c-.26-.2-.43-.48-.48-.8a.48.48 0 0 1 0-.16h.02a1.22 1.22 0 0 0 .38.63c.09.09.19.16.3.22a2.08 2.08 0 0 0 .87.24c.05.01.1.02.16.01h.37c.08-.03.17 0 .24-.03.12-.01.24-.03.36-.07.12-.02.25-.06.36-.1l.32-.14.37-.2c.22-.14.41-.3.6-.48l.2-.24.2-.25c.1-.19.2-.4.25-.6.01-.05 0-.1.03-.13Z" fill="#F7C7B9"/><path d="M40.73 27.65c-.03.04-.02.08-.03.12a2.19 2.19 0 0 1-.45.86l-.2.24a3.47 3.47 0 0 1-.97.68l-.32.13c-.11.05-.24.09-.36.11a1.7 1.7 0 0 1-.36.07c-.07.03-.16 0-.24.03h-.36c-.06.01-.12 0-.17-.01h-.02c-.3-.02-.59-.1-.85-.24a1.2 1.2 0 0 1-.3-.22 1.22 1.22 0 0 1-.38-.62h-.03a.54.54 0 0 1 .02-.23c.03.07.05.15.1.23.04.1.1.18.16.26.19.2.42.36.68.45.21.08.44.12.66.13l.28.01.4-.03a3.46 3.46 0 0 0 2.12-1.06c.24-.23.42-.51.54-.83l.07-.22c.01.04.02.1.01.14Z" fill="#F7E0DA"/><path d="M43.07 34H11.86c-1.37 0-2.7-.5-3.74-1.4a6.02 6.02 0 0 1-1.77-6.63A5.89 5.89 0 0 1 11.89 22h10.87l-.02.05c-.19.37-.5.65-.9.8a.46.46 0 0 1-.14.03h-.09a68178.2 68178.2 0 0 1-9.51.02 6.5 6.5 0 0 0-1.62.36 5.7 5.7 0 0 0-2.3 1.6 4.9 4.9 0 0 0-1.03 4.27 5.25 5.25 0 0 0 1.63 2.6 5.81 5.81 0 0 0 3.9 1.27H43.02l.02.18.02.42v.05c.02.12.02.23.01.35Z" fill="#E30021"/></svg>