<!-- by TradingView --><svg width="56" height="56" viewBox="0 0 56 56" xmlns="http://www.w3.org/2000/svg"><path fill="#F0F3FA" d="M0 0h56v56H0z"/><circle cx="16" cy="16" r="3" fill="#1171BB"/><circle cx="32.02" cy="16" fill="#1171BB" r="3"/><circle cx="40" cy="16" fill="#343434" r="3"/><circle cx="40" cy="24" r="3" fill="#1171BB"/><circle cx="40" cy="40" r="3" fill="#1171BB"/><circle cx="24" cy="40" fill="#1171BB" r="3"/><circle cx="16" cy="40" fill="#343434" r="3"/><circle cx="16" cy="32" fill="#1171BB" r="3"/><path d="M27 16a3 3 0 0 1-1.13 2.35c-.48.62-1.48 2.23.25 3.82 1.43 1.32 3.05.64 3.76-.32l.02.01A2.99 2.99 0 0 1 35 24a3 3 0 0 1-1.22 2.41c-1.15 1.73-.54 2.61 0 3.17.13.1.27.22.4.35.35.3.9.75 1.7.73.8-.01 1.6-.48 1.97-.76A3 3 0 0 1 43 32a3 3 0 0 1-5.33 1.89 2.39 2.39 0 0 0-1.8-.78 2.1 2.1 0 0 0-1.48.7c-.07.1-.14.18-.22.26a2.94 2.94 0 0 0-.24 3.62h-.02a3 3 0 1 1-3.85.02c1.13-1.44.43-2.84-.08-3.5a3 3 0 0 1 .14-4.55c.36-.36.72-.9.68-1.76-.07-1.45-1.53-2.52-2.9-2.54-1.1-.01-1.83.47-2.08.8-1.37 1.75-.37 3.05.3 3.71A3 3 0 0 1 24 35a3 3 0 0 1-2.11-5.13c.06-.1.14-.2.22-.29.6-.76 1.26-1.58.26-3.2-.9-1.47-2.52-1.26-3.21-.97-.2.08-.55.35-.91.62l-.16.12A2.99 2.99 0 0 1 13 24a3 3 0 0 1 4.55-2.57c.33.14.57.38.83.62.47.46.95.93 2 .78a2.85 2.85 0 0 0 2.5-2.87 2 2 0 0 0-.55-1.47A3 3 0 1 1 27 16Z" fill="#343434"/></svg>