<!-- by TradingView --><svg width="56" height="56" viewBox="0 0 56 56" xmlns="http://www.w3.org/2000/svg"><path fill="#F0F3FA" d="M0 0h56v56H0z"/><path d="M17.9 40.32s.56.17.79-.49c0 0 .38.38.09.84 0 0-.24.45-.78.3 0 0-8.46-1.83-10-8.69 0 0 1.37 5.9 9.9 8.04ZM19.3 37.11s.38.22.67-.23c0 0 .4.26.14.72 0 0-.22.34-.64.19 0 0-5.9-1.59-7.03-6.75 0 0 .92 4.14 6.85 6.07ZM20.87 34.1s.16.06.28-.03c0 0 .46.13.3.52 0 0-.16.31-.48.16 0 0-3.59-1.26-4.34-4.77 0 0 .96 2.95 4.24 4.12ZM28.57 18.09s.5-.2.6.2c0 0 .1.36-.3.43 0 0-4.7.87-8.22 3.9 0 0-3.83 2.97-3.44 6.92 0 0-1.36-3.65 3.4-7.68 0 0 2.79-2.59 7.96-3.77Z" fill="#006375"/><path d="M30.14 15.34s.24 0 .38-.28c0 0 .29.21.22.52 0 0-.06.37-.42.42 0 0-6.33.86-10.75 4.1 0 0-7.05 4.37-6.2 10.52 0 0-2.17-5.96 6.78-11.68 0 0 4.06-2.71 10-3.6Z" fill="#006375"/><path d="M31.65 12.5s.43-.02.58-.5c0 0 .33.32.13.76 0 0-.12.34-.55.4 0 0-10.34.7-18 7.81 0 0-5.59 4.8-4.54 10.65 0 0-2.1-5.42 4.92-11.84 0 0 6.65-6.15 17.46-7.28Z" fill="#006375"/><path d="M25.82 25.61c.1-.13.24-.34.4-.61h1.5c-.02.29-.02.57 0 .85l.26 4.15h-1.2c.04-.3.06-.49.05-.59l-.1-1.41h-1.72l-.91 1.25c-.16.2-.31.45-.49.75h-1.13l3.34-4.39Zm-.26 1.6h1.19l-.08-1.53-1.11 1.53ZM29.09 30h-1.07c.47-1.24.9-2.5 1.27-3.78h1.02c-.55 1.61-.96 2.87-1.22 3.78Zm.62-5h1.01l-.3 1H29.4l.31-1ZM30.93 26h.95l-.17.68c.37-.46.75-.68 1.23-.68.07 0 .16 0 .26.02l-.25.92a2.32 2.32 0 0 0-.37-.03c-.55 0-.88.27-1.17.88-.14.3-.39 1.03-.75 2.21h-1.05c.48-1.23.92-2.64 1.32-4ZM33.57 29.18c.38 0 .6-.1.67-.32.02-.1 0-.2-.06-.27l-.64-.65c-.32-.33-.5-.57-.38-.99.17-.54.8-.95 1.65-.95.32 0 .66.05 1.05.16l-.18.85a2.67 2.67 0 0 0-.94-.22c-.3 0-.47.08-.51.22-.02.06 0 .15.05.2l.6.62c.34.33.48.6.35 1.02-.2.71-.85 1.15-1.8 1.15-.36 0-.73-.07-1.14-.22l.2-.95c.43.24.8.35 1.08.35ZM36.44 26.25A6.99 6.99 0 0 1 38.2 26c1.4 0 1.9.64 1.53 1.89-.38 1.26-1.42 2.1-2.5 2.1-.44 0-.76-.14-.96-.4l-.3.82-.33 1.04h-1.07c.45-.95 1.05-2.68 1.86-5.2Zm.42 1.64c-.25.84-.13 1.24.5 1.24.6 0 1.08-.43 1.31-1.21.22-.73 0-1.1-.7-1.1-.24 0-.5.05-.76.14-.15.31-.25.62-.35.93ZM41.93 29.11l.39-1.06-.42.18-.55.16c-.38.11-.59.2-.67.46-.07.24.06.39.37.39.14 0 .35-.04.61-.11l-.45.77c-.27.07-.5.1-.68.1-.76 0-1.09-.42-.89-1.1.18-.58.6-.93 1.3-1.11l.85-.23c.48-.13.74-.23.8-.45.08-.24-.07-.39-.44-.39s-.86.14-1.45.38l.39-.9c.5-.13.98-.2 1.48-.2 1 0 1.3.3 1.08 1.06l-.11.33-.64 1.89c-.04.1-.1.4-.2.72h-1.09c.13-.24.22-.6.32-.89ZM44.54 26h.97l-.14.58a2 2 0 0 1 1.47-.58c1.04 0 1.33.4 1.07 1.3-.13.44-.4 1.22-.72 2.32l-.12.38h-1.05c.44-1.17.68-1.93.77-2.25.2-.66.11-.94-.43-.94-.93 0-1.4.82-1.92 2.62l-.16.57h-1.06c.48-1.23.92-2.64 1.32-4Z"/></svg>