<!-- by TradingView --><svg xmlns="http://www.w3.org/2000/svg" width="56" height="56" viewBox="0 0 56 56"><path fill="#F0F3FA" d="M0 0h56v56H0z"/><path d="M27.67 11.08c.12-.07.2-.08.32-.08.17 0 1.1.62 1.78 1.01.21.14.23.29.23.41 0 .25-.15.4-.46.59L15 21.09v2.36l16.83-9.28c.14-.08.42-.17.53-.17.15 0 .44.04.64.17l3.87 2.04c.92.52 1.13.74 1.13 1.33 0 .58-.2 1.02-1.13 1.54L15 31.75v2.42l25.19-14.55c.88-.5 1.12-.62 1.57-.62.82 0 1.24.75 1.24 1.21v5.43c0 .39 0 .6-.55.93L21.37 38.62l2 1.2 18.05-10.26c.16-.09.36-.16.63-.16.56 0 .95.48.95 1.1v5.53c0 .39-.21.74-.55.93l-13.8 7.93c-.17.1-.35.11-.52.11-.2 0-.4-.03-.57-.13l-1.3-.73a.54.54 0 0 1-.26-.44c0-.18.1-.37.28-.47L41 34.9v-2.27l-17.02 9.57c-.36.2-.8.17-1.14-.07l-4.8-2.84c-.39-.28-.44-.6-.44-.92 0-.48.44-.8.9-1.07L41 24.54v-2.3L15.96 36.49a3.3 3.3 0 0 1-1.59.51c-.92 0-1.37-.65-1.37-1.63V30.6c0-.38.21-.74.56-.93L34.63 17.7l-2.27-1.04-17.6 10.03c-.2.1-.42.25-.72.25-.54 0-1.04-.5-1.04-1.1v-5.87c0-.38.24-.74.58-.93l14.1-7.96Z"/><path d="m-2.28 48 24.25 14" stroke="red" stroke-width="2.5"/></svg>