<!-- by TradingView --><svg xmlns="http://www.w3.org/2000/svg" width="56" height="56" viewBox="0 0 56 56"><path fill="#475D76" d="M0 0h56v56H0z"/><path d="M14.04 30c.45.02.98-.14 1.15-.59h1.17c-.13.5-.43.93-.86 1.22-.42.26-.9.38-1.4.37-.36 0-.7-.06-1.03-.18a2.15 2.15 0 0 1-1.27-1.3 2.84 2.84 0 0 1 0-2 2.29 2.29 0 0 1 1.29-1.33c.32-.13.66-.2 1-.19a2.14 2.14 0 0 1 1.83.86c.21.27.35.58.44.9.08.35.12.89.09 1.24h-3.5c0 .52.48.97 1.1 1zm.02-3c-.35 0-.66.1-.87.35a.95.95 0 0 0-.18.33c-.03.1-.05.21-.06.32h2.17c-.08-.59-.45-1-1.06-1zM37.42 30c.45.02.98-.14 1.15-.59h1.17c-.13.5-.44.93-.86 1.22-.42.26-.91.38-1.4.37-.36 0-.7-.06-1.04-.18a2.15 2.15 0 0 1-1.27-1.3 2.84 2.84 0 0 1 0-2 2.29 2.29 0 0 1 1.3-1.33c.32-.13.66-.2 1-.19a2.14 2.14 0 0 1 1.83.86c.2.27.35.58.43.9.1.35.12.89.1 1.24h-3.5c0 .52.48.97 1.1 1zm.02-3c-.35 0-.66.1-.87.35a.95.95 0 0 0-.18.33c-.03.1-.05.21-.06.32h2.17c-.08-.59-.45-1-1.06-1zM18.3 26v1.04c.24-.61.79-1.04 1.42-1.04.1 0 .19.02.28.05v1.03c-.12-.02-.3-.08-.46-.08-.87-.03-1.25.85-1.24 1.6V31H17v-5h1.3zM20.18 27.48a2.17 2.17 0 0 1 1.29-1.3A2.8 2.8 0 0 1 22.5 26c.35 0 .7.06 1.03.18a2.2 2.2 0 0 1 1.3 1.3c.11.33.17.68.17 1.03s-.06.7-.18 1.03a2.2 2.2 0 0 1-1.3 1.29 2.9 2.9 0 0 1-1.02.17c-.36 0-.7-.05-1.03-.17a2.21 2.21 0 0 1-1.3-1.3 2.83 2.83 0 0 1-.17-1.02c0-.35.06-.7.18-1.03zM22.49 30c.85.03 1.21-.78 1.21-1.5s-.37-1.53-1.2-1.5c-.84-.04-1.2.8-1.2 1.5 0 .73.36 1.53 1.2 1.5zM29.3 25c-1.27-.04-2 1.08-2 2.53 0 1.36.7 2.47 2 2.47 1.05 0 1.57-.93 1.64-1.73h1.3c-.02.4-.12.78-.28 1.14a2.64 2.64 0 0 1-1.52 1.4c-.37.13-.75.2-1.14.19-.48 0-.95-.08-1.39-.27a2.97 2.97 0 0 1-1.68-1.84 4.17 4.17 0 0 1 0-2.76c.14-.4.36-.78.65-1.1.28-.33.64-.59 1.03-.76a3.6 3.6 0 0 1 2.44-.11c.32.1.61.26.88.46a2.51 2.51 0 0 1 .96 1.79h-1.25c-.1-.7-.7-1.41-1.64-1.41zM34.3 24H33v7h1.3v-7zM40.68 27.6c.01-.28.09-.54.23-.77.13-.2.31-.37.52-.49.22-.13.45-.21.7-.26a4 4 0 0 1 1.51-.03c.24.03.46.1.67.2.2.1.37.23.5.4.14.21.2.46.19.7v2.47c0 .36 0 .86.17 1.18h-1.33c-.05-.18-.07-.4-.09-.58-.4.43-1.02.58-1.6.58-.83 0-1.64-.5-1.61-1.42-.01-.23.04-.45.14-.66.47-.9 1.72-.73 2.55-.93.23-.05.5-.2.47-.47 0-.36-.36-.52-.85-.52-.37 0-.86.13-.86.59h-1.3zm3.02.96a.58.58 0 0 1-.2.11c-.28.09-.58.1-.89.16-.37.07-.79.25-.77.7-.01.45.64.47.8.47.54 0 1.05-.35 1.06-.96v-.48zM47.3 26v.81c.32-.52.96-.8 1.61-.81 1.38-.04 2.1.91 2.09 2v3h-1.3v-2.75c.04-.53-.36-1.32-1.1-1.25-.91-.07-1.3.8-1.3 1.45V31H46v-5h1.3z" fill="#fff"/><path d="M7.16 28.5H4c.11.3.32.55.58.73.27.18.59.27.91.27h3.16c-.11-.29-.32-.54-.58-.72a1.63 1.63 0 0 0-.91-.28" fill="#8DACBF"/><path d="M5.32 30l-.43 1H6.4l.4-1h-1.5zM9.05 24H7.49l-1.44 4h1.44l.76-2.27h.01l1.8 5.27h1.56l-2.57-7z" fill="#fff"/></svg>