<!-- by TradingView --><svg width="56" height="56" viewBox="0 0 56 56" xmlns="http://www.w3.org/2000/svg"><path fill="#F0F3FA" d="M0 0h56v56H0z"/><path d="M49 27.8c0 .31 0 .36.3.36h.42c.59 0 .6-.65.74-.65.05 0 .13-.01.13.18l.05 1.26c0 .09.05.34-.11.34-.22 0-.03-.74-.74-.74h-.52c-.31 0-.28.08-.28.49v.91c0 .44-.03.69.46.69 1.28 0 1.22-.92 1.47-.92.03 0 .08.02.08.15 0 .55-.4 1.13-.96 1.13H47.6c-.09 0-.13-.03-.13-.08 0-.32.52.06.52-.8V26.8c0-.63-.77-.4-.77-.69 0-.06.06-.12.15-.12h3.46c.07 0 .13.06.13.13l.03.7c0 .1.04.33-.12.33-.32 0 .27-.83-1.04-.83-.83 0-.85 0-.85.5l.01.98Zm-18.38-1.38c.3 0 .38.04.38.38v3.28c0 .83-.84.5-.84.77 0 .15.13.15.26.15h2.17c.21 0 .36.02.36-.15 0-.2-.95 0-.95-.86V26.8c0-.34.08-.37.38-.37h.59c.85-.03.6.75.9.75.2 0 .11-.28.1-.36l-.08-.65c0-.07 0-.17-.12-.17h-4.52c-.11 0-.11.1-.11.17l-.12.93c-.02.1-.06.25.1.25.33 0 .11-.93.95-.93h.55Zm11.38-.3c0 .33.7-.12.7 1.22v2.71c0 .71-.6.59-.6.87 0 .08.13.08.2.08h1.29c.07 0 .24 0 .24-.09 0-.33-.83.15-.83-1.2v-2.29c0-.06.02-.1.05-.1.03 0 .07.03.11.08l2.91 3.5c.03.06.1.1.16.1.08 0 .08-.06.08-.2v-3.93c0-.74.54-.57.54-.78 0-.02 0-.09-.12-.09h-1.4c-.06 0-.1.05-.1.12 0 .23.77.1.77.74v2.17c0 .17-.02.26-.05.26-.03 0-.11-.09-.2-.19l-2.39-2.92c-.1-.13-.03-.18-.23-.18H42.1c-.06 0-.11.05-.11.12Zm-16.9 3.12c-.16 0-.09.2-.07.3l.21.94c.03.17.02.22.2.27.37.08.7.25 1.1.25.86 0 1.46-.64 1.46-1.52 0-1.62-2.42-1.51-2.42-2.46 0-.46.35-.72.78-.72 1.12 0 1.22 1.28 1.37 1.28.15 0 .17-.08.15-.23l-.07-.93c-.01-.16 0-.26-.09-.26s-.25.11-.34.11c-.2 0-.48-.27-1.01-.27a1.34 1.34 0 0 0-1.34 1.38c0 1.56 2.46 1.36 2.46 2.4 0 .57-.4.9-.9.9-.72 0-1.13-.63-1.34-1.29-.02-.1-.04-.15-.14-.15Zm-2.8-1.08c-.3 0-.3-.05-.3-.35v-.99c0-.49.02-.49.84-.49 1.32 0 .72.83 1.04.83.16 0 .12-.24.12-.33l-.03-.7a.13.13 0 0 0-.13-.13h-3.69c-.1 0-.15.06-.15.12 0 .28 1 .06 1 .69v3.3c0 .87-.75.49-.75.81 0 .05.04.08.13.08h3.05c.56 0 .96-.58.96-1.13 0-.13-.05-.15-.08-.15-.26 0-.16.92-1.85.92-.49 0-.46-.25-.46-.69v-.91c0-.4-.03-.5.29-.5h.5c.7 0 .52.75.73.75.17 0 .12-.25.12-.34l-.05-1.26c0-.2-.08-.18-.13-.18-.13 0-.15.65-.74.65h-.43Zm-3.84 2.48c-.49 0-.46-.26-.46-.7v-3.3c0-.55.48-.28.48-.55 0-.09-.04-.09-.18-.09h-1.85c-.14 0-.22.06-.22.12 0 .25.77.06.77.66v3.34c0 .86-.52.48-.52.8 0 .05.04.08.13.08h2.43c.56 0 .96-.58.96-1.13 0-.14-.05-.16-.08-.16-.25 0-.16.93-1.46.93Zm-2.5.26c0-.23-.96.1-.96-.77v-3.37c0-.67.65-.42.65-.66 0-.08-.05-.1-.3-.1h-2.03c-.07 0-.3-.02-.3.1 0 .25.98.05.98.7v3.39c0 .66-.62.48-.62.72 0 .05.04.1.1.09h2.2c.2 0 .28-.03.28-.1Zm-9.35-.06c0-.4-1.05.17-1-1.52l.1-2.77c0-.06 0-.25.07-.25.04 0 .08.11.1.17l1.87 4.25c.05.11.09.28.24.28.16 0 .2-.15.25-.28l1.82-3.9c.1-.25.25-.48.41-.7.13-.07.12.33.12.63l.1 3c.06 1.1-.69.77-.69 1.1 0 .18.22.15.44.15h2.05c.34 0 .47 0 .47-.17 0-.36-1.12.07-1.17-1.22l-.05-4.4c-.04-1.14.95-.74.95-1.1 0-.07-.01-.11-.28-.11h-1.26c-.18 0-.21.13-.24.2l-2.32 4.6c0 .02-.1.2-.15.2-.06 0-.11-.13-.15-.22l-2.11-4.5C6.04 24 5.95 24 5.84 24H4.1c-.06 0-.11.08-.11.14 0 .43 1.3-.17 1.22 1.6l-.13 3.98c-.04 1.03-.83.79-.83 1.14 0 .06.04.14.18.14h1.94c.27 0 .23-.12.23-.16Z" fill="#004C97"/><path d="M39.34 26.63c-.1-.03-.26-.19-.28-.28-.03-.1.2-.17.27-.17.09.02.28.07.3.17.02.1-.15.1-.2.16-.02.06 0 .12-.1.12Zm-2.24 2.24c0 .07.33.2.39.2.03 0 .1-.03.1-.07 0-.1-.47-.27-.49-.13Zm2.8-1.71c.02.05.06.1.12.06.03-.02.08-.06.07-.1 0-.05-.1-.24-.11-.27-.03-.05-.1-.11-.16-.11-.04 0-.06.06-.05.1.03.11.08.2.12.32ZM42 28.5a3.54 3.54 0 0 1-3.47 3.5A3.56 3.56 0 0 1 35 28.42 3.55 3.55 0 0 1 38.5 25c1.9 0 3.5 1.6 3.5 3.5Zm-.2.63.04-.24a.12.12 0 0 1-.05-.03c-.09-.12-.1-.3-.15-.44a.12.12 0 0 0-.12-.1c-.07.02-.1.1-.09.16.05.12.08.18.1.32.04.13.18.23.27.33Zm-4.84 2.36c.13-.23.2-.67.17-.92a.3.3 0 0 0-.15-.15c-.2-.12-.33-.45-.32-.68.02-.07.27-.27.15-.34-.45-.3-.97-.49-1.42-.8-.12-.1-.17-.24-.24-.38l-.01.3c0 1.24.72 2.4 1.82 2.97Zm1.54.37c.8 0 1.59-.29 2.2-.81-.07-.13-.08-.33-.17-.44-.14-.19.08-.35.04-.55a.26.26 0 0 0-.1-.1c-.48-.35-1.2-.59-1.07-1.32.01-.22.41-.44.53-.56.06-.06.12-.1.2-.13.15-.07.4-.08.43.14.02.28.35 0 .48.1.09.09.13.08.24.07.06-.09.2-.12.2-.23a.12.12 0 0 0-.07-.01c-.06 0-.13.13-.19.09-.18-.17-.18-.16-.46-.49-.08-.1-.03.07-.02.1.05.1.04.3-.13.26-.04-.02-.05-.05-.05-.1 0-.07.07-.2-.07-.22a.5.5 0 0 0-.4.15c-.08.07-.16.2-.27.2-.1 0-.14-.15-.14-.24 0-.1.14-.06.2-.07.19-.12.2-.78.52-.74.12.02.21.07.34.04.14-.04.35-.21.46-.31-.03-.08-.14-.06-.2-.05a.12.12 0 0 1-.12-.05c-.03-.06.02-.12.09-.16a.22.22 0 0 0 .1-.08l-.07-.1c-.1.07-.17.16-.27.2-.13.12.2.26.04.39-.1.07-.49.03-.53-.1-.05-.16.07-.38.18-.48l.28-.3c-.4-.35-.88-.6-1.4-.73.01.11.04.25.02.36a1.9 1.9 0 0 1-.35.56c-.13.08-.3.06-.43.14-.15.07-.13.4-.3.4-.3-.06-.46-.5-.49-.76 0-.22 0-.54-.33-.44-.1 0-.2 0-.28-.07-.1.05-.21.1-.32.17l.64.43c.06.04.12.1.12.18 0 .13-.15.23-.26.25-.55.09-.26-.36-.5-.44-.13.1-.54.45-.54.68 0 .01.5.43.58.32.06-.14-.1-.29-.04-.42.1-.2.63.04.72.18.09.12.23.25.28.4.02.21-.59.5-.7.65-.2.27-.15.44-.3.68-.2.08-.74-.42-.74.08 0 .23.27.1.39.15.17.08.08.43.3.43.25-.01.6-.1.85-.01.2.1.26.4.46.52.1.06.69.12.57.34-.04.08-.1.1-.12.2-.08.41-.17.42-.46.79l-.6.68c.33.12.68.18 1.03.18Z" fill="url(#aw5vr3gt5)"/><defs><linearGradient id="aw5vr3gt5" x1="36.02" y1="26.03" x2="40.97" y2="30.97" gradientUnits="userSpaceOnUse"><stop stop-color="#AFB3B3"/><stop offset=".25" stop-color="#D0D2D2"/><stop offset=".5" stop-color="#C1C2C2"/><stop offset=".75" stop-color="#D6D7D7"/><stop offset="1" stop-color="#ADB0B0"/></linearGradient></defs></svg>