<!-- by TradingView --><svg xmlns="http://www.w3.org/2000/svg" width="56" height="56" viewBox="0 0 56 56"><path fill="#F0F3FA" d="M0 0h56v56H0z"/><path fill-rule="evenodd" d="M8 38l20-28 20 28H8zm4-2l2.18-3h27.64L44 36H12zm16-22l8.73 12H19.27L28 14zM18 32h1v-3.78L20.14 32h.76l1.1-3.78V32h1v-5h-1.55l-.93 3-.84-3H18v5zm16 0h-1v-5h1.68l.84 3 .93-3H38v5h-1v-3.78L35.9 32h-.76L34 28.22V32zm-8-1.7h1.14s.06.7.95.7c.29 0 .91-.07.91-.52 0-.39-.35-.49-.78-.6l-.2-.07-.28-.08c-.75-.21-1.45-.41-1.45-1.28 0-.82.65-1.45 1.73-1.45a1.8 1.8 0 0 1 1.8 1.5H28.8s-.13-.5-.77-.5c-.34 0-.73.14-.73.45 0 .32.43.41.94.53.78.18 1.77.4 1.77 1.5 0 1-.97 1.52-1.98 1.52-1.05 0-2.02-.81-2.02-1.7z" fill="#013CA6"/></svg>