<!-- by TradingView --><svg width="56" height="56" viewBox="0 0 56 56" xmlns="http://www.w3.org/2000/svg"><path fill="#000034" d="M0 0h56v56H0z"/><path d="M47 36 32.92 21.33a1 1 0 0 0-.74-.33 1 1 0 0 0-.74.33l-3.87 4.1-3.8-4.1a1 1 0 0 0-.75-.33 1 1 0 0 0-.73.33L9 35.98 47 36Z" fill="#F0F3FA"/><path d="M49.08 36 32.72 19.24a.76.76 0 0 0-.57-.24c-.21 0-.42.09-.58.24l-4.03 4.44-3.99-4.42a.83.83 0 0 0-.6-.26.8.8 0 0 0-.55.24L6.92 36H6l15.83-17.5c.3-.35.72-.5 1.13-.5.4 0 .82.18 1.15.48l3.43 3.78 3.43-3.76c.33-.32.74-.5 1.16-.5.4 0 .82.18 1.15.5L50 36h-.92Z" fill="#F0F3FA"/></svg>