<!-- by TradingView --><svg width="56" height="56" viewBox="0 0 56 56" xmlns="http://www.w3.org/2000/svg"><path fill="#F0F3FA" d="M0 0h56v56H0z"/><path fill-rule="evenodd" d="M28 45a17 17 0 1 0 0-34 17 17 0 0 0 0 34Zm0-2a15 15 0 1 0 0-30 15 15 0 0 0 0 30Z" fill="url(#au5nwahrk)"/><path d="m35.04 24.28-5.2 6.19c-1.28 1.57-2.63 2.39-3.98 1.96a2.8 2.8 0 0 1-1.37-1.01c-.3-.4-.52-.86-.67-1.24l-2.02-5.29v-.05c-.07-.2-.2-.53-.4-.77s-.33-.26-.42-.26c-.15.01-.32.1-.52.33-.2.24-.32.53-.37.7l-.02.06-3.06 7.53a1.05 1.05 0 0 1-1.93-.78l3.01-7.43c.12-.4.37-.93.76-1.4a2.82 2.82 0 0 1 2.01-1.1c1-.06 1.72.5 2.15 1.02.41.5.66 1.08.78 1.5l1.99 5.19c.1.27.23.53.38.72.15.2.27.27.33.29.02 0 .54.16 1.73-1.3l5.28-6.28.03-.03c.77-.78 1.96-1.53 3.2-1.47.67.02 1.32.29 1.84.85.5.54.8 1.28.97 2.17v.04l.69 7.52a1.05 1.05 0 0 1-2.08.2l-.68-7.43a2.2 2.2 0 0 0-.44-1.08.51.51 0 0 0-.38-.18c-.4-.02-1.03.26-1.6.83Z" fill="#3B75FD"/><path d="M20.85 23.84a.9.9 0 0 0-.39.3c-.2.24-.32.53-.37.7l-.02.06-3.06 7.53a1.05 1.05 0 1 1-1.93-.78l3.01-7.43c.1-.3.25-.68.5-1.05.78-.29 1.8-.34 2.26.67Z" fill="#359BFA"/><path d="M37.13 23.75c.12.18.25.47.34.96l.68 7.42a1.05 1.05 0 1 0 2.08-.19l-.68-7.52-.01-.04a4.26 4.26 0 0 0-.97-2.17 2.6 2.6 0 0 0-1.84-.85c-.83-.04-1.65.3-2.33.75 1.04-.13 2.48.1 2.73 1.64Z" fill="#384DFD"/><path d="M20.81 23.85a.5.5 0 0 1 .17-.04c.09 0 .22.02.42.26.2.24.33.57.4.77v.05l2.02 5.28c.15.4.37.84.67 1.25.3.4.75.82 1.38 1.01 1.03.33 2.07-.08 3.07-1-1.46-.07-2.18-.6-2.46-1a.8.8 0 0 1-.32-.28 3 3 0 0 1-.38-.72l-1.99-5.2c-.12-.41-.37-1-.78-1.49a2.58 2.58 0 0 0-2.15-1.02c-.93.06-1.6.58-2.01 1.1l-.29.38c1.1-.35 1.86.16 2.25.65Z" fill="#388FF9"/><circle cx="35.5" cy="27.5" r="1.5" fill="url(#bu5nwahrk)"/><defs><linearGradient id="au5nwahrk" x1="17.73" y1="14.35" x2="38.71" y2="40.58" gradientUnits="userSpaceOnUse"><stop stop-color="#399EF8"/><stop offset="1" stop-color="#3062F3"/></linearGradient><linearGradient id="bu5nwahrk" x1="34.5" y1="26.43" x2="36.22" y2="28.74" gradientUnits="userSpaceOnUse"><stop stop-color="#2B98F3"/><stop offset=".98" stop-color="#3758F5"/></linearGradient></defs></svg>