<!-- by TradingView --><svg xmlns="http://www.w3.org/2000/svg" width="56" height="56" viewBox="0 0 56 56"><path fill="#F0F3FA" d="M0 0h56v56H0z"/><path fill-rule="evenodd" d="M35.25 12.3c.24 0 .63.56.29 2.8.6-1.42 1.88-3.97 2.28-2.8.41 1.22-.49 7.07-2.08 10.73h.04a4.72 4.72 0 0 1-.89 3.34 10.3 10.3 0 0 1-1.65 1.88c-.23.2-.4.5-.5.79-.11.28-.17.56-.19.72-.04 1.18.1 1.69.55 2 .23.16.55.27 1 .38l1.04.22.66.14a8 8 0 0 0 4.92-.57l.02-.01a7 7 0 0 1 1.87-.2c.74.02 1.53.17 2.1.62a14.6 14.6 0 0 0 2.56 1.79 8.11 8.11 0 0 0 1.05.36c.17.06.33.12.45.19.06.03.11.06.15.1.04.04.08.1.08.17 0 .15-.1.24-.19.3a.58.58 0 0 1-.26.04c-2.35-.04-3.2.07-3.72.2l-.3.07h-.02l-.04.02a4.99 4.99 0 0 1-1.51.17c-1.1 0-1.39-.08-1.61-.15h-.01a1.3 1.3 0 0 0-.33-.07 5.64 5.64 0 0 0-2.32.34 25.97 25.97 0 0 1-4.9 1.03c-2.1.3-2.93.6-3.75.92l-.45.17c-1.01.36-2.3.7-5.92.94-2.9.19-5.19-.02-6.88-.36a10.09 10.09 0 0 1-3.25-1.11 5.43 5.43 0 0 1-2.9-.3c1.22.17 4.35.16 7.11-1.25l-.32.19c.15.05.55.15 1.12.13-.22.06-.74.16-.99.1.28.14 1.06.32 1.92 0a2.9 2.9 0 0 1-2.38.18c-.16.07-.42.24-.24.32.24.09 4 .36 5.54-.12-.54.18-1.92.54-3.06.52-.71-.01-1.44-.12-2-.2-.56-.08-.96-.14-1.01-.06-.11.16-.05.63 3.01.59 3.06-.05 5.32-.2 8.38-1.58-.64.64-2.92 1.91-6.89 1.88-3.79-.04-4.52-.33-4.77-.43-.08-.03-.12-.05-.18-.03-.28.08-.32 1.2 5.35.79 4.53-.33 6.46-1.31 6.86-1.76-.13.37-1.02 1.2-3.49 1.58a8.8 8.8 0 0 0-1.62.25c-.09.1 3 .58 7.12-2.17a6.35 6.35 0 0 1-2.8 1.77l-.89.33c.93-.11 3.12-.54 4.47-1.36.23-.19.71-.68.82-1.18l.46.2v-.88l.5.09.11-.67.45.36-.05-.87.55.4v-.76l.39.28.11-.71-.42.16v-.79l-.44.17.08-.47a2.1 2.1 0 0 1-.46-.23c-.54-.38-.68-1-.64-2.18.02-.19.08-.48.2-.8.12-.3.3-.62.56-.86.3-.28 1.02-.95 1.62-1.84.55-.83.98-1.85.9-2.92-.28.59-.57 1.12-.88 1.54a74.86 74.86 0 0 0 1.63-5.04c-.06-.13-.15-.22-.3-.23-.5-.03-.96 1.62-1.2 2.74.23-1.25.44-3.15-.15-3.16-.5 0-.65 1.45-.77 2.65l-.1.95c.06-1.25-.01-3.66-.84-3.29-.78.35-.31 2.26-.03 3.37l.03.16-.33-.9c-.38-1.11-.8-2.33-1.36-1.92-.73.51.25 2.34.83 3.19-.15-.18-.31-.42-.48-.67-.57-.83-1.25-1.83-1.84-1.51-.69.37.44 1.8 1.26 2.64-.7-.69-1.84-1.7-2.18-1.57-.47.17.86 2.05 1.95 2.71h.96c-.34.1-1.03.35-1.2.57.08-.12.17-.35.05-.46l-.03-.02c-.32-.28-2.16-1.86-2.56-1.55-.42.32.46 1.48 2.1 2.21-.02.01-.16-.05-.37-.15-.72-.31-2.25-1-2.79-.6-.56.42 1.33 1.25 2.35 1.63l.84-.41c-.2.13-.46.37-.75.67h.64l-1.27.68-.1.13.87-.07-1.47.76-.06.08-.04.05h.88l-1.51.75-.09.1.79.13-1.32.5-.04.05c.38-.01 2.7.77 2.07.62-.52-.12-2.11-.01-2.9.06l-.01.01h-.01l1.32.2h-1.84l-.13.05.83.3-1.9.03-.18.05 1.04.31-2.03-.04-.2.04 1.05.4-1.92-.2-.45.06-.08.02c.47.3 1.81.75 3.81.6-1.79.3-4.25.97-5.53 2.15.24-.35.94-1.12 1.77-1.46-.37.1-1.17.35-1.44.5.27-.21.88-.64 1.13-.69-.3.04-.94.15-1.13.24.08-.14.32-.45.68-.52l-.49-.4c.16.04.48.02.59-.29l-2.21.48c-.16.1-.28.18-.32.25l1.13-.3c-.42.16-1.27.52-1.27.64 0 .11 1.2-.24 1.8-.43-.64.2-1.92.73-2.03 1.24l1.01-.4c-.33.18-1 .63-1 .97l.72-.35c-.25.17-.72.57-.69.8.1 0 .3.03.27.15-.02.14-.14.52-.22.53l-.1.01c-.23.02-.88.06-1.66.38l-2.25.88c.44-.25 1.17-.72.65-.57l-1.8.52c.59-.24 1.65-.73 1.25-.7-.28 0-.93.18-1.48.34.74-.23 1.47-.5.91-.47a9.1 9.1 0 0 0-1.8.35l-.14.04.17-.08c.39-.17 1.3-.56.86-.54-.54.02-2.3.35-2.42.54-.13.2.82.2.98.14.13-.05.14.24.12.38-.71.07-2.17.1-2.27-.32-.12-.54 3.1-1.28 3.79-1.29a5.2 5.2 0 0 1-.07-1c.03-.45.83-1.36 1.6-.62-.28-.01-.86 0-.95.18-.11.22-.2.42.04.58l.06-.05c.1-.12.33-.37.68-.33-.13.13-.37.43-.32.57.06.16.18.27.43-.1.26-.38 2.7-1.7 3.85-1.93a.59.59 0 0 1-.25-.18.88.88 0 0 1-.17-.43.81.81 0 0 1 .07-.43c-.09.01-.17 0-.24-.01a.98.98 0 0 1-.32-.14h-.01v-.01a.73.73 0 0 1-.22-.47.6.6 0 0 1-.6-.41.63.63 0 0 1-.01-.34.5.5 0 0 1-.31-.12.91.91 0 0 1-.24-.3.55.55 0 0 1-.15-.44 1.36 1.36 0 0 1-.49-.4.58.58 0 0 1-.1-.39c0-.1.04-.2.12-.3v-.1c-.74-.1-1.1-.3-1.24-.57-.12-.23-.06-.45.05-.62-.32-.04-.55-.1-.71-.18a.77.77 0 0 1-.42-.44l-.02-.06a.13.13 0 0 1-.02-.07l.02-.07a.29.29 0 0 1 .1-.08c.06-.05.17-.09.28-.13l.27-.08a3.03 3.03 0 0 1-.48-.11 1.3 1.3 0 0 1-.63-.4c-.11-.15-.16-.29-.19-.39v-.01a.17.17 0 0 1 0-.1.2.2 0 0 1 .05-.09.47.47 0 0 1 .19-.1 7.05 7.05 0 0 1 .83-.09 2.26 2.26 0 0 1-1.52-1.61l-.02-.12 1.38.26c-1.37-.53-1.61-1.38-1.52-1.8l.01-.08 1.78.54a3.7 3.7 0 0 1-.99-1.05 5.61 5.61 0 0 1-.7-1.5l-.05-.22.18.14c.37.28 1.28.9 2.32 1.45-1.46-1.42-1.7-2.86-1.64-3.43l.01-.2.12.15c.15.18.51.53 1 1l1.45 1.33c-1.1-1.81-1.21-3.36-1.12-3.96l.05-.27.1.25c.25.6.76 1.4 1.39 2.27a5.59 5.59 0 0 1-.3-2.08c.05-.61.26-1 .44-1.15l.1-.09.22.94c.05.52.23 1.08.49 1.66.07-.51.22-1.35.35-1.79.08-.28.2-.43.34-.5a.39.39 0 0 1 .35-.01l.04.02.06.9c.2 1.54.46 2.69.72 3.49.27.8.51 1.24.66 1.4l.01.02v.02c.07.3.3.7.65 1.2.34.47.79 1.02 1.27 1.57.97 1.1 2.08 2.2 2.81 2.9l-.01.02.01-.01c.07-.44.24-.75.48-.97.23-.2.5-.3.8-.33-.26-.62-.25-1.03-.04-1.3.16-.2.4-.26.62-.26a1.94 1.94 0 0 1-.1-.24c-.1-.35-.12-.75.03-1.07a.46.46 0 0 1 .3-.27.71.71 0 0 1 .39.02c.07.02.15.05.22.09a3.7 3.7 0 0 1-.1-.25c-.14-.36-.2-.72-.17-1 .02-.3.15-.56.41-.66.31-.13.6-.04.85.13v-.01a3.9 3.9 0 0 1-.29-1.3c0-.42.1-.82.37-1.13l.02-.02.03-.02c.16-.05.38 0 .61.17.22.17.46.45.7.93-.1-.4-.2-.8-.27-1.18-.06-.4-.1-.77-.05-1.07.04-.28.15-.55.43-.62a.5.5 0 0 1 .4.08c.12.07.24.2.35.33.14.2.28.43.42.7a7.14 7.14 0 0 1 .14-1.16 7.94 7.94 0 0 1 .34-1.26c.05-.09.1-.18.18-.23.09-.06.18-.04.25 0 .07.05.13.11.17.18.1.14.2.35.3.58l.3.8a8 8 0 0 1 .52-1.94c.07-.15.14-.28.21-.38.07-.1.15-.2.24-.25.05-.03.1-.05.16-.05s.1.03.14.06c.08.06.13.16.18.26.09.21.16.52.22.86.07.43.13.93.17 1.39.17-1.55.62-2.98 1.61-3.48zM11.97 36.7zm18.44-10.6a.77.77 0 0 0-.2.1l.2-.1zm.2-.52zm.7-1.51zm3.48-1.3zm-7.34 5.9c.04.07.05.17 0 .28l-.12.2c-.1.1-.22.2-.4.31-1.14.2-3.95-.02-2.58-.6a6.01 6.01 0 0 1 3.1-.2zm-6.24 3.06h.13l.63-.8c-.27.1-.83.36-.94.56-.08.14.04.21.18.24zm-1.37-.12l1.1.1a.49.49 0 0 1-.08-.27c.02-.29.3-.46.67-.56a.47.47 0 0 1-.25-.23.38.38 0 0 1-.03-.1c-.13-.02-.22-.12-.28-.22a1 1 0 0 1-.06-.11L19.03 32c.16.02.5.04.9-.01.44-.06.13-.28-.09-.38zm-1.5.83l2.5-2.37-.07-.01a.4.4 0 0 1-.18-.11 1.07 1.07 0 0 1-.2-.36 2.52 2.52 0 0 1-.06-.18c-.45.28-1.07.7-1.58 1.16a4.42 4.42 0 0 0-.79.9.77.77 0 0 0-.12.46c.01.1.06.24.14.35.08.1.2.16.36.16zm2.69-2.34l.01-.01-.03-.03v-.01c.12-.04.25-.13.4-.26l.14.14c-.1.1-.19.2-.25.33a.49.49 0 0 0-.05.13.36.36 0 0 1-.15-.15.93.93 0 0 1-.07-.14zm-1.01-.88c.05.05.1.08.15.1-.45.28-1.04.7-1.53 1.13a4.58 4.58 0 0 0-.79.9c-.1.03-.2.02-.3 0a.83.83 0 0 1-.26-.11.57.57 0 0 1-.16-.3.6.6 0 0 1 .05-.34c.1-.24.34-.49.64-.73a9.38 9.38 0 0 1 2.04-1.18l.01.18c.02.12.06.26.15.35zm-3.04 1.51a.9.9 0 0 1 .06-.2c.12-.27.37-.54.68-.79a9.14 9.14 0 0 1 1.83-1.09.32.32 0 0 1-.06-.04.48.48 0 0 1-.17-.37 1 1 0 0 1 .02-.23c-.54.25-1.3.66-1.9 1.1-.3.24-.57.48-.74.7-.17.24-.24.44-.19.62.04.11.18.32.47.3zm1.77-3.09c.07.16.18.27.31.33-.51.25-1.17.62-1.71 1.02-.32.23-.6.48-.78.73-.06.08-.11.17-.15.25-.1.03-.2 0-.28-.07a.75.75 0 0 1-.2-.26v-.02a.4.4 0 0 1-.12-.26c0-.05 0-.1.03-.16a.7.7 0 0 1 .06-.12c.12-.2.38-.42.7-.63.62-.41 1.47-.78 2.1-1 0 .06 0 .12.04.19zm-3.04 1.49a.86.86 0 0 1 .06-.13c.15-.24.43-.47.75-.69.64-.41 1.51-.79 2.14-1.01a.58.58 0 0 1-.27-.28 15.85 15.85 0 0 0-2.4.78 2.3 2.3 0 0 0-.64.44.5.5 0 0 0-.13.27c-.01.1.02.19.08.28.1.14.25.25.4.34zm2.63-2.31v.04a16.01 16.01 0 0 0-2.42.8c-.23.11-.43.23-.58.36.03-.38.2-.93.8-1.19v-.01a14.43 14.43 0 0 0 2.27-.44c-.04.13-.08.28-.07.44zm2.45 2.3l.51.55a.97.97 0 0 1-.35.23.24.24 0 0 1-.13 0 .25.25 0 0 1-.11-.07.92.92 0 0 1-.17-.3 2.43 2.43 0 0 1-.07-.21c.1-.04.22-.1.32-.2zm-.77-.52v.25c.02.11.06.2.11.26.07.07.16.09.26.06.1-.02.2-.08.3-.16l-.46-.53a1.4 1.4 0 0 1-.2.12zm-.12-.53l.23.29c-.07.05-.15.1-.24.13-.13.05-.24.05-.3 0-.08-.06-.11-.15-.12-.26 0-.1.02-.2.04-.27a.97.97 0 0 0 .21-.12l.18.23zm-1.1-.89a.97.97 0 0 1 .29-.27c-.15-.26-.26-.5-.29-.7l-.16.09h-.02a.99.99 0 0 0-.12.5c0 .1.03.17.09.24.04.05.1.1.2.14zm.36-.13a.82.82 0 0 0-.21.19c-.08.1-.11.21-.06.33.08.18.2.26.33.28a.6.6 0 0 0 .4-.13 9.03 9.03 0 0 1-.46-.67zm-3.97.89c.04-.34.19-.79.6-1.09l-.1.01c-.64.07-1.14.08-1.51.05-.12.15-.2.35-.1.53.1.2.4.4 1.11.5zm6.8 1.73c-.11.04-.22.1-.32.16-.45-.46-1.1-1.16-1.65-1.86-.29-.36-.55-.72-.74-1.04-.2-.32-.31-.59-.33-.77-.01-.16.1-.31.32-.45.23-.13.56-.23.94-.31.75-.17 1.66-.23 2.27-.23l1.1 1.07a.83.83 0 0 0-.36.65 1.06 1.06 0 0 0 0 .42 1.6 1.6 0 0 0-.39.15.84.84 0 0 0-.44.57.44.44 0 0 0 0 .3c.04.1.11.2.23.27-.18.05-.36.13-.5.23a.58.58 0 0 0-.25.42.7.7 0 0 0 .12.42zm-1.2-6.32c.5.57 1.03 1.14 1.54 1.66-.61.02-1.45.08-2.16.23-.38.08-.72.2-.97.34-.2.11-.36.26-.4.45-.03.03-.1.07-.22.12l-.57.18c-.5.13-1.25.27-2.33.38-1.36.13-2 .02-2.32-.13a.61.61 0 0 1-.34-.36.83.83 0 0 0-.03-.06l.04-.03a5.98 5.98 0 0 1 .93-.28c.67.05 1.62 0 2.96-.18l.09-.15c-2.13.3-3.35.2-3.94 0-.3-.1-.46-.22-.56-.34-.09-.12-.13-.24-.16-.34v-.02l.01-.01a.32.32 0 0 1 .12-.06c.13-.04.32-.06.54-.07.45-.03 1 0 1.38.03v-.04c1.4.1 3.48.13 4.47.12l.22-.15c-1.17 0-4.03-.03-5.33-.19a2.13 2.13 0 0 1-1.82-1.48l2.73.51v-.01c1.52.34 3.34.57 4.23.66l.36-.07a37.27 37.27 0 0 1-5.82-1.08c-1.46-.47-1.73-1.25-1.71-1.62l6.81 2.1.7-.02-1.28-.39-.23-.14a11.43 11.43 0 0 0-3.06-2.14c-1.64-1.36-2-2.8-2.02-3.49a117.75 117.75 0 0 0 2.65 2.48c1.33 1.2 2.82 2.5 3.79 3.35l.41.08c-.94-.81-2.68-2.27-3.97-3.43a7.3 7.3 0 0 1-1.44-4.04 18.13 18.13 0 0 0 1.59 2.46l.75.97a73.04 73.04 0 0 0 2.98 3.58l.39.24a89.16 89.16 0 0 1-4-4.9c-.4-1.09-.49-1.9-.44-2.48.04-.47.17-.78.3-.95l.15.65c.06.6.28 1.27.6 1.94v.02h.01c.23.48.5.96.8 1.43.7 1.12 1.51 2.13 2.04 2.74l.24.34c.35.5.8 1.04 1.28 1.6zm-6.87-1.5l3.6 1.08a11.3 11.3 0 0 0-2.92-2.02h-.02c-1.1-.52-2.13-1.2-2.66-1.58.12.34.32.8.6 1.22.35.53.82 1.02 1.41 1.24l-.01.06zm2.65-4.65c.23.47.5.94.78 1.4.51.8 1.08 1.57 1.56 2.16a1.68 1.68 0 0 1-.07-.23c-.17-.2-.42-.66-.68-1.44-.26-.81-.53-1.97-.73-3.53l-.05-.8a.24.24 0 0 0-.17.01c-.09.05-.19.16-.26.42-.15.5-.33 1.58-.38 2.01zm-2.68 20.2h-.01l.22.11-.2-.11zM37.5 12.55c.31 1.32-.24 4.07-.99 6.78-.23-.25-.79.15-1.19.55-.03-.44-.12-.7-.25-.84h.01c.83-4.78 1.96-6.32 2.42-6.5zm-2.42.28c.63.16.12 4.06-.23 6.1-.33-.03-.75.39-1 .74h-.01v-.01c-.14-3.15.44-7.04 1.24-6.83zm-1.51 3.98c-.04.99.02 1.94.1 2.66-.52-.58-.93-.3-1.18.15l-.45-2.38a5.84 5.84 0 0 1 .18-2.24 5.83 5.83 0 0 1 .53-1.34c.06-.09.12-.15.16-.18.02.02.06.06.1.16.07.17.14.46.2.8.1.54.27 1.64.36 2.37zm-1.78.48c.17.98.4 2.2.52 2.76l-.08.27c-.19-.2-.63-.54-1.05-.56-.2-.7-.49-1.56-.8-2.3a15.27 15.27 0 0 1 .02-.74 11.94 11.94 0 0 1 .32-1.8l.12-.3c.03-.06.05-.1.07-.11l.08.1a3 3 0 0 1 .27.53c.19.45.37 1.02.48 1.41 0 .26 0 .52.05.74zm-2.61 9.54c-.88-.33-2.65-.9-3.03-.7-.45.26.44 1.1 2.11 1.3h.32c.32-.19.5-.43.6-.6zm-.83.73c-.92-.16-2.7-.3-3.28.26-.59.57 1.56.55 2.45.54h.25c.66-.34.7-.63.58-.8zm-1.54 2.13c-.9.08-2.58.23-2.8.23-.27.01-.85.5-.72.58.1.06 1.24.2 1.88.26.22-.04.44-.1.62-.17.63-.25.91-.64 1.02-.9zm-4 1.09c.22-.35.55-.88.62-1.02-.26 0-.54 0-.8.03-.54.07-.95.26-1.09.6v.01c-.03.05-.04.1-.02.15.01.04.24.22.47.26.27-.03.56-.04.82-.03zm.99-1.94c-.03.25-.15.5-.24.66a4.96 4.96 0 0 0-1.3.1c-.1-.14-.13-.25-.13-.32.01-.08.06-.16.15-.23.19-.14.52-.22.78-.25v-.02c.2.05.44.07.74.06zm1.17-.34c-.07.03-.46.1-.8.16l-.01-.1c-.78.06-1.18-.04-1.37-.15-.1-.06-.14-.12-.15-.16a.17.17 0 0 1 0-.12v-.02c.04-.18.15-.31.32-.4.12-.07.26-.12.42-.15l.03.02.02-.03.2-.03c.46-.04.97.01 1.36.08l-.14.09c-.34.22-.1.5.04.66.06.08.11.13.08.15zm1-1.44c-.15.07-.43.22-.73.4l.01-.07a5.69 5.69 0 0 0-1.76-.12.4.4 0 0 1-.02-.09.79.79 0 0 1 0-.24v-.02a.56.56 0 0 1 .26-.46c.16-.1.38-.16.64-.18.43-.03.94.05 1.33.14.04.23.16.49.26.64zm-.1-1.08a.3.3 0 0 0-.16.18c-.4-.1-.91-.18-1.36-.14-.12 0-.24.02-.35.05.07-.31.2-.52.36-.67.2-.17.45-.25.73-.27.57-.04 1.23.2 1.66.42.06.14.1.25.03.3-.07.03-.16.03-.27.02a1.04 1.04 0 0 0-.65.11zm.85-1.05c-.1.07-.1.16-.09.27a3.71 3.71 0 0 0-1.36-.34c-.3-.65-.24-.97-.12-1.12.12-.15.36-.19.58-.16.1.13.2.24.33.32l.38.2c.34.2.74.43.92.55-.25.08-.5.17-.64.28zm1.17-.42l-.15.04c-.2-.13-.63-.37-1-.58l-.55-.3a1.2 1.2 0 0 1-.46-.68c-.1-.31-.1-.64 0-.88.04-.08.09-.11.14-.13a.46.46 0 0 1 .24.02c.2.06.42.2.56.32.27.42.63.82 1.07 1.14-.13.24.03.77.15 1.05zm.8-1.25c-.11-.02-.38-.03-.7.05a3.86 3.86 0 0 1-1.44-1.81 2.1 2.1 0 0 1-.15-.9c.02-.23.11-.37.25-.43.25-.1.5 0 .74.22.12.1.23.24.32.36.3.59.66 1.12.95 1.5-.15.24-.08.7.02 1.01zm.65-1.07a.84.84 0 0 0-.46-.09 9.57 9.57 0 0 1-.73-1.09h.02a6.96 6.96 0 0 1-.53-1.05 3.64 3.64 0 0 1-.27-1.22c0-.36.08-.67.28-.91.06 0 .17 0 .34.13.2.15.44.44.7.99.52 1.1.83 1.9.92 2.16-.24.25-.3.73-.27 1.08zm1.41-.98c-.4-.25-.69-.3-.9-.25l-.4-1.24c-.21-.6-.5-1.5-.62-2.26a3.52 3.52 0 0 1-.05-.99c.03-.26.12-.38.23-.4.05-.02.12-.01.2.04.09.05.18.15.28.28.2.26.4.65.6 1.1.34.75.64 1.66.85 2.38-.2.27-.22.95-.19 1.34zm7.22 14.31c.15-.18.37-.56.37-1.07.06.17.2.59.19.92.24-.55.42-1.82-.7-2.52-.21.01-.43.02-.64.01.38.54.92 1.64.78 2.66zm10.6-.7a4.05 4.05 0 0 0-.67-.25c-.25-.08-.5-.16-.7-.25-.37-.16-.74-.4-1.27-.79-.14-.04-.32-.04-.44.09-.2.2-.13.37-.08.42-.08.12-.2.37 0 .44.2.08 2.07.33 2.98.45.09-.01.2-.05.18-.12zm-8.13-2.54c-.23.1-.53.2-.87.3.15.08.37.18.57.17.17-.01.11.1.05.22-.07.13-.14.27 0 .3.17.03.5-.08.85-.18.3-.1.58-.19.76-.19.21 0 .12-.08.02-.17-.08-.07-.17-.15-.14-.21.04-.07.4-.07.74-.08.37-.01.73-.02.71-.1-.02-.07-.6-.03-1.18.01-.57.05-1.15.09-1.32.04-.1-.04-.16-.07-.19-.1zm-18.65-.54c-.05-.03-.14-.1-.12-.2.03-.12.65-.66.72-.63.06.04 0 .25-.23.49-.18.19-.32.3-.37.34zm-4.23 1.58c-1.68.24-3 1.37-3.45 1.9.3-.17 1.15-.57 1.53-.75l-.77.86 2.47-1.52-.77.1.99-.56v-.03zm-1.91 2.17l-.05.05a5.57 5.57 0 0 0 1.6-1.01c-.93.15-1.41.78-1.55.96zm18.58-9.11l-.6-1.53c.14.17.44.58.53.82.09.24.08.57.07.7zm-2.29.71l1.06.73c-.05-.1-.2-.35-.37-.48a2.24 2.24 0 0 0-.69-.25zm.69 1.1l-1.06-.73c.16.03.52.13.69.25.16.12.31.37.37.48zm-1.43-.26l1.13.6c-.07-.1-.24-.33-.42-.43-.17-.1-.55-.16-.71-.17zm.9 1.1l-1.14-.6c.17.02.54.07.72.17.17.1.35.33.42.44zm-1.36-.11l1.14.6c-.07-.1-.25-.33-.42-.43-.18-.1-.55-.16-.72-.17zm.87 1.14l-1.36-.72c.2.02.65.09.86.2.2.13.42.4.5.52zm-.08.61l-1.66-.89c.24.03.79.1 1.05.26.25.14.51.48.61.63zm1.6-5.67l.6 1.53c0-.13.01-.46-.07-.7a3.92 3.92 0 0 0-.53-.83zm-.06 1.73l-.6-1.54c.15.18.45.59.53.83.09.24.08.57.07.7zm-1.03-1l.57 1.12c0-.12 0-.4-.1-.59a2.16 2.16 0 0 0-.47-.54zm-.12 1.07l-.43-.84c.1.07.3.26.36.4.06.13.07.35.07.44zm-.83 8.44c-.44.23-.69.4-.76.45.28-.05.91-.21 1.25-.45.34-.24.23-.63.13-.79-.02.16-.17.55-.62.79zm-3.6.32c.04-.07.11-.22 1.08-.37.92-.15 2.1-.61 2.57-.83a3.9 3.9 0 0 1-1.85.99l-1.81.24.02-.03zm.45-1.05c-1.07.27-1.5.53-1.58.62l1.78-.31c.94-.17 1.35-.65 1.43-.86-.1.07-.56.27-1.63.55zm-5.36.29a.47.47 0 0 1-.03.03c.05 0 .2-.07.44-.17.53-.23 1.43-.63 2.3-.77-1.56-.2-2.5.72-2.7.9zm-1.03-.2a5.34 5.34 0 0 1 4.4-1.23c-2.13 0-4.36 1.19-4.4 1.24zm5.42-2.9l2-.1c-.06-.1-.2-.3-.17-.3.03-.02 1.97-.1 2.83.73a6.4 6.4 0 0 0-2.35-.11c-1.4.1-2.12-.1-2.31-.22zm2.07-1.55l2.6 1.2a2.9 2.9 0 0 0-1.48-.99c-.65-.15-1-.2-1.12-.21zm.74 2.24a5 5 0 0 0-2.63.34l1.41-.16 1.22-.18zm13.51 1.03c.01-.2.04-.6.47-.55.54.08.59.3.5.45-.03.07-.09.04-.16 0-.09-.06-.2-.12-.34-.05l-.48.24.01-.1zm-2.31.37c.02-.04.93-.43 1.96-.18.07.08.19.27.1.33-.04.04.07.07.21.1.22.06.51.14.58.3.07.17-.52.15-1.1.12-.28-.01-.56-.02-.77 0-.26 0-.16-.02 0-.07.2-.06.5-.16.28-.22-.28-.07-.49-.02-.67.02-.08.02-.16.04-.24.04-.08 0-.05-.06-.01-.13.07-.14.16-.34-.34-.31z" fill="#665C53"/></svg>