<!-- by TradingView --><svg width="56" height="56" viewBox="0 0 56 56" xmlns="http://www.w3.org/2000/svg"><path fill="url(#a1wjizjt3)" d="M0 0h56v56H0z"/><path d="M17.4 29h-4.12c-.19 0-.18.04-.16.21.04.31.16.6.37.85.13.16.3.3.48.38.2.1.4.14.62.15.7.04 1.4-.11 2-.44l.12-.06.1.19c.12.28.26.56.39.83a.1.1 0 0 1 .01.1.1.1 0 0 1-.02.04 4.72 4.72 0 0 1-3.74.61c-.52-.12-1-.38-1.39-.75a2.8 2.8 0 0 1-.78-1.31 4.17 4.17 0 0 1 .2-3.08c.22-.52.61-.97 1.12-1.27.5-.31 1.09-.47 1.69-.45a3.5 3.5 0 0 1 1.54.3 2.42 2.42 0 0 1 1.44 1.76c.07.3.11.6.12.92.02.35 0 .65 0 1.02Zm-1.85-1.02c-.05-.58-.12-1.22-.71-1.49a1.16 1.16 0 0 0-1.06.06c-.48.28-.6.94-.67 1.45l2.44-.02ZM6 32H4v-7h1.72l.08 1.1.17-.21a2.35 2.35 0 0 1 2.96-.61 1.9 1.9 0 0 1 .96 1.4c.07.35.1.7.11 1.05V32H8v-4.43c-.02-.48-.09-1-.62-1.08-.44-.12-1.41.01-1.38.64V32ZM22 25h2v7h-1.72l-.08-1.1-.17.21a2.35 2.35 0 0 1-2.96.61 1.9 1.9 0 0 1-.96-1.4c-.07-.35-.1-.7-.11-1.05V25h2v4.43c.02.48.09 1 .62 1.08.44.12 1.41-.01 1.38-.64V25ZM26 22h.81v4.07l.31-.37c.23-.25.51-.45.83-.59.31-.14.66-.21 1.01-.22 1.5-.07 2.32.73 2.75 1.83.24.7.33 1.44.27 2.18 0 .64-.17 1.27-.49 1.84-.56.94-1.45 1.33-2.6 1.25-.4-.01-.8-.11-1.16-.3a2.45 2.45 0 0 1-.87-.75l-.07-.09-.09 1H26V22Zm5.18 6.57c0-.2-.02-.4-.04-.6a3.42 3.42 0 0 0-.46-1.5c-.2-.36-.52-.64-.92-.8-.47-.16-1-.18-1.48-.05-.32.09-.6.24-.85.45-.24.2-.43.46-.55.74a.5.5 0 0 0-.05.22v2.93c0 .07.01.13.04.2.16.33.42.62.75.83.33.21.72.34 1.12.36.95.07 1.66-.24 2.08-1.04.25-.55.38-1.15.36-1.74ZM38.17 32h-.83l-.15-1.18c-.1.11-.22.24-.35.35-.4.38-.9.64-1.46.76-.56.12-1.14.09-1.67-.09-.34-.1-.64-.3-.86-.55a1.57 1.57 0 0 1-.37-.92c-.06-.33-.02-.67.11-.98.14-.3.37-.58.66-.77.34-.25.74-.42 1.17-.49.41-.06.83-.1 1.25-.12.52-.02 1.02 0 1.53 0a.4.4 0 0 0 0-.07v-.89c0-.25-.07-.5-.22-.71a1.37 1.37 0 0 0-.6-.49 2.55 2.55 0 0 0-2.24.09 1.21 1.21 0 0 0-.73 1.06h-.73c-.03-.25.02-.5.15-.73.28-.5.75-.88 1.33-1.06.79-.28 1.66-.28 2.46 0 .42.14.78.4 1.03.74.25.35.38.77.35 1.18v3.25c0 .47.05 1.16.17 1.62Zm-.96-3.42c-.74.01-1.46 0-2.18.06-.55.03-1.07.26-1.44.65-.15.15-.26.33-.3.53-.06.2-.06.42 0 .61.06.2.18.38.34.53.15.15.35.25.56.3.42.1.87.1 1.3 0 .34-.06.66-.2.95-.4.29-.19.53-.44.7-.72.04-.05.07-.1.07-.17v-1.4ZM52 28.51h-5.18c-.04.6.1 1.2.4 1.72.18.36.48.65.85.85.37.2.8.3 1.22.28.59 0 1.16-.14 1.66-.42l.46-.32.33.5c-.2.2-.46.38-.75.5a3.86 3.86 0 0 1-2.99.15 2.96 2.96 0 0 1-1.83-1.98 4.72 4.72 0 0 1-.14-1.77c.02-.57.2-1.12.53-1.61a2.93 2.93 0 0 1 2.28-1.4c1.63-.12 2.8.7 3.07 2.13.06.46.09.91.09 1.37Zm-.8-.65a6.02 6.02 0 0 0-.11-.78c-.39-1.4-1.8-1.67-2.77-1.3-.29.12-.54.29-.75.5-.22.22-.38.47-.48.74-.12.27-.19.55-.2.84h4.31ZM44.6 27h-.73a1.36 1.36 0 0 0-.42-.9c-.17-.16-.39-.28-.62-.35a2.63 2.63 0 0 0-1.75.03c-.21.06-.4.18-.53.34-.14.16-.23.35-.26.55-.03.2 0 .4.1.59.1.18.25.33.44.42.37.19.77.32 1.18.39.6.12 1.2.3 1.75.57.23.12.44.28.6.49a1.62 1.62 0 0 1 .28 1.43c-.07.24-.2.47-.38.66-.36.36-.84.6-1.36.7-.76.15-1.55.1-2.27-.17-.3-.1-.58-.26-.8-.48a1.87 1.87 0 0 1-.48-.78 1.83 1.83 0 0 1-.05-.43c0-.03.05-.09.08-.09h.65l.05.3c.04.15.1.3.2.43.1.14.24.25.39.33a2.89 2.89 0 0 0 2.43.14c.18-.06.35-.15.48-.28.13-.13.23-.29.29-.46a1 1 0 0 0-.03-.64c-.08-.2-.22-.38-.42-.51a3.17 3.17 0 0 0-1.15-.46 9.33 9.33 0 0 1-1.65-.47c-.4-.14-.72-.4-.94-.74-.18-.33-.24-.7-.16-1.06.07-.36.27-.69.56-.93.44-.36 1-.57 1.57-.6.62-.07 1.26.02 1.83.27.3.12.56.32.75.56.2.24.33.53.37.83V27Z" fill="#fff"/><defs><linearGradient id="a1wjizjt3" x1="10.42" y1="9.71" x2="68.15" y2="76.02" gradientUnits="userSpaceOnUse"><stop stop-color="#1A1E21"/><stop offset="1" stop-color="#06060A"/></linearGradient></defs></svg>