<!-- by TradingView --><svg width="56" height="56" viewBox="0 0 56 56" xmlns="http://www.w3.org/2000/svg"><path fill="#0947B3" d="M0 0h56v56H0z"/><path d="m14 29-7-7v12h2v-6.53L16 34V22h-2v7ZM28 24.25A6.23 6.23 0 0 0 23.18 22 6.09 6.09 0 0 0 17 28c0 3.31 2.76 6 6.18 6 1.8 0 3.42-.75 4.55-1.95l-1.62-1.54a4 4 0 1 1 .25-4.69L28 24.25ZM49 24.25A6.23 6.23 0 0 0 44.18 22 6.09 6.09 0 0 0 38 28c0 3.31 2.76 6 6.18 6 1.8 0 3.42-.75 4.55-1.95l-1.62-1.54a4 4 0 1 1 .25-4.69L49 24.25ZM33 22v4.84L31.77 30h2.46L33 26.84V22l5 12h-2.22L35 32h-4l-.78 2H28l5-12Z" fill="#fff"/></svg>