<!-- by TradingView --><svg width="56" height="56" viewBox="0 0 56 56" xmlns="http://www.w3.org/2000/svg"><path fill="#F0F3FA" d="M0 0h56v56H0z"/><path fill-rule="evenodd" d="M9 18h38v20H9V18ZM8 39V17h40v22H8Zm17.04-12.97c-1.8-1.56-6.66-4.63-10.26-5.02-4.5-.49-3.91 6.4-1.45 9.59 2.47 3.2 6.23 5.14 9.9 3.2 3.69-1.95 5.06-3.2 7.95-5.91 2.9-2.71 5.1-3.77 7.95-3.73 2.86.04 2.97 2.96 2.97 3.73s-.94 2.87-4.89 2.79l2.9.8c-2.1 0-6.89-.37-9.8-1.65l-.34-.17.35.17 2.8 1.31c-.45 0-1.4.1-1.56.53 1.37-.04 4.54-.05 6.22.23l-2.63.36c.87.37 3.24.9 5.66 0 3.02-1.12 3.51-3.53 3.28-5.81.55 1.55.5 5.02-3.98 6.44 1.95-.06 5.58-1.5 4.48-6.86-1.1-5.36-5.99-5.12-8.3-4.33-1.52.5-5.24 2.27-7.91 5.46-3.34 3.98-7.35 4.74-8.76 4.74-1.42 0-4.88-.7-6.29-6.16-.15-.5-.37-1.68 0-2.38.38-.7 1.98-.68 2.73-.59-1.06-.53-3.23-1-3.48 1.4-.3 2.99 1.99 6.7 4.9 8.29-1.69-.43-5.1-2.69-5.28-8.3-.16-4.79 8.48-.36 11.89 1.39l.95.48Z"/></svg>