<!-- by TradingView --><svg width="56" height="56" viewBox="0 0 56 56" xmlns="http://www.w3.org/2000/svg"><path fill="#F0F3FA" d="M0 0h56v56H0z"/><path d="M48.5 27.58a46.92 46.92 0 0 0-5.08-1.57l-.67-.18-2.05-.5c-1.35-.3-2.74-.56-4.13-.75l-.4-.05 1.23.5 2.15.87c.68.06 1.36.15 2.03.25l1.84.3.61.13a37.45 37.45 0 0 1 4.27 1.02h.05l.4.07-.24-.09Z" fill="#0000A5"/><path d="M50.7 28.87a4.92 4.92 0 0 0-2.27-1.28c-2.36-.49-5.45-.42-7.68-.84-.04 0-.07 0-.06.08.23.39-22.6 7.84-22.6 7.84s33.24-4.2 33.76-4.24l.15-.02-1.3-1.54Z" fill="url(#axttsghel)"/><path d="M48.3 27.6c-.89-.27-1.85-.52-3.03-.77-.41-.1-.84-.18-1.24-.25l-.6-.12-1.85-.3a39.6 39.6 0 0 0-2.03-.26l.7.27.92.36c.63.24 1.28.5 1.92.72l.1.04a48.83 48.83 0 0 1 3.14.1c.7.05 1.34.12 1.93.2l.09.02-.05-.02Z" fill="url(#bxttsghel)"/><path d="M41.83 28.69c-.6.15-1.2.33-1.8.53l1.13.1.32.02 1.85.08.61.01 1.25.02c1.22 0 2.22-.05 3.14-.13l.27-.08.09-.05a36.5 36.5 0 0 1-4.03-.2c-.46-.03-.94-.08-1.39-.13l-.68-.08-.76-.1" fill="#000085"/><path d="m43.19 27.29-.94.01c-1.1.02-2.2.1-3.29.25l-.8.1-1.34.18c1.23.28 2.48.5 3.7.68l1.23.2.9-.23c.8-.19 1.62-.36 2.47-.5-.6-.21-1.25-.44-1.93-.7" fill="#000085"/><path d="M45.12 27.98a42.8 42.8 0 0 0-3.3.7l.77.1.68.08 1.39.14 1.2.1c1.03.07 1.96.1 2.83.09l.05-.03c-1.12-.33-2.29-.7-3.62-1.18" fill="#000085"/><path d="m15.85 25.37 13.2 1.95h2.45l-2.03-.55-13.62-1.4Z" fill="#005CFF"/><path d="m34.06 25.56 5.49.34-3.42-1.38L8.99 20l25.07 5.56Z" fill="url(#cxttsghel)"/><path d="m38.38 25.8-.5-.03-3.7-.21-7.38-.5-2.59-.14-.5-.03.38.09 8.2 1.8 4.1.95.42.1 1.35-.18.8-.1a31.58 31.58 0 0 1 4.22-.26l-.1-.04-1.91-.72-.93-.36-.7-.27-1.16-.1" fill="#000091"/><path d="m30.16 33.7 18.53-4.51-3.1 1.99" fill="#0000A5"/><path d="m21.72 36 13.75-5.2 12.15-1.35L21.72 36Z" fill="#005CFF"/><path d="M36.5 27.78 4 29.5l31.36 1.36 6.48-2.13-5.33-.95Z" fill="#B30000"/><defs><linearGradient id="axttsghel" x1="33.6" y1="37.79" x2="36.98" y2="25.41" gradientUnits="userSpaceOnUse"><stop stop-color="#B30000"/><stop offset=".79" stop-color="#005CFF"/><stop offset="1" stop-color="#000091"/></linearGradient><linearGradient id="bxttsghel" x1="43.95" y1="25.94" x2="43.95" y2="27.24" gradientUnits="userSpaceOnUse"><stop stop-color="#005CFF"/><stop offset="1" stop-color="#000091"/></linearGradient><linearGradient id="cxttsghel" x1="24.34" y1="22.54" x2="24.09" y2="24.02" gradientUnits="userSpaceOnUse"><stop stop-color="#000091"/><stop offset=".21" stop-color="#005CFF"/><stop offset="1" stop-color="#B30000"/></linearGradient></defs></svg>