<!-- by TradingView --><svg width="56" height="56" viewBox="0 0 56 56" xmlns="http://www.w3.org/2000/svg"><path fill="#F0F3FA" d="M0 0h56v56H0z"/><path d="M33 28c0-2.4 1.95-4 4-4 2.04 0 4 1.95 4 4s-1.42 4-4 4c-2.05.01-4-1.76-4-4Zm10 0a6 6 0 1 0-6 6h4.17c1.9 0 1.82-1.92 1.82-1.92V28H43Z" fill="#DC1C28"/><path d="M15 33c0 .53.31 1 1 1 .65 0 1-.49 1-1.13V28a6 6 0 0 0-12 0v5c0 .53.31 1 1 1 .65 0 1-.49 1-1.13V28a4 4 0 0 1 4-4c2.04 0 4 1.56 4 4v5ZM27.15 27H23.9c-.55 0-.9.45-.9 1 0 .56.34 1 .89 1h4.4c.39 0 .73-.2.97-.5 0 0 .97-1.32.03-3.12a5.92 5.92 0 0 0-11.27 2.63c0 3.3 2.6 5.99 5.87 5.99 1.6 0 3.13-.59 4.2-1.65.45-.45.65-1.02.2-1.47-.44-.44-1.04-.43-1.49 0A4.58 4.58 0 0 1 23.9 32c-2.03 0-3.9-1.96-3.9-4 0-2.05 1.52-4 3.9-4 2.56 0 3.49 2.43 3.49 2.6-.01.01.05.4-.24.4ZM49.86 22c-1.37 0-2.92.76-3.86 1.94 0-1.4-.38-1.94-1-1.94s-.99.52-1 1.14V33c0 .53.32 1.01 1 1.01.63 0 1-.49 1-1.14v-4.84c0-2.03 1.88-4.03 3.87-4.02.62 0 1.13-.36 1.13-1-.01-.64-.52-1-1.14-1Z" fill="#5B5B5B"/></svg>