<!-- by TradingView --><svg width="56" height="56" viewBox="0 0 56 56" xmlns="http://www.w3.org/2000/svg"><path fill="url(#aywymgxxk)" d="M0 0h56v56H0z"/><path d="M32.5 19a3.5 3.5 0 1 0 0-7 3.5 3.5 0 0 0 0 7Zm0 8.3c1.93 0 3.5-1.56 3.5-3.47a3.48 3.48 0 0 0-3.5-3.46 3.48 3.48 0 0 0-3.5 3.46 3.48 3.48 0 0 0 3.5 3.46ZM45 23.84a3.5 3.5 0 0 1-3.52 3.48 3.5 3.5 0 0 1-3.52-3.48 3.5 3.5 0 0 1 3.52-3.48A3.5 3.5 0 0 1 45 23.85ZM32.5 36a3.5 3.5 0 1 0 0-7 3.5 3.5 0 0 0 0 7ZM27 40.5a3.5 3.5 0 1 1-7 0 3.5 3.5 0 0 1 7 0ZM23.5 27a3.5 3.5 0 1 0 0-7 3.5 3.5 0 0 0 0 7ZM42 16.5a1.5 1.5 0 1 1-3 0 1.5 1.5 0 0 1 3 0ZM15.5 18a1.5 1.5 0 1 0 0-3 1.5 1.5 0 0 0 0 3ZM17 39.5a1.5 1.5 0 1 1-3 0 1.5 1.5 0 0 1 3 0ZM14.5 36a3.5 3.5 0 1 0 0-7 3.5 3.5 0 0 0 0 7Zm27.28-.76a3.67 3.67 0 0 1-.53.02 5.26 5.26 0 0 0-4.99 5.18 3.63 3.63 0 1 1-3.33-3.69c1.66-.03 4.55-1.06 4.81-5.28a3.63 3.63 0 1 1 4.08 3.76h.01-.05ZM26.92 15.52a3.57 3.57 0 0 1-3.84 3.51c-1.77.17-4.34 1.22-4.8 4.55a3.45 3.45 0 0 1 .03.5c.33 3.63 3.08 4.73 4.9 4.89h.18c2 0 3.61 1.57 3.61 3.51A3.57 3.57 0 0 1 23.39 36a3.57 3.57 0 0 1-3.6-3.28v-.05c-.26-4.12-3.15-5.13-4.8-5.15a3.76 3.76 0 0 1-1.21-.1A3.54 3.54 0 0 1 11 23.98a3.57 3.57 0 0 1 3.91-3.5c1.65-.03 4.53-1.04 4.79-5.14v-.07A3.57 3.57 0 0 1 23.3 12c2 0 3.62 1.58 3.62 3.52Z" fill="url(#bywymgxxk)"/><defs><linearGradient id="aywymgxxk" x1="10.42" y1="9.71" x2="68.15" y2="76.02" gradientUnits="userSpaceOnUse"><stop stop-color="#1A1E21"/><stop offset="1" stop-color="#06060A"/></linearGradient><linearGradient id="bywymgxxk" x1="11" y1="23.9" x2="34.71" y2="39.89" gradientUnits="userSpaceOnUse"><stop stop-color="#FACC32"/><stop offset=".51" stop-color="#EE723D"/><stop offset="1" stop-color="#F84CBD"/></linearGradient></defs></svg>