<!-- by TradingView --><svg width="56" height="56" viewBox="0 0 56 56" xmlns="http://www.w3.org/2000/svg"><path fill="#0B084D" d="M0 0h56v56H0z"/><path d="M43 36.55a9.32 9.32 0 0 1-2.88-1.83l-.3-.3C38.8 33.4 37 31.6 35.1 30.8c1.61-.4 3.9-1.54 3.9-4.79 0-3.8-3.48-4.92-5-5h-6v14h2v-4h3.22c.3.14.59.33.87.56.98.82 3.29 3.05 4.32 4.06.79.8 2.9 2.38 5.02 2.38 1.14 0 2.19-.52 2.57-.77l-.38-.63a3.76 3.76 0 0 1-1.62.24V14H12v28h25v-1H13V15h30v21.55ZM16 21v14h1V23.78L23.97 35H26V21h-1v11.56L17.98 21H16Zm14 9v-8h2.87c1.38 0 4.13.82 4.13 4.01 0 3.2-2.76 3.99-4.13 3.99H30Z" fill="#fff"/></svg>