<!-- by TradingView --><svg width="56" height="56" viewBox="0 0 56 56" xmlns="http://www.w3.org/2000/svg"><path fill="#F0F3FA" d="M0 0h56v56H0z"/><path d="M28 45a17 17 0 0 0 10.95-30 2.5 2.5 0 0 1-1.87 1.93l-.35 18.4a2.5 2.5 0 1 1-3.27.73l-9.19-14.08a2.02 2.02 0 0 1-.84-.06l-7.91 14.1a2.49 2.49 0 0 1-.25 3.25A16.96 16.96 0 0 0 28 45Zm-13.52-9.8 7.89-14.04a2 2 0 1 1 3.07.23l9.02 13.83c.3-.13.63-.21.98-.22l.34-18.1a2.5 2.5 0 0 1-.78-4.4 17 17 0 0 0-22.41 22.67 2.5 2.5 0 0 1 1.9.03Z" fill="url(#ag5fqoewc)"/><path d="M28.72 44.98a17.28 17.28 0 0 1-1.46 0l6.28-5.93c.21.27.48.5.78.65l-5.6 5.28Zm12.06-5.77c-.24.27-.48.53-.74.79l-2.53-1.01c.2-.27.34-.58.42-.91l2.85 1.13Zm-.06-22.5c.27.31.53.63.78.96l-4.73 17.68-.04-.03.08-4.01 3.9-14.6Zm-22.06 13.7a16596.84 16596.84 0 0 1 14.68 5.84 2.49 2.49 0 0 0-.29 1.75h-17.1a2.51 2.51 0 0 0 0-1H32.5a28263 28263 0 0 0-14.33-5.7l.5-.88Zm15.8-14.47-8.5 3.65a2 2 0 0 0-.45-.9l8.54-3.67c.08.34.22.65.4.92ZM22 20.2c.03.35.16.68.35.95l-11.24 4.82c.05-.4.1-.78.18-1.17L22 20.2Zm-11 7.2a1461.26 1461.26 0 0 1 6.43 2.54l-.5.89a5187.27 5187.27 0 0 0-5.93-2.35 17.27 17.27 0 0 1 0-1.08Z" fill="#92B4E3"/><defs><linearGradient id="ag5fqoewc" x1="38.89" y1="14.52" x2="16.04" y2="40.74" gradientUnits="userSpaceOnUse"><stop stop-color="#495EB2"/><stop offset=".92" stop-color="#06A5C2"/></linearGradient></defs></svg>