<!-- by TradingView --><svg width="56" height="56" viewBox="0 0 56 56" xmlns="http://www.w3.org/2000/svg"><path fill="#00285B" d="M0 0h56v56H0z"/><path d="M6.7 31v-2.21c0-.5-.2-.74-.67-.74-.52 0-.74.25-.74.75V31H4v-4h1.2v.52h.02c.27-.38.66-.52 1.18-.52.78 0 1.6.38 1.6 1.48V31H6.7ZM34.7 31v-2.2c0-.51-.2-.75-.67-.75-.52 0-.74.25-.74.76V31H32v-4h1.2v.53h.02c.27-.39.66-.53 1.18-.53.78 0 1.6.38 1.6 1.48V31h-1.3ZM11.31 29c0-.5-.37-.95-.9-.95-.48 0-.88.43-.88.95 0 .51.4.95.9.95.52 0 .88-.45.88-.95Zm-.89 2c-1.13 0-2-.85-2-2 0-1.17.9-2 2-2 1.12 0 2 .85 2 1.98 0 1.18-.88 2.02-2 2.02ZM13 31v-4h1.27v.52h.01c.24-.4.61-.52 1.13-.52v1.12c-.8.01-1.06.26-1.06.68V31H13ZM28.65 31v-4h1.27v.52h.02c.23-.4.6-.52 1.13-.52v1.12c-.8.01-1.07.26-1.07.68V31h-1.35Z" fill="#FEFEFE"/><path d="M49.65 31v-4H51v.5c.23-.4.48-.5 1-.5v1.12c-.8.01-1 .26-1 .68V31h-1.35Z" fill="#C4D82D"/><path d="M16.7 31v-3H16v-1h.7v-1.5H18V27h.68v1H18v3h-1.3Z" fill="#FEFEFE"/><path d="M42 31v-3h-.7v-1h.7v-1.5h1.3V27H44v1h-.68v3H42Z" fill="#C4D82D"/><path d="M22 31v-2.35c0-.52-.16-.82-.63-.82-.48 0-.71.27-.71.77V31h-1.28v-5.5h1.28v1.72c.18-.32.6-.52 1.1-.52.97 0 1.57.58 1.57 1.63V31H22ZM26.86 28.59c-.09-.39-.43-.64-.87-.64-.4 0-.76.24-.85.64h1.72Zm-1.74.75c.06.43.43.71.9.71.3 0 .5-.11.69-.35h1.16c-.36.82-1.05 1.3-1.86 1.3a2 2 0 1 1 1.96-1.66h-2.85ZM37.39 22l.19 1.38 1.26.62-1.27.62-.2 1.37-.98-1-1.39.23.67-1.23-.65-1.24 1.38.24.99-.99Zm-.41 1.23-.38.38-.53-.1.25.48-.26.47.53-.09.38.4.08-.54.48-.23-.48-.24-.07-.53Z" fill="#FEFEFE"/><path d="M39.83 28.18c0-.22-.17-.28-.37-.28-.2 0-.35.1-.35.25 0 .2.2.3.76.43.95.24 1.26.6 1.26 1.14 0 .79-.72 1.28-1.63 1.28-.9 0-1.55-.48-1.64-1.24h1.2c.03.23.21.34.45.34.21 0 .42-.11.42-.29 0-.2-.14-.31-.74-.49-1.01-.29-1.28-.66-1.28-1.1 0-.74.75-1.22 1.56-1.22.87 0 1.48.44 1.54 1.18h-1.18ZM47.46 29a.97.97 0 0 0-1-.95.95.95 0 1 0 .02 1.9c.55 0 .98-.42.98-.95Zm0 2v-.54h-.02c-.17.33-.63.53-1.14.53a1.92 1.92 0 0 1-1.96-2c0-1.1.83-1.99 1.96-1.99.47 0 .92.18 1.14.53h.02V27h1.17v4h-1.17Z" fill="#C4D82D"/></svg>