<!-- by TradingView --><svg width="56" height="56" viewBox="0 0 56 56" xmlns="http://www.w3.org/2000/svg"><path fill="#F0F3FA" d="M0 0h56v56H0z"/><path fill-rule="evenodd" d="M27.22 19v.5H28v17h-.78v.5h3.83c1.52 0 3.45-.76 3.45-4.71 0-3.16-1.37-4.43-2.03-4.66v-.24c.57-.22 2.03-1.33 2.03-3.96 0-3.61-2.4-4.46-3.45-4.43h-3.83ZM30 27.45v-7.54a.63.63 0 0 1 .52-.25c.35 0 1.98.95 1.98 4.37s-2.06 3.42-2.5 3.42Zm0 .56v8.68h1.27c.41-.28 1.23-1.56 1.23-4.4 0-3.54-1.04-4.28-2.5-4.28ZM10.8 37H8v-.64l.5-.02a.5.5 0 0 0 .5-.5V19.98c0-.28-.09-.5-.35-.5H8V19h3.34l4.2 12.5.1-11.52c0-.28-.2-.5-.47-.5h-.64V19h2.71v.47l-.7.02c-.26 0-.54.22-.54.5V37h-.98l-5.5-15.6-.11 14.45c0 .27.2.5.47.5h.93V37Zm7.33-18v.49H19v13.86A3.67 3.67 0 0 0 22.6 37c2.82 0 3.4-2.34 3.4-4.35v-12.4c0-.41.4-.75.8-.75.28 0 .2-.01.2-.01V19h-2.7v.49h.68c.37 0 .67.31.67.7v12.32c0 1.33-.64 4-2.29 4-1.26 0-2.36-1.78-2.36-3.1V19.49h1.02V19h-3.9ZM35 19v.43h1v17.02h-1V37h4v-.55h-1V19.43h1V19h-4Zm4.56 17.48V37h2.76v-.52h-.74c-.58 0-.6-.7-.52-1.06l.8-4.42h2.52l1 5.48h-1V37H48v-.52h-.63L44.04 19h-.52s-2.65 15.42-2.84 16.42c-.15.8-.5 1.04-.65 1.06h-.47Zm4.73-5.98h-2.34l1.18-6.4 1.16 6.4Z"/></svg>