<!-- by TradingView --><svg xmlns="http://www.w3.org/2000/svg" width="56" height="56" viewBox="0 0 56 56"><path fill="#F0F3FA" d="M0 0h56v56H0z"/><path d="M50.8 27h1.1l-1.1 2 1.2 2h-1.13l-1.23-2 1.16-2z" fill="#00B7C6"/><path d="M49.2 27h-1.1l1.1 2-1.2 2h1.13l1.23-2-1.16-2z" fill="#1E2338"/><path d="M4 25h.44l3.16 5.31V25H8v6h-.44L4.4 25.7V31H4v-6zm26 0h1.6l1.4 3.6 1.4-3.6H36v6h-1v-4l-1.5 3.5h-1L31 27v4h-1v-6zm8.44 2c-1.03 0-1.94.77-1.94 2.01 0 1.28.75 1.99 1.97 1.99.84 0 1.53-.38 1.84-1.28h-1.02a.93.93 0 0 1-.82.41c-.57 0-.87-.4-.96-.83h2.8v-.46c0-1.05-.65-1.84-1.87-1.84zm.03.87c.5 0 .75.32.84.73h-1.8c.08-.48.56-.73.96-.73zM41 27.6v1.9c0 .9.23 1.5 1.22 1.5.34 0 .52-.06.7-.12l.08-.02v-.95c-.1.04-.33.09-.46.09-.31 0-.54-.16-.54-.6v-1.8h1V27h-1v-1.5h-1V27h-.6v.6h.6zm2.5-.6h1l.02.5s.35-.5 1.04-.5H46v1h-.31c-.8 0-1.19.77-1.19 1.31V31h-1v-4zm4 0h-1v4h1v-4zM13 25H9.6v6H13v-.4h-3V28h3v-.4h-3v-2.2h3V25zm1 3.63V25h.4v3.58c0 1.57.75 2.02 1.6 2.02.85 0 1.6-.45 1.6-2.02V25h.4v3.63c0 1.84-.98 2.37-2 2.37-1.03 0-2-.53-2-2.37zM20.86 25H19v6h.4v-2.6h1.46L22.5 31h.5l-1.64-2.61c1.11-.1 1.64-.8 1.64-1.8 0-1.15-.77-1.59-2.14-1.59zm1.74 1.58c0 .9-.44 1.42-1.63 1.42H19.4v-2.6h1.34c1.26 0 1.86.28 1.86 1.18zm1.4 1.4c0-1.83 1.04-2.98 2.5-2.98s2.5 1.15 2.5 2.98S27.96 31 26.5 31 24 29.81 24 27.98zm4.6 0c0-1.6-.87-2.58-2.1-2.58s-2.1.98-2.1 2.58.87 2.62 2.1 2.62 2.1-1.01 2.1-2.62zm18.9-2.48h-1v1h1v-1z" fill="#21263A"/></svg>