<!-- by TradingView --><svg width="56" height="56" viewBox="0 0 56 56" xmlns="http://www.w3.org/2000/svg"><path fill="url(#aumebo0iq)" d="M0 0h56v56H0z"/><path d="M8 34V21c0-.56.44-1 .99-1h13.27c.32 0 .63.16.81.43l4.76 7.02c.22.33.23.77.01 1.1l-3.79 6a.98.98 0 0 1-.82.45h-2.97a1 1 0 0 1-.8-1.58l2.51-4.86a1 1 0 0 0-.09-1.06l-1.58-2.1a1 1 0 0 0-.8-.4h-5.57c-.56 0-.93.45-.93 1v8c0 .55-.51 1-1.06 1H9A1 1 0 0 1 8 34ZM48 21v13c0 .56-.44 1-.99 1H33.74a.98.98 0 0 1-.81-.43l-4.76-7.02a1.01 1.01 0 0 1-.01-1.1l3.79-6c.18-.28.49-.45.82-.45h2.97a1 1 0 0 1 .8 1.58l-2.51 4.86a1 1 0 0 0 .09 1.06l1.58 2.1a1 1 0 0 0 .8.4h5.57c.56 0 .93-.45.93-1v-8c0-.55.51-1 1.06-1H47a1 1 0 0 1 .99 1Z" fill="#fff"/><defs><linearGradient id="aumebo0iq" x1="10.42" y1="9.71" x2="68.15" y2="76.02" gradientUnits="userSpaceOnUse"><stop stop-color="#1A1E21"/><stop offset="1" stop-color="#06060A"/></linearGradient></defs></svg>