<!-- by TradingView --><svg width="56" height="56" viewBox="0 0 56 56" xmlns="http://www.w3.org/2000/svg"><path fill="#F0F3FA" d="M0 0h56v56H0z"/><path fill-rule="evenodd" d="M38 11H18v34h20V11ZM16 9v38h24V9H16Z" fill="#002D56"/><path d="M25 13h-5v30h15v-5H25V13ZM36 20.42V22h-4.86v-1.34l2.24-3c.2-.29.36-.54.48-.77.12-.23.2-.44.26-.63s.09-.36.09-.5c0-.26-.03-.47-.1-.65a.8.8 0 0 0-.25-.4.64.64 0 0 0-.42-.13.6.6 0 0 0-.43.19c-.13.12-.22.29-.3.5-.06.2-.1.45-.1.71H31c0-.54.1-1.04.31-1.5.21-.44.5-.8.88-1.07.37-.27.8-.41 1.3-.41s.93.1 1.28.3c.35.2.61.5.79.89.17.38.26.84.26 1.38 0 .31-.04.6-.11.9-.08.28-.19.56-.33.84-.14.27-.32.56-.53.85-.2.3-.43.6-.7.93l-.9 1.33H36Z" fill="#002D55"/></svg>