<!-- by TradingView --><svg width="56" height="56" viewBox="0 0 56 56" xmlns="http://www.w3.org/2000/svg"><path fill="#F0F3FA" d="M0 0h56v56H0z"/><path d="M27.56 41.85a13.96 13.96 0 0 0 12.7-4.83c-1.37.68-7.5 3.57-12.55 4.8l-.15.03ZM27.55 14.15l.52.15c5.13 1.33 11.29 4.4 12.4 4.97A13.8 13.8 0 0 0 29.6 14c-.68 0-1.36.05-2.04.15Z" fill="#009ADA"/><path d="M18.3 22.4a13.6 13.6 0 0 0-.08 10.97l.08-10.97Z" fill="#2261AE"/><path d="M41.89 20.55a13.96 13.96 0 0 1-.18 15.14c1.4-.78 3.8-2.37 4.11-4.87l.08-.6c.13-1.42.13-2.83 0-4.24l-.05-.54c-.26-2.53-2.6-4.11-3.96-4.9Z" fill="#009ADA"/><path d="M30.87 15.83a14.02 14.02 0 0 1 7.05 12.15 14 14 0 0 1-7.3 12.28 83.04 83.04 0 0 0 9.7-4.02l.36-.18a13.6 13.6 0 0 0 .2-15.88 82.76 82.76 0 0 0-10.01-4.35ZM25.23 14.43c-2.2 0-3.9.57-5.03 1.71a5.34 5.34 0 0 0-1.5 3.52v1.4a14.07 14.07 0 0 1 8.43-6.47c-.6-.1-1.2-.15-1.81-.16h-.09ZM25.18 41.58c.6-.01 1.21-.07 1.8-.16a14.08 14.08 0 0 1-8.42-6.4v1.38c.04 1.3.57 2.54 1.49 3.48 1.13 1.13 2.83 1.7 5.03 1.7h.1Z" fill="#2261AE"/><path d="M11 28c0 2.87.92 5.68 2.62 8.02 1.7 2.33 4.1 4.08 6.87 4.99a5.68 5.68 0 0 1-2.62-4.62v-2.16a13.76 13.76 0 0 1-1.44-6.24c-.01-2.23.52-4.42 1.54-6.4v-2.04a5.63 5.63 0 0 1 2.71-4.63c-2.8.88-5.25 2.62-7 4.97a13.66 13.66 0 0 0-2.68 8.1Z" fill="#009ADA"/></svg>