<!-- by TradingView --><svg width="56" height="56" viewBox="0 0 56 56" xmlns="http://www.w3.org/2000/svg"><path fill="#F0F3FA" d="M0 0h56v56H0z"/><path d="M21 32.47v-8.94C21 20.2 19.99 17 14.5 17 9 17 8 20.19 8 23.53v9.25l.03.62.02.31.04.3.04.3.05.3.06.29.07.28.1.28.09.28.11.26.12.26.14.25.15.25.17.23.19.22.2.21.21.2.24.2.25.17.28.17.3.15.3.14.34.13.36.1.18.05.2.05.4.08.21.03.44.06.23.02h.24L14 39l.25.01h.24C20 39 21 35.81 21 32.47ZM14.5 35c-.84 0-1.5-.75-1.5-1.5V22.33c0-.82.92-1.32 1.5-1.32.83 0 1.5.58 1.5 1.32V33.5c0 .74-.67 1.49-1.5 1.49ZM34 21.64V24h-5v-2.1c0-1.32-.66-1.5-1.13-1.5-.52 0-.87.32-.87 1.38v.91c0 1.27 1.2 2 2.6 2.87 1.99 1.24 4.4 2.73 4.4 6.36v.56l-.02.02-.02.01c-1.28 1.31-3.63.66-5.1.09-.1-1.59-1.4-2.41-2.84-3.32-1.88-1.19-3.98-2.52-3.98-5.87v-1.18c0-3.84 2.27-5.23 5.78-5.23C32.8 17 34 19.36 34 21.64ZM27 31v.83l-.1-.05-.13-.05-.24-.1a6.33 6.33 0 0 0-4.53.2V31h5Zm-1.37 1.38c.49.1.93.27 1.37.48v1.1l-.12-.06-.15-.08-.29-.13c-1.39-.56-3.05-.21-4.44.33v-1.17a7.32 7.32 0 0 1 3.63-.47Zm8.26 2.59c-.9.49-1.94.66-3 .59a6.7 6.7 0 0 1-2.13-.68c.1-.31.1-.68.11-1.02l.12.06.22.1.12.05.12.06.11.04.06.02.18.06a5.5 5.5 0 0 0 4.2-.55c0 .46-.04.88-.1 1.27Zm-8.53-.44.14.05.67.23a38.02 38.02 0 0 1 1.43.75c1.23.66 2.49 1.25 3.93 1.11l.41-.07c.56-.1 1.12-.2 1.63-.4-.2.5-.48.93-.82 1.29-.68.17-1.4.26-2.13.21l-.3-.04-.3-.06-.3-.07-.3-.08-.29-.09-.29-.1-.28-.12-.56-.24-.55-.27-.28-.14-1.09-.56c-1.2-.5-2.51-.4-3.72.08-.1-.34-.17-.7-.22-1.07a6.17 6.17 0 0 1 3.22-.41Zm-.88 2.22.12.01h.12c.83.18 1.6.56 2.35.93a7.38 7.38 0 0 0 3.4 1.03c-.8.2-1.68.28-2.65.28-2.78 0-4.25-.76-5-1.96l.12-.04.11-.03.11-.03.12-.04.24-.05.12-.02.24-.04.12-.02h.12l.24-.02h.12ZM48 23.05V25h-5v-3.04c0-.83-.76-1.42-1.5-1.42-.92 0-1.5.83-1.5 1.57v11.6c0 .92.7 1.65 1.5 1.65 1 0 1.5-.8 1.5-1.62V30h-2v-3h7v12h-3.57l-.4-1.92A5.06 5.06 0 0 1 39.88 39C36.16 39 35 35.99 35 32.85v-9.32c0-3.35 1-6.53 6.5-6.53 4.62 0 6.5 1.74 6.5 6.06Z" fill="#204C8A"/></svg>