<!-- by TradingView --><svg width="56" height="56" viewBox="0 0 56 56" xmlns="http://www.w3.org/2000/svg"><path fill="#152045" d="M0 0h56v56H0z"/><path d="M5.97 24C4.88 24 4 24.84 4 25.95 4 27.06 4.86 28 5.97 28A2.1 2.1 0 0 0 8 25.97C8 24.87 7.05 24 5.97 24Zm.02 3.82c-.91 0-.99-1.38-.99-1.85 0-.92.22-1.84.95-1.79.99 0 1.05 1.06 1.05 1.8 0 .7-.1 1.84-1.01 1.84ZM12.05 24.43a.4.4 0 0 0-.23-.38.42.42 0 0 0-.2-.05.4.4 0 0 0-.38.23.44.44 0 0 0-.05.2c0 .17.08.3.23.37.07.03.13.05.2.05a.4.4 0 0 0 .38-.22.41.41 0 0 0 .05-.2ZM16.77 24.43a.4.4 0 0 0-.23-.38.42.42 0 0 0-.2-.05.4.4 0 0 0-.38.23.44.44 0 0 0-.05.2c0 .17.08.3.24.37.06.03.12.05.2.05a.4.4 0 0 0 .37-.22.41.41 0 0 0 .05-.2ZM24.97 28c0-.1-.03-.21-.09-.22a.3.3 0 0 0-.07 0h-.2L23.15 24h-.4l-1.39 3.77h-.4V28h1.15c0-.1-.03-.21-.1-.22h-.4l.47-1.4h1.27l.48 1.4h-.44V28h1.59Zm-1.7-1.8h-1.13l.56-1.46.57 1.46ZM36.27 24.43a.4.4 0 0 0-.24-.38.42.42 0 0 0-.2-.05.4.4 0 0 0-.37.23.44.44 0 0 0-.05.2c0 .17.08.3.23.37.06.03.13.05.2.05a.4.4 0 0 0 .38-.22.41.41 0 0 0 .05-.2ZM40.72 24.43a.4.4 0 0 0-.23-.38.42.42 0 0 0-.2-.05.4.4 0 0 0-.38.23.44.44 0 0 0-.05.2c0 .17.08.3.23.37.07.03.13.05.2.05a.4.4 0 0 0 .38-.22.41.41 0 0 0 .05-.2ZM44.77 24.43a.4.4 0 0 0-.23-.38.42.42 0 0 0-.2-.05.4.4 0 0 0-.38.23.44.44 0 0 0-.05.2c0 .17.08.3.23.37.07.03.13.05.2.05a.4.4 0 0 0 .38-.22.41.41 0 0 0 .05-.2ZM25.18 26.52c0 .6.22 1.03.65 1.29.22.12.48.19.77.19.44 0 .78-.15 1-.44a.99.99 0 0 0 .17-.29l-.16-.05a.93.93 0 0 1-.66.55.95.95 0 0 1-.25.04c-.5-.01-.75-.44-.76-1.29 0-.8.17-1.25.52-1.34l.14-.01c.2 0 .32.1.37.27l.02.18c.03.2.08.32.16.37.05.04.12.06.2.06.2 0 .31-.08.36-.23l.01-.1c0-.2-.11-.37-.35-.52-.21-.13-.47-.2-.77-.2-.47 0-.84.18-1.1.52-.22.27-.32.6-.32 1ZM28 26.58c0 .56.18.96.52 1.22.19.13.4.2.62.2.35 0 .63-.15.84-.45l.12-.21v1.32c0 .19-.07.3-.19.33a.93.93 0 0 1-.25.03v.17h1.57c0-.1-.03-.16-.09-.16l-.07-.01h-.27v-3.76h.42V25h-1.06l-.03.32a1.1 1.1 0 0 0-.81-.32c-.4 0-.73.16-.98.48-.22.29-.33.66-.33 1.1Zm2.1-.21c0 .64-.13 1.06-.4 1.25a.55.55 0 0 1-.3.09c-.32 0-.52-.25-.6-.74a2.8 2.8 0 0 1-.03-.47c0-.63.13-1.04.4-1.22a.54.54 0 0 1 .3-.08c.35 0 .56.29.62.85l.02.32ZM34.63 27.76h-.25V25h-1.07v.26h.38v1.6c-.03.35-.15.6-.38.74a.5.5 0 0 1-.25.07c-.28 0-.44-.16-.48-.5l-.01-.17v-2h-1.1v.26h.4v1.64c0 .73.3 1.1.9 1.1.35 0 .62-.15.82-.45.04-.07.08-.13.1-.2l.04.65h1.05c0-.1-.03-.22-.08-.23l-.07-.01ZM36.46 27.76h-.26V25h-1.1v.26h.4v2.14c0 .2-.06.3-.2.34a.83.83 0 0 1-.2.02V28h1.52c0-.1-.04-.22-.1-.23l-.06-.01ZM38 27.81c.28 0 .45-.1.52-.3a.48.48 0 0 0 .02-.13c0-.2-.13-.39-.4-.53a6.03 6.03 0 0 0-.28-.14 2.08 2.08 0 0 1-.65-.4.76.76 0 0 1-.17-.5c0-.35.18-.59.54-.72.16-.06.34-.09.54-.09.3 0 .56.07.76.19 0-.13.03-.2.1-.22a.3.3 0 0 1 .06 0v.82h-.19c-.01-.4-.22-.6-.63-.6-.28 0-.46.09-.52.27a.44.44 0 0 0-.03.15c0 .18.13.34.38.48l.27.13a2 2 0 0 1 .66.41.8.8 0 0 1 .2.53c0 .38-.2.63-.57.76-.15.05-.32.08-.5.08a1.7 1.7 0 0 1-.9-.22c0 .11-.02.18-.08.2h-.08v-1h.2c0 .55.26.83.74.83ZM40.96 27.76h-.26V25h-1.11v.26H40v2.14c0 .2-.07.3-.2.34a.83.83 0 0 1-.21.02V28h1.52c0-.1-.03-.22-.1-.23l-.05-.01ZM41.33 25.29h.43v1.72c.04.64.33.97.86 1 .33 0 .56-.14.68-.42.04-.1.07-.22.1-.35l-.17-.03c-.1.4-.25.6-.45.6-.18 0-.28-.13-.31-.38V25.29h.88V25h-.89v-.65l-.7.14V25h-.43v.29ZM44.97 27.76h-.26V25H43.6v.26h.4v2.14c0 .2-.06.3-.2.34a.83.83 0 0 1-.2.02v.17h1.52c0-.1-.03-.15-.1-.16l-.05-.01ZM46.24 26.5c0-.67.12-1.08.35-1.24a.6.6 0 0 1 .32-.08c.32 0 .52.19.6.57.05.18.07.42.07.73 0 .7-.13 1.13-.39 1.28a.6.6 0 0 1-.28.07c-.32 0-.52-.2-.6-.57a3.61 3.61 0 0 1-.07-.76Zm.7-1.5c-.49 0-.87.18-1.15.52-.2.27-.31.58-.31.96 0 .5.17.9.52 1.2.25.21.55.32.89.32.47 0 .84-.18 1.12-.53.22-.28.33-.61.33-1 0-.51-.18-.9-.53-1.18a1.38 1.38 0 0 0-.88-.29ZM49.88 27.76h-.2l.01-1.64c.03-.35.16-.6.38-.72a.96.96 0 0 1 .35-.07c.23 0 .46.13.53.39.02.08.05.17.05.27v1.41c0 .19-.07.3-.17.33a.6.6 0 0 1-.2.03V28H52c0-.1-.03-.22-.08-.23l-.08-.01h-.17v-1.68c0-.52-.25-.85-.6-1a.86.86 0 0 0-.35-.08c-.3 0-.66.13-.87.38-.07.09-.13.17-.17.27l-.03-.65h-1.06v.26H49v2.14c0 .2-.08.3-.22.34a.85.85 0 0 1-.2.02V28h1.46c0-.1-.03-.22-.08-.23l-.08-.01ZM9.44 27.82c.28 0 .46-.1.52-.3a.47.47 0 0 0 .02-.13c0-.2-.13-.39-.4-.53a6.08 6.08 0 0 0-.27-.13 2.09 2.09 0 0 1-.66-.4.75.75 0 0 1-.17-.5c0-.54.6-.83 1.09-.83.3 0 .56.1.75.22 0-.13.04-.2.1-.21a.3.3 0 0 1 .07-.01v.82h-.19c-.02-.4-.23-.6-.63-.6-.29 0-.46.09-.53.27a.43.43 0 0 0-.02.15c0 .18.12.34.38.47l.26.13a2 2 0 0 1 .67.41c.12.15.19.32.19.52 0 .38-.19.62-.56.75-.15.05-.32.08-.5.08a1.7 1.7 0 0 1-.9-.22c0 .12-.03.18-.08.2h-.09V27h.2c.01.55.26.82.75.83ZM12.27 27.76H12V25h-1.1v.24h.41v2.17c0 .19-.07.3-.2.33a.84.84 0 0 1-.21.02V28h1.52c0-.1-.03-.22-.1-.23h-.05ZM14.47 27.76H14v-1.42c.03-.42.06-.78.26-.92a.23.23 0 0 1 .12-.05c.05 0 .1.05.16.15.08.14.15.23.23.25.04.02.08.02.12.02.15 0 .26-.07.32-.23.03-.04.04-.1.04-.15 0-.2-.1-.34-.3-.39a.6.6 0 0 0-.15-.02c-.26 0-.4.1-.6.33-.09.1-.15.26-.2.39V25h-1.1v.24h.4v2.17c0 .19-.06.3-.18.33a.92.92 0 0 1-.21.02V28h1.71c0-.1-.03-.22-.1-.23h-.05ZM16.94 27.76h-.26V25h-1.1v.22H16v2.19c0 .19-.08.3-.22.33a.84.84 0 0 1-.2.02V28h1.51c0-.1-.03-.22-.1-.23h-.05ZM18.35 27.82c.28 0 .45-.1.52-.3a.47.47 0 0 0 .02-.13c0-.2-.13-.39-.4-.53a6.06 6.06 0 0 0-.28-.13 2.09 2.09 0 0 1-.65-.4.75.75 0 0 1-.17-.5c0-.54.6-.83 1.08-.83.31 0 .56.1.76.22 0-.13.04-.2.1-.21a.3.3 0 0 1 .07-.01v.82h-.2c-.01-.4-.22-.6-.63-.6-.28 0-.45.09-.52.27a.43.43 0 0 0-.03.15c0 .18.13.34.38.47l.27.13a2 2 0 0 1 .66.41c.13.15.2.32.2.52 0 .38-.2.62-.56.75-.16.05-.32.08-.51.08a1.7 1.7 0 0 1-.9-.22c0 .12-.02.18-.07.2h-.1V27h.21c0 .55.26.82.75.83ZM24.79 35.67c0 .17.03.26.1.29H25v-1.24h-.19c-.18.65-.51 1-1.01 1.08l-.22.01c-.76 0-1.14-.62-1.14-1.83 0-.94.26-1.52.77-1.72.13-.05.26-.07.41-.07.48 0 .82.24 1.03.71.05.12.1.24.13.38H25v-1.25c-.1 0-.2.04-.23.11l-.01.19a2.24 2.24 0 0 0-1.21-.33c-.7 0-1.23.25-1.6.76-.26.36-.39.77-.39 1.23a2 2 0 0 0 .52 1.41c.38.4.86.6 1.47.6.43 0 .84-.11 1.24-.33ZM26.15 34.5c0-.67.12-1.09.34-1.24a.6.6 0 0 1 .33-.09c.32 0 .52.2.6.57.05.2.07.43.07.74 0 .71-.13 1.14-.39 1.29a.6.6 0 0 1-.28.06c-.32 0-.52-.19-.6-.57-.05-.19-.07-.44-.07-.76Zm.7-1.5c-.49 0-.87.17-1.15.52a1.5 1.5 0 0 0-.31.96c0 .51.17.91.52 1.2.25.22.55.32.89.32.47 0 .84-.17 1.12-.53.22-.28.33-.6.33-1a1.38 1.38 0 0 0-1.4-1.48ZM30.17 35.77h-.46v-1.45c.03-.42.14-.7.34-.85a.23.23 0 0 1 .12-.05c.05 0 .1.05.16.15.08.14.15.23.23.25.04.02.08.02.12.02.15 0 .26-.07.32-.23.03-.05.04-.1.04-.15 0-.21-.1-.35-.3-.4a.6.6 0 0 0-.15-.02.91.91 0 0 0-.7.33c-.08.1-.15.22-.2.35l-.04-.72h-1.04v.26H29v2.15c0 .19-.06.3-.18.34a.9.9 0 0 1-.21.02V36h1.71c0-.1-.03-.22-.1-.23h-.05ZM32.3 36.82v-1.13c.18.2.44.31.77.32.4 0 .73-.17.98-.49.23-.29.34-.65.34-1.09 0-.54-.15-.94-.45-1.2a.94.94 0 0 0-.63-.23 1 1 0 0 0-.84.41c-.08.1-.14.22-.18.35l-.03-.76H31.2v.26h.4v3.2c0 .19-.06.3-.18.33a.74.74 0 0 1-.22.03V37h1.6c0-.1-.02-.16-.07-.17l-.08-.01h-.36Zm.72-3.51c.4 0 .6.4.6 1.2 0 .76-.16 1.2-.5 1.3a.55.55 0 0 1-.15.02c-.26 0-.45-.15-.57-.47-.07-.2-.1-.44-.1-.72 0-.56.12-.96.36-1.19.11-.1.23-.14.36-.14Z" fill="#fff"/></svg>