<!-- by TradingView --><svg width="56" height="56" viewBox="0 0 56 56" xmlns="http://www.w3.org/2000/svg"><path fill="#F0F3FA" d="M0 0h56v56H0z"/><path fill-rule="evenodd" d="M31.95 11.59c1.8-.73 5.8-1.37 7.53 1.88 2.17 4.07 3.69 12.13 1.33 20.8-2.35 8.67-8.67 10.24-11.34 10.64-2.67.4-8.73-.45-13.23-5.04-4.5-4.6-5.23-9.23-3.08-13.06 2.14-3.84 8.52-11.48 18.8-15.22Zm7.77 3.83c2.76 5.68 1.15 13.68 0 16.97-.66-10.66-6.46-16.22-9.39-17.83 6.8-2.23 8.77-.41 9.39.86ZM13.33 28.77c1.14-5.31 7.67-9.76 10.8-11.32a30.28 30.28 0 0 0-6.47 13.62c-.9 5.23 2.28 7.95 3.98 8.66 4.52 2.98 10.12 2.02 12.35 1.16-5.4 3.73-11.1 1.7-13.27.2-2.94-1.89-8.52-7-7.39-12.32Zm14.2-11.95c1.07-.9 3.7-2.07 5.65.43 1.48 1.46 4.55 6.08 5.02 12.9.59 8.54-6.14 10.7-10.67 10.14-4.52-.56-8.88-3.12-9.37-7.54-.5-4.43 4.41-12.56 9.37-15.93Z" fill="url(#aqnorygen)"/><defs><linearGradient id="aqnorygen" x1="36.26" y1="12.42" x2="18.26" y2="42.56" gradientUnits="userSpaceOnUse"><stop stop-color="#28C98B"/><stop offset=".52" stop-color="#00E0F7"/><stop offset="1" stop-color="#005B98"/></linearGradient></defs></svg>