<!-- by TradingView --><svg width="56" height="56" viewBox="0 0 56 56" xmlns="http://www.w3.org/2000/svg"><path fill="#F0F3FA" d="M0 0h56v56H0z"/><path d="M5 26v-1h5v5H9v-3l-4 3.5-1-1L8 26H5Z" fill="#1C2DDD"/><path fill-rule="evenodd" d="M13 25h-1v7h1v-2h3c.67 0 2-.5 2-2.5S16.67 25 16 25h-3Zm0 4h3c.33 0 1-.3 1-1.5s-.67-1.5-1-1.5h-3v3ZM20 25h4c.67 0 2 .5 2 2.5 0 1.41-.67 2.08-1.3 2.35L26 32h-1l-1.2-2H21v2h-1v-7Zm4 4h-3v-3h3c.33 0 1 .3 1 1.5s-.67 1.5-1 1.5Z"/><path d="M52 25h-6v7h1v-3h5v-1h-5v-2h5v-1Z"/><path fill-rule="evenodd" d="M42.36 30.59c.3-.24.64-.75.64-2.09 0-1.22-.33-1.76-.66-2.03-.37-.3-.96-.47-1.84-.47-.93 0-1.5.13-1.86.41-.3.24-.64.75-.64 2.09 0 1.34.35 1.85.64 2.09.36.28.93.41 1.86.41s1.5-.13 1.86-.41ZM40.5 32c1.93 0 3.5-.5 3.5-3.5 0-2.81-1.57-3.5-3.5-3.5s-3.5.5-3.5 3.5 1.57 3.5 3.5 3.5ZM33.36 30.59c.3-.24.64-.75.64-2.09 0-1.22-.33-1.76-.66-2.03-.37-.3-.96-.47-1.84-.47-.93 0-1.5.13-1.86.41-.3.24-.64.75-.64 2.09 0 1.34.35 1.85.64 2.09.36.28.93.41 1.86.41s1.5-.13 1.86-.41ZM31.5 32c1.93 0 3.5-.5 3.5-3.5 0-2.81-1.57-3.5-3.5-3.5s-3.5.5-3.5 3.5 1.57 3.5 3.5 3.5Z"/></svg>