<!-- by TradingView --><svg width="56" height="56" viewBox="0 0 56 56" fill="none" xmlns="http://www.w3.org/2000/svg">
<rect width="56" height="56" fill="#F0F3FA"/>
<path d="M19.117 16.7615C17.5662 20.6414 16.6853 25.7307 21.1977 28.0174C22.2423 28.5461 24.0128 29.222 26.5095 30.0452C30.5736 31.3831 32.236 34.4121 32.8085 38.5129C32.8416 38.7458 32.851 38.9341 32.8369 39.0778C32.8251 39.2154 32.7949 39.2196 32.7465 39.0904C31.6015 35.9673 29.7707 33.8599 26.4085 33.2407C24.5776 32.9039 22.387 32.7501 21.0506 32.4531C16.4584 31.432 12.3607 27.8744 12.0257 22.805C11.8024 19.4217 13.0319 16.8061 15.714 14.9582C16.9175 14.129 18.0341 13.4501 18.9451 12.5086C19.9246 11.4947 20.7399 10.3487 21.3909 9.07047C21.4417 8.97029 21.4689 8.97692 21.4725 9.09038C21.5593 11.6794 20.051 14.4223 19.117 16.7615Z" fill="#1C94D0"/>
<path fill-rule="evenodd" clip-rule="evenodd" d="M14.9047 29.1098C13.2847 27.4639 12.192 25.3206 12.0257 22.805C11.907 21.0062 12.1989 19.4245 12.9015 18.0597L14.9047 29.1098Z" fill="url(#paint0_linear_229_4834)"/>
<path fill-rule="evenodd" clip-rule="evenodd" d="M22.6859 28.6769C23.6781 29.0758 24.9527 29.5318 26.5096 30.0452C30.5737 31.3831 32.2361 34.4121 32.8086 38.5129C32.8417 38.7458 32.8512 38.9341 32.837 39.0778C32.8252 39.2154 32.795 39.2196 32.7466 39.0904C31.6016 35.9673 29.7708 33.8599 26.4086 33.2407C25.535 33.08 24.5794 32.961 23.6738 32.8481C22.6816 32.7245 21.7494 32.6084 21.0507 32.4531C18.8575 31.9654 16.7771 30.8992 15.1655 29.366C14.4123 27.2187 14.3935 25.1555 14.5282 24.1802C16.6507 26.3484 20.4023 27.9311 22.6859 28.6769Z" fill="url(#paint1_linear_229_4834)"/>
<path d="M36.0222 39.7127C38.1544 36.1323 39.8124 31.2494 35.711 28.2622C34.7615 27.5714 33.1179 26.6178 30.7802 25.4015C26.9746 23.4236 25.8022 20.1641 25.8721 16.0224C25.8755 15.787 25.8953 15.5996 25.9316 15.4601C25.9645 15.3261 25.9949 15.3268 26.0228 15.4621C26.6696 18.731 28.151 21.1078 31.3749 22.2626C33.1305 22.891 35.2697 23.397 36.5433 23.9061C40.9195 25.6566 44.4146 29.8317 43.9602 34.8914C43.6567 38.2681 42.0376 40.6521 39.103 42.0432C37.7863 42.6675 36.5786 43.1574 35.5333 43.9398C34.409 44.7826 33.4265 45.7824 32.5857 46.9393C32.52 47.03 32.4942 47.0191 32.5083 46.9065C32.8235 44.336 34.7376 41.8714 36.0222 39.7127Z" fill="#1C94D0"/>
<path d="M42.0938 28.2008C43.4384 30.0877 44.1854 32.3807 43.9599 34.8915C43.7986 36.6868 43.2654 38.2014 42.3602 39.4354L42.0938 28.2008Z" fill="url(#paint2_linear_229_4834)"/>
<path d="M34.3443 27.3708C33.4263 26.8166 32.2383 26.1602 30.7802 25.4015C26.9746 23.4236 25.8022 20.1641 25.8721 16.0224C25.8755 15.787 25.8953 15.5996 25.9316 15.4601C25.9645 15.3261 25.9949 15.3268 26.0228 15.4621C26.6696 18.731 28.151 21.1078 31.3749 22.2626C32.2126 22.5624 33.1377 22.8344 34.0144 23.0922C34.975 23.3746 35.8774 23.6399 36.5433 23.9062C38.6333 24.7422 40.5224 26.1312 41.8762 27.9055C42.2874 30.1475 41.9864 32.1878 41.7023 33.1291C39.9425 30.6454 36.4836 28.4764 34.3443 27.3708Z" fill="url(#paint3_linear_229_4834)"/>
<defs>
<linearGradient id="paint0_linear_229_4834" x1="12.4474" y1="23.1439" x2="13.6123" y2="22.9238" gradientUnits="userSpaceOnUse">
<stop stop-color="#1A94CD"/>
<stop offset="1" stop-color="#169DD5"/>
</linearGradient>
<linearGradient id="paint1_linear_229_4834" x1="14.4639" y1="26.3938" x2="32.0202" y2="37.1767" gradientUnits="userSpaceOnUse">
<stop stop-color="#314FA5"/>
<stop offset="0.424849" stop-color="#6735A6"/>
<stop offset="1" stop-color="#C90276"/>
</linearGradient>
<linearGradient id="paint2_linear_229_4834" x1="43.5961" y1="34.4887" x2="42.412" y2="34.5255" gradientUnits="userSpaceOnUse">
<stop stop-color="#1A94CD"/>
<stop offset="1" stop-color="#169DD5"/>
</linearGradient>
<linearGradient id="paint3_linear_229_4834" x1="42.1087" y1="30.9538" x2="26.4159" y2="17.5015" gradientUnits="userSpaceOnUse">
<stop stop-color="#314FA5"/>
<stop offset="0.424849" stop-color="#6735A6"/>
<stop offset="1" stop-color="#C90276"/>
</linearGradient>
</defs>
</svg>
