<!-- by TradingView --><svg width="56" height="56" viewBox="0 0 56 56" xmlns="http://www.w3.org/2000/svg"><path fill="#F0F3FA" d="M0 0h56v56H0z"/><circle cx="17.81" cy="17.4" r=".81" fill="#448DC8"/><path d="M10.88 27.08A1.5 1.5 0 0 0 9.5 25a1.5 1.5 0 1 0 1.1 2.52l5.62 2.95.24-.45-5.58-2.94Z" fill="url(#aewfxxh1n)"/><path fill-rule="evenodd" d="M33.28 16.49a.8.8 0 0 1-.72.08l-5.1 6.75 9.2 8.3 2.04-8.34a1.43 1.43 0 0 1-.65-2.1l-4.77-4.7ZM37.1 32l2.11-8.62h.04c.42 0 .8-.18 1.06-.47l6.1 3.46a.81.81 0 0 0 .79 1.01.81.81 0 1 0-.5-1.44l-6.12-3.47a1.42 1.42 0 0 0-.08-1.21l3.8-3.73a.8.8 0 0 0 1.18-.72.81.81 0 1 0-1.53.35l-3.78 3.7a1.42 1.42 0 0 0-1.76-.06l-4.8-4.73a.8.8 0 1 0-1.44.17l-5.1 6.76-9.1-5.83-.28.44 9.03 5.77-6.27 5.99.35.37 6.33-6.05 9.4 8.48-.07.28.5.12 6.13 5.37.34-.39-6.25-5.48-.08-.07Z" fill="url(#bewfxxh1n)"/><path d="m26.16 36.18 10.14-3.86.18.48-10.14 3.86-.18-.48Z" fill="url(#cewfxxh1n)"/><path d="M21.29 33.62a3.5 3.5 0 0 1-4.95.63L12.1 39.7a.81.81 0 1 1-.43-.28l4.3-5.5A3.49 3.49 0 0 1 18.5 28a3.5 3.5 0 0 1 3.07 5.19l2.82 2.14a2 2 0 1 1-.4.35l-2.7-2.06Z" fill="url(#dewfxxh1n)"/><circle cx="27.06" cy="23.39" r="1.91" fill="url(#eewfxxh1n)"/><circle cx="36.5" cy="32.5" r="2.5" fill="url(#fewfxxh1n)"/><circle cx="43.5" cy="37.5" r="1.5" fill="#467EAD"/><defs><linearGradient id="aewfxxh1n" x1="6.96" y1="27.29" x2="16.46" y2="30.47" gradientUnits="userSpaceOnUse"><stop offset=".28" stop-color="#307FBF"/><stop offset="1" stop-color="#4B84B3"/></linearGradient><linearGradient id="bewfxxh1n" x1="36.74" y1="16.33" x2="27.83" y2="39.15" gradientUnits="userSpaceOnUse"><stop stop-color="#73ADDD"/><stop offset="1" stop-color="#1D588A"/></linearGradient><linearGradient id="cewfxxh1n" x1="36.48" y1="33.21" x2="26.16" y2="37.66" gradientUnits="userSpaceOnUse"><stop stop-color="#4990CC"/><stop offset="1" stop-color="#1A5486"/></linearGradient><linearGradient id="dewfxxh1n" x1="19.02" y1="27.75" x2="19.02" y2="41" gradientUnits="userSpaceOnUse"><stop stop-color="#6DA5D3"/><stop offset=".52" stop-color="#1A5486"/></linearGradient><linearGradient id="eewfxxh1n" x1="25.93" y1="22.06" x2="27.06" y2="25.3" gradientUnits="userSpaceOnUse"><stop stop-color="#5598D0"/><stop offset="1" stop-color="#3981BC"/></linearGradient><linearGradient id="fewfxxh1n" x1="36.5" y1="30" x2="38.99" y2="35" gradientUnits="userSpaceOnUse"><stop stop-color="#61A0D3"/><stop offset="1" stop-color="#3C77A6"/></linearGradient></defs></svg>