<!-- by TradingView --><svg width="56" height="56" viewBox="0 0 56 56" xmlns="http://www.w3.org/2000/svg"><path fill="#F0F3FA" d="M0 0h56v56H0z"/><path d="M43.03 32.64 41.39 31l1.64-1.64c1.3-1.3 1.3-3.4 0-4.7L37 18.91v-2.72c0-.93-.42-1.72-1.32-1.84a1.83 1.83 0 0 0-1.91 1.06l-3.49-3.47a3.23 3.23 0 0 0-4.56 0L12.97 24.66a3.32 3.32 0 0 0 0 4.7L14.62 31l-1.65 1.64a3.32 3.32 0 0 0 0 4.7l4.65 4.63a3.32 3.32 0 0 0 4.76.05l4.6-4.6a1.45 1.45 0 0 1 2.06.01l4.59 4.6a3.31 3.31 0 0 0 4.76-.06l4.64-4.63c1.3-1.3 1.3-3.4 0-4.7Zm-28.64-4.7a1.32 1.32 0 0 1 0-1.86L26.97 13.5a1.45 1.45 0 0 1 2.06 0L41.6 26.08c.51.51.51 1.35 0 1.87l-1.64 1.63-9.67-9.67a3.23 3.23 0 0 0-4.56 0l-9.7 9.68-1.65-1.64ZM38.55 31l-1.6 1.6a1.31 1.31 0 0 1-1.9.03l-4.77-4.75a3.23 3.23 0 0 0-4.56 0l-4.77 4.75a1.32 1.32 0 0 1-1.87 0L17.45 31l9.54-9.53a1.45 1.45 0 0 1 2.05 0L38.55 31Zm3.06 4.92-4.66 4.66a1.31 1.31 0 0 1-1.9.03l-4.77-4.75a3.23 3.23 0 0 0-4.56 0l-4.76 4.75c-.27.27-.64.41-1.03.39a1.38 1.38 0 0 1-.88-.42l-4.66-4.66a1.32 1.32 0 0 1 0-1.87l1.64-1.63L17.62 34a3.32 3.32 0 0 0 4.76.05l4.6-4.6a1.46 1.46 0 0 1 2.06 0l4.59 4.6a3.31 3.31 0 0 0 4.76-.05l1.58-1.59 1.64 1.64c.51.52.51 1.36 0 1.87Z" fill="#C20000"/></svg>