<!-- by TradingView --><svg width="56" height="56" viewBox="0 0 56 56" xmlns="http://www.w3.org/2000/svg"><path fill="#F0F3FA" d="M0 0h56v56H0z"/><path fill-rule="evenodd" d="M28 45a17 17 0 1 0 0-34 17 17 0 0 0 0 34Zm0-2a15 15 0 1 0 0-30 15 15 0 0 0 0 30Zm13.96-14a13.95 13.95 0 0 1-.54 3h-2.44c.34-.95.57-1.95.66-3h2.32ZM28.38 42a14 14 0 0 0 12.7-9h-2.52a11.69 11.69 0 0 1-9.61 6.64 1.07 1.07 0 1 1-.3-1.1 10.55 10.55 0 0 0 .19-21.06 1.07 1.07 0 1 1-.36-1.48h6.74a14 14 0 1 0-9.84 25.75c-.5-.45-1-1.26-1-2.56 0-2.39 2.2-3.38 3.77-3.38 1.58 0 7.85-1.59 7.85-7.58 0-6-5.28-7.23-8.32-7.23h-7.2L22 22.33V34h2.37l2.12-3.59c.64.12 2.03.09 2.52-.92.6-1.26.02-2.08-.28-2.47l.79-.82c.32.27.96 1.1.96 2.23 0 1.41-.98 3.02-3.3 3.22L25.06 35H21V22.75L17.74 20h10.41c2.91.09 8.85 1.24 8.85 8.23 0 6.13-5.94 8.71-8.85 8.7-.88.01-2.64.53-2.64 2.52 0 1.78 1.73 2.41 2.87 2.54ZM42 28c0-1.03-.11-2.03-.32-3h-2.39c.25.96.39 1.96.39 3H42Zm-1.87-7c.54.94.98 1.94 1.29 3h-2.44c-.4-1.08-.95-2.1-1.63-3h2.78Zm-3.62-1a11.69 11.69 0 0 0-4.58-3h4.73c1.09.85 2.04 1.87 2.83 3h-2.98Z" fill="url(#ai4a4wx2l)"/><defs><linearGradient id="ai4a4wx2l" x1="11" y1="28.75" x2="46.29" y2="29.49" gradientUnits="userSpaceOnUse"><stop stop-color="#5ABFBB"/><stop offset="1" stop-color="#10829C"/></linearGradient></defs></svg>