<!-- by TradingView --><svg width="56" height="56" viewBox="0 0 56 56" xmlns="http://www.w3.org/2000/svg"><path fill="#F0F3FA" d="M0 0h56v56H0z"/><path d="M33 34v2h4v6.97h-5.61a7.74 7.74 0 0 0 1.6-.88V38H28v2h3v1.15c-.76.42-1.59.65-2.47.65-2.17 0-3.53-1.59-3.53-3.24 0-1.78 1.52-2.56 3.36-2.56 1.15.03 2.27.2 3.16.95l1.41-1.3a7.59 7.59 0 0 0-4.6-1.65c-3 0-5.33 1.78-5.33 4.56 0 1.88 1.09 3.6 2.8 4.44H16v-3h3.26c1.67 0 3.63-.87 3.68-2.8.06-2.1-1.75-3.2-3.68-3.2H14V13h28v21h-9Zm-13.53 4H16v-2h3.44c.44-.02.85.08 1.2.31a.9.9 0 0 1 .36.7c0 .26-.13.52-.4.7-.31.19-.72.29-1.13.29ZM42 36h-3v7h3v-7Z" fill="#244C5A"/></svg>