<!-- by TradingView --><svg width="56" height="56" viewBox="0 0 56 56" xmlns="http://www.w3.org/2000/svg"><path fill="#F0F3FA" d="M0 0h56v56H0z"/><path fill-rule="evenodd" d="M38.9 37.65c-.82.98-1.77 1.85-2.83 2.57 1.7 1.13 2.95 1.57 3.48 1.1.53-.47.26-1.8-.64-3.67Zm-3.82 3.18a13.84 13.84 0 0 1-18.45-4.77L11.74 41a1.6 1.6 0 0 1-2.28 0 1.65 1.65 0 0 1 0-2.31l5.69-5.77 2.46-2.49 3.56-3.62a83.01 83.01 0 0 1-2.52-3.37 11.11 11.11 0 0 0-1.2 4.85l-2.77 2.8a14.35 14.35 0 0 1 2.11-10.41c-2.7-4.27-3.92-7.52-2.9-8.43 1.02-.9 4 .7 7.77 3.9a13.76 13.76 0 0 1 16.78 2.68l-2.12 2.15a10.8 10.8 0 0 0-17.02 1.35c.79 1.16 1.69 2.4 2.67 3.67l6.15-6.22a1.6 1.6 0 0 1 2.27 0c.63.63.63 1.67 0 2.3l-6.37 6.47a97.3 97.3 0 0 0 2.89 3.3L36.93 21.7l2.13-2.16 3.19-3.24a1.6 1.6 0 0 1 2.28 0c.63.64.63 1.68 0 2.31l-3.69 3.74a14.14 14.14 0 0 1-1.67 14.98c1.43 2.75 1.91 4.74 1.15 5.42-.77.69-2.7-.08-5.24-1.92Zm-2.64-2.08a10.87 10.87 0 0 1-13.64-4.9l4.45-4.51a99.69 99.69 0 0 0 2.9 3.29l-.15.15a1.65 1.65 0 0 0 0 2.31 1.6 1.6 0 0 0 2.27 0l.13-.12a68.92 68.92 0 0 0 4.04 3.78Zm1.05-.5a63.14 63.14 0 0 1-4.34-4.04l9.42-9.55a11.16 11.16 0 0 1-5.08 13.6ZM17.58 19.61a14.02 14.02 0 0 1 3.62-3.18c-2.64-2.1-4.62-3.1-5.33-2.46-.7.62 0 2.74 1.7 5.64Z" fill="url(#a3iko02wl)"/><defs><linearGradient id="a3iko02wl" x1="11.11" y1="40.96" x2="44.66" y2="19.14" gradientUnits="userSpaceOnUse"><stop stop-color="#3397E9"/><stop offset="1" stop-color="#B1C935"/></linearGradient></defs></svg>