<!-- by TradingView --><svg width="56" height="56" viewBox="0 0 56 56" xmlns="http://www.w3.org/2000/svg"><path fill="#F0F3FA" d="M0 0h56v56H0z"/><path d="M9 21h6c1.67 0 5 1 5 5 0 5-4 5-5 5h-3v5H9V21Zm3 7h2.5c1 0 2.5-.4 2.5-2s-1.33-2-2-2h-3v4ZM38 21h6c1.67 0 5 1 5 5 0 5-4 5-5 5h-3v5h-3V21Zm3 7h2.5c1 0 2.5-.4 2.5-2s-1.33-2-2-2h-3v4Z" fill="#039"/><path d="M22 21h4v5.58l.48.28-.48.99v.36l.55-1.14c.02.03.13.07.36.07h1.11l-.58.52a.35.35 0 0 0-.1.24c0 .11.04.24.17.36.07.07.14.1.22.12.07.01.14 0 .2-.03a.69.69 0 0 0 .27-.24c.04-.05.13-.13.23-.2.11-.07.23-.12.36-.12.13 0 .2.03.26.07a.7.7 0 0 1 .1.08l.02.03.07.08 1.18 1.16a.49.49 0 0 1-.11.22.52.52 0 0 1-.22.13l-.75-.68-.1.1.76.69a.52.52 0 0 1-.13.19.53.53 0 0 1-.27.13l-.76-.75-.1.1.76.75a.3.3 0 0 1-.2.2c-.15.04-.23.06-.29.04l-.26-.26.18-.18v-.03a.62.62 0 0 0-.16-.41.35.35 0 0 0-.25-.11.6.6 0 0 0-.1-.38.31.31 0 0 0-.26-.15.37.37 0 0 0-.2.06h-.01l-.21.21a.8.8 0 0 0-.12-.26.29.29 0 0 0-.3-.12.58.58 0 0 0-.23.1l-.17.16a.66.66 0 0 0-.1-.21.31.31 0 0 0-.25-.15.37.37 0 0 0-.2.05h-.01l-.22.23-.14-.14V36h-4V21Zm9 0h4v15h-4v-7.42l-.55.42a.6.6 0 0 1 0 .04l-1.1-1.09a2 2 0 0 1-.07-.07l-.03-.03a.55.55 0 0 0-.46-.2.82.82 0 0 0-.44.14c-.12.08-.21.17-.27.24a.55.55 0 0 1-.2.19.22.22 0 0 1-.13.02.24.24 0 0 1-.14-.08c-.1-.1-.13-.19-.13-.25 0-.07.04-.12.06-.14l.86-.79c.2-.07.42-.12.6-.12.24 0 .42.08.57.16.13.07.24.12.37.12.24 0 .39-.04.44-.07L31 28.3v-.36l-.55-1.08.55-.35V21Zm-2.35 9.17.2.2c-.1.13-.26.27-.35.27-.07 0-.15-.06-.21-.12l.36-.35Zm.14-.34-.6.6a.74.74 0 0 1-.27-.07c-.08-.04-.11-.13-.13-.2l.68-.67c.03-.01.11-.02.2.06.08.08.11.2.12.28Zm-.43-.44-.77.77a.33.33 0 0 1-.32-.09.57.57 0 0 1-.13-.2l.9-.89a.22.22 0 0 1 .12-.03c.04 0 .1.02.14.09.09.14.08.29.06.35Zm-.75-.18-.52.51c-.09.02-.23.02-.32-.08a.27.27 0 0 1-.09-.24l.5-.49c.04-.03.1-.06.17-.07.06-.01.11 0 .15.06.1.13.11.25.11.3Zm-.82-.12-.27.27a.52.52 0 0 1-.26-.15.45.45 0 0 1-.1-.14l.3-.3a.22.22 0 0 1 .1-.03c.05 0 .1.02.15.09.1.13.09.23.08.26Z" fill="#0C97F4"/></svg>