<!-- by TradingView --><svg xmlns="http://www.w3.org/2000/svg" width="56" height="56" viewBox="0 0 56 56"><path fill="url(#apg5gap3o)" d="M0 0h56v56H0z"/><path d="M6 24.5v3c2.02 0 3-.08 3-1.5s-1-1.5-3-1.5Zm-2 7.49v-8.97l.83-.01c2.4-.06 5.85-.13 5.89 2.99.01 1.52-.9 3-2.97 3H6v3H4.47L4 31.98Zm11-4.49v-3c2 0 3 .08 3 1.51 0 1.49-1 1.49-3 1.49ZM13 32h2v-3h1.2l1.08 1.57.58.86.09.14c.05.1.13.22.27.43H20l-2.13-3c2.26-.58 2.46-4.33.75-5.38-1.1-.67-3.11-.64-4.75-.6H13V32Zm12-7 1.18 3h-2.36l.12-.33.11-.29L25 25Zm-4 7h1.46c.52-1 .53-1 .54-1l.5-1h3l.5 1s.02 0 .54 1H29c-.05-.68-2.98-8.13-3.38-9h-1.24l-.36.94c-.64 1.63-1.79 4.58-3.02 8.06Zm25.22-6.42c0 1.81 1.25 2.18 2.47 2.54.53.16 1.05.31 1.46.58.75.48.23 2.14-1.64 1.73a4.83 4.83 0 0 1-1.84-1c-.15.3-.22.41-.3.53-.08.13-.17.27-.37.66 2 1.63 6 2.25 6-1.44 0-1.45-1.24-1.83-2.38-2.2-1-.3-1.93-.6-1.93-1.53 0-1.31 2.78-1.2 3.4-.12l.68-1.16c-1.06-1.8-5.55-1.68-5.55 1.41ZM42 32v-9h2v9h-2Z" fill="#fff"/><path d="M35.01 26.42c2.87-2.54 5.37-4.55 7.77-6.42l-3.12 3.2c-1.1 1.14-2.31 2.37-4.65 4.8-.64-.65-2.26-2.27-4.23-4.4L35 26.43ZM32.3 33.7c-1.3 1.04-3 2.42-5.39 4.29a235.72 235.72 0 0 1 8.12-8c.37.47.9 1 1.76 1.88.56.56 1.25 1.26 2.12 2.17-.74-.44-1.37-.84-1.92-1.2-.8-.5-1.45-.92-2.08-1.2-.67.51-1.49 1.16-2.6 2.06Z" fill="#50B580"/><path d="M32.48 30.48c-.62.61-1.37 1.35-2.4 2.32a49.8 49.8 0 0 1 1.4-2.2c.28-.43.57-.87 1.02-1.6a452.3 452.3 0 0 1-5.5-8.2 226.2 226.2 0 0 1 7 8.2c-.48.45-.95.91-1.52 1.48Zm7.61.95c.97 1.15 2.4 2.85 4.91 5.77L36 29l.97-.75a81.84 81.84 0 0 1 4.12-3.05 62.22 62.22 0 0 1-1.95 2.42L38 29c.64.72 1.16 1.33 2.09 2.43Z" fill="#5DC0C9"/><defs><linearGradient id="apg5gap3o" x1="10.42" y1="9.71" x2="68.15" y2="76.02" gradientUnits="userSpaceOnUse"><stop stop-color="#1A1E21"/><stop offset="1" stop-color="#06060A"/></linearGradient></defs></svg>