<!-- by TradingView --><svg width="56" height="56" viewBox="0 0 56 56" xmlns="http://www.w3.org/2000/svg"><path fill="#F0F3FA" d="M0 0h56v56H0z"/><path d="M27.7 12.5c-.63 1.74-1.22 4-.05 7.7 1.5 4.72 5.07 5.94 5.47 10.44.15 1.99-.5 3.96-1.85 5.53a8.88 8.88 0 0 1-5.42 2.94 9.33 9.33 0 0 1-6.16-1.18 8.08 8.08 0 0 1-3.69-4.7 8.23 8.23 0 0 0 .5 3c.87 2.53 2.7 4.7 5.15 6.1a13 13 0 0 0 8.23 1.54c6.22-.89 11.48-6.37 9.8-13.55-1.12-4.82-5.02-6.76-7.97-11.58C28.85 14.06 31.48 8 31.48 8s-2.76 1.7-3.78 4.5Z" fill="#D5D836"/><path d="M29.73 14.72c.05 5.9 5.57 7.93 8.33 11.9a10.76 10.76 0 0 1-2.87 14.98c-4.85 3.38-10.3 1.86-14.17-.6-2.85-1.8-4.95-6.5-4.95-6.5.88 6.42 7.88 10.2 13.6 9.33 6.77-1.02 11.62-6.42 10.02-13.51-1.1-4.82-5.03-6.76-7.98-11.58C28.85 14.06 31.5 8 31.5 8c-1.1 2.1-1.7 4.4-1.76 6.72Z" fill="#D5D836" style="mix-blend-mode:multiply" opacity=".45"/><path d="M25.37 18.29s-5.4 6.5-6.62 9.93c-.78 2-.76 4.16.05 6.14a5.83 5.83 0 0 0 2.82 2.75 7.12 7.12 0 0 0 6.25.01 6.04 6.04 0 0 0 3-3.07 5.18 5.18 0 0 0-.02-4.07 18.9 18.9 0 0 0-2.65-4.1 13 13 0 0 1-2.83-7.6Z" fill="#35ACE5"/></svg>