<!-- by TradingView --><svg width="56" height="56" viewBox="0 0 56 56" xmlns="http://www.w3.org/2000/svg"><path fill="#F0F3FA" d="M0 0h56v56H0z"/><path d="M31 12.01c5.07-.03 10.1 2.97 10 8.54 0 6.21-5 10.45-11.16 10.48-1.34-.03-1.75-.04-3.34-.03-.3 0-.5.08-.5.37v9.08c.02 2.65 2.54 2.77 4.88 2.83.09 0 .12.04.12.13v1.46c0 .15-.09.12-.19.13H16.19c-.15 0-.2-.06-.19-.22.01-.46 0-.91 0-1.37 0-.13.04-.16.16-.17 2.25-.16 4.85-.36 4.84-3.03V16.97c.01-2.7-2.53-3.09-4.82-3.23-.13-.01-.18-.05-.18-.2v-1.36c0-.13.03-.17.17-.17 5.18.01 10.65-.03 14.83 0Zm-5 16.76c.02.27.26.24.5.24H29c4 0 5.91-3.6 6.1-7.27.1-3.87-2.2-7.72-6.44-7.73-1.23-.03-1.22.01-2.46 0-.15 0-.2 0-.2.16v14.6Z" fill="#0078BE"/></svg>