<!-- by TradingView --><svg width="56" height="56" viewBox="0 0 56 56" xmlns="http://www.w3.org/2000/svg"><path fill="#F0F3FA" d="M0 0h56v56H0z"/><path d="M8 18v10h2v-3.66h.12c2.44 0 4.88-.93 4.88-3.65 0-2.18-2.04-2.7-3.05-2.69H8Zm2 4.98v-3.4h1.24c.6 0 1.8.26 1.8 1.36 0 1.39-1.44 2.06-2.88 2.06-.06 0-.11 0-.16-.02Z" fill="#98012E"/><path fill-rule="evenodd" d="M21.5 28c2.49 0 4.5-2.24 4.5-5s-2.01-5-4.5-5-4.5 2.24-4.5 5 2.01 5 4.5 5Zm0-2c1.38 0 2.5-1.34 2.5-3s-1.12-3-2.5-3-2.5 1.34-2.5 3 1.12 3 2.5 3ZM43.5 28c2.49 0 4.5-2.24 4.5-5s-2.01-5-4.5-5-4.5 2.24-4.5 5 2.01 5 4.5 5Zm0-2c1.38 0 2.5-1.34 2.5-3s-1.12-3-2.5-3-2.5 1.34-2.5 3 1.12 3 2.5 3Z" fill="#98012E"/><path d="M28 18h2.56L35 24.9V18h2v10h-2.17L30 20.89V28h-2V18Z" fill="#98012E"/><path d="m14.41 30.39.59.92-.31.08c-.34-.33-1.4-1-2.97-1A3.8 3.8 0 0 0 8 34.06a3.7 3.7 0 0 0 3.72 3.55c1.53 0 2.67-.64 3.05-.96H15l-.59.92c-.28.15-1.24.43-2.77.43C9.74 38 7 37.23 7 33.98 7 30.73 9.77 30 11.45 30c1.34 0 2.35.26 2.7.39h.26ZM22 37.33c0 .25-.3.34-.46.35h-.21V38h2.39v-.32h-.39c-.2 0-.3-.23-.33-.35v-6.85c1.3 0 3 .12 3 1.78 0 1.33-1.41 1.49-2 1.46V34c.84 0 2.85 0 2.85-2.06 0-1.64-1.94-1.98-2.91-1.94H21.4v.32h.25c.24 0 .33.29.34.44v6.57Z" fill="#5F6062"/><path d="M14.53 37.7a.71.71 0 0 0 .59-.47l2.8-7.35 2.88 7.35c.09.16.32.46.59.46h.07V38h-1.84v-.3h.11c.04-.03.11-.1.11-.16s-1.45-3.75-2.18-5.59l-2.1 5.51c-.02.07-.04.18-.01.23h.23V38h-1.33v-.3h.08ZM27.47 30h2.03v.32h-.27c-.07.02-.23.14-.23.4v6.65c.01.1.08.31.27.31h.23V38h-2.03v-.32h.26c.19 0 .26-.2.27-.31V30.7c0-.25-.16-.37-.23-.4h-.3V30ZM30.48 31.67v-2.01h.21c.03.24.26.33.38.34h4.83c.11-.01.35-.1.38-.34h.2v2h-.1c.01-.38-.16-1.17-.93-1.17h-1.41a.45.45 0 0 0-.04.2v6.7c.01.1.08.3.28.3h.24V38h-2.07v-.3h.27c.2 0 .27-.2.28-.3v-6.72a.44.44 0 0 0-.04-.19h-1.44c-.78 0-.95.79-.93 1.18h-.1Z" fill="#5F6062"/><path fill-rule="evenodd" d="M35.66 37.25a.71.71 0 0 1-.59.45H35v.3h1.33v-.3h-.24c-.02-.06 0-.17.02-.23l1.1-2.87h2.02c.6 1.5 1.15 2.91 1.15 2.95 0 .06-.07.12-.11.15h-.11v.3H42v-.3h-.08c-.26 0-.5-.3-.58-.45L38.46 30c-.88 2.28-2.68 6.91-2.8 7.25Zm3.39-3.1-.84-2.11-.82 2.11h1.66Z" fill="#5F6062"/><path d="M44.72 30h-2.35v.32h.25c.13.02.38.16.38.47v6.58a.37.37 0 0 1-.38.31H42V38h6v-2h-.25c-.03.53-.3 1.49-1.14 1.49H45c-.33-.02-1.01-.22-1.01-.92V30.8c.03-.16.16-.47.46-.47h.26V30Z" fill="#5F6062"/><path d="m21 33.9-.53-.9c-4.02 1.08-5.5 2.85-6.45 3.98L14 37c1.76-1.86 5.4-2.84 7-3.1Z" fill="#98012E"/><path fill-rule="evenodd" d="m20.63 32.65.84 1.47-.43.07c-.79.13-2.17.55-3.5 1.06a8.85 8.85 0 0 0-3.35 2l-.47-.4.02-.01c.48-.58.99-1.23 2.02-1.98a14.18 14.18 0 0 1 4.64-2.15l.23-.06Zm-6.65 4.37-.02.02.02-.02a12.6 12.6 0 0 1 6.5-4.02l.51.9c-2.44.4-5.26 1.28-7.01 3.12Z" fill="#fff"/></svg>