<!-- by TradingView --><svg width="56" height="56" viewBox="0 0 56 56" xmlns="http://www.w3.org/2000/svg"><path fill="#F0F3FA" d="M0 0h56v56H0z"/><path d="m28 12.5 14 7.64v15.73l-14 7.86-14-7.86V20.14l14-7.65Zm0-2.5-1.2.67-13.6 7.65L12 19v18l1.2.68 13.6 7.64L28 46l1.2-.68 13.6-7.65L44 37V19l-1.2-.68-13.6-7.65L28 10Z" fill="#008D84"/><path fill-rule="evenodd" d="M40 21.29V34.7l-12 6.63-12-6.63V21.3l12-6.35 12 6.35Zm-10.07 2.55a3.45 3.45 0 0 1 5.07 3.1 3.6 3.6 0 0 1-3.73 3.63c-.54 0-1-.07-1.38-.22l-.47-.18a1 1 0 0 0-.32-.07c-.2 0-.4.14-.6.42-.2.3-.41.58-.7.8-.64.53-1.41.8-2.3.8-.43 0-.8-.07-1.1-.19-.3-.1-.62-.3-1-.58l.01 1.36v.54c0 .36.03.62.07.78.04.16.12.3.25.4.14.13.42.24.88.35l-.06.22H20.8l.05-.27c.33-.04.57-.1.7-.17.55-.26.5-1.03.47-1.61L22 32.6v-5.48c0-.97-.24-1.56-1.26-1.66l.05-.25 2.49-.34.01.05c.07.25.1.5.1.7v.07a4.03 4.03 0 0 1 2.29-.7c.86 0 1.71.32 2.32.8v-4.4c0-.96-.33-1.56-1.33-1.66l.04-.24 2.63-.34v5.2c.2-.22.4-.4.6-.51Zm2.8 5.54a4.59 4.59 0 0 0 .44-3.71 3.2 3.2 0 0 0-.61-1.12 2.1 2.1 0 0 0-.69-.58c-.25-.13-.5-.2-.76-.2-.31 0-.6.09-.87.28-.27.17-.48.41-.6.7-.2.44-.3 1.15-.3 2.14 0 .57.03 1.09.1 1.56.06.47.15.82.25 1.03.13.25.31.44.55.59a1.94 1.94 0 0 0 2.48-.69Zm-6 1.62c.26-.31.46-.68.6-1.11a4.26 4.26 0 0 0-.55-3.78 1.8 1.8 0 0 0-2.3-.59c-.25.13-.46.31-.6.54-.17.25-.3.56-.36.93-.06.38-.1.91-.1 1.61 0 .73.04 1.28.1 1.64.06.37.19.67.35.88.15.2.36.36.6.47.25.12.5.18.75.18.57 0 1.07-.26 1.5-.77Z" fill="#0E406A"/></svg>