<!-- by TradingView --><svg width="56" height="56" viewBox="0 0 56 56" xmlns="http://www.w3.org/2000/svg"><path fill="#F0F3FA" d="M0 0h56v56H0z"/><path fill-rule="evenodd" d="m25.57 32-.53-.54-.08.08.52.5-.42.84h-.56v.1h.51L25 33l.75.38-.32.62h-.93l.5 1.5.5-.5h1l.5.5.5-.5v-.9l.06-.11-1.01-1.01v-.96l.49-.48-.08-.08-.56.54h-.83Zm.9 1.04-.47.46-.16-.08-.34.66v.82h1v-.4l.92-.46.02-.03-.98-.97Z"/><path d="M8 26.02h40L43.37 30h-.96l3.9-3.35H9.75L13.82 30h-.98L8 26.02ZM14.7 30h-.61l-3.23-3h34.28l-3.12 3h-.6L44 27.42H12L14.7 30Z" fill="#10253F"/><path d="M43 28H13l2.84 2h25.22L43 28Z" fill="#10253F"/><ellipse cx="26.51" cy="17.41" rx="4.24" ry="4.41" fill="#2B2C2C"/><ellipse cx="26.51" cy="17.63" rx="3" ry="3.12" fill="#1A1B1B"/><path fill-rule="evenodd" d="M26.51 21.4a3.9 3.9 0 0 0 3.83-3.99 3.9 3.9 0 0 0-3.83-3.98 3.9 3.9 0 0 0-3.83 3.98 3.9 3.9 0 0 0 3.83 3.98Zm-.1-4.96-1.14-2.15c.41-.29 1.47-.69 2.38 0l-1.24 2.15Zm.83.54 1.24-2.15c.48.25 1.4 1.03 1.24 2.15h-2.48Zm1.03 3.44-1.03-2.47 2.48.21c0 .95-.96 1.9-1.45 2.26ZM26.2 18.7l-.93 2.05c.1.07.52.21 1.35.21l-.42-2.26Zm-3.1-.54h2.38l-1.24 1.94c-.86-.45-1.12-1.48-1.14-1.94Zm2.38-1.18-1.24-2.15c-.45.14-1.14 1.29-1.14 2.15h2.38Z" fill="url(#akft4ewwn)"/><ellipse cx="26.41" cy="17.52" rx=".41" ry=".43" fill="#B9B6B6"/><ellipse cx="32.62" cy="22.25" rx="5.38" ry="5.59" fill="#FD7F2B"/><path fill-rule="evenodd" d="M34.84 27.11a5 5 0 0 1-4.81-.2c.45-.2.92-.58 1.4-1.05.54-.53 1.1-1.2 1.62-1.9a35.41 35.41 0 0 0 2.49-3.9c.4.4.72.78.98 1.14-.3.44-.87 1.65-1.1 3.62l-.58 2.3Zm.17.16A5.62 5.62 0 0 0 38 22.25c0-2.74-1.9-5.03-4.42-5.5a2.1 2.1 0 0 0-.07-.07l-.03.05a5.5 5.5 0 0 0-6.24 5.52 5.5 5.5 0 0 0 5.38 5.6c.82 0 1.6-.2 2.3-.53l.07.02.02-.07Zm-1.18-10.25c.12.15.24.34.34.54.17.35.26.79.13 1.22.41.26.82.57 1.2.95.4-.54.52-1.2.53-1.52a5.1 5.1 0 0 0-2.2-1.19Zm2.4 1.38c-.05.38-.2.98-.57 1.48.4.4.73.8 1 1.16.31-.34.64-.47.86-.5a5.41 5.41 0 0 0-1.3-2.14Zm1.36 2.35c-.18.01-.5.12-.8.46.51.72.8 1.35.94 1.85v.02a5.62 5.62 0 0 0-.14-2.33ZM37.5 24a5.35 5.35 0 0 1-2.43 2.98l.54-2.12v-.01a8.69 8.69 0 0 1 1.03-3.47c.49.69.75 1.28.88 1.74.12.45.05.65 0 .82l-.03.06h.01Zm-4.02-7.05c.16.17.35.41.5.7.14.32.22.67.12 1.02a7.32 7.32 0 0 0-4.22-.99 5 5 0 0 1 3.6-.73Zm-3.96.99c.85-.16 2.7-.13 4.48.91a11.1 11.1 0 0 1-6.57 3.3 5.44 5.44 0 0 1 2.09-4.21Zm-2.09 4.32.01.1a11.29 11.29 0 0 0 6.74-3.4c.4.26.81.57 1.2.95a35.16 35.16 0 0 1-2.5 3.92c-.52.7-1.07 1.35-1.6 1.88-.53.51-1.03.9-1.48 1.06a5.43 5.43 0 0 1-2.37-4.51Z" fill="#10253F"/><path d="M21.54 26.77c-2.6-.17-3.34-1.61-3.41-2.15-.31-1.83 2.48-4.52 4.35-5.49 1.86-.97 8.17-.97 7.55 1.72a10.01 10.01 0 0 1-3.41 5.17c-.83.64-1.76.97-5.08.75Z" fill="#794422"/><path d="M28.79 23.54c-1.82-.94-2.9-3.69-3.21-4.95h.62c.17 1.73 2 3.73 2.9 4.52l-.31.43ZM20.2 20.85l-.83.87a7.7 7.7 0 0 0 1.35 4.94l1.13.11c-1.07-.86-1.55-4.3-1.65-5.92Z" fill="#FEE7D5"/><path d="M30.05 19.92c.13.28.16.6.08.96a10.12 10.12 0 0 1-3.45 5.23c-.43.33-.88.58-1.65.71-.76.14-1.84.17-3.5.06-2.62-.17-3.43-1.64-3.5-2.24-.09-.5.04-1.03.3-1.56.24-.54.63-1.08 1.08-1.6.9-1.03 2.07-1.95 3.02-2.44a6.4 6.4 0 0 1 2.09-.53c.85-.1 1.8-.1 2.68 0 .87.11 1.68.34 2.23.71.28.2.5.42.62.7Zm-5.51-1.2a6.2 6.2 0 0 0-2.02.5c-.92.49-2.07 1.4-2.96 2.4-.44.51-.81 1.04-1.05 1.55-.25.52-.35 1-.28 1.43.06.48.76 1.9 3.32 2.06a15 15 0 0 0 3.44-.05 3.25 3.25 0 0 0 1.56-.68 9.9 9.9 0 0 0 3.38-5.1c.07-.32.04-.58-.06-.82-.11-.23-.3-.43-.55-.6a5.05 5.05 0 0 0-2.15-.68c-.86-.1-1.8-.1-2.63 0Z" fill="#10253F"/><path d="m23.2 20.26-.1-.34.2-.06.09.31.4-.17.07.2-.42.18.07.23-.2.06-.06-.2-.54.25.07.33-.2.04-.06-.28-.44.23.08.33-.2.05-.07-.28-.41.22.06.22-.2.06-.05-.18-.42.24-.1-.19.46-.26-.1-.37.2-.06.1.33c.12-.08.26-.15.41-.23l-.09-.36.2-.05.08.31.45-.22-.1-.48.2-.04.09.42.52-.24Z" fill="#FEE7D5"/><ellipse cx="27.86" cy="26.77" rx="3.1" ry="3.23" fill="#184F98"/><path fill-rule="evenodd" d="M27.86 29.78c1.6 0 2.9-1.34 2.9-3 0-1.67-1.3-3.02-2.9-3.02-1.6 0-2.9 1.35-2.9 3.01 0 1.67 1.3 3.01 2.9 3.01Zm0 .22c1.71 0 3.1-1.45 3.1-3.23a3.17 3.17 0 0 0-3.1-3.23 3.17 3.17 0 0 0-3.1 3.23 3.17 3.17 0 0 0 3.1 3.23Z" fill="#10253F"/><path d="m29.71 26.96-.2-.02a1.78 1.78 0 0 0 0-.34l.2-.02a2.05 2.05 0 0 1 0 .38Zm-.07-.75-.2.06c-.03-.1-.07-.21-.12-.3l.18-.11c.06.11.1.23.14.35Zm-.34-.67-.16.14a1.7 1.7 0 0 0-.23-.24l.13-.17.26.27Zm-.56-.48-.1.2c-.1-.06-.2-.1-.3-.14l.06-.2c.12.04.23.08.34.14Zm-.7-.22-.02.22a1.62 1.62 0 0 0-.32 0l-.02-.22a1.81 1.81 0 0 1 .36 0Zm-.72.08.06.2-.3.13-.1-.19c.1-.06.22-.1.34-.14Zm-.64.35.13.17a1.7 1.7 0 0 0-.23.24l-.16-.14c.08-.1.16-.18.26-.27Zm-.47.59.19.1c-.05.1-.1.2-.13.31l-.2-.06.14-.35Zm-.2.72a2.02 2.02 0 0 0 0 .38l.2-.02a1.82 1.82 0 0 1 0-.34l-.2-.02Zm.06.75.2-.06c.03.11.08.22.13.31l-.19.1c-.05-.1-.1-.22-.14-.35Zm.35.67.16-.14c.07.1.14.17.23.24l-.13.17c-.1-.08-.18-.17-.26-.27Zm.56.48.1-.19c.1.05.2.1.3.13l-.06.2a1.81 1.81 0 0 1-.34-.14Zm.7.22.02-.21a1.59 1.59 0 0 0 .32 0l.02.21a1.8 1.8 0 0 1-.36 0Zm.72-.07-.06-.21c.1-.03.2-.08.3-.13l.1.2-.34.14Zm.64-.36-.13-.17c.08-.07.16-.15.23-.24l.16.14c-.08.1-.17.19-.26.27Zm.46-.58-.18-.1c.05-.1.1-.2.12-.32l.2.06c-.03.13-.08.24-.14.36Z" fill="#FBFAFB"/><path fill-rule="evenodd" d="M41 37H15v2h9.21l4.21 4 4.2-4H41v-2Zm-10.5 2h-4.33l2.24 1.92L30.5 39Zm-4.93.04 2.85 2.43 2.65-2.43h.91l-3.56 3.39-3.56-3.4h.71Z" fill="#10253F"/><path d="M20.2 33.33H22l.02 2.34a5.44 5.44 0 0 1-1.7.27c-.5 0-.92-.1-1.26-.29a1.9 1.9 0 0 1-.78-.84 3.09 3.09 0 0 1-.27-1.34c0-.5.1-.94.29-1.3.2-.38.48-.66.86-.87.37-.2.83-.3 1.36-.3a3.64 3.64 0 0 1 1.45.28l-.28.65a3.16 3.16 0 0 0-1.19-.27c-.34 0-.64.08-.9.23-.24.15-.44.36-.57.63a2.51 2.51 0 0 0-.03 1.9c.1.27.27.48.5.63.24.15.54.22.9.22a3.14 3.14 0 0 0 .83-.1V34H20.2v-.67ZM28 33.5c0 .37-.04.71-.13 1.02-.08.3-.2.57-.37.8-.16.21-.37.38-.62.5A2 2 0 0 1 26 36c-.34 0-.63-.06-.89-.18a1.67 1.67 0 0 1-.62-.51 2.33 2.33 0 0 1-.37-.8c-.08-.3-.12-.64-.12-1.02 0-.5.07-.94.22-1.3.14-.38.36-.67.66-.88.3-.2.67-.31 1.13-.31.44 0 .81.1 1.1.3.3.21.52.5.67.88.15.37.22.81.22 1.32Zm-3.26 0c0 .37.04.7.13.97.1.27.23.48.41.63.2.15.43.22.72.22.3 0 .54-.07.72-.22.19-.15.32-.36.41-.63.09-.27.13-.6.13-.97 0-.57-.1-1.02-.3-1.34-.2-.32-.51-.48-.95-.48-.3 0-.53.07-.72.22-.2.14-.33.35-.42.62-.09.28-.13.6-.13.98ZM33.25 36l-.43-1.38h-1.65L30.75 36H30l1.6-5h.8l1.6 5h-.75Zm-.61-2.08-.41-1.37a26.36 26.36 0 0 0-.23-.86 7.78 7.78 0 0 1-.22.86l-.41 1.37h1.27Z" fill="#099D21"/><path d="M36.76 35.2H38v.8h-2v-5h.76v4.2Z" fill="#009A14"/><defs><linearGradient id="akft4ewwn" x1="26.51" y1="13.43" x2="26.51" y2="21.39" gradientUnits="userSpaceOnUse"><stop stop-color="#B5B5B5"/><stop offset=".45" stop-color="#E7E7E7"/><stop offset="1" stop-color="#B5B5B5"/></linearGradient></defs></svg>