<!-- by TradingView --><svg width="56" height="56" viewBox="0 0 56 56" xmlns="http://www.w3.org/2000/svg"><path fill="#F0F3FA" d="M0 0h56v56H0z"/><path d="M7.98 30h1.48l1.04 1.23.5.6L12.64 34h-1.53L10 32.55l-.38-.52L7.98 30Zm5-1.88c0 2.58-1.83 4.88-4.5 4.88C5.8 33 4 30.66 4 28.12c0-1.06.2-1.98.58-2.74A4.26 4.26 0 0 1 8.48 23a4.25 4.25 0 0 1 3.9 2.38c.4.76.6 1.68.6 2.74Zm-1.5 0c0-.81-.13-1.5-.39-2.05a2.78 2.78 0 0 0-2.6-1.7 2.79 2.79 0 0 0-2.6 1.7 4.82 4.82 0 0 0-.4 2.05c0 1.75 1.08 3.5 3 3.5 1.91 0 3-1.76 3-3.5ZM18.07 33H15V23h3.17c2.85 0 4.83 2.38 4.83 5.1 0 3.04-2 4.9-4.93 4.9Zm-1.57-1.38h1.49c2.26 0 3.54-1.33 3.54-3.51 0-2.35-1.27-3.66-3.45-3.66H16.5v7.17ZM24.5 33V23h3.54c1.92 0 3.45 1.2 3.45 3.16 0 1.81-1.12 3.07-3.45 3.07h-2.7V28h2.56c1.15 0 2.08-.66 2.08-1.84 0-1.13-.6-1.84-2.1-1.84H26V33h-1.5Zm4.9-4.5 2.47 4.5h-1.71l-2.41-4.5h1.66ZM42.21 28.12c0 2.6-1.81 4.88-4.48 4.88-2.7 0-4.5-2.33-4.5-4.88 0-1.06.2-1.98.6-2.74a4.26 4.26 0 0 1 3.9-2.38 4.25 4.25 0 0 1 3.9 2.38c.39.76.58 1.68.58 2.74Zm-1.49 0c0-.81-.13-1.5-.39-2.05a2.78 2.78 0 0 0-2.6-1.7 2.79 2.79 0 0 0-2.6 1.7 4.82 4.82 0 0 0-.4 2.05c0 1.77 1.1 3.5 3 3.5 1.92 0 3-1.75 3-3.5ZM50.5 23H52v6.42c0 2.19-1.85 3.58-3.96 3.58-2.03 0-4.04-1.37-4.04-3.58V23h1.59v6.3c0 1.38 1.08 2.33 2.45 2.33 1.35 0 2.45-.91 2.45-2.33V23Z"/></svg>