<!-- by TradingView --><svg width="56" height="56" viewBox="0 0 56 56" xmlns="http://www.w3.org/2000/svg"><path fill="#F0F3FA" d="M0 0h56v56H0z"/><path d="M36 21.14a1.45 1.45 0 0 0-.78.79c.07.16.17.33.31.47.15.14.3.24.47.32.17-.07.34-.17.47-.32.14-.14.25-.3.32-.48a1.27 1.27 0 0 0-.32-.47c-.13-.14-.3-.25-.47-.31Zm2.02-2.03c-.17.07-.34.18-.47.32-.14.14-.25.3-.32.48a1.39 1.39 0 0 0 .8.8c.17-.07.33-.18.47-.32.14-.15.24-.3.31-.47a1.4 1.4 0 0 0-.31-.48c-.15-.14-.31-.26-.48-.33Zm-10.08 6.07c-.17.07-.34.17-.48.32-.14.14-.25.3-.32.48.07.17.18.33.32.47.14.13.3.25.47.31.17-.06.33-.17.48-.31.14-.15.24-.3.31-.47a1.4 1.4 0 0 0-.31-.48 1.4 1.4 0 0 0-.47-.32Zm2.01-2.02c-.17.07-.33.17-.46.32-.15.14-.25.3-.32.47.07.18.17.34.32.47.14.14.3.24.46.32.18-.07.34-.17.48-.32.15-.14.25-.3.32-.48a1.39 1.39 0 0 0-.8-.78Zm-4.03 0c-.17.07-.33.17-.48.32-.14.14-.24.3-.31.47.07.18.17.34.31.47.14.14.3.24.47.32.17-.07.34-.17.48-.32.14-.14.25-.3.32-.48a1.4 1.4 0 0 0-.79-.78Zm6.05-2.02a1.4 1.4 0 0 0-.78.8c.06.16.17.33.31.47.15.14.3.24.47.32.17-.07.33-.18.48-.32.14-.14.25-.3.31-.47a1.39 1.39 0 0 0-.31-.48c-.15-.15-.3-.25-.48-.32Zm-8.06 0a1.39 1.39 0 0 0-.8.8c.07.16.17.33.32.47.14.14.3.24.47.32.17-.07.33-.18.47-.32.15-.14.25-.3.32-.47a1.4 1.4 0 0 0-.32-.48 1.3 1.3 0 0 0-.46-.32Zm-2.02 2.02c-.17.07-.33.17-.48.32-.14.14-.25.3-.31.47.06.18.17.34.31.47.14.14.3.25.47.32a1.45 1.45 0 0 0 .8-.79 1.4 1.4 0 0 0-.32-.47c-.14-.15-.3-.25-.47-.32Zm-2.02 2.02c-.17.07-.33.17-.47.32-.15.14-.25.3-.32.48.07.17.17.33.32.47.13.14.3.25.46.31.18-.06.34-.17.48-.31.14-.15.25-.3.32-.48a1.27 1.27 0 0 0-.32-.47 1.4 1.4 0 0 0-.47-.32Zm-2.01 2.02c-.17.07-.34.18-.48.32-.14.14-.25.3-.32.48.07.17.18.34.32.47.14.14.3.25.47.32.17-.07.33-.18.48-.32.14-.14.24-.3.31-.48a1.27 1.27 0 0 0-.31-.47c-.15-.13-.3-.24-.47-.32Zm-2.02 2.03c-.17.06-.33.17-.48.31-.14.15-.24.3-.31.47.07.18.17.34.31.47.14.15.3.25.47.32.17-.07.34-.17.48-.32.14-.14.25-.3.31-.48a1.27 1.27 0 0 0-.31-.47c-.14-.13-.3-.23-.47-.3Zm-2.01 2.02c-.18.07-.34.17-.48.32-.15.14-.25.3-.32.48.07.17.17.33.32.47.14.13.3.24.47.31.17-.07.33-.17.47-.31.15-.15.25-.3.32-.47a1.4 1.4 0 0 0-.32-.48c-.14-.14-.3-.24-.46-.32Zm20.16-12.14c-.18.07-.34.18-.48.32-.14.14-.25.3-.32.48.07.17.18.33.32.47.14.14.3.25.47.32.17-.07.33-.18.47-.32.15-.14.25-.3.32-.48a1.27 1.27 0 0 0-.32-.47 1.4 1.4 0 0 0-.46-.32ZM36 17.1c-.17.07-.33.17-.47.32-.14.14-.24.3-.31.48.07.17.17.33.31.48.15.13.3.24.47.31.17-.07.34-.17.48-.31.14-.15.25-.3.32-.47a1.27 1.27 0 0 0-.32-.47c-.14-.17-.3-.26-.48-.34Zm-8.06 4.05a1.4 1.4 0 0 0-.8.8c.07.16.18.33.32.47.14.14.3.24.47.32.17-.07.33-.18.48-.32.14-.14.24-.3.31-.47a1.4 1.4 0 0 0-.31-.48 1.3 1.3 0 0 0-.47-.32Zm2.01-2.03c-.17.07-.33.18-.46.32-.15.14-.25.3-.32.48.07.17.17.33.32.47.14.14.3.25.46.32.18-.07.34-.18.48-.32.15-.14.25-.3.32-.48a1.27 1.27 0 0 0-.32-.47c-.14-.14-.3-.24-.48-.32Zm-4.03 0c-.17.07-.33.18-.47.32-.14.14-.24.3-.31.48.07.17.17.33.31.47.14.14.3.25.47.32.17-.07.34-.18.48-.32.14-.14.25-.3.31-.48a1.27 1.27 0 0 0-.31-.47c-.14-.14-.3-.25-.48-.32Zm6.05-2.02c-.17.07-.33.17-.47.32-.14.14-.25.3-.31.48.06.17.17.33.31.47.15.13.3.25.47.31.17-.06.33-.17.48-.31.14-.15.25-.3.31-.47a1.27 1.27 0 0 0-.31-.47c-.15-.16-.3-.25-.48-.33Zm-10.08 2.02c-.17.07-.33.18-.48.32-.14.14-.25.3-.31.48.06.17.17.33.31.47.14.14.3.25.47.32.17-.07.33-.18.48-.32.14-.14.25-.3.31-.48a1.27 1.27 0 0 0-.31-.47 1.4 1.4 0 0 0-.47-.32Zm-2.02 2.03c-.17.06-.33.17-.47.31-.15.15-.25.3-.32.48a1.5 1.5 0 0 0 .78.79c.18-.07.34-.17.47-.32.15-.14.25-.3.32-.48a1.4 1.4 0 0 0-.78-.78Zm-2.01 2.02c-.17.07-.34.17-.48.32-.14.13-.25.3-.32.46.07.18.18.34.32.47.13.15.3.25.47.32.17-.07.33-.17.48-.32.14-.14.24-.3.31-.46a1.27 1.27 0 0 0-.31-.47 1.4 1.4 0 0 0-.47-.32Zm-2.02 2.02c-.17.07-.33.17-.48.32-.14.14-.24.3-.31.48a1.45 1.45 0 0 0 .78.79c.17-.07.34-.18.48-.32.14-.15.25-.3.31-.48a1.27 1.27 0 0 0-.31-.47c-.13-.14-.3-.24-.47-.32Zm-2.01 2.02c-.18.07-.34.18-.48.32-.15.14-.25.3-.32.47.07.17.17.34.32.47.13.14.3.25.47.32.17-.07.33-.18.47-.32.15-.14.25-.3.32-.47a1.27 1.27 0 0 0-.32-.47c-.14-.13-.3-.24-.46-.32ZM23.9 17.1a1.4 1.4 0 0 0-.78.8c.06.16.16.32.3.46.15.13.31.25.48.31.17-.06.33-.17.47-.31.15-.15.25-.3.32-.47a1.27 1.27 0 0 0-.32-.47c-.14-.16-.3-.25-.47-.33ZM11.8 29.22c-.17.06-.34.17-.48.31-.14.15-.25.3-.31.48.06.18.17.34.31.47.14.15.3.25.47.32.17-.07.33-.17.48-.32.14-.14.25-.3.31-.47a1.4 1.4 0 0 0-.31-.48c-.15-.13-.3-.24-.47-.31Zm22.18-14.16a1.4 1.4 0 0 0-.8.8c.07.17.18.33.32.46.14.14.3.24.47.32.17-.07.33-.17.47-.32.15-.14.25-.3.32-.47a1.4 1.4 0 0 0-.32-.48 1.4 1.4 0 0 0-.46-.31Zm-6.05-2.02a1.4 1.4 0 0 0-.8.8c.07.16.18.33.32.47.14.13.3.24.47.32.17-.07.33-.18.48-.32.14-.14.24-.3.31-.48a1.27 1.27 0 0 0-.31-.47 1.3 1.3 0 0 0-.47-.32Zm2.01-2.03c-.17.07-.33.18-.46.32-.15.14-.25.3-.32.48.07.17.17.33.32.47.14.14.3.25.46.31.18-.06.34-.17.48-.31.15-.15.25-.3.32-.47a1.39 1.39 0 0 0-.8-.8Zm-4.03 0c-.17.07-.33.18-.48.32-.14.14-.24.3-.31.48.07.17.17.33.31.47.14.14.3.25.47.31.17-.06.34-.17.48-.31.14-.15.25-.3.32-.47a1.4 1.4 0 0 0-.32-.48 1.4 1.4 0 0 0-.47-.32ZM27.94 9c-.17.07-.34.17-.48.32-.14.14-.25.3-.32.48.07.17.18.33.32.47.14.14.3.24.47.32.17-.07.33-.17.48-.31.14-.15.24-.3.31-.48a1.27 1.27 0 0 0-.31-.47 1.3 1.3 0 0 0-.47-.33Zm0 8.1c-.17.06-.34.16-.48.3-.14.15-.25.31-.32.49.07.17.18.33.32.47.14.13.3.25.47.31.17-.06.33-.17.48-.31.14-.15.24-.3.31-.47a1.27 1.27 0 0 0-.31-.47 1.3 1.3 0 0 0-.47-.33Zm2.01-2.03c-.17.07-.33.17-.46.31-.15.15-.25.3-.32.48.07.18.17.34.32.47.14.14.3.24.46.32.18-.07.34-.17.48-.32.15-.14.25-.3.32-.47a1.27 1.27 0 0 0-.32-.47c-.14-.15-.3-.25-.48-.32Zm-4.03 0c-.17.07-.33.17-.48.31-.14.15-.24.3-.31.48.07.18.17.34.31.47.14.14.3.24.47.32.17-.07.34-.17.48-.32.14-.14.25-.3.32-.47a1.4 1.4 0 0 0-.32-.48 1.4 1.4 0 0 0-.47-.31Zm6.05-2.02a1.4 1.4 0 0 0-.8.8c.07.16.18.33.32.47.15.13.3.24.47.32.17-.07.34-.18.48-.32.14-.14.25-.3.31-.48a1.27 1.27 0 0 0-.31-.47 1.3 1.3 0 0 0-.47-.32Zm-12.1 4.04c-.17.07-.33.17-.47.32-.15.14-.25.3-.32.48a1.5 1.5 0 0 0 .78.79c.18-.07.34-.18.48-.32.14-.15.25-.3.32-.47a1.27 1.27 0 0 0-.32-.47 1.3 1.3 0 0 0-.47-.33Zm-2.01 2.02c-.17.07-.34.18-.47.32-.14.14-.25.3-.32.48.07.17.18.33.32.47.13.14.3.25.47.32.17-.07.33-.18.48-.32.14-.14.24-.3.31-.47a1.4 1.4 0 0 0-.8-.8Zm-2.02 2.03c-.17.06-.33.17-.48.31-.14.15-.24.3-.31.48a1.45 1.45 0 0 0 .78.79c.17-.07.34-.17.48-.32.14-.14.25-.3.31-.47a1.27 1.27 0 0 0-.31-.47 1.3 1.3 0 0 0-.47-.32Zm-2.01 2.02c-.18.07-.34.17-.48.32-.15.14-.25.3-.32.47.07.18.17.34.32.47.14.15.3.25.47.32.17-.07.33-.17.47-.32.15-.14.25-.3.32-.48a1.27 1.27 0 0 0-.32-.46c-.13-.14-.3-.24-.46-.32Zm-2.02 2.02c-.17.07-.34.17-.48.32-.14.14-.25.3-.31.47.06.17.17.33.31.47.14.14.3.25.47.31.17-.06.33-.17.48-.31.14-.15.25-.3.31-.48a1.27 1.27 0 0 0-.31-.47c-.15-.13-.3-.23-.47-.3Zm10.08-10.11a1.39 1.39 0 0 0-.8.8 1.55 1.55 0 0 0 .78.79c.18-.08.34-.18.49-.33.14-.14.25-.3.31-.47a1.27 1.27 0 0 0-.31-.47 1.3 1.3 0 0 0-.47-.32Zm2.02-2.02c-.18.06-.34.17-.47.31-.15.15-.25.3-.32.48.07.17.17.34.32.48.14.13.3.24.47.32.17-.07.33-.18.47-.32.15-.14.25-.3.32-.48a1.27 1.27 0 0 0-.32-.47c-.14-.15-.3-.25-.47-.32ZM9.79 27.2c-.17.07-.33.18-.47.32-.15.14-.25.3-.32.48.07.17.17.34.32.47.14.14.3.25.46.32.18-.07.34-.18.48-.32.14-.14.25-.3.32-.47a1.4 1.4 0 0 0-.32-.48c-.14-.13-.3-.24-.47-.32Z" fill="#008068"/><path d="M31.97 28.83a2.12 2.12 0 0 0-1.18 1.18 2.12 2.12 0 0 0 1.18 1.18 2.12 2.12 0 0 0 1.18-1.18 2.13 2.13 0 0 0-1.18-1.18Zm-8.06 0a2.13 2.13 0 0 0-1.18 1.18 2.13 2.13 0 0 0 1.18 1.18c.25-.1.5-.26.7-.47a2 2 0 0 0 .47-.7 2.18 2.18 0 0 0-1.17-1.19Zm-2.02 2.03a2.13 2.13 0 0 0-1.18 1.18 2.13 2.13 0 0 0 1.18 1.17 2.12 2.12 0 0 0 1.17-1.17 2.13 2.13 0 0 0-1.17-1.18Zm-2.02 2.02a2.13 2.13 0 0 0-1.18 1.18 2.13 2.13 0 0 0 1.18 1.18 2.13 2.13 0 0 0 1.18-1.18 2.12 2.12 0 0 0-1.18-1.18Zm-2.01 2.02c-.26.1-.5.26-.71.47a2 2 0 0 0-.47.71 2.13 2.13 0 0 0 1.18 1.18 2.12 2.12 0 0 0 1.17-1.18 2.22 2.22 0 0 0-1.18-1.18Zm16.13-8.09A2.12 2.12 0 0 0 32.8 28 2.12 2.12 0 0 0 34 29.17a2.12 2.12 0 0 0 1.17-1.18A2.13 2.13 0 0 0 34 26.81ZM36 28.83a2.12 2.12 0 0 0-1.17 1.18A2.13 2.13 0 0 0 36 31.2a2.12 2.12 0 0 0 1.18-1.18A2.12 2.12 0 0 0 36 28.83Zm2.02-2.02A2.12 2.12 0 0 0 36.84 28a2.13 2.13 0 0 0 1.18 1.18 2.12 2.12 0 0 0 1.17-1.18c-.1-.26-.26-.5-.46-.7-.21-.21-.45-.37-.71-.48Zm2.01-2.02a2.12 2.12 0 0 0-1.17 1.18 2.13 2.13 0 0 0 1.17 1.18 2.12 2.12 0 0 0 1.18-1.18 2.13 2.13 0 0 0-1.18-1.18Zm2.02-2.02a2.12 2.12 0 0 0-1.17 1.18 2.13 2.13 0 0 0 1.17 1.17 2.12 2.12 0 0 0 1.18-1.18 2.12 2.12 0 0 0-1.18-1.18Zm-12.1 8.09a2.12 2.12 0 0 0-1.17 1.18 2.13 2.13 0 0 0 1.17 1.17 2.13 2.13 0 0 0 1.18-1.18 2.12 2.12 0 0 0-1.18-1.18Zm-4.03 0c-.26.1-.5.27-.7.47a2 2 0 0 0-.47.7 2.13 2.13 0 0 0 1.17 1.18 2.12 2.12 0 0 0 1.18-1.17 2.13 2.13 0 0 0-1.18-1.18Zm2.02 2.02c-.26.1-.5.26-.7.48-.22.21-.37.45-.48.7a2.13 2.13 0 0 0 1.18 1.19 2.12 2.12 0 0 0 1.17-1.18 2.13 2.13 0 0 0-1.17-1.2Zm2.01-6.2a2.4 2.4 0 0 0-1.3 1.32c.11.29.3.56.52.8.23.23.5.4.78.52a2.5 2.5 0 0 0 1.32-1.31 2.36 2.36 0 0 0-.52-.8c-.24-.24-.5-.42-.8-.53Zm-4.03 0A2.34 2.34 0 0 0 24.6 28a2.46 2.46 0 0 0 1.3 1.31A2.35 2.35 0 0 0 27.23 28a2.35 2.35 0 0 0-1.3-1.31Zm6.05-2.03a2.4 2.4 0 0 0-1.3 1.32 2.35 2.35 0 0 0 1.31 1.33 2.36 2.36 0 0 0 1.3-1.32 2.36 2.36 0 0 0-1.31-1.33Zm-8.06 0c-.3.12-.56.3-.79.53-.23.23-.4.5-.52.8a2.35 2.35 0 0 0 1.3 1.32 2.34 2.34 0 0 0 1.32-1.32 2.34 2.34 0 0 0-1.32-1.32Zm-2.02 2.03A2.34 2.34 0 0 0 20.57 28c.12.29.29.56.53.79.23.23.5.4.78.52.29-.11.55-.28.8-.52.23-.23.4-.5.52-.79a2.36 2.36 0 0 0-1.3-1.32Zm-2.02 2.02a2.34 2.34 0 0 0-1.32 1.32 2.46 2.46 0 0 0 1.3 1.31 2.34 2.34 0 0 0 1.33-1.32 2.51 2.51 0 0 0-1.3-1.31Zm-2.01 2.02a2.35 2.35 0 0 0-1.32 1.32 2.46 2.46 0 0 0 1.3 1.31c.3-.12.56-.3.8-.53.23-.23.41-.5.53-.8a2.36 2.36 0 0 0-1.31-1.3Zm-2.02 2.03a2.35 2.35 0 0 0-1.32 1.32 2.46 2.46 0 0 0 1.3 1.31 2.5 2.5 0 0 0 1.33-1.31 2.48 2.48 0 0 0-.52-.8 2.8 2.8 0 0 0-.79-.52ZM34 22.63a2.4 2.4 0 0 0-1.3 1.32 2.5 2.5 0 0 0 1.3 1.33 2.5 2.5 0 0 0 1.32-1.32 2.5 2.5 0 0 0-.53-.8 2.5 2.5 0 0 0-.8-.53ZM36 24.65a2.4 2.4 0 0 0-1.3 1.32A2.35 2.35 0 0 0 36 27.3a2.47 2.47 0 0 0 1.32-1.31 2.35 2.35 0 0 0-.52-.8c-.24-.24-.51-.42-.8-.54Zm2.02-2.02a2.34 2.34 0 0 0-1.32 1.32 2.35 2.35 0 0 0 1.3 1.33 2.34 2.34 0 0 0 1.33-1.33 2.35 2.35 0 0 0-1.31-1.32Zm2.01-2.02a2.34 2.34 0 0 0-1.31 1.32 2.35 2.35 0 0 0 1.31 1.32 2.34 2.34 0 0 0 1.32-1.32 2.35 2.35 0 0 0-1.32-1.32Zm-12.1 8.09c-.28.11-.55.3-.78.53-.22.23-.4.5-.52.78a2.4 2.4 0 0 0 1.32 1.32 2.47 2.47 0 0 0 1.3-1.31 2.23 2.23 0 0 0-.52-.78c-.24-.24-.5-.43-.8-.54ZM34 31a1.92 1.92 0 0 0-1.05 1.05 1.93 1.93 0 0 0 1.05 1.05c.23-.1.45-.23.63-.42.19-.18.32-.4.42-.63-.1-.23-.23-.46-.42-.64-.18-.19-.4-.32-.63-.42ZM36 33c-.23.1-.45.23-.63.43-.18.19-.32.4-.42.63A1.97 1.97 0 0 0 36 35.12a1.97 1.97 0 0 0 1.05-1.05A1.92 1.92 0 0 0 36 33ZM38.02 31c-.23.1-.45.23-.63.42-.18.2-.33.4-.42.64.1.23.23.45.42.63.18.19.4.32.63.42a1.97 1.97 0 0 0 1.05-1.05 1.92 1.92 0 0 0-1.05-1.06Zm2.01-2.02c-.22.1-.44.23-.63.42-.18.2-.32.4-.42.63a1.93 1.93 0 0 0 1.05 1.06 1.97 1.97 0 0 0 1.06-1.06 1.92 1.92 0 0 0-1.06-1.05Zm2.02-2.02c-.23.1-.45.23-.63.42-.18.19-.32.4-.42.63.1.23.23.45.42.63.18.2.4.33.63.42A1.97 1.97 0 0 0 43.1 28a1.92 1.92 0 0 0-1.05-1.05Zm2.02-2.03c-.23.1-.45.23-.63.42-.19.2-.33.4-.42.64a1.97 1.97 0 0 0 1.05 1.05c.23-.1.44-.24.63-.42s.32-.4.42-.63a1.93 1.93 0 0 0-1.05-1.06Zm-12.1 8.1a1.98 1.98 0 0 0-1.05 1.05 1.93 1.93 0 0 0 1.05 1.05 1.92 1.92 0 0 0 1.05-1.05A1.92 1.92 0 0 0 31.97 33Zm-8.06 0a1.98 1.98 0 0 0-1.05 1.05 1.98 1.98 0 0 0 1.05 1.05 1.97 1.97 0 0 0 1.05-1.05A1.93 1.93 0 0 0 23.9 33Zm-2.03 2.02a1.92 1.92 0 0 0-1.05 1.05 1.97 1.97 0 0 0 1.05 1.05 1.98 1.98 0 0 0 1.05-1.05 1.92 1.92 0 0 0-1.05-1.05Zm-2.02 2.02a1.92 1.92 0 0 0-1.05 1.05 1.93 1.93 0 0 0 1.05 1.06c.23-.1.44-.24.63-.42.19-.2.33-.4.43-.64-.1-.23-.23-.45-.43-.63-.18-.2-.4-.33-.63-.42Zm10.1-2.02a1.92 1.92 0 0 0-1.06 1.05 1.97 1.97 0 0 0 1.05 1.05c.23-.1.45-.22.63-.42.19-.19.33-.4.43-.63-.1-.23-.23-.45-.43-.63-.19-.2-.4-.33-.63-.42Zm-4.04 0a1.92 1.92 0 0 0-1.05 1.05 1.92 1.92 0 0 0 1.05 1.05c.23-.1.45-.22.63-.42.2-.18.33-.4.42-.63a1.93 1.93 0 0 0-1.05-1.05Zm2.02 2.02a1.98 1.98 0 0 0-1.05 1.05 1.92 1.92 0 0 0 1.05 1.06c.23-.1.45-.23.63-.42.18-.2.32-.4.42-.64a1.93 1.93 0 0 0-1.05-1.05Zm10.08-1.89a1.6 1.6 0 0 0-.92.92 1.6 1.6 0 0 0 .92.92 1.6 1.6 0 0 0 .92-.92c-.09-.2-.2-.4-.37-.56a1.6 1.6 0 0 0-.55-.36Zm2.01-2.02a1.6 1.6 0 0 0-.92.92 1.77 1.77 0 0 0 .92.93c.2-.09.4-.21.56-.37.16-.16.29-.35.36-.55-.08-.2-.2-.4-.36-.56a1.5 1.5 0 0 0-.56-.37Zm2.02-2.02a1.6 1.6 0 0 0-.92.92c.09.2.2.39.37.55.16.16.35.29.55.37.2-.1.4-.22.55-.37.17-.16.3-.35.37-.55-.09-.2-.2-.4-.37-.56a1.6 1.6 0 0 0-.55-.36Zm2.02-2.03c-.2.09-.4.2-.56.37a1.6 1.6 0 0 0-.36.55 1.6 1.6 0 0 0 .92.92 1.6 1.6 0 0 0 .92-.92c-.1-.2-.2-.39-.37-.55a1.6 1.6 0 0 0-.55-.37Zm2.01-2.02a1.6 1.6 0 0 0-.91.92c.08.2.2.4.36.56.16.16.35.28.55.37.2-.09.4-.21.56-.36.16-.17.28-.36.36-.56-.09-.2-.2-.4-.36-.56a1.5 1.5 0 0 0-.56-.37Zm-12.1 8.09a1.6 1.6 0 0 0-.91.92 1.6 1.6 0 0 0 .92.92 1.6 1.6 0 0 0 .91-.92 1.6 1.6 0 0 0-.91-.92ZM36 37.19a1.6 1.6 0 0 0-.91.92 1.6 1.6 0 0 0 .91.92c.2-.08.4-.2.56-.36.16-.16.28-.36.37-.56-.09-.2-.2-.39-.37-.55a1.6 1.6 0 0 0-.56-.37Zm-12.1 0c-.2.09-.39.2-.55.37a1.6 1.6 0 0 0-.36.55 1.6 1.6 0 0 0 .92.92 1.6 1.6 0 0 0 .92-.92c-.1-.2-.2-.39-.38-.55a1.56 1.56 0 0 0-.54-.37Zm-2.02 2.03a1.6 1.6 0 0 0-.92.92 1.6 1.6 0 0 0 .92.92c.2-.09.4-.2.55-.37.17-.16.3-.35.37-.55-.09-.2-.2-.4-.37-.56a1.6 1.6 0 0 0-.55-.36Zm10.09-2.03c-.2.09-.4.2-.55.37a1.6 1.6 0 0 0-.37.55 1.6 1.6 0 0 0 .92.92 1.6 1.6 0 0 0 .92-.92 1.6 1.6 0 0 0-.92-.92Zm-6.05 2.03a1.6 1.6 0 0 0-.92.92c.09.2.2.39.37.55.16.17.35.29.55.37a1.6 1.6 0 0 0 .92-.92c-.09-.2-.2-.4-.36-.56a1.69 1.69 0 0 0-.56-.36Zm4.03 0a1.6 1.6 0 0 0-.91.92 1.6 1.6 0 0 0 .91.92c.2-.09.4-.2.56-.37.16-.16.28-.35.36-.55-.08-.2-.2-.4-.36-.56a1.69 1.69 0 0 0-.56-.36Zm-2.01 2.02a1.6 1.6 0 0 0-.92.92 1.6 1.6 0 0 0 .92.92c.2-.09.39-.2.55-.37.16-.17.29-.36.37-.56a1.6 1.6 0 0 0-.92-.91Zm-4.03.13c-.18.07-.34.18-.48.32-.14.14-.25.3-.32.47.07.17.17.33.32.48.13.14.3.25.47.31.17-.06.33-.18.46-.31.15-.15.25-.3.32-.48a1.4 1.4 0 0 0-.77-.79Zm10.08-2.03c-.18.07-.34.17-.47.32-.15.14-.25.3-.32.48.07.17.17.33.32.47.14.14.3.25.48.31.17-.06.33-.17.47-.31.15-.15.24-.3.32-.47a1.4 1.4 0 0 0-.32-.48 1.93 1.93 0 0 0-.48-.32Zm-2.02 2.03c-.17.07-.33.18-.48.32-.14.14-.25.3-.31.48.06.17.17.33.31.47.15.14.3.25.47.31a1.4 1.4 0 0 0 .8-.8 1.4 1.4 0 0 0-.79-.78Zm-4.03 4.05a1.45 1.45 0 0 0-.78.79 1.45 1.45 0 0 0 .78.8 1.5 1.5 0 0 0 .8-.79 1.27 1.27 0 0 0-.32-.48 1.3 1.3 0 0 0-.48-.32Zm2.01-2.02c-.17.06-.33.17-.47.31-.15.15-.25.3-.32.48.07.17.17.34.32.47.14.14.3.25.46.32.18-.07.34-.18.48-.32.15-.14.24-.3.32-.47a1.27 1.27 0 0 0-.32-.47c-.13-.15-.3-.26-.47-.32Zm-4.03 0a1.39 1.39 0 0 0-.8.8c.08.16.18.33.32.46.15.14.3.25.48.32.17-.07.34-.18.47-.32.14-.14.25-.3.32-.47a1.4 1.4 0 0 0-.32-.48c-.13-.14-.3-.25-.47-.31Z" fill="#1161A8"/></svg>