<!-- by TradingView --><svg width="56" height="56" viewBox="0 0 56 56" xmlns="http://www.w3.org/2000/svg"><path fill="#252525" d="M0 0h56v56H0z"/><path fill-rule="evenodd" d="M45 28a17 17 0 1 1-34 0 17 17 0 0 1 34 0ZM34.45 41.55A14.94 14.94 0 0 1 25 42.7v-9.76l9.45 8.6Zm2.02-1.17L27.1 32h3.75c3.4 0 6.15-3.28 6.15-6.74A6.2 6.2 0 0 0 30.85 19H23v9.33l-1.66-1.48-.47-.43c-.7-.68-1.5-1.42-2.87-1.42-2.1 0-3 1.05-3 3s1.73 3 3.65 3h4.22l.13.12v11.03a15 15 0 1 1 13.47-1.77ZM30.85 21H25v9h5.85c2.3 0 4.15-2.01 4.15-4.5S33.14 21 30.85 21Zm-10.2 8-1.74-1.66a1.8 1.8 0 0 0-.94-.34c-.49 0-.97.31-.97 1.03s.58.97 1.19.97h2.46Z" fill="#B7894B"/></svg>