<!-- by TradingView --><svg xmlns="http://www.w3.org/2000/svg" width="56" height="56" viewBox="0 0 56 56"><path fill="#E5C1DA" d="M0 0h56v56H0z"/><path fill-rule="evenodd" d="M40 12H16v32h24V12zm-23 8v-7h21.3l-7.03 7H17zm14.83.85L39 13.7V35H17.7l14.13-14.15zM28.5 36H39v7H28.5v-7zm-1 0v7H17v-7h10.5zM17 21v13.3L30.27 21H17zm7-6v1.26h1.38c.58 0 .76-.43.76-.66 0-.23-.19-.6-.73-.6H24zm1.42-1c1.07 0 1.71.7 1.71 1.6 0 .69-.46 1.42-1.15 1.6l1.3 1.8h-1.24l-1.22-1.76H24V19h-1v-5h2.42zM33 31v-4h-2v-1h5v1h-2v4h-1zm-12 8.27v-1.26h1.41c.54 0 .73.37.73.6 0 .23-.18.66-.76.66H21zm3.13-.66c0-.9-.64-1.6-1.7-1.6H20v5h1v-1.75h.82L23.04 42h1.24l-1.3-1.8c.7-.17 1.15-.9 1.15-1.6z" fill="#fff"/></svg>