<!-- by TradingView --><svg width="56" height="56" viewBox="0 0 56 56" xmlns="http://www.w3.org/2000/svg"><path fill="#F0F3FA" d="M0 0h56v56H0z"/><path fill-rule="evenodd" d="m13 37 15-26 15 26H13Zm8.08-9.7L28 15.26l3.36 5.85L24 26.04v2.75l-2.92-1.49Zm-1.06 1.85L16.66 35H30v-2.56l-2.04 1.06-7.95-4.35ZM32 35h7.34L32.4 22.92l-2.47 1.6L32 26.04V35Zm-1.99-7.84v2.96l-1.98 1.02L26 29.96v-2.8l2-1.39 2.01 1.39Z"/><path d="M21 39h6v1h-5v.5h5v1h-5v.5h5v1h-6v-4Zm10.5 1H29v-1h6v1h-2.5v3h-1v-3Zm5.5-1h6v4h-6v-4Zm1.05 1v2H42v-2h-3.95ZM19 39h-6v4.07h1V42h3.08l.69 1h1.19l-.68-1H19v-3Zm-1 2h-4v-1h4v1Z"/></svg>