<!-- by TradingView --><svg xmlns="http://www.w3.org/2000/svg" width="56" height="56" viewBox="0 0 56 56"><path fill="#F0F3FA" d="M0 0h56v56H0z"/><path d="M26 28v1h-9c.1 1.96 1.68 3 3.57 3 1.67 0 2.46-.55 2.97-1.46h2.23c-.75 1.8-2.1 3.46-5.27 3.46-3.68 0-5.5-2.69-5.5-6s2.03-6 5.5-6 5.5 2.69 5.5 6zm-2-1c0-2.14-1.87-3.03-3.5-3-1.63.03-3.5.86-3.5 3h7zM5 22h5.81c1.23 0 3.19.78 3.19 3.28 0 1.75-.81 2.34-1.69 2.72.6.13.88.41 1.16.75.53.64.53 1.8.53 2.71 0 .77 0 1.73.23 2.12.17.27.37.42.37.42h-2.16s-.44-.28-.44-1.12v-.23-.44c0-.98-.1-1.94-.44-2.43-.48-.67-1.35-.78-1.92-.78H7v5H5V22zm4.65 5c1.15 0 2.35-.27 2.35-1.53C12 24.22 10.9 24 9.65 24H7v3h2.65zm23.02 7c3.68 0 5.33-2.63 5.33-5.56V27h-6v2h4c0 1.96-1.55 3-3.4 3a3.6 3.6 0 0 1-3.6-3.75C29 25.5 30.63 24 32.6 24c1.62 0 2.94.69 3.4 2h2c-.62-2.4-2.73-4-5.4-4-3.47 0-5.6 2.69-5.6 6s2.25 6 5.67 6zM39 22h2v12h-2V22zm12 4.05h-2c0-1.33-1.16-2.02-2.5-2.02-1.38 0-2.5.38-2.5 1.25 0 .95 1.4 1.25 2.67 1.53l.45.1c.98.22 2.16.56 3.03 1.37.55.5.85 1.42.85 2.16 0 .83-.27 1.7-1.05 2.44-.88.84-2.26 1.11-3.43 1.12-1.97.01-4.52-1.12-4.52-3.25V30h2c0 1.5 1.22 2 2.5 2 1.13 0 2.5-.25 2.5-1.56 0-1.1-1.2-1.36-2.3-1.59l-.18-.04c-.51-.1-1.66-.4-2.52-.75-.9-.36-2-1.15-2-2.62 0-2.72 2.6-3.44 4.52-3.44 2.74 0 4.48 1.78 4.48 4.05z" fill="#0091B2"/></svg>