<!-- by TradingView --><svg width="56" height="56" viewBox="0 0 56 56" xmlns="http://www.w3.org/2000/svg"><path fill="#F0F3FA" d="M0 0h56v56H0z"/><path d="M11.93 24.01C14.1 20.93 20.63 15 30.85 15c8.78 0 14.83 5.18 15.86 7.78l-.31.1c-1.48-2.34-6.65-7-15.55-7-2.26 0-4 .36-4.58.55 4.06-.54 13.4.27 18.36 7.83l-.4.1c-1.87-2.4-7.6-7.21-15.55-7.21-6.06 0-11.3 2.92-13.17 4.38a27.06 27.06 0 0 1 10.76-2.34c4.55 0 8.15 1.53 10.54 3.7 0-.06.01-.13.04-.2.13-.38.7-.53 1.25-.33.56.2 1.78.66 1.96 1.4-.75.46-1.8.2-2.38 0 .34.38.64.77.91 1.18.37-.06.82.2 1.1.68.35.57 1.1 1.87.74 2.68-1.03-.14-1.8-1.2-2.14-1.78-.35-.58-.32-1.24.07-1.5-.55-.6-1.39-1.35-2.46-2.1.25.54.45 1.2.22 1.65-.91-.14-1.57-1.08-1.87-1.58-.23-.4-.25-.84-.08-1.11-2.1-1.12-4.79-2-7.9-2-4.38 0-8.56 1.5-10.1 2.25.62-.2 2.4-.6 4.53-.6 2.65 0 5.55 1.67 7.46 3.63l-.23.1c-1.2-1.05-4.39-3.13-7.6-3.13-3.2 0-6.82 2.08-8.23 3.13L11.93 24Z" fill="#BE4501"/><path fill-rule="evenodd" d="M27.41 24a8.21 8.21 0 0 0-1.43-1h3.64c.68.11 2.03.75 2.03 2.45 0 1.7-1.75 2.55-2.63 2.77.43.11 1.34.74 1.3 2.32-.09 2.5-3.15 3.46-5.78 3.46-.68 0-1.76-.16-2.21-.24l2.96-9.33c.69.28 1.23.63 1.58.9L25.96 28h1.63c.76-.14 2.25-.8 2.27-2.4 0-1.18-.9-1.56-1.36-1.6h-1.09Zm-3.07 9 1.26-4h1.35c.52.04 1.57.42 1.57 1.6-.03 1.6-1.74 2.26-2.6 2.4h-1.58Zm8.86-2.55L32.22 34h-1.66l2.36-8h1.51l-.68 2.47c1.26-2.15 2.7-2.54 3.27-2.46l-.41 1.56c-1.46.06-2.73 1.63-3.4 2.88ZM5.11 34l1.14-4.12c.55-1.17 1.52-2.62 2.7-2.73L9.3 26c-.45-.04-1.53.3-2.48 1.87L7.32 26h-.96C5.55 28.62 4 33.88 4 34h1.11Zm3.32 0c0-.12 1.55-5.38 2.37-8h.96l-2.21 8H8.43Zm8.53-6.81.48-.87a1.9 1.9 0 0 0-1.07-.32c-.62 0-3.95.57-4.71 5.86-.09.72.18 2.14 1.93 2.14.66 0 1.5-.25 1.85-.37v-1.1c-.23.18-.82.53-1.32.53-.64 0-1.36-.31-1.36-1.45 0-1.13 1.12-4.66 3.37-4.66.34 0 .7.16.83.24Zm1.11 3.37c1.52 0 4.56-.56 4.56-2.88-.02-.54-.4-1.68-1.63-1.68-1.85 0-4.12 2.64-4.12 5.99 0 2.68 2.6 2.11 3.9 1.5v-1c-.25.2-.94.63-1.63.63-.86 0-1.63-.72-1.08-2.56Zm.41-1.22c.37-.8 1.33-2.4 2.26-2.4 1.16 0 1.46 2.66-2.26 2.4Zm19.67-1.87 1.2 1.13c-1.55 1.52-2 3.96-.4 3.96 1.87 0 3-3.44 3.33-5.16a3.5 3.5 0 0 0-1.3.18l-.21-1.46a7.07 7.07 0 0 1 3.8.35c-.72 1.92-2.16 6.33-2.16 7.53h-1.6l.28-1.97A3.69 3.69 0 0 1 37.95 34c-1.71 0-2.06-1.54-2.01-2.31a7.66 7.66 0 0 1 2.21-4.22Zm8.1-1.47-2.37 8h1.66l1.2-4.32c.64-1.03 1.65-2.32 2.47-2.32 1.03 0 1 1.32.86 1.98L48.53 34h1.87c.33-1.06 1.06-3.4 1.32-4.34.33-1.17.77-3.66-1.32-3.66-1.22 0-2.35.84-3.1 1.6l.45-1.6h-1.5Z" fill="#6C722C"/></svg>