<!-- by TradingView --><svg width="56" height="56" viewBox="0 0 56 56" xmlns="http://www.w3.org/2000/svg"><path fill="#F0F3FA" d="M0 0h56v56H0z"/><path d="M52 25.45c0-.78-.92-1.29-1.38-1.45-3.27 2.8-10.92 8.7-12.12 10C50.63 28.94 52 26.41 52 25.45Z" fill="#070946"/><path d="M35.73 21c-3.31 0-12.53.46-16.73.68 19.35-.56 25.37 1.69 25.37 4.68 0 4.35-11.44 9.59-15.03 11.64C40.96 33.45 51 28.16 51 24.74 51 21.3 39.87 21 35.73 21Z" fill="url(#aluw51et0)"/><path d="M6.09 28.44 8 31H6.86L5.1 28.54H5V31H4v-6h1.1c1.13 0 2.36.42 2.36 1.76a1.7 1.7 0 0 1-1.37 1.68ZM5 27.76h.23c.88 0 1.32-.33 1.32-.99 0-.61-.43-.77-1.29-.77H5v1.76ZM12.33 29.63H9.7L9 31H8l3.05-6L14 31h-1.02l-.65-1.37Zm-.38-.8-.91-1.92-.96 1.92h1.87ZM15 31v-6h1.36c1.84 0 3.64.88 3.64 3 0 2.11-1.83 3-3.66 3H15Zm1-1h.42c1.3 0 2.58-.5 2.58-2 0-1.48-1.25-2-2.58-2H16v4ZM22 25v6h-1v-6h1ZM27.33 29.73h-2.58L24 31h-1l3.05-6L29 31h-1.02l-.65-1.27ZM27 29l-1-2-1 2h2ZM30 31v-6l4 3.77V25h1v6l-4-3.7V31h-1ZM39 26v5h-1v-5h-2v-1h5v1h-2Z" fill="#AF0B3A"/><defs><linearGradient id="aluw51et0" x1="49.72" y1="22.87" x2="27.02" y2="37.51" gradientUnits="userSpaceOnUse"><stop stop-color="#B4C1E3"/><stop offset=".4" stop-color="#13527D"/></linearGradient></defs></svg>