<!-- by TradingView --><svg width="56" height="56" viewBox="0 0 56 56" xmlns="http://www.w3.org/2000/svg"><path fill-rule="evenodd" d="M7 24H5v10h3v-3h1.5c1.2 0 1.5.83 1.5 1.5V34h3v-2.5c0-1.2-1-1.83-1.5-2 .5-.17 1.5-1 1.5-3S11.33 24 10 24H7Zm1 2v3h1.5c1 0 1.5-.7 1.5-1.5 0-1-.5-1.5-1.5-1.5H8Z" fill="#B2B9C1"/><path d="M19 34h-3V24h4.5l2 6 2-6H29v10h-3v-6.5L24 34h-3l-2-6.5V34ZM41 34h-2v-1c-.4.8-2.17 1-3 1-4.5 0-5-3-5-5s1-5 5-5c3.2 0 4.67 2 5 3h-3c-.33-.33-1.2-1-2-1-1 0-2 1-2 3s.5 3 2 3c1.2 0 1.83-.67 2-1h-2v-3h5v6Z" fill="#B2B9C1"/><path fill-rule="evenodd" d="M47 22c-1.84 0-5 .83-5 2.5 0 1.82 4 2.5 5 2.5 1.5 0 5-.5 5-2.5S48.46 22 47 22Zm2.02.83-.29.12c-.1-.12-.21-.24-.32-.34.22.03.42.12.61.22Zm1.37 2.95c.63-.33.96-.7 1.07-1.03h-.58c-.05.4-.24.74-.49 1.03Zm-.02-1.53h-1.02a2.28 2.28 0 0 0-.32-.88c.19-.07.36-.16.5-.24.45.3.76.68.84 1.12Zm.51 0c-.05-.4-.24-.74-.49-1.03.63.33.96.7 1.07 1.03h-.58Zm-.5.5c-.1.47-.44.86-.93 1.18a4.5 4.5 0 0 0-.47-.23c.18-.29.32-.6.36-.95h1.03Zm-1.46 1.47a4.31 4.31 0 0 0-.26-.11l-.28.29c.2-.03.36-.1.54-.18Zm-5.04-3.13c-.32.32-.55.7-.61 1.16h-.73c.2-.58.82-.93 1.34-1.16Zm-1.34 1.66h.73c.06.46.3.84.6 1.16-.51-.23-1.14-.58-1.33-1.16Zm1.23 0c.08.42.36.77.76 1.06.16-.08.34-.15.54-.22a2.27 2.27 0 0 1-.3-.84h-1Zm1.28 1.38c.2.1.45.25.69.29a4.16 4.16 0 0 1-.37-.4c-.12.03-.22.07-.32.11Zm0-3.26.31.11.38-.4c-.23.04-.48.18-.69.29Zm.02.54c-.2-.07-.37-.15-.53-.23-.4.3-.69.65-.77 1.07h1c.04-.3.15-.58.3-.84Zm3.77 1.34c-.05.27-.18.53-.35.77a5.5 5.5 0 0 0-1.24-.22v-.55h1.59Zm-.3-1.21c.15.22.26.46.3.71h-1.59v-.5c.48-.03.92-.1 1.3-.21Zm-.34-.43c-.28.07-.6.12-.95.13v-.74l.25.01c.25.18.5.38.7.6Zm-.07 2.83c-.21.22-.45.4-.66.55h-.22v-.68c.32.02.62.07.88.13Zm-1.5-3.43h.12v.73c-.3-.01-.6-.05-.85-.1.23-.25.5-.47.74-.63Zm-1.07 1.06a1.9 1.9 0 0 0-.29.68h1.48v-.5a5.58 5.58 0 0 1-1.2-.18Zm-.29 1.18c.05.24.15.47.3.7.35-.09.74-.15 1.18-.16v-.54h-1.48Zm1.37 1.74h.11v-.7c-.3.01-.58.04-.84.1.22.22.46.42.73.6Z" fill="#B2B9C1"/></svg>