<!-- by TradingView --><svg xmlns="http://www.w3.org/2000/svg" width="56" height="56" viewBox="0 0 56 56"><path fill="#175D3B" d="M0 0h56v56H0z"/><path fill-rule="evenodd" d="M34.63 12h-13.5L12 21.14v13.65L21.14 44h13.5L44 34.79V21.13L34.63 12ZM12.7 21.43l8.3-8.3v4.72l-5 5v7.67l-3.3 3.36V21.43ZM25.67 16l-3.44-3.3h12.12l8.5 8.3H38.1l-5.13-5h-7.3ZM40 25.43l3.3-3.28V34.5L34.67 43v-4.66L40 33.1v-7.66ZM30.29 40l3.22 3.3H21.43L13.2 35h4.7l4.95 5h7.44Zm-7.84-1.4L18.88 35h3.57v3.6Zm7.15.7h-5.96l3.24-2.79 2.72 2.79Zm3.64 2.72L31.26 40h1.1l.88 2.02Zm-2.66-2.72h1.49L28.04 30a1.94 1.94 0 0 1-.62-.08l-1.53 4.63 1.26 1.24 3.43 3.5Zm-3.79-9.7-1.55 4.7h-7.05l-1.2-1.21 9.34-3.99c.13.2.28.36.46.5Zm-.46-2.7-4.63-1.57v-7.19l1.2-1.2 3.94 9.43c-.2.14-.38.32-.51.53Zm1.15-.83-3.92-9.37h1.83l3.43 3.3 1.57 1.44-2.14 4.58a2.02 2.02 0 0 0-.77.05Zm1.26 3.79 4.05 9.34 1.18-1.16v-7.22l-4.45-1.52a2 2 0 0 1-.78.56Zm.99-2.87c-.2-.32-.47-.59-.8-.76l2.1-4.52h6.8l1.25 1.23-9.35 4.05Zm.15 1.7a2 2 0 0 0 .09-1.04l9.33-4.04v1.53l-3.72 3.7-1.35 1.33-4.35-1.48Zm-3.83-1.14a2 2 0 0 0 0 .91l-9.35 4V30.8l3.4-3.46 1.35-1.37 4.6 1.57Zm7.92 14.38-.89-2.04.89-.87v2.9Zm4.88-8.69-4.18 4.1v-4.1h4.18Zm.45-7.11v6.2l-3-3.23 3-2.97Zm2.74-3.71L40 24.45V23.3l2.04-.88Zm-.13-.71-2.13.93-.95-.93h3.08Zm-8.7-4.5L37.1 21h-3.88v-3.78Zm-6.81-.51h5.9l-3.22 2.57-2.68-2.57Zm-4.07-2.94L24.66 16h-1.4l-.93-2.24Zm-.63.33.9 2.16-.9.9v-3.06Zm-4.88 8.94L21 18.84v4.19h-4.18Zm-.12 6.78v-5.65l2.66 2.94-2.66 2.71Zm-2.77 3.83L16 31.52v1.23l-2.07.89Zm3.27.66-.9-.91-2.15.91h3.05ZM21 23.73h-3.75l2.6 2.87L21 25.44v-1.71ZM25.35 35h-2.2v3.8l3.23-2.78L25.35 35Zm9.32-4.28v1.82h3.86l-2.72-2.95-1.14 1.13ZM30.95 21h1.57v-3.58l-2.92 2.34L30.95 21Z" fill="#fff"/></svg>