<!-- by TradingView --><svg width="56" height="56" viewBox="0 0 56 56" xmlns="http://www.w3.org/2000/svg"><path fill="#F0F3FA" d="M0 0h56v56H0z"/><path d="M19 34v-.14h-.25c-.3 0-.52-.04-.67-.12-.15-.08-.3-.24-.46-.47l-3.31-4.97h-.02c.87-.2 1.53-.56 2-1.08.45-.52.68-1.2.68-2 0-1.05-.37-1.84-1.12-2.39a5.41 5.41 0 0 0-3.27-.83H8v.14l1.5.14v11.44l-1.5.14V34h4.46v-.14L11 33.72v-5.2h1.22c.3 0 .5.04.6.1.12.06.27.23.44.5l2.77 4.29c.16.23.3.39.45.47.15.08.36.12.65.12H19Zm-8-5.74v-6.05h1.53c.95 0 1.67.25 2.14.75.47.5.7 1.26.7 2.3 0 1.01-.23 1.77-.7 2.27-.46.49-1.17.73-2.14.73H11Zm16.28-5.46a5.08 5.08 0 0 0-2.78-.8c-1.01 0-1.94.27-2.8.8a5.68 5.68 0 0 0-1.98 2.18A6.4 6.4 0 0 0 19 28c0 1.1.24 2.12.72 3.04.48.91 1.15 1.63 1.99 2.16.85.53 1.78.8 2.79.8s1.94-.27 2.78-.8a5.54 5.54 0 0 0 1.99-2.16c.49-.92.73-1.93.73-3.04 0-1.1-.24-2.12-.73-3.02a5.5 5.5 0 0 0-2-2.18Zm-5.6 9.49A7.72 7.72 0 0 1 20.5 28c0-1.85.5-3.28 1.17-4.29a3.2 3.2 0 0 1 2.83-1.51c1.22 0 2.17.5 2.83 1.51.66 1.01 1.17 2.44 1.17 4.29s-.5 3.28-1.17 4.29a3.2 3.2 0 0 1-2.83 1.5 3.2 3.2 0 0 1-2.83-1.5ZM34.93 34c.7 0 1.34-.14 1.9-.43.56-.29 1-.68 1.32-1.18a3.2 3.2 0 0 0 .47-1.73c0-.58-.13-1.06-.39-1.45-.25-.4-.58-.73-1-1-.4-.26-.95-.54-1.63-.84-.76-.35-1.35-.64-1.77-.88-.4-.25-.73-.53-.97-.87a2.13 2.13 0 0 1-.34-1.23c0-.67.21-1.2.63-1.6.42-.4.98-.59 1.68-.59 1.17 0 2.04.57 2.6 1.71.29.57.52 1.22.7 1.96l.17-.05-.17-3.62h-.22l-.4.8c-.47-.36-.9-.61-1.32-.77a3.85 3.85 0 0 0-3.1.18 3.03 3.03 0 0 0-1.68 2.76c0 .6.14 1.11.41 1.53.29.41.64.75 1.06 1.02.42.25.94.51 1.56.78.76.32 1.35.6 1.77.85.42.24.75.53.99.88.25.34.37.76.37 1.26 0 .71-.23 1.27-.7 1.7-.45.4-1.09.61-1.9.61-.95 0-1.72-.32-2.3-.95a3.9 3.9 0 0 1-.7-1.1c-.16-.41-.33-1-.5-1.76l-.16.04.22 3.97h.23l.35-.91a4.86 4.86 0 0 0 2.82.91Zm11.33-.43c-.53.29-1.13.43-1.8.43a4.47 4.47 0 0 1-2.7-.91l-.35.91h-.2L41 30.03l.15-.04c.16.76.32 1.35.48 1.77.18.42.4.78.67 1.1.56.62 1.29.94 2.2.94.78 0 1.39-.2 1.82-.61.45-.43.67-.99.67-1.7 0-.5-.12-.92-.36-1.26a2.94 2.94 0 0 0-.94-.88c-.4-.25-.97-.53-1.7-.85-.6-.27-1.1-.53-1.5-.78a2.85 2.85 0 0 1-1.4-2.54 3.02 3.02 0 0 1 1.61-2.76 3.56 3.56 0 0 1 2.97-.19c.4.16.81.41 1.26.77l.39-.8h.2l.17 3.62-.16.05c-.18-.74-.4-1.4-.67-1.96-.54-1.14-1.37-1.71-2.49-1.71-.67 0-1.21.2-1.61.6-.4.39-.6.92-.6 1.6 0 .48.1.9.32 1.22.23.34.54.62.93.87.4.24.97.54 1.7.88a11 11 0 0 1 1.56.85c.4.26.72.6.96 1 .25.38.37.86.37 1.44a3.22 3.22 0 0 1-1.73 2.9Z"/></svg>