<!-- by TradingView --><svg width="56" height="56" viewBox="0 0 56 56" xmlns="http://www.w3.org/2000/svg"><path fill="#F0F3FA" d="M0 0h56v56H0z"/><path d="m19.07 27.18 2.78.44c-.55-1.71-1.93-1.89-3.37-2.15l1.2-.7-1.52-.95 1-.44L18 21.92l1.59.6.33-1.96 2.23 3.5.56-.9-.98-1.32.07-.1 1.74.94c-.16-.97-.47-1.74-1.36-2.17-.37-.19-.72-.42-1.03-.7-.59-.47-.64-.94-.18-1.6l.83.14-.57-1.44.2-.22 3.64 1.76c-.09-1.11-1.16-1.37-1.67-2.09l1.24-.43-.84-1.2-.03-.02 1.66.5-.5-2.31.08-.04 1.32 2.1.31-1.1-1.16-1.72.1-.15.8.15-.4-1.28 1.1.53.52-2.38.29-.01.37 2.4 1.03.1-.56.97c1.2.88 1.06 2.25 1.18 3.6l.71.5 2.28-1.43-.18.82 1.88-1.26-.88 1.7 1.31.39-.81.74.47.6-1.2.66 1.3.58a4.86 4.86 0 0 0-1.84 2.27c-.24.54-.95.89-1.62 1.48.69-.01 1.38-.1 2.05-.27.6-.32 1.16-.7 1.68-1.14.65 1.44-.73 2.25-.88 3.49l2.68-.39.04.12-2.7 1.51c1.44.9 2.3-.18 3.33-.86l-.2 1.42 2.57-.21.1.17c-.75.48-1.48 1-2.26 1.41-.8.42-1.65.72-2.45 1.23h1.94c-.32 1.14-1.22 1.45-2.05 1.5-.81.06-1.64-.26-2.57-.43l.85 2-3.1-.64.12 1.5h-2.04c-.14.5-.23 1.02-.27 1.54.05 1.67.19 3.33.23 4.99.05 1.44.01 2.9.01 4.36l-2.27.58c1.05-4.14.86-7.86.86-12h-4.9l.8-1.5-2.66.17-.04-.1 1.22-.7.03-.2c-1.52.17-2.76-.14-3.26-1.73l.02.01.9.09-1.03-2.16-.03-.02 1.43.79.02.02h-.04l-.37-.52-.02.03Z" fill="#C00000"/></svg>