<!-- by TradingView --><svg xmlns="http://www.w3.org/2000/svg" width="56" height="56" viewBox="0 0 56 56"><path fill="#F0F3FA" d="M0 0h56v56H0z"/><path d="M23.86 17.44c-.24.1-.7-.23-.97-.42a.82.82 0 0 0-.19-.12c.39.61 1.16 1.94 1.16 2.33 0 .5-.53 2.07-.81 1.53-.2-.39-.05-.67.11-.97.06-.11.13-.23.17-.35.1-.31 0-.5-.31-1.05-.15-.25-.33-.58-.56-1.04a8.6 8.6 0 0 0-2.12-2.63c-.39-.34-.48-.86-.14-.69.14.07.33.24.55.45.36.33.82.74 1.29.94.47.2.53.36.6.58.05.13.1.28.26.47.19.22.45.4.67.56.28.2.47.33.29.4ZM43 23v-8h-4v1.68c-1.6-1.8-3.2-2.18-5.5-2.18-2.88 0-5.52 3.05-6.02 3.79l5.18 3.31c.35-.57 1.37-1.6 2.65-1.6 1.6 0 3.69 1.86 3.69 3h4Zm-19.7 4.04c-.43-.23-.69.02-.77.17-.02.28.23.32.53.38.14.02.29.05.43.1.18.07.26.14.33.2.1.09.17.15.47.12.5-.05-.47-.69-1-.97Zm-9.01 2.8c-.46-.13-.5-.5-.47-.67.16-.23.37-.08.63.1.12.08.25.17.38.23.17.08.28.09.37.1.13 0 .22 0 .42.24.34.4-.77.18-1.33 0ZM30 41h-4v-4.46c-.1-.05-.2-.13-.3-.2-.19-.17-.4-.35-.75-.4-.64-.13-.87-1.33.3-.56.66.43.73.57.73.58l.02-.03v-.89c.97.83 2.53 1.47 2.59.9.04-.47-1.02-1.09-1.56-1.33-.08-.75-.5-1.36-1.08-1.95l-.47-.47c-.67-.68-1.6-1.62-1.6-1.78 0-.08.36.17.8.48.62.45 1.4 1.02 1.5.83.15-.25-.62-.84-1.42-1.45l-.5-.4-.54-.4c-.25-.2-.35-.27-.34-.33 0-.03.04-.06.11-.11l.01-.01c.09-.07.14-.1.14-.14 0-.07-.1-.14-.34-.34l-.35-.26c-.6-.47-.42-.65-.25-.68.6.45 2 1.5 2.75 2.04.74.55.68.88.56.98.11.1.35.18.4-.28.03-.45.98.8 1.45 1.49 1.56 1.1 1.98 1.61 2 1.73-1.33-.75-1.74-.71-1.78-.6 1.9 2.7 4.58 4 5.54 4.04 1.6.07 3.75-2.1 2.22-3.54a4.1 4.1 0 0 0-1.94-1.04c-3.98-.86-5.63-2.1-5.96-2.62l-.18-.93A32.73 32.73 0 0 0 23.2 25l-.36-.27c-.62-.46-.62-.78-.54-.88.2.2.68.6 1.1.69.41.08.5-.32.49-.53h.36c1.1-.2.84-.92.43-1.57-.33-.53.55-1.16 1.03-1.41-.1-.6.04-1.24.13-1.49.91.78 1.24.33 1.28 0 .7.68 2.58 2.39 4.43 3.8a19.51 19.51 0 0 1 3.72 3.52l.25.3a86.4 86.4 0 0 0 3.07 3.29 7.27 7.27 0 0 0-1.93-1.09c-.78-.2 1.2 2.03 1.66 2.55.27.3.4.28.54.26.1-.01.2-.02.35.09.28.2.16.55.06.7l1.47 1.87c-2.61-2.57-7.84-7.48-7.78-6.55.06.94 6.47 6.51 9.66 9.18C41.6 39.23 39.44 42 35.67 42A7.81 7.81 0 0 1 30 39.72V41Zm13-9.77-5.92-5.6c.06.21-.23.24-1.83-1.3-.28.1-.94.09-1.4-.73-.34-.02-1.12-.16-1.45-.55-.22-.26-1.42-1.1-2.61-1.95a33.94 33.94 0 0 1-2.53-1.88 8.48 8.48 0 0 0-2.64-1.4c-.66-.23.17-.64.46-.62.3.03 1.57.9 2.29 1.54s6.09 4.32 7.44 4.86c.3.12.68.25 1.1.4 1.49.5 3.52 1.2 4.6 2.27 1.37 1.38 2.49 2.85 2.49 4.96ZM23.81 21.3c-.29.5-1.08 1.53-1.94 1.5l-.57-.06c-.81-.1-1.54-.2-2.82 1.08-.59.16-1.85.46-2.24.33a.76.76 0 0 1-.34-.2c-.1-.08-.14-.13-.51 0-.6.2-.63.2-.88.1-.1-.03-.12 0-.16.07-.06.1-.15.25-.7.03-.86-.33-1.93-.93-2.44-1.22-.51-.3-.54.26-.27.42l.01.01c.27.16.87.52 1.72.8.38.12.57.28.74.42.21.17.4.33.88.37.47.05.74-.13.94-.27.17-.12.3-.2.46-.05.13.13.19.26.23.35.08.16.11.23.32.08l.08-.07c.4-.3 1.27-.96 1.78-.52a7.23 7.23 0 0 1 1.47 1.65c.13.33.27.8 0 1.16v.02c-.27.36-.56.75-1.17.67-.62-.09-.53.44.32.43.85 0 1.38-.71 1.4-1.56.03-.77-.04-.9-.31-1.4a37.8 37.8 0 0 1-.07-.14c-.18-.33-.52-.53-.79-.68-.23-.14-.41-.25-.38-.38.06-.3 1.09-1.02 1.56-1.02.14 0 .33.02.55.05.52.08 1.22.18 1.83 0 .87-.23 1.5-1.58 1.3-1.97Zm-.7 9.12c.4.61 1.9 2.2 2.72 3.07l.54.59a23.31 23.31 0 0 1-3-2.65c-.51-.66-.92-.8-1.35-.94a4.08 4.08 0 0 1-.51-.2c-.65-.32-1.33-1.73-1.06-1.42.22.25 1.49 1.01 1.97 1.3l.16.1c-.2-.15-1.7-1.37-1.54-1.56.05-.06.12-.2.19-.37.17-.39.39-.9.64-.75.3.17-.12.77-.36 1.05.08.12.25.29.46.5.34.32.79.76 1.14 1.28ZM5.25 33.34c-.07-.03-.23-.15-.25-.46-.02-.38.35-.44.43-.22.08.22.07.52-.18.68Zm13.7 1.18c.2.2.4.18.47.14.07-.3-.1-.53-.3-.63-.2-.1-.43.23-.17.49Zm2.34 1.08c-.07.03-.3.02-.58-.27-.36-.37-.15-.71.1-.55.26.17.52.47.48.82ZM5.46 34.33c.07.18.19.24.24.27a.1.1 0 0 1 .02.01c.1 0 .31-.12.5-.39.14-.19.22-.17.36-.15.07.01.15.03.25.03.32 0 .39-.65.27-.73-.13-.07-.46-.05-.6.17a.95.95 0 0 1-.68.39c-.24 0-.45.17-.36.4Zm1.73-2.04c-.03.19-.02.62.33.85.43.29.82.24.88.12.05-.12-.1-.5-.49-.53-.17-.01-.22-.13-.27-.24-.06-.15-.13-.29-.45-.2Zm9.8 1.32c-.3-.21-.31-.6-.28-.78.28-.08.34.05.4.18.04.1.08.21.24.22.35.02.47.38.42.48-.04.11-.4.16-.77-.1Zm5.71 2.77a1 1 0 0 0 .45-.96c-.1-.63-.44-.96-.57-.92-.14.04-.35.47-.07.86.13.18.07.31.02.45-.07.17-.14.34.17.57ZM8.84 32.81c-.18-.2-.13-.35-.09-.4.16-.11.3-.02.5.1.09.06.2.13.32.18.36.14.04.44-.17.55-.16.07-.26-.06-.4-.23-.04-.07-.1-.14-.16-.2Zm4.22-.37c-.04.07-.1.29.09.59l.16.3c.13.26.24.45.4.34.2-.15.53-.6.17-.82-.13-.07-.23-.17-.33-.27-.18-.17-.33-.31-.49-.14Zm-4.05-1.32c-1.01-.43-1.24-.77-1.23-.88.37-.3 1.16.19 1.74.55.32.2.58.36.67.33a.92.92 0 0 0 .23-.12c.16-.1.35-.24.82-.3.69-.08-.26.88-.7 1.16-.22.15-.28.1-.46-.07-.17-.16-.45-.4-1.07-.67Zm2.33-1.54c.01.13.23.9.64 1.1.4.2.5-.43.07-.68l-.7-.42Zm1.57.46c-.41-.2-.63-.97-.64-1.1l.71.42c.44.25.34.88-.07.68Zm3.05-1.02c.06.24.27.73.7.76.25.02.41-.08.54-.17.14-.1.25-.16.43-.05l.22.15c.25.18.47.33.59.22.14-.15-.83-1.35-1.38-1.28-.43.06-.91.27-1.1.37Zm6.3 2.7c.07-.4-1.4-1.12-1.44-1.1-.18.14-.01.28.23.49.13.11.28.25.41.4.38.47.74.63.8.22Zm-.18 1.09c.04-.03 1.3.65 1.24 1.04-.06.4-.36.24-.69-.2a3.25 3.25 0 0 0-.35-.38c-.21-.2-.35-.34-.2-.46Zm-2-2.81c-.13-.14-.43 0-.54.06 0 .07.02.24.1.37.07.1.16.07.27.02.06-.02.14-.05.22-.06.22-.03.08-.25-.05-.4Zm-5.68-7.57c.1-.06.41-.2.54-.06.13.14.27.36.04.39-.08 0-.15.04-.21.06-.12.05-.2.08-.27-.02a.78.78 0 0 1-.1-.37Zm1.73-1.07c-.13-.14-.43 0-.54.06 0 .07.02.23.1.37.07.1.16.07.27.02.06-.03.14-.05.22-.06.22-.03.08-.25-.05-.4Zm-.02-5.1c.11-.07.41-.2.54-.07.13.14.27.37.05.4a.8.8 0 0 0-.22.06c-.12.04-.2.08-.27-.03a.78.78 0 0 1-.1-.36Zm2.18-1.14c-.13-.14-.43 0-.54.07 0 .07.02.23.1.36.07.1.15.07.27.03.06-.03.13-.06.21-.06.23-.03.09-.25-.04-.4Zm1.75 9.57c.11-.06.41-.2.54-.06.13.14.27.37.04.4a.8.8 0 0 0-.21.05c-.12.05-.2.08-.27-.02a.78.78 0 0 1-.1-.37Zm1.3 8.52c-.13-.14-.43 0-.54.06 0 .07.02.23.1.37.07.1.16.07.27.02.06-.03.14-.05.22-.06.22-.03.08-.25-.05-.4Zm2.33 1.84c.1-.06.41-.2.54-.06.13.14.27.36.04.39a.8.8 0 0 0-.21.06c-.12.05-.2.08-.27-.02a.78.78 0 0 1-.1-.37Z"/></svg>