<!-- by TradingView --><svg xmlns="http://www.w3.org/2000/svg" width="56" height="56"><path fill="url(#a5iuyw3q3)" d="M0 0h56v56H0z"/><ellipse cx="28" cy="44" rx="10" ry="1" fill="#205906"/><path d="M17.03 30.7c1.46 9.68 11.27 9.08 15.92 7.35a11.6 11.6 0 01-11.86-3.09c-1.11-1.1-1.52-4.55-.7-7.68.65-2.5 3.54-4.43 4.9-5.09 2.48-.57 7.88-1.28 9.64.46a23.07 23.07 0 013.79 5.4c.78-3.49-.32-6.6-.3-6.35.03.25-.86 1.95-1.47 1.78-.49-.13-.35-.91-.22-1.29.65-2.61-.64-4.38-1.36-4.94.1.2.27.8.22 1.58-.05.97-2.03 3-1.64 0 .4-3-2.06-5.56-4.5-6.5a5.95 5.95 0 01-3.23-2.73c-.12.77.34 1.39.58 1.6 2.1 2.46 1.06 5.94-.58 6.66-1.64.73-1.35-1.3-1.35-1.54s.25-.9-1.22-1.3c-1.17-.34-1.8-1.93-1.96-2.69-1.93 2.48-.17 5.37.96 6.5.45.47 1.23 1.55.68 2.13-.55.58-1.17-.08-1.4-.48-.65-1.47-1.84-1.84-2.36-1.84.56.37 1.21 1.8-.62 4.6a12.8 12.8 0 00-1.92 7.46z" fill="#5AC315"/><path d="M18.53 30.85c1 7.83 9.94 8.49 14.1 7.38-11.26 1.2-12.06-6.04-12.06-8.25 0-2.22 1.78-7.76 9.16-7.84 5.64-.06 8.2 4.76 8.79 7.17.13-.37.13-1.35.27-2.77.13-1.43-.83-2.27-1.28-2.27-.44 0-1.79-.38-1.43-1.47.28-.88.27-1.86.23-2.24-.42.8-1.81 1.2-2.78 1.03-.77-.14-.7-1-.57-1.42.38-.72.38-1.69.33-2.08-.1-2.53-2.31-4.35-3.42-4.94.36.57.73 2.1-.63 3.73-1.7 2.03-3.4 2.14-4.3 1.7-.71-.35-.8.32-.77.7v1.78c-.45 1.46-1.4 1.07-1.82.7-.65-.7-1.22-.92-1.42-.94.54 1.75-.01 3.03-.36 3.45-2.02 2.76-2.22 5.17-2.04 6.58zm4.97-13.61c-1.13-.13-1.65-1.82-1.76-2.72.24.55 1.4 1.03 2.09 1.26.84 1 .2 1.53-.32 1.46z" fill="#A8FF02"/><path d="M24.35 12.94c1.44 1.14 1.62 2.37 1.53 2.84 1.4-.72.8-3.23-.35-4.49-.91-1-.52-2.61-.22-3.29-1.97 1.21-2.76 3.5-.96 4.94z" fill="#5AC315"/><path d="M24 10.7c-.07.6.84 1.34 1.31 1.63a3.77 3.77 0 00-.48-1.3 1.8 1.8 0 01-.3-1.02c-.15-.01-.46.1-.53.7z" fill="#A8FF02"/><ellipse cx="27" cy="28.3" rx="2" ry="3.7" fill="#fff"/><ellipse cx="33.5" cy="28" rx="1.5" ry="3" fill="#fff"/><defs><linearGradient id="a5iuyw3q3" x1="10.42" y1="9.71" x2="68.15" y2="76.02" gradientUnits="userSpaceOnUse"><stop stop-color="#1A1E21"/><stop offset="1" stop-color="#06060A"/></linearGradient></defs></svg>