<!-- by TradingView --><svg xmlns="http://www.w3.org/2000/svg" width="56" height="56" viewBox="0 0 56 56"><path fill="#F0F3FA" d="M0 0h56v56H0z"/><path fill-rule="evenodd" d="M5.96 26.46c.45.16 1.04.37 1.04.93 0 .41-.38.61-.9.61-.68 0-1.1-.36-1.1-1H4c0 1.21.95 2 2.1 2 1 0 1.9-.54 1.9-1.62 0-.45-.14-.83-.42-1.14-.28-.3-.72-.56-1.33-.77-.67-.22-1.09-.46-1.09-.84 0-.4.38-.63.9-.63.55 0 .94.27.94.8h1c0-1.06-.86-1.8-1.92-1.8-.96 0-1.92.57-1.92 1.63 0 .6.33 1.07.92 1.43.22.13.51.26.88.4zM16.66 23h-2.17v6h1v-2.19h1.33L17.99 29h1.13v-.05l-1.36-2.46c.62-.38 1.11-.89 1.11-1.69 0-1.18-.81-1.8-2.21-1.8zm-1.17 2.86h1.19c.76 0 1.14-.37 1.14-.93 0-.63-.37-.93-1.16-.93h-1.17v1.86zM24 28v1h-4v-6h4v1h-3v1.5h2.58v1H21V28h3zm27 .17V26h-2.39v1H50v.67c-.15.15-.53.33-1.28.33-.85 0-1.72-.5-1.72-1.8v-.41c0-1.27.76-1.79 1.6-1.79.67 0 1.24.4 1.34 1H51a2.94 2.94 0 0 0-.35-1.1c-.18-.28-.45-.5-.78-.66a2.97 2.97 0 0 0-1.28-.24c-.4 0-.77.06-1.08.19-.32.12-.6.3-.82.54-.22.24-.4.54-.51.89-.12.34-.18.73-.18 1.18v.4c0 .44.06.84.2 1.19.12.34.3.64.54.88.24.24.52.42.85.55a4.08 4.08 0 0 0 2.24.04c.32-.1.56-.2.75-.33.2-.13.33-.25.42-.36zm-21 8V34h-2.39v1H29v.67c-.15.15-.53.33-1.28.33-.85 0-1.72-.5-1.72-1.8v-.41c0-1.27.76-1.79 1.6-1.79.67 0 1.24.4 1.34 1H30a2.94 2.94 0 0 0-.35-1.1c-.18-.28-.45-.5-.78-.66a2.97 2.97 0 0 0-1.28-.24c-.4 0-.77.06-1.08.19-.32.12-.6.3-.82.54-.22.24-.4.54-.51.89-.12.34-.18.73-.18 1.18v.4c0 .44.06.84.2 1.19.12.34.3.64.54.88.24.24.52.42.85.55a4.08 4.08 0 0 0 2.24.04c.32-.1.56-.2.75-.33.2-.13.33-.25.42-.36zM19 37v-1h-3v-1.5h2.58v-1H16V32h3v-1h-4v6h4zm21-1v1h-4v-6h4v1h-3v1.5h2.58v1H37V36h3zm-5 0v1h-4v-6h1v5h3zm-21.5-9c-.05.63-.27 1.1-.67 1.46-.39.36-.9.54-1.56.54-.7 0-1.26-.25-1.66-.75-.4-.5-.61-1.2-.61-2.08v-.36c0-.56.1-1.05.28-1.48.19-.43.45-.76.8-.99.35-.23.75-.34 1.21-.34.64 0 1.15.18 1.54.54.38.36.6.8.67 1.46h-1c-.06-.75-.51-1-1.21-1-.75 0-1.28.54-1.29 1.76v.44c0 1.26.5 1.8 1.27 1.8.71 0 1.17-.3 1.22-1h1zm12.96 1h2.07l.36 1h1.23l-2.1-6h-1.06l-2.08 6h1.23l.35-1zm1.81-1h-1.55l.77-2.48.78 2.48zm-4.98 9h-2.07l-.35 1h-1.22l2.07-6h1.07l2.1 6h-1.23l-.37-1zm-1.8-1h1.55l-.78-2.48-.78 2.48zM34 27.35L32.54 23H31v6h1v-4.47L33.6 29h.8l1.6-4.47V29h1v-6h-1.54L34 27.35zM39 29h-1v-6h1v6zm4.86 0H45v-6h-1v4.19L41.64 23H40.5v6h1v-4.15L43.86 29z"/></svg>