<!-- by TradingView --><svg width="56" height="56" viewBox="0 0 56 56" xmlns="http://www.w3.org/2000/svg"><path fill="#596B6E" d="M0 0h56v56H0z"/><path d="M34 31v-6h-1v6h1Zm-13.5-4.67A3 3 0 0 0 20 28v.04a2.98 2.98 0 0 0 4.67 2.45 3 3 0 1 0-4.17-4.16ZM23 26c1.15 0 2 .81 2 2 0 1.2-.85 2-2 2-1.16 0-2-.81-2-2s.84-2 2-2Zm-7.17 3.1-.83.48c.31.86 1.1 1.42 2.27 1.42 1.22 0 2.07-.64 2.07-1.7 0-1.14-.96-1.44-1.93-1.75h-.02c-.85-.27-1.18-.47-1.18-.9 0-.44.36-.65.92-.65.66 0 1.02.27 1.23.74l.81-.46A2.16 2.16 0 0 0 17.13 25c-1 0-1.89.6-1.89 1.67 0 1.1.9 1.42 1.8 1.7.88.26 1.34.43 1.34.95 0 .42-.33.68-1.1.68-.79 0-1.24-.31-1.45-.9ZM26.5 28c0-1.68 1.28-3 3.07-3a2.93 2.93 0 0 1 2.52 1.38l-.84.49c-.3-.57-.94-.87-1.68-.87-1.27 0-2.07.82-2.07 2 0 1.2.8 2 2.07 2 .74 0 1.38-.28 1.68-.85l.84.47A2.88 2.88 0 0 1 29.57 31a2.98 2.98 0 0 1-3.07-3Zm12 2v1H35v-6h3.46v1H36v1.52h2v.9h-2V30h2.5Zm3-4H43v-1h-4v1h1.5v5h1v-5Zm5.13 4h-2.5l-.4 1h-1.05l2.13-6h1.16l2.12 6h-1.04l-.42-1Zm-.31-1-.94-2.84-.93 2.84h1.87ZM52 31v-1h-2v-5h-1v6h3Z" fill="#fff"/><path d="M7 28.5a1.5 1.5 0 1 0-3 0 1.5 1.5 0 0 0 3 0Zm-1.5.9a.9.9 0 1 1 0-1.8.9.9 0 0 1 0 1.8Zm15-6.4a.5.5 0 1 0 0-1 .5.5 0 0 0 0 1Zm-3.2-2a.7.7 0 1 0 0-1.4.7.7 0 0 0 0 1.4Zm-4.05-.5a.75.75 0 1 0 0-1.5.75.75 0 0 0 0 1.5ZM9.15 22a.85.85 0 1 0 0-1.7.85.85 0 0 0 0 1.7ZM6 25a1 1 0 1 0 0-2 1 1 0 0 0 0 2Zm0 9a1 1 0 1 0 0-2 1 1 0 0 0 0 2Zm14.5 1a.5.5 0 1 0 0-1 .5.5 0 0 0 0 1Zm-3.2 2.4a.7.7 0 1 0 0-1.4.7.7 0 0 0 0 1.4Zm-4.55.6a.75.75 0 1 0 0-1.5.75.75 0 0 0 0 1.5Zm-3.91-1.32a.84.84 0 1 0 0-1.68.84.84 0 0 0 0 1.68Z" fill="#FAA621"/></svg>