<!-- by TradingView --><svg width="56" height="56" viewBox="0 0 56 56" xmlns="http://www.w3.org/2000/svg"><path fill="#F0F3FA" d="M0 0h56v56H0z"/><path d="M35.8 12.64c.75.15 2.3.5 3.44.78 1.64.4 2.08.54 2.08.67 0 .16-2.3 8.02-2.36 8.09-.02.02-.17 0-.33-.03-.27-.06-.3-.13-.52-.94-.6-2.29-1.84-4.27-3.66-5.82-.3-.26-.4-.42-.39-.6.02-.14.03-.75.04-1.36 0-1.01.02-1.12.18-1.08l1.53.3ZM16.4 32.73a11.8 11.8 0 0 0 3.48 6.68 11.03 11.03 0 0 0 3.31 2.33l.85.41V44h-.27c-.48 0-2.59-.3-3.92-.56a30.16 30.16 0 0 1-6.21-1.93l-.64-.29.53-1.79 1.3-4.45.8-2.67.35.15c.19.08.38.2.42.27Z" fill="#488CC9"/><path d="m26.68 12.9-.03.91-.64.24a5.41 5.41 0 0 0-3.23 3.13c-.36 1.01-.48 2.6.03 3.57.79 1.5 2.57 2.23 8.3 3.4 6.75 1.38 9.24 2.5 10.82 4.91 1.33 2.02 1.43 5.6.23 8.13-1.12 2.36-3.4 4.32-6.42 5.52a21.46 21.46 0 0 1-4.21 1.19c-.1 0-.13-.26-.13-1v-.99l.73-.38a6.17 6.17 0 0 0 2.45-2.43c.64-1.34.81-3.3.18-4.68-.8-1.75-2.52-2.47-9.21-3.83a80.9 80.9 0 0 1-3.9-.86c-4.53-1.3-6.53-3.36-6.97-7.14-.58-4.95 2.36-8.45 8.32-9.94.81-.2 2.76-.55 3.63-.65.04 0 .06.4.05.9Z" fill="#2B4365"/></svg>