<!-- by TradingView --><svg width="56" height="56" viewBox="0 0 56 56" xmlns="http://www.w3.org/2000/svg"><path fill="#F0F3FA" d="M0 0h56v56H0z"/><path d="M28 9.65c0-.88-.26-1.47-.39-1.65 1.71.6 2.1 1.83 2.07 2.37V11h2.84c.16-.02.45-.04.74-.3-.13.43-.58 1.3-1.35 1.3h-2.23v2h4c.18-.02.63-.08 1.06-.38-.17.44-.77 1.38-1.78 1.38H31v1.67h2.9c.18-.01.65-.12 1.1-.43-.18.44-.8 1.31-1.86 1.31H31V26h2.26c-.1.33-.51 1-1.37 1h-.93c-.1.51-.43 1.3-1.21 1.9a3.02 3.02 0 0 0-1.23 2.1h3.19c.12-.02.44-.06.74-.36-.12.43-.54 1.36-1.26 1.36H28.5v3h2.47c.15-.02.42-.04.69-.3-.12.43-.54 1.3-1.26 1.3h-1.9v2H33c-.1.33-.48 1-1.3 1h-3.2v7.03c-.01.5-.2 1.59-1.83 1.97.18-.25.33-1 .33-1.97V39h-4v-1h4v-2h-2.57c-.36-.09-1.07-.47-1.07-1.3.1.14.39.3.82.3h.09v-8h-1.28v14.86c-.11.32-.67 1.07-1.99 1.45.15-.23.46-.83.46-1.45V26.09c-.05-.3-.2-.96-.46-1.16.42.03 1.29.3 1.8 1.07h6.7v-8.45h-5.14c-.53-.09-1.57-.47-1.57-1.3.13.14.56.42 1.2.42h5.51V15h-4.95c-.5-.09-1.5-.54-1.5-1.38.13.14.54.38 1.16.38H28v-2h-2.46c-.38-.09-1.13-.47-1.13-1.3.1.14.4.3.87.3H28V9.65ZM29.5 27h-3.46v4h1.01a3.4 3.4 0 0 1 1.04-1.26l.3-.22c.7-.54 1.11-.85 1.11-1.78V27ZM27 32h-.96v3H27v-3Zm-1.48-13.89c.12.18.48.77.48 1.65v4.52c0 .45.28.81.74.81.47 0 .76-.36.76-.81v-3.8c.02-.54-.27-1.76-1.98-2.37Z"/></svg>