<!-- by TradingView --><svg width="56" height="56" viewBox="0 0 56 56" xmlns="http://www.w3.org/2000/svg"><path fill="#F0F3FA" d="M0 0h56v56H0z"/><path d="M38.43 15.15a15.64 15.64 0 0 1 3.98 10.42c0 8.77-7.25 15.88-16.2 15.88-4.06 0-7.78-1.48-10.63-3.9A16.3 16.3 0 0 0 27.8 43C36.75 43 44 35.9 44 27.12c0-4.78-2.16-9.06-5.57-11.97Z" fill="#041E42"/><path d="M35.39 35.41c-2.34 2-5.4 3.21-8.75 3.21-7.37 0-13.34-5.85-13.34-13.06 0-3.28 1.24-6.28 3.28-8.58A12.93 12.93 0 0 0 12 26.84c0 7.21 5.97 13.06 13.33 13.06 4.02 0 7.61-1.74 10.06-4.49Z" fill="#041E42"/><path d="M27 15.33c.37 0 .73.02 1.09.05-.89-.25-1.82-.38-2.79-.38-5.67 0-10.26 4.5-10.26 10.06 0 .95.13 1.86.38 2.73a11.53 11.53 0 0 1 11.59-12.46Z" fill="#041E42"/></svg>