<!-- by TradingView --><svg width="56" height="56" viewBox="0 0 56 56" xmlns="http://www.w3.org/2000/svg"><path fill="#F0F3FA" d="M0 0h56v56H0z"/><path d="m23.63 25.9-9.61-5.22-9.55 5.22-.47-.84 10.02-5.47 10.08 5.47-.47.84Z" fill="#80AC7F"/><path d="M12.02 23.7h1.7V22c-.88.13-1.57.82-1.7 1.7Zm-.02.58h1.71V26H12v-1.72ZM14.29 22c.87.13 1.56.82 1.69 1.7h-1.7V22Zm0 2.28H16V26h-1.71v-1.72Z" fill="#80AC7F"/><path d="M28 27h-1V17H9v4H8v-5h20v11Z" fill="#081F3F"/><path d="M28 38H8V23h1v14h18v-2h1v3Z" fill="#80AC7F"/><path d="M16.01 32h-1.9l-.3 1H12.8l1.71-5h1.12l1.7 5h-1L16 32Zm-.94-2.84-.7 2.09h1.39l-.7-2.1ZM20.2 29c.97 0 1.8.77 1.8 1.96 0 1.2-.83 2.04-1.8 2.04-.59 0-.97-.34-1.2-.66V35h-1v-6h1v.61c.23-.32.62-.61 1.2-.61Zm-.25.85c-.5 0-.95.4-.95 1.13 0 .72.44 1.12.95 1.12S21 31.7 21 30.96c0-.72-.53-1.11-1.05-1.11ZM24.63 29c.97 0 1.8.77 1.8 1.96 0 1.2-.83 2.04-1.8 2.04-.59 0-.97-.34-1.2-.66V35h-1v-6h1v.61c.23-.32.62-.61 1.2-.61Zm-.25.85c-.5 0-.95.4-.95 1.13 0 .72.44 1.12.95 1.12s1.05-.41 1.05-1.14c0-.72-.53-1.11-1.05-1.11Z" fill="#081F3F"/><path d="M28 33h-1v-4h1v.67c.23-.4.5-.67 1-.67v1h-.24c-.53 0-.76.27-.76 1.04V33ZM31.18 33c-1.1 0-1.9-.78-1.9-2s.78-2 1.9-2c1.12 0 1.86.76 1.86 1.92 0 .12 0 .25-.02.37h-2.77c.05.58.43.9.91.9.41 0 .64-.21.76-.47h1.03c-.2.71-.83 1.28-1.77 1.28Zm-.92-2.36h1.8c-.02-.51-.41-.84-.9-.84-.46 0-.82.3-.9.84Z" fill="#80AC7F"/><path d="M35.53 29c.94 0 1.57.5 1.78 1.37h-1.03a.74.74 0 0 0-.76-.54c-.53 0-.89.41-.89 1.17 0 .75.36 1.16.89 1.16.4 0 .64-.18.76-.53h1.03c-.2.82-.84 1.37-1.78 1.37-1.1 0-1.88-.78-1.88-2s.78-2 1.88-2ZM37.92 28.13c0-.32.24-.57.58-.57a.57.57 0 1 1 0 1.13.57.57 0 0 1-.58-.56ZM38 29h1v4h-1v-4ZM41.75 29c.62 0 1.02.3 1.25.62V29h1v4h-1v-.63c-.23.34-.64.63-1.25.63-.97 0-1.75-.8-1.75-2.01 0-1.21.78-1.99 1.75-1.99Zm.25.86c-.52 0-1 .4-1 1.13 0 .73.48 1.15 1 1.15s1-.4 1-1.14c0-.73-.46-1.14-1-1.14ZM45 30h-.46v-1H45v-1h1v1h1v1h-1v1.62c0 .27.05.38.35.38H47v1h-.8c-.73 0-1.2-.33-1.2-1.25V30ZM49.14 33c-1.1 0-1.9-.78-1.9-2s.78-2 1.9-2c1.12 0 1.86.76 1.86 1.92 0 .12 0 .25-.03.37h-2.76c.05.58.43.9.9.9.42 0 .64-.21.76-.47h1.03c-.2.71-.83 1.28-1.76 1.28Zm-.92-2.36h1.8c-.02-.51-.42-.84-.91-.84-.46 0-.82.3-.9.84Z" fill="#081F3F"/></svg>