<!-- by TradingView --><svg xmlns="http://www.w3.org/2000/svg" width="56" height="56" viewBox="0 0 56 56"><path fill="#F0F3FA" d="M0 0h56v56H0z"/><path d="M27.63 45a16.94 16.94 0 0 0 16.86-17.53.49.49 0 0 0-.5-.47H34.5a.5.5 0 0 0-.5.5v3c0 .28.22.5.5.5h6.08a13.01 13.01 0 0 1-6.02 8.21c-.26.02-.63-.12-.95-.72L22.13 17.91a1.27 1.27 0 0 1 .26-1.6 12.77 12.77 0 0 1 10.66-.29c.25.1.54.01.67-.23L35 13.26a.49.49 0 0 0-.22-.66 16.74 16.74 0 0 0-18.57 2.9c-.17.14-.2.4-.1.59l2.02 3.57 11.22 20.06c.24.36.39.93-.11 1.22a12.9 12.9 0 0 1-13-7.64.51.51 0 0 0-.46-.3h-3.6a.49.49 0 0 0-.47.64A16.89 16.89 0 0 0 27.63 45z" fill="#493947"/></svg>