<!-- by TradingView --><svg width="56" height="56" viewBox="0 0 56 56" xmlns="http://www.w3.org/2000/svg"><path fill="#F0F3FA" d="M0 0h56v56H0z"/><path d="M10.79 25.4c.52.2.96.49 1.34.9.37.42.56.98.56 1.68 0 .63-.17 1.19-.51 1.7-.35.5-.87.9-1.55 1.2-.69.29-1.52.44-2.5.44a10.09 10.09 0 0 1-3-.45l2.62-2.11.4.02c.45 0 .79-.04.98-.13.2-.09.3-.23.3-.4 0-.2-.13-.37-.4-.47-.25-.1-.67-.21-1.26-.34a14.1 14.1 0 0 1-1.89-.5c-.5-.2-.94-.5-1.32-.91a2.44 2.44 0 0 1-.56-1.7c0-.62.18-1.19.53-1.7.34-.5.86-.9 1.54-1.2a6.43 6.43 0 0 1 2.5-.43c.67 0 1.34.07 1.98.21.65.15 1.22.37 1.72.65l-1 2.4a5.99 5.99 0 0 0-2.72-.73c-.86 0-1.28.22-1.28.63 0 .2.13.34.38.44.25.1.66.2 1.25.32.74.14 1.37.3 1.89.49Zm11.68-2.63a3.37 3.37 0 0 0-1.53-1.32 5.53 5.53 0 0 0-2.32-.45h-1.51L14 23.6V31h3v-2.46h1.62c.9 0 1.66-.15 2.32-.45A3.43 3.43 0 0 0 23 24.78c0-.78-.17-1.44-.53-2.01Zm-3.07 2.87c-.22.2-.55.36-.99.36H17v-2.4h1.41c.44 0 .77.1 1 .3.2.22.32.5.32.88 0 .36-.1.65-.33.86ZM37 28.46V27h4v-2h-4v-1.45h5V21h-4.89L34 23.6V31h8v-2.54h-5Zm9 0V27h4v-2h-4v-1.45h5V21h-8v6.76L45.5 31H51v-2.54h-5Zm-13.66-1.83c-.3.54-.73.96-1.3 1.28L33 31h-3.38l-1.6-2.52H27V31h-.63L24 27.84V21h4.52c.87 0 1.62.15 2.27.45.64.3 1.14.74 1.48 1.31.35.58.53 1.24.53 2 0 .71-.15 1.33-.46 1.87ZM28.32 26c.43 0 .76-.16.97-.37.22-.2.33-.5.32-.86 0-.37-.1-.66-.32-.86-.21-.21-.54-.32-.97-.32H27V26h1.32Z"/><path d="M6.22 34.63 6.23 36H7v-3h-.7l-.8 1.6L4.7 33H4v3h.76v-1.32l.55 1.05h.37l.54-1.1Zm2.97.64c.14.23.31.4.54.53a1.58 1.58 0 0 0 1.54 0c.23-.12.41-.3.54-.53.12-.23.19-.49.19-.77s-.07-.54-.2-.77a1.47 1.47 0 0 0-1.3-.73c-.29 0-.54.07-.77.2-.23.12-.41.3-.54.53-.12.23-.19.49-.19.77s.07.54.2.77Zm1.82-.4a.65.65 0 0 1-.21.26.56.56 0 0 1-.3.08.5.5 0 0 1-.3-.09.74.74 0 0 1-.21-.24.89.89 0 0 1-.08-.38c0-.14.02-.27.08-.38.05-.1.13-.18.21-.24a.56.56 0 0 1 .3-.09c.1 0 .21.02.3.09.08.06.15.14.21.24.05.1.08.23.08.38 0 .14-.02.27-.08.38Zm5.39-.15a.8.8 0 0 1 .12.45c0 .26-.1.47-.28.61a1.3 1.3 0 0 1-.8.22H14v-3h1.36c.34 0 .6.08.77.22a.7.7 0 0 1 .26.56c0 .14-.03.26-.1.38-.05.11-.14.21-.26.27.17.07.28.17.37.29Zm-1.55-1v.44h.4c.19 0 .28-.07.28-.21 0-.16-.1-.22-.28-.22h-.4Zm.8 1.35c0-.16-.09-.24-.28-.24h-.52v.46h.52c.2 0 .29-.07.29-.22Zm3.1-2.07H18v3h.75v-3ZM21 33h.86v2.22H23V36h-2v-3Zm4 0h-.8v3h.8v-3Zm2.17.78h-.74V33h2.35v.78H28V36h-.83v-2.22ZM32 36v-1.1l1-1.9h-.83l-.53 1.04-.52-1.04h-.9l.96 1.9V36H32ZM37 35.7c.13.1.29.16.5.22.2.05.4.07.62.08.25 0 .48-.04.66-.13a.9.9 0 0 0 .55-.84c0-.2-.05-.36-.15-.48a.87.87 0 0 0-.36-.26 2.3 2.3 0 0 0-.5-.15 1.62 1.62 0 0 1-.32-.1c-.06-.02-.1-.06-.1-.12 0-.12.11-.18.33-.18.23 0 .47.06.72.21l.27-.7a1.5 1.5 0 0 0-.45-.19 2.24 2.24 0 0 0-.53-.06c-.25 0-.47.04-.65.13a.9.9 0 0 0-.55.83c0 .2.04.37.15.5.1.1.21.2.34.25.13.06.3.1.5.15.16.03.27.06.34.1.06.03.1.07.1.13 0 .05-.02.1-.08.12a.56.56 0 0 1-.26.04c-.14 0-.29-.02-.44-.08-.15-.04-.29-.1-.4-.18l-.29.7Zm6.28-2.17a.96.96 0 0 0-.41-.39 1.56 1.56 0 0 0-.63-.14H41v3h.87v-.74h.37c.25 0 .45-.05.63-.14a.91.91 0 0 0 .41-.4c.1-.17.14-.36.14-.59 0-.23-.04-.42-.14-.6Zm-.74.6c0 .1-.02.2-.08.26a.35.35 0 0 1-.26.1h-.32v-.7h.32c.1 0 .2.01.26.08.05.06.08.15.08.26Zm4.32 1.35h-.99l-.17.52h-.88l1.12-3h.85l1.12 3h-.9l-.15-.52Zm-.25-.73-.25-.75-.25.75h.5Zm2.6.53c.15.23.35.4.6.53s.53.19.85.19c.3 0 .55-.05.78-.15.23-.09.4-.24.56-.42l-.64-.54a.83.83 0 0 1-.64.33.7.7 0 0 1-.51-.2.7.7 0 0 1-.2-.52c0-.22.07-.4.2-.52.13-.14.3-.2.5-.2.25 0 .47.1.65.33l.64-.54a1.4 1.4 0 0 0-.56-.42c-.23-.1-.49-.15-.78-.15-.31 0-.6.06-.85.19A1.44 1.44 0 0 0 49 34.5c0 .3.08.55.22.78Z" fill="#7152D4"/></svg>