<!-- by TradingView --><svg xmlns="http://www.w3.org/2000/svg" width="56" height="56" viewBox="0 0 56 56"><path fill="url(#apq1cs0rz)" d="M0 0h56v56H0z"/><path d="M5.32 24H8.5l8.45 12h-3.18L5.32 24Z" fill="#7533A6"/><path d="M11.87 29H8.76l-1.52 2h3.12l1.51-2Zm3.19 0h-3.12l-1.52 2h3.12l1.52-2Z" fill="#fff"/><path d="M4 24.34c-.05 2.65 2.2 4.79 3.51 5.7l.66-.78c-1.23-.78-3.4-2.62-3.24-4.92.2-2.89 5.14-4.3 13.9-4.7 7-.33 14.82.96 17.86 1.65-3.63-1.06-9.6-2.29-17.87-2.29C10.46 19 4.06 21.02 4 24.34Z" fill="#A7A9AC"/><path d="M28.38 20.78c-10.18-.09-17.01 2.08-19.16 3.17 1.62-.68 8.43-2.6 19.16-2.43 10.74.18 17.81 3.65 20 5.37-1.5-1.29-7.27-6-20-6.1ZM46 22.91l.18 1.38.18-1.37 1.35-.18-1.36-.18-.17-1.37-.18 1.37-1.36.18 1.36.17ZM43.57 21.12l.12.85.1-.85.85-.12-.85-.1-.1-.86-.11.86-.85.1.84.12ZM37.12 27.14c.28.08.52.2.66.3l-.3.4a2.84 2.84 0 0 0-1.32-.34c-.27 0-.52.06-.7.2-.18.11-.32.31-.37.65-.02.15.01.35.16.52.15.17.45.34 1.03.35.69.03 1.15.28 1.42.62.27.32.35.71.3.98-.05.24-.18.53-.46.77a2 2 0 0 1-1.26.4c-1.11.04-1.74-.43-1.92-.75l.43-.25c.07.13.5.54 1.47.5.48 0 .78-.14.96-.29a.82.82 0 0 0 .29-.47.78.78 0 0 0-.2-.58c-.16-.2-.48-.4-1.05-.43-.67-.02-1.11-.22-1.38-.52-.27-.3-.32-.65-.29-.91.07-.47.28-.8.58-1.01.3-.2.65-.28.99-.28.34 0 .68.06.96.14ZM32.58 27.14c.28.08.53.2.67.3l-.3.4a2.84 2.84 0 0 0-1.32-.34c-.28 0-.53.06-.71.2-.18.11-.32.31-.37.65-.02.15.01.35.16.52.15.17.45.34 1.03.35.7.03 1.15.28 1.43.62.26.32.34.71.3.98-.05.24-.2.53-.47.77a2 2 0 0 1-1.26.4c-1.11.04-1.73-.43-1.92-.75l.43-.25c.07.13.5.54 1.48.5.47 0 .77-.14.95-.29a.82.82 0 0 0 .29-.47.78.78 0 0 0-.2-.58c-.16-.2-.48-.4-1.04-.43-.68-.02-1.12-.22-1.39-.52-.26-.3-.32-.65-.28-.91.06-.47.27-.8.57-1.01.3-.2.65-.28 1-.28.33 0 .67.06.95.14ZM18.03 27.14c.27.09.52.2.66.3l-.3.4a2.83 2.83 0 0 0-1.32-.34c-.28 0-.53.07-.71.2-.18.12-.32.32-.36.66-.02.14 0 .34.16.51.15.17.44.34 1.03.36.69.02 1.15.28 1.42.61.26.33.34.72.3.99-.05.24-.19.53-.47.76a2 2 0 0 1-1.26.41c-1.1.03-1.73-.43-1.92-.75l.43-.26c.08.13.5.54 1.48.51.48-.01.77-.14.95-.3a.82.82 0 0 0 .3-.47.78.78 0 0 0-.2-.57c-.17-.21-.48-.41-1.05-.43-.67-.02-1.12-.22-1.38-.52-.27-.3-.33-.66-.29-.92.06-.47.27-.8.58-1 .29-.21.65-.28.98-.29.34 0 .68.06.97.14ZM19.5 32v-5h.5v5h-.5Z" fill="#fff"/><path fill-rule="evenodd" d="M22.5 27.5h-1v4h1a2 2 0 0 0 0-4ZM21 27v5h1.5a2.5 2.5 0 0 0 0-5H21Z" fill="#fff"/><path d="M26 27v3a1.5 1.5 0 1 0 3 0v-3h.5v3a2 2 0 1 1-4 0v-3h.5Z" fill="#fff"/><path fill-rule="evenodd" d="M39 27.5h1.19a.9.9 0 1 1 0 1.8H39v-1.8Zm-.5 2.3V27h1.69a1.4 1.4 0 1 1 0 2.8H39V32h-.5v-2.2ZM41.9 30.15h2l-1-2.4-1 2.4Zm2.21.5.56 1.35h.55l-2.08-5h-.46l-2.12 5h.56l.56-1.34h2.43Z" fill="#fff"/><path d="M47.25 27.5c-1.03 0-1.87.89-1.87 2 0 1.11.84 2 1.87 2 .4 0 .77-.13 1.07-.35l.28.4c-.38.29-.84.45-1.35.45a2.44 2.44 0 0 1-2.36-2.5c0-1.37 1.05-2.5 2.36-2.5.5 0 .97.16 1.35.45l-.28.4c-.3-.22-.67-.35-1.07-.35ZM49 27h3v.5h-2.5v1.62h2.26v.5H49.5v1.88H52v.5h-3v-5Z" fill="#fff"/><defs><linearGradient id="apq1cs0rz" x1="10.42" y1="9.71" x2="68.15" y2="76.02" gradientUnits="userSpaceOnUse"><stop stop-color="#1A1E21"/><stop offset="1" stop-color="#06060A"/></linearGradient></defs></svg>