<!-- by TradingView --><svg width="56" height="56" viewBox="0 0 56 56" xmlns="http://www.w3.org/2000/svg"><path fill="#F0F3FA" d="M0 0h56v56H0z"/><path d="M15 28.01 28 8l13 20-13 20-13-19.99Z" fill="#751A2A"/><path d="M28 8.01v2.3L39.4 28H41L28 8.01Z" fill="#871C30"/><path d="M28 8.01v2.3L16.6 28H15L28 8.01Z" fill="#601723"/><path d="M15 28h1.6L28 45.52v2.47L15 28Z" fill="#521620"/><path d="m32.93 22.32-2.68 1.59-2.24-3.71-1.37 2.33L33 33.47 28.01 42l-4.92-8.36 2.72-1.5 2.2 3.64 1.37-2.31L23 22.53 28.01 14l4.92 8.32Z" fill="#A09E9D"/><path d="m23.09 33.64 2.7-1.5-.3 1.24-1.1.6-1.3-.34Z" fill="#919090"/><path d="m28.03 41.96-.02.04-4.92-8.36 1.3.34 3.64 6.18v1.8Z" fill="#696969"/><path d="m25.79 32.15.02-.01 2.2 3.64v1.89l-2.53-4.29.3-1.23Z" fill="#BCBCBC"/><path d="m28.01 35.78 1.36-2.3h1.1l-2.46 4.21v-1.9Z" fill="#7D7D7D"/><path d="m29.37 33.49.01-.02L23 22.53h1.09l6.4 10.96h-1.12Z" fill="#696969"/><path d="M28.01 14v1.87l-3.92 6.66H23L28.01 14Z" fill="#7D7D7D"/><path d="m33 33.47-4.97 8.5v-1.81l3.9-6.7H33Z" fill="#979797"/><path d="M26.65 22.55 33 33.47h-1.07l-6.38-10.92h1.1ZM28.01 14v1.87L31.63 22l1.3.31L28.01 14Z" fill="#BCBCBC"/><path d="m30.25 23.9 2.68-1.58-1.3-.32-1.1.64-.28 1.26Z" fill="#828283"/><path d="m30.25 23.9-2.24-3.7-.02.03v-1.88l2.55 4.27-.29 1.28Z" fill="#696969"/><path d="m27.99 20.23-1.35 2.3.01.02h-1.12l2.46-4.2v1.88Z" fill="#979797"/></svg>