<!-- by TradingView --><svg xmlns="http://www.w3.org/2000/svg" width="56" height="56"><path fill="#F0F3FA" d="M0 0h56v56H0z"/><path d="M52 27.44C52 18.6 10.56 19 5 19c8.22.7 21.52 1.93 30.63 4.88C39.56 25.15 46 29.1 46 32.5c0 1.8-1.87 2.6-3 3.5 6.12-2.6 9-6.45 9-8.57z" fill="#28843B"/><path d="M7 20c6.9.48 19.55 1.88 26.81 4.13C40.96 26.33 44 29.53 44 32.4c0 1.1-1.63 2.6-1.63 2.6s0-1-3.86-1c-1.49 0-3.73 1-5.45 1C26.69 35 14.82 25.34 7 20z" fill="#6DAC35"/><path d="M30.5 32l.93-5.01h.87L31.43 32h-.93zm-17.63-5h-.78l-.12.67h.78l.12-.67zm-1.65 5l.7-4h.77L12 32h-.78zm7.49-4c.54 0 .98.15 1.33.46.34.31.51.72.51 1.22 0 .16-.02.32-.05.45l-2.95-.02-.02.18c0 .3.1.52.3.7.2.17.45.26.76.26.23 0 .43-.05.6-.14.18-.1.31-.22.4-.38h.9c-.12.4-.35.71-.7.93-.34.22-.75.33-1.23.33-.56 0-1.02-.17-1.38-.5-.36-.34-.54-.8-.54-1.37 0-.62.2-1.13.58-1.53.4-.4.89-.6 1.49-.6zm.95 1.5a.83.83 0 00-.3-.57 1 1 0 00-.66-.2c-.26 0-.49.06-.67.2a.98.98 0 00-.37.57h2zm5.61-.49c-.18.32-.27.68-.27 1.08 0 .57.18 1.03.53 1.38.36.35.82.53 1.39.53.29 0 .56-.05.82-.15a1.94 1.94 0 001.1-1.08c.1-.27.16-.54.16-.84 0-.58-.18-1.04-.53-1.4a1.86 1.86 0 00-1.38-.53c-.4 0-.75.09-1.07.27-.32.18-.57.42-.75.74zm2.57.1c.19.2.28.46.28.8 0 .38-.11.69-.34.93-.22.25-.51.37-.86.37a.99.99 0 01-.76-.3c-.2-.2-.29-.48-.29-.81 0-.38.11-.68.34-.93.22-.24.51-.37.87-.37.32 0 .57.1.76.3zm1.47 2.2l-.17.69h.34c0 .17-.17.35-.48.35v.35c.47 0 1-.3 1-1.4h-.7zm10.77.69l.16-.72H41l-.14.71h-.78zm-19.24-1.92c0-1.15.92-2.08 2.07-2.08.78 0 1.64.46 1.75 1.34h-.86c-.1-.36-.56-.54-.87-.54-.69 0-1.22.6-1.22 1.27 0 .61.34 1.13 1 1.13.38 0 .77-.18.9-.54h.9c-.1.44-.25.7-.58.95a1.9 1.9 0 01-1.22.39c-1.12 0-1.87-.8-1.87-1.92zM38.24 28c-1.14 0-2.05.91-2.05 2.07 0 1.11.73 1.93 1.86 1.93.49 0 .9-.13 1.21-.39.34-.26.5-.51.58-.95h-.9c-.13.36-.52.54-.9.54-.65 0-1-.52-1-1.13 0-.68.54-1.27 1.22-1.27.32 0 .78.18.88.54H40c-.11-.88-.98-1.34-1.75-1.34zm-24.2.36l.07-.36h-.82l-.69 4h.82l.4-2.3c.05-.43.32-.93.91-.93.6 0 .85.45.77.93l-.4 2.3h.83l.39-2.3c.19-.95-.45-1.7-1.34-1.7-.19 0-.61.05-.93.36zM33.52 28l-.07.37c.32-.31.74-.37.92-.37.9 0 1.54.76 1.35 1.71l-.4 2.3h-.83l.42-2.3c.07-.48-.18-.93-.77-.93-.6 0-.86.5-.92.93l-.39 2.3h-.82l.68-4h.83zm-24.77.35L8.98 27h-.85l-.82 5h.82l.4-2.3c.05-.43.4-.93.99-.93s.8.45.72.93L9.83 32h.82l.4-2.3c.19-.95-.47-1.7-1.36-1.7-.19 0-.63.04-.94.35zm-4.75 2v.07c0 .32.07.6.22.84.14.24.33.43.58.55.24.13.52.2.83.2.45 0 .81-.14 1.09-.4.28-.27.41-.61.41-1.04 0-.3-.07-.56-.2-.78a1.4 1.4 0 00-.57-.5l-.65-.31a2.9 2.9 0 01-.2-.12.91.91 0 01-.15-.11.42.42 0 01-.11-.17.86.86 0 01-.04-.23c0-.19.06-.34.18-.45.12-.12.3-.17.5-.17.24 0 .43.06.58.2a.7.7 0 01.22.54c0 .09 0 .16-.02.22h.77l.01-.27c0-.4-.14-.75-.42-1.02-.28-.27-.65-.4-1.1-.4-.46 0-.82.13-1.1.4-.27.25-.4.6-.4 1.01a1.3 1.3 0 00.32.9c.05.07.11.12.18.17a2 2 0 00.41.23l.54.28c.16.08.28.16.35.25.08.1.12.22.12.4a.6.6 0 01-.2.46.74.74 0 01-.51.17.9.9 0 01-.64-.23.78.78 0 01-.24-.6l.01-.15H4v.07z"/></svg>