<!-- by TradingView --><svg width="56" height="56" viewBox="0 0 56 56" xmlns="http://www.w3.org/2000/svg"><path fill="#2A9A47" d="M0 0h56v56H0z"/><path d="M21.42 39.85a8.4 8.4 0 0 1-6.21-2.53c-.23-.2-.66-.55-1.1-.55-.66 0-1.11.55-1.11 1.09 0 .27.04.63.35.98 1.37 1.49 3.74 3.16 8 3.16C25.9 42 30 39.47 30 35.5c0-7.99-14.28-4.8-14.28-10.5 0-1.8 1.98-3.78 5.45-3.78a8.4 8.4 0 0 1 5.52 2.02c.53.4.76.63 1.18.63.8 0 1.15-.63 1.15-1.17 0-.46-.3-.77-.65-1.13-.96-.9-3.4-2.57-7.14-2.57-4.76 0-7.96 2.97-7.96 6.17 0 7.94 14.14 4.41 14.14 10.64 0 2.2-2.56 4.04-6 4.04ZM37.5 11c1.38 0 2.5 1.18 2.5 2.64v25.72A2.57 2.57 0 0 1 37.5 42a2.57 2.57 0 0 1-2.5-2.64V13.64A2.56 2.56 0 0 1 37.5 11Z" fill="#F0F3FA"/></svg>