<!-- by TradingView --><svg width="56" height="56" viewBox="0 0 56 56" xmlns="http://www.w3.org/2000/svg"><path fill="url(#ahspzkfxv)" d="M0 0h56v56H0z"/><path fill-rule="evenodd" d="M26 28.76v-3.14h-1.5V25H26v-1h.73v1h1.77v.62h-1.77v3.02c0 .49.14.72.94.72.64 0 1.15-.1 1.33-.14v.67c-.3.04-1 .11-1.33.11-1.31 0-1.66-.83-1.67-1.24Zm-22 .01.65-.29c.08.28.46.83 1.38.83 1.15 0 1.3-.4 1.3-.72 0-.3-.09-.36-.61-.56-.3-.12-.67-.22-1-.3-.26-.08-.5-.14-.65-.2-.34-.13-.88-.4-.88-1.1 0-.7.55-1.43 1.94-1.43 1.4 0 1.75.85 1.84 1.25 0-.02-.43.16-.63.26-.06-.14-.2-.46-.37-.58-.2-.15-.5-.23-.9-.23-.42 0-1.2.06-1.2.72-.01.12.1.4.56.5.58.15 1.69.46 2.11.72.43.27.46.76.46 1.02C8 28.9 7.9 30 6.03 30c-1.4 0-1.94-.82-2.03-1.23Zm25 0 .65-.29c.08.28.46.83 1.38.83 1.15 0 1.3-.4 1.3-.72 0-.3-.09-.36-.61-.56-.3-.12-.67-.22-1-.3-.26-.08-.5-.14-.65-.2-.34-.13-.88-.4-.88-1.1 0-.7.55-1.43 1.94-1.43 1.4 0 1.75.85 1.84 1.25 0-.02-.43.16-.63.26-.06-.14-.2-.46-.37-.58-.2-.15-.5-.23-.9-.23-.42 0-1.2.06-1.2.72-.01.12.1.4.56.5.58.15 1.69.46 2.11.72.43.27.46.76.46 1.02 0 .25-.1 1.34-1.97 1.34-1.4 0-1.94-.82-2.03-1.23ZM9.7 25H9v6h.7v-2.11c.45.49 1.11.8 1.85.8A2.4 2.4 0 0 0 14 27.34c0-1.5-1.1-2.34-2.45-2.34-.74 0-1.4.31-1.85.8V25Zm3.57 2.34c0 1.26-.77 1.65-1.72 1.65-1.22 0-1.8-.74-1.8-1.65 0-.9.52-1.64 1.8-1.64.95 0 1.72.39 1.72 1.64Zm6.73.16a2.5 2.5 0 1 1-2.5-2.5c1.38 0 2.5.9 2.5 2.5Zm-.74 0c0 1.34-.79 1.76-1.76 1.76-1.24 0-1.83-.79-1.83-1.76s.52-1.76 1.83-1.76c.97 0 1.76.42 1.76 1.76ZM21 30v-5h.68v1.14c.68-1.05 1.6-1.14 1.84-1.14.21 0 .4.07.48.1v.72a.96.96 0 0 0-.45-.1c-1.07 0-1.66.9-1.87 1.47V30H21Z" fill="#fff"/><path d="M33.3 25v5h.7v-3.06c.38-.67 1.1-1.21 1.84-1.21.6 0 .73.72.72 1.08V30h.65v-3.15c.4-.63 1.08-1.12 1.78-1.12.61 0 .74.72.72 1.08V30h.66v-3.2c0-.99-.41-1.8-1.38-1.8-.73 0-1.52.65-1.87 1.03-.18-.6-.58-1.03-1.28-1.03-.7 0-1.47.6-1.84 1v-1h-.7Zm14.4 0H47v6h.7v-2.11c.45.49 1.11.8 1.85.8A2.4 2.4 0 0 0 52 27.34c0-1.5-1.1-2.34-2.45-2.34-.74 0-1.4.31-1.85.8V25Zm3.57 2.34c0 1.26-.77 1.65-1.72 1.65-1.22 0-1.8-.74-1.8-1.65 0-.9.52-1.64 1.8-1.64.95 0 1.72.39 1.72 1.64Zm-9.5-.9-.65-.34c.4-.62 1.03-1.1 2.38-1.1 1.82 0 2.23.92 2.2 1.38v2.66c0 .3.1.82.15.96H45v-.96c-.19.32-.93.96-2.35.96-1.43 0-1.8-.88-1.8-1.32 0-1.47 1.3-1.68 3.23-1.68H45c0-.49 0-1.33-1.4-1.33-1.1 0-1.67.51-1.82.77ZM45 28.32v-.64c-.23 0-.98 0-2.05.03-1.07.04-1.35.64-1.35.9-.08.23.08.69 1.35.69s1.9-.65 2.05-.98Z" fill="#C52A2D"/><defs><linearGradient id="ahspzkfxv" x1="10.42" y1="9.71" x2="68.15" y2="76.02" gradientUnits="userSpaceOnUse"><stop stop-color="#1A1E21"/><stop offset="1" stop-color="#06060A"/></linearGradient></defs></svg>