<!-- by TradingView --><svg width="56" height="56" viewBox="0 0 56 56" xmlns="http://www.w3.org/2000/svg"><path fill="#F0F3FA" d="M0 0h56v56H0z"/><path d="M9.25 22.8c0-1.79 1.05-2.61 1.57-2.8-.66 0-2.06.56-2.32 2.8-.33 2.81 1.9 5.71 1.74 9.08C10.11 34.58 8.7 35.75 8 36c.58-.1 2.82.1 2.99-4.12.17-4.2-1.74-6.83-1.74-9.07ZM12 25v8h1v-6.45c0-.35 0-1.02.48-1.02.52 0 .52.6.52.9V33h1v-6.5c0-.27-.04-.97.5-.97.56 0 .5.7.5.97V33h1v-7c0-.56-.32-1-1.25-1-.74 0-1.1.3-1.16.44-.09-.17-.28-.44-.84-.44-.44 0-.69.3-.75.44V25h-1ZM26.98 23H26v2h-.5v1h.5v5.08c.07 1.15 1.14 1.76 1.54 1.92H28v-.2c-.81-.07-1.02-1.18-1.02-1.72V23Z" fill="#FBAD17"/><path d="M31 21.1V21h-.6c-1.04.07-1.37 1.12-1.4 1.64V33h1v-7l.5-.01V25l-.5.01v-2.37c0-.95.6-1.43 1-1.55Z" fill="#AAD144"/><path d="M45 21.1V21h-.6c-1.04.07-1.37 1.12-1.4 1.64V33h1v-7h.5v-1H44v-2.36c0-.95.6-1.43 1-1.55Z" fill="#FBAD17"/><path fill-rule="evenodd" d="M47 33h-.41c-.53-.06-1.59-.73-1.59-2.9v-2.65c0-.81.32-2.45 1.59-2.45 1.5 0 1.42 1.92 1.4 2.3 0 .03 0 0 0 0S48.15 30 46 30c-.03.88.03 2.6 1 2.82V33Zm-1-3.5v-2.05c0-.54 0-1.95.5-1.95s.5.8.5 1.95c0 1.46-.35 2.05-1 2.05Z" fill="#FBAD17"/><path d="M19 25.98V25h.9c.37.03 1.1.28 1.1 1.07V33h-1v-.17c-.15.1-.3.17-.4.17-.38 0-1.6-.36-1.6-3.02 0-1.8 1.16-2.84 2-3.28 0-.32-.06-.72-.4-.72H19Zm1 1.48c-.5.51-1 1.38-1 2.52 0 1.78.22 2.49.6 2.49.15 0 .29-.09.4-.2v-4.8ZM23 25h-1v8h1v-6c.4-.78 1.5-1.03 2-1v-1c-1 0-1.75.41-2 .62V25Z" fill="#FBAD17"/><path d="M36 25h-1v8h1v-6.11c.4-.78 1.5-.92 2-.89v-1c-1 0-1.75.41-2 .62V25Z" fill="#AAD144"/><path d="M40 20h-1v15h2v-1h-1V20ZM42 25h-1v8h1v-8ZM42 24h-1c.58-.29.8-.5 1-1v1Z" fill="#FBAD17"/><path fill-rule="evenodd" d="M32.5 33c1.05 0 1.5-1.8 1.5-4s-.45-4-1.5-4-1.5 1.8-1.5 4 .45 4 1.5 4Zm0-.53c.5 0 .5-1.56.5-3.47 0-1.91 0-3.47-.5-3.47S32 27.1 32 29c0 1.91 0 3.47.5 3.47Z" fill="#AAD144"/></svg>