<!-- by TradingView --><svg width="56" height="56" viewBox="0 0 56 56" xmlns="http://www.w3.org/2000/svg"><path fill="#F0F3FA" d="M0 0h56v56H0z"/><path fill-rule="evenodd" d="M44 28c0 8.84-7.14 16-15.94 16S12 36.84 12 28s7.25-16 16.06-16C36.86 12 44 19.16 44 28Zm-26.55-3.32A5.31 5.31 0 0 1 22.9 20c2.36-.04 4.83 1.43 4.8 4.04.03 1.68-.8 2.97-2.4 3.5 1.8.6 2.7 1.79 2.7 3.6.06 3.04-2.62 4.87-5.46 4.86-2.82.05-4.68-1.55-5.54-4.16l1.32-.7a1.61 1.61 0 0 1 .97-.11c.63.1 1 .65 1.38 1.2.45.65.92 1.32 1.84 1.3 1.3.03 2.44-1 2.45-2.35.02-2.04-1.28-2.22-2.96-2.18v-2c1.55.04 3.02-.62 3-2.44 0-1.26-.99-2.1-2.27-2.1-1.01-.01-1.4.63-1.82 1.3-.26.4-.53.83-.96 1.12a1.48 1.48 0 0 1-.94.08l-1.56-.28ZM39 21.3V20H28v2.32c0 .36.33.68.68.68h6.82a310 310 0 0 0-4.82 9.58L29 36h2.3c.7.03 1.27-.41 1.58-1.02l5.75-12.16c.23-.48.39-.98.37-1.52Z" fill="#6DBE4B"/></svg>