<!-- by TradingView --><svg width="56" height="56" viewBox="0 0 56 56" xmlns="http://www.w3.org/2000/svg"><path fill="#1479BE" d="M0 0h56v56H0z"/><path d="M15.75 25.13c-.18-.1-.57-.13-1.33-.13H11v1h5c0-.2.07-.7-.25-.86M23 25.83v3.52l-2.73-3.7c-.52-.69-.64-.65-1.48-.65H18v5.07c0 .89.12.93 1.52.93v-4.38l2.77 3.63c.48.61.46.75 1.4.75h.81v-6c-1.36 0-1.5.02-1.5.83M15.73 30.12c-.2-.1-.61-.12-1.43-.12H11v1h5c0-.22.07-.7-.27-.88ZM15.75 27.62c-.18-.1-.57-.13-1.33-.13H11v1h5c0-.2.07-.7-.24-.87M38 25.62V25h-4.5c-1 0-1.06 0-1.06 1h2.04v4.06c0 .9.1.94 1.52.94v-5h.88c.36 0 1.12 0 1.12-.38ZM6.13 27.25c-.43-.11-.6-.25-.6-.53s.06-.4.15-.47c.1-.08.36-.25.8-.25h1.95c1.05 0 1.12.03 1.12-1H6.99c-2.07 0-3.02.7-2.99 1.83.03 1.42 1.72 1.47 2.95 1.69.46.08 1.3.25 1.32.74a.55.55 0 0 1-.14.48c-.1.1-.3.25-.65.26H5.36c-.56 0-.84.03-.97.15-.14.13-.17.23-.17.85h2.55c2.3 0 3.03-.92 3.03-1.82 0-1.68-2.3-1.56-3.67-1.93ZM28.05 27.25c-.43-.11-.6-.25-.6-.53s.05-.4.15-.47c.32-.28.86-.25 1.26-.25h1.49c1.05 0 1.12.03 1.12-1H28.9c-2.06 0-3.01.7-2.98 1.83.03 1.42 1.72 1.47 2.94 1.68.47.08 1.32.26 1.32.75a.55.55 0 0 1-.13.48c-.1.1-.3.25-.65.26h-2.12c-.57 0-.84.04-.98.16-.14.13-.16.22-.16.84h2.54c2.3 0 3.03-.92 3.03-1.82 0-1.68-2.3-1.56-3.66-1.93M51.5 26.92c0-.8-.35-1.92-3.11-1.92H46.8l-.72.01c-.74.06-.66.45-.66.94v4.09c0 .47.03.7.22.82.26.18 1.04.13 1.35.13V26c.63-.02 1.57-.04 2.1.07.55.11.82.47.83.85 0 .72-.6 1.07-1.28 1.08h-1.03c0 .7 1.14 1.76 1.72 2.33.52.55.75.67 1.56.67H52l-2.46-2.2c1.08 0 1.96-.5 1.96-1.87M41.1 25c-.97 0-1.05.04-1.39.74L37.08 31c1.77 0 1.78 0 2.1-.7l.32-.67h.79c.7 0 1.07-.03 1.25-.15.3-.2.17-.67.17-.9h-1.74l1.14-2.46 1.92 4.19c.32.69.34.69 2.1.69l-2.63-5.26c-.34-.7-.43-.74-1.4-.74Z" fill="#fff"/></svg>