<!-- by TradingView --><svg width="56" height="56" viewBox="0 0 56 56" xmlns="http://www.w3.org/2000/svg"><path fill="#061D49" d="M0 0h56v56H0z"/><path d="M28 44a16 16 0 0 0 10-28.5v1.44a6.72 6.72 0 0 0-2.32-.41c-1.33 0-2.32.73-2.32 1.91V21H37v3h-3.64v16H30V24h-2.36c.23.58.37 1.25.4 2h-3.32c-.07-1.07-1.1-3.27-4.69-3.27-4.48 0-4.54 1.73-4.54 2.55 0 .82.94 2.17 4.93 2.86l.32.05c3.91.68 8.26 1.42 8.26 5.84 0 4.54-5.35 5.97-8.58 5.97-1.27 0-2.49-.2-3.5-.46A15.95 15.95 0 0 0 28 44ZM12.97 33.5h1.87c-.05 1.25 1 3.74 5.58 3.74 4.6 0 5.3-2.14 5.09-3.2-.23-.8-1.56-2.5-5.09-2.87-3.96-.4-7.6-1.59-8.3-5.12a16.16 16.16 0 0 0 .85 7.45ZM13 22.42c1.74-1.77 5.35-2.36 7.42-2.42 1.8-.02 4.95.6 6.58 2.84V21h3v-2.8c-.02-1.4 1-4.2 5.28-4.2h.47A16 16 0 0 0 13 22.42Z" fill="#fff"/></svg>