<!-- by TradingView --><svg xmlns="http://www.w3.org/2000/svg" width="56" height="56" viewBox="0 0 56 56"><path fill="url(#aoicsztnx)" d="M0 0h56v56H0z"/><path d="M34.25 13.2c.08.04.15.1.17.18.02.09.02.19-.02.25a.35.35 0 0 1-.4.17s-3.64-1.35-7.66.31c-4.02 1.67-5.78 5.7-5.78 5.7-.06.1-.14 0-.14 0l-.9-.87c-.07-.06-.02-.19-.02-.19s1.71-4.53 6.55-6.16c4.83-1.62 8.2.6 8.2.6ZM44 25.53a.33.33 0 0 0-.1-.22c-2.1-2-5.11-3.02-8.04-2.77-1.42.1-2.9.54-4.25 1.23a14.52 14.52 0 0 0-3.72 3.03l-.2.21-.75.83c-.87.95-1.75 1.91-2.82 2.6-1.23.8-2.66 1.32-4.1 1.52-2.6.38-5.3-.27-7.5-1.76a.38.38 0 0 0-.43.04.27.27 0 0 0-.08.25c0 .08.04.16.1.23 2.1 1.97 5.08 3 8.04 2.74 1.42-.1 2.9-.54 4.24-1.23a14.52 14.52 0 0 0 3.73-3.03l.19-.21.76-.83c.87-.95 1.75-1.91 2.81-2.6 1.24-.8 2.66-1.32 4.1-1.52 2.56-.36 5.26.29 7.46 1.79.14.08.3.06.43-.05.09-.08.13-.16.13-.25Zm-3.37-4.8a.38.38 0 0 0-.15-.21s-3.05-2.66-8.05-1.7c-5 .95-7.43 5.3-7.43 5.3s-.06.1 0 .19l.88.9s.1.1.17 0c0 0 2.3-3.75 6.48-4.86 4.19-1.1 7.62.73 7.62.73.15.08.31.02.42-.1a.27.27 0 0 0 .06-.25Zm-3.28-4.04c.08.04.12.13.14.2.02.1 0 .2-.04.26a.33.33 0 0 1-.42.14s-3.56-1.56-7.66-.14c-4.1 1.41-6.09 5.35-6.09 5.35-.06.1-.14.02-.14.02l-.88-.88c-.06-.08 0-.18 0-.18s2.03-4.5 6.95-5.8c4.91-1.32 8.14 1.03 8.14 1.03ZM21.57 42.62a.3.3 0 0 0 .17.18s3.34 2.23 8.18.6c4.83-1.62 6.55-6.15 6.55-6.15s.04-.13-.02-.19l-.88-.87s-.09-.1-.15 0c0 0-1.76 4.03-5.77 5.7-4.02 1.66-7.66.31-7.66.31a.35.35 0 0 0-.4.17c-.04.06-.04.16-.02.25Zm-6.07-7.14a.38.38 0 0 1-.15-.2.27.27 0 0 1 .07-.26c.1-.12.27-.18.41-.1 0 0 3.44 1.83 7.62.73 4.19-1.1 6.49-4.85 6.49-4.85.06-.1.17 0 .17 0l.87.9c.07.08 0 .18 0 .18s-2.42 4.35-7.42 5.3c-5 .96-8.06-1.7-8.06-1.7Zm3 3.6c.01.08.05.17.14.2 0 0 3.24 2.38 8.12 1.05 4.92-1.31 6.94-5.8 6.94-5.8s.07-.11 0-.2l-.85-.87s-.09-.08-.15.02c0 0-1.99 3.94-6.09 5.35-4.1 1.41-7.66-.15-7.66-.15a.33.33 0 0 0-.42.15c-.04.06-.06.17-.04.25Z" fill="#fff"/><defs><linearGradient id="aoicsztnx" x1="10.42" y1="9.71" x2="68.15" y2="76.02" gradientUnits="userSpaceOnUse"><stop stop-color="#1A1E21"/><stop offset="1" stop-color="#06060A"/></linearGradient></defs></svg>