<!-- by TradingView --><svg xmlns="http://www.w3.org/2000/svg" width="56" height="56" viewBox="0 0 56 56"><path fill="#F73601" d="M0 0h56v56H0z"/><path fill-rule="evenodd" d="M19.85 25a3.5 3.5 0 1 0 0-7 3.5 3.5 0 0 0 0 7Zm0-1.3a2.2 2.2 0 1 0 0-4.4 2.2 2.2 0 0 0 0 4.4ZM12.61 18c2.3 0 2.86 1.44 2.85 2.15h-1.25c-.05-.37-.45-1.12-1.6-1.17-1.15-.04-1.5.52-1.54.81-.08.33.21 1.02 2.05 1.18 1.84.17 2.33 1.33 2.34 1.9.09.69-.37 2.13-2.85 2.13-2.5 0-3.13-1.53-3.14-2.32h1.25c.41 1.1 1.39 1.23 1.89 1.24.5 0 1.6-.1 1.6-.97 0-.68-1.32-.97-1.98-1.02-2.04-.27-2.44-1.15-2.44-1.84v-.01c0-.2 0-2.09 2.82-2.08Zm30.53 0c2.3 0 2.86 1.44 2.85 2.15h-1.25c-.05-.37-.45-1.12-1.6-1.17-1.15-.04-1.5.52-1.54.81-.08.33.2 1.02 2.05 1.18 1.84.17 2.33 1.33 2.34 1.9.09.69-.38 2.13-2.85 2.13-2.5 0-3.13-1.53-3.14-2.32h1.25c.41 1.1 1.39 1.23 1.89 1.24.5 0 1.6-.1 1.6-.97 0-.68-1.32-.97-1.99-1.02-2.03-.27-2.43-1.15-2.43-1.84v-.01c0-.2-.01-2.09 2.82-2.08Zm5.85 14.15c0-.71-.55-2.15-2.85-2.15-2.83-.01-2.82 1.88-2.82 2.08 0 .7.4 1.58 2.43 1.84.67.06 2 .34 2 1.03 0 .86-1.11.97-1.61.96-.5 0-1.48-.14-1.9-1.23H43c0 .79.64 2.32 3.14 2.32 2.47 0 2.94-1.45 2.85-2.14-.01-.56-.5-1.73-2.34-1.9-1.84-.15-2.13-.85-2.05-1.17.04-.29.39-.86 1.54-.8 1.15.04 1.55.79 1.6 1.16H49ZM39 21.5a3.5 3.5 0 1 1-7 0 3.5 3.5 0 0 1 7 0Zm-1.3 0a2.2 2.2 0 1 1-4.4 0 2.2 2.2 0 0 1 4.4 0Zm-11.12 2.65L23.74 18h1.56l2.44 5.35L30.2 18h1.53l-2.95 6.26c-.2.35-.44.74-1.05.74-.64 0-.99-.53-1.16-.85ZM7 27h1.3v3.77a3.5 3.5 0 1 1 0 5.45v.2l-.27.58H7V27Zm1.3 5.42v2.16c.4.67 1.17 1.12 2.05 1.12 1.3 0 2.35-.98 2.35-2.2 0-1.22-1.05-2.2-2.35-2.2-.88 0-1.65.45-2.05 1.12ZM40.7 27H42v10h-1.03l-.27-.58v-.2a3.5 3.5 0 1 1 0-5.45V27Zm0 5.42a2.38 2.38 0 0 0-2.05-1.12c-1.3 0-2.35.98-2.35 2.2 0 1.22 1.05 2.2 2.35 2.2.88 0 1.65-.45 2.05-1.12v-2.16ZM22.5 37a3.5 3.5 0 1 1 2.2-6.23V30H26v7h-1.03l-.27-.4v-.38c-.6.49-1.37.78-2.2.78Zm.15-5.7c.88 0 1.65.45 2.05 1.12v2.16a2.38 2.38 0 0 1-2.05 1.12c-1.3 0-2.35-.98-2.35-2.2 0-1.22 1.05-2.2 2.35-2.2Zm-6.35 1.5V37H15v-7h.97l.33 1.06v.26A3.7 3.7 0 0 1 19 30v1.28a3.42 3.42 0 0 0-2.7 1.52ZM27.5 30h.97l.33 1.06a2.94 2.94 0 0 1 5.2 1.88V37h-1.3v-3.72a2 2 0 0 0-3.9-.6V37h-1.3v-7Z" fill="#fff"/></svg>