<!-- by TradingView --><svg xmlns="http://www.w3.org/2000/svg" width="56" height="56" viewBox="0 0 56 56"><path fill="#F0F3FA" d="M0 0h56v56H0z"/><path d="M38.2 20.88A6.95 6.95 0 0 0 33.5 19c-1.69 0-3.25.63-4.5 1.7V19h-5v22h5v-6.7a6.91 6.91 0 0 0 4.5 1.7c2.22 0 4.21-1.1 5.58-2.82a15 15 0 0 1-26.63 3.04c.95.58 2.14.95 3.63.95 6.3 0 7.04-4.69 7.04-5.58v-.06c0-.95 0-3.5-4.13-4.9l-.54-.19c-3.7-1.26-4.11-1.4-4.11-2.17 0-.8.76-1.27 1.57-1.27s1.49.24 1.49 1H22c-.24-1.76-1.42-5-6.27-5a7.7 7.7 0 0 0-3.17.62 14.99 14.99 0 0 1 25.65 1.26zm-28.17 6.2c.59.7 1.49 1.35 2.83 1.8 4.17 1.38 5.14 1.99 5.14 2.86 0 .88-1.05 1.26-2 1.26s-1.9-1.35-1.9-2h-3.8a15.07 15.07 0 0 1-.27-3.92zM38 27.5a4.5 4.5 0 1 1-9 0 4.5 4.5 0 0 1 9 0z" fill="#E31B23"/><path d="M45 22h-3v3h-2.5c.1.44.25 1.66 0 3H42v3h3v-3h3v-3h-3v-3z" fill="#FDB913"/></svg>