<!-- by TradingView --><svg width="56" height="56" viewBox="0 0 56 56" xmlns="http://www.w3.org/2000/svg"><path fill="#F0F3FA" d="M0 0h56v56H0z"/><path d="M26.14 42 26 43h3.86l.14-1h-3.86ZM34.28 28 34 29h7.72l.28-1h-7.72ZM8.32 35 8 36h17.84c.84 0 1.16-1 1.16-1.3-.08.24-.67.3-.95.3H8.32ZM22 28s-.2.77-.3 1h-8.68c-2.48 0-2.48-2-2.38-3 0 1.68 1.24 1.93 1.86 2H22ZM33.05 35s-.1.73 0 1h10.4c2.21 0 2.68-1.85 3.05-3-.52 1.62-2.2 1.92-2.83 2H33.05ZM18.18 21 18 22h11v-1H18.18Z"/><path d="m31 16-.99 4h-12.6l-.79 3h10.55c1.09 0 1.9.99 1.62 2.02l-2.2 8.08c-.14.53-.63.9-1.19.9H9l1-4h12.6l.65-3h-10.8c-.82 0-1.45-.74-1.45-1.5 0-.11.01-.22.04-.34l2.2-7.93c.18-.72.84-1.23 1.6-1.23H31Z" fill="#E81C73"/><path d="M24 26H12.72L12 27h11.28l.72-1ZM17 19h12.3l.7 1H17.7l-.7-1ZM24.16 33h-14.1L9 34h16l-.84-1Z" fill="#072620"/><path d="m26 41 4.93-18h15.02c1.37 0 2.35 1.3 1.97 2.6l-1.78 6a3.41 3.41 0 0 1-3.35 2.4H32.16l-1.85 7H26Zm17-14h-9.38L33 30h9.38l.62-3Z" fill="#E81C73"/><path d="M26.67 40 26 41h4.3l-.78-1h-2.85Z"/><path d="M31.28 33h11l.72 1H32l-.72-1ZM43 27h-9.38L33 26h11l-1 1Z" fill="#072620"/></svg>