<!-- by TradingView --><svg xmlns="http://www.w3.org/2000/svg" width="56" height="56" viewBox="0 0 56 56"><path fill="#F0F3FA" d="M0 0h56v56H0z"/><path d="M45.13 27.39L47 24.44v2.95h5l-5.04 1.69.15 2.64-2.23-1.74-2.72 1.45 1.44-2.48-1.75-1.56h3.28z" fill="#EE2E24"/><path fill-rule="evenodd" d="M28.74 27.56L30.6 21h5.97c1.22-.06 3.99.49 3.8 3.42a5.66 5.66 0 0 1-1.27 3.14H28.74zm-1.01 0a5.82 5.82 0 0 0 1.1-3.05c.2-2.95-2.2-3.57-3.42-3.5h-5.97l-1.87 6.55h10.16zM17.44 28h9.94c-.18.2-.36.4-.55.56h-9.55l.16-.56zm-2.35-.44a4.22 4.22 0 0 0-2.9-1.47c-2.26-.26-2.08-1.04-2.03-1.24v-.03c.03-.13.24-1.03 1.91-1.01a1.88 1.88 0 0 1 1.9 1.62l3.01-.89c.15-1.23-.54-3.67-4.43-3.53-4.86.17-6.8 4.29-6.14 6.53v.02h8.68zM6.67 28h8.7c.1.18.18.37.24.56h-8.4c-.22-.19-.4-.38-.54-.56zm1.19 1a5.12 5.12 0 0 0 1.52.56h6.36c0-.19 0-.37-.03-.56H7.86zm9.3 0l-.16.56h8.38c.27-.13.58-.31.92-.56h-9.14zm11.16 0l-.16.56h8.93l-.03-.2c.17-.1.35-.22.54-.36h-9.28zm11.03 0a7.7 7.7 0 0 0-.07.56h3.43l.3-.5-.06-.06h-3.6zm3.1-.44h-3.01c.04-.18.08-.37.14-.56h2.22l.64.56zm-1.16-1l-.65-.56h3.37l.06-.12c.26-.61 1.29-2.98 2.96-2.88 1.47.09 1.3 1.75 1.02 2.5h3.81c.3-1.89.17-3.43-1.12-4.51-2.37-1.98-6.5-.9-9.23 2.42-.82.99-1.42 2.07-1.8 3.15h1.58zm-2.56.44c-.19.2-.39.4-.58.56h-9.7l.16-.56h10.12zm3.73 2h-3.2v.56h2.87l.33-.56zm-.58 1H39.3c.16 1.2.67 2.26 1.55 3 2.37 1.97 6.3.96 9.02-2.36.39-.55.7-1.1.95-1.64h-3.27v2.7l-1.59-1.33c-1.4.87-2.35.36-2.65 0l-2.43 1.32.99-1.7zm-4.68-.44l-.06-.56h-3.75l.05.56h3.76zm-3.72.44h3.77l.45 4h-3.82l-.4-4zm-1.99-.44l.17-.56h-3.62l-.16.56h3.61zm-3.74.44h3.61l-1.2 4h-3.55l1.14-4zm-7.47-.44l.16-.56h-3.57l-.16.56h3.57zm-3.7.44h3.57L19 35h-3.55l1.14-4zm-1.04-.44l.15-.56H11c.47.16.69.32.8.56h3.73zm-3.65.44h3.48c-.8 1.8-2.93 4.03-6.94 4-4.03-.03-4.6-2.75-4.39-4.1l3.56-.75c-.02.4-.09 2.13 1.98 2.05 1.76-.08 2.27-.73 2.31-1.2zm21.42-7h1.88c.47-.02 1.35.19 1.1 1.2-.32 1.28-1.18 1.73-2.24 1.8h-1.62l.88-3zm-11.16 0h1.87c.47-.02 1.35.19 1.1 1.2-.32 1.28-1.18 1.73-2.24 1.8h-1.62l.89-3z" fill="#0055A5"/></svg>