<!-- by TradingView --><svg width="56" height="56" viewBox="0 0 56 56" fill="none" xmlns="http://www.w3.org/2000/svg">
<rect width="56" height="56" fill="#F0F3FA"/>
<path d="M27.2877 11H28.8177C37.7716 11.6443 44.5512 18.4205 45 27.4152V28.6052C44.5478 37.5744 37.792 44.3982 28.8398 45H27.0973C18.1315 44.3761 11.5321 37.5336 11 28.5848V27.3948C11.5066 18.3763 18.2828 11.5916 27.2877 11Z" fill="#BD9A5F"/>
<path d="M23.272 23.6361C24.0761 23.1516 23.8959 22.0279 23.2601 21.6165C21.385 20.4027 16.9021 22.4682 18.0666 25.1831C18.9744 27.2962 22.2197 28.3196 21.1096 31.2232C20.3123 33.304 17.8745 34.5365 15.7257 34.7694C14.4524 34.9088 13.0227 34.5858 12.3308 33.4604C11.5148 32.131 12.3393 30.4055 13.7503 29.9023C14.2501 29.7238 14.8026 29.7187 15.2038 30.1063C16.2255 31.0957 14.5663 32.8467 13.9288 31.91C13.8948 31.8601 13.9021 31.8176 13.9509 31.7825C14.1333 31.6476 14.2263 31.4629 14.2297 31.2283C14.23 31.1875 14.2209 31.1472 14.2031 31.1105C14.1853 31.0738 14.1592 31.0417 14.127 31.0167C14.0948 30.9917 14.0572 30.9744 14.0172 30.9663C13.9772 30.9582 13.9359 30.9594 13.8965 30.9699C12.9428 31.2232 12.8119 32.4982 13.3627 33.1578C15.3194 35.4987 21.9698 32.2381 18.8894 28.9486C17.7368 27.7178 16.1286 26.5397 16.3224 24.6969C16.5757 22.2744 19.0356 20.7172 21.3578 20.4996C22.4577 20.3976 23.8313 20.5574 24.4212 21.5706C25.2117 22.9238 24.1441 24.9621 22.4611 24.7683C20.8631 24.583 21.5159 22.39 22.7484 22.7708C23.1258 22.8864 23.2737 23.1992 23.1853 23.5715C23.1827 23.5829 23.1835 23.5948 23.1876 23.6058C23.1916 23.6168 23.1987 23.6263 23.208 23.6332C23.2172 23.6401 23.2283 23.6441 23.2396 23.6446C23.251 23.6451 23.2623 23.6421 23.272 23.6361Z" fill="black"/>
<path d="M34.3847 26.0399C35.1225 25.2443 36.2462 24.2039 37.3937 24.3416C37.9423 24.4085 38.1808 24.7366 38.1094 25.3259C38.0981 25.4188 38.1276 25.4341 38.1978 25.3718C38.8472 24.7955 39.7499 24.1461 40.5795 24.056C43.1618 23.7772 40.316 28.0051 39.9675 28.6732C39.7788 29.0319 39.6683 29.4314 40.1681 29.5691C40.2248 29.585 40.2786 29.5787 40.3296 29.5504C41.659 28.7922 42.9119 26.929 43.6599 25.6285C43.6762 25.5994 43.701 25.5762 43.7311 25.562C43.7611 25.5477 43.7949 25.5432 43.8278 25.5489C43.8607 25.5547 43.8911 25.5705 43.9149 25.5942C43.9388 25.6178 43.9548 25.6482 43.9608 25.6812C44.0209 26.0121 43.9682 26.3176 43.8027 26.5975C43.0054 27.9405 40.8447 31.0991 38.9441 30.5534C36.542 29.8649 40.9212 25.9974 39.9131 25.331C39.8644 25.2993 39.8111 25.2891 39.7533 25.3004C37.9751 25.6557 36.6032 28.4165 36.0847 29.9618C36.019 30.1613 36.0615 30.3301 36.2122 30.4684C36.2587 30.5126 36.2581 30.5557 36.2105 30.5976C35.8195 30.9433 35.42 31.111 35.012 31.1008C33.9563 31.077 34.4833 29.8224 34.7655 29.3362C35.3197 28.3785 35.8649 27.4158 36.4009 26.4479C36.6134 26.0671 36.4774 25.6115 35.9606 25.7849C34.1858 26.3748 32.7561 28.8993 32.2087 30.5585C32.1895 30.6163 32.2002 30.6684 32.241 30.7149L32.4365 30.9376C32.4875 30.9954 32.4813 31.0458 32.4178 31.0889C31.9112 31.4425 30.5478 31.8318 30.5869 30.7183C30.5903 30.6356 30.5586 30.6191 30.4917 30.669C29.5839 31.3524 26.4882 32.76 26.0598 30.8458C26.0568 30.8328 26.0504 30.8207 26.0413 30.8109C26.0322 30.8011 26.0207 30.794 26.008 30.7901C25.9953 30.7863 25.9819 30.786 25.9692 30.7892C25.9565 30.7924 25.9449 30.799 25.9357 30.8084C25.2557 31.4714 23.3262 32.7413 22.3759 32.063C21.9543 31.7604 21.8586 31.3416 22.0886 30.8067C22.6553 29.4852 23.4877 28.0074 24.5859 26.3731C24.6585 26.2666 24.6313 26.2229 24.5043 26.2422L23.2939 26.4224C23.282 26.424 23.2697 26.4225 23.2585 26.418C23.2473 26.4136 23.2374 26.4064 23.2299 26.3971C23.2223 26.3879 23.2174 26.3769 23.2155 26.3652C23.2136 26.3535 23.2149 26.3416 23.2191 26.3306C23.5302 25.4874 24.2629 25.3718 25.0619 25.4109C25.1288 25.4143 25.177 25.386 25.2064 25.3259L26.036 23.6616C26.0655 23.6015 26.057 23.5466 26.0105 23.4967C25.407 22.8592 28.1202 22.4223 27.4317 23.8554C27.2266 24.2804 27.0022 24.6952 26.7585 25.0998C26.7223 25.1587 26.7381 25.1888 26.8061 25.1899C27.3207 25.2024 27.8193 25.1315 28.3021 24.9774C28.3826 24.9513 28.4138 24.9791 28.3956 25.0607C28.1525 26.1147 27.0696 26.0161 26.2519 26.0994C26.1941 26.1051 26.1511 26.1334 26.1227 26.1844C25.2104 27.7745 24.4465 29.1566 23.8311 30.3307C23.6543 30.6684 23.6917 30.9325 23.9433 31.1229C23.9943 31.1614 24.0504 31.1699 24.1116 31.1484C24.7395 30.9331 25.2863 30.6027 25.7521 30.1573C25.9369 29.9794 26.1001 29.7187 26.2417 29.3753C27.0101 27.5138 28.7645 25.2868 30.8878 24.906C31.8058 24.7411 32.1951 25.4857 31.9384 26.2473C31.4573 27.6736 29.4411 28.5984 28.0505 28.7378C27.9927 28.7435 27.9497 28.7712 27.9213 28.8211C27.4266 29.6592 27.43 31.0277 28.8597 30.6452C30.1058 30.312 30.9082 29.6779 31.629 28.5338C31.8993 28.1054 33.7353 25.3429 33.159 25.0301C33.1413 25.0206 33.1265 25.0064 33.1163 24.989C33.1061 24.9717 33.1007 24.9519 33.1009 24.9318C33.1011 24.9117 33.1067 24.892 33.1173 24.8749C33.1278 24.8577 33.1429 24.8438 33.1607 24.8346C33.5738 24.6153 34.944 24.4249 34.672 25.3242C34.6403 25.4285 34.5338 25.6591 34.3524 26.0161C34.3082 26.1034 34.319 26.1113 34.3847 26.0399ZM30.9116 25.5622C29.9868 25.7968 28.9311 26.9953 28.3718 27.9439C28.3322 28.0108 28.3503 28.0368 28.4262 28.0221C29.2116 27.8708 31.4335 26.8831 31.3145 25.8393C31.3092 25.7933 31.2941 25.749 31.2702 25.7093C31.2463 25.6696 31.2142 25.6355 31.176 25.6093C31.1378 25.583 31.0945 25.5652 31.0489 25.5571C31.0033 25.549 30.9565 25.5507 30.9116 25.5622Z" fill="black"/>
<path d="M28.372 27.9439C28.9313 26.9953 29.987 25.7968 30.9118 25.5622C30.9567 25.5507 31.0035 25.549 31.0491 25.5571C31.0947 25.5652 31.138 25.583 31.1762 25.6093C31.2143 25.6355 31.2464 25.6696 31.2703 25.7093C31.2942 25.749 31.3093 25.7933 31.3147 25.8393C31.4337 26.8831 29.2118 27.8708 28.4264 28.0221C28.3504 28.0368 28.3323 28.0108 28.372 27.9439Z" fill="#BD9A5F"/>
<path fill-rule="evenodd" clip-rule="evenodd" d="M22.9556 13.3967C31.5339 10.2565 40.4345 15.4782 42.8998 24.157C42.9029 24.1681 42.9087 24.1781 42.9168 24.1861C42.9249 24.1941 42.9349 24.1998 42.9458 24.2025C42.9567 24.2053 42.9681 24.2051 42.9789 24.2019C42.9897 24.1988 42.9995 24.1927 43.0073 24.1844C43.0454 24.1445 43.0543 24.0845 43.0342 24.0046C41.9426 19.7925 39.5819 16.5512 35.9523 14.2807C26.8635 8.59129 14.7402 14.0939 12.7854 24.7241C12.5369 26.0752 12.4506 27.4857 12.5268 28.9556C12.5301 29.0355 12.5665 29.0561 12.6359 29.0173C12.7011 28.9811 12.691 28.7546 12.6852 28.6261C12.6841 28.6023 12.6832 28.5819 12.683 28.5667C12.6124 21.7363 16.6312 15.7112 22.9556 13.3967ZM42.8292 31.832C39.1111 45.4413 21.696 47.6204 14.5957 35.5649C14.5903 35.5559 14.5825 35.5486 14.5732 35.5439C14.5639 35.5393 14.5535 35.5375 14.5432 35.5387C14.5329 35.54 14.5231 35.5443 14.5152 35.5511C14.5072 35.5578 14.5013 35.5668 14.4983 35.5769C14.4646 35.6812 14.5007 35.7257 14.5424 35.7772C14.5589 35.7976 14.5763 35.8191 14.5906 35.8459C15.9464 38.4156 17.8441 40.4195 20.2837 41.8574C30.2491 47.7284 42.8057 40.8929 43.4959 29.1492C43.5127 28.8477 43.4774 28.8414 43.3901 29.1303C43.2375 29.6342 43.1359 30.2231 43.0433 30.7595C42.9728 31.1677 42.9076 31.5454 42.8292 31.832Z" fill="black"/>
<path d="M25.5 36C25.5 36.1313 25.4741 36.2614 25.4239 36.3827C25.3736 36.504 25.3 36.6142 25.2071 36.7071C25.1142 36.8 25.004 36.8736 24.8827 36.9239C24.7614 36.9741 24.6313 37 24.5 37C24.2348 37 23.9804 36.8946 23.7929 36.7071C23.6054 36.5196 23.5 36.2652 23.5 36C23.5 35.7348 23.6054 35.4804 23.7929 35.2929C23.9804 35.1054 24.2348 35 24.5 35C24.6313 35 24.7614 35.0259 24.8827 35.0761C25.004 35.1264 25.1142 35.2 25.2071 35.2929C25.3 35.3858 25.3736 35.496 25.4239 35.6173C25.4741 35.7386 25.5 35.8687 25.5 36ZM25.0459 36C25.0459 35.8565 24.9889 35.7188 24.8874 35.6174C24.7859 35.5159 24.6483 35.4589 24.5047 35.4589C24.3612 35.4589 24.2236 35.5159 24.1221 35.6174C24.0206 35.7188 23.9636 35.8565 23.9636 36C23.9636 36.0711 23.9776 36.1414 24.0048 36.2071C24.032 36.2727 24.0719 36.3324 24.1221 36.3826C24.1724 36.4329 24.232 36.4728 24.2977 36.4999C24.3633 36.5271 24.4337 36.5411 24.5047 36.5411C24.5758 36.5411 24.6462 36.5271 24.7118 36.4999C24.7775 36.4728 24.8371 36.4329 24.8874 36.3826C24.9376 36.3324 24.9775 36.2727 25.0047 36.2071C25.0319 36.1414 25.0459 36.0711 25.0459 36Z" fill="black"/>
<path d="M33.4882 35.96L33.4561 35.1388C33.4558 35.1319 33.4573 35.1251 33.4604 35.1186C33.4635 35.1122 33.4682 35.1064 33.4742 35.1015C33.4802 35.0966 33.4874 35.0926 33.4953 35.09C33.5032 35.0873 33.5117 35.0859 33.5203 35.0859H33.9226C33.9396 35.0859 33.9559 35.0913 33.968 35.101C33.98 35.1106 33.9868 35.1236 33.9868 35.1372L34 36.9487C34 36.9587 33.9963 36.9684 33.9895 36.9768C33.9827 36.9851 33.973 36.9917 33.9616 36.9957C33.9502 36.9997 33.9375 37.0009 33.9253 36.9993C33.913 36.9977 33.9015 36.9932 33.8923 36.9865L32.6138 35.9675C32.6046 35.9601 32.5928 35.9552 32.58 35.9533C32.5672 35.9514 32.554 35.9527 32.5421 35.9569C32.5302 35.9612 32.5202 35.9682 32.5135 35.9771C32.5067 35.986 32.5035 35.9964 32.5042 36.0068L32.5382 36.9428C32.5395 36.9764 32.5035 36.9957 32.474 36.9957H32.0642C32.0352 36.9957 32 36.9772 32 36.9444L32 35.0512C32 35.0411 32.0038 35.0312 32.0109 35.0228C32.0179 35.0143 32.0279 35.0078 32.0397 35.0039C32.0514 35 32.0643 34.999 32.0767 35.001C32.0891 35.0029 32.1006 35.0078 32.1095 35.015L33.3805 35.9992C33.3898 36.006 33.4015 36.0105 33.4139 36.0121C33.4264 36.0137 33.4392 36.0123 33.4507 36.0081C33.4621 36.0039 33.4718 35.9971 33.4785 35.9886C33.4852 35.98 33.4886 35.9701 33.4882 35.96Z" fill="black"/>
<path d="M36.0308 36.3928C35.9339 36.3067 35.7044 36.2541 35.7775 36.0708C35.799 36.0156 35.8415 35.9879 35.905 35.9879H36.4575C36.5142 35.9879 36.5425 36.0145 36.5425 36.0676V36.7355C36.5425 36.7823 36.5204 36.8152 36.4762 36.8344C34.579 37.6617 33.9908 35.1272 35.7112 35.0028C35.9877 34.9837 36.2308 35.0613 36.4405 35.2356C36.4579 35.2502 36.4716 35.2683 36.4803 35.2886C36.4891 35.3089 36.4929 35.3308 36.4912 35.3526C36.4896 35.3745 36.4826 35.3957 36.4709 35.4147C36.4591 35.4336 36.4429 35.4498 36.4235 35.4619C36.1651 35.6245 36.1719 35.5145 35.9424 35.4667C34.851 35.2388 35.1604 36.9125 36.0104 36.514C36.0784 36.4821 36.0852 36.4417 36.0308 36.3928Z" fill="black"/>
<path d="M37.731 35.4443C37.7111 35.4613 37.6965 35.4832 37.6887 35.5075C37.681 35.5318 37.6804 35.5577 37.6871 35.5823C37.6937 35.6069 37.7073 35.6294 37.7264 35.6472C37.7456 35.665 37.7695 35.6776 37.7956 35.6836C38.1923 35.7778 38.479 35.9936 38.6558 36.3309C38.683 36.3833 38.6847 36.4369 38.6609 36.4915C38.2903 37.309 36.9626 37.0055 37.3298 36.5236C37.3627 36.4797 37.4074 36.4615 37.4641 36.469C37.6222 36.4899 38.1152 36.7677 38.0948 36.4256C38.0912 36.3718 38.0697 36.3205 38.0334 36.279C37.9971 36.2374 37.9477 36.2078 37.8925 36.1944C36.7382 35.9085 37.1972 34.6653 38.3923 35.0861C38.4242 35.0974 38.4531 35.1151 38.4769 35.138C38.5008 35.161 38.519 35.1886 38.5304 35.2189C38.5417 35.2492 38.5459 35.2815 38.5426 35.3135C38.5393 35.3455 38.5286 35.3764 38.5113 35.4041C38.2801 35.7768 38.0574 35.168 37.731 35.4443Z" fill="black"/>
<path d="M22.453 35.6775L22.4381 35.0961C22.4379 35.0837 22.4404 35.0714 22.4456 35.0598C22.4508 35.0483 22.4586 35.0377 22.4684 35.0288C22.4783 35.0199 22.49 35.0128 22.503 35.0078C22.516 35.0029 22.53 35.0002 22.5442 35H22.8921C22.9063 35 22.9203 35.0024 22.9334 35.0072C22.9465 35.0119 22.9584 35.0189 22.9684 35.0277C22.9784 35.0364 22.9864 35.0469 22.9918 35.0583C22.9972 35.0698 23 35.0821 23 35.0945V36.9005C23 36.9129 22.9972 36.9252 22.9918 36.9367C22.9864 36.9481 22.9784 36.9586 22.9684 36.9673C22.9584 36.9761 22.9465 36.9831 22.9334 36.9878C22.9203 36.9925 22.9063 36.995 22.8921 36.995H22.5665C22.5522 36.995 22.538 36.9925 22.5248 36.9876C22.5116 36.9828 22.4996 36.9757 22.4895 36.9667C22.4795 36.9578 22.4716 36.9472 22.4663 36.9355C22.461 36.9239 22.4584 36.9114 22.4586 36.8989L22.4698 36.2768C22.47 36.2643 22.4674 36.2518 22.4621 36.2401C22.4568 36.2285 22.4489 36.2179 22.4388 36.2089C22.4288 36.2 22.4168 36.1929 22.4036 36.1881C22.3904 36.1832 22.3762 36.1807 22.3619 36.1807H21.6084C21.5936 36.1807 21.5789 36.1833 21.5653 36.1885C21.5517 36.1936 21.5394 36.2012 21.5293 36.2106C21.5192 36.2201 21.5114 36.2313 21.5064 36.2435C21.5015 36.2558 21.4994 36.2687 21.5005 36.2817L21.5507 36.8826C21.5517 36.8952 21.5498 36.9077 21.5452 36.9196C21.5406 36.9316 21.5333 36.9425 21.5238 36.9519C21.5142 36.9613 21.5027 36.969 21.4897 36.9744C21.4768 36.9798 21.4627 36.983 21.4484 36.9836L21.1135 36.9999C21.0989 37.0005 21.0842 36.9986 21.0705 36.9941C21.0567 36.9897 21.0442 36.9828 21.0336 36.974C21.0229 36.9652 21.0145 36.9545 21.0087 36.9427C21.0029 36.9309 21 36.9182 21 36.9054V35.0945C21 35.0821 21.0028 35.0698 21.0082 35.0583C21.0136 35.0469 21.0216 35.0364 21.0316 35.0277C21.0416 35.0189 21.0535 35.0119 21.0666 35.0072C21.0797 35.0024 21.0937 35 21.1079 35H21.4465C21.4615 35 21.4763 35.0026 21.4901 35.0079C21.5038 35.0131 21.5161 35.0208 21.5263 35.0305C21.5365 35.0401 21.5442 35.0515 21.549 35.0639C21.5539 35.0764 21.5557 35.0895 21.5544 35.1026L21.4986 35.671C21.4973 35.684 21.4991 35.6972 21.504 35.7096C21.5088 35.722 21.5166 35.7334 21.5267 35.7431C21.5369 35.7527 21.5492 35.7604 21.563 35.7657C21.5767 35.7709 21.5915 35.7736 21.6065 35.7736H22.347C22.3611 35.7734 22.3751 35.7707 22.3881 35.7658C22.4011 35.7608 22.4129 35.7537 22.4227 35.7448C22.4326 35.7358 22.4403 35.7253 22.4455 35.7138C22.4507 35.7022 22.4533 35.6899 22.453 35.6775Z" fill="black"/>
<path d="M26.5712 36.6016L27.1509 36.5331C27.1619 36.5317 27.1731 36.5325 27.1838 36.5356C27.1945 36.5386 27.2044 36.5438 27.2129 36.5507C27.2213 36.5576 27.2282 36.5661 27.2331 36.5757C27.2379 36.5854 27.2406 36.5959 27.241 36.6065L27.2478 36.9216C27.248 36.9318 27.2461 36.942 27.2422 36.9515C27.2383 36.961 27.2324 36.9697 27.225 36.977C27.2176 36.9843 27.2087 36.99 27.1989 36.994C27.1891 36.998 27.1785 37 27.1679 37H26.1003C26.0791 37 26.0588 36.9919 26.0438 36.9775C26.0288 36.9631 26.0204 36.9436 26.0204 36.9233L26 35.0767C26 35.0564 26.0084 35.0369 26.0234 35.0225C26.0384 35.0081 26.0587 35 26.0799 35H26.4012C26.4224 35 26.4427 35.0081 26.4577 35.0225C26.4727 35.0369 26.4811 35.0564 26.4811 35.0767V36.5265C26.4812 36.5374 26.4838 36.548 26.4885 36.5578C26.4933 36.5676 26.5001 36.5764 26.5086 36.5835C26.5171 36.5906 26.5271 36.5959 26.5379 36.599C26.5487 36.6021 26.56 36.603 26.5712 36.6016Z" fill="black"/>
<path d="M28.0037 35.0359C28.0037 35.0263 28.008 35.0172 28.0157 35.0105C28.0233 35.0038 28.0337 35 28.0445 35L28.8007 35.0016C29.1193 35.0021 29.4245 35.1035 29.6494 35.2836C29.8743 35.4636 30.0004 35.7075 30 35.9617V36.0432C29.9998 36.1691 29.9685 36.2937 29.9079 36.4099C29.8473 36.5261 29.7587 36.6316 29.647 36.7205C29.5353 36.8093 29.4027 36.8798 29.2569 36.9277C29.111 36.9757 28.9548 37.0002 28.797 37L28.0408 36.9984C28.03 36.9984 28.0196 36.9946 28.0119 36.9879C28.0043 36.9811 28 36.972 28 36.9625L28.0037 35.0359ZM28.5134 35.5053L28.5171 36.4833C28.5171 36.5075 28.5281 36.5307 28.5475 36.5478C28.567 36.565 28.5934 36.5746 28.6209 36.5746H28.7451C28.9311 36.5741 29.1092 36.5171 29.2406 36.416C29.3719 36.3148 29.4457 36.1778 29.4458 36.035V35.9535C29.4458 35.8826 29.4276 35.8123 29.3922 35.7467C29.3568 35.6811 29.3049 35.6216 29.2395 35.5714C29.1741 35.5213 29.0964 35.4816 29.0109 35.4546C28.9254 35.4276 28.8339 35.4138 28.7414 35.414H28.6172C28.5897 35.414 28.5633 35.4236 28.5438 35.4408C28.5244 35.4579 28.5134 35.4811 28.5134 35.5053Z" fill="black"/>
<path d="M30.9357 35.0008L30.5643 35.0001C30.5288 35.0001 30.5 35.0264 30.4999 35.059L30.4966 36.941C30.4966 36.9736 30.5253 37 30.5608 37.0001L30.9322 37.0008C30.9677 37.0008 30.9966 36.9744 30.9966 36.9419L30.9999 35.0599C31 35.0273 30.9712 35.0008 30.9357 35.0008Z" fill="black"/>
</svg>
