<!-- by TradingView --><svg width="56" height="56" viewBox="0 0 56 56" xmlns="http://www.w3.org/2000/svg"><path fill="#F0F3FA" d="M0 0h56v56H0z"/><path fill-rule="evenodd" d="M30.46 13 42 17.42 35.4 45 11 29.05l4.74-10.7L30.46 13Zm-13.6 8.36L14 27.79l8.14.75-5.29-7.18Zm9.33 8.93 6.73 8.84-1.59-10.68-5.14 1.84Zm7.26-2.96 1.48 9.97 3.7-15.47-5.18 5.5Zm5.36-8.88-6.98-2.67 1.23 8.78 5.75-6.11Zm-7.79 7.88-6.16 2.2-6.53-8.88 11.19-4.07 1.5 10.75ZM29.98 38.9 23.8 30.8l-7.27-.68 13.45 8.8Z" fill="url(#ajmjwqz1o)"/><defs><linearGradient id="ajmjwqz1o" x1="11" y1="29" x2="41.09" y2="15.91" gradientUnits="userSpaceOnUse"><stop stop-color="#853CFD"/><stop offset=".38" stop-color="#5278FF"/><stop offset=".54" stop-color="#22A8FF"/><stop offset=".72" stop-color="#27C9C7"/><stop offset="1" stop-color="#32F971"/></linearGradient></defs></svg>