<!-- by TradingView --><svg width="56" height="56" viewBox="0 0 56 56" xmlns="http://www.w3.org/2000/svg"><path fill="#F0F3FA" d="M0 0h56v56H0z"/><path d="M28 30a2 2 0 1 0 0-4 2 2 0 0 0 0 4Z"/><path d="M38.94 22.4c-.5-6.61-3.8-12.13-8.12-14.4-1.23 1.86-4.3 7.19-2.93 12.6.4 1.65 1.2 3.1 2.03 4.64 1.83 3.44 3.86 7.28 1.86 13.24 4.63-2.33 7.7-8.76 7.16-16.07ZM17.1 33.75c.64 6.62 4.06 12.08 8.42 14.25 1.2-1.9 4.17-7.28 2.67-12.67-.43-1.64-1.27-3.09-2.1-4.6-1.9-3.4-4.03-7.19-2.16-13.21-4.6 2.49-7.53 8.95-6.83 16.23Z" fill="#EE7623"/></svg>