<!-- by TradingView --><svg width="56" height="56" viewBox="0 0 56 56" xmlns="http://www.w3.org/2000/svg"><path fill="#F0F3FA" d="M0 0h56v56H0z"/><path d="m12 26.47 17.39 8.37c1.64-.27 3.78-1.99 4.65-2.81l-16.68-8.04c1.57-3.07 4.47-7.36 10.58-7.36 4.88 0 8.19 3.25 9.23 4.88h5.29C41.06 18.34 36.19 12 27.94 12 16.4 12 12.5 21.65 12 26.47Z" fill="url(#a4mbgdrpn)"/><path d="m12.05 26.5.77-.29c.73-4.48 4.74-13.43 14.9-13.43 5.66 0 10.02 2.74 13.06 5.93C38.43 15.6 34.14 12 27.94 12 16.4 12 12.5 21.65 12 26.47l.05.03Z" fill="#92C3E1"/><path d="m37.19 21.51.35-.71c-3.6-4.34-7.19-4.69-9.3-4.69-7.72 0-11.15 5.49-11.9 8.23l16.15 7.7h1.55v-.01l-16.68-8.04c1.57-3.07 4.47-7.36 10.58-7.36 4.88 0 8.19 3.25 9.23 4.88h.02Z" fill="url(#b4mbgdrpn)"/><path d="M29.39 34.84 12 26.47l.03-.29h.8l16.86 8.1-.08.51-.22.05ZM42.43 21.45l-1.06-.64h-3.85l-.31.7h5.25a6.13 6.13 0 0 0-.03-.06Z" fill="#013B69"/><path d="m44 29.53-17.39-8.37c-1.64.27-3.78 1.99-4.65 2.81l16.68 8.04c-1.57 3.07-4.47 7.36-10.58 7.36-4.88 0-8.19-3.25-9.23-4.88h-5.29c1.4 3.17 6.27 9.51 14.52 9.51C39.6 44 43.5 34.35 44 29.53Z" fill="url(#c4mbgdrpn)"/><path d="m43.95 29.5-.77.29c-.73 4.48-4.74 13.43-14.9 13.43-5.66 0-10.02-2.74-13.06-5.93C17.57 40.4 21.86 44 28.06 44 39.6 44 43.5 34.35 44 29.53l-.05-.03Z" fill="#6F7072"/><path d="m18.81 34.49-.35.71c3.6 4.34 7.19 4.69 9.3 4.69 7.72 0 11.15-5.49 11.9-8.23l-16.15-7.7h-1.55v.01l16.68 8.04c-1.57 3.07-4.47 7.36-10.58 7.36-4.88 0-8.19-3.25-9.23-4.88h-.02Z" fill="#A0A1A3"/><path d="M26.61 21.16 44 29.53l-.03.29h-.8l-16.86-8.1.08-.51.22-.05Z" fill="#F4F4F4"/><path d="m13.57 34.55 1.06.64h3.85l.31-.7h-5.25l.03.06Z" fill="#B0B0B0"/><defs><linearGradient id="a4mbgdrpn" x1="14.45" y1="23.42" x2="34.09" y2="31.31" gradientUnits="userSpaceOnUse"><stop stop-color="#1C85C7"/><stop offset=".42" stop-color="#4F81C0"/><stop offset="1" stop-color="#0E6AAB"/></linearGradient><linearGradient id="b4mbgdrpn" x1="27.31" y1="25.79" x2="23.48" y2="16.34" gradientUnits="userSpaceOnUse"><stop offset=".49" stop-color="#A2DCFF"/><stop offset="1" stop-color="#314E78"/></linearGradient><linearGradient id="c4mbgdrpn" x1="41.55" y1="32.58" x2="21.91" y2="24.69" gradientUnits="userSpaceOnUse"><stop offset=".06" stop-color="#ABABAB"/><stop offset=".5" stop-color="#F9FFFF"/><stop offset="1" stop-color="#B9BABC"/></linearGradient></defs></svg>