<!-- by TradingView --><svg width="56" height="56" viewBox="0 0 56 56" xmlns="http://www.w3.org/2000/svg"><path fill="#F0F3FA" d="M0 0h56v56H0z"/><path d="M17.12 14h8.75a2.13 2.13 0 0 1 1.51.68 2.5 2.5 0 0 1 .63 1.65v2.54a2.27 2.27 0 0 1-.74 1.67c-.35.31-.79.46-1.25.46h-3.01a1.9 1.9 0 0 0-1.38.65c-.37.4-.63.94-.63 1.5v2.71c0 .28.1.56.2.82.1.26.24.5.43.7a1.82 1.82 0 0 0 1.39.62h2.98c.52 0 1.02.22 1.39.62.36.4.61.95.61 1.51v2.77c0 .56-.25 1.1-.61 1.5-.37.4-.87.6-1.39.6H22.9c-.43 0-.85.19-1.2.47-.33.29-.58.68-.69 1.14v3.26l-.03.4c-.09.48-.33.92-.68 1.24-.35.32-.8.49-1.25.49h-2.08c-.52 0-1.02-.22-1.39-.63-.36-.4-.57-.94-.57-1.5V16.3c0-.61.22-1.2.62-1.63.4-.44.94-.68 1.5-.68Zm21.76 28h-8.75a2.13 2.13 0 0 1-1.51-.68 2.5 2.5 0 0 1-.63-1.64v-2.54a2.27 2.27 0 0 1 .74-1.67c.35-.31.79-.47 1.25-.47h3.04a1.9 1.9 0 0 0 1.39-.64c.36-.4.59-.94.59-1.5v-2.72a2.32 2.32 0 0 0-.6-1.51 1.82 1.82 0 0 0-1.38-.62H30c-.52 0-1.02-.23-1.39-.63-.36-.4-.61-.95-.61-1.51V23.1c0-.56.25-1.1.61-1.5.37-.4.87-.6 1.39-.6h3.11c.43 0 .85-.19 1.2-.47.33-.29.58-.68.69-1.14v-3.26l.03-.4c.09-.48.33-.92.68-1.24.35-.32.8-.49 1.25-.49h2.08c.52 0 1.02.22 1.39.63.36.4.57.94.57 1.5V39.7c0 .61-.22 1.2-.62 1.63-.4.44-.94.68-1.5.68Z" fill="#33803E"/></svg>