<!-- by TradingView --><svg xmlns="http://www.w3.org/2000/svg" width="56" height="56" viewBox="0 0 56 56"><path fill="url(#a0gaawkkj)" d="M0 0h56v56H0z"/><path d="M4 29v.24C4 30.25 4.43 32 8.17 32h.65c3.59 0 4.18-1.31 4.18-2.59v-.14c0-1.54-1.08-2.24-3.76-2.3l-1.2-.02c-1.46-.02-1.85-.27-1.85-.6 0-.31.33-.73 2.05-.73h.15c1.86 0 2.03.62 2.06.92h2.32v-.1c0-1.16-.77-2.44-4.14-2.44h-.66c-3.23 0-3.87 1.2-3.87 2.36v.1c0 1.2.81 2.17 3.47 2.26l1.23.03c1.64.04 2.1.33 2.1.78 0 .42-.45.82-2.32.82h-.14c-1.84 0-2.08-.9-2.11-1.35H4zm10 3h2v-8h-2v8zm11-8v1.46L20.46 30H25v2h-8v-1.47L21.57 26H17v-2h8zm9 1.46V24h-8v2h4.57L26 30.53V32h8v-2h-4.54L34 25.46zM37 24v6h5v2h-7v-8h2zm14 2v-2h-8v8h8v-2h-6v-1h6v-2h-6v-1h6z" fill="#fff"/><defs><linearGradient id="a0gaawkkj" x1="10.42" y1="9.71" x2="68.15" y2="76.02" gradientUnits="userSpaceOnUse"><stop stop-color="#1A1E21"/><stop offset="1" stop-color="#06060A"/></linearGradient></defs></svg>