<!-- by TradingView --><svg width="56" height="56" viewBox="0 0 56 56" xmlns="http://www.w3.org/2000/svg"><path fill="#F0F3FA" d="M0 0h56v56H0z"/><circle cx="22" cy="16" r="3" fill="#00BAD2"/><circle cx="15" cy="27" r="3" fill="#E47D46"/><circle cx="36" cy="17" r="3" fill="#006A8F"/><circle cx="41" cy="30" r="3" fill="#00BAD2"/><ellipse cx="28.03" cy="28.08" rx="3.13" ry="3.07" fill="#00BAD2"/><circle cx="16" cy="34" r="2" fill="#006A8F"/><circle cx="27" cy="42" r="2" fill="#E47D46"/><circle cx="40" cy="36" r="2" fill="#006A8F"/><circle cx="40" cy="22" r="2" fill="#00BAD2"/><circle cx="29" cy="14" r="2" fill="#E47D46"/><circle cx="16" cy="20" r="2" fill="#00BAD2"/><circle cx="21" cy="39" r="3" fill="#00BAD2"/><circle cx="34" cy="40" r="3" fill="#006A8F"/><circle cx="27.5" cy="35.5" r="2.5" fill="#006A8F"/><circle cx="21.5" cy="31.5" r="2.5" fill="#E47D46"/><circle cx="34.5" cy="32.5" r="2.5" fill="#E47D46"/><circle cx="35" cy="25" r="2" fill="#006A8F"/><circle cx="21.5" cy="23.5" r="2.5" fill="#006A8F"/><circle cx="28.5" cy="20.5" r="2.5" fill="#00BAD2"/></svg>