<!-- by TradingView --><svg width="56" height="56" viewBox="0 0 56 56" xmlns="http://www.w3.org/2000/svg"><path fill="#F0F3FA" d="M0 0h56v56H0z"/><path fill-rule="evenodd" d="M13.13 18a2.96 2.96 0 0 0-2.95 2.51L8.02 35.74a2 2 0 0 0 2 2.26h15.46l2.41-16.99A2.67 2.67 0 0 0 25.22 18h-12.1Zm1.6 3c-.85 0-1.57.53-1.7 1.25l-2.01 11.33c-.14.75.53 1.42 1.4 1.42h10.32l2.24-12.58c.14-.75-.53-1.42-1.4-1.42h-8.85Z" fill="#EF4643"/><path d="M19.41 22H22l-.14 1H24l-.4 3h-2.16l-.92 6.52c-.09.61-.56 1.1-1.15 1.17L17 34v-.88c0-.72.3-1.4.82-1.88l.2-.2.67-4.4c-.03-.06-.13-.15-.27-.16L15.46 34H12l3.35-8H14l.4-3h4.81l.2-1ZM30.48 20H48l-.48 3H30l.48-3Z" fill="#EF4643"/><path d="M29.26 27.43 35.28 18h3.32L33 27h14.1l-.57 3H30.76c-1.37 0-2.22-1.44-1.5-2.57Z" fill="#EF4643"/><path d="M37.34 24H41l-2.34 14H35l2.34-14Z" fill="#EF4643"/><path d="M28.6 32H46l-.23 1.16A2.36 2.36 0 0 1 43.42 35H28l.6-3Z" fill="#EF4643"/></svg>