<!-- by TradingView --><svg width="56" height="56" viewBox="0 0 56 56" xmlns="http://www.w3.org/2000/svg"><path fill="#F0F3FA" d="M0 0h56v56H0z"/><path d="M25.67 10.55c0 .31-.25.56-.57.56a.56.56 0 0 1-.56-.55c0-.31.25-.56.56-.56.32 0 .57.25.57.55Zm4.1 2.2c0 .4-.33.74-.75.74a.75.75 0 0 1-.76-.74c0-.41.34-.74.76-.74s.76.33.76.74Zm-3.69 4c.54 0 .98-.42.98-.95a.97.97 0 0 0-.98-.95.97.97 0 0 0-.98.95c0 .53.44.96.98.96Zm2.05 3.32c.74 0 1.34-.59 1.34-1.31 0-.73-.6-1.32-1.34-1.32-.74 0-1.35.6-1.35 1.32 0 .72.6 1.31 1.35 1.31Zm6.71-4.97c.42 0 .76-.34.76-.75a.75.75 0 0 0-.76-.74.75.75 0 0 0-.76.74c0 .41.34.75.76.75Zm5.94 2.4c0 .4-.34.74-.76.74a.75.75 0 0 1-.76-.74c0-.41.34-.74.76-.74s.76.33.76.74Zm2.4 5.94c.42 0 .76-.33.76-.74a.75.75 0 0 0-.76-.75.75.75 0 0 0-.76.75c0 .4.34.74.76.74Zm1.71 5.04c0 .4-.34.74-.76.74a.75.75 0 0 1-.75-.74c0-.41.34-.74.75-.74.42 0 .76.33.76.74Zm-2.15 6.73c.41 0 .75-.33.75-.74a.75.75 0 0 0-.75-.74.75.75 0 0 0-.76.74c0 .41.34.74.76.74Zm-2.93 4.13c0 .4-.34.74-.76.74a.75.75 0 0 1-.76-.74c0-.41.34-.75.76-.75s.76.34.76.75Zm-5.92 3.7c.42 0 .76-.33.76-.74a.75.75 0 0 0-.76-.74.75.75 0 0 0-.76.74c0 .4.34.74.76.74Zm-5 .32c0 .4-.34.74-.76.74a.75.75 0 0 1-.76-.74c0-.41.34-.74.76-.74s.76.33.76.74Zm-7.1-.32c.41 0 .75-.33.75-.74a.75.75 0 0 0-.76-.74.75.75 0 0 0-.75.74c0 .4.34.74.75.74Zm-4.22-4.6c0 .4-.34.74-.76.74a.75.75 0 0 1-.76-.74c0-.41.34-.75.76-.75s.76.34.76.75Zm-3.7-4.18c.43 0 .77-.33.77-.74a.75.75 0 0 0-.76-.74.75.75 0 0 0-.76.74c0 .41.34.74.76.74Zm-.41-6.9c0 .42-.34.75-.76.75a.75.75 0 0 1-.76-.74c0-.41.34-.75.76-.75s.76.34.76.75Zm.76-4.85c.42 0 .76-.33.76-.74a.75.75 0 0 0-.76-.75.75.75 0 0 0-.76.75c0 .4.34.74.76.74Zm4.23-5.8c0 .4-.34.73-.75.73a.75.75 0 0 1-.76-.74c0-.4.34-.74.75-.74.42 0 .76.33.76.74Zm4.31-2.36c.42 0 .76-.33.76-.74a.75.75 0 0 0-.76-.74.75.75 0 0 0-.76.74c0 .41.34.74.76.74Zm9.56-3.07c.31 0 .57-.25.57-.56 0-.3-.26-.55-.57-.55a.56.56 0 0 0-.57.55c0 .3.26.56.57.56Zm6.94 2.52c0 .3-.26.55-.57.55a.56.56 0 0 1-.57-.55c0-.3.26-.56.57-.56.31 0 .57.25.57.56Zm-20.8-.19c.3 0 .56-.25.56-.55 0-.31-.25-.56-.57-.56a.56.56 0 0 0-.56.56c0 .3.25.55.56.55ZM14.21 18c0 .3-.26.55-.57.55a.56.56 0 0 1-.57-.55c0-.3.25-.56.57-.56.31 0 .57.25.57.56Zm-3.65 6.72c.31 0 .57-.25.57-.56 0-.3-.26-.55-.57-.55a.56.56 0 0 0-.57.55c0 .3.25.56.57.56Zm.57 6.58c0 .3-.26.56-.57.56a.56.56 0 0 1-.57-.56c0-.3.25-.55.57-.55.31 0 .57.25.57.55Zm1.98 6.95c.31 0 .57-.25.57-.56 0-.3-.26-.55-.57-.55a.56.56 0 0 0-.57.55c0 .31.26.56.57.56Zm5.5 4.6c0 .31-.26.56-.57.56a.56.56 0 0 1-.57-.56c0-.3.26-.55.57-.55.31 0 .57.25.57.55ZM24.88 46c.32 0 .57-.25.57-.55 0-.31-.25-.56-.57-.56a.56.56 0 0 0-.56.55c0 .31.25.56.56.56Zm7.47-.55c0 .3-.25.55-.56.55a.56.56 0 0 1-.57-.55c0-.31.25-.56.57-.56.31 0 .56.25.56.55Zm5.94-1.85c.31 0 .56-.25.56-.56 0-.3-.25-.55-.56-.55a.56.56 0 0 0-.57.55c0 .3.25.56.57.56Zm5.77-5.35c0 .3-.25.55-.57.55a.56.56 0 0 1-.56-.55c0-.3.25-.56.56-.56.32 0 .57.25.57.56Zm2.06-6c.31 0 .57-.25.57-.56 0-.3-.26-.56-.57-.56a.56.56 0 0 0-.57.56c0 .3.25.55.57.55Zm.88-7.18c0 .31-.25.56-.57.56a.56.56 0 0 1-.57-.55c0-.31.26-.56.57-.56.32 0 .57.25.57.55Zm-3.43-6.05c.31 0 .56-.24.56-.55 0-.3-.25-.56-.56-.56a.56.56 0 0 0-.57.56c0 .3.25.55.57.55Zm-11.63-2.97c0 .53-.44.95-.98.95a.97.97 0 0 1-.97-.95c0-.53.44-.96.97-.96.54 0 .98.43.98.96Zm3.66 2.7c.54 0 .98-.42.98-.95a.97.97 0 0 0-.98-.95.97.97 0 0 0-.98.95c0 .53.44.96.98.96Zm4.68 2.63c0 .53-.44.96-.98.96a.97.97 0 0 1-.98-.96c0-.52.44-.95.98-.95s.98.43.98.95Zm.72 5.6c.54 0 .98-.42.98-.95a.97.97 0 0 0-.98-.96.97.97 0 0 0-.98.96c0 .53.44.95.98.95Zm.98 3.95c0 .53-.44.95-.98.95a.97.97 0 0 1-.98-.95c0-.53.44-.95.98-.95s.98.42.98.95Zm-2.93 5.45c.54 0 .97-.43.97-.95a.97.97 0 0 0-.97-.96.97.97 0 0 0-.98.96c0 .52.44.95.98.95Zm-2.69 2.57c0 .53-.43.96-.97.96a.97.97 0 0 1-.98-.96c0-.52.44-.95.98-.95s.97.43.97.95Zm-5.4 2.87c.54 0 .98-.43.98-.96a.97.97 0 0 0-.98-.95.97.97 0 0 0-.97.95c0 .53.44.96.97.96Zm-4.32-.96c0 .53-.44.96-.98.96a.97.97 0 0 1-.98-.96c0-.52.44-.95.98-.95s.98.43.98.95Zm-5.77-1.26c.54 0 .98-.43.98-.95a.97.97 0 0 0-.98-.96.97.97 0 0 0-.98.96c0 .52.44.95.98.95Zm-2.33-4.38c0 .52-.43.95-.97.95a.97.97 0 0 1-.98-.95c0-.53.44-.96.98-.96s.97.43.97.96Zm-2.93-3.52c.54 0 .98-.43.98-.95a.97.97 0 0 0-.98-.96.97.97 0 0 0-.97.96c0 .52.44.95.97.95Zm.98-6.03c0 .53-.44.95-.98.95a.97.97 0 0 1-.97-.95c0-.53.44-.95.97-.95.54 0 .98.42.98.95Zm.71-3.7c.54 0 .98-.42.98-.95a.97.97 0 0 0-.98-.95.97.97 0 0 0-.98.95c0 .53.44.96.98.96Zm4.7-4.26c0 .53-.43.95-.97.95a.97.97 0 0 1-.98-.95c0-.53.44-.95.98-.95s.97.42.97.95Zm6.13 22.2c.74 0 1.34-.59 1.34-1.32 0-.72-.6-1.3-1.34-1.3-.74 0-1.35.58-1.35 1.3 0 .73.6 1.32 1.35 1.32Zm5.16-20.68c0 .72-.6 1.31-1.35 1.31-.74 0-1.34-.59-1.34-1.31 0-.73.6-1.32 1.34-1.32.74 0 1.35.6 1.35 1.32Zm-8.97 1.31c-.75 0-1.35-.59-1.35-1.31 0-.73.6-1.32 1.35-1.32.74 0 1.34.6 1.34 1.32 0 .72-.6 1.31-1.34 1.31Zm12.26.84c0 .73-.6 1.32-1.35 1.32-.74 0-1.34-.6-1.34-1.32 0-.72.6-1.31 1.34-1.31.74 0 1.35.59 1.35 1.31ZM20.62 22.7c-.74 0-1.34-.6-1.34-1.32 0-.72.6-1.31 1.34-1.31.75 0 1.35.59 1.35 1.31 0 .73-.6 1.32-1.35 1.32Zm18.12 2.02c0 .72-.6 1.3-1.34 1.3-.74 0-1.35-.58-1.35-1.3 0-.73.6-1.32 1.35-1.32.74 0 1.34.6 1.34 1.32Zm-20.12 1.3c-.74 0-1.35-.58-1.35-1.3 0-.73.6-1.32 1.35-1.32.74 0 1.34.6 1.34 1.32 0 .72-.6 1.3-1.34 1.3Zm21.05 2.46c0 .73-.6 1.31-1.35 1.31-.74 0-1.34-.58-1.34-1.31 0-.73.6-1.31 1.34-1.31.74 0 1.35.58 1.35 1.31Zm-21.73 1.31c-.75 0-1.35-.58-1.35-1.31 0-.73.6-1.31 1.35-1.31.74 0 1.34.58 1.34 1.31 0 .73-.6 1.31-1.34 1.31Zm20.8 2.45c0 .73-.6 1.32-1.34 1.32-.74 0-1.35-.6-1.35-1.32 0-.72.6-1.31 1.35-1.31.74 0 1.34.59 1.34 1.31Zm-20.12 1.32c-.74 0-1.35-.6-1.35-1.32 0-.72.6-1.31 1.35-1.31.74 0 1.34.59 1.34 1.31 0 .73-.6 1.32-1.34 1.32Zm17.96 2.02c0 .72-.6 1.31-1.35 1.31-.74 0-1.34-.59-1.34-1.31 0-.73.6-1.32 1.34-1.32.74 0 1.35.6 1.35 1.32Zm-15.55 1.31c-.75 0-1.35-.59-1.35-1.31 0-.73.6-1.32 1.35-1.32.74 0 1.34.6 1.34 1.32 0 .72-.6 1.31-1.34 1.31Zm12.26.8c0 .73-.6 1.32-1.35 1.32-.74 0-1.34-.6-1.34-1.32 0-.72.6-1.31 1.34-1.31.74 0 1.35.59 1.35 1.31Zm-8.97 1.32c-.75 0-1.35-.6-1.35-1.32 0-.72.6-1.31 1.35-1.31.74 0 1.34.59 1.34 1.31 0 .73-.6 1.32-1.34 1.32Z" fill="#3895E2"/></svg>