<!-- by TradingView --><svg width="56" height="56" viewBox="0 0 56 56" xmlns="http://www.w3.org/2000/svg"><path fill="#F0F3FA" d="M0 0h56v56H0z"/><path fill-rule="evenodd" d="M38.8 29.07a11 11 0 1 0-21.62-.04C10.87 30.26 6.1 32.28 4 33.5 7.43 32 17 29 27.88 29c1.94 0 3.83.13 5.65.35a6 6 0 0 1-10.77.58l-5.25.39a11 11 0 0 0 21.03-.14c6 1.3 10.67 3.37 12.81 4.62l.65-1.3c-2.13-1.2-6.9-3.2-13.2-4.42Zm-4.95-.75A6.02 6.02 0 0 0 28 21a6 6 0 0 0-5.86 7.3 55.52 55.52 0 0 1 11.71.02Z" fill="#C43527"/></svg>