<!-- by TradingView --><svg xmlns="http://www.w3.org/2000/svg" width="56" height="56"><path fill="#005DAB" d="M0 0h56v56H0z"/><path fill-rule="evenodd" d="M8 24a4 4 0 100 8h40a4 4 0 000-8H8zm.83 3.45c.13-.3.4-.45.71-.45.88 0 .95.85.95 1.28V30h-.91v-1.27c0-.4 0-.95-.4-.95-.29 0-.35.46-.35.78V30h-.96v-3h-.95v3h-.96v-3H5v-1h3.83v1.45zm7.54-.57c.4 0 .56.14.6.52h.88c-.02-.9-.68-1.4-1.46-1.4-1.1 0-1.8.92-1.8 2s.7 2 1.8 2c.91 0 1.52-.78 1.52-1.53h-.94c-.04.43-.2.7-.65.7-.46 0-.78-.56-.78-1.11 0-.56.22-1.18.83-1.18zm3.02 2.32c.4 0 .53-.37.53-.71 0-.35-.13-.71-.53-.71s-.52.36-.52.7c0 .35.12.72.52.72zm0-2.2c.81 0 1.39.66 1.39 1.48S20.2 30 19.38 30c-.8 0-1.37-.74-1.37-1.56 0-.82.56-1.44 1.38-1.44zm2.6 0h-.96v3H22v-1.56c0-.32.04-.62.3-.62.39 0 .39.4.39.8V30h.95v-1.84c0-.41-.07-1.16-1.04-1.16-.34 0-.43.1-.6.4V27zm7.93 0h.95v.4c.18-.3.26-.4.6-.4.97 0 1.05.75 1.05 1.16V30h-.96v-1.39c0-.39 0-.79-.38-.79-.26 0-.3.3-.3.62V30h-.96v-3zm-4.8.8h.49v-.57h-.48v-.72h-.96v.72h-.39v.57h.39v1.25c0 .73.23.95.97.95l.27-.01a5 5 0 01.2-.02v-.65a1.62 1.62 0 00-.22.01c-.2 0-.27-.04-.27-.26V27.8zm1.9 1.55c.43 0 .51-.19.5-.76a1.8 1.8 0 01-.48.17h-.02c-.2.06-.37.11-.37.33 0 .23.17.26.37.26zM25.87 28c.01-.37.18-.6.42-.75.24-.14.56-.25.87-.25.65 0 1.27.2 1.27 1v1.2c0 .24 0 .58.1.8h-.9a1.32 1.32 0 01-.04-.28v-.06c-.24.24-.58.34-.9.34-.52 0-.93-.27-.93-.84 0-.77.7-.89 1.29-.98a7.2 7.2 0 00.36-.07c.11-.02.17-.03.17-.17 0-.21-.25-.3-.43-.3-.25 0-.4.12-.45.36h-.83zm2.89-1.13h.96v-.59h-.96v.6zm.96.13h-.96v3h.96v-3zm7.6.93c-.27.07-.35.31-.35.63V30H36v-3h.96v.5c.15-.3.4-.5.7-.5v.9s-.09-.04-.35.03zm10.04.63c0-.32.09-.56.35-.63.27-.07.36-.03.36-.03V27c-.31 0-.56.2-.71.5V27h-.96v3h.96v-1.44zm-4.03-.8v-.57h-.48v-.72h-.95v.72h-.37c-.06-.77-.74-1.19-1.43-1.19-.7 0-1.48.4-1.48 1.23 0 .69.58 1 1.1 1.15l.38.09c.36.08.63.14.63.39 0 .28-.25.38-.54.38-.4 0-.67-.14-.7-.58h-.95c0 .96.75 1.34 1.6 1.34.8 0 1.55-.3 1.55-1.26 0-.68-.5-.93-1.02-1.08l-.4-.1c-.4-.1-.76-.18-.76-.4 0-.24.35-.37.56-.37.29 0 .6.16.59.5h.82v.48h.42v1.26c0 .74.21.96.96.96h.27l.2-.02v-.66h-.11l-.11.01c-.2 0-.26-.05-.26-.26v-1.3h.48zm1.98.73c0 .34-.13.71-.54.71-.42 0-.54-.37-.54-.71 0-.35.12-.71.54-.71.41 0 .54.36.54.7zm.9-.01c0-.82-.6-1.48-1.44-1.48a1.4 1.4 0 00-1.44 1.44c0 .82.6 1.56 1.44 1.56s1.44-.7 1.44-1.52zm-33.54-.29c-.03-.3-.18-.56-.47-.56-.3 0-.44.23-.5.56h.97zm-.96.59c.05.32.2.51.48.51.21 0 .38-.09.46-.29h.9c-.16.63-.77 1-1.36 1-.87 0-1.44-.66-1.44-1.57 0-.84.65-1.42 1.44-1.43.96-.01 1.58.74 1.4 1.78h-1.88zm22.53-1.15c.29 0 .44.27.47.56h-.96c.05-.33.2-.56.49-.56zm-.01 1.66c-.28 0-.43-.19-.48-.51h1.89c.17-1.04-.45-1.8-1.41-1.78-.78.01-1.44.59-1.44 1.43 0 .91.57 1.57 1.44 1.57.6 0 1.2-.37 1.36-1h-.9c-.08.2-.25.3-.46.3zm15.81-1.1c-.02-.3-.18-.56-.47-.56-.3 0-.44.23-.49.56h.96zm-.96.59c.06.32.2.51.48.51.21 0 .39-.09.47-.29h.9c-.17.63-.77 1-1.37 1-.86 0-1.44-.66-1.44-1.57 0-.84.66-1.42 1.44-1.43.96-.01 1.58.74 1.41 1.78h-1.89z" fill="#fff"/></svg>