<!-- by TradingView --><svg xmlns="http://www.w3.org/2000/svg" width="56" height="56" viewBox="0 0 56 56"><path fill="url(#avpkj42u1)" d="M0 0h56v56H0z"/><path d="M37.53 37c.71-.29 1.38-.7 2-1.18L38.88 37h-1.36zm1.33-18h-1.33c.71.29 1.38.68 2 1.15L38.85 19zm10.1 0h-4.95l-2 3.87c.55 1.03.93 2.15 1.12 3.31l.05.82h-5.01l.8 1.01-.77.99h4.98l-.05.82a9.52 9.52 0 0 1-1.16 3.34L44.01 37H49l-5.04-8.96 5-9.04zM33.89 33c-2.68 0-4.61-2.03-4.61-4.99a5.18 5.18 0 0 1 1.3-3.53 4.42 4.42 0 0 1 3.3-1.48c.54 0 .72.06 1.22.27L32.75 19a8.01 8.01 0 0 0-6.11 3.7A11.47 11.47 0 0 1 28 28a11.9 11.9 0 0 1-1.36 5.36c.23.34.45.64.87 1.08A8.04 8.04 0 0 0 32.77 37L35 32.87c-.4.13-.62.13-1.13.13zm8.32-7c-.84-4.14-4.12-7-8.32-7l3.86 7h4.46zm-4.44 4l-3.85 7c4.2 0 7.48-2.9 8.32-7h-4.47zM15 23h3v-4l-12 .03V23h4v14h5V23zm12 4.99v-.3a8.63 8.63 0 0 0-5.22-7.92c-.89-.36-1.81-.66-2.76-.77.11.01-.12-.01 0 0v4a4.83 4.83 0 0 1 2.13 1.38 5.13 5.13 0 0 1 1.32 3.6 5.13 5.13 0 0 1-1.32 3.61A4.68 4.68 0 0 1 17.63 33H16v4h2.18a9.58 9.58 0 0 0 3.57-.8A8.52 8.52 0 0 0 27 28.3v-.3c.03 0 0 .02 0 0z" fill="url(#bvpkj42u1)"/><defs><linearGradient id="avpkj42u1" x1="10.42" y1="9.71" x2="68.15" y2="76.02" gradientUnits="userSpaceOnUse"><stop stop-color="#1A1E21"/><stop offset="1" stop-color="#06060A"/></linearGradient><linearGradient id="bvpkj42u1" x1="6" y1="27.98" x2="49" y2="27.98" gradientUnits="userSpaceOnUse"><stop offset=".4" stop-color="#EA1D25"/><stop offset="1" stop-color="#FDB51B"/></linearGradient></defs></svg>