<!-- by TradingView --><svg width="56" height="56" viewBox="0 0 56 56" xmlns="http://www.w3.org/2000/svg"><path fill="#F0F3FA" d="M0 0h56v56H0z"/><circle cx="28" cy="28" r="16" fill="url(#avkjat1wt)"/><path fill-rule="evenodd" d="M33.6 13.02c.95.3 3.29 1.3 5 2.92a18.32 18.32 0 0 1 3.2 4.02c.29.5.97 1.86 1.44 3.36a.7.7 0 0 1-.07-.08c-.08-.1-.2-.24-.26-.23-.08.01.02.32.06.4.03.05.47 1.24.69 1.83 0 .08.03.2.06.34.1.47.28 1.27.28 2.1 0 1.34-.37 4.2-.98 5.92a15.78 15.78 0 0 1-3.67 5.62c.17-.3.3-.9.4-1.42.07-.37.14-.7.2-.81l.2-.36c.2-.35.44-.79.61-1.21.06-.15.13-.27.2-.4.23-.4.48-.84.57-2.13.12-1.73.12-2.18-.26-2.28-.35-.1-1.3.2-1.94.4l-.1.03-.07.03-.35.1c-.38.1-.57.15-.69.4-.14.31-.14.3-.37.16h-.01c-.2-.13-1.51-1.36-2.15-1.96l.16-.45v-1.48l-.56-.55c.3-.42.94-1.36 1.18-1.78.3-.52.85-1.97.87-2.03v-.03c.02-.06.03-.13.23-.2.05-.05.07-.09.09-.12.04-.07.06-.11.34-.23.32-.13 1.4-.66 1.9-.9.33.46 1.02 1.32 1.22 1 .14-.23.17-.4.18-.5.01-.07.02-.11.05-.11h.03c.17 0 1.02.04.9-.49-.1-.44-.59-1.3-.82-1.67.06.29.15.83 0 .7s-.53-.52-.7-.7a2.8 2.8 0 0 1-.05-.83.97.97 0 0 0 0-.31c-.02-.12-.03-.18.1-.08.1-.02.16 0 .18 0h.01l-.01-.02c-.04-.02-.12-.1-.28-.27-.4-.44-.68-.42-.6-.27l.11.14c.05.05.08.08.04.13-.03.03-.1.04-.17.05-.11 0-.2.01-.06.12.23.18.38.45.45.63l.04.11c.03.09.05.13.03.33-.02.22.03.32.1.48l.06.1c.1.23.26.6.24.68 0 .04-.07-.02-.2-.12-.09-.08-.21-.19-.36-.3-.15-.1-.3-.27-.43-.43-.21-.24-.4-.47-.55-.41-.23.09-.34.18-.17.22.06.02.1.01.13.01.08 0 .13 0 .26.16.15.2.38.62.5.84l.04.07a.93.93 0 0 0-.54-.3c-.32-.06-.47-.31-.59-.5-.07-.13-.13-.23-.21-.23-.2 0-.28.05-.46.31-.1.15-.11.29-.12.42 0 .09 0 .17-.04.26-.05.09-.1.11-.14.14-.06.02-.1.04-.07.17.01.07.12.17.22.26.2.18.4.36.08.46-.23.06-.53.22-.8.37-.34.18-.63.34-.7.28-.07-.05-.06-.1-.05-.2 0-.08.01-.18-.03-.31a7.86 7.86 0 0 1-.04-.12c-.07-.24-.15-.48-.34-.74-.1-.14-.22-.23-.3-.3-.1-.08-.15-.11.01-.12l.26.01c.22.02.46.04.65-.09.1-.07.22-.1.3-.13.15-.03.21-.05.04-.17a2.47 2.47 0 0 1-.5-.5l-.08-.11a1.44 1.44 0 0 1-.33-.52 1.4 1.4 0 0 1-.03-.22c-.01-.15-.03-.3-.12-.37l-.17-.12c-.16-.1-.35-.23-.42-.37-.11-.21-.27-.59 0-.5.2.05.31.18.44.33l.15.17c.2.2.45.33.56.37l.1.06c.06.04.1.07.13 0 .02-.05.03-.16.04-.26 0-.12.02-.24.05-.24.06 0 .2 0 .13-.13-.03-.06-.13-.16-.23-.26-.14-.15-.28-.3-.22-.32.07-.02.2.1.31.22.07.08.14.15.2.18.13.08.32.02.27-.06-.06-.07.07-.21.14-.14l.07.08c.06.08.13.17.13.06V18c-.01-.12-.02-.24-.07-.39l-.08-.2c-.13-.38-.37-1.05-.47-1.05-.05 0-.1.03-.14.05-.08.04-.17.09-.3.06-.2-.04-.3-.13-.41-.33a1.12 1.12 0 0 1-.1-.23c-.03-.1-.05-.16-.1-.12a.52.52 0 0 1-.07.02c-.1.04-.18.07 0 .25l.35.4c.13.15.24.29.27.3h.04c.06.01.13.02.2.17.03.07.1.14.15.2.08.07.12.11-.07.06-.2.03-.25.08-.3.11-.03.02-.05.04-.1.04-.04 0-.07.03-.11.06-.1.07-.22.15-.43-.06l-.08-.07c-.26-.25-.45-.44-.45-.7 0-.17-.36-.6-.64-.96-.2-.25-.37-.45-.35-.5.05-.1.16-.31.32-.3.06 0 .13.05.2.1.13.08.28.18.47.12l.18-.07c.08-.03.1-.04.24 0 .22.07.54.17.32.27-.08.04-.17.04-.21.04h-.04l.1.07.08.05c.1.05.16.1.22.14.16.1.21.13.26.08.06-.06-.14-.65-.73-1.02-.3-.2-.47-.35-.62-.5a1.97 1.97 0 0 0-.47-.38c-.15-.08-.38-.15-.6-.22-.43-.13-.84-.26-.69-.47Zm6.5 8.28-.03-.04.03.04Zm-11.7-5.83c.1.05.33.14.47.33l.32.4a.87.87 0 0 0-.02.35c.01.1.07.16.12.21l.06.08c.03.06 0 .18 0 .23-.1.13-.32.44-.32.7 0 .33.23.53.39.65l.14.13c.1.12.21.24.33.16.09-.06.1-.1.11-.15.01-.05.02-.1.09-.14a15.52 15.52 0 0 0 1.76-1.3c.32-.33.43-.49.4-.49-.02 0-.53-.1-.48-.22.04-.13.28-.11.4-.1.12.02.15-.05.13-.06l-.37-.52c.12.1.35.25.33.1a.67.67 0 0 0-.2-.38c-.04-.02-.42-.53-.61-.78l-.05-.19c-.07.08-.24.21-.4.13-.2-.1-.27-.16-.09-.17.18-.01.19-.08.14-.11l-.04-.04c-.07-.05-.18-.16-.31-.1a.94.94 0 0 0-.18.1.5.5 0 0 1-.11.07h-.1c-.04-.02-.08-.03-.1.08a.37.37 0 0 0-.02.17c0 .03 0 .05-.04.06h-.05c-.02-.02-.05-.05-.19-.06h-.23c-.07 0-.11 0-.17-.02l-.13-.1c-.06-.06-.12-.1-.15-.1-.07.02-.1.17-.1.25l.01.04c.01.08.03.17-.04.1-.04-.03-.06-.08-.08-.11-.02-.05-.04-.08-.06-.06-.04.02-.43.56-.63.83l.07.03Zm-1.2.26c-.23.08-.33 0-.4-.05a.73.73 0 0 0-.04-.02c.14-.06.45-.22.67-.35.26-.16.34-.24.33-.32-.01-.08-.22-.28-.26-.31-.04-.04-.02-.13.4-.15.33-.02.59-.09.69-.12l.05-.01c.03 0 .07.26.08.28 0 .01-.1.22-.27.34-.14.1-.46.46-.6.62l-.11-.2c-.1.06-.33.22-.54.3Zm-1.03-1.3-.73.41.33-.07.1.18c.01.01.2-.34.3-.51ZM15.8 28.43l.72.59c.17.15.24.38.25.47.13.12.48.4.83.56.43.2.71.1.84 0 .1-.08.18-.16.2-.2l1 .65.4-.1c.37.17 1.19.58 1.62.77.54.23.7.7.76.9v.02c.07.2.12.36.58.43l.07.01.06.01c.37.06.52.09.7.25.18.15.55.74.71 1.02l-.38.4.38.32c.18-.17.64-.5 1.04-.54.5.5 1.99 1.49 3.98 1.54 0 .37-.09 1.18-.38 1.38-.28.2-.6.56-.72.71-.03.03-.04.13.07.28.13.2.19.38-.1.58l-1.53 1.05c.06.16.16.53.16.74a.6.6 0 0 1-.4.55l-.08-.13-1.08.44.12.31-.7.04c.1.04.33.13.33.16v.04c0 .06-.02.18 0 .27.03.1.41.37.6.49l-.16.27c-1.4-.34-4.4-1.84-5.04-5.09a9.22 9.22 0 0 1-1.65-1.02c-.72-.58-.9-.76-.94-1.08-.03-.26-.1-.28-.12-.26-.44-.18-1.33-.75-1.33-1.65 0-.9.5-1.83.76-2.18a9.08 9.08 0 0 0-2-3.05c-1.2-1.22-1.49-1.38-1.48-1.31-.06-.37-.16-1.22-.15-1.67 0-.45.45-2.23.67-3.06-.23.4-.71 1.38-.75 2l-.15.04c.05-.43.23-1.4.45-1.84.23-.45.4-.67.45-.73l-.04-.54c.33-.37 1.08-1.2 1.49-1.57.4-.37 2.2-1.96 3.04-2.7-.15 0-.43-.03-.41-.07.01-.05.34-.42.5-.6-.02-.05-.06-.15-.1-.13a2.1 2.1 0 0 1-.12.07l-.2.11c-.03.03-.07-.14-.08-.23a16.5 16.5 0 0 1-.95.3l1.03-.73c.2-.14.33-.2.37-.23.16.02.48.04.5 0 .02-.04.23-.38.29-.35.05.02.18.12.25.17.22-.17.67-.5.67-.47l-.11.3.2.1v.2c0 .04-.03.12-.05.15l.75-.06c-.1.13-.3.4-.16.5.1.07.12.07.19.06.04 0 .1-.02.22-.01.12 0 .25-.01.36-.03.16-.02.28-.04.26.03a.46.46 0 0 1-.07.15c-.03.04-.05.08-.04.1.02.03.1.06.16.09l.09.04c.03.03.07.1-.14.16l-.16.04c-.33.07-.96.22-.97.34-.02.13.02.15.14.16a4.65 4.65 0 0 0 1.35-.54c-.02.13-.02.38.1.38.07 0 .06.02.05.04 0 .03-.02.05.1.03.15-.02.26-.08.33-.11a.23.23 0 0 1 .07-.03l.03-.01c.04-.02.13-.05.28 0l.1.04c.1.03.13.04.2.11.11.09.3.2.42.16.13-.02.69-.66.85-1.15v.04c0 .19-.01.9.11 1 .14.11.3.05.36 0 .05-.04.22-.1.3-.12.02.03.07.1.07.16s-.22.32-.33.44c-.06.02-.2.03-.26 0a.5.5 0 0 1-.04-.02c-.05-.02-.1-.05-.28-.04-.16 0-.47.18-.81.37l-.54.3c-.4.2-1.06.56-1.33.71-.02.39.05 1.3.44 1.83.05 0 .25-.13.66-.62.4-.48 1.04-1.04 1.3-1.26h.55v-.45h.17l.47.77c.04.04.18.12.35.07.21-.07.51-.14.57-.07.05.07.1.24 0 .37-.09.1-.08.13-.06.23l.02.09c.02.07.05.12.08.17.05.08.09.14.03.24a.65.65 0 0 0-.07.4l.76-.22c-.31.3-.95.92-1 .91h-.04a2.25 2.25 0 0 0-.56-.04h-.1c-.55 0-1.38 0-1.91.48l1.11-.17-.17.3.17.24.23.22c-1.27.16-4 .83-4.76 2.2-.4.02-1.3.1-1.7.4-.03-.1-.09-.27-.12-.17l-.07.19c-.08.16-.17.38-.17.49 0 .1.09.2.16.27.04.05.08.1.08.13v.23c0 .02-.5.38-.74.56V25h-.5l-.1-.47-.48.25c-.11-.11-.43-.34-.8-.39-.36-.05-.6-.02-.66 0-.02.15-.1.5-.28.72-.19.22-.41.4-.5.45v.97c-.05.12-.1.4.08.53.23.15.43.22.47.22.02 0 .1-.1.2-.2.15-.17.33-.38.39-.38h.3c-.17.2-.54.72-.54 1.1 0 .37.06.57.09.62Zm1.6-11.86.14-.11c-.1.05-.14.09-.15.1Zm4.3 5.38c.07.04-.09.14-.44.38l-.1.07c-.38.25-.7.23-.8.22h-.01c-.07-.2.3-.75.5-1.01-.09 0-.34.05-.64.2-.28.15-.52.43-.65.57a.55.55 0 0 1-.07.09c-.04.01-.05-.1.15-.4.2-.3.67-.7.72-.71.03-.01-.3-.24-.47-.36a.8.8 0 0 1 .7-.4c.5 0 .67.44.73.72.06.28.3.58.38.63Zm-4.78 4.8c.07.1.28.34.53.43.25.1.43.14.5.14.04.12.19.38.36.46.23.1.41.06.43.06.02-.01.2-.11.16-.13l-.12-.13a2.48 2.48 0 0 0-.46-.46l-.36.09-.19-.24a1.25 1.25 0 0 0-.2-.22h-.65Zm2.39 1.45c0 .17.08.28.12.3h.23c.03 0 .3.32.43.48.13-.13.4-.4.43-.41.02-.02-.7-.71-.86-.71-.16 0-.35.14-.35.34Zm6.83-6.63c.04.07.51.52.53.5l.02-.01c.08-.08.44-.41.31-.41l-.86-.08Zm-2.5-4.93c-.38 0-.5-.15-.51-.22l.37-.23c.02 0 .02-.26.03-.39l.07-.33h.15c.05.1.17.34.22.4.04.07.19.04.28.03l.08-.01c.03 0 .3.14.44.21-.22.18-.75.54-1.13.54Zm.84-1.25h.11c0 .01-.13.1-.2.13.05.1.2.3.47.3.32 0 .46-.38.45-.37 0 .02-.3.23-.34.21a1.41 1.41 0 0 1-.03-.4.52.52 0 0 0 .07-.14 1.4 1.4 0 0 0-.35 0c-.17.02-.41.17-.52.24.09.02.24.03.34.03Zm.9.23.47-.44.06.32c-.07.04-.22.14-.26.15l-.28-.03Zm.32.63v.26c.16-.22.16-.44.16-.5 0-.07-.06-.21-.1-.22-.06 0-.06.4-.06.46Zm.2.17c.01.08.09.23.21.23l.16-.01c.07-.01.14-.02.21.01.12.05.29.23.3.26.02.03 0 .09 0 .12v.03c0 .01-.58.8-.61.8l-.58.11.65.03c.1.2.28.58.31.54l.06-.07c.14-.2.47-.64.54-.65.1-.02.4.25.4.28.01.03.51-.52.42-.6a.58.58 0 0 0-.17-.08c-.06-.03-.1-.05-.1-.08v-.04c0-.1.01-.32-.06-.39a1.4 1.4 0 0 1-.2-.22c-.01-.03-.2-.1-.34-.17a3.36 3.36 0 0 1-.15-.07.82.82 0 0 1-.19-.25c0-.02-.24 0-.3.08-.07.07-.08-.12-.08-.17 0-.05-.34.08-.49.3Zm6.86.91c.2-.05.5-.12.62-.12.2 0 .5.05.33.17a.74.74 0 0 0-.1.1c-.08.08-.15.15-.42.15-.37 0-.67-.04-.7-.14-.01-.09.04-.1.08-.1l.2-.06Zm2.47 1.85c-.07-.2.1-.32.2-.36.17-.1.24.05.37.35l.05.11c.1.23.07.23 0 .23-.03 0-.08 0-.12.06l-.07.16c-.04.1-.08.18-.16.16-.08-.03-.13-.23-.18-.43a2.8 2.8 0 0 0-.09-.28Zm-9.58 24.66c.18.04.74.17 2.62.17 1.8 0 2.39-.2 2.43-.26-.3-.08-1.31-.19-2.66-.19s-2.2.18-2.45.27h.06Z" fill="#079547"/><defs><linearGradient id="avkjat1wt" x1="28" y1="12" x2="28" y2="44" gradientUnits="userSpaceOnUse"><stop stop-color="#FDFBD8"/><stop offset="1" stop-color="#A5C693"/></linearGradient></defs></svg>