<!-- by TradingView --><svg width="56" height="56" viewBox="0 0 56 56" xmlns="http://www.w3.org/2000/svg"><path fill="#F0F3FA" d="M0 0h56v56H0z"/><path d="M31.2 13h.9c1.5.1 2.98.61 4.17 1.52.56.4 1.02.91 1.5 1.39L50 27.99 37.38 40.45a7.59 7.59 0 0 1-5.3 2.51c-.08 0-.15.03-.22.04h-.4c-.08 0-.14-.04-.22-.04A7.65 7.65 0 0 1 26.5 41c-.43-.4-.84-.83-1.27-1.24-3.97-3.92-7.95-7.84-11.91-11.77L25.22 16.2c.43-.42.85-.86 1.3-1.26A7.56 7.56 0 0 1 31.2 13Zm-2.83 3.06c-.5.35-.91.81-1.35 1.24L16.2 27.99 27.15 38.8c.4.4.78.8 1.24 1.12a5.63 5.63 0 0 0 6.8-.2c.28-.22.53-.5.8-.75 3.7-3.66 7.4-7.33 11.12-10.98l-1.06-1.06-9.83-9.7c-.44-.44-.85-.9-1.37-1.23a5.62 5.62 0 0 0-6.48.06Z" fill="url(#asikpjyhp)"/><path d="M29.82 19.31a4.63 4.63 0 0 1 4.31.51c.53.35.93.84 1.37 1.3l6.44 6.8c.01.03.1.07.04.1l-7.06 7.49a4.62 4.62 0 0 1-5.98.72c-.58-.38-1.04-.92-1.52-1.43L21 28l2.72-2.88 4.32-4.57c.5-.55 1.1-.97 1.78-1.24Zm.15 2.47c-.28.2-.5.47-.74.72L24.04 28l5.57 5.9c.5.53 1.2.84 1.9.83.68 0 1.36-.3 1.85-.8l1.41-1.5 4.2-4.44c-1.9-1.97-3.76-3.96-5.64-5.94a2.55 2.55 0 0 0-3.36-.26Z" fill="url(#bsikpjyhp)"/><path d="M17.06 17.64a6.04 6.04 0 0 1 5.86.25c-.49.5-1 .97-1.49 1.45h-.02a3.86 3.86 0 0 0-4.11.52c-.23.2-.44.4-.65.61L8.9 28l8.16 7.91c.59.59 1.38.97 2.22 1.07.73.1 1.48-.02 2.15-.33l1.5 1.46a6.05 6.05 0 0 1-6.57-.18c-.49-.32-.88-.75-1.3-1.14L6 28l9.54-9.25c.43-.45.95-.83 1.52-1.11Zm6.77 3.74 1.44-1.4c.47.45.95.9 1.4 1.36v.02l-1.43 1.39-1.41-1.37Zm3.75 3.63 1.44-1.4c1.5 1.46 3 2.93 4.52 4.38l-.03.04-4.5 4.36-1.44-1.4L30.64 28l-3.06-2.99Zm-3.75 9.61 1.4-1.37 1.45 1.4a370 370 0 0 0-1.4 1.37l-1.45-1.4Z" fill="url(#csikpjyhp)"/><defs><linearGradient id="asikpjyhp" x1="14.88" y1="28" x2="45.15" y2="28" gradientUnits="userSpaceOnUse"><stop stop-color="#88C53B"/><stop offset=".81" stop-color="#0C7040"/></linearGradient><linearGradient id="bsikpjyhp" x1="23.34" y1="28" x2="38.2" y2="28" gradientUnits="userSpaceOnUse"><stop stop-color="#254A81"/><stop offset="1" stop-color="#2F93CA"/></linearGradient><linearGradient id="csikpjyhp" x1="7.97" y1="28" x2="30.72" y2="28" gradientUnits="userSpaceOnUse"><stop stop-color="#222E7A"/><stop offset=".52" stop-color="#238BBE"/><stop offset=".72" stop-color="#235295"/><stop offset="1" stop-color="#169EDA"/></linearGradient></defs></svg>