<!-- by TradingView --><svg width="56" height="56" viewBox="0 0 56 56" xmlns="http://www.w3.org/2000/svg"><path fill="#F0F3FA" d="M0 0h56v56H0z"/><path d="M33.83 26c-9.1 0-10.27 15.33-9.72 23 2.07-2.88 5.45-4.41 10.34-7.29 4.9-2.87 6.55-6.28 6.55-9.22 0-2.95-2.83-6.49-7.17-6.49Z" fill="url(#a4x5uptd2)"/><path d="M14.7 20.7C9.35 25.92 17.9 35.75 22.83 40c-.52-2.9.55-5.75 1.7-10.27 1.14-4.51.07-7.5-1.7-9.25-1.78-1.76-5.57-2.26-8.13.23Z" fill="url(#b4x5uptd2)"/><path d="M34.64 9c-6.89.11-7.92 12.05-7.58 18 1.59-2.26 4.16-3.5 7.9-5.8 3.72-2.29 5.01-4.96 5.04-7.24A5.2 5.2 0 0 0 34.64 9Z" fill="url(#c4x5uptd2)"/><defs><linearGradient id="a4x5uptd2" x1="38.68" y1="28.75" x2="24.05" y2="50.03" gradientUnits="userSpaceOnUse"><stop offset=".13" stop-color="#D87D6B"/><stop offset=".39" stop-color="#CC4A43"/></linearGradient><linearGradient id="b4x5uptd2" x1="16.35" y1="20.79" x2="17.47" y2="40.28" gradientUnits="userSpaceOnUse"><stop offset=".13" stop-color="#D0699F"/><stop offset=".39" stop-color="#C7328B"/></linearGradient><linearGradient id="c4x5uptd2" x1="38.23" y1="11.16" x2="26.68" y2="27.56" gradientUnits="userSpaceOnUse"><stop offset=".03" stop-color="#A478AB"/><stop offset=".39" stop-color="#843689"/></linearGradient></defs></svg>