<!-- by TradingView --><svg xmlns="http://www.w3.org/2000/svg" width="56" height="56" viewBox="0 0 56 56"><path fill="#F0F3FA" d="M0 0h56v56H0z"/><path d="M43.62 14a1.5 1.5 0 1 1-.24-3 1.5 1.5 0 0 1 .24 3ZM29.45 37h2.12c.22 0 .43-.18.43-.4v-6.13c0-.22-.21-.47-.43-.47h-2.12c-.22 0-.45.25-.45.47v6.13c0 .22.23.4.45.4Zm-3.99 0h2.12c.22 0 .42-.18.42-.4v-8.26c0-.22.15-.34.37-.34h7.24c.22 0 .4-.23.4-.45V20.4a.4.4 0 0 0-.64-.32l-2.2 1.62A.4.4 0 0 0 33 22v2.62c0 .22-.17.37-.4.37h-7.14c-.22 0-.46.2-.46.43V36.6c0 .22.24.4.46.4ZM31 20.4v2.12c0 .22-.15.48-.37.48H23v2.3c0 .11-.05.23-.14.3l-2.22 1.62a.4.4 0 0 1-.64-.31V20.4c0-.22.18-.4.4-.4h10.23c.22 0 .37.18.37.4Z" fill="#010101"/><path d="M38.37 18.41A14.17 14.17 0 0 1 42 29.04 13.9 13.9 0 0 1 28.93 42 13.91 13.91 0 0 1 14 27.07a13.85 13.85 0 0 1 12.74-13.02 14.2 14.2 0 0 1 8.87 2.14c.13.09.3.08.42-.01l1.7-1.53c.2-.15.19-.46-.02-.6a16.92 16.92 0 0 0-10-3.05 17.07 17.07 0 0 0-16.69 16.12 17 17 0 0 0 17.86 17.86A17.07 17.07 0 0 0 45 28.54a16.94 16.94 0 0 0-4.3-11.85.38.38 0 0 0-.51-.05l-1.76 1.22a.37.37 0 0 0-.05.55Z" fill="#5AACC5"/></svg>