<!-- by TradingView --><svg width="56" height="56" viewBox="0 0 56 56" xmlns="http://www.w3.org/2000/svg"><path fill="#F0F3FA" d="M0 0h56v56H0z"/><path d="M10.57 20.36c0 1.02.43 2.12.65 2.55 1.08-.43 3.62-1.27 5.18-1.27 2.95 0 4.53.63 5.17 1.9-.64-.2-2.58-.63-5.17-.63-2.6 0-4.53.85-5.18 1.27V28c0 1.06.56 3.15 2.59 3.82 1.94.63 3.45 1.48 3.88 1.9 0-.2.52-.88 2.59-1.9A4.52 4.52 0 0 0 22.87 28v-3.82c0-.63.65-1.27.65-3.82 0-2.03-3.02-3.39-4.53-3.81v-1.91l-1.3-.64c0 1.53-1.3 2.33-1.94 2.55-4.53.63-5.18 2.54-5.18 3.81Z" fill="#BF8929"/><path d="M24.81 29.27c0 2.55-2.59 3.6-3.88 3.82 8.8 0 18.34-6.79 22-10.18C37.11 34.36 19.63 35 17.04 35c-2.58 0-5.17 1.27-6.47 1.9-1.03.52-.43 1.07 0 1.28 5.18-2.54 10.36-2.54 13.6-1.27C27.4 38.18 26.74 42 29.98 42c2.59 0 1.3-4.45 2.59-5.1 1.3-.63 5.18 3.83 7.76 1.28 1.95-1.9-1.29-5.09-.64-6.36.82-1.62 5.72 1.03 6.47-1.91.65-2.55-1.94-3.18-1.94-3.82 0-.64.64-.64 1.94-1.9 1.3-1.28 2.59-3.83 1.3-5.1-1.3-1.27-3.89 1.27-5.18.64-1.3-.64-.65-3.18-1.95-3.18-3.3 0-3.88 4.45-5.17 4.45-1.3 0-.65-4.45-3.24-4.45-2.59 0-3.24 6.36-3.88 6.36-.65 0-.65-1.91-1.94-1.91-1.04 0-1.3 2.12-1.3 3.18v5.1Z" fill="#BF8929"/></svg>