<!-- by TradingView --><svg width="56" height="56" viewBox="0 0 56 56" xmlns="http://www.w3.org/2000/svg"><path fill="#F0F3FA" d="M0 0h56v56H0z"/><path d="m50.85 31.7-.03-.02-.03.02-.07.06-.18.33c-.9 1.75-2.24 2.83-4.18 3.02a4.47 4.47 0 0 1-4.28-1.9 7.88 7.88 0 0 1-1.38-3.88c-.12-1.08-.1-2.17.02-3.25.1-1.24.44-2.46 1-3.56 1.04-1.9 3-2.62 4.92-1.8a5.38 5.38 0 0 1 2.33 2.1c.5.78.89 1.62 1.17 2.51l.02.07c.03.12.06.25.26.21l.04-.2-.09-5c-.02-.1-.05-.2-.1-.3-.22.16-.37.39-.5.6-.13.2-.24.4-.42.53a.76.76 0 0 1-.1-.02 6.17 6.17 0 0 0-4.9-1.07 7.29 7.29 0 0 0-5.5 4.26 9.15 9.15 0 0 0-.37 6.8 6.6 6.6 0 0 0 2.5 3.52A7.3 7.3 0 0 0 45.3 36c.56-.01 1.11-.1 1.64-.27 2-.57 3.23-2 4.07-3.9a.92.92 0 0 0-.09-.11c0-.02-.03-.02-.06-.03ZM6.34 24.05 6 23.98v-3.9c.18-.04.37-.06.56-.08h12.93a4.16 4.16 0 0 1 .51.03v4c-.2 0-.24-.12-.28-.24l-.01-.05a9.03 9.03 0 0 0-1.74-2.95 1.32 1.32 0 0 0-.94-.43l-1.22-.03-1.25-.02h-.1c-.16.01-.4.02-.46.04v13.93c0 .74.58 1.14 1.28 1.29l.66.11.46.07c.11.04.22.07.32.12l-.08.08c-.03.03-.05.05-.07.05H9.61c-.05 0-.1-.05-.15-.16l.32-.1.5-.06.75-.12a.95.95 0 0 0 .58-.32c.24-.27.39-.85.39-1.21v-13.2a.66.66 0 0 0-.05-.22.7.7 0 0 1-.06-.25 2.45 2.45 0 0 0-.38-.06l-1.05.02-1.18.02a1.68 1.68 0 0 0-1.31.67A8.92 8.92 0 0 0 6.36 24l-.02.07Zm23.42 3.7h.04l.34.08c.66.1 1.29.34 1.86.69.31.2.58.46.8.77.21.32.36.67.44 1.05l.69 3.27c.04.2.1.4.17.59.06.18.16.34.3.47a.97.97 0 0 0 1 .22c.17-.07.32-.17.44-.32.22-.26.38-.56.48-.9.07-.33.12-.68.14-1.02l.08-.44.11-.01.05.08c.03.06.07.12.07.19a4 4 0 0 1-.67 2.55c-.49.66-1.19.91-1.95.96-1.28.09-2.16-.53-2.62-1.8a9.94 9.94 0 0 1-.5-2.28 8.46 8.46 0 0 0-.51-2.28c-.2-.53-.54-.98-.98-1.29a2.37 2.37 0 0 0-1.5-.34H26v6.33c0 .78.53 1.15 1.26 1.3l.51.07.35.04c.1.02.19.05.28.09v.08a.67.67 0 0 1-.2.08h-6.4l-.03-.11a.7.7 0 0 1 .2-.12l.4-.05.5-.07c.75-.14 1.13-.51 1.13-1.3V21.68c0-.73-.31-1.06-.98-1.25-.2-.05-.42-.1-.63-.13l-.34-.07a.48.48 0 0 1-.28-.15A.81.81 0 0 1 22 20h7.46c1 0 1.98.24 2.86.73.44.24.82.58 1.1 1a3.29 3.29 0 0 1 .36 2.98c-.18.49-.47.92-.84 1.26a6.75 6.75 0 0 1-2.81 1.49c-.13.04-.25.1-.37.17v.13Zm-3.76-.3c.04.03.22.04.34.06l.12.01h.66c.51 0 1.02-.01 1.52-.1a2.92 2.92 0 0 0 2.45-2.16c.22-.8.23-1.64.05-2.44-.34-1.57-1.41-2.47-2.92-2.49H26.7l-.13.01a6.3 6.3 0 0 0-.57.05v7.06Z" fill="#234D71"/></svg>