<!-- by TradingView --><svg xmlns="http://www.w3.org/2000/svg" width="56" height="56" viewBox="0 0 56 56"><path fill="#F0F3FA" d="M0 0h56v56H0z"/><path fill-rule="evenodd" d="M35 21h8.56c.26 0 .44.24.44.5v12.98c0 .25-.18.52-.44.52h-8.09c-.26 0-.47.15-.47.41v8.12c0 .26-.2.47-.47.47H21.5c-.3 0-.5-.26-.5-.55 0-2.85 1.57-5.12 3.16-7.16C27.3 32.26 35 31 35 31s-1.2-.24-2.88-.03c-2.17.27-3.69.6-5.12 1.5 0 0 3.63-3.65 5.3-6.2C33.5 24.43 35 21 35 21Zm5 8.96S38.92 32 37.35 32c-.87 0-2.05-.75-2.05-.75s.43-.44.9-.63c.6-.24 1.8-.47 1.8-.47s-.65-.18-1.41 0c-.77.17-1.29.62-1.29.62S35.66 29 37.35 29c1.1 0 2.65.96 2.65.96Z" fill="#3F6E2A"/><path fill-rule="evenodd" d="M21 21.59V12.5c0-.26.24-.5.5-.5h12.87c.26 0 .63.24.63.5v4.25s-1.16 3.45-2.28 5.39c-.88 1.5-2.78 3.86-2.78 3.86v-.08c.04-.73.06-1.1.06-1.69 0-1.55-.44-3.36-1.23-4.8.1.7.23 1.65.23 2.7 0 2.57-.5 5.75-2.8 7.4-3.25 2.33-4.72 4.47-4.72 4.47h-9.02c-.25 0-.46-.24-.46-.5V22.53c0-.26.2-.53.47-.53h8.1c.26 0 .43-.15.43-.41Zm10.75-2.03c-.34.47-1.23.82-1.23.82s-.02-.44.08-.76c.14-.41.53-1.14.53-1.14s-.36.27-.6.74c-.23.47-.24.94-.24.94s-.29-.4-.29-.94c0-.26.07-.56.3-.85a4.72 4.72 0 0 1 1.58-1.02s.12.53.12 1.13c0 .37-.02.76-.25 1.08Zm-2.26-2.05s.94-.48 1.25-1.05c.17-.29.26-.6.26-.91 0-.8-.38-1.55-.38-1.55s-1.19.64-1.62 1.33c-.17.27-.26.52-.26.75a2 2 0 0 0 .47 1.23s-.05-.52.15-1.07.57-.9.57-.9-.35.86-.44 1.34c-.08.36 0 .83 0 .83Zm-3.75 2.23c.59.56 1.92.66 1.92.66s-.06-.53-.27-.95c-.28-.55-1-1.45-1-1.45s.57.27 1 .86c.44.6.56 1.25.56 1.25s.27-.57.27-1.25c0-.43-.2-.9-.66-1.3-.78-.67-2.47-.96-2.47-.96s-.09.5-.09 1.1c0 .67.18 1.5.74 2.04Z" fill="#81BE3B"/></svg>