<!-- by TradingView --><svg width="56" height="56" viewBox="0 0 56 56" xmlns="http://www.w3.org/2000/svg"><path fill="#F0F3FA" d="M0 0h56v56H0z"/><path fill-rule="evenodd" d="m29 9 .47 1.53H31l-1.24.94.48 1.53-1.24-.94-1.24.94.48-1.53-1.24-.94h1.53L29 9Zm-.2 9.34-7.88 3.56L29 19.55v.72l7.8 3.57L29 21.5v.8l7.8 3.52-7.8-2.3v.8l7.8 3.57-7.8-2.4v.73l7.8 3.6-7.8-2.35v.75l7.8 3.64-7.8-2.37v.85l7.8 3.52L29 31.5v.66l-1.35.64 1.35.63v-1.1l7.8 3.54-7.8-2.35v.8l7.8 3.55-7.8-2.32v.77l7.8 3.55-7.8-2.32v.8l7.8 3.57-7.8-2.38v.81L37 44V21.85l-7.7-2.3v-4.62a.5.5 0 1 0-.5 0v3.4ZM21 30.54l-7 3.25 7-2.1v.69l-7 3.25 7-2.1v.66l-7 3.25 7-2.1v.64l-7 3.25 7-2.1v.71l-7 3.26 7-2.1v.63l-7 3.25 7-2.1V39.7l7 3.28v-9.15l-7-2.16v-1.14Zm0 3.65v1.1l6.84 2.17L21 34.2Zm0 4.78 6.84 2.13L21 37.9v1.07Zm0-1.87 6.84 2.13-6.84-3.2v1.07Zm0-3.61 6.84 2.18L21 32.44v1.05Zm0-9.85L29 20v1.22l-8 2.43Zm0 2.02 8-3.65v1.23l-8 2.42Zm8-1.58-8 3.65 8-2.42v-1.23Zm-8 5.67 8-3.65v1.23l-8 2.42Zm7.96-.39v-1.33l-5.75 2.76.4.17 5.35-1.6Zm.03.78v1.27l-2.67.78-.89-.42 3.56-1.63ZM23.8 16l-.48-1.5-.48 1.5h-1.54l1.25.9-.48 1.5 1.25-.93 1.25.92-.48-1.48 1.26-.91H23.8Zm10.77-1.47.48 1.47h1.55l-1.26.93.48 1.48-1.25-.91-1.25.91.48-1.48-1.25-.93h1.54l.48-1.47Z" fill="#04A6DF"/></svg>