<!-- by TradingView --><svg xmlns="http://www.w3.org/2000/svg" width="56" height="56" viewBox="0 0 56 56"><path fill="#F0F3FA" d="M0 0h56v56H0z"/><path d="M10 22H6v3h4v10h3V25h4v-3h-7zM18 22h3l3.58 6.67L28 22V22h3v13h-3v-6.68L24.58 35 21 28.3V35h-3V22zM38.5 35a6.5 6.5 0 0 0 6.5-6.37V27h-6v2.5h2.86a3.5 3.5 0 1 1-.95-3.54l1.94-2.29A6.5 6.5 0 1 0 38.5 35z" fill="#010101"/><path d="M47.75 26.5a2.25 2.25 0 1 0 0-4.5 2.25 2.25 0 0 0 0 4.5zm0 8.5a2.25 2.25 0 1 0 0-4.5 2.25 2.25 0 0 0 0 4.5z" fill="#064D8A"/></svg>