<!-- by TradingView --><svg width="56" height="56" viewBox="0 0 56 56" xmlns="http://www.w3.org/2000/svg"><path fill="#F0F3FA" d="M0 0h56v56H0z"/><path d="m4 24.13.1.02c.26.06.5.2.67.42.17.21.22.48.23.76V33h1.62v-4.37H10V28H6.62v-3.45H11V24H4v.13Zm12.75 8.43c-1.67 0-2.67-1.52-2.67-4.06 0-2.5 1.02-4.06 2.67-4.06s2.67 1.55 2.67 4.05c0 2.55-1 4.07-2.67 4.07Zm0-8.56c-2.05 0-4.25 1.18-4.25 4.5 0 2.82 1.59 4.5 4.25 4.5S21 31.32 21 28.5c0-3.32-2.2-4.5-4.25-4.5Zm10.38 0c2.27 0 3.65.94 3.65 2.66 0 1.94-1.55 2.63-2.36 2.83L31.64 33h-1.77l-3.83-4.17.32.02h.17c.55.01 1.1-.1 1.6-.31.36-.15.65-.42.85-.75.2-.34.3-.73.3-1.13 0-1.75-1.23-2.1-2.43-2.1h-1.23V33H24v-7.81c0-.27-.05-.53-.22-.72a1 1 0 0 0-.67-.33l-.11-.01V24h4.13Zm24.87.55V24h-7v.13l.1.02c.64.18.9.55.9 1.04V33h6v-.55h-4.5v-3.82H51V28h-3.5v-3.45H52Zm-16.53-.48 3.08 6.3L41.58 24H43v9h-1.5v-7.1L38.06 33 35 26.17V33h-1v-7.83c0-.49-.34-.85-.96-1.02l-.1-.02V24h2.5l.03.07Z"/></svg>