<!-- by TradingView --><svg xmlns="http://www.w3.org/2000/svg" width="56" height="56" viewBox="0 0 56 56"><path fill="#FF5700" d="M0 0h56v56H0z"/><path d="M13.42 31H9v-.96s1.65-1.24 2.37-2.29c.37-.55.28-1.38-.59-1.38-.46 0-.89.26-1.23.54l-.61-1.05.15-.13a3.2 3.2 0 0 1 2.19-.73c1.31 0 2.2 1.2 1.97 2.34-.29 1.36-1.97 2.32-1.97 2.32h2.15V31ZM8.38 24H4v1.27h2V31h2v-5.73h1L8.38 24ZM17.02 27.94c.3 0 .54-.04.71-.13.27-.13.4-.37.4-.71 0-.35-.14-.58-.42-.7a1.9 1.9 0 0 0-.71-.1h-1.28v1.64h1.3Zm.25 2.45c.44 0 .75-.13.94-.39a.96.96 0 0 0 .18-.58c0-.39-.18-.65-.52-.79a1.95 1.95 0 0 0-.73-.1h-1.42v1.86h1.55ZM15 25.69h2.28c.62 0 1.06.2 1.33.56.15.22.23.48.23.76 0 .34-.1.61-.29.83-.1.1-.24.21-.42.3.27.1.47.23.6.36.24.23.36.55.36.95 0 .34-.1.65-.32.93-.32.41-.83.62-1.52.62H15v-5.3ZM19.88 27h.66v4h-.66v-4Zm0-1.3h.66v.73h-.66v-.73ZM31.74 27h.72a231.77 231.77 0 0 0-1.2 3.32c-.37.99-.64 1.72-.8 1.94-.15.22-.41.34-.79.34-.09 0-.16-.02-.21-.03-.05 0-.1-.02-.18-.04v-.59a2.23 2.23 0 0 0 .38.07c.12 0 .2-.02.26-.06.06-.04.1-.09.15-.15l.13-.3c.07-.17.13-.44.16-.52L28.93 27h.74l1.03 3.15L31.74 27ZM36.85 26h.66v1.08h.61v.53h-.61v2.52c0 .13.04.22.13.27.06.02.14.04.26.04h.1l.12-.01v.5c-.07.03-.15.05-.23.06l-.26.01c-.3 0-.5-.08-.62-.23-.1-.16-.16-.36-.16-.6V27.6h-.52v-.53h.52V26ZM40.39 27.05a1.75 1.75 0 0 1 1.38.7c.13.19.22.41.26.67.04.18.06.47.06.85h-2.83c.01.4.1.71.28.95.17.24.44.35.8.35a1.04 1.04 0 0 0 1.06-.78h.64c-.02.14-.08.3-.17.47a1.51 1.51 0 0 1-1.05.82c-.16.04-.34.06-.53.06-.48 0-.9-.18-1.23-.53-.33-.35-.5-.84-.5-1.47 0-.62.17-1.12.5-1.51.34-.39.78-.58 1.33-.58Zm1.03 1.7c-.02-.27-.08-.5-.18-.67-.18-.3-.48-.46-.9-.46-.3 0-.54.1-.74.32-.2.21-.31.49-.32.82h2.14ZM43 27h.64v.64c.16-.2.3-.33.42-.42.22-.15.46-.22.73-.22.3 0 .56.08.74.23.1.08.2.21.3.38.14-.2.3-.36.5-.46.2-.1.41-.15.66-.15.52 0 .87.19 1.06.56.1.2.15.48.15.82V31h-.67v-2.73c0-.26-.07-.44-.2-.53a.76.76 0 0 0-.47-.15.94.94 0 0 0-.66.26c-.18.17-.27.45-.27.85V31h-.66v-2.57c0-.26-.04-.45-.1-.57-.1-.19-.28-.28-.55-.28-.25 0-.47.1-.67.29-.2.19-.3.53-.3 1.03V31H43v-4ZM49.43 29.68a.9.9 0 0 0 .17.48c.16.2.44.3.85.3.24 0 .45-.04.63-.14a.5.5 0 0 0 .28-.48.4.4 0 0 0-.22-.37c-.1-.05-.28-.1-.56-.18l-.51-.12a2.56 2.56 0 0 1-.73-.27.8.8 0 0 1-.42-.7c0-.36.13-.65.4-.87.26-.22.61-.33 1.06-.33.58 0 1 .17 1.26.5.16.2.23.44.23.68h-.61a.72.72 0 0 0-.16-.39c-.15-.17-.4-.25-.77-.25a.96.96 0 0 0-.56.14.43.43 0 0 0-.2.36c0 .16.1.3.26.4.1.05.24.1.42.15l.43.1c.47.1.78.21.94.32.25.16.38.41.38.76 0 .33-.13.62-.4.87-.25.24-.65.36-1.18.36-.58 0-.99-.13-1.23-.38a1.43 1.43 0 0 1-.38-.94h.62ZM33.41 29.68a.9.9 0 0 0 .16.48c.17.2.45.3.86.3.24 0 .45-.04.63-.14a.5.5 0 0 0 .28-.48.4.4 0 0 0-.22-.37c-.1-.05-.28-.1-.56-.18l-.52-.12a2.56 2.56 0 0 1-.73-.27.8.8 0 0 1-.41-.7c0-.36.13-.65.39-.87.26-.22.62-.33 1.06-.33.59 0 1 .17 1.26.5.16.2.24.44.24.68h-.62a.72.72 0 0 0-.15-.39c-.15-.17-.4-.25-.78-.25a.96.96 0 0 0-.56.14.43.43 0 0 0-.18.36c0 .16.08.3.25.4.1.05.23.1.42.15l.43.1c.47.1.78.21.94.32.25.16.38.41.38.76 0 .33-.13.62-.4.87-.26.24-.65.36-1.19.36-.57 0-.98-.13-1.22-.38a1.43 1.43 0 0 1-.38-.94h.62ZM26.02 29.68a.9.9 0 0 0 .16.48c.17.2.45.3.86.3.24 0 .45-.04.63-.14a.5.5 0 0 0 .27-.48.4.4 0 0 0-.22-.37c-.09-.05-.27-.1-.55-.18l-.52-.12a2.56 2.56 0 0 1-.73-.27.8.8 0 0 1-.41-.7c0-.36.13-.65.39-.87.26-.22.62-.33 1.06-.33.59 0 1 .17 1.26.5.16.2.24.44.24.68h-.62a.72.72 0 0 0-.15-.39c-.15-.17-.4-.25-.78-.25a.96.96 0 0 0-.56.14.43.43 0 0 0-.18.36c0 .16.08.3.24.4.1.05.24.1.43.15l.43.1c.47.1.78.21.94.32.25.16.38.41.38.76 0 .33-.13.62-.4.87-.26.24-.65.36-1.19.36-.57 0-.98-.13-1.22-.38a1.43 1.43 0 0 1-.38-.94h.62ZM23.05 30.46c.44 0 .73-.16.89-.48.16-.31.24-.67.24-1.06 0-.35-.06-.63-.17-.85-.19-.35-.5-.52-.95-.52-.4 0-.68.15-.86.44a2 2 0 0 0-.27 1.07c0 .4.09.73.27 1 .18.26.46.4.85.4Zm.03-3.46c.5 0 .92.16 1.26.48.35.33.52.8.52 1.43 0 .6-.15 1.1-.46 1.5-.3.4-.77.59-1.4.59-.54 0-.96-.17-1.27-.52a2.04 2.04 0 0 1-.47-1.41c0-.63.16-1.14.5-1.5.32-.38.76-.57 1.32-.57Z" fill="#fff"/></svg>