<!-- by TradingView --><svg width="56" height="56" viewBox="0 0 56 56" xmlns="http://www.w3.org/2000/svg"><path fill="#F0F3FA" d="M0 0h56v56H0z"/><path fill-rule="evenodd" d="M9 24v11h3V24h4v-3H5v3h4Zm-3.5-.5h4v11h2v-11h4v-2h-10v2ZM20.46 21H17l4.57 14h2.67l2.66-8.43L29.7 35h2.6L37 21h-3.24l-2.73 8.27-2.7-8.27h-2.66l-2.64 8.27L20.46 21Zm5.57.5-3 9.43-2.94-9.43h-2.4l4.24 13h1.94l3.02-9.56 3.17 9.56h1.88l4.36-13h-2.18l-3.1 9.37-3.05-9.37h-1.94ZM44 34.5a6.5 6.5 0 1 0 0-13 6.5 6.5 0 0 0 0 13Zm4.5-6.5a4.5 4.5 0 1 1-9 0 4.5 4.5 0 0 1 9 0Zm2.5 0a7 7 0 1 1-14 0 7 7 0 0 1 14 0Zm-3 0a4 4 0 1 1-8 0 4 4 0 0 1 8 0Z"/></svg>