<!-- by TradingView --><svg width="56" height="56" viewBox="0 0 56 56" xmlns="http://www.w3.org/2000/svg"><path fill="url(#aivteigo0)" d="M0 0h56v56H0z"/><path d="M6 23H4v7.35C4 31.81 5.11 33 6.48 33h6.04C13.9 33 15 31.81 15 30.35V23h-2v8H6v-8ZM17 23v10h2v-8h.62l4.34 7.46c.2.34.55.54.92.54H28v-2h-2.46l-4.33-7.45c-.2-.34-.54-.55-.92-.55H17ZM24 23h4v2h-4zM30 23h9v2h-9zM30 27h9v2h-9zM30 31h9v2h-9zM41 23h4v2h-4zM48 31h4v1.27c0 .4-.34.73-.76.73H48v-2ZM48.81 23H52v2h-2.49l-4.6 7.66a.7.7 0 0 1-.59.34H41v-2h2.6l4.62-7.66a.7.7 0 0 1 .6-.34Z" fill="#fff"/><defs><linearGradient id="aivteigo0" x1="10.42" y1="9.71" x2="68.15" y2="76.02" gradientUnits="userSpaceOnUse"><stop stop-color="#1A1E21"/><stop offset="1" stop-color="#06060A"/></linearGradient></defs></svg>