<!-- by TradingView --><svg width="56" height="56" viewBox="0 0 56 56" xmlns="http://www.w3.org/2000/svg"><path fill="#F0F3FA" d="M0 0h56v56H0z"/><path d="M36 40.55V32h8.62c.2 0 .38-.22.38-.5v-3c0-.28-.17-.5-.38-.5H32v12.55c0 .25.18.45.4.45h3.2c.22 0 .4-.2.4-.45Z" fill="#BF1C2C"/><path d="M25 32.07v-9.93c0-.63.46-1.14 1.02-1.14H48c0 2.32-1.69 4-3.77 4H29v7.9c0 2.81-2.05 5.1-4.58 5.1h-9.84C12.05 38 10 35.71 10 32.9V17.8c0-.44.32-.8.71-.8h2.58c.4 0 .71.36.71.8v14.27c0 1.07.78 1.93 1.73 1.93h7.54c.95 0 1.73-.86 1.73-1.93Z" fill="#002D8B"/></svg>