<!-- by TradingView --><svg width="56" height="56" viewBox="0 0 56 56" xmlns="http://www.w3.org/2000/svg"><path fill="#F0F3FA" d="M0 0h56v56H0z"/><path d="M20 16h-5v4.94h5V16Zm-5 5.44v4.46h5v-4.46h-5Zm0 4.96v4.27h5V26.4h-5Zm0 4.77v4.26h5v-4.26h-5Zm0 4.76V41h5v-5.07h-5ZM20.5 41h5v-5.07h-5V41Zm5.5 0h4.5v-5.07H26V41Zm5 0h4.5v-5.07H31V41Zm5 0h5v-5.07h-5V41Zm5-5.57v-4.26h-5v4.26h5Zm0-4.76V26.4h-5v4.27h5Zm0-4.77v-4.46h-5v4.46h5Zm0-4.96V16h-5v4.94h5ZM35.5 16H31v4.94h4.5V16Zm-5 0H26v4.94h4.5V16Zm-5 0v4.94h-5V16h5Zm10 15.17v4.26H31v-4.26h4.5Zm-5 0v4.26H26v-4.26h4.5Zm-5 0v4.26h-5v-4.26h5Zm-5-.5h5V26.4h-5v4.27Zm5.5 0h4.5V26.4H26v4.27Zm5 0h4.5V26.4H31v4.27Zm4.5-9.23v4.46H31v-4.46h4.5Zm-5 0v4.46H26v-4.46h4.5Zm-5 0v4.46h-5v-4.46h5Z" fill="#D9D9D9"/><path d="M15 22.66V21.3l11.36 16.71L40.24 14.5l-1.07-.72L43 11l-.22 5.1-1.12-.7-15.03 25.15L15 22.65Z" fill="#0E5AA4"/></svg>