<!-- by TradingView --><svg xmlns="http://www.w3.org/2000/svg" width="56" height="56" viewBox="0 0 56 56"><g clip-path="url(#aoajina2q)"><path d="M56 0H0v56h56V0Z" fill="#F0F3FA"/><path fill-rule="evenodd" d="M43 14H13v28.05h30V14Zm-2 2.05H15v24h26v-24Zm-1.5 15.74c-.25 0-.5 0-.5.21v4c-.05.4-6 1.5-8.41.7A7.72 7.72 0 0 1 27 34c-.67-.89-1.07-3.93-1.04-4L24 34h-1c-1.9-4.68-5.5-12.85-5.5-12.85s-.5-.15-1-.15-.95-1 0-1a1384.99 1384.99 0 0 0 4.54 0h.1c.32 0 .65 0 .64.35 0 .36-1.2.63-1.8.65l3.52 9c2.21-4.56 2.27-4.69 2.34-4.81l1.95-4.04c-.11-.27-.53-.32-.93-.36-.44-.05-.86-.1-.86-.44 0-.34.57-.35 1-.35h4.5c.8 0 1.02.48-.5 1a.4.4 0 0 1-.13.02c-.17.02-.44.04-.6.2L29 24c.05 0 .15-.07.3-.16.32-.21.9-.57 1.7-.84 1.15-.38 2.9-.3 4.1-.23l.9.03 1.02.08c.64.06 1.36.12 1.98.12v4h-1v-2c-2.63-1.43-6.37-1.54-8.4.9-1.84 2.2-1.46 6.62-.06 8.32.83 1 1.48 1.3 2.8 1.48.97.13 2.9.26 3.66-.55V32c-.36-.32-.9-.3-1.32-.29-.39.02-.68.03-.68-.21 0-.5.5-.5 1-.5h4c.45 0 .98 0 1 .58 0 .21-.25.21-.5.21Z" fill="#FFC40E"/></g><defs><clipPath id="aoajina2q"><path transform="translate(.13 .13)" d="M0 0h55.75v55.75H0z"/></clipPath></defs></svg>