<!-- by TradingView --><svg width="56" height="56" viewBox="0 0 56 56" xmlns="http://www.w3.org/2000/svg"><path fill="#F0F3FA" d="M0 0h56v56H0z"/><path d="M18.18 14.68c-.2-.57-.7-.8-1.19-.62-.48.18-.71.7-.52 1.26 3.54 9.98 7.1 19.94 10.64 29.93.22.62.7.88 1.2.7.52-.2.73-.7.51-1.33-3.55-9.98-7.06-19.97-10.64-29.94Z" fill="url(#a0qdaq0tx)"/><path d="M43.44 14.07c-.53-.2-1.02.05-1.25.7-3.25 9.18-6.4 18.4-9.8 27.51l-.91-2.44a.46.46 0 0 0-.07-.3c-.23-.45-.18-.87 0-1.33 2.9-7.54 5.42-15.24 8.12-22.86.21-.6-.02-1.12-.53-1.3-.51-.17-.98.09-1.2.7-2.26 6.36-4.5 12.7-6.77 19.05-.25.71-.6 1.4-.7 2.17l-.2.03c-.3-1.12-.8-2.18-1.15-3.3 2.07-5.79 4.09-11.56 6.16-17.34.21-.6-.02-1.13-.52-1.3-.5-.18-1 .09-1.22.7-1.7 4.85-3.42 9.69-5.16 14.53-.05.17-.05.4-.31.43-1.8-5.01-3.5-10.06-5.35-15.05-.22-.57-.72-.8-1.2-.6-.49.18-.71.7-.51 1.26 2.2 6.29 4.41 12.57 6.7 18.86.71 1.97 1.36 3.95 2.14 5.91l1.24 3.6c.2.56.38 1.13.6 1.68a.85.85 0 0 0 .86.6c.19.01.37-.04.52-.16a.86.86 0 0 0 .32-.46c1.71-4.85 3.46-9.62 5.16-14.47 1.82-5.17 3.66-10.33 5.5-15.49.22-.62.02-1.13-.47-1.33Z" fill="url(#b0qdaq0tx)"/><path d="M13.77 14.63a.94.94 0 0 0-.47-.54.9.9 0 0 0-1.02.18.93.93 0 0 0-.28.67c0 .12.02.24.07.36 3.52 10.01 7.12 20 10.67 30 .2.58.68.82 1.17.64a.9.9 0 0 0 .54-.5.94.94 0 0 0 0-.74c-3.55-10.04-7.07-20.06-10.68-30.07Z" fill="url(#c0qdaq0tx)"/><defs><linearGradient id="a0qdaq0tx" x1="22.66" y1="45.71" x2="22.66" y2="18.41" gradientUnits="userSpaceOnUse"><stop stop-color="#60D7C0"/><stop offset=".03" stop-color="#5ACBBA"/><stop offset=".14" stop-color="#429BA2"/><stop offset=".25" stop-color="#2F758F"/><stop offset=".35" stop-color="#215A82"/><stop offset=".43" stop-color="#194A7A"/><stop offset=".5" stop-color="#164477"/><stop offset=".59" stop-color="#135684"/><stop offset=".77" stop-color="#0B86A7"/><stop offset="1" stop-color="#00CAD7"/></linearGradient><linearGradient id="b0qdaq0tx" x1="32.4" y1="45.71" x2="32.4" y2="18.41" gradientUnits="userSpaceOnUse"><stop stop-color="#60D7C0"/><stop offset=".03" stop-color="#5ACBBA"/><stop offset=".14" stop-color="#429BA2"/><stop offset=".25" stop-color="#2F758F"/><stop offset=".35" stop-color="#215A82"/><stop offset=".43" stop-color="#194A7A"/><stop offset=".5" stop-color="#164477"/><stop offset=".59" stop-color="#135684"/><stop offset=".77" stop-color="#0B86A7"/><stop offset="1" stop-color="#00CAD7"/></linearGradient><linearGradient id="c0qdaq0tx" x1="18.26" y1="45.71" x2="18.26" y2="18.41" gradientUnits="userSpaceOnUse"><stop stop-color="#60D7C0"/><stop offset=".03" stop-color="#5ACBBA"/><stop offset=".14" stop-color="#429BA2"/><stop offset=".25" stop-color="#2F758F"/><stop offset=".35" stop-color="#215A82"/><stop offset=".43" stop-color="#194A7A"/><stop offset=".5" stop-color="#164477"/><stop offset=".59" stop-color="#135684"/><stop offset=".77" stop-color="#0B86A7"/><stop offset="1" stop-color="#00CAD7"/></linearGradient></defs></svg>