<!-- by TradingView --><svg width="56" height="56" fill="none" xmlns="http://www.w3.org/2000/svg"><path fill="#F0F3FA" d="M0 0h56v56H0z"/><path fill-rule="evenodd" clip-rule="evenodd" d="M7 28c0-7.183 9.402-13 21.003-13C39.598 15 49 20.817 49 28s-9.395 13-20.997 13C16.402 41 7 35.183 7 28Zm1.832 0c0 6.91 8.58 12.522 19.171 12.522 10.586 0 19.172-5.605 19.172-12.522 0-6.916-8.586-12.522-19.172-12.522-10.585 0-19.17 5.606-19.17 12.522Zm26.544-8.896c2.007.56 1.2 1.1.3 1.703-.531.357-1.095.734-1.127 1.15-.074.944 1.419 1.942 2.199 2.344 2.116 1.09 4.43 1.436 6.826 1.795.49.073.982.147 1.477.227-2.24.67-4.868.603-7.241.402-2.353-.2-4.64-.69-6.502-1.353-1.485-.525-2.725-1.201-3.96-1.875-1.27-.693-2.534-1.382-4.053-1.902-1.016-.348-2.098-.663-3.329-.582a5.049 5.049 0 0 0-3.112 1.352c-.968.898-1.735 2.103-1.573 3.932.127 1.426.954 2.84 1.97 3.255.98.401 2.326.087 3.267-.215.47-.147 1.284-.428 1.385-.864.141-.578-.528-.857-1.06-1.078-.151-.063-.292-.122-.4-.18-1.243-.697-.914-4.233-.308-4.133 1.722.286 3.195 1.747 3.91 2.458.24.238.396.392.446.388.323-.027 1.029.014 1.54.06 3.28.309 6.541.891 9.648 1.534l.383.08c.743.153 1.493.309 2.239.503.264.069.524.145.784.22.57.166 1.138.33 1.743.423l.364.056c1.27.198 2.632.41 3.859.667l.004.001c.417.08.977.188.944.649-.02.328-.68.99-1.486 1.433a6.232 6.232 0 0 1-1.423.575 6.475 6.475 0 0 0-.272.081c-.356.12-.403.737.128.496.525-.235 1.6-.69.437.395-.53.496-1.902 1.118-2.548 1.353-1.587.57-4.175 1.225-5.768.57-1.371-.565-1.774-1.207-2.01-1.583-.144-.23-.226-.362-.43-.313-.223.053-.41 2.243 3.152 3.014-1.963 1.044-6.077 1.74-8.767 1.841-4.33.161-7.832-.85-10.474-2.424a16.6 16.6 0 0 1-2.528-1.842c-1.52-1.36-2.837-3.402-2.992-5.9-.141-2.257.565-3.576 1.54-4.762 1.889-2.284 4.847-3.63 8.168-4.42.86-.2 1.742-.348 2.676-.462 4.128-.476 8.559.094 11.974.93Zm-9.749 7.621c7.82.127 13.117 2.525 13.117 2.525-5.195-1.451-11.956-2.367-12.983-2.506a5.233 5.233 0 0 1-.134-.019Zm7.866 5.083s1.627 3.04 6.2 2.177c.006 0-5.621 1.594-6.2-2.177Zm6.22-1.46a.312.312 0 0 1-.31.309.308.308 0 1 1 0-.617c.168 0 .31.134.31.309Zm-15.807 2.164c-.605-.02-4.444.187-5.795.361 1.01-.029 2.014.027 3.02.083 1.065.06 2.13.12 3.205.078l.049-.003c.227-.013.651-.038.657-.225.014-.254-.766-.288-1.136-.294Zm-5.815 1.861a59.725 59.725 0 0 1 5.808-.361c.364-.007 1.123.053 1.143.274.02.221-.524.248-.571.248-.762.058-1.534.008-2.305-.042-.297-.02-.593-.038-.889-.051-.568-.025-1.126-.031-1.681-.037-.502-.006-1.001-.011-1.505-.03Zm3.721 1.17c-.835.065-1.662.13-2.47.29.912-.012 1.843.017 2.758.046a97.243 97.243 0 0 0 1.757.045c.404.013 1.19.038 1.179-.251-.014-.302-1.264-.322-1.66-.275-.524.064-1.045.105-1.564.145Z" fill="#006AB6"/></svg>