<!-- by TradingView --><svg width="56" height="56" viewBox="0 0 56 56" xmlns="http://www.w3.org/2000/svg"><path fill="#F0F3FA" d="M0 0h56v56H0z"/><path d="M11.16 19.31v-.02c-.06-.12-.23-.29-.36-.29H5.3c-.1 0-.3.07-.3.22l.01.08 7.2 14.4c1.78.74 3.23-.26 4.82-2.75l-5.87-11.64Z" fill="url(#axar30fgp)"/><path d="M12.22 33.7C17.62 36 20 19.08 25.74 19.14c2.7.03 4.57 3.34 3.04 3.33-.67 0-1.13.37-1.76.98-2.7 2.62-6.01 14.5-10.14 14.54-3.12.02-3.83-2.86-4.64-4.26" fill="url(#bxar30fgp)"/><path d="M45.02 23.3c-5.73-2.45-8.08 15.08-14.65 14.53-2.84-.12-3.82-2.6-3.9-4.8 3.03 7.78 8.48-13.74 14-14 3.1-.14 3.74 2.88 4.55 4.28Z" fill="url(#cxar30fgp)"/><path d="M26.26 26h5.44c.14 0 .3.1.3.24v3.25c0 3.33.5 3.68 1.35 4.1 1 .5 2.77-.32 2.77-.32s-2.34 4.69-5.47 4.71c-3.03.02-4.63-2.66-4.65-5.08v-6.66a.26.26 0 0 1 .26-.24Z" fill="url(#dxar30fgp)"/><path d="M38.27 33c-.13 0-.25.03-.3.15v.01c-.45.77-1.9 3.54-2.7 4.34a.15.15 0 0 0-.04.03.53.53 0 0 0-.03.04l-.03.04-.02.04c-.04.12.05.35.13.35h8.06a3.65 3.65 0 0 0 1.46-2.17 1.78 1.78 0 0 0-.19-1.04c-.23-.47-.78-1.79-.78-1.79h-5.56Z" fill="url(#exar30fgp)"/><path d="M49.14 31.54c.85 1.61 1.2 3.45.43 4.64-.8 1.24-1.21 1.81-6.29 1.79 0 0 2.15-1.52 1.36-3.12l-1.23-2.44-3.22-6.39c1.62-2.49 3.07-3.46 4.83-2.71l4.12 8.23Z" fill="url(#fxar30fgp)"/><path d="M25.37 19.18c.45.19.63.73.63 1.5v4.05c0 .14.13.27.27.27h5.47c.13 0 .26-.12.26-.27v-3.46c0-1.24-.92-2.29-3.58-2.26-.96 0-.3-.04-1.8.03-.2 0-1.06.1-1.25.14Z" fill="#65AE2E"/><defs><linearGradient id="axar30fgp" x1="5" y1="26.51" x2="17.03" y2="26.51" gradientUnits="userSpaceOnUse"><stop offset=".45" stop-color="#E40C29"/><stop offset=".45" stop-color="#E30C29"/><stop offset=".61" stop-color="#C61422"/><stop offset=".76" stop-color="#B4191E"/><stop offset=".86" stop-color="#AE1B1D"/></linearGradient><linearGradient id="bxar30fgp" x1="15.34" y1="36.89" x2="27.06" y2="20.82" gradientUnits="userSpaceOnUse"><stop offset=".04" stop-color="#AE1B1D"/><stop offset=".26" stop-color="#E20E29"/><stop offset=".52" stop-color="#AE1C1E"/><stop offset=".73" stop-color="#E30D29"/><stop offset=".93" stop-color="#AE1B1D"/></linearGradient><linearGradient id="cxar30fgp" x1="29.93" y1="38.1" x2="40.92" y2="18.78" gradientUnits="userSpaceOnUse"><stop offset=".27" stop-color="#023367"/><stop offset=".46" stop-color="#014C87"/><stop offset=".71" stop-color="#006AAE"/><stop offset=".84" stop-color="#0076BD"/></linearGradient><linearGradient id="dxar30fgp" x1="29.42" y1="25.72" x2="29.51" y2="37.98" gradientUnits="userSpaceOnUse"><stop offset=".53" stop-color="#65AE2E"/><stop offset=".74" stop-color="#297F34"/></linearGradient><linearGradient id="exar30fgp" x1="45" y1="35.62" x2="35.4" y2="35.51" gradientUnits="userSpaceOnUse"><stop offset=".07" stop-color="#00428C"/><stop offset=".68" stop-color="#0076BD"/></linearGradient><linearGradient id="fxar30fgp" x1="41.91" y1="24.76" x2="47.91" y2="37.96" gradientUnits="userSpaceOnUse"><stop offset=".29" stop-color="#00428C"/><stop offset=".63" stop-color="#0076BD"/></linearGradient></defs></svg>