<!-- by TradingView --><svg width="56" height="56" viewBox="0 0 56 56" xmlns="http://www.w3.org/2000/svg"><path fill="#F0F3FA" d="M0 0h56v56H0z"/><path d="M12 15v4h12.9L12 41h1.24l3.6-6.24A10.29 10.29 0 0 0 24.12 38c3.78 0 5.44-.6 5.88-.9V30h-4v3.94c-3.25.64-5.19-1-5.19-3.97S21.91 25 25.28 25c2.7 0 4.22.6 4.72.9v-4.12c-1.68-.68-3.88-.8-5.24-.78l3.46-6H12Zm32 18.06v4.06c-.73.3-2.9.88-5.78.88-3.6 0-8.22-1.03-8.22-8.74 0-7.7 7.37-8.26 9.23-8.26 1.5 0 3.8.65 4.77.98v3.98c-.5-.3-2.11-.93-4.62-.93-3.12 0-4.61 1.89-4.61 4.63 0 2.75 1.41 4.51 4.61 4.51 2.56 0 4.15-.74 4.62-1.1Z" fill="#0C2340"/></svg>