<!-- by TradingView --><svg xmlns="http://www.w3.org/2000/svg" width="56" height="56" viewBox="0 0 56 56"><path fill="#F0F3FA" d="M0 0h56v56H0z"/><path d="M28.52 21l-8.26 11.98c1.1 3.85 4.28 2.24 5.74.96L31.8 25h11.5c4.6-.16 6.38 1.79 6.7 2.8 0-6.11-4.5-6.65-7.03-6.8H28.52z" fill="url(#aeegrvjbv)"/><path d="M42.78 30h-2.44c-1.96.37-4.48 2.63-5.5 4h6.83c5.59 0 7.98-2.77 7.98-4.38 0-3.26-3.09-3.98-5.62-3.83 1.46 1.86.03 4.21-1.25 4.21z" fill="url(#beegrvjbv)"/><path d="M17 37.3L6 21h6.61l7.77 11.8c2.4 3.45 5.05 1.72 6.08.42L23.84 37c-.6.67-1.59 1.98-3.46 2A4.17 4.17 0 0 1 17 37.3z" fill="url(#ceegrvjbv)"/><path d="M20.37 38.05c-1.64-.03-2.88-1.4-3.3-2.07l-.32.35c1.26 2.27 2.9 2.43 3.73 2.43 2.24 0 3.96-2.7 4.67-4.17-.2.1-.66.33-.78.33-.4.87-1.95 3.16-4 3.13z" fill="url(#deegrvjbv)"/><path d="M42.6 21.24c5.68.24 7.24 4.04 7.2 5.78-1.29-4.18-5.44-5.22-7.36-5.22H38.9l-.94-.56h4.65z" fill="url(#eeegrvjbv)"/><path d="M31.84 30l-6.4 9h6.28l2.9-4.03c2.27-3.21 4.78-4.58 6-4.97h-8.78z" fill="url(#feegrvjbv)"/><path d="M39.44 30.19h-7.15l.4.42h5.4a18.1 18.1 0 0 0-4.16 4.5h.28c1.66-2.41 4.3-4.28 5.23-4.92z" fill="url(#geegrvjbv)"/><path d="M49.36 29.35c-.17-2.48-3.08-3.15-4.5-3.17l.33.43c1.6.16 3.75.85 3.79 2.74.03 1.51-1.96 2.9-2.96 3.42l.32.1c2.6-1.19 3.1-2.84 3.02-3.52z" fill="url(#heegrvjbv)"/><defs><linearGradient id="aeegrvjbv" x1="48.29" y1="22.99" x2="21.21" y2="33.83" gradientUnits="userSpaceOnUse"><stop stop-color="#499FD8"/><stop offset="1" stop-color="#115FA1"/></linearGradient><linearGradient id="beegrvjbv" x1="49.16" y1="28.43" x2="35.42" y2="33.29" gradientUnits="userSpaceOnUse"><stop stop-color="#DFE0E2"/><stop offset=".48" stop-color="#BBBCBE"/><stop offset="1" stop-color="#999A9E"/></linearGradient><linearGradient id="ceegrvjbv" x1="9.09" y1="21.02" x2="22.89" y2="37.53" gradientUnits="userSpaceOnUse"><stop stop-color="#1B67A5"/><stop offset="1" stop-color="#4499D2"/></linearGradient><linearGradient id="deegrvjbv" x1="24.55" y1="35.59" x2="16.75" y2="36.16" gradientUnits="userSpaceOnUse"><stop stop-color="#4296D0"/><stop offset=".42" stop-color="#89B6E2"/><stop offset=".62" stop-color="#8BB5DF"/><stop offset="1" stop-color="#3A8DC7"/></linearGradient><linearGradient id="eeegrvjbv" x1="38.46" y1="21.24" x2="49.63" y2="26.43" gradientUnits="userSpaceOnUse"><stop stop-color="#388CC7"/><stop offset=".47" stop-color="#91BCE6"/><stop offset=".78" stop-color="#8AB6E3"/><stop offset="1" stop-color="#489ED7"/></linearGradient><linearGradient id="feegrvjbv" x1="38.74" y1="30" x2="25.93" y2="39.13" gradientUnits="userSpaceOnUse"><stop stop-color="#E3E4E6"/><stop offset=".53" stop-color="#AAABAF"/><stop offset=".9" stop-color="#898A8E"/></linearGradient><linearGradient id="geegrvjbv" x1="38.66" y1="30.19" x2="32.84" y2="32.61" gradientUnits="userSpaceOnUse"><stop stop-color="#F2F4F3"/><stop offset="1" stop-color="#B9BABD"/></linearGradient><linearGradient id="heegrvjbv" x1="45.43" y1="29.2" x2="49.37" y2="29" gradientUnits="userSpaceOnUse"><stop stop-color="#CDCECF"/><stop offset="1" stop-color="#F2F2F2"/></linearGradient></defs></svg>