<!-- by TradingView --><svg width="56" height="56" viewBox="0 0 56 56" xmlns="http://www.w3.org/2000/svg"><path fill="#281352" d="M0 0h56v56H0z"/><path d="M26.27 15.42c.9 2.4 1.67 4.37 1.73 4.37.06 0 .83-1.95 1.72-4.34.88-2.39 1.7-4.39 1.84-4.44.26-.1 4.42 1.34 4.72 1.63.1.1-.67 2.48-1.7 5.3a58.11 58.11 0 0 0-1.75 5.24c.06.06 2.41-.74 5.23-1.76 2.83-1.03 5.21-1.79 5.3-1.7.3.3 1.73 4.47 1.64 4.72-.06.14-2.05.97-4.44 1.85A53.1 53.1 0 0 0 36.2 28c0 .07 1.96.84 4.35 1.72 2.39.88 4.38 1.71 4.44 1.84.1.26-1.35 4.43-1.63 4.72-.1.1-2.48-.67-5.3-1.7a58.16 58.16 0 0 0-5.24-1.75c-.06.06.73 2.41 1.76 5.24 1.02 2.82 1.78 5.2 1.69 5.3-.3.28-4.46 1.72-4.72 1.63-.13-.06-.96-2.05-1.84-4.44A53 53 0 0 0 28 36.22a53 53 0 0 0-1.72 4.34c-.88 2.39-1.7 4.38-1.84 4.44-.26.1-4.42-1.35-4.72-1.63-.1-.1.67-2.48 1.7-5.3a58.11 58.11 0 0 0 1.75-5.24c-.06-.06-2.41.73-5.23 1.76-2.83 1.02-5.21 1.78-5.3 1.69-.3-.3-1.73-4.46-1.64-4.72.06-.13 2.05-.96 4.44-1.84A53.04 53.04 0 0 0 19.8 28c0-.06-1.96-.83-4.35-1.71-2.39-.88-4.38-1.71-4.44-1.85-.1-.25 1.35-4.42 1.63-4.71.1-.1 2.48.66 5.3 1.69a58.16 58.16 0 0 0 5.24 1.76c.06-.06-.73-2.42-1.76-5.24-1.02-2.82-1.78-5.2-1.69-5.3.28-.27 4.25-1.69 4.6-1.64.21.03.9 1.58 1.95 4.42Zm.28 10.2c-1.83 1.12-1.76 3.88.13 4.86a2.8 2.8 0 0 0 3.7-1.03c1.51-2.47-1.36-5.34-3.83-3.83Z" fill="#FDC300"/></svg>