<!-- by TradingView --><svg xmlns="http://www.w3.org/2000/svg" width="56" height="56" viewBox="0 0 56 56"><path fill="#F0F3FA" d="M0 0h56v56H0z"/><path d="m21.06 32.2 6.98-11.49 6.8 11.5a8 8 0 0 1 1.1 4.06c0 4.27-3.3 7.73-7.38 7.73h-1.3c-4.06 0-7.34-3.44-7.34-7.68 0-1.47.4-2.9 1.14-4.13Z" fill="#E5BF44"/><path d="M19.73 31.54a10.34 10.34 0 0 0-.9 4.24l-5.58-9.07a8.55 8.55 0 0 1 .66-9.84 7.67 7.67 0 0 1 12.52.81l.78 1.22a557.92 557.92 0 0 0-7.48 12.64Z" fill="#ABC27C"/><path d="M36.27 31.54c.74 1.43.91 3.42.9 4.24l5.58-9.07a8.55 8.55 0 0 0-.66-9.84 7.67 7.67 0 0 0-12.52.81l-.78 1.22a557.92 557.92 0 0 1 7.48 12.64Z" fill="#8FAAA1"/></svg>