<!-- by TradingView --><svg width="56" height="56" viewBox="0 0 56 56" xmlns="http://www.w3.org/2000/svg"><path fill="#F0F3FA" d="M0 0h56v56H0z"/><path d="M27.3 25c1.2 0 1.7 1 1.7 1.79v1.4c0 .81-.69 1.86-1.7 1.8L24 30v-5h3.3ZM25 26v3h2.08c.34 0 .92-.51.92-.88v-1.24c0-.36-.58-.88-.92-.88H25ZM29 30l1.98-4h1.04L34 30h-1.2l-.37-.73h-1.88l-.37.73H29Zm2.07-1.72h.88l-.45-.9-.43.9ZM34.5 26h2.67c.82-.04 1.37.65 1.33 1.43V30h-1v-2.5c0-.28-.28-.5-.55-.5H35.5v3h-1v-4ZM40.48 29.98c-.83.04-1.52-.57-1.48-1.43v-1.12c-.04-.86.65-1.47 1.48-1.43H43v1h-2.31c-.27 0-.69.21-.69.5v1c0 .3.42.5.69.5H43v1l-2.52-.02ZM44.98 30c-.84.04-1.52-.6-1.48-1.45v-1.12c-.05-.86.65-1.47 1.48-1.43h2.52v1h-2.31c-.27 0-.63.2-.63.5h2.94v1h-2.94c0 .3.36.5.63.5h2.3v1h-2.51ZM48 26h2.71c.77 0 1.29.54 1.29 1.3 0 .33-.14.51-.32.78.21.21.32.4.32.7V30h-1v-1.2c0-.09-.13-.23-.23-.23H49V30h-1v-4Zm1 1.01v.57h1.75c.14 0 .25-.17.25-.29a.3.3 0 0 0-.3-.3l-1.7.02Z" fill="#22599D"/><path d="M51.63 32.11c.2-.1.35-.34.37-.6 0-.28-.19-.51-.42-.51-6.14.83-42.18.83-45.41.34-.15 0-.2.2-.15.38.52 1.6 26.43 1.44 38.98.91.11 1.1.52 2.11 1.15 2.9A3.67 3.67 0 0 0 49 37v-1.35c-.77 0-1.52-.39-2.07-1.05a4.05 4.05 0 0 1-.82-2.01l.3-.02c.23 1.54 1.3 2.71 2.59 2.71v-1.37c-.42 0-.81-.2-1.09-.56-.19-.24-.32-.52-.4-.84l.31-.01c.17.6.63 1.04 1.18 1.04v-1.12c1.47-.1 2.41-.2 2.63-.3Z" fill="#B6DEF6"/><path d="m11 30 1.98-4h1.04L16 30h-1.2l-.37-.73h-1.88l-.37.73H11Zm2.07-1.72h.9l-.45-.9-.45.9ZM15.69 26l1.3 2.65L18.3 26h1.2l-2 4h-1.03l-1.97-4h1.19ZM21 30c-1 0-1.5-.5-1.5-1.45v-1.12c0-.93.5-1.43 1.48-1.43h2.52v1h-2.33c-.27 0-.67.2-.67.5h3v1h-3c0 .29.4.52.67.52h2.33V30H21ZM11.97 25.12a.17.17 0 0 0-.16-.1h-1.32c-.04 0-.08.03-.12.05-.04.03-.06.07-.07.1l-.73 2.47-.97-2.5c0-.04-.04-.07-.06-.1-.04-.02-.05-.04-.1-.04H7.6a.14.14 0 0 0-.1.05.17.17 0 0 0-.08.1L6.4 27.75l-.73-2.47c-.02-.05-.04-.1-.08-.12l-.1-.05-1.27-.1a.17.17 0 0 0-.16.1.2.2 0 0 0-.02.22l1.65 5.52c.02.1.1.14.18.14H6.9c.04-2.14 1.08-3 1.81-3.05-.69.24-.86 2.47.9 3.05h.54c.04 0 .08-.02.1-.05.04-.02.05-.07.07-.1L12 25.35a.28.28 0 0 0-.02-.22Zm-3 3.07c-.25.15-.39.46-.39.77-.02.29.06.58.2.82a1.11 1.11 0 0 1-.37-.96 1 1 0 0 1 .37-.75c.28-.19.3.05.2.12Z" fill="#203365"/><path d="m6.8 28.84-.81-2.64-.3-1.03a.18.18 0 0 0-.18-.15L4.18 25c-.1 0-.18.1-.18.22l.02.1 1.6 5.25c.03.12.13.17.23.12h.02l1.12-.72c.08-.05.12-.17.08-.27l-.28-.86Z" fill="url(#avkirfvpc)"/><defs><linearGradient id="avkirfvpc" x1="4.3" y1="24.9" x2="7.48" y2="29.6" gradientUnits="userSpaceOnUse"><stop stop-color="#3566A6"/><stop offset="1" stop-color="#203365"/></linearGradient></defs></svg>