<!-- by TradingView --><svg width="56" height="56" viewBox="0 0 56 56" xmlns="http://www.w3.org/2000/svg"><path fill="#F0F3FA" d="M0 0h56v56H0z"/><path d="m7.54 25.34-2.81.72a4.74 4.74 0 0 1 4.6-3.44c2.26 0 3.31 1.48 3.56 2.22-.37-.5-1.4-1.5-2.42-1.5-1.6 0-2.6 1.33-2.93 2Z" fill="#ED1C24"/><path d="m7.12 25.44.42-.1c.33-.67 1.34-2 2.93-2 1.02 0 2.05 1 2.42 1.5-.04-.13-.1-.27-.2-.42a2.86 2.86 0 0 0-2.42-1.32c-1.82 0-2.8 1.42-3.15 2.34Z" fill="#0A3C79"/><path d="M4.97 27.21a1.3 1.3 0 0 1-.53 0c-.15.7-.44 2.1-.44 2.2 0 .11.13.13.2.13l2.53-.57c.79-.17 1.18-.6 1.28-.78l1.3-2.58c-.5.37-1.65.87-2.16 1.06-.62.16-1.93.5-2.18.54Z" fill="url(#a3t0nd1kw)"/><path fill-rule="evenodd" d="M10.81 25.66c0-.11-.04-.2-.12-.25a.43.43 0 0 0-.27-.06.85.85 0 0 0-.6.34c-.15.2-.31.48-.43.77-.12.28-.2.59-.2.84l-.37.33-.05.05-.1.08a.05.05 0 0 0 0 .07c.01.02.04.03.06.01.04-.02.07-.05.1-.09l.05-.05.3-.27.04.11c.01.04.04.08.07.1.04.03.09.05.14.05.12 0 .2-.08.24-.16v-.01l.03.02c.04.02.08 0 .1-.02.05-.04.08-.1.1-.16l.05-.15.02-.05.07-.18c.03-.05.05-.07.08-.08h.01l.02.03c.02.03.03.07.03.13v.34c-.01.05.04.07.07.04l.22-.26.03.04c.04.03.08.04.12.04.06-.01.12-.04.17-.07h.1a.7.7 0 0 0 .27-.22v.01c0 .04.01.09.04.12a.1.1 0 0 0 .06.03h.06a.26.26 0 0 0 .11-.1l.03.06c.02.02.05.03.08.02.03 0 .07-.03.1-.05a.54.54 0 0 0 .08-.09 1 1 0 0 0 .1-.14c0 .02.03.05.05.06.06.06.14.07.23.04.06-.02.09-.07.11-.12a.83.83 0 0 0 .05-.18l.05.17.03.06c.02.01.04.03.07.03.03 0 .05-.02.05-.03l.02-.03a96.39 96.39 0 0 1 .72-.2h.02c0-.01 0 0 0 0v-.1h-.04a6.3 6.3 0 0 0-.27.08l-.39.11.06-.26.04-.35a.05.05 0 1 0-.09 0 6.36 6.36 0 0 1-.13.67v-.02a3.76 3.76 0 0 1-.11-.5.05.05 0 0 0-.06-.04.05.05 0 0 0-.04.05c0 .1 0 .23-.02.34a.76.76 0 0 1-.04.17c-.02.04-.04.06-.05.06-.07.03-.12.02-.15-.01-.04-.04-.07-.1-.1-.22a.35.35 0 0 1 .07-.24l.1-.13a.05.05 0 0 0 0-.06.04.04 0 0 0-.05-.01.73.73 0 0 0-.13.15.44.44 0 0 0-.07.3c0 .05.02.1.03.14l-.03-.01a.93.93 0 0 1-.1.16.45.45 0 0 1-.07.08.15.15 0 0 1-.06.03v-.18l.06-.21a.05.05 0 0 0-.1-.02 2.22 2.22 0 0 0-.05.24.6.6 0 0 1-.07.12.17.17 0 0 1-.07.07h-.02l-.02-.06c0-.05 0-.1.02-.16l.06-.1a.04.04 0 0 0-.02-.07.05.05 0 0 0-.06.02l-.03.05h-.02l-.02.07-.07.1a.64.64 0 0 1-.26.22v-.06l.03-.1a2.99 2.99 0 0 1 .2-.45l.07-.14a.05.05 0 0 0-.02-.06.05.05 0 0 0-.07.02l-.06.14-.08.15a.68.68 0 0 0-.28.1.4.4 0 0 0-.18.35l-.19.21v-.22a.46.46 0 0 0-.04-.16.15.15 0 0 0-.05-.06.1.1 0 0 0-.08-.02c-.06.02-.1.07-.14.12a1.1 1.1 0 0 0-.1.26l-.04.14c-.03.06-.05.1-.07.11v.01l-.01-.01a.4.4 0 0 1 0-.1v-.39h-.03l.1-.09.1-.09a6.6 6.6 0 0 0 .76-.76.67.67 0 0 0 .14-.35Zm-1.34.84c-.1.24-.18.5-.19.72l.47-.43.1-.09.11-.09a6.5 6.5 0 0 0 .63-.65c.09-.12.13-.22.13-.3 0-.09-.03-.14-.08-.18a.34.34 0 0 0-.22-.04.76.76 0 0 0-.53.3c-.15.2-.3.47-.42.76Zm-.17 1a.39.39 0 0 1-.02-.15l.38-.35v.32a.56.56 0 0 1-.07.17c-.04.06-.09.1-.16.1a.13.13 0 0 1-.08-.02.16.16 0 0 1-.05-.06Zm1.46-.47v.07a.35.35 0 0 1-.15.06h-.04c-.01-.02-.02-.04-.02-.09a.3.3 0 0 1 .14-.28.57.57 0 0 1 .18-.08 2.64 2.64 0 0 0-.1.32Z"/><path fill-rule="evenodd" d="m4.02 30.77.71 1.07c.04.1.22.23.67.11.46-.12 2.03-.48 2.77-.64l1.11-1.74-4.7 1.2c-.1.03-.35.07-.56 0Zm3.8-.22-.16-.27-.03.32-.3.07.29.12-.03.32.2-.24.3.12-.17-.27.2-.24-.3.07Zm-1.36.03.17.28.3-.08-.2.24.16.27-.29-.12-.2.24.02-.31-.29-.13.3-.07.03-.32Zm-1.19.28.16.27.3-.07-.2.24.17.27-.3-.12-.2.24.03-.32-.3-.12.31-.08.03-.31Z" fill="url(#b3t0nd1kw)"/><path d="M14.1 32h-3c-.05 0-.1-.05-.1-.11s.05-.11.1-.11h.46c.44 0 .74-.53.84-.8l3.38-8.85a.2.2 0 0 1 .18-.13c.08 0 .15.05.18.13.98 2.62 2.94 7.8 3.26 8.57.33.79.9 1.04 1.13 1.08h.36c.06 0 .11.05.11.1 0 .07-.05.12-.1.12h-3.03c-.06 0-.1-.05-.1-.11s.04-.11.1-.13c.27-.06.16-.38.06-.55l-2.28-6.55L13.4 31c-.2.52.01.74.14.79h.57c.06 0 .1.05.1.1 0 .07-.04.12-.1.12Z"/><path d="m9.33 29.37-1.2 1.9c.39-.35.82-.54.98-.58 2.39-.51 7.28-1.56 7.76-1.64.47-.08.9-.55 1.06-.78l1.23-1.97c-.32.39-.82.56-1.03.6l-7.52 1.6c-.96.2-1.04.51-1.28.87Z" fill="url(#c3t0nd1kw)"/><path d="M18.69 27.05c-.27.17-.72.31-.96.38-2.2.45-6.8 1.4-7.52 1.56-.43.1-.76.32-.98.54l-.16.24c.33-.23.88-.39 1.14-.44 2.18-.47 6.69-1.44 7.37-1.57.41-.08.75-.3.99-.51l.12-.2Zm-.55.88c-.27.17-.71.31-.95.38-2.2.45-6.8 1.4-7.52 1.56-.44.1-.78.34-1 .56l-.16.24c.33-.24.89-.4 1.16-.46 2.17-.47 6.69-1.44 7.37-1.57.41-.08.75-.3.98-.51l.12-.2Z" fill="#fff"/><path d="M19.46 28.79V29h1.68v-.21h-.27a.36.36 0 0 1-.36-.35V25.4l3.72 3.56c.03.03.07.04.1.04.08 0 .14-.06.14-.13V24.5c0-.2.16-.35.37-.35h.25V24h-1.8v.16h.38c.2 0 .33.16.33.35v3.15l-3.78-3.62a.13.13 0 0 0-.09-.04c-.07 0-.13.05-.13.12v4.32c0 .19-.16.35-.36.35h-.18Z"/><path fill-rule="evenodd" d="M25.35 24.16V24h2.62c.97-.03 3.03.43 3.03 2.54 0 2.1-2.2 2.51-3.25 2.45h-2.4v-.22h.38c.15 0 .27-.11.27-.26v-4.09a.27.27 0 0 0-.27-.26h-.38Zm1.65 4.3v-3.7c0-.15.06-.43.36-.43.38 0 2.64.06 2.64 2.37 0 1.7-1.36 2.08-2.04 2.06-.37 0-.8-.2-.96-.3Z"/><path fill-rule="evenodd" d="M30.92 24v.21h.32c.16 0 .26.12.26.27v4.05c0 .15-.1.27-.26.27h-.32v.2h2.15v-.2h-.38c-.15 0-.19-.12-.19-.27V27h.86l1.2 1.46c.14.18.58.54 1.16.54h.86v-.15h-.41c-.1-.02-.39-.15-.75-.55l-.5-.54-.95-1.05c.5-.3 1-.79 1-1.45 0-.96-.95-1.24-1.43-1.26h-2.62Zm1.58.55v1.92c0 .14.1.16.16.16h.43c.3 0 .91-.06.91-1.12 0-.85-.56-1.12-.84-1.15h-.5c-.14 0-.16.13-.16.2Z"/><path d="M36.4 24.2V24H40v1h-.11v-.32c-.06-.09-.33-.27-1-.27H38V26h1.35c.13 0 .42-.06.54-.23H40v1.13h-.16c-.01-.18-.16-.53-.63-.53H38v1.83c.01.17.04.48.33.48h1.4c.12-.07.39-.3.39-.66h.15V29H36.4v-.19h.34c.08 0 .26-.07.26-.3v-4.03c0-.09-.03-.27-.18-.27h-.42ZM40.1 25h.12c.05-.19.23-.56.6-.56H42v4.12c0 .09-.05.26-.26.26h-.3V29h2.13v-.18h-.36c-.1-.02-.21-.1-.21-.26v-4.12h1.08c.15.03.42.15.42.56h.17v-1h-4.39l-.17 1ZM50.5 24.44v4.12c0 .09-.03.26-.23.26h-.3V29H52v-.18h-.36c-.1-.02-.14-.1-.14-.26v-4.12c0-.17.03-.24.14-.26H52V24h-2.02v.18h.29c.2 0 .22.17.23.26ZM45.03 24.93h.12c.04-.17.22-.52.59-.52H47v4.15c0 .09-.13.26-.34.26h-.29V29h2.34v-.18h-.36c-.1-.02-.35-.1-.35-.26v-4.15h1c.15.03.43.21.43.59h.16v-1H45.2l-.18.93Z"/><path opacity=".5" d="M42 30H22v1h20v-1Zm10 0h-7v1h7v-1Z" fill="#E22726"/><defs><linearGradient id="a3t0nd1kw" x1="4.33" y1="27.03" x2="7.7" y2="27.72" gradientUnits="userSpaceOnUse"><stop/><stop offset=".15" stop-color="#58585A"/><stop offset=".24" stop-color="#7C7D80"/><stop offset=".38" stop-color="#59595B"/><stop offset=".57" stop-color="#040405"/><stop offset="1" stop-color="#212122"/></linearGradient><linearGradient id="b3t0nd1kw" x1="5.12" y1="31.41" x2="9.05" y2="30.62" gradientUnits="userSpaceOnUse"><stop stop-color="#0A3C79"/><stop offset="1" stop-color="#005BA9"/></linearGradient><linearGradient id="c3t0nd1kw" x1="9.46" y1="29.77" x2="19.16" y2="28.81" gradientUnits="userSpaceOnUse"><stop stop-color="#EE5F46"/><stop offset=".2" stop-color="#E22726"/><stop offset="1" stop-color="#860B06"/></linearGradient></defs></svg>