<!-- by TradingView --><svg xmlns="http://www.w3.org/2000/svg" width="56" height="56" viewBox="0 0 56 56"><path fill="#F0F3FA" d="M0 0h56v56H0z"/><circle cx="28" cy="28" r="16" fill="#FE8800"/><path d="M34.7 6.3c.37 1.61.48 5.32-2.08 7.3-.18.08-.6.26-.85.28.23-.41.68-1.5.68-2.55 0-1.04-.75-1.85-1.12-2.13.24.28.73 1.15.73 2.38a2.9 2.9 0 0 1-1.11 2.3c-1.44-.28-4.53-.54-5.46.66-.38-.2-1.16-.75-1.2-1.35-.04-.6.34-1.27.53-1.52-.55.48-1.36 1.85-.2 3.5-.4.4-1.29 1.26-1.64 1.41-.44.2-1.07-.02-1.18-.16-.3.04-.9.3-.91.96-.02.68.42.95.64 1 .76.25 2.28 1.17 2.28 2.85 0 1.67-.95 2.85-1.43 3.23.22-.02.67-.1.77-.22.11-.16-.61 1.7-2.38 2.66.3.06.95.14 1.24-.06-.1.16-.4.53-.82.7h.63a4.7 4.7 0 0 0-.75 4.2c.04-.2.2-.69.53-.95 0 .36-.05 1.18-.32 1.53.15-.12.46-.34.54-.24.1.13.1.24-.14.91-.18.54-1.43 2.9-2.03 4.02.25.77 1.24 2.5 3.2 3.35l.62 4.1c.15.44-.4 2.05-.98 3.25.28.02 1.63-.49 1.95-.89l-.14-5.88c.76.15 2.51.43 3.4.35l-.7-1.01c-.52.2-1.76.47-2.65-.13.12-1.24.47-4 .88-5.14 1.44.03 4.58-.33 5.67-2.02.3.7 1.15 2.28 2.05 3.05.4 2.23.76 7.57-1.09 11.09l-.47.87c.6-.12 1.88-.47 2.07-.55.02-.58.16-1.99.5-2.98.35-1 .74-2.4.89-2.99.28-1.85.8-5.73.73-6.47.82-1.11 2.28-3.98 1.5-6.48.68-.34 1.82-1.5.91-3.36-.06.28-.24.88-.47 1l-.17-.51-.45.87a2.16 2.16 0 0 1-.14-.68c-.12.24-.48.79-.88.96-.4-.42-1.26-1.25-1.61-1.2-.13.01-.33.15-.62.33-.7.46-1.87 1.22-3.55 1.3-1.9.08-3.06-1.5-3.4-2.3l.55.12-1-1.06.68.06c-.3-.18-.9-.93-.98-2.44.01-.27.11-.97.44-1.6.32-.65.38-1.47.37-1.8.68.75 2.3 1.49 3.35-1.55-1 .33-3.28.7-4.47-.42.05-.52.76-1.58 3.24-1.71l1.3-.03c2.17-.03 3.24-.04 4.77-3.18a2.56 2.56 0 0 0 1.33-2.62c-.02.51-.3 1.62-1.23 2 .13-1.06.23-3.4-.35-4.41zM22.52 36.31l-1.14 1.16c.17.4.7 1.33 1.38 1.83-.06-.04-.19-2.01-.24-2.99z" fill="#FE8800"/><path d="M33.89 13.12l-.55-.2c-.21.24-.45.47-.72.68-.18.08-.6.26-.85.28.13-.25.35-.73.5-1.3l-.35-.1c-.23.73-.7 1.21-.97 1.4-1.44-.28-4.53-.54-5.46.66-.38-.2-1.16-.75-1.2-1.35-.02-.26.05-.54.14-.79l-.17.04c-.31.67-.4 1.64.35 2.73-.4.4-1.28 1.26-1.63 1.41-.44.2-1.07-.02-1.18-.16-.3.04-.9.3-.91.96-.02.68.42.95.64 1 .76.25 2.28 1.17 2.28 2.85 0 1.67-.95 2.85-1.43 3.23.22-.02.67-.1.77-.22.11-.16-.61 1.7-2.38 2.66.3.06.95.14 1.24-.06-.1.16-.4.53-.82.7h.63a4.7 4.7 0 0 0-.75 4.2c.04-.2.2-.69.53-.95 0 .36-.05 1.18-.32 1.53.15-.12.46-.34.54-.24.1.13.1.24-.14.91-.18.54-1.43 2.9-2.03 4.02.25.77 1.24 2.5 3.2 3.35l.44 2.94c.35.1.7.2 1.07.28l-.06-2.64c.76.15 2.51.43 3.4.35l-.7-1.01c-.52.2-1.76.47-2.65-.13.12-1.24.47-4 .88-5.14 1.44.03 4.58-.33 5.67-2.02.3.7 1.15 2.28 2.05 3.05.27 1.49.52 4.36.1 7.15.51-.17 1-.37 1.49-.58l.3-1.13c.29-1.85.82-5.73.74-6.47.82-1.11 2.28-3.98 1.5-6.48.68-.34 1.82-1.5.91-3.36-.06.28-.24.88-.47 1l-.17-.51-.45.87a2.16 2.16 0 0 1-.14-.68c-.12.24-.48.79-.88.96-.4-.42-1.26-1.25-1.61-1.2-.13.01-.33.15-.62.33a6.8 6.8 0 0 1-3.55 1.3c-1.9.08-3.06-1.5-3.4-2.3l.55.12-1-1.06.68.06c-.3-.18-.9-.93-.98-2.44.01-.27.11-.97.44-1.6.32-.65.38-1.47.37-1.8.68.75 2.3 1.49 3.35-1.55-1 .33-3.28.7-4.47-.42.05-.52.76-1.58 3.24-1.71l1.3-.03c1.64-.02 2.65-.03 3.7-1.4zm-12.5 24.36l1.13-1.17c.05.98.18 2.95.23 2.99a4.91 4.91 0 0 1-1.37-1.82z" fill="#E8EBF2"/></svg>