<!-- by TradingView --><svg width="56" height="56" viewBox="0 0 56 56" xmlns="http://www.w3.org/2000/svg"><path fill="#F0F3FA" d="M0 0h56v56H0z"/><path d="M25.2 29C14.2 29.52 7 30.8 7 32.31c0 1.97 13.42 3.47 29.74 3.47 3.87 0 7.59-.4 10.98-.55H48c-4.3.3-9.25.77-14.53.77C17.12 35.98 4 34.38 4 32.41c0-1.62 8.9-2.99 21.22-3.41h-.02Z" fill="#EB2429"/><path d="M28.6 29c-8.38.45-13.6 1.56-13.6 2.85 0 1.67 9.94 2.95 22.4 2.95 2.87 0 5.73-.5 8.6-.5-3.28.25-7.05.7-11.08.7C22.48 35 13 33.63 13 31.96c-.05-1.4 6.22-2.57 15.6-2.96Z" fill="#EB2429"/><path d="M29 33.91c.68.03 1.38.11 2.1.08 10.22-.05 17.9-1 17.9-2.13 0-.93-5.07-1.66-12.77-1.86h.02c6.88.25 11.3 1.01 11.3 1.86 0 1.12-8.26 1.97-18.47 2.02l-.08.03Z" fill="#EB2429"/><path d="M10 22h1.57l.62 2.47.65-2.47h1.38l.64 2.47.62-2.47H17l-1.3 4h-1.57l-.62-2.36-.59 2.36h-1.57L10 22ZM18 22h1.5v4H18v-4ZM19.5 20H18v1h1.5v-1ZM22.95 25c-.45 0-.57-.47-.57-.84 0-.4.15-.83.62-.83.44 0 .5.44.5.8 0 .42-.07.87-.55.87Zm-.4-2.75c-1.07 0-1.55 1-1.55 1.94 0 .95.57 1.81 1.6 1.81.48 0 .62-.21.9-.59V26H25v-5h-1.5v1.7c-.3-.3-.52-.45-.94-.45ZM27.99 22.9c.37 0 .62.28.62.68h-1.24c.03-.36.26-.67.62-.67Zm-.03-.9c-1.11 0-1.96.82-1.96 2.05 0 1.25.93 1.95 2.01 1.95.68 0 1.75-.35 1.87-1.22h-1.32c-.1.2-.26.31-.5.31a.66.66 0 0 1-.7-.7H30c0-1.3-.73-2.39-2.04-2.39ZM33 22.32c1.01 0 1.62.9 1.62 1.68 0 .78-.63 1.66-1.6 1.66-.98 0-1.61-.83-1.61-1.64-.03-.8.52-1.7 1.59-1.7ZM31 22v9h.4v-5.69h.03A2 2 0 0 0 33 26c1.25 0 2-.97 2-2 0-1-.78-2-2.03-2-.6 0-1.25.25-1.56.69h-.03V22H31ZM37.96 22.35c.95 0 1.69.71 1.69 1.66 0 .93-.74 1.66-1.7 1.66-.89 0-1.6-.76-1.6-1.66 0-.87.68-1.66 1.6-1.66Zm.03-.35a2 2 0 0 0 0 4c1.14 0 2.01-.87 2.01-2.01 0-1.12-.87-1.99-2.01-1.99ZM41.43 21.21c0 .12-.1.22-.22.22a.22.22 0 0 1-.21-.22c0-.11.1-.21.21-.21.13.02.22.11.22.21ZM41 26h.44v-4H41v4ZM42.4 22.69c.27-.44.7-.69 1.26-.69 1.05 0 1.34.63 1.34 1.63V26h-.4v-2.37c0-.7-.1-1.27-1-1.27-1.02 0-1.2.9-1.2 1.7V26H42v-4h.4v.69ZM46.4 26H46v-3.67h-.6V22h.6v-1h.4v1h1v.33h-1V26Z" fill="#211D1E"/><path d="M32.91 31c1.7.16 3.09.48 3.09.87 0 .55-2.6.97-5.53.97-2.94 0-5.47-.45-5.47-.97 0-.39 1.34-.7 3.04-.87H28c-.13 0-.25.03-.38.03-2.16.16-3.63.52-3.63.94 0 .58 2.92 1.03 6.5 1.03s6.5-.45 6.5-1.03c0-.42-1.5-.78-3.66-.94-.17-.03-.3-.03-.43-.03Z" fill="#EB2429"/></svg>