<!-- by TradingView --><svg width="56" height="56" viewBox="0 0 56 56" xmlns="http://www.w3.org/2000/svg"><path fill="#F0F3FA" d="M0 0h56v56H0z"/><path d="M20 31.82c.2 0 .34-.04.44-.12.09-.07.21-.2.36-.4l2.86-3.5-2.51-3.1c-.15-.2-.29-.33-.4-.4a.71.71 0 0 0-.4-.12V24h2.4v.18c-.16 0-.19.06-.19.17 0 .1.07.2.2.35l1.74 2.08 1.82-2.08c.17-.18.25-.3.25-.35 0-.11-.14-.17-.34-.17V24h2.4v.18c-.17 0-.3.03-.37.1-.08.05-.2.2-.4.42l-2.5 3.04 2.87 3.56c.17.21.3.35.4.42.08.06.2.1.37.1V32h-2.55v-.18c.13 0 .22-.01.27-.03.05-.01.07-.04.07-.1 0-.07-.06-.17-.18-.3l-2.11-2.51-2.13 2.51c-.12.11-.18.22-.18.32 0 .07.09.1.26.1V32H20v-.18ZM35 28c.9 0 1.5-.57 1.5-1.23 0-.67-.63-1.27-1.5-1.27h-2.5V28H35Zm-4-3.45c0-.23-.09-.37-.38-.37V24h4.61c1.48 0 2.77 1.36 2.77 3 0 1.69-1.65 2.5-3.27 2.5H32.5v1.95c0 .23.09.37.38.37V32h-2.26v-.18c.3 0 .38-.14.38-.37v-6.9ZM43.63 30.5c1.68 0 2.87-.5 2.87-2.5 0-1.5-1.12-2.5-2.87-2.5H41.5v5h2.13ZM40 24.55c0-.23-.08-.37-.34-.37V24h4.5c2.2 0 3.84 1.68 3.84 4 0 2.25-1.34 4-3.57 4h-4.77v-.18c.26 0 .34-.14.34-.37v-6.9ZM49.37 31.82c.24 0 .41-.04.5-.1a.32.32 0 0 0 .13-.27v-6.9c0-.11-.04-.2-.13-.27-.09-.06-.26-.1-.5-.1V24H52v.18c-.25 0-.28.04-.37.1a.32.32 0 0 0-.13.27v6.9c0 .11.04.2.13.27.09.06.12.1.37.1V32h-2.63v-.18ZM4 24h15v8H4z" fill="#1A3661"/><path opacity=".6" d="M13.49 25.42h3.01v4.08h-3.01v-4.08Z" fill="#F0F3FA"/><path fill-rule="evenodd" d="M17 25h-4v5h4v-5Zm-.5.42h-3.01v4.08h3.01v-4.08Z" fill="#F0F3FA"/><circle cx="17" cy="29" r="1" fill="#F0F3FA"/><path d="M6.5 26.5H10v.5H6.5v-.5ZM12.5 28v1.5H12V28h.5ZM12.5 30v1.5H12V30h.5Z" fill="#F0F3FA"/><path d="m6.74 26.96-1.3 2.56-.36-.3 1.23-2.41.43.15Z" fill="#F0F3FA"/><path d="m6.34 26.97-1.77-2.26.4-.32 1.86 2.23-.49.35Z" fill="#F0F3FA"/><path d="M6.34 26.5H7V31h-.66v-4.5ZM11 30.34V31H7v-.66h4Z" fill="#F0F3FA"/><path d="M7.5 29H11v2H7.5v-2Z" fill="#F0F3FA"/></svg>