<!-- by TradingView --><svg xmlns="http://www.w3.org/2000/svg" width="56" height="56" viewBox="0 0 56 56"><path fill="#F0F3FA" d="M0 0h56v56H0z"/><path d="M12 32.37a4.52 4.52 0 0 1-8-2.87 4.51 4.51 0 0 1 7.96-2.92l-1.22 1.26A2.66 2.66 0 0 0 6 29.5a2.67 2.67 0 0 0 4.77 1.63L12 32.37z" fill="#00B2E2"/><path fill-rule="evenodd" d="M14.5 22h-2v12h2v-1.38A3.88 3.88 0 0 0 17.43 34c2.25 0 4.07-2.01 4.07-4.5S19.68 25 17.43 25c-1.15 0-2.19.53-2.93 1.38V22zm0 7.5c0 1.54 1.12 2.78 2.5 2.78s2.5-1.24 2.5-2.78c0-1.54-1.12-2.78-2.5-2.78s-2.5 1.24-2.5 2.78zM29 22h2v12h-2v-1.38A3.88 3.88 0 0 1 26.07 34C23.82 34 22 31.99 22 29.5s1.82-4.5 4.07-4.5c1.15 0 2.19.53 2.93 1.38V22zm0 7.5c0 1.54-1.12 2.78-2.5 2.78S24 31.04 24 29.5c0-1.54 1.12-2.78 2.5-2.78S29 27.96 29 29.5z" fill="#00B2E2"/><path d="M32 23v11h2v-7.1l3 4.42 3-4.42V34h2V23h-1.91L37 27.96 33.91 23H32z" fill="#0074C9"/><path fill-rule="evenodd" d="M46.5 23H43v11h3.5a5.5 5.5 0 1 0 0-11zm0 2H45v7h1.5a3.5 3.5 0 1 0 0-7z" fill="#0074C9"/></svg>