<!-- by TradingView --><svg width="56" height="56" viewBox="0 0 56 56" xmlns="http://www.w3.org/2000/svg"><path fill="#F0F3FA" d="M0 0h56v56H0z"/><path d="M39.62 17H36v4H20v-4h-3.62A15.95 15.95 0 0 0 12 28c0 4.04 1.5 7.73 3.97 10.54 1.65-1.57 4.58-4.04 6.03-4.04 1.07 0 2 1 2.86 1.94.75.8 1.44 1.56 2.14 1.56.7 0 1.28-.65 1.92-1.34.72-.8 1.5-1.66 2.58-1.66 1.17 0 3.03.69 4.57 1.25a11 11 0 0 0 2.43.75h2.73a15.95 15.95 0 0 0-1.61-20Zm-2.5 24.15C35.3 39.4 32.52 37 31.5 37c-.7 0-1.28.86-1.92 1.78C28.86 39.85 28.08 41 27 41c-1.17 0-2.34-1.72-3.31-3.14C23 36.86 22.4 36 22 36c-.7 0-2.2 3.04-3.13 5.14A15.93 15.93 0 0 0 28 44c3.4 0 6.54-1.05 9.12-2.85ZM20 15h-1.33a16 16 0 0 1 1.33-.86V15Zm2 0v-1.84a15.96 15.96 0 0 1 12 0V15H22Zm14 0v-.86c.46.27.9.55 1.33.86H36Zm-2 2v2H22v-2h12Zm-15 8h-4v-2h6v10h-6v-2h4v-6Zm13-2v7.41L29.41 33H24V23h8Zm-6 2v6h2.59L30 29.59V25h-4Zm8-2h7v2h-5v6h5v2h-7V23Z" fill="#EF7C1F"/></svg>