<!-- by TradingView --><svg width="56" height="56" viewBox="0 0 56 56" xmlns="http://www.w3.org/2000/svg"><path fill="#F0F3FA" d="M0 0h56v56H0z"/><path d="m22 32-3-7h-1l-3 7h1l.48-1h4l.52 1h1Zm-3.5-6 1.7 4h-3.4l1.7-4ZM23 25v1h2v6h1v-6h2v-1h-5ZM36 27c0-1.43-1.5-2-2.95-2-1.26 0-3.05.35-3.05 1.9 0 2.49 5.02 1.51 5.02 3.06 0 .93-1.02 1.04-1.92 1.04-.95 0-2.1.02-2.1-1h-1c0 1.68 1.72 2 3.1 2 1.29 0 2.9-.56 2.9-2.09 0-2.62-5-1.63-5-3.01 0-.51.74-.9 2-.9 1.18 0 2 .3 2 .8l1 .2ZM43 25h-5v7h5v-1h-4v-2h3v-1h-3v-2h4v-1ZM51 30.5 47 25h-1v7h1v-5.5l4 5.5h1v-7h-1v5.5ZM10 29H9v3h1v-3Z" fill="#2B2A29"/><path d="M15 24c-.83 2.33-3 4-5.5 4A5.97 5.97 0 0 1 4 24h1c.78 1.78 2.5 3 4.5 3s3.72-1.28 4.5-3h1Z" fill="#CD0070"/></svg>