<!-- by TradingView --><svg width="56" height="56" viewBox="0 0 56 56" xmlns="http://www.w3.org/2000/svg"><path fill="#F0F3FA" d="M0 0h56v56H0z"/><path d="M32.66 12.93s1.24 4.84 6.72 4.07l-3.78 6.78S33 20 28.47 19l4.2-6.07Z" fill="#BDC98B"/><path d="M24.49 12.58s-1.01 4.6-8 4.42l4.01 6.5s2.5-4.5 8-4.5l-4.01-6.42Z" fill="#BDC98B"/><path d="M32.75 43s1.15-4.77 6.63-4l-3.92-6.48s-2.7 3.48-7 4.48l4.3 6ZM24.43 43.45S23.5 39 16.5 39l4.5-7s2.03 4 7.5 4l-4.07 7.45Z" fill="#70ACDE"/><path d="M12.26 22.01s3 5 0 12L21 33.5s-2.66-5.97 0-10l-8.74-1.49Z" fill="#FCCE5C"/><path d="M39.5 17a4.5 4.5 0 1 1 0 9 4.5 4.5 0 0 1 0-9ZM28.5 10a4.5 4.5 0 1 1 0 9 4.5 4.5 0 0 1 0-9Z" fill="#83B11D"/><path d="M39.5 30a4.5 4.5 0 1 1 0 9 4.5 4.5 0 0 1 0-9Z" fill="#3F7CBF"/><path d="M16.5 17a4.5 4.5 0 1 1 0 9 4.5 4.5 0 0 1 0-9ZM16.5 30a4.5 4.5 0 1 1 0 9 4.5 4.5 0 0 1 0-9Z" fill="#F08D01"/><path d="M28.5 37a4.5 4.5 0 1 1 0 9 4.5 4.5 0 0 1 0-9Z" fill="#3F7CBF"/><path d="M36.5 28c0 4.97-3.53 9-8.5 9a9 9 0 1 1 0-18c4.97 0 8.5 4.03 8.5 9Z" fill="#F0F3FA"/></svg>