<!-- by TradingView --><svg width="56" height="56" viewBox="0 0 56 56" xmlns="http://www.w3.org/2000/svg"><path fill="#F0F3FA" d="M0 0h56v56H0z"/><path d="M30.27 25 34 21.62v6.85l1.85 1.57L29.28 36h-1.3V25h2.29Z" fill="#BA0C2F"/><path d="M25.75 25 22 21.62v6.85l-1.83 1.57L26.74 36h1.24V25h-2.23Z" fill="#E4002B"/><path d="m16.7 40.65 2.17-3.03a13.22 13.22 0 0 1-.44-18.76 13.3 13.3 0 0 1 15.74-2.6l2.17-3.03a16.92 16.92 0 0 0-23.11 6.37 16.9 16.9 0 0 0 3.47 21.05Z" fill="#BA0C2F"/><path d="m39.32 15.33-2.24 3.04a13.29 13.29 0 0 1-15.37 21.36l-2.16 3.03a16.97 16.97 0 0 0 23.17-6.32c4.03-7 2.6-15.78-3.4-21.1Z" fill="#E4002B"/></svg>